<svg width="105" height="55" viewBox="0 0 105 55" fill="none" xmlns="http://www.w3.org/2000/svg">
<rect width="105" height="55" rx="5" fill="white"/>
<path d="M83.8945 30.0319C83.8945 29.0319 84.4673 28.2819 85.2691 28.2819C86.3 28.2819 86.7581 29.4069 86.7581 30.9069C86.7581 32.4069 86.1855 33.5319 85.1545 33.5319C84.4673 33.5319 83.78 32.9069 83.78 31.7819L83.8945 30.0319ZM83.5509 26.5319H81.8327C81.8327 27.2819 81.8327 28.1569 81.8327 29.2819V38.2819H83.8945V34.1569C84.2381 34.7819 84.9255 35.1569 85.7273 35.1569C87.3309 35.1569 88.9345 33.7819 88.9345 30.7819C88.9345 28.1569 87.6745 26.5319 86.0709 26.5319C85.04 26.5319 84.3527 27.0319 83.78 27.9069L83.5509 26.5319ZM77.9381 34.9069H80V26.5319H77.9381V34.9069ZM80.1145 24.2819C80.1145 23.6569 79.6564 23.0319 78.9691 23.0319C78.8545 23.0319 78.6255 23.0319 78.5109 23.1569C78.3964 23.1569 78.2819 23.2819 78.1673 23.4069C78.0527 23.5319 77.9381 23.6569 77.9381 23.7819C77.9381 23.9069 77.8236 24.0319 77.8236 24.2819C77.8236 24.9069 78.2819 25.5319 78.9691 25.5319C79.6564 25.5319 80.1145 25.0319 80.1145 24.2819ZM74.3873 28.0319L74.2727 26.5319H72.5545C72.5545 27.2819 72.5545 28.1569 72.5545 29.1569V34.9069H74.6164V30.5319C74.6164 29.1569 75.3036 28.4069 76.22 28.4069C76.4491 28.4069 76.5636 28.4069 76.7927 28.4069V26.2819C76.6781 26.2819 76.4491 26.2819 76.3345 26.2819C75.6472 26.4069 74.8455 26.9069 74.3873 28.0319ZM64.3073 23.4069V25.2819H66.9419V34.9069H69.0036V25.2819H71.6381V23.4069H64.3073ZM60.9855 30.9069C60.8709 31.4069 60.7564 31.9069 60.6419 32.5319C60.5273 32.0319 60.4127 31.5319 60.2981 30.9069L59.1527 26.5319H56.9764L59.6109 34.2819C59.6109 34.4069 59.7255 34.5319 59.7255 34.6569C59.7255 34.7819 59.3819 35.6569 58.6945 36.1569C58.3509 36.4069 58.0073 36.6569 57.6636 36.7819L58.1219 38.6569C58.58 38.5319 59.3819 38.2819 60.0691 37.5319C60.9855 36.5319 61.5581 35.1569 62.4745 32.4069L64.1927 26.5319H62.0164L60.9855 30.9069ZM52.9673 23.4069L51.8219 27.7819C51.4781 29.1569 51.1345 30.5319 50.9055 31.9069C50.6764 30.5319 50.3327 29.1569 49.9891 27.7819L48.8436 23.4069H46.3236L45.5219 34.9069H47.3545L47.5836 30.4069C47.6981 29.0319 47.6981 27.2819 47.6981 25.7819C47.9273 27.1569 48.2709 28.7819 48.6145 30.0319L49.76 34.6569H51.3636L52.6236 30.0319C52.9673 28.7819 53.3109 27.1569 53.6545 25.7819C53.6545 26.9069 53.6545 28.7819 53.7691 30.2819L53.9981 34.7819H55.9455L55.4873 23.4069H52.9673ZM39.68 29.9069C39.68 29.0319 40.1381 28.0319 41.1691 28.0319C42.2 28.0319 42.5436 29.1569 42.4291 29.9069H39.68ZM44.2619 31.4069C44.2619 31.1569 44.3764 30.7819 44.2619 30.5319C44.2619 27.7819 43.0019 26.4069 41.1691 26.4069C38.8781 26.4069 37.6181 28.5319 37.6181 30.9069C37.6181 33.5319 38.9927 35.1569 41.3981 35.1569C42.3145 35.1569 43.2309 35.0319 43.9181 34.6569L43.5745 33.1569C43.0019 33.4069 42.4291 33.5319 41.7419 33.5319C40.5964 33.5319 39.68 32.9069 39.68 31.5319L44.2619 31.4069ZM31.5473 34.5319C32.12 34.9069 32.9219 35.1569 33.7236 35.1569C35.6709 35.1569 36.7019 34.1569 36.7019 32.5319C36.7019 31.4069 36.1291 30.5319 34.7545 30.0319C33.8381 29.6569 33.6091 29.4069 33.6091 28.9069C33.6091 28.4069 33.9527 28.1569 34.5255 28.1569C35.0981 28.1569 35.6709 28.4069 36.0145 28.6569L36.3581 27.0319C35.9 26.7819 35.2127 26.5319 34.4109 26.5319C32.6927 26.5319 31.6619 27.6569 31.6619 29.1569C31.6619 30.0319 32.2345 30.9069 33.6091 31.5319C34.4109 31.9069 34.7545 32.1569 34.7545 32.6569C34.7545 33.1569 34.4109 33.5319 33.7236 33.5319C33.1509 33.5319 32.3491 33.2819 31.8909 33.0319L31.5473 34.5319ZM28.2255 32.0319C28.2255 33.1569 27.4236 33.5319 26.9655 33.5319C26.5073 33.5319 26.0491 33.1569 26.0491 32.4069C26.0491 31.1569 27.1945 30.9069 28.34 30.9069V32.0319H28.2255ZM24.9036 28.5319C25.4764 28.1569 26.1636 27.9069 26.7364 27.9069C27.8819 27.9069 28.1109 28.5319 28.1109 29.4069C25.7055 29.4069 23.8727 30.4069 23.8727 32.5319C23.8727 33.9069 24.7891 35.0319 26.1636 35.0319C26.9655 35.0319 27.7673 34.6569 28.2255 34.0319L28.34 34.9069H30.2873C30.1727 34.4069 30.1727 33.6569 30.1727 32.9069V29.9069C30.1727 28.0319 29.4855 26.4069 27.1945 26.4069C26.0491 26.4069 25.0181 26.7819 24.56 27.1569L24.9036 28.5319ZM19.0619 29.9069H22.4981V28.0319H19.0619V25.2819H22.7273V23.4069H17V34.9069H22.9564V33.0319H19.0619V29.9069Z" fill="#005999"/>
<path fill-rule="evenodd" clip-rule="evenodd" d="M30.2871 27.6569C35.8999 15.2819 51.249 24.7819 59.7254 16.5319C51.249 26.1569 34.4108 18.0319 30.2871 27.6569Z" fill="#00699E"/>
<path fill-rule="evenodd" clip-rule="evenodd" d="M50.1038 9.03185L70.0348 10.7819C70.9512 10.7819 70.8366 11.0319 70.3784 11.5319L60.6421 21.9069C60.0693 22.5319 59.9548 22.4069 59.3821 21.6569L55.4876 17.0319C55.0293 16.4069 54.9148 16.2819 55.7166 16.0319L65.1093 12.6569L54.4566 14.7819C53.6548 14.9069 53.7693 15.0319 53.1966 14.1569L49.7602 9.65685C49.3021 9.15685 49.4166 8.90685 50.1038 9.03185Z" fill="#00A3D6"/>
<path fill-rule="evenodd" clip-rule="evenodd" d="M55.8312 16.6569L56.8621 17.9069C57.3202 18.5319 57.2057 18.5319 56.633 18.9069L53.3112 20.5319C52.9676 20.7819 52.6238 20.5319 52.9676 20.0319L55.0293 16.4069C55.2584 16.0319 55.4876 16.2819 55.8312 16.6569Z" fill="#00699E"/>
</svg>
