<svg width="84" height="36" viewBox="0 0 84 36" fill="none" xmlns="http://www.w3.org/2000/svg">
<mask id="mask0_3399_2160" style="mask-type:alpha" maskUnits="userSpaceOnUse" x="0" y="0" width="84" height="36">
<rect width="84" height="36" fill="#C4C4C4"/>
</mask>
<g mask="url(#mask0_3399_2160)">
</g>
<path d="M47.4871 22.04C47.9921 21.95 48.4891 22.397 48.5971 23.026C48.7051 23.664 48.3901 24.252 47.8851 24.343H47.8681C47.3381 24.443 46.8081 24.492 46.2701 24.5C45.1511 24.5 44.2491 24.235 43.5451 23.689C42.6421 23.001 42.1701 21.908 42.1701 20.549V7.92898C42.1701 7.41498 42.6921 7.00098 43.3381 7.00098C43.9841 7.00098 44.5061 7.41498 44.5061 7.92898V20.55C44.5061 21.17 44.6631 21.601 44.9691 21.842C45.2431 22.057 45.9221 22.322 47.4621 22.049L47.4871 22.041V22.04ZM23.8831 23.399C23.4601 23.399 23.0631 22.778 22.8561 22.372C21.9809 20.666 21.1222 18.9515 20.2801 17.229C18.9301 14.47 18.2011 13.154 17.5881 12.682C16.9841 12.21 16.8601 11.605 17.1501 11.067C17.2974 10.8032 17.5434 10.6087 17.8341 10.5262C18.1247 10.4437 18.4362 10.48 18.7001 10.627C18.7081 10.627 18.7081 10.636 18.7161 10.636C20.0161 11.373 20.6961 12.756 22.3851 16.202C23.0391 17.535 23.8511 19.2 24.9191 21.27C25.1841 21.784 25.3661 22.82 24.9111 23.159L23.8841 23.399H23.8831Z" fill="#EA2330"/>
<path d="M51.222 18.3961C51.2218 16.9244 50.637 15.5132 49.5965 14.4726C48.5559 13.432 47.1446 12.8473 45.673 12.8471H40.763C40.249 12.8471 39.834 12.3251 39.834 11.6791C39.834 11.0331 40.249 10.5121 40.762 10.5121H45.673C46.7085 10.5117 47.734 10.7153 48.6907 11.1114C49.6475 11.5074 50.5168 12.0881 51.2491 12.8203C51.9813 13.5524 52.5621 14.4217 52.9583 15.3784C53.3545 16.3351 53.5583 17.3606 53.558 18.3961V23.5891C53.558 24.1031 53.036 24.5171 52.39 24.5171C51.744 24.5171 51.222 24.1031 51.222 23.5891V18.3961ZM37.226 19.8621V19.9861C37.226 21.3201 36.149 22.1811 34.451 22.1811C32.753 22.1811 31.668 21.3201 31.668 19.9951C31.668 18.6611 32.762 17.8001 34.451 17.8001H34.551C36.315 17.8001 39.354 18.6121 39.561 18.6781V16.4581C38.435 16.0611 36.637 15.4641 34.551 15.4641H34.451C31.321 15.4641 29.333 17.4941 29.333 19.9941C29.333 22.4961 31.32 24.5171 34.451 24.5171C37.581 24.5171 39.569 22.4971 39.569 19.9951V19.8791L39.561 15.0341C39.561 12.5331 37.151 10.5121 34.451 10.5121L34.004 10.5031C30.442 10.5031 27.66 11.4641 25.622 16.1681C25.4585 16.5476 25.2985 16.9286 25.142 17.3111L25.125 17.3611C24.637 18.5621 24.355 19.4481 23.651 21.0711C22.334 24.1111 21.158 25.8841 19.361 25.9831C18.391 26.0411 18.151 26.6871 18.268 27.3331C18.384 27.9791 18.798 28.3761 19.361 28.3761C22.284 28.3761 24.115 25.6851 25.862 21.8501L25.887 21.8001C26.152 21.1801 26.409 20.5331 26.674 19.8541C27.022 18.9511 27.386 18.0151 27.784 17.0961C29.341 13.5021 31.105 12.8391 34.012 12.8391H34.459C35.709 12.8391 37.234 13.7001 37.234 15.0251V19.8381" fill="#EA2330"/>
<path d="M64.358 19.862V19.986C64.358 21.32 63.265 22.181 61.575 22.181C59.885 22.181 58.792 21.32 58.792 19.995C58.792 18.661 59.886 17.8 61.575 17.8H61.675C63.439 17.8 66.478 18.612 66.685 18.678V16.458C65.559 16.061 63.753 15.464 61.675 15.464H61.575C58.445 15.464 56.457 17.494 56.457 19.994C56.457 22.496 58.444 24.517 61.575 24.517C64.705 24.517 66.694 22.496 66.694 19.995V19.879L66.685 15.034C66.685 12.532 64.275 10.52 61.575 10.52C61.575 10.52 60.739 10.512 60.565 10.512C54.817 10.512 51.231 14.263 51.231 19.448H53.566C53.566 15.555 56.109 12.848 60.565 12.848C60.772 12.848 61.418 12.855 61.418 12.855C63.091 12.855 64.366 13.709 64.366 15.034L64.358 19.862Z" fill="#EA2330"/>
<g opacity="0.7">
<path opacity="0.7" d="M37.2259 18.131V19.995C37.2259 21.038 36.5629 21.792 35.4609 22.065V24.442C38.0039 24.053 39.5689 22.214 39.5689 19.995V18.678C39.3039 18.612 37.8889 18.288 37.2259 18.131Z" fill="url(#paint0_linear_3399_2160)"/>
<path opacity="0.7" d="M64.358 18.131V19.995C64.358 21.038 63.687 21.792 62.585 22.074V24.451C65.128 24.061 66.693 22.223 66.693 20.003V18.687C66.42 18.612 65.02 18.289 64.358 18.131Z" fill="url(#paint1_linear_3399_2160)"/>
<path opacity="0.7" d="M46.261 10.528V12.872C47.623 13.0186 48.8831 13.6625 49.8001 14.6802C50.7171 15.6979 51.2266 17.0181 51.231 18.388V18.67H51.264C51.3492 17.1993 51.7927 15.7719 52.556 14.512C51.9131 13.3833 51.0028 12.4297 49.9052 11.7351C48.8076 11.0404 47.5562 10.6259 46.261 10.528Z" fill="url(#paint2_linear_3399_2160)"/>
<path opacity="0.7" d="M44.514 12.839H42.178V18.761H44.514V12.839Z" fill="url(#paint3_linear_3399_2160)"/>
<path opacity="0.7" d="M20.28 17.2369C20.943 18.5869 21.77 20.2769 22.856 22.3799C22.889 22.4379 22.922 22.5039 22.963 22.5699C23.4004 21.6716 23.804 20.7573 24.173 19.8289C23.46 18.4129 22.873 17.2199 22.375 16.2179L20.28 17.2369Z" fill="url(#paint4_linear_3399_2160)"/>
</g>
<defs>
<linearGradient id="paint0_linear_3399_2160" x1="36.9069" y1="24.694" x2="38.0659" y2="18.116" gradientUnits="userSpaceOnUse">
<stop offset="0.02" stop-color="white" stop-opacity="0"/>
<stop offset="0.65" stop-color="white" stop-opacity="0"/>
<stop offset="0.71" stop-color="#DFDFE0" stop-opacity="0.17"/>
<stop offset="0.89" stop-color="#88898A" stop-opacity="0.62"/>
<stop offset="0.99" stop-color="#666769" stop-opacity="0.8"/>
</linearGradient>
<linearGradient id="paint1_linear_3399_2160" x1="64.029" y1="24.695" x2="65.192" y2="18.094" gradientUnits="userSpaceOnUse">
<stop offset="0.02" stop-color="white" stop-opacity="0"/>
<stop offset="0.65" stop-color="white" stop-opacity="0"/>
<stop offset="0.71" stop-color="#DFDFE0" stop-opacity="0.17"/>
<stop offset="0.91" stop-color="#88898A" stop-opacity="0.62"/>
<stop offset="1" stop-color="#666769" stop-opacity="0.8"/>
</linearGradient>
<linearGradient id="paint2_linear_3399_2160" x1="45.336" y1="13.38" x2="52.392" y2="15.673" gradientUnits="userSpaceOnUse">
<stop offset="0.02" stop-color="white" stop-opacity="0"/>
<stop offset="0.65" stop-color="white" stop-opacity="0"/>
<stop offset="0.71" stop-color="#DFDFE0" stop-opacity="0.17"/>
<stop offset="0.91" stop-color="#88898A" stop-opacity="0.62"/>
<stop offset="1" stop-color="#666769" stop-opacity="0.8"/>
</linearGradient>
<linearGradient id="paint3_linear_3399_2160" x1="43.347" y1="18.767" x2="43.347" y2="12.843" gradientUnits="userSpaceOnUse">
<stop offset="0.02" stop-color="white" stop-opacity="0"/>
<stop offset="0.65" stop-color="white" stop-opacity="0"/>
<stop offset="0.71" stop-color="#DFDFE0" stop-opacity="0.17"/>
<stop offset="0.91" stop-color="#88898A" stop-opacity="0.62"/>
<stop offset="1" stop-color="#666769" stop-opacity="0.8"/>
</linearGradient>
<linearGradient id="paint4_linear_3399_2160" x1="20.314" y1="15.4509" x2="23.853" y2="21.3689" gradientUnits="userSpaceOnUse">
<stop offset="0.02" stop-color="white" stop-opacity="0"/>
<stop offset="0.5" stop-color="white" stop-opacity="0"/>
<stop offset="0.54" stop-color="#F0F0F1" stop-opacity="0.07"/>
<stop offset="0.85" stop-color="#8D8D8F" stop-opacity="0.52"/>
<stop offset="1" stop-color="#666769" stop-opacity="0.7"/>
</linearGradient>
</defs>
</svg>
