<svg width="146" height="34" viewBox="0 0 146 34" fill="none" xmlns="http://www.w3.org/2000/svg">
<path d="M3.96455 13.6103C3.48607 11.839 3.09895 10.155 2.56036 8.51946C2.29106 7.69804 1.66831 7.00021 1.35092 6.18848C0.83397 4.86065 0.432429 3.4892 0.00443828 2.12744C-0.0268194 2.0281 0.129469 1.8706 0.401171 1.36176C0.978237 3.2057 0.838779 5.04722 2.34396 6.15456C2.61326 5.00118 2.81042 3.86962 3.15425 2.78409C3.48366 1.73248 3.86837 0.661494 4.9095 0.0121153C4.10641 2.13956 3.10376 4.17492 3.19994 6.73367C4.7508 5.08599 6.1598 3.58854 7.52312 2.13713C7.80685 2.82044 7.25623 4.02469 6.17664 4.8243C5.69575 5.18049 5.14754 5.48337 4.76523 5.92679C3.62552 7.24736 3.29612 8.86838 3.83952 10.4676C4.859 13.4698 6.86912 15.8007 9.33126 17.9839C9.4034 17.1334 9.4587 16.4671 9.514 15.7983L9.81696 15.7014C10.3964 18.1463 10.8461 21.0854 14.0921 20.5596C16.2224 20.2131 16.9389 17.9815 17.0327 15.7983L17.4559 15.7862C17.5376 16.438 17.6194 17.0898 17.7228 17.9015C20.1681 15.6965 22.2984 13.3728 23.2025 10.218C23.8108 8.093 22.95 6.23694 21.1058 5.0133C19.829 4.16523 19.2544 3.10151 19.466 2.1226C20.8341 3.58612 22.2431 5.09326 23.8228 6.78213C23.8445 4.23065 22.9717 2.15167 21.7863 0C22.8009 0.300459 23.2626 0.920761 23.8324 2.75501C24.1739 3.85266 24.3758 4.99392 24.6451 6.13517C26.2032 5.05934 25.9363 3.15482 26.749 1.74945C27.0327 3.19601 26.8284 4.582 25.982 5.69902C24.9529 7.05836 24.3446 8.50492 24.0488 10.1793C23.8493 11.3084 23.3251 12.3794 22.9452 13.4819C24.3927 13.5788 25.1717 13.1378 25.4122 11.8269C25.6069 10.7632 25.5588 9.65103 25.6189 8.56065L26.0085 8.51219C26.0998 9.19549 26.2657 9.87637 26.2729 10.5597C26.2922 13.1572 25.631 14.0804 23.1376 14.628C21.3535 15.0205 21 16.7918 19.6824 17.7222C21.6492 18.3159 23.3155 17.6398 24.6427 15.8201L24.9625 15.8977C24.8207 16.3265 24.7774 16.833 24.5177 17.1746C23.5968 18.391 22.2094 18.6866 20.8052 18.895C20.0527 19.0064 19.2832 19.0379 18.5475 19.21C18.1532 19.3021 17.8141 19.6195 17.2443 19.9587C18.8673 19.8545 20.2186 19.7697 21.6396 19.6801C21.1298 21.8099 20.3171 22.5586 18.4465 22.7937C16.4412 23.0457 16.4797 23.1159 16.4724 25.1101C16.47 26.1036 16.0517 27.0994 15.7944 28.088C15.5756 28.9313 15.239 29.7478 15.0923 30.6008C14.8807 31.8292 14.3686 32.4956 13.426 32.4084C12.2671 32.3017 12.0002 31.4803 11.8752 30.4602C11.779 29.6824 11.6251 28.8344 11.2212 28.1947C10.5768 27.1746 10.3652 26.1399 10.4589 24.9793C10.608 23.1596 10.5191 22.9875 8.65321 22.8203C6.84507 22.658 5.82559 21.7057 5.26295 19.6776C6.76091 19.7745 8.11462 19.8618 9.46831 19.949L9.55968 19.8109C9.04994 19.5807 8.55944 19.2584 8.02325 19.1373C6.85469 18.8756 5.62121 18.8514 4.49834 18.4758C3.71208 18.2117 3.0172 17.5817 2.37522 17.0098C2.12035 16.7821 2.11794 16.2684 2.13718 15.7426C3.24562 17.8676 5.16196 17.9064 7.15524 17.8676C5.97947 16.6343 5.43607 14.8606 3.3418 14.4778C0.930148 14.0368 -0.267263 10.3804 1.40142 8.36196C1.62263 10.5185 0.562268 13.288 3.95974 13.6079L3.96455 13.6103Z" fill="#002340"/>
<path d="M93.0203 21.1737H95.1386C95.1842 21.2246 95.2636 21.2731 95.278 21.3361C96.0763 25.3802 100.467 27.1296 103.884 24.7599C105.725 23.4829 105.588 20.694 103.537 19.8435C101.996 19.2038 100.325 18.8864 98.7116 18.4308C98.2114 18.2903 97.7017 18.1861 97.2064 18.031C94.7058 17.2363 93.667 16.0781 93.5588 13.9797C93.4218 11.3264 94.5759 9.1675 96.8265 8.3267C99.5435 7.31144 102.256 7.43987 104.795 8.97124C106.37 9.92107 107.098 11.5227 107.031 13.7107H104.792C104.776 13.6889 104.706 13.6356 104.684 13.5678C103.71 10.396 101.224 9.14085 98.0648 10.2312C96.8241 10.6601 95.9513 11.891 95.9729 13.1801C95.9945 14.5273 96.7856 15.2276 97.9806 15.5498C99.8344 16.0466 101.7 16.5021 103.554 16.9988C106.252 17.7233 107.497 19.1675 107.625 21.685C107.764 24.4667 106.682 26.1773 104.054 27.1732C101.525 28.1303 98.9592 28.22 96.4442 27.1441C94.0638 26.1265 92.7173 23.7349 93.0203 21.1762V21.1737Z" fill="#002340"/>
<path d="M49.579 27.2417C46.9053 27.4864 46.9125 27.484 46.0757 25.17C45.6526 24.0021 45.5059 22.4028 44.6667 21.8068C43.8276 21.2107 42.2815 21.6178 41.0457 21.5935C40.5263 21.5838 40.0045 21.5814 39.4852 21.5935C36.9605 21.659 37.6722 21.138 36.6936 23.6071C36.4411 24.2419 36.232 24.8962 35.9987 25.5383C35.2534 27.5979 35.1764 27.6366 32.772 27.1448C33.6472 24.8017 34.5176 22.478 35.3856 20.1542C36.7657 16.4591 38.194 12.7809 39.4996 9.05908C39.9372 7.81363 40.8268 8.34912 41.565 8.25462C42.2431 8.16739 42.8153 8.18435 43.1303 9.08331C45.1933 14.9689 47.3212 20.8303 49.4275 26.7013C49.478 26.8443 49.5117 26.9945 49.579 27.2393V27.2417ZM44.0825 19.4128C43.1375 16.6917 42.2334 14.0845 41.3294 11.4749L41.0457 11.5015C40.1175 14.1039 39.187 16.7062 38.2228 19.4104H44.0825V19.4128Z" fill="#002340"/>
<path d="M72.9717 21.0597H63.1977C62.9212 23.1629 63.8902 25.0214 65.4819 25.569C67.4175 26.2353 69.3338 25.5423 70.2691 23.6717C70.8895 22.4287 71.8465 23.1653 72.6568 22.9642C72.7048 24.7234 71.1949 26.6715 69.2905 27.3863C64.876 29.0412 60.7764 26.279 60.5528 21.4183C60.4975 20.2286 60.6225 18.9856 60.9159 17.8322C61.7502 14.5635 64.4336 12.7777 67.7854 13.1096C70.7861 13.4077 72.7169 15.569 72.9645 18.9468C73.0102 19.5865 72.9717 20.231 72.9717 21.0597V21.0597ZM70.5601 19.1624C70.4567 16.4365 68.9106 14.9294 66.5711 15.1232C64.5394 15.2928 63.0029 17.1368 63.241 19.1624H70.5601Z" fill="#002340"/>
<path d="M122.337 20.1838C122.219 21.0609 122.181 21.9551 121.974 22.8104C120.919 27.1404 116.658 29.1418 112.794 27.167C111.476 26.4934 110.565 25.4297 110.077 24.0655C109.219 21.6667 109.219 19.2243 110.173 16.8521C111.371 13.8742 113.967 12.5415 117.286 13.0891C120.003 13.5374 122.01 15.8683 122.232 18.8439C122.265 19.2848 122.236 19.7307 122.236 20.1741L122.34 20.1862L122.337 20.1838ZM119.974 20.1184C119.808 19.2243 119.733 18.4174 119.505 17.6566C119.005 15.9846 117.846 15.1051 116.177 15.0203C114.456 14.933 113.268 15.6333 112.568 17.2398C111.714 19.1976 111.616 21.2112 112.342 23.2344C112.986 25.0275 114.117 25.7956 115.975 25.7665C117.757 25.7374 118.796 24.9669 119.356 23.1036C119.654 22.1126 119.781 21.0731 119.974 20.1184V20.1184Z" fill="#002340"/>
<path d="M143.427 13.4037H146C144.973 16.2823 144.009 19.0931 142.97 21.8747C141.9 24.7388 140.83 27.6053 139.623 30.4136C138.556 32.8948 137.435 33.3721 134.668 32.8173V30.8691C137.175 30.9418 137.575 30.6607 138.257 28.1577C138.37 27.741 138.257 27.2055 138.108 26.7766C136.697 22.7519 135.254 18.7393 133.826 14.7195C133.679 14.3075 133.564 13.8859 133.437 13.4692C133.574 13.4231 133.646 13.3795 133.72 13.3747C135.219 13.2874 136.203 13.9635 136.673 15.4028C137.647 18.3831 138.618 21.3611 139.695 24.6613C141.006 20.7068 142.215 17.0577 143.427 13.4062V13.4037Z" fill="#002340"/>
<path d="M75.0371 13.4061H77.129C77.1795 13.9052 77.2252 14.3729 77.2901 15.0247C77.6363 14.7315 77.8816 14.5134 78.1388 14.3099C79.9446 12.8803 81.9475 12.7155 84.0225 13.5224C85.3449 14.0361 86.0518 15.2209 86.0903 16.556C86.1913 20.0913 86.124 23.6338 86.124 27.2466H83.847C83.847 24.8501 83.847 22.524 83.847 20.1955C83.847 19.6309 83.8542 19.0663 83.847 18.5017C83.8181 16.4688 83.1256 15.4124 81.7094 15.233C79.7378 14.9835 77.9417 16.0351 77.5257 17.8427C77.2949 18.8482 77.2925 19.9192 77.2756 20.9611C77.2396 23.0159 77.266 25.0706 77.266 27.2247H75.0395V13.4061H75.0371Z" fill="#002340"/>
<path d="M124.739 8.28125H126.947V27.261H124.739V8.28125Z" fill="#002340"/>
<path d="M131.76 27.2589H129.543V8.32031H131.76V27.2589Z" fill="#002340"/>
<path d="M51.335 8.28906H53.41V27.2373H51.335V8.28906Z" fill="#002340"/>
<path d="M56.6772 8.28906H58.7523V27.2301H56.6772V8.28906Z" fill="#002340"/>
</svg>
