<svg width="93" height="28" viewBox="0 0 93 28" fill="none" xmlns="http://www.w3.org/2000/svg">
<path fill-rule="evenodd" clip-rule="evenodd" d="M57.693 21.7418C52.288 25.6332 44.4541 27.7048 37.7089 27.7048C28.2539 27.7048 19.7417 24.2948 13.2991 18.6163C12.794 18.1714 13.2444 17.5623 13.8553 17.9051C20.8048 21.8549 29.4027 24.2328 38.2797 24.2328C44.2681 24.2328 50.8529 23.0183 56.9107 20.5091C57.8243 20.1298 58.5883 21.0963 57.6966 21.7418H57.6912H57.693Z" fill="#FF9900"/>
<path fill-rule="evenodd" clip-rule="evenodd" d="M59.9414 19.2407C59.2485 18.3782 55.3735 18.8304 53.632 19.0329C53.1032 19.0949 53.0193 18.6444 53.4971 18.3217C56.5879 16.2009 61.6592 16.8136 62.2464 17.5193C62.8408 18.2378 62.0895 23.196 59.1938 25.5629C58.747 25.9276 58.3258 25.7325 58.5209 25.2511C59.1737 23.661 60.6344 20.1014 59.9432 19.2371V19.2407H59.9414Z" fill="#FF9900"/>
<path fill-rule="evenodd" clip-rule="evenodd" d="M53.754 3.34215V1.27792C53.754 0.964268 53.9984 0.754563 54.2901 0.754563H63.7524C64.0551 0.754563 64.2976 0.967915 64.2976 1.27427V3.03944C64.2976 3.33486 64.0387 3.72144 63.5865 4.33597L58.6848 11.1651C60.5029 11.1232 62.4285 11.3876 64.0825 12.2957C64.4545 12.4999 64.5566 12.8026 64.5839 13.098V15.2972C64.5839 15.5999 64.2448 15.95 63.8892 15.7695C60.977 14.2815 57.1111 14.1192 53.8908 15.7877C53.5625 15.961 53.2179 15.6127 53.2179 15.31V13.222C53.2179 12.8865 53.2252 12.3176 53.5716 11.807L59.2483 3.85639H54.3065C54.002 3.85639 53.7595 3.64668 53.7595 3.33668L53.754 3.34033V3.34215ZM19.2401 16.2072H16.3589C16.2307 16.2024 16.1085 16.152 16.0142 16.0651C15.9199 15.9781 15.8598 15.8604 15.8446 15.733V1.31439C15.8446 1.02262 16.0963 0.79468 16.4026 0.79468H19.0832C19.3641 0.807445 19.5902 1.0135 19.6066 1.27974V3.1598H19.6613C20.3634 1.33627 21.6781 0.490151 23.4524 0.490151C25.2249 0.490151 26.381 1.33992 27.187 3.1598C27.8854 1.33992 29.4701 0.490151 31.1623 0.490151C32.3713 0.490151 33.6915 0.97521 34.4939 2.0675C35.4093 3.28197 35.2196 5.03986 35.2196 6.58986V15.6874C35.2196 15.9756 34.968 16.2072 34.6598 16.2072H31.7841C31.4978 16.1889 31.2681 15.9646 31.2681 15.6911V8.04686C31.2681 7.44144 31.3209 5.92245 31.186 5.34803C30.9708 4.37609 30.3289 4.10439 29.4956 4.10439C28.7972 4.10439 28.0732 4.56027 27.7742 5.28786C27.4769 6.01727 27.5061 7.22809 27.5061 8.04686V15.6874C27.5061 15.9756 27.2581 16.2072 26.9518 16.2072H24.0761C23.7879 16.1889 23.56 15.9646 23.56 15.6911V8.04686C23.56 6.4385 23.8244 4.07339 21.7839 4.07339C19.7415 4.07339 19.7962 6.38015 19.7962 8.04868V15.6893C19.7962 15.9756 19.5464 16.2072 19.2401 16.2072ZM72.4397 0.491974C76.7104 0.491974 79.0227 4.07339 79.0227 8.62492C79.0227 13.1746 76.4697 16.5135 72.4397 16.5135C68.4097 16.5135 65.9662 12.9321 65.9662 8.47356C65.9662 4.01686 68.2729 0.491974 72.4397 0.491974ZM72.4652 3.43697C70.3445 3.43697 70.2095 6.25615 70.2095 8.01768C70.2095 9.78103 70.184 13.5412 72.4397 13.5412C74.6954 13.5412 74.7775 10.5068 74.7775 8.65409C74.7775 7.44144 74.7246 5.98445 74.3471 4.83197C74.0225 3.83086 73.3806 3.43697 72.4652 3.43697ZM84.5625 16.2072H81.6959C81.4097 16.1889 81.1799 15.9646 81.1799 15.6911V1.26697C81.1999 1.00074 81.4388 0.792857 81.7288 0.792857H84.4002C84.5177 0.796773 84.6309 0.838441 84.7228 0.911686C84.8148 0.984931 84.8807 1.08586 84.9108 1.1995V3.40597H84.9674C85.7752 1.42927 86.9003 0.490151 88.8879 0.490151C90.179 0.490151 91.4409 0.946033 92.2487 2.18786C93 3.34215 93 5.28239 93 6.67739V15.7494C92.9785 15.8793 92.9107 15.9971 92.8091 16.0809C92.7075 16.1646 92.5791 16.2089 92.4475 16.2053H89.5608C89.4359 16.2008 89.3165 16.1527 89.2233 16.0695C89.1301 15.9862 89.0689 15.873 89.0502 15.7494V7.9265C89.0502 6.34915 89.2381 4.04239 87.2504 4.04239C86.552 4.04239 85.9046 4.49827 85.5855 5.19486C85.1844 6.0738 85.1278 6.95456 85.1278 7.9265V15.6874C85.1207 15.8303 85.058 15.9647 84.953 16.0618C84.848 16.159 84.7092 16.2111 84.5662 16.2072H84.5625ZM46.2119 9.32333C46.2119 10.4174 46.2374 11.3292 45.6739 12.3012C45.2162 13.0907 44.4886 13.5776 43.6808 13.5776C42.5776 13.5776 41.9302 12.757 41.9302 11.5426C41.9302 9.15009 44.1312 8.71609 46.2119 8.71609V9.32515V9.3215V9.32333ZM49.1149 16.1689C49.0213 16.2469 48.9065 16.295 48.7852 16.307C48.664 16.319 48.5419 16.2944 48.4348 16.2363C47.4792 15.4613 47.3096 15.1021 46.7863 14.3654C45.2071 15.9373 44.0875 16.4077 42.0396 16.4077C39.6162 16.4077 37.7288 14.9489 37.7288 12.0313C37.7288 9.74821 38.9962 8.20003 40.7978 7.4378C42.3588 6.76856 44.5397 6.64821 46.2119 6.46586V6.10297C46.2119 5.43374 46.2666 4.64415 45.8618 4.06792C45.5135 3.55003 44.8406 3.3385 44.2461 3.3385C43.1502 3.3385 42.1728 3.88556 41.9302 5.02345C41.8828 5.27509 41.6932 5.52674 41.4324 5.5395L38.6424 5.24774C38.409 5.19486 38.1482 5.01068 38.2121 4.66056C38.8521 1.3545 41.912 0.357033 44.6491 0.357033C46.0496 0.357033 47.8804 0.721739 48.9836 1.7575C50.3841 3.03397 50.251 4.73715 50.251 6.58986V10.9663C50.251 12.2811 50.8126 12.8592 51.3378 13.5685C51.5202 13.8238 51.5639 14.1302 51.3287 14.3162C50.7397 14.7957 49.6966 15.682 49.1222 16.1816L49.1149 16.1762V16.1689ZM8.47941 9.3215C8.47941 10.4174 8.50494 11.3274 7.93965 12.3012C7.48376 13.0907 6.75435 13.5776 5.94835 13.5776C4.84512 13.5776 4.19776 12.757 4.19776 11.5426C4.19776 9.15009 6.39876 8.71609 8.47941 8.71609V9.32515V9.3215ZM11.3806 16.1689C11.2871 16.2462 11.1726 16.294 11.0518 16.306C10.9309 16.318 10.8093 16.2938 10.7023 16.2363C9.74494 15.4613 9.57535 15.1021 9.05382 14.3654C7.47282 15.9373 6.35318 16.4077 4.309 16.4077C1.88735 16.4077 0 14.9489 0 12.0313C0 9.74821 1.26553 8.20003 3.069 7.4378C4.62994 6.76856 6.81088 6.64821 8.48124 6.46586V6.10297C8.48124 5.43374 8.53412 4.64415 8.13294 4.06792C7.78282 3.55003 7.11176 3.3385 6.51729 3.3385C5.41953 3.3385 4.44394 3.88556 4.20141 5.02345C4.15218 5.27509 3.96435 5.52674 3.70176 5.5395L0.913588 5.24774C0.678353 5.19486 0.417588 5.01068 0.483235 4.66056C1.11965 1.34903 4.17588 0.351562 6.91482 0.351562C8.31529 0.351562 10.1479 0.716268 11.2512 1.75021C12.6516 3.02668 12.5167 4.72986 12.5167 6.58439V10.9609C12.5167 12.2738 13.0784 12.8519 13.6054 13.563C13.7877 13.8183 13.8296 14.1229 13.5944 14.3089C13.0072 14.7903 11.9624 15.6765 11.3879 16.1762L11.3806 16.1689Z" fill="black"/>
</svg>
