<svg width="39" height="48" viewBox="0 0 39 48" fill="none" xmlns="http://www.w3.org/2000/svg">
<path d="M0 26.6977V25.338C0.00645076 25.2914 0.0154818 25.2462 0.016772 25.1997C0.0528962 24.1786 0.16901 23.1678 0.375434 22.1674C0.792153 20.1524 1.5456 18.2809 2.75447 16.6045C3.84594 15.0922 5.20447 13.8837 6.85587 13.0139C8.13441 12.3405 9.49423 11.9269 10.934 11.7808C11.9197 11.68 12.8938 11.7214 13.8614 11.945C14.7529 12.1505 15.6044 12.4684 16.452 12.8058C17.2119 13.1082 17.9615 13.4339 18.7524 13.6524C19.4168 13.8359 20.0812 13.8721 20.7469 13.6692C21.1675 13.5412 21.5855 13.4042 21.9984 13.253C22.9853 12.8924 23.962 12.502 24.9554 12.1608C25.9243 11.8286 26.9281 11.6386 27.9563 11.6076C29.1549 11.5714 30.3379 11.6968 31.4991 12.0018C34.0755 12.6778 36.1436 14.0957 37.6931 16.2697C37.715 16.2994 37.7344 16.3317 37.7563 16.3654C37.7086 16.3977 37.6737 16.4222 37.6389 16.4468C37.2686 16.7195 36.8842 16.9741 36.5294 17.2675C35.0844 18.4631 33.9762 19.9107 33.2872 21.6659C32.6305 23.3397 32.4525 25.0743 32.6563 26.8541C32.7944 28.0678 33.1337 29.2233 33.6975 30.3077C34.7257 32.2826 36.2662 33.7522 38.1962 34.8263C38.4568 34.9711 38.7304 35.0938 39.0013 35.2296C38.9884 35.2748 38.9768 35.32 38.9639 35.364C38.542 36.7327 37.973 38.0382 37.3267 39.3139C36.5061 40.9321 35.483 42.4185 34.398 43.8648C33.7194 44.7683 32.9943 45.6317 32.1312 46.3671C31.3778 47.0082 30.5495 47.5188 29.5819 47.7695C28.5291 48.0422 27.4802 47.9698 26.4378 47.7101C25.736 47.5356 25.0767 47.2396 24.42 46.9449C23.2679 46.4279 22.0745 46.0892 20.8037 46.0505C19.8541 46.022 18.9214 46.1112 18.0041 46.3594C17.2313 46.5688 16.4985 46.8841 15.7644 47.1982C14.8109 47.6054 13.8407 47.9427 12.7906 47.9944C12.0139 48.0332 11.2695 47.9117 10.556 47.6028C9.81806 47.2835 9.17685 46.8169 8.58596 46.2779C7.74607 45.5115 7.02746 44.639 6.34626 43.733C5.51411 42.6266 4.68067 41.5176 3.99302 40.3117C1.69139 36.2855 0.34189 31.9724 0.0412849 27.3388C0.0270932 27.1255 0.0141917 26.911 0 26.6977Z" fill="black"/>
<path d="M29.0089 0.00258502C29.0334 0.411019 29.0863 0.819452 29.0786 1.22789C29.0579 2.44802 28.7728 3.61516 28.3058 4.73964C27.6865 6.2312 26.8079 7.54827 25.6119 8.63527C24.3979 9.73907 23.002 10.5236 21.3983 10.9114C20.7997 11.0561 20.1933 11.1208 19.5779 11.0432C19.3934 11.02 19.3947 11.0225 19.3689 10.8364C19.2192 9.77397 19.3689 8.73738 19.6876 7.72793C20.61 4.79651 22.4227 2.59536 25.1333 1.14387C25.9719 0.695371 26.8518 0.351563 27.7846 0.158979C28.0774 0.0982309 28.3767 0.0672106 28.6735 0.0219727C28.707 0.0168027 28.7406 0.00775507 28.7741 0H29.0076L29.0089 0.00258502Z" fill="black"/>
</svg>
