<svg width="100" height="22" viewBox="0 0 100 22" fill="none" xmlns="http://www.w3.org/2000/svg">
<path d="M56.5906 0.0390625H64.341L64.3586 2.83343L60.8612 17.9653H64.4465L64.4641 21.5856H56.2391L56.2215 18.5628L59.6837 3.64188H56.6082L56.5906 0.0390625ZM97.979 10.9178V11.0057C99.1214 11.3044 99.9298 12.3414 99.9474 13.5189L100 21.5856H95.624L95.5713 12.5171H94.1653L94.218 21.5856H89.8244L89.7013 0.0566329H96.7312C98.4711 0.0566329 99.8771 1.46261 99.8947 3.20251L99.9298 8.43977C99.9122 9.61727 99.1214 10.619 97.979 10.9178ZM95.501 2.85102H94.095L94.1302 9.42395H95.5361L95.501 2.85102ZM85.624 0.0566329L88.3832 21.5856H84.095L83.7435 17.0338H81.9157L81.617 21.5856H77.3463L77.856 17.0162H75.9403L76.5203 21.5856H72.2145L71.8806 17.0338H70.0528L69.7365 21.5856H65.4834L67.9439 0.0390625H73.7962L75.5713 13.9055H78.2251L79.7892 0.0390625L85.624 0.0566329ZM71.6697 13.9231L70.9667 3.65945H70.8261L70.211 13.9231H71.6697ZM83.515 13.9231L82.7945 3.65945H82.689L82.0563 13.9231H83.515ZM43.0757 3.18493L43.0932 7.45559C43.0756 8.63309 42.2848 9.65242 41.1424 9.95119V10.0391C42.2848 10.3554 43.0756 11.3747 43.1108 12.5523L43.1284 18.4573C43.1284 18.844 43.0581 19.2306 42.9175 19.5821L38.6995 13.5716V11.5505H37.2936L32.8823 5.25875L32.8647 0.0566329H39.9122C41.6697 0.0214835 43.0757 1.44503 43.0757 3.18493ZM38.6644 2.81586H37.2584L37.276 8.4222H38.682L38.6644 2.81586ZM55.3955 21.5856H51.0897L50.7558 17.0338H48.928L48.6117 21.5856H44.3586L46.8191 0.0390625H52.6714L55.3955 21.5856ZM50.5273 13.9055L49.8419 3.64188H49.7013L49.0686 13.9055H50.5273Z" fill="#03334F"/>
<path d="M21.3357 0.0175704H28.4534L28.471 7.41653H24.007L23.9895 2.81195H22.5835L22.6362 18.8401H24.0422L24.0246 13.0229H23.4271L23.4095 9.96486H28.471L28.5062 21.5817H21.3708C19.6309 21.5817 18.2074 20.1758 18.2074 18.4359L18.1547 3.18102C18.1547 1.44112 19.5431 0.0351516 21.283 0.0351516C21.3181 0.0175768 21.3181 0.0175704 21.3357 0.0175704ZM12.1441 21.5817H16.5378L16.4851 0.0175704H12.0914L12.1441 21.5817ZM10.2109 3.16345L10.2285 7.4341C10.2109 8.6116 9.42004 9.63094 8.27768 9.92971V10.0176C9.42004 10.3339 10.2109 11.3533 10.2461 12.5308L10.2636 18.4359C10.2636 20.1758 8.85765 21.5817 7.11776 21.5817H7.10018H0.0351489L0 0H7.04746C8.78735 0 10.2109 1.42355 10.2109 3.16345ZM5.8348 11.5114H4.42883L4.4464 18.7698H5.86995L5.8348 11.5114ZM5.81723 2.81195H4.41125L4.42883 8.41829H5.8348L5.81723 2.81195ZM38.7171 13.5325L38.7346 18.7698H37.3287L37.3111 11.529L32.8998 5.23726L32.9526 21.5817H40C41.3006 21.5817 42.4781 20.7733 42.935 19.5606L38.7171 13.5325Z" fill="#EB5E21"/>
</svg>
