<svg width="100" height="40" viewBox="0 0 100 40" fill="none" xmlns="http://www.w3.org/2000/svg">
<g clip-path="url(#clip0_99_508)">
<path d="M15.8066 25.1442C15.6137 26.6754 15.1073 27.9293 14.2995 28.9301C12.9853 30.5578 11.237 31.3776 8.95828 31.3173C5.98023 31.2571 4.3646 30.1719 2.51989 28.3875C0.940439 26.8683 0 24.4087 0 22.5399C0 21.2739 0.325537 20.4782 0.880154 19.1278C1.49506 17.7171 2.19436 17.0299 3.15891 16.1256C4.93128 14.4618 6.99301 13.6901 9.19942 13.6901C10.9718 13.6901 12.4427 14.1242 13.6002 14.9923C14.5406 15.7036 14.9988 16.5597 14.9988 17.5604C14.9988 18.115 14.8059 18.5732 14.4924 18.947C14.1428 19.3087 13.7087 19.5016 13.2264 19.5016C12.72 19.5016 12.286 19.3087 11.9363 18.9108C11.5867 18.525 11.4058 18.0668 11.4058 17.5122C11.4058 16.9576 11.6952 16.3668 12.2378 15.7398L12.3704 15.3781C12.3704 14.6909 11.2973 14.4015 9.17531 14.3412C6.96889 14.2689 5.69086 14.8597 4.82276 15.8242C3.94261 16.849 3.8341 18.9711 3.8341 21.925V23.83C3.8341 25.9761 3.88232 27.5435 4.40077 28.6286C5.01567 29.979 6.52279 30.7386 8.66892 30.7386C10.4413 30.7386 11.8881 30.2563 13.0456 29.2797C14.1669 28.2911 14.9023 26.9166 15.2158 25.1201H15.8066V25.1442Z" fill="#51A9A4"/>
<path d="M23.1854 18.537C23.4266 17.5363 23.8003 16.6803 24.2826 15.9689C25.3075 14.4859 26.6217 13.7384 28.177 13.7384C29.0089 13.7384 29.6479 13.9674 30.1664 14.4015C30.6487 14.8355 30.9139 15.4022 30.9139 16.1256C30.9139 16.6803 30.7572 17.1264 30.4316 17.476C30.1423 17.8377 29.7323 17.9945 29.2259 17.9945C28.7196 17.9945 28.2855 17.8377 27.96 17.4881C27.6344 17.1505 27.4536 16.7164 27.4536 16.1739C27.4536 15.5348 27.7791 14.9923 28.394 14.5462C28.3699 14.4497 26.3805 14.8597 25.416 15.8001C24.9578 16.2583 24.584 16.7044 24.3429 17.1384C24.1018 17.5725 23.8606 18.2235 23.5954 19.0916C23.306 19.9477 23.1975 21.2016 23.1975 22.8534V30.1358H26.7663V30.8351H16.7109V30.1358H19.8818V15.149H16.7109V14.4738H20.762C21.8592 14.4738 22.667 14.1121 23.1734 13.3887V18.537H23.1854Z" fill="#51A9A4"/>
<path d="M44.2488 25.4577V19.5498C44.2488 18.3441 44.2006 17.4881 44.0559 16.9696C43.9474 16.4753 43.658 16.0051 43.2481 15.5469C42.3318 14.6185 41.0537 14.1604 39.3296 14.1604C37.6055 14.1604 36.1948 14.5944 35.3629 15.4746C34.4827 16.3306 34.0487 17.6689 34.0487 19.5016V25.3492C34.0487 27.3265 34.4827 28.7251 35.3629 29.557C35.6884 29.8826 36.243 30.1599 37.0026 30.3648C37.7863 30.5939 38.558 30.7024 39.3658 30.7024C40.2821 30.7024 41.114 30.5698 41.8133 30.2925C42.5609 30.0272 43.1034 29.6535 43.4169 29.1953C43.9836 28.4116 44.2488 27.1698 44.2488 25.4577ZM39.4502 13.5575C41.3069 13.5575 43.1275 14.293 44.8396 15.7639C46.9375 17.5845 48.0106 19.7789 48.0106 22.3591C48.0106 24.7222 47.1304 26.8081 45.3219 28.6407C43.5495 30.401 41.536 31.3053 39.2814 31.3053C36.87 31.3053 34.7962 30.389 32.9997 28.5804C32.1437 27.7244 31.4685 26.7478 30.9862 25.6868C30.504 24.6016 30.2628 23.5406 30.2628 22.4917C30.2628 21.3222 30.5522 20.1406 31.143 18.9711C31.7338 17.8136 32.5657 16.7888 33.6146 15.9086C35.4352 14.3653 37.4005 13.5816 39.4381 13.5816L39.4502 13.5575Z" fill="#51A9A4"/>
<path d="M54.3887 17.898C54.7866 16.6441 55.5703 15.6192 56.7277 14.8235C57.9093 14.0277 59.2235 13.6299 60.6945 13.6299C62.5995 13.6299 64.0463 14.2206 64.9867 15.4143C65.469 16.0533 65.7704 16.9334 65.9031 18.1271C66.3853 16.7285 67.169 15.6434 68.2662 14.8476C69.3393 14.0639 70.6294 13.666 72.0762 13.666C73.933 13.666 75.3798 14.2327 76.3685 15.3661C76.8266 15.8845 77.116 16.4632 77.2486 17.054C77.4053 17.6569 77.4656 18.6455 77.4656 20.0562V30.1358H80.6366V30.8351H70.8946V30.1358H74.0897V17.7051C74.0897 15.5228 73.1493 14.4497 71.3287 14.4497C69.6166 14.4497 68.1939 15.2937 67.0605 16.9696C66.313 18.1512 65.9031 19.1519 65.9031 20.008V30.1237H69.0378V30.823H59.3803V30.1237H62.5995V17.0902C62.5995 16.21 62.3824 15.5469 61.9604 15.0767C61.5023 14.5703 60.8874 14.3171 60.0796 14.3171C58.8739 14.3171 57.6923 14.7873 56.5951 15.7278C55.5221 16.6803 54.7986 17.8618 54.3887 19.3087V30.1237H57.4994V30.823H47.9503V30.1237H51.0851V15.149H47.9503V14.4738H51.8929C53.2312 14.4738 54.0391 14.1121 54.3887 13.3525V17.898Z" fill="#51A9A4"/>
<path d="M92.9708 21.9491H92.7297C89.2452 21.9491 86.9303 22.3832 85.809 23.2272C85.0253 23.8059 84.6877 24.8307 84.6877 26.3378C84.6877 27.8449 84.9289 28.7974 85.4353 29.4003C85.9416 29.9911 86.7977 30.2925 88.0154 30.2925C89.1367 30.2925 90.1374 30.0272 91.0779 29.5088C91.958 28.9904 92.6091 28.2911 92.9829 27.4471V21.9612L92.9708 21.9491ZM92.9708 21.3222V17.2952C92.9708 16.3547 92.8382 15.6795 92.5971 15.2937C92.3318 14.8838 91.8495 14.5823 91.1261 14.3894C90.5353 14.2568 89.8119 14.1845 88.9197 14.1845C87.5211 14.1845 86.4721 14.3774 85.7005 14.7873C84.9771 15.1731 84.6033 15.6313 84.6033 16.1618C84.6033 16.3668 84.7601 16.6079 85.0615 16.849C85.604 17.271 85.9175 17.7654 85.9175 18.332C85.9175 18.8987 85.7246 19.3207 85.4353 19.6583C85.1097 19.9959 84.6877 20.1647 84.2054 20.1647C83.6388 20.1647 83.2168 19.9718 82.8912 19.598C82.5416 19.2122 82.3487 18.7299 82.3487 18.1391C82.3487 16.8852 82.9877 15.8122 84.2778 14.9079C85.5679 14.0036 87.0629 13.5455 88.8353 13.5455C90.897 13.5455 93.1276 13.9072 94.707 14.932C95.6233 15.4746 95.9127 15.9689 96.1538 16.4753C96.3709 16.9696 96.4432 17.6207 96.4432 18.4767V25.735C96.4914 27.8088 96.6602 29.0145 96.7085 29.34C96.8652 30.0272 97.3836 30.3407 97.9744 30.3046C98.5893 30.2563 98.9631 29.9428 99.3128 28.6286H99.9879C99.3489 30.9797 98.2759 31.257 96.7687 31.2691C95.7439 31.2691 94.7552 30.9436 94.1886 30.4854C93.6219 30.0031 93.2481 29.3521 93.1155 28.4719C92.5729 29.3641 91.7531 30.0514 90.6679 30.5336C89.5949 31.028 88.57 31.2691 87.1473 31.2691C85.1097 31.2691 83.6026 30.8351 82.638 29.979C81.6976 29.1712 81.2153 28.2187 81.2153 27.1818C81.2153 26.2775 81.565 25.3853 82.204 24.5414C82.8792 23.6733 83.7111 23.0584 84.6998 22.6725C85.7246 22.2747 86.7615 21.9612 88.2927 21.72C89.7999 21.4789 91.2708 21.3583 92.6935 21.3583H92.9346L92.9708 21.3222ZM83.3132 9V10.7965H96.1659V9H83.3132Z" fill="#51A9A4"/>
</g>
<defs>
<clipPath id="clip0_99_508">
<rect width="100" height="22.3173" fill="white" transform="translate(0 9)"/>
</clipPath>
</defs>
</svg>
