<svg width="114" height="26" viewBox="0 0 114 26" fill="none" xmlns="http://www.w3.org/2000/svg">
<path d="M34.1894 11.25H28.3231C28.1291 11.25 27.9717 11.4074 27.9717 11.6014V24.8081C27.9717 24.9997 28.1291 25.1572 28.3231 25.1572H34.2077C38.8327 25.1572 41.8195 22.4237 41.8195 18.1933C41.8195 13.963 38.8236 11.25 34.1871 11.25M34.1871 21.4904H32.1838V14.919H34.2077C36.2977 14.919 37.5436 16.142 37.5436 18.1933C37.5436 19.8316 36.3913 21.4904 34.1871 21.4904Z" fill="#0078AE"/>
<path d="M67.8266 14.8359C66.2065 14.8359 64.89 15.7258 64.3036 16.6088C63.8723 15.4338 62.8957 14.8359 61.4058 14.8359C59.7561 14.8359 58.5057 15.6711 58.0699 16.2324V15.436C58.0699 15.2421 57.9124 15.0846 57.7185 15.0846H54.6655C54.4716 15.0846 54.3164 15.2398 54.3164 15.436V24.8071C54.3164 24.9988 54.4738 25.1562 54.6655 25.1562H57.7185C57.9124 25.1562 58.0699 24.9988 58.0699 24.8071V18.9408C58.2912 18.6829 58.7498 18.149 59.5918 18.149C60.3311 18.149 60.7395 18.5506 60.7395 19.2762V24.8071C60.7395 24.9988 60.8969 25.1562 61.0909 25.1562H64.1438C64.3378 25.1562 64.4952 24.9988 64.4952 24.8071V18.9408C64.7143 18.6829 65.1752 18.149 66.0354 18.149C66.7655 18.149 67.1831 18.5597 67.1831 19.2762V24.8071C67.1831 24.9988 67.3383 25.1562 67.5345 25.1562H70.5875C70.7814 25.1562 70.9388 24.9988 70.9388 24.8071V17.8592C70.9388 15.9084 69.8368 14.8359 67.8311 14.8359" fill="#0078AE"/>
<path d="M75.8672 15.0859H72.8143C72.6203 15.0859 72.4629 15.2434 72.4629 15.4373V24.8084C72.4629 25.0001 72.6203 25.1575 72.8143 25.1575H75.8672C76.0612 25.1575 76.2186 25.0001 76.2186 24.8084V15.4373C76.2186 15.2434 76.0612 15.0859 75.8672 15.0859Z" fill="#0078AE"/>
<path d="M74.4345 10.1406C73.2731 10.1406 72.3262 11.0853 72.3262 12.2467C72.3262 13.4081 73.2731 14.3527 74.4345 14.3527C75.5959 14.3527 76.5405 13.4081 76.5405 12.2467C76.5405 11.0853 75.5936 10.1406 74.4345 10.1406Z" fill="#0078AE"/>
<path d="M85.0243 14.8382C83.0779 14.8382 82.0215 15.7121 81.5629 16.2346V15.4383C81.5629 15.2444 81.4054 15.0869 81.2115 15.0869H78.1585C77.9669 15.0869 77.8071 15.2421 77.8071 15.4383V24.8094C77.8071 25.0011 77.9646 25.1585 78.1585 25.1585H81.2115C81.4054 25.1585 81.5629 25.0011 81.5629 24.8094V18.9431C81.8047 18.667 82.2611 18.1513 83.1669 18.1513C84.1367 18.1513 84.6272 18.635 84.6272 19.5888V24.8094C84.6272 25.0011 84.7847 25.1585 84.9786 25.1585H88.0293C88.2232 25.1585 88.3807 25.0011 88.3807 24.8094V18.0075C88.3807 16.0224 87.1257 14.8359 85.022 14.8359" fill="#0078AE"/>
<path d="M47.8731 14.7891C44.9365 14.7891 42.5566 17.1712 42.5566 20.1032C42.5566 23.0352 44.9365 25.4219 47.8731 25.4219C50.8097 25.4219 53.1895 23.0421 53.1895 20.1032C53.1895 17.1643 50.8097 14.7891 47.8731 14.7891ZM47.8731 21.8442C46.8714 21.8442 46.0614 21.0319 46.0614 20.0279C46.0614 19.024 46.8714 18.2162 47.8731 18.2162C48.8748 18.2162 49.6871 19.0262 49.6871 20.0279C49.6871 21.0296 48.8748 21.8442 47.8731 21.8442Z" fill="#0078AE"/>
<path d="M94.8102 14.8047C91.8759 14.8047 89.4961 17.1845 89.4961 20.1188C89.4961 23.0532 91.8759 25.4376 94.8102 25.4376C97.7446 25.4376 100.129 23.0577 100.129 20.1188C100.129 17.18 97.7468 14.8047 94.8102 14.8047ZM94.8102 21.8598C93.8086 21.8598 92.9963 21.0452 92.9963 20.0435C92.9963 19.0419 93.8086 18.2319 94.8102 18.2319C95.8119 18.2319 96.6242 19.0441 96.6242 20.0435C96.6242 21.0429 95.8142 21.8598 94.8102 21.8598Z" fill="#0078AE"/>
<path d="M103.064 11.8338V11.8292C103.064 11.8292 103.061 11.8247 103.061 11.8224C103.061 11.8155 103.059 11.8064 103.057 11.8019C102.822 10.7545 101.681 9.997 100.558 10.2297C99.4241 10.4648 98.678 11.5212 98.8971 12.5845C99.0796 13.463 99.86 14.0722 100.766 14.1269C100.709 14.4852 100.392 14.8069 100.127 14.9552C99.9512 15.0556 100.056 15.245 100.056 15.245L100.289 15.5918C100.355 15.7082 100.458 15.7675 100.579 15.7173C102.904 14.7658 103.303 12.783 103.064 11.8361V11.8338Z" fill="#0078AE"/>
<path d="M105.767 18.0779C105.758 17.7014 106.246 17.5349 106.856 17.5349C108.069 17.5349 108.763 17.8817 109.537 18.3928C109.616 18.4476 109.717 18.4658 109.81 18.443C109.904 18.4202 109.986 18.3586 110.034 18.2742L111.065 16.483C111.159 16.3187 111.104 16.1088 110.94 16.0107C110.093 15.5064 108.852 14.8516 106.698 14.8516C103.593 14.8516 101.929 16.3142 102.208 18.4156C102.696 22.1098 108.441 20.8434 108.35 22.1052C108.33 22.3973 107.821 22.614 106.942 22.614C105.806 22.614 104.515 22.0436 103.698 21.5393C103.618 21.4891 103.517 21.4732 103.426 21.4983C103.333 21.5234 103.255 21.5804 103.209 21.6648L102.018 23.6499C101.929 23.8097 101.975 24.0127 102.128 24.1154C103.271 24.8866 105.117 25.4046 106.719 25.4046C109.829 25.4046 111.62 24.0675 111.622 21.8747C111.622 17.8247 105.792 19.0796 105.767 18.0802" fill="#0078AE"/>
<path d="M24.7633 7.95324L17.9136 1.10347C17.6238 0.81369 17.2405 0.65625 16.832 0.65625C16.4236 0.65625 16.038 0.815971 15.7505 1.10347L10.0074 6.84659L0.446896 16.4071C-0.150918 17.0049 -0.150918 17.9746 0.446896 18.5701L7.29438 25.4199C7.58416 25.7097 7.96749 25.8671 8.37592 25.8671C8.78435 25.8671 9.16996 25.7074 9.45746 25.4199L18.0254 16.8497L24.7588 10.114C25.3543 9.51851 25.3543 8.54649 24.7588 7.94867L24.7633 7.95324Z" fill="white"/>
<path d="M24.2797 8.43937L17.4299 1.59189C17.0991 1.26104 16.5652 1.26104 16.2343 1.59189L8.83008 8.99612L16.8732 17.0392L24.2774 9.635C24.6083 9.30415 24.6083 8.77022 24.2774 8.43937H24.2797ZM18.2559 10.4199C17.868 10.8078 17.3592 10.9995 16.8527 10.9995C16.3461 10.9995 15.8373 10.8055 15.4494 10.4199C15.0638 10.032 14.8675 9.5232 14.8675 9.01665C14.8675 8.51011 15.0615 7.999 15.4494 7.61338C15.8373 7.22549 16.3438 7.03154 16.8527 7.03154C17.3592 7.03154 17.868 7.22549 18.2559 7.61338C18.6415 7.999 18.8378 8.50782 18.8378 9.01665C18.8378 9.5232 18.6415 10.032 18.2559 10.4199Z" fill="#E31937"/>
<path d="M0.930756 16.8919C0.599904 17.2227 0.599904 17.7566 0.930756 18.0875L7.78052 24.9372C7.94481 25.1015 8.16157 25.1837 8.37834 25.1837C8.5951 25.1837 8.81186 25.1015 8.97615 24.9372L16.3781 17.5353L8.3327 9.49219L0.930756 16.8919ZM6.86098 18.8656C6.47309 19.2512 5.96426 19.4451 5.45772 19.4451C4.94889 19.4451 4.44234 19.2512 4.05445 18.8656C3.66655 18.4777 3.47489 17.9711 3.47489 17.4646C3.47489 16.958 3.66884 16.4492 4.05445 16.059C4.44234 15.6734 4.94889 15.4795 5.45772 15.4795C5.96654 15.4795 6.47309 15.6734 6.86098 16.059C7.24888 16.4469 7.44054 16.9557 7.44054 17.4623C7.44054 17.9688 7.24888 18.4777 6.86098 18.8656ZM9.87743 16.1389C10.2653 15.751 10.7719 15.557 11.2807 15.557C11.7895 15.557 12.2961 15.751 12.684 16.1389C13.0719 16.5268 13.2658 17.0333 13.2658 17.5421C13.2658 18.051 13.0719 18.5575 12.684 18.9431C12.2984 19.3287 11.7895 19.5227 11.2807 19.5227C10.7742 19.5227 10.2653 19.3287 9.87743 18.9431C9.48954 18.5552 9.29559 18.0464 9.29559 17.5421C9.29559 17.0379 9.48954 16.5268 9.87743 16.1389Z" fill="#0078AE"/>
<path d="M114 15.4032C114 15.5994 113.952 15.7797 113.854 15.9485C113.758 16.1174 113.625 16.2497 113.457 16.3478C113.29 16.4459 113.11 16.4938 112.916 16.4938C112.722 16.4938 112.544 16.4459 112.375 16.3478C112.209 16.2497 112.076 16.1174 111.978 15.9485C111.882 15.7797 111.832 15.5971 111.832 15.4032C111.832 15.2092 111.88 15.0267 111.978 14.8578C112.074 14.689 112.206 14.5544 112.375 14.4585C112.542 14.3604 112.722 14.3125 112.916 14.3125C113.11 14.3125 113.29 14.3604 113.457 14.4585C113.623 14.5566 113.756 14.689 113.854 14.8578C113.949 15.0267 114 15.2092 114 15.4032ZM113.79 15.4032C113.79 15.159 113.705 14.9514 113.534 14.7803C113.363 14.6091 113.158 14.5224 112.918 14.5224C112.679 14.5224 112.471 14.6091 112.302 14.7803C112.133 14.9514 112.047 15.159 112.047 15.4032C112.047 15.6473 112.131 15.855 112.302 16.0261C112.473 16.1972 112.679 16.2839 112.918 16.2839C113.158 16.2839 113.365 16.1972 113.534 16.0261C113.703 15.855 113.79 15.6473 113.79 15.4032ZM112.428 14.819H112.946C113.092 14.819 113.199 14.8487 113.263 14.908C113.329 14.9674 113.361 15.0472 113.361 15.1476C113.361 15.2252 113.336 15.2936 113.285 15.3507C113.235 15.4077 113.155 15.4488 113.048 15.4762C113.092 15.4944 113.126 15.5104 113.146 15.5309C113.176 15.5583 113.206 15.5971 113.238 15.6496C113.238 15.6542 113.301 15.766 113.425 15.9873H113.085C112.975 15.766 112.9 15.6313 112.863 15.588C112.825 15.5446 112.788 15.5218 112.749 15.5218C112.74 15.5218 112.729 15.5218 112.713 15.5264V15.985H112.425V14.819H112.428ZM112.715 15.3142H112.841C112.923 15.3142 112.982 15.3005 113.016 15.2731C113.05 15.2457 113.066 15.2115 113.066 15.1682C113.066 15.1248 113.05 15.0906 113.019 15.0632C112.987 15.0358 112.93 15.0221 112.852 15.0221H112.715V15.3142Z" fill="#0078AE"/>
</svg>
