<svg width="100" height="34" viewBox="0 0 100 34" fill="none" xmlns="http://www.w3.org/2000/svg">
<g clip-path="url(#clip0_8184_3727)">
<path d="M27.1846 -0.00340799C28.1889 0.525133 29.2107 1.01844 30.1973 1.58662C30.9989 2.04909 31.1443 2.5468 30.9637 3.44973C30.6202 5.1763 30.281 6.89846 29.9991 8.63384C29.9198 9.10952 30.0123 9.62926 30.1092 10.1138C30.2105 10.6247 30.4748 10.7084 30.9329 10.4529C31.8622 9.93757 32.8004 9.79222 33.6945 10.5013C33.95 10.704 34.135 10.9991 34.3376 11.2545C35.0555 12.153 35.7602 12.2367 36.6455 11.5056C36.7292 11.4351 36.7645 11.2765 36.7777 11.1532C36.8173 10.726 36.8085 10.2943 36.8746 9.8715C36.9494 9.42665 37.1432 9.29892 37.5793 9.40463C38.9535 9.74377 40.2132 10.3604 41.3672 11.1664C41.5786 11.3162 41.6535 11.6774 41.7548 11.9548C41.7988 12.0782 41.7636 12.2279 41.7592 12.3689C41.7283 13.4171 42.0234 13.655 43.0277 13.3775C43.2655 13.3114 43.4989 13.2145 43.7324 13.1264C44.9568 12.6728 45.7188 11.8667 45.9523 10.5278C46.1725 9.26368 46.3927 9.17559 47.6128 9.59402C48.2426 9.80984 48.8416 10.1005 49.4627 10.3384C50.0352 10.563 50.2511 11.0035 50.2599 11.576C50.2687 12.2676 50.2599 12.9635 50.2731 13.655C50.2863 14.4698 50.5418 14.6416 51.2773 14.254C52.6691 13.5228 53.7306 12.4746 54.3737 11.0079C54.5895 10.5146 54.9242 10.0521 55.2854 9.64247C55.6334 9.24606 56.1002 9.18 56.6156 9.41343C57.3115 9.72616 58.047 9.94198 58.7209 10.2899C59.6723 10.7788 59.941 11.3074 59.6943 12.338C59.1261 14.7077 59.1129 17.1213 59.0689 19.535C59.0689 19.7024 59.0733 19.8697 59.0997 20.0327C59.1658 20.4379 59.4169 20.667 59.8221 20.7242C60.2009 20.7727 60.5312 20.5833 60.6457 20.1737C60.7426 19.8345 60.769 19.4689 60.7822 19.1122C60.8747 16.8306 61.3945 14.668 62.5396 12.6816C63.3281 11.3162 64.3939 10.2679 66.0016 9.88912C66.4861 9.7746 66.9353 9.80544 67.3626 10.0697C67.4815 10.1446 67.6048 10.2018 67.7326 10.2591C68.3272 10.5278 68.7016 10.3692 68.772 9.73056C68.9174 8.39599 69.0363 7.05262 69.0936 5.71365C69.1508 4.28658 69.1244 2.85512 69.1332 1.42806C69.1376 0.626437 69.6001 0.313717 70.2563 0.758572C71.08 1.31354 72.0093 1.58222 72.9167 1.91696C73.5773 2.16361 73.7095 2.40586 73.6082 3.12379C73.5245 3.714 73.4012 4.2998 73.3615 4.89441C73.2162 7.05262 73.0532 9.21083 72.9739 11.3734C72.8682 14.298 72.833 17.227 72.7757 20.156C72.7581 20.94 73.1986 21.2351 73.9297 20.9577C74.5023 20.7374 74.8414 20.3542 74.8943 19.7288C75.0529 17.7644 75.2202 15.8044 75.3788 13.84C75.4449 13.0251 75.4713 12.2059 75.5682 11.3911C75.6078 11.0739 75.7488 10.7524 75.9161 10.4749C76.1188 10.1358 76.4623 9.98602 76.8543 10.127C77.8717 10.4925 78.8848 10.8669 79.889 11.2633C80.3339 11.4395 80.3427 11.8623 80.303 12.2587C80.2105 13.1264 80.0696 13.9897 79.9991 14.8618C79.867 16.4915 79.7393 18.1256 79.9991 19.7596C80.1004 20.3983 80.5056 20.8343 80.9681 21.2131C81.1135 21.332 81.3777 21.332 81.5847 21.3276C81.7257 21.3276 81.871 21.2307 82.0076 21.1647C83.2497 20.5348 83.3994 20.0944 82.7828 18.8655C82.6418 18.5792 82.4833 18.3017 82.3247 18.0243C81.9547 17.3724 82.0472 16.8262 82.5978 16.3109C84.157 14.8486 85.7162 13.3863 87.271 11.9152C87.5529 11.6465 87.8083 11.3514 88.0902 11.0871C88.5307 10.6775 88.9139 10.6467 89.4028 10.9902C91.05 12.1486 92.6929 13.3114 94.3358 14.4698C94.4019 14.5183 94.4723 14.5667 94.5384 14.6196C95.2343 15.1877 95.2696 15.4388 94.7939 16.2008C94.2785 17.0244 93.9834 17.9318 93.9262 18.9052C93.8821 19.6671 94.1288 19.9402 94.8908 19.9138C96.0359 19.8697 97.1151 19.6055 98.0004 18.8083C98.5289 18.337 99.0751 17.8833 99.6124 17.4252C99.6917 17.3548 99.7886 17.3019 99.9956 17.1566C99.9824 17.4605 100.031 17.6895 99.956 17.8525C99.4803 18.8479 98.987 19.8389 98.4761 20.8167C98.2338 21.2792 98.269 21.4025 98.8725 21.6536C98.846 21.7373 98.8372 21.843 98.7844 21.909C97.7669 23.1907 96.5601 24.195 94.8952 24.5033C94.1596 24.6398 93.5826 24.3844 93.1774 23.7589C92.922 23.3625 92.6885 22.9529 92.4287 22.5565C92.0763 22.0191 91.9309 21.9751 91.3804 22.3231C90.7153 22.7459 90.081 23.2216 89.4248 23.6664C89.1385 23.8602 88.8346 24.032 88.5351 24.1994C87.9228 24.5385 87.3547 24.424 86.8305 24.01C86.4385 23.7017 86.0553 23.3757 85.6765 23.0542C85.355 22.7767 85.0995 22.7503 84.6987 23.0278C83.8575 23.6136 82.959 24.1201 82.0648 24.6134C81.3777 24.9922 80.7479 24.9217 80.118 24.3756C79.6688 23.9836 79.105 23.6973 78.5545 23.4594C77.9819 23.2128 77.3872 23.3361 76.8279 23.6312C75.991 24.0672 75.1498 24.4945 74.3041 24.9129C73.5597 25.2829 72.8374 25.3137 72.0886 24.8645C71.5425 24.5385 70.939 24.3095 70.3621 24.0408C69.6705 23.7193 68.979 23.6708 68.2743 24.0144C67.6753 24.3051 67.0675 24.5782 66.4729 24.8733C65.3585 25.4282 64.2662 25.4723 63.1871 24.7896C62.4956 24.3535 61.8041 23.9219 61.1302 23.4594C60.7294 23.1863 60.3198 23.1599 59.8969 23.4154C59.2319 23.8162 58.558 24.1994 57.8797 24.5782C57.3688 24.8645 56.871 24.794 56.3777 24.5121C55.8272 24.195 55.2722 23.8734 54.704 23.5871C54.1755 23.3229 53.9993 22.8868 53.9641 22.3363C53.9156 21.4906 53.8495 20.6493 53.7879 19.8081C53.7747 19.6583 53.7526 19.5042 53.713 19.3588C53.5809 18.8259 53.2417 18.6805 52.744 18.9228C50.7091 19.905 49.3702 21.451 48.8592 23.6752C48.7711 24.0628 48.5509 24.3447 48.1589 24.4108C47.9299 24.4504 47.626 24.4681 47.4498 24.3491C46.4896 23.7149 45.547 23.0542 44.6221 22.3715C44.1949 22.0544 44.1068 21.5743 44.1728 21.059C44.3534 19.6583 44.5208 18.2533 44.697 16.8482C44.8027 15.9806 44.6353 15.8396 43.8425 16.2096C43.2523 16.4827 42.7017 16.8394 42.1291 17.1389C41.583 17.4252 41.4112 17.8965 41.354 18.4691C41.2086 20.0019 41.0588 21.5346 40.8739 23.0586C40.7505 24.0452 40.0458 24.4813 39.1165 24.1333C38.4073 23.869 37.7378 23.4947 37.0507 23.1687C36.4738 22.8956 36.3152 22.4332 36.3901 21.8297C36.5266 20.7154 36.6543 19.6011 36.76 18.4823C36.8481 17.5574 36.9186 16.6324 36.9494 15.7031C36.9582 15.452 36.8305 15.0072 36.7028 14.9851C36.4473 14.9411 36.095 15.0512 35.8835 15.2274C35.6721 15.3992 35.5136 15.7075 35.4607 15.985C35.1788 17.5177 34.8177 19.0197 34.1261 20.4291C33.2717 22.1601 32.0604 23.5343 30.2634 24.3491C29.6556 24.6266 29.0742 24.6398 28.5016 24.3491C27.885 24.0364 27.2771 23.6929 26.6957 23.3229C26.0967 22.9397 25.5374 22.9265 24.956 23.3229C24.5331 23.6136 24.0927 23.8778 23.6742 24.1729C23.084 24.587 22.4806 24.5958 21.8772 24.2302C21.5116 24.0056 21.1725 23.7369 20.8289 23.477C20.0141 22.8692 19.6265 22.8428 18.8029 23.4154C18.4153 23.684 18.0497 23.9836 17.6841 24.2831C16.9574 24.8909 15.6008 25.0891 14.8476 24.5385C13.4822 23.5387 12.1741 22.464 10.8703 21.3893C10.5004 21.0854 10.4079 20.6009 10.5092 20.1252C10.6765 19.3236 10.8968 18.5352 11.0553 17.7336C11.2579 16.7029 11.0641 16.5355 9.93658 16.5223C9.47851 16.5223 9.19662 16.7954 9.09972 17.2535C9.04246 17.5354 9.02484 17.8305 9.02044 18.1212C8.96318 21.2836 8.9808 24.4504 8.83104 27.6085C8.71212 30.053 7.77396 32.1363 5.51004 33.4048C5.34267 33.5017 5.16209 33.581 4.99472 33.6735C4.54545 33.9157 4.11381 33.9069 3.713 33.5766C2.80567 32.8234 1.89834 32.0702 1.00863 31.2994C0.687104 31.0176 0.704722 30.7929 1.04387 30.5022C1.5592 30.0574 2.08774 29.6301 2.61187 29.1985C3.92882 28.1238 4.53224 26.7144 4.52784 25.0406C4.52784 23.0718 4.50581 21.0986 4.47498 19.1298C4.46617 18.5704 4.30761 18.4471 3.73502 18.3986C3.45754 18.3766 3.18006 18.359 2.90257 18.3546C2.44891 18.3458 2.17142 18.1167 1.94239 17.7424C1.70014 17.346 1.38302 17.0024 1.11875 16.6148C0.72234 16.0378 0.365574 15.4652 0 14.9015V14.483C0.242248 14.1835 0.559373 14.0338 0.942565 14.0514C1.99524 14.1086 2.75722 13.5625 3.46635 12.8842C3.91121 12.4614 4.09619 11.9636 4.05215 11.3514C3.98168 10.3956 3.92442 9.43986 3.89359 8.48408C3.79228 5.09702 5.06959 2.38824 7.88848 0.445852C8.44785 0.0626597 8.67248 0.0626597 9.24066 0.445852C9.7692 0.802617 10.3022 1.15498 10.8351 1.50293C11.5662 1.98303 12.3194 2.42788 13.0285 2.9388C13.5747 3.33521 13.5218 3.57746 12.9184 3.88577C11.7512 4.48038 10.7514 5.29081 9.9586 6.33028C9.07329 7.48866 8.68129 8.77919 8.9852 10.2327C9.17459 11.1356 9.59302 11.4263 10.4915 11.2501C11.4782 11.0563 12.4339 10.9594 13.0858 11.9636C13.1078 11.9989 13.1475 12.0209 13.1783 12.0473C13.654 12.4349 13.9315 12.4217 14.3763 12.0077C15.1559 11.2854 16.0412 10.7128 17.0278 10.312C18.2082 9.83186 18.6487 9.94198 19.4723 10.8934C19.9833 11.488 19.9921 11.51 20.7188 11.1929C21.2297 10.9682 21.635 11.0475 21.9873 11.4571C22.4013 11.9416 22.7845 12.457 23.225 12.9194C23.7667 13.492 23.6786 13.8576 23.3439 14.4874C22.9783 15.1701 22.5951 15.8528 22.3132 16.5708C22.0798 17.1698 21.8992 17.8128 21.8552 18.4515C21.7891 19.3368 22.692 20.2882 23.5201 20.3542C24.2028 20.4115 24.8194 19.8345 24.9383 18.8391C25.1982 16.6368 25.4405 14.4302 25.5858 12.2191C25.8325 8.42682 25.9998 4.63014 26.1848 0.833449C26.2024 0.472279 26.3125 0.199199 26.6032 -0.0078125H27.189L27.1846 -0.00340799Z" fill="#9D292F"/>
<path d="M81.0652 5.39854C81.052 5.52186 81.052 5.64959 81.0211 5.76851C80.7877 6.69346 80.5587 7.614 80.3076 8.53455C80.1887 8.9794 79.9552 9.12916 79.506 9.05868C79.2637 9.01904 79.0215 8.93536 78.7969 8.83846C78.0613 8.51693 77.339 8.17338 76.6034 7.84744C76.3303 7.72412 76.1718 7.53913 76.207 7.23962C76.2334 7.00618 76.2863 6.77715 76.3303 6.54811C76.4581 5.88303 76.5814 5.21795 76.7091 4.55287C76.74 4.3899 76.762 4.22253 76.8148 4.06837C77.0174 3.47377 77.4579 3.24914 78.0569 3.44293C78.2639 3.51341 78.4577 3.63233 78.6559 3.72923C79.2902 4.03754 79.9156 4.36788 80.5587 4.64537C80.9154 4.79952 81.1004 5.01094 81.0608 5.39854H81.0652Z" fill="#9D292F"/>
<path d="M39.8475 8.2093C39.2794 8.28418 38.8301 8.18287 38.4821 7.76004C38.372 7.6235 38.2047 7.531 38.0593 7.4253C37.2401 6.82628 37.0771 5.98502 37.5792 5.10852C37.7466 4.81342 37.8435 4.47427 37.936 4.14394C38.1034 3.54492 38.2575 3.45243 38.8609 3.60218C39.5304 3.76955 40.2087 3.90609 40.8782 4.08668C41.1953 4.17477 41.5301 4.28488 41.7767 4.48308C41.9661 4.63724 42.1599 4.95437 42.1335 5.179C42.0586 5.84848 41.9353 6.52237 41.7327 7.16103C41.4376 8.09478 40.658 8.26656 39.8475 8.2093Z" fill="#9D292F"/>
</g>
<defs>
<clipPath id="clip0_8184_3727">
<rect width="100" height="33.831" fill="white"/>
</clipPath>
</defs>
</svg>
