<svg width="107" height="28" viewBox="0 0 107 28" fill="none" xmlns="http://www.w3.org/2000/svg">
<path d="M105.975 5.6131C105.964 5.57479 105.951 5.53705 105.935 5.5C96.6656 5.50333 87.3991 5.5 78.1343 5.50333C78.1108 5.52672 78.0956 5.55707 78.0909 5.58982C78.0909 12.5007 78.0909 19.4083 78.0859 26.3193C78.1562 26.691 78.3514 27.0278 78.6393 27.274C78.6509 27.279 78.6776 27.2823 78.6893 27.2856C78.8343 27.432 79.0409 27.5035 79.2376 27.5717C79.3826 27.5634 79.5226 27.6233 79.6676 27.61H91.1724C91.2824 27.605 91.3941 27.6233 91.5007 27.5834L91.5124 27.5268L91.5241 27.4436C91.7707 26.1197 92.009 24.7907 92.2724 23.4684L92.2957 23.2987C91.2307 23.2938 90.1624 23.2987 89.0974 23.2938C88.8391 23.2871 88.5741 23.2938 88.3141 23.2638C87.8741 23.2455 87.4275 23.2605 86.9858 23.2189C86.4358 23.2189 85.8925 23.169 85.3458 23.169C84.9158 23.1291 84.4792 23.1441 84.0458 23.1241C83.7642 23.0908 83.4742 23.1075 83.1892 23.0942C82.7225 23.0443 82.2509 23.0792 81.7842 23.031C81.2909 23.0343 80.7992 22.9927 80.3059 22.9811C80.3102 22.9746 80.3131 22.9672 80.3142 22.9594C80.4776 22.9628 80.6376 22.9511 80.8026 22.9478C81.1659 22.9029 81.5342 22.9328 81.8975 22.8846C82.2775 22.8846 82.6542 22.8347 83.0325 22.8347C83.3692 22.7898 83.7092 22.8164 84.0458 22.7715C84.4425 22.7715 84.8292 22.7216 85.2241 22.7183C85.5491 22.6767 85.8775 22.7 86.2025 22.6584C86.5825 22.6617 86.9575 22.6052 87.3358 22.6085C87.7091 22.5686 88.0891 22.5786 88.4608 22.542C88.4258 22.4022 88.3974 22.2625 88.3658 22.1245C88.3391 22.038 88.2291 22.0563 88.1591 22.0446C87.3091 21.9282 86.4641 21.8118 85.6191 21.6987C85.6741 21.6571 85.7491 21.6754 85.8108 21.6687C86.4691 21.6188 87.1225 21.5639 87.7791 21.519C87.9291 21.5107 88.0724 21.4858 88.2224 21.4808C88.1558 21.2845 88.1158 21.07 88.0258 20.8903C86.6208 20.6841 85.2158 20.4995 83.8158 20.2766C84.1792 20.22 84.5475 20.1934 84.9108 20.1568L84.9425 20.1452C86.1041 20.0287 87.2708 19.8957 88.4324 19.7876C89.9074 19.7809 91.3791 19.7842 92.854 19.7876C92.9024 19.7809 92.984 19.8042 92.9924 19.7377L93.3507 17.9097C93.5207 17.0648 93.7857 16.2298 94.1973 15.4581C94.8574 14.2006 95.868 13.1608 97.1073 12.4641C98.2706 11.8088 99.6156 11.4928 100.954 11.4329C101.389 11.3947 101.827 11.4063 102.257 11.4579C102.541 11.5227 102.829 11.5976 103.052 11.7822C103.236 11.9252 103.346 12.1365 103.427 12.3477C103.607 12.8467 103.711 13.3656 103.796 13.8896C103.799 14.0992 103.839 14.337 103.721 14.5283C103.612 14.7162 103.392 14.8077 103.186 14.8626C102.431 15.0522 101.639 14.8742 100.886 15.0522C100.262 15.1786 99.6822 15.5096 99.2873 15.9886C98.8206 16.5442 98.5756 17.2361 98.4373 17.9297C98.3323 18.5451 98.1989 19.1638 98.0939 19.7842C98.8373 19.7876 99.5856 19.7809 100.332 19.7876C100.631 19.7876 100.936 19.9456 101.056 20.2167C101.212 20.5627 101.177 20.9535 101.127 21.3194C101.064 21.7286 100.962 22.1345 100.771 22.512C100.611 22.8314 100.344 23.1241 99.9806 23.2372C99.7922 23.3087 99.5889 23.2938 99.3889 23.2938C98.7323 23.2938 98.0739 23.3021 97.4173 23.2938C97.3123 23.7562 97.2406 24.2302 97.1473 24.7009C96.9756 25.6157 96.8073 26.5322 96.634 27.4503C96.6296 27.4928 96.6274 27.5356 96.6273 27.5784C96.9356 27.595 97.244 27.5784 97.554 27.5867C99.8472 27.5867 102.144 27.5834 104.441 27.5867C104.689 27.5948 104.935 27.5374 105.154 27.4204C105.282 27.3754 105.36 27.2673 105.474 27.2058C105.584 27.1459 105.615 27.0228 105.709 26.943C105.81 26.77 105.915 26.5887 105.925 26.3858C105.945 26.3852 105.965 26.383 105.984 26.3791C105.97 19.4566 105.984 12.534 105.975 5.6131Z" fill="url(#paint0_linear_8183_3608)" stroke="#FCD109" stroke-width="0.375236"/>
<path d="M81.7375 1.05774C82.0708 0.956282 82.4191 1.02448 82.7591 1.00119C89.149 1.00452 95.5389 1.00119 101.929 1.00119C102.309 0.986221 102.64 1.19247 102.994 1.29892C103.275 1.40703 103.569 1.49352 103.85 1.60995C103.909 1.63324 103.952 1.68147 103.995 1.72305C103.992 2.22037 103.995 2.72102 103.995 3.22001C103.999 3.35307 103.975 3.48779 104.022 3.61587C104.105 3.62751 104.147 3.68739 104.202 3.73562C104.46 3.84872 104.68 4.03501 104.915 4.18471C105.265 4.42422 105.642 4.63379 105.987 4.88328C106.004 4.98142 105.99 5.08288 105.959 5.17269C105.925 5.27914 105.947 5.39225 105.935 5.49703C96.6656 5.50036 87.4007 5.49703 78.1342 5.50036C78.1142 5.37728 78.1509 5.25087 78.0942 5.13444C78.0876 5.03797 78.0509 4.9099 78.1492 4.8417C78.5409 4.5789 78.9559 4.34272 79.3392 4.06329C79.5775 3.91692 79.8092 3.76556 80.0392 3.61587C80.0859 3.54102 80.0709 3.44621 80.0709 3.36305C80.0709 2.81749 80.0709 2.2736 80.0742 1.72804C80.2075 1.56172 80.4392 1.54342 80.6225 1.46026C80.9942 1.32553 81.3692 1.19413 81.7392 1.05774H81.7375ZM81.7608 1.12095C81.2608 1.30557 80.7558 1.48354 80.2542 1.6665C80.1875 1.67815 80.1542 1.7347 80.1175 1.78293C80.1209 1.81453 80.1259 1.8661 80.1259 1.89603C80.1209 2.34845 80.1259 2.7992 80.1209 3.25161C80.1259 3.36305 80.1092 3.47615 80.1542 3.57761C80.1029 3.62936 80.0459 3.67512 79.9842 3.714C79.4175 4.06661 78.8692 4.45083 78.3009 4.80012C78.2042 4.85667 78.0942 4.93318 78.1259 5.05627C78.1059 5.12446 78.1426 5.18101 78.2159 5.16271C79.4442 5.1544 80.6692 5.16937 81.8992 5.15107C83.7258 5.15107 85.5491 5.1544 87.3757 5.15107L87.4041 5.13943C87.4874 5.15773 87.5674 5.15107 87.6541 5.15107C90.964 5.15107 94.2756 5.1544 97.5889 5.15107C98.6306 5.1544 99.6755 5.15107 100.721 5.15107C102.442 5.15107 104.167 5.16604 105.889 5.15773C105.939 5.14775 105.955 5.11282 105.935 5.05294C105.932 4.99306 105.955 4.9099 105.889 4.87164C105.615 4.74856 105.38 4.55562 105.119 4.40592C105.024 4.33108 104.902 4.28949 104.832 4.18803C104.562 4.04167 104.312 3.86037 104.045 3.69903C103.995 3.66909 103.955 3.61919 103.912 3.57761C103.935 3.497 103.946 3.41355 103.945 3.32978C103.94 2.85242 103.945 2.37506 103.94 1.89603C103.952 1.82119 103.949 1.7347 103.877 1.68646C103.409 1.52346 102.944 1.35048 102.477 1.18581C102.33 1.12091 102.175 1.07776 102.015 1.05774H82.0158C81.9292 1.06107 81.8475 1.10265 81.7608 1.12095Z" fill="#F8F3B5" stroke="#F8F3B5" stroke-width="0.375236"/>
<path d="M80.1261 1.89844C80.4694 2.03815 80.8377 2.11633 81.1861 2.25272C81.3744 2.32424 81.4327 2.51884 81.5144 2.67685C81.4297 2.75465 81.337 2.82323 81.2377 2.88144C80.8761 3.11429 80.5094 3.3405 80.1544 3.58001C80.1094 3.48022 80.1261 3.36545 80.1211 3.25401C80.1261 2.8016 80.1211 2.35085 80.1261 1.89844ZM102.879 2.25272C103.229 2.11965 103.592 2.02984 103.941 1.89844C103.944 2.37746 103.941 2.85482 103.944 3.33218C103.944 3.41535 103.936 3.50184 103.912 3.58168C103.607 3.37709 103.299 3.18582 102.994 2.98622C102.844 2.88144 102.681 2.80326 102.547 2.67353C102.631 2.51551 102.692 2.32424 102.881 2.25272H102.879Z" fill="#F7B402" stroke="#F7B402" stroke-width="0.375236"/>
<path d="M86.0962 2.40702C86.5278 2.30722 87.0095 2.67813 86.9745 3.11059C86.9778 3.53472 86.5112 3.88068 86.0862 3.78421C85.9111 3.73668 85.7559 3.63472 85.6428 3.49314C85.5736 3.39443 85.5318 3.27922 85.5215 3.15917C85.5113 3.03912 85.533 2.9185 85.5845 2.80953C85.6628 2.5983 85.8745 2.45525 86.0978 2.40702H86.0962ZM97.2626 2.6432C97.3534 2.54416 97.4685 2.47055 97.5965 2.4297C97.7246 2.38885 97.8612 2.38217 97.9926 2.41034C98.1926 2.4669 98.3876 2.59164 98.4743 2.77959C98.5557 2.94239 98.5702 3.13044 98.5148 3.30377C98.4594 3.47709 98.3384 3.62201 98.1776 3.7077C98.0313 3.78112 97.8655 3.80649 97.7038 3.78021C97.5422 3.75392 97.393 3.67731 97.2776 3.56133C97.1639 3.4363 97.0994 3.27428 97.0964 3.1054C97.0933 2.93651 97.1518 2.77227 97.261 2.6432H97.2626Z" fill="#BDA727" stroke="#BDA727" stroke-width="0.375236"/>
<path d="M81.2379 2.87812C81.3371 2.82044 81.4298 2.75242 81.5146 2.6752L81.5429 2.70181C81.5696 2.89808 81.5496 3.09767 81.5579 3.29228C81.5463 3.87942 81.5696 4.46988 81.5413 5.05702C80.403 5.05702 79.2646 5.05036 78.1247 5.05702C78.0947 4.93393 78.2047 4.85742 78.303 4.80087C78.8696 4.45158 79.418 4.06903 79.9863 3.71475C80.0468 3.67566 80.1027 3.62991 80.153 3.57836C80.5096 3.33885 80.8763 3.11264 81.2363 2.87978L81.2379 2.87812ZM102.508 2.80327C102.508 2.75504 102.521 2.71346 102.548 2.67188C102.681 2.79995 102.844 2.87978 102.994 2.98457C103.299 3.18416 103.608 3.37544 103.913 3.57836C103.956 3.61994 103.996 3.66984 104.046 3.69978C104.313 3.86112 104.563 4.04242 104.833 4.18879C104.903 4.28858 105.024 4.33183 105.119 4.40501C105.381 4.55637 105.616 4.74931 105.889 4.87239C105.956 4.91065 105.933 4.99381 105.936 5.05369C104.798 5.05702 103.663 5.05036 102.524 5.05702C102.504 4.90732 102.516 4.75763 102.513 4.6096C102.513 4.00749 102.504 3.40538 102.508 2.80327Z" fill="#F7E62D" stroke="#F7E62D" stroke-width="0.375236"/>
<path d="M105.936 5.04988C104.797 5.05321 103.662 5.04656 102.524 5.05321C102.504 4.90352 102.516 4.75382 102.512 4.60579C102.512 4.00368 102.504 3.40157 102.509 2.79947C102.509 2.75123 102.521 2.70965 102.547 2.66807C102.631 2.51006 102.692 2.31878 102.881 2.24726C103.229 2.1142 103.592 2.02438 103.941 1.89298C103.952 1.81813 103.949 1.73164 103.877 1.68341C103.407 1.52041 102.944 1.34742 102.477 1.18276C102.33 1.11783 102.175 1.07469 102.016 1.05469H82.0159C81.9293 1.05801 81.8476 1.0996 81.7609 1.11789C81.2609 1.30252 80.7559 1.47882 80.2543 1.66345C80.1876 1.67509 80.1543 1.73164 80.1176 1.77988C80.121 1.81148 80.126 1.86304 80.126 1.89298C80.4693 2.0327 80.8376 2.11087 81.1859 2.24726C81.3743 2.31878 81.4326 2.51338 81.5143 2.6714L81.5426 2.69801C81.5693 2.89427 81.5493 3.09387 81.5576 3.28847C81.5459 3.87561 81.5693 4.46607 81.5409 5.05321C80.4026 5.05321 79.2643 5.04656 78.1243 5.05321C78.1077 5.11974 78.141 5.17796 78.216 5.15966C79.4443 5.15134 80.6693 5.16631 81.8993 5.14802C83.7259 5.14802 85.5492 5.15134 87.3758 5.14802L87.4042 5.13637C87.4858 5.15467 87.5675 5.14802 87.6542 5.14802C90.9641 5.14802 94.2757 5.15134 97.589 5.14802C98.6307 5.15134 99.6756 5.14802 100.719 5.14802C102.441 5.14802 104.167 5.16299 105.889 5.15467C105.939 5.14303 105.956 5.10976 105.936 5.04988ZM85.5842 2.80446C85.6625 2.59322 85.8742 2.45018 86.0975 2.40194C86.5275 2.30215 87.0092 2.6714 86.9742 3.10551C86.9775 3.52965 86.5109 3.87561 86.0842 3.77748C85.91 3.73007 85.7554 3.62874 85.6425 3.48807C85.5733 3.38936 85.5315 3.27414 85.5212 3.15409C85.511 3.03404 85.5327 2.91343 85.5842 2.80446ZM97.2607 2.63813C97.3517 2.53853 97.4674 2.46459 97.5961 2.42372C97.7248 2.38284 97.862 2.37648 97.994 2.40527C98.1923 2.46182 98.3873 2.5849 98.474 2.77452C98.5552 2.93751 98.5695 3.12572 98.5138 3.29908C98.4581 3.47243 98.3368 3.61722 98.1757 3.70263C98.0293 3.77604 97.8635 3.80142 97.7019 3.77513C97.5402 3.74885 97.3911 3.67224 97.2757 3.55626C97.1621 3.43102 97.098 3.26889 97.0952 3.10001C97.0925 2.93113 97.1513 2.767 97.2607 2.63813Z" fill="url(#paint1_radial_8183_3608)" stroke="#FCD109" stroke-width="0.375236"/>
<path d="M98.2591 6.70805C98.3124 6.71969 97.9741 6.39369 98.0391 6.37872C98.1024 6.38704 98.3391 6.20907 98.6274 6.35377C98.9141 6.49848 98.8424 6.83612 98.8107 6.96253C98.7707 7.11223 98.6724 7.20703 98.5941 7.28188C98.5507 7.31515 98.4541 7.36837 98.3957 7.36504C98.4307 7.18042 98.3174 7.14882 98.3091 6.96253L98.2591 6.70805Z" fill="url(#paint2_linear_8183_3608)" stroke="#FCD109" stroke-width="0.375236"/>
<path d="M85.7492 6.90784C85.7409 7.09579 85.6275 7.12407 85.6625 7.31036C85.6042 7.31368 85.5075 7.26046 85.4642 7.22719C85.3626 7.1439 85.2873 7.03297 85.2475 6.90784C85.2159 6.78143 85.1459 6.44213 85.4309 6.29908C85.7192 6.15438 85.9559 6.33235 86.0192 6.32403C86.0859 6.339 85.7459 6.66501 85.8009 6.65336L85.7492 6.90784Z" fill="url(#paint3_linear_8183_3608)" stroke="#FCD109" stroke-width="0.375236"/>
<path d="M97.746 9.11855C97.806 9.07031 97.8443 9.07031 97.9226 9.07031C97.4527 10.0483 96.906 11.0263 96.081 11.7881C95.9928 11.8638 95.8998 11.9338 95.8027 11.9977L95.5244 12.1906C95.4343 12.2499 95.3454 12.3109 95.2577 12.3736C95.0344 12.49 94.8394 12.653 94.591 12.7229C94.1355 12.9256 93.6578 13.0746 93.1677 13.167C92.9761 13.1986 92.7811 13.2435 92.5844 13.2468C92.3427 13.3133 92.0844 13.2651 91.8377 13.2801C91.7011 13.3034 91.5794 13.2285 91.4461 13.2435C91.2137 13.2108 90.9834 13.1652 90.7561 13.1071C88.9611 12.5699 87.2012 11.2525 86.6878 9.47283C86.6646 9.35223 86.6529 9.22971 86.6528 9.10691C86.7078 9.21336 86.7645 9.31814 86.8228 9.42293C87.5528 10.9531 89.0011 12.1557 90.7111 12.5183C90.8494 12.5798 90.9994 12.5582 91.1328 12.6114C91.2544 12.6114 91.3728 12.6064 91.4894 12.6447C91.8927 12.653 92.2961 12.648 92.6994 12.648C92.7527 12.653 92.8044 12.6264 92.8594 12.6148C93.5311 12.5931 94.1894 12.4152 94.801 12.149C94.9244 12.0958 95.0444 12.0393 95.1644 11.9794C95.3699 11.8754 95.5662 11.7541 95.751 11.6168C96.4893 11.0591 97.0954 10.3458 97.526 9.52771L97.746 9.12021V9.11855Z" fill="#BDA727" stroke="#BDA727" stroke-width="0.375236"/>
<path d="M97.1076 12.4587C98.2709 11.805 99.6159 11.489 100.954 11.4274C101.389 11.3909 101.828 11.4025 102.258 11.4557C102.541 11.5189 102.829 11.5938 103.053 11.7784C102.939 11.7867 102.829 11.7368 102.716 11.7218C102.394 11.662 102.063 11.6853 101.738 11.6769C100.794 11.6769 99.8442 11.7485 98.9309 11.9963C98.4495 12.1252 97.9838 12.307 97.5426 12.5385C96.7926 12.9377 96.1143 13.4633 95.566 14.0953C94.5876 15.1765 94.0127 16.5454 93.736 17.9408C93.6027 18.6893 93.4493 19.4345 93.3277 20.1863C93.1327 20.2046 92.9327 20.1946 92.7377 20.1946C91.876 20.1913 91.016 20.1863 90.1544 20.178C89.971 20.1863 89.7911 20.1447 89.6077 20.1563C88.0411 20.1647 86.4761 20.153 84.9111 20.153L84.9428 20.1414C86.1044 20.0249 87.2711 19.8919 88.4327 19.7838C89.9077 19.7771 91.3794 19.7804 92.8543 19.7838C92.901 19.7771 92.9843 19.8004 92.991 19.7339C93.1127 19.1251 93.231 18.5163 93.351 17.9059C93.5193 17.061 93.786 16.226 94.1977 15.4542C94.8577 14.1968 95.8683 13.157 97.1076 12.4603V12.4587Z" fill="#0D69B3" stroke="#0D69B3" stroke-width="0.375236"/>
<path d="M98.9325 11.999C99.8442 11.7512 100.794 11.6797 101.737 11.6797C102.062 11.688 102.396 11.6647 102.716 11.7246C102.829 11.7412 102.939 11.7895 103.052 11.7811C103.236 11.9242 103.346 12.1354 103.427 12.3467C103.607 12.8456 103.711 13.3646 103.796 13.8885C103.799 14.0981 103.839 14.3359 103.721 14.5272C103.612 14.7152 103.392 14.8067 103.186 14.8632C102.431 15.0512 101.639 14.8732 100.886 15.0512C100.262 15.1776 99.6842 15.5102 99.2875 15.9876C98.8209 16.5448 98.5759 17.235 98.4375 17.9286C98.3325 18.544 98.2009 19.1628 98.0942 19.7832C98.0475 19.9229 98.0209 20.0726 97.9942 20.219C98.7325 20.2306 99.4725 20.219 100.211 20.2273C100.494 20.219 100.774 20.2339 101.056 20.2156C101.212 20.5616 101.177 20.9525 101.127 21.3184C101.064 21.7276 100.962 22.1334 100.771 22.511C100.611 22.8303 100.344 23.123 99.9808 23.2362C99.7925 23.3077 99.5892 23.2927 99.3892 23.2927C98.7325 23.2927 98.0742 23.301 97.4175 23.2927C97.3125 23.7551 97.2409 24.2291 97.1475 24.6998C96.9759 25.6146 96.8076 26.5328 96.6342 27.4492C96.6299 27.4918 96.6277 27.5345 96.6276 27.5773V27.5823C94.9176 27.5823 93.2109 27.5856 91.501 27.5823L91.5126 27.5258L91.5243 27.4426L91.536 27.5557C91.6426 27.5673 91.8343 27.6189 91.861 27.4725C92.1276 26.0887 92.3743 24.6948 92.6476 23.311C92.5405 23.2892 92.4302 23.2881 92.3226 23.3077C92.306 23.3609 92.291 23.4141 92.2726 23.4657L92.296 23.2977C91.231 23.2927 90.1627 23.2977 89.0993 23.2927C88.8393 23.286 88.5744 23.2927 88.316 23.2628C87.8744 23.2445 87.4277 23.2594 86.986 23.2179C86.4377 23.2179 85.8944 23.168 85.3461 23.168C84.9161 23.128 84.4811 23.143 84.0461 23.123C83.7644 23.0898 83.4761 23.1064 83.1894 23.0931C82.7228 23.0432 82.2511 23.0781 81.7845 23.0299C81.2928 23.0332 80.7995 22.9917 80.3062 22.98C80.3105 22.9735 80.3134 22.9661 80.3145 22.9584C80.4778 22.9617 80.6378 22.9501 80.8028 22.9467C81.1661 22.9018 81.5361 22.9318 81.8978 22.8835C82.2778 22.8835 82.6544 22.8336 83.0328 22.8336C83.3694 22.7887 83.7111 22.8153 84.0461 22.7704C84.4428 22.7704 84.8294 22.7205 85.2244 22.7172C85.5494 22.6756 85.8777 22.6989 86.2027 22.6573C86.5827 22.6607 86.9577 22.6041 87.3377 22.6074C87.7094 22.5675 88.0877 22.5775 88.461 22.5409C88.426 22.4012 88.3977 22.2615 88.3677 22.1234C88.3394 22.0369 88.2294 22.0552 88.1594 22.0436C87.3094 21.9272 86.4644 21.8107 85.6194 21.6976C85.6744 21.656 85.7494 21.6743 85.8111 21.6677C86.4694 21.6178 87.1227 21.5629 87.7794 21.518C87.9294 21.5097 88.0727 21.4847 88.2227 21.4797C88.156 21.2835 88.116 21.0689 88.026 20.8893C86.621 20.6814 85.2161 20.4984 83.8161 20.2755C84.1794 20.219 84.5478 20.1924 84.9111 20.1558C86.4777 20.1558 88.0427 20.1674 89.6077 20.1591C89.791 20.1474 89.971 20.189 90.1543 20.1824L92.7376 20.1973C92.9326 20.1973 93.1326 20.209 93.3293 20.189C93.4493 19.4372 93.6026 18.6921 93.7359 17.9436C94.0126 16.5464 94.5893 15.1776 95.5676 14.0981C96.1142 13.466 96.7909 12.9405 97.5425 12.5413C97.9759 12.3001 98.4542 12.1388 98.9325 11.999Z" fill="#107BD4" stroke="#107BD4" stroke-width="0.375236"/>
<path d="M98.096 19.7812C98.8376 19.7846 99.5859 19.7779 100.333 19.7846C100.631 19.7846 100.936 19.9426 101.056 20.2137C100.774 20.232 100.493 20.217 100.211 20.2253C99.4726 20.217 98.7326 20.2287 97.9943 20.217C98.021 20.0707 98.0476 19.921 98.0943 19.7812H98.096ZM92.3227 23.3074C92.4303 23.2878 92.5406 23.2889 92.6477 23.3107C92.3744 24.6946 92.1277 26.0867 91.8611 27.4706C91.8344 27.617 91.6427 27.5654 91.5361 27.5538L91.5244 27.4407C91.7711 26.1167 92.0094 24.7877 92.2727 23.4654C92.2911 23.4127 92.3078 23.3595 92.3227 23.3057V23.3074Z" fill="#0D69B3" stroke="#0D69B3" stroke-width="0.375236"/>
<path d="M98.4377 6.80818C98.4098 6.7496 98.3972 6.68496 98.401 6.62023L98.371 6.62356C98.3227 6.45889 98.1794 6.30088 97.991 6.29256C97.8494 6.28258 97.6744 6.28591 97.591 6.41398C97.436 6.6169 97.5094 6.87637 97.501 7.10591L97.506 7.16246C97.506 7.31714 97.486 7.46684 97.4577 7.6182C97.435 7.66361 97.4235 7.71381 97.4244 7.76457C97.3577 8.11718 97.2244 8.46813 97.0444 8.78748C97.0088 8.83012 96.9832 8.88012 96.9694 8.93385C96.8477 9.12844 96.7129 9.3146 96.5661 9.49105C96.5436 9.51021 96.523 9.53137 96.5044 9.55425C96.4027 9.67567 96.2927 9.77713 96.1794 9.88192C96.1511 9.89855 96.1327 9.91519 96.1094 9.93182C95.9743 10.0586 95.8256 10.1701 95.6661 10.2645L95.6044 10.3077C94.6028 10.9431 93.3844 11.2059 92.1995 11.2175C91.1912 11.2467 90.1897 11.0435 89.2728 10.6237L89.2012 10.5938C89.0495 10.514 88.8928 10.4458 88.7512 10.3493L88.6545 10.2994C88.5098 10.2184 88.3721 10.1255 88.2429 10.0216C88.1995 9.98338 88.1529 9.9551 88.1062 9.92018C87.961 9.8124 87.8249 9.69279 87.6995 9.56257L87.6062 9.46776C87.1768 9.04753 86.8554 8.52999 86.6695 7.95917C86.5029 7.51175 86.5262 7.02274 86.5062 6.5537C86.3646 6.34579 86.0679 6.22936 85.8329 6.35743C85.7346 6.42396 85.7229 6.54871 85.6496 6.6352C85.5279 7.87767 86.0796 9.11348 86.9595 10.0117C86.9595 10.0399 86.9762 10.0599 87.0029 10.0699C87.1595 10.2096 87.3129 10.3526 87.4695 10.4874C87.4981 10.5158 87.5293 10.5415 87.5629 10.5639C87.7195 10.6869 87.8879 10.8 88.0512 10.9165C88.0826 10.9386 88.1154 10.9587 88.1495 10.9764C88.3662 11.0978 88.5678 11.2408 88.7995 11.3223C88.8162 11.334 88.8428 11.3539 88.8578 11.3606C89.6012 11.7032 90.4028 11.9361 91.2245 12.0109C91.3145 12.0109 91.4045 12.0192 91.4945 12.0375C91.8861 12.0608 92.2778 12.0492 92.6695 12.0409C93.8778 11.9411 95.1261 11.6583 96.1361 10.973L96.1477 10.9897C96.1767 10.9641 96.2068 10.9397 96.2377 10.9165C96.4375 10.7743 96.632 10.6251 96.821 10.4691C96.9927 10.2894 97.1927 10.1231 97.3377 9.91685L97.361 9.92683L97.4044 9.85198C97.5377 9.679 97.6577 9.49937 97.776 9.31807C97.7844 9.30643 97.8027 9.28813 97.8094 9.27649L97.796 9.26152L97.846 9.20164C98.0627 8.78083 98.2527 8.34006 98.3194 7.87268C98.3477 7.8627 98.3627 7.83941 98.3627 7.8128C98.366 7.66311 98.421 7.52006 98.406 7.3687C98.4394 7.18574 98.4444 6.99613 98.4377 6.80818Z" fill="white" stroke="white" stroke-width="0.375236"/>
<path d="M19.9888 8.42042C20.5554 8.33726 21.2087 8.28736 21.6887 8.62667C21.9887 8.8429 22.0971 9.23377 22.0754 9.58306C22.0971 10.1586 21.8187 10.7756 21.2837 11.075C20.8121 11.3212 20.2454 11.3411 19.7221 11.2912C19.3688 11.2497 19.0154 11.0634 18.8338 10.7557C18.4271 9.86082 18.9304 8.59507 19.9888 8.42042ZM3.02238 9.0691C3.04218 8.9106 3.11901 8.76468 3.23859 8.65851C3.35816 8.55233 3.51232 8.49314 3.67237 8.49195C6.14566 8.49195 8.60562 8.50359 11.0672 8.49195C11.3339 8.47199 11.6222 8.58509 11.7506 8.8113C11.9339 9.12067 11.7722 9.45997 11.7506 9.77766C11.6756 10.2101 11.6972 10.7856 11.1739 10.9503C9.3756 11.0018 7.57897 10.9503 5.78066 10.9719C5.61067 12.0613 5.449 13.1425 5.27901 14.2219C5.27901 14.2635 5.28901 14.355 5.28901 14.3966C6.60565 14.3866 7.9223 14.3966 9.23727 14.3866C9.6006 14.365 9.98726 14.6644 9.95393 15.0353C9.9206 15.4145 9.83726 15.7838 9.78226 16.1663C9.7576 16.2996 9.69368 16.4225 9.59869 16.5194C9.5037 16.6163 9.38193 16.6827 9.24894 16.7102C7.7823 16.7418 6.29399 16.6803 4.82901 16.7418C4.59402 18.2953 4.31569 19.8472 4.06903 21.4007C4.05387 21.5549 3.98415 21.6987 3.87236 21.8063C3.76058 21.9139 3.61404 21.9783 3.45904 21.9878C2.84905 21.9978 2.23906 21.9978 1.63073 21.9878C1.23407 21.9978 0.914077 21.5753 1.02074 21.216C1.6724 17.1643 2.34739 13.1209 3.02071 9.0691H3.02238ZM13.8905 8.51357C14.4472 8.47199 15.0138 8.50359 15.5705 8.49195C15.9122 8.47199 16.2538 8.72979 16.2872 9.0691C16.2872 9.33523 16.2122 9.60302 16.1805 9.8708C15.7305 12.6269 15.2705 15.3846 14.8222 18.1406C14.7572 18.5831 14.6389 19.0554 14.7788 19.5095C14.9388 19.9619 15.6555 19.7657 15.8288 20.2397C15.9338 20.6189 15.8172 21.0214 15.7838 21.4123C15.7522 21.9263 15.1422 22.0394 14.7255 22.1525C13.8155 22.3171 12.7139 22.194 12.0606 21.4738C11.5906 20.9482 11.5589 20.2081 11.6556 19.5494C12.2222 16.0532 12.7889 12.5553 13.3672 9.04748C13.3863 8.91455 13.4473 8.79113 13.5414 8.69513C13.6355 8.59913 13.7578 8.53554 13.8905 8.51357ZM35.1269 9.0691C35.1478 8.91227 35.2241 8.76803 35.342 8.66225C35.4599 8.55648 35.6117 8.4961 35.7702 8.49195H37.3951C37.8018 8.48197 38.1335 8.90444 38.0385 9.27369C37.6635 11.5574 37.2785 13.8411 36.9052 16.1247C37.4718 16.0416 38.1135 15.9401 38.5085 15.4977C39.1718 14.7775 39.7184 13.9442 40.1251 13.0693C40.2634 12.73 40.3384 12.2377 40.7984 12.1744C41.4084 12.1545 42.0284 12.1645 42.6384 12.1744C43.0551 12.1645 43.365 12.6169 43.2267 12.9878C43.0667 13.5333 42.7984 14.0357 42.5201 14.5197C41.9001 15.4877 41.2151 16.4441 40.3168 17.2042C40.7134 18.3469 41.2167 19.4579 41.6534 20.579C41.7817 20.9482 42.0934 21.3807 41.8034 21.74C41.4717 22.1724 40.8518 21.9562 40.3918 22.0078C39.9101 21.9579 39.2151 22.1924 38.9468 21.6684C38.4435 20.5474 38.0268 19.3947 37.5135 18.2754C37.2102 18.292 36.9062 18.2881 36.6035 18.2637L36.5202 18.43C36.3585 19.4579 36.1868 20.4859 36.0152 21.5138C35.9861 21.641 35.918 21.756 35.8203 21.8428C35.7226 21.9296 35.6002 21.9837 35.4702 21.9978C34.9035 22.0177 34.3252 22.0078 33.7469 22.0078C33.6273 22.0048 33.5108 21.9699 33.4094 21.9068C33.3079 21.8436 33.2253 21.7544 33.1702 21.6485C33.0636 21.4422 33.1269 21.2061 33.1586 20.9798C33.8219 17.0096 34.4752 13.0394 35.1269 9.0691ZM64.8597 10.1902C64.9015 10.0487 64.9895 9.92521 65.1097 9.83933C65.2299 9.75345 65.3753 9.71009 65.523 9.71612C65.9513 9.72776 66.3897 9.70614 66.828 9.72776C67.1813 9.73774 67.4596 10.0771 67.4163 10.4064C67.353 10.9919 67.203 11.579 67.1597 12.1645C67.5763 12.1645 68.0046 12.1545 68.4213 12.1645C68.7963 12.1645 69.1063 12.5354 69.043 12.8847C68.9896 13.204 68.9146 13.5117 68.8596 13.8311C68.8299 13.9636 68.7612 14.0843 68.6624 14.1777C68.5635 14.271 68.4389 14.3328 68.3046 14.355C67.7913 14.3866 67.288 14.335 66.7847 14.3866C66.5713 15.7638 66.3347 17.1427 66.1113 18.5215C66.078 18.8392 66.058 19.2001 66.2497 19.4779C66.5397 19.8172 67.0413 19.6941 67.4497 19.7357C67.7696 19.8272 67.973 20.1682 67.9196 20.4759C67.8663 20.8252 67.8546 21.1744 67.7696 21.5138C67.6413 21.8963 67.1813 21.9662 66.828 22.0593C65.8547 22.3071 64.7314 22.3071 63.8647 21.7599C63.0614 21.236 62.9331 20.2181 63.0197 19.3548C63.2447 17.6882 63.5964 16.0316 63.7897 14.355C63.4897 14.365 63.1264 14.4066 62.9014 14.1504C62.6447 13.8926 62.7731 13.5117 62.8164 13.1924C62.8797 12.8531 62.8697 12.4106 63.2547 12.2277C63.5647 12.1129 63.918 12.1944 64.2497 12.1545C64.453 11.4958 64.6447 10.8372 64.8597 10.1902ZM58.8131 13.5217C59.4864 12.873 60.2998 12.3408 61.2298 12.073C61.6381 11.8967 62.1631 12.226 62.1514 12.6585C62.0764 13.224 61.9364 13.7795 61.8414 14.335C61.8161 14.4757 61.7463 14.6046 61.6422 14.7028C61.5381 14.801 61.4053 14.8633 61.2631 14.8806C60.2131 15.0552 59.3048 15.6623 58.5781 16.3825C58.3948 16.5988 58.1281 16.8034 58.0948 17.1011C57.8689 18.5423 57.6378 19.9827 57.4015 21.4223C57.3681 21.73 57.0898 22.0294 56.7582 22.0078H55.1332C55.0425 22.0091 54.9526 21.9917 54.8691 21.9566C54.7855 21.9215 54.7102 21.8694 54.6479 21.8038C54.5855 21.7381 54.5375 21.6603 54.5069 21.5751C54.4762 21.49 54.4636 21.3994 54.4699 21.3092C54.9399 18.46 55.4115 15.6208 55.8698 12.7716C55.8915 12.4838 56.1065 12.206 56.4165 12.1744C56.8115 12.1545 57.2082 12.1645 57.6148 12.1645C57.9348 12.1645 58.2348 12.4422 58.2348 12.7616C58.2348 13.204 58.1931 13.6564 58.1815 14.1088C58.4381 13.9542 58.5981 13.708 58.8131 13.5217ZM18.8204 12.216C19.3988 12.1029 19.9988 12.1961 20.5754 12.1661C20.9087 12.1229 21.2604 12.3291 21.3137 12.6485C21.3571 12.9362 21.2704 13.214 21.2387 13.4918C20.8004 16.1364 20.3621 18.7777 19.9338 21.4223C19.9004 21.7217 19.6454 22.0177 19.3138 22.0078C18.7355 22.0078 18.1571 22.0177 17.5688 21.9978C17.2055 21.9562 16.9388 21.5553 17.0355 21.216C17.4955 18.47 17.9338 15.7339 18.3938 12.9878C18.4155 12.6884 18.5005 12.3391 18.8204 12.216ZM53.4415 12.3491C51.8482 12.0613 50.2216 11.8568 48.6066 12.0098C47.1617 12.1861 45.7067 12.8131 44.8184 13.9558C43.5884 15.4561 43.1717 17.472 43.45 19.3448C43.6 20.2397 44.0067 21.1445 44.7667 21.7C45.4717 22.224 46.4233 22.2955 47.28 22.1624C48.4783 21.9362 49.4949 21.1961 50.3299 20.3727C50.3716 20.722 50.2866 21.0713 50.3066 21.4123C50.3283 21.73 50.6283 22.0277 50.9599 22.0078H52.0516C52.3716 22.0078 52.6399 21.72 52.6616 21.4223C53.1216 18.6346 53.5815 15.8569 54.0315 13.0809C54.0949 12.7316 53.8065 12.3907 53.4415 12.3491ZM50.4366 17.1942C49.9899 17.9739 49.4146 18.6729 48.735 19.2617C48.35 19.571 47.8583 19.8887 47.3333 19.7873C46.82 19.6842 46.5733 19.1702 46.4567 18.7278C46.3278 18.1458 46.3191 17.5438 46.4312 16.9584C46.5432 16.373 46.7736 15.8166 47.1083 15.323C47.4083 14.859 47.89 14.5097 48.4466 14.3666C49.2266 14.1804 50.0499 14.2735 50.8099 14.4798L50.8533 14.5197C50.7566 15.4145 50.5749 16.2994 50.4366 17.1942ZM32.4419 15.654C32.4319 14.6245 32.1419 13.545 31.3936 12.7732C30.8803 12.2277 30.1103 11.9499 29.3603 11.9599C28.1203 11.92 26.9536 12.5054 26.0437 13.2872C25.842 13.4419 25.702 13.6681 25.477 13.7912C25.477 13.4518 25.5103 13.1125 25.4987 12.7632C25.5103 12.4439 25.1987 12.1661 24.8787 12.1661H23.787C23.6238 12.1702 23.4678 12.2345 23.3493 12.3466C23.2308 12.4587 23.1581 12.6107 23.1454 12.7732C22.4704 16.8882 21.7871 21.0015 21.1121 25.1148C21.0154 25.4973 21.3587 25.8882 21.7654 25.8765C22.3654 25.8666 22.9737 25.9181 23.562 25.8366C24.0337 25.7119 24.022 25.1879 24.097 24.8071C24.2613 23.9038 24.3936 22.9951 24.4937 22.0826C26.6003 22.4735 29.0503 22.2057 30.6236 20.6721C31.9069 19.3249 32.5069 17.462 32.4419 15.654ZM29.4469 16.6919C29.3819 17.6383 29.0303 18.5947 28.3453 19.2833C27.457 20.0966 26.1087 19.9835 25.017 19.7058C24.9918 19.667 24.9706 19.6257 24.9537 19.5827C25.1237 18.6878 25.2103 17.783 25.4237 16.8982C26.0237 15.9501 26.7503 14.9954 27.7886 14.4698C28.1736 14.2951 28.6986 14.3367 28.9769 14.676C29.4469 15.2415 29.4903 16.0033 29.4469 16.6919Z" fill="#107BD4" stroke="#107BD4" stroke-width="0.403179"/>
<defs>
<linearGradient id="paint0_linear_8183_3608" x1="92.034" y1="5.5" x2="92.034" y2="27.6116" gradientUnits="userSpaceOnUse">
<stop stop-color="#F7E830"/>
<stop offset="1" stop-color="#FDCB06"/>
</linearGradient>
<radialGradient id="paint1_radial_8183_3608" cx="0" cy="0" r="1" gradientUnits="userSpaceOnUse" gradientTransform="translate(91.9141 15.5784) scale(18.7075 17.9855)">
<stop offset="0.596" stop-color="#F29405"/>
<stop offset="0.736" stop-color="#F7D01E"/>
<stop offset="1" stop-color="#FDCB06"/>
</radialGradient>
<linearGradient id="paint2_linear_8183_3608" x1="98.4358" y1="6.29722" x2="98.4407" y2="7.34342" gradientUnits="userSpaceOnUse">
<stop stop-color="#FADA1C"/>
<stop offset="1" stop-color="#FDCB06"/>
</linearGradient>
<linearGradient id="paint3_linear_8183_3608" x1="85.6242" y1="6.24253" x2="85.6176" y2="7.28873" gradientUnits="userSpaceOnUse">
<stop stop-color="#FADA1C"/>
<stop offset="1" stop-color="#FDCB06"/>
</linearGradient>
</defs>
</svg>
