<svg width="117" height="37" viewBox="0 0 117 37" fill="none" xmlns="http://www.w3.org/2000/svg">
<path d="M116.92 36.5994H-0.000488281C-0.000488281 24.3996 -0.000488281 12.1998 -0.000488281 0C38.9728 0 77.9462 0 116.92 0C116.924 0.126867 116.932 0.254877 116.933 0.381744C116.933 12.3164 116.933 24.251 116.933 36.1845C116.933 36.3228 116.924 36.4611 116.92 36.5983V36.5994ZM60.7574 16.8482C60.6088 16.8482 60.4591 16.8482 60.3105 16.8482C58.8304 16.8482 57.3514 16.8482 55.8713 16.8482C55.5924 16.8482 55.5901 16.8516 55.589 17.1236C55.5867 17.5808 55.589 18.0391 55.5879 18.4963C55.5879 18.8472 55.5913 19.1992 55.5856 19.5501C55.5833 19.6895 55.6381 19.7433 55.773 19.7353C55.8679 19.7295 55.965 19.7353 56.0599 19.7353C58.1789 19.7353 60.2968 19.7353 62.4158 19.7353C62.7381 19.7353 62.737 19.7375 62.7176 20.0496C62.609 21.7891 61.8832 23.2212 60.5505 24.3379C58.6155 25.9597 56.3628 26.4124 53.9306 26.0077C51.4618 25.5986 49.736 24.1276 48.5805 21.9674C47.8101 20.5273 47.6067 18.9672 47.777 17.3511C48.001 15.2229 48.9531 13.4753 50.5863 12.1175C52.5385 10.4957 54.7958 10.1391 57.228 10.6603C58.2555 10.8809 59.1516 11.3906 59.9928 12.0044C60.6294 12.4695 61.2466 12.9576 61.8489 13.4651C61.9632 13.5611 62.0318 13.5656 62.1358 13.4513C62.7244 12.8079 63.321 12.1701 63.9119 11.5289C64.0628 11.3643 64.0628 11.3552 63.9039 11.1986C63.6776 10.9734 63.449 10.7506 63.2113 10.538C62.1484 9.58932 60.9951 8.78126 59.6567 8.25893C58.6361 7.86004 57.5766 7.64174 56.4874 7.56516C55.1638 7.47258 53.8506 7.52973 52.5602 7.87605C50.5177 8.42352 48.8182 9.52303 47.3815 11.0569C45.0636 13.5313 44.2453 16.4801 44.6407 19.7958C44.9367 22.2852 46.0717 24.363 47.8924 26.0649C50.5875 28.5828 53.7889 29.4252 57.3926 28.8548C59.4476 28.5291 61.2272 27.6147 62.7667 26.2295C64.0777 25.05 64.9932 23.6201 65.5109 21.9251C66.0024 20.3159 65.9475 18.6677 65.9418 17.0185C65.9418 16.8973 65.8961 16.8425 65.7738 16.847C65.6892 16.8505 65.6035 16.847 65.5178 16.847C63.9314 16.847 62.345 16.847 60.7585 16.847L60.7574 16.8482ZM34.0273 18.1454C34.0319 18.0368 34.0399 17.9454 34.0399 17.854C34.0399 17.0242 34.0319 16.1933 34.0445 15.3635C34.0479 15.1486 33.9736 15.0457 33.7862 14.9509C32.8238 14.4628 31.8066 14.1897 30.7333 14.0914C29.0281 13.9348 27.4462 14.256 26.0415 15.2686C24.55 16.343 23.5488 17.7534 23.1716 19.5718C22.8904 20.9308 22.9579 22.2863 23.3271 23.6167C23.8757 25.5929 25.0186 27.1301 26.829 28.1302C27.996 28.7748 29.2669 28.992 30.5882 28.9657C33.1918 28.9131 35.184 27.7816 36.5384 25.5609C37.3361 24.2545 37.6459 22.8041 37.6493 21.2897C37.6596 16.9042 37.6539 12.5187 37.6539 8.13435C37.6539 7.88176 37.6516 7.87833 37.383 7.87833C36.6481 7.87604 35.9132 7.87604 35.1794 7.87833C34.6868 7.87947 34.7382 7.81318 34.7382 8.31951C34.7371 12.4604 34.7405 16.6002 34.7348 20.7411C34.7337 21.6828 34.6148 22.6086 34.265 23.4933C33.7164 24.8819 32.3918 26.2775 30.2567 26.1998C28.5949 26.1392 27.3114 25.4443 26.485 23.979C26.101 23.299 25.941 22.5526 25.909 21.7766C25.8747 20.9376 25.9627 20.1159 26.3021 19.3398C27.1513 17.3945 29.0315 16.599 30.9596 16.8882C31.938 17.0345 32.8329 17.4402 33.673 17.9614C33.777 18.0266 33.8673 18.1214 34.0285 18.1477L34.0273 18.1454ZM75.0968 28.9611C75.1928 28.9611 75.2888 28.9657 75.3848 28.9611C78.2388 28.8217 80.3784 27.4936 81.7339 24.9997C82.6563 23.3024 82.75 21.4588 82.3145 19.5958C81.8585 17.6425 80.6652 16.2001 79.0011 15.1578C77.001 13.9039 74.8294 13.7165 72.6178 14.4628C70.5239 15.1692 69.0358 16.5922 68.182 18.6426C67.7705 19.6313 67.6402 20.6748 67.6654 21.7388C67.6962 23.0384 67.9671 24.2865 68.6757 25.3871C70.173 27.7142 72.3069 28.9383 75.0968 28.9634V28.9611ZM21.2937 24.0636C21.2937 22.8612 21.2937 21.6588 21.2937 20.4553C21.2937 19.9433 21.2697 19.4324 21.1669 18.9306C20.728 16.7876 19.5005 15.2835 17.4706 14.464C16.4545 14.0537 15.3881 13.9942 14.3001 14.0994C11.5947 14.3611 9.4071 16.463 9.06308 19.2929C8.99107 19.8873 9.00479 20.4827 9.00479 21.0771C9.0025 23.5036 9.00479 25.93 9.00479 28.3565C9.00479 28.672 9.00707 28.6742 9.31224 28.6754C9.81285 28.6765 10.3135 28.6754 10.8129 28.6754C11.0792 28.6754 11.3455 28.6754 11.6118 28.6742C11.8782 28.6731 11.8793 28.672 11.8873 28.4205C11.8896 28.3565 11.8907 28.2925 11.8907 28.2285C11.8907 26.9518 11.8907 25.674 11.8907 24.3973C11.8907 23.0132 11.8736 21.6303 11.8919 20.2473C11.9113 18.7958 12.5708 17.71 13.8897 17.0928C14.7481 16.6916 15.6316 16.7179 16.5037 17.1488C16.906 17.3476 17.21 17.63 17.5037 17.9557C17.9015 18.3957 18.1164 18.9192 18.2798 19.4678C18.3735 19.7833 18.3861 20.117 18.3849 20.4485C18.3838 23.0235 18.3838 25.5997 18.3827 28.1748C18.3827 28.2708 18.3918 28.3668 18.3827 28.4617C18.3667 28.6331 18.4455 28.6777 18.6055 28.6765C19.425 28.6708 20.2445 28.6754 21.0652 28.672C21.2846 28.672 21.2846 28.6662 21.2915 28.4342C21.2937 28.3702 21.2915 28.3062 21.2915 28.2422C21.2915 26.8478 21.2915 25.4534 21.2915 24.0602L21.2937 24.0636ZM4.21013 18.2643H4.20555C4.20555 21.4668 4.20555 24.6694 4.20555 27.8719C4.20555 28.0525 4.20784 28.2331 4.21127 28.4148C4.21698 28.6731 4.21927 28.6777 4.47758 28.6777C5.27535 28.68 6.07427 28.68 6.87205 28.6777C7.33723 28.6765 7.27551 28.7177 7.27551 28.2628C7.27665 21.5811 7.27551 14.9006 7.27551 8.21893C7.27551 8.16521 7.27208 8.11263 7.27551 8.05892C7.28694 7.91833 7.21836 7.87376 7.08578 7.8749C6.192 7.87833 5.29821 7.87947 4.40443 7.8749C4.2467 7.8749 4.19413 7.94005 4.2067 8.0852C4.21013 8.12749 4.20784 8.16978 4.20784 8.21321C4.20784 11.5643 4.20784 14.9155 4.20784 18.2666L4.21013 18.2643ZM42.5548 21.5297C42.5548 19.2426 42.5548 16.9556 42.5548 14.6686C42.5548 14.3474 42.5823 14.3577 42.2417 14.3577C41.5605 14.3577 40.8793 14.3554 40.1992 14.3611C40.0209 14.3623 39.7958 14.2811 39.678 14.4068C39.5637 14.528 39.6346 14.7509 39.6335 14.9292C39.6312 19.2907 39.6323 23.651 39.6323 28.0125C39.6323 28.1508 39.6335 28.2891 39.638 28.4274C39.6449 28.6685 39.646 28.6742 39.8883 28.6754C40.6655 28.6788 41.4416 28.6765 42.2188 28.6777C42.596 28.6777 42.5548 28.696 42.5548 28.3268C42.5548 26.0615 42.5548 23.795 42.5548 21.5297ZM41.0793 9.63961C40.0701 9.63961 39.3809 10.3322 39.3797 11.346C39.3797 12.3621 40.0941 13.0719 41.1102 13.065C42.1399 13.057 42.8246 12.3644 42.8189 11.3346C42.8143 10.3791 42.0554 9.63961 41.0793 9.63961V9.63961ZM94.4217 22.7629C94.4217 22.2897 94.0491 21.9126 93.5771 21.9126C93.1062 21.9126 92.7268 22.2875 92.7245 22.7572C92.721 23.2224 93.1074 23.611 93.5714 23.6098C94.0434 23.6087 94.4206 23.2338 94.4206 22.7641L94.4217 22.7629ZM99.4599 12.2044C99.4507 11.7358 99.0655 11.3643 98.5946 11.3712C98.1249 11.3769 97.758 11.7563 97.7614 12.233C97.7649 12.697 98.1569 13.0787 98.6221 13.0696C99.0884 13.0605 99.469 12.6684 99.4599 12.2055V12.2044ZM101.356 13.0673C101.823 13.0639 102.206 12.6764 102.202 12.2124C102.198 11.7495 101.812 11.3723 101.342 11.3723C100.876 11.3723 100.499 11.7552 100.501 12.225C100.503 12.6924 100.887 13.0719 101.355 13.0673H101.356ZM96.335 21.9126C95.863 21.9069 95.4721 22.2783 95.463 22.7412C95.4538 23.2007 95.8401 23.6018 96.2996 23.6087C96.7694 23.6167 97.158 23.2418 97.1637 22.7766C97.1694 22.3 96.8025 21.9171 96.335 21.9114V21.9126ZM109.661 11.3689C109.195 11.3655 108.809 11.7461 108.806 12.2112C108.802 12.6776 109.182 13.0639 109.649 13.0662C110.117 13.0685 110.505 12.6879 110.509 12.2238C110.512 11.7598 110.127 11.3723 109.662 11.3689H109.661ZM99.1215 26.3975C99.6084 26.3975 99.9628 26.0409 99.9662 25.5471C99.9685 25.074 99.5913 24.7082 99.1033 24.7128C98.6472 24.7162 98.2746 25.0922 98.2712 25.5494C98.2678 26.0215 98.6438 26.3964 99.1215 26.3975V26.3975ZM103.244 12.1758C103.224 12.6456 103.582 13.0422 104.049 13.0662C104.511 13.0902 104.911 12.7267 104.94 12.257C104.97 11.7986 104.595 11.3872 104.132 11.3689C103.661 11.3506 103.264 11.7106 103.244 12.1747V12.1758ZM109.661 19.6358C109.197 19.6267 108.8 20.0141 108.797 20.4805C108.793 20.9388 109.155 21.3171 109.614 21.3342C110.085 21.3514 110.478 20.9822 110.493 20.5102C110.508 20.0439 110.128 19.645 109.661 19.6358V19.6358ZM109.634 22.3789C109.166 22.3858 108.787 22.7789 108.798 23.2487C108.807 23.7059 109.186 24.0785 109.64 24.0785C110.128 24.0785 110.505 23.6864 110.49 23.195C110.477 22.7389 110.093 22.3732 109.634 22.3789V22.3789ZM107.719 14.9966C107.721 14.5234 107.343 14.1474 106.866 14.1485C106.399 14.1497 106.026 14.536 106.031 15.0149C106.035 15.4709 106.41 15.8447 106.867 15.8492C107.335 15.8527 107.716 15.4721 107.719 14.9977V14.9966ZM109.653 16.9053C109.166 16.9065 108.793 17.2722 108.799 17.7442C108.803 18.2231 109.179 18.5923 109.656 18.5866C110.133 18.5809 110.503 18.2014 110.494 17.7248C110.486 17.2619 110.118 16.903 109.654 16.9042L109.653 16.9053ZM111.612 9.42588C111.153 9.41674 110.751 9.80077 110.74 10.2591C110.728 10.7163 111.116 11.114 111.577 11.1209C112.054 11.1277 112.433 10.7631 112.44 10.2922C112.447 9.81905 112.079 9.43617 111.611 9.42588H111.612ZM109.631 14.1508C109.165 14.1577 108.785 14.5554 108.797 15.024C108.807 15.4766 109.191 15.8492 109.646 15.8492C110.12 15.8492 110.492 15.4732 110.49 14.992C110.49 14.52 110.105 14.144 109.631 14.1508V14.1508ZM98.2735 28.3051C98.222 28.7634 98.7147 29.1726 99.1375 29.1497C99.5993 29.1246 99.9639 28.7737 99.9685 28.3085C99.9742 27.737 99.5056 27.4684 99.1238 27.4479C98.6872 27.4239 98.2255 27.8399 98.2735 28.3051V28.3051ZM103.849 18.8838C103.816 18.3706 103.514 18.0768 102.972 18.0311C102.57 17.998 102.1 18.478 102.105 18.8746C102.108 19.2895 102.556 19.7215 102.989 19.7261C103.537 19.7318 103.83 19.2815 103.85 18.8826L103.849 18.8838ZM104.093 16.935C104.06 17.3899 104.487 17.7911 104.933 17.7808C105.412 17.7705 105.795 17.4048 105.794 16.9396C105.793 16.4721 105.408 16.103 104.938 16.0927C104.535 16.0835 104.071 16.4321 104.093 16.935ZM101.061 19.9673C100.662 19.9707 100.208 20.2862 100.215 20.8142C100.221 21.2885 100.589 21.6646 101.061 21.6611C101.539 21.6577 101.906 21.292 101.909 20.8153C101.913 20.3513 101.524 19.9627 101.061 19.9673ZM105.992 12.1884C105.98 12.6661 106.337 13.049 106.808 13.0662C107.27 13.0833 107.669 12.7073 107.682 12.2432C107.696 11.7735 107.328 11.3803 106.863 11.3677C106.392 11.3552 106.001 11.7232 105.991 12.1884H105.992ZM99.9685 22.7526C99.9639 22.2749 99.5856 21.9046 99.109 21.9114C98.6392 21.9183 98.2666 22.3046 98.2746 22.7789C98.2815 23.2327 98.6632 23.6053 99.1193 23.6064C99.5913 23.6076 99.973 23.2235 99.9685 22.7526ZM114.462 8.24293C114.46 7.76404 114.09 7.40058 113.604 7.40401C113.151 7.40744 112.769 7.79032 112.772 8.24179C112.774 8.72297 113.143 9.099 113.616 9.10243C114.079 9.107 114.463 8.71611 114.461 8.24293H114.462ZM82.1225 13.7131C82.2962 13.7984 82.3827 13.9451 82.3819 14.1531C82.3819 14.1748 82.3762 14.1977 82.3819 14.2171C82.4174 14.3371 82.2917 14.5486 82.4654 14.5611C82.574 14.5691 82.5145 14.3428 82.5202 14.224C82.5374 13.8457 82.5294 13.8445 82.8666 13.7371C82.8803 13.7325 82.9008 13.7554 82.9191 13.7656C82.9671 14.0331 82.8803 14.3143 82.99 14.6366C83.0974 14.4308 83.0071 14.2548 83.1054 14.0411C83.1752 14.2343 83.2209 14.3703 83.2746 14.5028C83.2894 14.5383 83.3249 14.5817 83.358 14.5897C83.4175 14.6046 83.446 14.5509 83.4723 14.5017C83.5318 14.3897 83.5192 14.24 83.6346 14.1485C83.7535 14.2823 83.6072 14.4777 83.8152 14.624C83.8152 14.3063 83.8209 14.0354 83.8118 13.7656C83.8083 13.6811 83.7032 13.6582 83.6438 13.7199C83.582 13.7839 83.5718 13.8731 83.5386 13.9508C83.4872 14.072 83.4815 14.216 83.3637 14.3337C83.2815 14.2217 83.2689 14.1051 83.2254 14.0022C83.1854 13.9051 83.1797 13.7885 83.0952 13.7154C83.0003 13.6331 82.9477 13.7382 82.8814 13.7759C82.8768 13.7782 82.8631 13.7725 82.8563 13.7668C82.6254 13.5931 82.3705 13.7199 82.1236 13.7131H82.1225Z" fill="#283BA1"/>
<path d="M116.919 36.6015C116.924 36.4632 116.932 36.3249 116.933 36.1877C116.933 24.2531 116.933 12.3184 116.933 0.384911C116.933 0.258044 116.924 0.130034 116.919 0.00316729C116.939 0.0168826 116.986 -0.0288352 116.983 0.0351698C116.981 0.119748 116.983 0.205469 116.983 0.29119C116.983 12.299 116.983 24.3079 116.98 36.3157C116.98 36.4094 117.053 36.5317 116.921 36.6026L116.919 36.6015Z" fill="#F5F7F8"/>
<path d="M60.7572 16.8526C62.3436 16.8526 63.93 16.8526 65.5164 16.8526C65.6022 16.8526 65.6867 16.8561 65.7725 16.8526C65.8947 16.8481 65.9393 16.9041 65.9405 17.0241C65.9473 18.6722 66.001 20.3203 65.5096 21.9307C64.9918 23.6257 64.0763 25.0556 62.7654 26.2351C61.2258 27.6203 59.4462 28.5358 57.3912 28.8604C53.7887 29.4308 50.5861 28.5884 47.8911 26.0705C46.0703 24.3686 44.9354 22.2896 44.6394 19.8014C44.2439 16.4857 45.0623 13.5369 47.3802 11.0625C48.8168 9.52863 50.5164 8.42797 52.5588 7.88164C53.8504 7.53533 55.1636 7.47818 56.486 7.57076C57.5741 7.64734 58.6348 7.86564 59.6554 8.26453C60.9927 8.78685 62.147 9.59606 63.21 10.5436C63.4477 10.7561 63.6763 10.9802 63.9026 11.2042C64.0603 11.3608 64.0615 11.3711 63.9106 11.5345C63.3197 12.1768 62.7231 12.8135 62.1345 13.4569C62.0304 13.5701 61.9619 13.5667 61.8476 13.4706C61.2452 12.9632 60.6281 12.4751 59.9914 12.01C59.1502 11.3951 58.2553 10.8864 57.2266 10.6659C54.7945 10.1447 52.5371 10.5013 50.585 12.1231C48.9517 13.4798 47.9996 15.2285 47.7756 17.3567C47.6065 18.9728 47.8088 20.5329 48.5791 21.973C49.7358 24.1332 51.4616 25.6042 53.9292 26.0133C56.3614 26.4168 58.6142 25.9642 60.5492 24.3435C61.8819 23.2268 62.6076 21.7936 62.7162 20.0552C62.7356 19.7443 62.7368 19.742 62.4145 19.7409C60.2955 19.7409 58.1776 19.7409 56.0586 19.7409C55.9625 19.7409 55.8665 19.7351 55.7717 19.7409C55.6357 19.7489 55.5808 19.6951 55.5842 19.5557C55.5911 19.2048 55.5865 18.8528 55.5865 18.5019C55.5865 18.0447 55.5865 17.5864 55.5877 17.1292C55.5888 16.8572 55.5911 16.8538 55.87 16.8538C57.3501 16.8526 58.8291 16.8538 60.3092 16.8538C60.4578 16.8538 60.6075 16.8538 60.7561 16.8538L60.7572 16.8526Z" fill="#FCFDFD"/>
<path d="M34.0287 18.1467C33.8675 18.1204 33.7772 18.0255 33.6732 17.9604C32.8331 17.4392 31.9382 17.0334 30.9599 16.8871C29.0317 16.598 27.1516 17.3935 26.3024 19.3388C25.964 20.1148 25.8749 20.9366 25.9092 21.7755C25.9412 22.5516 26.1012 23.2968 26.4852 23.978C27.3127 25.4432 28.5962 26.137 30.2569 26.1987C32.392 26.2764 33.7155 24.8809 34.2653 23.4922C34.615 22.6076 34.7339 21.6818 34.735 20.74C34.7407 16.5991 34.7373 12.4594 34.7384 8.31846C34.7384 7.81214 34.687 7.87843 35.1796 7.87729C35.9145 7.875 36.6483 7.87614 37.3832 7.87729C37.653 7.87729 37.6541 7.88072 37.6541 8.13331C37.6541 12.5188 37.6598 16.9043 37.6495 21.2886C37.6461 22.803 37.3352 24.2534 36.5386 25.5598C35.1842 27.7794 33.192 28.9121 30.5884 28.9647C29.2672 28.9909 27.9962 28.7749 26.8293 28.1292C25.0188 27.1279 23.8759 25.5918 23.3273 23.6157C22.9581 22.2853 22.8907 20.9297 23.1718 19.5708C23.5479 17.7523 24.5502 16.3419 26.0418 15.2676C27.4464 14.2549 29.0283 13.9349 30.7336 14.0903C31.8068 14.1886 32.824 14.4629 33.7864 14.9498C33.9738 15.0447 34.0481 15.1476 34.0447 15.3624C34.031 16.1922 34.0401 17.0231 34.0401 17.8529C34.0401 17.9444 34.0321 18.0369 34.0275 18.1444L34.0287 18.1467Z" fill="#FCFDFD"/>
<path d="M75.098 28.9633C72.3081 28.9393 70.1742 27.714 68.6769 25.387C67.9683 24.2863 67.6974 23.0382 67.6666 21.7387C67.6414 20.6758 67.7717 19.6311 68.1832 18.6425C69.037 16.592 70.5251 15.1691 72.619 14.4627C74.8306 13.7164 77.0021 13.9038 79.0023 15.1576C80.6653 16.2 81.8585 17.6424 82.3157 19.5957C82.7512 21.4587 82.6575 23.3034 81.7351 24.9995C80.3796 27.4934 78.2388 28.8215 75.386 28.961C75.29 28.9656 75.194 28.961 75.098 28.961V28.9633ZM75.1106 16.8183C74.9723 16.8286 74.8351 16.84 74.6968 16.848C72.9035 16.9475 71.4314 18.1019 70.908 19.8197C70.6462 20.6803 70.6028 21.5581 70.7388 22.4405C70.9434 23.7709 71.5892 24.8338 72.7355 25.5653C73.5767 26.1025 74.5105 26.2579 75.4889 26.1836C76.9644 26.0728 78.0914 25.3744 78.8526 24.1115C79.4903 23.0531 79.6001 21.8896 79.4538 20.6883C79.3463 19.8117 79.0263 19.0219 78.4548 18.3442C77.5816 17.3109 76.4547 16.8275 75.1117 16.8183H75.1106Z" fill="#FCFDFD"/>
<path d="M21.2936 24.0688C21.2936 25.4632 21.2936 26.8576 21.2936 28.2509C21.2936 28.3149 21.2947 28.3789 21.2936 28.4429C21.2867 28.6749 21.2867 28.6806 21.0673 28.6806C20.2478 28.6829 19.4283 28.6795 18.6077 28.6852C18.4476 28.6852 18.3688 28.6406 18.3848 28.4703C18.3939 28.3754 18.3848 28.2794 18.3848 28.1834C18.3848 25.6084 18.3848 23.0322 18.3871 20.4571C18.3871 20.1256 18.3756 19.7908 18.2819 19.4765C18.1185 18.9278 17.9036 18.4032 17.5059 17.9643C17.211 17.6386 16.9081 17.3563 16.5058 17.1574C15.6337 16.7265 14.7502 16.7002 13.8919 17.1014C12.5729 17.7186 11.9134 18.8044 11.894 20.2559C11.8757 21.6389 11.8917 23.023 11.8928 24.406C11.8928 25.6827 11.8928 26.9605 11.8928 28.2371C11.8928 28.3011 11.8917 28.3652 11.8894 28.4292C11.8803 28.6795 11.8803 28.6806 11.614 28.6829C11.3477 28.684 11.0814 28.6829 10.815 28.684C10.3144 28.684 9.81382 28.684 9.31436 28.684C9.00919 28.684 9.0069 28.6817 9.0069 28.3652C9.0069 25.9387 9.00462 23.5122 9.0069 21.0857C9.0069 20.4902 8.99319 19.8959 9.06519 19.3016C9.40922 16.4716 11.5968 14.3698 14.3022 14.108C15.3903 14.0029 16.4578 14.0623 17.4727 14.4726C19.5014 15.2921 20.7301 16.7962 21.169 18.9393C21.2719 19.441 21.2959 19.9519 21.2959 20.464C21.2959 21.6663 21.2959 22.8687 21.2959 24.0722L21.2936 24.0688Z" fill="#FCFDFD"/>
<path d="M4.20977 18.2667C4.20977 14.9156 4.20977 11.5644 4.20977 8.21333C4.20977 8.17104 4.21206 8.12761 4.20863 8.08532C4.19491 7.94016 4.24749 7.87387 4.40636 7.87501C5.30014 7.87959 6.19393 7.87844 7.08771 7.87501C7.22029 7.87501 7.28887 7.91959 7.27744 8.05903C7.27287 8.1116 7.27744 8.16532 7.27744 8.21904C7.27744 14.9007 7.27744 21.5812 7.27744 28.2629C7.27744 28.7178 7.33916 28.6766 6.87398 28.6778C6.0762 28.6801 5.27728 28.6801 4.47951 28.6778C4.2212 28.6778 4.21892 28.6732 4.2132 28.4149C4.20863 28.2343 4.20749 28.0537 4.20749 27.872C4.20749 24.6695 4.20749 21.4669 4.20749 18.2644H4.21206L4.20977 18.2667Z" fill="#FCFDFD"/>
<path d="M42.5547 21.5288C42.5547 23.7942 42.5547 26.0606 42.5547 28.326C42.5547 28.6951 42.5959 28.6768 42.2187 28.6768C41.4415 28.6768 40.6654 28.678 39.8882 28.6746C39.6459 28.6746 39.6448 28.6666 39.6379 28.4265C39.6345 28.2882 39.6322 28.1499 39.6322 28.0116C39.6322 23.6502 39.6322 19.2898 39.6334 14.9283C39.6334 14.75 39.5636 14.5272 39.6779 14.406C39.7957 14.2803 40.022 14.3626 40.1991 14.3603C40.8803 14.3546 41.5615 14.358 42.2416 14.3569C42.5822 14.3569 42.5547 14.3466 42.5547 14.6677C42.5547 16.9548 42.5547 19.2418 42.5547 21.5288Z" fill="#FCFDFD"/>
<path d="M41.0794 9.64062C42.0555 9.64062 42.8144 10.3801 42.819 11.3356C42.8236 12.3666 42.1401 13.058 41.1103 13.066C40.0954 13.074 39.3799 12.3631 39.3799 11.347C39.3799 10.3333 40.0691 9.64062 41.0794 9.64062V9.64062Z" fill="#FCFDFD"/>
<path d="M94.4217 22.7656C94.4217 23.2353 94.0446 23.6102 93.5725 23.6113C93.1074 23.6125 92.7222 23.225 92.7256 22.7587C92.729 22.289 93.1085 21.9129 93.5782 21.9141C94.0491 21.9141 94.4229 22.2912 94.4229 22.7644L94.4217 22.7656Z" fill="#F5F7F8"/>
<path d="M99.4597 12.2016C99.4688 12.6645 99.0882 13.0565 98.6219 13.0657C98.1567 13.0748 97.7647 12.6942 97.7613 12.229C97.7578 11.7536 98.1247 11.3741 98.5945 11.3673C99.0654 11.3615 99.4505 11.7319 99.4597 12.2005V12.2016Z" fill="#F5F7F8"/>
<path d="M101.356 13.07C100.889 13.0734 100.505 12.694 100.502 12.2276C100.5 11.7567 100.877 11.3739 101.344 11.375C101.812 11.375 102.2 11.7533 102.203 12.2151C102.207 12.6802 101.824 13.0666 101.357 13.07H101.356Z" fill="#F5F7F8"/>
<path d="M96.3351 21.9141C96.8025 21.9198 97.1694 22.3015 97.1637 22.7793C97.158 23.2445 96.7694 23.6193 96.2997 23.6113C95.8402 23.6033 95.455 23.2033 95.463 22.7438C95.4722 22.2809 95.863 21.9095 96.3351 21.9152V21.9141Z" fill="#F5F7F8"/>
<path d="M109.661 11.3672C110.126 11.3706 110.511 11.7592 110.508 12.2221C110.504 12.685 110.116 13.0668 109.648 13.0645C109.182 13.0622 108.801 12.677 108.805 12.2096C108.808 11.7444 109.196 11.3638 109.66 11.3672H109.661Z" fill="#F5F7F8"/>
<path d="M99.1219 26.4035C98.6441 26.4035 98.267 26.0286 98.2715 25.5554C98.275 25.0983 98.6487 24.7222 99.1036 24.7188C99.5916 24.7142 99.9688 25.08 99.9665 25.5531C99.9642 26.0458 99.6088 26.4035 99.1219 26.4035V26.4035Z" fill="#F5F7F8"/>
<path d="M103.244 12.1737C103.264 11.7097 103.662 11.3485 104.133 11.3679C104.595 11.3862 104.97 11.7977 104.941 12.256C104.911 12.7258 104.511 13.0892 104.049 13.0652C103.583 13.0412 103.224 12.6446 103.244 12.1749V12.1737Z" fill="#F5F7F8"/>
<path d="M109.66 19.6408C110.128 19.6499 110.507 20.0477 110.493 20.5151C110.478 20.9872 110.085 21.3552 109.614 21.3392C109.155 21.3232 108.793 20.9437 108.796 20.4854C108.8 20.0191 109.196 19.6316 109.66 19.6408V19.6408Z" fill="#F5F7F8"/>
<path d="M109.634 22.3829C110.091 22.376 110.475 22.7429 110.49 23.199C110.505 23.6916 110.129 24.0825 109.64 24.0825C109.186 24.0825 108.807 23.7087 108.798 23.2527C108.787 22.7829 109.166 22.3898 109.634 22.3829V22.3829Z" fill="#F5F7F8"/>
<path d="M107.719 14.9976C107.717 15.472 107.336 15.8537 106.867 15.8491C106.411 15.8457 106.035 15.4708 106.031 15.0148C106.026 14.537 106.399 14.1507 106.866 14.1484C107.343 14.1473 107.721 14.5233 107.719 14.9965V14.9976Z" fill="#F5F7F8"/>
<path d="M109.651 16.9141C110.115 16.9129 110.483 17.2718 110.491 17.7347C110.499 18.2102 110.13 18.5908 109.654 18.5965C109.177 18.6022 108.802 18.2319 108.796 17.7541C108.792 17.2821 109.163 16.9164 109.65 16.9152L109.651 16.9141Z" fill="#F5F7F8"/>
<path d="M111.61 9.42985C112.079 9.43899 112.447 9.82302 112.44 10.2962C112.433 10.7671 112.054 11.1317 111.577 11.1248C111.114 11.118 110.728 10.7202 110.74 10.2631C110.751 9.80473 111.153 9.4207 111.612 9.42985H111.61Z" fill="#F5F7F8"/>
<path d="M109.629 14.1485C110.103 14.1417 110.487 14.5177 110.488 14.9897C110.488 15.4721 110.118 15.8481 109.643 15.8469C109.187 15.8469 108.804 15.4743 108.794 15.0217C108.783 14.5531 109.162 14.1554 109.629 14.1485V14.1485Z" fill="#F5F7F8"/>
<path d="M98.2713 28.3112C98.2233 27.8472 98.685 27.4312 99.1216 27.454C99.5034 27.4746 99.972 27.7432 99.9663 28.3147C99.9617 28.7798 99.5971 29.1319 99.1354 29.1559C98.7125 29.1787 98.2199 28.7696 98.2713 28.3112V28.3112Z" fill="#F5F7F8"/>
<path d="M103.846 18.8844C103.827 19.2821 103.533 19.7336 102.986 19.7279C102.553 19.7233 102.105 19.2913 102.101 18.8764C102.098 18.4798 102.566 17.9997 102.969 18.0329C103.51 18.0775 103.813 18.3723 103.845 18.8855L103.846 18.8844Z" fill="#F5F7F8"/>
<path d="M104.091 16.9363C104.068 16.4334 104.532 16.0837 104.936 16.094C105.406 16.1054 105.791 16.4746 105.792 16.9409C105.793 17.4061 105.41 17.7718 104.931 17.7821C104.484 17.7912 104.058 17.3912 104.091 16.9363Z" fill="#F5F7F8"/>
<path d="M101.059 19.9766C101.522 19.972 101.91 20.3606 101.907 20.8247C101.903 21.3013 101.537 21.667 101.059 21.6704C100.587 21.6739 100.219 21.2978 100.213 20.8235C100.206 20.2955 100.66 19.98 101.059 19.9766Z" fill="#F5F7F8"/>
<path d="M105.988 12.1881C105.999 11.723 106.389 11.3549 106.86 11.3675C107.326 11.3801 107.694 11.7732 107.68 12.243C107.666 12.707 107.267 13.0831 106.805 13.0659C106.335 13.0488 105.978 12.6647 105.989 12.1881H105.988Z" fill="#F5F7F8"/>
<path d="M99.9659 22.7554C99.9705 23.2263 99.5888 23.6103 99.1167 23.6091C98.6596 23.608 98.279 23.2343 98.2721 22.7817C98.2641 22.3073 98.6367 21.9199 99.1064 21.9142C99.5831 21.9073 99.9614 22.2776 99.9659 22.7554Z" fill="#F5F7F8"/>
<path d="M114.46 8.2452C114.462 8.71838 114.078 9.10812 113.615 9.10469C113.142 9.10012 112.773 8.72409 112.771 8.24405C112.768 7.79373 113.149 7.4097 113.603 7.40627C114.087 7.40285 114.459 7.7663 114.461 8.2452H114.46Z" fill="#F5F7F8"/>
<path d="M82.1203 13.7183C82.3672 13.7241 82.622 13.5983 82.8529 13.7721C82.8598 13.7778 82.8723 13.7835 82.8781 13.7812C82.9455 13.7435 82.9969 13.6383 83.0918 13.7206C83.1775 13.7938 83.1821 13.9104 83.2221 14.0075C83.2655 14.1104 83.2781 14.227 83.3604 14.339C83.4781 14.2212 83.4838 14.0772 83.5353 13.9561C83.5684 13.8784 83.5775 13.7892 83.6404 13.7252C83.701 13.6635 83.8061 13.6863 83.8084 13.7709C83.8187 14.0407 83.8118 14.3115 83.8118 14.6293C83.6038 14.483 83.7501 14.2864 83.6313 14.1538C83.5158 14.2452 83.5284 14.395 83.469 14.507C83.4427 14.5561 83.4152 14.6098 83.3547 14.595C83.3215 14.587 83.2861 14.5435 83.2712 14.5081C83.2175 14.3755 83.1718 14.2395 83.1021 14.0464C83.0038 14.2601 83.0941 14.4373 82.9866 14.6418C82.8769 14.3207 82.9638 14.0384 82.9158 13.7709C82.8986 13.7606 82.8769 13.7389 82.8632 13.7423C82.5272 13.8498 82.534 13.8509 82.5169 14.2292C82.5112 14.347 82.5706 14.5744 82.462 14.5664C82.2894 14.5538 82.4152 14.3424 82.3786 14.2224C82.3729 14.203 82.3786 14.1801 82.3786 14.1584C82.3786 13.9496 82.2921 13.8029 82.1191 13.7183H82.1203Z" fill="#F5F7F8"/>
<path d="M75.1094 16.8125C76.4523 16.8216 77.5804 17.3051 78.4525 18.3383C79.0251 19.0161 79.3451 19.8059 79.4514 20.6825C79.5977 21.8838 79.4891 23.0473 78.8502 24.1056C78.089 25.3686 76.9621 26.0669 75.4865 26.1778C74.5082 26.251 73.5732 26.0967 72.7332 25.5595C71.5868 24.8268 70.941 23.765 70.7365 22.4347C70.6004 21.5523 70.6439 20.6745 70.9056 19.8139C71.4291 18.096 72.9012 16.9417 74.6945 16.8422C74.8328 16.8342 74.9699 16.8228 75.1082 16.8125H75.1094Z" fill="#283BA1"/>
</svg>
