<svg width="52" height="52" viewBox="0 0 52 52" fill="none" xmlns="http://www.w3.org/2000/svg">
<path d="M26.1987 0.851562C25.5886 0.851562 24.3981 0.915349 24.3496 0.918296C24.5803 0.979829 6.54375 10.2332 6.54375 10.1362C6.5382 10.1675 6.52971 10.1935 6.51324 10.214C2.93772 14.5879 0.81543 20.1443 0.81543 26.2345C0.81543 31.2539 2.27784 35.929 4.79239 39.8682C4.80938 39.859 11.195 46.0441 11.1168 46.6495C15.3345 49.7695 20.5494 51.6162 26.1978 51.6162C28.1707 51.6162 30.0873 51.3833 31.9317 50.9584C31.8981 50.7584 31.8676 50.5582 31.8402 50.3609L31.5069 48.0209C31.4065 47.3808 30.8822 43.0301 30.8822 43.0301L30.8804 43.0173L31.4384 42.8031C31.4384 42.8031 32.172 42.8334 32.1538 42.8357C32.1538 42.8357 32.8975 47.2113 33.0268 47.9703L33.1667 48.7737C33.2208 49.0973 33.2664 49.4182 33.3331 49.7506C33.3799 50.0271 33.4215 50.2921 33.4624 50.5561C34.0641 50.3753 34.6569 50.1746 35.2384 49.9524C35.15 49.4551 35.0538 48.9425 35.0456 48.8668L34.746 47.0867C34.3501 45.2502 34.0977 43.888 33.9127 42.9818C33.8864 42.8516 33.8372 42.6202 33.8372 42.6202L34.41 42.3911L35.1658 42.45C35.1658 42.45 36.1298 46.6689 36.3706 47.9445L36.6455 49.3646C37.1626 49.1308 37.6746 48.8836 38.1717 48.6162L38.0128 47.8875C37.9958 47.8169 37.9774 47.7322 37.9557 47.6379C37.632 46.2127 36.7724 42.2429 36.7724 42.2429L37.4617 41.9721L38.1351 42.0669H38.1384C38.1384 42.0669 39.0035 45.7267 39.565 47.8096C40.529 47.2113 41.4527 46.5542 42.3236 45.8359C42.3236 45.8359 50.3616 33.8038 50.4191 33.8435C51.1726 31.4416 51.5806 28.8855 51.5806 26.2343C51.5804 12.2162 40.2164 0.851562 26.1987 0.851562Z" fill="#A3080C"/>
<path d="M32.5579 13.4949C32.5579 13.4949 29.3877 7.51668 28.0944 6.61933C26.8027 5.72199 24.6737 5.16177 23.1978 5.34828C21.329 5.58419 17.055 7.84601 16.7709 7.92072C16.773 7.94256 15.1785 9.90937 14.7621 11.9349C14.6696 12.3851 13.0288 19.5616 13.0288 19.5616L16.1488 28.5749L27.2674 33.8796L31.3444 29.4416C31.3444 29.4416 31.8646 25.0506 32.9623 21.7572C34.06 18.4639 33.7134 16.6728 33.7134 16.6728L32.5579 13.4949Z" fill="#FFF1E2"/>
<path d="M19.8558 36.4688C19.822 36.4816 19.7912 36.4953 19.7622 36.5083C19.7912 36.4953 19.822 36.4816 19.8558 36.4688Z" fill="white"/>
<path d="M18.9403 19.2977C18.7638 19.3982 18.6333 19.4218 18.5518 19.4651C18.4702 19.5096 18.3414 19.6053 18.3733 19.7764C18.4069 19.9484 18.4541 20.0042 18.4705 20.1368C18.4861 20.268 18.423 20.5058 18.2705 20.7759C18.1204 21.0466 17.8801 21.2421 17.7437 21.3213C17.6096 21.4016 17.5272 21.4232 17.451 21.4635C17.4336 21.4714 17.418 21.5129 17.4024 21.5961C17.4017 21.5968 17.4017 21.5968 17.4009 21.5976C17.4106 21.59 17.4213 21.5829 17.4362 21.5772C17.4655 21.5647 17.5259 21.5631 17.5801 21.5531C17.6326 21.5434 17.6713 21.5311 17.6905 21.5285C17.711 21.526 17.8327 21.5089 17.8531 21.5044C17.8736 21.5004 18.2422 21.4233 18.4707 21.318C18.6979 21.2123 19.0969 21.0199 19.3256 20.7436C19.4935 20.5413 19.6958 20.173 19.7156 19.8074C19.7203 19.7319 19.7194 19.6849 19.7194 19.6849C19.7194 19.6849 19.7203 19.6849 19.7203 19.684C19.7229 19.684 19.7251 19.6833 19.7275 19.6833C19.6897 19.6818 19.6568 19.6693 19.6299 19.6473C19.5688 19.5994 19.5194 19.5641 19.3318 19.3637C19.2112 19.2344 19.2195 19.1396 19.2847 19.0312C19.2831 19.0337 19.2803 19.0361 19.2786 19.0385C19.223 19.0905 19.1145 19.1973 18.9403 19.2977Z" fill="white"/>
<path d="M28.2617 18.1068C28.2617 18.1068 28.1588 18.1157 28.1234 18.1313C28.0954 18.1429 28.0423 18.1626 28.0061 18.2112C27.97 18.2606 27.9617 18.3469 28.0375 18.4396C28.1146 18.532 28.2207 18.7046 28.2118 18.8525C28.2063 18.9175 28.2158 19.13 28.1468 19.2831C28.0697 19.4566 27.9806 19.6276 27.9194 19.7048C27.8841 19.7502 27.7208 19.9308 27.6969 20.0587C27.6904 20.0856 27.6969 20.1154 27.7095 20.1435C27.7095 20.1435 27.7114 20.1419 27.7114 20.1442C27.7105 20.145 27.7114 20.1466 27.7105 20.1482C27.7138 20.1381 27.7178 20.1284 27.7258 20.1192C27.7665 20.0735 27.8496 20.0272 27.9941 19.9826C28.1858 19.922 28.3219 19.8497 28.428 19.7689C28.4151 19.7838 28.4119 19.8011 28.4037 19.8183C28.4148 19.7918 28.4271 19.7656 28.4509 19.7448C28.5079 19.6958 29.2601 19.1908 29.2794 18.3757C29.2867 18.0695 28.8896 18.0292 28.7242 18.0236C28.6013 18.0184 28.3697 18.1311 28.2718 18.1073C28.2702 18.1066 28.2673 18.104 28.2638 18.1033C28.2654 18.1033 28.2654 18.104 28.2654 18.104C28.2656 18.1059 28.2624 18.1059 28.2617 18.1068Z" fill="white"/>
<path d="M20.251 23.7345C20.251 23.7345 23.241 24.6591 24.671 22.9978C26.101 21.3368 28.571 23.8791 28.7298 24.6301C28.8889 25.3812 25.0177 27.4612 23.8477 27.5045C22.6777 27.5478 18.041 26.9268 18.041 26.4501C18.041 25.9734 20.251 23.7345 20.251 23.7345Z" fill="white"/>
<path d="M32.522 11.8512C32.0465 6.80858 29.7263 4.28121 28.0586 3.05453C26.3061 1.89978 22.1369 0.882662 20.172 0.974529C17.8536 1.08286 12.4997 3.61162 12.2926 3.79848C12.0952 3.97857 8.50457 9.98249 8.94865 11.0551C9.39273 12.1277 10.0219 17.1933 10.227 17.6001C10.2894 17.722 11.3136 21.0223 11.9893 20.9008C12.6703 20.7782 13.3052 17.7683 13.2749 17.5351C13.1882 16.8708 11.9823 13.8768 12.0759 13.4545C12.1707 13.0335 15.3914 7.99106 15.622 7.81392C15.7846 7.69016 21.3092 7.00306 21.3413 7.05645C21.3406 7.05489 21.3406 7.05316 21.3383 7.0516L21.3376 7.05073C21.7238 6.71412 22.6194 5.82682 23.4197 5.85872C24.2193 5.89165 26.5054 6.1773 27.7971 7.07569C29.0903 7.97304 29.4897 8.85149 29.5994 9.09728C29.5985 9.09728 29.597 9.09849 29.5961 9.09849C29.6394 9.1049 31.4385 13.1945 31.9658 13.2091C32.3174 13.2186 32.5799 12.4573 32.522 11.8512Z" fill="white"/>
<path d="M30.2836 15.2038C30.0917 15.2262 29.567 15.274 29.5091 15.2813C29.4062 15.2947 29.4088 15.3529 29.4152 15.3966C29.4206 15.4416 29.4369 15.6143 29.4431 15.6886C29.4495 15.7625 29.5266 15.8058 29.6057 15.7994C29.6852 15.7939 30.187 15.7484 30.2619 15.7368C30.3351 15.7249 30.4074 15.663 30.4065 15.6039C30.4049 15.5444 30.4058 15.3874 30.4049 15.3239C30.4032 15.26 30.3559 15.1957 30.2836 15.2038Z" fill="white"/>
<path d="M9.40757 39.3178C9.50724 39.3394 9.61349 39.3637 9.7161 39.3876C9.48678 39.3344 9.23736 39.28 9.09436 39.2446C9.02364 39.2268 8.91236 39.2166 8.78357 39.2192C8.56864 39.2238 8.30326 39.2659 8.08902 39.3736C7.8181 39.5083 6.0969 40.381 5.37549 40.7453C6.20125 41.9285 7.12269 43.0382 8.13287 44.0631C8.19597 43.803 9.3242 42.6191 9.48297 41.9252C9.70033 40.9745 9.15936 39.7194 9.40757 39.3178Z" fill="white"/>
<path d="M38.136 42.0703L36.7759 42.2457C36.7759 42.2457 37.7543 46.7633 38.0163 47.8902L38.1742 48.6188C38.6474 48.364 39.11 48.095 39.5646 47.8123C39.0023 45.7294 38.1372 42.0703 38.1372 42.0703H38.136Z" fill="white"/>
<path d="M46.018 23.9985C45.331 24.5175 44.9506 25.2185 44.9526 25.9199C44.9559 26.9598 45.797 27.9611 47.7456 27.9547C48.2292 27.9514 48.6557 27.9025 49.0435 27.8366C49.1567 27.8183 49.2676 27.7978 49.3728 27.7762L49.5994 26.8083C49.2218 26.9345 48.7447 27.0388 48.3623 27.0405C47.3245 27.0438 46.6288 26.4285 46.6272 25.6216C46.6255 25.1916 46.8023 24.8139 47.1219 24.5376C47.4642 24.2415 47.9688 24.0625 48.5999 24.0625C49.0996 24.0625 49.3919 24.2006 49.5912 24.3979C49.6313 24.4365 49.6682 24.4771 49.7004 24.5196H49.863L50.1811 23.3773C49.8533 23.2691 49.3674 23.1781 48.8549 23.1724C47.6615 23.1565 46.6919 23.4893 46.018 23.9985Z" fill="white"/>
<path d="M44.3926 24.1513C44.5327 24.1513 44.649 24.2022 44.727 24.269C44.7937 24.3256 44.8338 24.3931 44.8338 24.4513H44.9938L45.3039 23.2109H41.0927L41.0312 23.4536L41.0166 23.5125C41.0166 23.5125 41.4777 23.5644 41.3364 24.0251L40.2852 27.8443L42.0731 27.8478H42.3866L42.4662 27.5198C42.4662 27.5198 42.0731 27.425 42.1759 27.0619C42.1807 27.0392 42.3288 26.4961 42.4172 26.1701C42.4567 26.0293 42.4848 25.9281 42.4848 25.9281L43.4471 25.9274C43.6045 25.9274 43.7251 25.9564 43.8184 25.9924C44.0111 26.0663 44.0851 26.1782 44.0851 26.1782L44.3644 25.0432H42.742L42.9172 24.395L42.9831 24.1532L44.3926 24.1513Z" fill="white"/>
<path d="M39.2759 27.1659C39.1513 27.0324 38.0693 25.3471 38.0693 25.3471L39.9827 23.8157L40.0462 23.7647C40.1318 23.6931 40.2124 23.6425 40.2829 23.6058C40.4863 23.5013 40.6173 23.5162 40.6173 23.5162L40.6941 23.2109L38.2347 23.2146L38.1735 23.4564L38.1589 23.5162C38.326 23.5278 38.5593 23.6772 38.3687 23.8552C38.3437 23.8765 36.392 25.3679 36.392 25.3679L36.4072 25.3152L36.813 23.8452C36.8988 23.5515 37.2143 23.5162 37.2143 23.5162L37.2914 23.2137L34.9434 23.2144L34.8831 23.4562L34.8677 23.516C34.98 23.5449 35.3007 23.6072 35.1895 24.0286C34.4059 26.8605 34.4955 26.5802 34.4425 26.7345C34.2671 27.4058 34.0039 27.4982 33.8457 27.5153C33.8112 27.5186 33.7814 27.5186 33.7597 27.5198L33.7275 27.6467L33.6777 27.8474H35.8208H36.1335L36.2155 27.515C36.2155 27.515 35.8259 27.4378 35.9 27.1567C35.9378 27.0154 36.0363 26.657 36.1231 26.3406C36.2074 26.0337 36.2821 25.7647 36.2821 25.7647C36.7079 26.4474 36.8059 26.5318 37.32 27.2371C37.793 27.8896 38.2986 27.859 39.5192 27.8507C39.6187 27.85 39.7217 27.8492 39.8326 27.8492L39.9137 27.523C39.6043 27.5249 39.3995 27.299 39.2759 27.1659Z" fill="white"/>
<path d="M50.856 23.2927C50.795 23.2329 50.7227 23.2031 50.6359 23.2031C50.5507 23.2031 50.4785 23.2329 50.4173 23.2927C50.3577 23.3525 50.3271 23.426 50.3271 23.5117C50.3271 23.598 50.3577 23.6711 50.4173 23.7321C50.4769 23.7921 50.5507 23.8233 50.6359 23.8233C50.7227 23.8233 50.795 23.7919 50.856 23.7321C50.9165 23.6711 50.9468 23.598 50.9468 23.5117C50.9477 23.426 50.9163 23.3525 50.856 23.2927ZM50.8257 23.7016C50.7742 23.7542 50.71 23.7808 50.636 23.7808C50.5622 23.7808 50.4994 23.7543 50.4481 23.7016C50.3967 23.6498 50.3701 23.5864 50.3701 23.5117C50.3701 23.4385 50.3967 23.3751 50.4481 23.3232C50.5003 23.2707 50.5622 23.2442 50.636 23.2442C50.71 23.2442 50.7726 23.2707 50.8257 23.3232C50.8771 23.3751 50.9028 23.4385 50.9028 23.5117C50.9028 23.5862 50.8771 23.6498 50.8257 23.7016Z" fill="white"/>
<path d="M50.7767 23.4413C50.7767 23.3987 50.7583 23.3699 50.7244 23.355C50.7018 23.3477 50.6729 23.3438 50.6313 23.3438H50.5122V23.684H50.571V23.5495H50.6181C50.6509 23.5495 50.6725 23.5535 50.6866 23.5608C50.7067 23.5739 50.7179 23.5998 50.7171 23.6391V23.6653L50.7197 23.6769C50.7197 23.6785 50.7197 23.6793 50.7197 23.6809C50.7197 23.6809 50.7197 23.6824 50.7214 23.6842H50.7767L50.7758 23.6793C50.7726 23.6769 50.7726 23.6713 50.7712 23.662V23.6374V23.6117C50.7712 23.5944 50.7648 23.5755 50.7521 23.5582C50.7408 23.5408 50.7197 23.5292 50.6942 23.5252C50.715 23.5219 50.7311 23.5173 50.7431 23.5088C50.7646 23.494 50.7767 23.472 50.7767 23.4413ZM50.6821 23.501C50.6701 23.5058 50.6514 23.5074 50.6268 23.5074H50.5715V23.3848H50.6221C50.6557 23.3841 50.6807 23.3888 50.6959 23.3973C50.7105 23.4053 50.7185 23.4226 50.7185 23.4476C50.7181 23.4729 50.706 23.4909 50.6821 23.501Z" fill="white"/>
<path d="M47.4069 32.8451C44.1712 31.8628 37.5269 32.094 37.5269 32.094L42.9579 44.8917C42.9579 44.8917 43.4609 44.6395 43.5237 44.7772C46.4702 42.0225 48.758 38.5781 50.1299 34.6985C50.0218 34.6153 50.6425 33.8273 47.4069 32.8451Z" fill="white"/>
<path d="M36.3728 47.9462C36.1303 46.6709 35.1653 42.4517 35.1653 42.4517C35.1653 42.4517 36.4464 42.1151 36.7468 41.3818C37.0472 40.6487 36.3674 39.5193 36.3352 39.0742C36.1963 37.7454 35.6742 32.3033 34.8185 31.1766C34.3202 30.5205 32.0285 29.2261 31.8502 29.2339C31.0268 29.2699 29.3802 32.8558 28.0042 33.1808C27.0871 33.3975 26.4394 32.5054 26.5878 32.5728C26.5852 32.5709 26.582 32.5693 26.5805 32.5678C26.5805 32.5678 26.582 32.4651 26.4286 31.9831C26.2752 31.4993 25.9539 30.9918 25.8944 30.8771C25.8367 30.762 25.6623 30.5115 25.6563 30.4827C25.6514 30.4545 25.588 30.2931 25.5431 29.9991C25.4576 29.432 25.4968 29.052 25.5001 29.0175C25.5018 28.9829 25.5176 28.8801 25.5223 28.8593C25.5259 28.8375 25.5174 28.8005 25.4913 28.7941C25.4639 28.7894 25.3907 28.7716 25.3143 28.8503C25.1548 29.0111 25.1475 29.0416 25.1446 29.0689C25.139 29.0943 25.1555 29.1429 25.1507 29.199C25.1333 29.3774 25.1021 29.5138 25.0222 29.644C24.9427 29.7757 24.8908 29.8209 24.7782 29.8102C24.6636 29.7998 24.5683 29.709 24.5544 29.4738C24.5395 29.2387 24.4932 29.1581 24.4461 29.1027C24.3991 29.0448 24.292 29.0182 24.2554 29.0205C24.2193 29.0205 24.1892 29.0527 23.9413 29.1136C23.6955 29.1761 23.3048 29.1971 23.2473 29.1995C23.1885 29.203 22.9741 29.2247 22.9726 29.2252C23.0174 29.393 22.0716 29.1351 21.9124 29.2626C21.5874 29.5226 21.4356 31.2109 21.2768 32.0864C21.2767 32.0871 21.2767 32.088 21.2765 32.089L15.9468 32.6284L14.0835 36.9618C14.0835 36.9618 14.6468 45.5418 14.6468 45.6718C14.6468 45.8018 26.4335 43.1151 26.4335 43.1151L30.8804 43.0189C30.8804 43.0189 30.8814 43.0222 30.8823 43.0307C30.9136 43.287 31.4066 47.382 31.507 48.0232L31.8403 50.3615C31.8677 50.5601 31.8982 50.761 31.9318 50.9591C32.4476 50.84 32.9585 50.7078 33.4622 50.5568C33.4213 50.2932 33.3791 50.0273 33.3329 49.7525C33.2668 49.4192 33.2211 49.0987 33.1673 48.7749L33.0262 47.9715C32.8976 47.2132 32.1523 42.8386 32.1523 42.8386L32.9335 42.3453L33.8376 42.6216C33.8617 42.7325 33.8858 42.8528 33.9132 42.9832C34.0986 43.8908 34.3517 45.2516 34.7464 47.0863L35.0461 48.868C35.0542 48.9436 35.1508 49.4561 35.2397 49.9541C35.7151 49.7716 36.1835 49.5749 36.6454 49.366L36.3728 47.9462Z" fill="white"/>
<path d="M27.5384 15.4401C26.5561 15.5845 25.1261 16.3861 25.1911 16.9711C25.2311 17.3337 27.2798 17.3892 28.2028 17.4551C29.1258 17.5209 29.2781 16.6336 29.2286 16.1514C29.179 15.6692 28.5721 15.2882 27.5384 15.4401Z" fill="#F5D4B7"/>
<path d="M34.2417 31.1898C33.7541 31.1391 33.9806 31.9295 33.9749 32.0095V32.0111C34.2215 32.9414 34.4263 33.8694 34.5847 34.7094C34.5866 34.7922 34.5928 34.8649 34.6031 34.9238C34.6729 35.2899 34.8175 36.473 35.0955 39.1457C35.1598 40.0357 35.216 40.9643 35.2531 41.7451C35.2784 41.7434 36.9202 41.8386 36.9202 41.8386C36.9202 41.8386 36.8552 39.5419 36.3459 36.6602C35.8367 33.7788 35.0731 31.2765 34.2417 31.1898Z" fill="#F5D4B7"/>
<path d="M29.8144 23.9536C29.8882 23.5471 29.8036 23.3462 29.6705 23.1086C29.5397 22.8716 29.2866 22.6499 28.9595 22.435C28.6432 22.2246 27.9282 21.5937 27.8588 21.534C27.7912 21.4758 27.4574 21.1601 27.3801 21.0974C27.2997 21.0355 27.1438 20.9059 26.8017 20.7324C25.9726 20.3143 25.306 20.6271 25.2802 20.6415C25.2549 20.6557 25.1318 20.7552 25.0139 20.8672C24.8978 20.9773 24.985 21.1901 25.0295 21.2678C25.0295 21.2678 29.4294 24.493 29.4383 24.5682L29.4415 24.5707C29.4415 24.5707 29.7532 24.2857 29.8144 23.9536Z" fill="#F5D4B7"/>
<path d="M27.9942 19.9793C27.8496 20.0239 27.7666 20.07 27.7259 20.1159C27.7179 20.1251 27.7148 20.1352 27.7115 20.1449C27.708 20.1525 27.708 20.1605 27.708 20.1681C27.708 20.1745 27.708 20.1801 27.708 20.1858C27.7096 20.1934 27.7127 20.1998 27.7144 20.2068C27.7182 20.2147 27.7224 20.2232 27.7272 20.2312C27.7305 20.2364 27.7337 20.2421 27.7382 20.2477C27.7446 20.2577 27.7536 20.2673 27.7624 20.2773C27.7662 20.2822 27.7706 20.2861 27.7753 20.2907C27.7864 20.3017 27.7987 20.3135 27.8124 20.3251C27.8156 20.3284 27.8188 20.3316 27.8228 20.334C27.8382 20.3473 27.8543 20.3596 27.8701 20.373C27.8734 20.3745 27.8748 20.3763 27.8782 20.3787C27.8975 20.3927 27.9169 20.4056 27.9361 20.4187C27.9368 20.4196 27.9377 20.4196 27.9385 20.4203C27.9602 20.4343 27.981 20.4477 28.0011 20.4609C28.0228 20.4737 28.0533 20.4805 28.0904 20.4813C28.1256 20.4829 28.1691 20.478 28.2159 20.4697C28.3701 20.4392 28.5676 20.3614 28.7347 20.2813C28.7347 20.2822 28.7329 20.2813 28.7314 20.2822C28.7217 20.2855 28.4157 19.7805 28.4277 19.7656C28.322 19.8464 28.1869 19.9187 27.9942 19.9793Z" fill="#F5D4B7"/>
<path d="M22.0861 22.9991C22.0983 23.0039 22.109 23.011 22.1215 23.0159C22.1199 23.0143 22.1189 23.0134 22.118 23.0119C22.0555 22.9469 22.0506 22.9323 22.0288 22.8439C22.005 22.7519 21.9449 22.639 21.9196 22.5753C21.8924 22.511 21.7714 22.2929 21.7247 22.1516C21.6783 22.0102 21.6573 21.9239 21.648 21.7821C21.6119 21.6751 21.5845 21.4623 21.601 21.2699C21.615 21.0997 21.6528 20.9036 21.7608 20.3526C21.8339 19.9907 21.7194 19.5738 21.7154 19.1878C21.7119 18.8902 21.6824 18.1587 21.6906 17.4226V17.4201C21.6396 17.4375 15.0871 16.0317 15.1332 16.0248C15.1341 16.0248 15.1358 16.0239 15.1372 16.0239C15.189 15.4814 15.1577 14.7515 15.1284 14.1981C15.2979 12.5356 15.5536 10.6113 16.141 9.32843C16.5949 8.34199 16.5343 8.66699 16.7586 8.20211C16.771 8.17715 16.7875 8.14786 16.7901 8.11336C16.7925 8.09014 16.7735 7.95962 16.7697 7.91819C16.7697 7.9175 16.7697 7.9175 16.7697 7.91663C16.7563 7.92062 15.1594 7.47342 13.1725 12.0336C12.3408 13.9441 13.4476 18.7215 13.4476 18.7215L15.1772 19.2958L16.3039 18.6837L18.9689 18.1367L20.0576 18.6676C20.0576 18.6676 19.7224 19.687 19.7196 19.687C19.7196 19.6877 19.7188 19.6877 19.7188 19.6877C19.7188 19.6877 19.7196 19.7355 19.7141 19.8102C19.6954 20.1765 19.4929 20.5448 19.3241 20.7473C19.0965 21.0229 18.6976 21.2153 18.4706 21.3215C18.2418 21.4261 17.8734 21.5039 17.8518 21.5075C17.8322 21.5122 17.7096 21.5288 17.6897 21.532C17.67 21.5335 17.6322 21.546 17.5796 21.5564C17.525 21.5658 17.4652 21.5673 17.4354 21.5798C17.4205 21.5853 17.4093 21.5926 17.4001 21.6011C17.3836 21.6145 17.3748 21.6301 17.3704 21.6474C17.3696 21.649 17.3689 21.6523 17.3689 21.6547C17.3654 21.6711 17.3654 21.6876 17.368 21.7025C17.3789 21.7568 17.4377 21.8323 17.4446 21.8455C17.4692 21.8925 17.6105 22.0267 17.8419 21.9748C18.1463 21.9065 18.343 21.8455 18.5462 21.78C18.751 21.7133 19.0226 21.5957 19.0641 21.5595C19.1062 21.5245 19.2189 21.4385 19.2369 21.4287C19.2369 21.4278 19.2376 21.4278 19.2376 21.4278C19.261 21.4065 19.2832 21.3864 19.3052 21.3675C19.3145 21.3595 19.3239 21.3494 19.3334 21.3422C19.3357 21.3403 19.3372 21.3387 19.3397 21.3368C19.3756 21.7661 18.8606 23.0552 18.8606 23.0552C18.8606 23.0552 17.6608 23.4821 17.7369 23.4256C17.7369 23.4256 17.7355 23.4256 17.7355 23.4263C17.6379 23.4742 17.4944 23.526 17.3491 23.4123C17.3491 23.4123 17.2078 23.2473 17.0349 23.0283C16.9312 22.8975 16.8168 22.7481 16.7133 22.6023C16.6402 22.4995 16.588 22.4156 16.5495 22.3465C16.4748 22.2192 16.445 22.1376 16.4318 22.0866C16.4303 22.0826 16.4285 22.0781 16.4285 22.075C16.3963 21.9903 16.3694 21.853 16.3694 21.853C16.1529 21.8261 15.9252 21.7767 15.7149 21.6999C15.7165 21.7006 15.7165 21.7027 15.7182 21.7043C15.7357 21.7199 14.2322 22.0478 14.2322 22.0478L15.7879 28.3854C15.7879 28.3854 18.6912 32.9498 20.5112 32.0687C20.7825 31.9373 21.2548 31.0123 21.0602 30.6964C20.8602 30.3728 17.7812 25.2654 17.7812 25.2654C17.7812 25.2654 22.0447 22.9807 22.0861 22.9991Z" fill="#F5D4B7"/>
<path d="M27.9877 40.2239C28.5564 40.6015 28.7541 40.6899 29.3759 40.9499C29.5737 41.0431 30.0956 40.937 30.3188 40.6028C30.3148 40.6046 30.3108 40.6093 30.3077 40.6119C30.306 40.6126 30.306 40.6126 30.3044 40.6126C30.2899 40.6214 27.2085 38.2036 26.8069 38.0606C26.6639 38.01 25.877 38.2987 25.9782 38.4442C26.0689 38.575 26.4493 38.9714 26.4583 38.9867C26.9955 39.4044 27.6711 39.9619 27.9877 40.2239Z" fill="#F5D4B7"/>
<path d="M21.4357 35.7628L16.2827 32.8125C16.2827 32.8125 16.433 34.2742 16.4321 34.2971C16.433 34.298 16.433 34.298 16.4337 34.299C16.8096 34.6353 17.3985 35.0381 17.4915 35.1014C17.5259 35.1241 17.7654 35.2822 17.8165 35.3394C17.8798 35.4082 18.5156 35.8604 18.5641 35.8942C18.6106 35.9257 19.2972 36.3046 19.7132 36.5262C19.7281 36.518 19.4237 36.7673 19.4284 36.7593C19.2821 36.769 19.176 36.8363 19.0146 36.8877C18.2923 37.2935 18.721 38.1376 18.7891 38.7258C18.9273 39.2213 19.1018 40.0818 19.7444 40.162C20.2335 40.2208 21.3532 39.9147 21.9452 39.7933C22.0291 39.645 22.8872 39.5917 22.8767 39.6037C23.0282 39.5585 23.2313 39.487 23.2928 39.4985C23.3298 39.5049 23.1587 39.6866 23.0595 39.872C22.9599 40.0592 22.3438 41.8778 21.7703 42.8466C21.5779 43.2434 21.669 43.0796 21.5519 43.368V43.3688L22.7141 43.6349L24.5918 38.8681L21.4357 35.7628Z" fill="#F5D4B7"/>
<path d="M15.5902 39.4741C15.7903 39.8453 16.3666 40.6237 16.3948 40.6679C16.4229 40.7112 16.547 40.8449 16.6933 41.0085C16.84 41.1714 16.9656 41.3139 17.001 41.3555C17.0363 41.3957 17.3111 41.6809 17.382 41.7462C17.4527 41.8112 17.5347 41.9438 17.5941 41.9991C17.7975 42.1816 18.5461 42.8323 18.6184 42.886C18.6906 42.9412 19.0477 43.1805 19.112 43.1894C19.7551 43.2708 20.0707 42.9186 20.1359 42.8143C20.2018 42.7124 20.2142 42.6683 20.1737 42.5155C20.1728 42.5264 17.6912 40.6618 16.0445 37.0759C15.9807 36.9371 15.4096 36.2455 14.8853 36.6642C14.4547 37.0081 14.766 37.8322 14.766 37.8322V37.8368C14.9295 38.1745 15.4191 39.1576 15.5902 39.4741Z" fill="#F5D4B7"/>
<path d="M10.7178 39.8256C10.8838 39.2044 9.50668 39.3428 9.40736 39.3203C8.97802 40.0152 8.52232 42.3753 8.29023 43.4807C8.25002 43.6051 8.19594 43.8051 8.13232 44.0638C8.44848 44.3851 8.77158 44.6992 9.10368 45.0029C9.3434 44.0702 10.6737 39.9908 10.7178 39.8256Z" fill="#F5D4B7"/>
<path d="M50.7197 23.6797C50.7197 23.6813 50.7206 23.6832 50.7206 23.6839C50.7206 23.6839 50.7206 23.6855 50.7216 23.6874C50.7206 23.6857 50.7206 23.6839 50.7206 23.6839C50.7205 23.6832 50.7197 23.6815 50.7197 23.6797Z" fill="#A3080C"/>
<path d="M47.59 32.5739C46.822 32.4039 45.0034 32.0388 42.5519 31.8137C40.1017 31.5906 38.0961 31.3993 37.8205 31.3694C37.5681 31.3443 37.4767 31.1131 37.2476 30.998C36.417 30.5815 34.8473 30.1949 33.8636 29.8486C33.6202 29.7644 33.4603 29.5489 33.1243 29.1393C32.9201 28.8896 32.782 28.7769 32.6073 28.6186C32.5026 28.523 32.2747 28.3302 32.2136 28.2836C32.1542 28.2354 32.1124 28.0972 32.1639 27.8289C32.2154 27.5596 32.3762 26.5092 32.3631 25.2861C32.3596 24.9578 32.5041 24.7476 32.6579 24.6708C32.7406 24.629 33.2788 24.3897 33.2425 23.8606C33.2046 23.3252 33.0392 22.5783 33.47 21.5271C33.8868 20.5085 34.4073 18.6906 34.4703 17.4913C34.537 16.2173 34.217 15.3956 33.7144 14.9506C33.5183 14.7787 33.2869 14.5188 33.4759 13.9642C33.6774 13.3674 34.0435 11.7375 33.6839 10.6594C33.6033 10.42 33.5119 10.4185 33.457 10.3895C33.4018 10.3614 33.1406 10.1614 33.0425 9.72149C32.9106 9.14152 32.4866 7.08024 30.888 4.98481C30.0411 3.87236 29.1366 3.21075 28.7754 2.94416C28.5279 2.78313 28.0933 2.48032 27.5735 2.20385C26.8297 1.81056 26.2394 1.51052 25.0519 1.12624C24.9395 1.09088 24.6853 1.01305 24.3493 0.92344C24.3485 0.92344 24.3455 0.92344 24.3455 0.92344C24.3455 0.92344 23.3338 0.652693 22.2397 0.524946C22.0528 0.507613 21.7972 0.48404 21.507 0.46428C20.3807 0.398413 19.9695 0.467573 19.3839 0.526506C19.3213 0.532573 19.2575 0.542106 19.1946 0.5506C19.0777 0.5662 18.9569 0.584226 18.8306 0.603986C17.0903 0.901946 15.3199 1.71817 14.4588 2.1288C13.9726 2.35968 13.5425 2.59992 13.147 2.82525C13.1361 2.83219 13.122 2.84016 13.1147 2.84449C13.0128 2.90672 12.8532 2.99564 12.6975 3.08109C12.4542 3.21837 12.2215 3.34699 11.9962 3.45705C11.2992 3.79609 10.6862 3.9696 10.2379 4.12508C10.1565 4.15559 10.0883 4.18141 10.0355 4.19944C9.71237 4.32528 9.50645 4.45528 9.46867 4.66969C9.39968 5.05449 9.8526 5.41156 9.69088 6.02533C9.29273 7.53472 7.58904 8.98344 7.31587 9.15053C6.5246 9.63344 6.574 9.96953 6.54349 10.1415C6.54349 10.3013 6.57625 10.4788 6.66725 10.6705C6.93089 11.2291 7.41865 11.7079 7.65733 12.2128C7.89671 12.7181 8.03312 13.6036 7.85407 14.6388C7.68316 15.6398 7.6296 15.8618 7.54068 16.0454C7.45228 16.2296 7.27392 16.5876 7.51988 17.0133C7.76688 17.4402 8.2874 17.8756 8.61396 18.1263C8.78764 18.2604 8.8776 18.3821 8.74881 18.6239C8.53665 19.0196 8.59091 19.9527 8.7918 20.4747C9.09513 21.2712 9.45133 22.0304 9.78188 22.5183C10.1128 23.0059 10.7031 23.8359 11.0503 24.1361C11.3961 24.4382 11.4436 24.9618 11.4369 25.2868C11.4296 25.6101 11.3842 26.5267 12.3261 27.1002C12.7903 27.3855 12.8319 27.3138 13.0021 27.4537C13.1723 27.5911 13.2524 27.6625 13.3701 28.0336C13.4877 28.4034 14.0232 29.6997 14.7604 30.6123C14.9755 30.8773 15.0949 31.0652 15.1205 31.1087C15.1465 31.1521 15.1866 31.2003 15.0933 31.4187C15.0006 31.6372 14.6285 32.8814 14.3315 34.1676C14.2773 34.4035 14.1975 34.7136 13.9017 34.8592C13.6053 35.002 12.9433 35.3677 12.7024 35.5008C12.4599 35.6341 12.3403 35.7066 12.0614 36.0534C11.9373 36.2077 11.847 36.2982 11.7686 36.3923C11.7236 36.4467 11.7036 36.4816 11.4679 36.6045C11.2637 36.7105 8.23349 37.7767 5.02024 39.7423C4.94068 39.7903 4.86632 39.833 4.79248 39.874C4.98176 40.1696 5.17485 40.4623 5.37575 40.7482C6.09716 40.3835 7.81819 39.5111 8.08876 39.3762C8.30231 39.2686 8.56803 39.2268 8.78279 39.2216C8.91209 39.2192 9.02303 39.2298 9.09357 39.2473C9.23779 39.2826 9.486 39.3374 9.71653 39.3901C9.73785 39.3948 9.75917 39.4 9.78119 39.4047C9.7954 39.4079 9.80944 39.4111 9.82417 39.4152C9.91933 39.4386 10.0074 39.4596 10.0785 39.4787C10.0824 39.4802 10.0857 39.4802 10.0897 39.482C10.1242 39.4918 10.1556 39.5003 10.1797 39.5076C10.3844 39.575 10.4932 39.959 10.3825 40.3084C10.3629 40.3743 10.2991 40.596 10.2057 40.9237C10.1592 41.0884 10.106 41.278 10.0478 41.4885C9.98919 41.6991 9.92523 41.9306 9.8578 42.1764C9.62085 43.0374 9.34265 44.0706 9.10328 45.0033C9.74461 45.588 10.4175 46.1383 11.1167 46.6554C11.1951 46.0499 11.2774 45.4193 11.3412 44.9607C11.5083 43.764 12.4642 39.331 12.7341 38.323C12.9305 37.5897 13.0326 37.2555 13.2907 37.1399C13.3681 37.1063 13.4562 37.0548 13.5072 37.0298C13.5581 37.0062 13.6697 36.9792 13.6353 37.1735C13.5957 37.404 13.3967 38.3447 13.104 41.3971C12.9007 43.5147 12.8958 45.3902 12.969 46.5182C13.0005 46.9986 13.0087 47.6775 13.7436 47.3832C14.6023 47.0402 17.5295 45.9904 19.0933 45.5086C21.6114 44.7319 26.3309 43.6945 30.8797 43.0232L32.1516 42.8424C32.1516 42.8424 32.8962 47.2176 33.0245 47.976L33.1658 48.7787L33.0259 47.976C32.8966 47.2176 32.1528 42.8424 32.1528 42.8424C32.331 42.8179 32.5104 42.795 32.687 42.7725C33.0943 42.721 33.4767 42.673 33.8366 42.6262L35.1652 42.456C35.7869 42.3764 36.3203 42.3082 36.7723 42.2491C36.7723 42.2491 37.631 46.2187 37.9539 47.6447C37.9765 47.7385 37.9957 47.8231 38.0118 47.8938L38.1708 48.6225C38.1716 48.6225 38.1725 48.6225 38.1732 48.6225L38.0151 47.8938C37.753 46.7659 36.7749 42.2492 36.7749 42.2492L38.1351 42.074C38.5374 42.0227 39.0499 41.9584 39.2026 41.9511C39.5222 41.9377 39.6618 41.757 39.4177 41.6836C39.2416 41.6322 38.8346 41.5914 38.6287 41.5864C38.5502 41.5855 38.4072 41.5838 38.3217 41.5824C38.007 41.5769 37.917 41.5148 37.8478 41.0508C37.6518 39.6898 36.8936 36.3164 36.3492 34.5378C35.8223 32.822 35.6921 32.328 35.5652 31.9501C35.4543 31.6248 35.6692 31.6048 35.7725 31.6095C36.1565 31.6279 36.6882 31.8272 36.8408 32.1557C37.1783 32.8875 39.4869 38.9344 40.4139 41.1888C40.9987 42.6089 41.6799 44.3185 42.3233 45.8414C42.7355 45.5025 43.1331 45.1456 43.5226 44.7811C42.325 42.148 39.6588 36.1829 38.2531 33.1641C38.2025 33.0555 38.1342 32.8795 38.0997 32.7762C38.0877 32.7417 38.0827 32.711 38.0827 32.6838C38.0844 32.4912 38.3391 32.4644 38.4651 32.4767C38.9613 32.5264 43.4696 32.8237 44.7004 32.9412C45.5126 33.018 46.323 33.1419 46.8643 33.2385C46.9898 33.2617 47.1002 33.2827 47.1935 33.3011C47.3091 33.3241 47.3959 33.3425 47.4521 33.3579C47.8537 33.4626 48.5621 33.7429 49.218 34.0946C49.4893 34.2391 49.798 34.4497 50.1289 34.7037C50.2285 34.4206 50.3278 34.1371 50.4181 33.8505C50.1821 33.6867 49.9167 33.5195 49.6563 33.3796C48.9074 32.9804 48.2752 32.7265 47.59 32.5739ZM10.8813 17.6238C10.7588 17.6765 10.648 17.6905 10.5633 17.5234C10.3577 17.1169 10.2015 16.3931 10.1419 15.9228C10.0805 15.4529 9.98659 14.0503 10.0162 13.284C10.049 12.5172 9.89923 12.0887 9.62519 11.7219C9.35045 11.3557 9.17383 11.1014 9.1064 10.978C9.02164 10.8241 9.07832 10.7189 9.24039 10.6013C9.31908 10.5462 9.47976 10.5793 9.60404 10.5535C9.84983 10.5041 10.6706 10.2065 11.2821 9.72687C11.8922 9.24725 12.8646 8.31957 13.5245 7.96251C14.1823 7.60544 14.4744 7.44268 15.2443 7.35029C15.3809 7.33435 15.5858 7.40732 15.3545 7.58325C15.1235 7.75919 14.3825 8.02179 13.5184 9.3256C12.9879 10.1233 12.9014 10.584 12.7334 10.9419C12.5646 11.2997 12.4032 11.4009 12.1361 11.6906C12.0061 11.8287 11.7412 12.119 11.6457 12.5401C11.553 12.9614 11.1694 14.4459 11.3947 16.6911C11.4213 16.9524 11.5289 17.3003 11.2838 17.4269C11.1325 17.5054 11.0027 17.5719 10.8813 17.6238ZM11.9394 20.6489C11.8088 20.5562 11.2753 19.8339 11.0155 19.0312C10.9869 18.9465 10.9557 18.7308 11.0963 18.6693C11.2115 18.6199 11.3646 18.5312 11.4441 18.4934C11.5247 18.4528 11.7256 18.4001 11.7534 18.6898C11.7815 18.9801 11.8068 19.3223 12.1377 20.1787C12.1976 20.3317 12.2099 20.3796 12.2255 20.4409C12.2683 20.6188 12.0602 20.7349 11.9394 20.6489ZM13.0262 17.9214C12.9908 17.9274 12.6247 17.9716 12.4273 18.0086C12.3047 18.0311 12.1786 18.0769 12.1645 17.9588C12.1481 17.8247 12.1087 17.6475 12.0971 17.5997C12.0865 17.5499 12.1104 17.5028 12.1697 17.4887C12.3151 17.4551 12.8771 17.3606 12.9313 17.3579C12.9856 17.3572 13.0405 17.3755 13.0641 17.488C13.0854 17.6009 13.1125 17.721 13.1189 17.7699C13.1255 17.8201 13.1395 17.904 13.0262 17.9214ZM13.2258 16.0879C13.192 15.9168 13.1447 15.6238 13.16 15.4415C13.1652 15.3689 13.1872 15.1872 13.2744 15.0893C13.3976 14.9496 13.5614 14.8225 13.6677 14.7365C13.8609 14.5783 13.8207 14.1687 13.8348 13.9337C13.8774 13.2509 13.8167 11.0948 15.2159 9.03197C15.2698 8.95362 15.3247 8.88134 15.3788 8.81305C15.3953 8.7926 15.4117 8.77371 15.4282 8.7536C15.4684 8.70628 15.5085 8.66069 15.5499 8.61857C15.5672 8.59968 15.5844 8.58165 15.6026 8.56432C15.652 8.51561 15.7023 8.46916 15.7523 8.42704C15.7596 8.42132 15.766 8.41491 15.7728 8.40901C15.8295 8.36325 15.8863 8.32183 15.9428 8.28248C15.9633 8.26913 15.9837 8.25596 16.0042 8.244C16.0432 8.21835 16.0825 8.19529 16.1219 8.17293C16.1443 8.1608 16.1664 8.14832 16.1893 8.1367C16.2323 8.11469 16.2765 8.09407 16.3202 8.07448C16.3368 8.06755 16.3531 8.05957 16.3696 8.05195C16.4263 8.0282 16.4845 8.00705 16.5422 7.98729C16.567 7.9788 16.5909 7.97169 16.6154 7.96407C16.6542 7.95193 16.6929 7.94032 16.7315 7.92957C16.7447 7.92628 16.7568 7.9216 16.7702 7.91831C16.7702 7.919 16.7702 7.919 16.7702 7.91987C17.0549 7.84395 17.347 7.80131 17.642 7.75121C18.4749 7.60977 19.4457 7.74203 19.9451 7.90097C20.342 8.02664 20.5431 8.12301 20.6759 7.99769C20.8092 7.87289 21.1569 7.47873 21.3044 7.33903C21.3247 7.31927 21.3406 7.2976 21.3515 7.27628C21.356 7.269 21.3585 7.26155 21.3618 7.25427C21.3671 7.24023 21.3718 7.22532 21.3741 7.21059C21.3749 7.20261 21.3767 7.19412 21.3767 7.18528C21.3767 7.17124 21.3749 7.1572 21.3727 7.14229C21.3711 7.13501 21.3711 7.12669 21.3675 7.11941C21.3621 7.09896 21.3531 7.0792 21.3408 7.06031C21.3084 7.0064 21.2569 6.95839 21.1931 6.92008C21.0312 6.82492 19.4057 5.63204 17.2144 5.57865C15.0732 5.52509 13.3354 6.28273 12.8745 6.44133C12.7812 6.47271 12.7334 6.48917 12.6786 6.48987C12.6244 6.49143 12.4375 6.42764 12.5067 6.29261C12.5826 6.1484 12.7726 5.92636 12.97 5.74644C13.1771 5.55976 14.1903 4.60608 15.1909 4.16443C15.376 4.08331 15.4211 4.04951 15.5397 4.0034C15.6912 3.94603 15.7808 3.60456 15.4461 3.60369C15.103 3.60127 14.9665 3.63975 14.7853 3.668C14.6038 3.69816 14.5042 3.61704 14.6187 3.46156C14.7319 3.3066 14.9557 3.13465 15.3596 2.91539C16.2365 2.43751 17.8405 1.9338 18.5988 1.76792C19.5877 1.55143 19.7085 1.53739 20.3647 1.49717C20.9785 1.46181 21.4694 1.50515 21.7017 1.51451C23.6678 1.58921 25.932 2.23991 27.685 3.39413C29.3517 4.62047 31.7505 6.66355 32.2259 11.707C32.283 12.3123 32.2429 12.6553 32.2195 12.8068C32.1987 12.9583 32.0268 13.2369 31.8758 12.9205C31.3785 11.8783 30.6098 10.5143 29.7423 9.22143C29.6908 9.14464 29.6384 9.10772 29.596 9.10217C29.5781 9.09853 29.563 9.10148 29.5478 9.10789C29.544 9.11032 29.5414 9.11431 29.5374 9.11708C29.5291 9.12349 29.5202 9.13146 29.5138 9.14239C29.5105 9.15001 29.5065 9.15799 29.5041 9.16613C29.5001 9.17705 29.4977 9.18936 29.4961 9.20149C29.4944 9.21241 29.4927 9.22247 29.4927 9.23373C29.4927 9.25939 29.4944 9.28764 29.5017 9.31849C29.5233 9.41001 29.7996 10.7776 29.8099 10.9681C29.8218 11.1581 29.7287 11.6243 30.4371 12.4848C30.7264 12.8379 30.9833 13.1395 31.1152 13.6603C31.2452 14.1793 31.2894 14.4013 31.2903 14.4564C31.2922 14.5107 31.3546 14.6653 31.104 14.6669C30.8549 14.6676 29.9038 14.5986 29.4968 14.6078C29.0895 14.6175 26.2782 14.8932 25.2323 15.1155C24.1862 15.338 23.6234 15.6015 23.0863 16.1659C22.9569 16.3016 22.7762 16.4281 22.7351 16.4397C22.6963 16.4506 22.5598 16.4477 22.2933 16.4297C22.0277 16.4123 21.5672 16.4775 21.3254 16.5867C21.082 16.6956 20.9085 16.7968 20.6154 16.6774C20.1964 16.5078 19.4778 15.7339 17.6119 15.8251C16.4887 15.88 15.9132 15.9107 15.1337 16.026C15.0883 16.0333 15.0413 16.04 14.9947 16.0473C14.9651 16.0521 14.9344 16.0568 14.9041 16.062C14.8876 16.0645 14.8704 16.0669 14.8531 16.07C14.5357 16.1218 14.1773 16.1886 13.7347 16.2749C13.6734 16.2865 13.6131 16.299 13.5496 16.3109C13.3772 16.3454 13.2579 16.2681 13.2258 16.0879ZM30.4075 15.6067C30.4075 15.6661 30.3352 15.7277 30.2612 15.7401C30.1881 15.7518 29.6861 15.7977 29.6058 15.8036C29.5271 15.8091 29.45 15.7658 29.4434 15.6916C29.437 15.6185 29.4207 15.445 29.4162 15.3995C29.4081 15.3569 29.4063 15.2975 29.5086 15.2843C29.5681 15.277 30.0915 15.23 30.2846 15.2071C30.3569 15.1987 30.4042 15.2638 30.4059 15.3271C30.4059 15.3905 30.4059 15.5477 30.4075 15.6067ZM28.0595 16.1702C27.9042 16.061 27.6312 15.889 27.4659 15.8287C27.3518 15.7878 27.3917 15.6452 27.5543 15.6223C28.1199 15.5399 28.4826 15.5399 28.764 15.7155C28.9697 15.8429 29.1063 16.0903 29.0434 16.3083C28.9694 16.5586 28.8714 16.5044 28.7485 16.5023C28.6256 16.5 28.2129 16.2799 28.0595 16.1702ZM28.3864 17.2736C28.2869 17.3407 27.9616 17.2809 27.8434 17.2346C27.6009 17.1395 27.4288 17.0736 27.0915 16.8595C26.8712 16.7198 26.4883 16.6507 26.1532 16.7519C25.9324 16.8186 25.7549 16.8744 25.5604 16.9495C25.3656 17.0242 25.3257 16.8467 25.3767 16.7708C25.4269 16.695 25.7353 16.334 26.1444 16.1804C26.2303 16.1475 26.4054 16.1295 26.4914 16.1277C26.755 16.1201 27.0818 16.2487 27.3293 16.4293C27.5789 16.6113 27.9751 16.9081 28.2355 17.0193C28.3575 17.0719 28.6225 17.1105 28.3864 17.2736ZM20.2547 26.0535C19.2681 26.3989 18.9914 26.0519 18.9035 25.949C18.816 25.8462 18.924 25.7458 19.0285 25.6971C19.2632 25.5879 19.5773 25.3501 19.7359 25.1953C19.8954 25.0407 20.2051 24.5025 20.4287 24.3134C20.5348 24.2231 21.1078 24.0283 21.5389 24.2338C22.0515 24.4781 22.8495 24.5034 23.3395 24.4396C23.8292 24.3737 24.0158 24.0158 24.1221 23.8045C24.228 23.5913 24.4878 23.5133 24.6244 23.4571C25.0004 23.3034 25.498 22.7875 25.549 22.735C25.5999 22.6808 25.7551 22.6045 26.0017 22.7491C26.4507 23.0129 26.6789 23.362 27.0958 23.8355C27.5127 24.3094 28.006 24.3834 28.1505 24.3926C28.2953 24.4018 28.3852 24.5694 28.3918 24.6155C28.3998 24.6616 28.2793 24.8219 28.1894 24.8894C28.0991 24.9568 28.0493 25.0762 27.2511 25.0951C23.2457 25.1939 21.4434 25.6375 20.2547 26.0535ZM25.6873 26.5355C25.4497 26.6584 24.7428 26.9248 24.3909 26.9926C24.0379 27.0604 22.9176 27.2874 22.7285 27.3027C22.4931 27.3209 22.1633 27.2503 21.8769 27.0545C21.8194 27.0148 21.7412 26.8609 21.9501 26.83C22.3376 26.7725 22.9634 26.4816 25.2396 26.3657C25.4841 26.353 25.5991 26.348 25.6577 26.3466C25.7162 26.3454 25.9267 26.4126 25.6873 26.5355ZM20.4138 31.5891C19.6189 31.7201 17.5027 31.0992 16.1267 27.7036C15.7721 26.8302 16.1611 25.9611 16.5024 25.7853C16.7048 25.6825 16.8144 25.6408 16.8833 25.6234C16.9582 25.6045 17.3184 25.5576 17.3593 25.9628C17.3917 26.2906 18.028 28.9818 18.8836 29.8717C19.0946 30.0923 19.2613 30.0788 19.3157 29.8509C19.3625 29.642 19.4547 29.3673 19.4816 29.2626C19.5005 29.187 19.7069 28.9589 19.8239 29.2497C20.0756 29.867 20.3793 30.6751 20.5788 30.9987C20.774 31.3145 20.7112 31.5398 20.4138 31.5891ZM20.5707 22.7106C20.6454 22.8142 20.6917 23.0026 20.6859 23.0858C20.6783 23.1819 20.35 23.3561 20.0087 22.973C19.6673 22.5891 19.734 22.0585 19.8753 21.8332C20.1006 21.4737 20.5433 21.6527 20.5005 21.781C20.3526 22.2251 20.4947 22.6062 20.5707 22.7106ZM18.0339 17.7382C17.7786 17.7298 17.5039 17.6985 17.0378 17.8711C16.5161 18.0639 16.1807 18.3154 15.938 18.4643C15.6886 18.6197 15.4246 18.6865 15.3362 18.6929C15.2483 18.7005 14.928 18.6584 15.1486 18.4265C15.2072 18.363 15.3478 18.3152 15.5612 18.1597C15.7137 18.0474 15.8267 17.9673 16.0002 17.8212C16.3094 17.5577 16.9397 17.1769 17.2144 17.1431C17.416 17.119 17.7724 17.1571 17.9844 17.3307C18.205 17.5118 18.2898 17.7463 18.0339 17.7382ZM13.6439 18.1906C13.6708 18.0235 13.8535 17.5829 14.2385 17.4551C14.2903 17.4395 14.4822 17.3771 14.6425 17.3359C14.8316 17.2882 15.0349 17.2462 15.1386 17.2275C15.4171 17.179 15.4759 17.391 15.3005 17.5291C15.1855 17.6206 15.002 17.7399 14.8397 17.8713C14.5931 18.073 14.3561 18.2973 14.1729 18.4497C13.9499 18.6355 13.5885 18.5336 13.6439 18.1906ZM14.9517 22.9886C14.9509 22.9879 14.9502 22.987 14.9502 22.987C14.9486 22.9846 14.9476 22.9831 14.9462 22.981C14.8772 22.8841 14.8127 22.7822 14.7526 22.6785C14.7399 22.6556 14.7273 22.6322 14.7141 22.6093C14.6541 22.4981 14.5979 22.3856 14.5537 22.2672C14.4674 22.0379 14.612 22.0041 14.7084 22.054C14.8046 22.1055 15.0861 22.2696 15.3868 22.333C15.5705 22.3708 15.6795 22.2828 15.7227 22.1504C15.7291 22.1306 15.7374 22.1062 15.7465 22.0796C15.7517 22.068 15.7556 22.0555 15.7596 22.0427C15.7621 22.0351 15.7643 22.0271 15.7673 22.0186C15.7711 22.0042 15.7745 21.9902 15.7777 21.9753C15.7803 21.9677 15.7811 21.9597 15.7825 21.9521C15.7861 21.9368 15.7877 21.9219 15.7894 21.9063C15.7901 21.8987 15.7901 21.8914 15.791 21.8829C15.791 21.8677 15.7894 21.8527 15.7877 21.8371C15.7868 21.8304 15.786 21.8231 15.7842 21.8167C15.7806 21.8002 15.7742 21.7846 15.7669 21.769C15.7638 21.7642 15.7624 21.759 15.76 21.755C15.7494 21.737 15.7352 21.7203 15.7182 21.7047C15.6958 21.6851 15.6679 21.6669 15.6319 21.6529C15.37 21.5477 14.6274 21.3132 14.0698 20.2761C13.989 20.1295 14.0655 20.0047 14.1197 19.9608C14.1741 19.9175 14.3683 19.7937 14.4612 19.7363C14.5551 19.6788 14.6824 19.6854 14.815 19.7769C14.9424 19.8681 15.2192 20.0697 15.4412 20.0501C15.6475 20.03 15.6681 19.9454 15.7049 19.8918C15.8503 19.6797 16.2443 18.909 17.2768 18.8965C17.7029 18.891 18.1019 18.9303 18.2447 18.9215C18.386 18.9123 18.8899 18.8669 19.1866 18.665C19.4788 18.4641 19.6035 18.6086 19.4346 18.8284C19.4095 18.8614 19.3868 18.8903 19.3655 18.9193C19.3572 18.9297 19.3507 18.9388 19.3431 18.9485C19.3202 18.9791 19.3005 19.008 19.2831 19.0357C19.2188 19.1446 19.2109 19.2389 19.3308 19.3682C19.5192 19.5686 19.5683 19.6044 19.6295 19.6518C19.6567 19.6734 19.6893 19.6863 19.7272 19.6871C19.7428 19.6871 19.7602 19.6838 19.7775 19.6791C19.7848 19.6767 19.7919 19.6767 19.8004 19.6736C19.8264 19.662 19.8539 19.6462 19.8843 19.6206C19.9919 19.5254 20.0642 19.4687 20.1581 19.3474C20.228 19.2578 20.2871 19.3481 20.2698 19.4883C20.2561 19.5975 20.3051 20.2985 19.5412 21.1603C19.5163 21.1892 19.4582 21.2371 19.3859 21.2984C19.3686 21.3125 19.3523 21.3265 19.3334 21.343C19.3241 21.3509 19.3145 21.3603 19.3052 21.3683C19.2812 21.3891 19.2575 21.4113 19.2329 21.4341C19.2133 21.4522 19.1934 21.4738 19.1734 21.4936C19.153 21.5141 19.1332 21.5329 19.1126 21.555C19.1001 21.5683 19.0876 21.5839 19.0748 21.5988C19.0491 21.6278 19.023 21.6571 18.9973 21.6891C18.9893 21.7 18.9817 21.7111 18.9744 21.7214C18.9455 21.7591 18.9174 21.7973 18.8921 21.8373C18.8597 21.8891 18.8295 21.9434 18.8032 21.9999C18.5907 22.4533 18.6182 22.6029 18.5952 22.7683C18.5744 22.9321 18.4472 22.9973 18.304 23.0635C18.2177 23.1032 17.9889 23.2354 17.7353 23.4273L17.7367 23.4261C17.6607 23.4831 17.5834 23.5466 17.5068 23.6121C17.4921 23.6254 17.4779 23.6377 17.4642 23.6511C17.3876 23.7185 17.312 23.7901 17.2421 23.8646C17.1959 23.9133 17.1482 23.9561 17.1004 23.9948C17.0839 24.0076 17.0686 24.0177 17.0523 24.0293C17.0187 24.0537 16.9839 24.0766 16.9496 24.0967C16.9315 24.1073 16.9121 24.1172 16.8943 24.1253C16.8596 24.1427 16.8251 24.1567 16.7896 24.169C16.7709 24.1754 16.7527 24.1832 16.7339 24.1879C16.7246 24.1903 16.7159 24.1943 16.7074 24.1971C16.6854 24.2019 16.6632 24.2026 16.6412 24.2059C16.6138 24.2108 16.5866 24.216 16.5587 24.2175C16.5282 24.2191 16.497 24.2175 16.4656 24.216C16.4387 24.213 16.4114 24.213 16.3852 24.2099C16.3529 24.2051 16.3211 24.195 16.2895 24.1862C16.2628 24.1792 16.2361 24.1737 16.2089 24.1641C16.1787 24.1525 16.1489 24.1359 16.1186 24.1212C16.0897 24.1071 16.0619 24.0959 16.0338 24.0785C16.0312 24.0764 16.0283 24.0757 16.0259 24.0742C15.9749 24.0419 15.9229 24.0043 15.8709 23.9617C15.7369 23.8464 15.5901 23.7123 15.4449 23.566C15.441 23.5616 15.4372 23.5577 15.4334 23.5544C15.4294 23.5504 15.4254 23.5455 15.4218 23.541C15.3471 23.4654 15.2724 23.3848 15.1998 23.3008C15.1935 23.293 15.024 23.089 14.9517 22.9886ZM24.1325 39.0933C24.0855 39.3374 23.8864 40.1599 23.1552 41.8525C23.1058 41.9665 23.0578 42.0766 23.011 42.1828C22.9998 42.2078 22.9881 42.2315 22.9772 42.2567C22.9592 42.2974 22.9403 42.3387 22.9225 42.377C22.9207 42.3803 22.9199 42.3834 22.9185 42.3867C22.8919 42.4456 22.8651 42.5007 22.8377 42.5557C22.8377 42.5557 22.8361 42.5572 22.8361 42.5591C22.8327 42.5656 22.8289 42.5727 22.8245 42.5798C22.8148 42.599 22.8048 42.6177 22.7952 42.6359C22.7821 42.6604 22.7696 42.6865 22.7555 42.7101C22.7555 42.7125 22.7547 42.7134 22.754 42.7146C22.7507 42.7195 22.7476 42.7243 22.7443 42.7307C22.7318 42.7524 22.7138 42.784 22.7129 42.7853C22.7112 42.7886 22.7089 42.7916 22.7072 42.795C22.7072 42.795 22.7072 42.7951 22.7072 42.7968C22.6978 42.8103 22.6897 42.824 22.6815 42.8368C22.6791 42.8413 22.6768 42.8465 22.6742 42.8503C22.6727 42.8521 22.6715 42.8542 22.669 42.8566C22.6579 42.875 22.6462 42.8921 22.6347 42.9112C22.6321 42.9138 22.6299 42.9159 22.6283 42.9185C22.6151 42.9377 22.6018 42.9564 22.5888 42.9746C22.5881 42.9746 22.586 42.9781 22.5838 42.9793C22.5727 42.9947 22.5607 43.01 22.5493 43.0244C22.5458 43.0278 22.5437 43.0308 22.5413 43.0325C22.5281 43.0502 22.5141 43.0641 22.5018 43.0793C22.4999 43.0793 22.4981 43.0817 22.4967 43.0838C22.4895 43.0911 22.481 43.0984 22.4737 43.1064H22.473C22.4692 43.1112 22.4645 43.1152 22.4597 43.1192C22.4572 43.1216 22.4534 43.1239 22.4508 43.1273C22.4368 43.14 22.4234 43.1525 22.4094 43.1618C22.4078 43.1634 22.407 43.1642 22.4047 43.1653C22.3922 43.1757 22.3791 43.1842 22.3659 43.1923C22.3622 43.1948 22.3593 43.197 22.3558 43.1987C22.3534 43.2003 22.351 43.2012 22.3494 43.2022C22.3466 43.2046 22.3442 43.206 22.3418 43.206C22.3321 43.2124 22.322 43.218 22.312 43.2239C22.312 43.2239 22.3104 43.2239 22.3087 43.2246C22.2959 43.2317 22.2818 43.2365 22.2669 43.2416C22.2634 43.2433 22.26 43.245 22.256 43.2462C22.2404 43.2509 22.2255 43.2552 22.209 43.2591C22.0572 43.2918 21.8948 43.3152 21.7998 43.3315C21.7857 43.3329 21.6885 43.3492 21.6805 43.3521C21.6408 43.3579 21.598 43.3643 21.5521 43.3722C21.5521 43.3722 21.5521 43.3722 21.5521 43.3714C20.4547 43.5562 17.4697 44.0701 16.0851 44.3498C15.1667 44.5332 15.257 44.0706 15.0264 43.2357C14.9295 42.8847 14.5884 39.7792 14.7657 37.8301C14.8252 37.1829 14.8536 36.9932 14.9697 36.9218C15.0857 36.8502 15.2634 36.7346 15.3168 36.7194C15.3688 36.7057 15.527 36.6639 15.6009 36.7972C15.6731 36.9289 17.0137 39.6487 17.8899 40.6338C18.6673 41.5117 19.2138 42.1485 19.8692 42.5761C19.9125 42.6051 19.9498 42.6229 19.9836 42.634C19.9869 42.6356 19.9909 42.6377 19.9947 42.6387C20.0103 42.6434 20.0243 42.6458 20.0377 42.6475C20.0508 42.6493 20.063 42.6484 20.0746 42.6475C20.0781 42.6469 20.081 42.6469 20.0845 42.6458C20.1061 42.6411 20.1235 42.6306 20.1366 42.617C20.1382 42.6153 20.1399 42.613 20.1424 42.6106C20.1547 42.5954 20.1637 42.5761 20.1682 42.5553C20.1691 42.552 20.1691 42.548 20.1691 42.5446C20.1871 42.4434 20.1389 42.29 20.0427 42.1858C19.8981 42.03 19.2993 41.4138 18.5104 40.2916C17.49 38.8432 16.7986 36.7057 16.6126 36.021C16.4909 35.5728 16.4226 34.8659 16.4339 34.3019C16.4332 34.3019 16.4323 34.3019 16.4323 34.3019C16.4332 34.2769 16.4339 34.2553 16.4353 34.2313C16.436 34.2135 16.4368 34.1962 16.4379 34.1774C16.4394 34.1395 16.4412 34.1019 16.4433 34.0656C16.4472 34.0124 16.4512 33.9609 16.4575 33.9129C16.4601 33.892 16.463 33.8734 16.4654 33.8533C16.4706 33.8199 16.4757 33.7874 16.4805 33.7576C16.4838 33.7398 16.4873 33.7231 16.4914 33.707C16.5003 33.6637 16.5103 33.6236 16.5228 33.5888C16.6816 33.1352 16.8142 33.1839 16.9546 33.3359C17.0953 33.4893 18.3621 34.6389 20.4505 35.5747C20.8941 35.7731 21.1586 35.8645 21.2191 35.9298C21.2789 35.9931 21.3744 36.1274 21.1846 36.1722C20.9971 36.2165 20.44 36.2363 19.8567 36.4668C19.8229 36.4805 19.7917 36.4942 19.7631 36.5069C19.5591 36.5984 19.4634 36.6903 19.4201 36.7889C19.4116 36.8079 19.4052 36.8284 19.4005 36.8485C19.3969 36.862 19.3936 36.8781 19.392 36.8927C19.3894 36.9151 19.3885 36.9376 19.3894 36.9601C19.3894 36.9749 19.3885 36.9901 19.3901 37.0054C19.3918 37.0341 19.3949 37.0633 19.3981 37.0938C19.405 37.1452 19.4121 37.1983 19.4173 37.2565C19.4482 37.573 19.5029 37.7989 19.5431 38.2222C19.5825 38.647 19.5581 39.0309 19.7652 39.2102C19.9716 39.387 20.2535 39.492 21.0063 39.3459C21.7204 39.2067 21.9582 39.1459 22.0428 39.1434C22.1258 39.1408 22.3264 39.1072 22.2038 39.341C22.1922 39.3636 22.1769 39.3908 22.1589 39.4239C21.9943 39.717 21.5954 40.3776 21.4595 40.8177C21.3089 41.3028 21.2784 41.437 21.2652 41.5198C21.2531 41.6032 21.3106 41.7639 21.4588 41.5841C21.6067 41.404 21.8994 40.7334 22.6349 39.8796C22.7335 39.7655 22.824 39.6652 22.9089 39.5726C22.9096 39.5726 22.9105 39.5709 22.9122 39.5691C22.9788 39.4977 23.0407 39.4327 23.0998 39.3731C23.1162 39.3561 23.1318 39.3409 23.1476 39.326C23.1979 39.2771 23.2449 39.232 23.2887 39.1894C23.3003 39.1795 23.313 39.1677 23.3232 39.1578C23.4329 39.0585 23.5272 38.9819 23.6095 38.9219C23.6179 38.9172 23.6251 38.912 23.6328 38.9067C23.6645 38.8833 23.6959 38.8623 23.7248 38.8448C23.7328 38.8401 23.7413 38.8344 23.7493 38.8287C23.7782 38.8108 23.8056 38.7961 23.8309 38.782C23.8349 38.7786 23.8411 38.7756 23.8456 38.7732C23.8491 38.7722 23.8513 38.7697 23.8536 38.7685C23.8834 38.7548 23.9082 38.7403 23.9335 38.7288C24.1389 38.6276 24.1947 38.768 24.1325 39.0933ZM25.35 42.8304C25.2321 42.8576 24.723 42.9349 24.6443 42.9361C24.5669 42.938 24.501 42.8656 24.5339 42.81C24.5667 42.7554 24.9172 42.2993 25.1097 41.5054C25.1422 41.3761 25.2231 41.2862 25.2756 41.472C25.3162 41.6077 25.4734 42.2825 25.5096 42.5364C25.515 42.5808 25.5422 42.7853 25.35 42.8304ZM25.5635 36.3573C25.229 36.4828 24.857 36.1068 24.5559 35.9059C23.8793 35.4433 23.2566 34.9975 22.7458 34.3733C21.9634 33.4181 22.0365 32.7521 22.2638 31.5182C22.4217 30.6416 22.1353 29.8174 22.0729 29.7013C22.0111 29.5848 22.0809 29.4666 22.266 29.5532C22.451 29.6403 22.628 29.9101 22.8179 30.1415C23.0063 30.3729 23.0481 30.2085 23.0637 30.0512C23.0998 29.6883 23.018 29.3976 22.9727 29.2289H22.9717C22.9693 29.2208 22.9672 29.2106 22.9654 29.2017C22.9389 29.1012 22.8453 28.8771 22.6484 28.8363C22.3846 28.7809 22.1253 28.7575 21.9845 28.6563C21.919 28.6091 21.8445 28.5127 21.9183 28.442C22.0527 28.3118 22.2478 28.1392 22.4333 28.0758C22.6855 27.9891 22.928 27.8572 23.2475 27.8589C25.4034 27.8726 25.9847 27.3738 26.8089 27.0318C26.9705 26.964 27.0674 26.9338 27.2057 26.9772C27.3447 27.0189 27.7215 27.1606 27.8167 27.328C27.9124 27.4961 27.9292 28.1966 28.1133 28.7018C28.2947 29.2087 28.604 28.6835 28.6717 28.4666C28.7367 28.2487 28.7622 27.7308 28.7657 27.5998C28.769 27.4687 28.8073 26.9162 28.9808 26.7298C29.3254 26.3618 29.4065 25.9264 29.4483 25.7562C29.4852 25.6035 29.5141 25.1766 29.4386 24.5701C29.4304 24.4954 29.4193 24.417 29.4062 24.3368C29.2897 23.6053 29.1425 23.5434 28.9442 23.4105C28.7452 23.2779 28.5369 23.3354 28.0304 22.9884C27.5773 22.6768 27.166 22.1322 26.823 21.7999C26.4813 21.4681 25.9411 21.1345 25.3711 21.0757C25.3351 21.0724 25.3035 21.0717 25.2746 21.0717C25.2722 21.0717 25.2708 21.0717 25.2682 21.0717C25.2429 21.0733 25.2189 21.075 25.1985 21.0793C25.1945 21.08 25.1921 21.0818 25.1876 21.0826C25.1695 21.0859 25.1531 21.0906 25.139 21.0963C25.1352 21.0991 25.1318 21.1015 25.1271 21.1033C25.1162 21.1097 25.1054 21.1157 25.0966 21.1228C25.0926 21.1268 25.0893 21.1308 25.085 21.1353C25.0785 21.1417 25.0721 21.1487 25.0676 21.1566C25.0636 21.1622 25.0612 21.1691 25.0577 21.1755C25.0553 21.1825 25.0517 21.188 25.0501 21.1944C25.0468 21.2045 25.0453 21.2142 25.0437 21.2249C25.0437 21.2289 25.043 21.2322 25.043 21.2365C25.0421 21.2506 25.0421 21.2651 25.0437 21.2799H25.043C25.0546 21.4208 25.1562 21.5927 25.182 21.6635C25.2181 21.7595 25.3093 22.0531 25.1475 22.2242C24.9846 22.3953 24.032 23.2476 23.1398 23.2262C22.7366 23.2171 22.4002 23.1342 22.1178 23.0137C22.1194 23.0153 22.1204 23.0165 22.1213 23.0181C22.1093 23.0129 22.0993 23.0065 22.0868 23.0007C22.0194 22.9711 21.9554 22.9389 21.8944 22.9051C21.8847 22.8995 21.8731 22.8947 21.8622 22.8886C21.7937 22.8492 21.731 22.8078 21.6712 22.7653C21.6531 22.752 21.6358 22.7388 21.6185 22.726C21.5731 22.6915 21.5297 22.6561 21.4892 22.6199C21.4772 22.609 21.4633 22.5983 21.4514 22.5877C21.4028 22.5414 21.3578 22.4962 21.3157 22.4511C21.3053 22.4386 21.2961 22.427 21.2855 22.4157C21.2533 22.3785 21.2238 22.3414 21.1954 22.3053C21.1865 22.2937 21.178 22.2833 21.1701 22.2715C21.138 22.2261 21.1083 22.1828 21.083 22.141C21.0796 22.1358 21.0778 22.1318 21.0745 22.127C21.0525 22.0888 21.0336 22.0526 21.017 22.0197C21.013 22.0108 21.0087 22.0029 21.0045 21.9935C20.9881 21.9581 20.974 21.9236 20.9645 21.8947C20.8343 21.5031 21.1576 20.5777 21.1461 19.9151C21.1421 19.6247 21.0822 19.0676 21.0376 18.6811C20.9933 18.2944 21.1971 17.7739 21.2919 17.6477C21.3132 17.6199 21.3453 17.5934 21.3822 17.5674C21.3916 17.5605 21.402 17.5549 21.4119 17.5485C21.4463 17.526 21.4859 17.5047 21.5306 17.4851C21.537 17.4818 21.5431 17.4787 21.5503 17.475C21.594 17.457 21.6407 17.4381 21.6914 17.4217V17.4241C21.7746 17.3955 21.8643 17.369 21.9624 17.3469C22.2801 17.2762 22.6515 17.4334 22.747 17.6957C23.0791 18.6105 23.4471 18.8038 23.5704 18.8636C23.6955 18.9246 23.8921 18.7435 23.9692 18.6768C24.0467 18.6121 24.2334 18.3667 24.1505 18.259C24.0228 18.0956 23.9527 17.9952 23.9158 17.8931C23.8533 17.7205 24.0789 17.7168 24.1323 17.7409C24.8123 18.029 25.138 18.0895 25.7963 18.0675C26.4534 18.047 27.4756 17.6141 27.6021 17.6116C27.7052 17.6092 27.9091 17.6726 27.9855 17.7787C27.9982 17.7967 28.0153 17.8224 28.0315 17.8477C28.0973 17.9456 28.1857 18.077 28.2644 18.1044C28.2679 18.1051 28.27 18.1068 28.2733 18.1077C28.3707 18.1318 28.6026 18.1141 28.7255 18.1193C28.8917 18.125 29.1801 18.0675 29.172 18.3727C29.1536 19.1877 28.5093 19.6961 28.4507 19.7455C28.4282 19.766 28.4154 19.7922 28.4038 19.8187C28.4005 19.826 28.3942 19.8336 28.3929 19.8416C28.3894 19.8565 28.3864 19.8714 28.3864 19.8854C28.3864 19.9001 28.3882 19.9135 28.3913 19.9248C28.4065 19.9733 28.4762 20.1492 28.506 20.1971C28.5166 20.2144 28.5294 20.2309 28.5459 20.2465C28.5499 20.2505 28.5567 20.2537 28.5613 20.2581C28.5742 20.2678 28.5868 20.277 28.6014 20.2834C28.6087 20.2874 28.6184 20.2882 28.6269 20.291C28.6404 20.2943 28.6558 20.2974 28.6712 20.2966C28.6809 20.2966 28.6929 20.2933 28.7026 20.291C28.7267 20.2858 28.7492 20.281 28.7749 20.2654C29.3209 19.9388 29.5429 19.5528 29.7806 19.0676C30.0175 18.5847 30.1421 16.9899 30.1558 16.7283C30.1693 16.4649 30.2522 16.303 30.3815 16.1971C30.5099 16.0906 31.1478 15.6821 31.2378 15.6613C31.3293 15.64 31.4338 15.6311 31.5366 15.8689C31.6413 16.1083 31.8692 17.5787 31.9126 17.8047C31.9616 18.045 32.0861 18.0164 32.1488 17.9703C32.2852 17.8706 32.384 17.748 32.5055 17.5393C32.631 17.3305 32.5392 17.0424 32.4171 16.9082C32.2968 16.7734 32.1062 16.5579 32.1873 16.344C32.3721 15.858 32.7603 15.8825 32.8645 15.8998C32.9666 15.9171 33.3601 16.0943 33.4311 17.1533C33.5339 18.7222 32.8941 20.3444 32.7416 20.7557C32.4043 21.6702 32.3336 22.2928 32.2814 22.5892C32.2308 22.8844 32.0067 22.831 31.9528 22.7832C31.8982 22.7355 31.8281 22.5069 31.7937 22.4731C31.7583 22.4393 31.6699 22.4566 31.612 22.7085C31.5543 22.9598 31.3615 23.3089 31.2487 23.4989C31.1731 23.6221 31.1872 23.7989 31.2054 23.9362C31.2392 24.203 31.378 25.2236 31.3355 26.3839C31.2586 28.4483 30.5684 29.7486 30.0536 30.4293C28.8423 32.031 27.7063 32.7005 27.5699 32.7954C27.3946 32.9176 27.1015 32.8986 27.0034 32.8662C26.9037 32.8381 26.8162 32.7351 26.6299 32.6022C26.6146 32.5902 26.5994 32.5838 26.5865 32.577C26.4385 32.5086 26.4163 32.7169 26.4177 32.7714C26.4195 32.8293 26.5091 33.0437 26.5597 33.2517C26.6564 33.6437 26.4385 34.1176 26.2144 34.4917C25.8946 35.0205 25.5377 35.6019 25.6122 36.2406C25.6114 36.2975 25.6114 36.3389 25.5635 36.3573ZM35.828 36.9679C36.0105 38.0173 36.2159 39.296 36.448 40.8634C36.46 40.9461 36.4688 41.0168 36.4752 41.0827C36.4769 41.0908 36.4787 41.0998 36.4787 41.1077C36.4851 41.1695 36.4884 41.226 36.4884 41.2723C36.4884 41.2772 36.4877 41.2813 36.4877 41.2851C36.4877 41.3059 36.4877 41.3285 36.486 41.3463C36.4834 41.3642 36.4804 41.3791 36.4769 41.3945C36.4769 41.4008 36.4752 41.4072 36.4752 41.4129C36.4672 41.445 36.4563 41.4723 36.4418 41.4956C36.44 41.499 36.4371 41.502 36.4336 41.5067C36.421 41.5245 36.4047 41.5405 36.3877 41.5535C36.3821 41.5574 36.3771 41.5616 36.3707 41.5663C36.349 41.58 36.3248 41.5919 36.2949 41.6017C36.2878 41.6049 36.2773 41.6062 36.2677 41.6096C36.2452 41.6169 36.2206 41.6233 36.1937 41.6306C36.1769 41.6341 36.1603 41.637 36.1431 41.6417C36.1079 41.6488 36.0701 41.6562 36.0301 41.6641C35.9561 41.6793 35.8476 41.6947 35.7723 41.701C35.6422 41.7138 35.4903 41.7266 35.325 41.7412C33.7263 41.8875 30.5977 42.2047 28.0913 42.5203C28.0441 42.5248 27.9957 42.53 27.9443 42.5382C27.7491 42.5656 27.6359 42.5344 27.6205 42.3428C27.6085 42.1669 27.3152 40.427 26.4293 38.9448C26.348 38.8082 26.2622 38.6734 26.1714 38.5427C26.0704 38.3971 26.2205 38.2863 26.3635 38.3367C26.7649 38.4778 27.8767 38.9866 29.4625 40.1216C29.8674 40.4109 29.9726 40.5008 30.0634 40.5779C30.0754 40.5885 30.0941 40.5987 30.1108 40.6069C30.1172 40.6102 30.1245 40.6116 30.1324 40.6149C30.1433 40.6189 30.1574 40.623 30.1711 40.6261C30.1784 40.6277 30.1855 40.6294 30.1927 40.6299C30.208 40.6317 30.2233 40.6324 30.2369 40.6317C30.2434 40.6317 30.2489 40.6317 30.2541 40.6317C30.2723 40.6291 30.2902 40.6235 30.3047 40.6145C30.3416 40.5913 30.3586 40.5462 30.3297 40.4684C30.2311 40.1904 29.7007 39.6442 28.344 38.3853C28.1504 38.2062 28.1471 38.1306 28.3478 38.1097C28.5478 38.0906 29.0917 38.1152 29.3809 38.1033C29.6708 38.0906 30.3182 38.0726 30.1914 37.2253C30.0941 36.5691 30.0179 35.8903 30.0059 35.6872C29.995 35.4847 29.9593 35.1062 29.4854 35.0526C29.0146 34.9985 28.2251 35.1079 27.5168 35.3561C27.3215 35.4239 27.2525 35.3337 27.3971 35.2018C27.5409 35.071 28.7844 34.2618 29.844 33.0451C31.0088 31.7054 31.5212 30.7196 31.812 29.8231C31.8645 29.664 31.9316 29.7181 31.9968 29.7545C32.0611 29.7925 32.4981 30.1459 32.653 31.0148C32.8049 31.8855 33.1061 33.0938 32.5752 36.2668C32.2835 38.005 31.9269 39.0316 31.8441 39.2767C31.7607 39.5192 31.9035 39.656 32.0642 39.4384C32.4386 38.9273 32.9337 37.5105 33.3514 35.8815C33.7627 34.2742 33.9118 32.8962 33.9749 32.0128V32.012C33.9813 31.9309 33.9868 31.8546 33.9908 31.7815L33.9934 31.7518C33.9969 31.6804 34.0005 31.6118 34.0054 31.5502C34.0054 31.5124 34.0101 31.4826 34.0165 31.4554C34.0182 31.4473 34.0212 31.4408 34.0238 31.4337C34.0276 31.4216 34.031 31.4081 34.0355 31.3984C34.0355 31.3967 34.0375 31.3967 34.0375 31.3951C34.0454 31.3798 34.0551 31.367 34.0636 31.3571C34.0664 31.3538 34.0685 31.3507 34.0709 31.349C34.0789 31.3419 34.0862 31.3386 34.0934 31.3348C34.099 31.3322 34.1045 31.3284 34.1097 31.3265C34.1142 31.3258 34.1177 31.3258 34.1224 31.3249C34.1314 31.3232 34.1402 31.3214 34.148 31.3214C34.1513 31.3214 34.1545 31.3214 34.1584 31.3232C34.1624 31.3232 34.1676 31.3232 34.1706 31.3232C34.1735 31.3232 34.1753 31.3258 34.1768 31.3258C34.2091 31.3313 34.2385 31.3441 34.2612 31.3538C34.3441 31.3862 34.7103 31.492 34.9012 32.3708C34.9091 32.4061 34.9173 32.4446 34.9268 32.4829C34.9284 32.4958 34.9313 32.5101 34.9348 32.523C34.9438 32.5583 34.9518 32.5937 34.9603 32.6323L34.9622 32.6388C35.1204 33.3297 35.4071 34.5251 35.828 36.9679Z" fill="black"/>
<path d="M29.0693 38.4663H29.2475V38.921H29.3552V38.4663H29.5328V38.375H29.0693V38.4663Z" fill="black"/>
<path d="M29.9189 38.7653L29.7814 38.375H29.6265V38.921H29.7261V38.4816L29.878 38.921H29.9655L30.1149 38.4816V38.921H30.2144V38.375H30.0595L29.9189 38.7653Z" fill="black"/>
</svg>
