<svg width="141" height="32" viewBox="0 0 141 32" fill="none" xmlns="http://www.w3.org/2000/svg">
<path d="M141 4.19523V31.6932C140.857 31.6867 140.717 31.6737 140.574 31.6737C106.273 31.6737 71.9756 31.6737 37.6747 31.6737H37.1969V31.3001C37.1969 22.3778 37.1969 13.4586 37.1904 4.53627C37.1904 4.21147 37.2912 4.15625 37.587 4.15625C71.9366 4.16275 106.286 4.16275 140.639 4.16275C140.759 4.16275 140.88 4.18223 141.003 4.19523H141ZM71.5043 20.6271C71.3906 20.4907 71.3093 20.3965 71.2281 20.2958C68.8846 17.3141 66.5411 14.3324 64.1911 11.3572C64.061 11.1915 63.8563 10.9901 63.6742 10.9739C63.1022 10.9252 62.5204 10.9544 61.9321 10.9544V25.0249H64.2138V15.2256C64.2983 15.323 64.3536 15.3782 64.4023 15.4399C66.7783 18.4606 69.1543 21.4781 71.5238 24.5052C71.7156 24.7521 71.9431 24.9437 72.2487 24.96C72.772 24.9859 73.2985 24.9665 73.8251 24.9665V10.8537H71.5011V20.6271H71.5043ZM52.7076 10.6718C52.3143 10.7043 51.9145 10.7205 51.5245 10.7758C49.3597 11.0908 47.6435 12.1107 46.5157 14.0173C45.8429 15.1509 45.5308 16.3884 45.5113 17.7038C45.4821 19.6397 46.0216 21.3839 47.3315 22.826C48.6739 24.3006 50.4031 24.9794 52.3825 25.0412C53.907 25.0899 55.3534 24.8105 56.6665 23.9855C59.257 22.355 60.2841 19.1752 59.6958 16.3104C58.9905 12.887 56.2342 10.6946 52.7108 10.6718H52.7076ZM85.5718 12.9909C85.5718 12.3511 85.5588 11.7632 85.5783 11.1753C85.5881 10.9089 85.5133 10.831 85.2403 10.831C82.4807 10.8407 79.7212 10.8375 76.9617 10.8375C76.8642 10.8375 76.7666 10.8472 76.6659 10.8537V24.9177H85.5523V22.839H79.3214C79.3214 22.7026 79.3214 22.6019 79.3214 22.5012C79.3214 21.4034 79.3312 20.3055 79.3149 19.2109C79.3117 18.9186 79.4157 18.8569 79.6822 18.8601C81.0668 18.8699 82.4515 18.8666 83.8361 18.8666C83.9662 18.8666 84.0962 18.8666 84.2327 18.8666V16.8074H79.3377C79.3312 16.671 79.3214 16.5605 79.3214 16.4533C79.3214 15.4172 79.3279 14.3811 79.3149 13.345C79.3117 13.0754 79.3767 12.9812 79.6692 12.9844C81.5024 12.9974 83.3356 12.9909 85.1688 12.9909H85.5751H85.5718ZM119.427 10.8505V11.2402C119.427 13.8809 119.427 16.5215 119.427 19.1655C119.427 19.5097 119.405 19.854 119.366 20.1983C119.158 21.9685 118.03 23.154 116.301 23.4334C114.805 23.6737 113.284 22.9754 112.55 21.6989C112.127 20.9649 112.013 20.1529 112.013 19.3214C112.013 16.6385 112.013 13.9588 112.013 11.276C112.013 11.1395 112 11.0031 111.994 10.8635H110.086C110.079 10.9771 110.07 11.0778 110.07 11.1753C110.07 13.9166 110.07 16.6612 110.07 19.4026C110.07 19.7761 110.083 20.1561 110.141 20.5264C110.443 22.4752 111.451 23.8978 113.281 24.7099C114.292 25.1581 115.351 25.2263 116.424 25.1126C118.348 24.908 119.827 24.0148 120.695 22.2381C121.095 21.4228 121.274 20.5524 121.274 19.6462C121.277 16.8106 121.274 13.9783 121.274 11.1428C121.274 11.0453 121.264 10.9512 121.257 10.8537H119.427V10.8505ZM90.1516 19.6949C90.5839 19.6949 90.9609 19.7014 91.3347 19.6949C92.066 19.6786 92.8006 19.6786 93.5287 19.6234C94.2535 19.5682 94.9426 19.3506 95.5829 18.9933C97.2926 18.0351 97.8484 16.213 97.6501 14.5175C97.4746 13.0396 96.74 11.9288 95.3489 11.3604C94.6988 11.0973 93.987 10.8959 93.2914 10.8602C91.6662 10.7758 90.0346 10.805 88.4061 10.792C88.3476 10.792 88.2891 10.805 88.2176 10.8147V24.921H90.1516V19.6981V19.6949ZM128.509 10.74C127.667 10.74 126.841 10.844 126.097 11.2792C124.651 12.1237 123.955 13.3969 124.085 15.0599C124.205 16.6027 125.138 17.5317 126.549 18.0416C127.189 18.2722 127.83 18.5061 128.476 18.714C129.13 18.9251 129.786 19.1265 130.284 19.6202C130.501 19.8345 130.726 20.0911 130.83 20.3705C131.148 21.2247 130.752 22.4395 129.994 22.9592C128.918 23.6997 127.745 23.7614 126.565 23.2905C125.996 23.0664 125.483 22.6961 124.96 22.3713C124.573 22.1309 124.251 22.1764 123.988 22.5532C123.871 22.7188 123.78 22.9072 123.65 23.0599C123.471 23.2677 123.542 23.4009 123.718 23.5633C125.047 24.7748 126.617 25.275 128.398 25.1808C130.124 25.0899 132.318 24.018 132.682 21.4391C132.916 19.7923 132.283 18.3794 130.836 17.6389C130.378 17.405 129.881 17.2394 129.396 17.0575C128.626 16.7684 127.839 16.5215 127.085 16.1935C126.536 15.9564 126.074 15.5666 125.912 14.9495C125.645 13.9231 126.136 12.9519 127.15 12.5622C128.067 12.2114 129.006 12.2049 129.916 12.5979C130.336 12.7766 130.719 13.0299 131.119 13.2508C131.463 13.4424 131.717 13.3774 131.912 13.0396C132.019 12.8545 132.097 12.6531 132.218 12.4777C132.37 12.2601 132.309 12.1302 132.12 11.9743C131.07 11.1038 129.855 10.727 128.502 10.7368L128.509 10.74ZM102.019 23.3554V10.857H100.081V24.973H108.152C108.152 24.5604 108.152 24.1674 108.152 23.7744C108.152 23.4951 108.017 23.3554 107.746 23.3554C106.156 23.3554 104.57 23.3554 102.981 23.3554H102.019Z" fill="#FF0016"/>
<path d="M27.5239 -0.0078125C27.5337 0.235791 27.5532 0.479394 27.5532 0.719749C27.5564 1.73639 27.5532 2.75302 27.5532 3.76966V4.16267H31.6876C31.7006 4.27311 31.7168 4.34781 31.7201 4.42577C31.7201 5.13709 31.7136 5.84841 31.7266 6.55973C31.7299 6.79034 31.6518 6.8553 31.4308 6.8553C30.2704 6.84556 29.1101 6.85205 27.9464 6.85205C27.8262 6.85205 27.7059 6.85205 27.5499 6.85205V11.042C27.4036 11.0485 27.2931 11.0583 27.1826 11.0583C26.5195 11.0583 25.8597 11.0453 25.1967 11.0648C24.9074 11.0745 24.8099 10.9966 24.8164 10.6945C24.8326 9.54793 24.8164 8.39812 24.8294 7.25156C24.8326 6.97223 24.7514 6.88778 24.4686 6.89103C23.3277 6.90727 22.1868 6.89753 21.046 6.89753C20.9257 6.89753 20.8054 6.89753 20.6462 6.89753C20.6462 6.41682 20.6462 5.97183 20.6462 5.52685C20.6462 5.17282 20.6592 4.81553 20.6429 4.46149C20.6332 4.23413 20.7079 4.16592 20.9387 4.16592C22.0991 4.17567 23.2594 4.16917 24.4231 4.16917C24.5433 4.16917 24.6636 4.16917 24.8359 4.16917V-0.0078125H27.5239Z" fill="#FF0016"/>
<path d="M57.1802 17.9347L57.0924 17.9217C57.0924 17.7073 57.1087 17.4929 57.0924 17.2818C56.9169 15.0797 55.6883 13.0691 52.932 12.9587C50.764 12.871 49.1486 13.8194 48.4758 15.9404C48.18 16.8758 48.128 17.8307 48.245 18.8019C48.4888 20.8677 49.6881 22.7255 52.3307 22.875C54.3069 22.9886 56.2018 22.1084 56.8519 19.8121C57.0242 19.2014 57.0762 18.5616 57.1834 17.9347H57.1802Z" fill="#FF0016"/>
<path d="M90.1226 12.3281V18.1421C91.1042 18.1421 92.063 18.2006 93.0121 18.1291C94.4065 18.0252 95.6091 17.1125 95.6904 15.3813C95.7619 13.8352 94.9948 12.7244 93.4639 12.5003C92.375 12.3411 91.2569 12.3801 90.1226 12.3314V12.3281Z" fill="#FF0016"/>
<path d="M27.5239 31.6608H0V4.19531H17.9062V6.88794H2.73354C2.72704 7.0341 2.71404 7.14129 2.71404 7.24847C2.71404 14.3617 2.71404 21.4717 2.70754 28.5849C2.70754 28.8804 2.79205 28.9551 3.08458 28.9551C10.2028 28.9486 17.3211 28.9454 24.4394 28.9551C24.7514 28.9551 24.8294 28.8739 24.8294 28.5654C24.8196 23.7908 24.8229 19.0161 24.8229 14.2383V13.7965H27.5239V31.6608V31.6608Z" fill="#FF0016"/>
<path d="M15.0978 22.0298H17.8963V24.7419H9.64046V22.0948H12.348V13.8188H9.63721V11.0547H15.0978V22.0298V22.0298Z" fill="#FF0016"/>
<path d="M57.18 17.9347C57.0728 18.5616 57.0208 19.2047 56.8485 19.8121C56.2017 22.1084 54.3035 22.9886 52.3273 22.875C49.6847 22.7223 48.4854 20.8677 48.2416 18.8019C48.1278 17.8307 48.1766 16.8758 48.4724 15.9404C49.1484 13.8194 50.7606 12.871 52.9286 12.9587C55.6849 13.0691 56.9135 15.0797 57.089 17.2818C57.1053 17.4929 57.089 17.7073 57.089 17.9217L57.1768 17.9347H57.18Z" fill="#FF0016"/>
<path d="M90.1226 12.3314C91.2569 12.3833 92.375 12.3411 93.4639 12.5003C94.9948 12.7244 95.7619 13.8352 95.6904 15.3813C95.6091 17.1125 94.4065 18.0219 93.0121 18.1291C92.063 18.2006 91.1042 18.1421 90.1226 18.1421V12.3281V12.3314Z" fill="#FF0016"/>
</svg>
