<svg width="100" height="13" viewBox="0 0 100 13" fill="none" xmlns="http://www.w3.org/2000/svg">
<path fill-rule="evenodd" clip-rule="evenodd" d="M11.5598 6.04147C11.5598 8.50776 13.0667 10.867 15.7882 10.867C18.483 10.867 19.9642 8.561 19.9642 6.04147C19.9642 2.79782 17.6127 1.43103 15.7625 1.43103C13.621 1.43103 11.5598 3.0667 11.5598 6.04147ZM19.9101 0.561017H20.9667V11.5906H19.9101V9.63441C18.8263 11.3233 17.1089 11.8867 15.7085 11.8867C12.8815 11.8867 10.4502 9.71534 10.4502 6.12347C10.4502 2.74617 12.5639 0.414062 15.7085 0.414062C17.3991 0.414062 18.8803 1.08441 19.9101 2.55822V0.561017Z" fill="#00AFB5"/>
<path fill-rule="evenodd" clip-rule="evenodd" d="M11.5598 6.04147C11.5598 8.50776 13.0667 10.867 15.7882 10.867C18.483 10.867 19.9642 8.561 19.9642 6.04147C19.9642 2.79782 17.6127 1.43103 15.7625 1.43103C13.621 1.43103 11.5598 3.0667 11.5598 6.04147ZM19.9101 0.561017H20.9667V11.5906H19.9101V9.63441C18.8263 11.3233 17.1089 11.8867 15.7085 11.8867C12.8815 11.8867 10.4502 9.71534 10.4502 6.12347C10.4502 2.74617 12.5639 0.414062 15.7085 0.414062C17.3991 0.414062 18.8803 1.08441 19.9101 2.55822V0.561017Z" stroke="#00AFB5" stroke-width="0.281572"/>
<path fill-rule="evenodd" clip-rule="evenodd" d="M43.1086 6.04147C43.1086 8.50776 44.6155 10.867 47.337 10.867C50.0318 10.867 51.513 8.561 51.513 6.04147C51.513 2.79782 49.1615 1.43103 47.3113 1.43103C45.1708 1.43103 43.1086 3.0667 43.1086 6.04147ZM51.46 0.561017H52.5165V11.5906H51.46V9.63441C50.3761 11.3233 48.6587 11.8867 47.2583 11.8867C44.4313 11.8867 42 9.71534 42 6.12347C42 2.74617 44.1137 0.414062 47.2583 0.414062C48.9489 0.414062 50.4301 1.08441 51.46 2.55822V0.561017Z" fill="#00AFB5"/>
<path fill-rule="evenodd" clip-rule="evenodd" d="M43.1086 6.04147C43.1086 8.50776 44.6155 10.867 47.337 10.867C50.0318 10.867 51.513 8.561 51.513 6.04147C51.513 2.79782 49.1615 1.43103 47.3113 1.43103C45.1708 1.43103 43.1086 3.0667 43.1086 6.04147ZM51.46 0.561017H52.5165V11.5906H51.46V9.63441C50.3761 11.3233 48.6587 11.8867 47.2583 11.8867C44.4313 11.8867 42 9.71534 42 6.12347C42 2.74617 44.1137 0.414062 47.2583 0.414062C48.9489 0.414062 50.4301 1.08441 51.46 2.55822V0.561017Z" stroke="#00AFB5" stroke-width="0.281572"/>
<path fill-rule="evenodd" clip-rule="evenodd" d="M38.5153 1.4836V11.4086H37.3503V1.4836H33.3955V0.414062H42.478V1.48254H38.5153V1.4836Z" fill="#00AFB5"/>
<path fill-rule="evenodd" clip-rule="evenodd" d="M38.5153 1.4836V11.4086H37.3503V1.4836H33.3955V0.414062H42.478V1.48254H38.5153V1.4836Z" stroke="#00AFB5" stroke-width="0.281572"/>
<path fill-rule="evenodd" clip-rule="evenodd" d="M33.3954 11.4086H32.2858V6.02516C32.2858 3.05911 30.2252 1.43069 28.0847 1.43069C26.2345 1.43069 23.883 2.79274 23.883 6.02516L23.936 11.4086H22.8789V0.414062H23.936V2.55079C24.9669 1.08209 26.4465 0.414062 28.1372 0.414062C31.2817 0.414062 33.3954 2.73809 33.3954 6.10422V11.4086Z" fill="#00AFB5"/>
<path fill-rule="evenodd" clip-rule="evenodd" d="M33.3954 11.4086H32.2858V6.02516C32.2858 3.05911 30.2252 1.43069 28.0847 1.43069C26.2345 1.43069 23.883 2.79274 23.883 6.02516L23.936 11.4086H22.8789V0.414062H23.936V2.55079C24.9669 1.08209 26.4465 0.414062 28.1372 0.414062C31.2817 0.414062 33.3954 2.73809 33.3954 6.10422V11.4086Z" stroke="#00AFB5" stroke-width="0.281572"/>
<path fill-rule="evenodd" clip-rule="evenodd" d="M91.7143 11.4086H90.6047V6.02516C90.6047 3.05911 88.544 1.43069 86.4035 1.43069C84.5533 1.43069 82.2019 2.79274 82.2019 6.02516L82.2549 11.4086H81.1978V0.414062H82.2549V2.55079C83.2857 1.08209 84.7654 0.414062 86.456 0.414062C89.6006 0.414062 91.7143 2.73809 91.7143 6.10422V11.4086Z" fill="#00AFB5"/>
<path fill-rule="evenodd" clip-rule="evenodd" d="M91.7143 11.4086H90.6047V6.02516C90.6047 3.05911 88.544 1.43069 86.4035 1.43069C84.5533 1.43069 82.2019 2.79274 82.2019 6.02516L82.2549 11.4086H81.1978V0.414062H82.2549V2.55079C83.2857 1.08209 84.7654 0.414062 86.456 0.414062C89.6006 0.414062 91.7143 2.73809 91.7143 6.10422V11.4086Z" stroke="#00AFB5" stroke-width="0.281572"/>
<path fill-rule="evenodd" clip-rule="evenodd" d="M98.322 2.66716C97.955 1.80894 97.2232 1.4336 96.4643 1.4336C95.261 1.4336 94.6591 2.37115 94.6591 3.17613C94.6591 4.24784 95.4965 4.59603 96.5433 5.02514C97.6166 5.45372 98.611 5.74867 99.2909 6.63298C99.7353 7.19625 99.8408 7.78561 99.8408 8.40213C99.8408 10.8948 98.0086 11.8867 96.3598 11.8867C94.5801 11.8867 93.1148 10.8149 92.6704 8.99202L93.6913 8.66992C94.0582 10.1175 95.1836 10.8671 96.3614 10.8671C97.7222 10.8671 98.742 9.87473 98.742 8.45483C98.742 7.22234 97.9831 6.76607 96.3614 6.09579C95.288 5.64059 94.5037 5.29134 94.0328 4.6482C93.7968 4.32611 93.5613 3.87091 93.5613 3.22831C93.5613 1.5667 94.7916 0.414062 96.4133 0.414062C97.6702 0.414062 98.7165 1.00342 99.2129 2.18321L98.322 2.66716Z" fill="#00AFB5"/>
<path fill-rule="evenodd" clip-rule="evenodd" d="M98.322 2.66716C97.955 1.80894 97.2232 1.4336 96.4643 1.4336C95.261 1.4336 94.6591 2.37115 94.6591 3.17613C94.6591 4.24784 95.4965 4.59603 96.5433 5.02514C97.6166 5.45372 98.611 5.74867 99.2909 6.63298C99.7353 7.19625 99.8408 7.78561 99.8408 8.40213C99.8408 10.8948 98.0086 11.8867 96.3598 11.8867C94.5801 11.8867 93.1148 10.8149 92.6704 8.99202L93.6913 8.66992C94.0582 10.1175 95.1836 10.8671 96.3614 10.8671C97.7222 10.8671 98.742 9.87473 98.742 8.45483C98.742 7.22234 97.9831 6.76607 96.3614 6.09579C95.288 5.64059 94.5037 5.29134 94.0328 4.6482C93.7968 4.32611 93.5613 3.87091 93.5613 3.22831C93.5613 1.5667 94.7916 0.414062 96.4133 0.414062C97.6702 0.414062 98.7165 1.00342 99.2129 2.18321L98.322 2.66716Z" stroke="#00AFB5" stroke-width="0.281572"/>
<path fill-rule="evenodd" clip-rule="evenodd" d="M55.6326 0.414062V10.3392H61.5986V11.4086H54.4282V0.414062H55.6326Z" fill="#00AFB5"/>
<path fill-rule="evenodd" clip-rule="evenodd" d="M55.6326 0.414062V10.3392H61.5986V11.4086H54.4282V0.414062H55.6326Z" stroke="#00AFB5" stroke-width="0.281572"/>
<path fill-rule="evenodd" clip-rule="evenodd" d="M7.79903 4.51898C7.79903 6.76353 6.23711 7.84282 3.93446 7.84282H1.605V1.48327H3.94445C6.14143 1.48327 7.66392 2.46652 7.79903 4.50678V4.51898ZM9.01607 4.47335C8.85152 1.75018 6.8091 0.414062 3.89136 0.414062H0.45473H0.441061L0.411621 11.4086H1.57556L1.605 8.9115H3.88189C6.92581 8.9115 9.01607 7.45759 9.01607 4.49139V4.47335Z" fill="#00AFB5"/>
<path fill-rule="evenodd" clip-rule="evenodd" d="M7.79903 4.51898C7.79903 6.76353 6.23711 7.84282 3.93447 7.84282H1.605V1.48327H3.94445C6.14143 1.48327 7.66392 2.46652 7.79903 4.50678V4.51898ZM9.01607 4.47335C8.85152 1.75018 6.8091 0.414062 3.89136 0.414062H0.45473H0.441061L0.411621 11.4086H1.57556L1.605 8.91151H3.88189C6.92581 8.91151 9.01607 7.45759 9.01607 4.49139V4.47335Z" stroke="#00AFB5" stroke-width="0.281572"/>
<path fill-rule="evenodd" clip-rule="evenodd" d="M66.8998 10.8679C64.2538 10.8679 62.2551 8.80473 62.2551 6.14983C62.2551 3.49599 64.2538 1.43284 66.8998 1.43284C68.0778 1.43284 69.1279 1.84227 69.9299 2.53105C69.9245 2.53745 69.9197 2.54385 69.9149 2.54971C69.7328 2.77789 69.5684 3.02045 69.4239 3.27688C68.9512 4.11387 68.6837 5.09266 68.6837 6.14983C68.6837 7.20806 68.9512 8.18578 69.4255 9.02384C69.6022 8.86444 69.7628 8.68744 69.9057 8.49552C70.0099 8.35638 70.1055 8.20711 70.1904 8.05251C69.9498 7.47461 69.8182 6.83114 69.8182 6.14983C69.8182 3.49599 71.8169 1.43284 74.464 1.43284C77.11 1.43284 79.1087 3.49599 79.1087 6.14983C79.1087 8.80313 77.11 10.8679 74.464 10.8679C73.2849 10.8679 72.2348 10.4579 71.4328 9.76966C71.601 9.56175 71.7541 9.34157 71.8894 9.1086C72.3949 8.25189 72.6801 7.24324 72.6801 6.14823C72.6801 5.05375 72.3938 4.04563 71.8894 3.18838C71.587 3.4592 71.3286 3.77641 71.1256 4.13359C71.3963 4.74134 71.5456 5.42266 71.5456 6.14716C71.5456 6.87326 71.3942 7.55298 71.1256 8.16179C70.8404 8.80953 69.6414 10.8679 66.8998 10.8679ZM74.4629 0.414062C72.9976 0.414062 71.6837 0.916255 70.6814 1.76071C69.6774 0.915189 68.3652 0.414062 66.8998 0.414062C63.6323 0.414062 61.1206 2.9069 61.1206 6.14983C61.1206 9.39222 63.6323 11.8867 66.8998 11.8867C68.3652 11.8867 69.6774 11.3845 70.6814 10.5389C71.6837 11.3845 72.9976 11.8867 74.4629 11.8867C77.7299 11.8867 80.2416 9.39328 80.2416 6.14983C80.2432 2.90583 77.7315 0.414062 74.4629 0.414062Z" fill="#00AFB5"/>
<path fill-rule="evenodd" clip-rule="evenodd" d="M66.8998 10.8679C64.2538 10.8679 62.2551 8.80473 62.2551 6.14983C62.2551 3.49599 64.2538 1.43284 66.8998 1.43284C68.0778 1.43284 69.1279 1.84227 69.9299 2.53105C69.9245 2.53745 69.9197 2.54385 69.9149 2.54971C69.7328 2.77789 69.5684 3.02045 69.4239 3.27688C68.9512 4.11387 68.6837 5.09266 68.6837 6.14983C68.6837 7.20805 68.9512 8.18578 69.4255 9.02384C69.6022 8.86444 69.7628 8.68744 69.9057 8.49552C70.0099 8.35638 70.1055 8.20711 70.1904 8.05251C69.9498 7.47461 69.8182 6.83114 69.8182 6.14983C69.8182 3.49599 71.8169 1.43284 74.464 1.43284C77.11 1.43284 79.1087 3.49599 79.1087 6.14983C79.1087 8.80313 77.11 10.8679 74.464 10.8679C73.2849 10.8679 72.2348 10.4579 71.4328 9.76966C71.601 9.56175 71.7541 9.34157 71.8894 9.1086C72.3949 8.25189 72.6801 7.24324 72.6801 6.14823C72.6801 5.05375 72.3938 4.04563 71.8894 3.18838C71.587 3.4592 71.3286 3.77641 71.1256 4.13359C71.3963 4.74134 71.5456 5.42266 71.5456 6.14716C71.5456 6.87326 71.3942 7.55298 71.1256 8.16179C70.8404 8.80953 69.6414 10.8679 66.8998 10.8679ZM74.4629 0.414062C72.9976 0.414062 71.6837 0.916255 70.6814 1.76071C69.6774 0.915189 68.3652 0.414062 66.8998 0.414062C63.6323 0.414062 61.1206 2.9069 61.1206 6.14983C61.1206 9.39222 63.6323 11.8867 66.8998 11.8867C68.3652 11.8867 69.6774 11.3845 70.6814 10.5389C71.6837 11.3845 72.9976 11.8867 74.4629 11.8867C77.7299 11.8867 80.2416 9.39329 80.2416 6.14983C80.2432 2.90583 77.7315 0.414062 74.4629 0.414062Z" stroke="#00AFB5" stroke-width="0.281572"/>
</svg>
