<svg width="72" height="27" viewBox="0 0 72 27" fill="none" xmlns="http://www.w3.org/2000/svg">
<path d="M9.38567 27.0024H0.690991C0.690991 18.4543 0.704585 9.90631 0.666522 1.35827C0.663803 0.57894 0.96287 0.573471 1.54469 0.573471C6.15031 0.589878 10.7559 0.581675 15.3643 0.581675C17.8601 1.36374 20.3451 2.15948 21.7725 4.63967C21.8622 4.79553 22.0117 4.92405 22.2156 4.83382C22.4875 4.7135 22.4114 4.45372 22.4114 4.2459C22.425 3.02358 22.425 1.80399 22.4277 0.581675H31.1224C31.155 3.52126 31.2148 6.45811 31.2094 9.39769C31.2094 10.1825 31.3752 10.5516 32.2507 10.5134C33.6943 10.4505 35.1434 10.4505 36.5844 10.5134C37.449 10.5516 37.6338 10.2126 37.6257 9.40863C37.5931 6.46631 37.6311 3.52399 37.6447 0.581675H54.2184C54.8628 3.4611 56.2249 6.07801 57.2145 8.82891C57.4538 9.4934 58.0166 9.48246 58.2558 8.83438C59.2645 6.08348 60.5641 3.43922 61.2818 0.581675C64.4057 0.581675 67.5296 0.573471 70.6562 0.600816C70.8601 0.600816 71.3142 0.250801 71.3359 0.855124C70.9091 1.16686 70.7976 1.67547 70.5801 2.11026C68.0108 7.24564 65.4769 12.3974 62.8805 17.5164C62.3503 18.561 62.1111 19.5919 62.1355 20.7568C62.179 22.8377 62.1165 24.9187 62.1002 26.9996H53.4055C53.3783 24.782 53.3267 22.5643 53.3403 20.3466C53.3457 19.4606 53.1799 18.6704 52.7748 17.8746C51.1707 14.7327 49.6128 11.5634 48.0359 8.4078C47.7803 7.89645 47.6308 7.19369 46.8315 7.40698C46.0485 7.61753 46.421 8.3203 46.4155 8.78516C46.3693 14.8557 46.3611 20.9291 46.3421 26.9996H37.6474C37.6366 24.3718 37.5686 21.7439 37.6366 19.1188C37.6692 17.9375 37.4381 17.3715 36.1086 17.5164C34.9477 17.6422 33.7569 17.6066 32.5878 17.5246C31.5492 17.4508 31.174 17.7406 31.1985 18.859C31.2556 21.5717 31.1604 24.287 31.1278 26.9996H22.4331V14.8393C22.1504 14.8612 22.0933 14.8475 22.0661 14.8722C21.9356 14.9897 21.7833 15.0964 21.6909 15.2413C20.4375 17.191 18.567 18.2082 16.3947 18.7579C14.5296 19.2309 12.621 19.2036 10.7233 19.1325C9.76902 19.0969 9.49714 19.4032 9.49714 20.3521C9.49714 22.567 9.67658 24.7902 9.3911 27.0024H9.38567ZM9.51617 9.9774C9.51617 10.702 9.55423 11.4294 9.50529 12.1513C9.45364 12.9197 9.73639 13.185 10.5085 13.1576C11.7265 13.1139 12.9554 13.0482 13.4666 11.7275C14.0049 10.3384 14.1218 8.85079 13.2382 7.56011C12.4742 6.4417 11.1447 6.42529 10.0191 6.65772C8.96154 6.87648 9.69289 7.95114 9.53248 8.62383C9.42917 9.05314 9.51345 9.52621 9.51345 9.9774H9.51617Z" fill="#FEE401"/>
</svg>
