<svg width="100" height="40" viewBox="0 0 100 40" fill="none" xmlns="http://www.w3.org/2000/svg">
<path d="M100 36.6196C66.6662 36.6196 33.3338 36.6196 0 36.6196C0 25.4131 0 14.2065 0 3C33.3338 3 66.6662 3 100 3C100 14.2065 100 25.4131 100 36.6196ZM0.175063 3.11083V36.5227H99.8678V3.11083H0.175063Z" fill="white"/>
<path d="M0.175049 3.11083H99.8677V36.5227H0.175049V3.11083ZM58.7808 25.6902C58.7808 25.5705 58.7733 25.466 58.7808 25.364C58.9307 23.6826 59.0793 22 59.2342 20.3199C59.403 18.4836 59.5693 16.6474 59.7531 14.8123C59.9559 12.8035 59.3098 11.1562 57.6902 9.92318C56.9849 9.38665 56.267 9.40554 55.5844 9.96222C55.0504 10.398 54.5441 10.8665 54.0214 11.3161C53.7204 11.5756 53.4106 11.8262 53.0869 12.097C52.8879 11.8438 52.7242 11.6272 52.5529 11.4169C52.1902 10.9748 51.8501 10.5113 51.4534 10.102C50.8677 9.49496 50.1788 9.4534 49.539 9.99244C48.9735 10.4698 48.4546 11.0013 47.9118 11.5063C47.6788 11.7242 47.437 11.9333 47.1725 12.17C46.9761 11.8212 46.8211 11.5214 46.6423 11.2368C46.4358 10.9081 46.2179 10.5844 45.9849 10.272C45.7405 9.94333 45.398 9.8728 45.0466 10.0554C43.9383 10.6285 42.8375 11.2128 41.7431 11.8123C41.4282 11.9849 41.4635 12.3224 41.8035 12.4509C42.0302 12.5365 42.2821 12.5668 42.5239 12.6058C43.1108 12.7015 43.5101 13.0365 43.6536 13.5995C43.7708 14.0592 43.8577 14.5416 43.8602 15.0151C43.8854 19.2922 43.8879 23.5693 43.8992 27.8464C43.8992 28.0063 43.9131 28.1663 43.9232 28.3703C44.1385 28.2834 44.3035 28.2393 44.4458 28.1562C45.2103 27.7154 45.966 27.2569 46.7342 26.8224C47.0075 26.6688 47.097 26.4698 47.097 26.1637C47.0944 23.1738 47.107 20.1839 47.1133 17.194C47.1159 16.3098 47.102 15.4257 47.1209 14.5416C47.1373 13.7708 47.4824 13.165 48.1599 12.7821C48.6033 12.5315 49.005 12.6448 49.2632 13.0756C49.3753 13.262 49.4849 13.471 49.5126 13.6814C49.5844 14.2204 49.6461 14.7645 49.6486 15.306C49.665 19.2708 49.6637 23.2368 49.675 27.2015C49.675 27.529 49.7204 27.8564 49.7456 28.1839C49.7846 28.2091 49.8249 28.2343 49.864 28.2594C50.7015 27.7191 51.534 27.17 52.3816 26.6448C52.7594 26.4106 52.8992 26.0882 52.8955 25.6675C52.8917 25.2254 52.898 24.7834 52.8992 24.3413C52.9118 21.1045 52.9244 17.8678 52.9383 14.6297C52.942 13.6184 53.471 12.9118 54.2997 12.4144C54.908 12.0504 55.5541 12.2708 55.869 12.9068C56.267 13.7116 56.3551 14.5693 56.2783 15.4509C56.1385 17.0554 55.9912 18.6587 55.8489 20.2632C55.6763 22.204 55.5025 24.1436 55.3375 26.0856C55.2745 26.83 55.2368 27.5756 55.1813 28.4106C56.8652 27.7544 58.4836 27.1864 60.0201 26.2179C59.5352 26.0101 59.1549 25.8476 58.7783 25.6877L58.7808 25.6902ZM10.7972 21.7796L10.9849 21.7393C11.3552 22.4496 11.7393 23.1524 12.0932 23.8703C12.6297 24.9547 13.1713 26.0403 13.9824 26.9484C14.3577 27.369 14.7871 27.7695 15.2632 28.0617C15.5504 28.238 16.0063 28.3073 16.3337 28.2217C17.0302 28.039 17.6171 27.6134 18.1259 27.0894C18.2972 26.9131 18.2922 26.7859 18.1524 26.5945C17.6625 25.9219 17.1902 25.238 16.7128 24.5567C15.8841 23.3728 15.131 22.1486 14.6398 20.7783C14.5239 20.4547 14.5428 20.2066 14.8274 19.9975C15.4861 19.5126 16.136 19.0176 16.8023 18.5441C17.3426 18.1587 17.6927 17.6486 17.7405 16.9975C17.7897 16.33 17.8174 15.6461 17.7305 14.9849C17.5138 13.3312 17.0201 11.7607 15.9609 10.4345C15.6599 10.0579 15.2557 9.74811 14.8551 9.47229C14.4748 9.21033 14.039 9.233 13.6436 9.49874C12.9421 9.96977 12.2456 10.4471 11.5453 10.9207C11.3337 11.063 11.1196 11.2015 10.9068 11.3426C10.6461 10.8942 10.4345 10.4597 10.1587 10.0718C9.58941 9.26826 8.98361 9.14106 8.14104 9.63098C7.34381 10.0945 6.55162 10.568 5.77832 11.0693C5.48613 11.2594 5.25565 11.5416 4.99747 11.7821L5.05918 11.8929C5.5151 11.966 5.97102 12.0453 6.4282 12.1121C6.79847 12.1662 7.01132 12.3942 7.102 12.7292C7.16245 12.9509 7.18764 13.1877 7.1889 13.4194C7.21283 18.1625 7.23172 22.9068 7.25062 27.6499C7.25062 27.7872 7.25062 27.9232 7.25062 28.0919C7.40805 28.0529 7.51006 28.0365 7.60578 28.0013C8.54533 27.6625 9.48109 27.3098 10.4257 26.9836C10.7015 26.8879 10.8073 26.7494 10.8048 26.4534C10.7909 24.8955 10.7985 23.3375 10.7985 21.7809L10.7972 21.7796ZM83.9647 6.69144C84.2078 7.01763 84.4118 7.39043 84.7065 7.66877C85.6599 8.56927 86.641 9.44081 87.6209 10.3123C88.5617 11.1486 89.5151 11.971 90.4635 12.7998C90.6763 12.9861 90.6851 13.1713 90.4446 13.335C89.8766 13.7217 89.3262 14.1385 88.7305 14.4773C87.4811 15.1877 86.5655 16.1688 86.102 17.539C85.4836 19.3665 85.1977 21.2443 85.3148 23.1725C85.3904 24.4295 85.6826 25.6373 86.296 26.7469C87.0667 28.1436 88.1234 28.6436 89.6524 28.2053C90.9219 27.8413 92.1536 27.3413 93.3892 26.8703C93.6839 26.7582 93.9483 26.5403 94.1939 26.3312C94.6839 25.9144 94.932 25.3778 94.9358 24.7242C94.9496 21.3841 94.9584 18.0428 94.9949 14.7028C95.0088 13.4345 94.6083 12.335 93.8249 11.3577C92.9383 10.2532 91.8426 9.37909 90.7229 8.52519C89.796 7.81738 88.9194 7.04156 88.0239 6.29345C87.8085 6.11335 87.7682 5.9068 87.8917 5.63854C88.0088 5.38413 88.073 5.10579 88.1625 4.83249C87.4269 4.67884 85.1738 5.68136 83.9647 6.69018V6.69144ZM32.0151 9.71411C31.6939 9.84635 31.4005 9.9471 31.1259 10.0844C29.9408 10.6763 28.7645 11.2872 27.5756 11.8715C27.2355 12.0378 27.3262 12.3023 27.3892 12.5327C27.4169 12.6348 27.6171 12.733 27.7519 12.7569C28.1612 12.83 28.5756 12.8854 28.9899 12.9081C29.2972 12.9244 29.4332 13.0542 29.5352 13.3438C31.1826 18.0038 32.8375 22.6587 34.5075 27.3111C34.6133 27.6045 34.7972 27.9093 35.0315 28.1071C35.3539 28.3816 35.5038 28.6474 35.3816 29.0642C35.1612 29.8199 35.0012 30.5957 34.733 31.3325C34.5693 31.7821 34.1499 32.0113 33.6473 32.034C33.1625 32.0567 32.9068 31.7481 32.7317 31.3703C32.4861 30.8413 32.2657 30.301 32.0567 29.7569C31.9773 29.5504 31.8728 29.4723 31.6524 29.5101C30.6524 29.6801 29.7179 30.0176 28.8892 30.6108C28.5932 30.8224 28.4559 31.1222 28.5126 31.4937C28.6373 32.301 28.9194 33.0416 29.3803 33.7229C30.6373 35.5819 33.4735 35.403 34.6222 34.2103C35.3111 33.4937 35.772 32.6763 36.0201 31.7317C37.8174 24.8967 39.6108 18.0605 41.3992 11.2229C41.534 10.7053 41.6146 10.1738 41.7229 9.63476C40.272 9.6398 39.5453 10.2884 39.34 11.3086C38.7179 14.398 38.0101 17.4698 37.3287 20.5466C37.1612 21.3048 36.9672 22.0579 36.7846 22.8136L36.6536 22.8249C34.9912 18.5113 33.7015 14.0617 32.0151 9.71411ZM70.9572 12.1108L71.0289 12.3073C71.4849 12.3791 71.9395 12.4736 72.398 12.5151C73.1599 12.5844 73.5176 12.8275 73.5869 13.5844C73.6839 14.6436 73.7116 15.7103 73.7179 16.7746C73.738 20.0365 73.7305 23.2998 73.7431 26.5617C73.7456 27.1675 73.7859 27.7733 73.8111 28.4282C74.0365 28.3463 74.2216 28.3111 74.3715 28.2179C75.1121 27.762 75.8375 27.2834 76.5793 26.8312C76.8337 26.6763 76.908 26.4861 76.9068 26.194C76.903 22.6448 76.9206 19.097 76.9156 15.5479C76.9131 14.1461 77.6272 13.1587 78.7141 12.4068C79.408 11.927 80.1801 12.1889 80.4257 12.9924C80.5781 13.4899 80.6461 14.0416 80.6146 14.5605C80.4962 16.4786 80.3186 18.3929 80.1675 20.3086C80.0038 22.3929 79.8375 24.4773 79.6914 26.563C79.6524 27.1259 79.6851 27.694 79.6851 28.301C81.2204 27.7834 82.539 26.869 83.9307 25.9471C83.665 25.7594 83.442 25.5844 83.2015 25.4383C83.0012 25.3161 82.9257 25.1814 82.9521 24.9333C83.029 24.2229 83.0718 23.5101 83.1259 22.7972C83.3325 20.0907 83.5415 17.3841 83.7418 14.6776C83.7808 14.1474 83.8489 13.6083 83.7922 13.0856C83.6335 11.631 82.8665 10.5202 81.6939 9.67506C80.9622 9.14862 80.2934 9.20025 79.6688 9.84383C78.9534 10.5806 78.2557 11.3363 77.5453 12.0781C77.3992 12.2305 77.2267 12.3589 77.0541 12.5101C76.7242 11.8111 76.4169 11.1562 76.1058 10.5013C75.9055 10.0781 75.5579 9.92443 75.1121 9.99622C74.8967 10.0315 74.6776 10.0869 74.4798 10.1763C73.5327 10.6045 72.5844 11.0302 71.6562 11.4975C71.3879 11.6322 71.1876 11.9005 70.9559 12.1083L70.9572 12.1108ZM18.4899 12.9383L18.5693 13.131C19.3463 13.131 20.1222 13.1272 20.8992 13.131C21.5894 13.1348 22.2796 13.136 22.9685 13.17C23.1146 13.1776 23.3539 13.2972 23.3829 13.4081C23.6473 14.437 23.8854 15.4723 24.1033 16.5126C24.1272 16.6272 24.0126 16.8312 23.903 16.9043C23.4912 17.1763 23.0516 17.4043 22.6297 17.6587C21.5642 18.3023 20.471 18.9081 19.4458 19.6121C18.5327 20.2393 18.1209 21.1801 18.1133 22.296C18.0957 25.0554 20.17 27.6486 22.8753 28.2582C24.1285 28.5403 25.199 28.3741 25.9106 27.1637C26.0378 26.9458 26.2267 26.7645 26.4055 26.5416C26.5567 26.7317 26.675 26.8854 26.7972 27.034C27.1196 27.4257 27.4358 27.8212 27.772 28.2003C27.84 28.2771 28.0201 28.3514 28.0894 28.3149C28.9597 27.8602 29.8199 27.3841 30.7053 26.9018C30.432 26.4975 30.1801 26.1927 30.005 25.8489C29.7481 25.3438 29.4584 24.83 29.335 24.2859C28.573 20.9484 27.8552 17.6008 27.1184 14.2569C26.8111 12.864 26.4861 11.4761 26.1788 10.0831C26.1033 9.74056 25.9521 9.60454 25.5693 9.61461C24.4244 9.6461 23.2745 9.68136 22.1335 9.60328C21.3312 9.54912 20.7985 9.79093 20.3526 10.4509C19.7733 11.3073 19.1146 12.1108 18.4912 12.9383H18.4899ZM71.2443 19.1688C71.1184 17.4333 71.0478 15.6914 70.8501 13.9647C70.675 12.4333 70.034 11.1033 68.7179 10.1763C68.0957 9.73804 67.3942 9.59824 66.7166 9.87028C64.9647 10.5718 63.3929 11.5491 62.3942 13.2267C61.636 14.5013 61.3262 15.9169 61.1574 17.3728C60.9383 19.2645 60.9458 21.1574 61.0818 23.0542C61.1864 24.5101 61.6096 25.8526 62.4055 27.0768C63.1788 28.2657 64.4232 28.699 65.7154 28.1285C66.7708 27.6625 67.7997 27.1259 68.7922 26.539C69.8186 25.9307 70.4521 25.0038 70.7078 23.8136C71.0365 22.2821 71.1914 20.738 71.2443 19.1688Z" fill="#ED1B34"/>
<path d="M58.7809 25.6902C59.1574 25.8514 59.5378 26.0139 60.0227 26.2204C58.4862 27.1902 56.869 27.7569 55.1839 28.4131C55.2393 27.5781 55.2771 26.8312 55.3401 26.0882C55.5051 24.1474 55.6789 22.2066 55.8514 20.2657C55.9937 18.6612 56.1411 17.0579 56.2809 15.4534C56.3577 14.573 56.2708 13.7154 55.8716 12.9093C55.5567 12.2733 54.9106 12.0516 54.3023 12.4169C53.4736 12.9131 52.9459 13.6196 52.9408 14.6322C52.927 17.869 52.9144 21.1058 52.9018 24.3438C52.9005 24.7859 52.8942 25.228 52.898 25.67C52.9018 26.0894 52.762 26.4131 52.3841 26.6474C51.5365 27.1713 50.7053 27.7217 49.8665 28.262C49.8275 28.2368 49.7872 28.2116 49.7481 28.1864C49.7242 27.8589 49.6789 27.5315 49.6776 27.204C49.6675 23.2393 49.6675 19.2733 49.6511 15.3086C49.6486 14.7657 49.5869 14.2217 49.5151 13.6839C49.4874 13.4736 49.3766 13.2645 49.2658 13.0781C49.0076 12.6474 48.6045 12.534 48.1625 12.7846C47.4849 13.1675 47.1398 13.772 47.1234 14.5441C47.1045 15.4282 47.1171 16.3123 47.1159 17.1965C47.1083 20.1864 47.097 23.1763 47.0995 26.1663C47.0995 26.4736 47.0101 26.6713 46.7368 26.8249C45.9685 27.2594 45.2129 27.7179 44.4484 28.1587C44.3061 28.2406 44.1411 28.2859 43.9257 28.3728C43.9156 28.1688 43.903 28.0088 43.9018 27.8489C43.8904 23.5718 43.8879 19.2947 43.8627 15.0176C43.8602 14.5441 43.7746 14.0617 43.6562 13.602C43.5126 13.039 43.1134 12.704 42.5265 12.6083C42.2834 12.5693 42.0328 12.539 41.8061 12.4534C41.466 12.3249 41.4307 11.9874 41.7456 11.8149C42.8388 11.2154 43.9408 10.631 45.0491 10.0579C45.4005 9.87658 45.7431 9.94585 45.9874 10.2746C46.2192 10.5869 46.437 10.9106 46.6448 11.2393C46.8237 11.5239 46.9786 11.8237 47.1751 12.1725C47.4396 11.9358 47.6801 11.7254 47.9144 11.5088C48.4572 11.0038 48.9761 10.471 49.5416 9.99496C50.1814 9.45592 50.869 9.49748 51.4559 10.1045C51.8514 10.5139 52.1927 10.9773 52.5554 11.4194C52.728 11.6297 52.8917 11.8463 53.0894 12.0995C53.4144 11.8287 53.7229 11.5781 54.0239 11.3186C54.5466 10.869 55.0542 10.4005 55.5869 9.96474C56.2695 9.4068 56.9874 9.38791 57.6927 9.92569C59.3124 11.1574 59.9572 12.806 59.7557 14.8149C59.5705 16.6499 59.4056 18.4861 59.2368 20.3224C59.0819 22.0038 58.9333 23.6851 58.7834 25.3665C58.7746 25.4685 58.7834 25.5718 58.7834 25.6927L58.7809 25.6902Z" fill="white"/>
<path d="M10.7972 21.7809C10.7972 23.3388 10.7897 24.8967 10.8035 26.4534C10.806 26.7506 10.7002 26.8892 10.4244 26.9836C9.47984 27.3098 8.54408 27.6612 7.60453 28.0013C7.50881 28.0353 7.4068 28.0516 7.24936 28.0919C7.24936 27.9232 7.24936 27.7872 7.24936 27.6499C7.23047 22.9068 7.21158 18.1625 7.18765 13.4194C7.18765 13.1889 7.1612 12.9521 7.10075 12.7292C7.01007 12.3942 6.79722 12.165 6.42695 12.1121C5.96977 12.0453 5.51385 11.9673 5.05793 11.8929L4.99622 11.7821C5.2544 11.5416 5.48614 11.2594 5.77707 11.0693C6.55037 10.5668 7.34256 10.0932 8.13979 9.63098C8.98236 9.14106 9.58816 9.26952 10.1574 10.0718C10.4332 10.461 10.6448 10.8942 10.9055 11.3426C11.1196 11.2015 11.3337 11.063 11.5441 10.9207C12.2443 10.4471 12.9408 9.96977 13.6423 9.49874C14.0378 9.233 14.4723 9.20907 14.8539 9.47229C15.2544 9.74811 15.6599 10.0579 15.9597 10.4345C17.0189 11.7607 17.5126 13.3312 17.7292 14.9849C17.8161 15.6461 17.7884 16.3287 17.7393 16.9975C17.6914 17.6486 17.3413 18.16 16.801 18.5441C16.1348 19.0176 15.4849 19.5139 14.8262 19.9975C14.5428 20.2066 14.5227 20.4547 14.6385 20.7783C15.1297 22.1486 15.8829 23.3728 16.7116 24.5567C17.1889 25.238 17.6612 25.9219 18.1511 26.5945C18.2909 26.7872 18.296 26.9131 18.1247 27.0894C17.6171 27.6134 17.029 28.039 16.3325 28.2217C16.0063 28.3073 15.5504 28.2393 15.262 28.0617C14.7859 27.7683 14.3564 27.369 13.9811 26.9484C13.17 26.039 12.6285 24.9547 12.0919 23.8703C11.7368 23.1524 11.3539 22.4496 10.9836 21.7393L10.796 21.7796L10.7972 21.7809ZM10.8627 16.3501H10.8224C10.8627 17.1801 10.9169 18.0088 10.937 18.8375C10.9446 19.1247 11.0793 19.238 11.3249 19.262C11.7884 19.306 12.2544 19.3463 12.7191 19.3678C13.6965 19.4144 14.0995 18.7469 14.1877 18.1108C14.3539 16.9005 14.3904 15.6776 14.1171 14.4723C13.9332 13.66 13.5378 12.9446 12.9723 12.3363C12.5806 11.9144 12.199 11.9345 11.8136 12.3615C11.1814 13.063 10.8161 13.8652 10.8577 14.8325C10.8791 15.3375 10.8615 15.8451 10.8615 16.3501H10.8627Z" fill="white"/>
<path d="M83.9647 6.69143C85.175 5.68261 87.4282 4.6801 88.1625 4.83375C88.073 5.10579 88.0101 5.38538 87.8917 5.63979C87.7682 5.90805 87.8085 6.1146 88.0239 6.2947C88.9206 7.04282 89.796 7.81863 90.7229 8.52644C91.8426 9.38161 92.9383 10.2544 93.8249 11.3589C94.6083 12.335 95.0088 13.4358 94.995 14.704C94.9584 18.0441 94.9496 21.3854 94.9358 24.7254C94.9332 25.3791 94.6839 25.9169 94.1939 26.3325C93.9484 26.5416 93.6839 26.7582 93.3892 26.8715C92.1536 27.3426 90.9219 27.8426 89.6524 28.2065C88.1247 28.6448 87.068 28.1448 86.296 26.7481C85.6839 25.6385 85.3917 24.4307 85.3149 23.1738C85.1977 21.2456 85.4836 19.3678 86.102 17.5403C86.5655 16.17 87.4798 15.1889 88.7305 14.4786C89.3262 14.1398 89.8766 13.7229 90.4446 13.3363C90.6851 13.1725 90.6763 12.9874 90.4635 12.801C89.5151 11.9723 88.5617 11.1499 87.6209 10.3136C86.641 9.44206 85.6599 8.57052 84.7065 7.67002C84.4118 7.39168 84.2078 7.01889 83.9647 6.69269V6.69143ZM91.5592 20.1473H91.5529C91.5529 18.602 91.5579 17.0567 91.5504 15.5113C91.5478 14.8627 91.3111 14.7191 90.7204 15.0315C90.4874 15.1536 90.2544 15.3413 90.1133 15.5592C89.898 15.8917 89.699 16.2607 89.6045 16.6411C89.0138 19.0428 88.5844 21.4672 88.8463 23.9572C88.9206 24.665 88.9912 25.3841 89.5063 25.9534C90.1159 26.6285 90.9924 26.5151 91.3816 25.6889C91.4836 25.4723 91.5491 25.2166 91.5516 24.9786C91.5667 23.369 91.5592 21.7582 91.5592 20.1473Z" fill="white"/>
<path d="M32.0151 9.7141C33.7027 14.0617 34.9911 18.5101 36.6536 22.8249L36.7846 22.8136C36.9672 22.0579 37.1612 21.3048 37.3287 20.5466C38.01 17.4698 38.7178 14.398 39.34 11.3086C39.5453 10.2884 40.272 9.6398 41.7229 9.63476C41.6146 10.1738 41.5352 10.7053 41.3992 11.2229C39.6108 18.0605 37.8173 24.8955 36.0201 31.7317C35.772 32.6776 35.311 33.4937 34.6221 34.2103C33.4735 35.4043 30.6372 35.5819 29.3803 33.7229C28.9193 33.0416 28.6372 32.301 28.5125 31.4937C28.4559 31.1209 28.5931 30.8224 28.8891 30.6108C29.7178 30.0176 30.6511 29.6801 31.6523 29.5101C31.8727 29.4723 31.9773 29.5504 32.0566 29.7569C32.2657 30.301 32.4861 30.8426 32.7317 31.3703C32.9067 31.7481 33.1624 32.0554 33.6473 32.034C34.1498 32.0113 34.5692 31.7821 34.7329 31.3325C35.0012 30.5957 35.1612 29.8199 35.3816 29.0642C35.5025 28.6474 35.3538 28.3816 35.0314 28.1071C34.7972 27.9081 34.612 27.6045 34.5075 27.3111C32.8375 22.6599 31.1826 18.0038 29.5352 13.3438C29.4332 13.0554 29.2972 12.9257 28.9899 12.9081C28.5755 12.8854 28.1612 12.8287 27.7518 12.7569C27.6171 12.733 27.4168 12.636 27.3891 12.5327C27.3261 12.3023 27.2367 12.039 27.5755 11.8715C28.7644 11.2872 29.9408 10.6763 31.1259 10.0844C31.4017 9.9471 31.6952 9.84635 32.0151 9.7141Z" fill="white"/>
<path d="M70.9572 12.1108C71.1889 11.9043 71.3891 11.6348 71.6574 11.5C72.5856 11.0327 73.534 10.6071 74.4811 10.1788C74.6788 10.0894 74.898 10.0327 75.1133 9.99874C75.5592 9.9257 75.9068 10.0806 76.107 10.5038C76.4168 11.1587 76.7254 11.8149 77.0554 12.5126C77.2279 12.3627 77.3992 12.2343 77.5466 12.0806C78.2569 11.3388 78.9546 10.5831 79.67 9.84635C80.2947 9.20277 80.9634 9.14988 81.6952 9.67758C82.8677 10.5214 83.6335 11.6335 83.7934 13.0882C83.8501 13.6108 83.7821 14.1499 83.743 14.6801C83.5428 17.3867 83.3337 20.0932 83.1272 22.7998C83.073 23.5126 83.0302 24.2254 82.9534 24.9358C82.9269 25.1839 83.0025 25.3186 83.2027 25.4408C83.4433 25.5869 83.6662 25.762 83.932 25.9496C82.5403 26.8715 81.2204 27.7859 79.6864 28.3035C79.6864 27.6965 79.6536 27.1285 79.6927 26.5655C79.8375 24.4799 80.005 22.3955 80.1687 20.3111C80.3186 18.3955 80.4975 16.4811 80.6158 14.563C80.6473 14.0441 80.5793 13.4924 80.4269 12.995C80.1813 12.1914 79.4093 11.9295 78.7153 12.4093C77.6284 13.1612 76.9156 14.1486 76.9168 15.5504C76.9219 19.0995 76.9043 22.6474 76.908 26.1965C76.908 26.4887 76.835 26.6776 76.5806 26.8338C75.8388 27.2859 75.1133 27.7645 74.3728 28.2204C74.2229 28.3123 74.039 28.3476 73.8123 28.4307C73.7871 27.7758 73.7468 27.17 73.7443 26.5642C73.733 23.3023 73.7393 20.039 73.7191 16.7771C73.7128 15.7129 73.6851 14.6461 73.5881 13.5869C73.5189 12.8312 73.1612 12.5882 72.3992 12.5176C71.9408 12.4761 71.4861 12.3804 71.0302 12.3098L70.9584 12.1134L70.9572 12.1108Z" fill="white"/>
<path d="M18.4899 12.9383C19.1146 12.1121 19.772 11.3086 20.3514 10.4509C20.7972 9.79093 21.33 9.54786 22.1322 9.60327C23.2733 9.68136 24.4231 9.64484 25.568 9.61461C25.9509 9.60453 26.102 9.74055 26.1776 10.0831C26.4849 11.4761 26.8098 12.864 27.1171 14.2569C27.8551 17.5995 28.5718 20.9484 29.3337 24.2859C29.4584 24.83 29.7468 25.3438 30.0038 25.8489C30.1788 26.1927 30.4307 26.4975 30.704 26.9018C29.8186 27.3841 28.9584 27.8602 28.0881 28.3149C28.0189 28.3514 27.8388 28.2771 27.7708 28.2003C27.4345 27.8212 27.1171 27.4257 26.7959 27.034C26.6738 26.8854 26.5554 26.7317 26.4043 26.5416C26.2242 26.7645 26.0365 26.9458 25.9093 27.1637C25.1977 28.3728 24.1272 28.5403 22.874 28.2582C20.1687 27.6486 18.0932 25.0554 18.1121 22.296C18.1196 21.1814 18.5315 20.2393 19.4446 19.6121C20.4697 18.9093 21.5617 18.3023 22.6284 17.6587C23.0516 17.403 23.4912 17.1751 23.9017 16.9043C24.0113 16.8312 24.1259 16.6272 24.102 16.5126C23.8841 15.4723 23.6473 14.437 23.3816 13.4081C23.3526 13.2972 23.1146 13.1776 22.9672 13.17C22.2783 13.136 21.5881 13.136 20.898 13.131C20.1209 13.1259 19.3451 13.131 18.568 13.131L18.4886 12.9383H18.4899ZM21.3652 21.6259C21.4005 21.8955 21.4143 22.17 21.4748 22.4333C21.8073 23.8627 22.6876 24.937 23.7607 25.8766C24.4546 26.4849 24.5894 26.4572 25.141 25.7406C25.6876 25.029 25.8954 24.2695 25.6687 23.3741C25.4269 22.4207 25.272 21.4458 25.0478 20.4874C24.9282 19.9736 24.7519 19.4723 24.5869 18.9698C24.5252 18.7821 24.3841 18.7103 24.1864 18.8023C23.6007 19.0768 22.9924 19.3111 22.4332 19.6322C21.6813 20.063 21.3451 20.7569 21.3652 21.6259Z" fill="white"/>
<path d="M71.2444 19.1688C71.1915 20.7368 71.0379 22.2821 70.7079 23.8136C70.4522 25.0025 69.82 25.9307 68.7923 26.539C67.7998 27.1259 66.7696 27.6637 65.7155 28.1285C64.4245 28.699 63.1802 28.2657 62.4056 27.0768C61.6097 25.8539 61.1865 24.5101 61.0819 23.0542C60.9447 21.1574 60.9371 19.2645 61.1575 17.3728C61.3263 15.9169 61.6361 14.5025 62.3943 13.2267C63.393 11.5491 64.9636 10.5718 66.7167 9.87028C67.3943 9.59824 68.0958 9.73804 68.718 10.1763C70.0341 11.1033 70.6739 12.432 70.8502 13.9647C71.0479 15.6914 71.1185 17.4333 71.2444 19.1688ZM66.383 26.5491C66.8993 25.9987 67.2658 25.3854 67.3993 24.6952C67.6374 23.4509 67.8515 22.1965 67.9636 20.9358C68.1537 18.8212 68.0731 16.7078 67.6424 14.6197C67.4535 13.7053 67.257 12.7922 66.6298 12.0416C66.4245 11.796 66.2167 11.7418 66.0139 11.9534C65.7419 12.238 65.4031 12.5378 65.3011 12.8904C64.9938 13.9572 64.7167 15.0416 64.558 16.1385C64.3074 17.864 64.3162 19.6071 64.4636 21.3464C64.5845 22.7708 64.7797 24.1801 65.3099 25.5239C65.5089 26.0265 65.8527 26.3627 66.3817 26.5516L66.383 26.5491Z" fill="white"/>
<path d="M10.8616 16.3501C10.8616 15.8438 10.8792 15.3375 10.8578 14.8325C10.8162 13.8652 11.1815 13.063 11.8137 12.3615C12.1991 11.9345 12.5794 11.9144 12.9724 12.3363C13.5379 12.9458 13.9333 13.6612 14.1172 14.4723C14.3893 15.6776 14.3527 16.9005 14.1877 18.1108C14.1008 18.7481 13.6966 19.4144 12.7192 19.3678C12.2532 19.3451 11.7885 19.306 11.325 19.262C11.0782 19.238 10.9434 19.1247 10.9371 18.8375C10.917 18.0088 10.8628 17.1801 10.8225 16.3526H10.8628L10.8616 16.3501Z" fill="#ED1B34"/>
<path d="M91.5592 20.1474C91.5592 21.7582 91.5667 23.3678 91.5516 24.9786C91.5491 25.2166 91.4836 25.4723 91.3816 25.6889C90.9924 26.5151 90.1158 26.6285 89.5063 25.9534C88.9912 25.3841 88.9206 24.665 88.8463 23.9572C88.5856 21.4673 89.0138 19.0428 89.6045 16.6411C89.6977 16.2607 89.898 15.8917 90.1133 15.5592C90.2544 15.3413 90.4874 15.1549 90.7204 15.0315C91.3123 14.7191 91.5478 14.8627 91.5504 15.5113C91.5579 17.0567 91.5529 18.602 91.5529 20.1474H91.5592Z" fill="#ED1B34"/>
<path d="M21.3652 21.6259C21.3451 20.7557 21.6814 20.063 22.4332 19.6322C22.9924 19.3123 23.6007 19.0768 24.1864 18.8023C24.3841 18.7103 24.5252 18.7821 24.5869 18.9698C24.7519 19.4723 24.9282 19.9735 25.0479 20.4874C25.2708 21.4458 25.4269 22.4207 25.6688 23.3741C25.8955 24.2695 25.6877 25.029 25.1411 25.7406C24.5907 26.4572 24.4547 26.4836 23.7607 25.8766C22.6877 24.937 21.8073 23.8627 21.4748 22.4332C21.4131 22.17 21.4005 21.8955 21.3652 21.6259Z" fill="#ED1B34"/>
<path d="M66.3829 26.5491C65.8539 26.3602 65.5101 26.0239 65.3111 25.5214C64.7808 24.1788 64.5856 22.7695 64.4647 21.3438C64.3174 19.6045 64.3086 17.8615 64.5592 16.136C64.7179 15.039 64.995 13.9547 65.3023 12.8879C65.4043 12.5353 65.7418 12.2343 66.0151 11.9509C66.2166 11.7393 66.4257 11.7935 66.631 12.039C67.2582 12.7909 67.4547 13.7028 67.6436 14.6171C68.0743 16.7053 68.1536 18.8186 67.9647 20.9333C67.8514 22.194 67.6385 23.4484 67.4005 24.6927C67.2682 25.3829 66.9005 25.9962 66.3841 26.5466L66.3829 26.5491Z" fill="#ED1B34"/>
</svg>
