<svg width="100" height="23" viewBox="0 0 100 23" fill="none" xmlns="http://www.w3.org/2000/svg">
<path d="M100 14.589V15.6703C99.9307 15.7214 99.825 15.756 99.7976 15.8235C97.7754 20.6684 95.6766 22.0779 90.4542 22.0761C60.7465 22.0652 31.0388 22.0524 1.33112 22.0451C0.888022 22.0451 0.444923 22.1162 0.00182345 22.1527V16.4799C6.21615 16.4599 12.4287 16.4507 18.643 16.4052C19.3942 16.3997 19.5547 16.7115 19.5292 17.3679C19.4927 18.3125 19.5146 19.2589 19.5255 20.2034C19.5292 20.5517 19.48 20.8963 19.9832 21.0386C21.3964 21.4361 22.062 20.9693 22.0638 19.5105C22.0638 18.8358 22.1075 18.1575 22.0528 17.4865C21.9872 16.6787 22.2552 16.3723 23.105 16.3979C24.9503 16.4544 26.7975 16.4124 28.6428 16.4124C48.6826 16.4124 68.7241 16.4124 88.7639 16.4015C89.2453 16.4015 89.8087 16.6021 90.4323 15.9475H86.552C89.548 12.5613 87.9032 10.6576 85.2009 9.50703C84.7505 9.31557 84.3183 9.06576 83.9044 8.80318C83.578 8.59531 83.3847 8.27073 83.5762 7.88234C83.8004 7.4283 84.2362 7.42829 84.6283 7.57417C84.8617 7.65987 85.0258 7.9188 85.2446 8.06286C86.0105 8.56978 86.4098 7.72916 86.9915 7.55776C87.4018 7.43741 87.3307 7.09096 87.1428 6.78644C86.4627 5.68507 85.4561 5.19092 84.1852 5.28027C82.6863 5.38603 81.5102 6.29228 81.2002 7.59423C80.9048 8.836 81.1674 9.93737 82.307 10.6613C82.9854 11.0934 83.7166 11.4454 84.4332 11.8155C84.9985 12.1073 85.6202 12.3571 85.6148 13.1284C85.613 13.5478 85.4343 13.9107 84.982 14.0675C84.2508 14.3191 83.5907 14.1441 83.1768 13.5405C82.3216 12.2933 81.492 13.2852 80.9212 13.6846C80.2484 14.155 81.1637 14.6127 81.3607 15.085C81.4883 15.395 82.0007 15.4296 81.9569 15.9347C79.7852 15.9347 77.6281 15.9311 75.4727 15.9384C75.0278 15.9384 74.6522 15.8909 74.6668 15.3129C74.7178 13.2907 74.4826 11.2575 74.8199 9.2481C75.0625 7.80028 75.9067 7.35171 77.3709 7.76381C77.6171 7.8331 77.9344 8.22514 78.1477 7.72369C78.4194 7.08731 79.2254 6.43998 78.8407 5.82548C78.4614 5.22192 77.5351 5.06875 76.7473 5.23103C76.317 5.31856 75.9085 5.54102 75.511 5.74342C75.1591 5.92212 74.9895 6.35975 74.5118 5.6869C74.1179 5.13257 73.1405 5.37691 72.4841 5.54467C71.8751 5.69966 72.1796 6.39804 72.1759 6.84844C72.1486 9.54897 72.1705 12.2495 72.1522 14.95C72.1504 15.333 72.402 15.9274 71.6289 15.9292C70.812 15.9311 69.9951 15.9292 68.932 15.9292C69.5082 15.4679 69.8474 15.24 70.1318 14.9573C70.4491 14.6419 70.7409 14.2918 70.9962 13.9234C71.1274 13.7338 71.3718 13.5442 71.1749 13.2251C70.6935 12.4428 69.3113 12.3334 68.7114 13.0464C67.2654 14.7622 64.8183 14.4942 63.9686 12.5394C63.6166 11.7298 63.6513 11.305 64.7216 11.3378C66.6107 11.3943 68.5035 11.3505 70.3962 11.3542C70.9068 11.3542 71.3189 11.4052 71.3627 10.6303C71.5013 8.19779 69.8383 5.83642 67.5808 5.40791C64.5885 4.84081 62.1032 6.16282 61.3993 8.79406C60.6553 11.5712 61.186 14.0073 63.8118 15.8891H60.2943C60.5842 15.446 60.5277 15.0047 60.5295 14.5708C60.5332 13.9617 60.5295 13.3509 60.5295 12.6488C57.9548 14.4632 56.4651 14.6091 55.1886 13.2542C54.038 12.0325 53.9669 9.83343 55.0446 8.52966C55.4549 8.03368 55.9508 7.67628 56.6073 7.55047C58.1426 7.25689 59.3935 7.7711 60.5295 9.29186C60.5295 8.12668 60.5076 7.41006 60.5368 6.69527C60.5587 6.17558 60.3691 5.89477 59.8786 5.67596C57.3877 4.56365 54.1274 5.5392 52.6103 7.89145C51.0585 10.2984 51.5563 13.2451 53.8375 15.1324C54.0946 15.3439 54.3608 15.5445 54.8568 15.9347C53.7828 15.9347 53.0224 15.8764 52.2766 15.9493C51.3612 16.0386 51.0111 15.7797 51.0567 14.7914C51.1387 12.9953 51.126 11.1901 51.0622 9.39215C51.0093 7.87504 50.7394 6.39257 49.1348 5.67049C47.8328 5.08516 46.5236 5.11069 45.249 5.79995C44.8825 5.99871 44.6272 6.53845 44.1914 5.68325C43.9142 5.14168 42.9332 5.42067 42.3023 5.52279C41.6057 5.63584 41.9157 6.32693 41.9103 6.75726C41.8774 8.91806 41.8957 11.0788 41.8975 13.2396C41.8975 15.0874 40.9803 15.9833 39.1459 15.9274C39.0383 15.9238 38.9326 15.8454 38.7721 15.7797C39.7039 15.0959 40.488 14.3775 41.0058 13.3126C40.4187 12.9752 39.8388 12.6397 39.2553 12.3133C39.1878 12.275 39.0511 12.2422 39.0219 12.275C38.6663 12.678 38.3655 13.1339 37.9752 13.4949C36.5949 14.775 34.2882 14.2225 33.6172 12.4756C33.3382 11.7499 33.3491 11.3086 34.3575 11.3396C36.2466 11.398 38.1393 11.356 40.0321 11.3524C40.4697 11.3524 40.8928 11.4508 40.9876 10.747C41.3195 8.28349 39.5398 5.83095 37.0909 5.38603C34.4213 4.89917 31.5476 5.95859 30.7872 9.72767H30.3094C29.0166 5.49361 26.637 4.40501 22.5926 6.21752C22.2698 6.36157 22.2024 6.36522 22.051 6.00782C21.6025 4.94293 20.6524 5.54649 19.9486 5.53737C19.3122 5.53008 19.5383 6.22299 19.5347 6.62598C19.5146 9.18975 19.5237 11.7535 19.5237 14.3155C19.5237 15.5263 18.9116 16.0083 17.6875 15.7615C20.0197 13.0135 19.6277 11.2357 16.3345 9.58544C15.8531 9.34474 15.3626 9.11499 14.914 8.82141C14.5475 8.58254 14.3451 8.1905 14.6259 7.7784C14.9031 7.37359 15.3462 7.45747 15.7255 7.6234C15.9151 7.70546 16.0263 7.95527 16.2123 8.06468C17.0092 8.53513 17.5106 7.80028 18.0668 7.50488C18.7415 7.14566 18.0941 6.72262 17.8771 6.43816C16.9691 5.24562 15.7054 5.06692 14.3579 5.43526C13.1963 5.75254 12.3812 6.50198 12.1788 7.74193C11.9546 9.11134 12.343 10.2273 13.6558 10.8983C14.2558 11.2047 14.8411 11.5384 15.4446 11.8338C16.0209 12.1164 16.6025 12.3589 16.5387 13.1722C16.5041 13.6171 16.3801 13.9544 15.9078 14.0875C15.2331 14.2772 14.5913 14.1623 14.2156 13.5879C13.4097 12.3553 12.5125 13.1977 11.9582 13.6372C11.1741 14.2553 12.1989 14.7221 12.4651 15.2491C12.5782 15.4734 12.9483 15.5007 12.9338 15.8909H0.275341C0.273518 13.9836 0.30087 12.0763 0.255283 10.1708C0.231579 9.20798 0.508743 8.21238 0 7.29518V6.21387C0.475921 5.98594 0.423041 5.47173 0.605386 5.08516C1.84898 2.47033 3.74173 0.674224 6.72125 0.25483L6.99294 0.201949C7.64027 -0.073392 8.32589 0.0378386 8.99327 0.0378386C26.3179 0.0287213 43.6407 0.023251 60.9653 0.0250744C68.0294 0.0250744 75.0935 0.0414855 82.1575 0.0506028C82.5204 0.284005 82.8832 0.285828 83.2461 0.0506028C86.7581 0.0506028 90.2682 0.0506028 93.7802 0.0506028C94.774 0.375177 95.7678 0.377001 96.7597 0.0506028C97.2083 0.0506028 97.655 0.0506028 98.1036 0.0506028C98.286 0.194656 98.4701 0.192832 98.6525 0.0506028H99.4548C99.6371 0.21289 99.8176 0.378824 100 0.544759V2.97542C99.7228 3.33647 99.721 3.69569 100 4.05673V9.45962C99.5952 11.17 99.5715 12.8804 100 14.5926V14.589ZM81.2075 2.81496C80.4343 2.65814 80.0952 3.05201 80.0186 3.81056C79.9748 4.25002 79.8253 4.68035 79.787 5.1198C79.7615 5.42432 79.4843 5.90024 80.0496 5.97865C80.4471 6.03335 80.9559 6.21205 81.1801 5.60119C81.4099 4.97757 81.6287 4.34301 81.9332 3.75404C82.3727 2.90431 82.0025 2.73108 81.2057 2.81496H81.2075Z" fill="#F58001"/>
<path d="M0.275341 15.8845H12.9283C12.9429 15.4961 12.5727 15.4669 12.4597 15.2426C12.1934 14.7175 11.1705 14.2506 11.9527 13.6307C12.5071 13.193 13.4042 12.3488 14.2102 13.5814C14.5858 14.1558 15.2277 14.2725 15.9023 14.0811C16.3746 13.948 16.4968 13.6106 16.5333 13.1657C16.5971 12.3524 16.0154 12.1099 15.4392 11.8273C14.8356 11.5301 14.2503 11.1964 13.6504 10.8918C12.3375 10.2208 11.9509 9.10486 12.1734 7.73545C12.3758 6.4955 13.1909 5.74606 14.3524 5.42878C15.6999 5.06044 16.9636 5.23914 17.8717 6.43168C18.0887 6.71614 18.7378 7.13918 18.0613 7.4984C17.507 7.7938 17.0055 8.52865 16.2069 8.0582C16.0209 7.94879 15.9096 7.69898 15.72 7.61692C15.3407 7.45281 14.8976 7.36893 14.6205 7.77192C14.3396 8.1822 14.542 8.57424 14.9086 8.81493C15.3571 9.10669 15.8476 9.33826 16.329 9.57896C19.6222 11.2292 20.0124 13.0071 17.682 15.755C18.905 16.0018 19.517 15.5198 19.5182 14.309C19.5182 11.7452 19.5091 9.18145 19.5292 6.6195C19.5328 6.21651 19.3067 5.5236 19.9431 5.53089C20.6451 5.54001 21.597 4.93645 22.0456 6.00134C22.1951 6.35874 22.2644 6.35692 22.5871 6.21104C26.6315 4.39671 29.0111 5.48531 30.304 9.72119C30.4936 12.1573 29.9666 14.3163 27.6381 15.8225H33.4276C31.1501 13.9808 30.9075 13.4027 30.7799 9.72119C31.5403 5.95393 34.4122 4.89451 37.0836 5.37955C39.5325 5.82629 41.3122 8.27701 40.9803 10.7405C40.8855 11.4444 40.4624 11.3441 40.0248 11.3459C38.1339 11.3514 36.2411 11.3915 34.3502 11.3331C33.3418 11.3021 33.3309 11.7452 33.6099 12.4691C34.2809 14.216 36.5876 14.7703 37.9679 13.4884C38.3582 13.1256 38.659 12.6697 39.0146 12.2686C39.0438 12.2357 39.1805 12.2686 39.248 12.3068C39.8315 12.6351 40.4095 12.9688 40.9985 13.3061C40.4807 14.3692 39.6966 15.0876 38.7648 15.7732C38.9253 15.8389 39.031 15.9173 39.1386 15.9209C40.9742 15.9781 41.8914 15.0821 41.8902 13.2332C41.8902 11.0724 41.872 8.91158 41.903 6.75078C41.9103 6.31863 41.6003 5.62936 42.295 5.51631C42.9241 5.41419 43.9069 5.13338 44.1841 5.67677C44.6199 6.53197 44.8752 5.99223 45.2417 5.79347C46.5163 5.10421 47.8255 5.07868 49.1275 5.66401C50.7339 6.38609 51.0038 7.86856 51.0549 9.38567C51.1169 11.1836 51.1315 12.9888 51.0494 14.7849C51.0038 15.7751 51.3539 16.034 52.2693 15.9428C53.0151 15.8699 53.7755 15.9282 54.8495 15.9282C54.3535 15.5398 54.0873 15.3392 53.8302 15.1259C51.549 13.2368 51.0512 10.2901 52.603 7.88497C54.1201 5.53272 57.3804 4.55535 59.8713 5.66948C60.3618 5.88829 60.5514 6.17093 60.5295 6.68879C60.5004 7.40358 60.5222 8.1202 60.5222 9.28538C59.3881 7.76462 58.1353 7.24859 56.6 7.54399C55.9436 7.6698 55.4476 8.0272 55.0373 8.52318C53.9596 9.82513 54.0308 12.0242 55.1813 13.2477C56.4559 14.6026 57.9475 14.4567 60.5222 12.6424C60.5222 13.3444 60.5259 13.9534 60.5222 14.5643C60.5186 14.9983 60.5751 15.4395 60.287 15.8826H63.8045C61.1787 14.0008 60.6481 11.5647 61.392 8.78758C62.0977 6.15634 64.5812 4.83433 67.5735 5.40143C69.831 5.82812 71.4921 8.18949 71.3554 10.6238C71.3116 11.3988 70.8995 11.3495 70.3889 11.3477C68.498 11.3441 66.6053 11.3878 64.7144 11.3313C63.644 11.2985 63.6075 11.7233 63.9613 12.533C64.8128 14.4877 67.2581 14.7576 68.7041 13.0399C69.304 12.3269 70.6862 12.4363 71.1676 13.2186C71.3645 13.5377 71.1202 13.7273 70.9889 13.917C70.7354 14.2853 70.4418 14.6354 70.1245 14.9509C69.8401 15.2335 69.5009 15.4614 68.9247 15.9228C69.986 15.9228 70.8029 15.9228 71.6216 15.9228C72.3929 15.9228 72.1413 15.3265 72.1449 14.9436C72.1632 12.243 72.1413 9.54249 72.1686 6.84196C72.1741 6.39339 71.8678 5.695 72.4768 5.53819C73.1332 5.37043 74.1106 5.12609 74.5045 5.68042C74.9822 6.35327 75.1518 5.91564 75.5037 5.73694C75.9013 5.53454 76.3097 5.31208 76.74 5.22455C77.5278 5.06227 78.4541 5.21544 78.8334 5.819C79.2181 6.4335 78.4121 7.08083 78.1404 7.71721C77.9271 8.21866 77.6098 7.82662 77.3637 7.75733C75.8994 7.34523 75.0552 7.79198 74.8126 9.24162C74.4753 11.2511 74.7105 13.2842 74.6595 15.3064C74.6449 15.8845 75.0205 15.9337 75.4654 15.9319C77.6226 15.9246 79.7797 15.9282 81.9496 15.9282C81.9934 15.4231 81.4828 15.3885 81.3534 15.0785C81.1583 14.6062 80.2411 14.1485 80.9139 13.6781C81.4847 13.2787 82.3162 12.2868 83.1695 13.534C83.5835 14.1394 84.2436 14.3145 84.9748 14.061C85.4251 13.9042 85.6039 13.5431 85.6075 13.1219C85.613 12.3506 84.993 12.1008 84.4259 11.809C83.7093 11.4389 82.9781 11.087 82.2998 10.6548C81.1601 9.93089 80.8975 8.82952 81.1929 7.58775C81.5029 6.2858 82.679 5.37955 84.1779 5.27379C85.4489 5.18444 86.4554 5.67859 87.1355 6.77996C87.3234 7.08448 87.3927 7.42911 86.9842 7.55128C86.4025 7.72268 86.0032 8.56512 85.2373 8.05638C85.0185 7.9105 84.8544 7.65339 84.621 7.56769C84.2271 7.42181 83.7932 7.42181 83.5689 7.87585C83.3756 8.26425 83.5689 8.59065 83.8971 8.7967C84.311 9.05928 84.7432 9.30909 85.1936 9.50055C87.8959 10.6493 89.5407 12.5548 86.5447 15.941H90.4251C89.8014 16.5956 89.238 16.395 88.7566 16.395C68.7168 16.406 48.6753 16.4041 28.6355 16.406C26.7884 16.406 24.9412 16.4461 23.0977 16.3914C22.248 16.3659 21.9799 16.6722 22.0456 17.48C22.1003 18.151 22.0565 18.8293 22.0565 19.504C22.0547 20.961 21.3891 21.4296 19.9759 21.0321C19.4727 20.8898 19.5219 20.5452 19.5182 20.1969C19.5073 19.2524 19.4854 18.306 19.5219 17.3615C19.5474 16.705 19.3888 16.3932 18.6357 16.3987C12.4268 16.4461 6.21433 16.4552 0 16.4753V15.9355L0.275341 15.8826V15.8845ZM48.6114 12.4874C48.5422 11.5027 48.6698 10.343 48.4874 9.17415C48.2996 7.97067 47.6833 7.45281 46.5054 7.47287C45.3383 7.49293 44.7001 8.04544 44.5087 9.21609C44.1823 11.2274 44.4084 13.2459 44.33 15.259C44.3081 15.8042 44.5944 15.8972 45.0721 15.9428C48.6114 16.2783 48.6114 16.2893 48.6114 12.7974V12.4855V12.4874ZM21.8869 10.8207C21.8851 12.9214 23.0266 14.1905 24.8993 14.1759C26.586 14.1613 27.8368 12.7281 27.8332 10.8116C27.8295 8.88058 26.6133 7.50569 24.8847 7.48199C23.012 7.45464 21.8887 8.70553 21.8869 10.8207ZM33.6099 9.44402C35.0723 9.44402 36.4144 9.43308 37.7564 9.4495C38.3782 9.45679 38.4165 9.22339 38.1758 8.72011C37.6653 7.65339 36.7663 7.4437 35.7105 7.48928C34.5654 7.53852 33.8907 8.10926 33.6099 9.44585V9.44402ZM66.3117 9.44402C66.8514 9.44402 67.393 9.42214 67.9328 9.4495C68.6877 9.48596 68.7916 9.2088 68.4433 8.58335C67.6757 7.20847 65.3453 7.02977 64.3953 8.29707C64.1874 8.57606 63.8865 8.8897 64.0999 9.2635C64.284 9.58625 64.6688 9.42032 64.9624 9.43673C65.4109 9.46226 65.8631 9.44402 66.3117 9.4422V9.44402Z" fill="#FCF8F1"/>
<path d="M0.275341 15.889L0 15.94V7.29688C0.508743 8.21407 0.231579 9.20968 0.255283 10.1688C0.302693 12.0743 0.273518 13.9817 0.275341 15.889Z" fill="#F4920F"/>
<path d="M100 14.5861C99.5715 12.8757 99.5953 11.1653 100 9.45312V14.5861Z" fill="#F3941D"/>
<path d="M100 4.05006C99.7211 3.68901 99.7229 3.32979 100 2.96875V4.05006Z" fill="#F3941D"/>
<path d="M99.4546 0.0437629L99.9998 0V0.539742C99.8175 0.373808 99.6369 0.209697 99.4546 0.0437629Z" fill="#F3941D"/>
<path d="M30.778 9.71875C30.9057 13.4003 31.1482 13.9802 33.4257 15.82H27.6362C29.963 14.312 30.4918 12.1531 30.3021 9.71875C30.4608 9.71875 30.6194 9.71875 30.7799 9.71875H30.778Z" fill="#F18407"/>
<path d="M81.2077 2.8153C82.0027 2.73142 82.3747 2.90465 81.9352 3.75438C81.6307 4.34335 81.4119 4.97792 81.1821 5.60154C80.9579 6.21057 80.4491 6.03369 80.0516 5.97899C79.4863 5.90058 79.7635 5.42466 79.789 5.12014C79.8255 4.68069 79.975 4.25036 80.0206 3.8109C80.0972 3.05235 80.4363 2.65848 81.2095 2.8153H81.2077Z" fill="#FAF3E8"/>
<path d="M93.7803 0.046875C94.7741 0.046875 95.7678 0.046875 96.7598 0.046875C95.766 0.375097 94.7741 0.373273 93.7803 0.046875Z" fill="#F3941D"/>
<path d="M82.1577 0.046875C82.5206 0.046875 82.8834 0.046875 83.2463 0.046875C82.8834 0.2821 82.5206 0.2821 82.1577 0.046875Z" fill="#F3941D"/>
<path d="M98.1035 0.046875H98.6524C98.47 0.189104 98.2877 0.190928 98.1035 0.046875Z" fill="#F3941D"/>
<path d="M6.72119 0.250016C6.81236 0.231782 6.90171 0.213547 6.99289 0.195312C6.90171 0.213547 6.81236 0.231782 6.72119 0.250016Z" fill="#F3941D"/>
<path d="M48.6114 12.4899V12.8017C48.6114 16.2936 48.6114 16.2845 45.0721 15.9472C44.5944 15.9016 44.3081 15.8086 44.33 15.2634C44.4102 13.2503 44.1823 11.2299 44.5087 9.22045C44.7001 8.04979 45.3383 7.49728 46.5054 7.47722C47.6833 7.45534 48.2996 7.97503 48.4874 9.17851C48.6698 10.3455 48.5403 11.5071 48.6114 12.4917V12.4899Z" fill="#F48204"/>
<path d="M21.8867 10.8236C21.8885 8.70835 23.0118 7.45746 24.8845 7.48481C26.6113 7.51034 27.8275 8.8834 27.833 10.8144C27.8366 12.7309 26.5876 14.1641 24.8991 14.1787C23.0246 14.1951 21.8849 12.9242 21.8867 10.8236Z" fill="#F48103"/>
<path d="M33.6099 9.44667C33.8907 8.11008 34.5672 7.53934 35.7105 7.49011C36.7663 7.44452 37.667 7.65422 38.1758 8.72094C38.4165 9.22421 38.3782 9.45761 37.7564 9.45032C36.4143 9.43391 35.0704 9.44485 33.6099 9.44485V9.44667Z" fill="#F28306"/>
<path d="M66.3133 9.44651C65.8629 9.44651 65.4125 9.46474 64.964 9.44104C64.6686 9.42463 64.2856 9.59056 64.1015 9.26781C63.8881 8.89218 64.189 8.57854 64.3969 8.30138C65.3469 7.03226 67.6773 7.21278 68.4449 8.58766C68.795 9.21311 68.6893 9.49027 67.9344 9.4538C67.3964 9.42645 66.8549 9.44833 66.3133 9.44833V9.44651Z" fill="#F28206"/>
</svg>
