<svg width="90" height="48" viewBox="0 0 90 48" fill="none" xmlns="http://www.w3.org/2000/svg">
<g clip-path="url(#clip0_8183_3390)">
<path d="M45.7054 0C46.2434 0.0553602 46.7823 0.0992305 47.3192 0.16817C50.4664 0.573448 53.3002 1.7475 55.8332 3.65377C55.8823 3.69138 55.9251 3.73734 55.9565 3.76554C55.4237 4.29825 54.8994 4.8226 54.3604 5.36054C52.6808 4.11128 50.8038 3.20776 48.7429 2.71787C47.8895 2.51523 47.0142 2.40451 46.117 2.24679V16.7647C49.9619 12.9219 53.7974 9.08847 57.6319 5.25713C65.0794 12.4278 64.813 25.3487 56.0181 32.1047C55.4937 31.5783 54.9715 31.0539 54.4419 30.5223C58.4717 27.3239 60.6422 23.15 60.6913 17.966C60.7237 14.5138 59.651 11.3833 57.5734 8.56516C55.4645 10.673 53.3733 12.7621 51.2832 14.8522C49.1921 16.9423 47.0999 19.0324 44.9857 21.1455C40.7857 16.9475 36.6034 12.7673 32.3918 8.5589C29.8651 12.0737 28.8331 15.9448 29.4452 20.2023C30.0573 24.4661 32.1652 27.8827 35.6121 30.5745C35.3249 30.8409 35.046 31.0884 34.7786 31.3495C34.5154 31.6054 34.2647 31.8749 34.0119 32.135C25.6901 25.9159 24.4367 13.0974 32.2811 5.29264C36.1093 9.11876 39.9386 12.9459 43.7678 16.7721L43.8263 16.7334V2.30737C42.3253 2.40765 40.886 2.7325 39.4863 3.25058C38.0835 3.77076 36.7883 4.4894 35.6205 5.35218C35.0773 4.81007 34.554 4.28676 34.0067 3.73942C34.3994 3.46367 34.8026 3.16075 35.2256 2.88918C37.8735 1.18763 40.769 0.227708 43.9193 0.0480485C44.0373 0.0417813 44.1543 0.0167125 44.2723 0C44.7507 0 45.2281 0 45.7065 0H45.7054Z" fill="black"/>
<path d="M57.1306 12.1562C59.6082 17.2222 58.7026 24.1078 53.5071 28.3862C48.5226 32.4912 41.2318 32.4379 36.2546 28.2044C31.1844 23.8926 30.4209 17.0979 32.8379 12.1604C32.9998 12.3182 33.1555 12.4675 33.308 12.619C33.66 12.9689 34.0036 13.3282 34.365 13.6666C34.5102 13.8035 34.5228 13.9184 34.4549 14.098C33.9848 15.3285 33.7561 16.6101 33.7623 17.9231C33.777 20.6681 34.6377 23.128 36.4395 25.2077C38.8732 28.0175 41.987 29.344 45.6982 29.1456C50.8321 28.8708 55.1627 24.9653 56.0339 19.9015C56.3744 17.9221 56.2114 15.9886 55.5189 14.1033C55.4531 13.9236 55.4625 13.8129 55.6066 13.675C56.1153 13.1851 56.6094 12.6796 57.1317 12.1562H57.1306Z" fill="black"/>
<path d="M58.8093 47.4033H58.1533V41.3983C58.3507 41.3983 58.5513 41.3805 58.7456 41.4066C58.8239 41.4171 58.9064 41.5132 58.9587 41.5905C59.5843 42.5201 60.2037 43.4529 60.8252 44.3835C60.8806 44.4671 60.9401 44.5486 61.0132 44.652C61.0749 44.5674 61.1281 44.4984 61.1772 44.4253C61.7747 43.5333 62.3868 42.6496 62.9603 41.743C63.1389 41.461 63.3311 41.344 63.6476 41.3941C63.7186 41.4056 63.7927 41.3962 63.8836 41.3962V47.3939H63.213V42.6841L63.1441 42.6538C62.439 43.6889 61.734 44.7241 61.008 45.7895C60.28 44.7251 59.5728 43.691 58.8646 42.6559L58.8082 42.6674V47.4022L58.8093 47.4033Z" fill="black"/>
<path d="M26.6055 41.3947V47.3945H25.9265V42.6794L25.8618 42.6512C25.1557 43.6874 24.4496 44.7225 23.7226 45.788C22.9925 44.7205 22.2853 43.6853 21.5771 42.6512L21.5186 42.6648V47.3945H20.8647V41.3957C21.059 41.3957 21.2523 41.3759 21.4371 41.4041C21.5249 41.4176 21.6199 41.5106 21.6753 41.5931C22.2968 42.5134 22.912 43.4388 23.5283 44.3632C23.5889 44.4541 23.6516 44.5439 23.7309 44.6599C24.0443 44.194 24.3462 43.748 24.646 43.2999C25.0042 42.7661 25.374 42.2397 25.7103 41.6934C25.8545 41.4594 26.0143 41.3497 26.2848 41.3915C26.382 41.4062 26.4843 41.3936 26.6065 41.3936L26.6055 41.3947Z" fill="black"/>
<path d="M35.7678 42.5898V47.3915H35.1338V41.4168C35.4795 41.3625 35.7584 41.3635 36.0237 41.7134C37.1048 43.1403 38.2256 44.5358 39.3318 45.9438C39.3767 46.0012 39.4247 46.0566 39.5125 46.16V41.4137H40.1768V47.3842C39.8624 47.4458 39.6347 47.4082 39.4143 47.122C38.2956 45.6659 37.1487 44.2318 36.0122 42.7903C35.9517 42.7141 35.8879 42.6399 35.8263 42.5647L35.7689 42.5898H35.7678Z" fill="black"/>
<path d="M82.5493 41.4091H83.2125V47.3849C82.8835 47.4611 82.6537 47.4005 82.4312 47.1102C81.3188 45.6604 80.1782 44.2314 79.047 42.7962C78.9874 42.721 78.9258 42.6469 78.8119 42.508V47.3922H78.1528V41.4227C78.5372 41.3412 78.814 41.4028 79.0772 41.7496C80.1427 43.1545 81.2478 44.5291 82.3383 45.9152C82.3926 45.9831 82.4511 46.0479 82.5503 46.1649V41.4081L82.5493 41.4091Z" fill="black"/>
<path d="M56.7016 44.3772C56.711 46.1352 55.3834 47.5004 53.6568 47.5098C51.8863 47.5192 50.5639 46.1989 50.5576 44.4148C50.5514 42.6465 51.8884 41.2833 53.6327 41.2813C55.3855 41.2792 56.6932 42.5974 56.7026 44.3762L56.7016 44.3772ZM51.2731 44.1025C51.2731 46.0004 52.6519 47.1724 54.1487 46.8204C55.164 46.5812 55.7531 45.9002 55.9412 44.912C56.1334 43.902 55.8555 43.0058 55.0011 42.3728C54.2407 41.8098 53.4009 41.745 52.56 42.1743C51.6711 42.6277 51.3045 43.4152 51.2731 44.1025Z" fill="black"/>
<path d="M12.524 41.4141H16.8463V41.9948H13.2259V44.0745H16.4546V44.6949H13.2061V46.7976H16.8901V47.4003H12.5229V41.4151L12.524 41.4141Z" fill="black"/>
<path d="M10.786 47.4034H10.131V44.7221H6.66111V47.394H5.99365V41.4141H6.64857V44.0452H10.1133V41.4172H10.786V47.4034Z" fill="black"/>
<path d="M33.9036 47.3838C33.8618 47.3984 33.8451 47.4089 33.8284 47.4099C33.4085 47.4385 33.1147 47.2606 32.9468 46.8762C32.8257 46.5994 32.6941 46.3257 32.5844 46.0447C32.5196 45.8776 32.4329 45.8087 32.2418 45.8108C31.3142 45.8223 30.3856 45.8223 29.4581 45.8108C29.2669 45.8087 29.1813 45.8776 29.1124 46.0416C28.9567 46.4135 28.7666 46.7717 28.6256 47.1488C28.542 47.3723 28.4167 47.4434 28.1953 47.4173C28.0793 47.4037 27.9592 47.4152 27.7983 47.4152C28.026 46.9065 28.237 46.4312 28.4522 45.958C29.1103 44.5051 29.7798 43.0574 30.4212 41.5971C30.5381 41.3308 30.7126 41.3652 30.9194 41.3464C31.1314 41.3266 31.2234 41.4175 31.3038 41.5982C32.1217 43.4219 32.9479 45.2415 33.7699 47.0621C33.818 47.1676 33.8598 47.2762 33.9047 47.3838H33.9036ZM30.8515 42.1528C30.3836 43.1973 29.9396 44.1886 29.4863 45.1987H32.2063C31.755 44.1834 31.3142 43.1921 30.8515 42.1528Z" fill="black"/>
<path d="M76.9327 47.4097C76.7154 47.4097 76.5232 47.4265 76.3362 47.4014C76.2621 47.3909 76.1754 47.299 76.1388 47.2228C75.9539 46.8342 75.7753 46.4415 75.6134 46.0435C75.5455 45.8753 75.4609 45.8053 75.2708 45.8074C74.3339 45.8179 73.398 45.8158 72.461 45.8085C72.3002 45.8074 72.2156 45.8555 72.1529 46.0069C72.0035 46.3715 71.8165 46.7214 71.6797 47.0901C71.5846 47.3471 71.4457 47.4599 71.1731 47.4139C71.076 47.3972 70.9746 47.4118 70.8315 47.4118C70.9329 47.1789 71.0175 46.9794 71.1063 46.783C71.8917 45.046 72.6804 43.312 73.4575 41.5719C73.54 41.387 73.6434 41.3306 73.8304 41.3462C74.0205 41.3629 74.2022 41.3024 74.3182 41.5656C75.1496 43.4416 76.003 45.3092 76.848 47.1789C76.8773 47.2437 76.8951 47.3126 76.9306 47.4118L76.9327 47.4097ZM73.8826 42.1484C73.4115 43.1992 72.9697 44.1853 72.5185 45.1943H75.2374C74.7872 44.1821 74.3485 43.1951 73.8826 42.1484Z" fill="black"/>
<path d="M66.2826 45.2774V47.3895H65.6235V41.4158C65.6883 41.4095 65.7583 41.3959 65.8283 41.3949C66.5354 41.3928 67.2436 41.3844 67.9507 41.3991C68.2046 41.4043 68.4647 41.4429 68.7101 41.5087C69.5729 41.7396 70.0628 42.336 70.1035 43.1727C70.1474 44.0783 69.7139 44.7844 68.872 45.08C68.5326 45.1991 68.1586 45.2461 67.7962 45.2691C67.3042 45.3004 66.8091 45.2764 66.2826 45.2764V45.2774ZM66.3004 44.6392C66.948 44.6392 67.5799 44.6653 68.2077 44.6256C68.4479 44.61 68.7007 44.4773 68.9096 44.3405C69.3243 44.0699 69.4685 43.6542 69.4183 43.1696C69.3682 42.6859 69.1123 42.3423 68.6589 42.1804C68.4041 42.0895 68.1252 42.0383 67.8547 42.0258C67.3376 42.0018 66.8185 42.0185 66.2993 42.0185V44.6392H66.3004Z" fill="black"/>
<path d="M49.1944 46.0141C49.3334 46.177 49.4629 46.3285 49.5945 46.4831C48.6346 47.7396 46.486 47.8785 45.2001 46.7421C43.9049 45.5973 43.8788 43.363 45.1458 42.1232C46.3345 40.9606 48.551 41.0201 49.5955 42.259C49.4503 42.4146 49.3031 42.5723 49.1401 42.7468C48.4946 42.1399 47.7666 41.8056 46.8777 41.9487C46.3094 42.0407 45.8467 42.3185 45.4811 42.7593C44.6664 43.7412 44.7489 45.3414 45.6577 46.2324C46.4442 47.0043 47.9065 47.2685 49.1944 46.0151V46.0141Z" fill="black"/>
<path d="M87.5013 47.4016H86.813C86.813 46.8971 86.7764 46.4009 86.8224 45.9111C86.8798 45.2885 86.6897 44.7882 86.3189 44.292C85.6755 43.4324 85.0906 42.5299 84.4826 41.6452C84.4377 41.5794 84.398 41.5094 84.3291 41.3997C84.5944 41.3997 84.8211 41.3841 85.0436 41.4081C85.1229 41.4164 85.2107 41.5052 85.2619 41.5804C85.8928 42.5048 86.5174 43.4345 87.165 44.3933C87.353 44.1176 87.5275 43.8638 87.6998 43.6089C88.1385 42.9634 88.5887 42.3262 89.0086 41.6692C89.1475 41.453 89.299 41.3684 89.5424 41.3955C89.675 41.4102 89.8098 41.3987 90.002 41.3987C89.6677 41.8833 89.3679 42.3189 89.0671 42.7534C88.5877 43.448 88.103 44.1406 87.633 44.8415C87.5577 44.9543 87.5118 45.1089 87.5087 45.2446C87.4961 45.8599 87.5034 46.4751 87.5034 47.0903V47.3995L87.5013 47.4016Z" fill="black"/>
<path d="M4.67324 41.4141V41.998H2.68549V47.393H2.00132V42.0199H0V41.4141H4.67324Z" fill="black"/>
</g>
<defs>
<clipPath id="clip0_8183_3390">
<rect width="90" height="47.5158" fill="white"/>
</clipPath>
</defs>
</svg>
