<svg width="104" height="22" viewBox="0 0 104 22" fill="none" xmlns="http://www.w3.org/2000/svg">
<g clip-path="url(#clip0_8183_3214)">
<path fill-rule="evenodd" clip-rule="evenodd" d="M47.3384 19.7959C47.3384 18.7142 48.1524 17.8281 49.279 17.8281C49.9378 17.8281 50.3359 18.0053 50.7339 18.3414L50.2144 18.979C49.9378 18.7305 49.677 18.5879 49.2431 18.5879C48.654 18.5879 48.1863 19.1196 48.1863 19.7592V19.7775C48.1863 20.4701 48.654 20.9834 49.3128 20.9834C49.6074 20.9834 49.8681 20.9121 50.0751 20.7532V20.2216H49.2611V19.5127H50.8553V21.1627C50.4732 21.4988 49.9537 21.7656 49.279 21.7656C48.1345 21.7473 47.3384 20.9142 47.3384 19.7979V19.7959Z" fill="#737678"/>
<path fill-rule="evenodd" clip-rule="evenodd" d="M51.8447 17.8984H54.6332V18.644H52.6588V19.4058H54.3904V20.1513H52.6588V20.9498H54.6511V21.677H51.8447V17.8984Z" fill="#737678"/>
<path fill-rule="evenodd" clip-rule="evenodd" d="M56.4527 18.6786H55.3281V17.8984H58.3933V18.6786H57.2687V21.677H56.4527V18.6786Z" fill="#737678"/>
<path fill-rule="evenodd" clip-rule="evenodd" d="M61.8761 18.6786H60.7495V17.8984H63.8166V18.6786H62.6921V21.677H61.8761V18.6786Z" fill="#737678"/>
<path fill-rule="evenodd" clip-rule="evenodd" d="M64.6489 17.8984H65.4471V19.4058H66.9538V17.8984H67.7678V21.677H66.9538V20.1697H65.4471V21.677H64.6489V17.8984Z" fill="#737678"/>
<path fill-rule="evenodd" clip-rule="evenodd" d="M68.8604 17.8984H71.6488V18.644H69.6744V19.4058H71.408V20.1513H69.6744V20.9498H71.6668V21.677H68.8604V17.8984Z" fill="#737678"/>
<path fill-rule="evenodd" clip-rule="evenodd" d="M72.6021 17.8984H73.4858L74.4571 19.4954L75.4264 17.8984H76.2942V21.677H75.496V19.2103L74.4571 20.8256H74.4212L73.4002 19.2286V21.677H72.6021V17.8984Z" fill="#737678"/>
<path fill-rule="evenodd" clip-rule="evenodd" d="M80.0538 18.6786H78.9272V17.8984H81.9765V18.6786H80.8499V21.677H80.0538V18.6786Z" fill="#737678"/>
<path fill-rule="evenodd" clip-rule="evenodd" d="M83.6047 17.875H84.3491L85.9255 21.6882H85.0756L84.7472 20.8368H83.1867L82.8583 21.6882H82.0264L83.6027 17.875H83.6047ZM84.4546 20.0912L83.969 18.867L83.4833 20.0912H84.4546Z" fill="#737678"/>
<path fill-rule="evenodd" clip-rule="evenodd" d="M86.7236 17.8984H87.5218V20.9315H89.3748V21.677H86.7236V17.8984Z" fill="#737678"/>
<path fill-rule="evenodd" clip-rule="evenodd" d="M90.1909 17.8984H91.005V19.5484L92.5117 17.8984H93.483L91.9743 19.5117L93.5526 21.677H92.5813L91.4369 20.08L91.005 20.5241V21.677H90.1909V17.8984Z" fill="#737678"/>
<path fill-rule="evenodd" clip-rule="evenodd" d="M94.2969 21.677H95.1109V17.8984H94.2969V21.677Z" fill="#737678"/>
<path fill-rule="evenodd" clip-rule="evenodd" d="M96.2378 17.8984H96.9822L98.7158 20.2226V17.8984H99.5119V21.677H98.8193L97.0339 19.2815V21.677H96.2378V17.8984Z" fill="#737678"/>
<path fill-rule="evenodd" clip-rule="evenodd" d="M100.447 19.7959C100.447 18.7142 101.261 17.8281 102.388 17.8281C103.047 17.8281 103.445 18.0053 103.843 18.3414L103.341 18.979C103.065 18.7305 102.804 18.5879 102.37 18.5879C101.781 18.5879 101.313 19.1196 101.313 19.7592V19.7775C101.313 20.4701 101.781 20.9834 102.44 20.9834C102.734 20.9834 102.995 20.9121 103.202 20.7532V20.2216H102.388V19.5127H104V21.1627C103.618 21.4988 103.098 21.7656 102.424 21.7656C101.245 21.7473 100.449 20.9142 100.449 19.7979L100.447 19.7959Z" fill="#737678"/>
<path fill-rule="evenodd" clip-rule="evenodd" d="M57.5789 2.20877C58.0805 2.20877 58.3591 1.80137 58.3591 1.4286C58.3591 0.98454 58.0307 0.648438 57.5968 0.648438H48.067C47.4958 0.648438 47.0439 1.0925 47.0439 1.65878V14.3207C47.0439 14.9053 47.4778 15.3677 48.067 15.3677H57.5789C58.0287 15.3677 58.3591 15.0132 58.3591 14.5692C58.3591 14.1251 58.0307 13.7707 57.5789 13.7707H48.6382V8.85952H56.9042C57.4057 8.85952 57.6844 8.45212 57.6844 8.07935C57.6844 7.70659 57.4077 7.29919 56.9042 7.29919H48.6382V2.20877H57.5789Z" fill="#737678"/>
<path fill-rule="evenodd" clip-rule="evenodd" d="M72.9841 0.554688C72.586 0.554688 72.1879 0.856161 72.1879 1.42448V12.3305L62.7437 1.03338C62.5367 0.766534 62.2581 0.607649 61.9814 0.607649C61.5992 0.607649 61.2012 0.927456 61.2012 1.5304V14.618C61.2012 15.168 61.6172 15.4695 61.9973 15.4695C62.3775 15.4695 62.7935 15.168 62.7935 14.618V3.69368L72.2536 15.0071C72.4606 15.2739 72.7552 15.4145 73.0338 15.4145C73.3981 15.4145 73.7961 15.1476 73.7961 14.5447V1.42448C73.7782 0.856161 73.3802 0.554688 72.9821 0.554688H72.9841Z" fill="#737678"/>
<path fill-rule="evenodd" clip-rule="evenodd" d="M97.7621 7.13108C95.2662 6.91923 92.9097 6.70535 92.9097 4.75392C92.9097 4.55837 92.9435 4.36282 93.0132 4.22226L93.0311 4.1693C93.4809 2.82082 95.3876 2.21787 96.8605 2.11195C96.9481 2.11195 97.0337 2.11195 97.1372 2.09362C97.2068 2.09362 97.2765 2.07528 97.3442 2.07528C99.6669 2.07528 101.174 2.5886 101.815 3.63561C101.954 3.86579 102.197 3.99005 102.455 3.99005C102.871 3.99005 103.218 3.65395 103.218 3.22822C103.218 3.06933 103.166 2.92674 103.078 2.78415C101.83 0.832723 98.9365 0.53125 97.3422 0.53125C96.753 0.53125 96.1121 0.584212 95.4872 0.708468C92.8878 1.27679 91.3452 2.76582 91.3452 4.71521C91.3452 8.13735 94.8284 8.42253 97.6168 8.65271C100.286 8.86455 102.416 9.04381 102.416 10.9932C102.416 13.8491 98.0667 13.9366 97.581 13.9366C97.2685 13.9366 96.9401 13.9183 96.6456 13.8653C95.2065 13.7228 93.4232 13.1728 92.7644 12.0382C92.6947 11.9322 92.4698 11.5778 92.0717 11.5778C91.6378 11.5778 91.2915 11.9322 91.2915 12.3763C91.2915 12.5006 91.3253 12.6432 91.3791 12.7491C92.6609 15.2505 96.4565 15.444 97.583 15.444C100.684 15.444 103.994 14.2727 103.994 10.9932C103.96 7.65866 100.666 7.37552 97.7562 7.127L97.7621 7.13108Z" fill="#737678"/>
<path fill-rule="evenodd" clip-rule="evenodd" d="M87.7987 8.01858C87.7987 11.2289 85.4601 13.7466 82.4785 13.7466H78.3545V2.27225H82.4785C85.6153 2.27225 87.7987 4.63108 87.7987 8.01858ZM82.4805 0.640625H77.7852C77.214 0.640625 76.7622 1.08469 76.7622 1.63467V14.3495C76.7622 14.9178 77.212 15.3782 77.7852 15.3782H82.4805C86.3617 15.3782 89.395 12.1516 89.395 8.01858C89.395 3.88554 86.4831 0.640625 82.4805 0.640625Z" fill="#737678"/>
<path fill-rule="evenodd" clip-rule="evenodd" d="M29.4213 0.640625H17.726C17.1886 0.640625 16.894 1.04802 16.894 1.42079C16.894 1.79356 17.1886 2.20095 17.726 2.20095H22.7517V14.5797C22.7517 15.148 23.1676 15.4495 23.5657 15.4495C23.9638 15.4495 24.3977 15.1297 24.3977 14.5797V2.20299H29.4233C29.9607 2.20299 30.2553 1.79559 30.2553 1.42283C30.2553 1.05006 29.9786 0.642662 29.4233 0.642662L29.4213 0.640625Z" fill="#737678"/>
<path fill-rule="evenodd" clip-rule="evenodd" d="M42.6773 5.08024C42.6773 6.60594 40.9796 7.89943 38.9693 7.91776H33.7884V2.24273H38.9514C40.7527 2.24273 42.6773 3.23677 42.6773 5.08024ZM40.1297 9.3355C42.4684 8.87514 44.184 7.0826 44.184 5.06191C44.184 2.57883 41.9668 0.682395 39.0211 0.664062H32.9744C32.5245 0.664062 32.1782 1.0185 32.1782 1.47886V14.6744C32.1782 14.9046 32.2658 15.1185 32.439 15.2774C32.5783 15.4016 32.7674 15.4729 32.9584 15.4729C33.4083 15.4729 33.7546 15.1185 33.7546 14.6581V9.46179H38.0856L42.7291 15.0309C42.9023 15.2428 43.1272 15.3507 43.37 15.3507C43.5611 15.3507 43.7521 15.2794 43.8895 15.1552C44.0447 15.0126 44.1502 14.8191 44.1661 14.6052C44.184 14.375 44.1144 14.1448 43.9591 13.9493L40.1297 9.33958V9.3355Z" fill="#737678"/>
<path fill-rule="evenodd" clip-rule="evenodd" d="M6.68759 11.6025C6.39302 10.8937 6.1502 10.1848 5.99495 9.43927C5.99495 9.42093 5.97703 9.40464 5.96111 9.40464C5.94519 9.40464 5.92728 9.42297 5.92728 9.43927C5.77203 10.1848 5.5292 10.912 5.23463 11.6025C5.06147 12.0099 4.8704 12.401 4.81865 12.8431C4.78481 13.1629 4.74899 13.4806 4.80073 13.8188C5.00773 15.0247 5.96111 15.6623 5.96111 15.6623H5.99495C5.99495 15.6623 6.94833 15.0247 7.15532 13.8188C7.20707 13.499 7.17324 13.1812 7.13741 12.8431C7.04984 12.399 6.86075 12.0099 6.68759 11.6025ZM14.7445 8.09078L14.7266 8.10912C14.6928 10.7878 13.3413 13.1282 11.3311 14.4217C11.2793 14.4401 11.0365 14.5806 10.7758 14.5806C10.3936 14.5806 10.0652 14.3851 9.85822 14.0836L7.36232 10.6961C8.64411 10.6961 9.68506 9.63278 9.68506 8.31893C9.68506 7.00507 8.6461 5.94177 7.36232 5.94177H7.29266C5.02166 5.94177 3.16864 8.38818 3.16864 11.4029C3.16864 13.1221 3.7757 14.6478 4.69326 15.6419C1.9406 14.493 0 11.6555 0 8.30263C0 3.95774 3.30996 0.429688 7.38222 0.429688C11.4545 0.429688 14.4699 3.65627 14.7465 7.73635C14.7465 7.80764 14.7644 7.87894 14.7644 7.9482C14.7465 8.01949 14.7465 8.05412 14.7465 8.09078H14.7445Z" fill="#737678"/>
<path fill-rule="evenodd" clip-rule="evenodd" d="M6.68778 11.6042C6.39321 10.8953 6.15038 10.1864 5.99513 9.44088C5.99513 9.42255 5.97722 9.40625 5.9613 9.40625C5.94538 9.40625 5.92746 9.42458 5.92746 9.44088C5.77222 10.1864 5.52939 10.9136 5.23482 11.6042C5.06166 12.0116 4.87058 12.4027 4.81884 12.8447C4.785 13.1645 4.74917 13.4823 4.80092 13.8204C5.00792 15.0263 5.9613 15.6639 5.9613 15.6639H5.99513C5.99513 15.6639 6.94851 15.0263 7.15551 13.8204C7.20726 13.5006 7.17342 13.1828 7.1376 12.8447C7.05002 12.4006 6.86094 12.0116 6.68778 11.6042Z" fill="#737678"/>
</g>
<defs>
<clipPath id="clip0_8183_3214">
<rect width="104" height="21.3333" fill="white" transform="translate(0 0.4375)"/>
</clipPath>
</defs>
</svg>
