<svg width="111" height="30" viewBox="0 0 111 30" fill="none" xmlns="http://www.w3.org/2000/svg">
<path d="M46.8411 2.38303C48.0702 1.58221 49.8554 2.38303 50.0656 3.96073C50.1135 4.30926 50.1055 4.66843 50.1029 5.02228C50.039 10.4285 49.9752 15.8347 49.9007 21.2409C49.8874 22.2811 49.8501 23.3214 49.7996 24.3617C49.7623 25.104 50.1268 25.5908 50.7441 25.8941C51.3906 26.2107 52.0185 26.0724 52.5213 25.5908C53.362 24.7847 53.9074 23.8402 53.8968 22.6137C53.8622 19.312 54.82 16.4067 57.4326 14.2277C59.4094 12.5808 61.7374 11.9104 64.2808 11.9689C65.5393 11.9982 66.2257 12.7431 66.1379 13.8792C66.1033 14.3341 65.9224 14.5443 65.4302 14.5417C64.4804 14.5363 63.5066 14.4645 62.5887 14.6481C59.6489 15.2387 57.6774 17.3725 57.2198 20.5039C57.0495 21.6666 57.0522 22.8904 57.2065 24.0557C57.3927 25.4525 58.449 26.2427 59.6728 26.1815C60.6785 26.1309 62.0008 24.9204 62.0433 23.803C62.1285 21.5921 62.1205 19.3785 62.0753 17.1676C62.062 16.5583 62.2721 16.3003 62.7963 16.1938C64.0973 15.9358 65.2573 16.8696 65.2519 18.1786C65.2439 20.2618 65.2094 22.345 65.212 24.4282C65.212 25.6946 66.0288 26.4741 67.1037 26.2294C67.4469 26.1522 67.8513 25.9527 68.0455 25.6786C68.5031 25.0401 68.9421 24.3564 69.2188 23.6274C69.7296 22.2838 70.0861 20.9003 70.0409 19.4237C69.977 17.4097 70.0303 15.3957 70.0116 13.379C70.0063 12.8948 70.1979 12.6447 70.6635 12.5409C72.0044 12.243 73.2096 13.1901 73.2229 14.5683C73.2282 15.0551 73.2229 15.5394 73.2229 16.0262L73.3905 16.0182C73.9625 15.244 74.4893 14.4352 75.1119 13.7063C75.9872 12.6793 77.0966 12.1153 78.4987 12.2004C79.8875 12.2829 80.9305 13.0544 81.3482 14.39C81.8297 15.9305 81.6355 17.5108 81.6142 19.0779C81.5929 20.8045 81.5184 22.5339 81.4892 24.2606C81.4812 24.6783 81.5131 25.1066 81.6089 25.511C81.8377 26.4848 82.6731 26.8227 83.5537 26.3305C84.4104 25.8516 84.7776 25.0108 85.1155 24.1675C85.5225 23.1538 85.7114 22.1055 85.7114 20.9961C85.7114 18.0509 85.7753 15.103 85.8498 12.1578C85.8657 11.514 85.7061 11.2266 85.0117 11.2453C84.2827 11.2665 83.5511 11.1947 82.8221 11.1282C81.8696 11.0404 81.0661 9.77665 81.428 8.89335C81.5051 8.70179 81.8563 8.50757 82.0798 8.50757C83.0961 8.51822 84.1151 8.57941 85.1288 8.66454C85.6662 8.70977 85.9056 8.56078 85.895 7.98611C85.8737 6.78887 85.9083 5.59163 85.895 4.39705C85.8923 4.09375 85.8285 3.77715 85.7141 3.49513C85.5731 3.14394 85.6316 2.98431 86.0014 2.85927C87.6137 2.31652 89.0371 3.31156 89.0211 4.99301C89.0105 6.03328 89.0052 7.07621 88.9626 8.11647C88.944 8.58473 89.1302 8.75234 89.5772 8.74968C92.0594 8.73106 94.5391 8.72308 97.0213 8.71243C97.0426 8.71243 97.0666 8.70977 97.0879 8.70711C98.0802 8.61932 98.2053 8.7683 97.9924 9.77133C97.9472 9.98683 97.8967 10.205 97.8301 10.4152C97.6306 11.0431 97.3007 11.3942 96.5398 11.373C94.3023 11.3144 92.0648 11.341 89.8273 11.341C88.9386 11.341 88.9253 11.357 88.9147 12.2164C88.8562 16.271 88.8003 20.3256 88.7444 24.3803C88.7418 24.5798 88.7391 24.7794 88.7497 24.9789C88.7817 25.6574 88.9626 26.2879 89.657 26.5433C90.3807 26.8094 91.0937 26.6471 91.6045 26.0644C92.3761 25.1838 92.8709 24.1675 92.9561 22.9596C93.1423 20.2645 93.3418 17.572 93.5972 14.8849C93.7436 13.3338 94.2703 12.932 95.8028 12.9826C96.6648 13.0119 96.8963 13.3045 96.734 14.1665C96.5398 15.1882 96.3296 16.2045 96.1513 17.2288C95.7709 19.3998 95.6538 21.5841 95.8534 23.779C95.9039 24.3218 96.0582 24.8672 96.2338 25.386C96.7553 26.9291 98.1361 27.3335 99.4504 26.3464C100.443 25.5988 101.057 24.5745 101.406 23.4092C101.613 22.7175 101.757 21.9885 101.789 21.2675C101.879 19.2987 101.917 17.3272 101.925 15.3558C101.925 14.7944 101.802 14.2197 101.656 13.6717C101.555 13.2992 101.704 13.2007 101.989 13.097C103.404 12.5729 104.721 13.4482 104.716 14.978C104.702 18.1254 104.63 21.2701 104.599 24.4175C104.593 24.8326 104.633 25.2609 104.732 25.6653C104.886 26.3092 105.272 26.8147 105.955 26.9211C106.676 27.0355 107.307 26.7216 107.65 26.107C108.012 25.4578 108.23 24.7288 108.488 24.0264C108.595 23.7364 108.629 23.4225 108.704 23.1219C108.903 22.3104 109.273 21.9113 109.763 21.9645C110.321 22.0284 110.944 22.7308 110.981 23.3773C110.997 23.6407 111.018 23.936 110.917 24.1648C110.388 25.3514 109.946 26.6018 109.238 27.6767C108.166 29.3023 106.025 29.9328 104.157 29.3768C103.05 29.0469 102.39 28.2487 101.978 27.2111C101.909 27.0355 101.842 26.8599 101.717 26.5327C101.406 26.9291 101.177 27.2084 100.962 27.4958C99.5515 29.3768 97.4257 30.0126 95.5235 29.0203C94.9408 28.717 94.4433 28.1849 94.0149 27.6687C93.6717 27.2537 93.5041 27.2617 93.1582 27.6341C91.8253 29.0602 90.1971 29.5949 88.2815 29.1426C87.4966 28.9564 86.8794 28.5041 86.4005 27.8576C86.2595 27.6661 86.1158 27.4772 86.0067 27.3335C85.2432 27.8443 84.5727 28.4482 83.7905 28.7888C80.9384 30.0313 78.4216 28.3578 78.4242 25.2476C78.4242 22.5898 78.5014 19.9319 78.528 17.274C78.5333 16.7898 78.4907 16.3003 78.4242 15.8187C78.2939 14.8849 77.6793 14.5337 76.8572 15.0072C76.2559 15.3558 75.6812 15.816 75.2263 16.3402C73.8295 17.9445 73.0526 19.8042 73.0579 21.9752C73.0633 23.8801 73.0047 25.7851 72.9622 27.69C72.9489 28.3205 72.8265 28.8952 72.0336 28.9963C71.169 29.1054 70.3256 28.6983 70.0382 28.0066C69.9398 27.7725 69.8653 27.5277 69.7935 27.3202C69.0538 27.7672 68.4047 28.2806 67.6677 28.5839C65.8665 29.3289 64.2276 28.9271 62.9133 27.4878C62.5675 27.1073 62.3759 27.3069 62.1019 27.5437C60.4603 28.9511 58.2255 29.2171 56.4828 28.1742C56.0359 27.9082 55.6394 27.5304 55.2803 27.1472C54.7322 26.5593 54.7535 26.538 54.1549 27.126C52.8805 28.3738 51.3719 28.9777 49.616 28.5068C48.9243 28.3205 48.2804 27.8603 47.6978 27.4133C47.3439 27.1419 47.147 26.9876 46.7612 27.3255C44.5796 29.2491 40.7405 28.8846 39.1335 26.4076C38.902 26.0485 38.6786 26.1309 38.4364 26.3624C36.7071 27.9986 34.592 28.4775 32.3013 28.3472C30.0026 28.2168 28.1136 27.2776 26.8445 25.2982C26.5519 24.8406 26.3337 24.7767 25.8495 25.072C23.2688 26.6311 20.6215 28.0518 17.671 28.8181C15.9816 29.257 15.5266 29.0948 14.4917 27.7539C10.453 22.5179 7.11136 16.8217 3.52762 11.2852C2.42882 9.57445 1.197 7.95418 0.0503089 6.27273C-0.0454702 6.13172 -0.000241185 5.76723 0.119483 5.63154C1.05067 4.58861 3.19772 4.78815 3.97193 6.00401C5.40064 8.24418 6.78677 10.5083 8.19685 12.7564C9.27969 14.4805 10.3812 16.1938 11.456 17.9232C11.6875 18.2957 11.8817 18.3781 12.2967 18.152C13.5259 17.4842 14.8482 17.1224 16.2556 17.2368C16.801 17.282 17.0112 17.0532 17.1176 16.5743C17.7508 13.7009 18.4 10.8302 19.0305 7.95684C19.4802 5.90557 19.9431 3.8543 20.3342 1.78973C20.6056 0.355707 22.3589 -0.312086 23.6599 0.124241C24.0297 0.249286 24.192 0.491394 24.0776 0.949005C23.3326 3.90485 22.5983 6.86337 21.9039 9.83252C21.1536 13.0411 20.4406 16.2577 19.7249 19.4743C19.254 21.5921 18.8124 23.7125 18.3627 25.8329C18.3175 26.0431 18.3042 26.264 18.2616 26.6045C18.5942 26.5247 18.8416 26.4954 19.0678 26.4076C21.2281 25.5669 23.1943 24.383 25.0806 23.0474C25.5941 22.6829 25.6233 22.2891 25.5222 21.7357C24.9529 18.6522 25.5276 15.8214 27.6028 13.4109C28.8426 11.9716 30.4149 11.1628 32.3891 11.2532C34.0067 11.3277 35.3556 12.509 35.7067 14.0894C36.3 16.7738 35.0443 18.6921 33.1553 20.3017C32.0831 21.2169 30.8726 21.9752 29.6966 22.7627C29.3055 23.0234 29.2709 23.2336 29.4838 23.622C30.6411 25.7106 33.6315 26.4741 35.752 25.1119C36.473 24.649 37.0716 23.9466 37.6037 23.2602C37.8724 22.9143 37.9629 22.3583 37.9735 21.8954C38.0134 19.7324 38.3753 17.6598 39.5831 15.8161C41.1342 13.4508 43.4595 12.3201 46.1467 11.8492C46.7373 11.7454 46.9156 11.5326 46.9209 10.9579C46.9368 8.91996 47.0167 6.88199 47.0273 4.84402C47.03 4.06183 46.9129 3.27963 46.8384 2.37239L46.8411 2.38303ZM46.8863 19.0007C46.9475 17.407 46.8171 15.8107 46.8943 14.2171C46.8996 14.1186 46.9156 13.8153 46.732 13.6717C46.6149 13.5812 46.4313 13.5759 46.1733 13.6424C44.3322 14.1133 42.9514 15.1669 42.092 16.8723C41.4508 18.1414 41.1608 19.5142 41.1635 20.9136C41.1635 21.9379 41.2327 23.0208 41.5652 23.9759C42.3448 26.2214 44.7446 26.6018 46.2903 24.7953C46.5963 24.4388 46.6309 24.0318 46.6628 23.8509C47.0087 21.9566 46.8278 20.6423 46.889 19.0007H46.8863ZM28.6377 19.3705C28.6377 19.6339 28.6164 19.7483 28.643 19.8521C28.6989 20.0756 28.7761 20.2964 28.8452 20.5172C29.0421 20.4401 29.2683 20.4001 29.4306 20.2778C30.0664 19.8042 30.7475 19.3652 31.2956 18.8012C32.3678 17.6997 32.8839 16.3615 32.5833 14.805C32.4449 14.0814 32.0538 13.8579 31.3302 13.9696C30.5746 14.084 30.1356 14.6028 29.7817 15.2068C28.9995 16.5371 28.7441 18.011 28.6351 19.3705H28.6377Z" fill="#F8580B"/>
</svg>
