<?xml version="1.0" encoding="UTF-8"?>
<svg width="24px" height="24px" viewBox="0 0 24 24" version="1.1" xmlns="http://www.w3.org/2000/svg" xmlns:xlink="http://www.w3.org/1999/xlink">
    <!-- Generator: Sketch 55.2 (78181) - https://sketchapp.com -->
    <title>12 to 6 PM</title>
    <desc>Created with Sketch.</desc>
    <defs>
        <polygon id="path-1" points="0 -6.66442429e-05 19.9999956 -6.66442429e-05 19.9999956 19.0146364 0 19.0146364"></polygon>
    </defs>
    <g id="12-to-6-PM" stroke="none" stroke-width="1" fill="none" fill-rule="evenodd">
        <g id="12-6" transform="translate(2.000000, 2.000000)">
            <mask id="mask-2" fill="white">
                <use xlink:href="#path-1"></use>
            </mask>
            <g id="Clip-2"></g>
            <path d="M19.4333636,18.0773636 L0.468818182,18.0773636 C0.209727273,18.0773636 -0.000272727273,18.2873636 -0.000272727273,18.5464545 C-0.000272727273,18.8055455 0.209727273,19.0146364 0.468818182,19.0146364 L19.4333636,19.0146364 C19.6924545,19.0146364 19.9024545,18.8055455 19.9024545,18.5464545 C19.9024545,18.2873636 19.6924545,18.0773636 19.4333636,18.0773636 L19.4333636,18.0773636 Z M19.4333636,14.7128182 L0.468818182,14.7128182 C0.209727273,14.7128182 -0.000272727273,14.9219091 -0.000272727273,15.181 C-0.000272727273,15.441 0.209727273,15.6500909 0.468818182,15.6500909 L19.4333636,15.6500909 C19.6924545,15.6500909 19.9024545,15.441 19.9024545,15.181 C19.9024545,14.9219091 19.6924545,14.7128182 19.4333636,14.7128182 L19.4333636,14.7128182 Z M19.4988182,11.231 L0.536090909,11.231 C0.277909091,11.2128182 0.0542727273,11.4082727 0.0360909091,11.6664545 C0.0188181818,11.9237273 0.212454545,12.1491818 0.471545455,12.1664545 C0.492454545,12.1682727 0.514272727,12.1682727 0.536090909,12.1664545 L19.4988182,12.1664545 C19.757,12.1846364 19.9815455,11.9900909 19.9988182,11.7319091 C20.017,11.4728182 19.8224545,11.2482727 19.5642727,11.231 C19.5415455,11.2300909 19.5206364,11.2300909 19.4988182,11.231 L19.4988182,11.231 Z M15.7433636,9.38281818 C15.7433636,9.641 15.9524545,9.85009091 16.2097273,9.851 L18.7088182,9.851 C18.967,9.86918182 19.1906364,9.67463636 19.2088182,9.41645455 C19.227,9.15736364 19.0324545,8.93372727 18.7733636,8.91554545 C18.7524545,8.91463636 18.7306364,8.91463636 18.7088182,8.91554545 L16.2097273,8.91554545 C15.9524545,8.91463636 15.7424545,9.12281818 15.7406364,9.38009091 L15.7406364,9.38281818 L15.7433636,9.38281818 Z M14.5315455,5.29918182 C14.657,5.30009091 14.777,5.25009091 14.8642727,5.161 L16.5415455,3.48281818 C16.7251818,3.29645455 16.7224545,2.99827273 16.5360909,2.81463636 C16.3506364,2.63281818 16.0515455,2.63463636 15.8688182,2.821 L14.1906364,4.501 C14.0079091,4.68372727 14.007,4.981 14.1897273,5.16372727 C14.2779091,5.25190909 14.397,5.30190909 14.5215455,5.30190909 L14.5315455,5.29918182 Z M6.21609091,10.1973636 C5.77790909,8.17554545 7.06063636,6.18281818 9.08063636,5.74372727 C11.1015455,5.30554545 13.0951818,6.58736364 13.5342727,8.60827273 C13.5888182,8.86281818 13.6179091,9.12190909 13.6188182,9.38281818 C13.6188182,9.65645455 13.5879091,9.92918182 13.5297273,10.1973636 L14.4806364,10.1973636 C14.9242727,7.651 13.2197273,5.22736364 10.6742727,4.78281818 C8.12790909,4.33918182 5.70427273,6.04372727 5.26063636,8.58918182 C5.21427273,8.85190909 5.19154545,9.11645455 5.19063636,9.38281818 C5.19245455,9.65554545 5.217,9.92827273 5.26518182,10.1973636 L6.21609091,10.1973636 Z M0.679727273,9.851 L2.78790909,9.851 C3.04790909,9.851 3.257,9.641 3.257,9.38281818 C3.257,9.12372727 3.04790909,8.91372727 2.78790909,8.91372727 L0.679727273,8.91372727 C0.420636364,8.91372727 0.210636364,9.12372727 0.210636364,9.38281818 C0.210636364,9.641 0.420636364,9.851 0.679727273,9.851 L0.679727273,9.851 Z M4.13427273,5.161 C4.33245455,5.32827273 4.62790909,5.30281818 4.79427273,5.10554545 C4.94336364,4.931 4.94336364,4.67554545 4.79609091,4.501 L3.11881818,2.82281818 C2.93609091,2.63736364 2.63609091,2.63463636 2.45063636,2.81736364 C2.26427273,3.00009091 2.26245455,3.29918182 2.44518182,3.48463636 L4.13427273,5.161 Z M9.40427273,2.451 L9.40427273,0.501909091 C9.38609091,0.242818182 9.58063636,0.0191818182 9.83881818,0.001 C10.097,-0.0162727273 10.3215455,0.178272727 10.3388182,0.436454545 C10.3406364,0.458272727 10.3406364,0.480090909 10.3388182,0.501909091 L10.3388182,2.451 C10.3579091,2.70918182 10.1624545,2.93281818 9.90427273,2.951 C9.64518182,2.96827273 9.42154545,2.77372727 9.40427273,2.51554545 C9.40245455,2.49372727 9.40245455,2.47190909 9.40427273,2.451 L9.40427273,2.451 Z" id="Fill-1" fill="#000000" mask="url(#mask-2)"></path>
        </g>
    </g>
</svg>