<?xml version="1.0" encoding="UTF-8"?>
<svg width="24px" height="24px" viewBox="0 0 24 24" version="1.1" xmlns="http://www.w3.org/2000/svg" xmlns:xlink="http://www.w3.org/1999/xlink">
    <!-- Generator: Sketch 55.2 (78181) - https://sketchapp.com -->
    <title>6 AM To 12 PM</title>
    <desc>Created with Sketch.</desc>
    <g id="6-AM-To-12-PM" stroke="none" stroke-width="1" fill="none" fill-rule="evenodd">
        <g id="6-12" transform="translate(2.000000, 2.000000)" stroke="#000000">
            <g id="Group">
                <path d="M14.8574087,9.93911739 C14.8574087,12.5979 12.7026261,14.7526826 10.0438435,14.7526826 C7.38414783,14.7526826 5.22845217,12.5979 5.22845217,9.93911739 C5.22845217,7.28033478 7.38414783,5.12555217 10.0438435,5.12555217 C12.7026261,5.12555217 14.8574087,7.28033478 14.8574087,9.93911739 Z" id="Stroke-1"></path>
                <path d="M10.0434783,2.66453526e-15 L10.0434783,2.394" id="Stroke-3" stroke-linecap="round"></path>
                <path d="M10.0434783,17.6928652 L10.0434783,20.0868652" id="Stroke-5" stroke-linecap="round"></path>
                <path d="M2.88657986e-15,10.0434783 L2.394,10.0434783" id="Stroke-7" stroke-linecap="round"></path>
                <path d="M17.6919522,10.0434783 L20.0868652,10.0434783" id="Stroke-9" stroke-linecap="round"></path>
                <path d="M2.34944348,16.4989696 L4.18374783,14.9595783" id="Stroke-11" stroke-linecap="round"></path>
                <path d="M15.902387,5.12646522 L17.7366913,3.58707391" id="Stroke-13" stroke-linecap="round"></path>
                <path d="M16.4989696,17.737513 L14.9595783,15.9032087" id="Stroke-15" stroke-linecap="round"></path>
                <path d="M5.1260087,4.18356522 L3.58661739,2.35017391" id="Stroke-17" stroke-linecap="round"></path>
            </g>
        </g>
    </g>
</svg>