<?xml version="1.0" encoding="UTF-8"?>
<svg width="24px" height="24px" viewBox="0 0 24 24" version="1.1" xmlns="http://www.w3.org/2000/svg" xmlns:xlink="http://www.w3.org/1999/xlink">
    <!-- Generator: Sketch 55.2 (78181) - https://sketchapp.com -->
    <title>before 6AM</title>
    <desc>Created with Sketch.</desc>
    <defs>
        <polygon id="path-1" points="0.580667388 0.433544536 18.1818182 0.433544536 18.1818182 13.6363636 0.580667388 13.6363636"></polygon>
        <polygon id="path-3" points="0 0.699406354 2.23598053 0.699406354 2.23598053 1.82680216 0 1.82680216"></polygon>
    </defs>
    <g id="before-6AM" stroke="none" stroke-width="1" fill="none" fill-rule="evenodd">
        <g id="6am" transform="translate(2.000000, 3.000000)">
            <path d="M11.7699091,3.62672727 C11.6153636,3.75854545 11.3844545,3.74036364 11.2535455,3.58672727 C11.1380909,3.45036364 11.1362727,3.25127273 11.2508182,3.114 L12.3599091,2.004 C12.4853636,1.84581818 12.7153636,1.81945455 12.8744545,1.944 C13.0335455,2.07036364 13.0599091,2.30036364 12.9335455,2.45854545 C12.9180909,2.47945455 12.899,2.49854545 12.8799091,2.51490909 L11.7699091,3.62672727 Z" id="Fill-1" fill="#000000"></path>
            <path d="M3.08918182,3.67554545 L1.97918182,2.56554545 C1.82372727,2.43645455 1.80281818,2.20554545 1.93281818,2.05009091 C2.06190909,1.89463636 2.29281818,1.87372727 2.44827273,2.00281818 C2.46463636,2.01645455 2.47918182,2.031 2.49281818,2.04645455 L3.60190909,3.15645455 C3.75736364,3.28554545 3.77918182,3.51645455 3.64918182,3.67190909 C3.52009091,3.82736364 3.28918182,3.84827273 3.13372727,3.71918182 C3.11736364,3.70554545 3.10281818,3.69190909 3.08918182,3.67554545" id="Fill-3" fill="#000000"></path>
            <path d="M9.27081818,1.98218182 C9.229,2.17854545 9.03536364,2.304 8.83809091,2.26309091 C8.64263636,2.22127273 8.51627273,2.02763636 8.55809091,1.83127273 L8.55809091,1.80036364 L8.95990909,0.288545455 C9.00172727,0.0921818182 9.19445455,-0.0332727273 9.39172727,0.00854545455 C9.58809091,0.0503636364 9.71354545,0.243090909 9.67172727,0.439454545 L9.67172727,0.470363636 L9.27081818,1.98218182 Z" id="Fill-5" fill="#000000"></path>
            <g id="Group-9" transform="translate(1.818182, 2.732000)">
                <mask id="mask-2" fill="white">
                    <use xlink:href="#path-1"></use>
                </mask>
                <g id="Clip-8"></g>
                <path d="M16.7290909,8.72454545 C17.6881818,9.67272727 17.6963636,11.2190909 16.7481818,12.1772727 C16.2872727,12.6445455 15.6563636,12.9054545 15.0009091,12.9018557 L4.54090909,12.9018557 C2.75727273,12.8990909 1.31363636,11.45 1.31726587,9.66636364 C1.32,7.88363636 2.76909091,6.44 4.55090909,6.44272727 C5.04818182,6.44363636 5.53818182,6.55909091 5.98363636,6.78 C6.16272727,6.87090909 6.38090909,6.79909091 6.47181818,6.61909091 C6.48909091,6.58454545 6.50090909,6.54636364 6.50727273,6.50818182 C6.85818182,4.32181818 8.91454545,2.83454545 11.1009091,3.18636364 C13.0254545,3.49545455 14.4490909,5.14545455 14.4727273,7.09545455 L14.4727273,7.35090909 C14.4727273,7.43181818 14.4654545,7.50636364 14.4518182,7.57272727 C14.4045455,7.76818182 14.5254545,7.96454545 14.7209091,8.01272727 C14.7581818,8.02181818 14.7963636,8.02363636 14.8336364,8.02181818 L15.0009091,8.02181818 C15.6490909,8.02090909 16.2709091,8.27818182 16.7290909,8.73636364 L16.7290909,8.72454545 Z M6.84454545,1.40090909 C7.54090909,1.67181818 8.12909091,2.16181818 8.52272727,2.79636364 C8.20818182,2.93818182 7.91090909,3.11454545 7.63454545,3.32090909 C7.41272727,3.54272727 7.15272727,3.63545455 7.06818182,3.81090909 C6.48636364,4.40909091 6.07272727,5.15 5.87,5.95909091 C4.76909091,5.56545455 3.55090909,5.67727273 2.54090909,6.26545455 L2.54090909,6.23454545 C2.47636364,6.12 2.41909091,6.00090909 2.36727273,5.88 C1.65818182,4.11545455 2.51272727,2.11090909 4.27727273,1.40090909 C5.10090909,1.07 6.02090909,1.07 6.84454545,1.40090909 L6.84454545,1.40090909 Z M15.0090909,13.6363651 C16.7636364,13.6336364 18.1845455,12.2109091 18.1818221,10.4563636 C18.18,8.78363636 16.8809091,7.39909091 15.2109091,7.29090909 L15.2109091,7.10272727 C15.2109091,4.48545455 13.09,2.36363636 10.4727273,2.36363636 C10.0418182,2.36454545 9.61181818,2.42272727 9.19727273,2.53909091 C8.16454545,0.731818182 5.95909091,-0.04 4.02545455,0.730909091 L4.01454545,0.730909091 C1.87818182,1.58727273 0.839090909,4.01272727 1.69272727,6.15 C1.75181818,6.29545455 1.82,6.43636364 1.89545455,6.57454545 L1.95454545,6.68272727 C1.88090909,6.74818182 1.80727273,6.81454545 1.73272727,6.88545455 C0.190909091,8.43545455 0.197272727,10.9418182 1.74818182,12.4845455 C2.49181818,13.2227273 3.49636364,13.6372727 4.54545455,13.6363651 L15.0090909,13.6363651 Z" id="Fill-7" fill="#000000" mask="url(#mask-2)"></path>
            </g>
            <g id="Group-12" transform="translate(0.000000, 4.550182)">
                <mask id="mask-4" fill="white">
                    <use xlink:href="#path-3"></use>
                </mask>
                <g id="Clip-11"></g>
                <path d="M2.22627273,1.55345455 C2.17627273,1.748 1.97809091,1.86527273 1.78354545,1.81527273 L1.78263636,1.81527273 L0.264454545,1.41345455 C0.0708181818,1.35890909 -0.041,1.15709091 0.0135454545,0.963454545 C0.0680909091,0.776181818 0.260818182,0.663454545 0.450818182,0.709818182 L1.96172727,1.11163636 C2.15718182,1.16163636 2.27445455,1.35981818 2.22445455,1.55436364 C2.22445455,1.55527273 2.22354545,1.55527273 2.22354545,1.55527273 L2.22627273,1.55345455 Z" id="Fill-10" fill="#000000" mask="url(#mask-4)"></path>
            </g>
            <path d="M0.279363636,9.06445455 L1.78209091,8.65354545 C1.97572727,8.59809091 2.17845455,8.70990909 2.23390909,8.90354545 C2.28936364,9.09718182 2.17754545,9.299 1.98390909,9.35536364 L0.482090909,9.76809091 C0.288454545,9.82354545 0.0857272727,9.71172727 0.0302727273,9.519 C-0.0260909091,9.32445455 0.0857272727,9.12263636 0.279363636,9.06627273 L0.279363636,9.06445455 Z" id="Fill-13" fill="#000000"></path>
            <path d="M6.02327273,2.25736364 C5.83327273,2.30918182 5.636,2.20009091 5.57963636,2.011 L5.17781818,0.503727273 C5.12236364,0.310090909 5.23418182,0.108272727 5.42781818,0.0528181818 C5.62145455,-0.00354545455 5.82327273,0.108272727 5.87963636,0.301909091 L6.29236364,1.80918182 C6.34418182,1.99827273 6.23509091,2.19554545 6.04781818,2.25281818 L6.02327273,2.25736364 Z" id="Fill-15" fill="#000000"></path>
        </g>
    </g>
</svg>