<svg xmlns="http://www.w3.org/2000/svg" id="Group_978" width="70.918" height="71.919" data-name="Group 978" viewBox="0 0 70.918 71.919">
    <defs>
        <style>
            .cls-1{fill:#06ac39}
        </style>
    </defs>
    <path id="Compound_Path" d="M44.859 9.4C25.276 9.4 9.4 25.5 9.4 45.359s15.876 35.96 35.459 35.96 35.459-16.1 35.459-35.959S64.443 9.4 44.859 9.4zm0 66.6a30.648 30.648 0 1 1 30.219-30.641A30.434 30.434 0 0 1 44.859 76z" class="cls-1" data-name="Compound Path" transform="translate(-9.4 -9.4)"/>
    <path id="Path" d="M55.5 37.5L41.609 50.651l-6.355-6.5a2.221 2.221 0 1 0-3.177 3.1l7.906 8.054a2 2 0 0 0 1.552.665 2.512 2.512 0 0 0 1.552-.591L58.53 40.75a2.217 2.217 0 0 0 .148-3.1 2.291 2.291 0 0 0-3.178-.15z" class="cls-1" transform="translate(-9.633 -10.668)"/>
</svg>
