<svg width="468" height="258" viewBox="0 0 468 258" fill="none" xmlns="http://www.w3.org/2000/svg">
<g opacity="0.6" clip-path="url(#clip0_162_903)">
<path d="M453.949 252.284C437.409 252.968 420.867 253.581 404.322 254.125C277.727 258.279 150.992 258.285 24.1175 254.145C4.02676 209.243 26.8011 174.925 74.4532 136.133C102.098 113.582 148.11 102.465 159.38 70.011C165.032 53.7336 154.624 47.7639 159.107 35.5286C171.861 0.700362 266.141 -11.8919 328.294 13.0834C404.723 43.797 451.773 139.04 453.949 252.284Z" fill="#EDF4FF"/>
<path opacity="0.4" d="M373.236 85.1475H172.211V237.031H373.236V85.1475Z" fill="#CBD9EF"/>
<path d="M93.498 253.79C93.498 253.79 99.9253 235.393 120.937 234.177C141.951 232.963 153.625 216.638 175.34 220.457C197.054 224.276 198.683 240.306 207.825 244.727C216.966 249.149 262.981 238.989 280.433 243.806C297.887 248.624 306.064 236.632 322.299 231.443C338.535 226.257 349.183 233.368 360.863 241.46C372.543 249.553 388.89 240.551 388.176 253.408L93.498 253.788V253.79Z" fill="#B8E0AF"/>
<path d="M210.784 72.0056L210.748 77.1162L209.688 230.779C209.688 231.15 209.554 231.446 209.392 231.446H209.314C208.996 231.446 208.736 230.863 208.728 230.132L207.258 81.8055L207.16 72.0056H210.784Z" fill="#E58638"/>
<path d="M210.783 72.0056L210.746 77.1162C209.776 77.8136 208.389 79.1889 207.254 81.8055L207.156 72.0056H210.78H210.783Z" fill="#CC621B"/>
<path d="M373.236 161.039V237.031H172.211V85.1475H231.284C249.402 102.549 312.972 159.29 373.239 161.039H373.236Z" fill="#CADEF9"/>
<path d="M427.183 252.859H407.36C406.297 251.958 408.094 249.91 409.974 249.773C410.788 249.712 411.821 249.882 413.001 250.131C413.274 246.507 414.831 230.221 420.703 230.874C427.303 231.607 420.703 238.046 418.837 241.859C417.453 244.682 415.997 248.733 415.33 250.644C415.866 250.761 416.421 250.875 416.987 250.979C417.863 248.292 421.118 239.257 425.258 239.781C430.118 240.398 428.165 244.021 424.72 246.172C422.192 247.754 419.088 250.002 417.615 251.087C418.864 251.291 420.167 251.428 421.492 251.397C424.887 251.316 426.544 252.318 427.189 252.856L427.183 252.859Z" fill="#B8E0AF"/>
<path d="M38.159 251.707C37.0822 250.016 33.8434 245.628 29.5307 246.208C24.8302 246.842 34.7222 249.941 37.7489 251.718C37.0766 251.726 36.4991 251.673 36.0723 251.523C34.0471 250.8 30.5824 252.184 29.4721 252.669H48.7455C48.6116 252.209 48.2657 251.456 47.3675 250.906C47.0522 250.714 46.4162 250.686 45.5933 250.747C46.7398 249.397 47.5348 245.081 44.3435 246.192C42.0142 247.003 42.0198 249.64 42.2485 251.199C41.752 251.277 41.2498 251.355 40.7533 251.428C39.7937 246.538 36.3987 232.205 29.5223 231.822C22.5483 231.435 35.4363 246.685 39.7267 251.564C39.1772 251.631 38.6471 251.682 38.159 251.704V251.707Z" fill="#B8E0AF"/>
<path d="M355.135 212.672L355.021 217.738L354.22 253.043C354.214 253.263 354.036 253.439 353.815 253.439C353.436 253.439 353.126 253.141 353.112 252.761L351.815 219.333L351.559 212.672H355.138H355.135Z" fill="#CC621B"/>
<path d="M355.134 212.672L355.019 217.738C354.01 218.075 352.816 218.586 351.811 219.333L351.555 212.672H355.134Z" fill="#B25414"/>
<path d="M194.18 212.672L194.065 217.738L193.265 253.043C193.259 253.263 193.081 253.439 192.86 253.439C192.481 253.439 192.171 253.141 192.157 252.761L190.86 219.333L190.604 212.672H194.183H194.18Z" fill="#CC621B"/>
<path d="M194.179 212.672L194.064 217.738C193.054 218.075 191.863 218.586 190.856 219.333L190.6 212.672H194.179Z" fill="#B25414"/>
<path d="M182.096 199.728H363.632C364.781 199.728 365.716 200.662 365.716 201.812V212.287C365.716 213.436 364.781 214.371 363.632 214.371H182.096C180.946 214.371 180.012 213.436 180.012 212.287V201.809C180.012 200.66 180.946 199.725 182.096 199.725V199.728Z" fill="#EB3535"/>
<path d="M174.386 237.042L173.331 241.472L171.933 247.347H167.568L167.308 241.717L167.107 237.379L174.386 237.042Z" fill="#FFB27D"/>
<path d="M188.222 140.622C188.222 140.622 191.676 136.925 193.924 139.824C196.17 142.722 198.661 144.681 202.109 146.909C205.557 149.138 199.063 166.615 194.744 166.255C190.426 165.896 172.807 152.118 188.225 140.622H188.222Z" fill="#ED7D2B"/>
<path d="M171.02 138.864C171.882 138.22 179.824 135.494 187.565 138.175C195.306 140.856 181.567 148.327 181.567 148.327L177.115 148.519L171.02 138.867V138.864Z" fill="#A53232"/>
<path d="M176.074 133.815C176.074 133.815 175.92 138.574 175.31 140.708L170.486 151.102L188.638 146.789L184.309 140.809C184.309 140.809 183.001 134.426 183.687 132.066C184.373 129.706 176.071 133.818 176.071 133.818L176.074 133.815Z" fill="#FFB27D"/>
<path d="M176.045 134.471C176.045 134.471 177.479 137.927 180.185 137.849C182.888 137.773 183.504 134.716 183.504 134.716L176.045 134.471Z" fill="#ED985F"/>
<path d="M174.432 131.675C174.432 131.675 173.559 127.318 172.951 125.996C172.343 124.676 171.835 118.784 178.586 118.48C178.586 118.48 181.175 118.784 182.598 117.922C182.598 117.922 182.598 118.784 182.243 119.091C182.243 119.091 184.578 118.533 186.405 120.564C188.233 122.595 185.186 129.703 185.34 131.38L174.432 131.675Z" fill="#2C3A64"/>
<path d="M179.876 136.515C177.918 136.482 174.311 133.874 174.311 130.64V125.6C174.311 124.42 175.133 123.454 176.138 123.454H183.611C184.615 123.454 185.438 124.42 185.438 125.6V130.356C185.438 133.742 182.119 136.554 179.873 136.515H179.876Z" fill="#FFB27D"/>
<path d="M174.311 128.292C174.311 128.292 174.322 125.262 176.721 124.796C179.12 124.33 184.49 126.272 185.252 124.065C186.013 121.856 174.874 121.895 174.311 123.304C173.747 124.712 174.311 128.292 174.311 128.292Z" fill="#2C3A64"/>
<path d="M193.671 179.726L183.046 180.39C182.984 180.29 182.917 180.29 182.839 180.404L179.712 180.599L166.389 179.768C166.389 179.768 163.039 195.064 164.355 215.447C164.777 221.95 165.443 230.631 165.577 236.852H175.461C176.644 229.15 178.292 221.191 179.029 217.891C179.364 216.393 179.673 214.906 179.963 213.436C180.228 215.11 180.396 216.468 180.393 217.316C180.387 218.672 180.783 220.826 181.33 223.426C182.097 227.086 183.169 231.621 183.844 236.026H193.869C193.984 229.959 195.25 221.679 195.359 215.447C195.649 198.827 193.671 179.729 193.671 179.729V179.726Z" fill="#2B478B"/>
<path d="M165.049 187.607C165.049 187.607 168.854 192.218 179.198 191.554C189.539 190.888 194.474 189.088 194.474 189.088L165.049 187.607Z" fill="#233862"/>
<path d="M194.473 189.088C191.094 189.549 168.114 190.742 165.048 187.607C161.985 184.471 170.05 141.71 170.05 141.71C170.05 141.71 170.962 141.445 172.504 141.154C173.291 141.007 174.237 140.853 175.311 140.725C175.325 141.057 175.59 146.1 179.774 148.181C179.774 148.181 184.801 146.167 184.307 140.806C184.302 140.742 184.293 140.683 184.285 140.622C184.954 140.694 185.635 140.786 186.319 140.903C187.697 141.14 189.094 141.475 190.478 141.933C190.478 141.933 197.848 188.628 194.47 189.085L194.473 189.088Z" fill="#BC3F3F"/>
<path d="M165.241 167.011C165.105 167.19 166.022 168.504 167.314 170.197C169.972 173.673 174.227 178.73 174.227 178.73C174.171 180.446 173.931 181.551 173.931 181.551C168.089 178.789 164.137 176.209 161.52 174.133C157.838 171.215 156.783 169.302 156.783 169.302C162.686 144.329 170.26 141.729 170.26 141.729L172.731 156.776C172.731 156.776 165.657 166.467 165.244 167.008L165.241 167.011Z" fill="#BC3F3F"/>
<path d="M186.322 140.903L184.799 145.534L182.771 148.513L179.858 150.092L177.116 148.513L172.508 141.152C173.294 141.004 174.24 140.85 175.314 140.722C175.328 141.054 175.593 146.098 179.778 148.179C179.778 148.179 184.804 146.165 184.311 140.803C184.305 140.739 184.297 140.68 184.288 140.619C184.958 140.691 185.639 140.783 186.322 140.901V140.903Z" fill="#EE9849"/>
<path d="M174.231 178.731C174.231 178.778 174.228 178.825 174.225 178.873C174.211 179.188 174.195 179.484 174.17 179.754C174.025 179.958 173.86 180.148 173.684 180.326C173.416 180.597 173.126 180.826 172.831 181.018C172.683 180.948 172.535 180.876 172.39 180.803C167.385 178.326 163.904 176.019 161.521 174.133C163.033 173.667 165.151 172.605 167.318 170.194C169.977 173.67 174.231 178.728 174.231 178.728V178.731Z" fill="#FFB27D"/>
<path d="M203.243 168.387C203.243 168.387 202.225 170.32 198.599 173.308C196.021 175.43 192.118 178.089 186.33 180.959C186.33 180.959 186.071 179.858 185.979 178.145C185.979 178.145 190.135 173.006 192.727 169.48C193.987 167.765 194.877 166.431 194.738 166.255C194.409 165.843 189.973 160.009 187.995 157.407C187.421 156.651 187.055 156.168 187.055 156.168L189.56 141.372C189.56 141.372 196.861 143.528 203.241 168.384L203.243 168.387Z" fill="#BC3F3F"/>
<path d="M198.601 173.305C196.249 175.241 192.796 177.623 187.814 180.209C187.691 180.273 187.565 180.337 187.44 180.401C186.804 179.634 186.416 178.717 186.182 177.902C186.265 177.799 186.374 177.662 186.505 177.5C187.699 176.011 190.698 172.247 192.734 169.48C194.947 171.848 197.086 172.869 198.604 173.307L198.601 173.305Z" fill="#FFB27D"/>
<path d="M184.289 140.622C180.936 140.262 177.792 140.426 175.312 140.725C175.312 140.714 175.312 140.708 175.312 140.708C175.312 140.708 183.623 135.57 184.292 140.624L184.289 140.622Z" fill="#FFB27D"/>
<path d="M175.959 155.155H175.786L175.66 147.146H176.093L175.959 155.155Z" fill="#BBD4FF"/>
<path d="M175.768 154.946C175.612 155.181 175.264 155.956 175.495 156.037C175.727 156.118 176.134 156.123 176.243 156.015C176.352 155.906 176.061 154.506 175.768 154.946Z" fill="#EE9849"/>
<path d="M183.819 155.155H183.649L183.523 147.146H183.956L183.819 155.155Z" fill="#BBD4FF"/>
<path d="M183.632 154.946C183.476 155.181 183.127 155.956 183.358 156.037C183.59 156.118 183.997 156.123 184.106 156.015C184.215 155.906 183.925 154.506 183.632 154.946Z" fill="#EE9849"/>
<path d="M177.114 148.516L170.051 141.71C170.051 141.71 168.461 140.58 170.974 138.892C173.488 137.204 177.114 148.516 177.114 148.516Z" fill="#A53232"/>
<path d="M182.77 148.516L189.833 141.71C189.833 141.71 191.423 140.58 188.909 138.892C186.396 137.204 182.77 148.516 182.77 148.516Z" fill="#A53232"/>
<path d="M191.634 181.051C190.259 181.169 189.11 180.823 188.225 180.03C188.075 179.897 187.941 179.754 187.813 179.606C187.115 178.792 186.722 177.762 186.501 176.898C186.248 175.907 186.222 175.129 186.222 175.112L186.217 174.914H174.807L174.816 175.126C174.86 176.354 174.662 177.405 174.224 178.273C174.007 178.705 173.731 179.093 173.393 179.433C173.083 179.746 172.74 180 172.389 180.203C170.863 181.088 169.164 181.054 169.142 181.054L168.93 181.046V185.866H191.857V181.035L191.634 181.054V181.051Z" fill="#A53232"/>
<path d="M194.741 166.255C194.741 166.255 188.381 157.912 193.416 155.482C195.413 154.517 198.228 165.968 196.719 167.048C195.21 168.124 192.73 169.483 192.73 169.483L194.741 166.258V166.255Z" fill="#A53232"/>
<path d="M165.974 164.278C165.974 164.278 168.184 153.8 166.245 154.879C164.306 155.959 161.433 165.365 162.942 166.442C164.451 167.519 166.931 168.878 166.931 168.878L165.974 164.278Z" fill="#A53232"/>
<path d="M193.851 166.23C190.947 162.626 189.861 156.771 190.009 150.728C190.121 146.192 190.743 142.097 190.782 141.955L193.164 143.81C193.156 143.844 191.797 146.326 191.691 150.74C191.597 154.776 191.404 157.85 193.686 164.877L193.848 166.227L193.851 166.23Z" fill="#ED7D2B"/>
<path d="M171.8 239.081H166.683C166.232 239.128 165.523 238.467 165.523 237.519C165.523 237.519 165.512 235.245 165.361 234.841C164.703 233.069 165.682 232.974 166.63 232.974H175.967C176.916 232.974 175.462 235.904 175.462 236.852L175.8 238.096C175.8 239.045 172.751 239.084 171.802 239.084L171.8 239.081Z" fill="#233862"/>
<path d="M171.934 247.346L173.332 241.472C170.149 242.568 167.959 241.957 167.309 241.717L167.569 247.344C167.569 247.344 166.453 250.237 166.146 250.948C165.842 251.659 165.842 253.796 165.842 253.796H172.799C172.799 253.796 172.849 251.709 172.799 250.845C172.749 249.983 171.937 247.341 171.937 247.341L171.934 247.346Z" fill="#233862"/>
<path d="M185.031 237.042L186.086 241.472L187.483 247.347H191.849L192.108 241.72L192.309 237.379L185.031 237.042Z" fill="#FFB27D"/>
<path d="M187.618 239.081H192.734C193.186 239.128 193.895 238.467 193.895 237.519C193.895 237.519 193.906 235.245 194.056 234.841C194.715 233.069 193.735 232.974 192.787 232.974H183.45C182.502 232.974 183.955 235.904 183.955 236.852L183.618 238.096C183.618 239.045 186.667 239.084 187.615 239.084L187.618 239.081Z" fill="#233862"/>
<path d="M193.262 250.951C192.958 250.239 191.842 247.346 191.839 247.346H191.847L192.107 241.72C191.457 241.96 189.267 242.568 186.084 241.474L187.482 247.349H187.473C187.473 247.349 186.661 249.988 186.611 250.853C186.561 251.715 186.611 253.804 186.611 253.804H193.568C193.568 253.804 193.569 251.668 193.264 250.956L193.262 250.951Z" fill="#233862"/>
<path d="M68.2663 253.799H61.8418L64.3831 108.89L64.7653 87.1558H67.8088L67.8646 106.708L68.2663 253.799Z" fill="#EB3535"/>
<path d="M67.8634 106.708C66.8452 107.213 65.6345 107.924 64.3848 108.89L64.7669 87.1558H67.8104L67.8662 106.708H67.8634Z" fill="#BA2D2D"/>
<path d="M82.1366 38.4633H47.9723C46.8938 38.4633 46.0195 39.3375 46.0195 40.416V88.5702C46.0195 89.6487 46.8938 90.5229 47.9723 90.5229H82.1366C83.2151 90.5229 84.0893 89.6487 84.0893 88.5702V40.416C84.0893 39.3375 83.2151 38.4633 82.1366 38.4633Z" fill="#BA2D2D"/>
<path d="M49.9874 40.787H80.1263C81.0915 40.787 81.8754 41.5709 81.8754 42.5361V86.3413C81.8754 87.3065 81.0915 88.0904 80.1263 88.0904H49.9874C49.0222 88.0904 48.2383 87.3065 48.2383 86.3413V42.5361C48.2383 41.5709 49.0222 40.787 49.9874 40.787Z" fill="#EDF4FF"/>
<path d="M56.9706 57.0169C55.3275 56.7463 53.9271 58.1467 54.1977 59.7898C54.3595 60.7857 55.1629 61.5863 56.1588 61.7509C57.8019 62.0215 59.2023 60.6211 58.9317 58.978C58.7671 57.9821 57.9665 57.1815 56.9706 57.0169ZM56.5633 60.4537C55.9719 60.4537 55.4949 59.9767 55.4949 59.3853C55.4949 58.7939 55.9719 58.3169 56.5633 58.3169C57.1547 58.3169 57.6317 58.7939 57.6317 59.3853C57.6317 59.9767 57.1547 60.4537 56.5633 60.4537Z" fill="#BA2D2D"/>
<path d="M73.0835 57.0169C71.4404 56.7435 70.0344 58.1439 70.305 59.7897C70.4696 60.7856 71.2702 61.5862 72.2661 61.7508C73.9092 62.0186 75.3068 60.621 75.039 58.9807C74.8772 57.9848 74.0766 57.1814 73.0807 57.0169H73.0835ZM72.8436 60.4397C72.1211 60.5513 71.5046 59.9348 71.6189 59.2123C71.6887 58.7631 72.0597 58.3949 72.5088 58.328C73.2313 58.2192 73.8395 58.8329 73.7307 59.5526C73.6609 60.0017 73.2955 60.37 72.8464 60.4397H72.8436Z" fill="#BA2D2D"/>
<path d="M75.9874 48.8489H55.1881C54.6804 48.8489 54.209 49.1027 53.9272 49.5239L51.6927 52.891C51.4947 53.1895 51.3887 53.541 51.3887 53.9008V58.1355C51.3887 58.8245 51.9466 59.3824 52.6356 59.3824C53.1071 59.3824 53.5032 59.056 53.6231 58.6013C53.9663 57.3014 55.1519 56.3417 56.5634 56.3417C57.9749 56.3417 59.1019 57.254 59.4758 58.5093C59.632 59.0309 60.1146 59.3824 60.6585 59.3824H68.7456C69.2171 59.3824 69.6132 59.056 69.7331 58.6013C70.0763 57.3014 71.2618 56.3417 72.6706 56.3417C74.0794 56.3417 75.2259 57.2707 75.5913 58.54C75.7364 59.0449 76.2106 59.3824 76.7351 59.3824H77.6277C78.2275 59.3824 78.7129 58.897 78.7129 58.2973V53.6358C78.7129 53.4154 78.6738 53.1979 78.5985 52.9914L77.438 49.8587C77.2121 49.2506 76.6318 48.8461 75.9847 48.8461L75.9874 48.8489ZM57.1966 52.6316C57.1966 52.9886 56.9093 53.276 56.5522 53.276H53.8435C53.4251 53.276 53.1601 52.8241 53.3693 52.4586L54.5828 50.3301C54.8255 49.9061 55.2746 49.6439 55.7628 49.6439H56.5494C56.9065 49.6439 57.1938 49.934 57.1938 50.2883V52.6316H57.1966ZM63.3477 52.6316C63.3477 52.9886 63.0576 53.276 62.7033 53.276H58.982C58.6249 53.276 58.3376 52.9886 58.3376 52.6316V50.2883C58.3376 49.9312 58.6249 49.6439 58.982 49.6439H62.7033C63.0604 49.6439 63.3477 49.934 63.3477 50.2883V52.6316ZM69.51 52.6316C69.51 52.9886 69.2226 53.276 68.8656 53.276H65.1414C64.7844 53.276 64.497 52.9886 64.497 52.6316V50.2883C64.497 49.9312 64.7844 49.6439 65.1414 49.6439H68.8656C69.2226 49.6439 69.51 49.934 69.51 50.2883V52.6316ZM75.7113 52.6316C75.7113 52.9886 75.4239 53.276 75.0669 53.276H71.3455C70.9885 53.276 70.7011 52.9886 70.7011 52.6316V50.2883C70.7011 49.9312 70.9885 49.6439 71.3455 49.6439H75.0669C75.4239 49.6439 75.7113 49.934 75.7113 50.2883V52.6316Z" fill="#BA2D2D"/>
<path d="M57.8075 67.4696H60.2149C60.8063 67.4696 61.275 67.6314 61.5707 67.9299C61.8078 68.167 61.9249 68.4571 61.9249 68.8254C61.9249 69.4112 61.6125 69.7376 61.2443 69.944C61.844 70.1727 62.2151 70.5214 62.2151 71.2328C62.2151 72.1813 61.4451 72.6555 60.2735 72.6555H57.8047V67.4696H57.8075ZM59.9722 69.5674C60.4771 69.5674 60.7951 69.4028 60.7951 69.0039C60.7951 68.6636 60.5273 68.4711 60.0475 68.4711H58.9205V69.5674H59.9722ZM60.2763 71.6568C60.7812 71.6568 61.0853 71.4783 61.0853 71.0794C61.0853 70.7307 60.8258 70.5159 60.24 70.5159H58.9205V71.6568H60.2763Z" fill="#BA2D2D"/>
<path d="M63.0742 70.435V67.4724H64.2152V70.4071C64.2152 71.2523 64.6364 71.6903 65.3338 71.6903C66.0312 71.6903 66.4524 71.2691 66.4524 70.4461V67.4752H67.5934V70.4015C67.5934 71.9721 66.7119 72.742 65.3199 72.742C63.9278 72.742 63.0742 71.9637 63.0742 70.4378V70.435Z" fill="#BA2D2D"/>
<path d="M68.4043 71.9022L69.0794 71.096C69.5452 71.481 70.0362 71.7265 70.6276 71.7265C71.0935 71.7265 71.3752 71.5423 71.3752 71.2215C71.3752 70.9314 71.1967 70.7836 70.3291 70.5632C69.283 70.2954 68.6107 70.0081 68.6107 68.962C68.6107 68.0219 69.3667 67.3998 70.4268 67.3998C71.1827 67.3998 71.8271 67.6369 72.3544 68.0581L71.763 68.9173C71.3027 68.5993 70.8508 68.4068 70.4156 68.4068C69.9804 68.4068 69.7489 68.6077 69.7489 68.8727C69.7489 69.213 69.9721 69.3246 70.8675 69.5534C71.9192 69.8267 72.5134 70.2061 72.5134 71.1239C72.5134 72.1533 71.7267 72.7307 70.6081 72.7307C69.8214 72.7307 69.0292 72.4573 68.4071 71.8994L68.4043 71.9022Z" fill="#BA2D2D"/>
<path d="M55.0684 80.7928L55.7434 79.9838C56.2093 80.3688 56.7003 80.6143 57.2917 80.6143C57.7575 80.6143 58.0393 80.4302 58.0393 80.1094C58.0393 79.8192 57.8608 79.6714 56.9932 79.451C55.9471 79.1832 55.2748 78.8959 55.2748 77.8498C55.2748 76.9097 56.0308 76.2876 57.0908 76.2876C57.8468 76.2876 58.4912 76.5247 59.0184 76.9459L58.427 77.8051C57.9668 77.4871 57.5148 77.2946 57.0797 77.2946C56.6445 77.2946 56.4129 77.4955 56.4129 77.7605C56.4129 78.1008 56.6361 78.2124 57.5316 78.4412C58.5833 78.7146 59.1775 79.0939 59.1775 80.0117C59.1775 81.0411 58.3908 81.6185 57.2721 81.6185C56.4855 81.6185 55.6932 81.3452 55.0711 80.79L55.0684 80.7928Z" fill="#BA2D2D"/>
<path d="M61.2645 77.4146H59.6855V76.3629H63.9843V77.4146H62.4054V81.5488H61.2645V77.4146Z" fill="#BA2D2D"/>
<path d="M64.4043 78.9545C64.4043 77.4788 65.5676 76.2709 67.1688 76.2709C68.77 76.2709 69.9166 77.4648 69.9166 78.9545C69.9166 80.4441 68.7533 81.6381 67.1521 81.6381C65.5508 81.6381 64.4043 80.4441 64.4043 78.9545ZM68.7254 78.9545C68.7254 78.0646 68.0726 77.3253 67.1549 77.3253C66.2371 77.3253 65.5982 78.0506 65.5982 78.9545C65.5982 79.8583 66.251 80.5836 67.1688 80.5836C68.0866 80.5836 68.7254 79.8583 68.7254 78.9545Z" fill="#BA2D2D"/>
<path d="M70.9316 76.3629H73.0517C74.2903 76.3629 75.038 77.0966 75.038 78.1706C75.038 79.3701 74.1034 79.9922 72.9402 79.9922H72.0726V81.5488H70.9316V76.3629ZM72.9764 78.9796C73.5483 78.9796 73.8803 78.6392 73.8803 78.179C73.8803 77.6685 73.526 77.3923 72.9541 77.3923H72.0726V78.9768H72.9764V78.9796Z" fill="#BA2D2D"/>
<path d="M71.3797 253.436H58.7344L59.6382 235.92C59.6884 234.944 60.4946 234.177 61.4738 234.177H68.5259C69.5692 234.177 70.4284 234.994 70.4814 236.035L71.3797 253.439V253.436Z" fill="#EB3535"/>
<path d="M64.5674 253.436H58.7344L59.6466 235.775C59.694 234.88 60.4332 234.177 61.3315 234.177H63.1503C64.6344 234.177 65.806 235.432 65.7056 236.913L64.5674 253.436Z" fill="#BA2D2D"/>
<path d="M117.674 72.0056L117.582 77.8192L114.809 252.677C114.804 253.099 114.461 253.436 114.039 253.436H113.833C113.002 253.436 112.324 252.772 112.304 251.944L108.463 83.1585L108.209 72.0056H117.671H117.674Z" fill="#EB3535"/>
<path d="M117.675 72.0056L117.583 77.8191C115.05 78.6114 111.427 80.1764 108.467 83.1557L108.213 72.0028H117.675V72.0056Z" fill="#BA2D2D"/>
<path d="M377.969 72.0056L377.877 77.8192L375.104 252.677C375.099 253.099 374.755 253.436 374.334 253.436H374.128C373.296 253.436 372.619 252.772 372.599 251.944L368.758 83.1585L368.504 72.0056H377.966H377.969Z" fill="#EB3535"/>
<path d="M377.97 72.0056L377.878 77.8191C375.345 78.6114 371.721 80.1764 368.762 83.1557L368.508 72.0028H377.97V72.0056Z" fill="#BA2D2D"/>
<path d="M390.522 50.1517V70.753C390.522 71.1435 390.414 71.5146 390.224 71.8326C389.808 72.53 389.005 73.0042 388.087 73.0042H99.8564C98.5174 73.0042 97.4238 71.9888 97.4238 70.753V50.1517C97.4238 48.9131 98.5174 47.9005 99.8564 47.9005H388.087C389.429 47.9005 390.522 48.9159 390.522 50.1517Z" fill="#EB3535"/>
<path d="M390.521 50.1517V70.753C390.521 71.1435 390.413 71.5145 390.223 71.8326C389.355 72.2315 388.474 72.622 387.576 73.0042H265.868C236.038 65.7373 206.329 55.8955 184.525 47.8977H388.086C389.428 47.8977 390.521 48.9131 390.521 50.1489V50.1517Z" fill="#EC6F6F"/>
<path d="M106.623 241.46C106.623 241.46 98.5105 229.069 93.5003 231.443C88.4902 233.817 106.623 241.46 106.623 241.46Z" fill="#B8E0AF"/>
<path d="M108.888 239.07C108.888 239.07 108.411 230.121 105.786 230.478C103.161 230.835 108.888 239.07 108.888 239.07Z" fill="#B8E0AF"/>
<path d="M467.055 252.672H1.5863C1.06402 252.672 0.640625 253.095 0.640625 253.618V253.938C0.640625 254.461 1.06402 254.884 1.5863 254.884H467.055C467.577 254.884 468.001 254.461 468.001 253.938V253.618C468.001 253.095 467.577 252.672 467.055 252.672Z" fill="#AFAFAF"/>
</g>
<defs>
<clipPath id="clip0_162_903">
<rect width="467.36" height="257.244" fill="white" transform="translate(0.640625)"/>
</clipPath>
</defs>
</svg>
