<svg width="292" height="292" viewBox="0 0 292 292" fill="none" xmlns="http://www.w3.org/2000/svg">
<circle cx="146" cy="146" r="146" fill="#1D86FF" fill-opacity="0.08"/>
<mask id="mask0_332_1219" style="mask-type:alpha" maskUnits="userSpaceOnUse" x="0" y="0" width="292" height="292">
<path d="M292 146C292 226.634 226.634 292 146 292C65.3664 292 0 226.634 0 146C0 65.3664 65.3664 0 146 0C226.634 0 292 65.3664 292 146Z" fill="#D9D9D9"/>
</mask>
<g mask="url(#mask0_332_1219)">
<path d="M219.267 211.123C217.968 212.749 217.362 214.657 215.012 214.657H6.88985C4.54019 214.657 2.63477 213.076 2.63477 211.123V148.316C2.63477 146.363 4.54019 144.782 6.88985 144.782H161.722C185.372 151.429 242.052 182.617 219.267 211.123Z" fill="#A3C7F7"/>
<path d="M181.835 152.892H146.774V169.114H207.148C199.562 162.777 190.449 157.206 181.835 152.892Z" fill="white"/>
<path d="M136.915 165.58C136.915 167.533 135.44 169.114 133.621 169.114H119.858C118.04 169.114 116.564 167.53 116.564 165.58V156.43C116.564 154.477 118.04 152.896 119.858 152.896H133.621C135.44 152.896 136.915 154.477 136.915 156.43V165.58Z" fill="white"/>
<path d="M111.909 165.58C111.909 167.533 110.434 169.114 108.615 169.114H94.8524C93.0336 169.114 91.5557 167.53 91.5557 165.58V156.43C91.5557 154.477 93.0308 152.896 94.8524 152.896H108.615C110.434 152.896 111.909 154.477 111.909 156.43V165.58Z" fill="white"/>
<path d="M86.9013 165.58C86.9013 167.533 85.4261 169.114 83.6045 169.114H69.8418C68.023 169.114 66.5479 167.53 66.5479 165.58V156.43C66.5479 154.477 68.023 152.896 69.8418 152.896H83.6045C85.4234 152.896 86.9013 154.477 86.9013 156.43V165.58Z" fill="white"/>
<path d="M61.8963 165.58C61.8963 167.533 60.4212 169.114 58.5995 169.114H44.8368C43.0152 169.114 41.54 167.53 41.54 165.58V156.43C41.54 154.477 43.0152 152.896 44.8368 152.896H58.5995C60.4184 152.896 61.8963 154.477 61.8963 156.43V165.58Z" fill="white"/>
<path d="M36.8875 165.58C36.8875 167.533 35.4124 169.114 33.5907 169.114H19.828C18.0092 169.114 16.5312 167.53 16.5312 165.58V156.43C16.5312 154.477 18.0064 152.896 19.828 152.896H33.5907C35.4096 152.896 36.8875 154.477 36.8875 156.43V165.58Z" fill="white"/>
<path opacity="0.1" d="M12.9947 100.658H53.4092V202.034H59.4161V100.658H222.864V202.034H228.874V100.658H302.663V72.7388H4.10156V100.658H6.98508" fill="#1D86FF"/>
<path d="M113.878 202.887C113.878 203.853 113.095 204.638 112.126 204.638C111.156 204.638 110.377 203.853 110.377 202.887C110.377 201.92 111.159 201.138 112.126 201.138C113.093 201.138 113.878 201.92 113.878 202.887Z" fill="#343433"/>
<path d="M113.031 202.887C113.031 203.387 112.628 203.786 112.128 203.786C111.628 203.786 111.229 203.384 111.229 202.887C111.229 202.389 111.634 201.984 112.128 201.984C112.623 201.984 113.031 202.387 113.031 202.887Z" fill="#E5E5E5"/>
<path d="M126.251 202.887C126.251 203.853 125.466 204.638 124.499 204.638C123.532 204.638 122.75 203.853 122.75 202.887C122.75 201.92 123.532 201.138 124.499 201.138C125.466 201.138 126.251 201.92 126.251 202.887Z" fill="#343433"/>
<path d="M125.402 202.887C125.402 203.387 124.999 203.786 124.502 203.786C124.005 203.786 123.6 203.384 123.6 202.887C123.6 202.389 124.005 201.984 124.502 201.984C124.999 201.984 125.402 202.387 125.402 202.887Z" fill="#E5E5E5"/>
<path d="M131.649 196.866C131.649 199.953 129.146 202.459 126.058 202.459H111.013C107.926 202.459 105.42 199.956 105.42 196.866V169.517C105.42 166.429 107.923 163.926 111.013 163.926H126.058C129.146 163.926 131.649 166.429 131.649 169.517V196.866Z" fill="#393E70"/>
<path d="M130.45 195.927C130.45 198.805 128.184 201.138 125.39 201.138H111.778C108.985 201.138 106.719 198.805 106.719 195.927V170.453C106.719 167.578 108.985 165.245 111.778 165.245H125.39C128.184 165.245 130.45 167.578 130.45 170.453V195.927Z" fill="#575B7C"/>
<path d="M125.198 202.384H123.798V161.096C123.798 158.397 121.605 156.204 118.906 156.204H117.719C115.02 156.204 112.827 158.4 112.827 161.096V202.384H111.43V161.096C111.43 157.626 114.252 154.804 117.722 154.804H118.909C122.379 154.804 125.201 157.626 125.201 161.096V202.384H125.198Z" fill="#CDCCCB"/>
<path d="M113.88 173.176H110.379V181.142H113.88V173.176Z" fill="#393E70"/>
<path d="M126.251 173.176H122.75V181.142H126.251V173.176Z" fill="#393E70"/>
<path d="M118.909 154.804H117.722C114.252 154.804 111.43 157.626 111.43 161.096V161.794H112.827V161.096C112.827 158.397 115.023 156.204 117.719 156.204H118.906C121.605 156.204 123.798 158.4 123.798 161.096V161.794H125.198V161.096C125.198 157.626 122.376 154.804 118.906 154.804H118.909Z" fill="#393E70"/>
<path opacity="0.1" d="M109.069 202.107C117.828 195.642 125.947 172.461 128.534 164.501C127.788 164.133 126.947 163.926 126.058 163.926H125.201V161.096C125.201 157.626 122.379 154.804 118.909 154.804H117.721C114.251 154.804 111.43 157.626 111.43 161.096V163.926H111.013C107.926 163.926 105.42 166.429 105.42 169.516V196.866C105.42 199.268 106.937 201.319 109.066 202.11L109.069 202.107ZM112.827 161.794V161.096C112.827 158.397 115.023 156.203 117.719 156.203H118.906C121.605 156.203 123.798 158.399 123.798 161.096V163.926H112.824V161.794H112.827Z" fill="black"/>
<path d="M302.663 216.539H2.46094V254.27H302.663V216.539Z" fill="#6A6A6A"/>
<path d="M302.663 204.236H2.46094V216.539H302.663V204.236Z" fill="#1463BE"/>
<path d="M154.766 194.887H151.391V202.369H154.766V194.887Z" fill="#4D4D4D"/>
<path d="M154.766 202.034H151.391V204.962H154.766V202.034Z" fill="#4D4D4D"/>
<path d="M239.742 194.887H236.367V202.369H239.742V194.887Z" fill="#4D4D4D"/>
<path d="M239.742 202.034H236.367V204.962H239.742V202.034Z" fill="#4D4D4D"/>
<path d="M239.742 160.059H211.094V184.522H239.742V160.059Z" fill="#666666"/>
<path d="M238.3 160.059H212.535V184.318H238.3V160.059Z" fill="#B3B3B3"/>
<path d="M240.46 184.523H210.379C208.778 184.523 207.479 187.395 207.479 190.937H243.358C243.358 187.395 242.058 184.523 240.458 184.523H240.46Z" fill="#666666"/>
<path d="M239.032 185.115H211.803C210.353 185.115 209.18 186.925 209.18 189.158H241.656C241.656 186.925 240.48 185.115 239.032 185.115Z" fill="#B3B3B3"/>
<path d="M209.533 160.059H180.885V184.523H209.533V160.059Z" fill="#666666"/>
<path d="M208.091 160.059H182.326V184.319H208.091V160.059Z" fill="#B3B3B3"/>
<path d="M210.251 184.523H180.17C178.569 184.523 177.27 187.395 177.27 190.937H213.151C213.151 187.395 211.855 184.523 210.251 184.523Z" fill="#666666"/>
<path d="M208.824 185.115H181.595C180.148 185.115 178.972 186.925 178.972 189.158H211.448C211.448 186.925 210.272 185.115 208.824 185.115Z" fill="#B3B3B3"/>
<path d="M179.326 160.059H150.678V184.522H179.326V160.059Z" fill="#666666"/>
<path d="M177.887 160.059H152.119V184.318H177.887V160.059Z" fill="#B3B3B3"/>
<path d="M180.044 184.522H149.963C148.362 184.522 147.062 187.394 147.062 190.937H182.944C182.944 187.394 181.648 184.522 180.044 184.522Z" fill="#666666"/>
<path d="M178.616 185.115H151.387C149.94 185.115 148.764 186.925 148.764 189.157H181.24C181.24 186.925 180.066 185.115 178.616 185.115Z" fill="#B3B3B3"/>
<path d="M239.742 190.937H151.391V195.273H239.742V190.937Z" fill="#4D4D4D"/>
<path d="M37.6931 72.7388H29.3701V204.345H37.6931V72.7388Z" fill="#1463BE"/>
<path d="M302.663 72.0324L4.10156 72.9999V55.9224L302.663 54.9549V72.0324Z" fill="#A3C7F6"/>
<path d="M302.663 46.7527H4.10156V64.7976H302.663V46.7527Z" fill="#1D86FF"/>
<path d="M49.9141 46.7527H46.9805V64.695H49.9141V46.7527Z" fill="#A3C7F7"/>
<path d="M93.9033 46.7527H90.9697V64.695H93.9033V46.7527Z" fill="#A3C7F7"/>
<path d="M137.891 46.7527H134.957V64.695H137.891V46.7527Z" fill="#A3C7F7"/>
<path d="M181.881 46.7527H178.947V64.695H181.881V46.7527Z" fill="#A3C7F7"/>
<path d="M225.867 46.7527H222.934V64.695H225.867V46.7527Z" fill="#A3C7F7"/>
<path d="M277.284 46.7527H274.351V64.695H277.284V46.7527Z" fill="#A3C7F7"/>
<path d="M185.577 68.8271H108.544V85.5261H185.577V68.8271Z" fill="#1D86FF"/>
<path d="M183.47 70.2601H110.653V84.0898H183.47V70.2601Z" fill="white"/>
<path d="M123.1 73.3056V74.1689H120.862V80.4216H119.868V74.1689H117.63V73.3056H123.103H123.1Z" fill="#484848"/>
<path d="M125.645 74.9709C125.726 74.9709 125.821 74.9765 125.928 74.9876C126.034 74.9988 126.137 75.0128 126.24 75.0296C126.344 75.0463 126.436 75.0631 126.523 75.0798C126.609 75.0966 126.671 75.1134 126.713 75.1273L126.548 75.9599C126.472 75.932 126.347 75.9013 126.173 75.8621C126 75.8258 125.774 75.8063 125.5 75.8063C125.321 75.8063 125.145 75.8258 124.972 75.8621C124.799 75.8985 124.681 75.9264 124.628 75.9404V80.4274H123.673V75.3145C123.899 75.2335 124.179 75.1553 124.514 75.0826C124.849 75.01 125.226 74.9737 125.643 74.9737L125.645 74.9709Z" fill="#484848"/>
<path d="M129.365 74.9484C129.747 74.9484 130.071 74.9987 130.334 75.0965C130.597 75.1971 130.809 75.3368 130.971 75.5184C131.133 75.7 131.248 75.9151 131.315 76.1638C131.385 76.4152 131.418 76.689 131.418 76.9908V80.3267C131.334 80.3406 131.22 80.3602 131.074 80.3825C130.926 80.4077 130.762 80.43 130.577 80.4496C130.393 80.4692 130.192 80.4887 129.976 80.5055C129.761 80.5222 129.546 80.5306 129.334 80.5306C129.032 80.5306 128.755 80.4999 128.501 80.4384C128.247 80.377 128.029 80.2792 127.845 80.1451C127.66 80.011 127.515 79.8349 127.414 79.617C127.311 79.3991 127.261 79.1337 127.261 78.8263C127.261 78.519 127.319 78.2787 127.44 78.0664C127.56 77.8541 127.722 77.6836 127.928 77.5523C128.135 77.4238 128.373 77.326 128.647 77.2646C128.92 77.2031 129.208 77.1724 129.51 77.1724C129.605 77.1724 129.705 77.178 129.809 77.1891C129.912 77.2003 130.01 77.2143 130.102 77.231C130.194 77.2478 130.275 77.2646 130.342 77.2757C130.409 77.2897 130.46 77.3009 130.485 77.3065V77.0383C130.485 76.8818 130.468 76.7253 130.435 76.5717C130.401 76.418 130.34 76.2811 130.25 76.161C130.161 76.0408 130.041 75.9458 129.887 75.8732C129.733 75.8006 129.532 75.7642 129.286 75.7642C128.971 75.7642 128.697 75.7866 128.459 75.8313C128.225 75.876 128.046 75.9235 127.931 75.971L127.82 75.1803C127.942 75.1244 128.149 75.0714 128.437 75.0211C128.725 74.9708 129.035 74.9428 129.37 74.9428L129.365 74.9484ZM129.446 79.7316C129.672 79.7316 129.873 79.726 130.046 79.7148C130.219 79.7036 130.365 79.6869 130.482 79.6589V78.0664C130.412 78.0329 130.303 78.0021 130.15 77.9798C129.996 77.9547 129.809 77.9435 129.591 77.9435C129.448 77.9435 129.295 77.9547 129.133 77.9742C128.971 77.9938 128.825 78.0385 128.691 78.1027C128.557 78.167 128.445 78.2564 128.359 78.3709C128.269 78.4827 128.225 78.6336 128.225 78.818C128.225 79.1616 128.334 79.3991 128.554 79.5304C128.772 79.6645 129.071 79.7316 129.448 79.7316H129.446Z" fill="#484848"/>
<path d="M133.468 74.1187C133.298 74.1187 133.152 74.0628 133.032 73.9483C132.912 73.8365 132.854 73.6829 132.854 73.4901C132.854 73.2973 132.912 73.1464 133.032 73.0319C133.152 72.9201 133.298 72.8615 133.468 72.8615C133.639 72.8615 133.784 72.9173 133.904 73.0319C134.024 73.1464 134.083 73.2973 134.083 73.4901C134.083 73.6829 134.024 73.8337 133.904 73.9483C133.784 74.0628 133.639 74.1187 133.468 74.1187ZM133.952 80.4217H132.996V75.0826H133.952V80.4217Z" fill="#484848"/>
<path d="M135.595 75.2363C135.813 75.1804 136.103 75.1246 136.466 75.0631C136.829 75.0016 137.246 74.9709 137.718 74.9709C138.143 74.9709 138.495 75.0296 138.777 75.1497C139.056 75.2698 139.283 75.4375 139.45 75.6526C139.618 75.8677 139.735 76.1276 139.805 76.4265C139.875 76.7282 139.908 77.0607 139.908 77.4211V80.419H138.953V77.6251C138.953 77.2954 138.931 77.016 138.886 76.7841C138.841 76.5522 138.768 76.3622 138.665 76.2198C138.562 76.0773 138.425 75.9711 138.254 75.9068C138.084 75.8426 137.872 75.8091 137.617 75.8091C137.514 75.8091 137.408 75.8118 137.299 75.8202C137.19 75.8258 137.084 75.837 136.986 75.8454C136.885 75.8565 136.799 75.8677 136.718 75.8817C136.64 75.8957 136.584 75.9068 136.547 75.9124V80.419H135.592V75.2335L135.595 75.2363Z" fill="#484848"/>
<path d="M145.575 79.7118C146.614 79.7118 147.136 79.357 147.136 78.6446C147.136 78.4266 147.089 78.2395 146.997 78.0858C146.904 77.9321 146.779 77.798 146.622 77.6863C146.466 77.5745 146.284 77.4767 146.083 77.3929C145.882 77.3119 145.667 77.2281 145.44 77.147C145.181 77.0576 144.935 76.9571 144.7 76.8453C144.465 76.7336 144.264 76.5994 144.094 76.4458C143.923 76.2921 143.786 76.1077 143.689 75.8954C143.588 75.683 143.541 75.426 143.541 75.1243C143.541 74.5012 143.753 74.0151 144.178 73.6659C144.602 73.3166 145.186 73.1434 145.932 73.1434C146.362 73.1434 146.756 73.1909 147.108 73.2831C147.46 73.3753 147.72 73.4759 147.882 73.5848L147.564 74.3951C147.421 74.3057 147.206 74.2191 146.921 74.1324C146.636 74.0458 146.307 74.0039 145.929 74.0039C145.737 74.0039 145.561 74.0235 145.396 74.0654C145.231 74.1073 145.088 74.1688 144.965 74.2498C144.843 74.3308 144.745 74.437 144.672 74.5627C144.599 74.6884 144.563 74.8393 144.563 75.0097C144.563 75.2025 144.599 75.3618 144.675 75.4931C144.75 75.6244 144.856 75.7389 144.993 75.8367C145.13 75.9373 145.29 76.0267 145.471 76.1077C145.653 76.1887 145.854 76.2726 146.072 76.3536C146.379 76.4765 146.661 76.5994 146.918 76.7224C147.175 76.8453 147.396 76.9934 147.586 77.1638C147.773 77.3342 147.919 77.5382 148.022 77.7757C148.125 78.0132 148.176 78.2981 148.176 78.6334C148.176 79.2564 147.949 79.7342 147.494 80.0695C147.038 80.4047 146.396 80.5724 145.569 80.5724C145.287 80.5724 145.03 80.5528 144.792 80.5165C144.558 80.4802 144.345 80.4355 144.161 80.3824C143.976 80.3321 143.817 80.2762 143.683 80.2175C143.549 80.1589 143.446 80.1086 143.37 80.0695L143.669 79.2481C143.826 79.3375 144.066 79.4352 144.387 79.547C144.708 79.656 145.102 79.7118 145.569 79.7118H145.575Z" fill="#484848"/>
<path d="M150.215 75.0825H152.238V75.8844H150.215V78.3486C150.215 78.6168 150.235 78.8375 150.277 79.0108C150.319 79.184 150.38 79.3209 150.461 79.4215C150.542 79.522 150.646 79.5919 150.768 79.631C150.891 79.6729 151.037 79.6925 151.199 79.6925C151.486 79.6925 151.718 79.6589 151.892 79.5947C152.065 79.5304 152.188 79.4829 152.255 79.455L152.439 80.2456C152.344 80.2931 152.177 80.3546 151.936 80.4245C151.696 80.4971 151.422 80.5334 151.115 80.5334C150.752 80.5334 150.453 80.4859 150.218 80.3937C149.981 80.3015 149.791 80.1618 149.648 79.9774C149.506 79.793 149.402 79.5639 149.346 79.2957C149.288 79.0247 149.26 78.7118 149.26 78.357V73.5934L150.215 73.4286V75.0825Z" fill="#484848"/>
<path d="M155.174 74.9484C155.557 74.9484 155.881 74.9987 156.144 75.0965C156.406 75.1971 156.619 75.3368 156.781 75.5184C156.943 75.7 157.057 75.9151 157.124 76.1638C157.191 76.4152 157.228 76.689 157.228 76.9908V80.3267C157.147 80.3406 157.029 80.3602 156.884 80.3825C156.736 80.4077 156.571 80.43 156.387 80.4496C156.202 80.4692 156.001 80.4887 155.786 80.5055C155.571 80.5222 155.356 80.5306 155.143 80.5306C154.842 80.5306 154.565 80.4999 154.311 80.4384C154.057 80.377 153.839 80.2792 153.654 80.1451C153.47 80.011 153.325 79.8349 153.224 79.617C153.121 79.3991 153.07 79.1337 153.07 78.8263C153.07 78.519 153.129 78.2787 153.249 78.0664C153.369 77.8541 153.531 77.6836 153.738 77.5523C153.942 77.4238 154.182 77.326 154.456 77.2646C154.73 77.2031 155.018 77.1724 155.319 77.1724C155.414 77.1724 155.515 77.178 155.618 77.1891C155.722 77.2003 155.82 77.2143 155.912 77.231C156.004 77.2478 156.085 77.2646 156.152 77.2757C156.222 77.2897 156.269 77.3009 156.297 77.3065V77.0383C156.297 76.8818 156.28 76.7253 156.247 76.5717C156.213 76.418 156.152 76.2811 156.063 76.161C155.973 76.0408 155.853 75.9458 155.699 75.8732C155.546 75.8006 155.345 75.7642 155.099 75.7642C154.783 75.7642 154.509 75.7866 154.272 75.8313C154.034 75.876 153.858 75.9235 153.744 75.971L153.632 75.1803C153.755 75.1244 153.962 75.0714 154.249 75.0211C154.537 74.9708 154.847 74.9428 155.183 74.9428L155.174 74.9484ZM155.255 79.7316C155.481 79.7316 155.68 79.726 155.856 79.7148C156.029 79.7036 156.174 79.6869 156.292 79.6589V78.0664C156.222 78.0329 156.113 78.0021 155.956 77.9798C155.803 77.9547 155.616 77.9435 155.398 77.9435C155.255 77.9435 155.101 77.9547 154.939 77.9742C154.777 77.9938 154.632 78.0385 154.498 78.1027C154.364 78.167 154.252 78.2564 154.166 78.3709C154.076 78.4827 154.031 78.6336 154.031 78.818C154.031 79.1616 154.14 79.3991 154.361 79.5304C154.579 79.6645 154.878 79.7316 155.255 79.7316Z" fill="#484848"/>
<path d="M159.7 75.0825H161.722V75.8844H159.7V78.3486C159.7 78.6168 159.719 78.8375 159.761 79.0108C159.803 79.184 159.864 79.3209 159.945 79.4215C160.026 79.522 160.13 79.5919 160.253 79.631C160.376 79.6729 160.521 79.6925 160.683 79.6925C160.971 79.6925 161.203 79.6589 161.376 79.5947C161.549 79.5304 161.672 79.4829 161.739 79.455L161.923 80.2456C161.828 80.2931 161.661 80.3546 161.421 80.4245C161.18 80.4971 160.906 80.5334 160.599 80.5334C160.236 80.5334 159.937 80.4859 159.7 80.3937C159.465 80.3015 159.275 80.1618 159.13 79.9774C158.987 79.793 158.884 79.5639 158.828 79.2957C158.769 79.0247 158.741 78.7118 158.741 78.357V73.5934L159.697 73.4286V75.0825H159.7Z" fill="#484848"/>
<path d="M163.408 74.1187C163.237 74.1187 163.092 74.0628 162.972 73.9483C162.852 73.8337 162.793 73.6829 162.793 73.4901C162.793 73.2973 162.852 73.1464 162.972 73.0319C163.092 72.9173 163.237 72.8615 163.408 72.8615C163.578 72.8615 163.723 72.9173 163.843 73.0319C163.964 73.1436 164.022 73.2973 164.022 73.4901C164.022 73.6829 163.964 73.8337 163.843 73.9483C163.723 74.06 163.578 74.1187 163.408 74.1187ZM163.891 80.4217H162.935V75.0826H163.891V80.4217Z" fill="#484848"/>
<path d="M170.245 77.7507C170.245 78.1754 170.183 78.5581 170.06 78.9018C169.937 79.2454 169.764 79.5388 169.541 79.7847C169.317 80.0305 169.052 80.2205 168.744 80.3546C168.437 80.4887 168.102 80.5558 167.739 80.5558C167.375 80.5558 167.04 80.4887 166.733 80.3546C166.425 80.2205 166.16 80.0305 165.936 79.7847C165.713 79.5388 165.54 79.2454 165.417 78.9018C165.294 78.5609 165.232 78.1754 165.232 77.7507C165.232 77.326 165.294 76.9517 165.417 76.6052C165.54 76.2588 165.713 75.9626 165.936 75.7168C166.16 75.4709 166.425 75.2809 166.733 75.1468C167.04 75.0127 167.375 74.9456 167.739 74.9456C168.102 74.9456 168.437 75.0127 168.744 75.1468C169.052 75.2809 169.317 75.4709 169.541 75.7168C169.764 75.9626 169.935 76.2588 170.06 76.6052C170.183 76.9517 170.245 77.3316 170.245 77.7507ZM169.25 77.7507C169.25 77.1472 169.116 76.6723 168.845 76.3174C168.574 75.9654 168.208 75.7894 167.741 75.7894C167.275 75.7894 166.909 75.9654 166.638 76.3174C166.367 76.6695 166.233 77.1472 166.233 77.7507C166.233 78.3542 166.367 78.8319 166.638 79.184C166.909 79.536 167.278 79.712 167.741 79.712C168.205 79.712 168.574 79.536 168.845 79.184C169.116 78.8319 169.25 78.3542 169.25 77.7507Z" fill="#484848"/>
<path d="M171.591 75.2363C171.809 75.1804 172.099 75.1246 172.463 75.0631C172.826 75.0016 173.242 74.9709 173.714 74.9709C174.139 74.9709 174.491 75.0296 174.773 75.1497C175.052 75.2698 175.279 75.4375 175.446 75.6526C175.614 75.8677 175.731 76.1276 175.801 76.4265C175.868 76.7282 175.905 77.0607 175.905 77.4211V80.419H174.949V77.6251C174.949 77.2954 174.927 77.016 174.882 76.7841C174.837 76.5522 174.765 76.3622 174.661 76.2198C174.558 76.0773 174.421 75.9711 174.251 75.9068C174.08 75.8426 173.868 75.8091 173.614 75.8091C173.51 75.8091 173.404 75.8118 173.295 75.8202C173.186 75.8258 173.08 75.837 172.982 75.8454C172.882 75.8565 172.795 75.8677 172.717 75.8817C172.639 75.8957 172.583 75.9068 172.546 75.9124V80.419H171.591V75.2335V75.2363Z" fill="#484848"/>
<path opacity="0.05" d="M185.58 80.4217L108.544 68.8271H185.58V80.4217Z" fill="black"/>
<path d="M47.7789 95.1486C47.7789 103.019 41.4005 109.397 33.5301 109.397C25.6597 109.397 19.2812 103.019 19.2812 95.1486C19.2812 87.2782 25.6597 80.8997 33.5301 80.8997C41.4005 80.8997 47.7789 87.2782 47.7789 95.1486Z" fill="#1D86FF"/>
<path d="M33.5311 108.372C40.8342 108.372 46.7546 102.452 46.7546 95.1485C46.7546 87.8454 40.8342 81.925 33.5311 81.925C26.228 81.925 20.3076 87.8454 20.3076 95.1485C20.3076 102.452 26.228 108.372 33.5311 108.372Z" fill="#ECF5FF"/>
<path d="M34.3013 95.1485C34.3013 95.5732 33.9576 95.9168 33.533 95.9168C33.1083 95.9168 32.7646 95.5732 32.7646 95.1485C32.7646 94.7238 33.1083 94.3802 33.533 94.3802C33.9576 94.3802 34.3013 94.7238 34.3013 95.1485Z" fill="#F48F9E"/>
<path d="M33.7288 82.4365H33.332V84.9985H33.7288V82.4365Z" fill="#9FB6BC"/>
<path d="M27.3504 84.0447L27.0068 84.2431L28.2882 86.4617L28.6318 86.2632L27.3504 84.0447Z" fill="#9FB6BC"/>
<path d="M22.6378 88.6338L22.4395 88.9774L24.6584 90.2581L24.8567 89.9144L22.6378 88.6338Z" fill="#9FB6BC"/>
<path d="M23.3833 94.9501H20.8213V95.3468H23.3833V94.9501Z" fill="#9FB6BC"/>
<path d="M24.6465 100.058L22.4277 101.339L22.6261 101.682L24.8449 100.401L24.6465 100.058Z" fill="#9FB6BC"/>
<path d="M28.3001 103.853L27.0195 106.072L27.3631 106.27L28.6438 104.051L28.3001 103.853Z" fill="#9FB6BC"/>
<path d="M33.7317 105.296H33.335V107.858H33.7317V105.296Z" fill="#9FB6BC"/>
<path d="M38.784 103.853L38.4404 104.051L39.721 106.27L40.0647 106.072L38.784 103.853Z" fill="#9FB6BC"/>
<path d="M42.4252 100.055L42.2266 100.399L44.4444 101.681L44.643 101.338L42.4252 100.055Z" fill="#9FB6BC"/>
<path d="M46.2427 94.9501H43.6807V95.3468H46.2427V94.9501Z" fill="#9FB6BC"/>
<path d="M44.4497 88.6388L42.2305 89.919L42.4287 90.2627L44.6479 88.9824L44.4497 88.6388Z" fill="#9FB6BC"/>
<path d="M39.7195 84.046L38.4365 86.2636L38.7799 86.4623L40.0629 84.2447L39.7195 84.046Z" fill="#9FB6BC"/>
<path d="M33.8935 86.7947H33.1699V97.8669H33.8935V86.7947Z" fill="#F48F9E"/>
<path d="M30.3121 88.9272L29.7676 89.2414L34.4906 97.4285L35.0351 97.1143L30.3121 88.9272Z" fill="#F48F9E"/>
<path d="M302.663 246.888H2.46094V254.27H302.663V246.888Z" fill="#5F6060"/>
<path d="M302.663 243.607H2.46094V248.528H302.663V243.607Z" fill="#333333"/>
<path d="M302.663 248.528H2.46094V250.168H302.663V248.528Z" fill="#454747"/>
<path d="M302.663 254.27H2.46094V255.91H302.663V254.27Z" fill="#808080"/>
<path d="M10.7965 256.076V253.671C10.7965 252.657 9.97506 251.835 8.96367 251.835C7.95228 251.835 7.13086 252.657 7.13086 253.671V256.076H10.7965Z" fill="#454747"/>
<path d="M8.96376 251.835C8.77377 251.835 8.58937 251.863 8.41895 251.919C9.16491 252.151 9.70692 252.849 9.70692 253.671V256.076H10.7993V253.671C10.7993 252.657 9.97793 251.835 8.96654 251.835H8.96376Z" fill="#4D4D4D"/>
<path d="M50.2994 256.076V253.671C50.2994 252.657 49.478 251.835 48.4666 251.835C47.4552 251.835 46.6338 252.657 46.6338 253.671V256.076H50.2994Z" fill="#454747"/>
<path d="M48.4667 251.835C48.2767 251.835 48.0923 251.863 47.9219 251.919C48.6678 252.151 49.2099 252.849 49.2099 253.671V256.076H50.3023V253.671C50.3023 252.657 49.4809 251.835 48.4695 251.835H48.4667Z" fill="#4D4D4D"/>
<path d="M89.8023 256.076V253.671C89.8023 252.657 88.9809 251.835 87.9695 251.835C86.9581 251.835 86.1367 252.657 86.1367 253.671V256.076H89.8023Z" fill="#454747"/>
<path d="M87.9696 251.835C87.7796 251.835 87.5952 251.863 87.4248 251.919C88.1708 252.151 88.7128 252.849 88.7128 253.671V256.076H89.8052V253.671C89.8052 252.657 88.9838 251.835 87.9724 251.835H87.9696Z" fill="#4D4D4D"/>
<path d="M129.308 256.076V253.671C129.308 252.657 128.487 251.835 127.475 251.835C126.464 251.835 125.643 252.657 125.643 253.671V256.076H129.308Z" fill="#454747"/>
<path d="M127.473 251.835C127.283 251.835 127.098 251.863 126.928 251.919C127.674 252.151 128.216 252.849 128.216 253.671V256.076H129.308V253.671C129.308 252.657 128.487 251.835 127.475 251.835H127.473Z" fill="#4D4D4D"/>
<path d="M168.81 256.076V253.671C168.81 252.657 167.989 251.835 166.977 251.835C165.966 251.835 165.145 252.657 165.145 253.671V256.076H168.81Z" fill="#454747"/>
<path d="M166.977 251.835C166.787 251.835 166.603 251.863 166.433 251.919C167.179 252.151 167.721 252.849 167.721 253.671V256.076H168.813V253.671C168.813 252.657 167.992 251.835 166.98 251.835H166.977Z" fill="#4D4D4D"/>
<path d="M208.313 256.076V253.671C208.313 252.657 207.492 251.835 206.48 251.835C205.469 251.835 204.647 252.657 204.647 253.671V256.076H208.313Z" fill="#454747"/>
<path d="M206.48 251.835C206.29 251.835 206.106 251.863 205.936 251.919C206.682 252.151 207.224 252.849 207.224 253.671V256.076H208.316V253.671C208.316 252.657 207.495 251.835 206.483 251.835H206.48Z" fill="#4D4D4D"/>
<path d="M247.816 256.076V253.671C247.816 252.657 246.995 251.835 245.983 251.835C244.972 251.835 244.15 252.657 244.15 253.671V256.076H247.816Z" fill="#454747"/>
<path d="M245.983 251.835C245.793 251.835 245.609 251.863 245.438 251.919C246.184 252.151 246.726 252.849 246.726 253.671V256.076H247.819V253.671C247.819 252.657 246.997 251.835 245.986 251.835H245.983Z" fill="#4D4D4D"/>
<path d="M287.319 256.076V253.671C287.319 252.657 286.498 251.835 285.486 251.835C284.475 251.835 283.653 252.657 283.653 253.671V256.076H287.319Z" fill="#454747"/>
<path d="M285.486 251.835C285.296 251.835 285.112 251.863 284.941 251.919C285.687 252.151 286.229 252.849 286.229 253.671V256.076H287.322V253.671C287.322 252.657 286.5 251.835 285.489 251.835H285.486Z" fill="#4D4D4D"/>
</g>
</svg>
