<svg xmlns="http://www.w3.org/2000/svg" width="14" height="14" viewBox="0 0 14 14"><defs><style>.a{fill:#f8954d;}</style></defs><path class="a" d="M7,0a7,7,0,1,0,7,7A7.008,7.008,0,0,0,7,0ZM7,13.138A6.138,6.138,0,1,1,13.138,7,6.145,6.145,0,0,1,7,13.138Z"/><circle class="a" cx="0.772" cy="0.772" r="0.772" transform="translate(6.339 3.46)"/><path class="a" d="M30.6,28.342a.462.462,0,0,0-.462.462v3.923a.462.462,0,1,0,.923,0V28.8A.462.462,0,0,0,30.6,28.342Z" transform="translate(-23.676 -22.446)"/></svg>