<svg id="Layer_2" data-name="Layer 2" xmlns="http://www.w3.org/2000/svg" xmlns:xlink="http://www.w3.org/1999/xlink" width="94" height="40.286" viewBox="0 0 94 40.286">
  <defs>
    <clipPath id="clip-path">
      <rect id="Rectangle_235" data-name="Rectangle 235" width="33.605" height="5.584" fill="none"/>
    </clipPath>
  </defs>
  <g id="Layer_1" data-name="Layer 1">
    <rect id="Rectangle_232" data-name="Rectangle 232" width="94" height="40.286" fill="none"/>
    <line id="Line" y2="27.976" transform="translate(86.267 6.379)" fill="none" stroke="#979797" stroke-linecap="square" stroke-width="1"/>
    <g id="Flexipay-2-Copy" transform="translate(8.145 14.722)">
      <path id="Path_321" data-name="Path 321" d="M7.32,26.833V13.494c0-.269,0-.369.347-.3,1.936.425,3.883.817,5.819,1.209.325.067.649.1.974.145s.28.1.28.313V17.2c0,.325-.09.4-.4.347a19.136,19.136,0,0,0-1.947-.2,9.944,9.944,0,0,1-1.522-.2,2.585,2.585,0,0,1-.716,0c-.09,0-.09.067-.09.123v2.305c0,.168.09.168.213.168l3.928.112c.179,0,.269,0,.269.246V22.5c0,.179,0,.224-.235.246-.761.056-1.511.1-2.238.123-.571,0-1.119.09-1.7.123-.2,0-.2.1-.2.246v2.764Z" transform="translate(-7.274 -13.154)" fill="#e10f1d"/>
      <path id="Path_322" data-name="Path 322" d="M45.641,24.229c-.481,0-.481,0-.481-.436V16.9c0-.257.067-.325.325-.336,1.175,0,2.339-.09,3.514-.2.425,0,.862-.078,1.276-.078a3.178,3.178,0,0,1,3.167,1.477,2.988,2.988,0,0,1-1.41,4.163,7.307,7.307,0,0,1-2.943.325h-.962c-.325,0-.246.056-.213.246a3.626,3.626,0,0,1,0,.985ZM49.155,18.3H48.148c-.168,0-.235.067-.224.235v1.5c0,.179,0,.235.224.235h.962a5.965,5.965,0,0,0,1.119,0,1,1,0,0,0-.19-1.97Z" transform="translate(-2.769 -12.787)" fill="#0e4585"/>
      <path id="Path_323" data-name="Path 323" d="M65.782,16.9c.19.414.392.828.593,1.242,0,.067,0,.134.112.145s.067-.09.09-.145c.28-.6.571-1.22.85-1.835.134.067.235,0,.347-.056l3.044-.985A20.816,20.816,0,0,1,69.7,17.844c-.582,1.309-1.2,2.607-1.8,3.905a.951.951,0,0,0,0,.392v4.868c0,.3-.078.358-.369.28a16.081,16.081,0,0,0-2.07-.392.325.325,0,0,1-.313-.369V22.3a1.7,1.7,0,0,0-.179-.806c-.448-.839-.85-1.69-1.276-2.529-.179-.358-.369-.716-.56-1.119.067-.157.224-.145.336-.179C64.2,17.43,64.988,17.206,65.782,16.9Z" transform="translate(-0.63 -12.904)" fill="#e10f1d"/>
      <path id="Path_324" data-name="Path 324" d="M34.024,16.6c.649.761,1.2,1.6,1.79,2.44.515-.795,1.119-1.533,1.634-2.238a.313.313,0,0,1,.28-.134H40.6a2.865,2.865,0,0,1-.649.862c-.75.884-1.522,1.757-2.238,2.63a.2.2,0,0,0,0,.325l2.518,2.786.66.75H38.31a1.119,1.119,0,0,1-1.007-.548c-.47-.537-.906-1.119-1.354-1.656-.1-.123-.168-.1-.257,0-.492.7-1.052,1.354-1.589,2.025a.66.66,0,0,1-.56.28c-.806,0-1.623.067-2.428.112-.078,0-.168.056-.213,0s0-.145.067-.213c.548-.649,1.119-1.32,1.634-1.958a17.725,17.725,0,0,1,1.343-1.533c.257-.269,0-.436-.168-.6l-1.925-2.35a.492.492,0,0,1-.09-.168Z" transform="translate(-4.469 -12.746)" fill="#0f4585"/>
      <path id="Path_325" data-name="Path 325" d="M61.091,18.52c.683,1.578,1.276,3.2,1.88,4.823.325.862.627,1.735.94,2.63a11.618,11.618,0,0,1-1.611-.235c-.492-.067-.772-.134-1.119-.168a.224.224,0,0,1-.235-.168,7.308,7.308,0,0,1-.425-1.265.56.56,0,0,0-.582-.492c-.627,0-1.265-.078-1.891-.134l-1.88-.19c-.112,0-.145,0-.179.123-.112.3-.269.582-.38.873-.19.47-.369.548-.839.448a7.016,7.016,0,0,0-1.119-.123,9.514,9.514,0,0,1-1.22-.145,15.118,15.118,0,0,1,.839-1.645c.369-.683.6-1.444,1.041-2.093l3.111-1.018c0,.459-.347.839-.448,1.332h2.395l-.649-1.757Z" transform="translate(-1.904 -12.517)" fill="#e1101e"/>
      <path id="Path_326" data-name="Path 326" d="M26.757,19c1.209,0,2.417,0,3.615.09.134,0,.179,0,.179.179V20.7c0,.19-.09.235-.269.235H26.388c-.436,0-.436,0-.436.47v.1c0,.783.09.862.884.716a1.768,1.768,0,0,1,.425,0c.9,0,1.79-.112,2.686-.09a5.147,5.147,0,0,0,.828-.056c.157,0,.246,0,.246.2v1.5c0,.19-.078.224-.246.235-.985.056-1.97.112-2.954.2s-2.126.157-3.178.313c-.414.067-.85.09-1.276.123-.224,0-.134-.168-.134-.257V20.175l3.357-1.119Z" transform="translate(-5.382 -12.46)" fill="#0f4585"/>
      <path id="Path_327" data-name="Path 327" d="M15.41,23.637V15c0-.235,0-.291.28-.246.761.134,1.522.235,2.238.347.235,0,.2.19.2.347v7.3Z" transform="translate(-6.311 -12.967)" fill="#e10e1c"/>
      <path id="Path_328" data-name="Path 328" d="M26.627,19.456,23.27,20.576V16.01c0-.179.078-.2.224-.179l1.712.19c.571.056,1.119.134,1.7.179,1.119.1,2.16.179,3.234.269h.1c.627,0,.627,0,.627.66v1c-.19.09-.459,0-.593.269-.806-.078-1.623,0-2.428-.112a2.428,2.428,0,0,0-.492,0,4.666,4.666,0,0,1-1.119-.067c-.179,0-.246,0-.224.213a2.719,2.719,0,0,1,0,.3c0,.66,0,.66.627.716C26.571,19.434,26.6,19.445,26.627,19.456Z" transform="translate(-5.375 -12.838)" fill="#e1101e"/>
      <path id="Path_329" data-name="Path 329" d="M43.528,20.324V23.76c0,.213,0,.291-.269.28l-2.238-.056c-.179,0-.2-.078-.2-.224V16.866c0-.19,0-.246.246-.246H43.3c.269,0,.325.067.325.325C43.517,18.064,43.528,19.194,43.528,20.324Z" transform="translate(-3.286 -12.743)" fill="#0f4585"/>
      <path id="Path_330" data-name="Path 330" d="M60.89,18.906l-2.361.795-.548-1.376a2.965,2.965,0,0,1-.145.347,10.183,10.183,0,0,1-.6,1.432L54.12,21.122c.347-.75.694-1.488,1.03-2.238.448-1.052.962-2.07,1.354-3.145a.213.213,0,0,1,.2-.134l2.5-.325a.213.213,0,0,1,.246.145C59.95,16.59,60.454,17.731,60.89,18.906Z" transform="translate(-1.702 -12.903)" fill="#0f4585"/>
      <path id="Path_331" data-name="Path 331" d="M15.412,22.785l2.719-.9c0,.671,0,.649.716.571s1.455-.112,2.182-.145c.515,0,1.018-.078,1.533-.09.2,0,.224,0,.224.2V24.3c0,.168-.056.235-.224.257l-1.634.213-3.223.448c-.7.1-1.421.213-2.137.347-.168,0-.179-.056-.179-.179C15.4,24.509,15.4,23.647,15.412,22.785Z" transform="translate(-6.313 -12.116)" fill="#0e4585"/>
      <path id="Path_332" data-name="Path 332" d="M65.969,17c-.795.269-1.578.526-2.361.806-.112,0-.269,0-.336.179-.291-.414-.492-.884-.75-1.32s-.593-1.007-.9-1.5c-.1-.168-.112-.224.1-.257.761-.112,1.511-.257,2.238-.38s.705-.1,1.03.56S65.69,16.339,65.969,17Z" transform="translate(-0.817 -13)" fill="#0f4585"/>
      <path id="Path_333" data-name="Path 333" d="M70.355,15.522l-2.988.985c-.112,0-.213.123-.347.056.347-.862.694-1.735,1.052-2.607a.336.336,0,0,1,.28-.224c.884-.168,1.768-.358,2.641-.56.291-.067.291.09.224.257C70.881,14.1,70.635,14.839,70.355,15.522Z" transform="translate(-0.167 -13.156)" fill="#0f4585"/>
      <path id="Path_334" data-name="Path 334" d="M7.325,25.474l2.7-.884v1.6c0,.235-.123.3-.3.325-.716.1-1.421.291-2.126.448-.269.056-.325,0-.313-.257C7.325,26.291,7.314,25.888,7.325,25.474Z" transform="translate(-7.279 -11.795)" fill="#0f4585"/>
      <path id="Path_335" data-name="Path 335" d="M34.007,16.619l-2.305.806a4.946,4.946,0,0,1-.627-.75c-.078-.09-.09-.257.112-.235.929.078,1.858.112,2.775.134C33.985,16.575,34,16.6,34.007,16.619Z" transform="translate(-4.452 -12.765)" fill="#e1101e"/>
      <path id="Path_336" data-name="Path 336" d="M45.59,23.46l2.238-.75c.112.839.1.817-.694.839C46.631,23.56,46.116,23.449,45.59,23.46Z" transform="translate(-2.718 -12.018)" fill="#e1101e"/>
      <path id="Path_337" data-name="Path 337" d="M29.47,18.109c.134-.235.4-.179.593-.269.056.213,0,.3-.235.269Z" transform="translate(-4.637 -12.598)" fill="#0f4585"/>
      <path id="Path_338" data-name="Path 338" d="M26.276,19.079a.059.059,0,0,1-.056-.067.2.2,0,0,1,.179,0Z" transform="translate(-5.024 -12.461)" fill="#89a0be"/>
    </g>
    <rect id="Rectangle_233" data-name="Rectangle 233" width="34.176" height="6.155" transform="translate(26.577 9.557)" fill="#fff"/>
    <rect id="Rectangle_234" data-name="Rectangle 234" width="33.605" height="5.584" transform="translate(26.868 9.848)" fill="#014586"/>
    <path id="Path_339" data-name="Path 339" d="M32.289,12.751V11.733h-.817v1.018H30.61V10.11h.862v.9h.817v-.9h.873v2.641Z" transform="translate(3.644 1.204)" fill="#fff"/>
    <g id="Group_590" data-name="Group 590" transform="translate(26.868 9.848)" clip-path="url(#clip-path)">
      <path id="Path_340" data-name="Path 340" d="M34.22,10.77h.224a.951.951,0,0,1,.358.056.257.257,0,0,1,.134.112.526.526,0,0,1,.09.213.985.985,0,0,1,0,.269.929.929,0,0,1-.067.38.425.425,0,0,1-.19.224.839.839,0,0,1-.369.067h-.224V10.77Zm.336,1.981a1.678,1.678,0,0,0,.515-.056,1.119,1.119,0,0,0,.347-.134.783.783,0,0,0,.235-.235,1.119,1.119,0,0,0,.19-.392,1.533,1.533,0,0,0,.078-.526,1.5,1.5,0,0,0-.168-.739.94.94,0,0,0-.459-.425,1.723,1.723,0,0,0-.705-.134H33.37v2.641Z" transform="translate(-22.896 -8.644)" fill="#fff"/>
    </g>
    <g id="Group_591" data-name="Group 591" transform="translate(26.868 9.848)" clip-path="url(#clip-path)">
      <path id="Path_341" data-name="Path 341" d="M36,12.751V10.11h2.07v.66H36.862v.414h.962v.638h-.962v.929Z" transform="translate(-22.583 -8.644)" fill="#fff"/>
    </g>
    <g id="Group_592" data-name="Group 592" transform="translate(26.868 9.848)" clip-path="url(#clip-path)">
      <path id="Path_342" data-name="Path 342" d="M40.741,11.116h-.817a.548.548,0,0,0-.145-.313.448.448,0,0,0-.3-.1.459.459,0,0,0-.38.179.94.94,0,0,0-.145.571,1.052,1.052,0,0,0,.067.425.459.459,0,0,0,.168.213.548.548,0,0,0,.28.067.436.436,0,0,0,.325-.112.481.481,0,0,0,.134-.325h.839a1.119,1.119,0,0,1-.1.414,1.018,1.018,0,0,1-.235.336,1.119,1.119,0,0,1-.4.257,1.544,1.544,0,0,1-.537.09,1.779,1.779,0,0,1-.56-.09,1.231,1.231,0,0,1-.425-.257,1.119,1.119,0,0,1-.28-.38,1.544,1.544,0,0,1,0-1.231,1.488,1.488,0,0,1,.269-.448,1.522,1.522,0,0,1,.392-.269,1.488,1.488,0,0,1,.6-.112,1.813,1.813,0,0,1,.548.09,1.018,1.018,0,0,1,.414.246,1.242,1.242,0,0,1,.246.38,1.522,1.522,0,0,1,.078.369" transform="translate(-22.333 -8.654)" fill="#fff"/>
    </g>
    <g id="Group_593" data-name="Group 593" transform="translate(26.868 9.848)" clip-path="url(#clip-path)">
      <path id="Path_343" data-name="Path 343" d="M43.119,10.712h.235a.257.257,0,0,1,.123.078.224.224,0,0,1,0,.145.2.2,0,0,1-.078.168.459.459,0,0,1-.28.056h-.336V10.7Zm.213,2.037h.436l.257-.09a.783.783,0,0,0,.2-.134.739.739,0,0,0,.213-.537.683.683,0,0,0-.123-.4.593.593,0,0,0-.325-.213.638.638,0,0,0,.347-.56.593.593,0,0,0-.3-.537,1.343,1.343,0,0,0-.716-.145H42v2.641ZM43.2,11.63a.582.582,0,0,1,.336.067.246.246,0,0,1,0,.358.582.582,0,0,1-.336.067h-.414V11.63Z" transform="translate(-21.868 -8.642)" fill="#fff"/>
    </g>
    <g id="Group_594" data-name="Group 594" transform="translate(26.868 9.848)" clip-path="url(#clip-path)">
      <path id="Path_344" data-name="Path 344" d="M46.027,11.867h-.56l.28-.962Zm-.817.884.1-.347H46.2l.1.347h.873L46.2,10.11h-.884l-.951,2.641Z" transform="translate(-21.587 -8.644)" fill="#fff"/>
    </g>
    <g id="Group_595" data-name="Group 595" transform="translate(26.868 9.848)" clip-path="url(#clip-path)">
      <path id="Path_345" data-name="Path 345" d="M47.17,12.751V10.11h.817l.918,1.421V10.11h.839v2.641h-.828l-.9-1.376v1.376Z" transform="translate(-21.253 -8.644)" fill="#fff"/>
    </g>
    <g id="Group_596" data-name="Group 596" transform="translate(26.868 9.848)" clip-path="url(#clip-path)">
      <path id="Path_346" data-name="Path 346" d="M49.99,12.751V10.11h.839v.873l.783-.873h1.03l-.974,1,1.074,1.645H51.7L51.064,11.7l-.235.235v.817Z" transform="translate(-20.917 -8.644)" fill="#fff"/>
    </g>
    <g id="Group_597" data-name="Group 597" transform="translate(26.868 9.848)" clip-path="url(#clip-path)">
      <rect id="Rectangle_242" data-name="Rectangle 242" width="5.606" height="5.584" fill="#e00"/>
    </g>
    <g id="Group_598" data-name="Group 598" transform="translate(26.868 9.848)" clip-path="url(#clip-path)">
      <rect id="Rectangle_244" data-name="Rectangle 244" width="3.637" height="3.626" transform="translate(0.985 0.974)" fill="#fff"/>
    </g>
    <g id="Group_599" data-name="Group 599" transform="translate(26.868 9.848)" clip-path="url(#clip-path)">
      <rect id="Rectangle_246" data-name="Rectangle 246" width="0.56" height="5.584" transform="translate(2.518)" fill="#fff"/>
    </g>
    <g id="Group_600" data-name="Group 600" transform="translate(26.868 9.848)" clip-path="url(#clip-path)">
      <rect id="Rectangle_248" data-name="Rectangle 248" width="5.606" height="0.56" transform="translate(0 2.507)" fill="#fff"/>
    </g>
    <g id="Group_601" data-name="Group 601" transform="translate(26.868 9.848)" clip-path="url(#clip-path)">
      <rect id="Rectangle_250" data-name="Rectangle 250" width="1.679" height="1.679" transform="translate(1.958 1.958)" fill="#001f79"/>
    </g>
    <rect id="Rectangle_252" data-name="Rectangle 252" width="94" height="40.286" fill="none"/>
  </g>
</svg>
