<svg xmlns="http://www.w3.org/2000/svg" width="23.998" height="24" viewBox="0 0 23.998 24"><defs><style>.a{fill:#707487;}.b{fill:#ffdc64;}.c{fill:#ffc850;}.d{fill:#7f8499;}</style></defs><g transform="translate(-370.98 -700)"><g transform="translate(195 -16)"><g transform="translate(6.022 6.023)"><path class="a" d="M377.695,6.314a.417.417,0,0,1-.189-.045.421.421,0,0,1-.187-.565A27.905,27.905,0,0,1,380.707.5,1.689,1.689,0,0,1,381.9,0h.007A1.667,1.667,0,0,1,383.1.491a.421.421,0,0,1-.6.6.847.847,0,0,0-1.2.007,27.467,27.467,0,0,0-3.232,4.988A.421.421,0,0,1,377.695,6.314Z" transform="translate(-189.632 709.977)"/><path class="b" d="M19.389,53.9H13.608a2.526,2.526,0,0,0-1.786.74L.267,66.193a.842.842,0,0,0,0,1.191l7.741,7.741a.842.842,0,0,0,1.191,0L20.754,63.57a2.526,2.526,0,0,0,.74-1.786V56A2.105,2.105,0,0,0,19.389,53.9Zm-.37,4.262a1.263,1.263,0,1,1,0-1.786A1.263,1.263,0,0,1,19.019,58.16Z" transform="translate(169.938 658.606)"/><path class="c" d="M1.531,67.457,13.086,55.9a2.527,2.527,0,0,1,1.786-.74h5.781a2.087,2.087,0,0,1,.71.131,2.1,2.1,0,0,0-1.974-1.4H13.608a2.526,2.526,0,0,0-1.786.74L.267,66.193a.842.842,0,0,0,0,1.191l1.264,1.264A.842.842,0,0,1,1.531,67.457Z" transform="translate(169.938 658.606)"/><path class="d" d="M377.7,6.314a.421.421,0,0,1-.19-.8A27.452,27.452,0,0,0,382.5,2.285a.853.853,0,0,0,.252-.6.832.832,0,0,0-.245-.6.847.847,0,0,0-1.2.007.421.421,0,1,1-.6-.6A1.688,1.688,0,0,1,381.9,0h.007a1.677,1.677,0,0,1,1.679,1.686,1.689,1.689,0,0,1-.5,1.195,27.869,27.869,0,0,1-5.205,3.389A.42.42,0,0,1,377.7,6.314Z" transform="translate(-189.634 709.977)"/></g></g></g></svg>