<svg width="20" height="20" viewBox="0 0 20 20" fill="none" xmlns="http://www.w3.org/2000/svg">
<path d="M1.375 6.875V17.875H17.875V2.75H15.125V3.4375C15.125 3.61984 15.0526 3.7947 14.9236 3.92364C14.7947 4.05257 14.6198 4.125 14.4375 4.125C14.2552 4.125 14.0803 4.05257 13.9514 3.92364C13.8224 3.7947 13.75 3.61984 13.75 3.4375V2.75H5.5V3.4375C5.5 3.61984 5.42757 3.7947 5.29864 3.92364C5.1697 4.05257 4.99484 4.125 4.8125 4.125C4.63016 4.125 4.4553 4.05257 4.32636 3.92364C4.19743 3.7947 4.125 3.61984 4.125 3.4375V2.75H1.375V5.5H17.875V6.875H1.375ZM5.5 1.375H13.75V0.6875C13.75 0.505164 13.8224 0.330295 13.9514 0.201364C14.0803 0.0724328 14.2552 0 14.4375 0C14.6198 0 14.7947 0.0724328 14.9236 0.201364C15.0526 0.330295 15.125 0.505164 15.125 0.6875V1.375H18.5625C18.7448 1.375 18.9197 1.44743 19.0486 1.57636C19.1776 1.7053 19.25 1.88016 19.25 2.0625V18.5625C19.25 18.7448 19.1776 18.9197 19.0486 19.0486C18.9197 19.1776 18.7448 19.25 18.5625 19.25H0.6875C0.505164 19.25 0.330295 19.1776 0.201364 19.0486C0.0724328 18.9197 0 18.7448 0 18.5625V2.0625C0 1.88016 0.0724328 1.7053 0.201364 1.57636C0.330295 1.44743 0.505164 1.375 0.6875 1.375H4.125V0.6875C4.125 0.505164 4.19743 0.330295 4.32636 0.201364C4.4553 0.0724328 4.63016 0 4.8125 0C4.99484 0 5.1697 0.0724328 5.29864 0.201364C5.42757 0.330295 5.5 0.505164 5.5 0.6875V1.375ZM4.8125 9.625H6.1875C6.36984 9.625 6.5447 9.69743 6.67364 9.82636C6.80257 9.95529 6.875 10.1302 6.875 10.3125C6.875 10.4948 6.80257 10.6697 6.67364 10.7986C6.5447 10.9276 6.36984 11 6.1875 11H4.8125C4.63016 11 4.4553 10.9276 4.32636 10.7986C4.19743 10.6697 4.125 10.4948 4.125 10.3125C4.125 10.1302 4.19743 9.95529 4.32636 9.82636C4.4553 9.69743 4.63016 9.625 4.8125 9.625ZM4.8125 13.75H6.1875C6.36984 13.75 6.5447 13.8224 6.67364 13.9514C6.80257 14.0803 6.875 14.2552 6.875 14.4375C6.875 14.6198 6.80257 14.7947 6.67364 14.9236C6.5447 15.0526 6.36984 15.125 6.1875 15.125H4.8125C4.63016 15.125 4.4553 15.0526 4.32636 14.9236C4.19743 14.7947 4.125 14.6198 4.125 14.4375C4.125 14.2552 4.19743 14.0803 4.32636 13.9514C4.4553 13.8224 4.63016 13.75 4.8125 13.75ZM8.9375 9.625H10.3125C10.4948 9.625 10.6697 9.69743 10.7986 9.82636C10.9276 9.95529 11 10.1302 11 10.3125C11 10.4948 10.9276 10.6697 10.7986 10.7986C10.6697 10.9276 10.4948 11 10.3125 11H8.9375C8.75516 11 8.5803 10.9276 8.45136 10.7986C8.32243 10.6697 8.25 10.4948 8.25 10.3125C8.25 10.1302 8.32243 9.95529 8.45136 9.82636C8.5803 9.69743 8.75516 9.625 8.9375 9.625ZM8.9375 13.75H10.3125C10.4948 13.75 10.6697 13.8224 10.7986 13.9514C10.9276 14.0803 11 14.2552 11 14.4375C11 14.6198 10.9276 14.7947 10.7986 14.9236C10.6697 15.0526 10.4948 15.125 10.3125 15.125H8.9375C8.75516 15.125 8.5803 15.0526 8.45136 14.9236C8.32243 14.7947 8.25 14.6198 8.25 14.4375C8.25 14.2552 8.32243 14.0803 8.45136 13.9514C8.5803 13.8224 8.75516 13.75 8.9375 13.75ZM13.0625 9.625H14.4375C14.6198 9.625 14.7947 9.69743 14.9236 9.82636C15.0526 9.95529 15.125 10.1302 15.125 10.3125C15.125 10.4948 15.0526 10.6697 14.9236 10.7986C14.7947 10.9276 14.6198 11 14.4375 11H13.0625C12.8802 11 12.7053 10.9276 12.5764 10.7986C12.4474 10.6697 12.375 10.4948 12.375 10.3125C12.375 10.1302 12.4474 9.95529 12.5764 9.82636C12.7053 9.69743 12.8802 9.625 13.0625 9.625ZM13.0625 13.75H14.4375C14.6198 13.75 14.7947 13.8224 14.9236 13.9514C15.0526 14.0803 15.125 14.2552 15.125 14.4375C15.125 14.6198 15.0526 14.7947 14.9236 14.9236C14.7947 15.0526 14.6198 15.125 14.4375 15.125H13.0625C12.8802 15.125 12.7053 15.0526 12.5764 14.9236C12.4474 14.7947 12.375 14.6198 12.375 14.4375C12.375 14.2552 12.4474 14.0803 12.5764 13.9514C12.7053 13.8224 12.8802 13.75 13.0625 13.75Z" fill="#888888"/>
</svg>
