<svg xmlns="http://www.w3.org/2000/svg" width="34" height="32" viewBox="0 0 34 32">
    <path fill="#979797" fill-rule="nonzero" d="M26.126 26.017h1.965c.601 0 1.09-.481 1.09-1.075V4.223c0-1.485-1.22-2.688-2.725-2.688h-5.98V0h-6.952v1.535h-5.98c-1.505 0-2.724 1.203-2.724 2.688v20.719c0 .594.488 1.075 1.09 1.075h1.964L0 32h5.062l6.169-5.983h11.538L28.94 32H34l-7.874-5.983zM23 22.5a1.5 1.5 0 1 1 3 0 1.5 1.5 0 0 1-3 0zM9.5 24a1.5 1.5 0 1 1 0-3 1.5 1.5 0 0 1 0 3zm-.954-8C8.245 16 8 15.77 8 15.485v-9.97C8 5.23 8.245 5 8.546 5h17.908c.301 0 .546.23.546.515v9.97c0 .284-.245.515-.546.515H8.546z"/>
</svg>
