<?xml version="1.0" encoding="UTF-8"?><svg id="Layer_2" xmlns="http://www.w3.org/2000/svg" viewBox="0 0 135.48 19.79"><defs><style>.cls-1{fill:#040404;}.cls-2{fill:#fffefd;}.cls-3{fill:#fefefe;}.cls-4{fill:#f90;}.cls-5{fill:red;}.cls-6{fill:#ff4800;}.cls-7{fill:#dfe7f2;}.cls-8{fill:#33b58d;}.cls-9{fill:#7088be;}.cls-10{fill:#4ea38a;}</style></defs><g id="Layer_1-2"><g><g><g><rect class="cls-7" width="30.11" height="19.79" rx="1.27" ry="1.27"/><rect class="cls-9" y="3.1" width="30.11" height="4.32"/><rect class="cls-2" x="10.61" y="10.27" width="17.04" height="1.49"/><rect class="cls-2" x="16.29" y="14.61" width="11.36" height="1.49"/><rect class="cls-2" x="2.29" y="13.54" width="3.33" height="3.33"/></g><g id="JHo1N7.tif"><g><path class="cls-8" d="M68.95,19.21c-.61-.26-1.24-.49-1.83-.78-2.82-1.38-4.63-3.59-5.37-6.65-.26-1.05-.41-2.12-.43-3.2-.03-1.54,0-3.08,0-4.62,0-.4,.27-.65,.7-.67,.47-.03,.93-.03,1.4-.08,1.89-.2,3.57-.91,4.98-2.2,.08-.07,.15-.14,.23-.21,.31-.28,.64-.27,.96,0,.41,.34,.81,.7,1.24,1,1.1,.77,2.33,1.2,3.66,1.37,.54,.07,1.09,.09,1.63,.12,.54,.03,.77,.25,.78,.79,.01,1.22,.04,2.44,.03,3.66-.01,1.46-.16,2.9-.54,4.32-.77,2.89-2.53,4.99-5.19,6.33-.63,.32-1.3,.56-1.95,.84h-.29Zm-6.34-14.61c0,.06,0,.12,0,.18-.01,.78-.02,1.56-.03,2.35,0,1.44,.08,2.87,.41,4.28,.4,1.7,1.19,3.18,2.49,4.37,1.03,.94,2.24,1.58,3.54,2.06,.06,.02,.15,.01,.2-.01,.67-.31,1.36-.59,2-.95,1.42-.81,2.53-1.95,3.27-3.42,.72-1.43,1.01-2.97,1.08-4.55,.06-1.38,.02-2.76,.03-4.15,0-.05,0-.11-.01-.16-.47-.05-.92-.09-1.38-.16-1.84-.25-3.48-.97-4.9-2.16-.15-.12-.23-.14-.39,0-1.31,1.11-2.82,1.81-4.51,2.1-.58,.1-1.18,.15-1.79,.23Z"/><path class="cls-10" d="M68.16,10.81c.32-.32,.59-.6,.87-.87,.76-.76,1.52-1.52,2.28-2.28,.38-.38,.96-.26,1.11,.22,.07,.21,.04,.41-.09,.59-.05,.06-.1,.12-.16,.17-1.14,1.14-2.27,2.27-3.41,3.41-.4,.4-.73,.4-1.13,0-.56-.56-1.12-1.12-1.68-1.68-.19-.19-.25-.41-.18-.67,.07-.25,.25-.4,.5-.45,.25-.05,.45,.04,.62,.22,.38,.39,.77,.77,1.16,1.16,.05,.05,.07,.11,.11,.18Z"/></g></g><rect class="cls-8" x="37.44" y="9.47" width="19.92" height=".8"/><rect class="cls-8" x="79.69" y="9.47" width="19.92" height=".8"/></g><g id="Y5ktKx.tif"><g><path class="cls-5" d="M111.07,8.12v-.25c.03-.12,.04-.23,.03-.35,.02-.48,.1-.96,.22-1.43,.58-2.28,2.25-4.19,4.42-5.09,.63-.26,1.29-.43,1.96-.52,.21-.03,.42-.04,.63-.06h.61s.04,0,.07,0c.29,.02,.59,.05,.88,.1,.9,.15,1.74,.46,2.53,.92,.3,.17,.59,.36,.86,.59,0,.03-.02,.04-.04,.06-.2,.16-.39,.34-.57,.51-.13,.12-.25,.26-.37,.4-.12,.13-.23,.26-.33,.4-.22,.29-.42,.6-.6,.92-.2,.37-.38,.75-.51,1.14-.11,.31-.2,.62-.27,.94-.04,.17-.07,.34-.09,.51-.02,.14-.03,.29-.05,.43-.02,.16-.02,.33-.03,.49-.02,.26,.01,.52,.03,.78,.01,.19,.04,.38,.07,.56,.04,.28,.11,.56,.18,.83,.11,.4,.25,.78,.43,1.16,.2,.42,.43,.83,.7,1.21,.17,.24,.36,.48,.56,.69,.12,.13,.25,.25,.37,.37,.14,.14,.3,.28,.46,.4,.02,.02,.05,.04,.06,.07-.02,.01-.03,.03-.05,.04-1.56,1.17-3.3,1.69-5.25,1.54-.59-.05-1.17-.17-1.74-.36-1.49-.51-2.71-1.39-3.65-2.65-.9-1.2-1.39-2.55-1.48-4.05,0-.11,0-.22-.03-.33Z"/><path class="cls-1" d="M133.03,19.38s-.05-.03-.07-.03c-.4-.12-.67-.46-.71-.88-.02-.21,0-.42,.1-.61,.22-.47,.73-.65,1.14-.54,.14,.04,.23,.09,.38,.24,.02-.02,.01-.05,.01-.07,0-.29,0-.58,0-.88,0-.07,0-.07,.07-.07,.11,0,.22,0,.32,0,.03,0,.05,0,.05,.04,0,.02,0,.04,0,.06,0,.87,0,1.74,0,2.61,0,.02,0,.03,0,.05,0,.03,0,.05-.05,.05-.11,0-.23,0-.34,0-.04,0-.05-.01-.05-.05,0-.06,0-.11,0-.17-.03,0-.03,.01-.04,.02-.11,.12-.24,.2-.4,.22-.01,0-.02,0-.02,.02h-.38Zm.89-1.06c0-.07,0-.13-.03-.2-.08-.26-.3-.43-.57-.44-.28,0-.5,.15-.58,.42-.04,.11-.04,.22-.03,.33,.04,.39,.42,.64,.79,.53,.26-.08,.43-.34,.42-.64Z"/><path class="cls-1" d="M116.71,19.38s-.05-.02-.07-.03c-.4-.12-.69-.46-.73-.87-.02-.23,0-.45,.11-.66,.23-.45,.73-.6,1.12-.5,.12,.03,.23,.09,.32,.18,.02,.02,.04,.04,.08,.08,0-.08,0-.13,0-.19,0-.04,.01-.06,.05-.06,.11,0,.22,0,.33,0,.04,0,.06,.02,.05,.06,0,.03,0,.06,0,.1,0,.58,0,1.16,0,1.74,0,.02,0,.04,0,.07,0,.04-.02,.05-.06,.05-.11,0-.22,0-.32,0-.05,0-.06-.02-.06-.07,0-.05,0-.1,0-.15-.04,0-.05,.03-.06,.04-.08,.08-.18,.14-.29,.18-.03,0-.06,0-.08,.03h-.4Zm-.36-1.05c0,.06,0,.13,.02,.19,.06,.26,.28,.44,.55,.46,.26,.02,.49-.13,.59-.38,.05-.13,.06-.27,.04-.41-.05-.29-.28-.49-.56-.5-.3-.02-.54,.16-.61,.45-.02,.06-.03,.13-.02,.2Z"/><path class="cls-1" d="M128.99,19.38s-.05-.02-.07-.03c-.41-.13-.64-.41-.71-.83-.04-.25,0-.49,.12-.72,.24-.43,.72-.58,1.11-.48,.12,.03,.23,.09,.32,.18,.02,.02,.04,.04,.06,.06h.02c0-.06,0-.12,0-.17,0-.05,.02-.06,.06-.06,.11,0,.22,0,.32,0,.04,0,.06,.01,.06,.05,0,.02,0,.04,0,.06,0,.6,0,1.2,0,1.8,0,.02,0,.04,0,.06,0,.03,0,.05-.04,.05-.12,0-.23,0-.35,0-.04,0-.05-.02-.05-.05,0-.06,0-.11,0-.19-.03,.03-.05,.05-.06,.07-.08,.08-.17,.14-.28,.17-.03,0-.06,0-.08,.04h-.42Zm.88-1.05c0-.06,0-.13-.02-.19-.07-.27-.29-.45-.57-.46-.28,0-.51,.16-.59,.43-.03,.11-.04,.22-.02,.34,.04,.28,.25,.49,.53,.52,.27,.03,.52-.12,.63-.38,.03-.09,.05-.18,.05-.27Z"/><path class="cls-1" d="M123.2,19.38s-.06-.03-.09-.04c-.18-.05-.33-.13-.45-.27-.09-.1-.16-.21-.2-.34-.09-.26-.09-.52,0-.79,.16-.49,.61-.71,1.05-.66,.46,.05,.72,.37,.8,.78,.02,.13,.02,.27,.02,.4,0,.04-.01,.05-.05,.05-.02,0-.04,0-.07,0-.42,0-.84,0-1.26,0h-.11c.04,.2,.13,.34,.31,.42,.17,.08,.35,.08,.53,.03,.1-.03,.2-.07,.28-.13,.02-.01,.04-.03,.07-.04,.06,.09,.12,.18,.18,.27,.03,.04,0,.05-.02,.07-.13,.1-.27,.16-.43,.2-.06,.01-.12,.03-.18,.04h-.38Zm.69-1.24c-.02-.28-.21-.47-.47-.47-.3,0-.52,.18-.56,.47h1.03Z"/><path class="cls-1" d="M119,19.38s-.09-.03-.13-.04c-.15-.04-.3-.09-.43-.17-.06-.04-.06-.04-.02-.09,.06-.09,.11-.18,.17-.27,.04,0,.07,.03,.1,.05,.25,.14,.52,.18,.8,.13,.06-.01,.12-.04,.17-.08,.11-.09,.09-.21-.03-.28-.09-.05-.2-.07-.3-.08-.12-.01-.24-.02-.36-.06-.06-.02-.11-.04-.17-.06-.46-.2-.38-.73-.13-.94,.1-.08,.21-.14,.33-.16,.33-.07,.65-.04,.96,.08,.02,0,.04,.02,.06,.03q.11,.06,.05,.16c-.03,.06-.06,.12-.1,.19-.04,.07-.04,.07-.1,.04-.14-.06-.28-.11-.44-.13-.1-.01-.2-.01-.29,0-.05,.01-.1,.03-.14,.07-.11,.09-.09,.23,.04,.28,.08,.03,.16,.04,.24,.05,.12,.01,.25,.02,.37,.06,.07,.02,.14,.05,.21,.08,.4,.21,.38,.72,.08,.94-.13,.1-.28,.15-.44,.18-.02,0-.04,0-.05,.02h-.46Z"/><path class="cls-1" d="M121.35,19.38s-.02-.02-.04-.02c-.27-.08-.39-.27-.42-.54-.01-.12-.01-.23-.01-.35,0-.22,0-.44,0-.67,0-.07,0-.07-.07-.07-.09,0-.18,0-.28,0-.03,0-.05,0-.05-.04,0-.1,0-.2,0-.3,0-.04,.01-.05,.05-.05,.08,0,.16,0,.24,0,.12,0,.11,.01,.11-.1,0-.14,0-.29,0-.43,0-.07,0-.07,.07-.07,.1,0,.21,0,.31,0,.04,0,.06,.01,.05,.05,0,.16,0,.32,0,.48,0,.08,0,.08,.08,.08,.19,0,.37,0,.56,0,.07,0,.07,0,.07,.07,0,.11,0,.21,0,.32-.04,.02-.07,.01-.1,.01-.18,0-.36,0-.54,0-.07,0-.07,0-.07,.07,0,.28,0,.57,0,.85,0,.24,.11,.33,.35,.32,.06,0,.11-.02,.17-.03,.05-.01,.1-.04,.16-.07,.04,.12,.08,.23,.12,.34,.01,.03-.01,.05-.03,.06-.07,.04-.15,.06-.23,.09-.02,0-.05,0-.05,.03h-.44Z"/><path class="cls-1" d="M127.03,19.38s0-.02-.02-.02c-.05-.01-.1-.02-.15-.04-.4-.15-.61-.44-.65-.86-.02-.16,0-.32,.04-.47,.13-.39,.41-.62,.81-.68,.17-.03,.35-.02,.52,.02,.14,.03,.27,.1,.4,.2l-.21,.35s-.07-.05-.11-.07c-.16-.09-.33-.14-.52-.1-.27,.05-.47,.26-.5,.54-.01,.14,0,.27,.05,.4,.09,.21,.26,.32,.48,.34,.19,.02,.37-.03,.53-.14,.06-.04,.06-.04,.1,.03,.04,.07,.09,.15,.13,.22q.04,.07-.03,.12c-.11,.08-.23,.13-.37,.16-.02,0-.04,0-.05,.02h-.48Z"/><path class="cls-3" d="M118.94,.41v.02h-.61v-.02h.61Z"/><path class="cls-4" d="M111.07,7.51s.02,0,.03,.01c.01,.12,0,.24-.03,.35v-.36Z"/><path class="cls-3" d="M127.66,.43s0,0,0-.01h.57s0,.01,0,.02h-.57Z"/><path class="cls-4" d="M111.1,8.45s-.02,0-.03,.01v-.34c.03,.11,.04,.22,.03,.33Z"/><path class="cls-6" d="M123.27,2.03h.02s.03,.04,.05,.06c.1,.09,.21,.17,.31,.27,.12,.12,.25,.24,.37,.36,.19,.2,.38,.41,.55,.63,.29,.37,.54,.76,.75,1.18,.21,.41,.39,.84,.52,1.29,.13,.44,.23,.89,.27,1.36,0,.08,0,.16,.02,.24,.03,.2,0,.41,.03,.62,0,.06-.01,.12-.01,.19,0,.12,0,.25-.01,.37-.02,.22-.05,.44-.08,.66-.05,.34-.13,.68-.24,1.01-.09,.28-.19,.54-.31,.81-.17,.39-.38,.77-.62,1.12-.2,.31-.43,.6-.68,.87-.23,.25-.47,.49-.73,.71-.06,.05-.14,.09-.18,.17h-.03s-.04-.05-.06-.07c-.16-.13-.31-.26-.46-.4-.12-.12-.25-.24-.37-.37-.2-.22-.39-.45-.56-.69-.27-.38-.51-.78-.7-1.21-.17-.37-.31-.76-.43-1.16-.08-.27-.14-.55-.18-.83-.03-.19-.06-.37-.07-.56-.02-.26-.05-.52-.03-.78,.01-.16,.01-.33,.03-.49,.02-.14,.03-.29,.05-.43,.02-.17,.05-.34,.09-.51,.07-.32,.16-.63,.27-.94,.14-.4,.31-.78,.51-1.14,.18-.32,.38-.62,.6-.92,.1-.14,.22-.27,.33-.4,.12-.13,.23-.28,.37-.4,.19-.18,.37-.35,.57-.51,.02-.02,.04-.03,.04-.06Z"/><path class="cls-4" d="M123.3,13.92c.04-.07,.12-.11,.18-.17,.26-.22,.5-.46,.73-.71,.25-.27,.47-.56,.68-.87,.24-.36,.44-.73,.62-1.12,.12-.26,.22-.53,.31-.81,.1-.33,.18-.66,.24-1.01,.03-.22,.06-.44,.08-.66,0-.12,.01-.25,.01-.37,0-.06,.02-.13,.01-.19-.03-.2,0-.41-.03-.62-.01-.08-.01-.16-.02-.24-.04-.46-.14-.91-.27-1.36-.13-.45-.31-.87-.52-1.29-.21-.42-.46-.81-.75-1.18-.17-.22-.36-.43-.55-.63-.12-.13-.25-.24-.37-.36-.1-.1-.21-.18-.31-.27-.02-.02-.04-.03-.05-.05,.63-.49,1.32-.88,2.08-1.16,.54-.19,1.09-.33,1.65-.4,.21-.03,.42-.04,.63-.06h.57c.21,.02,.43,.03,.64,.06,.58,.07,1.15,.21,1.7,.41,1.69,.64,2.99,1.75,3.91,3.3,.43,.74,.72,1.53,.88,2.37,.06,.33,.11,.67,.12,1.01,0,.23,0,.46,0,.7,0,.46-.07,.91-.17,1.35-.35,1.54-1.11,2.85-2.27,3.92-1,.92-2.18,1.53-3.51,1.82-.56,.12-1.13,.18-1.7,.17-1.65-.03-3.14-.55-4.46-1.55-.02-.02-.05-.03-.06-.06Z"/><path class="cls-1" d="M112.3,19.35v-.09c0-.61,0-1.22,0-1.83,0-.02,0-.03,0-.05,0-.03,0-.05,.04-.05,.12,0,.24,0,.35,0,.04,0,.05,.02,.05,.05,0,.05,0,.11,0,.18,.08-.07,.14-.14,.22-.19,.09-.05,.18-.07,.28-.08,.1-.01,.19,0,.28,.02,.1,.02,.19,.06,.27,.12,.08,.06,.14,.13,.19,.21,.02,0,.03-.02,.04-.04,.2-.24,.46-.32,.75-.3,.05,0,.09,0,.14,.02,.35,.08,.56,.34,.57,.72,.01,.42,0,.84,0,1.26,0,.04-.01,.06-.05,.05-.12,0-.24,0-.36,0-.07,0-.07,0-.07-.07,0-.32,0-.64,0-.95,0-.1,0-.19-.02-.28-.05-.21-.19-.32-.4-.33-.29,0-.48,.18-.5,.47,0,.11,0,.22,0,.32,0,.26,0,.51,0,.77,0,.07,0,.07-.07,.07-.1,0-.2,0-.3,0-.07,0-.07,0-.07-.07,0-.34,0-.69,0-1.03,0-.09,0-.18-.04-.26-.05-.15-.15-.24-.31-.27-.09-.02-.18-.01-.27,.02-.19,.06-.28,.2-.3,.39,0,.06,0,.11,0,.17,0,.32,0,.65,0,.97,0,.08,0,.08-.08,.08-.12,0-.23,0-.36,0Z"/><path class="cls-1" d="M125.24,17.57c.25-.27,.48-.34,.82-.25-.04,.12-.08,.25-.11,.37-.01,.04-.03,.04-.06,.03-.07-.02-.15-.03-.23-.03-.2,0-.33,.1-.39,.29-.03,.08-.03,.17-.03,.25,0,.35,0,.69,0,1.04,0,.08,0,.08-.08,.08-.1,0-.2,0-.3,0-.07,0-.07,0-.07-.07,0-.25,0-.5,0-.74,0-.37,0-.74,0-1.11,0-.1,0-.09,.09-.09,.1,0,.2,0,.3,0,.04,0,.05,.01,.05,.05,0,.06,0,.11,0,.19Z"/><path class="cls-1" d="M131.31,17.56c.2-.29,.49-.3,.8-.25l-.12,.38s-.03,.03-.06,.02c-.07-.02-.14-.03-.22-.03-.21,0-.35,.11-.4,.32-.02,.07-.02,.14-.02,.22,0,.34,0,.67,0,1.01,0,.13,.02,.11-.12,.11-.09,0-.18,0-.27,0-.04,0-.06-.01-.05-.05,0-.02,0-.03,0-.05,0-.6,0-1.21,0-1.81,0-.02,0-.04,0-.07,0-.03,.01-.04,.04-.04,.12,0,.24,0,.35,0,.03,0,.05,.01,.05,.04,0,.06,0,.11,0,.17h.02Z"/></g></g></g></g></svg>