<svg xmlns="http://www.w3.org/2000/svg" width="18.95" height="19.34" viewBox="0 0 18.95 19.34">
    <defs>
        <style>
            .cls-1{fill:#025297}
        </style>
    </defs>
    <g id="percentage_1_" data-name="percentage (1)" transform="translate(-4.919)">
        <g id="Group_5" data-name="Group 5" transform="translate(4.919)">
            <circle id="Ellipse_2" cx=".808" cy=".808" r=".808" class="cls-1" data-name="Ellipse 2" transform="translate(6.097 7.219)"/>
            <circle id="Ellipse_3" cx=".808" cy=".808" r=".808" class="cls-1" data-name="Ellipse 3" transform="translate(11.233 10.5)"/>
            <path id="Path_1" d="M23.626 10.738l-.293-.4a1.262 1.262 0 0 1-.012-1.47l.285-.4a1.261 1.261 0 0 0-.436-1.839l-.436-.234a1.256 1.256 0 0 1-.646-1.32l.083-.487a1.259 1.259 0 0 0-1.189-1.466l-.5-.02a1.263 1.263 0 0 1-1.152-.912l-.139-.476a1.256 1.256 0 0 0-1.708-.8l-.456.194a1.256 1.256 0 0 1-1.434-.321l-.329-.369a1.256 1.256 0 0 0-1.886.016l-.325.373a1.26 1.26 0 0 1-1.431.337l-.46-.19a1.262 1.262 0 0 0-1.7.832l-.131.48a1.251 1.251 0 0 1-1.141.923l-.5.028A1.258 1.258 0 0 0 6.534 4.7l.091.487A1.256 1.256 0 0 1 6 6.517l-.432.242a1.258 1.258 0 0 0-.4 1.843l.293.4a1.262 1.262 0 0 1 .012 1.47l-.285.4a1.261 1.261 0 0 0 .436 1.839l.436.234a1.256 1.256 0 0 1 .646 1.32l-.083.487a1.259 1.259 0 0 0 1.189 1.466l.5.02a1.263 1.263 0 0 1 1.157.908l.139.476a1.256 1.256 0 0 0 1.708.8l.456-.194a1.256 1.256 0 0 1 1.435.317l.329.369a1.256 1.256 0 0 0 1.886-.016l.325-.373a1.26 1.26 0 0 1 1.431-.337l.46.19a1.262 1.262 0 0 0 1.7-.832l.131-.48a1.251 1.251 0 0 1 1.141-.923l.5-.028a1.258 1.258 0 0 0 1.165-1.486l-.091-.487a1.256 1.256 0 0 1 .626-1.328l.432-.242a1.256 1.256 0 0 0 .384-1.834zM9.871 8.027a1.95 1.95 0 1 1 1.95 1.95 1.948 1.948 0 0 1-1.95-1.95zm2.329 5.029a.477.477 0 0 1-.67.063.477.477 0 0 1-.063-.67l5.113-6.162a.476.476 0 1 1 .733.606zm4.763.2a1.95 1.95 0 1 1 1.95-1.95 1.948 1.948 0 0 1-1.952 1.952z" class="cls-1" data-name="Path 1" transform="translate(-4.919)"/>
        </g>
    </g>
</svg>
