<?xml version="1.0" encoding="UTF-8"?><svg id="Layer_2" xmlns="http://www.w3.org/2000/svg" viewBox="0 0 126.58 19.79"><defs><style>.cls-1{fill:#044f8b;}.cls-2{fill:#fff;}.cls-3{fill:#fffefd;}.cls-4{fill:#dfe7f2;}.cls-5{fill:#33b58d;}.cls-6{fill:#7088be;}.cls-7{fill:#4ea38a;}</style></defs><g id="Layer_2-2"><g><g id="Layer_1-2"><g><g><rect class="cls-4" width="30.11" height="19.79" rx="1.27" ry="1.27"/><rect class="cls-6" y="3.1" width="30.11" height="4.32"/><rect class="cls-3" x="10.61" y="10.27" width="17.04" height="1.49"/><rect class="cls-3" x="16.29" y="14.61" width="11.36" height="1.49"/><rect class="cls-3" x="2.29" y="13.54" width="3.33" height="3.33"/></g><g id="JHo1N7.tif"><g><path class="cls-5" d="M68.95,19.21c-.61-.26-1.24-.49-1.83-.78-2.82-1.38-4.63-3.59-5.37-6.65-.26-1.05-.41-2.12-.43-3.2-.03-1.54,0-3.08,0-4.62,0-.4,.27-.65,.7-.67,.47-.03,.93-.03,1.4-.08,1.89-.2,3.57-.91,4.98-2.2,.08-.07,.15-.14,.23-.21,.31-.28,.64-.27,.96,0,.41,.34,.81,.7,1.24,1,1.1,.77,2.33,1.2,3.66,1.37,.54,.07,1.09,.09,1.63,.12s.77,.25,.78,.79c.01,1.22,.04,2.44,.03,3.66-.01,1.46-.16,2.9-.54,4.32-.77,2.89-2.53,4.99-5.19,6.33-.63,.32-1.3,.56-1.95,.84h-.29v-.02Zm-6.35-14.61v.18c0,.78-.02,1.56-.03,2.35,0,1.44,.08,2.87,.41,4.28,.4,1.7,1.19,3.18,2.49,4.37,1.03,.94,2.24,1.58,3.54,2.06,.06,.02,.15,.01,.2-.01,.67-.31,1.36-.59,2-.95,1.42-.81,2.53-1.95,3.27-3.42,.72-1.43,1.01-2.97,1.08-4.55,.06-1.38,.02-2.76,.03-4.15,0-.05,0-.11-.01-.16-.47-.05-.92-.09-1.38-.16-1.84-.25-3.48-.97-4.9-2.16-.15-.12-.23-.14-.39,0-1.31,1.11-2.82,1.81-4.51,2.1-.58,.1-1.18,.15-1.79,.23h0Z"/><path class="cls-7" d="M68.16,10.81c.32-.32,.59-.6,.87-.87l2.28-2.28c.38-.38,.96-.26,1.11,.22,.07,.21,.04,.41-.09,.59-.05,.06-.1,.12-.16,.17l-3.41,3.41c-.4,.4-.73,.4-1.13,0l-1.68-1.68c-.19-.19-.25-.41-.18-.67,.07-.25,.25-.4,.5-.45s.45,.04,.62,.22c.38,.39,.77,.77,1.16,1.16,.05,.05,.07,.11,.11,.18Z"/></g></g><rect class="cls-5" x="37.44" y="9.47" width="19.92" height=".8"/><rect class="cls-5" x="79.69" y="9.47" width="19.92" height=".8"/></g></g><g id="Layer_1-2-2"><g><path class="cls-1" d="M105.02,8.97c.07-.3,.15-.6,.21-.9,.79-4.03,3.79-6.91,7.86-7.36,2.36-.26,4.75-.35,7.08,.43,4.11,1.39,6.73,5.18,6.37,9.51-.3,3.56-2.32,6.03-5.45,7.56-.98,.48-2.12,.63-3.19,.94-.12,.03-.24,.08-.36,.12h-3.91c-.12-.04-.23-.11-.35-.12-3.98-.47-7.2-3.42-8.03-7.37-.07-.3-.15-.6-.22-.9v-1.9Zm9.47-7.64c-4.73,0-8.59,3.8-8.59,8.47,0,4.78,3.78,8.69,8.53,8.66,4.87-.02,8.54-3.84,8.6-8.54,.06-4.7-3.83-8.59-8.53-8.59h0Z"/><path class="cls-2" d="M114.49,1.33c4.7,0,8.59,3.89,8.53,8.59-.06,4.71-3.72,8.52-8.6,8.54-4.74,.02-8.53-3.89-8.53-8.66,0-4.67,3.87-8.47,8.59-8.47Zm-2.02,3.62c-1.76,.35-3.39,2.68-3.4,4.83,0,2.33,1.55,4.66,3.4,5.05V4.95Zm3.99,0V14.83c1.91-.52,3.46-2.85,3.4-5.09-.06-2.16-1.67-4.43-3.4-4.79Z"/><path class="cls-1" d="M112.47,4.95V14.82c-1.85-.39-3.41-2.72-3.4-5.05,0-2.15,1.64-4.47,3.4-4.83Z"/><path class="cls-1" d="M116.46,4.96c1.72,.35,3.34,2.63,3.4,4.79,.06,2.23-1.49,4.57-3.4,5.09V4.96Z"/></g></g></g></g></svg>