<?xml version="1.0" encoding="UTF-8"?><svg id="Layer_2" xmlns="http://www.w3.org/2000/svg" viewBox="0 0 107.75 15.98"><defs><style>.cls-1{fill:#fffefd;}.cls-2{fill:#f37921;}.cls-3{fill:#028c45;}.cls-4{fill:#dfe7f2;}.cls-5{fill:#1c3381;}.cls-6{fill:#1c3281;}.cls-7{fill:#33b58d;}.cls-8{fill:#7088be;}.cls-9{fill:#4ea38a;}</style></defs><g id="Layer_2-2"><g><g id="Layer_2-2"><g><g><rect class="cls-4" width="24.31" height="15.98" rx="1.03" ry="1.03"/><rect class="cls-8" y="2.5" width="24.31" height="3.48"/><rect class="cls-1" x="8.57" y="8.29" width="13.76" height="1.2"/><rect class="cls-1" x="13.15" y="11.8" width="9.17" height="1.2"/><rect class="cls-1" x="1.85" y="10.93" width="2.69" height="2.69"/></g><g id="JHo1N7.tif"><g><path class="cls-7" d="M51.56,15.14c-.47-.2-.95-.38-1.41-.6-2.17-1.06-3.56-2.76-4.13-5.11-.2-.81-.32-1.63-.33-2.46-.02-1.18,0-2.37,0-3.55,0-.31,.21-.5,.54-.52,.36-.02,.72-.02,1.08-.06,1.45-.15,2.75-.7,3.83-1.69,.06-.05,.12-.11,.18-.16,.24-.22,.49-.21,.74,0,.32,.26,.62,.54,.95,.77,.85,.59,1.79,.92,2.81,1.05,.42,.05,.84,.07,1.25,.09s.59,.19,.6,.61c0,.94,.03,1.88,.02,2.81,0,1.12-.12,2.23-.42,3.32-.59,2.22-1.95,3.84-3.99,4.87-.48,.25-1,.43-1.5,.65h-.22v-.02h0Zm-4.88-11.24v.14c0,.6-.02,1.2-.02,1.81,0,1.11,.06,2.21,.32,3.29,.31,1.31,.92,2.45,1.91,3.36,.79,.72,1.72,1.22,2.72,1.58,.05,.02,.12,0,.15,0,.52-.24,1.05-.45,1.54-.73,1.09-.62,1.95-1.5,2.51-2.63,.55-1.1,.78-2.28,.83-3.5,.05-1.06,.02-2.12,.02-3.19,0-.04,0-.08,0-.12-.36-.04-.71-.07-1.06-.12-1.42-.19-2.68-.75-3.77-1.66-.12-.09-.18-.11-.3,0-1.01,.85-2.17,1.39-3.47,1.62-.45,.08-.91,.12-1.38,.18h0Z"/><path class="cls-9" d="M50.95,8.68c.25-.25,.45-.46,.67-.67l1.75-1.75c.29-.29,.74-.2,.85,.17,.05,.16,.03,.32-.07,.45-.04,.05-.08,.09-.12,.13l-2.62,2.62c-.31,.31-.56,.31-.87,0l-1.29-1.29c-.15-.15-.19-.32-.14-.52,.05-.19,.19-.31,.38-.35s.35,.03,.48,.17c.29,.3,.59,.59,.89,.89,.04,.04,.05,.08,.08,.14Z"/></g></g><rect class="cls-7" x="28.32" y="7.65" width="14.32" height=".62"/><rect class="cls-7" x="59.81" y="7.65" width="16.32" height=".62"/></g></g><g><path class="cls-6" d="M84.39,4.33c.14,.04,.29,.04,.43,.06,.21,.04,.41,.09,.6,.19,.25,.14,.39,.37,.41,.65,.07,.88-.42,1.7-1.21,2.07l-.07,.03s.11,.05,.16,.07c.24,.1,.37,.28,.39,.54,.02,.3-.05,.57-.12,.86-.05,.22-.11,.44-.15,.67-.02,.1-.05,.19,.04,.28,.05,.05-.04,.21-.12,.21-.51,0-1.02,0-1.52,0-.07,0-.09-.02-.08-.09,.01-.34,.11-.65,.2-.97,.05-.16,.09-.32,.08-.49,0-.21-.09-.31-.3-.36-.18-.04-.37-.02-.55-.02-.11,0-.22,0-.33,0-.07,0-.1,.02-.12,.09-.16,.58-.32,1.16-.48,1.74-.02,.09-.06,.12-.15,.12-.51,0-1.03,0-1.54,0v-.02s.03-.06,.04-.1c.39-1.41,.79-2.83,1.18-4.24,.12-.42,.24-.83,.35-1.25,.83,0,1.66,0,2.48,0,.04,0,.09,.02,.12-.02h.26Zm-1.35,2.42h0c.14,0,.28,0,.41,0,.4-.02,.6-.2,.68-.59,.06-.28-.03-.4-.31-.44-.32-.04-.64-.01-.97-.02-.05,0-.07,.03-.08,.07-.08,.3-.16,.6-.25,.9-.02,.07,0,.09,.06,.09,.15,0,.3,0,.45,0Z"/><path class="cls-6" d="M94.03,4.33c.15,.05,.31,.04,.47,.06,.31,.06,.61,.14,.83,.38,.26,.28,.34,.61,.31,.97-.06,.61-.26,1.16-.65,1.64-.43,.52-1,.77-1.66,.83-.41,.04-.82,.01-1.23,.02-.08,0-.11,.03-.14,.11-.14,.51-.28,1.01-.42,1.52-.02,.08-.05,.1-.13,.1-.52,0-1.04,0-1.58,0,.09-.34,.19-.67,.28-1.01,.42-1.51,.84-3.02,1.26-4.54,0-.02,0-.05,.03-.07,.72,0,1.44,0,2.16,0,.04,0,.09,.02,.12-.02h.35Zm-1.2,2.54h0c.13,0,.27,0,.4-.02,.44-.03,.67-.24,.74-.65,.05-.29-.04-.41-.33-.45-.3-.04-.59-.02-.89-.03-.05,0-.07,.03-.08,.07-.09,.34-.19,.68-.28,1.01-.02,.07,0,.07,.06,.07,.13,0,.25,0,.38,0Z"/><path class="cls-5" d="M99.24,11.64c-.08-.05-.17-.02-.25-.03-.06,0-.09-.02-.07-.09,.1-.35,.2-.71,.3-1.07,.02-.06,.04-.08,.1-.08,.13,0,.27,0,.4,0,.32-.02,.46-.15,.5-.48,.02-.18,0-.36,0-.54-.07-1.11-.14-2.23-.21-3.34-.01-.2-.01-.2,.19-.2,.42,0,.83,0,1.25,0,.08,0,.1,.02,.1,.1-.01,.75-.02,1.51-.02,2.26,0,.04,0,.08,0,.15,.03-.06,.05-.09,.07-.12,.41-.77,.83-1.54,1.24-2.3,.04-.07,.07-.09,.15-.09,.44,0,.88,0,1.32,0,.01,.03,0,.04-.01,.05-.89,1.52-1.76,3.06-2.66,4.57-.17,.29-.35,.58-.6,.81-.26,.24-.58,.35-.93,.37-.03,0-.07-.02-.1,.02h-.76Z"/><path class="cls-5" d="M81.52,4.36v-.02h2.61s-.08,.02-.12,.02c-.83,0-1.66,0-2.48,0Z"/><path class="cls-5" d="M93.69,4.33s-.08,.02-.12,.02c-.72,0-1.44,0-2.16,0v-.02h2.28Z"/><path class="cls-5" d="M97.36,9.57c-.28,.2-.56,.36-.87,.45-.33,.1-.66,.12-1,.08-.51-.08-.79-.4-.75-.93,.03-.43,.17-.82,.49-1.13,.22-.23,.51-.33,.81-.42,.42-.12,.85-.16,1.27-.22,.17-.02,.33-.06,.48-.13,.11-.06,.21-.13,.25-.26,.04-.15,0-.26-.16-.3-.3-.08-.74-.07-.91,.33-.01,.03-.03,.04-.07,.04-.48,0-.96,0-1.44,0,.13-.45,.38-.79,.77-1.02,.36-.22,.76-.32,1.17-.36,.52-.05,1.04-.05,1.54,.12,.31,.1,.55,.28,.63,.62,.05,.21,0,.41-.05,.61-.22,.81-.44,1.61-.67,2.42-.04,.13-.05,.25,.04,.37,.05,.06,0,.13-.08,.13-.46,0-.93,0-1.39,0-.06,0-.08-.02-.08-.08,0-.1,.01-.19,.02-.32Zm.34-1.45c-.07,.02-.13,.04-.19,.06-.25,.09-.52,.13-.76,.24-.11,.05-.22,.11-.3,.21-.16,.2-.08,.44,.15,.48,.56,.11,1.14-.41,1.11-.99Z"/><path class="cls-5" d="M87.97,9.4c-.09,.08-.18,.15-.27,.23-.4,.31-.85,.48-1.36,.45-.5-.03-.85-.31-.92-.76-.04-.26,0-.51,.07-.76,.22-.89,.48-1.77,.72-2.66,.02-.07,.06-.08,.12-.08,.45,0,.89,0,1.34,0,.09,0,.1,.02,.08,.1-.2,.71-.4,1.43-.6,2.14-.04,.14-.06,.28-.06,.43,0,.19,.1,.29,.29,.31,.28,.03,.49-.08,.65-.31,.13-.18,.2-.38,.25-.58,.18-.66,.37-1.32,.55-1.99,.02-.07,.05-.1,.13-.1,.44,0,.89,0,1.33,0,.09,0,.1,.03,.07,.1-.37,1.32-.73,2.64-1.1,3.96-.02,.06-.04,.09-.12,.09-.41,0-.81,0-1.22,0-.07,0-.09-.02-.07-.09,.05-.15,.09-.31,.13-.47h-.02Z"/><path class="cls-2" d="M104.84,9.75c-.05,0-.08,.05-.11,.08-.42,.39-.83,.79-1.25,1.18-.02,.02-.05,.04-.09,.08l1.73-6.21,.7,1.37s.03,.08,.05,.12c.26,.51,.51,1.02,.77,1.52,.04,.07,.03,.12-.03,.17-.56,.52-1.11,1.05-1.67,1.57-.04,.03-.07,.07-.1,.11Z"/><path class="cls-3" d="M104.84,9.75s.06-.08,.1-.11c.56-.52,1.11-1.05,1.67-1.57,.06-.06,.07-.1,.03-.17-.26-.51-.51-1.01-.77-1.52-.02-.04-.03-.08-.05-.12,.12-.41,.23-.82,.35-1.23,.01-.04,.02-.07,.03-.11,.04,.01,.05,.05,.06,.08,.49,.97,.98,1.94,1.47,2.91,.03,.06,.04,.1-.02,.16-1.06,.99-2.11,1.99-3.16,2.98-.01,.01-.03,.04-.06,.03l.36-1.32Z"/></g></g></g></svg>