<?xml version="1.0" encoding="UTF-8"?><svg id="Layer_2" xmlns="http://www.w3.org/2000/svg" viewBox="0 0 138.78 19.79"><defs><style>.cls-1{fill:#040404;}.cls-2{fill:#fffefd;}.cls-3{fill:#fefefe;}.cls-4{fill:#f90;}.cls-5{fill:red;}.cls-6{fill:#ff4800;}.cls-7{fill:#dfe7f2;}.cls-8{fill:#14216b;}.cls-9{fill:#33b58d;}.cls-10{fill:#7088be;}.cls-11{fill:#4ea38a;}</style></defs><g id="Layer_1-2"><g><g id="Y5ktKx.tif"><g><path class="cls-5" d="M127.91,9.1v-.11c.01-.05,.02-.1,.01-.16,.01-.22,.05-.43,.1-.64,.26-1.02,1-1.87,1.97-2.27,.28-.12,.57-.19,.87-.23,.09-.01,.19-.02,.28-.02h.3c.13,.01,.26,.02,.39,.05,.4,.07,.78,.2,1.13,.41,.13,.08,.26,.16,.38,.26,0,.01,0,.02-.02,.03-.09,.07-.17,.15-.26,.23-.06,.05-.11,.12-.16,.18-.05,.06-.1,.12-.15,.18-.1,.13-.19,.27-.27,.41-.09,.16-.17,.33-.23,.51-.05,.14-.09,.28-.12,.42-.02,.08-.03,.15-.04,.23,0,.06-.01,.13-.02,.19,0,.07,0,.15-.01,.22,0,.12,0,.23,.01,.35,0,.08,.02,.17,.03,.25,.02,.12,.05,.25,.08,.37,.05,.18,.11,.35,.19,.52,.09,.19,.19,.37,.31,.54,.08,.11,.16,.21,.25,.31,.05,.06,.11,.11,.16,.17,.06,.06,.13,.12,.2,.18,.01,0,.02,.02,.03,.03,0,0-.01,.01-.02,.02-.69,.52-1.47,.75-2.34,.68-.26-.02-.52-.07-.77-.16-.66-.22-1.21-.62-1.63-1.18-.4-.53-.62-1.14-.66-1.8,0-.05,0-.1-.01-.15Z"/><path class="cls-1" d="M137.69,14.12s-.02-.01-.03-.02c-.18-.05-.3-.21-.32-.39,0-.09,0-.19,.04-.27,.1-.21,.33-.29,.51-.24,.06,.02,.1,.04,.17,.11,0,0,0-.02,0-.03,0-.13,0-.26,0-.39,0-.03,0-.03,.03-.03,.05,0,.1,0,.14,0,.01,0,.02,0,.02,.02,0,0,0,.02,0,.03,0,.39,0,.78,0,1.16,0,0,0,.01,0,.02,0,.02,0,.02-.02,.02-.05,0-.1,0-.15,0-.02,0-.02,0-.02-.02,0-.03,0-.05,0-.07-.01,0-.01,0-.02,0-.05,.05-.11,.09-.18,.1,0,0,0,0,0,0h-.17Zm.39-.47s0-.06-.01-.09c-.03-.12-.13-.19-.25-.2-.12,0-.22,.07-.26,.19-.02,.05-.02,.1-.01,.15,.02,.17,.19,.29,.35,.23,.11-.04,.19-.15,.19-.28Z"/><path class="cls-1" d="M130.42,14.12s-.02-.01-.03-.01c-.18-.05-.31-.2-.32-.39,0-.1,0-.2,.05-.29,.1-.2,.32-.27,.5-.22,.05,.01,.1,.04,.14,.08l.03,.03s0-.06,0-.08c0-.02,0-.03,.02-.02,.05,0,.1,0,.15,0,.02,0,.03,0,.02,.03,0,.01,0,.03,0,.04,0,.26,0,.52,0,.78,0,0,0,.02,0,.03,0,.02,0,.02-.03,.02-.05,0-.1,0-.14,0-.02,0-.03-.01-.03-.03,0-.02,0-.04,0-.07-.02,0-.02,.01-.03,.02-.04,.04-.08,.06-.13,.08-.01,0-.03,0-.04,.02h-.18Zm-.16-.47s0,.06,0,.08c.03,.12,.13,.2,.25,.2,.12,0,.22-.06,.26-.17,.02-.06,.03-.12,.02-.18-.02-.13-.12-.22-.25-.22-.13,0-.24,.07-.27,.2,0,.03-.01,.06-.01,.09Z"/><path class="cls-1" d="M135.89,14.12s-.02-.01-.03-.01c-.18-.06-.29-.18-.32-.37-.02-.11,0-.22,.05-.32,.1-.19,.32-.26,.49-.21,.05,.01,.1,.04,.14,.08,0,0,.02,.02,.02,.03h0s0-.05,0-.08c0-.02,0-.03,.03-.03,.05,0,.1,0,.14,0,.02,0,.03,0,.02,.02,0,0,0,.02,0,.03,0,.27,0,.53,0,.8,0,0,0,.02,0,.03,0,.01,0,.02-.02,.02-.05,0-.1,0-.16,0-.02,0-.02,0-.02-.02,0-.02,0-.05,0-.08l-.03,.03s-.08,.06-.12,.08c-.01,0-.03,0-.03,.02h-.19Zm.39-.47s0-.06,0-.08c-.03-.12-.13-.2-.25-.2-.13,0-.23,.07-.26,.19-.01,.05-.02,.1,0,.15,.02,.12,.11,.22,.24,.23,.12,.02,.23-.05,.28-.17,.02-.04,.02-.08,.02-.12Z"/><path class="cls-1" d="M133.31,14.12s-.03-.01-.04-.02c-.08-.02-.15-.06-.2-.12-.04-.04-.07-.09-.09-.15-.04-.12-.04-.23,0-.35,.07-.22,.27-.31,.47-.29,.2,.02,.32,.16,.36,.35,.01,.06,0,.12,0,.18,0,.02,0,.02-.02,.02,0,0-.02,0-.03,0-.19,0-.37,0-.56,0h-.05c.02,.09,.06,.15,.14,.19,.08,.03,.16,.03,.24,.01,.05-.01,.09-.03,.13-.06,0,0,.02-.01,.03-.02,.03,.04,.05,.08,.08,.12,.01,.02,0,.02-.01,.03-.06,.04-.12,.07-.19,.09-.03,0-.05,.01-.08,.02h-.17Zm.31-.55c0-.12-.09-.21-.21-.21-.13,0-.23,.08-.25,.21h.46Z"/><path class="cls-1" d="M131.44,14.12s-.04-.01-.06-.02c-.07-.02-.13-.04-.19-.08-.03-.02-.03-.02-.01-.04,.03-.04,.05-.08,.08-.12,.02,0,.03,.01,.04,.02,.11,.06,.23,.08,.36,.06,.03,0,.05-.02,.08-.04,.05-.04,.04-.1-.01-.12-.04-.02-.09-.03-.13-.04-.05,0-.11-.01-.16-.03-.03,0-.05-.02-.08-.03-.2-.09-.17-.32-.06-.42,.04-.04,.09-.06,.15-.07,.15-.03,.29-.02,.43,.04,0,0,.02,0,.03,.01t.02,.07l-.04,.08s-.02,.03-.05,.02c-.06-.03-.13-.05-.19-.06-.04,0-.09,0-.13,0-.02,0-.05,.01-.06,.03-.05,.04-.04,.1,.02,.13,.03,.01,.07,.02,.11,.02,.05,0,.11,.01,.16,.03,.03,0,.06,.02,.09,.04,.18,.09,.17,.32,.04,.42-.06,.04-.12,.07-.19,.08,0,0-.02,0-.02,0h-.2Z"/><path class="cls-1" d="M132.48,14.12s0,0-.02-.01c-.12-.03-.17-.12-.19-.24,0-.05,0-.1,0-.16,0-.1,0-.2,0-.3,0-.03,0-.03-.03-.03-.04,0-.08,0-.12,0-.01,0-.02,0-.02-.02,0-.05,0-.09,0-.14,0-.02,0-.02,.02-.02,.04,0,.07,0,.11,0,.05,0,.05,0,.05-.05,0-.06,0-.13,0-.19,0-.03,0-.03,.03-.03,.05,0,.09,0,.14,0,.02,0,.02,0,.02,.02,0,.07,0,.14,0,.21,0,.03,0,.03,.04,.03,.08,0,.17,0,.25,0,.03,0,.03,0,.03,.03,0,.05,0,.1,0,.14-.02,0-.03,0-.04,0-.08,0-.16,0-.24,0-.03,0-.03,0-.03,.03,0,.13,0,.25,0,.38,0,.11,.05,.15,.15,.14,.03,0,.05,0,.07-.01,.02,0,.04-.02,.07-.03,.02,.05,.03,.1,.05,.15,0,.02,0,.02-.01,.03-.03,.02-.07,.03-.1,.04,0,0-.02,0-.02,.01h-.2Z"/><path class="cls-1" d="M135.01,14.12s0,0,0,0c-.02,0-.04-.01-.07-.02-.18-.07-.27-.2-.29-.38,0-.07,0-.14,.02-.21,.06-.18,.18-.27,.36-.3,.08-.01,.16,0,.23,0,.06,.01,.12,.04,.18,.09l-.09,.16s-.03-.02-.05-.03c-.07-.04-.15-.06-.23-.05-.12,.02-.21,.12-.22,.24,0,.06,0,.12,.02,.18,.04,.09,.11,.14,.21,.15,.09,0,.17-.01,.24-.06,.03-.02,.03-.02,.05,.01l.06,.1s.02,.03-.01,.05c-.05,.03-.1,.06-.16,.07,0,0-.02,0-.02,0h-.21Z"/><path class="cls-3" d="M131.41,5.67h0Z"/><path class="cls-4" d="M127.91,8.83s0,0,.01,0c0,.05,0,.11-.01,.16v-.16Z"/><path class="cls-3" d="M135.29,5.68h0Z"/><path class="cls-4" d="M127.92,9.25s-.01,0-.01,0v-.15s.02,.1,.01,.15Z"/><path class="cls-6" d="M133.34,6.39h0s.02,.02,.02,.02c.05,.04,.1,.08,.14,.12,.06,.05,.11,.11,.17,.16,.09,.09,.17,.18,.24,.28,.13,.16,.24,.34,.33,.52,.09,.18,.17,.37,.23,.57,.06,.2,.1,.4,.12,.6,0,.04,0,.07,0,.11,.01,.09,0,.18,.01,.27,0,.03,0,.06,0,.08,0,.05,0,.11,0,.16,0,.1-.02,.2-.04,.29-.02,.15-.06,.3-.11,.45-.04,.12-.08,.24-.14,.36-.08,.17-.17,.34-.27,.5-.09,.14-.19,.27-.3,.39-.1,.11-.21,.22-.33,.31-.03,.02-.06,.04-.08,.07h-.01s-.02-.02-.03-.03c-.07-.06-.14-.11-.2-.18-.05-.06-.11-.11-.16-.17-.09-.1-.17-.2-.25-.31-.12-.17-.23-.35-.31-.54-.08-.17-.14-.34-.19-.52-.03-.12-.06-.25-.08-.37-.01-.08-.02-.17-.03-.25,0-.12-.02-.23-.01-.35,0-.07,0-.15,.01-.22,0-.06,.01-.13,.02-.19,.01-.08,.02-.15,.04-.23,.03-.14,.07-.28,.12-.42,.06-.18,.14-.35,.23-.51,.08-.14,.17-.28,.27-.41,.05-.06,.1-.12,.15-.18,.05-.06,.1-.12,.16-.18,.08-.08,.17-.16,.26-.23,0,0,.02-.01,.02-.03Z"/><path class="cls-4" d="M133.35,11.68s.05-.05,.08-.07c.12-.1,.22-.2,.33-.31,.11-.12,.21-.25,.3-.39,.11-.16,.2-.33,.27-.5,.05-.12,.1-.24,.14-.36,.05-.15,.08-.3,.11-.45,.02-.1,.03-.19,.04-.29,0-.06,0-.11,0-.16,0-.03,.01-.06,0-.08-.01-.09,0-.18-.01-.27,0-.03,0-.07,0-.11-.02-.21-.06-.41-.12-.6-.06-.2-.14-.39-.23-.57-.09-.19-.21-.36-.33-.52-.08-.1-.16-.19-.24-.28-.05-.06-.11-.11-.17-.16-.04-.04-.09-.08-.14-.12,0,0-.02-.01-.02-.02,.28-.22,.59-.39,.93-.52,.24-.09,.48-.15,.74-.18,.09-.01,.19-.02,.28-.03h.25c.1,0,.19,.01,.29,.03,.26,.03,.51,.09,.76,.18,.75,.29,1.33,.78,1.74,1.47,.19,.33,.32,.68,.39,1.06,.03,.15,.05,.3,.05,.45,0,.1,0,.21,0,.31,0,.2-.03,.4-.07,.6-.16,.69-.49,1.27-1.01,1.75-.45,.41-.97,.68-1.56,.81-.25,.05-.5,.08-.76,.07-.74-.02-1.4-.25-1.99-.69-.01,0-.02-.01-.03-.03Z"/><path class="cls-1" d="M128.45,14.1v-.04c0-.27,0-.54,0-.82,0,0,0-.01,0-.02,0-.01,0-.02,.02-.02,.05,0,.1,0,.16,0,.02,0,.02,0,.02,.02,0,.02,0,.05,0,.08,.04-.03,.06-.06,.1-.08,.04-.02,.08-.03,.13-.04,.04,0,.08,0,.13,0,.04,0,.08,.03,.12,.05,.03,.03,.06,.06,.09,.09,.01,0,.01-.01,.02-.02,.09-.11,.2-.14,.34-.14,.02,0,.04,0,.06,0,.16,.04,.25,.15,.26,.32,0,.19,0,.37,0,.56,0,.02,0,.02-.02,.02-.05,0-.11,0-.16,0-.03,0-.03,0-.03-.03,0-.14,0-.28,0-.42,0-.04,0-.08,0-.13-.02-.09-.08-.14-.18-.15-.13,0-.22,.08-.22,.21,0,.05,0,.1,0,.14,0,.11,0,.23,0,.34,0,.03,0,.03-.03,.03-.05,0-.09,0-.14,0-.03,0-.03,0-.03-.03,0-.15,0-.31,0-.46,0-.04,0-.08-.02-.12-.02-.07-.07-.11-.14-.12-.04,0-.08,0-.12,0-.09,.03-.12,.09-.13,.17,0,.03,0,.05,0,.08,0,.14,0,.29,0,.43,0,.03,0,.03-.03,.03-.05,0-.1,0-.16,0Z"/><path class="cls-1" d="M134.21,13.31c.11-.12,.21-.15,.36-.11-.02,.06-.03,.11-.05,.16,0,.02-.01,.02-.03,.01-.03,0-.07-.01-.1-.01-.09,0-.15,.04-.17,.13-.01,.04-.01,.07-.01,.11,0,.15,0,.31,0,.46,0,.03,0,.03-.03,.04-.04,0-.09,0-.13,0-.03,0-.03,0-.03-.03,0-.11,0-.22,0-.33,0-.17,0-.33,0-.5,0-.04,0-.04,.04-.04,.04,0,.09,0,.13,0,.02,0,.02,0,.02,.02,0,.02,0,.05,0,.08Z"/><path class="cls-1" d="M136.92,13.31c.09-.13,.22-.13,.36-.11l-.05,.17s-.02,.01-.03,0c-.03,0-.06-.01-.1-.01-.09,0-.16,.05-.18,.14,0,.03-.01,.06,0,.1,0,.15,0,.3,0,.45,0,.06,0,.05-.05,.05-.04,0-.08,0-.12,0-.02,0-.03,0-.02-.02,0,0,0-.01,0-.02,0-.27,0-.54,0-.81,0,0,0-.02,0-.03,0-.01,0-.02,.02-.02,.05,0,.1,0,.16,0,.01,0,.02,0,.02,.02,0,.03,0,.05,0,.08h0Z"/></g></g><g><g><rect class="cls-7" width="30.11" height="19.79" rx="1.27" ry="1.27"/><rect class="cls-10" y="3.1" width="30.11" height="4.32"/><rect class="cls-2" x="10.61" y="10.27" width="17.04" height="1.49"/><rect class="cls-2" x="16.29" y="14.61" width="11.36" height="1.49"/><rect class="cls-2" x="2.29" y="13.54" width="3.33" height="3.33"/></g><g id="JHo1N7.tif"><g><path class="cls-9" d="M68.95,19.21c-.61-.26-1.24-.49-1.83-.78-2.82-1.38-4.63-3.59-5.37-6.65-.26-1.05-.41-2.12-.43-3.2-.03-1.54,0-3.08,0-4.62,0-.4,.27-.65,.7-.67,.47-.03,.93-.03,1.4-.08,1.89-.2,3.57-.91,4.98-2.2,.08-.07,.15-.14,.23-.21,.31-.28,.64-.27,.96,0,.41,.34,.81,.7,1.24,1,1.1,.77,2.33,1.2,3.66,1.37,.54,.07,1.09,.09,1.63,.12,.54,.03,.77,.25,.78,.79,.01,1.22,.04,2.44,.03,3.66-.01,1.46-.16,2.9-.54,4.32-.77,2.89-2.53,4.99-5.19,6.33-.63,.32-1.3,.56-1.95,.84h-.29Zm-6.34-14.61c0,.06,0,.12,0,.18-.01,.78-.02,1.56-.03,2.35,0,1.44,.08,2.87,.41,4.28,.4,1.7,1.19,3.18,2.49,4.37,1.03,.94,2.24,1.58,3.54,2.06,.06,.02,.15,.01,.2-.01,.67-.31,1.36-.59,2-.95,1.42-.81,2.53-1.95,3.27-3.42,.72-1.43,1.01-2.97,1.08-4.55,.06-1.38,.02-2.76,.03-4.15,0-.05,0-.11-.01-.16-.47-.05-.92-.09-1.38-.16-1.84-.25-3.48-.97-4.9-2.16-.15-.12-.23-.14-.39,0-1.31,1.11-2.82,1.81-4.51,2.1-.58,.1-1.18,.15-1.79,.23Z"/><path class="cls-11" d="M68.16,10.81c.32-.32,.59-.6,.87-.87,.76-.76,1.52-1.52,2.28-2.28,.38-.38,.96-.26,1.11,.22,.07,.21,.04,.41-.09,.59-.05,.06-.1,.12-.16,.17-1.14,1.14-2.27,2.27-3.41,3.41-.4,.4-.73,.4-1.13,0-.56-.56-1.12-1.12-1.68-1.68-.19-.19-.25-.41-.18-.67,.07-.25,.25-.4,.5-.45,.25-.05,.45,.04,.62,.22,.38,.39,.77,.77,1.16,1.16,.05,.05,.07,.11,.11,.18Z"/></g></g><rect class="cls-9" x="37.44" y="9.47" width="19.92" height=".8"/><rect class="cls-9" x="79.69" y="9.47" width="19.92" height=".8"/></g><g id="MFc5r9.tif"><g><path class="cls-8" d="M124.86,12.6c-.42,0-.85,0-1.27,0-.02,0-.03-.01-.03-.03-.05-.25-.1-.5-.15-.75,0-.03-.01-.03-.04-.03-.58,0-1.15,0-1.73,0-.03,0-.04,.01-.04,.03-.09,.25-.18,.5-.27,.75,0,.02-.01,.03-.04,.03-.47,0-.95,0-1.42,0h-.02s0-.02,.01-.04c.69-1.64,1.37-3.27,2.06-4.91,.07-.16,.16-.29,.31-.37,.11-.06,.23-.08,.35-.08,.37,0,.75,0,1.12,0,.03,0,.03,.01,.03,.03,.05,.22,.09,.44,.14,.65,.11,.52,.22,1.04,.33,1.56,.11,.53,.22,1.06,.33,1.6,.11,.51,.21,1.01,.32,1.52h0v.03Zm-2.11-3.93c-.24,.68-.5,1.35-.74,2.02h.02c.37,0,.75,0,1.12,0,.02,0,.02,0,.02-.03-.12-.58-.24-1.17-.36-1.75-.02-.08-.03-.16-.05-.25Z"/><path class="cls-8" d="M119.09,7.11s.06,0,.09,.01c.32,.03,.63,.09,.93,.2,.03,0,.03,.02,.03,.05-.06,.36-.12,.73-.18,1.09v.03s-.05-.02-.08-.03c-.37-.18-.77-.25-1.18-.23-.16,0-.32,.03-.46,.11-.08,.04-.14,.09-.2,.16-.09,.13-.09,.27,0,.4,.06,.07,.13,.13,.2,.18,.18,.12,.37,.21,.57,.31,.25,.13,.5,.27,.7,.47,.21,.2,.35,.44,.4,.73,.04,.24,.02,.48-.05,.71-.13,.45-.41,.78-.81,1.01-.28,.16-.58,.26-.89,.31-.25,.04-.5,.06-.75,.05-.45-.02-.89-.08-1.32-.23-.04-.01-.08-.03-.13-.05-.02,0-.02-.01-.02-.03,.06-.36,.12-.72,.18-1.09l.02-.1s.03,0,.04,.01c.22,.11,.45,.2,.68,.27,.3,.08,.61,.1,.92,.08,.16-.01,.31-.05,.45-.14,.09-.05,.17-.12,.21-.22,.06-.16,.04-.3-.08-.43-.1-.11-.23-.19-.35-.26-.15-.08-.3-.15-.45-.24-.24-.13-.47-.28-.66-.48-.18-.19-.32-.41-.36-.68-.04-.23-.01-.47,.06-.69,.12-.37,.36-.65,.67-.87,.3-.2,.63-.32,.98-.38,.13-.02,.26-.04,.4-.05,0,0,.01,0,.02,0h.4Z"/><path class="cls-8" d="M110.99,10.11c.04,.17,.07,.35,.11,.52,.02,.08,.03,.16,.05,.25,.01,0,.01-.02,.02-.03,.45-1.2,.89-2.4,1.34-3.6,0-.02,.02-.03,.05-.03,.47,0,.93,0,1.4,0t.03,.04c-.65,1.59-1.3,3.18-1.95,4.78-.07,.18-.15,.36-.22,.54,0,.02-.02,.03-.05,.03-.47,0-.94,0-1.41,0-.03,0-.04,0-.05-.04-.23-.87-.46-1.75-.69-2.62-.18-.66-.35-1.33-.53-1.99,0-.01,0-.02,0-.04,.02,0,.03,.01,.04,.02,.29,.17,.56,.38,.81,.61,.37,.34,.66,.74,.89,1.19,.06,.12,.11,.25,.16,.37Z"/><path class="cls-8" d="M113.69,12.6c.03-.2,.06-.4,.1-.6,.05-.29,.09-.57,.14-.86,.05-.3,.1-.6,.15-.9,.05-.3,.1-.59,.14-.89,.05-.3,.1-.6,.15-.9,.05-.28,.09-.57,.14-.85,.02-.13,.04-.25,.06-.38,0-.02,.02-.02,.03-.02,.15,0,.31,0,.46,0,.29,0,.58,0,.87,0,.03,0,.04,0,.03,.04-.08,.46-.15,.91-.22,1.37-.08,.48-.15,.96-.23,1.44-.09,.54-.18,1.08-.26,1.62-.05,.3-.1,.6-.15,.91,0,.02-.01,.03-.03,.03-.45,0-.9,0-1.35,0h-.02Z"/><path class="cls-8" d="M110.99,10.11c-.05-.12-.1-.25-.16-.37-.23-.45-.52-.85-.89-1.19-.25-.23-.52-.44-.81-.61-.01,0-.02-.02-.04-.02h0s0,0,0,0c-.16-.1-.32-.18-.49-.25-.31-.14-.63-.25-.95-.33-.02,0-.03-.01-.02-.04,.02-.08,.02-.08,.1-.08,.71,0,1.43,0,2.14,0,.09,0,.17,0,.25,.03,.23,.06,.36,.2,.41,.43,.1,.51,.2,1.03,.3,1.54,.06,.29,.11,.58,.17,.87,0,.01,0,.02,0,.04Z"/><path class="cls-8" d="M109.08,7.91s0,0,0,0c0,0,0,0,0,0Z"/><path class="cls-8" d="M122.75,8.67c.02,.09,.04,.17,.05,.25,.12,.58,.24,1.17,.36,1.75,0,.02,0,.03-.02,.03"/></g></g></g></g></svg>