<?xml version="1.0" encoding="UTF-8"?><svg id="Layer_2" xmlns="http://www.w3.org/2000/svg" viewBox="0 0 133.06 15.98"><defs><style>.cls-1{fill:#040404;}.cls-2{fill:#044f8b;}.cls-3{fill:#fff;}.cls-4{fill:#fffefd;}.cls-5{fill:#f37921;}.cls-6{fill:#f90;}.cls-7{fill:red;}.cls-8{fill:#ff4800;}.cls-9{fill:#028c45;}.cls-10{fill:#dfe7f2;}.cls-11{fill:#14216b;}.cls-12{fill:#1c3381;}.cls-13{fill:#1c3281;}.cls-14{fill:#33b58d;}.cls-15{fill:#7088be;}.cls-16{fill:#4ea38a;}</style></defs><g id="Layer_2-2"><g><g id="Layer_2-2"><g><g id="MFc5r9.tif"><g><path class="cls-11" d="M94.14,9.79h-1.1s-.03,0-.03-.03l-.13-.65s0-.03-.03-.03h-1.5s-.03,0-.03,.03l-.23,.65s0,.03-.03,.03h-1.25s0-.02,0-.03c.6-1.43,1.19-2.84,1.79-4.27,.06-.14,.14-.25,.27-.32,.1-.05,.2-.07,.3-.07h.97s.03,0,.03,.03c.04,.19,.08,.38,.12,.57l.29,1.36c.1,.46,.19,.92,.29,1.39,.1,.44,.18,.88,.28,1.32h0v.03h0Zm-1.84-3.4c-.21,.59-.43,1.17-.64,1.76h.99s.02,0,.02-.03c-.1-.5-.21-1.02-.31-1.52-.02-.07-.03-.14-.04-.22h0Z"/><path class="cls-11" d="M89.12,5.02s.05,0,.08,0c.28,.03,.55,.08,.81,.17,.03,0,.03,.02,.03,.04-.05,.31-.1,.63-.16,.95v.03s-.04-.02-.07-.03c-.32-.16-.67-.22-1.03-.2-.14,0-.28,.03-.4,.1-.07,.03-.12,.08-.17,.14-.08,.11-.08,.23,0,.35,.05,.06,.11,.11,.17,.16,.16,.1,.32,.18,.5,.27,.22,.11,.43,.23,.61,.41,.18,.17,.3,.38,.35,.63,.03,.21,.02,.42-.04,.62-.11,.39-.36,.68-.7,.88-.24,.14-.5,.23-.77,.27-.22,.03-.43,.05-.65,.04-.39-.02-.77-.07-1.15-.2-.03,0-.07-.03-.11-.04-.02,0-.02,0-.02-.03,.05-.31,.1-.63,.16-.95l.02-.09s.03,0,.03,0c.19,.1,.39,.17,.59,.23,.26,.07,.53,.09,.8,.07,.14,0,.27-.04,.39-.12,.08-.04,.15-.1,.18-.19,.05-.14,.03-.26-.07-.37-.09-.1-.2-.17-.3-.23-.13-.07-.26-.13-.39-.21-.21-.11-.41-.24-.57-.42-.16-.17-.28-.36-.31-.59-.03-.2,0-.41,.05-.6,.1-.32,.31-.57,.58-.76,.26-.17,.55-.28,.85-.33,.11-.02,.23-.03,.35-.04h.37l.02,.02h0Z"/><path class="cls-11" d="M82.07,7.63c.03,.15,.06,.3,.1,.45,.02,.07,.03,.14,.04,.22,0,0,0-.02,.02-.03,.39-1.04,.77-2.09,1.17-3.13,0-.02,.02-.03,.04-.03h1.22c.27,0,.28,0,.03,.03-.57,1.38-1.13,2.77-1.7,4.16-.06,.16-.13,.31-.19,.47,0,.02-.02,.03-.04,.03h-1.23s-.03,0-.04-.03c-.2-.76-.4-1.52-.6-2.28-.16-.57-.3-1.16-.46-1.73v-.03s.03,0,.03,.02c.25,.15,.49,.33,.7,.53,.32,.3,.57,.64,.77,1.04,.05,.1,.1,.22,.14,.32Z"/><path class="cls-11" d="M84.42,9.79c.03-.17,.05-.35,.09-.52,.04-.25,.08-.5,.12-.75l.13-.78c.04-.26,.09-.51,.12-.77l.13-.78c.04-.24,.08-.5,.12-.74,.02-.11,.03-.22,.05-.33,0-.02,.02-.02,.03-.02h1.16s.03,0,.03,.03c-.07,.4-.13,.79-.19,1.19-.07,.42-.13,.84-.2,1.25-.08,.47-.16,.94-.23,1.41-.04,.26-.09,.52-.13,.79,0,.02,0,.03-.03,.03h-1.2Z"/><path class="cls-11" d="M82.07,7.63c-.04-.1-.09-.22-.14-.32-.2-.39-.45-.74-.77-1.04-.22-.2-.45-.38-.7-.53,0,0-.02-.02-.03-.02h0c-.14-.09-.28-.16-.43-.22-.27-.12-.55-.22-.83-.29-.02,0-.03,0-.02-.03,.01-.05,.04-.07,.09-.07h1.86c.08,0,.15,0,.22,.03,.2,.05,.31,.17,.36,.37,.09,.44,.17,.9,.26,1.34,.05,.25,.1,.5,.15,.76v.02h0Z"/><path class="cls-11" d="M92.3,6.37c.02,.08,.03,.15,.04,.22,.1,.5,.21,1.02,.31,1.52,0,.02,0,.03-.02,.03"/></g></g><g id="Y5ktKx.tif"><g><path class="cls-7" d="M95.92,6.75v-.1s.02-.09,0-.14c0-.19,.04-.37,.09-.56,.23-.89,.87-1.63,1.71-1.97,.24-.1,.5-.17,.76-.2,.08,0,.17-.02,.24-.02h.26c.11,0,.23,.02,.34,.04,.35,.06,.68,.17,.98,.36,.11,.07,.23,.14,.33,.23,0,0,0,.02-.02,.03-.08,.06-.15,.13-.23,.2-.05,.04-.1,.1-.14,.16l-.13,.16c-.09,.11-.17,.23-.23,.36-.08,.14-.15,.29-.2,.44-.04,.12-.08,.24-.1,.37-.02,.07-.03,.13-.03,.2,0,.05,0,.11-.02,.17v.5c0,.07,.02,.15,.03,.22,.02,.1,.04,.22,.07,.32,.04,.16,.1,.3,.17,.45,.08,.17,.17,.32,.27,.47,.07,.1,.14,.18,.22,.27,.04,.05,.1,.1,.14,.15,.05,.05,.11,.1,.17,.16l.03,.03-.02,.02c-.6,.45-1.28,.65-2.04,.59-.23-.02-.45-.06-.67-.14-.57-.19-1.05-.54-1.42-1.03-.35-.46-.54-.99-.57-1.57,0-.04,0-.09,0-.13l.02-.02Z"/><path class="cls-1" d="M104.43,11.11s-.02,0-.03-.02c-.16-.04-.26-.18-.28-.34,0-.08,0-.17,.03-.23,.09-.18,.29-.25,.44-.21,.05,.02,.09,.03,.15,.1v-.37s0-.03,.03-.03h.12s.02,0,.02,.02v1.05s0,.02-.02,.02h-.13s-.02,0-.02-.02v-.06h-.02s-.1,.08-.16,.09h-.15Zm.34-.41v-.08c-.03-.1-.11-.17-.22-.17-.1,0-.19,.06-.23,.17-.02,.04-.02,.09,0,.13,.02,.15,.17,.25,.3,.2,.1-.03,.17-.13,.17-.24h-.03Z"/><path class="cls-1" d="M98.1,11.11s-.02,0-.03,0c-.16-.04-.27-.17-.28-.34,0-.09,0-.17,.04-.25,.09-.17,.28-.23,.43-.19,.04,0,.09,.03,.12,.07l.03,.03v-.07s0-.03,.02-.02h.13s.03,0,.02,.03v.74s0,.02-.03,.02h-.12s-.03,0-.03-.03v-.06s-.02,0-.03,.02c-.03,.03-.07,.05-.11,.07,0,0-.03,0-.03,.02h-.16l.02-.02Zm-.14-.41v.07c.03,.1,.11,.17,.22,.17s.19-.05,.23-.15c.02-.05,.03-.1,.02-.16-.02-.11-.1-.19-.22-.19s-.21,.06-.23,.17v.08h0Z"/><path class="cls-1" d="M102.86,11.11s-.02,0-.03,0c-.16-.05-.25-.16-.28-.32-.02-.1,0-.19,.04-.28,.09-.17,.28-.23,.43-.18,.04,0,.09,.03,.12,.07,0,0,.02,.02,.02,.03h0v-.07s0-.03,.03-.03h.12s.03,0,.02,.02v.75s0,.02-.02,.02h-.14s-.02,0-.02-.02v-.07l-.03,.03s-.07,.05-.1,.07c0,0-.03,0-.03,.02h-.17l.03-.02Zm.34-.41v-.07c-.03-.1-.11-.17-.22-.17-.11,0-.2,.06-.23,.17,0,.04-.02,.09,0,.13,.02,.1,.1,.19,.21,.2,.1,.02,.2-.04,.24-.15,.02-.03,.02-.07,.02-.1h-.03Z"/><path class="cls-1" d="M100.62,11.11s-.03,0-.03-.02c-.07-.02-.13-.05-.17-.1-.03-.03-.06-.08-.08-.13-.03-.1-.03-.2,0-.3,.06-.19,.23-.27,.41-.25s.28,.14,.31,.3v.16s0,.04-.02,.02h-.56c.02,.08,.05,.13,.12,.17,.07,.03,.14,.03,.21,0,.04,0,.08-.03,.11-.05,0,0,.02,0,.03-.02,.03,.03,.04,.07,.07,.1v.03c-.05,.03-.1,.06-.17,.08-.03,0-.04,0-.07,.02h-.17Zm.27-.48c0-.1-.08-.18-.18-.18-.11,0-.2,.07-.22,.18h.4Z"/><path class="cls-1" d="M98.99,11.11s-.03,0-.05-.02c-.06-.02-.11-.03-.17-.07-.03-.02-.03-.03,0-.03,.05,0,.04-.07,.07-.1,.02,0,.03,0,.03,.02,.1,.05,.2,.07,.31,.05,.03,0,.04-.02,.07-.03,.04-.03,.03-.09,0-.1-.03-.02-.08-.03-.11-.03-.04,0-.1,0-.14-.03-.03,0-.04-.02-.07-.03-.17-.08-.15-.28-.05-.37,.03-.03,.08-.05,.13-.06,.13-.03,.25-.02,.37,.03,0,0,.02,0,.03,0,0,0,0,.03,.02,.06l-.03,.07s-.02,.03-.04,.02c-.05-.03-.11-.04-.17-.05h-.11s-.04,0-.05,.03c-.04,.03-.03,.09,.02,.11,.03,0,.06,.02,.1,.02,.04,0,.1,0,.14,.03,.03,0,.05,.02,.08,.03,.16,.08,.15,.28,.03,.37-.05,.03-.1,.06-.17,.07h-.19l-.03,.02h-.02Z"/><path class="cls-1" d="M99.89,11.11h-.02c-.1-.03-.15-.11-.17-.22v-.4s0-.03-.03-.03h-.1s-.02,0-.02-.02v-.12s0-.02,.02-.02h.1s.04-.01,.04-.04v-.17s0-.03,.03-.03h.12s.02,0,.02,.02v.18s0,.03,.03,.03h.22s.03,0,.03,.03v.12h-.24s-.03,0-.03,.03v.33c0,.1,.04,.13,.13,.12,.03,0,.04,0,.06,0,.02,0,.03-.02,.06-.03,.02,.04,.03,.09,.04,.13,.01,.03,.01,.04,0,.03-.02-.02-.06,.03-.09,.03,0,0-.02,0-.02,0h-.17v.02h-.02Z"/><path class="cls-1" d="M102.09,11.11h0s-.03,0-.06-.02c-.16-.06-.23-.17-.25-.33,0-.06,0-.12,.02-.18,.05-.16,.16-.23,.31-.26,.07,0,.14,0,.2,0,.05,0,.1,.03,.16,.08l-.08,.14s-.03-.02-.04-.03c-.06-.03-.13-.05-.2-.04-.1,.02-.18,.1-.19,.21,0,.05,0,.1,.02,.16,.03,.08,.1,.12,.18,.13,.08,0,.15,0,.21-.05,.04-.03,.06-.03,.04,0l.05,.09s.02,.03,0,.04c-.04,.03-.09,.05-.14,.06h-.23Z"/><path class="cls-6" d="M95.92,6.51h0s0,.1,0,.14v-.14Z"/><path class="cls-6" d="M95.93,6.88h0v-.13s.02,.09,0,.13Z"/><path class="cls-8" d="M100.64,4.39h0l.02,.02s.09,.07,.12,.1c.05,.04,.1,.1,.15,.14,.08,.08,.15,.16,.21,.24,.11,.14,.21,.3,.29,.45s.15,.32,.2,.5,.09,.35,.1,.52v.54c0,.09-.02,.17-.03,.25-.02,.13-.05,.26-.1,.39-.03,.1-.07,.21-.12,.31-.07,.15-.15,.3-.23,.43-.08,.12-.17,.23-.26,.34-.09,.1-.18,.19-.29,.27-.03,.02-.05,.03-.07,.06h0l-.03-.03c-.06-.05-.12-.1-.17-.16-.04-.05-.1-.1-.14-.15-.08-.09-.15-.17-.22-.27-.1-.15-.2-.3-.27-.47-.07-.15-.12-.3-.17-.45-.03-.1-.05-.22-.07-.32,0-.07-.02-.15-.03-.22,0-.1-.02-.2,0-.3v-.19c0-.05,0-.11,.02-.17,0-.07,.02-.13,.03-.2,.03-.12,.06-.24,.1-.37,.05-.16,.12-.3,.2-.44,.07-.12,.15-.24,.23-.36l.13-.16c.04-.05,.09-.1,.14-.16,.07-.07,.15-.14,.23-.2,0,0,.02,0,.02-.03v.05Z"/><path class="cls-6" d="M100.65,8.99s.04-.04,.07-.06c.1-.09,.19-.17,.29-.27,.1-.1,.18-.22,.26-.34,.1-.14,.17-.29,.23-.43,.04-.1,.09-.21,.12-.31,.04-.13,.07-.26,.1-.39,.02-.09,.03-.17,.03-.25v-.54c-.02-.18-.05-.36-.1-.52-.05-.17-.12-.34-.2-.5-.08-.17-.18-.31-.29-.45-.07-.09-.14-.17-.21-.24-.04-.05-.1-.1-.15-.14-.03-.03-.08-.07-.12-.1,0,0-.02,0-.02-.02,.24-.19,.51-.34,.81-.45,.21-.08,.42-.13,.64-.16,.08,0,.17-.02,.24-.03h.22c.09,0,.17,0,.25,.03,.23,.03,.44,.08,.66,.16,.65,.25,1.16,.68,1.51,1.28,.17,.29,.28,.59,.34,.92,.03,.13,.04,.26,.04,.39v.27c0,.17-.03,.35-.06,.52-.14,.6-.43,1.1-.88,1.52-.39,.36-.84,.59-1.36,.7-.22,.04-.43,.07-.66,.06-.64-.02-1.22-.22-1.73-.6,0,0-.02,0-.03-.03l-.02-.02h0Z"/><path class="cls-1" d="M96.39,11.1v-.77s0-.02,.02-.02h.14s.02,0,.02,.02v.07s.05-.05,.09-.07c.03-.02,.07-.03,.11-.03h.11s.07,.03,.1,.04l.08,.08s0,0,.02-.02c.08-.1,.17-.12,.3-.12h.05c.14,.03,.22,.13,.23,.28v.49s0,.02-.02,.02h-.14s-.03,0-.03-.03v-.48c-.02-.08-.07-.12-.16-.13-.11,0-.19,.07-.19,.18v.42s0,.03-.03,.03h-.12s-.03,0-.03-.03v-.4s0-.07-.02-.1c-.02-.06-.06-.1-.12-.1h-.1c-.08,.03-.1,.08-.11,.15v.44s0,.03-.03,.03h-.14l-.03,.06h0Z"/><path class="cls-1" d="M101.4,10.41c.1-.1,.18-.13,.31-.1-.02,.05-.03,.1-.04,.14t-.03,0s-.06,0-.09,0c-.08,0-.13,.03-.15,.11v.5s0,.03-.03,.03h-.11s-.03,0-.03-.03v-.72s0-.03,.03-.03h.11s.02,0,.02,.02v.07h0Z"/><path class="cls-1" d="M103.76,10.41c.08-.11,.19-.11,.31-.1l-.04,.15s-.02,0-.03,0c-.03,0-.05,0-.09,0-.08,0-.14,.04-.16,.12v.48c0,.05,0,.04-.04,.04h-.1s-.03,0-.02-.02v-.75s0-.02,.02-.02h.14s.02,0,.02,.02v.07h0Z"/></g></g><g><rect class="cls-10" width="24.31" height="15.98" rx="1.03" ry="1.03"/><rect class="cls-15" y="2.5" width="24.31" height="3.48"/><rect class="cls-4" x="8.57" y="8.29" width="13.76" height="1.2"/><rect class="cls-4" x="13.15" y="11.8" width="9.17" height="1.2"/><rect class="cls-4" x="1.85" y="10.93" width="2.69" height="2.69"/></g><g id="JHo1N7.tif"><g><path class="cls-14" d="M51.56,15.14c-.47-.2-.95-.38-1.41-.6-2.17-1.06-3.56-2.76-4.13-5.11-.2-.81-.32-1.63-.33-2.46-.02-1.18,0-2.37,0-3.55,0-.31,.21-.5,.54-.52,.36-.02,.72-.02,1.08-.06,1.45-.15,2.75-.7,3.83-1.69,.06-.05,.12-.11,.18-.16,.24-.22,.49-.21,.74,0,.32,.26,.62,.54,.95,.77,.85,.59,1.79,.92,2.81,1.05,.42,.05,.84,.07,1.25,.09s.59,.19,.6,.61c0,.94,.03,1.88,.02,2.81,0,1.12-.12,2.23-.42,3.32-.59,2.22-1.95,3.84-3.99,4.87-.48,.25-1,.43-1.5,.65h-.22v-.02h0Zm-4.88-11.24v.14c0,.6-.02,1.2-.02,1.81,0,1.11,.06,2.21,.32,3.29,.31,1.31,.92,2.45,1.91,3.36,.79,.72,1.72,1.22,2.72,1.58,.05,.02,.12,0,.15,0,.52-.24,1.05-.45,1.54-.73,1.09-.62,1.95-1.5,2.51-2.63,.55-1.1,.78-2.28,.83-3.5,.05-1.06,.02-2.12,.02-3.19,0-.04,0-.08,0-.12-.36-.04-.71-.07-1.06-.12-1.42-.19-2.68-.75-3.77-1.66-.12-.09-.18-.11-.3,0-1.01,.85-2.17,1.39-3.47,1.62-.45,.08-.91,.12-1.38,.18h0Z"/><path class="cls-16" d="M50.95,8.68c.25-.25,.45-.46,.67-.67l1.75-1.75c.29-.29,.74-.2,.85,.17,.05,.16,.03,.32-.07,.45-.04,.05-.08,.09-.12,.13l-2.62,2.62c-.31,.31-.56,.31-.87,0l-1.29-1.29c-.15-.15-.19-.32-.14-.52,.05-.19,.19-.31,.38-.35s.35,.03,.48,.17c.29,.3,.59,.59,.89,.89,.04,.04,.05,.08,.08,.14Z"/></g></g><rect class="cls-14" x="28.32" y="7.65" width="14.32" height=".62"/><rect class="cls-14" x="59.81" y="7.65" width="16.32" height=".62"/><g id="Layer_1-2"><g><path class="cls-2" d="M106.47,6.76c.03-.1,.05-.21,.08-.32,.28-1.44,1.35-2.46,2.8-2.62,.84-.1,1.69-.12,2.51,.16,1.46,.5,2.39,1.84,2.27,3.38-.1,1.27-.83,2.15-1.94,2.69-.35,.17-.76,.23-1.13,.33-.04,0-.09,.03-.13,.04h-1.39s-.09-.03-.12-.04c-1.42-.17-2.56-1.22-2.85-2.62-.03-.1-.05-.22-.08-.32v-.68h-.02Zm3.37-2.71c-1.68,0-3.05,1.35-3.05,3.01s1.34,3.09,3.04,3.08c1.73,0,3.04-1.37,3.05-3.04,.02-1.67-1.37-3.05-3.04-3.05h0Z"/><path class="cls-3" d="M109.84,4.05c1.67,0,3.05,1.38,3.04,3.05-.02,1.67-1.32,3.03-3.05,3.04-1.69,0-3.04-1.38-3.04-3.08s1.37-3.01,3.05-3.01h0Zm-.72,1.29c-.63,.12-1.21,.96-1.21,1.71,0,.83,.56,1.66,1.21,1.79v-3.51Zm1.42,0v3.51c.68-.18,1.23-1.02,1.21-1.81-.02-.77-.59-1.57-1.21-1.7Z"/><path class="cls-2" d="M109.12,5.34v3.51c-.66-.14-1.21-.97-1.21-1.79,0-.77,.58-1.59,1.21-1.71h0Z"/><path class="cls-2" d="M110.54,5.34c.61,.12,1.18,.94,1.21,1.7,.02,.79-.53,1.63-1.21,1.81v-3.51Z"/></g></g></g></g><g><path class="cls-13" d="M118.2,5.08c.09,.03,.18,.02,.28,.04,.13,.03,.26,.06,.38,.12,.16,.09,.25,.23,.26,.42,.04,.56-.27,1.08-.77,1.32l-.05,.02s.07,.03,.1,.04c.15,.07,.23,.18,.25,.34,.02,.19-.03,.37-.08,.54-.03,.14-.07,.28-.1,.42-.01,.06-.03,.12,.03,.18,.03,.03-.03,.13-.08,.13-.32,0-.65,0-.97,0-.05,0-.06-.01-.05-.06,0-.21,.07-.42,.13-.62,.03-.1,.06-.2,.05-.31,0-.13-.06-.2-.19-.23-.12-.03-.23-.01-.35-.02-.07,0-.14,0-.21,0-.05,0-.06,.01-.07,.06-.1,.37-.21,.74-.31,1.1-.02,.06-.04,.08-.1,.07-.33,0-.66,0-.98,0h0s.02-.05,.02-.08c.25-.9,.5-1.8,.75-2.7,.07-.27,.15-.53,.23-.8,.53,0,1.05,0,1.58,0,.03,0,.06,.01,.08-.01h.17Zm-.86,1.54h0c.09,0,.18,0,.26,0,.25-.01,.38-.13,.43-.37,.04-.18-.02-.26-.2-.28-.2-.03-.41,0-.62-.01-.03,0-.04,.02-.05,.04-.05,.19-.1,.38-.16,.57-.01,.04,0,.06,.04,.06,.09,0,.19,0,.28,0Z"/><path class="cls-13" d="M124.34,5.08c.1,.03,.2,.02,.3,.04,.2,.04,.39,.09,.53,.24,.16,.18,.22,.39,.2,.62-.04,.39-.16,.74-.42,1.04-.27,.33-.64,.49-1.06,.53-.26,.02-.52,0-.78,.01-.05,0-.07,.02-.09,.07-.09,.32-.18,.64-.27,.96-.01,.05-.03,.07-.08,.07-.33,0-.66,0-1,0,.06-.22,.12-.43,.18-.64,.27-.96,.53-1.92,.8-2.89,0-.02,0-.03,.02-.04,.46,0,.92,0,1.37,0,.03,0,.06,.01,.08-.01h.22Zm-.77,1.62h0c.09,0,.17,0,.26-.01,.28-.02,.43-.15,.47-.42,.03-.18-.03-.26-.21-.29-.19-.03-.38-.01-.57-.02-.03,0-.04,.02-.05,.04-.06,.21-.12,.43-.18,.64-.01,.04,0,.05,.04,.05,.08,0,.16,0,.24,0Z"/><path class="cls-12" d="M127.65,9.74s-.11-.01-.16-.02c-.04,0-.06-.01-.04-.06,.06-.23,.13-.45,.19-.68,0-.04,.02-.05,.07-.05,.09,0,.17,0,.26,0,.21-.01,.29-.1,.32-.3,.01-.12,0-.23,0-.35-.04-.71-.09-1.42-.13-2.13,0-.13,0-.13,.12-.13,.27,0,.53,0,.8,0,.05,0,.06,.01,.06,.06,0,.48-.01,.96-.01,1.44,0,.02,0,.05,0,.1,.02-.04,.03-.06,.04-.07,.26-.49,.53-.98,.79-1.47,.02-.04,.05-.06,.09-.06,.28,0,.56,0,.84,0,0,.02,0,.03,0,.03-.56,.97-1.12,1.95-1.69,2.91-.11,.18-.22,.37-.38,.52-.17,.15-.37,.22-.59,.24-.02,0-.05-.01-.06,.01h-.48Z"/><path class="cls-12" d="M116.37,5.1h1.66s-.05,0-.08,0c-.53,0-1.05,0-1.58,0Z"/><path class="cls-12" d="M124.11,5.08s-.05,.01-.08,.01c-.46,0-.92,0-1.37,0h1.45Z"/><path class="cls-12" d="M126.46,8.42c-.18,.13-.35,.23-.55,.29-.21,.06-.42,.08-.64,.05-.33-.05-.5-.26-.48-.59,.02-.27,.11-.52,.31-.72,.14-.14,.33-.21,.52-.27,.26-.08,.54-.1,.81-.14,.11-.01,.21-.04,.31-.08,.07-.04,.13-.08,.16-.17,.03-.1,0-.17-.1-.19-.19-.05-.47-.05-.58,.21,0,.02-.02,.03-.04,.03-.3,0-.61,0-.92,0,.08-.28,.24-.5,.49-.65,.23-.14,.48-.21,.75-.23,.33-.03,.66-.03,.98,.08,.2,.06,.35,.18,.4,.39,.03,.13,0,.26-.03,.39-.14,.51-.28,1.03-.42,1.54-.02,.08-.03,.16,.02,.24,.03,.04,0,.09-.05,.09-.3,0-.59,0-.89,0-.04,0-.05-.01-.05-.05,0-.06,0-.12,.01-.2Zm.22-.92s-.08,.03-.12,.04c-.16,.06-.33,.08-.49,.15-.07,.03-.14,.07-.19,.13-.1,.13-.05,.28,.09,.31,.36,.07,.73-.26,.71-.63Z"/><path class="cls-12" d="M120.48,8.31c-.06,.05-.11,.1-.17,.14-.25,.2-.54,.3-.87,.29-.32-.02-.54-.2-.58-.49-.02-.16,0-.33,.04-.49,.14-.57,.31-1.13,.46-1.69,.01-.05,.04-.05,.07-.05,.28,0,.57,0,.85,0,.06,0,.06,.01,.05,.06-.13,.45-.25,.91-.38,1.36-.02,.09-.04,.18-.04,.27,0,.12,.06,.19,.19,.2,.18,.02,.31-.05,.42-.2,.08-.11,.12-.24,.16-.37,.12-.42,.23-.84,.35-1.27,.01-.05,.03-.06,.08-.06,.28,0,.56,0,.85,0,.06,0,.06,.02,.05,.07-.23,.84-.47,1.68-.7,2.52-.01,.04-.03,.06-.07,.06-.26,0-.52,0-.78,0-.05,0-.06-.01-.05-.06,.03-.1,.06-.2,.08-.3h-.01Z"/><path class="cls-5" d="M131.21,8.53s-.05,.03-.07,.05c-.27,.25-.53,.5-.8,.75-.01,.01-.03,.03-.06,.05l1.1-3.95,.45,.87s.02,.05,.03,.08c.16,.32,.32,.65,.49,.97,.02,.05,.02,.07-.02,.11-.36,.33-.71,.67-1.06,1-.02,.02-.05,.04-.06,.07Z"/><path class="cls-9" d="M131.21,8.53s.04-.05,.06-.07c.35-.33,.71-.67,1.06-1,.04-.04,.04-.06,.02-.11-.16-.32-.33-.64-.49-.97-.01-.02-.02-.05-.03-.08,.07-.26,.15-.52,.22-.78,0-.02,.01-.05,.02-.07,.03,0,.03,.03,.04,.05,.31,.62,.62,1.24,.94,1.85,.02,.04,.02,.06-.01,.1-.67,.63-1.34,1.27-2.01,1.9,0,0-.02,.02-.04,.02l.23-.84Z"/></g></g></g></svg>