<?xml version="1.0" encoding="UTF-8"?><svg id="Layer_2" xmlns="http://www.w3.org/2000/svg" viewBox="0 0 135.67 18.64"><defs><style>.cls-1{fill:#040404;}.cls-2{fill:#044f8b;}.cls-3{fill:#fff;}.cls-4{fill:#fffefd;}.cls-5{fill:#f90;}.cls-6{fill:red;}.cls-7{fill:#ff4800;}.cls-8{fill:#dfe7f2;}.cls-9{fill:#14216b;}.cls-10{fill:#33b58d;}.cls-11{fill:#7088be;}.cls-12{fill:#4ea38a;}</style></defs><g id="Layer_2-2"><g><g id="MFc5r9.tif"><g><path class="cls-9" d="M112.67,11.57h-1.27s-.03-.01-.03-.03l-.15-.75s-.01-.03-.04-.03h-1.73s-.04,.01-.04,.03l-.27,.75s-.01,.03-.04,.03h-1.44s0-.02,.01-.04c.69-1.64,1.37-3.27,2.06-4.91,.07-.16,.16-.29,.31-.37,.11-.06,.23-.08,.35-.08h1.12s.03,.01,.03,.03c.05,.22,.09,.44,.14,.65l.33,1.56c.11,.53,.22,1.06,.33,1.6,.11,.51,.21,1.01,.32,1.52h0v.03h0Zm-2.11-3.92c-.24,.68-.5,1.35-.74,2.02h1.14s.02,0,.02-.03c-.12-.58-.24-1.17-.36-1.75-.02-.08-.03-.16-.05-.25h0Z"/><path class="cls-9" d="M106.9,6.08s.06,0,.09,.01c.32,.03,.63,.09,.93,.2,.03,0,.03,.02,.03,.05-.06,.36-.12,.73-.18,1.09v.03s-.05-.02-.08-.03c-.37-.18-.77-.25-1.18-.23-.16,0-.32,.03-.46,.11-.08,.04-.14,.09-.2,.16-.09,.13-.09,.27,0,.4,.06,.07,.13,.13,.2,.18,.18,.12,.37,.21,.57,.31,.25,.13,.5,.27,.7,.47,.21,.2,.35,.44,.4,.73,.04,.24,.02,.48-.05,.71-.13,.45-.41,.78-.81,1.01-.28,.16-.58,.26-.89,.31-.25,.04-.5,.06-.75,.05-.45-.02-.89-.08-1.32-.23-.04-.01-.08-.03-.13-.05-.02,0-.02-.01-.02-.03,.06-.36,.12-.72,.18-1.09l.02-.1s.03,0,.04,.01c.22,.11,.45,.2,.68,.27,.3,.08,.61,.1,.92,.08,.16-.01,.31-.05,.45-.14,.09-.05,.17-.12,.21-.22,.06-.16,.04-.3-.08-.43-.1-.11-.23-.19-.35-.26-.15-.08-.3-.15-.45-.24-.24-.13-.47-.28-.66-.48-.18-.19-.32-.41-.36-.68-.04-.23-.01-.47,.06-.69,.12-.37,.36-.65,.67-.87,.3-.2,.63-.32,.98-.38,.13-.02,.26-.04,.4-.05h.42l.02,.02Z"/><path class="cls-9" d="M98.8,9.08c.04,.17,.07,.35,.11,.52,.02,.08,.03,.16,.05,.25,.01,0,.01-.02,.02-.03,.45-1.2,.89-2.4,1.34-3.6,0-.02,.02-.03,.05-.03h1.4c.31,0,.32,.01,.03,.04-.65,1.59-1.3,3.18-1.95,4.78-.07,.18-.15,.36-.22,.54,0,.02-.02,.03-.05,.03h-1.41s-.04,0-.05-.04c-.23-.87-.46-1.75-.69-2.62-.18-.66-.35-1.33-.53-1.99v-.04s.03,.01,.04,.02c.29,.17,.56,.38,.81,.61,.37,.34,.66,.74,.89,1.19,.06,.12,.11,.25,.16,.37Z"/><path class="cls-9" d="M101.5,11.57c.03-.2,.06-.4,.1-.6,.05-.29,.09-.57,.14-.86l.15-.9c.05-.3,.1-.59,.14-.89l.15-.9c.05-.28,.09-.57,.14-.85,.02-.13,.04-.25,.06-.38,0-.02,.02-.02,.03-.02h1.33s.04,0,.03,.04c-.08,.46-.15,.91-.22,1.37-.08,.48-.15,.96-.23,1.44-.09,.54-.18,1.08-.26,1.62-.05,.3-.1,.6-.15,.91,0,.02-.01,.03-.03,.03h-1.38Z"/><path class="cls-9" d="M98.8,9.08c-.05-.12-.1-.25-.16-.37-.23-.45-.52-.85-.89-1.19-.25-.23-.52-.44-.81-.61-.01,0-.02-.02-.04-.02h0c-.16-.1-.32-.18-.49-.25-.31-.14-.63-.25-.95-.33-.02,0-.03-.01-.02-.04q.02-.08,.1-.08h2.14c.09,0,.17,0,.25,.03,.23,.06,.36,.2,.41,.43,.1,.51,.2,1.03,.3,1.54,.06,.29,.11,.58,.17,.87v.02Z"/><path class="cls-9" d="M110.56,7.64c.02,.09,.04,.17,.05,.25,.12,.58,.24,1.17,.36,1.75,0,.02,0,.03-.02,.03"/></g></g><g id="Y5ktKx.tif"><g><path class="cls-6" d="M114.72,8.07v-.11c.01-.05,.02-.1,.01-.16,.01-.22,.05-.43,.1-.64,.26-1.02,1-1.87,1.97-2.27,.28-.12,.57-.19,.87-.23,.09-.01,.19-.02,.28-.02h.3c.13,.01,.26,.02,.39,.05,.4,.07,.78,.2,1.13,.41,.13,.08,.26,.16,.38,.26,0,.01,0,.02-.02,.03-.09,.07-.17,.15-.26,.23-.06,.05-.11,.12-.16,.18l-.15,.18c-.1,.13-.19,.27-.27,.41-.09,.16-.17,.33-.23,.51-.05,.14-.09,.28-.12,.42-.02,.08-.03,.15-.04,.23,0,.06,0,.13-.02,.19,0,.07,0,.15,0,.22,0,.12,0,.23,0,.35,0,.08,.02,.17,.03,.25,.02,.12,.05,.25,.08,.37,.05,.18,.11,.35,.19,.52,.09,.19,.19,.37,.31,.54,.08,.11,.16,.21,.25,.31,.05,.06,.11,.11,.16,.17,.06,.06,.13,.12,.2,.18,0,0,.02,.02,.03,.03l-.02,.02c-.69,.52-1.47,.75-2.34,.68-.26-.02-.52-.07-.77-.16-.66-.22-1.21-.62-1.63-1.18-.4-.53-.62-1.14-.66-1.8,0-.05,0-.1-.01-.15l.02-.02Z"/><path class="cls-1" d="M124.5,13.09s-.02-.01-.03-.02c-.18-.05-.3-.21-.32-.39,0-.09,0-.19,.04-.27,.1-.21,.33-.29,.51-.24,.06,.02,.1,.04,.17,.11v-.42s0-.03,.03-.03h.14s.02,0,.02,.02v1.21s0,.02-.02,.02h-.15s-.02,0-.02-.02v-.07h-.02c-.05,.05-.11,.09-.18,.1h-.17Zm.39-.47s0-.06,0-.09c-.03-.12-.13-.19-.25-.2-.12,0-.22,.07-.26,.19-.02,.05-.02,.1,0,.15,.02,.17,.19,.29,.35,.23,.11-.04,.19-.15,.19-.28h-.01Z"/><path class="cls-1" d="M117.23,13.09s-.02-.01-.03-.01c-.18-.05-.31-.2-.32-.39,0-.1,0-.2,.05-.29,.1-.2,.32-.27,.5-.22,.05,.01,.1,.04,.14,.08l.03,.03v-.08s0-.03,.02-.02h.15s.03,0,.02,.03v.85s0,.02-.03,.02h-.14s-.03-.01-.03-.03v-.07s-.02,.01-.03,.02c-.04,.04-.08,.06-.13,.08,0,0-.03,0-.04,.02h-.18l.02-.02Zm-.16-.47v.08c.03,.12,.13,.2,.25,.2s.22-.06,.26-.17c.02-.06,.03-.12,.02-.18-.02-.13-.12-.22-.25-.22s-.24,.07-.27,.2c0,.03,0,.06,0,.09Z"/><path class="cls-1" d="M122.7,13.09s-.02-.01-.03-.01c-.18-.06-.29-.18-.32-.37-.02-.11,0-.22,.05-.32,.1-.19,.32-.26,.49-.21,.05,.01,.1,.04,.14,.08,0,0,.02,.02,.02,.03h0v-.08s0-.03,.03-.03h.14s.03,0,.02,.02v.86s0,.02-.02,.02h-.16s-.02,0-.02-.02v-.08l-.03,.03s-.08,.06-.12,.08c0,0-.03,0-.03,.02h-.19l.03-.02Zm.39-.47v-.08c-.03-.12-.13-.2-.25-.2-.13,0-.23,.07-.26,.19,0,.05-.02,.1,0,.15,.02,.12,.11,.22,.24,.23,.12,.02,.23-.05,.28-.17,.02-.04,.02-.08,.02-.12h-.03Z"/><path class="cls-1" d="M120.12,13.09s-.03-.01-.04-.02c-.08-.02-.15-.06-.2-.12-.04-.04-.07-.09-.09-.15-.04-.12-.04-.23,0-.35,.07-.22,.27-.31,.47-.29s.32,.16,.36,.35c0,.06,0,.12,0,.18t-.02,.02h-.64c.02,.09,.06,.15,.14,.19,.08,.03,.16,.03,.24,.01,.05-.01,.09-.03,.13-.06,0,0,.02-.01,.03-.02,.03,.04,.05,.08,.08,.12,0,.02,0,.02,0,.03-.06,.04-.12,.07-.19,.09-.03,0-.05,.01-.08,.02h-.18Zm.31-.55c0-.12-.09-.21-.21-.21-.13,0-.23,.08-.25,.21h.46Z"/><path class="cls-1" d="M118.25,13.09s-.04-.01-.06-.02c-.07-.02-.13-.04-.19-.08t0-.04s.05-.08,.08-.12c.02,0,.03,.01,.04,.02,.11,.06,.23,.08,.36,.06,.03,0,.05-.02,.08-.04,.05-.04,.04-.1,0-.12-.04-.02-.09-.03-.13-.04-.05,0-.11-.01-.16-.03-.03,0-.05-.02-.08-.03-.2-.09-.17-.32-.06-.42,.04-.04,.09-.06,.15-.07,.15-.03,.29-.02,.43,.04,0,0,.02,0,.03,.01,0,0,.01,.03,.02,.07l-.04,.08s-.02,.03-.05,.02c-.06-.03-.13-.05-.19-.06h-.13s-.05,.01-.06,.03c-.05,.04-.04,.1,.02,.13,.03,.01,.07,.02,.11,.02,.05,0,.11,.01,.16,.03,.03,0,.06,.02,.09,.04,.18,.09,.17,.32,.04,.42-.06,.04-.12,.07-.19,.08h-.22l-.03,.02Z"/><path class="cls-1" d="M119.29,13.09h-.02c-.12-.04-.17-.13-.19-.25v-.46s0-.03-.03-.03h-.12s-.02,0-.02-.02v-.14s0-.02,.02-.02h.11q.05,0,.05-.05v-.19s0-.03,.03-.03h.14s.02,0,.02,.02v.21s0,.03,.04,.03h.25s.03,0,.03,.03v.14h-.28s-.03,0-.03,.03v.38c0,.11,.05,.15,.15,.14,.03,0,.05,0,.07-.01,.02,0,.04-.02,.07-.03,.02,.05,.03,.1,.05,.15t0,.03s-.07,.03-.1,.04c0,0-.02,0-.02,.01h-.2v.02Z"/><path class="cls-1" d="M121.82,13.09h0s-.04-.01-.07-.02c-.18-.07-.27-.2-.29-.38,0-.07,0-.14,.02-.21,.06-.18,.18-.27,.36-.3,.08-.01,.16,0,.23,0,.06,.01,.12,.04,.18,.09l-.09,.16s-.03-.02-.05-.03c-.07-.04-.15-.06-.23-.05-.12,.02-.21,.12-.22,.24,0,.06,0,.12,.02,.18,.04,.09,.11,.14,.21,.15,.09,0,.17-.01,.24-.06t.05,.01l.06,.1s.02,.03,0,.05c-.05,.03-.1,.06-.16,.07h-.25Z"/><path class="cls-5" d="M114.72,7.8h.01c0,.05,0,.11-.01,.16v-.16Z"/><path class="cls-5" d="M114.73,8.22h-.01v-.15s.02,.1,.01,.15Z"/><path class="cls-7" d="M120.15,5.36h0l.02,.02c.05,.04,.1,.08,.14,.12,.06,.05,.11,.11,.17,.16,.09,.09,.17,.18,.24,.28,.13,.16,.24,.34,.33,.52s.17,.37,.23,.57,.1,.4,.12,.6v.11c0,.09,0,.18,0,.27v.24c0,.1-.02,.2-.04,.29-.02,.15-.06,.3-.11,.45-.04,.12-.08,.24-.14,.36-.08,.17-.17,.34-.27,.5-.09,.14-.19,.27-.3,.39-.1,.11-.21,.22-.33,.31-.03,.02-.06,.04-.08,.07h0l-.03-.03c-.07-.06-.14-.11-.2-.18-.05-.06-.11-.11-.16-.17-.09-.1-.17-.2-.25-.31-.12-.17-.23-.35-.31-.54-.08-.17-.14-.34-.19-.52-.03-.12-.06-.25-.08-.37,0-.08-.02-.17-.03-.25,0-.12-.02-.23,0-.35,0-.07,0-.15,0-.22,0-.06,0-.13,.02-.19,0-.08,.02-.15,.04-.23,.03-.14,.07-.28,.12-.42,.06-.18,.14-.35,.23-.51,.08-.14,.17-.28,.27-.41l.15-.18c.05-.06,.1-.12,.16-.18,.08-.08,.17-.16,.26-.23,0,0,.02-.01,.02-.03v.06Z"/><path class="cls-5" d="M120.16,10.65s.05-.05,.08-.07c.12-.1,.22-.2,.33-.31,.11-.12,.21-.25,.3-.39,.11-.16,.2-.33,.27-.5,.05-.12,.1-.24,.14-.36,.05-.15,.08-.3,.11-.45,.02-.1,.03-.19,.04-.29v-.16s0-.06,0-.08c0-.09,0-.18,0-.27v-.11c-.02-.21-.06-.41-.12-.6-.06-.2-.14-.39-.23-.57-.09-.19-.21-.36-.33-.52-.08-.1-.16-.19-.24-.28-.05-.06-.11-.11-.17-.16-.04-.04-.09-.08-.14-.12,0,0-.02-.01-.02-.02,.28-.22,.59-.39,.93-.52,.24-.09,.48-.15,.74-.18,.09-.01,.19-.02,.28-.03h.25c.1,0,.19,.01,.29,.03,.26,.03,.51,.09,.76,.18,.75,.29,1.33,.78,1.74,1.47,.19,.33,.32,.68,.39,1.06,.03,.15,.05,.3,.05,.45v.31c0,.2-.03,.4-.07,.6-.16,.69-.49,1.27-1.01,1.75-.45,.41-.97,.68-1.56,.81-.25,.05-.5,.08-.76,.07-.74-.02-1.4-.25-1.99-.69,0,0-.02-.01-.03-.03l-.02-.02Z"/><path class="cls-1" d="M115.26,13.07v-.88s0-.02,.02-.02h.16s.02,0,.02,.02v.08s.06-.06,.1-.08c.04-.02,.08-.03,.13-.04h.13s.08,.03,.12,.05l.09,.09s0-.01,.02-.02c.09-.11,.2-.14,.34-.14h.06c.16,.04,.25,.15,.26,.32v.56s0,.02-.02,.02h-.16s-.03,0-.03-.03v-.55c-.02-.09-.08-.14-.18-.15-.13,0-.22,.08-.22,.21v.48s0,.03-.03,.03h-.14s-.03,0-.03-.03v-.46s0-.08-.02-.12c-.02-.07-.07-.11-.14-.12h-.12c-.09,.03-.12,.09-.13,.17v.51s0,.03-.03,.03h-.16l-.04,.07Z"/><path class="cls-1" d="M121.02,12.28c.11-.12,.21-.15,.36-.11-.02,.06-.03,.11-.05,.16,0,.02,0,.02-.03,.01-.03,0-.07-.01-.1-.01-.09,0-.15,.04-.17,.13,0,.04,0,.07,0,.11v.46s0,.03-.03,.04h-.13s-.03,0-.03-.03v-.83s0-.04,.04-.04h.13s.02,0,.02,.02v.08h0Z"/><path class="cls-1" d="M123.73,12.28c.09-.13,.22-.13,.36-.11l-.05,.17s-.02,.01-.03,0c-.03,0-.06-.01-.1-.01-.09,0-.16,.05-.18,.14,0,.03,0,.06,0,.1v.45c0,.06,0,.05-.05,.05h-.12s-.03,0-.02-.02v-.86s0-.02,.02-.02h.16s.02,0,.02,.02v.08h-.01Z"/></g></g><g><rect class="cls-8" y=".47" width="26.93" height="17.7" rx="1.14" ry="1.14"/><rect class="cls-11" y="3.24" width="26.93" height="3.86"/><rect class="cls-4" x="9.49" y="9.65" width="15.24" height="1.33"/><rect class="cls-4" x="14.57" y="13.54" width="10.16" height="1.33"/><rect class="cls-4" x="2.05" y="12.58" width="2.98" height="2.98"/></g><g id="JHo1N7.tif"><g><path class="cls-10" d="M61.61,18.62c-.61-.26-1.24-.49-1.83-.78-2.82-1.38-4.63-3.59-5.37-6.65-.26-1.05-.41-2.12-.43-3.2-.03-1.54,0-3.08,0-4.62,0-.4,.27-.65,.7-.67,.47-.03,.93-.03,1.4-.08,1.89-.2,3.57-.91,4.98-2.2,.08-.07,.15-.14,.23-.21,.31-.28,.64-.27,.96,0,.41,.34,.81,.7,1.24,1,1.1,.77,2.33,1.2,3.66,1.37,.54,.07,1.09,.09,1.63,.12s.77,.25,.78,.79c.01,1.22,.04,2.44,.03,3.66-.01,1.46-.16,2.9-.54,4.32-.77,2.89-2.53,4.99-5.19,6.33-.63,.32-1.3,.56-1.95,.84h-.29v-.02Zm-6.35-14.61v.18c0,.78-.02,1.56-.03,2.35,0,1.44,.08,2.87,.41,4.28,.4,1.7,1.19,3.18,2.49,4.37,1.03,.94,2.24,1.58,3.54,2.06,.06,.02,.15,.01,.2-.01,.67-.31,1.36-.59,2-.95,1.42-.81,2.53-1.95,3.27-3.42,.72-1.43,1.01-2.97,1.08-4.55,.06-1.38,.02-2.76,.03-4.15,0-.05,0-.11-.01-.16-.47-.05-.92-.09-1.38-.16-1.84-.25-3.48-.97-4.9-2.16-.15-.12-.23-.14-.39,0-1.31,1.11-2.82,1.81-4.51,2.1-.58,.1-1.18,.15-1.79,.23h0Z"/><path class="cls-12" d="M60.82,10.22c.32-.32,.59-.6,.87-.87l2.28-2.28c.38-.38,.96-.26,1.11,.22,.07,.21,.04,.41-.09,.59-.05,.06-.1,.12-.16,.17l-3.41,3.41c-.4,.4-.73,.4-1.13,0l-1.68-1.68c-.19-.19-.25-.41-.18-.67,.07-.25,.25-.4,.5-.45s.45,.04,.62,.22c.38,.39,.77,.77,1.16,1.16,.05,.05,.07,.11,.11,.18Z"/></g></g><rect class="cls-10" x="30.1" y="8.88" width="19.92" height=".8"/><rect class="cls-10" x="72.35" y="8.88" width="19.92" height=".8"/><g id="Layer_1-2"><g><path class="cls-2" d="M126.85,8.09c.03-.12,.06-.24,.09-.37,.32-1.65,1.55-2.83,3.22-3.01,.96-.11,1.94-.14,2.89,.18,1.68,.57,2.75,2.12,2.61,3.89-.12,1.46-.95,2.47-2.23,3.09-.4,.2-.87,.26-1.3,.38-.05,.01-.1,.03-.15,.05h-1.6s-.1-.04-.14-.05c-1.63-.19-2.94-1.4-3.28-3.01-.03-.12-.06-.25-.09-.37v-.78Zm3.87-3.12c-1.93,0-3.51,1.55-3.51,3.46,0,1.95,1.54,3.55,3.49,3.54,1.99,0,3.49-1.57,3.51-3.49,.02-1.92-1.57-3.51-3.49-3.51h0Z"/><path class="cls-3" d="M130.72,4.97c1.92,0,3.51,1.59,3.49,3.51-.02,1.92-1.52,3.48-3.51,3.49-1.94,0-3.49-1.59-3.49-3.54,0-1.91,1.58-3.46,3.51-3.46Zm-.83,1.48c-.72,.14-1.39,1.1-1.39,1.97,0,.95,.64,1.91,1.39,2.06V6.45Zm1.63,0v4.04c.78-.21,1.41-1.17,1.39-2.08-.02-.88-.68-1.81-1.39-1.96Z"/><path class="cls-2" d="M129.9,6.45v4.04c-.76-.16-1.39-1.11-1.39-2.06,0-.88,.67-1.83,1.39-1.97Z"/><path class="cls-2" d="M131.53,6.45c.7,.14,1.36,1.08,1.39,1.96,.02,.91-.61,1.87-1.39,2.08V6.45Z"/></g></g></g></g></svg>