<?xml version="1.0" encoding="UTF-8"?><svg id="Layer_2" xmlns="http://www.w3.org/2000/svg" viewBox="0 0 139.73 19.79"><defs><style>.cls-1{fill:#fffefd;}.cls-2{fill:#dfe7f2;}.cls-3{fill:#14216b;}.cls-4{fill:#33b58d;}.cls-5{fill:#7088be;}.cls-6{fill:#4ea38a;}</style></defs><g id="Layer_1-2"><g><g id="MFc5r9.tif"><g><path class="cls-3" d="M139.73,15.44c-.81,0-1.62,0-2.43,0-.05,0-.05-.03-.06-.06-.1-.48-.2-.96-.29-1.43,0-.05-.03-.06-.07-.06-1.1,0-2.21,0-3.31,0-.05,0-.07,.02-.08,.06-.17,.48-.35,.95-.52,1.43-.01,.04-.03,.05-.07,.05-.9,0-1.81,0-2.71,0h-.03s.01-.05,.02-.07c1.31-3.13,2.63-6.26,3.94-9.39,.13-.3,.3-.55,.6-.7,.21-.11,.44-.15,.67-.15,.71,0,1.43,0,2.14,0,.05,0,.05,.03,.06,.06,.09,.42,.17,.83,.26,1.25,.21,1,.42,1.99,.62,2.99,.21,1.02,.43,2.04,.64,3.05,.2,.97,.4,1.94,.61,2.9,0,0,0,.01,.01,.02v.04Zm-4.03-7.52c-.46,1.31-.95,2.58-1.42,3.87,.01,0,.02,0,.03,0,.71,0,1.42,0,2.14,0,.04,0,.05-.01,.04-.05-.23-1.11-.46-2.23-.69-3.34-.03-.15-.06-.3-.1-.48Z"/><path class="cls-3" d="M128.7,4.94c.06,.03,.12,.02,.18,.02,.61,.05,1.2,.18,1.78,.39,.05,.02,.07,.04,.06,.1-.12,.7-.23,1.39-.34,2.09,0,.02,0,.04-.01,.06-.05-.02-.09-.04-.13-.06-.71-.34-1.46-.48-2.25-.44-.31,.02-.61,.06-.88,.2-.15,.07-.28,.17-.37,.31-.18,.25-.17,.52,.02,.77,.11,.14,.24,.24,.39,.34,.34,.23,.71,.41,1.08,.59,.49,.24,.95,.52,1.34,.91,.4,.39,.67,.84,.76,1.39,.07,.46,.04,.91-.09,1.36-.24,.86-.79,1.48-1.55,1.93-.53,.31-1.11,.49-1.71,.59-.48,.08-.96,.12-1.44,.1-.86-.03-1.71-.15-2.53-.43-.08-.03-.16-.06-.24-.09-.03-.01-.04-.02-.03-.06,.11-.69,.23-1.39,.34-2.08,0-.06,.02-.12,.03-.19,.03,0,.05,.02,.08,.03,.42,.2,.85,.39,1.31,.51,.58,.15,1.16,.2,1.76,.15,.31-.02,.6-.1,.87-.27,.17-.1,.32-.24,.39-.43,.12-.3,.07-.58-.15-.82-.19-.21-.43-.36-.67-.5-.28-.16-.58-.29-.87-.45-.46-.25-.9-.53-1.26-.91-.35-.37-.6-.79-.68-1.3-.07-.45-.02-.89,.12-1.32,.23-.71,.68-1.24,1.29-1.66,.57-.39,1.21-.61,1.88-.73,.25-.05,.5-.07,.76-.09,.01,0,.03,0,.03-.01h.77Z"/><path class="cls-3" d="M113.22,10.67c.08,.33,.14,.66,.21,.99,.03,.16,.06,.31,.09,.47,.03,0,.03-.04,.03-.05,.86-2.3,1.71-4.59,2.56-6.89,.02-.05,.04-.07,.09-.07,.89,0,1.79,0,2.68,0q.08,0,.05,.07c-1.24,3.04-2.48,6.09-3.72,9.13-.14,.34-.28,.69-.42,1.03-.02,.05-.04,.06-.09,.06-.9,0-1.79,0-2.69,0-.06,0-.08-.02-.09-.07-.44-1.67-.89-3.34-1.33-5.01-.34-1.27-.67-2.53-1.01-3.8,0-.02-.02-.04,0-.07,.03,0,.05,.02,.08,.04,.56,.33,1.08,.72,1.55,1.17,.7,.66,1.27,1.41,1.7,2.28,.12,.23,.21,.47,.31,.71Z"/><path class="cls-3" d="M118.37,15.43c.06-.38,.12-.76,.18-1.14,.09-.55,.18-1.09,.27-1.64,.09-.57,.19-1.14,.28-1.71,.09-.57,.18-1.14,.28-1.71,.09-.57,.19-1.14,.28-1.71,.09-.54,.18-1.08,.26-1.62,.04-.24,.08-.49,.12-.73,0-.05,.03-.05,.07-.05,.3,0,.59,0,.89,0,.55,0,1.1,0,1.66,0,.06,0,.07,0,.06,.07-.14,.87-.28,1.75-.43,2.62-.15,.92-.3,1.83-.44,2.75-.17,1.03-.33,2.07-.5,3.1-.09,.58-.19,1.15-.28,1.73,0,.04-.02,.05-.06,.05-.86,0-1.72,0-2.58,0-.01,0-.02,0-.04,0Z"/><path class="cls-3" d="M113.22,10.67c-.1-.24-.2-.48-.31-.71-.43-.86-1-1.62-1.7-2.28-.47-.45-.99-.83-1.55-1.17-.03-.01-.05-.04-.08-.04h0s0-.01-.01-.01c-.3-.18-.61-.34-.93-.48-.59-.27-1.2-.48-1.82-.64-.04-.01-.06-.02-.05-.07,.03-.15,.03-.15,.19-.15,1.36,0,2.73,0,4.09,0,.16,0,.33,.02,.48,.06,.43,.11,.69,.39,.78,.81,.2,.98,.39,1.97,.58,2.95,.11,.55,.22,1.1,.33,1.66,0,.02,0,.05,0,.07Z"/><path class="cls-3" d="M109.56,6.47s.01,0,.01,.01c-.01,0-.01,0-.01-.01Z"/><path class="cls-3" d="M135.7,7.92c.04,.17,.07,.32,.1,.48,.23,1.11,.46,2.23,.69,3.34,0,.04,0,.05-.04,.05"/></g></g><g><rect class="cls-2" width="30.11" height="19.79" rx="1.27" ry="1.27"/><rect class="cls-5" y="3.1" width="30.11" height="4.32"/><rect class="cls-1" x="10.61" y="10.27" width="17.04" height="1.49"/><rect class="cls-1" x="16.29" y="14.61" width="11.36" height="1.49"/><rect class="cls-1" x="2.29" y="13.54" width="3.33" height="3.33"/></g><g id="JHo1N7.tif"><g><path class="cls-4" d="M68.95,19.21c-.61-.26-1.24-.49-1.83-.78-2.82-1.38-4.63-3.59-5.37-6.65-.26-1.05-.41-2.12-.43-3.2-.03-1.54,0-3.08,0-4.62,0-.4,.27-.65,.7-.67,.47-.03,.93-.03,1.4-.08,1.89-.2,3.57-.91,4.98-2.2,.08-.07,.15-.14,.23-.21,.31-.28,.64-.27,.96,0,.41,.34,.81,.7,1.24,1,1.1,.77,2.33,1.2,3.66,1.37,.54,.07,1.09,.09,1.63,.12,.54,.03,.77,.25,.78,.79,.01,1.22,.04,2.44,.03,3.66-.01,1.46-.16,2.9-.54,4.32-.77,2.89-2.53,4.99-5.19,6.33-.63,.32-1.3,.56-1.95,.84h-.29Zm-6.34-14.61c0,.06,0,.12,0,.18-.01,.78-.02,1.56-.03,2.35,0,1.44,.08,2.87,.41,4.28,.4,1.7,1.19,3.18,2.49,4.37,1.03,.94,2.24,1.58,3.54,2.06,.06,.02,.15,.01,.2-.01,.67-.31,1.36-.59,2-.95,1.42-.81,2.53-1.95,3.27-3.42,.72-1.43,1.01-2.97,1.08-4.55,.06-1.38,.02-2.76,.03-4.15,0-.05,0-.11-.01-.16-.47-.05-.92-.09-1.38-.16-1.84-.25-3.48-.97-4.9-2.16-.15-.12-.23-.14-.39,0-1.31,1.11-2.82,1.81-4.51,2.1-.58,.1-1.18,.15-1.79,.23Z"/><path class="cls-6" d="M68.16,10.81c.32-.32,.59-.6,.87-.87,.76-.76,1.52-1.52,2.28-2.28,.38-.38,.96-.26,1.11,.22,.07,.21,.04,.41-.09,.59-.05,.06-.1,.12-.16,.17-1.14,1.14-2.27,2.27-3.41,3.41-.4,.4-.73,.4-1.13,0-.56-.56-1.12-1.12-1.68-1.68-.19-.19-.25-.41-.18-.67,.07-.25,.25-.4,.5-.45,.25-.05,.45,.04,.62,.22,.38,.39,.77,.77,1.16,1.16,.05,.05,.07,.11,.11,.18Z"/></g></g><rect class="cls-4" x="37.44" y="9.47" width="19.92" height=".8"/><rect class="cls-4" x="79.69" y="9.47" width="19.92" height=".8"/></g></g></svg>