<svg width="100" height="38" viewBox="0 0 100 38" fill="none" xmlns="http://www.w3.org/2000/svg">
<path d="M100 0H0V37.931H100V0Z" fill="#FFE100"/>
<path d="M12.7788 9.19531H17.4728V15.9199C18.4345 14.9283 19.4318 14.3363 20.5944 14.0437C23.9537 13.197 27.2337 15.015 28.2788 18.441C29.1053 21.1477 28.9373 23.8164 27.2269 26.2006C25.0001 29.3055 20.5192 29.6401 17.7897 26.9538C17.7296 26.8942 17.6572 26.8454 17.5069 26.7249V28.3722H12.7788V9.19531ZM24.1395 21.2533C24.1354 19.2254 22.6695 17.7447 20.6886 17.7664C18.787 17.7867 17.4714 19.2782 17.4865 21.3983C17.5001 23.3449 18.8676 24.7931 20.7037 24.8039C22.746 24.8161 24.1449 23.372 24.1408 21.2533H24.1395Z" fill="black"/>
<path d="M62.6858 23.4768C61.7118 24.3031 61.0069 25.1688 61.2254 26.5126C61.3211 27.1032 61.2418 27.721 61.2418 28.3753H56.5479V9.21875H61.205V19.4967L61.347 19.5658C61.8498 18.9521 62.3566 18.3398 62.8552 17.7234C63.7104 16.6681 64.5547 15.6047 65.4194 14.5575C65.5506 14.3977 65.7651 14.2013 65.9427 14.1986C67.5984 14.1715 69.2541 14.1823 71.097 14.1823C69.276 16.3281 67.5588 18.3493 65.8129 20.4071C67.5574 23.0338 69.291 25.6456 71.0724 28.3279C70.8552 28.3685 70.7145 28.4173 70.5724 28.4173C69.138 28.4227 67.7022 28.4444 66.2692 28.401C65.9973 28.3929 65.6298 28.1829 65.4809 27.9553C64.5328 26.4977 63.6326 25.0089 62.6831 23.4781L62.6858 23.4768Z" fill="black"/>
<path d="M46.0221 28.4216C44.4907 28.4216 43.0809 28.4324 41.6724 28.404C41.5344 28.4013 41.3992 28.1574 41.2707 28.0179C41.2475 27.9935 41.2653 27.9298 41.2653 27.8851C41.2653 23.4851 41.2653 19.0851 41.2694 14.6851C41.2694 14.5334 41.3145 14.3817 41.3418 14.2164H45.9811V15.4492C46.7981 15.0021 47.5494 14.4467 48.3937 14.1541C51.9688 12.9159 55.4142 15.3435 55.4497 19.0946C55.4784 22.0952 55.4552 25.0972 55.4538 28.0978C55.4538 28.1642 55.4347 28.2306 55.4142 28.362H50.9538C50.9429 28.1385 50.921 27.9 50.9197 27.6616C50.9156 25.2692 50.9183 22.8782 50.9142 20.4859C50.9142 19.6175 50.7038 18.8237 49.977 18.2628C49.1997 17.6627 48.3404 17.6316 47.4688 18.019C46.4934 18.4538 46.0508 19.249 46.0453 20.2894C46.033 22.7265 46.0289 25.1636 46.0221 27.6006C46.0221 27.8431 46.0221 28.0856 46.0221 28.4202V28.4216Z" fill="black"/>
<path d="M79.235 17.865H77.4058V14.164C77.7801 14.164 78.1421 14.1274 78.4946 14.1721C79.1216 14.2507 79.2651 13.977 79.2459 13.4027C79.2063 12.2078 79.25 11.0103 79.2268 9.81411C79.2186 9.3603 79.347 9.16929 79.8388 9.18012C81.1066 9.20857 82.3743 9.18961 83.7172 9.18961V14.1586C84.4877 14.1586 85.1872 14.1924 85.8825 14.1491C86.5137 14.1084 86.7924 14.2818 86.7295 14.966C86.6667 15.6379 86.7159 16.3193 86.7159 16.9966C86.7159 17.8636 86.7159 17.8663 85.8142 17.8717C85.1571 17.8758 84.5014 17.8717 83.7364 17.8717C83.7364 18.4136 83.7364 18.8986 83.7364 19.3849C83.7364 20.5581 83.7323 21.7326 83.7323 22.9057C83.7323 24.6113 84.5533 25.1545 86.1407 24.4988C86.2008 24.4745 86.2691 24.4704 86.4044 24.4419C86.6817 25.3211 86.9768 26.1895 87.2159 27.0741C87.2569 27.2285 87.1161 27.5211 86.97 27.62C85.3402 28.7173 83.5861 29.0831 81.7418 28.2391C79.9754 27.4317 79.2651 25.9267 79.2391 24.0708C79.2159 22.311 79.2364 20.5499 79.2364 18.7889C79.2364 18.5206 79.2364 18.2511 79.2364 17.8623L79.235 17.865Z" fill="#008600"/>
<path d="M29.3608 9.20312H34.0002V28.384H29.3608V9.20312Z" fill="black"/>
<path d="M40.022 28.3924H35.373V14.2266H40.022V28.3924Z" fill="black"/>
<path d="M71.8472 14.1953H76.4469V28.3192H71.8472V14.1953Z" fill="#008600"/>
<path d="M40.1028 12.8322H35.3896V9.16779H36.2148C37.3282 9.16779 38.4429 9.15289 39.555 9.18269C39.7407 9.18811 40.0741 9.38318 40.0795 9.49968C40.1205 10.597 40.1041 11.6956 40.1041 12.8308L40.1028 12.8322Z" fill="black"/>
<path d="M71.7993 12.8026C71.7815 12.6386 71.7542 12.5086 71.7542 12.3772C71.7501 11.3463 71.7528 10.3154 71.7528 9.1964C73.2542 9.1964 74.6968 9.18962 76.1408 9.20994C76.2542 9.2113 76.4591 9.41179 76.4619 9.52423C76.4865 10.5985 76.4769 11.6728 76.4769 12.8012H71.8007L71.7993 12.8026Z" fill="#008600"/>
</svg>
