<svg width="103" height="31" viewBox="0 0 103 31" fill="none" xmlns="http://www.w3.org/2000/svg">
<path d="M64.9726 9.124L63.2763 6.15979L60.2607 7.65046L58.5644 4.68625L55.5488 6.17692L53.8525 3.21271L50.8369 4.70338L49.1406 1.73917L46.125 3.22984L44.4287 0.265625L41.4131 1.7563L34.9878 23.2083L42.7667 25.6585C43.2807 23.9279 44.8571 22.66 46.7076 22.66C48.9864 22.66 50.8369 24.5619 50.8369 26.9093V26.995C50.854 27.3719 50.8198 27.766 50.6998 28.1429L58.6158 30.6445" fill="#D70B17"/>
<path d="M41.6531 21.4243C41.2419 21.3558 40.9678 20.996 40.9678 20.5676V10.0301C40.9678 9.5332 41.3447 9.15625 41.8245 9.15625H49.1922C49.3807 9.15625 49.5691 9.17338 49.7576 9.20765C51.334 9.49893 52.4991 10.9039 52.4991 12.566V20.5676C52.4991 20.8075 52.4134 21.0302 52.2421 21.2016C52.0879 21.3558 51.8651 21.4586 51.6424 21.4586L51.4882 21.4415C51.0769 21.3729 50.8028 21.0131 50.8028 20.5848V12.6002C50.8028 11.7949 50.2374 11.1095 49.4663 10.9725L49.1922 10.9382H47.5816V20.5848C47.5816 20.8246 47.4959 21.0474 47.3246 21.2187C47.1703 21.3729 46.9476 21.4757 46.7249 21.4757L46.5707 21.4586C46.1594 21.3901 45.8853 21.0302 45.8853 20.6019V10.9382H42.6641V20.5848C42.6641 20.8246 42.5784 21.0474 42.407 21.2016C42.2528 21.3558 42.0301 21.4586 41.8073 21.4586L41.6531 21.4243Z" fill="white"/>
<path d="M53.9041 26.0161C53.4929 25.9476 53.2188 25.5877 53.2188 25.1594C53.2188 24.9195 53.3044 24.6968 53.4586 24.5426C53.6128 24.3883 53.8356 24.2855 54.0583 24.2855C54.778 24.2855 55.3948 23.8058 55.6004 23.1033L56.4742 20.0877L53.6128 10.2012C53.4758 9.73862 53.7328 9.24172 54.1783 9.08752L54.5552 9.07038C54.8636 9.12179 55.1206 9.36167 55.2234 9.67008L57.3481 17.0378L59.507 9.67008C59.6098 9.25886 60.0382 8.98471 60.4836 9.07038L60.535 9.08752C60.9977 9.24172 61.2547 9.73862 61.1005 10.2012L58.1534 20.3447L57.2281 23.6002C56.9883 24.3541 56.577 24.9538 56.0288 25.365C55.4462 25.8105 54.7608 26.0504 54.0412 26.0504L53.9041 26.0161Z" fill="white"/>
<path d="M0.908112 21.3251C0.479757 21.2395 0.188477 20.8797 0.188477 20.4342V4.70499C0.188477 4.44797 0.274147 4.22523 0.445489 4.05389C0.599697 3.88255 0.839575 3.79688 1.07945 3.79688L1.23366 3.81401C1.66201 3.89968 1.97043 4.2595 1.97043 4.70499V9.17701H3.64958C3.85519 9.17701 4.04367 9.19414 4.24928 9.22841C5.89416 9.51969 7.09355 10.9932 7.09355 12.7238V17.7955C7.09355 19.7488 5.55148 21.3423 3.64958 21.3423H1.09659L0.908112 21.3251ZM1.9533 19.5089H3.63245C4.55769 19.5089 5.3116 18.7379 5.3116 17.7784V12.7067C5.3116 11.8671 4.72903 11.1474 3.92373 11.0104L3.63245 10.9761H1.9533V19.5089Z" fill="#5B5B5B"/>
<path d="M12.165 21.3913C10.5201 21.1 9.33789 19.6265 9.33789 17.8959V12.6186C9.33789 11.6591 9.69771 10.7852 10.3488 10.0999C10.9999 9.43164 11.8566 9.05469 12.7819 9.05469C12.9875 9.05469 13.1759 9.07182 13.3816 9.10609C15.0264 9.39737 16.2258 10.8709 16.2258 12.6015V17.8788C16.2258 18.8212 15.866 19.7122 15.2149 20.3975C14.5638 21.0658 13.7071 21.4256 12.799 21.4256C12.5763 21.4427 12.3706 21.4256 12.165 21.3913ZM13.056 10.9052L12.7647 10.8709C11.8223 10.8709 11.0856 11.6248 11.0856 12.6015V17.8788C11.0856 18.7184 11.6681 19.438 12.4563 19.5751L12.7476 19.6093C13.6728 19.6093 14.4267 18.8383 14.4267 17.8788V12.6015C14.4439 11.7619 13.8613 11.0594 13.056 10.9052Z" fill="#5B5B5B"/>
<path d="M21.3149 21.3976C19.6701 21.0892 18.4878 19.6328 18.4878 17.9022V12.6249C18.4878 10.6716 20.0299 9.07812 21.9318 9.07812C22.1374 9.07812 22.3259 9.09526 22.5315 9.12953C24.1592 9.42081 25.3586 10.8943 25.3586 12.6078V17.8851C25.3586 18.8275 24.9988 19.7185 24.3477 20.4038C23.6966 21.0721 22.8399 21.4319 21.9146 21.4319C21.709 21.449 21.5034 21.4319 21.3149 21.3976ZM22.2059 10.9115L21.9146 10.8772C20.9722 10.8772 20.2355 11.6311 20.2355 12.6078V17.8851C20.2355 18.7247 20.818 19.4443 21.6062 19.5814L21.8975 19.6156C22.343 19.6156 22.7542 19.4443 23.0798 19.1188C23.4053 18.7932 23.5766 18.3649 23.5766 17.8851V12.6078C23.5938 11.7682 23.0112 11.0657 22.2059 10.9115Z" fill="#5B5B5B"/>
<path d="M28.3398 21.428C27.9114 21.3594 27.6201 20.9825 27.6201 20.537V4.70499C27.6201 4.44797 27.7058 4.22523 27.8771 4.05389C28.0485 3.88255 28.2712 3.79688 28.5111 3.79688L28.6653 3.81401C29.0937 3.89968 29.4021 4.2595 29.4021 4.70499V14.0774L33.4629 9.38262C33.6685 9.15988 33.9769 9.03994 34.2853 9.10847L34.7308 9.31408C35.0906 9.65677 35.1249 10.2222 34.7993 10.5991L31.6981 14.1117L34.885 20.1086C35.005 20.3142 35.0221 20.5541 34.9707 20.7769C34.9021 20.9996 34.7479 21.2052 34.5423 21.3251C34.371 21.428 34.1654 21.4622 33.9598 21.428C33.6856 21.3765 33.48 21.2223 33.3429 20.9996L30.4815 15.5852L29.3849 16.8189V20.537C29.3849 20.7769 29.2993 21.0167 29.1279 21.1881C28.9566 21.3594 28.7338 21.4451 28.5111 21.4451L28.3398 21.428Z" fill="#5B5B5B"/>
<path d="M67.2859 21.4091C66.3093 21.2377 65.4868 20.638 64.9899 19.7471C64.87 19.5414 64.8529 19.2844 64.9043 19.0446C64.9728 18.8047 65.1099 18.6162 65.3155 18.4963C65.4868 18.3935 65.6924 18.3592 65.8981 18.3935C66.1551 18.4449 66.3778 18.5991 66.5149 18.8389C66.7548 19.2502 67.1146 19.5072 67.5601 19.5929C68.057 19.6785 68.5025 19.5414 68.8623 19.1988C69.205 18.8732 69.3763 18.4106 69.342 17.948C69.3249 17.4682 69.085 17.0399 68.7081 16.7657L66.3264 15.018C65.5382 14.4526 65.0585 13.5616 64.9728 12.5507C64.9214 11.5226 65.2984 10.5631 66.0009 9.91203C66.7034 9.22667 67.6629 8.91825 68.6224 9.05532C69.6162 9.2438 70.4386 9.82636 70.9012 10.6659C71.004 10.8715 71.0383 11.1114 70.9869 11.3513C70.9184 11.5912 70.7813 11.7968 70.5757 11.8996C70.4043 12.0024 70.1987 12.0367 69.9931 12.0024C69.7361 11.951 69.5134 11.7968 69.3763 11.574C69.1707 11.2142 68.8109 10.9572 68.3654 10.8715C67.9199 10.803 67.4915 10.9229 67.166 11.2314C66.8576 11.5226 66.6862 11.951 66.7205 12.4136C66.7376 12.842 66.9775 13.2703 67.3373 13.5102L69.719 15.2236C70.5414 15.8233 71.0383 16.7657 71.0897 17.7938C71.1754 18.8218 70.7813 19.8156 70.0274 20.501C69.3078 21.1863 68.314 21.5119 67.3202 21.3748" fill="#5B5B5B"/>
<path d="M74.1225 21.4436C73.6942 21.3579 73.3857 20.981 73.3857 20.5526V4.72061C73.3857 4.48073 73.4885 4.24085 73.6599 4.06951C73.8312 3.89817 74.054 3.8125 74.2767 3.8125L74.4309 3.82963C74.8593 3.9153 75.1506 4.27512 75.1506 4.72061V9.19263H76.8297C77.0353 9.19263 77.2409 9.20977 77.4294 9.24404C79.0743 9.53532 80.2566 11.0089 80.2566 12.7394V20.5526C80.2566 21.0666 79.8625 21.4607 79.3827 21.4607L79.2285 21.4436C78.8001 21.375 78.4917 20.9981 78.4917 20.5526V12.7394C78.4917 11.8998 77.9092 11.1802 77.121 11.0431L76.8126 11.0089H75.1334V20.5526C75.1334 21.0666 74.7393 21.4607 74.2425 21.4607L74.1225 21.4436Z" fill="#5B5B5B"/>
<path d="M85.3452 21.3976C83.7003 21.1063 82.5181 19.6328 82.5181 17.9022V12.6249C82.5181 10.6716 84.0601 9.07812 85.962 9.07812C86.1676 9.07812 86.3561 9.09526 86.5617 9.12953C88.2066 9.42081 89.406 10.8943 89.406 12.6249V17.9022C89.406 18.8446 89.0462 19.7356 88.3951 20.421C87.744 21.0892 86.8873 21.449 85.9792 21.449C85.7564 21.449 85.5508 21.4319 85.3452 21.3976ZM86.2533 10.9286L85.962 10.8943C85.5165 10.8943 85.0882 11.0657 84.7798 11.3912C84.4714 11.7168 84.3 12.1451 84.3 12.6078V17.8851C84.3 18.7247 84.8826 19.4443 85.6708 19.5814L85.962 19.6156C86.4075 19.6156 86.8187 19.4443 87.1443 19.1188C87.4698 18.7932 87.6412 18.3649 87.6412 17.8851V12.6078C87.6241 11.7853 87.0415 11.0657 86.2533 10.9286Z" fill="#5B5B5B"/>
<path d="M102.976 10.1825C103.028 9.94265 102.993 9.7199 102.891 9.51429C102.771 9.30868 102.565 9.15448 102.325 9.10307L102.171 9.08594C101.777 9.08594 101.417 9.36008 101.314 9.7713C101.314 9.80557 100.355 13.7636 99.6179 16.7792L99.6008 16.8477L99.5836 16.7792C98.864 13.7807 97.8874 9.82271 97.8702 9.7713C97.8017 9.41149 97.5447 9.15448 97.1849 9.10307L97.0307 9.08594C96.6366 9.08594 96.311 9.36008 96.1911 9.7713C96.1739 9.80557 95.2316 13.7636 94.4948 16.7792L94.4777 16.8477L94.4605 16.7792C93.7409 13.7636 92.7642 9.82271 92.7642 9.7713C92.6786 9.42862 92.4044 9.15448 92.0789 9.10307L91.7362 9.12021C91.2736 9.24015 90.9823 9.7199 91.1022 10.1997L93.6552 20.7543C93.758 21.097 94.015 21.3711 94.3406 21.4226L94.4777 21.4397C94.8889 21.4397 95.2316 21.1655 95.3172 20.7543C95.3344 20.72 96.2939 16.7621 97.0307 13.7464L97.0478 13.6779L97.0649 13.7464C97.8188 16.7792 98.7612 20.7543 98.7612 20.7543C98.864 21.097 99.121 21.354 99.4466 21.4226L99.5836 21.4397C99.9949 21.4397 100.338 21.1655 100.423 20.7543" fill="#5B5B5B"/>
</svg>
