<svg width="60" height="13" viewBox="0 0 60 13" fill="none" xmlns="http://www.w3.org/2000/svg">
<g clip-path="url(#clip0_5783_3356)">
<path fill-rule="evenodd" clip-rule="evenodd" d="M17.6962 9.84186C17.0833 10.0842 16.4279 10.2006 15.769 10.1842C15.3002 10.2145 14.8303 10.1445 14.3907 9.97883C13.9511 9.81315 13.5518 9.55562 13.2196 9.22342C12.8874 8.89122 12.6299 8.49199 12.4642 8.05237C12.2985 7.61275 12.2285 7.14285 12.2588 6.67403C12.2389 6.17688 12.3243 5.68114 12.5095 5.21934C12.6947 4.75753 12.9754 4.34008 13.3332 3.9944C13.6911 3.64871 14.1179 3.38259 14.5859 3.21349C15.0538 3.0444 15.5522 2.97615 16.0484 3.01323C16.6181 3.01523 17.1832 3.11656 17.7181 3.31266L17.4187 4.61814C17.0134 4.41871 16.5644 4.32452 16.1132 4.34426C15.8248 4.33435 15.5376 4.3864 15.271 4.49688C15.0045 4.60737 14.7647 4.77373 14.5678 4.98475C14.371 5.19577 14.2217 5.44654 14.13 5.72016C14.0383 5.99377 14.0064 6.28386 14.0363 6.57087C14.0089 6.85631 14.0429 7.14431 14.1358 7.41558C14.2287 7.68686 14.3785 7.93516 14.5751 8.14388C14.7717 8.35261 15.0107 8.51693 15.2759 8.62587C15.5412 8.73481 15.8266 8.78585 16.1132 8.77557C16.5755 8.77605 17.0337 8.6874 17.4625 8.51448L17.698 9.84186H17.6962ZM18.6812 10.0564H20.3939V0.0371094H18.6812V10.0564ZM23.2203 7.12319C23.2289 7.38163 23.2915 7.6354 23.404 7.86823C23.5165 8.10105 23.6765 8.30778 23.8736 8.47515C24.0707 8.64252 24.3006 8.76683 24.5486 8.84011C24.7966 8.91338 25.0572 8.934 25.3136 8.90064C25.9563 8.91248 26.5954 8.80348 27.1979 8.57929L27.4544 9.75696C26.7005 10.0597 25.8929 10.2054 25.0808 10.1851C24.6131 10.2259 24.1421 10.1644 23.7005 10.0051C23.2588 9.84579 22.8571 9.59236 22.5231 9.26239C22.1892 8.93241 21.9309 8.53378 21.7663 8.0941C21.6017 7.65442 21.5346 7.1842 21.5697 6.71603C21.5697 4.81076 22.7255 3.01231 24.8882 3.01231C27.0929 3.01231 27.8214 4.85367 27.8214 6.35177C27.8215 6.59662 27.8001 6.841 27.7575 7.08211H23.2203V7.12319ZM26.2174 5.90262C26.2477 5.69805 26.234 5.48939 26.1772 5.29055C26.1204 5.09171 26.0218 4.90727 25.888 4.74957C25.7543 4.59187 25.5884 4.46453 25.4015 4.37606C25.2146 4.28759 25.0109 4.24002 24.8042 4.23654C24.3769 4.26008 23.9748 4.44614 23.6803 4.75658C23.3858 5.06703 23.2212 5.47836 23.2203 5.90627H26.2174V5.90262ZM34.2456 8.40767C34.2319 8.95933 34.2676 9.51111 34.3524 10.0564H32.8114L32.6827 9.28589H32.6398C32.399 9.5842 32.0923 9.82257 31.7438 9.98224C31.3953 10.1419 31.0145 10.2186 30.6313 10.2061C30.3553 10.221 30.0791 10.1794 29.8197 10.0839C29.5603 9.98832 29.3231 9.84082 29.1227 9.6504C28.9223 9.45998 28.7628 9.23066 28.6541 8.97647C28.5454 8.72228 28.4898 8.44858 28.4905 8.17213C28.4905 6.4595 30.0106 5.56027 32.5366 5.58127V5.47446C32.5366 5.0253 32.365 4.27579 31.1453 4.27579C30.8268 4.27501 30.5098 4.31833 30.2032 4.40451C29.8932 4.48848 29.5975 4.61834 29.3259 4.78977L28.9835 3.65501C29.7396 3.24561 30.5888 3.03898 31.4484 3.05522C33.6321 3.05522 34.2529 4.44651 34.2529 5.96652V8.40767H34.2456ZM32.5539 6.69503C31.3334 6.67403 30.1804 6.93056 30.1804 7.97951C30.1671 8.11213 30.1835 8.24605 30.2283 8.37157C30.2732 8.4971 30.3453 8.6111 30.4396 8.70535C30.5338 8.79959 30.6478 8.87174 30.7733 8.91656C30.8989 8.96139 31.0328 8.97778 31.1654 8.96455C31.2373 8.96811 31.3092 8.96103 31.379 8.94355C31.4522 8.93966 31.5245 8.92521 31.5936 8.90064C31.6672 8.87769 31.7389 8.84899 31.8081 8.81483C31.872 8.77192 31.9368 8.75092 32.0007 8.70802C32.0631 8.66434 32.1206 8.61415 32.1723 8.5583C32.2275 8.50586 32.2776 8.44841 32.3221 8.38667L32.4508 8.19404C32.4882 8.13413 32.5171 8.0693 32.5366 8.00142C32.5719 7.87622 32.5864 7.74607 32.5795 7.61616V6.69503H32.5539ZM35.7437 5.41055C35.7437 4.49033 35.7227 3.80473 35.6798 3.20585H37.1569L37.2208 4.51133H37.2637C37.3867 4.10246 37.6345 3.74229 37.9724 3.48121C38.3103 3.22012 38.7213 3.07118 39.148 3.05522C39.2846 3.0589 39.4207 3.07324 39.5551 3.09813V4.72586C39.3848 4.70094 39.2132 4.68661 39.0412 4.68296C38.6684 4.67188 38.3048 4.79911 38.0203 5.04014C37.7357 5.28117 37.5505 5.61895 37.5001 5.98843C37.4752 6.1587 37.4609 6.33036 37.4572 6.5024V10.0792H35.7437V5.41055ZM42.723 1.4284V3.18394H44.3498V4.48942H42.723V7.50844C42.723 8.36476 42.9375 8.77192 43.6003 8.77192C43.8231 8.77292 44.0454 8.75151 44.264 8.70802L44.285 10.0135C43.8862 10.1523 43.4655 10.2175 43.0434 10.2061C42.7722 10.2193 42.5011 10.1767 42.2471 10.0809C41.993 9.98514 41.7613 9.83821 41.5663 9.64924C41.1443 9.10075 40.9525 8.40956 41.0313 7.72206V4.51041H40.0682V3.20585H41.0313V1.92137L42.723 1.4284ZM45.3138 5.41055C45.3138 4.49033 45.2928 3.80473 45.2499 3.20585H46.727L46.7909 4.51133H46.8338C46.955 4.10553 47.1994 3.74743 47.533 3.48657C47.8667 3.2257 48.2731 3.07497 48.6962 3.05522C48.8328 3.05889 48.9689 3.07324 49.1033 3.09813V4.72586C48.9331 4.70094 48.7614 4.68661 48.5894 4.68296C48.2166 4.67188 47.853 4.79911 47.5685 5.04014C47.284 5.28117 47.0987 5.61895 47.0484 5.98843C47.0234 6.1587 47.0091 6.33036 47.0055 6.5024V10.0792H45.2919V5.41055H45.3138ZM50.816 2.1989C50.7511 2.20252 50.686 2.19543 50.6234 2.1779C50.5637 2.17647 50.5051 2.16182 50.4517 2.135C50.3905 2.11519 50.3327 2.08626 50.2801 2.04918C50.2372 2.00628 50.1733 1.98528 50.1304 1.94237C50.0823 1.89717 50.0391 1.84698 50.0017 1.79265C49.9605 1.74264 49.9312 1.68397 49.9158 1.62102C49.8915 1.56679 49.877 1.50869 49.8729 1.4494C49.8554 1.38677 49.8483 1.3217 49.8519 1.25677C49.8472 1.12972 49.869 1.00307 49.916 0.884943C49.963 0.766811 50.0341 0.659799 50.1249 0.570762C50.2156 0.481725 50.324 0.412627 50.443 0.367893C50.562 0.323158 50.689 0.303775 50.816 0.310985C50.9423 0.306234 51.0683 0.327346 51.1863 0.373027C51.3042 0.418709 51.4115 0.487995 51.5017 0.576639C51.5919 0.665282 51.663 0.771414 51.7107 0.888524C51.7584 1.00563 51.7817 1.13126 51.7791 1.25768C51.7864 1.38513 51.7663 1.51266 51.7202 1.6317C51.6741 1.75074 51.6031 1.85852 51.5118 1.94778C51.4206 2.03705 51.3112 2.10573 51.1912 2.1492C51.0712 2.19268 50.9432 2.20993 50.816 2.19981V2.1989ZM49.9624 10.0564H51.675V3.2095H49.9624V10.0564ZM53.238 5.47537C53.238 4.57614 53.217 3.84855 53.174 3.18485H54.6941L54.7799 4.2338H54.8009C55.0501 3.84496 55.3964 3.52785 55.8056 3.3138C56.2148 3.09974 56.6728 2.99614 57.1343 3.01323C58.6972 3.01323 60.0027 4.36161 60.0027 6.5024C60.0027 8.98554 58.4617 10.1842 56.8988 10.1842C56.5292 10.2048 56.1605 10.1311 55.8273 9.97014C55.494 9.80918 55.2071 9.5662 54.9935 9.26398H54.9725V12.818H53.2562V5.47446L53.238 5.47537ZM54.9725 7.18801C54.9752 7.34587 54.9895 7.50332 55.0154 7.65907C55.0984 8.00172 55.2926 8.30723 55.5676 8.52788C55.8426 8.74854 56.1829 8.87191 56.5354 8.87873C57.6309 8.87873 58.27 7.95851 58.27 6.60921C58.27 5.38864 57.6921 4.40451 56.5783 4.40451C56.214 4.41253 55.8632 4.54395 55.5832 4.77729C55.3033 5.01062 55.1108 5.33205 55.0373 5.68899C55.0071 5.83024 54.9858 5.97324 54.9734 6.11715V7.18709L54.9725 7.18801Z" fill="#2B2B2B"/>
<path d="M9.56283 9.99057H1.64326C1.57121 9.99398 1.49903 9.98753 1.42872 9.9714C1.38881 9.95576 1.34795 9.94265 1.30639 9.93214L1.2151 9.90567C1.14557 9.87863 1.08012 9.84207 1.02065 9.79703C0.975634 9.74892 0.92507 9.70632 0.870015 9.67013L0.850844 9.64914C0.806477 9.6068 0.770271 9.55667 0.744032 9.50124L0.737642 9.49029C0.694651 9.43471 0.659906 9.37321 0.634482 9.3077L0.618049 9.25476C0.600684 9.20018 0.583946 9.1454 0.567839 9.09043C0.551229 9.02113 0.544468 8.94983 0.547755 8.87863V1.14712C0.544294 1.07623 0.551058 1.0052 0.567839 0.936237C0.584216 0.89268 0.597935 0.84817 0.60892 0.802951L0.633569 0.720788C0.659185 0.651522 0.696213 0.587031 0.743119 0.529988C0.759552 0.503513 0.778723 0.477952 0.796069 0.455129L0.807024 0.440522L0.81524 0.43048C0.833498 0.406744 0.851757 0.382095 0.869102 0.35562C0.896776 0.337912 0.923026 0.318072 0.947613 0.296281L0.963133 0.285326L0.975001 0.277109C0.994476 0.260677 1.01578 0.244549 1.03891 0.228725C1.09961 0.185087 1.16517 0.148631 1.23427 0.120087L1.27079 0.109132L1.30456 0.0981773C1.34838 0.0844835 1.39494 0.0717027 1.44881 0.0589218C1.51747 0.0386055 1.58911 0.0302674 1.6606 0.034273H9.58565C9.65805 0.0300419 9.73064 0.0383814 9.80019 0.0589218L9.89148 0.0835706C9.91157 0.090874 9.93256 0.0963515 9.95082 0.101829C9.97098 0.106614 9.9908 0.112713 10.0102 0.120087C10.0793 0.148631 10.1448 0.185087 10.2055 0.228725C10.2274 0.242589 10.2482 0.258157 10.2676 0.275284L10.2886 0.291716L10.3023 0.302671C10.3257 0.32189 10.3501 0.339869 10.3753 0.356533C10.4301 0.40533 10.4745 0.464625 10.5059 0.530901C10.5241 0.56034 10.5405 0.590823 10.5552 0.622193C10.5714 0.657386 10.5903 0.691267 10.6118 0.723527L10.6246 0.764608V0.771912C10.641 0.822122 10.6574 0.873246 10.6729 0.936237C10.6889 1.00502 10.6954 1.07567 10.6921 1.14621V8.87863H10.6729V8.88959C10.6756 8.95931 10.6686 9.02906 10.6519 9.09682C10.6352 9.14166 10.6209 9.18737 10.609 9.23376L10.5899 9.30588C10.5607 9.37457 10.5239 9.43979 10.4803 9.50033C10.4652 9.52318 10.4487 9.54513 10.431 9.56606L10.421 9.57884L10.4118 9.59162C10.3911 9.61662 10.3719 9.64284 10.3543 9.67013L10.337 9.68474C10.2945 9.73271 10.2422 9.771 10.1836 9.79703C10.1547 9.81634 10.1241 9.83314 10.0923 9.84724H10.0786C10.0467 9.86187 10.0162 9.87928 9.98734 9.89928C9.9168 9.92426 9.84523 9.94619 9.7728 9.96501C9.70434 9.98324 9.63367 9.99185 9.56283 9.99057ZM3.16144 3.86853L2.22022 5.38854L4.25421 7.44626L9.43411 4.18714L8.49015 2.60323L4.4231 6.07232L3.16144 3.86853Z" fill="#2B2B2B"/>
</g>
<defs>
<clipPath id="clip0_5783_3356">
<rect width="59.452" height="12.7827" fill="white" transform="translate(0.547852 0.0351562)"/>
</clipPath>
</defs>
</svg>
