<svg width="52" height="18" viewBox="0 0 52 18" fill="none" xmlns="http://www.w3.org/2000/svg">
<g clip-path="url(#clip0_5532_2258)">
<path d="M41.1318 11.8369C41.1318 11.2709 41.5092 10.8151 41.999 10.8151C42.6173 10.8151 42.9431 11.4247 42.9431 12.2665C42.9431 13.117 42.6086 13.744 41.9729 13.744C41.552 13.744 41.1311 13.4087 41.1311 12.7302V11.8376L41.1318 11.8369ZM40.9337 9.90514H39.843C39.8604 10.334 39.8771 10.8413 39.8771 11.4508V16.5183H41.1311V14.1649H41.1485C41.3546 14.4828 41.7494 14.7143 42.2653 14.7143C43.2269 14.7143 44.2058 13.9501 44.2058 12.215C44.2058 10.7636 43.4417 9.80136 42.4112 9.80136C41.8016 9.80136 41.3205 10.0677 41.0106 10.5488H40.9939L40.9337 9.90514ZM37.4896 14.6199H38.7436V9.8957H37.4896V14.6199ZM38.7864 8.60761C38.7864 8.22155 38.5114 7.9378 38.1079 7.9378C38.0192 7.93509 37.9309 7.95056 37.8484 7.98326C37.7659 8.01596 37.691 8.0652 37.6282 8.12794C37.5655 8.19069 37.5162 8.26562 37.4835 8.34811C37.4508 8.4306 37.4354 8.51892 37.4381 8.60761C37.4381 8.98569 37.7131 9.27742 38.1079 9.27742C38.5034 9.28613 38.7864 9.0198 38.7864 8.60761ZM35.3082 10.7208L35.2567 9.89643H34.1827C34.2001 10.3173 34.2175 10.789 34.2175 11.3732V14.6199H35.4715V12.1809C35.4715 11.3732 35.9011 10.9958 36.4678 10.9958C36.5963 10.9958 36.7001 11.0038 36.7944 11.0212V9.82821C36.701 9.80935 36.6059 9.8006 36.5107 9.80209C36.0723 9.80209 35.5571 10.1199 35.3423 10.7302H35.3082V10.7215V10.7208ZM29.0818 8.10108V9.18308H30.6878V14.6199H31.9417V9.18308H33.5557V8.10181H29.0811L29.0818 8.10108ZM27.0368 12.3696C26.9665 12.6637 26.9007 12.9588 26.8395 13.2549H26.8141C26.7446 12.9585 26.6701 12.6634 26.5905 12.3696L25.8946 9.90441H24.5209L26.1101 14.2418C26.1443 14.3362 26.1609 14.4051 26.1609 14.4566C26.1609 14.551 25.9469 15.0321 25.534 15.3325C25.3112 15.4871 25.0789 15.625 24.8736 15.6765L25.1907 16.7331C25.4737 16.6809 25.9548 16.5096 26.4099 16.0713C26.9425 15.5386 27.346 14.7055 27.8707 13.1772L28.9352 9.89643H27.6297L27.0376 12.3696H27.0368ZM22.0732 8.10108L21.3344 10.5488C21.1191 11.3094 20.9301 12.0771 20.7677 12.8507H20.7415C20.5851 12.078 20.4048 11.3104 20.2009 10.5488L19.497 8.10108H17.9418L17.5035 14.6199H18.6465L18.7749 12.1119C18.8185 11.305 18.8606 10.3427 18.878 9.51835H18.9034C19.0579 10.3166 19.2648 11.2019 19.4709 11.932L20.1922 14.5256H21.1457L21.944 11.8884C22.1675 11.1584 22.399 10.2919 22.5884 9.51835H22.6138C22.6058 10.1794 22.6486 11.2273 22.6827 12.0865L22.8032 14.6199H23.997L23.6269 8.10108H22.0732ZM13.8874 11.7687C13.9223 11.3043 14.1799 10.678 14.7815 10.678C15.3998 10.678 15.5971 11.2789 15.5884 11.7687H13.8882H13.8874ZM16.7053 12.6359C16.7309 12.4712 16.7424 12.3047 16.7394 12.1381C16.7394 10.6091 15.9919 9.80136 14.8497 9.80136C13.4673 9.80136 12.6857 10.9697 12.6857 12.3267C12.6857 13.7955 13.5188 14.7143 14.9789 14.7143C15.563 14.7143 16.1124 14.6112 16.5079 14.4399L16.3265 13.572C16.0006 13.6838 15.64 13.7694 15.1762 13.7694C14.4977 13.7694 13.9223 13.4428 13.8882 12.6446H16.7053V12.6359ZM8.8969 14.3964C9.21475 14.5851 9.71329 14.7143 10.2285 14.7143C11.4049 14.7143 12.0834 14.1221 12.0834 13.2193C12.0834 12.5669 11.714 12.1119 10.915 11.7774C10.3744 11.5452 10.1944 11.4167 10.1944 11.1504C10.1944 10.8928 10.4005 10.7034 10.7779 10.7034C11.1306 10.7034 11.4651 10.8413 11.6712 10.9523L11.9121 10.0677C11.6364 9.92255 11.2249 9.80136 10.7438 9.80136C9.69588 9.80136 9.01736 10.4458 9.01736 11.2963C9.01736 11.8115 9.34392 12.3093 10.2198 12.67C10.7351 12.8935 10.8983 13.0401 10.8983 13.3318C10.8983 13.6235 10.6835 13.8035 10.2452 13.8035C9.85916 13.8035 9.38673 13.6323 9.14653 13.4864L8.8969 14.3964ZM6.84466 13.0053C6.84466 13.6069 6.35482 13.8209 6.05366 13.8209C5.73654 13.8209 5.4615 13.6235 5.4615 13.1772C5.4615 12.49 6.16542 12.3267 6.84466 12.3267V13.0053ZM4.80041 11.0212C5.15091 10.8109 5.5513 10.6982 5.96005 10.6947C6.64727 10.6947 6.80983 11.0474 6.80983 11.5191C5.30766 11.5191 4.23365 12.0865 4.23365 13.297C4.23365 14.0619 4.77428 14.7143 5.65091 14.7143C6.17485 14.7143 6.63784 14.4994 6.90489 14.1301H6.93029L7.00794 14.6199H8.13275C8.08123 14.3282 8.06381 13.916 8.06381 13.5038V11.7767C8.06381 10.7462 7.66904 9.81007 6.20025 9.81007C5.4615 9.81007 4.87733 10.0249 4.5602 10.2056L4.79968 11.0212H4.80041ZM1.25326 11.76H3.38314V10.7375H1.25398V9.15768H3.51232V8.10979H0V14.6286H3.64149V13.58H1.25398V11.7585L1.25326 11.76Z" fill="#2B2B2B"/>
<path fill-rule="evenodd" clip-rule="evenodd" d="M8.10742 10.5141C11.5595 3.54023 20.9905 8.87402 26.2205 4.21875C21.0072 9.66356 10.6923 5.06853 8.10742 10.5141Z" fill="#2B2B2B"/>
<path fill-rule="evenodd" clip-rule="evenodd" d="M20.3035 0.0163767L32.5421 1.03016C33.135 1.06427 33.04 1.18473 32.7482 1.45904L26.7795 7.30806C26.4442 7.67816 26.3666 7.57439 25.9718 7.1368L23.6351 4.49095C23.3267 4.16439 23.2751 4.09618 23.8071 3.90677L29.6133 2.03451L23.0778 3.20286C22.5879 3.30591 22.6481 3.37485 22.3042 2.88501L20.1315 0.394459C19.8564 0.0940249 19.8826 -0.0525634 20.3035 0.0171023V0.0163767Z" fill="#2B2B2B"/>
<path fill-rule="evenodd" clip-rule="evenodd" d="M23.8241 4.3468L24.4598 5.02531C24.769 5.36058 24.6833 5.36856 24.3306 5.58409L22.3132 6.52821C22.0723 6.67407 21.9177 6.55433 22.0897 6.2793L23.3691 4.22633C23.4896 3.96872 23.6267 4.1066 23.8241 4.3468Z" fill="#2B2B2B"/>
<path d="M48.8872 16.7574C48.915 16.7582 48.9422 16.7492 48.9641 16.732C48.9905 16.7155 49.0115 16.6915 49.0244 16.6631C49.0498 16.6195 49.0846 16.56 49.1274 16.4657C49.1789 16.3793 49.2304 16.277 49.2994 16.1645L49.5055 15.83C49.5737 15.7182 49.6506 15.6065 49.7203 15.5122C49.7772 15.4301 49.8403 15.3525 49.909 15.2799C49.9692 15.2204 50.012 15.1856 50.0548 15.1856C50.081 15.1856 50.0984 15.1943 50.1063 15.2117C50.1151 15.2284 50.1238 15.2545 50.1325 15.2799C50.1394 15.3052 50.1421 15.3314 50.1405 15.3576V15.4178C50.1405 15.5637 50.1325 15.7095 50.1151 15.8554C50.098 16.0009 50.0895 16.1472 50.0897 16.2937C50.0897 16.3539 50.0897 16.4222 50.0976 16.4998C50.1064 16.5775 50.1151 16.6457 50.1412 16.7146C50.1631 16.7785 50.1982 16.8371 50.2442 16.8866C50.287 16.9294 50.3553 16.9548 50.4329 16.9548C50.5332 16.952 50.6309 16.9225 50.7159 16.8692C50.819 16.809 50.914 16.74 51.0084 16.6631C51.1027 16.5854 51.1971 16.4998 51.2747 16.4055C51.3603 16.3191 51.4206 16.2335 51.4721 16.1733C51.4808 16.1566 51.4895 16.1479 51.5062 16.1225C51.5159 16.1066 51.5219 16.0887 51.5236 16.0702C51.5229 16.0465 51.517 16.0232 51.5062 16.002C51.4982 15.9759 51.4808 15.9672 51.4467 15.9672C51.4119 15.9672 51.3865 15.9846 51.3603 16.0107C51.3349 16.0448 51.3095 16.0702 51.2914 16.0963C51.2573 16.1391 51.2145 16.1907 51.1542 16.2596C51.094 16.3278 51.0258 16.3881 50.9569 16.457C50.8895 16.5168 50.8177 16.5714 50.742 16.6203C50.6861 16.659 50.6211 16.6825 50.5534 16.6885C50.5374 16.6894 50.5213 16.6869 50.5064 16.681C50.4915 16.6751 50.4781 16.666 50.467 16.6544C50.4495 16.6307 50.4351 16.6048 50.4242 16.5775C50.4155 16.5426 50.4155 16.5172 50.4155 16.4831V16.3968C50.4155 16.2081 50.4242 16.0194 50.4503 15.838C50.4757 15.658 50.4844 15.4693 50.4844 15.2799C50.4844 15.2371 50.4757 15.1856 50.467 15.1428C50.4606 15.0965 50.4432 15.0525 50.4162 15.0143C50.3917 14.9743 50.3596 14.9393 50.3219 14.9113C50.281 14.884 50.2332 14.8689 50.184 14.8677C50.1033 14.8699 50.0252 14.897 49.9605 14.9454C49.895 14.9904 49.8344 15.0422 49.7798 15.1C49.7203 15.1689 49.6601 15.2378 49.6085 15.3148C49.557 15.3917 49.5055 15.4693 49.454 15.5383L49.2479 15.8213C49.1789 15.9156 49.1187 16.01 49.0592 16.113C49.0498 16.1217 49.0418 16.1391 49.0244 16.1645C49.0069 16.1907 48.9982 16.2081 48.9903 16.2081C48.9815 16.2081 48.9728 16.1907 48.9641 16.1645C48.9554 16.1391 48.9554 16.105 48.9554 16.0615C48.9554 16.0274 48.9467 15.9846 48.9467 15.9505V15.8641C48.9467 15.7698 48.9467 15.6754 48.9554 15.5724C48.9554 15.478 48.9641 15.3837 48.9641 15.2894C48.9641 15.2545 48.9641 15.2117 48.9554 15.1689L48.93 15.031C48.9152 14.9912 48.8949 14.9536 48.8698 14.9193C48.8551 14.9048 48.8376 14.8935 48.8184 14.8861C48.7992 14.8788 48.7786 14.8755 48.758 14.8765C48.6891 14.8765 48.6201 14.9106 48.5432 14.9795C48.4616 15.0556 48.384 15.136 48.311 15.2204C48.2341 15.3148 48.1659 15.4091 48.1056 15.5034C48.0454 15.5978 47.9939 15.6754 47.959 15.727C47.9765 15.6326 47.9939 15.5383 48.0193 15.4439C48.0454 15.3496 48.0708 15.2545 48.1056 15.1682C48.1223 15.1341 48.131 15.1 48.1564 15.0484C48.1739 15.0049 48.2 14.9541 48.2167 14.9106C48.2341 14.8598 48.2515 14.8162 48.2682 14.7734C48.2856 14.7306 48.2856 14.6878 48.2856 14.6529C48.2856 14.6188 48.2769 14.5847 48.2602 14.5673C48.2428 14.5419 48.2167 14.5332 48.1826 14.5332C48.1082 14.5346 48.0349 14.5519 47.9678 14.584C47.8966 14.6135 47.8366 14.6648 47.7965 14.7306C47.7791 14.7741 47.753 14.8423 47.7276 14.9367C47.7014 15.0397 47.6673 15.1515 47.6412 15.2799C47.6158 15.4091 47.5817 15.5463 47.5556 15.6928C47.5232 15.8289 47.4975 15.9665 47.4786 16.105C47.4525 16.2335 47.4351 16.3539 47.4184 16.4657C47.401 16.5775 47.3923 16.6544 47.3923 16.7059C47.3929 16.7338 47.402 16.7609 47.4184 16.7836C47.4351 16.809 47.4612 16.8177 47.4953 16.8177C47.5167 16.8183 47.5379 16.814 47.5573 16.8051C47.5767 16.7961 47.5937 16.7828 47.6071 16.7661C47.633 16.7338 47.6561 16.6994 47.676 16.6631C47.6934 16.6195 47.7268 16.56 47.7704 16.4744C47.8139 16.3881 47.8734 16.2857 47.9337 16.182C47.9939 16.0702 48.0621 15.9584 48.1397 15.8474C48.2167 15.7357 48.2856 15.6239 48.3546 15.5296C48.4228 15.4352 48.483 15.3576 48.5432 15.2973C48.6035 15.2371 48.6463 15.203 48.6811 15.203C48.7065 15.203 48.7239 15.2204 48.7239 15.2466C48.7239 15.272 48.7319 15.2973 48.7319 15.3061V15.6754C48.7319 15.7611 48.7319 15.8474 48.7406 15.9418C48.7406 16.0361 48.7493 16.1304 48.758 16.2248C48.7667 16.3191 48.7754 16.4055 48.7842 16.4824C48.7897 16.5508 48.8068 16.6178 48.835 16.6805C48.827 16.7313 48.8524 16.7574 48.8872 16.7574ZM46.602 15.2284C46.6884 15.2284 46.7566 15.272 46.7907 15.3489C46.8342 15.4345 46.8517 15.5296 46.8596 15.6493C46.8596 15.8039 46.8429 15.9418 46.8088 16.0615C46.7768 16.1704 46.7304 16.2746 46.671 16.3714C46.6194 16.4471 46.5556 16.5138 46.4823 16.5687C46.4245 16.6102 46.3559 16.6339 46.2849 16.637C46.216 16.637 46.1557 16.6029 46.1035 16.5339C46.0527 16.4657 46.0353 16.3627 46.0353 16.2161C46.0353 16.113 46.0527 16.002 46.0788 15.8895C46.1121 15.7814 46.1521 15.6755 46.1985 15.5724C46.2501 15.478 46.3103 15.3917 46.3792 15.3315C46.4077 15.3003 46.442 15.2752 46.4803 15.2575C46.5185 15.2398 46.5599 15.2299 46.602 15.2284ZM45.6746 16.2161C45.6746 16.4396 45.7261 16.6116 45.8125 16.7146C45.9068 16.8177 46.0186 16.8779 46.147 16.8779C46.2586 16.8766 46.368 16.8469 46.4649 16.7915C46.5766 16.732 46.671 16.6464 46.7653 16.5339C46.8517 16.4222 46.9286 16.285 46.9888 16.1217C47.0503 15.9395 47.0793 15.7479 47.0744 15.5557C47.0744 15.4686 47.0665 15.383 47.0403 15.2973C47.0223 15.2247 46.9935 15.1552 46.9547 15.0913C46.9172 15.0322 46.8651 14.9838 46.8034 14.9508C46.7418 14.9177 46.6727 14.9011 46.6027 14.9026C46.4649 14.9026 46.3444 14.9454 46.2247 15.0223C46.1129 15.1087 46.0099 15.211 45.9322 15.3402C45.8521 15.4721 45.7887 15.6135 45.7435 15.7611C45.7009 15.9093 45.6777 16.0625 45.6746 16.2168V16.2161ZM44.4634 16.8946C44.61 16.8946 44.7464 16.8692 44.8843 16.8177C45.0195 16.771 45.1469 16.7045 45.2624 16.6203C45.3803 16.5366 45.4871 16.4383 45.5803 16.3278C45.6746 16.2161 45.7602 16.105 45.8205 15.9846C45.8307 15.9652 45.8395 15.9451 45.8466 15.9243C45.8553 15.8989 45.8633 15.8808 45.8633 15.8641C45.8633 15.8133 45.8379 15.7872 45.7864 15.7872C45.7522 15.7872 45.7261 15.8039 45.7007 15.83C45.6746 15.8641 45.6572 15.8902 45.6405 15.9156C45.5861 16.0055 45.5257 16.0915 45.4598 16.1733C45.3916 16.2596 45.3052 16.3278 45.2276 16.3968C45.1433 16.4624 45.0511 16.5172 44.9533 16.56C44.8589 16.6036 44.7472 16.6203 44.6441 16.6203C44.5964 16.6216 44.5489 16.6132 44.5046 16.5954C44.4603 16.5777 44.4201 16.5511 44.3865 16.5172C44.3361 16.4677 44.3004 16.4051 44.2835 16.3365C44.258 16.2618 44.2462 16.1832 44.2486 16.1043C44.2496 15.9165 44.2845 15.7304 44.3517 15.555C44.3865 15.4693 44.4206 15.3837 44.4634 15.3148C44.507 15.2458 44.5498 15.1856 44.5839 15.1428C44.6168 15.109 44.6544 15.0801 44.6956 15.0571C44.7346 15.0336 44.7793 15.0216 44.8248 15.0223C44.8843 15.0223 44.9192 15.0397 44.9279 15.0825C44.9358 15.1261 44.9446 15.1689 44.9446 15.2117C44.9455 15.2799 44.9308 15.3474 44.9017 15.4091C44.8739 15.4498 44.8588 15.4977 44.8582 15.547C44.8582 15.5811 44.8763 15.5978 44.9104 15.5978C44.9533 15.5978 44.9961 15.5811 45.0389 15.547C45.0871 15.4969 45.1199 15.4339 45.1332 15.3656C45.1506 15.2886 45.1594 15.2284 45.1594 15.1689C45.1594 15.031 45.1253 14.9367 45.0476 14.8765C44.9787 14.8162 44.8763 14.7908 44.7559 14.7908C44.6528 14.7908 44.5498 14.8162 44.4634 14.8511C44.2986 14.9331 44.1614 15.0615 44.0687 15.2204C44.0171 15.2973 43.983 15.383 43.9482 15.4693C43.9145 15.5591 43.8859 15.6507 43.8626 15.7436C43.8451 15.838 43.8364 15.9323 43.8364 16.0361C43.8364 16.1645 43.8539 16.2937 43.8967 16.4135C43.9321 16.5312 43.997 16.6378 44.0853 16.7233C44.1289 16.7661 44.1891 16.809 44.2486 16.8351C44.3009 16.8779 44.3778 16.8946 44.4634 16.8946ZM42.9867 16.7836C43.0636 16.7836 43.1151 16.7574 43.1412 16.7059C43.1664 16.6494 43.1781 16.5878 43.1753 16.5259C43.1758 16.4991 43.1697 16.4726 43.1577 16.4486C43.1457 16.4246 43.1281 16.4038 43.1064 16.3881C43.066 16.3525 43.015 16.3313 42.9613 16.3278C42.8916 16.3278 42.8488 16.3539 42.8234 16.4142C42.7998 16.4681 42.7882 16.5266 42.7893 16.5854C42.788 16.6127 42.7926 16.64 42.8029 16.6653C42.8132 16.6906 42.8288 16.7134 42.8488 16.732C42.8749 16.7661 42.9264 16.7828 42.9867 16.7828V16.7836Z" fill="#2B2B2B"/>
</g>
<defs>
<clipPath id="clip0_5532_2258">
<rect width="51.5236" height="17.4164" fill="white"/>
</clipPath>
</defs>
</svg>
