<svg width="44" height="15" viewBox="0 0 44 15" fill="none" xmlns="http://www.w3.org/2000/svg">
<g clip-path="url(#clip0_7246_2429)">
<path fill-rule="evenodd" clip-rule="evenodd" d="M16.562 1.04688C17.197 1.04688 17.7068 1.51196 17.7068 2.08437C17.7068 2.65678 17.197 3.12186 16.562 3.12186C15.927 3.12186 15.4082 2.65678 15.4082 2.08437C15.4082 1.51196 15.927 1.04688 16.562 1.04688ZM15.605 4.14147H17.5458V10.6258H15.605V4.14147Z" fill="#2B2B2B"/>
<path fill-rule="evenodd" clip-rule="evenodd" d="M4.93441 7.79929C4.70187 9.93688 1.84876 9.82061 2.23335 6.99433C2.34962 6.11783 2.93992 5.29499 3.98636 5.5812C4.83603 5.80479 5.04174 6.76179 4.93441 7.80823V7.79929ZM4.91652 9.72223C5.13118 12.2355 3.10091 12.6111 1.38368 11.9672C1.16008 11.8867 0.954367 11.7436 0.748657 11.672V13.3087C0.927535 13.5502 1.98292 13.6844 2.35856 13.7112C4.06685 13.8096 5.78408 13.4071 6.54432 11.8419C7.06307 10.7955 6.93785 9.45391 6.93785 8.18388V4.11439H4.92547V4.88357C4.71976 4.73152 4.49616 4.15017 3.52127 3.99812C2.85048 3.89079 2.12602 4.05178 1.64305 4.35588C0.739713 4.91935 0.158358 5.96578 0.149414 7.47731C0.149414 8.97094 0.677105 10.071 1.66094 10.5451C2.19757 10.8044 2.97569 10.8849 3.61071 10.7061C4.49616 10.4467 4.71976 9.87428 4.91652 9.71329V9.72223Z" fill="#2B2B2B"/>
<path fill-rule="evenodd" clip-rule="evenodd" d="M34.2976 7.76387C34.2261 8.2379 34.0561 8.64932 33.8146 8.89975C33.5732 9.14123 33.0723 9.338 32.5804 9.22173C31.5518 8.98918 31.5518 7.81753 31.6055 6.99469C31.6681 6.11819 32.321 5.34006 33.3317 5.56366C34.1992 5.76043 34.4497 6.78004 34.3066 7.76387H34.2976ZM29.611 10.6528H31.6234V9.89252C31.7665 9.97302 32.0348 10.608 33.0186 10.778C33.6984 10.8942 34.4407 10.7422 34.9326 10.4292C35.836 9.83886 36.3637 8.82819 36.3994 7.29878C36.4263 5.84092 35.9165 4.65138 34.9147 4.19524C34.0919 3.8196 32.9024 3.90009 32.1869 4.50828C31.9543 4.70505 31.6771 5.08069 31.6323 5.10752C31.6144 4.48145 31.6771 1.26164 31.6144 0.984375H29.6289C29.5663 1.25269 29.611 5.17013 29.611 5.78726V10.6528ZM23.4308 7.76387C23.1624 9.69575 21.32 9.57054 20.8638 8.47938C20.7029 8.08585 20.7029 7.45977 20.7386 6.98575C20.7923 6.1003 21.4631 5.33112 22.4648 5.56366C23.3234 5.76043 23.5739 6.7532 23.4308 7.76387ZM18.7441 10.6528H20.7565V9.89252C20.9265 10.0088 20.8907 10.134 21.3289 10.447C22.5543 11.3146 25.461 10.8316 25.5326 7.28984C25.5594 5.83198 25.0585 4.62455 24.03 4.17735C23.0641 3.75699 21.7225 3.93587 21.0338 4.7766C20.9622 4.86604 20.837 5.04492 20.7655 5.09858V0.993319H18.7441V10.6528ZM40.3795 9.24856C39.2436 9.24856 38.8322 8.54199 38.8322 7.38822C38.8322 6.28812 39.2883 5.52789 40.3795 5.52789C41.5601 5.52789 41.7837 6.47594 41.7837 7.47766C41.7837 8.47938 41.3812 9.23961 40.3795 9.23961V9.24856ZM36.8019 7.89803C37.0076 9.91041 38.5907 11.0284 40.8267 10.7869C42.8122 10.5723 44.0286 9.08757 43.814 6.86053C43.4204 2.71055 36.2832 2.88943 36.793 7.89803H36.8019Z" fill="#2B2B2B"/>
<path fill-rule="evenodd" clip-rule="evenodd" d="M9.78172 7.79917C9.52234 5.30381 11.4811 5.24121 12.2055 5.83151C12.9121 6.41286 13.0731 8.91716 11.6331 9.22125C11.1412 9.32858 10.5688 9.19442 10.2915 8.94399C9.99637 8.67567 9.83538 8.31792 9.78172 7.79917ZM10.8282 3.998C8.78894 4.20371 7.53679 5.56319 7.72461 7.81706C7.89455 9.86521 9.44185 10.9921 11.651 10.7954C13.6992 10.6165 14.9066 9.18548 14.7545 6.95844C14.6204 4.94606 13.0015 3.78335 10.8192 3.998H10.8282Z" fill="#2B2B2B"/>
<path d="M33.2959 13.7468C33.2959 13.6126 33.3406 13.5053 33.4211 13.4069C33.5016 13.3085 33.6089 13.2638 33.7252 13.2638C33.8415 13.2638 33.9488 13.3085 34.0293 13.4069C34.1187 13.5053 34.1545 13.6126 34.1545 13.7468C34.1545 13.8809 34.1098 13.9972 34.0293 14.0866C33.9488 14.1761 33.8415 14.2297 33.7252 14.2297C33.6089 14.2297 33.5016 14.185 33.4211 14.0866C33.3317 13.9972 33.2959 13.8809 33.2959 13.7468ZM36.5604 13.4785V14.0598C36.2742 14.1761 36.0238 14.2297 35.7823 14.2297C35.3798 14.2297 35.0578 14.1135 34.8164 13.863C34.5749 13.6216 34.4497 13.2996 34.4497 12.906C34.4497 12.5125 34.5749 12.1995 34.8164 11.9401C35.0578 11.6897 35.3709 11.5645 35.7465 11.5645C35.988 11.5645 36.2474 11.6181 36.5157 11.7344V12.3336C36.3381 12.2243 36.134 12.1655 35.9254 12.1637C35.7108 12.1637 35.5408 12.2352 35.4067 12.3694C35.2725 12.5036 35.2099 12.6824 35.2099 12.906C35.2099 13.1296 35.2725 13.3175 35.3977 13.4606C35.5229 13.6037 35.6929 13.6663 35.8986 13.6663C36.0506 13.6663 36.2653 13.6037 36.5425 13.4874L36.5604 13.4785ZM38.072 11.5645C38.4297 11.5645 38.7338 11.6807 38.9842 11.9133C39.2347 12.1458 39.3599 12.4767 39.3599 12.8971C39.3599 13.3175 39.2347 13.6484 38.9753 13.8809C38.7249 14.1135 38.4208 14.2297 38.063 14.2297C37.6784 14.2297 37.3743 14.1045 37.1239 13.863C36.8824 13.6126 36.7572 13.2906 36.7572 12.8971C36.7572 12.5036 36.8824 12.1726 37.1239 11.9312C37.3743 11.6897 37.6784 11.5645 38.0541 11.5645H38.072ZM38.072 13.7557C38.4118 13.7557 38.5907 13.4606 38.5907 12.8792C38.5907 12.2979 38.4208 12.0474 38.072 12.0474C37.911 12.0474 37.7768 12.119 37.6874 12.271C37.5979 12.4141 37.5443 12.6288 37.5443 12.906C37.5443 13.4785 37.7231 13.7647 38.072 13.7647V13.7557ZM40.4242 11.6181V11.949C40.6657 11.6986 40.934 11.5645 41.2202 11.5645C41.6137 11.5645 41.891 11.7433 42.0431 12.11C42.3203 11.7433 42.6244 11.5645 42.9464 11.5645C43.2147 11.5645 43.4294 11.6539 43.5904 11.8328C43.7603 12.0116 43.8408 12.2442 43.8408 12.5304V14.1761H43.1163V12.6735C43.1163 12.4946 43.0805 12.3515 43.0001 12.2531C42.9643 12.2041 42.9171 12.1646 42.8625 12.138C42.8079 12.1115 42.7477 12.0988 42.687 12.1011C42.4724 12.1011 42.2845 12.2442 42.1146 12.5304V14.1671H41.3901V12.6467C41.3901 12.4678 41.3544 12.3336 41.2739 12.2352C41.2351 12.1879 41.1858 12.1503 41.1299 12.1255C41.074 12.1006 41.013 12.0892 40.9519 12.0921C40.7641 12.0921 40.5762 12.2084 40.4063 12.4499V14.1671H39.6819V11.6092H40.4063L40.4242 11.6181Z" fill="#2B2B2B"/>
<path fill-rule="evenodd" clip-rule="evenodd" d="M27.4643 1.04688C28.0993 1.04688 28.6091 1.51196 28.6091 2.08437C28.6091 2.65678 28.0993 3.12186 27.4643 3.12186C26.8293 3.12186 26.3105 2.65678 26.3105 2.08437C26.3105 1.51196 26.8293 1.04688 27.4643 1.04688ZM26.5073 4.14147H28.4481V10.6258H26.5073V4.14147Z" fill="#2B2B2B"/>
</g>
<defs>
<clipPath id="clip0_7246_2429">
<rect width="43.7" height="13.2459" fill="white" transform="translate(0.150391 0.982422)"/>
</clipPath>
</defs>
</svg>
