<svg width="24" height="26" viewBox="0 0 24 26" fill="none" xmlns="http://www.w3.org/2000/svg">
<g clip-path="url(#clip0_4397_2477)">
<path fill-rule="evenodd" clip-rule="evenodd" d="M2.41915 25.8913V22.0101H3.82835V25.8913H2.41915ZM6.03658 23.679H6.66491C6.88646 23.679 7.03901 23.6529 7.12254 23.6005C7.20608 23.5482 7.24966 23.4532 7.24966 23.3191C7.24966 23.1849 7.20608 23.0867 7.12254 23.0344C7.03901 22.982 6.87557 22.9558 6.63223 22.9558H6.03658V23.6823V23.679ZM4.67097 25.8945V22.0133H6.73392C7.38041 22.0133 7.84167 22.1017 8.1177 22.2751C8.39373 22.4486 8.53174 22.7333 8.53174 23.1325C8.53174 23.3714 8.47363 23.5645 8.36104 23.7216C8.24845 23.8787 8.07411 24.003 7.83804 24.0947C8.07775 24.1405 8.25208 24.2321 8.36104 24.3663C8.47 24.5004 8.52811 24.6968 8.53537 24.9586L8.55717 25.4986V25.5116C8.56443 25.6655 8.60438 25.7473 8.68065 25.7538V25.8978H7.28598C7.26055 25.8029 7.2424 25.7244 7.22787 25.6524C7.21334 25.5836 7.20971 25.528 7.20971 25.492V25.1059C7.20971 24.9062 7.16612 24.7655 7.07896 24.6837C6.99179 24.6019 6.83925 24.5626 6.62133 24.5626H6.03295V25.9011H4.66734L4.67097 25.8945ZM12.0366 24.3859H13.3477C13.3078 24.8964 13.108 25.2924 12.7484 25.5771C12.3889 25.8585 11.8986 25.9993 11.2848 25.9993C10.5947 25.9993 10.0499 25.816 9.65402 25.4527C9.25813 25.0895 9.05838 24.5888 9.05838 23.9539C9.05838 23.3191 9.2545 22.8217 9.64675 22.4584C10.039 22.0919 10.5729 21.9119 11.2484 21.9119C11.8731 21.9119 12.3635 22.0493 12.7194 22.321C13.0753 22.5926 13.2787 22.9787 13.3187 23.4827H11.993C11.9712 23.2831 11.9022 23.1358 11.7787 23.0344C11.6552 22.9329 11.4845 22.8838 11.2593 22.8838C10.9869 22.8838 10.7836 22.9722 10.6492 23.1522C10.5148 23.3322 10.4458 23.6005 10.4458 23.9605C10.4458 24.3205 10.5184 24.5823 10.6637 24.7622C10.809 24.9422 11.0196 25.0339 11.2993 25.0339C11.5136 25.0339 11.6843 24.9782 11.8078 24.867C11.9349 24.7557 12.0075 24.5986 12.0293 24.3925L12.0366 24.3859ZM14.8368 25.8913V23.0344H13.5947V22.0101H17.4337V23.0344H16.2206V25.8913H14.8368ZM20.6988 24.3859H22.0099C21.97 24.8964 21.7702 25.2924 21.4107 25.5771C21.0511 25.8585 20.5608 25.9993 19.947 25.9993C19.2569 25.9993 18.7121 25.816 18.3162 25.4527C17.9204 25.0895 17.7206 24.5888 17.7206 23.9539C17.7206 23.3191 17.9167 22.8217 18.309 22.4584C18.7012 22.0919 19.2351 21.9119 19.9107 21.9119C20.5354 21.9119 21.0257 22.0493 21.3816 22.321C21.7376 22.5926 21.9409 22.9787 21.9809 23.4827H20.6552C20.6334 23.2831 20.5644 23.1358 20.4409 23.0344C20.3175 22.9329 20.1468 22.8838 19.9216 22.8838C19.6492 22.8838 19.4458 22.9722 19.3114 23.1522C19.177 23.3322 19.108 23.6005 19.108 23.9605C19.108 24.3205 19.1807 24.5823 19.3259 24.7622C19.4712 24.9422 19.6819 25.0339 19.9615 25.0339C20.1758 25.0339 20.3465 24.9782 20.47 24.867C20.5971 24.7557 20.6698 24.5986 20.6915 24.3925L20.6988 24.3859ZM22.6419 10.9065C24.1129 15.8021 21.6794 17.9227 17.1395 17.0981C16.7618 17.9751 16.3768 18.8456 15.7666 19.6015C23.016 21.2443 25.9434 16.4436 22.6419 10.9065ZM8.33562 8.21977H11.4264C12.2727 8.40957 12.7811 8.80882 13.0063 9.27024C13.1262 9.51895 13.1698 9.79057 13.1407 10.0589C13.1116 10.3305 13.0063 10.5989 12.832 10.841C12.4615 11.3581 11.7787 11.7442 10.8489 11.7606C10.3041 11.6755 10.0317 12.1991 10.493 12.5984L13.5874 15.1869H8.33562C8.17944 15.1869 8.04869 15.0724 8.04869 14.9284V8.47829C8.04869 8.33758 8.17581 8.21977 8.33562 8.21977ZM13.5112 8.21977H15.6649C15.8211 8.21977 15.9518 8.3343 15.9518 8.47829V14.9284C15.9518 15.0691 15.8247 15.1869 15.6649 15.1869H15.1637L12.0148 12.5558C12.7702 12.3268 13.355 11.8915 13.7327 11.3646C13.9978 10.9948 14.1576 10.5792 14.2049 10.1538C14.2521 9.72512 14.1831 9.28987 13.9869 8.88736C13.8684 8.64461 13.7078 8.42037 13.5112 8.22304V8.21977ZM6.02569 3.93607C9.99542 0.342862 13.2497 1.17735 14.7279 5.1338C15.7593 4.98981 16.7908 4.85564 17.8187 4.95381C15.7739 -1.52246 9.69397 -1.40793 6.02569 3.93607ZM7.51843 20.2855C2.07775 18.9863 1.25329 16.0279 4.31867 12.8962C3.66491 12.1631 3.02206 11.4268 2.59712 10.5727C-2.60385 15.4062 0.54506 20.0957 7.51843 20.2855Z" fill="black"/>
<path d="M22.6419 10.9065C24.1129 15.8021 21.6794 17.9227 17.1395 17.0981C16.7618 17.9751 16.3768 18.8456 15.7666 19.6015C23.016 21.2443 25.9434 16.4436 22.6419 10.9065ZM8.33562 8.21976H11.4264C12.2727 8.40957 12.7811 8.80881 13.0063 9.27024C13.1262 9.51895 13.1698 9.79056 13.1407 10.0589C13.1116 10.3305 13.0063 10.5989 12.832 10.841C12.4615 11.3581 11.7787 11.7442 10.8489 11.7606C10.3041 11.6755 10.0317 12.1991 10.493 12.5984L13.5874 15.1869H8.33562C8.17944 15.1869 8.04869 15.0724 8.04869 14.9284V8.47829C8.04869 8.33757 8.17581 8.21976 8.33562 8.21976V8.21976ZM13.5112 8.21976H15.6649C15.8211 8.21976 15.9518 8.3343 15.9518 8.47829V14.9284C15.9518 15.0691 15.8247 15.1869 15.6649 15.1869H15.1637L12.0148 12.5558C12.7702 12.3267 13.355 11.8915 13.7327 11.3646C13.9978 10.9948 14.1576 10.5792 14.2049 10.1538C14.2521 9.72511 14.1831 9.28987 13.9869 8.88735C13.8684 8.64461 13.7078 8.42037 13.5112 8.22304V8.21976ZM6.02569 3.93606C9.99542 0.342862 13.2497 1.17735 14.7279 5.1338C15.7593 4.98981 16.7908 4.85564 17.8187 4.95381C15.7739 -1.52246 9.69397 -1.40792 6.02569 3.93606ZM7.51843 20.2855C2.07775 18.9863 1.25329 16.0279 4.31867 12.8962C3.66491 12.1631 3.02206 11.4268 2.59712 10.5727C-2.60385 15.4062 0.54506 20.0957 7.51843 20.2855Z" stroke="#231F20" stroke-width="0.04" stroke-miterlimit="2.61"/>
<path fill-rule="evenodd" clip-rule="evenodd" d="M1.3877 8.53132C7.15162 5.45189 13.9688 4.3687 20.7715 5.20318C20.8114 11.2671 18.694 16.4998 14.4264 20.9014C8.6952 18.2703 4.34774 14.2156 1.3877 8.53132ZM2.61893 10.5668C6.97728 7.15032 12.5741 5.28172 18.487 5.03956C19.562 10.1774 18.6686 14.9127 15.803 19.2389C10.4894 17.8056 6.10561 14.9716 2.61893 10.5668Z" fill="#D1D3D4"/>
</g>
<defs>
<clipPath id="clip0_4397_2477">
<rect width="24" height="26" fill="white"/>
</clipPath>
</defs>
</svg>
