<svg width="30" height="20" viewBox="0 0 30 20" fill="none" xmlns="http://www.w3.org/2000/svg">
<path d="M29.2524 4.6523C28.9471 3.63543 28.4269 2.34154 27.4488 1.29389C27.0519 0.862973 26.4096 0.307798 25.5231 0.246238L25.0651 0.184679C23.5363 0.0923393 21.9475 0 20.3881 0C18.9509 0 17.4232 0.0615595 15.5585 0.215458C14.0908 0.338577 12.3494 0.492476 10.6068 0.801414C8.83373 1.10921 7.03012 1.51049 5.34864 1.91062C4.12625 2.21842 2.96493 2.65048 1.92573 3.23529C0.978133 3.75969 0.396907 4.52918 0.213719 5.51528C0.091594 6.13201 0 6.71683 0 7.33356C0 8.75171 0.152657 10.2611 0.520163 11.9254C0.733883 12.9115 0.978133 13.9284 1.22351 14.9145C1.34564 15.4697 1.4983 16.0237 1.62042 16.5481C1.83414 17.4111 2.50696 17.4111 2.78174 17.3495C3.14812 17.288 3.51563 17.2572 3.882 17.1956H4.00413C4.27891 17.1648 4.58535 17.1341 4.86013 17.1033C5.04332 17.9047 5.47189 18.5819 6.05199 19.1062C6.75534 19.6922 7.58081 20 8.43569 20C8.55782 20 8.71047 20 8.8326 19.9692C9.84126 19.8461 10.7278 19.3833 11.3701 18.5819C11.8903 17.9343 12.165 17.1033 12.1956 16.2403L18.7067 15.5005C18.7982 16.4558 19.1963 17.3187 19.868 17.9663C20.6629 18.7369 21.7632 19.1062 22.8634 18.9523C23.8721 18.8292 24.7281 18.3664 25.3399 17.5661C26.0127 16.7031 26.2569 15.7171 26.1043 14.6386L26.4096 14.6078C27.0824 14.5155 27.7541 14.4539 28.4269 14.3924C28.9776 14.3308 29.1913 13.9307 29.2524 13.8064C29.6798 12.9127 29.8947 11.8958 29.9558 10.6019C30.1084 8.56817 29.8642 6.56521 29.2524 4.65458V4.6523ZM28.03 10.4765C27.9995 10.9701 27.8774 11.4626 27.7858 11.987C27.7552 12.1717 27.7247 12.3256 27.6636 12.5103C26.8382 12.6026 26.0127 12.6949 25.2799 12.7873C24.4545 11.7704 23.2321 11.246 21.978 11.3999C20.7556 11.5538 19.6859 12.2937 19.0742 13.4337C18.3708 13.4952 17.6675 13.5876 16.9652 13.6799L15.6196 13.8338C14.8552 13.9261 14.1224 14.0185 13.358 14.1108C13.1138 14.1416 12.8379 14.1724 12.5936 14.2031C12.2883 14.2339 12.0124 14.2647 11.7071 14.2955C10.8816 12.94 9.62867 12.2617 8.03878 12.3849C6.63321 12.4772 5.28757 13.648 4.89067 15.0661C4.4327 15.0969 3.94306 15.1585 3.33131 15.2508C3.20918 14.6648 3.05652 14.1108 2.9344 13.5249C2.75121 12.6927 2.56802 11.8605 2.3837 11.0283C2.44477 11.0591 2.53636 11.0898 2.62796 11.0898C2.81114 11.0898 2.9638 11.1206 3.14812 11.1206H4.24838V8.06999H4.27891C4.4621 8.03922 4.67582 8.06999 4.89067 8.06999C4.8296 8.71751 4.9212 9.36388 5.22651 9.88828C5.7772 10.8436 6.75534 11.1822 7.67241 11.1822C8.25363 11.1822 8.83373 11.0591 9.23177 10.8436C9.53708 10.6897 9.65921 10.3819 9.69087 10.1345V9.79594C9.96565 10.3819 10.4248 10.8128 10.9743 11.0283C11.525 11.2129 12.1356 11.1822 12.7169 10.9052C13.0527 11.1822 13.4813 11.1206 13.695 11.1206H13.8782L14.3362 11.1822H14.9784C15.2838 11.1822 15.5597 11.1822 15.865 11.1514C16.5683 11.1514 17.3011 11.1206 18.0044 11.0591C18.6162 10.9975 19.1047 10.627 19.41 10.1037C19.6237 10.6589 20.0828 11.0283 20.7545 11.1514C20.8766 11.1822 21.0293 11.1822 21.1514 11.1822C21.4567 11.1822 21.7326 11.1206 21.9769 10.9975V11.1206H23.3214C23.6267 11.1514 23.8416 11.0591 24.0248 10.9052L24.0553 10.8744L24.3301 10.9359C24.4522 10.9667 24.5743 10.9975 24.6976 11.0283C24.9724 11.0898 25.2777 11.1514 25.5841 11.1822C25.7368 11.2129 25.8894 11.213 26.0116 11.213C26.5928 11.213 27.0508 11.0591 27.4782 10.7513C27.6919 10.5666 27.8751 10.3511 28.0289 10.1345V10.4731L28.03 10.4765ZM22.4665 16.979C21.4884 16.979 20.724 16.2392 20.724 15.2223C20.724 14.2054 21.4884 13.4656 22.436 13.4656C22.894 13.4656 23.3531 13.6503 23.6889 13.9888C24.0248 14.3274 24.2079 14.7595 24.2079 15.2212C24.2079 16.2073 23.4435 16.9779 22.4654 16.9779L22.4665 16.979ZM6.75534 16.0853C6.78587 15.6544 6.99959 15.2223 7.33656 14.9145C7.67241 14.6375 8.07045 14.4836 8.46735 14.4836H8.58948C9.72027 14.5759 10.2099 15.4697 10.2099 16.3019C10.2099 16.7339 10.0267 17.1648 9.68974 17.5034C9.32336 17.842 8.86426 18.0278 8.40629 17.997C7.94719 17.9663 7.51975 17.7508 7.18391 17.4111C6.87859 17.0406 6.72594 16.5789 6.75647 16.0864L6.75534 16.0853ZM2.69015 5.114C3.45456 4.62152 4.3411 4.31259 5.13605 4.06635C6.97019 3.48039 8.95699 3.04948 11.2796 2.7109C12.9611 2.46466 14.4277 2.31076 15.8039 2.21842C17.7602 2.0953 19.7164 2.00296 21.6117 2.00296C22.5593 2.00296 23.5374 2.06452 24.485 2.15686C24.7598 2.15686 25.0357 2.18764 25.3105 2.21842C25.5547 2.2492 25.799 2.37232 26.1054 2.74282C26.5939 3.29799 26.9614 3.97515 27.2973 4.99202C27.3889 5.26904 27.4805 5.57798 27.572 5.88577C27.4805 5.82421 27.3889 5.79343 27.2973 5.76265L27.2057 5.73187C26.8698 5.67032 26.5023 5.60876 26.1054 5.60876C25.4021 5.60876 24.822 5.88577 24.3629 6.37939C24.3323 6.41017 24.3323 6.44095 24.3018 6.44095L24.2407 5.85499H22.0097V8.87483C21.9792 8.87483 21.9486 8.90561 21.857 8.93639C21.796 8.96717 21.7349 8.96717 21.7044 8.93639C21.7044 8.90561 21.6738 8.87483 21.6738 8.78249V6.53329L21.5823 5.85499H19.5649C19.5344 5.60876 19.4733 5.3933 19.3817 5.1767C19.107 4.62152 18.6173 4.25217 17.975 4.19061C17.2728 4.09827 16.5695 4.12905 15.8966 4.12905C15.6219 4.12905 15.3165 4.15983 15.0101 4.15983H14.6132V4.09827H12.3211V5.70109C11.2208 5.60876 10.3648 6.00889 9.84466 6.87186C9.53934 6.28591 9.08024 5.91655 8.46961 5.73187C7.52201 5.42408 6.54388 5.63953 5.81 6.25627C5.68787 5.97925 5.44362 5.76265 5.16771 5.73187C4.80133 5.67032 4.46436 5.70109 4.15904 5.82421V5.73187L2.20278 5.85499C2.20278 5.79343 2.23331 5.73187 2.23331 5.67031C2.26384 5.5472 2.3249 5.33174 2.69128 5.11514L2.69015 5.114ZM27.9384 7.8876C27.9384 7.94916 27.9384 7.97994 27.969 8.0415C27.969 8.0415 27.969 8.01072 27.9384 8.01072V7.8876ZM19.1658 7.36434C19.1963 7.30278 19.2574 7.24122 19.2879 7.17966C19.3184 7.14888 19.3184 7.1181 19.3489 7.08732V7.51824C19.2879 7.45668 19.2268 7.39512 19.1658 7.36434ZM17.0874 6.59371H16.8736V6.22435H17.0568C17.0568 6.25513 17.0874 6.31669 17.0874 6.47059C17.1179 6.56293 17.0874 6.59371 17.0874 6.59371ZM16.8736 8.41199C16.9958 8.41199 17.1179 8.41199 17.24 8.44277C17.3316 8.44277 17.3316 8.65823 17.3316 8.71979C17.3316 8.93525 17.3011 8.93525 17.179 8.96603H16.8431V8.41199H16.8736ZM12.3188 8.93639C12.1967 8.99795 12.0746 8.99795 12.0135 8.93639C11.9219 8.87483 11.8609 8.75171 11.8609 8.59781C11.8303 8.35157 11.8609 8.10534 11.8914 7.88874C11.8914 7.82718 11.9219 7.7964 11.983 7.76562C12.0135 7.76562 12.0746 7.73484 12.1356 7.73484C12.1967 7.73484 12.2578 7.73484 12.3188 7.76562V8.93639Z" fill="white"/>
<path d="M11.5849 15.6839C11.7987 17.7177 10.4541 19.1666 8.80319 19.3513C7.94719 19.4436 7.15224 19.1666 6.48055 18.6114C5.80773 18.0563 5.47189 17.3176 5.38029 16.4238C4.89179 16.4854 4.40216 16.5161 3.94306 16.5777C3.51562 16.6393 3.08705 16.67 2.65962 16.7316C2.3543 16.7932 2.26271 16.67 2.20165 16.3919C1.83527 14.8518 1.43723 13.3413 1.10139 11.7692C0.796075 10.2906 0.612888 8.81094 0.612888 7.33123C0.612888 6.77606 0.704482 6.19124 0.826607 5.63607C0.979263 4.80387 1.49943 4.18714 2.23331 3.787C3.2725 3.20105 4.37276 2.80091 5.50355 2.52389C7.21556 2.09298 8.95811 1.6917 10.6995 1.41468C12.3199 1.13766 13.9698 0.983764 15.6207 0.828726C17.2106 0.705607 18.7994 0.613267 20.3893 0.613267C22.1013 0.613267 23.7816 0.736386 25.4936 0.828726C26.1054 0.859505 26.5939 1.22886 27.0225 1.6917C27.8479 2.58545 28.3059 3.66388 28.6734 4.83465C29.2546 6.68372 29.4989 8.62512 29.3768 10.5665C29.3157 11.5834 29.163 12.6003 28.7345 13.5556C28.6734 13.7095 28.5818 13.771 28.3975 13.8018L25.8295 14.0788C25.7074 14.1096 25.5547 14.1096 25.4009 14.1404C25.7368 15.2496 25.6146 16.2973 24.8819 17.191C24.3617 17.8693 23.6595 18.2387 22.834 18.331C21.0609 18.5465 19.1963 17.1602 19.3489 14.7868C16.7504 15.0946 14.1835 15.4035 11.5849 15.6805V15.6839ZM1.31398 7.48741C1.4361 8.6274 1.49716 9.64427 1.68035 10.6611C1.98567 12.3255 2.41423 13.9272 2.78061 15.5916C2.84167 15.9313 2.99433 15.9313 3.27024 15.8994C3.85147 15.8071 4.46209 15.7455 5.04332 15.6839C5.28757 15.6532 5.40969 15.5916 5.44023 15.3454C5.71501 14.1438 6.87746 13.1269 8.06931 13.0346C9.50541 12.9115 10.5446 13.5271 11.248 14.7606C11.3396 14.9145 11.4006 14.976 11.5838 14.9452C12.1956 14.8837 12.8062 14.8221 13.4179 14.7298C14.3655 14.6067 15.2826 14.5143 16.2302 14.3912C17.2389 14.2681 18.2475 14.145 19.2867 14.0526C19.4699 14.0218 19.531 13.9603 19.6226 13.8064C20.6312 11.6803 23.413 11.3725 24.8808 13.2204C25.0029 13.3743 25.0945 13.4051 25.2777 13.4051C26.1642 13.3128 27.0202 13.1896 27.9067 13.0962C28.0899 13.0654 28.2121 13.0038 28.2426 12.8191C28.3952 12.0485 28.609 11.3087 28.6395 10.5084C28.7616 8.5362 28.4868 6.62558 27.8751 4.77651C27.5698 3.88276 27.2023 3.05057 26.5611 2.34149C26.2253 1.97214 25.8589 1.6632 25.3693 1.60164C24.1163 1.5093 22.8634 1.38618 21.6094 1.38618C19.6531 1.38618 17.6968 1.47852 15.7711 1.60164C14.2423 1.69398 12.7146 1.87866 11.2163 2.09412C9.10738 2.40191 6.99845 2.83397 4.98113 3.48034C4.09459 3.75736 3.17752 4.09708 2.38257 4.62034C2.0162 4.86657 1.74028 5.14473 1.64869 5.57565C1.49603 6.22316 1.40444 6.90032 1.31285 7.48627L1.31398 7.48741ZM22.4665 17.5946C23.7805 17.5946 24.8197 16.5469 24.8197 15.253C24.8197 13.9591 23.75 12.8807 22.436 12.8807C21.122 12.8807 20.1133 13.9284 20.1133 15.253C20.1133 16.5777 21.1525 17.5946 22.4676 17.5946H22.4665ZM10.8511 16.2699C10.8511 15.0068 10.0256 13.9284 8.68107 13.836C7.39762 13.7437 6.23517 14.7606 6.17411 16.0237C6.11305 17.3803 7.09118 18.4883 8.40516 18.5818C9.6886 18.6741 10.8511 17.5957 10.8511 16.271V16.2699Z" fill="black"/>
<path d="M15.0395 4.7446C16.0176 4.7446 16.9652 4.65226 17.9128 4.77538C19.0436 4.92927 19.1657 6.19238 18.7994 6.87068C18.6467 7.11691 18.3414 7.27081 18.1571 7.45663C18.2792 7.51819 18.4319 7.57975 18.5845 7.67209C19.1036 8.01067 19.3489 8.50428 19.1963 9.21336C19.0742 9.86087 18.6761 10.3533 18.035 10.4457C17.0568 10.5688 16.0482 10.538 15.07 10.5688C15.0395 8.53506 15.0395 6.62444 15.0395 4.7446ZM16.2619 9.55193C16.5977 9.55193 16.9347 9.58271 17.2705 9.55193C17.7285 9.49037 17.9434 9.21336 17.9434 8.71974C17.9434 8.22612 17.7296 7.85677 17.3011 7.79521C16.9652 7.76443 16.5977 7.79521 16.2619 7.79521V9.55193ZM16.2619 5.63835V7.24117H17.0568C17.4854 7.24117 17.6991 6.96416 17.7296 6.56288C17.7602 6.03848 17.5159 5.69991 17.1179 5.66913C16.8126 5.60757 16.5672 5.63835 16.2619 5.63835ZM14.0308 10.4765C13.6339 10.4457 13.1748 10.6919 12.9611 10.1071C12.8085 10.1687 12.7169 10.2302 12.5947 10.2918C11.6777 10.7854 10.6995 10.4765 10.3026 9.52115C9.96678 8.75052 9.96678 7.97989 10.3637 7.24117C10.8522 6.3782 11.7387 6.19352 12.6558 6.3782C12.7474 6.40898 12.8085 6.43976 12.9611 6.47054V4.71382H14.0308V10.4765ZM12.9306 8.35038V7.64131C12.9306 7.54897 12.9 7.45663 12.8695 7.39507C12.4421 7.02571 11.4639 7.02572 11.3102 7.76443C11.2491 8.04145 11.2186 8.35038 11.2491 8.65818C11.3102 9.45959 11.983 9.82895 12.6863 9.45959C12.8695 9.36725 12.9916 9.24413 12.9611 9.02868C12.9 8.78244 12.9306 8.56698 12.9306 8.35038ZM9.6592 8.65818H6.69427C6.7248 9.18258 7.09118 9.61349 7.64187 9.58271C8.13151 9.55193 8.62001 9.45959 9.14017 9.36725V10.1071C9.14017 10.1687 9.07911 10.261 9.04858 10.2918C8.16204 10.7227 6.51108 10.7854 5.80886 9.58271C5.38143 8.81208 5.44249 7.67209 5.96152 6.9938C6.51222 6.28472 7.42929 6.0077 8.31469 6.28472C8.98751 6.50018 9.35389 7.02458 9.53708 7.70173C9.59814 8.00953 9.59814 8.28768 9.6592 8.65704V8.65818ZM8.52841 8.10301C8.58948 7.64131 8.13151 7.14769 7.64187 7.14769C7.06065 7.11691 6.66374 7.48627 6.66374 8.10301H8.52841ZM22.6192 10.5072C22.5886 10.3533 22.5886 10.2302 22.5886 10.0752C22.436 10.1675 22.2833 10.2291 22.1601 10.2906C21.7937 10.4753 21.3957 10.6292 20.9682 10.5369C20.3881 10.4138 20.0206 10.074 19.9901 9.45845C19.9596 8.47236 19.9901 7.48627 19.9901 6.4694H21.0598V8.78016C21.0598 9.36611 21.3957 9.64313 21.9769 9.52001C22.4665 9.42767 22.6192 9.21222 22.6192 8.68782V6.4694H23.6889C23.6889 6.56174 23.7194 6.68486 23.7194 6.7772V10.1664C23.7194 10.4126 23.6584 10.505 23.3836 10.505C23.1088 10.4742 22.8646 10.505 22.6192 10.505V10.5072ZM24.4839 10.3226V9.36725C24.9735 9.45959 25.462 9.55193 25.9516 9.61349C26.0737 9.64427 26.2264 9.61349 26.318 9.55193C26.4401 9.45959 26.6233 9.30569 26.6538 9.18258C26.6538 9.05946 26.5012 8.844 26.3485 8.81322C26.0432 8.72088 25.7062 8.6901 25.4009 8.62854C24.5449 8.44386 24.2396 7.39621 24.8208 6.7487C25.1567 6.34856 25.5852 6.19352 26.1043 6.19352C26.4706 6.19352 26.8382 6.25508 27.2045 6.31664C27.2656 6.31664 27.3572 6.43976 27.3572 6.50132C27.3877 6.77834 27.3572 7.02571 27.3572 7.30273L26.1653 7.11805C26.0432 7.11805 25.9211 7.11805 25.8295 7.17961C25.7074 7.24117 25.5547 7.39507 25.5852 7.48741C25.5852 7.57975 25.7379 7.76443 25.86 7.79521C26.1043 7.88755 26.3791 7.88755 26.655 7.94911C27.174 8.04145 27.5415 8.28768 27.6942 8.81208C27.8468 9.33647 27.6026 9.92129 27.174 10.2599C26.7454 10.5984 26.2264 10.6292 25.7062 10.5677C25.2788 10.5061 24.8808 10.383 24.4839 10.3214V10.3226ZM2.53749 6.43976L3.63775 6.34742C3.63775 6.47054 3.66828 6.56288 3.66828 6.71678C3.82094 6.62444 3.94306 6.59366 4.03466 6.50132C4.3705 6.28586 4.70748 6.2243 5.10438 6.28586C5.19598 6.28586 5.28757 6.40898 5.28757 6.50132C5.3181 6.8399 5.28757 7.17961 5.28757 7.45663C4.92119 7.42585 4.55369 7.36429 4.18731 7.42585C3.72821 7.48741 3.60609 7.67209 3.60609 8.13493V10.4765H2.65849C2.59742 10.4765 2.50583 10.2918 2.50583 10.2302V7.02571C2.53636 6.84104 2.53636 6.65636 2.53636 6.43976H2.53749Z" fill="black"/>
</svg>
