<svg width="31" height="14" viewBox="0 0 31 14" fill="none" xmlns="http://www.w3.org/2000/svg">
<g clip-path="url(#clip0_5783_3346)">
<path d="M18.4204 9.29356C18.7217 9.23905 19.0182 9.50982 19.0826 9.89084C19.147 10.2773 18.9591 10.6335 18.6579 10.6886H18.6477C18.3316 10.7492 18.0154 10.7789 17.6945 10.7837C17.027 10.7837 16.4889 10.6232 16.0689 10.2925C15.5303 9.8757 15.2487 9.2136 15.2487 8.39038V0.745736C15.2487 0.434377 15.5601 0.183594 15.9454 0.183594C16.3308 0.183594 16.6422 0.434377 16.6422 0.745736V8.39099C16.6422 8.76655 16.7358 9.02764 16.9184 9.17362C17.0818 9.30386 17.4869 9.46439 18.4055 9.29902L18.4204 9.29417V9.29356ZM4.34004 10.1168C4.08771 10.1168 3.85089 9.74061 3.72741 9.49467C3.20534 8.46125 2.6931 7.42273 2.19076 6.37927C1.38545 4.70799 0.950583 3.91081 0.584913 3.6249C0.224611 3.33898 0.150642 2.9725 0.323634 2.6466C0.411518 2.48683 0.558261 2.36901 0.731628 2.31904C0.904995 2.26906 1.09081 2.29101 1.24825 2.38007C1.25302 2.38007 1.25302 2.38552 1.25779 2.38552C2.03328 2.83196 2.43891 3.66972 3.44645 5.75716C3.83657 6.56463 4.32095 7.57322 4.95804 8.82713C5.11612 9.13849 5.22469 9.76605 4.95327 9.97141L4.34064 10.1168H4.34004Z" fill="#2B2B2B"/>
<path d="M20.6488 7.08592C20.6486 6.19449 20.2999 5.33961 19.6791 4.70927C19.0584 4.07893 18.2165 3.72474 17.3387 3.72458H14.4097C14.1031 3.72458 13.8556 3.40838 13.8556 3.01706C13.8556 2.62574 14.1031 2.31014 14.4091 2.31014H17.3387C17.9564 2.3099 18.5681 2.43326 19.1388 2.67318C19.7096 2.91309 20.2281 3.26485 20.6649 3.70836C21.1018 4.15188 21.4482 4.67844 21.6846 5.25798C21.9209 5.83752 22.0424 6.45866 22.0423 7.08592V10.2316C22.0423 10.543 21.7309 10.7938 21.3455 10.7938C20.9602 10.7938 20.6488 10.543 20.6488 10.2316V7.08592ZM12.2998 7.97396V8.04907C12.2998 8.85715 11.6574 9.37871 10.6445 9.37871C9.63157 9.37871 8.98434 8.85715 8.98434 8.05453C8.98434 7.24645 9.63694 6.72489 10.6445 6.72489H10.7041C11.7564 6.72489 13.5692 7.21677 13.6927 7.25675V5.91197C13.021 5.67148 11.9485 5.30984 10.7041 5.30984H10.6445C8.77734 5.30984 7.59145 6.53953 7.59145 8.05392C7.59145 9.56952 8.77675 10.7938 10.6445 10.7938C12.5116 10.7938 13.6975 9.57013 13.6975 8.05453V7.98426L13.6927 5.04937C13.6927 3.53437 12.2551 2.31014 10.6445 2.31014L10.3778 2.30469C8.253 2.30469 6.59346 2.88682 5.37774 5.7363C5.2802 5.96619 5.18475 6.19699 5.09141 6.42868L5.08127 6.45896C4.79017 7.18648 4.62195 7.72318 4.20199 8.70632C3.41637 10.5478 2.71485 11.6218 1.6429 11.6818C1.06427 11.7169 0.9211 12.1082 0.990893 12.4996C1.06009 12.8909 1.30705 13.1314 1.6429 13.1314C3.38654 13.1314 4.47878 11.5013 5.52091 9.17821L5.53582 9.14792C5.6939 8.77235 5.84721 8.38042 6.00529 7.96911C6.21288 7.42212 6.43002 6.85513 6.66743 6.29844C7.59622 4.12135 8.64849 3.71973 10.3826 3.71973H10.6492C11.3949 3.71973 12.3046 4.24129 12.3046 5.04392V7.95942" fill="#2B2B2B"/>
<path d="M28.4849 7.97437V8.04948C28.4849 8.85756 27.8329 9.37912 26.8248 9.37912C25.8166 9.37912 25.1646 8.85756 25.1646 8.05493C25.1646 7.24686 25.8172 6.7253 26.8248 6.7253H26.8844C27.9367 6.7253 29.7495 7.21717 29.873 7.25715V5.91237C29.2013 5.67189 28.124 5.31025 26.8844 5.31025H26.8248C24.9576 5.31025 23.7717 6.53994 23.7717 8.05433C23.7717 9.56993 24.957 10.7942 26.8248 10.7942C28.6919 10.7942 29.8784 9.56993 29.8784 8.05493V7.98467L29.873 5.04978C29.873 3.53417 28.4354 2.31539 26.8248 2.31539C26.8248 2.31539 26.3261 2.31055 26.2223 2.31055C22.7934 2.31055 20.6543 4.58274 20.6543 7.72359H22.0472C22.0472 5.36538 23.5641 3.72559 26.2223 3.72559C26.3457 3.72559 26.7311 3.72983 26.7311 3.72983C27.7291 3.72983 28.4897 4.24715 28.4897 5.04978L28.4849 7.97437Z" fill="#2B2B2B"/>
<g opacity="0.7">
<path opacity="0.7" d="M12.2999 6.92383V8.05296C12.2999 8.68476 11.9044 9.1415 11.2471 9.30687V10.7468C12.764 10.5111 13.6976 9.39713 13.6976 8.05296V7.25518C13.5395 7.2152 12.6954 7.01893 12.2999 6.92383Z" fill="url(#paint0_linear_5783_3346)"/>
<path opacity="0.7" d="M28.4844 6.92383V8.05296C28.4844 8.68476 28.0841 9.1415 27.4268 9.31233V10.7522C28.9437 10.516 29.8773 9.40258 29.8773 8.0578V7.26063C29.7144 7.2152 28.8793 7.01954 28.4844 6.92383Z" fill="url(#paint1_linear_5783_3346)"/>
<path opacity="0.7" d="M17.6895 2.31836V3.73825C18.5019 3.8271 19.2536 4.2171 19.8006 4.8336C20.3476 5.45009 20.6515 6.24978 20.6542 7.0796V7.25043H20.6739C20.7247 6.35959 20.9893 5.4949 21.4446 4.73169C21.0611 4.04798 20.5181 3.47036 19.8633 3.04957C19.2086 2.62878 18.4621 2.37769 17.6895 2.31836Z" fill="url(#paint2_linear_5783_3346)"/>
<path opacity="0.7" d="M16.6474 3.71875H15.2539V7.30604H16.6474V3.71875Z" fill="url(#paint3_linear_5783_3346)"/>
<path opacity="0.7" d="M2.19141 6.38289C2.5869 7.20066 3.08023 8.22439 3.72806 9.49829C3.74774 9.53343 3.76743 9.57341 3.79188 9.61339C4.0528 9.06927 4.29356 8.51542 4.51368 7.95301C4.08836 7.09526 3.7382 6.37259 3.44113 5.76562L2.19141 6.38289Z" fill="url(#paint4_linear_5783_3346)"/>
</g>
</g>
<defs>
<linearGradient id="paint0_linear_5783_3346" x1="12.1096" y1="10.8994" x2="12.8219" y2="6.91848" gradientUnits="userSpaceOnUse">
<stop offset="0.02" stop-color="white" stop-opacity="0"/>
<stop offset="0.65" stop-color="white" stop-opacity="0"/>
<stop offset="0.71" stop-color="#DFDFE0" stop-opacity="0.17"/>
<stop offset="0.89" stop-color="#88898A" stop-opacity="0.62"/>
<stop offset="0.99" stop-color="#666769" stop-opacity="0.8"/>
</linearGradient>
<linearGradient id="paint1_linear_5783_3346" x1="28.2881" y1="10.9" x2="29.0029" y2="6.90517" gradientUnits="userSpaceOnUse">
<stop offset="0.02" stop-color="white" stop-opacity="0"/>
<stop offset="0.65" stop-color="white" stop-opacity="0"/>
<stop offset="0.71" stop-color="#DFDFE0" stop-opacity="0.17"/>
<stop offset="0.91" stop-color="#88898A" stop-opacity="0.62"/>
<stop offset="1" stop-color="#666769" stop-opacity="0.8"/>
</linearGradient>
<linearGradient id="paint2_linear_5783_3346" x1="17.1377" y1="4.04598" x2="21.3589" y2="5.39687" gradientUnits="userSpaceOnUse">
<stop offset="0.02" stop-color="white" stop-opacity="0"/>
<stop offset="0.65" stop-color="white" stop-opacity="0"/>
<stop offset="0.71" stop-color="#DFDFE0" stop-opacity="0.17"/>
<stop offset="0.91" stop-color="#88898A" stop-opacity="0.62"/>
<stop offset="1" stop-color="#666769" stop-opacity="0.8"/>
</linearGradient>
<linearGradient id="paint3_linear_5783_3346" x1="15.9512" y1="7.30967" x2="15.9512" y2="3.72117" gradientUnits="userSpaceOnUse">
<stop offset="0.02" stop-color="white" stop-opacity="0"/>
<stop offset="0.65" stop-color="white" stop-opacity="0"/>
<stop offset="0.71" stop-color="#DFDFE0" stop-opacity="0.17"/>
<stop offset="0.91" stop-color="#88898A" stop-opacity="0.62"/>
<stop offset="1" stop-color="#666769" stop-opacity="0.8"/>
</linearGradient>
<linearGradient id="paint4_linear_5783_3346" x1="2.21169" y1="5.30101" x2="4.37089" y2="8.85667" gradientUnits="userSpaceOnUse">
<stop offset="0.02" stop-color="white" stop-opacity="0"/>
<stop offset="0.5" stop-color="white" stop-opacity="0"/>
<stop offset="0.54" stop-color="#F0F0F1" stop-opacity="0.07"/>
<stop offset="0.85" stop-color="#8D8D8F" stop-opacity="0.52"/>
<stop offset="1" stop-color="#666769" stop-opacity="0.7"/>
</linearGradient>
<clipPath id="clip0_5783_3346">
<rect width="29.8263" height="13.3266" fill="white" transform="translate(0.234375 0.181641)"/>
</clipPath>
</defs>
</svg>
