<svg width="18" height="13" viewBox="0 0 18 13" fill="none" xmlns="http://www.w3.org/2000/svg">
<path d="M17.125 0.125H0.875C0.529297 0.125 0.25 0.404297 0.25 0.75V12.25C0.25 12.5957 0.529297 12.875 0.875 12.875H17.125C17.4707 12.875 17.75 12.5957 17.75 12.25V0.75C17.75 0.404297 17.4707 0.125 17.125 0.125ZM1.65625 1.53125H16.3438V3.875H1.65625V1.53125ZM16.3438 11.4688H1.65625V5.59375H16.3438V11.4688ZM11.7148 10.2188H14.9375C15.0234 10.2188 15.0938 10.1484 15.0938 10.0625V8.65625C15.0938 8.57031 15.0234 8.5 14.9375 8.5H11.7148C11.6289 8.5 11.5586 8.57031 11.5586 8.65625V10.0625C11.5586 10.1484 11.6289 10.2188 11.7148 10.2188Z" fill="#014A8F"/>
</svg>
