<svg width="16" height="11" viewBox="0 0 16 11" fill="none" xmlns="http://www.w3.org/2000/svg">
<g clip-path="url(#clip0_4497_2760)">
<path d="M15.5658 11.0009H15.2807C14.9479 10.862 14.8147 10.6178 14.8505 10.274C14.8634 10.1524 14.8525 10.0279 14.8525 9.90913H1.14257C1.14257 10.0422 1.13264 10.1677 1.14456 10.2912C1.17636 10.6293 1.03825 10.8659 0.714357 11.0009H0.429211C0.229508 10.9176 0.0834576 10.7835 0 10.5891C0 9.17937 0 7.76965 0 6.36089C0.00794834 6.35227 0.0198709 6.34557 0.0218579 6.33503C0.277198 5.39171 0.870344 4.95117 1.88674 4.95117C5.98014 4.95117 10.0735 4.95117 14.1669 4.95117C15.2737 4.95117 15.9941 5.64741 15.9951 6.71715C15.9951 7.90851 15.9871 9.09988 16 10.2922C16.004 10.6293 15.8907 10.8668 15.5668 11.0019L15.5658 11.0009Z" fill="#676767"/>
<path d="M0 10.5879C0.0834575 10.7823 0.229508 10.9164 0.428217 11.0007H0V10.5879Z" fill="white"/>
<path d="M14.2812 3.84224H12.5673C12.5673 3.65837 12.5693 3.48215 12.5673 3.3069C12.5574 2.6844 12.0676 2.20747 11.4238 2.20172C10.8525 2.19694 10.2812 2.19694 9.71089 2.20172C9.06807 2.20747 8.57825 2.68631 8.5703 3.30881C8.56831 3.48024 8.5703 3.65166 8.5703 3.8365H7.42773C7.42773 3.67561 7.42773 3.51184 7.42773 3.34808C7.42375 2.67099 6.93891 2.20268 6.23846 2.19981C5.69698 2.19789 5.1555 2.19789 4.61402 2.19981C3.92251 2.20268 3.43369 2.67099 3.42872 3.33371C3.42773 3.49843 3.42872 3.66411 3.42872 3.83841H1.71387V3.68135C1.71387 2.66141 1.71387 1.64243 1.71387 0.622497C1.71387 0.214522 1.93741 0 2.36364 0C6.11725 0 9.87085 0 13.6244 0C14.0596 0 14.2802 0.214522 14.2812 0.635905C14.2812 1.6501 14.2812 2.66333 14.2812 3.67752V3.84224Z" fill="#676767"/>
</g>
<defs>
<clipPath id="clip0_4497_2760">
<rect width="16" height="11" fill="white"/>
</clipPath>
</defs>
</svg>
