<svg width="66" height="26" viewBox="0 0 66 26" fill="none" xmlns="http://www.w3.org/2000/svg">
<path d="M60.6716 17.7898C60.6716 16.9548 61.2282 16.2826 61.9507 16.2826C62.8627 16.2826 63.3433 17.1818 63.3433 18.4235C63.3433 19.678 62.8499 20.6028 61.9122 20.6028C61.2913 20.6028 60.6705 20.1083 60.6705 19.1075V17.7908L60.6716 17.7898ZM60.3793 14.9403H58.7705C58.7962 15.5729 58.8208 16.3212 58.8208 17.2203V24.6951H60.6705V21.2237H60.6962C61.0002 21.6925 61.5825 22.034 62.3436 22.034C63.7619 22.034 65.2059 20.9068 65.2059 18.3475C65.2059 16.2066 64.0787 14.7872 62.5587 14.7872C61.6596 14.7872 60.9499 15.1801 60.4928 15.8898H60.4682L60.3793 14.9403V14.9403ZM55.2991 21.8948H57.1488V14.9264H55.2991V21.8948ZM57.212 13.0264C57.212 12.4569 56.8063 12.0384 56.2111 12.0384C56.0803 12.0344 55.95 12.0572 55.8283 12.1054C55.7066 12.1537 55.5961 12.2263 55.5036 12.3189C55.411 12.4114 55.3384 12.5219 55.2901 12.6436C55.2419 12.7653 55.2191 12.8956 55.2231 13.0264C55.2231 13.5841 55.6288 14.0144 56.2111 14.0144C56.7945 14.0272 57.212 13.6344 57.212 13.0264ZM52.0814 16.1435L52.0054 14.9275H50.4212C50.4469 15.5483 50.4726 16.2441 50.4726 17.1058V21.8948H52.3223V18.2972C52.3223 17.1058 52.9559 16.5492 53.7919 16.5492C53.9814 16.5492 54.1345 16.5609 54.2736 16.5866V14.8268C54.1359 14.799 53.9956 14.7861 53.8551 14.7883C53.2086 14.7883 52.4486 15.2572 52.1317 16.1574H52.0814V16.1445V16.1435ZM42.8972 12.2792V13.8752H45.266V21.8948H47.1157V13.8752H49.4963V12.2803H42.8961L42.8972 12.2792ZM39.8807 18.5755C39.777 19.0093 39.68 19.4446 39.5896 19.8814H39.5521C39.4497 19.4442 39.3397 19.0089 39.2224 18.5755L38.1959 14.9392H36.1696L38.5138 21.3372C38.5641 21.4763 38.5887 21.578 38.5887 21.654C38.5887 21.7932 38.273 22.5028 37.6639 22.946C37.3353 23.174 36.9927 23.3774 36.6898 23.4534L37.1576 25.0119C37.575 24.9348 38.2847 24.6822 38.9559 24.0357C39.7416 23.25 40.3367 22.0212 41.1107 19.7668L42.681 14.9275H40.7553L39.8818 18.5755H39.8807ZM32.559 12.2792L31.4694 15.8898C31.1518 17.0116 30.873 18.1441 30.6334 19.2852H30.5948C30.3641 18.1454 30.0981 17.0131 29.7974 15.8898L28.759 12.2792H26.4651L25.8186 21.8948H27.5045L27.694 18.1955C27.7582 17.0052 27.8203 15.5858 27.846 14.3698H27.8834C28.1114 15.5472 28.4165 16.8532 28.7205 17.93L29.7845 21.7557H31.191L32.3685 17.8658C32.6982 16.7889 33.0397 15.5108 33.319 14.3698H33.3565C33.3447 15.3449 33.4079 16.8906 33.4582 18.158L33.6359 21.8948H35.3967L34.8508 12.2792H32.559V12.2792ZM20.4847 17.6892C20.5361 17.0041 20.9161 16.0803 21.8034 16.0803C22.7154 16.0803 23.0066 16.9666 22.9937 17.6892H20.4857H20.4847ZM24.6411 18.9683C24.679 18.7254 24.6958 18.4798 24.6914 18.234C24.6914 15.9786 23.5889 14.7872 21.9041 14.7872C19.8649 14.7872 18.7121 16.5106 18.7121 18.5123C18.7121 20.6788 19.9409 22.034 22.0946 22.034C22.9563 22.034 23.7666 21.882 24.35 21.6294L24.0824 20.3492C23.6017 20.514 23.0697 20.6403 22.3857 20.6403C21.3849 20.6403 20.5361 20.1586 20.4857 18.9812H24.6411V18.9683V18.9683ZM13.1234 21.5652C13.5922 21.8435 14.3276 22.034 15.0876 22.034C16.8228 22.034 17.8236 21.1605 17.8236 19.8289C17.8236 18.8666 17.2788 18.1955 16.1002 17.702C15.3028 17.3595 15.0373 17.17 15.0373 16.7772C15.0373 16.3972 15.3413 16.1178 15.8979 16.1178C16.4181 16.1178 16.9116 16.3212 17.2156 16.4849L17.571 15.1801C17.1642 14.966 16.5573 14.7872 15.8476 14.7872C14.3019 14.7872 13.3011 15.7378 13.3011 16.9923C13.3011 17.7523 13.7828 18.4866 15.0748 19.0186C15.8348 19.3483 16.0756 19.5645 16.0756 19.9948C16.0756 20.4252 15.7588 20.6906 15.1122 20.6906C14.5428 20.6906 13.8459 20.438 13.4916 20.2228L13.1234 21.5652V21.5652ZM10.0962 19.5132C10.0962 20.4005 9.37369 20.7163 8.92947 20.7163C8.46169 20.7163 8.056 20.4252 8.056 19.7668C8.056 18.7532 9.09431 18.5123 10.0962 18.5123V19.5132V19.5132ZM7.08085 16.5866C7.59786 16.2764 8.18845 16.1101 8.79138 16.1049C9.80507 16.1049 10.0448 16.6252 10.0448 17.3209C7.82907 17.3209 6.24485 18.158 6.24485 19.9435C6.24485 21.0717 7.04231 22.034 8.33538 22.034C9.10823 22.034 9.79116 21.7172 10.1851 21.1723H10.2225L10.3371 21.8948H11.9962C11.9202 21.4645 11.8945 20.8565 11.8945 20.2485V17.7009C11.8945 16.1809 11.3122 14.8001 9.14569 14.8001C8.056 14.8001 7.19431 15.1169 6.72654 15.3835L7.07978 16.5866H7.08085ZM1.84862 17.6763H4.99031V16.1681H1.84969V13.8378H5.18085V12.2921H0V21.9077H5.37138V20.3609H1.84969V17.6742L1.84862 17.6763Z" fill="#005999"/>
<path fill-rule="evenodd" clip-rule="evenodd" d="M11.9597 15.8395C17.0517 5.55271 30.9629 13.4203 38.6775 6.55356C30.9875 14.5849 15.7726 7.80702 11.9597 15.8395V15.8395Z" fill="#00699E"/>
<path fill-rule="evenodd" clip-rule="evenodd" d="M29.9493 0.357942L48.002 1.85332C48.8765 1.90363 48.7363 2.08132 48.306 2.48594L39.5018 11.1135C39.0072 11.6595 38.8927 11.5064 38.3104 10.8609L34.8636 6.95817C34.4087 6.47648 34.3327 6.37586 35.1173 6.09648L43.6818 3.33479L34.0416 5.05817C33.319 5.21017 33.4079 5.31186 32.9005 4.58932L29.6956 0.915633C29.29 0.472478 29.3285 0.256252 29.9493 0.359013V0.357942Z" fill="#00A3D6"/>
<path fill-rule="evenodd" clip-rule="evenodd" d="M35.143 6.74302L36.0807 7.74386C36.5367 8.2384 36.4104 8.25017 35.8901 8.56809L32.9144 9.96071C32.559 10.1759 32.331 9.99924 32.5847 9.59355L34.4718 6.56533C34.6495 6.18533 34.8518 6.38871 35.143 6.74302V6.74302Z" fill="#00699E"/>
</svg>
