<svg xmlns="http://www.w3.org/2000/svg" xmlns:xlink="http://www.w3.org/1999/xlink" width="111" height="51" viewBox="0 0 111 51">
  <defs>
    <clipPath id="clip-path">
      <rect id="Rectangle_2" data-name="Rectangle 2" width="114" height="38.535" transform="translate(3 11)" fill="#fff"/>
    </clipPath>
    <clipPath id="clip-Easymytrip_1">
      <rect width="111" height="51"/>
    </clipPath>
  </defs>
  <g id="Easymytrip_1" data-name="Easymytrip – 1" clip-path="url(#clip-Easymytrip_1)">
    <rect width="111" height="51" fill="#fff"/>
    <g id="easemytrip" transform="translate(4 -4.768)" clip-path="url(#clip-path)">
      <path id="Path_6" data-name="Path 6" d="M94.007,37.185a2.092,2.092,0,0,1,1.919-2.261c1.368,0,2.089,1.349,2.089,3.211,0,1.882-.74,3.269-2.147,3.269a1.981,1.981,0,0,1-1.863-2.243V37.186Zm-.438-4.274H91.156c.039.949.076,2.071.076,3.42V47.543h2.774V42.335h.039a2.866,2.866,0,0,0,2.471,1.215c2.128,0,4.294-1.691,4.294-5.53,0-3.211-1.691-5.34-3.971-5.34a3.52,3.52,0,0,0-3.1,1.654H93.7Zm-7.62,10.432h2.775V32.89H85.949Zm2.869-13.3a1.492,1.492,0,1,0-1.5,1.482A1.4,1.4,0,0,0,88.818,30.04Zm-7.7,4.676-.114-1.824H78.632c.039.931.077,1.975.077,3.267v7.184h2.775v-5.4c0-1.787.951-2.622,2.2-2.622a3.945,3.945,0,0,1,.723.056V32.74a2.941,2.941,0,0,0-.628-.058A2.9,2.9,0,0,0,81.2,34.736h-.076v-.021Zm-13.776-5.8v2.394H70.9V43.342h2.775V31.313h3.571V28.92h-9.9Zm-4.525,9.444q-.233.976-.437,1.959h-.056q-.231-.984-.495-1.959l-1.54-5.454H57.254l3.516,9.6a1.506,1.506,0,0,1,.112.475A3.751,3.751,0,0,1,59.5,44.919a4.92,4.92,0,0,1-1.461.761l.7,2.338a5.45,5.45,0,0,0,2.7-1.464c1.179-1.179,2.071-3.022,3.232-6.4l2.355-7.259H64.133l-1.31,5.472ZM51.839,28.919,50.2,34.335q-.714,2.524-1.254,5.093h-.058q-.519-2.564-1.2-5.093l-1.557-5.416H42.7l-.97,14.423h2.529l.284-5.549c.1-1.785.189-3.915.228-5.739h.056c.342,1.766.8,3.725,1.256,5.34l1.6,5.738h2.11L51.553,37.3c.494-1.615,1.007-3.532,1.426-5.244h.056c-.018,1.463.077,3.781.153,5.682l.266,5.605H56.1l-.819-14.423ZM33.727,37.034c.077-1.028.647-2.413,1.978-2.413,1.368,0,1.8,1.329,1.785,2.413H33.727Zm6.235,1.919a6.416,6.416,0,0,0,.076-1.1c0-3.383-1.654-5.17-4.181-5.17-3.059,0-4.788,2.585-4.788,5.588,0,3.25,1.843,5.282,5.074,5.282a8.852,8.852,0,0,0,3.383-.607l-.4-1.92a7.539,7.539,0,0,1-2.545.437,2.529,2.529,0,0,1-2.85-2.489h6.233Zm-17.277,3.9a6.083,6.083,0,0,0,2.946.7c2.6,0,4.1-1.31,4.1-3.308,0-1.444-.817-2.45-2.585-3.19-1.2-.514-1.594-.8-1.594-1.387,0-.57.456-.989,1.291-.989a4.361,4.361,0,0,1,1.976.551l.533-1.957a5.677,5.677,0,0,0-2.585-.589c-2.319,0-3.82,1.426-3.82,3.308,0,1.14.723,2.241,2.661,3.039,1.14.495,1.5.819,1.5,1.464s-.475,1.044-1.445,1.044a5.394,5.394,0,0,1-2.431-.7ZM18.144,39.77a1.74,1.74,0,0,1-1.75,1.8,1.269,1.269,0,0,1-1.31-1.424c0-1.521,1.558-1.882,3.06-1.882Zm-4.523-4.39a5.071,5.071,0,0,1,2.566-.723c1.521,0,1.88.78,1.88,1.824-3.324,0-5.7,1.256-5.7,3.934A3.033,3.033,0,0,0,15.5,43.551a3.363,3.363,0,0,0,2.774-1.292h.056l.172,1.084h2.489a15.6,15.6,0,0,1-.153-2.47V37.051c0-2.28-.874-4.351-4.123-4.351a7.563,7.563,0,0,0-3.629.875l.53,1.8ZM5.773,37.014h4.713V34.752H5.775v-3.5h5V28.938H3V43.361h8.057v-2.32H5.775v-4.03Z" fill="#005999"/>
      <path id="Path_7" data-name="Path 7" d="M20.94,34.259c7.638-15.43,28.5-3.629,40.077-13.929C49.481,32.377,26.659,22.211,20.94,34.259Z" fill="#00699e" fill-rule="evenodd"/>
      <path id="Path_8" data-name="Path 8" d="M47.924,11.037,75,13.28c1.312.076,1.1.342.456.949L62.253,27.17c-.742.819-.914.589-1.787-.379L55.3,20.937c-.682-.723-.8-.873.38-1.293L68.523,15.5l-14.46,2.585c-1.084.228-.951.381-1.712-.7l-4.807-5.511c-.609-.665-.551-.989.381-.835Z" fill="#00a3d6" fill-rule="evenodd"/>
      <path id="Path_9" data-name="Path 9" d="M55.715,20.615l1.407,1.5c.684.742.494.759-.286,1.236l-4.464,2.089c-.533.323-.875.058-.495-.551l2.831-4.542C54.974,19.778,55.278,20.083,55.715,20.615Z" fill="#00699e" fill-rule="evenodd"/>
    </g>
  </g>
</svg>
