<svg width="120" height="60" viewBox="0 0 120 60" fill="none" xmlns="http://www.w3.org/2000/svg">
<g clip-path="url(#clip0_109_1253)">
<path d="M116.978 21.0178C116.966 20.9761 116.951 20.9351 116.935 20.8948C106.87 20.8984 96.8094 20.8948 86.7502 20.8984C86.7248 20.9238 86.7083 20.9568 86.7032 20.9925C86.7032 28.511 86.7032 36.026 86.6978 43.5446C86.774 43.949 86.986 44.3154 87.2985 44.5832C87.3112 44.5887 87.3401 44.5923 87.3528 44.5959C87.5102 44.7551 87.7346 44.833 87.9481 44.9071C88.1056 44.8981 88.2576 44.9632 88.415 44.9488H100.906C101.026 44.9433 101.147 44.9632 101.263 44.9198L101.275 44.8583L101.288 44.7678C101.556 43.3274 101.815 41.8816 102.1 40.443L102.126 40.2585C100.969 40.253 99.8096 40.2585 98.6533 40.253C98.3728 40.2458 98.0851 40.253 97.8028 40.2205C97.3251 40.2006 96.8401 40.2169 96.3606 40.1716C95.7635 40.1716 95.1736 40.1173 94.58 40.1173C94.1132 40.0739 93.6391 40.0902 93.1686 40.0685C92.8628 40.0323 92.5479 40.0504 92.2385 40.0359C91.7319 39.9816 91.2198 40.0196 90.7131 39.9671C90.1775 39.9708 89.6437 39.9255 89.108 39.9129C89.1127 39.9058 89.1158 39.8977 89.1171 39.8893C89.2944 39.8929 89.4681 39.8803 89.6473 39.8767C90.0417 39.8278 90.4417 39.8604 90.8361 39.8079C91.2487 39.8079 91.6577 39.7536 92.0684 39.7536C92.4339 39.7048 92.8031 39.7337 93.1686 39.6849C93.5993 39.6849 94.0191 39.6306 94.4479 39.6269C94.8008 39.5817 95.1573 39.607 95.5101 39.5618C95.9227 39.5654 96.3298 39.5039 96.7406 39.5075C97.1459 39.4641 97.5585 39.475 97.962 39.4351C97.924 39.2831 97.8933 39.1311 97.8589 38.9809C97.8299 38.8869 97.7105 38.9068 97.6345 38.8941C96.7117 38.7674 95.7942 38.6408 94.8768 38.5177C94.9365 38.4725 95.0179 38.4924 95.0849 38.4851C95.7997 38.4309 96.509 38.3711 97.2219 38.3223C97.3848 38.3132 97.5404 38.2861 97.7033 38.2807C97.6309 38.0671 97.5875 37.8337 97.4897 37.6383C95.9643 37.4139 94.4389 37.213 92.9189 36.9706C93.3134 36.909 93.7133 36.8801 94.1077 36.8403L94.1421 36.8276C95.4034 36.701 96.67 36.5562 97.9313 36.4386C99.5327 36.4313 101.131 36.4349 102.732 36.4386C102.784 36.4313 102.873 36.4567 102.882 36.3843L103.271 34.3956C103.456 33.4764 103.743 32.568 104.19 31.7284C104.907 30.3604 106.004 29.2292 107.35 28.4712C108.613 27.7583 110.073 27.4145 111.526 27.3493C111.999 27.3077 112.474 27.3204 112.941 27.3765C113.249 27.447 113.562 27.5285 113.804 27.7293C114.003 27.885 114.123 28.1148 114.212 28.3446C114.407 28.8874 114.519 29.452 114.611 30.022C114.615 30.25 114.659 30.5088 114.53 30.7169C114.412 30.9213 114.174 31.0209 113.949 31.0806C113.129 31.2869 112.27 31.0932 111.452 31.2869C110.775 31.4244 110.146 31.7845 109.717 32.3056C109.21 32.91 108.944 33.6628 108.794 34.4173C108.68 35.0869 108.535 35.76 108.421 36.4349C109.228 36.4386 110.041 36.4313 110.851 36.4386C111.175 36.4386 111.506 36.6105 111.637 36.9054C111.807 37.2818 111.769 37.707 111.714 38.1051C111.646 38.5503 111.535 38.9918 111.327 39.4026C111.153 39.75 110.864 40.0685 110.469 40.1915C110.265 40.2693 110.044 40.253 109.827 40.253C109.114 40.253 108.399 40.2621 107.686 40.253C107.572 40.7561 107.495 41.2718 107.393 41.7839C107.207 42.7791 107.024 43.7762 106.836 44.775C106.831 44.8213 106.829 44.8678 106.829 44.9144C107.163 44.9325 107.498 44.9144 107.835 44.9234C110.325 44.9234 112.818 44.9198 115.312 44.9234C115.581 44.9322 115.848 44.8698 116.086 44.7425C116.226 44.6936 116.311 44.576 116.434 44.509C116.553 44.4439 116.587 44.31 116.689 44.2231C116.799 44.035 116.913 43.8377 116.924 43.6169C116.945 43.6163 116.966 43.6139 116.987 43.6097C116.973 36.0785 116.987 28.5472 116.978 21.0178Z" fill="url(#paint0_linear_109_1253)" stroke="#FCD109" stroke-width="0.17625"/>
<path d="M90.6625 16.0651C91.0244 15.9547 91.4026 16.0289 91.7717 16.0036C98.7094 16.0072 105.647 16.0036 112.585 16.0036C112.997 15.9873 113.358 16.2117 113.741 16.3275C114.047 16.4451 114.365 16.5392 114.671 16.6659C114.735 16.6912 114.782 16.7437 114.829 16.7889C114.825 17.33 114.829 17.8746 114.829 18.4175C114.832 18.5623 114.807 18.7088 114.858 18.8482C114.948 18.8608 114.993 18.926 115.053 18.9785C115.334 19.1015 115.572 19.3042 115.828 19.467C116.208 19.7276 116.616 19.9556 116.991 20.227C117.009 20.3338 116.995 20.4442 116.96 20.5419C116.924 20.6577 116.948 20.7807 116.935 20.8947C106.87 20.8984 96.8112 20.8947 86.7503 20.8984C86.7286 20.7645 86.7684 20.6269 86.7068 20.5003C86.6996 20.3953 86.6598 20.256 86.7666 20.1818C87.1918 19.8959 87.6424 19.6389 88.0586 19.3349C88.3173 19.1757 88.5688 19.011 88.8186 18.8482C88.8692 18.7667 88.8529 18.6636 88.8529 18.5731C88.8529 17.9796 88.8529 17.3879 88.8566 16.7944C89.0013 16.6134 89.2528 16.5935 89.4519 16.503C89.8554 16.3565 90.2626 16.2135 90.6643 16.0651H90.6625ZM90.6878 16.1339C90.1449 16.3347 89.5967 16.5284 89.052 16.7274C88.9796 16.7401 88.9434 16.8016 88.9036 16.8541C88.9072 16.8885 88.9127 16.9446 88.9127 16.9771C88.9072 17.4693 88.9126 17.9597 88.9072 18.4519C88.9126 18.5731 88.8946 18.6962 88.9434 18.8066C88.8877 18.8629 88.8258 18.9126 88.7588 18.9549C88.1436 19.3386 87.5483 19.7566 86.9312 20.1366C86.8263 20.1981 86.7068 20.2813 86.7412 20.4152C86.7195 20.4894 86.7593 20.5509 86.8389 20.531C88.1726 20.522 89.5026 20.5383 90.838 20.5184C92.8212 20.5184 94.8008 20.522 96.7841 20.5184L96.8148 20.5057C96.9053 20.5256 96.9922 20.5184 97.0863 20.5184C100.68 20.5184 104.276 20.522 107.873 20.5184C109.004 20.522 110.138 20.5184 111.273 20.5184C113.142 20.5184 115.015 20.5346 116.884 20.5256C116.939 20.5147 116.957 20.4767 116.935 20.4116C116.931 20.3465 116.957 20.256 116.884 20.2144C116.588 20.0805 116.332 19.8706 116.048 19.7077C115.945 19.6263 115.813 19.581 115.737 19.4706C115.444 19.3114 115.172 19.1142 114.883 18.9386C114.829 18.9061 114.785 18.8518 114.738 18.8066C114.763 18.7188 114.775 18.6281 114.774 18.5369C114.769 18.0176 114.774 17.4983 114.769 16.9771C114.782 16.8957 114.778 16.8016 114.7 16.7491C114.192 16.5718 113.687 16.3836 113.18 16.2045C113.021 16.1338 112.852 16.0869 112.679 16.0651H90.9646C90.8706 16.0687 90.7819 16.114 90.6878 16.1339Z" fill="#F8F3B5" stroke="#F8F3B5" stroke-width="0.17625"/>
<path d="M88.9125 16.9771C89.2853 17.1291 89.6852 17.2142 90.0634 17.3626C90.2679 17.4404 90.3312 17.6521 90.4199 17.824C90.3279 17.9086 90.2272 17.9832 90.1195 18.0466C89.7268 18.2999 89.3287 18.546 88.9433 18.8066C88.8944 18.698 88.9125 18.5731 88.9071 18.4519C88.9125 17.9597 88.9071 17.4693 88.9125 16.9771ZM113.616 17.3626C113.996 17.2178 114.391 17.1201 114.769 16.9771C114.772 17.4983 114.769 18.0176 114.772 18.5369C114.772 18.6274 114.763 18.7215 114.738 18.8084C114.407 18.5858 114.072 18.3777 113.741 18.1606C113.578 18.0466 113.401 17.9615 113.256 17.8204C113.347 17.6485 113.413 17.4404 113.618 17.3626H113.616Z" fill="#F7B402" stroke="#F7B402" stroke-width="0.17625"/>
<path d="M95.3943 17.5308C95.863 17.4223 96.3859 17.8258 96.3479 18.2963C96.3515 18.7577 95.8449 19.1341 95.3834 19.0291C95.1934 18.9774 95.0248 18.8665 94.9021 18.7125C94.8269 18.6051 94.7815 18.4797 94.7704 18.3491C94.7593 18.2185 94.7829 18.0873 94.8388 17.9687C94.9238 17.7389 95.1536 17.5833 95.3961 17.5308H95.3943ZM107.518 17.7878C107.617 17.68 107.742 17.6 107.881 17.5555C108.02 17.5111 108.168 17.5038 108.311 17.5345C108.528 17.596 108.74 17.7317 108.834 17.9362C108.922 18.1133 108.938 18.3179 108.878 18.5064C108.817 18.695 108.686 18.8527 108.512 18.9459C108.353 19.0258 108.173 19.0534 107.997 19.0248C107.822 18.9962 107.66 18.9128 107.534 18.7866C107.411 18.6506 107.341 18.4743 107.338 18.2906C107.334 18.1069 107.398 17.9282 107.516 17.7878H107.518Z" fill="#BDA727" stroke="#BDA727" stroke-width="0.17625"/>
<path d="M90.1197 18.0448C90.2273 17.982 90.328 17.908 90.42 17.824L90.4508 17.853C90.4797 18.0665 90.458 18.2836 90.4671 18.4953C90.4544 19.1341 90.4798 19.7765 90.449 20.4152C89.2131 20.4152 87.9772 20.408 86.7395 20.4152C86.7069 20.2813 86.8263 20.1981 86.9331 20.1366C87.5483 19.7566 88.1437 19.3404 88.7607 18.955C88.8264 18.9124 88.8871 18.8627 88.9417 18.8066C89.3289 18.546 89.727 18.2999 90.1178 18.0466L90.1197 18.0448ZM113.213 17.9633C113.213 17.9109 113.227 17.8656 113.256 17.8204C113.401 17.9597 113.578 18.0466 113.741 18.1606C114.072 18.3777 114.407 18.5858 114.738 18.8066C114.785 18.8518 114.829 18.9061 114.883 18.9387C115.173 19.1142 115.444 19.3114 115.737 19.4707C115.813 19.5792 115.945 19.6263 116.048 19.7059C116.332 19.8706 116.588 20.0805 116.884 20.2144C116.957 20.256 116.931 20.3465 116.935 20.4116C115.699 20.4152 114.467 20.408 113.231 20.4152C113.209 20.2524 113.222 20.0895 113.218 19.9285C113.218 19.2734 113.209 18.6184 113.213 17.9633Z" fill="#F7E62D" stroke="#F7E62D" stroke-width="0.17625"/>
<path d="M116.935 20.4116C115.699 20.4152 114.467 20.408 113.231 20.4152C113.209 20.2524 113.222 20.0895 113.218 19.9285C113.218 19.2734 113.209 18.6184 113.215 17.9633C113.215 17.9108 113.227 17.8656 113.256 17.8204C113.347 17.6485 113.414 17.4404 113.618 17.3626C113.996 17.2178 114.391 17.1201 114.769 16.9771C114.782 16.8957 114.778 16.8016 114.7 16.7491C114.19 16.5718 113.687 16.3836 113.18 16.2045C113.021 16.1338 112.852 16.0869 112.679 16.0651H90.9647C90.8706 16.0687 90.7819 16.114 90.6878 16.1339C90.145 16.3347 89.5967 16.5266 89.052 16.7274C88.9796 16.7401 88.9434 16.8016 88.9036 16.8541C88.9072 16.8885 88.9127 16.9446 88.9127 16.9771C89.2854 17.1291 89.6853 17.2142 90.0635 17.3626C90.268 17.4404 90.3313 17.6521 90.42 17.824L90.4508 17.8529C90.4797 18.0665 90.458 18.2836 90.4671 18.4953C90.4544 19.1341 90.4797 19.7765 90.449 20.4152C89.213 20.4152 87.9771 20.408 86.7394 20.4152C86.7213 20.4876 86.7575 20.5509 86.839 20.531C88.1726 20.522 89.5026 20.5383 90.838 20.5184C92.8212 20.5184 94.8009 20.522 96.7841 20.5184L96.8149 20.5057C96.9035 20.5256 96.9922 20.5184 97.0863 20.5184C100.68 20.5184 104.276 20.522 107.873 20.5184C109.004 20.522 110.138 20.5184 111.271 20.5184C113.14 20.5184 115.015 20.5346 116.884 20.5256C116.939 20.5129 116.957 20.4767 116.935 20.4116ZM94.8389 17.9687C94.9239 17.7389 95.1537 17.5833 95.3962 17.5308C95.863 17.4223 96.386 17.824 96.348 18.2963C96.3516 18.7577 95.845 19.1341 95.3817 19.0273C95.1926 18.9757 95.0247 18.8655 94.9022 18.7125C94.827 18.6051 94.7816 18.4797 94.7705 18.3491C94.7593 18.2185 94.7829 18.0873 94.8389 17.9687ZM107.516 17.7878C107.615 17.6794 107.741 17.599 107.881 17.5545C108.02 17.5101 108.169 17.5031 108.313 17.5345C108.528 17.596 108.74 17.7299 108.834 17.9362C108.922 18.1135 108.937 18.3183 108.877 18.5069C108.816 18.6954 108.685 18.853 108.51 18.9459C108.351 19.0258 108.171 19.0534 107.995 19.0248C107.82 18.9962 107.658 18.9128 107.533 18.7866C107.409 18.6504 107.34 18.474 107.337 18.2903C107.334 18.1066 107.398 17.928 107.516 17.7878Z" fill="url(#paint1_radial_109_1253)" stroke="#FCD109" stroke-width="0.17625"/>
<path d="M108.6 22.2103C108.658 22.2229 108.291 21.8683 108.361 21.852C108.43 21.861 108.687 21.6674 109 21.8248C109.311 21.9823 109.234 22.3496 109.199 22.4871C109.156 22.65 109.049 22.7531 108.964 22.8346C108.917 22.8707 108.812 22.9286 108.749 22.925C108.787 22.7242 108.664 22.6898 108.655 22.4871L108.6 22.2103Z" fill="url(#paint2_linear_109_1253)" stroke="#FCD109" stroke-width="0.17625"/>
<path d="M95.0182 22.4328C95.0091 22.6373 94.8861 22.6681 94.9241 22.8708C94.8607 22.8744 94.7558 22.8165 94.7087 22.7803C94.5984 22.6897 94.5166 22.569 94.4735 22.4328C94.4391 22.2953 94.3631 21.9262 94.6725 21.7706C94.9856 21.6131 95.2425 21.8068 95.3113 21.7977C95.3837 21.814 95.0145 22.1687 95.0742 22.156L95.0182 22.4328Z" fill="url(#paint3_linear_109_1253)" stroke="#FCD109" stroke-width="0.17625"/>
<path d="M108.043 24.8305C108.108 24.778 108.15 24.778 108.235 24.778C107.724 25.842 107.131 26.906 106.235 27.7348C106.139 27.8171 106.039 27.8932 105.933 27.9628L105.631 28.1727C105.533 28.2372 105.437 28.3035 105.341 28.3717C105.099 28.4984 104.887 28.6757 104.618 28.7517C104.123 28.9723 103.604 29.1344 103.072 29.2349C102.864 29.2692 102.652 29.3181 102.439 29.3217C102.176 29.3941 101.896 29.3416 101.628 29.3579C101.48 29.3832 101.348 29.3018 101.203 29.3181C100.951 29.2825 100.701 29.233 100.454 29.1697C98.505 28.5852 96.5941 27.1521 96.0368 25.2159C96.0116 25.0847 95.9989 24.9514 95.9988 24.8178C96.0585 24.9336 96.12 25.0476 96.1833 25.1616C96.9759 26.8264 98.5484 28.1347 100.405 28.5291C100.555 28.5961 100.718 28.5726 100.863 28.6305C100.995 28.6305 101.123 28.625 101.25 28.6667C101.688 28.6757 102.126 28.6703 102.564 28.6703C102.622 28.6757 102.678 28.6468 102.737 28.6341C103.467 28.6106 104.181 28.417 104.846 28.1274C104.979 28.0695 105.11 28.008 105.24 27.9429C105.463 27.8298 105.676 27.6978 105.877 27.5484C106.679 26.9416 107.337 26.1656 107.804 25.2756L108.043 24.8323V24.8305Z" fill="#BDA727" stroke="#BDA727" stroke-width="0.17625"/>
<path d="M107.35 28.4694C108.613 27.7583 110.073 27.4145 111.526 27.3475C111.998 27.3077 112.474 27.3204 112.941 27.3783C113.249 27.447 113.562 27.5285 113.804 27.7293C113.681 27.7384 113.562 27.6841 113.439 27.6678C113.09 27.6027 112.729 27.628 112.377 27.619C111.352 27.619 110.321 27.6968 109.329 27.9664C108.807 28.1066 108.301 28.3045 107.822 28.5563C107.008 28.9906 106.271 29.5624 105.676 30.25C104.614 31.4262 103.989 32.9154 103.689 34.4336C103.544 35.2479 103.378 36.0586 103.246 36.8765C103.034 36.8964 102.817 36.8855 102.605 36.8855C101.67 36.8819 100.736 36.8765 99.8004 36.8674C99.6014 36.8765 99.406 36.8312 99.2069 36.8439C97.506 36.853 95.8068 36.8403 94.1077 36.8403L94.142 36.8276C95.4033 36.701 96.67 36.5562 97.9312 36.4386C99.5326 36.4313 101.13 36.435 102.732 36.4386C102.783 36.4313 102.873 36.4567 102.88 36.3843C103.012 35.722 103.141 35.0597 103.271 34.3956C103.454 33.4764 103.743 32.568 104.19 31.7284C104.907 30.3604 106.004 29.2292 107.35 28.4712V28.4694Z" fill="#0D69B3" stroke="#0D69B3" stroke-width="0.17625"/>
<path d="M109.331 27.9664C110.321 27.6968 111.353 27.6189 112.377 27.6189C112.73 27.628 113.092 27.6027 113.439 27.6678C113.562 27.6859 113.681 27.7384 113.805 27.7293C114.004 27.8849 114.123 28.1148 114.212 28.3446C114.407 28.8874 114.519 29.452 114.612 30.022C114.615 30.25 114.659 30.5088 114.53 30.7168C114.413 30.9213 114.174 31.0208 113.949 31.0824C113.13 31.2868 112.27 31.0932 111.452 31.2868C110.775 31.4244 110.147 31.7863 109.717 32.3056C109.21 32.9118 108.944 33.6628 108.794 34.4173C108.68 35.0868 108.537 35.76 108.421 36.4349C108.371 36.5869 108.342 36.7498 108.313 36.909C109.114 36.9217 109.918 36.909 110.719 36.9181C111.027 36.909 111.331 36.9253 111.637 36.9054C111.807 37.2818 111.769 37.707 111.715 38.1051C111.646 38.5503 111.535 38.9918 111.327 39.4026C111.154 39.75 110.864 40.0685 110.47 40.1915C110.265 40.2693 110.044 40.253 109.827 40.253C109.114 40.253 108.399 40.2621 107.687 40.253C107.573 40.7561 107.495 41.2718 107.393 41.7839C107.207 42.7791 107.024 43.778 106.836 44.775C106.831 44.8213 106.829 44.8678 106.829 44.9144V44.9198C104.972 44.9198 103.119 44.9234 101.263 44.9198L101.275 44.8583L101.288 44.7678L101.301 44.8908C101.417 44.9035 101.625 44.9596 101.654 44.8004C101.943 43.2948 102.211 41.7785 102.508 40.2729C102.391 40.2493 102.272 40.248 102.155 40.2693C102.137 40.3272 102.12 40.3851 102.101 40.4412L102.126 40.2585C100.97 40.253 99.8097 40.2585 98.6552 40.253C98.3729 40.2458 98.0852 40.253 97.8047 40.2205C97.3252 40.2006 96.8403 40.2168 96.3607 40.1716C95.7654 40.1716 95.1755 40.1173 94.5802 40.1173C94.1133 40.0739 93.641 40.0902 93.1687 40.0685C92.8629 40.0323 92.5499 40.0504 92.2386 40.0359C91.732 39.9816 91.2199 40.0196 90.7132 39.9671C90.1794 39.9708 89.6438 39.9255 89.1082 39.9128C89.1129 39.9058 89.116 39.8977 89.1172 39.8893C89.2945 39.8929 89.4683 39.8803 89.6474 39.8767C90.0419 39.8278 90.4436 39.8604 90.8363 39.8079C91.2488 39.8079 91.6578 39.7536 92.0685 39.7536C92.4341 39.7048 92.805 39.7337 93.1687 39.6848C93.5994 39.6848 94.0192 39.6306 94.4481 39.6269C94.8009 39.5817 95.1574 39.607 95.5103 39.5618C95.9228 39.5654 96.33 39.5039 96.7425 39.5075C97.1461 39.4641 97.5568 39.4749 97.9622 39.4351C97.9242 39.2831 97.8934 39.1311 97.8608 38.9809C97.8301 38.8868 97.7106 38.9068 97.6346 38.8941C96.7118 38.7674 95.7943 38.6408 94.8769 38.5177C94.9366 38.4725 95.0181 38.4924 95.085 38.4851C95.7998 38.4308 96.5091 38.3711 97.2221 38.3223C97.3849 38.3132 97.5405 38.2861 97.7034 38.2807C97.631 38.0671 97.5876 37.8337 97.4899 37.6383C95.9644 37.4121 94.439 37.213 92.919 36.9706C93.3135 36.909 93.7134 36.8801 94.1079 36.8403C95.8088 36.8403 97.508 36.8529 99.2071 36.8439C99.4062 36.8312 99.6016 36.8765 99.8006 36.8692L102.605 36.8855C102.817 36.8855 103.034 36.8982 103.248 36.8765C103.378 36.0586 103.545 35.2479 103.689 34.4336C103.99 32.9136 104.616 31.4244 105.678 30.25C106.271 29.5624 107.006 28.9906 107.822 28.5563C108.293 28.2939 108.812 28.1184 109.331 27.9664Z" fill="#107BD4" stroke="#107BD4" stroke-width="0.17625"/>
<path d="M108.423 36.435C109.228 36.4386 110.041 36.4313 110.851 36.4386C111.175 36.4386 111.506 36.6105 111.637 36.9054C111.331 36.9253 111.025 36.909 110.719 36.9181C109.918 36.909 109.114 36.9217 108.313 36.909C108.341 36.7498 108.37 36.587 108.421 36.435H108.423ZM102.155 40.2711C102.271 40.2498 102.391 40.251 102.508 40.2748C102.211 41.7803 101.943 43.2949 101.653 44.8004C101.625 44.9596 101.416 44.9035 101.301 44.8909L101.288 44.7678C101.556 43.3274 101.815 41.8816 102.1 40.443C102.12 40.3857 102.139 40.3278 102.155 40.2693V40.2711Z" fill="#0D69B3" stroke="#0D69B3" stroke-width="0.17625"/>
<path d="M108.794 22.3243C108.764 22.2606 108.75 22.1902 108.754 22.1198L108.722 22.1234C108.669 21.9443 108.513 21.7724 108.309 21.7633C108.155 21.7525 107.965 21.7561 107.875 21.8954C107.706 22.1162 107.786 22.3985 107.777 22.6482L107.782 22.7097C107.782 22.878 107.761 23.0409 107.73 23.2055C107.705 23.2549 107.693 23.3095 107.694 23.3648C107.621 23.7484 107.477 24.1302 107.281 24.4776C107.243 24.524 107.215 24.5784 107.2 24.6369C107.068 24.8486 106.921 25.0511 106.762 25.243C106.737 25.2639 106.715 25.2869 106.695 25.3118C106.584 25.4439 106.465 25.5543 106.342 25.6683C106.311 25.6864 106.291 25.7045 106.266 25.7226C106.119 25.8605 105.958 25.9818 105.785 26.0845L105.718 26.1315C104.63 26.8228 103.307 27.1087 102.021 27.1213C100.926 27.153 99.8388 26.932 98.8433 26.4753L98.7655 26.4428C98.6009 26.3559 98.4308 26.2817 98.2769 26.1768L98.172 26.1225C98.0149 26.0343 97.8654 25.9332 97.725 25.8203C97.678 25.7787 97.6273 25.7479 97.5767 25.7099C97.419 25.5926 97.2713 25.4625 97.1351 25.3209L97.0338 25.2177C96.5676 24.7605 96.2187 24.1975 96.0169 23.5765C95.8359 23.0897 95.8612 22.5577 95.8395 22.0474C95.6857 21.8212 95.3636 21.6946 95.1085 21.8339C95.0017 21.9063 94.989 22.042 94.9094 22.1361C94.7773 23.4878 95.3763 24.8323 96.3317 25.8094C96.3317 25.8402 96.3498 25.8619 96.3788 25.8728C96.5489 26.0248 96.7153 26.1804 96.8854 26.3269C96.9164 26.3579 96.9503 26.3858 96.9868 26.4102C97.1568 26.5441 97.3396 26.6671 97.517 26.7938C97.551 26.8179 97.5867 26.8397 97.6237 26.8589C97.8589 26.991 98.0779 27.1467 98.3294 27.2353C98.3475 27.248 98.3765 27.2697 98.3928 27.2769C99.1998 27.6497 100.07 27.903 100.962 27.9845C101.06 27.9845 101.158 27.9935 101.255 28.0134C101.681 28.0388 102.106 28.0261 102.531 28.017C103.843 27.9085 105.198 27.6009 106.295 26.8553L106.308 26.8734C106.339 26.8456 106.372 26.819 106.405 26.7938C106.622 26.6392 106.833 26.4768 107.039 26.307C107.225 26.1116 107.442 25.9307 107.6 25.7063L107.625 25.7171L107.672 25.6357C107.817 25.4475 107.947 25.2521 108.076 25.0549C108.085 25.0422 108.104 25.0223 108.112 25.0096L108.097 24.9933L108.152 24.9282C108.387 24.4704 108.593 23.9909 108.665 23.4824C108.696 23.4715 108.712 23.4462 108.712 23.4172C108.716 23.2544 108.776 23.0988 108.76 22.9341C108.796 22.735 108.801 22.5288 108.794 22.3243Z" fill="white" stroke="white" stroke-width="0.17625"/>
<path d="M23.6195 24.0723C24.2348 23.9818 24.9441 23.9275 25.4652 24.2967C25.7909 24.5319 25.9086 24.9571 25.885 25.3371C25.9086 25.9632 25.6064 26.6346 25.0255 26.9603C24.5134 27.2281 23.8982 27.2498 23.33 27.1955C22.9464 27.1503 22.5628 26.9476 22.3655 26.6128C21.924 25.6393 22.4705 24.2623 23.6195 24.0723ZM5.19857 24.778C5.22006 24.6056 5.30349 24.4468 5.43331 24.3313C5.56314 24.2158 5.73051 24.1514 5.90428 24.1501C8.58961 24.1501 11.2605 24.1628 13.9331 24.1501C14.2227 24.1284 14.5357 24.2514 14.675 24.4975C14.8741 24.8341 14.6986 25.2032 14.675 25.5488C14.5936 26.0193 14.6171 26.6454 14.0489 26.8246C12.0965 26.8807 10.1458 26.8246 8.19333 26.8481C8.00876 28.0333 7.83323 29.2095 7.64866 30.3839C7.64866 30.4291 7.65952 30.5287 7.65952 30.5739C9.08904 30.563 10.5186 30.5739 11.9463 30.563C12.3408 30.5395 12.7606 30.8652 12.7244 31.2688C12.6882 31.6813 12.5977 32.083 12.538 32.4992C12.5112 32.6442 12.4418 32.778 12.3387 32.8834C12.2355 32.9888 12.1033 33.061 11.9589 33.0909C10.3666 33.1253 8.75066 33.0584 7.16009 33.1253C6.90495 34.8154 6.60276 36.5037 6.33495 38.1938C6.31849 38.3616 6.24279 38.5181 6.12142 38.6351C6.00006 38.7522 5.84096 38.8222 5.67266 38.8326C5.01038 38.8434 4.34809 38.8434 3.68761 38.8326C3.25695 38.8434 2.90952 38.3838 3.02533 37.9929C3.73285 33.5849 4.46571 29.186 5.19676 24.778H5.19857ZM16.9985 24.1736C17.6029 24.1284 18.2181 24.1628 18.8225 24.1501C19.1934 24.1284 19.5644 24.4088 19.6006 24.778C19.6006 25.0675 19.5191 25.3588 19.4848 25.6502C18.9962 28.6486 18.4968 31.6488 18.01 34.6471C17.9394 35.1285 17.8109 35.6424 17.9629 36.1364C18.1367 36.6286 18.9148 36.415 19.1029 36.9308C19.2169 37.3433 19.0903 37.7812 19.0541 38.2065C19.0197 38.7656 18.3574 38.8887 17.905 39.0117C16.917 39.1908 15.7209 39.0569 15.0116 38.2734C14.5013 37.7016 14.4669 36.8964 14.5719 36.1798C15.1871 32.3762 15.8024 28.5708 16.4303 24.7545C16.451 24.6098 16.5172 24.4756 16.6194 24.3711C16.7216 24.2667 16.8543 24.1975 16.9985 24.1736ZM40.0554 24.778C40.0782 24.6074 40.161 24.4504 40.289 24.3354C40.417 24.2203 40.5818 24.1546 40.7539 24.1501H42.5182C42.9597 24.1392 43.3198 24.5988 43.2167 25.0006C42.8095 27.485 42.3915 29.9695 41.9862 32.454C42.6014 32.3635 43.2981 32.2531 43.7269 31.7718C44.4471 30.9883 45.0407 30.0817 45.4822 29.1299C45.6324 28.7608 45.7138 28.2251 46.2132 28.1564C46.8755 28.1347 47.5487 28.1455 48.2109 28.1564C48.6633 28.1455 48.9999 28.6377 48.8497 29.0412C48.676 29.6348 48.3847 30.1812 48.0825 30.7078C47.4093 31.7609 46.6656 32.8014 45.6903 33.6284C46.1209 34.8715 46.6674 36.0803 47.1415 37.2999C47.2808 37.7016 47.6192 38.1721 47.3044 38.5629C46.9443 39.0334 46.2711 38.7982 45.7717 38.8543C45.2488 38.8 44.4942 39.0551 44.2029 38.4851C43.6564 37.2655 43.204 36.0115 42.6467 34.7937C42.3174 34.8118 41.9873 34.8075 41.6587 34.781L41.5682 34.962C41.3927 36.0803 41.2063 37.1986 41.0199 38.3168C40.9883 38.4553 40.9144 38.5804 40.8083 38.6748C40.7022 38.7692 40.5693 38.8281 40.4282 38.8434C39.8129 38.8651 39.185 38.8543 38.5571 38.8543C38.4274 38.8511 38.3008 38.8131 38.1907 38.7444C38.0806 38.6757 37.9909 38.5786 37.931 38.4634C37.8152 38.239 37.884 37.9821 37.9184 37.736C38.6386 33.4167 39.3479 29.0973 40.0554 24.778ZM72.3373 25.9976C72.3828 25.8437 72.4783 25.7094 72.6088 25.6159C72.7392 25.5225 72.8972 25.4753 73.0575 25.4819C73.5226 25.4946 73.9985 25.471 74.4744 25.4946C74.858 25.5054 75.1602 25.8746 75.1131 26.2328C75.0444 26.8698 74.8815 27.5086 74.8345 28.1455C75.2868 28.1455 75.7519 28.1347 76.2043 28.1455C76.6114 28.1455 76.948 28.549 76.8792 28.929C76.8213 29.2765 76.7399 29.6112 76.6802 29.9587C76.6479 30.1029 76.5733 30.2342 76.466 30.3357C76.3586 30.4373 76.2234 30.5045 76.0776 30.5287C75.5203 30.563 74.9738 30.5069 74.4273 30.563C74.1957 32.0613 73.9388 33.5614 73.6963 35.0615C73.6601 35.4071 73.6384 35.7998 73.8465 36.102C74.1613 36.4711 74.706 36.3372 75.1493 36.3825C75.4967 36.482 75.7175 36.8529 75.6596 37.1877C75.6017 37.5677 75.589 37.9477 75.4967 38.3168C75.3574 38.733 74.858 38.809 74.4744 38.9104C73.4176 39.18 72.198 39.18 71.257 38.5847C70.3848 38.0147 70.2455 36.9072 70.3396 35.9681C70.5839 34.1549 70.9657 32.3527 71.1756 30.5287C70.8499 30.5395 70.4554 30.5848 70.2111 30.3061C69.9325 30.0256 70.0718 29.6112 70.1188 29.2638C70.1876 28.8947 70.1768 28.4133 70.5947 28.2143C70.9313 28.0894 71.3149 28.1781 71.675 28.1347C71.8958 27.4181 72.1039 26.7015 72.3373 25.9976ZM65.7724 29.6221C66.5034 28.9164 67.3865 28.3373 68.3962 28.046C68.8395 27.8542 69.4095 28.2125 69.3968 28.6829C69.3154 29.2982 69.1634 29.9026 69.0603 30.5069C69.0328 30.66 68.957 30.8002 68.844 30.907C68.731 31.0138 68.5867 31.0816 68.4324 31.1005C67.2924 31.2905 66.3062 31.9509 65.5172 32.7345C65.3182 32.9697 65.0287 33.1923 64.9925 33.5162C64.7472 35.0841 64.4963 36.6512 64.2397 38.2173C64.2035 38.5521 63.9013 38.8778 63.5412 38.8543H61.7769C61.6785 38.8558 61.5809 38.8368 61.4902 38.7986C61.3995 38.7604 61.3177 38.7038 61.25 38.6324C61.1823 38.5609 61.1302 38.4762 61.0969 38.3836C61.0637 38.291 61.05 38.1925 61.0567 38.0943C61.567 34.9946 62.0791 31.9057 62.5767 28.806C62.6003 28.4929 62.8337 28.1908 63.1703 28.1564C63.5991 28.1347 64.0298 28.1455 64.4713 28.1455C64.8188 28.1455 65.1445 28.4477 65.1445 28.7951C65.1445 29.2765 65.0992 29.7687 65.0866 30.2608C65.3652 30.0926 65.5389 29.8248 65.7724 29.6221ZM22.351 28.2016C22.9789 28.0786 23.6304 28.1799 24.2565 28.1473C24.6184 28.1003 25.0002 28.3247 25.0581 28.6721C25.1051 28.9851 25.011 29.2873 24.9767 29.5895C24.5008 32.4667 24.0249 35.3402 23.5598 38.2173C23.5236 38.543 23.2468 38.8651 22.8867 38.8543C22.2588 38.8543 21.6308 38.8651 20.9921 38.8434C20.5976 38.7982 20.3081 38.3621 20.413 37.9929C20.9125 35.0054 21.3884 32.0288 21.8878 29.0412C21.9113 28.7155 22.0036 28.3355 22.351 28.2016ZM59.9403 28.3464C58.2104 28.0333 56.4443 27.8108 54.6908 27.9772C53.122 28.169 51.5423 28.8512 50.5778 30.0944C49.2424 31.7266 48.79 33.9197 49.0922 35.9572C49.255 36.9308 49.6966 37.9151 50.5217 38.5195C51.2871 39.0895 52.3204 39.1673 53.2505 39.0226C54.5515 38.7765 55.6553 37.9712 56.5619 37.0755C56.6071 37.4555 56.5149 37.8355 56.5366 38.2065C56.5601 38.5521 56.8858 38.876 57.2459 38.8543H58.4311C58.7786 38.8543 59.0699 38.5412 59.0934 38.2173C59.5928 35.1846 60.0923 32.1627 60.5808 29.1426C60.6496 28.7626 60.3366 28.3916 59.9403 28.3464ZM56.6777 33.6175C56.1927 34.4658 55.5681 35.2262 54.8302 35.8668C54.4122 36.2033 53.8784 36.5489 53.3084 36.4386C52.751 36.3264 52.4832 35.7672 52.3566 35.2859C52.2167 34.6528 52.2072 33.9978 52.3289 33.361C52.4505 32.7241 52.7007 32.1188 53.0641 31.5818C53.3898 31.0769 53.9128 30.6969 54.5171 30.5413C55.364 30.3387 56.2579 30.44 57.083 30.6644L57.1301 30.7078C57.0251 31.6813 56.8279 32.644 56.6777 33.6175ZM37.1403 31.9419C37.1294 30.8218 36.8146 29.6474 36.0021 28.8078C35.4448 28.2143 34.6088 27.9121 33.7945 27.9229C32.4482 27.8795 31.1815 28.5165 30.1935 29.3669C29.9746 29.5352 29.8226 29.7813 29.5783 29.9152C29.5783 29.5461 29.6145 29.1769 29.6018 28.7969C29.6145 28.4495 29.2761 28.1473 28.9287 28.1473H27.7434C27.5662 28.1517 27.3968 28.2217 27.2681 28.3437C27.1395 28.4657 27.0606 28.631 27.0468 28.8078C26.3139 33.2846 25.572 37.7595 24.8391 42.2345C24.7342 42.6507 25.1069 43.0759 25.5485 43.0632C26.1999 43.0524 26.8604 43.1085 27.4991 43.0198C28.0112 42.8841 27.9986 42.3141 28.08 41.8997C28.2584 40.9171 28.402 39.9285 28.5107 38.9357C30.7979 39.3609 33.4579 39.0696 35.1661 37.4012C36.5594 35.9355 37.2108 33.9088 37.1403 31.9419ZM33.8886 33.071C33.818 34.1007 33.4362 35.1411 32.6925 35.8903C31.728 36.7751 30.2641 36.6521 29.0788 36.3499C29.0515 36.3077 29.0285 36.2628 29.0101 36.216C29.1947 35.2425 29.2888 34.2581 29.5204 33.2954C30.1718 32.264 30.9608 31.2253 32.0881 30.6535C32.5061 30.4635 33.0761 30.5088 33.3783 30.8779C33.8886 31.4931 33.9356 32.3219 33.8886 33.071Z" fill="#107BD4" stroke="#107BD4" stroke-width="0.189375"/>
</g>
<defs>
<linearGradient id="paint0_linear_109_1253" x1="101.842" y1="20.8948" x2="101.842" y2="44.9506" gradientUnits="userSpaceOnUse">
<stop stop-color="#F7E830"/>
<stop offset="1" stop-color="#FDCB06"/>
</linearGradient>
<radialGradient id="paint1_radial_109_1253" cx="0" cy="0" r="1" gradientUnits="userSpaceOnUse" gradientTransform="translate(101.711 31.8659) scale(20.3114 19.5669)">
<stop offset="0.596" stop-color="#F29405"/>
<stop offset="0.736" stop-color="#F7D01E"/>
<stop offset="1" stop-color="#FDCB06"/>
</radialGradient>
<linearGradient id="paint2_linear_109_1253" x1="108.792" y1="21.7633" x2="108.798" y2="22.9015" gradientUnits="userSpaceOnUse">
<stop stop-color="#FADA1C"/>
<stop offset="1" stop-color="#FDCB06"/>
</linearGradient>
<linearGradient id="paint3_linear_109_1253" x1="94.8824" y1="21.709" x2="94.8752" y2="22.8472" gradientUnits="userSpaceOnUse">
<stop stop-color="#FADA1C"/>
<stop offset="1" stop-color="#FDCB06"/>
</linearGradient>
<clipPath id="clip0_109_1253">
<rect width="114" height="28.9524" fill="white" transform="translate(3 16)"/>
</clipPath>
</defs>
</svg>
