<svg width="20" height="20" viewBox="0 0 20 20" fill="none" xmlns="http://www.w3.org/2000/svg">
<g clip-path="url(#clip0_890_1484)">
<path d="M8.74991 10C9.33027 9.99993 9.90485 10.1153 10.4402 10.3395C10.9755 10.5636 11.4609 10.8921 11.8681 11.3056C12.2752 11.7192 12.596 12.2096 12.8118 12.7484C13.0276 13.2872 13.134 13.8635 13.1249 14.4438C13.1234 14.5398 13.1441 14.635 13.1854 14.7217C13.2267 14.8085 13.2874 14.8846 13.3629 14.9441C13.4383 15.0036 13.5265 15.0449 13.6205 15.0648C13.7145 15.0847 13.8118 15.0826 13.9049 15.0588C14.1821 14.9877 14.4718 14.981 14.752 15.039C15.0321 15.097 15.2954 15.2182 15.5216 15.3934C15.7478 15.5686 15.931 15.7931 16.0572 16.0499C16.1834 16.3067 16.2493 16.5889 16.2499 16.875C16.2499 17.3723 16.0524 17.8492 15.7007 18.2008C15.3491 18.5525 14.8722 18.75 14.3749 18.75H3.74991C3.41753 18.7481 3.08887 18.68 2.78315 18.5496C2.47742 18.4192 2.20077 18.2291 1.96937 17.9905C1.73797 17.7519 1.55648 17.4696 1.4355 17.16C1.31453 16.8504 1.2565 16.5198 1.26481 16.1875C1.27312 15.8553 1.3476 15.528 1.48391 15.2248C1.62021 14.9217 1.81559 14.6488 2.05863 14.422C2.30166 14.1953 2.58747 14.0193 2.89933 13.9043C3.2112 13.7894 3.54285 13.7378 3.87491 13.7525C4.01893 13.7599 4.16109 13.7173 4.27728 13.6319C4.39347 13.5464 4.47654 13.4234 4.51241 13.2838C4.75486 12.3441 5.30266 11.5117 6.06969 10.9173C6.83673 10.3229 7.77952 10.0003 8.74991 10ZM14.3412 13.75C14.2005 12.4827 13.6335 11.3007 12.733 10.398C11.8325 9.49519 10.652 8.92515 9.38501 8.78131C8.11805 8.63746 6.8398 8.92836 5.75985 9.60629C4.67989 10.2842 3.86231 11.309 3.44116 12.5125C2.47608 12.5915 1.57897 13.0407 0.93761 13.7662C0.29625 14.4916 -0.039637 15.437 0.000257413 16.4045C0.0401518 17.372 0.452735 18.2865 1.15164 18.9567C1.85055 19.6269 2.7816 20.0007 3.74991 20H14.3749C15.2037 20 15.9986 19.6708 16.5846 19.0847C17.1707 18.4987 17.4999 17.7038 17.4999 16.875C17.4999 16.0462 17.1707 15.2513 16.5846 14.6653C15.9986 14.0792 15.2037 13.75 14.3749 13.75H14.3412Z" fill="black"/>
<path d="M13.1247 1.875C13.1247 1.70924 13.0589 1.55027 12.9416 1.43306C12.8244 1.31585 12.6655 1.25 12.4997 1.25C12.3339 1.25 12.175 1.31585 12.0578 1.43306C11.9406 1.55027 11.8747 1.70924 11.8747 1.875V3.125C11.8747 3.29076 11.9406 3.44973 12.0578 3.56694C12.175 3.68415 12.3339 3.75 12.4997 3.75C12.6655 3.75 12.8244 3.68415 12.9416 3.56694C13.0589 3.44973 13.1247 3.29076 13.1247 3.125V1.875ZM17.8035 4.33C17.8631 4.27235 17.9108 4.20338 17.9435 4.12713C17.9763 4.05088 17.9935 3.96886 17.9942 3.88588C17.995 3.80289 17.9791 3.72059 17.9477 3.64378C17.9163 3.56697 17.8699 3.49719 17.8112 3.4385C17.7525 3.37982 17.6827 3.33341 17.6059 3.30199C17.5291 3.27056 17.4468 3.25475 17.3638 3.25547C17.2808 3.25619 17.1988 3.27343 17.1226 3.30619C17.0463 3.33894 16.9774 3.38656 16.9197 3.44625L16.0347 4.33C15.9173 4.44736 15.8514 4.60653 15.8514 4.7725C15.8514 4.93847 15.9173 5.09764 16.0347 5.215C16.1521 5.33236 16.3112 5.39829 16.4772 5.39829C16.6432 5.39829 16.8023 5.33236 16.9197 5.215L17.8035 4.33ZM8.0797 3.44625C7.96183 3.3324 7.80395 3.26941 7.64008 3.27083C7.4762 3.27225 7.31945 3.33798 7.20357 3.45386C7.08769 3.56974 7.02196 3.7265 7.02053 3.89037C7.01911 4.05425 7.0821 4.21212 7.19595 4.33L8.0797 5.215C8.13781 5.27311 8.2068 5.31921 8.28272 5.35066C8.35865 5.3821 8.44002 5.39829 8.5222 5.39829C8.60438 5.39829 8.68576 5.3821 8.76168 5.35066C8.83761 5.31921 8.90659 5.27311 8.9647 5.215C9.02281 5.15689 9.06891 5.0879 9.10036 5.01198C9.13181 4.93606 9.14799 4.85468 9.14799 4.7725C9.14799 4.69032 9.13181 4.60895 9.10036 4.53302C9.06891 4.4571 9.02281 4.38811 8.9647 4.33L8.0797 3.44625ZM10.2472 7.66375C10.4026 7.3418 10.6252 7.05691 10.9 6.8283C11.1748 6.59969 11.4954 6.43267 11.8403 6.33852C12.1852 6.24437 12.5462 6.22526 12.899 6.2825C13.2519 6.33974 13.5884 6.47198 13.8858 6.67032C14.1832 6.86865 14.4346 7.12846 14.6231 7.43221C14.8116 7.73597 14.9327 8.07662 14.9783 8.43117C15.0239 8.78572 14.993 9.14593 14.8876 9.48751C14.7822 9.82909 14.6047 10.1441 14.3672 10.4113C14.616 10.7625 14.8322 11.1388 15.0122 11.5338C15.4358 11.151 15.7665 10.6766 15.9789 10.1467C16.1913 9.61673 16.28 9.04529 16.238 8.47591C16.1961 7.90653 16.0247 7.35424 15.737 6.86115C15.4492 6.36805 15.0527 5.94718 14.5775 5.6306C14.1024 5.31402 13.5613 5.11011 12.9954 5.0344C12.4296 4.95869 11.8539 5.01319 11.3122 5.19374C10.7706 5.3743 10.2774 5.67613 9.87012 6.07624C9.46285 6.47635 9.15232 6.96417 8.9622 7.5025C9.4022 7.51625 9.8322 7.57125 10.2472 7.66375ZM15.8522 12.7563C16.6022 13.025 17.2585 13.4938 17.7547 14.0963C17.8228 14.0411 17.8785 13.9723 17.9182 13.8943C17.958 13.8163 17.9809 13.7308 17.9855 13.6434C17.9901 13.5559 17.9763 13.4685 17.9449 13.3867C17.9135 13.3049 17.8654 13.2307 17.8035 13.1688L16.9197 12.285C16.8306 12.1954 16.7164 12.1349 16.5922 12.1114C16.468 12.088 16.3397 12.1028 16.224 12.1539C16.1084 12.2049 16.011 12.2898 15.9446 12.3973C15.8782 12.5049 15.846 12.63 15.8522 12.7563ZM18.1247 8.125C17.9589 8.125 17.8 8.19085 17.6828 8.30806C17.5656 8.42527 17.4997 8.58424 17.4997 8.75C17.4997 8.91576 17.5656 9.07473 17.6828 9.19194C17.8 9.30915 17.9589 9.375 18.1247 9.375H19.3747C19.5405 9.375 19.6994 9.30915 19.8166 9.19194C19.9339 9.07473 19.9997 8.91576 19.9997 8.75C19.9997 8.58424 19.9339 8.42527 19.8166 8.30806C19.6994 8.19085 19.5405 8.125 19.3747 8.125H18.1247Z" fill="black"/>
</g>
<defs>
<clipPath id="clip0_890_1484">
<rect width="20" height="20" fill="white"/>
</clipPath>
</defs>
</svg>
