<svg width="20" height="20" viewBox="0 0 20 20" fill="none" xmlns="http://www.w3.org/2000/svg">
<g opacity="0.7">
<path d="M17.2854 10.8708C16.7207 11.0208 16.1389 11.0967 15.5546 11.0967C13.7754 11.0967 12.1046 10.405 10.8496 9.15C10.0254 8.32112 9.43294 7.29072 9.13116 6.1615C8.82937 5.03227 8.82881 3.84367 9.12956 2.71417C9.16711 2.57294 9.16688 2.42433 9.12886 2.28323C9.09085 2.14212 9.01641 2.0135 8.91299 1.91025C8.80958 1.80701 8.68083 1.73277 8.53967 1.69499C8.3985 1.65721 8.24988 1.65721 8.10872 1.695C6.69469 2.07182 5.40461 2.81386 4.36789 3.84667C1.11956 7.095 1.11956 12.3825 4.36789 15.6325C5.14 16.4089 6.05842 17.0245 7.07001 17.4436C8.08159 17.8627 9.16626 18.077 10.2612 18.0742C11.3559 18.0772 12.4403 17.8631 13.4516 17.4441C14.463 17.0251 15.3811 16.4097 16.1529 15.6333C17.1865 14.5964 17.9289 13.3057 18.3054 11.8908C18.3428 11.7497 18.3425 11.6012 18.3045 11.4602C18.2665 11.3192 18.1922 11.1906 18.0889 11.0873C17.9856 10.9841 17.8571 10.9097 17.7161 10.8717C17.5751 10.8337 17.4266 10.8334 17.2854 10.8708ZM14.9754 14.455C14.3579 15.0759 13.6233 15.5682 12.8143 15.9033C12.0052 16.2385 11.1378 16.4098 10.2621 16.4075C9.38605 16.4097 8.5183 16.2382 7.70899 15.9029C6.89969 15.5676 6.16488 15.0752 5.54706 14.4542C2.94872 11.855 2.94872 7.625 5.54706 5.02583C6.04914 4.52431 6.6288 4.10701 7.26372 3.79C7.17079 4.98922 7.33785 6.19436 7.7535 7.32307C8.16914 8.45179 8.82357 9.47746 9.67206 10.33C10.5227 11.1811 11.5481 11.8374 12.6773 12.2534C13.8065 12.6693 15.0125 12.8351 16.2121 12.7392C15.8933 13.373 15.4759 13.9522 14.9754 14.455Z" fill="black"/>
</g>
</svg>
