<svg width="20" height="20" viewBox="0 0 20 20" fill="none" xmlns="http://www.w3.org/2000/svg">
<g opacity="0.7">
<path d="M0.625 15H19.375C19.5408 15 19.6997 15.0658 19.8169 15.1831C19.9342 15.3003 20 15.4592 20 15.625C20 15.7908 19.9342 15.9497 19.8169 16.0669C19.6997 16.1842 19.5408 16.25 19.375 16.25H0.625C0.45924 16.25 0.300269 16.1842 0.183058 16.0669C0.065848 15.9497 0 15.7908 0 15.625C0 15.4592 0.065848 15.3003 0.183058 15.1831C0.300269 15.0658 0.45924 15 0.625 15ZM3.1525 13.125C3.30592 11.4148 4.09371 9.82401 5.36091 8.6654C6.62811 7.5068 8.28298 6.8643 10 6.8643C11.717 6.8643 13.3719 7.5068 14.6391 8.6654C15.9063 9.82401 16.6941 11.4148 16.8475 13.125H15.5912C15.4397 11.748 14.7854 10.4753 13.7537 9.5509C12.7219 8.62646 11.3853 8.11526 10 8.11526C8.61469 8.11526 7.2781 8.62646 6.24635 9.5509C5.2146 10.4753 4.56028 11.748 4.40875 13.125H3.1525ZM10 2.5C10.1658 2.5 10.3247 2.56585 10.4419 2.68306C10.5592 2.80027 10.625 2.95924 10.625 3.125V5C10.625 5.16576 10.5592 5.32473 10.4419 5.44194C10.3247 5.55915 10.1658 5.625 10 5.625C9.83424 5.625 9.67527 5.55915 9.55806 5.44194C9.44085 5.32473 9.375 5.16576 9.375 5V3.125C9.375 2.95924 9.44085 2.80027 9.55806 2.68306C9.67527 2.56585 9.83424 2.5 10 2.5ZM17.955 5.795C18.0722 5.9122 18.138 6.07115 18.138 6.23688C18.138 6.4026 18.0722 6.56154 17.955 6.67875L16.63 8.00375C16.5723 8.06344 16.5034 8.11106 16.4271 8.14381C16.3509 8.17657 16.2689 8.19381 16.1859 8.19453C16.1029 8.19525 16.0206 8.17944 15.9438 8.14801C15.867 8.11659 15.7972 8.07018 15.7385 8.0115C15.6798 7.95281 15.6334 7.88303 15.602 7.80622C15.5706 7.72941 15.5547 7.64711 15.5555 7.56412C15.5562 7.48114 15.5734 7.39912 15.6062 7.32287C15.6389 7.24662 15.6866 7.17765 15.7463 7.12L17.0712 5.795C17.1885 5.67783 17.3474 5.61201 17.5131 5.61201C17.6789 5.61201 17.8378 5.67783 17.955 5.795ZM2.045 5.795C2.1622 5.67783 2.32115 5.61201 2.48688 5.61201C2.6526 5.61201 2.81155 5.67783 2.92875 5.795L4.25375 7.12C4.31344 7.17765 4.36106 7.24662 4.39381 7.32287C4.42657 7.39912 4.44381 7.48114 4.44453 7.56412C4.44525 7.64711 4.42944 7.72941 4.39801 7.80622C4.36659 7.88303 4.32018 7.95281 4.2615 8.0115C4.20281 8.07018 4.13303 8.11659 4.05622 8.14801C3.97941 8.17944 3.89711 8.19525 3.81412 8.19453C3.73114 8.19381 3.64912 8.17657 3.57287 8.14381C3.49662 8.11106 3.42765 8.06344 3.37 8.00375L2.045 6.67875C1.92783 6.56154 1.86201 6.4026 1.86201 6.23688C1.86201 6.07115 1.92783 5.9122 2.045 5.795Z" fill="black"/>
</g>
</svg>
