<svg width="84" height="36" viewBox="0 0 84 36" fill="none" xmlns="http://www.w3.org/2000/svg">
<mask id="mask0_3399_2158" style="mask-type:alpha" maskUnits="userSpaceOnUse" x="0" y="0" width="84" height="36">
<rect width="84" height="36" fill="#C4C4C4"/>
</mask>
<g mask="url(#mask0_3399_2158)">
</g>
<g clip-path="url(#clip0_3399_2158)">
<path fill-rule="evenodd" clip-rule="evenodd" d="M27.623 21.487C27.207 21.68 26.392 21.9 25.417 21.9C22.989 21.9 21.407 20.284 21.407 17.793C21.407 15.303 23.008 13.518 25.738 13.518C26.394 13.518 27.028 13.638 27.64 13.882L27.29 15.418C26.97 15.252 26.507 15.104 25.804 15.104C24.299 15.104 23.407 16.242 23.422 17.713C23.422 19.362 24.458 20.304 25.804 20.304C26.337 20.3111 26.8655 20.2044 27.354 19.991L27.626 21.491L27.623 21.487ZM28.743 21.735H30.708V10H28.742V21.735H28.743ZM33.938 18.289C33.987 19.743 35.088 20.369 36.334 20.369C37.074 20.379 37.794 20.259 38.491 20.006L38.778 21.392C38.108 21.687 37.177 21.902 36.06 21.902C33.536 21.902 32.05 20.302 32.05 17.843C32.05 15.616 33.36 13.521 35.855 13.521C38.349 13.521 39.211 15.666 39.211 17.432C39.214 17.721 39.191 18.006 39.148 18.289H33.938ZM37.358 16.869C37.375 16.127 37.054 14.904 35.744 14.904C34.53 14.904 34.018 16.042 33.938 16.869H37.358ZM46.532 19.805C46.532 20.532 46.564 21.241 46.659 21.732H44.886L44.742 20.84H44.693C44.23 21.467 43.415 21.913 42.392 21.913C40.827 21.913 39.943 20.74 39.943 19.52C39.943 17.508 41.684 16.468 44.561 16.483V16.355C44.561 15.826 44.353 14.952 42.979 14.952C42.609 14.952 42.249 15.004 41.892 15.104C41.537 15.204 41.202 15.352 40.883 15.545L40.499 14.225C41.074 13.862 42.081 13.515 43.312 13.515C45.805 13.515 46.524 15.155 46.524 16.914V19.8L46.532 19.805ZM44.617 17.808C43.227 17.791 41.9 18.088 41.9 19.312C41.9 20.104 42.394 20.467 43.018 20.467C43.23 20.4711 43.4407 20.4326 43.6375 20.3537C43.8344 20.2749 44.0134 20.1573 44.164 20.008C44.3481 19.8275 44.4866 19.6057 44.568 19.361C44.61 19.217 44.624 19.069 44.618 18.916V17.808H44.617ZM48.243 16.295C48.243 15.205 48.228 14.413 48.179 13.704H49.874L49.954 15.222H50.001C50.386 14.1 51.296 13.523 52.143 13.523C52.3 13.523 52.454 13.538 52.606 13.573V15.468C52.4114 15.4326 52.2138 15.4159 52.016 15.418C51.088 15.418 50.434 16.027 50.258 16.951C50.2255 17.1534 50.2102 17.3581 50.212 17.563V21.737H48.246V16.292L48.243 16.295ZM56.233 11.639V13.696H58.103V15.215H56.233V18.745C56.233 19.735 56.489 20.231 57.238 20.231C57.498 20.244 57.755 20.216 58.005 20.149L58.036 21.682C57.755 21.797 57.221 21.898 56.614 21.898C55.88 21.898 55.287 21.65 54.92 21.238C54.486 20.778 54.298 20.033 54.298 18.978V15.22H53.196V13.699H54.3V12.198L56.234 11.641L56.232 11.639H56.233ZM59.204 16.289C59.204 15.199 59.19 14.408 59.141 13.699H60.835L60.913 15.217H60.963C61.344 14.095 62.257 13.518 63.105 13.518C63.261 13.518 63.415 13.533 63.57 13.568V15.465C63.3744 15.4296 63.1758 15.4128 62.977 15.415C62.049 15.415 61.396 16.025 61.219 16.949C61.1868 17.1511 61.1704 17.3554 61.17 17.56V21.735H59.204V16.287V16.29V16.289ZM65.484 12.543C65.268 12.5538 65.0543 12.4953 64.874 12.376C64.7525 12.2985 64.6497 12.195 64.573 12.073C64.4536 11.8896 64.3916 11.6748 64.395 11.456C64.395 10.829 64.843 10.351 65.499 10.351C66.155 10.351 66.586 10.831 66.601 11.456C66.601 12.052 66.167 12.546 65.499 12.546H65.482L65.484 12.543ZM64.51 21.735H66.476V13.696H64.51V21.735ZM68.266 16.372C68.266 15.312 68.234 14.458 68.2 13.699H69.926L70.019 14.937H70.051C70.626 14.029 71.537 13.518 72.719 13.518C74.506 13.518 75.995 15.102 75.995 17.61C75.995 20.514 74.222 21.918 72.447 21.918C71.473 21.918 70.657 21.489 70.257 20.845H70.224V25.002H68.261V16.37L68.266 16.372ZM70.232 18.37C70.232 18.557 70.246 18.745 70.281 18.93C70.489 19.755 71.177 20.35 72.024 20.35C73.272 20.35 74.002 19.277 74.002 17.693C74.002 16.275 73.332 15.119 72.068 15.119C71.253 15.119 70.503 15.731 70.295 16.62C70.2582 16.7884 70.2361 16.9597 70.229 17.132V18.37H70.234H70.232Z" fill="#2B4591"/>
<path fill-rule="evenodd" clip-rule="evenodd" d="M19.593 20.347C19.5944 20.5173 19.5611 20.6861 19.495 20.843C19.4299 20.9993 19.337 21.1426 19.221 21.266C19.1041 21.3881 18.9632 21.4844 18.807 21.549C18.6543 21.6166 18.4889 21.6507 18.322 21.649H9.271C9.18771 21.6499 9.10458 21.6418 9.023 21.625C8.94216 21.6071 8.86291 21.5827 8.786 21.552C8.70912 21.5189 8.63547 21.4787 8.566 21.432C8.49575 21.3847 8.43072 21.33 8.372 21.269C8.25148 21.1482 8.15718 21.0039 8.095 20.845C8.06363 20.7663 8.0392 20.685 8.022 20.602C8.00742 20.5178 8.00006 20.4325 8 20.347V11.303C8.00115 11.1323 8.03334 10.9632 8.095 10.804C8.19364 10.5685 8.3565 10.3654 8.565 10.218C8.70471 10.1247 8.86077 10.0585 9.025 10.023C9.109 10.005 9.19 9.997 9.273 9.997H18.323C18.4896 9.9954 18.6547 10.0295 18.807 10.097C19.0414 10.1963 19.2401 10.3644 19.377 10.579C19.424 10.649 19.463 10.724 19.495 10.804C19.5611 10.961 19.5944 11.1297 19.593 11.3V20.347Z" fill="#E07139"/>
<path fill-rule="evenodd" clip-rule="evenodd" d="M10.9939 14.49L12.4339 17.056L17.0839 12.994L18.1559 14.864L12.2379 18.678L9.8999 16.259L10.9939 14.49Z" fill="white"/>
</g>
<defs>
<clipPath id="clip0_3399_2158">
<rect width="68" height="15" fill="white" transform="translate(8 10)"/>
</clipPath>
</defs>
</svg>
