<svg width="84" height="36" viewBox="0 0 84 36" fill="none" xmlns="http://www.w3.org/2000/svg">
<g clip-path="url(#clip0_6639_2155)">
<path d="M20.1162 21.0923C19.9928 22.0723 19.6687 22.8748 19.1517 23.5153C18.3106 24.557 17.1917 25.0817 15.7333 25.0431C13.8273 25.0045 12.7933 24.3101 11.6127 23.168C10.6019 22.1958 10 20.6216 10 19.4256C10 18.6153 10.2083 18.1061 10.5633 17.2418C10.9568 16.339 11.4044 15.8992 12.0217 15.3204C13.156 14.2556 14.4755 13.7617 15.8876 13.7617C17.0219 13.7617 17.9633 14.0395 18.7041 14.5951C19.306 15.0504 19.5992 15.5982 19.5992 16.2387C19.5992 16.5936 19.4758 16.8869 19.2751 17.1261C19.0514 17.3576 18.7736 17.481 18.4649 17.481C18.1408 17.481 17.863 17.3576 17.6393 17.1029C17.4155 16.856 17.2997 16.5628 17.2997 16.2078C17.2997 15.8529 17.4849 15.4748 17.8322 15.0735L17.917 14.842C17.917 14.4022 17.2303 14.217 15.8722 14.1784C14.4601 14.1321 13.6422 14.5102 13.0866 15.1275C12.5233 15.7834 12.4538 17.1415 12.4538 19.032V20.2512C12.4538 21.6248 12.4847 22.6279 12.8165 23.3224C13.21 24.1866 14.1746 24.6727 15.5481 24.6727C16.6824 24.6727 17.6084 24.3641 18.3492 23.7391C19.0668 23.1063 19.5375 22.2266 19.7381 21.0769H20.1162V21.0923Z" fill="#51A9A4"/>
<path d="M24.8385 16.8652C24.9929 16.2248 25.2321 15.6769 25.5407 15.2216C26.1966 14.2725 27.0377 13.7941 28.0331 13.7941C28.5656 13.7941 28.9745 13.9407 29.3064 14.2185C29.615 14.4963 29.7848 14.859 29.7848 15.3219C29.7848 15.6769 29.6845 15.9624 29.4761 16.1862C29.2909 16.4177 29.0286 16.518 28.7045 16.518C28.3804 16.518 28.1026 16.4177 27.8942 16.1939C27.6859 15.9778 27.5702 15.7 27.5702 15.3528C27.5702 14.9438 27.7785 14.5966 28.172 14.3111C28.1566 14.2494 26.8834 14.5117 26.2661 15.1136C25.9729 15.4068 25.7336 15.6923 25.5793 15.9701C25.425 16.2479 25.2707 16.6646 25.1009 17.2202C24.9157 17.768 24.8463 18.5706 24.8463 19.6277V24.2884H27.1303V24.736H20.6948V24.2884H22.7242V14.6969H20.6948V14.2648H23.2875C23.9897 14.2648 24.5067 14.0333 24.8308 13.5703V16.8652H24.8385Z" fill="#51A9A4"/>
<path d="M38.3192 21.2958V17.5147C38.3192 16.7431 38.2883 16.1952 38.1958 15.8634C38.1263 15.5471 37.9411 15.2461 37.6787 14.9529C37.0923 14.3587 36.2744 14.0655 35.1709 14.0655C34.0675 14.0655 33.1646 14.3433 32.6322 14.9066C32.0689 15.4545 31.7911 16.311 31.7911 17.4839V21.2263C31.7911 22.4918 32.0689 23.3869 32.6322 23.9194C32.8406 24.1277 33.1955 24.3052 33.6816 24.4364C34.1832 24.583 34.6771 24.6524 35.1941 24.6524C35.7805 24.6524 36.3129 24.5676 36.7605 24.3901C37.2389 24.2203 37.5862 23.9811 37.7868 23.6879C38.1495 23.1863 38.3192 22.3915 38.3192 21.2958ZM35.2481 13.6797C36.4364 13.6797 37.6016 14.1504 38.6973 15.0918C40.04 16.257 40.7267 17.6614 40.7267 19.3127C40.7267 20.8251 40.1634 22.16 39.006 23.3329C37.8717 24.4595 36.583 25.0383 35.14 25.0383C33.5968 25.0383 32.2695 24.4518 31.1198 23.2943C30.5719 22.7465 30.1398 22.1215 29.8311 21.4424C29.5225 20.7479 29.3682 20.0689 29.3682 19.3976C29.3682 18.6491 29.5534 17.8929 29.9315 17.1444C30.3096 16.4036 30.842 15.7477 31.5133 15.1844C32.6785 14.1967 33.9363 13.6951 35.2404 13.6951L35.2481 13.6797Z" fill="#51A9A4"/>
<path d="M44.8086 16.456C45.0632 15.6535 45.5648 14.9976 46.3055 14.4883C47.0618 13.979 47.9028 13.7244 48.8442 13.7244C50.0634 13.7244 50.9894 14.1025 51.5913 14.8664C51.8999 15.2754 52.0929 15.8387 52.1777 16.6026C52.4864 15.7075 52.988 15.013 53.6902 14.5037C54.3769 14.0021 55.2026 13.7475 56.1285 13.7475C57.3169 13.7475 58.2428 14.1102 58.8756 14.8355C59.1688 15.1673 59.354 15.5377 59.4389 15.9158C59.5392 16.3016 59.5778 16.9344 59.5778 17.8372V24.2881H61.6072V24.7357H55.3723V24.2881H57.4172V16.3325C57.4172 14.9358 56.8153 14.2491 55.6501 14.2491C54.5544 14.2491 53.6439 14.7892 52.9185 15.8618C52.4401 16.618 52.1777 17.2585 52.1777 17.8063V24.2804H54.184V24.728H48.0032V24.2804H50.0634V15.939C50.0634 15.3757 49.9245 14.9513 49.6545 14.6503C49.3612 14.3262 48.9677 14.1642 48.4507 14.1642C47.6791 14.1642 46.9229 14.4651 46.2207 15.067C45.5339 15.6766 45.0709 16.4328 44.8086 17.3588V24.2804H46.7994V24.728H40.688V24.2804H42.6943V14.6966H40.688V14.2645H43.2113C44.0678 14.2645 44.5848 14.033 44.8086 13.5469V16.456V16.456Z" fill="#51A9A4"/>
<path d="M69.5015 19.0492H69.3472C67.1172 19.0492 65.6356 19.3269 64.918 19.8671C64.4164 20.2375 64.2004 20.8934 64.2004 21.8579C64.2004 22.8225 64.3547 23.4321 64.6788 23.8179C65.0029 24.196 65.5507 24.3889 66.3301 24.3889C67.0477 24.3889 67.6882 24.2192 68.2901 23.8874C68.8534 23.5555 69.27 23.108 69.5093 22.5678V19.0569L69.5015 19.0492ZM69.5015 18.6479V16.0706C69.5015 15.4687 69.4167 15.0366 69.2623 14.7897C69.0926 14.5273 68.7839 14.3344 68.3209 14.211C67.9428 14.1261 67.4798 14.0798 66.9088 14.0798C66.0137 14.0798 65.3424 14.2032 64.8485 14.4656C64.3856 14.7125 64.1463 15.0058 64.1463 15.3453C64.1463 15.4765 64.2467 15.6308 64.4396 15.7851C64.7868 16.0552 64.9874 16.3716 64.9874 16.7342C64.9874 17.0969 64.864 17.367 64.6788 17.583C64.4704 17.7991 64.2004 17.9071 63.8917 17.9071C63.529 17.9071 63.259 17.7837 63.0506 17.5445C62.8268 17.2975 62.7034 16.9889 62.7034 16.6108C62.7034 15.8083 63.1123 15.1215 63.938 14.5428C64.7637 13.964 65.7205 13.6708 66.8548 13.6708C68.1743 13.6708 69.6019 13.9023 70.6127 14.5582C71.1992 14.9054 71.3843 15.2218 71.5387 15.5459C71.6776 15.8623 71.7239 16.279 71.7239 16.8268V21.4721C71.7547 22.7993 71.8628 23.571 71.8936 23.7793C71.9939 24.2192 72.3257 24.4198 72.7039 24.3966C73.0974 24.3658 73.3366 24.1651 73.5604 23.3241H73.9925C73.5835 24.8288 72.8968 25.0062 71.9322 25.0139C71.2763 25.0139 70.6436 24.8056 70.2809 24.5124C69.9182 24.2037 69.679 23.787 69.5941 23.2237C69.2469 23.7948 68.7222 24.2346 68.0277 24.5432C67.3409 24.8596 66.685 25.0139 65.7745 25.0139C64.4704 25.0139 63.5059 24.7362 62.8886 24.1883C62.2867 23.6713 61.978 23.0617 61.978 22.3981C61.978 21.8194 62.2018 21.2483 62.6108 20.7082C63.0429 20.1526 63.5753 19.7591 64.2081 19.5121C64.864 19.2575 65.5276 19.0569 66.5076 18.9025C67.4721 18.7482 68.4135 18.6711 69.3241 18.6711H69.4784L69.5015 18.6479ZM63.3207 10.7617V11.9115H71.5464V10.7617H63.3207Z" fill="#51A9A4"/>
</g>
<defs>
<clipPath id="clip0_6639_2155">
<rect width="64" height="14.2831" fill="white" transform="translate(10 10.7617)"/>
</clipPath>
</defs>
</svg>
