<svg width="84" height="36" viewBox="0 0 84 36" fill="none" xmlns="http://www.w3.org/2000/svg">
<g clip-path="url(#clip0_6639_2159)">
<path d="M25.7089 6.17507C26.4369 6.55826 27.1778 6.91591 27.8931 7.32784C28.4742 7.66313 28.5796 8.02397 28.4487 8.67859C28.1996 9.93035 27.9537 11.1789 27.7494 12.4371C27.6919 12.7819 27.7589 13.1587 27.8292 13.51C27.9026 13.8804 28.0942 13.9411 28.4263 13.7559C29.1001 13.3823 29.7803 13.2769 30.4285 13.791C30.6137 13.9379 30.7478 14.1519 30.8947 14.3371C31.4152 14.9885 31.9262 15.0492 32.568 14.5191C32.6287 14.468 32.6542 14.353 32.6638 14.2636C32.6925 13.9539 32.6862 13.6409 32.7341 13.3344C32.7883 13.0119 32.9288 12.9193 33.245 12.9959C34.2413 13.2418 35.1546 13.6888 35.9912 14.2732C36.1445 14.3818 36.1988 14.6436 36.2722 14.8448C36.3041 14.9342 36.2786 15.0428 36.2754 15.145C36.253 15.905 36.467 16.0774 37.1951 15.8762C37.3675 15.8283 37.5367 15.7581 37.706 15.6942C38.5937 15.3653 39.1461 14.7809 39.3154 13.8102C39.475 12.8937 39.6347 12.8298 40.5192 13.1332C40.9759 13.2897 41.4102 13.5004 41.8604 13.6729C42.2755 13.8357 42.432 14.155 42.4384 14.5702C42.4448 15.0715 42.4384 15.5761 42.448 16.0774C42.4576 16.6682 42.6428 16.7927 43.176 16.5117C44.1851 15.9816 44.9547 15.2216 45.4209 14.1582C45.5774 13.8006 45.8201 13.4653 46.0819 13.1683C46.3342 12.8809 46.6727 12.833 47.0463 13.0023C47.5508 13.229 48.0841 13.3855 48.5727 13.6377C49.2624 13.9922 49.4572 14.3754 49.2784 15.1226C48.8665 16.8406 48.8569 18.5905 48.8249 20.3404C48.8249 20.4618 48.8281 20.5831 48.8473 20.7013C48.8952 20.995 49.0772 21.1611 49.371 21.2026C49.6456 21.2377 49.8851 21.1004 49.9681 20.8034C50.0384 20.5576 50.0575 20.2925 50.0671 20.0339C50.1342 18.3797 50.511 16.8118 51.3412 15.3717C51.9128 14.3818 52.6856 13.6218 53.8512 13.3472C54.2024 13.2641 54.5281 13.2865 54.8379 13.4781C54.9241 13.5324 55.0135 13.5739 55.1061 13.6154C55.5372 13.8102 55.8086 13.6952 55.8597 13.2322C55.9651 12.2646 56.0513 11.2907 56.0928 10.3199C56.1343 9.28531 56.1152 8.2475 56.1216 7.21288C56.1248 6.63171 56.4601 6.40498 56.9358 6.7275C57.533 7.12986 58.2068 7.32465 58.8646 7.56733C59.3436 7.74616 59.4394 7.92179 59.3659 8.44229C59.3053 8.87019 59.2158 9.29489 59.1871 9.72598C59.0817 11.2907 58.9636 12.8554 58.9061 14.4233C58.8295 16.5436 58.8039 18.6671 58.7624 20.7907C58.7496 21.3591 59.069 21.573 59.599 21.3718C60.0142 21.2122 60.26 20.9344 60.2984 20.4809C60.4133 19.0567 60.5347 17.6357 60.6496 16.2115C60.6975 15.6208 60.7167 15.0268 60.7869 14.4361C60.8157 14.2061 60.9179 13.973 61.0392 13.7719C61.1861 13.526 61.4352 13.4174 61.7194 13.5196C62.457 13.7846 63.1915 14.0561 63.9195 14.3435C64.2421 14.4712 64.2484 14.7777 64.2197 15.0651C64.1526 15.6942 64.0505 16.3201 63.9994 16.9524C63.9036 18.1339 63.811 19.3186 63.9994 20.5033C64.0728 20.9663 64.3666 21.2824 64.7019 21.557C64.8073 21.6433 64.9989 21.6433 65.1489 21.6401C65.2511 21.6401 65.3565 21.5698 65.4555 21.5219C66.356 21.0653 66.4646 20.746 66.0175 19.855C65.9153 19.6475 65.8004 19.4463 65.6854 19.2451C65.4172 18.7725 65.4842 18.3766 65.8834 18.0029C67.0138 16.9428 68.1442 15.8826 69.2715 14.8161C69.4758 14.6213 69.661 14.4073 69.8654 14.2157C70.1847 13.9187 70.4625 13.8964 70.817 14.1455C72.0113 14.9853 73.2024 15.8283 74.3935 16.6682C74.4414 16.7033 74.4924 16.7384 74.5403 16.7767C75.0449 17.1887 75.0704 17.3707 74.7256 17.9231C74.3519 18.5202 74.138 19.1781 74.0965 19.8838C74.0645 20.4362 74.2434 20.6342 74.7958 20.615C75.6261 20.5831 76.4084 20.3915 77.0503 19.8135C77.4334 19.4718 77.8294 19.1429 78.219 18.8108C78.2765 18.7597 78.3467 18.7214 78.4968 18.616C78.4872 18.8364 78.5224 19.0024 78.4681 19.1206C78.1232 19.8423 77.7655 20.5607 77.3951 21.2697C77.2195 21.6049 77.245 21.6944 77.6825 21.8764C77.6634 21.937 77.657 22.0137 77.6187 22.0616C76.881 22.9908 76.0061 23.7189 74.799 23.9424C74.2657 24.0414 73.8474 23.8562 73.5536 23.4028C73.3684 23.1154 73.1992 22.8184 73.0108 22.531C72.7553 22.1414 72.6499 22.1095 72.2508 22.3618C71.7686 22.6683 71.3088 23.0132 70.833 23.3357C70.6254 23.4762 70.4051 23.6007 70.1879 23.7221C69.7441 23.968 69.3321 23.8849 68.9521 23.5848C68.6679 23.3612 68.3901 23.1249 68.1155 22.8918C67.8824 22.6907 67.6972 22.6715 67.4066 22.8727C66.7967 23.2974 66.1452 23.6646 65.497 24.0223C64.9989 24.2969 64.5422 24.2458 64.0856 23.8498C63.7599 23.5656 63.3511 23.3581 62.952 23.1856C62.5368 23.0068 62.1058 23.0962 61.7002 23.3102C61.0935 23.6263 60.4836 23.936 59.8705 24.2394C59.3308 24.5076 58.8071 24.53 58.2642 24.2043C57.8683 23.968 57.4308 23.8019 57.0125 23.6071C56.5111 23.374 56.0098 23.3389 55.4989 23.588C55.0646 23.7987 54.6239 23.9967 54.1928 24.2107C53.3849 24.613 52.593 24.6449 51.8107 24.15C51.3093 23.8338 50.808 23.5209 50.3194 23.1856C50.0288 22.9876 49.7318 22.9685 49.4253 23.1537C48.9431 23.4443 48.4545 23.7221 47.9628 23.9967C47.5923 24.2043 47.2315 24.1532 46.8739 23.9488C46.4747 23.7189 46.0723 23.4858 45.6604 23.2782C45.2772 23.0866 45.1495 22.7705 45.1239 22.3713C45.0888 21.7582 45.0409 21.1483 44.9962 20.5384C44.9866 20.4298 44.9707 20.3181 44.9419 20.2127C44.8461 19.8263 44.6002 19.7209 44.2394 19.8965C42.7641 20.6086 41.7934 21.7295 41.4229 23.3421C41.3591 23.6231 41.1994 23.8275 40.9152 23.8754C40.7492 23.9041 40.5288 23.9169 40.4011 23.8307C39.705 23.3708 39.0216 22.8918 38.351 22.3969C38.0413 22.167 37.9774 21.8189 38.0253 21.4453C38.1562 20.4298 38.2776 19.4112 38.4053 18.3925C38.4819 17.7634 38.3606 17.6613 37.7858 17.9295C37.3579 18.1275 36.9588 18.3861 36.5436 18.6033C36.1477 18.8108 36.0231 19.1525 35.9816 19.5676C35.8762 20.6789 35.7677 21.7902 35.6335 22.895C35.5441 23.6103 35.0332 23.9265 34.3594 23.6742C33.8453 23.4826 33.3599 23.2112 32.8618 22.9749C32.4435 22.7769 32.3285 22.4416 32.3828 22.0041C32.4818 21.1962 32.5744 20.3883 32.651 19.5772C32.7149 18.9066 32.766 18.236 32.7883 17.5623C32.7947 17.3803 32.7021 17.0577 32.6095 17.0418C32.4243 17.0098 32.1688 17.0897 32.0156 17.2174C31.8623 17.3419 31.7473 17.5655 31.709 17.7666C31.5046 18.8779 31.2428 19.9668 30.7415 20.9886C30.122 22.2436 29.2438 23.2399 27.941 23.8307C27.5003 24.0318 27.0788 24.0414 26.6636 23.8307C26.2166 23.6039 25.7759 23.3549 25.3544 23.0866C24.9201 22.8088 24.5146 22.7992 24.0931 23.0866C23.7865 23.2974 23.4672 23.489 23.1638 23.7029C22.7359 24.0031 22.2984 24.0095 21.861 23.7444C21.5959 23.5816 21.35 23.3868 21.101 23.1984C20.5102 22.7577 20.2292 22.7386 19.6321 23.1537C19.3511 23.3485 19.086 23.5656 18.821 23.7828C18.2941 24.2234 17.3106 24.3671 16.7645 23.968C15.7746 23.2431 14.8262 22.4639 13.881 21.6848C13.6128 21.4644 13.5457 21.1132 13.6191 20.7683C13.7405 20.1871 13.9002 19.6155 14.0151 19.0344C14.162 18.2871 14.0215 18.1658 13.204 18.1562C12.8719 18.1562 12.6675 18.3542 12.5973 18.6863C12.5558 18.8907 12.543 19.1046 12.5398 19.3154C12.4983 21.6081 12.5111 23.9041 12.4025 26.1937C12.3163 27.9659 11.6361 29.4764 9.99478 30.396C9.87344 30.4663 9.74251 30.5237 9.62117 30.5908C9.29545 30.7664 8.98251 30.7601 8.69193 30.5206C8.03411 29.9745 7.3763 29.4285 6.73126 28.8696C6.49815 28.6653 6.51092 28.5024 6.7568 28.2917C7.13042 27.9691 7.51361 27.6594 7.89361 27.3464C8.8484 26.5673 9.28587 25.5454 9.28268 24.332C9.28268 22.9046 9.26672 21.474 9.24436 20.0466C9.23798 19.6411 9.12302 19.5517 8.70789 19.5165C8.50672 19.5006 8.30554 19.4878 8.10436 19.4846C7.77546 19.4782 7.57428 19.3122 7.40823 19.0408C7.2326 18.7534 7.00269 18.5043 6.81109 18.2233C6.5237 17.805 6.26504 17.3898 6 16.9811V16.6777C6.17563 16.4606 6.40555 16.352 6.68336 16.3648C7.44655 16.4063 7.99899 16.0103 8.5131 15.5186C8.83562 15.212 8.96974 14.8512 8.93781 14.4073C8.88672 13.7144 8.8452 13.0214 8.82285 12.3285C8.74941 9.87287 9.67545 7.90901 11.7191 6.50078C12.1247 6.22297 12.2875 6.22297 12.6995 6.50078C13.0827 6.75944 13.4691 7.0149 13.8554 7.26717C14.3855 7.61523 14.9316 7.93775 15.4457 8.30817C15.8417 8.59557 15.8033 8.7712 15.3659 8.99473C14.5196 9.42582 13.7948 10.0134 13.22 10.767C12.5781 11.6068 12.2939 12.5424 12.5143 13.5962C12.6516 14.2508 12.9549 14.4616 13.6064 14.3339C14.3217 14.1934 15.0146 14.1231 15.4872 14.8512C15.5032 14.8767 15.5319 14.8927 15.5543 14.9119C15.8991 15.1929 16.1003 15.1833 16.4228 14.8831C16.988 14.3594 17.6299 13.9443 18.3452 13.6537C19.201 13.3056 19.5203 13.3855 20.1174 14.0752C20.4879 14.5063 20.4943 14.5223 21.0211 14.2924C21.3916 14.1295 21.6853 14.187 21.9408 14.484C22.241 14.8352 22.5188 15.2088 22.8381 15.5441C23.2309 15.9592 23.167 16.2243 22.9243 16.6809C22.6593 17.1759 22.3815 17.6708 22.1771 18.1913C22.0079 18.6256 21.8769 19.0918 21.845 19.5549C21.7971 20.1967 22.4517 20.8865 23.0521 20.9344C23.547 20.9759 23.9941 20.5576 24.0803 19.8359C24.2687 18.2392 24.4443 16.6394 24.5497 15.0364C24.7285 12.287 24.8499 9.53439 24.984 6.78179C24.9968 6.51994 25.0766 6.32196 25.2874 6.17188H25.7121L25.7089 6.17507Z" fill="#9D292F"/>
<path d="M64.7723 10.0921C64.7627 10.1815 64.7627 10.2741 64.7404 10.3603C64.5711 11.0309 64.4051 11.6983 64.223 12.3657C64.1368 12.6882 63.9676 12.7968 63.6419 12.7457C63.4662 12.7169 63.2906 12.6563 63.1277 12.586C62.5945 12.3529 62.0708 12.1038 61.5375 11.8675C61.3395 11.7781 61.2246 11.644 61.2501 11.4269C61.2693 11.2576 61.3076 11.0916 61.3395 10.9255C61.4321 10.4433 61.5215 9.96114 61.6141 9.47896C61.6365 9.36081 61.6525 9.23946 61.6908 9.1277C61.8377 8.6966 62.157 8.53375 62.5913 8.67425C62.7414 8.72534 62.8819 8.81156 63.0256 8.88181C63.4854 9.10534 63.9388 9.34484 64.4051 9.54601C64.6637 9.65778 64.7978 9.81106 64.7691 10.0921H64.7723Z" fill="#9D292F"/>
<path d="M34.8896 12.1281C34.4776 12.1824 34.1519 12.1089 33.8997 11.8024C33.8198 11.7034 33.6985 11.6363 33.5931 11.5597C32.9992 11.1254 32.881 10.5155 33.245 9.88005C33.3664 9.6661 33.4366 9.42022 33.5037 9.18072C33.625 8.74644 33.7368 8.67938 34.1743 8.78795C34.6597 8.90929 35.1514 9.00828 35.6368 9.13921C35.8667 9.20307 36.1094 9.28291 36.2882 9.4266C36.4255 9.53837 36.566 9.76828 36.5469 9.93114C36.4926 10.4165 36.4032 10.9051 36.2563 11.3681C36.0423 12.0451 35.4771 12.1696 34.8896 12.1281V12.1281Z" fill="#9D292F"/>
</g>
<defs>
<clipPath id="clip0_6639_2159">
<rect width="72.5" height="24.5275" fill="white" transform="translate(6 6.17578)"/>
</clipPath>
</defs>
</svg>
