<svg width="84" height="36" viewBox="0 0 84 36" fill="none" xmlns="http://www.w3.org/2000/svg">
<mask id="mask0_3418_2159" style="mask-type:alpha" maskUnits="userSpaceOnUse" x="0" y="0" width="84" height="36">
<rect width="84" height="36" fill="#C4C4C4"/>
</mask>
<g mask="url(#mask0_3418_2159)">
</g>
<g clip-path="url(#clip0_3418_2159)">
<path d="M73.9879 12.7731C73.981 12.75 73.973 12.7274 73.9639 12.7051C68.4019 12.7071 62.8419 12.7051 57.2829 12.7071C57.2688 12.7211 57.2597 12.7394 57.2569 12.7591C57.2569 16.9141 57.2569 21.0671 57.2539 25.2221C57.2961 25.4456 57.4132 25.6481 57.5859 25.7961C57.5929 25.7991 57.6089 25.8011 57.6159 25.8031C57.7029 25.8911 57.8269 25.9341 57.9449 25.9751C58.0319 25.9701 58.1159 26.0061 58.2029 25.9981H65.1059C65.1719 25.9951 65.2389 26.0061 65.3029 25.9821L65.3099 25.9481L65.3169 25.8981C65.4649 25.1021 65.6079 24.3031 65.7659 23.5081L65.7799 23.4061C65.1409 23.4031 64.4999 23.4061 63.8609 23.4031C63.7059 23.3991 63.5469 23.4031 63.3909 23.3851C63.1269 23.3741 62.8589 23.3831 62.5939 23.3581C62.2639 23.3581 61.9379 23.3281 61.6099 23.3281C61.3519 23.3041 61.0899 23.3131 60.8299 23.3011C60.6609 23.2811 60.4869 23.2911 60.3159 23.2831C60.0359 23.2531 59.7529 23.2741 59.4729 23.2451C59.1769 23.2471 58.8819 23.2221 58.5859 23.2151C58.5885 23.2112 58.5902 23.2067 58.5909 23.2021C58.6889 23.2041 58.7849 23.1971 58.8839 23.1951C59.1019 23.1681 59.3229 23.1861 59.5409 23.1571C59.7689 23.1571 59.9949 23.1271 60.2219 23.1271C60.4239 23.1001 60.6279 23.1161 60.8299 23.0891C61.0679 23.0891 61.2999 23.0591 61.5369 23.0571C61.7319 23.0321 61.9289 23.0461 62.1239 23.0211C62.3519 23.0231 62.5769 22.9891 62.8039 22.9911C63.0279 22.9671 63.2559 22.9731 63.4789 22.9511C63.4579 22.8671 63.4409 22.7831 63.4219 22.7001C63.4059 22.6481 63.3399 22.6591 63.2979 22.6521C62.7879 22.5821 62.2809 22.5121 61.7739 22.4441C61.8069 22.4191 61.8519 22.4301 61.8889 22.4261C62.2839 22.3961 62.6759 22.3631 63.0699 22.3361C63.1599 22.3311 63.2459 22.3161 63.3359 22.3131C63.2959 22.1951 63.2719 22.0661 63.2179 21.9581C62.3749 21.8341 61.5319 21.7231 60.6919 21.5891C60.9099 21.5551 61.1309 21.5391 61.3489 21.5171L61.3679 21.5101C62.0649 21.4401 62.7649 21.3601 63.4619 21.2951C64.3469 21.2911 65.2299 21.2931 66.1149 21.2951C66.1439 21.2911 66.1929 21.3051 66.1979 21.2651L66.4129 20.1661C66.5149 19.6581 66.6739 19.1561 66.9209 18.6921C67.3169 17.9361 67.9233 17.3109 68.6669 16.8921C69.3649 16.4981 70.1719 16.3081 70.9749 16.2721C71.2359 16.2491 71.4989 16.2561 71.7569 16.2871C71.9269 16.3261 72.0999 16.3711 72.2339 16.4821C72.3439 16.5681 72.4099 16.6951 72.4589 16.8221C72.5669 17.1221 72.6289 17.4341 72.6799 17.7491C72.6819 17.8751 72.7059 18.0181 72.6349 18.1331C72.5699 18.2461 72.4379 18.3011 72.3139 18.3341C71.8609 18.4481 71.3859 18.3411 70.9339 18.4481C70.5599 18.5241 70.2119 18.7231 69.9749 19.0111C69.6949 19.3451 69.5479 19.7611 69.4649 20.1781C69.4019 20.5481 69.3219 20.9201 69.2589 21.2931C69.7049 21.2951 70.1539 21.2911 70.6019 21.2951C70.7809 21.2951 70.9639 21.3901 71.0359 21.5531C71.1299 21.7611 71.1089 21.9961 71.0789 22.2161C71.0409 22.4621 70.9799 22.7061 70.8649 22.9331C70.7689 23.1251 70.6089 23.3011 70.3909 23.3691C70.2779 23.4121 70.1559 23.4031 70.0359 23.4031C69.6419 23.4031 69.2469 23.4081 68.8529 23.4031C68.7899 23.6811 68.7469 23.9661 68.6909 24.2491C68.5879 24.7991 68.4869 25.3501 68.3829 25.9021C68.3803 25.9277 68.379 25.9534 68.3789 25.9791C68.5639 25.9891 68.7489 25.9791 68.9349 25.9841C70.3109 25.9841 71.6889 25.9821 73.0669 25.9841C73.2159 25.9889 73.3635 25.9544 73.4949 25.8841C73.5719 25.8571 73.6189 25.7921 73.6869 25.7551C73.7529 25.7191 73.7719 25.6451 73.8279 25.5971C73.8889 25.4931 73.9519 25.3841 73.9579 25.2621C73.9697 25.2617 73.9814 25.2604 73.9929 25.2581C73.9849 21.0961 73.9929 16.9341 73.9879 12.7731Z" fill="url(#paint0_linear_3418_2159)" stroke="#FCD109" stroke-width="0.094"/>
<path d="M59.445 10.0361C59.645 9.97506 59.854 10.0161 60.058 10.0021C63.892 10.0041 67.726 10.0021 71.56 10.0021C71.788 9.99306 71.987 10.1171 72.199 10.1811C72.368 10.2461 72.544 10.2981 72.713 10.3681C72.748 10.3821 72.774 10.4111 72.8 10.4361C72.798 10.7351 72.8 11.0361 72.8 11.3361C72.802 11.4161 72.788 11.4971 72.816 11.5741C72.866 11.5811 72.891 11.6171 72.924 11.6461C73.079 11.7141 73.211 11.8261 73.352 11.9161C73.562 12.0601 73.788 12.1861 73.995 12.3361C74.005 12.3951 73.997 12.4561 73.978 12.5101C73.958 12.5741 73.971 12.6421 73.964 12.7051C68.402 12.7071 62.843 12.7051 57.283 12.7071C57.271 12.6331 57.293 12.5571 57.259 12.4871C57.255 12.4291 57.233 12.3521 57.292 12.3111C57.527 12.1531 57.776 12.0111 58.006 11.8431C58.149 11.7551 58.288 11.6641 58.426 11.5741C58.454 11.5291 58.445 11.4721 58.445 11.4221C58.445 11.0941 58.445 10.7671 58.447 10.4391C58.527 10.3391 58.666 10.3281 58.776 10.2781C58.999 10.1971 59.224 10.1181 59.446 10.0361H59.445ZM59.459 10.0741C59.159 10.1851 58.856 10.2921 58.555 10.4021C58.515 10.4091 58.495 10.4431 58.473 10.4721C58.475 10.4911 58.478 10.5221 58.478 10.5401C58.475 10.8121 58.478 11.0831 58.475 11.3551C58.478 11.4221 58.468 11.4901 58.495 11.5511C58.4642 11.5822 58.43 11.6097 58.393 11.6331C58.053 11.8451 57.724 12.0761 57.383 12.2861C57.325 12.3201 57.259 12.3661 57.278 12.4401C57.266 12.4811 57.288 12.5151 57.332 12.5041C58.069 12.4991 58.804 12.5081 59.542 12.4971C60.638 12.4971 61.732 12.4991 62.828 12.4971L62.845 12.4901C62.895 12.5011 62.943 12.4971 62.995 12.4971C64.981 12.4971 66.968 12.4991 68.956 12.4971C69.581 12.4991 70.208 12.4971 70.835 12.4971C71.868 12.4971 72.903 12.5061 73.936 12.5011C73.966 12.4951 73.976 12.4741 73.964 12.4381C73.962 12.4021 73.976 12.3521 73.936 12.3291C73.772 12.2551 73.631 12.1391 73.474 12.0491C73.417 12.0041 73.344 11.9791 73.302 11.9181C73.14 11.8301 72.99 11.7211 72.83 11.6241C72.8 11.6061 72.776 11.5761 72.75 11.5511C72.7637 11.5026 72.7705 11.4524 72.77 11.4021C72.767 11.1151 72.77 10.8281 72.767 10.5401C72.774 10.4951 72.772 10.4431 72.729 10.4141C72.448 10.3161 72.169 10.2121 71.889 10.1131C71.8009 10.074 71.7076 10.0481 71.612 10.0361H59.612C59.56 10.0381 59.511 10.0631 59.459 10.0741Z" fill="#F8F3B5" stroke="#F8F3B5" stroke-width="0.094"/>
<path d="M58.4779 10.54C58.6839 10.624 58.9049 10.671 59.1139 10.753C59.2269 10.796 59.2619 10.913 59.3109 11.008C59.26 11.0548 59.2044 11.096 59.1449 11.131C58.9279 11.271 58.7079 11.407 58.4949 11.551C58.4679 11.491 58.4779 11.422 58.4749 11.355C58.4779 11.083 58.4749 10.812 58.4779 10.54ZM72.1299 10.753C72.3399 10.673 72.5579 10.619 72.7669 10.54C72.7689 10.828 72.7669 11.115 72.7689 11.402C72.7689 11.452 72.7639 11.504 72.7499 11.552C72.5669 11.429 72.3819 11.314 72.1989 11.194C72.1089 11.131 72.0109 11.084 71.9309 11.006C71.9809 10.911 72.0179 10.796 72.1309 10.753H72.1299Z" fill="#F7B402" stroke="#F7B402" stroke-width="0.094"/>
<path d="M62.0599 10.846C62.3189 10.786 62.6079 11.009 62.5869 11.269C62.5889 11.524 62.3089 11.732 62.0539 11.674C61.9489 11.6455 61.8557 11.5842 61.7879 11.499C61.7464 11.4397 61.7213 11.3704 61.7151 11.2982C61.709 11.2261 61.722 11.1536 61.7529 11.088C61.7999 10.961 61.9269 10.875 62.0609 10.846H62.0599ZM68.7599 10.988C68.8143 10.9285 68.8834 10.8842 68.9602 10.8597C69.0371 10.8351 69.119 10.8311 69.1979 10.848C69.3179 10.882 69.4349 10.957 69.4869 11.07C69.5357 11.1679 69.5445 11.281 69.5112 11.3852C69.478 11.4894 69.4054 11.5765 69.3089 11.628C69.2211 11.6722 69.1216 11.6874 69.0246 11.6716C68.9276 11.6558 68.8381 11.6098 68.7689 11.54C68.7006 11.4649 68.662 11.3675 68.6601 11.2659C68.6583 11.1644 68.6934 11.0656 68.7589 10.988H68.7599Z" fill="#BDA727" stroke="#BDA727" stroke-width="0.094"/>
<path d="M59.1449 11.1301C59.2044 11.0954 59.2601 11.0545 59.3109 11.0081L59.3279 11.0241C59.3439 11.1421 59.3319 11.2621 59.3369 11.3791C59.3299 11.7321 59.3439 12.0871 59.3269 12.4401C58.6439 12.4401 57.9609 12.4361 57.2769 12.4401C57.2589 12.3661 57.3249 12.3201 57.3839 12.2861C57.7239 12.0761 58.0529 11.8461 58.3939 11.6331C58.4302 11.6096 58.4638 11.5821 58.4939 11.5511C58.7079 11.4071 58.9279 11.2711 59.1439 11.1311L59.1449 11.1301ZM71.9069 11.0851C71.9069 11.0561 71.9149 11.0311 71.9309 11.0061C72.0109 11.0831 72.1089 11.1311 72.1989 11.1941C72.3819 11.3141 72.5669 11.4291 72.7499 11.5511C72.7759 11.5761 72.7999 11.6061 72.8299 11.6241C72.9899 11.7211 73.1399 11.8301 73.3019 11.9181C73.3439 11.9781 73.4169 12.0041 73.4739 12.0481C73.6309 12.1391 73.7719 12.2551 73.9359 12.3291C73.9759 12.3521 73.9619 12.4021 73.9639 12.4381C73.2809 12.4401 72.5999 12.4361 71.9169 12.4401C71.9049 12.3501 71.9119 12.2601 71.9099 12.1711C71.9099 11.8091 71.9049 11.4471 71.9069 11.0851Z" fill="#F7E62D" stroke="#F7E62D" stroke-width="0.094"/>
<path d="M73.9639 12.438C73.2809 12.44 72.5999 12.436 71.9169 12.44C71.9049 12.35 71.9119 12.26 71.9099 12.171C71.9099 11.809 71.9049 11.447 71.9079 11.085C71.9079 11.056 71.9149 11.031 71.9309 11.006C71.9809 10.911 72.0179 10.796 72.1309 10.753C72.3399 10.673 72.5579 10.619 72.7669 10.54C72.7739 10.495 72.7719 10.443 72.7289 10.414C72.4469 10.316 72.1689 10.212 71.8889 10.113C71.8009 10.074 71.7075 10.048 71.6119 10.036H59.6119C59.5599 10.038 59.5109 10.063 59.4589 10.074C59.1589 10.185 58.8559 10.291 58.5549 10.402C58.5149 10.409 58.4949 10.443 58.4729 10.472C58.4749 10.491 58.4779 10.522 58.4779 10.54C58.6839 10.624 58.9049 10.671 59.1139 10.753C59.2269 10.796 59.2619 10.913 59.3109 11.008L59.3279 11.024C59.3439 11.142 59.3319 11.262 59.3369 11.379C59.3299 11.732 59.3439 12.087 59.3269 12.44C58.6439 12.44 57.9609 12.436 57.2769 12.44C57.2669 12.48 57.2869 12.515 57.3319 12.504C58.0689 12.499 58.8039 12.508 59.5419 12.497C60.6379 12.497 61.7319 12.499 62.8279 12.497L62.8449 12.49C62.8939 12.501 62.9429 12.497 62.9949 12.497C64.9809 12.497 66.9679 12.499 68.9559 12.497C69.5809 12.499 70.2079 12.497 70.8339 12.497C71.8669 12.497 72.9029 12.506 73.9359 12.501C73.9659 12.494 73.9759 12.474 73.9639 12.438ZM61.7529 11.088C61.7999 10.961 61.9269 10.875 62.0609 10.846C62.3189 10.786 62.6079 11.008 62.5869 11.269C62.5889 11.524 62.3089 11.732 62.0529 11.673C61.9484 11.6445 61.8556 11.5836 61.7879 11.499C61.7464 11.4397 61.7213 11.3704 61.7151 11.2982C61.709 11.226 61.722 11.1535 61.7529 11.088ZM68.7589 10.988C68.8136 10.9281 68.883 10.8837 68.9602 10.8591C69.0374 10.8345 69.1198 10.8307 69.1989 10.848C69.3179 10.882 69.4349 10.956 69.4869 11.07C69.5357 11.168 69.5443 11.2812 69.5108 11.3854C69.4774 11.4896 69.4046 11.5767 69.3079 11.628C69.2201 11.6721 69.1206 11.6874 69.0237 11.6716C68.9267 11.6558 68.8372 11.6097 68.7679 11.54C68.6998 11.4647 68.6613 11.3672 68.6597 11.2657C68.658 11.1642 68.6933 11.0655 68.7589 10.988Z" fill="url(#paint1_radial_3418_2159)" stroke="#FCD109" stroke-width="0.094"/>
<path d="M69.3579 13.432C69.3899 13.439 69.1869 13.243 69.2259 13.234C69.2639 13.239 69.4059 13.132 69.5789 13.219C69.7509 13.306 69.7079 13.509 69.6889 13.585C69.6649 13.675 69.6059 13.732 69.5589 13.777C69.5329 13.797 69.4749 13.829 69.4399 13.827C69.4609 13.716 69.3929 13.697 69.3879 13.585L69.3579 13.432Z" fill="url(#paint2_linear_3418_2159)" stroke="#FCD109" stroke-width="0.094"/>
<path d="M61.852 13.5551C61.847 13.6681 61.779 13.6851 61.8 13.7971C61.765 13.7991 61.707 13.7671 61.681 13.7471C61.62 13.697 61.5748 13.6303 61.551 13.5551C61.532 13.4791 61.49 13.2751 61.661 13.1891C61.834 13.1021 61.976 13.2091 62.014 13.2041C62.054 13.2131 61.85 13.4091 61.883 13.4021L61.852 13.5551Z" fill="url(#paint3_linear_3418_2159)" stroke="#FCD109" stroke-width="0.094"/>
<path d="M69.0498 14.8801C69.0858 14.8511 69.1088 14.8511 69.1558 14.8511C68.8738 15.4391 68.5458 16.0271 68.0508 16.4851C67.9978 16.5306 67.9421 16.5726 67.8838 16.6111L67.7168 16.7271C67.6628 16.7627 67.6094 16.7994 67.5568 16.8371C67.4228 16.9071 67.3058 17.0051 67.1568 17.0471C66.8835 17.169 66.5969 17.2586 66.3028 17.3141C66.1878 17.3331 66.0708 17.3601 65.9528 17.3621C65.8078 17.4021 65.6528 17.3731 65.5048 17.3821C65.4228 17.3961 65.3498 17.3511 65.2698 17.3601C65.1304 17.3404 64.9922 17.313 64.8558 17.2781C63.7788 16.9551 62.7228 16.1631 62.4148 15.0931C62.4009 15.0206 62.3938 14.9469 62.3938 14.8731C62.4268 14.9371 62.4608 15.0001 62.4958 15.0631C62.9338 15.9831 63.8028 16.7061 64.8288 16.9241C64.9118 16.9611 65.0018 16.9481 65.0818 16.9801C65.1548 16.9801 65.2258 16.9771 65.2958 17.0001C65.5378 17.0051 65.7798 17.0021 66.0218 17.0021C66.0538 17.0051 66.0848 16.9891 66.1178 16.9821C66.5208 16.9691 66.9158 16.8621 67.2828 16.7021C67.3568 16.6701 67.4288 16.6361 67.5008 16.6001C67.6241 16.5376 67.7419 16.4646 67.8528 16.3821C68.2958 16.0468 68.6594 15.6179 68.9178 15.1261L69.0498 14.8811V14.8801Z" fill="#BDA727" stroke="#BDA727" stroke-width="0.094"/>
<path d="M68.6669 16.891C69.3649 16.498 70.1719 16.308 70.9749 16.271C71.2359 16.249 71.4989 16.256 71.7569 16.288C71.9269 16.326 72.0999 16.371 72.2339 16.482C72.1659 16.487 72.0999 16.457 72.0319 16.448C71.8389 16.412 71.6399 16.426 71.4449 16.421C70.8789 16.421 70.3089 16.464 69.7609 16.613C69.472 16.6905 69.1926 16.7999 68.9279 16.939C68.4779 17.179 68.0709 17.495 67.7419 17.875C67.1549 18.525 66.8099 19.348 66.6439 20.187C66.5639 20.637 66.4719 21.085 66.3989 21.537C66.2819 21.548 66.1619 21.542 66.0449 21.542C65.5279 21.54 65.0119 21.537 64.4949 21.532C64.3849 21.537 64.2769 21.512 64.1669 21.519C63.2269 21.524 62.2879 21.517 61.3489 21.517L61.3679 21.51C62.0649 21.44 62.7649 21.36 63.4619 21.295C64.3469 21.291 65.2299 21.293 66.1149 21.295C66.1429 21.291 66.1929 21.305 66.1969 21.265C66.2699 20.899 66.3409 20.533 66.4129 20.166C66.5139 19.658 66.6739 19.156 66.9209 18.692C67.3169 17.9361 67.9233 17.3109 68.6669 16.892V16.891Z" fill="#0D69B3" stroke="#0D69B3" stroke-width="0.094"/>
<path d="M69.7619 16.613C70.3089 16.464 70.8789 16.421 71.4449 16.421C71.6399 16.426 71.8399 16.412 72.0319 16.448C72.0999 16.458 72.1659 16.487 72.2339 16.482C72.3439 16.568 72.4099 16.695 72.4589 16.822C72.5669 17.122 72.6289 17.434 72.6799 17.749C72.6819 17.875 72.7059 18.018 72.6349 18.133C72.5699 18.246 72.4379 18.301 72.3139 18.335C71.8609 18.448 71.3859 18.341 70.9339 18.448C70.5599 18.524 70.2129 18.724 69.9749 19.011C69.6949 19.346 69.5479 19.761 69.4649 20.178C69.4019 20.548 69.3229 20.92 69.2589 21.293C69.2309 21.377 69.2149 21.467 69.1989 21.555C69.6419 21.562 70.0859 21.555 70.5289 21.56C70.6989 21.555 70.8669 21.564 71.0359 21.553C71.1299 21.761 71.1089 21.996 71.0789 22.216C71.0409 22.462 70.9799 22.706 70.8649 22.933C70.7689 23.125 70.6089 23.301 70.3909 23.369C70.2779 23.412 70.1559 23.403 70.0359 23.403C69.6419 23.403 69.2469 23.408 68.8529 23.403C68.7899 23.681 68.7469 23.966 68.6909 24.249C68.5879 24.799 68.4869 25.351 68.3829 25.902C68.3803 25.9276 68.379 25.9533 68.3789 25.979V25.982C67.3529 25.982 66.3289 25.984 65.3029 25.982L65.3099 25.948L65.3169 25.898L65.3239 25.966C65.3879 25.973 65.5029 26.004 65.5189 25.916C65.6789 25.084 65.8269 24.246 65.9909 23.414C65.9267 23.4009 65.8605 23.4003 65.7959 23.412C65.7859 23.444 65.7769 23.476 65.7659 23.507L65.7799 23.406C65.1409 23.403 64.4999 23.406 63.8619 23.403C63.7059 23.399 63.5469 23.403 63.3919 23.385C63.1269 23.374 62.8589 23.383 62.5939 23.358C62.2649 23.358 61.9389 23.328 61.6099 23.328C61.3519 23.304 61.0909 23.313 60.8299 23.301C60.6609 23.281 60.4879 23.291 60.3159 23.283C60.0359 23.253 59.7529 23.274 59.4729 23.245C59.1779 23.247 58.8819 23.222 58.5859 23.215C58.5886 23.2111 58.5903 23.2067 58.5909 23.202C58.6889 23.204 58.7849 23.197 58.8839 23.195C59.1019 23.168 59.3239 23.186 59.5409 23.157C59.7689 23.157 59.9949 23.127 60.2219 23.127C60.4239 23.1 60.6289 23.116 60.8299 23.089C61.0679 23.089 61.2999 23.059 61.5369 23.057C61.7319 23.032 61.9289 23.046 62.1239 23.021C62.3519 23.023 62.5769 22.989 62.8049 22.991C63.0279 22.967 63.2549 22.973 63.4789 22.951C63.4579 22.867 63.4409 22.783 63.4229 22.7C63.4059 22.648 63.3399 22.659 63.2979 22.652C62.7879 22.582 62.2809 22.512 61.7739 22.444C61.8069 22.419 61.8519 22.43 61.8889 22.426C62.2839 22.396 62.6759 22.363 63.0699 22.336C63.1599 22.331 63.2459 22.316 63.3359 22.313C63.2959 22.195 63.2719 22.066 63.2179 21.958C62.3749 21.833 61.5319 21.723 60.6919 21.589C60.9099 21.555 61.1309 21.539 61.3489 21.517C62.2889 21.517 63.2279 21.524 64.1669 21.519C64.2769 21.512 64.3849 21.537 64.4949 21.533L66.0449 21.542C66.1619 21.542 66.2819 21.549 66.3999 21.537C66.4719 21.085 66.5639 20.637 66.6439 20.187C66.8099 19.347 67.1559 18.524 67.7429 17.875C68.0709 17.495 68.4769 17.179 68.9279 16.939C69.1879 16.794 69.4749 16.697 69.7619 16.613Z" fill="#107BD4" stroke="#107BD4" stroke-width="0.094"/>
<path d="M69.2599 21.2931C69.7049 21.2951 70.1539 21.2911 70.6019 21.2951C70.7809 21.2951 70.9639 21.3901 71.0359 21.5531C70.8669 21.5641 70.6979 21.5551 70.5289 21.5601C70.0859 21.5551 69.6419 21.5621 69.1989 21.5551C69.2149 21.4671 69.2309 21.3771 69.2589 21.2931H69.2599ZM65.7959 23.4131C65.8604 23.4013 65.9266 23.402 65.9909 23.4151C65.8269 24.2471 65.6789 25.0841 65.5189 25.9161C65.5029 26.0041 65.3879 25.9731 65.3239 25.9661L65.3169 25.8981C65.4649 25.1021 65.6079 24.3031 65.7659 23.5081C65.7769 23.4764 65.7869 23.4444 65.7959 23.4121V23.4131Z" fill="#0D69B3" stroke="#0D69B3" stroke-width="0.094"/>
<path d="M69.4648 13.4951C69.4481 13.4599 69.4405 13.421 69.4428 13.3821L69.4248 13.3841C69.3958 13.2851 69.3098 13.1901 69.1968 13.1851C69.1118 13.1791 69.0068 13.1811 68.9568 13.2581C68.8638 13.3801 68.9078 13.5361 68.9028 13.6741L68.9058 13.7081C68.9058 13.8011 68.8938 13.8911 68.8768 13.9821C68.8632 14.0094 68.8563 14.0396 68.8568 14.0701C68.8168 14.2821 68.7368 14.4931 68.6288 14.6851C68.6075 14.7107 68.5921 14.7408 68.5838 14.7731C68.5108 14.8901 68.4299 15.002 68.3418 15.1081C68.3283 15.1196 68.3159 15.1323 68.3048 15.1461C68.2438 15.2191 68.1778 15.2801 68.1098 15.3431C68.0928 15.3531 68.0818 15.3631 68.0678 15.3731C67.9867 15.4493 67.8975 15.5164 67.8018 15.5731L67.7648 15.5991C67.1638 15.9811 66.4328 16.1391 65.7218 16.1461C65.1168 16.1636 64.5159 16.0414 63.9658 15.7891L63.9228 15.7711C63.8318 15.7231 63.7378 15.6821 63.6528 15.6241L63.5948 15.5941C63.508 15.5454 63.4254 15.4895 63.3478 15.4271C63.3218 15.4041 63.2938 15.3871 63.2658 15.3661C63.1787 15.3013 63.097 15.2294 63.0218 15.1511L62.9658 15.0941C62.7081 14.8414 62.5153 14.5303 62.4038 14.1871C62.3038 13.9181 62.3178 13.6241 62.3058 13.3421C62.2208 13.2171 62.0428 13.1471 61.9018 13.2241C61.8428 13.2641 61.8358 13.3391 61.7918 13.3911C61.7188 14.1381 62.0498 14.8811 62.5778 15.4211C62.5778 15.4381 62.5878 15.4501 62.6038 15.4561C62.6978 15.5401 62.7898 15.6261 62.8838 15.7071C62.9009 15.7242 62.9197 15.7396 62.9398 15.7531C63.0338 15.8271 63.1348 15.8951 63.2328 15.9651C63.2516 15.9784 63.2713 15.9904 63.2918 16.0011C63.4218 16.0741 63.5428 16.1601 63.6818 16.2091C63.6918 16.2161 63.7078 16.2281 63.7168 16.2321C64.1628 16.4381 64.6438 16.5781 65.1368 16.6231C65.1908 16.6231 65.2448 16.6281 65.2988 16.6391C65.5338 16.6531 65.7688 16.6461 66.0038 16.6411C66.7288 16.5811 67.4778 16.4111 68.0838 15.9991L68.0908 16.0091C68.1082 15.9937 68.1262 15.979 68.1448 15.9651C68.2646 15.8796 68.3814 15.7899 68.4948 15.6961C68.5978 15.5881 68.7178 15.4881 68.8048 15.3641L68.8188 15.3701L68.8448 15.3251C68.9248 15.2211 68.9968 15.1131 69.0678 15.0041C69.0728 14.9971 69.0838 14.9861 69.0878 14.9791L69.0798 14.9701L69.1098 14.9341C69.2398 14.6811 69.3538 14.4161 69.3938 14.1351C69.4108 14.1291 69.4198 14.1151 69.4198 14.0991C69.4218 14.0091 69.4548 13.9231 69.4458 13.8321C69.4658 13.7221 69.4688 13.6081 69.4648 13.4951Z" fill="white" stroke="white" stroke-width="0.094"/>
<path d="M22.3949 14.461C22.7349 14.411 23.1269 14.381 23.4149 14.585C23.5949 14.715 23.6599 14.95 23.6469 15.16C23.6599 15.506 23.4929 15.877 23.1719 16.057C22.8889 16.205 22.5489 16.217 22.2349 16.187C22.0229 16.162 21.8109 16.05 21.7019 15.865C21.4579 15.327 21.7599 14.566 22.3949 14.461ZM12.2149 14.851C12.2268 14.7557 12.2729 14.668 12.3446 14.6042C12.4164 14.5403 12.5089 14.5047 12.6049 14.504C14.0889 14.504 15.5649 14.511 17.0419 14.504C17.2019 14.492 17.3749 14.56 17.4519 14.696C17.5619 14.882 17.4649 15.086 17.4519 15.277C17.4069 15.537 17.4199 15.883 17.1059 15.982C16.0269 16.013 14.9489 15.982 13.8699 15.995C13.7679 16.65 13.6709 17.3 13.5689 17.949C13.5689 17.974 13.5749 18.029 13.5749 18.054C14.3649 18.048 15.1549 18.054 15.9439 18.048C16.1619 18.035 16.3939 18.215 16.3739 18.438C16.3539 18.666 16.3039 18.888 16.2709 19.118C16.2561 19.1982 16.2178 19.2721 16.1608 19.3303C16.1038 19.3886 16.0307 19.4285 15.9509 19.445C15.0709 19.464 14.1779 19.427 13.2989 19.464C13.1579 20.398 12.9909 21.331 12.8429 22.265C12.8338 22.3578 12.792 22.4442 12.7249 22.5089C12.6578 22.5736 12.5699 22.6123 12.4769 22.618C12.1109 22.624 11.7449 22.624 11.3799 22.618C11.1419 22.624 10.9499 22.37 11.0139 22.154C11.4049 19.718 11.8099 17.287 12.2139 14.851H12.2149ZM18.7359 14.517C19.0699 14.492 19.4099 14.511 19.7439 14.504C19.9489 14.492 20.1539 14.647 20.1739 14.851C20.1739 15.011 20.1289 15.172 20.1099 15.333C19.8399 16.99 19.5639 18.648 19.2949 20.305C19.2559 20.571 19.1849 20.855 19.2689 21.128C19.3649 21.4 19.7949 21.282 19.8989 21.567C19.9619 21.795 19.8919 22.037 19.8719 22.272C19.8529 22.581 19.4869 22.649 19.2369 22.717C18.6909 22.816 18.0299 22.742 17.6379 22.309C17.3559 21.993 17.3369 21.548 17.3949 21.152C17.7349 19.05 18.0749 16.947 18.4219 14.838C18.4334 14.7581 18.47 14.6839 18.5264 14.6262C18.5829 14.5685 18.6563 14.5302 18.7359 14.517ZM31.4779 14.851C31.4905 14.7567 31.5362 14.67 31.607 14.6064C31.6777 14.5428 31.7688 14.5065 31.8639 14.504H32.8389C33.0829 14.498 33.2819 14.752 33.2249 14.974C32.9999 16.347 32.7689 17.72 32.5449 19.093C32.8849 19.043 33.2699 18.982 33.5069 18.716C33.9049 18.283 34.2329 17.782 34.4769 17.256C34.5599 17.052 34.6049 16.756 34.8809 16.718C35.2469 16.706 35.6189 16.712 35.9849 16.718C36.2349 16.712 36.4209 16.984 36.3379 17.207C36.2419 17.535 36.0809 17.837 35.9139 18.128C35.5419 18.71 35.1309 19.285 34.5919 19.742C34.8299 20.429 35.1319 21.097 35.3939 21.771C35.4709 21.993 35.6579 22.253 35.4839 22.469C35.2849 22.729 34.9129 22.599 34.6369 22.63C34.3479 22.6 33.9309 22.741 33.7699 22.426C33.4679 21.752 33.2179 21.059 32.9099 20.386C32.728 20.396 32.5455 20.3937 32.3639 20.379L32.3139 20.479C32.2169 21.097 32.1139 21.715 32.0109 22.333C31.9935 22.4095 31.9526 22.4787 31.894 22.5308C31.8354 22.583 31.7619 22.6156 31.6839 22.624C31.3439 22.636 30.9969 22.63 30.6499 22.63C30.5782 22.6283 30.5083 22.6073 30.4474 22.5693C30.3865 22.5313 30.337 22.4777 30.3039 22.414C30.2399 22.29 30.2779 22.148 30.2969 22.012C30.6949 19.625 31.0869 17.238 31.4779 14.851ZM49.3179 15.525C49.343 15.44 49.3958 15.3657 49.4679 15.3141C49.54 15.2625 49.6273 15.2364 49.7159 15.24C49.9729 15.247 50.2359 15.234 50.4989 15.247C50.7109 15.253 50.8779 15.457 50.8519 15.655C50.8139 16.007 50.7239 16.36 50.6979 16.712C50.9479 16.712 51.2049 16.706 51.4549 16.712C51.6799 16.712 51.8659 16.935 51.8279 17.145C51.7959 17.337 51.7509 17.522 51.7179 17.714C51.7001 17.7937 51.6589 17.8663 51.5995 17.9224C51.5402 17.9785 51.4655 18.0157 51.3849 18.029C51.0769 18.048 50.7749 18.017 50.4729 18.048C50.3449 18.876 50.2029 19.705 50.0689 20.534C50.0489 20.725 50.0369 20.942 50.1519 21.109C50.3259 21.313 50.6269 21.239 50.8719 21.264C51.0639 21.319 51.1859 21.524 51.1539 21.709C51.1219 21.919 51.1149 22.129 51.0639 22.333C50.9869 22.563 50.7109 22.605 50.4989 22.661C49.9149 22.81 49.2409 22.81 48.7209 22.481C48.2389 22.166 48.1619 21.554 48.2139 21.035C48.3489 20.033 48.5599 19.037 48.6759 18.029C48.4959 18.035 48.2779 18.06 48.1429 17.906C47.9889 17.751 48.0659 17.522 48.0919 17.33C48.1299 17.126 48.1239 16.86 48.3549 16.75C48.5409 16.681 48.7529 16.73 48.9519 16.706C49.0739 16.31 49.1889 15.914 49.3179 15.525ZM45.6899 17.528C46.0939 17.138 46.5819 16.818 47.1399 16.657C47.3849 16.551 47.6999 16.749 47.6929 17.009C47.6479 17.349 47.5639 17.683 47.5069 18.017C47.4917 18.1016 47.4498 18.1791 47.3874 18.2381C47.3249 18.2972 47.2452 18.3346 47.1599 18.345C46.5299 18.45 45.9849 18.815 45.5489 19.248C45.4389 19.378 45.2789 19.501 45.2589 19.68C45.1234 20.5465 44.9847 21.4125 44.8429 22.278C44.8229 22.463 44.6559 22.643 44.4569 22.63H43.4819C43.4275 22.6308 43.3736 22.6204 43.3234 22.5993C43.2733 22.5781 43.2281 22.5469 43.1907 22.5074C43.1533 22.4679 43.1245 22.4211 43.1061 22.3699C43.0877 22.3187 43.0802 22.2643 43.0839 22.21C43.3659 20.497 43.6489 18.79 43.9239 17.077C43.9369 16.904 44.0659 16.737 44.2519 16.718C44.4889 16.706 44.7269 16.712 44.9709 16.712C45.1629 16.712 45.3429 16.879 45.3429 17.071C45.3429 17.337 45.3179 17.609 45.3109 17.881C45.4649 17.788 45.5609 17.64 45.6899 17.528ZM21.6939 16.743C22.0409 16.675 22.4009 16.731 22.7469 16.713C22.9469 16.687 23.1579 16.811 23.1899 17.003C23.2159 17.176 23.1639 17.343 23.1449 17.51C22.8819 19.1 22.6189 20.688 22.3619 22.278C22.3419 22.458 22.1889 22.636 21.9899 22.63C21.6429 22.63 21.2959 22.636 20.9429 22.624C20.7249 22.599 20.5649 22.358 20.6229 22.154C20.8989 20.503 21.1619 18.858 21.4379 17.207C21.4509 17.027 21.5019 16.817 21.6939 16.743ZM42.4669 16.823C41.5109 16.65 40.5349 16.527 39.5659 16.619C38.6989 16.725 37.8259 17.102 37.2929 17.789C36.5549 18.691 36.3049 19.903 36.4719 21.029C36.5619 21.567 36.8059 22.111 37.2619 22.445C37.6849 22.76 38.2559 22.803 38.7699 22.723C39.4889 22.587 40.0989 22.142 40.5999 21.647C40.6249 21.857 40.5739 22.067 40.5859 22.272C40.5989 22.463 40.7789 22.642 40.9779 22.63H41.6329C41.8249 22.63 41.9859 22.457 41.9989 22.278C42.2749 20.602 42.5509 18.932 42.8209 17.263C42.8589 17.053 42.6859 16.848 42.4669 16.823ZM40.6639 19.736C40.3959 20.2048 40.0507 20.625 39.6429 20.979C39.4119 21.165 39.1169 21.356 38.8019 21.295C38.4939 21.233 38.3459 20.924 38.2759 20.658C38.1986 20.3082 38.1934 19.9462 38.2606 19.5943C38.3278 19.2423 38.4661 18.9078 38.6669 18.611C38.8469 18.332 39.1359 18.122 39.4699 18.036C39.9379 17.924 40.4319 17.98 40.8879 18.104L40.9139 18.128C40.8559 18.666 40.7469 19.198 40.6639 19.736ZM29.8669 18.81C29.8609 18.191 29.6869 17.542 29.2379 17.078C28.9299 16.75 28.4679 16.583 28.0179 16.589C27.2739 16.565 26.5739 16.917 26.0279 17.387C25.9069 17.48 25.8229 17.616 25.6879 17.69C25.6879 17.486 25.7079 17.282 25.7009 17.072C25.7079 16.88 25.5209 16.713 25.3289 16.713H24.6739C24.5759 16.7154 24.4824 16.7541 24.4113 16.8215C24.3401 16.8889 24.2966 16.9803 24.2889 17.078C23.8839 19.552 23.4739 22.025 23.0689 24.498C23.0109 24.728 23.2169 24.963 23.4609 24.956C23.8209 24.95 24.1859 24.981 24.5389 24.932C24.8219 24.857 24.8149 24.542 24.8599 24.313C24.9585 23.77 25.0379 23.2237 25.0979 22.675C26.3619 22.91 27.8319 22.749 28.7759 21.827C29.5459 21.017 29.9059 19.897 29.8669 18.81ZM28.0699 19.434C28.0309 20.003 27.8199 20.578 27.4089 20.992C26.8759 21.481 26.0669 21.413 25.4119 21.246C25.3968 21.2227 25.3841 21.1979 25.3739 21.172C25.4759 20.634 25.5279 20.09 25.6559 19.558C26.0159 18.988 26.4519 18.414 27.0749 18.098C27.3059 17.993 27.6209 18.018 27.7879 18.222C28.0699 18.562 28.0959 19.02 28.0699 19.434Z" fill="#107BD4" stroke="#107BD4" stroke-width="0.101"/>
</g>
<defs>
<linearGradient id="paint0_linear_3418_2159" x1="65.6229" y1="12.7051" x2="65.6229" y2="25.9991" gradientUnits="userSpaceOnUse">
<stop stop-color="#F7E830"/>
<stop offset="1" stop-color="#FDCB06"/>
</linearGradient>
<radialGradient id="paint1_radial_3418_2159" cx="0" cy="0" r="1" gradientUnits="userSpaceOnUse" gradientTransform="translate(65.5509 18.768) scale(11.2247 10.8133)">
<stop offset="0.596" stop-color="#F29405"/>
<stop offset="0.736" stop-color="#F7D01E"/>
<stop offset="1" stop-color="#FDCB06"/>
</radialGradient>
<linearGradient id="paint2_linear_3418_2159" x1="69.4639" y1="13.185" x2="69.4669" y2="13.814" gradientUnits="userSpaceOnUse">
<stop stop-color="#FADA1C"/>
<stop offset="1" stop-color="#FDCB06"/>
</linearGradient>
<linearGradient id="paint3_linear_3418_2159" x1="61.777" y1="13.1551" x2="61.773" y2="13.7841" gradientUnits="userSpaceOnUse">
<stop stop-color="#FADA1C"/>
<stop offset="1" stop-color="#FDCB06"/>
</linearGradient>
<clipPath id="clip0_3418_2159">
<rect width="63" height="16" fill="white" transform="translate(11 10)"/>
</clipPath>
</defs>
</svg>
