<svg width="84" height="36" viewBox="0 0 84 36" fill="none" xmlns="http://www.w3.org/2000/svg">
<mask id="mask0_3418_2164" style="mask-type:alpha" maskUnits="userSpaceOnUse" x="0" y="0" width="84" height="36">
<rect width="84" height="36" fill="#C4C4C4"/>
</mask>
<g mask="url(#mask0_3418_2164)">
</g>
<g clip-path="url(#clip0_3418_2164)">
<path d="M20.6979 8C20.7299 8.111 20.8379 8.092 20.9149 8.124C21.7619 8.465 22.2849 9.074 22.3479 10.024C22.4119 11.019 21.9919 11.733 21.1119 12.165C20.9339 12.25 20.7549 12.335 20.5829 12.525C21.2269 12.525 21.8769 12.565 22.5139 12.512C23.0809 12.466 23.2659 12.676 23.1959 13.232C23.1609 13.5457 23.1609 13.8623 23.1959 14.176C23.2459 14.627 23.0559 14.726 22.6479 14.726C19.5059 14.713 16.3579 14.726 13.2179 14.713C12.8279 14.713 12.6379 14.778 12.7199 15.236C12.7779 15.551 12.9809 15.492 13.1659 15.492H16.9639C18.8819 15.492 20.7939 15.498 22.7119 15.485C23.0749 15.485 23.2599 15.57 23.2019 15.976C23.1829 16.12 23.2019 16.271 23.2019 16.422C23.2019 17.214 23.2019 17.234 22.4499 17.332C22.1639 17.372 22.1899 17.555 22.2149 17.725C22.2719 18.157 22.0939 18.249 21.6979 18.242C19.2199 18.222 16.7479 18.242 14.2679 18.222C13.8929 18.222 13.7329 18.275 13.7269 18.72C13.7269 19.198 13.9439 19.198 14.2869 19.198C16.7279 19.192 19.1689 19.198 21.6089 19.185C22.0619 19.185 22.2719 19.264 22.2209 19.781C22.1763 20.2429 22.1763 20.7081 22.2209 21.17C22.2529 21.576 22.0939 21.66 21.7239 21.66C19.1559 21.648 16.5939 21.648 14.0259 21.66C13.8609 21.66 13.5999 21.517 13.5609 21.857C13.5169 22.185 13.5809 22.355 13.9749 22.348C15.2249 22.322 16.4669 22.342 17.7149 22.342C20.3729 22.342 23.0299 22.329 25.6869 22.355C26.1209 22.355 26.2289 22.23 26.2229 21.798C26.2029 18.838 26.2229 15.878 26.2029 12.918C26.2029 12.453 26.3309 12.335 26.7769 12.335C27.2169 12.335 27.3569 12.44 27.3509 12.912C27.3249 15.741 27.3379 18.57 27.3439 21.399C27.3439 21.805 27.3569 22.211 27.4019 22.617C27.4519 23.075 27.3379 23.259 26.8279 23.252C24.9479 23.219 23.0679 23.239 21.1879 23.239H13.8169C13.2949 23.239 13.0329 22.962 13.0329 22.407C13.0329 22.054 13.0649 21.7 13.0269 21.353C12.9819 20.901 13.1539 20.79 13.5749 20.796C16.0539 20.816 18.5259 20.803 21.0049 20.803C21.2469 20.803 21.5019 20.882 21.5149 20.449C21.5209 20.037 21.3299 20.017 21.0239 20.017C18.5449 20.024 16.0729 20.011 13.5939 20.03C13.1349 20.03 12.9949 19.9 13.0339 19.44C13.0719 18.91 13.0719 18.367 13.0339 17.83C13.0019 17.398 13.1609 17.306 13.5559 17.312C16.0469 17.332 18.5459 17.325 21.0359 17.319C21.3299 17.319 21.6859 17.456 21.7629 16.939C21.7889 16.769 22.0309 16.802 22.1959 16.795C22.3559 16.795 22.5409 16.821 22.5209 16.559C22.5019 16.304 22.3179 16.343 22.1579 16.343H18.6329C16.5939 16.343 14.5489 16.33 12.5099 16.35C12.1279 16.35 12.0059 16.238 12.0319 15.852C12.0639 15.413 12.0769 14.962 12.0319 14.522C11.9809 13.999 12.1219 13.842 12.6619 13.848C15.7149 13.881 18.7739 13.861 21.8259 13.861C21.9529 13.861 22.0809 13.855 22.2079 13.861C22.4379 13.874 22.5329 13.776 22.5329 13.541C22.5329 13.298 22.4379 13.219 22.2079 13.219C21.1439 13.226 20.0739 13.219 19.0089 13.219C18.7989 13.219 18.5319 13.291 18.4809 12.984C18.4229 12.676 18.6399 12.512 18.9009 12.427C19.3089 12.283 19.7299 12.165 20.1309 12.007C20.6599 11.792 21.1249 11.477 21.4499 10.987C21.8389 10.41 21.7879 9.729 21.3419 9.257C21.1257 9.03333 20.8386 8.89155 20.5295 8.85581C20.2204 8.82007 19.9085 8.89259 19.6469 9.061C19.0799 9.421 18.7669 9.984 18.5569 10.606C18.3529 11.196 18.1809 11.798 18.0149 12.407C17.9449 12.682 17.8179 12.827 17.5369 12.82C17.2569 12.82 17.0719 12.741 16.9959 12.414C16.7979 11.589 16.5759 10.77 16.2629 9.978C16.0719 9.48 15.7659 9.081 15.2689 8.858C14.6889 8.602 14.0839 8.727 13.6889 9.192C13.2809 9.67 13.2169 10.279 13.5229 10.836C13.7529 11.255 14.1029 11.543 14.5359 11.706C15.0779 11.91 15.6259 12.1 16.1739 12.283C16.4159 12.361 16.5629 12.473 16.4919 12.754C16.4219 13.049 16.2059 13.062 15.9819 13.01C15.1159 12.807 14.2749 12.525 13.5489 11.975C12.8539 11.451 12.4719 10.77 12.6249 9.873C12.7579 8.95 13.2799 8.334 14.1789 8.092C14.2239 8.079 14.2619 8.032 14.2999 8H15.1669C16.8049 8.544 16.9259 10.161 17.4869 11.504C18.4419 8.668 18.4999 8.583 19.8299 8H20.6969H20.6979Z" fill="#D73650"/>
<path d="M72.0001 23.206C71.9681 23.213 71.9301 23.219 71.8981 23.233C70.9301 23.619 70.7321 23.514 70.6241 22.407C70.5601 21.765 70.6041 21.117 70.5861 20.469C70.5861 20.233 70.5661 19.984 70.5161 19.755C70.3621 19.074 69.9861 18.779 69.3681 18.845C68.8081 18.904 68.3171 19.408 68.3041 19.985C68.2786 20.9449 68.2786 21.9052 68.3041 22.865C68.3241 23.325 68.1001 23.325 67.7751 23.318C67.4691 23.311 67.2151 23.35 67.2341 22.878C67.2721 21.956 67.2531 21.032 67.2401 20.102C67.2341 19.283 66.8831 18.845 66.2651 18.832C65.6021 18.819 64.9781 19.414 64.9591 20.128C64.9336 21.0338 64.9336 21.9402 64.9591 22.846C64.9721 23.266 64.8061 23.331 64.4551 23.318C64.1371 23.305 63.9271 23.318 63.9271 22.866C63.9271 21.353 63.9971 19.834 63.8821 18.321C63.8691 18.183 63.8121 17.967 64.0351 17.987C64.3151 18.007 64.6851 17.777 64.8631 18.131C64.9841 18.367 65.0481 18.261 65.1761 18.19C66.2141 17.633 66.8261 17.699 67.7241 18.504C67.9281 18.688 67.9921 18.564 68.1001 18.452C68.5851 17.967 69.1701 17.797 69.8401 17.862C70.7571 17.954 71.4781 18.727 71.5541 19.782C71.6051 20.462 71.5861 21.15 71.6051 21.831C71.6181 22.251 71.6431 22.669 71.9871 22.977V23.2L72.0001 23.206Z" fill="#D73751"/>
<path d="M27.2039 8C27.7329 8.301 28.1029 8.714 28.1659 9.356C28.2489 10.135 27.8289 10.868 27.1849 11.071C26.5089 11.281 25.8209 10.973 25.5029 10.325C25.1779 9.65 25.3749 8.72 25.9489 8.275C26.0759 8.177 26.2099 8.092 26.3379 8H27.2039V8Z" fill="#D6354F"/>
<path d="M40.439 21.3C40.439 22.584 40.433 23.855 40.439 25.119C40.445 25.918 40.209 26.644 39.91 27.359C39.846 27.515 39.783 27.692 39.566 27.62C39.279 27.522 38.942 27.58 38.706 27.358C38.674 27.332 38.763 27.162 38.808 27.064C39.19 26.31 39.33 25.512 39.33 24.66C39.317 20.705 39.33 16.75 39.222 12.794C39.215 12.479 39.222 12.25 39.63 12.296C39.961 12.336 40.375 12.158 40.33 12.794C40.292 13.278 40.318 13.776 40.433 14.339C41.146 13.285 42.019 12.545 43.179 12.217C46.996 11.15 50.329 14.156 49.812 18.197C49.468 20.882 48.047 22.65 45.683 23.121C43.676 23.521 41.873 23.115 40.553 21.346C40.535 21.326 40.496 21.32 40.42 21.294L40.439 21.301V21.3ZM40.445 17.751C40.42 18.596 40.375 19.401 40.783 20.121C41.605 21.576 42.873 22.296 44.492 22.296C46.091 22.296 47.359 21.628 48.124 20.135C48.653 19.1 48.767 17.987 48.665 16.847C48.512 15.099 47.378 13.652 45.805 13.174C44.9941 12.9208 44.125 12.9232 43.3155 13.1808C42.5061 13.4384 41.7954 13.9388 41.28 14.614C40.566 15.551 40.343 16.631 40.445 17.751Z" fill="#D73650"/>
<path d="M31.371 19.3359C31.123 20.9659 31.206 21.0839 32.767 21.4509C33.755 21.6869 34.717 22.0139 35.552 22.6229C36.947 23.6389 37.081 25.7799 35.819 26.9719C34.354 28.3669 31.659 28.2099 30.109 27.2799C29.721 27.0439 30.186 26.7159 30.237 26.4279C30.295 26.1139 30.486 26.2709 30.639 26.3559C31.696 26.9389 32.805 27.1559 33.99 26.8739C34.825 26.6709 35.36 26.1399 35.526 25.2759C35.686 24.4179 35.335 23.7359 34.519 23.2519C33.71 22.7739 32.824 22.5319 31.919 22.3289C30.441 21.9949 30.008 21.4769 30.256 19.9779C30.396 19.1459 30.256 18.5499 29.816 17.8169C28.376 15.4459 30.103 12.3549 32.876 12.2439C34.118 12.1909 35.366 12.2309 36.616 12.1979C37.176 12.1849 36.953 12.5779 36.998 12.8399C37.055 13.1799 36.883 13.2459 36.59 13.2059C36.259 13.1669 35.934 13.0559 35.577 13.1209C36.896 14.9549 37.049 16.6049 36.061 18.0589C35.093 19.4799 33.449 19.9319 31.359 19.3289L31.371 19.3359ZM35.698 15.9899C35.698 14.3329 34.57 13.1209 33.028 13.1279C31.48 13.1279 30.358 14.3389 30.358 16.0029C30.358 17.5479 31.524 18.7529 33.028 18.7659C34.602 18.7789 35.698 17.6459 35.698 15.9959V15.9899Z" fill="#D73751"/>
<path d="M57.5669 20.691C57.5669 19.054 58.7329 17.869 60.3449 17.869C61.9319 17.869 63.0729 19.022 63.0659 20.613C63.0599 22.243 61.8869 23.435 60.2759 23.442C58.7009 23.449 57.5669 22.296 57.5669 20.692V20.691ZM62.0209 20.626C62.0149 19.578 61.2819 18.799 60.3129 18.799C59.2749 18.799 58.5549 19.585 58.5679 20.699C58.5739 21.733 59.3259 22.512 60.3009 22.499C61.3009 22.479 62.0339 21.693 62.0209 20.626Z" fill="#D73650"/>
<path d="M55.477 17.869C55.834 17.856 56.217 17.941 56.599 18.066C57.077 18.216 57.166 18.452 56.924 18.91C56.777 19.179 56.675 19.244 56.407 19.087C55.917 18.799 55.363 18.799 54.827 18.891C53.967 19.035 53.432 19.775 53.451 20.737C53.476 21.641 54.069 22.335 54.923 22.447C55.452 22.512 55.968 22.447 56.453 22.204C56.669 22.1 56.841 22.074 56.885 22.368C56.924 22.604 57.268 22.885 56.866 23.082C55.095 23.952 52.629 23.363 52.425 20.927C52.278 19.179 53.565 17.869 55.484 17.882L55.477 17.869Z" fill="#D73851"/>
<path d="M51.6291 22.3881C51.6221 22.9121 51.2781 23.2911 50.8131 23.2911C50.3291 23.2911 49.9651 22.8791 49.9781 22.3481C49.9981 21.8051 50.3731 21.4181 50.8581 21.4451C51.3161 21.4651 51.6351 21.8571 51.6281 22.3881H51.6291Z" fill="#D83953"/>
</g>
<defs>
<clipPath id="clip0_3418_2164">
<rect width="60" height="20" fill="white" transform="translate(12 8)"/>
</clipPath>
</defs>
</svg>
