<svg width="24" height="28" viewBox="0 0 24 28" fill="none" xmlns="http://www.w3.org/2000/svg">
<g clip-path="url(#clip0_6_109)">
<path fill-rule="evenodd" clip-rule="evenodd" d="M2.41888 27.8837V23.704H3.82809V27.8837H2.41888ZM6.03632 25.5013H6.66465C6.8862 25.5013 7.03874 25.4731 7.12227 25.4167C7.20581 25.3604 7.24939 25.2582 7.24939 25.1137C7.24939 24.9692 7.20581 24.8634 7.12227 24.8071C7.03874 24.7507 6.8753 24.7225 6.63196 24.7225H6.03632V25.5049V25.5013ZM4.6707 27.8872V23.7075H6.73365C7.38014 23.7075 7.8414 23.8027 8.11743 23.9894C8.39346 24.1762 8.53148 24.4828 8.53148 24.9128C8.53148 25.1701 8.47336 25.378 8.36077 25.5471C8.24818 25.7163 8.07385 25.8502 7.83777 25.9489C8.07748 25.9982 8.25181 26.0969 8.36077 26.2414C8.46973 26.3859 8.52784 26.5974 8.53511 26.8793L8.5569 27.4608V27.4749C8.56416 27.6405 8.60411 27.7286 8.68039 27.7357V27.8908H7.28571C7.26029 27.7886 7.24213 27.704 7.2276 27.6264C7.21307 27.5524 7.20944 27.4925 7.20944 27.4538V27.0379C7.20944 26.8229 7.16586 26.6714 7.07869 26.5833C6.99152 26.4952 6.83898 26.4529 6.62106 26.4529H6.03269V27.8943H4.66707L4.6707 27.8872ZM12.0363 26.2626H13.3475C13.3075 26.8123 13.1077 27.2388 12.7482 27.5454C12.3886 27.8485 11.8983 28 11.2845 28C10.5944 28 10.0496 27.8027 9.65375 27.4115C9.25787 27.0203 9.05811 26.4811 9.05811 25.7974C9.05811 25.1137 9.25424 24.578 9.64649 24.1868C10.0387 23.7921 10.5726 23.5982 11.2482 23.5982C11.8729 23.5982 12.3632 23.7463 12.7191 24.0388C13.0751 24.3313 13.2784 24.7471 13.3184 25.2899H11.9927C11.9709 25.0749 11.9019 24.9163 11.7784 24.8071C11.655 24.6978 11.4843 24.6449 11.2591 24.6449C10.9867 24.6449 10.7833 24.7401 10.6489 24.9339C10.5145 25.1278 10.4455 25.4167 10.4455 25.8044C10.4455 26.1921 10.5182 26.474 10.6634 26.6679C10.8087 26.8617 11.0194 26.9604 11.299 26.9604C11.5133 26.9604 11.684 26.9004 11.8075 26.7806C11.9346 26.6608 12.0073 26.4916 12.0291 26.2696L12.0363 26.2626ZM14.8366 27.8837V24.8071H13.5944V23.704H17.4334V24.8071H16.2203V27.8837H14.8366ZM20.6985 26.2626H22.0097C21.9697 26.8123 21.77 27.2388 21.4104 27.5454C21.0508 27.8485 20.5605 28 19.9467 28C19.2567 28 18.7119 27.8027 18.316 27.4115C17.9201 27.0203 17.7203 26.4811 17.7203 25.7974C17.7203 25.1137 17.9165 24.578 18.3087 24.1868C18.701 23.7921 19.2349 23.5982 19.9104 23.5982C20.5351 23.5982 21.0254 23.7463 21.3814 24.0388C21.7373 24.3313 21.9407 24.7471 21.9806 25.2899H20.655C20.6332 25.0749 20.5642 24.9163 20.4407 24.8071C20.3172 24.6978 20.1465 24.6449 19.9213 24.6449C19.6489 24.6449 19.4455 24.7401 19.3111 24.9339C19.1768 25.1278 19.1077 25.4167 19.1077 25.8044C19.1077 26.1921 19.1804 26.474 19.3257 26.6679C19.4709 26.8617 19.6816 26.9604 19.9613 26.9604C20.1755 26.9604 20.3462 26.9004 20.4697 26.7806C20.5969 26.6608 20.6695 26.4916 20.6913 26.2696L20.6985 26.2626ZM22.6416 11.7463C24.1126 17.0185 21.6792 19.3022 17.1392 18.4141C16.7615 19.3586 16.3765 20.296 15.7663 21.1101C23.0157 22.8793 25.9431 17.7093 22.6416 11.7463ZM8.33535 8.85287H11.4261C12.2724 9.05728 12.7809 9.48723 13.0061 9.98415C13.1259 10.252 13.1695 10.5445 13.1404 10.8335C13.1114 11.126 13.0061 11.415 12.8317 11.6758C12.4613 12.2326 11.7784 12.6485 10.8487 12.6661C10.3039 12.5745 10.0315 13.1383 10.4927 13.5683L13.5872 16.356H8.33535C8.17918 16.356 8.04842 16.2326 8.04842 16.0775V9.13129C8.04842 8.97974 8.17554 8.85287 8.33535 8.85287ZM13.5109 8.85287H15.6646C15.8208 8.85287 15.9516 8.97622 15.9516 9.13129V16.0775C15.9516 16.2291 15.8245 16.356 15.6646 16.356H15.1634L12.0145 13.5225C12.77 13.2758 13.3547 12.8071 13.7324 12.2397C13.9976 11.8414 14.1574 11.3938 14.2046 10.9357C14.2518 10.474 14.1828 10.0053 13.9867 9.57181C13.8681 9.31039 13.7075 9.06891 13.5109 8.8564V8.85287ZM6.02542 4.23966C9.99516 0.370052 13.2494 1.26873 14.7276 5.52952C15.7591 5.37446 16.7906 5.22996 17.8184 5.33569C15.7736 -1.63876 9.6937 -1.51541 6.02542 4.23966ZM7.51816 21.8467C2.07748 20.4476 1.25303 17.2617 4.3184 13.889C3.66465 13.0996 3.02179 12.3066 2.59685 11.3868C-2.60412 16.5921 0.544793 21.6423 7.51816 21.8467Z" fill="#2E3192"/>
<path d="M22.6416 11.7463C24.1126 17.0185 21.6792 19.3022 17.1392 18.4141C16.7615 19.3586 16.3765 20.296 15.7663 21.1101C23.0157 22.8793 25.9431 17.7093 22.6416 11.7463ZM8.33535 8.85287H11.4261C12.2724 9.05728 12.7809 9.48723 13.0061 9.98415C13.1259 10.252 13.1695 10.5445 13.1404 10.8335C13.1114 11.126 13.0061 11.415 12.8317 11.6758C12.4613 12.2326 11.7784 12.6485 10.8487 12.6661C10.3039 12.5745 10.0315 13.1383 10.4927 13.5683L13.5872 16.356H8.33535C8.17918 16.356 8.04842 16.2326 8.04842 16.0775V9.13128C8.04842 8.97974 8.17554 8.85287 8.33535 8.85287V8.85287ZM13.5109 8.85287H15.6646C15.8208 8.85287 15.9516 8.97622 15.9516 9.13128V16.0775C15.9516 16.2291 15.8245 16.356 15.6646 16.356H15.1634L12.0145 13.5225C12.77 13.2758 13.3547 12.8071 13.7324 12.2397C13.9976 11.8414 14.1574 11.3938 14.2046 10.9357C14.2518 10.474 14.1828 10.0053 13.9867 9.57181C13.8681 9.31039 13.7075 9.06891 13.5109 8.85639V8.85287ZM6.02542 4.23965C9.99516 0.370051 13.2494 1.26873 14.7276 5.52952C15.7591 5.37446 16.7906 5.22996 17.8184 5.33569C15.7736 -1.63876 9.6937 -1.51541 6.02542 4.23965ZM7.51816 21.8467C2.07748 20.4476 1.25303 17.2617 4.3184 13.889C3.66465 13.0996 3.02179 12.3066 2.59685 11.3868C-2.60412 16.5921 0.544793 21.6423 7.51816 21.8467Z" stroke="#231F20" stroke-width="0.04" stroke-miterlimit="2.61"/>
<path fill-rule="evenodd" clip-rule="evenodd" d="M1.38741 9.18767C7.15133 5.87137 13.9685 4.70485 20.7712 5.60353C20.8111 12.1339 18.6937 17.7692 14.4261 22.5093C8.69491 19.6758 4.34745 15.3093 1.38741 9.18767ZM2.61864 11.3797C6.97699 7.70045 12.5738 5.68811 18.4867 5.42732C19.5617 10.9604 18.6683 16.0599 15.8027 20.7189C10.4891 19.1753 6.10532 16.1234 2.61864 11.3797Z" fill="#D1D3D4"/>
</g>
<defs>
<clipPath id="clip0_6_109">
<rect width="24" height="28" fill="white"/>
</clipPath>
</defs>
</svg>
