<svg width="84" height="36" viewBox="0 0 84 36" fill="none" xmlns="http://www.w3.org/2000/svg">
<mask id="mask0_3418_2166" style="mask-type:alpha" maskUnits="userSpaceOnUse" x="0" y="0" width="84" height="36">
<rect width="84" height="36" fill="#C4C4C4"/>
</mask>
<g mask="url(#mask0_3418_2166)">
</g>
<g clip-path="url(#clip0_3418_2166)">
<path fill-rule="evenodd" clip-rule="evenodd" d="M39.0001 14.566C41.4801 14.566 43.489 16.42 43.489 18.706C43.489 20.992 41.4811 22.846 38.9991 22.846C36.5191 22.846 34.5291 20.992 34.5291 18.706C34.5291 16.42 36.5391 14.566 38.9991 14.566H39.0001ZM39.0001 21.756C40.6721 21.756 42.0121 20.396 42.0121 18.716C42.0121 17.034 40.6721 15.654 39.0001 15.654C37.3281 15.654 36.0081 17.012 36.0081 18.715C36.0081 20.419 37.3491 21.756 39.0001 21.756ZM52.5751 19.943C52.5743 19.8689 52.5441 19.7981 52.4913 19.7462C52.4384 19.6943 52.3671 19.6655 52.2931 19.666H51.3791C51.323 19.666 51.2682 19.6827 51.2216 19.7138C51.1749 19.745 51.1386 19.7892 51.1171 19.841C50.7151 20.945 49.7511 21.728 48.2501 21.728C46.6351 21.728 45.3401 20.374 45.3401 18.697C45.3401 17.019 46.6351 15.645 48.2501 15.645C49.5681 15.645 50.5241 16.313 50.9871 17.268C51.0331 17.356 51.1291 17.418 51.2361 17.418H52.1501C52.224 17.4183 52.295 17.3893 52.3476 17.3374C52.4003 17.2855 52.4303 17.2149 52.4311 17.141C52.4311 17.062 52.3931 16.985 52.3931 16.985C51.2851 14.541 48.2631 14.558 48.2631 14.558C45.8341 14.558 43.8661 16.411 43.8661 18.697C43.8661 20.982 45.8341 22.835 48.2631 22.835C48.2631 22.835 51.2891 23.035 52.5361 20.118C52.5361 20.118 52.5751 20.031 52.5751 19.941V19.943ZM31.5401 21.502C32.1961 21.18 32.6701 20.442 32.6701 19.564V15.157C32.6708 15.0831 32.7008 15.0125 32.7535 14.9606C32.8061 14.9087 32.8771 14.8797 32.9511 14.88H33.8661C33.94 14.8797 34.011 14.9087 34.0636 14.9606C34.1163 15.0125 34.1463 15.0831 34.1471 15.157L34.1431 19.463C34.1431 21.4 32.6511 22.818 30.7921 22.818H30.2421C29.5471 22.818 28.7831 22.571 28.7831 22.571C27.5901 22.197 26.7271 21.123 26.7271 19.858V19.817C26.7278 19.7429 26.758 19.6721 26.8108 19.6202C26.8637 19.5683 26.935 19.5395 27.0091 19.54H27.7471C28.0241 19.54 28.0151 19.789 28.0151 19.789V19.847C28.0151 20.892 29.0651 21.739 30.3581 21.739C30.3581 21.739 30.9981 21.769 31.5421 21.502H31.5401ZM60.8051 22.046L57.6601 17.527L59.9051 15.268C59.9051 15.268 59.967 15.208 59.967 15.093C59.967 15.093 59.9691 14.88 59.7771 14.88H58.6571C58.5817 14.8801 58.5095 14.9099 58.4561 14.963L54.8001 18.567V15.157C54.7993 15.0831 54.7693 15.0125 54.7166 14.9606C54.664 14.9087 54.593 14.8797 54.5191 14.88H54.0661C54.0661 14.88 53.3241 14.84 53.3241 15.816V22.172C53.3248 22.2457 53.3547 22.3162 53.4071 22.368C53.4595 22.4199 53.5303 22.449 53.6041 22.449H54.0581C54.0581 22.449 54.8001 22.489 54.8001 21.513V20.403L56.6571 18.533L59.2911 22.306C59.3491 22.385 59.4511 22.436 59.5281 22.436H60.674C60.8661 22.436 60.8641 22.223 60.8641 22.223C60.8641 22.134 60.802 22.048 60.802 22.048L60.8041 22.046H60.8051ZM66.1131 19.056C66.4381 19.056 66.703 18.796 66.703 18.476C66.703 18.156 66.4381 17.896 66.1131 17.896H62.8441V16.04H66.563C66.8881 16.04 67.1521 15.78 67.1521 15.46C67.1521 15.14 66.8881 14.88 66.562 14.88H61.8781C61.8102 14.8793 61.7428 14.892 61.6798 14.9174C61.6168 14.9428 61.5595 14.9803 61.511 15.0279C61.4625 15.0754 61.4239 15.132 61.3973 15.1945C61.3707 15.257 61.3567 15.3241 61.356 15.392V21.922C61.356 22.204 61.5901 22.436 61.8781 22.436H66.563C66.8881 22.436 67.1521 22.176 67.1521 21.856C67.1521 21.536 66.8881 21.276 66.562 21.276H62.8441V19.056H66.1141H66.1131ZM70.41 21.856C70.41 22.182 70.6431 22.446 70.9321 22.446H71.385C71.672 22.446 71.9051 22.182 71.9051 21.856V19.717L74.9061 15.443C75.0061 15.264 75.0001 15.168 75.0001 15.168C74.999 15.0942 74.9689 15.0239 74.9163 14.9722C74.8637 14.9205 74.7928 14.8917 74.7191 14.892H73.717C73.717 14.892 73.4541 14.875 73.2551 15.183L71.0841 18.29L69.1841 15.183C68.9851 14.875 68.7241 14.892 68.7241 14.892H67.8241C67.7505 14.892 67.6799 14.9209 67.6275 14.9726C67.5751 15.0242 67.5451 15.0944 67.5441 15.168C67.5441 15.168 67.5371 15.264 67.6371 15.443L70.4141 19.789V21.856H70.41Z" fill="#231F20"/>
<path d="M72.9319 22.48V21.833H72.6969V21.701H73.3269V21.833H73.0929V22.481H72.9319V22.48ZM73.4279 22.48V21.703H73.6669L73.8099 22.234L73.9519 21.704H74.1909V22.481H74.0409V21.869L73.8849 22.481H73.7319L73.5749 21.869V22.481H73.4249H73.4279V22.48ZM24.1499 21.677C24.1499 21.677 23.8869 21.506 23.7589 21.442C23.7589 21.442 21.6389 20.372 20.3419 22.562C19.8259 23.526 20.1779 24.282 20.1779 24.282C19.4409 24.33 18.5979 24.158 17.7879 23.752C16.8229 23.264 16.1089 22.543 15.7709 21.799C15.7709 21.799 15.3809 21.022 15.4589 20.079C15.6973 20.4181 16.0139 20.6946 16.3819 20.8853C16.7499 21.0759 17.1585 21.1749 17.5729 21.174C19.9829 21.174 21.6129 19.337 21.6129 19.337C22.2629 18.574 22.6799 17.399 22.6799 16.083C22.6799 14.865 22.3199 13.771 21.7519 13.011L21.7479 13.005C21.3369 12.44 20.7249 11.923 19.9659 11.546C19.2019 11.166 18.4099 10.989 17.6989 11H17.5489C17.5489 11 17.1629 11 17.1039 11.476C17.1039 11.476 17.0599 11.795 17.0699 11.934C17.0699 11.934 17.0679 14.306 19.6919 14.419C20.8219 14.419 21.3579 13.753 21.3579 13.753C21.7439 14.38 21.9779 15.204 21.9779 16.11C21.9779 17.192 21.6409 18.16 21.1109 18.81C21.1109 18.81 20.6459 19.425 19.8489 19.813C20.0933 19.3514 20.1862 18.8247 20.1144 18.3074C20.0426 17.7901 19.8098 17.3085 19.4489 16.931C18.2439 15.072 16.0039 14.645 16.0039 14.645C15.0229 14.477 13.7969 14.711 12.6469 15.366C11.5839 15.97 10.8049 16.816 10.4169 17.672V17.678C10.1219 18.303 9.96694 19.073 10.0059 19.896C10.0459 20.726 10.2759 21.477 10.6309 22.069L10.7039 22.195C10.7039 22.195 10.8659 22.511 11.3349 22.332C11.3349 22.332 11.6249 22.214 11.7499 22.134C11.7499 22.134 13.8219 20.958 12.6449 18.7C12.0959 17.751 11.2549 17.633 11.2549 17.633C11.6149 16.998 12.2209 16.39 13.0109 15.943C13.9559 15.406 14.9639 15.206 15.7859 15.328C15.7859 15.328 16.7539 15.434 17.5439 16.088L17.6189 16.125L17.5709 16.123C16.9738 16.1199 16.3943 16.3258 15.9331 16.7052C15.4719 17.0846 15.158 17.6134 15.0459 18.2C14.3039 20.106 15.0649 21.99 15.0649 21.99C15.4489 22.889 16.3099 23.773 17.4869 24.365C18.5749 24.912 19.7169 25.097 20.6569 24.954H20.6619C21.3539 24.854 22.0959 24.566 22.7789 24.088C23.4659 23.606 23.9859 23.011 24.2989 22.399L24.3689 22.271C24.3689 22.271 24.5659 21.955 24.1469 21.678L24.1509 21.676L24.1499 21.677ZM17.5739 16.814C18.6029 16.814 19.4369 17.634 19.4369 18.648C19.4369 19.661 18.6029 20.481 17.5739 20.481C16.5439 20.481 15.7109 19.661 15.7109 18.648C15.7109 17.635 16.5449 16.814 17.5739 16.814ZM19.6759 13.719C17.6819 13.719 17.7829 11.712 17.7829 11.712C18.4949 11.682 19.2929 11.885 20.0269 12.335C20.4149 12.572 20.7469 12.856 21.0169 13.165C21.0169 13.165 20.6259 13.719 19.6769 13.719H19.6749H19.6759ZM20.9709 22.839C21.9179 21.146 23.6299 22.185 23.6299 22.185C23.3159 22.805 22.7599 23.385 22.0169 23.795C21.6249 24.012 21.2169 24.158 20.8169 24.241C20.8169 24.241 20.5189 23.645 20.9709 22.839ZM12.0469 19.056C13.0069 20.741 11.2089 21.624 11.2089 21.624C10.8389 21.037 10.6329 20.264 10.6709 19.427C10.6919 18.985 10.7779 18.567 10.9179 18.188C10.9179 18.188 11.5899 18.254 12.0479 19.056H12.0469Z" fill="#231F20"/>
</g>
<defs>
<clipPath id="clip0_3418_2166">
<rect width="65" height="14" fill="white" transform="translate(10 11)"/>
</clipPath>
</defs>
</svg>
