<svg width="84" height="36" viewBox="0 0 84 36" fill="none" xmlns="http://www.w3.org/2000/svg">
<g clip-path="url(#clip0_6639_2157)">
<path d="M11 22.1572V10.0039H12.9193V21.8369C12.9193 22.4165 13.0842 22.8701 13.4181 23.2029C13.7477 23.5358 14.1814 23.7006 14.7189 23.7006V25.4089C12.2389 25.4089 11 24.3243 11 22.1561" fill="#231F20"/>
<path d="M16.6246 25.442V15.8339H15.1567V14.2148H18.5439V25.442H16.6246Z" fill="#231F20"/>
<path d="M25.9702 11.7116C25.5775 11.5783 25.2132 11.51 24.8751 11.51C24.2903 11.51 23.8042 11.7326 23.4241 12.1746C23.0408 12.6177 22.8508 13.1773 22.8508 13.8556C22.8508 14.0635 22.8455 14.0509 22.8455 14.2252H25.0998V16.0416H22.9106V25.4135H20.9913V16.0416H19.4321V14.2252H21.0039C21.0039 12.855 21.3431 11.9699 22.0234 11.1866C22.7027 10.4034 23.5984 10.0117 24.7134 10.0117C25.2709 10.0117 25.8694 10.1125 26.5067 10.311L25.9702 11.7106" fill="#231F20"/>
<path d="M34.8528 19.9845H27.0915C27.0915 21.2518 27.4359 22.223 28.1247 22.9034C28.7347 23.4976 29.5201 23.7906 30.4776 23.7906C31.5696 23.7906 32.4809 23.4724 33.2107 22.832L34.0149 24.2127C33.7199 24.5098 33.2674 24.7681 32.6594 24.9854C31.8961 25.2689 31.0435 25.4096 30.1059 25.4096C28.7536 25.4096 27.6039 24.9497 26.66 24.0279C25.6069 23.0115 25.084 21.6455 25.084 19.9309C25.084 18.2164 25.6216 16.7181 26.702 15.6429C27.6679 14.6801 28.8082 14.1992 30.1301 14.1992C31.663 14.1992 32.8673 14.6318 33.7398 15.4991C34.5819 16.3327 35.004 17.4383 35.004 18.8148C35.004 19.2401 34.9546 19.6296 34.8538 19.9845H34.8528ZM30.1679 15.8781C29.3164 15.8781 28.6013 16.1542 28.0249 16.7065C27.4747 17.2315 27.164 17.8846 27.0905 18.6647H33.0542C33.0542 17.8919 32.8127 17.2451 32.3318 16.7265C31.8016 16.1626 31.0813 15.8792 30.1679 15.8792" fill="#231F20"/>
<path d="M35.5542 24.5613L36.2251 22.7438C37.2887 23.443 38.1465 23.7927 38.7944 23.7927C39.9714 23.7927 40.5583 23.294 40.5583 22.3007C40.5583 21.5867 39.9903 20.9756 38.85 20.4664C37.9712 20.0622 37.3801 19.7556 37.0766 19.5477C36.7701 19.3388 36.5065 19.1015 36.2808 18.8348C36.0561 18.5691 35.8902 18.2867 35.7789 17.9885C35.6697 17.6893 35.6151 17.3669 35.6151 17.0226C35.6151 16.1353 35.9343 15.4434 36.579 14.9457C37.2205 14.4491 38.0604 14.1992 39.0978 14.1992C39.8811 14.1992 40.868 14.447 42.0618 14.9436L41.5169 16.716C40.762 16.1175 40.0029 15.8172 39.2395 15.8172C38.7849 15.8172 38.4027 15.9253 38.0898 16.1395C37.7791 16.3548 37.6237 16.6267 37.6237 16.9575C37.6237 17.6494 38.0164 18.1733 38.7986 18.5282L40.1688 19.1529C41.0035 19.5404 41.6146 19.9761 41.9988 20.4654C42.38 20.9546 42.5711 21.572 42.5711 22.3122C42.5711 23.2803 42.2319 24.0405 41.5558 24.5875C40.8817 25.1356 39.943 25.4086 38.7461 25.4086C37.6163 25.4086 36.5538 25.1272 35.5573 24.5602" fill="#231F20"/>
<path d="M43.9571 15.9074H42.6982V14.2328H43.9571V11.9743L45.8744 11.2383V14.2338H48.8415V15.9085H45.8744V21.2801C45.8744 22.1862 46.0266 22.834 46.3332 23.2172C46.6408 23.6015 47.1322 23.7926 47.8126 23.7926C48.3029 23.7926 48.8132 23.6719 49.3382 23.4325L49.6217 25.1093C48.8268 25.3098 47.9533 25.4096 47.0062 25.4096C46.1505 25.4096 45.4271 25.0925 44.8391 24.4551C44.249 23.821 43.9571 23.0178 43.9571 22.0476V15.9064" fill="#231F20"/>
<path d="M54.7011 27.0653C54.4512 27.7488 53.9315 28.32 53.1377 28.7778C52.3429 29.2355 51.4578 29.4634 50.4814 29.4634V27.754C51.2772 27.754 51.9618 27.5682 52.5319 27.1955C53.102 26.8227 53.3866 26.3671 53.3866 25.8305C53.3866 25.2383 53.2837 24.6556 53.0737 24.0834C52.8658 23.5091 52.597 22.7982 52.2663 21.952L49.2812 14.261H51.2289L54.467 22.7877L57.4153 14.2148H59.364L54.7022 27.0663" fill="#231F20"/>
<path d="M59.8999 22.1572V10.0039H61.8182V21.8369C61.8182 22.4165 61.982 22.8701 62.3148 23.2029C62.6466 23.5358 63.0802 23.7006 63.6168 23.7006V25.4089C61.1389 25.4089 59.901 24.3243 59.901 22.1561" fill="#231F20"/>
<path d="M72.85 19.9852H65.0856C65.0856 21.2525 65.4321 22.2248 66.1229 22.9052C66.7319 23.4984 67.5152 23.7945 68.4738 23.7945C69.5668 23.7945 70.4782 23.4753 71.2079 22.8359L72.0132 24.2145C71.7171 24.5137 71.2656 24.7689 70.6545 24.9872C69.8912 25.2718 69.0397 25.4125 68.1042 25.4125C66.7487 25.4125 65.6 24.9515 64.6561 24.0307C63.603 23.0144 63.0791 21.6494 63.0791 19.9359C63.0791 18.2224 63.6177 16.7209 64.6981 15.6447C65.6609 14.684 66.8054 14.2031 68.1262 14.2031C69.6592 14.2031 70.8624 14.6347 71.735 15.503C72.5791 16.3366 73.0002 17.4412 73.0002 18.8187C73.0002 19.2419 72.9519 19.6314 72.85 19.9863V19.9852ZM68.226 15.819C67.3734 15.819 66.6595 16.0951 66.0809 16.6474C65.5328 17.1735 65.22 17.8255 65.1465 18.6066H71.1134C71.1134 17.8328 70.8708 17.1871 70.3879 16.6674C69.8576 16.1035 69.1374 15.819 68.226 15.819" fill="#231F20"/>
<path d="M18.9239 11.0017C18.9239 12.2511 17.9118 13.2633 16.6644 13.2633C15.4171 13.2633 14.4028 12.2511 14.4028 11.0017C14.4028 9.75225 15.415 8.74219 16.6644 8.74219C17.9139 8.74219 18.9239 9.7554 18.9239 11.0017Z" fill="#EE4D9B"/>
<path d="M20.9241 9.8813C20.9241 10.9943 20.0212 11.8993 18.9061 11.8993C17.7911 11.8993 16.8892 10.9943 16.8892 9.8813C16.8892 8.76834 17.7911 7.86328 18.9061 7.86328C20.0212 7.86328 20.9241 8.76624 20.9241 9.8813Z" fill="#FAA61A"/>
<path d="M18.7212 11.922C17.6755 11.8464 16.8555 10.9508 16.8555 9.88719C16.8555 9.48191 16.929 9.12387 17.1369 8.80784V8.80469C18.1427 9.03358 18.8913 9.93339 18.8913 11.0075C18.8913 11.3424 18.8535 11.6385 18.7223 11.9252V11.921" fill="#DA2128"/>
</g>
<defs>
<clipPath id="clip0_6639_2157">
<rect width="62" height="21.5987" fill="white" transform="translate(11 7.86328)"/>
</clipPath>
</defs>
</svg>
