<svg width="84" height="36" viewBox="0 0 84 36" fill="none" xmlns="http://www.w3.org/2000/svg">
<mask id="mask0_3418_2169" style="mask-type:alpha" maskUnits="userSpaceOnUse" x="0" y="0" width="84" height="36">
<rect width="84" height="36" fill="#C4C4C4"/>
</mask>
<g mask="url(#mask0_3418_2169)">
</g>
<path d="M52.06 27.9921C52.638 27.9876 53.2091 27.8672 53.7397 27.6381C54.2703 27.4089 54.7495 27.0757 55.149 26.6581C55.9722 25.8017 56.4301 24.6589 56.426 23.4711V12.5601C56.4288 11.3659 55.9777 10.2152 55.164 9.34106C54.7628 8.92187 54.2813 8.58779 53.7482 8.35877C53.2151 8.12975 52.6413 8.01047 52.061 8.00806H41.427C40.8493 8.01272 40.2783 8.13318 39.7479 8.36231C39.2175 8.59143 38.7385 8.92458 38.339 9.34206C37.5153 10.2105 37.0579 11.3631 37.062 12.5601V23.4871C37.077 25.9671 39.024 27.9771 41.427 27.9921" fill="#CF381E"/>
<path d="M49.049 18.6201C48.638 20.0331 49.307 21.4461 50.722 20.8801C50.312 21.9011 49.627 23.4241 49.627 25.0101C49.627 25.0101 49.627 26.0771 50.387 26.3441C50.387 26.3441 51.452 26.6111 51.224 25.6371C51.0573 25.0292 51.0107 24.3947 51.087 23.7691C51.3475 22.4662 51.7402 21.1932 52.259 19.9701C52.259 19.9701 53.886 16.4701 54.829 14.8371C54.829 14.8371 55.225 14.0051 54.419 14.0051C54.2965 14.0075 54.1762 14.0387 54.0679 14.096C53.9595 14.1533 53.8661 14.2351 53.795 14.3351L51.498 18.5571C51.148 19.2171 50.814 19.4211 50.555 19.4211C49.977 19.4211 50.099 18.4631 50.19 18.1181C50.448 16.9401 50.86 15.8101 51.407 14.7271C51.817 13.8011 50.996 13.7221 50.996 13.7221C50.479 13.5811 50.083 14.4601 50.083 14.4601L49.171 16.3751C48.5782 17.4352 47.9283 18.4624 47.224 19.4521C47.224 19.4521 47.102 19.6091 47.011 19.5461C46.919 19.4681 46.965 19.3111 46.965 19.3111C47.117 18.0081 47.375 16.7211 47.725 15.4491C47.741 15.3701 47.755 15.3081 47.755 15.2291C47.7738 15.0606 47.7248 14.8915 47.619 14.7591C47.5704 14.6914 47.5065 14.6362 47.4325 14.5979C47.3584 14.5597 47.2764 14.5395 47.193 14.5391C46.783 14.4911 46.584 14.6951 46.219 15.1511C45.413 16.1711 44.47 17.7101 44.014 18.4011C43.968 18.4791 43.877 18.4631 43.877 18.3531C43.877 18.0391 44.942 14.6481 44.942 14.6481C44.942 14.6481 45.063 14.1781 44.698 14.0201C44.698 14.0201 44.136 13.6601 43.679 14.3661L41.489 17.4431C41.321 17.6781 41.23 17.6001 41.23 17.6001V17.3961L41.58 15.3861C41.854 13.8481 41.336 13.7691 41.002 13.7061C40.758 13.7061 40.5 13.7851 40.287 13.9261C39.602 14.2721 39.085 15.6691 39.085 15.6691C39.085 15.6691 38.933 16.1711 39.267 16.3751C39.374 16.4381 39.496 16.4851 39.617 16.4691C40.104 16.4381 40.196 15.5121 40.545 15.5121C40.606 15.5121 40.606 15.5901 40.606 15.6061L39.481 20.4881C39.4459 20.6242 39.4532 20.7679 39.502 20.8998C39.5508 21.0317 39.6388 21.1455 39.754 21.2261C39.907 21.3201 40.074 21.3361 40.241 21.3051C40.3985 21.2524 40.5328 21.1467 40.621 21.0061L41.032 20.3471C41.625 19.2641 42.721 17.7101 42.827 17.7101C42.873 17.7101 42.888 17.7101 42.888 17.7571L42.478 20.6301C42.4577 20.7549 42.4776 20.883 42.535 20.9957C42.5923 21.1085 42.6841 21.2 42.797 21.2571C42.9006 21.2962 43.0114 21.3123 43.1217 21.3042C43.2321 21.2961 43.3394 21.2639 43.436 21.2101C43.664 21.0221 43.862 20.7861 43.999 20.5201C44.227 20.1431 45.322 18.8081 45.991 17.5841C46.037 17.5051 46.083 17.5841 46.067 17.6311C45.931 18.2751 45.824 19.9861 45.809 20.4101C45.779 21.2421 46.402 21.3361 46.417 21.3361C46.828 21.3671 47.223 21.1791 47.452 20.8341" fill="white"/>
<path d="M16.312 20.52H15.095V17.71C15.113 17.4009 15.0503 17.0925 14.913 16.815C14.8464 16.7127 14.753 16.6307 14.6429 16.5779C14.5329 16.5252 14.4104 16.5037 14.289 16.516C14.076 16.516 13.879 16.563 13.711 16.673C13.5293 16.8001 13.3785 16.9666 13.27 17.16V20.52H12.053V15.417H12.737L13.194 16.107C13.316 15.997 13.437 15.903 13.559 15.809C13.681 15.73 13.802 15.668 13.939 15.605C14.076 15.542 14.213 15.495 14.35 15.464C14.487 15.432 14.639 15.417 14.791 15.417C14.958 15.417 15.126 15.432 15.278 15.479C15.4 15.526 15.521 15.573 15.643 15.652C15.734 15.73 15.825 15.825 15.902 15.919C15.992 16.044 16.054 16.154 16.115 16.28C16.3238 16.0509 16.5708 15.8597 16.845 15.715C16.982 15.621 17.134 15.542 17.301 15.479C17.484 15.432 17.666 15.401 17.864 15.401C18.107 15.401 18.335 15.464 18.548 15.573C18.746 15.699 18.914 15.856 19.02 16.044C19.142 16.28 19.233 16.515 19.279 16.782C19.339 17.081 19.369 17.379 19.369 17.692V20.519H18.139V17.71C18.169 17.396 18.109 17.082 17.956 16.815C17.8927 16.7133 17.8022 16.6314 17.6947 16.5786C17.5873 16.5257 17.4671 16.504 17.348 16.516C17.15 16.516 16.952 16.564 16.77 16.673C16.5801 16.7954 16.4231 16.9627 16.313 17.16L16.312 20.52ZM23.34 18.196H22.26C22.0338 18.1824 21.8094 18.2432 21.621 18.369C21.4948 18.4993 21.4242 18.6736 21.424 18.855C21.424 19.028 21.484 19.185 21.606 19.311C21.743 19.421 21.926 19.483 22.108 19.468C22.245 19.468 22.382 19.452 22.518 19.405C22.641 19.374 22.762 19.326 22.868 19.264C22.975 19.185 23.066 19.107 23.143 19.028C23.233 18.934 23.295 18.84 23.356 18.746L23.34 18.196ZM23.34 19.954C23.173 20.127 22.96 20.268 22.747 20.363C22.458 20.473 22.154 20.535 21.85 20.52C21.6311 20.531 21.4126 20.4934 21.21 20.41C21.0252 20.3297 20.8557 20.218 20.709 20.08C20.574 19.9265 20.4658 19.7514 20.389 19.562C20.3157 19.3556 20.2798 19.1379 20.283 18.919C20.283 17.977 20.998 17.364 22.139 17.364H23.355V17.082C23.3554 16.9944 23.3315 16.9083 23.2859 16.8335C23.2404 16.7586 23.175 16.6979 23.097 16.658C22.8497 16.5431 22.5784 16.4892 22.306 16.501C22.002 16.501 21.697 16.548 21.408 16.611C21.1754 16.6752 20.9469 16.7537 20.724 16.846L20.587 15.794C20.663 15.747 20.77 15.716 20.907 15.669C21.028 15.622 21.18 15.59 21.317 15.543C21.454 15.512 21.637 15.48 21.819 15.449C22.002 15.418 22.199 15.418 22.397 15.418C22.6795 15.3952 22.9638 15.4293 23.2329 15.5183C23.5021 15.6073 23.7507 15.7493 23.964 15.936C24.344 16.344 24.527 16.893 24.496 17.443V20.52H23.629L23.34 19.954ZM30.201 15.34L28.239 17.882L30.475 20.504H28.954L26.884 17.914V20.504H25.684V13.518H26.884V17.914L28.725 15.339H30.201V15.34ZM32.893 16.548C32.741 16.548 32.589 16.564 32.453 16.611C32.33 16.6428 32.2156 16.7016 32.118 16.783C32.014 16.8482 31.9296 16.9405 31.874 17.05C31.814 17.16 31.768 17.27 31.737 17.396H33.882C33.882 17.286 33.867 17.176 33.822 17.066C33.781 16.9648 33.7186 16.8737 33.639 16.799C33.5473 16.7219 33.4449 16.6586 33.335 16.611C33.1934 16.5604 33.0431 16.539 32.893 16.548ZM33.122 19.421C33.304 19.421 33.502 19.405 33.684 19.358C33.852 19.326 34.019 19.279 34.171 19.217C34.308 19.169 34.445 19.107 34.567 19.028C34.627 18.997 34.688 18.95 34.749 18.903L34.977 20.017C34.715 20.1624 34.4402 20.2832 34.156 20.378C33.8194 20.4723 33.4715 20.5201 33.122 20.52C32.742 20.52 32.361 20.457 31.996 20.331C31.693 20.2186 31.418 20.0419 31.19 19.813C30.9635 19.5883 30.7918 19.3146 30.688 19.013C30.5547 18.689 30.4825 18.3432 30.475 17.993C30.475 17.663 30.52 17.333 30.627 17.019C30.733 16.705 30.885 16.438 31.098 16.187C31.296 15.951 31.555 15.763 31.844 15.637C32.5023 15.3701 33.2387 15.3701 33.897 15.637C34.171 15.747 34.399 15.936 34.597 16.155C34.78 16.375 34.917 16.626 35.007 16.893C35.084 17.176 35.13 17.473 35.13 17.773V18.039C35.114 18.133 35.1 18.228 35.084 18.306H31.722C31.737 18.479 31.782 18.636 31.859 18.777C31.919 18.918 32.026 19.044 32.148 19.138C32.27 19.248 32.407 19.326 32.574 19.358C32.741 19.421 32.924 19.452 33.121 19.452V19.421H33.122ZM57.613 16.14L59.225 14.13H59.591V15.402H60.975V16.5H59.591V18.603C59.591 18.713 59.606 18.839 59.636 18.964C59.6699 19.0489 59.7161 19.1284 59.773 19.2C59.834 19.247 59.91 19.294 59.986 19.31C60.0632 19.3421 60.1463 19.3581 60.23 19.357C60.366 19.357 60.503 19.341 60.625 19.294C60.747 19.279 60.853 19.231 60.96 19.184V20.3C60.838 20.363 60.701 20.41 60.549 20.441C60.126 20.5356 59.6858 20.5194 59.271 20.394C59.0773 20.3293 58.9006 20.222 58.754 20.08C58.6256 19.9332 58.5275 19.7626 58.465 19.578C58.3964 19.3649 58.3656 19.1416 58.374 18.918V16.532H57.583L57.613 16.14ZM63.044 16.47C63.227 16.155 63.454 15.889 63.744 15.684C63.987 15.496 64.291 15.402 64.611 15.418C64.7016 15.4021 64.7943 15.4021 64.885 15.418L65.052 15.448C65.052 15.448 65.022 15.732 64.839 16.611C64.748 16.595 64.656 16.579 64.565 16.595C64.3565 16.5841 64.1484 16.6218 63.957 16.705C63.7763 16.7842 63.6189 16.9085 63.5 17.066C63.3708 17.2301 63.2728 17.4165 63.211 17.616C63.151 17.866 63.12 18.118 63.12 18.369V20.519H61.903V15.419H62.663L63.044 16.47ZM70.513 16.532C70.3782 16.5209 70.2426 16.5425 70.118 16.595C69.8861 16.6814 69.6851 16.8345 69.54 17.035C69.479 17.129 69.418 17.223 69.387 17.333V18.777C69.4339 18.87 69.4957 18.9548 69.57 19.028C69.646 19.107 69.722 19.169 69.813 19.232C69.92 19.295 70.026 19.342 70.133 19.374C70.437 19.452 70.756 19.436 71.045 19.326C71.182 19.248 71.319 19.154 71.41 19.028C71.517 18.902 71.593 18.745 71.639 18.588C71.684 18.4 71.715 18.196 71.73 17.992C71.73 17.804 71.7 17.6 71.639 17.395C71.5941 17.2248 71.5163 17.0651 71.41 16.925C71.3091 16.7963 71.1788 16.6937 71.03 16.626C70.8844 16.5511 70.7226 16.5133 70.559 16.516L70.513 16.532ZM70.848 15.418C71.182 15.402 71.502 15.48 71.791 15.622C72.049 15.762 72.262 15.952 72.445 16.202C72.612 16.454 72.749 16.736 72.825 17.034C72.901 17.348 72.947 17.678 72.947 17.992C72.947 18.322 72.901 18.652 72.81 18.965C72.735 19.2564 72.6005 19.5291 72.415 19.766C72.2427 19.9977 72.0188 20.186 71.761 20.316C71.4818 20.4535 71.1742 20.5234 70.863 20.52C70.5666 20.524 70.2722 20.4707 69.996 20.363C69.7619 20.2576 69.5539 20.1019 69.387 19.907V22.56H68.17V15.418H68.885L69.357 16.03C69.5512 15.8351 69.7779 15.6757 70.027 15.559C70.285 15.465 70.559 15.402 70.833 15.418H70.848ZM66.3 13.33C66.2165 13.3303 66.134 13.3474 66.0572 13.38C65.9804 13.4127 65.9109 13.4604 65.8528 13.5203C65.7947 13.5802 65.7491 13.6511 65.7188 13.7288C65.6884 13.8065 65.6738 13.8895 65.676 13.973C65.676 14.334 65.949 14.633 66.299 14.633C66.649 14.633 66.923 14.334 66.923 13.973C66.9274 13.8884 66.9133 13.8038 66.8817 13.7252C66.8501 13.6467 66.8018 13.5759 66.74 13.518C66.6853 13.4547 66.6178 13.4038 66.5419 13.3687C66.4661 13.3335 66.3836 13.3148 66.3 13.314V13.33ZM66.892 20.52H65.675V15.418H66.892V20.52Z" fill="#174880"/>
</svg>
