<svg width="36" height="24" viewBox="0 0 36 24" fill="none" xmlns="http://www.w3.org/2000/svg">
<path d="M35.1031 5.58276C34.7367 4.36252 34.1125 2.80985 32.9387 1.55267C32.4624 1.03557 31.6917 0.369357 30.6278 0.295486L30.0783 0.221614C28.2437 0.110807 26.3371 0 24.4659 0C22.7412 0 20.908 0.0738714 18.6703 0.25855C16.909 0.406293 14.8193 0.590971 12.7282 0.961696C10.6005 1.33105 8.43619 1.81259 6.4184 2.29275C4.95153 2.66211 3.55794 3.18057 2.31089 3.88235C1.17377 4.51163 0.476291 5.43502 0.256465 6.61833C0.109913 7.35841 0 8.06019 0 8.80027C0 10.5021 0.183189 12.3133 0.624199 14.3105C0.880664 15.4938 1.17377 16.7141 1.46823 17.8974C1.61478 18.5636 1.79797 19.2285 1.94452 19.8577C2.20098 20.8933 3.00837 20.8933 3.33811 20.8194C3.77776 20.7456 4.21877 20.7086 4.65843 20.6348H4.80498C5.13472 20.5978 5.50245 20.5609 5.83219 20.5239C6.05202 21.4856 6.56631 22.2982 7.26242 22.9275C8.10645 23.6306 9.09703 24 10.1229 24C10.2694 24 10.4526 24 10.5992 23.9631C11.8096 23.8153 12.8734 23.2599 13.6442 22.2982C14.2684 21.5212 14.5981 20.5239 14.6348 19.4884L22.4481 18.6005C22.558 19.7469 23.0357 20.7825 23.8417 21.5595C24.7956 22.4843 26.116 22.9275 27.4363 22.7428C28.6467 22.5951 29.6739 22.0397 30.408 21.0793C31.2154 20.0438 31.5085 18.8605 31.3253 17.5663L31.6917 17.5294C32.4991 17.4186 33.3051 17.3447 34.1125 17.2709C34.7733 17.197 35.0298 16.7168 35.1031 16.5677C35.616 15.4952 35.8738 14.275 35.9471 12.7223C36.1303 10.2818 35.8372 7.87825 35.1031 5.5855V5.58276ZM33.6362 12.5718C33.5996 13.1642 33.453 13.7551 33.3431 14.3844C33.3065 14.606 33.2698 14.7907 33.1966 15.0123C32.206 15.1231 31.2154 15.2339 30.3361 15.3447C29.3455 14.1245 27.8786 13.4952 26.3738 13.6799C24.9069 13.8646 23.6232 14.7524 22.8891 16.1204C22.0451 16.1943 21.2011 16.3051 20.3584 16.4159L18.7436 16.6005C17.8263 16.7114 16.947 16.8222 16.0297 16.933C15.7366 16.9699 15.4055 17.0068 15.1124 17.0438C14.746 17.0807 14.4149 17.1176 14.0486 17.1546C13.058 15.528 11.5545 14.7141 9.6466 14.8618C7.9599 14.9726 6.34512 16.3776 5.86883 18.0793C5.31926 18.1163 4.7317 18.1902 3.99759 18.301C3.85104 17.5978 3.66785 16.933 3.5213 16.2298C3.30147 15.2312 3.08165 14.2326 2.86046 13.2339C2.93374 13.2709 3.04365 13.3078 3.15356 13.3078C3.37339 13.3078 3.55658 13.3447 3.77776 13.3447H5.09808V9.684H5.13472C5.35455 9.64706 5.61101 9.684 5.86883 9.684C5.79556 10.461 5.90547 11.2367 6.27185 11.8659C6.93268 13.0123 8.10645 13.4186 9.20694 13.4186C9.90442 13.4186 10.6005 13.2709 11.0782 13.0123C11.4446 12.8276 11.5911 12.4583 11.6291 12.1614V11.7551C11.9588 12.4583 12.5098 12.9754 13.1693 13.2339C13.8301 13.4555 14.5628 13.4186 15.2603 13.0862C15.6633 13.4186 16.1776 13.3447 16.4341 13.3447H16.6539L17.2035 13.4186H17.9742C18.3406 13.4186 18.6717 13.4186 19.0381 13.3817C19.8821 13.3817 20.7614 13.3447 21.6054 13.2709C22.3396 13.197 22.9258 12.7524 23.2921 12.1245C23.5486 12.7907 24.0995 13.2339 24.9056 13.3817C25.0521 13.4186 25.2353 13.4186 25.3818 13.4186C25.7482 13.4186 26.0793 13.3447 26.3724 13.197V13.3447H27.9858C28.3522 13.3817 28.61 13.2709 28.8299 13.0862L28.8665 13.0492L29.1963 13.1231C29.3428 13.1601 29.4894 13.197 29.6373 13.2339C29.967 13.3078 30.3334 13.3817 30.7011 13.4186C30.8843 13.4555 31.0675 13.4555 31.214 13.4555C31.9115 13.4555 32.4611 13.2709 32.974 12.9015C33.2305 12.6799 33.4503 12.4213 33.6348 12.1614V12.5677L33.6362 12.5718ZM26.96 20.3748C25.7862 20.3748 24.8689 19.487 24.8689 18.2668C24.8689 17.0465 25.7862 16.1587 26.9234 16.1587C27.4729 16.1587 28.0238 16.3803 28.4269 16.7866C28.8299 17.1929 29.0497 17.7114 29.0497 18.2654C29.0497 19.4487 28.1324 20.3735 26.9586 20.3735L26.96 20.3748ZM8.10645 19.3023C8.14309 18.7852 8.39955 18.2668 8.80393 17.8974C9.20694 17.565 9.68459 17.3803 10.1609 17.3803H10.3074C11.6644 17.4911 12.2519 18.5636 12.2519 19.5622C12.2519 20.0807 12.0321 20.5978 11.6278 21.0041C11.1881 21.4104 10.6372 21.6334 10.0876 21.5964C9.53668 21.5595 9.02375 21.301 8.62074 20.8933C8.25436 20.4487 8.07117 19.8947 8.10781 19.3037L8.10645 19.3023ZM3.2282 6.1368C4.1455 5.54583 5.20935 5.1751 6.16329 4.87962C8.36427 4.17647 10.7484 3.65937 13.5356 3.25308C15.5534 2.95759 17.3134 2.77291 18.9648 2.66211C21.3123 2.51436 23.6599 2.40356 25.9341 2.40356C27.0713 2.40356 28.245 2.47743 29.3822 2.58824C29.7119 2.58824 30.043 2.62517 30.3727 2.66211C30.6658 2.69904 30.9589 2.84679 31.3267 3.29138C31.9129 3.95759 32.3539 4.77018 32.7569 5.99042C32.8668 6.32285 32.9767 6.69357 33.0866 7.06293C32.9767 6.98906 32.8668 6.95212 32.7569 6.91519L32.647 6.87825C32.244 6.80438 31.803 6.73051 31.3267 6.73051C30.4826 6.73051 29.7865 7.06293 29.2356 7.65527C29.199 7.6922 29.199 7.72914 29.1623 7.72914L29.0891 7.02599H26.4118V10.6498C26.3751 10.6498 26.3385 10.6867 26.2286 10.7237C26.1553 10.7606 26.082 10.7606 26.0454 10.7237C26.0454 10.6867 26.0088 10.6498 26.0088 10.539V7.83995L25.8988 7.02599H23.478C23.4414 6.73051 23.3681 6.47196 23.2582 6.21204C22.9285 5.54583 22.3409 5.1026 21.5702 5.02873C20.7275 4.91792 19.8835 4.95486 19.0761 4.95486C18.7463 4.95486 18.38 4.99179 18.0122 4.99179H17.5359V4.91792H14.7854V6.84131C13.4651 6.73051 12.4379 7.21067 11.8137 8.24624C11.4473 7.54309 10.8964 7.09986 10.1636 6.87825C9.02647 6.50889 7.8527 6.76744 6.97204 7.50752C6.82549 7.1751 6.53238 6.91519 6.20129 6.87825C5.76163 6.80438 5.35726 6.84131 4.99088 6.98906V6.87825L2.64335 7.02599C2.64335 6.95212 2.67999 6.87825 2.67999 6.80438C2.71662 6.65664 2.7899 6.39809 3.22955 6.13817L3.2282 6.1368ZM33.5263 9.46512C33.5263 9.53899 33.5263 9.57592 33.5629 9.6498C33.5629 9.6498 33.5629 9.61286 33.5263 9.61286V9.46512ZM22.999 8.83721C23.0357 8.76334 23.1089 8.68947 23.1456 8.6156C23.1822 8.57866 23.1822 8.54173 23.2189 8.50479V9.02189C23.1456 8.94802 23.0723 8.87415 22.999 8.83721ZM20.505 7.91245H20.2485V7.46922H20.4683C20.4683 7.50616 20.505 7.58003 20.505 7.76471C20.5416 7.87551 20.505 7.91245 20.505 7.91245ZM20.2485 10.0944C20.395 10.0944 20.5416 10.0944 20.6881 10.1313C20.7981 10.1313 20.7981 10.3899 20.7981 10.4637C20.7981 10.7223 20.7614 10.7223 20.6149 10.7592H20.2118V10.0944H20.2485ZM14.7827 10.7237C14.6361 10.7975 14.4896 10.7975 14.4163 10.7237C14.3064 10.6498 14.2331 10.5021 14.2331 10.3174C14.1965 10.0219 14.2331 9.7264 14.2697 9.46649C14.2697 9.39261 14.3064 9.35568 14.3797 9.31874C14.4163 9.31874 14.4896 9.28181 14.5628 9.28181C14.6361 9.28181 14.7094 9.28181 14.7827 9.31874V10.7237Z" fill="white"/>
<path d="M13.902 18.8207C14.1585 21.2612 12.545 22.9999 10.5639 23.2216C9.53668 23.3324 8.58274 22.9999 7.77671 22.3337C6.96932 21.6675 6.5663 20.7811 6.45639 19.7086C5.87019 19.7824 5.28262 19.8194 4.7317 19.8932C4.21877 19.9671 3.70449 20.004 3.19156 20.0779C2.82518 20.1518 2.71527 20.004 2.64199 19.6703C2.20234 17.8221 1.72469 16.0095 1.32167 14.1231C0.955296 12.3488 0.735469 10.5731 0.735469 8.79748C0.735469 8.13127 0.845383 7.42949 0.991934 6.76328C1.17512 5.76465 1.79932 5.02457 2.67999 4.5444C3.92703 3.84126 5.24734 3.36109 6.6043 3.02867C8.65873 2.51157 10.7498 2.03004 12.8395 1.69762C14.784 1.3652 16.7638 1.18052 18.745 0.994471C20.6528 0.846728 22.5594 0.735921 24.4672 0.735921C26.5217 0.735921 28.5381 0.883664 30.5925 0.994471C31.3266 1.03141 31.9129 1.47464 32.4271 2.03004C33.4177 3.10254 33.9673 4.39666 34.4083 5.80158C35.1058 8.02046 35.3989 10.3501 35.2523 12.6798C35.179 13.9001 34.9959 15.1203 34.4816 16.2667C34.4083 16.4514 34.2984 16.5253 34.0772 16.5622L30.9956 16.8946C30.849 16.9315 30.6658 16.9315 30.4813 16.9685C30.8843 18.2995 30.7377 19.5567 29.8584 20.6292C29.2342 21.4432 28.3916 21.8864 27.401 21.9972C25.2733 22.2558 23.0357 20.5923 23.2188 17.7441C20.1006 18.1135 17.0203 18.4842 13.902 18.8166V18.8207ZM1.57678 8.98489C1.72333 10.3529 1.79661 11.5731 2.01643 12.7934C2.38281 14.7906 2.8971 16.7127 3.33675 18.7099C3.41003 19.1176 3.59322 19.1176 3.92431 19.0793C4.62179 18.9685 5.35454 18.8946 6.05202 18.8207C6.34512 18.7838 6.49167 18.7099 6.52831 18.4144C6.85805 16.9726 8.253 15.7523 9.68323 15.6415C11.4066 15.4938 12.6536 16.2325 13.4976 17.7127C13.6075 17.8973 13.6808 17.9712 13.9006 17.9343C14.6348 17.8604 15.3675 17.7865 16.1016 17.6757C17.2388 17.528 18.3392 17.4172 19.4764 17.2694C20.6868 17.1217 21.8972 16.974 23.1442 16.8631C23.364 16.8262 23.4373 16.7523 23.5472 16.5677C24.7576 14.0164 28.0957 13.647 29.8571 15.8645C30.0036 16.0492 30.1135 16.0861 30.3334 16.0861C31.3972 15.9753 32.4244 15.8276 33.4883 15.7154C33.7081 15.6785 33.8547 15.6046 33.8913 15.383C34.0745 14.4582 34.3309 13.5704 34.3676 12.6101C34.5141 10.2434 34.1844 7.9507 33.4503 5.73182C33.0839 4.65931 32.6429 3.66068 31.8735 2.80979C31.4705 2.36656 31.0308 1.99584 30.4433 1.92197C28.9398 1.81116 27.4363 1.66342 25.9314 1.66342C23.5839 1.66342 21.2363 1.77422 18.9254 1.92197C17.0908 2.03277 15.2576 2.25439 13.4596 2.51294C10.9289 2.8823 8.39819 3.40076 5.97738 4.17641C4.91353 4.50883 3.81304 4.9165 2.8591 5.5444C2.41945 5.83989 2.08835 6.17368 1.97844 6.69078C1.79525 7.46779 1.68534 8.28038 1.57542 8.98353L1.57678 8.98489ZM26.96 21.1135C28.5368 21.1135 29.7838 19.8563 29.7838 18.3036C29.7838 16.751 28.5001 15.4569 26.9233 15.4569C25.3466 15.4569 24.1361 16.714 24.1361 18.3036C24.1361 19.8932 25.3832 21.1135 26.9613 21.1135H26.96ZM13.0213 19.5239C13.0213 18.0082 12.0308 16.714 10.4173 16.6032C8.8772 16.4924 7.48225 17.7127 7.40897 19.2284C7.3357 20.8563 8.50946 22.186 10.0862 22.2982C11.6264 22.409 13.0213 21.1149 13.0213 19.5253V19.5239Z" fill="#C9323E"/>
<path d="M18.0475 5.69352C19.2213 5.69352 20.3584 5.58271 21.4955 5.73045C22.8525 5.91513 22.999 7.43086 22.5594 8.24481C22.3762 8.5403 22.0098 8.72498 21.7886 8.94796C21.9352 9.02183 22.1184 9.0957 22.3016 9.20651C22.9244 9.6128 23.2189 10.2051 23.0357 11.056C22.8891 11.833 22.4115 12.424 21.6421 12.5348C20.4683 12.6826 19.2579 12.6456 18.0841 12.6826C18.0475 10.2421 18.0475 7.94933 18.0475 5.69352ZM19.5144 11.4623C19.9174 11.4623 20.3218 11.4993 20.7248 11.4623C21.2743 11.3884 21.5322 11.056 21.5322 10.4637C21.5322 9.87135 21.2757 9.42812 20.7614 9.35425C20.3584 9.31732 19.9174 9.35425 19.5144 9.35425V11.4623ZM19.5144 6.76602V8.68941H20.4683C20.9826 8.68941 21.2391 8.35699 21.2757 7.87546C21.3123 7.24618 21.0192 6.83989 20.5416 6.80295C20.1752 6.72908 19.8807 6.76602 19.5144 6.76602ZM16.8371 12.5718C16.3608 12.5348 15.8099 12.8303 15.5534 12.1285C15.3702 12.2024 15.2603 12.2763 15.1138 12.3501C14.0133 12.9425 12.8395 12.5718 12.3632 11.4254C11.9602 10.5006 11.9602 9.57586 12.4365 8.68941C13.0227 7.65384 14.0865 7.43223 15.187 7.65384C15.297 7.69078 15.3702 7.72771 15.5534 7.76465V5.65658H16.8371V12.5718ZM15.5168 10.0205V9.16957C15.5168 9.05877 15.4801 8.94796 15.4435 8.87409C14.9306 8.43086 13.7568 8.43086 13.5723 9.31732C13.499 9.64974 13.4623 10.0205 13.499 10.3898C13.5723 11.3515 14.3797 11.7947 15.2237 11.3515C15.4435 11.2407 15.5901 11.093 15.5534 10.8344C15.4801 10.5389 15.5168 10.2804 15.5168 10.0205ZM11.5911 10.3898H8.03317C8.06981 11.0191 8.50946 11.5362 9.1703 11.4993C9.75786 11.4623 10.3441 11.3515 10.9683 11.2407V12.1285C10.9683 12.2024 10.895 12.3132 10.8584 12.3501C9.7945 12.8672 7.81335 12.9425 6.97068 11.4993C6.45775 10.5745 6.53102 9.20651 7.15387 8.39256C7.8147 7.54167 8.91519 7.20925 9.97769 7.54167C10.7851 7.80022 11.2247 8.42949 11.4446 9.24208C11.5178 9.61143 11.5178 9.94522 11.5911 10.3884V10.3898ZM10.2342 9.72361C10.3074 9.16957 9.75786 8.57723 9.1703 8.57723C8.47283 8.5403 7.99653 8.98353 7.99653 9.72361H10.2342ZM27.1432 12.6087C27.1065 12.424 27.1065 12.2763 27.1065 12.0902C26.9233 12.201 26.7402 12.2749 26.5922 12.3488C26.1526 12.5704 25.6749 12.7551 25.162 12.6443C24.4659 12.4965 24.0249 12.0889 23.9882 11.3501C23.9516 10.1668 23.9882 8.98353 23.9882 7.76328H25.2719V10.5362C25.2719 11.2393 25.6749 11.5718 26.3724 11.424C26.96 11.3132 27.1432 11.0547 27.1432 10.4254V7.76328H28.4268C28.4268 7.87409 28.4635 8.02183 28.4635 8.13264V12.1997C28.4635 12.4952 28.3902 12.606 28.0605 12.606C27.7307 12.569 27.4376 12.606 27.1432 12.606V12.6087ZM29.3808 12.3871V11.2407C29.9683 11.3515 30.5546 11.4623 31.1421 11.5362C31.2887 11.5731 31.4719 11.5362 31.5818 11.4623C31.7283 11.3515 31.9481 11.1668 31.9848 11.0191C31.9848 10.8713 31.8016 10.6128 31.6184 10.5759C31.252 10.4651 30.8477 10.4281 30.4813 10.3542C29.4541 10.1326 29.0877 8.87545 29.7852 8.09844C30.1882 7.61827 30.7025 7.43223 31.3253 7.43223C31.765 7.43223 32.206 7.5061 32.6456 7.57997C32.7189 7.57997 32.8288 7.72771 32.8288 7.80158C32.8654 8.13401 32.8288 8.43086 32.8288 8.76328L31.3986 8.54167C31.252 8.54167 31.1055 8.54167 30.9956 8.61554C30.849 8.68941 30.6658 8.87409 30.7025 8.98489C30.7025 9.0957 30.8856 9.31732 31.0322 9.35425C31.3253 9.46506 31.655 9.46506 31.9861 9.53893C32.609 9.64974 33.05 9.94522 33.2332 10.5745C33.4164 11.2038 33.1233 11.9055 32.609 12.3118C32.0947 12.7181 31.4719 12.7551 30.8477 12.6812C30.3347 12.6073 29.8571 12.4596 29.3808 12.3857V12.3871ZM3.04501 7.72771L4.36532 7.61691C4.36532 7.76465 4.40196 7.87546 4.40196 8.06013C4.58515 7.94933 4.7317 7.91239 4.84161 7.80158C5.24463 7.54304 5.649 7.46916 6.12529 7.54304C6.23521 7.54304 6.34512 7.69078 6.34512 7.80158C6.38176 8.20788 6.34512 8.61554 6.34512 8.94796C5.90547 8.91102 5.46446 8.83715 5.0248 8.91102C4.47388 8.98489 4.32733 9.20651 4.32733 9.76191V12.5718H3.1902C3.11692 12.5718 3.00701 12.3501 3.00701 12.2763V8.43086C3.04365 8.20924 3.04365 7.98763 3.04365 7.72771H3.04501Z" fill="#C9323E"/>
</svg>
