<svg width="33" height="32" viewBox="0 0 33 32" fill="none" xmlns="http://www.w3.org/2000/svg">
<path d="M2.356 28.302C3.217 28.672 3.751 29.082 3.751 29.982C3.751 30.881 3.056 31.494 1.978 31.494C1.106 31.494 0.405 31.099 0.056 30.409L0 30.3L1.026 29.705L1.093 29.815C1.324 30.193 1.583 30.353 1.958 30.353C2.281 30.353 2.498 30.211 2.498 29.997C2.498 29.761 2.341 29.673 1.855 29.46L1.609 29.354C0.949 29.074 0.34 28.684 0.34 27.739C0.34 26.889 0.99 26.298 1.922 26.298C2.628 26.298 3.112 26.57 3.444 27.157L3.506 27.267L2.512 27.905L2.443 27.783C2.277 27.485 2.121 27.425 1.921 27.425C1.721 27.425 1.579 27.54 1.579 27.718C1.579 27.922 1.678 28.012 2.108 28.198L2.355 28.305V28.303L2.356 28.302ZM9.618 28.477L10.343 26.457H11.586L9.744 31.577H9.468L8.351 29.179C8.29524 29.0578 8.24453 28.9344 8.199 28.809C8.15256 28.9346 8.10119 29.0584 8.045 29.18L6.885 31.578H6.61L4.738 26.458H6.066L6.799 28.478C6.845 28.607 6.894 28.764 6.935 28.909C6.985 28.759 7.045 28.596 7.107 28.465L8.07 26.415H8.336L9.312 28.465C9.375 28.596 9.435 28.758 9.484 28.909C9.526 28.764 9.574 28.606 9.621 28.478L9.618 28.476V28.477ZM13.035 31.429V26.352H14.29V31.429H13.035ZM18.404 29.724V28.59H20.734V30.865L20.685 30.905C20.419 31.123 19.712 31.495 18.755 31.495C17.14 31.495 16.014 30.425 16.014 28.892C16.014 27.359 17.101 26.297 18.601 26.297C19.425 26.297 20.029 26.529 20.447 27.007L20.529 27.1L19.673 27.946L19.58 27.85C19.341 27.604 19.093 27.45 18.6 27.45C17.831 27.45 17.295 28.042 17.295 28.89C17.295 29.738 17.868 30.344 18.755 30.344C19.048 30.344 19.355 30.294 19.564 30.212V29.722H18.404V29.724ZM24.762 29.724V28.59H27.092V30.865L27.044 30.905C26.778 31.123 26.07 31.495 25.114 31.495C23.499 31.495 22.371 30.425 22.371 28.892C22.371 27.359 23.46 26.297 24.958 26.297C25.782 26.297 26.387 26.529 26.805 27.007L26.887 27.1L26.032 27.946L25.939 27.85C25.701 27.604 25.452 27.45 24.959 27.45C24.192 27.45 23.656 28.042 23.656 28.89C23.656 29.738 24.229 30.344 25.115 30.344C25.409 30.344 25.715 30.294 25.924 30.212V29.722H24.764L24.762 29.724ZM31.689 26.353H33L31.2 29.731V31.431H29.94V29.804L28.022 26.353H29.422L30.308 27.972C30.403 28.148 30.503 28.381 30.578 28.57C30.65 28.382 30.745 28.151 30.839 27.974L31.689 26.354L31.69 26.353H31.689ZM16.535 24.053C16.5178 24.0397 16.5011 24.0257 16.485 24.011C15.0863 22.2531 13.7815 20.4226 12.576 18.527C12.028 17.61 11.673 16.894 11.741 16.709C11.92 16.228 15.104 15.964 16.084 16.401C16.383 16.533 16.375 16.709 16.375 16.811C16.375 17.251 16.353 18.433 16.353 18.433C16.3503 18.4929 16.3598 18.5527 16.3808 18.6088C16.4019 18.6649 16.4342 18.7162 16.4756 18.7595C16.5171 18.8028 16.5669 18.8372 16.6221 18.8607C16.6773 18.8841 16.7366 18.8962 16.7965 18.896C16.8565 18.8959 16.9158 18.8836 16.9708 18.8599C17.0259 18.8361 17.0756 18.8015 17.1168 18.758C17.1581 18.7146 17.1901 18.6632 17.2109 18.6069C17.2318 18.5507 17.241 18.4909 17.238 18.431L17.233 15.486C17.233 15.23 16.955 15.166 16.902 15.156C16.013 15.1524 15.124 15.1504 14.235 15.15C11.773 15.15 11.222 15.252 10.804 14.978C9.898 14.386 8.416 10.392 8.381 8.14501C8.332 4.97501 10.211 2.23001 12.855 0.870005C13.9937 0.29656 15.2511 -0.00144114 16.526 5.24001e-06C20.713 5.24001e-06 24.16 3.16001 24.619 7.22501V7.23501C24.703 8.21901 19.287 8.42801 18.215 8.142C18.051 8.09801 18.009 7.93001 18.009 7.85801C18.009 7.11 18.003 5.00801 18.003 5.00801C18.0029 4.94976 17.9914 4.89211 17.969 4.83832C17.9467 4.78454 17.914 4.73569 17.8727 4.69455C17.8315 4.65341 17.7826 4.6208 17.7288 4.59857C17.6749 4.57635 17.6172 4.56494 17.559 4.56501C17.5008 4.56507 17.4431 4.57661 17.3893 4.59896C17.3355 4.6213 17.2867 4.65403 17.2455 4.69526C17.2044 4.73649 17.1718 4.78541 17.1496 4.83925C17.1273 4.89308 17.1159 4.95076 17.116 5.00901L17.126 8.88301C17.1264 8.95926 17.1533 9.03301 17.202 9.09171C17.2506 9.15042 17.3181 9.19045 17.393 9.205L20.755 9.20401C22.549 9.20401 23.302 9.412 23.804 9.794C24.138 10.048 24.266 10.534 24.154 11.167C23.148 16.793 16.774 23.764 16.534 24.055V24.053H16.535Z" fill="#F47C2A"/>
</svg>
