<svg width="65" height="20" viewBox="0 0 65 20" fill="none" xmlns="http://www.w3.org/2000/svg">
<path d="M6.41672 19C6.40265 18.9903 6.38928 18.9796 6.37672 18.968C5.27685 17.5789 4.25076 16.1329 3.30272 14.636C2.87172 13.912 2.59272 13.346 2.64572 13.2C2.78572 12.82 5.28972 12.611 6.06172 12.956C6.29672 13.061 6.29072 13.198 6.29072 13.28C6.29072 13.627 6.27372 14.562 6.27372 14.562C6.27132 14.6093 6.27859 14.6567 6.29509 14.7011C6.31159 14.7456 6.33696 14.7862 6.36967 14.8205C6.40238 14.8548 6.44174 14.8821 6.48534 14.9007C6.52894 14.9193 6.57587 14.9288 6.62327 14.9286C6.67067 14.9285 6.71755 14.9187 6.76104 14.8999C6.80454 14.881 6.84373 14.8535 6.87625 14.819C6.90876 14.7845 6.9339 14.7438 6.95014 14.6992C6.96638 14.6547 6.97338 14.6073 6.97072 14.56L6.96572 12.234C6.96572 12.032 6.74672 11.982 6.70572 11.974C6.30372 11.972 5.48572 11.969 4.60772 11.969C2.67072 11.969 2.23772 12.049 1.90772 11.833C1.19372 11.363 0.0277162 8.209 0.000716189 6.433C-0.0372838 3.93 1.44072 1.763 3.52072 0.688003C4.41662 0.234813 5.40671 -0.000889305 6.41072 2.52139e-06C9.70372 2.52139e-06 12.4157 2.496 12.7767 5.708V5.716C12.8427 6.493 8.58172 6.658 7.73872 6.432C7.60872 6.397 7.57672 6.264 7.57672 6.208C7.57672 5.618 7.57172 3.956 7.57172 3.956C7.57159 3.91024 7.56244 3.86495 7.54481 3.82271C7.52717 3.78048 7.50139 3.74214 7.46894 3.70987C7.43648 3.6776 7.39799 3.65204 7.35566 3.63465C7.31333 3.61726 7.26798 3.60837 7.22222 3.6085C7.17645 3.60863 7.13116 3.61778 7.08893 3.63541C7.0467 3.65305 7.00835 3.67883 6.97608 3.71128C6.94381 3.74374 6.91825 3.78223 6.90086 3.82456C6.88347 3.86689 6.87459 3.91224 6.87472 3.958L6.88172 7.018C6.88203 7.07823 6.90323 7.13647 6.94172 7.1828C6.9802 7.22912 7.03357 7.26065 7.09272 7.272H9.73772C11.1477 7.272 11.7417 7.436 12.1347 7.737C12.3977 7.937 12.4997 8.323 12.4097 8.822C11.6197 13.266 6.60472 18.772 6.41572 19.002L6.41672 19ZM20.0137 8.627C21.2787 9.172 22.0627 9.777 22.0627 11.102C22.0627 12.427 21.0407 13.332 19.4597 13.332C18.1787 13.332 17.1497 12.748 16.6377 11.732L16.5557 11.568L18.0617 10.693L18.1607 10.855C18.4997 11.411 18.8797 11.648 19.4287 11.648C19.9037 11.648 20.2217 11.438 20.2217 11.123C20.2217 10.775 19.9917 10.645 19.2787 10.331L18.9167 10.176C17.9497 9.762 17.0557 9.187 17.0557 7.795C17.0557 6.543 18.0097 5.67 19.3777 5.67C20.4127 5.67 21.1237 6.072 21.6117 6.937L21.7017 7.098L20.2427 8.04L20.1427 7.859C19.8977 7.42 19.6697 7.332 19.3757 7.332C19.0827 7.332 18.8737 7.502 18.8737 7.764C18.8737 8.065 19.0187 8.197 19.6497 8.471L20.0127 8.628L20.0137 8.627ZM30.6747 8.883L31.7387 5.907H33.5637L30.8597 13.453H30.4547L28.8147 9.919C28.7329 9.7398 28.6585 9.55731 28.5917 9.372C28.5217 9.557 28.4417 9.759 28.3657 9.92L26.6617 13.455H26.2597L23.5107 5.908H25.4607L26.5347 8.885C26.6027 9.075 26.6747 9.307 26.7347 9.521C26.8077 9.3 26.8957 9.06 26.9877 8.867L28.4007 5.845H28.7907L30.2247 8.867C30.3224 9.0796 30.4069 9.29802 30.4777 9.521C30.5387 9.307 30.6097 9.074 30.6777 8.885L30.6737 8.883H30.6747ZM35.6907 13.236V5.753H37.5337V13.238H35.6907V13.236ZM43.5717 10.722V9.05H46.9927V12.404L46.9217 12.463C46.5317 12.785 45.4917 13.331 44.0887 13.331C41.7177 13.331 40.0637 11.755 40.0637 9.496C40.0637 7.236 41.6597 5.67 43.8607 5.67C45.0707 5.67 45.9567 6.012 46.5707 6.717L46.6907 6.854L45.4357 8.101L45.2987 7.96C44.9487 7.597 44.5837 7.371 43.8587 7.371C42.7317 7.371 41.9447 8.243 41.9447 9.493C41.9447 10.743 42.7847 11.636 44.0867 11.636C44.5187 11.636 44.9677 11.561 45.2747 11.441V10.719H43.5717V10.722ZM52.9057 10.722V9.05H56.3267V12.404L56.2557 12.463C55.8657 12.785 54.8257 13.331 53.4227 13.331C51.0517 13.331 49.3957 11.755 49.3957 9.496C49.3957 7.236 50.9937 5.67 53.1937 5.67C54.4037 5.67 55.2917 6.012 55.9057 6.717L56.0257 6.854L54.7707 8.101L54.6337 7.96C54.2837 7.597 53.9197 7.371 53.1947 7.371C52.0687 7.371 51.2817 8.243 51.2817 9.493C51.2817 10.743 52.1227 11.636 53.4237 11.636C53.8547 11.636 54.3037 11.561 54.6117 11.441V10.719H52.9087L52.9057 10.722ZM63.0747 5.752H64.9997L62.3577 10.733V13.238H60.5057V10.84L57.6907 5.753H59.7447L61.0447 8.139C61.1847 8.399 61.3317 8.742 61.4417 9.021C61.5477 8.745 61.6877 8.404 61.8257 8.142L63.0727 5.754L63.0747 5.753V5.752Z" fill="#F47C2A"/>
</svg>
