<svg width="38" height="33" viewBox="0 0 38 33" fill="none" xmlns="http://www.w3.org/2000/svg">
<g clip-path="url(#clip0_10_219)">
<path d="M28.6113 33C28.5932 32.9786 28.5751 32.9581 28.5588 32.9367C28.49 32.8448 28.4937 32.7824 28.576 32.703C28.6574 32.6254 28.7569 32.571 28.8565 32.5219C29.3441 32.2776 29.7477 31.9279 30.1159 31.5355C30.6796 30.9344 31.0143 30.2155 31.2016 29.4235C31.3364 28.8482 31.3998 28.2641 31.4359 27.6754C31.482 26.8048 31.5019 25.933 31.4957 25.0613C31.4975 22.1225 31.4966 19.1837 31.4929 16.2458C31.4929 15.6964 31.4794 15.1461 31.4676 14.5958C31.4641 14.3737 31.4439 14.1522 31.407 13.9331C31.3419 13.5639 31.131 13.3284 30.7664 13.2187C30.4823 13.1331 30.1928 13.1242 29.9024 13.1064C29.8345 13.1028 29.7676 13.1046 29.7006 13.1019C29.6671 13.1019 29.6328 13.101 29.5993 13.0956C29.4789 13.0769 29.4192 13.0234 29.4165 12.9351C29.4138 12.8459 29.4681 12.7879 29.5902 12.7683C29.6735 12.7541 29.7576 12.7442 29.8418 12.7451C30.5095 12.7567 31.1754 12.7665 31.8431 12.7853C32.4656 12.8031 33.0871 12.8058 33.7096 12.7835C34.2706 12.7639 34.8315 12.7558 35.3907 12.7442C35.4748 12.7434 35.5589 12.7532 35.6413 12.7674C35.7643 12.7879 35.8168 12.8432 35.815 12.9342C35.8123 13.0225 35.7544 13.0769 35.6322 13.0939C35.5608 13.1028 35.4875 13.101 35.4151 13.1037C35.1898 13.1144 34.9681 13.1394 34.7492 13.1911C34.6132 13.2181 34.4878 13.2824 34.3872 13.3766C34.2867 13.4708 34.2152 13.5911 34.181 13.7235C34.1345 13.8835 34.1057 14.048 34.095 14.2141C34.0625 14.619 34.0589 15.0239 34.0579 15.4297C34.0534 18.0073 34.0308 20.5849 34.0688 23.1615C34.0824 24.0722 34.1285 24.9828 34.0923 25.8934C34.0579 26.7443 33.9448 27.5835 33.6761 28.3978C33.3776 29.3102 32.8501 30.0808 32.1778 30.7587C31.3507 31.591 30.3786 32.2701 29.3079 32.7636L28.8139 32.9982H28.6122V33H28.6113Z" fill="#937142"/>
<path d="M38 8.29995C36.8745 7.69079 35.7489 7.08074 34.6225 6.47514C34.532 6.42609 34.4958 6.37347 34.4958 6.27001C34.5031 5.91504 34.5022 5.56006 34.4958 5.2042C34.4958 5.11412 34.5257 5.06774 34.6053 5.02404C35.7182 4.42468 36.8274 3.82177 37.9385 3.21885C37.9566 3.20904 37.9765 3.19655 38 3.20012V8.29995ZM34.9301 5.36028L34.941 5.39417H36.9387C37.0518 5.39417 37.0536 5.3906 37.0536 5.26752C37.0554 4.9509 37.0536 4.63428 37.0536 4.31855C37.0536 4.29358 37.0627 4.26325 37.0192 4.22936L34.9292 5.36206V5.36028H34.9301ZM34.9238 6.12731L37.0545 7.27874V6.24058C37.0545 6.09966 37.0527 6.09787 36.9061 6.09787H35.0269C34.9971 6.09787 34.9618 6.0845 34.9247 6.12641L34.9238 6.12731Z" fill="#947143"/>
<path d="M14.7449 27.6932C14.0573 27.7209 13.3172 27.7414 12.5771 27.7441C12.4767 27.7441 12.3753 27.7369 12.2749 27.7352C12.2298 27.7332 12.186 27.7194 12.1482 27.695C12.1185 27.6782 12.0949 27.6526 12.0806 27.622C12.0664 27.5913 12.0622 27.5569 12.0686 27.5238C12.0777 27.4578 12.1166 27.4096 12.1862 27.3989C12.2586 27.3891 12.331 27.3811 12.4034 27.3784C12.6612 27.3686 12.9182 27.3606 13.1724 27.3053C13.5267 27.2302 13.8453 27.0402 14.0772 26.7657C14.2762 26.5365 14.4264 26.2769 14.554 26.0031C14.9105 25.2316 15.2253 24.4414 15.5547 23.6574C17.0457 20.1193 18.5349 16.5803 20.0242 13.0412C20.1083 12.8406 20.1916 12.6399 20.3056 12.4553C20.5028 12.136 20.7353 12.1342 20.9353 12.449C21.0755 12.672 21.1759 12.9128 21.2773 13.1536C22.22 15.3851 23.161 17.6175 24.1019 19.8499C24.8366 21.5909 25.5677 23.3328 26.3277 25.0631C26.5195 25.5019 26.7303 25.9309 26.9972 26.3304C27.1483 26.5588 27.3175 26.7719 27.5247 26.9548C27.7708 27.1724 28.0603 27.291 28.386 27.3347C28.5977 27.3624 28.8094 27.3722 29.0229 27.3793C29.0953 27.3811 29.1677 27.3882 29.2401 27.3989C29.3089 27.4096 29.3487 27.4524 29.3541 27.5229C29.3595 27.5898 29.336 27.6424 29.2718 27.6709C29.173 27.711 29.0673 27.7316 28.9605 27.7316C28.3941 27.753 27.8278 27.745 27.2614 27.7405C26.2571 27.7316 25.2528 27.7423 24.2503 27.6986C24.1381 27.6943 24.0264 27.6806 23.9165 27.6576C23.8568 27.6451 23.7989 27.6183 23.7943 27.5416C23.7907 27.4614 23.8359 27.4177 23.9083 27.3971C23.9509 27.3847 23.9943 27.3757 24.0386 27.3686C24.2359 27.3329 24.3444 27.1688 24.2956 26.9753C24.2802 26.9164 24.2549 26.8593 24.2322 26.8031L22.6254 22.7602C22.543 22.5533 22.5168 22.5345 22.2906 22.5345H17.7985C17.5831 22.5345 17.5741 22.5417 17.4927 22.7441L16.33 25.6713C16.2089 25.9702 16.1238 26.2822 16.0767 26.6007C16.0749 26.6123 16.0713 26.6221 16.0704 26.6337C16.0161 27.0573 16.2215 27.3204 16.6521 27.3632C16.8186 27.3793 16.9887 27.3739 17.157 27.3793C17.2348 27.3829 17.3126 27.3882 17.3922 27.3954C17.4737 27.4034 17.527 27.4462 17.5352 27.5309C17.5424 27.6121 17.499 27.6825 17.4176 27.7146C17.3426 27.7387 17.2636 27.7477 17.185 27.7414C16.7933 27.7352 16.3997 27.7325 16.0089 27.7146C15.6044 27.6968 15.2009 27.6932 14.7449 27.6915V27.6932ZM20.0622 21.5356H21.8609C22.1169 21.5356 22.1287 21.5178 22.0382 21.2832L20.4521 17.1475L20.1834 16.4304C20.1653 16.3858 20.1599 16.3225 20.0975 16.3198C20.0296 16.3181 20.0106 16.3787 19.9907 16.4304C19.9636 16.4973 19.94 16.5651 19.9129 16.6329L18.0943 21.2502C18.0705 21.3062 18.0518 21.3641 18.0382 21.4232C18.0265 21.4884 18.0545 21.5321 18.1287 21.5329L18.2463 21.5338H20.0613L20.0622 21.5356Z" fill="#937142"/>
<path d="M8.78434 20.0346C8.78795 21.3929 8.77076 23.0429 8.79972 24.692C8.80967 25.2807 8.82686 25.8693 8.92457 26.4526C8.93634 26.524 8.95081 26.5944 8.97072 26.6631C9.08381 27.0538 9.33172 27.2553 9.73976 27.2999C10.1017 27.3409 10.4645 27.3739 10.8291 27.3748C10.9141 27.3748 10.9983 27.3838 11.0761 27.4194C11.1883 27.4712 11.201 27.5818 11.1041 27.6585C11.0416 27.7066 10.9645 27.7326 10.8852 27.7325C10.7676 27.7361 10.65 27.7369 10.5323 27.7369C9.61219 27.7423 8.69295 27.7039 7.77281 27.6888C7.19557 27.6799 6.61924 27.6986 6.0411 27.7147C5.57062 27.7271 5.10014 27.7298 4.62786 27.7361C4.53804 27.7418 4.44799 27.7287 4.36367 27.6977C4.29129 27.6665 4.23972 27.6219 4.24153 27.5372C4.24514 27.4462 4.30848 27.415 4.38357 27.398C4.46591 27.3802 4.55005 27.3731 4.63419 27.3731C4.86943 27.3739 5.10376 27.3463 5.33538 27.3017C5.43517 27.2843 5.52917 27.2432 5.60925 27.182C5.68932 27.1208 5.75308 27.0412 5.795 26.9503C5.89 26.7639 5.93072 26.5623 5.95876 26.3599C6.02753 25.8693 6.05195 25.3752 6.06191 24.8811C6.10262 22.993 6.08724 21.1039 6.08905 19.2158C6.09086 17.4659 6.08905 15.7151 6.08905 13.9661C6.08905 13.7485 6.10895 13.7664 5.89091 13.7726C4.74729 13.8029 3.60457 13.8324 2.46095 13.868C2.12619 13.8787 1.78962 13.9108 1.463 13.9974C1.1595 14.0698 0.896983 14.2569 0.731954 14.5182C0.605288 14.7153 0.487669 14.916 0.420716 15.1425C0.413298 15.1696 0.403925 15.1962 0.392669 15.2219C0.341097 15.3307 0.255145 15.3798 0.152907 15.3628C0.0579067 15.3477 0.0135734 15.287 0.00181146 15.1524C-0.0180933 14.9115 0.0380019 14.677 0.08324 14.4433C0.190002 13.8814 0.307621 13.3222 0.44424 12.7665C0.462133 12.6856 0.486642 12.6063 0.517526 12.5293C0.583573 12.3768 0.666811 12.3402 0.825145 12.3982C1.04681 12.4776 1.26305 12.5739 1.5001 12.5971C1.74438 12.6221 1.99048 12.6452 2.23657 12.6595C2.72876 12.6898 3.22276 12.7086 3.71586 12.7086C6.5921 12.7086 9.46924 12.7068 12.3455 12.7086C12.9924 12.7086 13.632 12.6551 14.2672 12.5266C14.468 12.4865 14.5341 12.5391 14.5422 12.746C14.5549 13.0734 14.5413 13.4016 14.5296 13.7289C14.5133 14.2061 14.497 14.6832 14.4825 15.1604C14.4798 15.2558 14.4789 15.3495 14.4436 15.4395C14.4165 15.5127 14.3694 15.5626 14.2844 15.5626C14.1966 15.5635 14.1324 15.5278 14.0998 15.4449C14.0615 15.3403 14.0431 15.2296 14.0455 15.1185C14.0464 14.6618 13.8003 14.3737 13.4086 14.182C13.0883 14.025 12.7445 13.9492 12.3943 13.8984C12.0331 13.8521 11.6693 13.828 11.305 13.8261C10.5649 13.8127 9.82481 13.7922 9.08472 13.7735C9.02862 13.7717 8.97253 13.7699 8.91734 13.7699C8.78434 13.7699 8.78434 13.7699 8.78162 13.9091V20.0328L8.78434 20.0346Z" fill="#947143"/>
<path d="M32.9261 11.4787C32.8872 11.4118 32.899 11.3618 32.899 11.3137C32.899 10.1542 32.9008 8.99384 32.8962 7.83349C32.8962 7.71933 32.9306 7.65511 33.0338 7.6016C33.3667 7.42947 33.6942 7.2493 34.0218 7.06825C34.0923 7.0299 34.1502 7.02544 34.2235 7.06647L37.5829 8.88503C37.5974 8.89306 37.61 8.90466 37.6381 8.92606L32.927 11.4778L32.9261 11.4787ZM34.4588 9.59944C34.076 8.92338 33.4744 7.97263 33.3776 7.88968V10.1863L34.4597 9.60033L34.4588 9.59944ZM35.1165 9.24179C35.482 9.04558 35.8331 8.85471 36.204 8.65314L34.0842 7.5026L34.0607 7.52668L35.1165 9.24179ZM32.9107 6.88212e-06C34.4904 0.856223 36.0548 1.70174 37.62 2.55082C37.5992 2.61057 37.5512 2.61771 37.5141 2.63733C36.4239 3.22866 35.3337 3.8173 34.2425 4.41041C34.1629 4.45411 34.1014 4.46749 34.0127 4.41666C33.6825 4.22936 33.3477 4.05098 33.012 3.8726C32.9342 3.83247 32.8944 3.78876 32.8962 3.69511C32.8999 2.48482 32.898 1.27452 32.899 0.0633312C32.899 0.0526285 32.9026 0.0419258 32.9107 -0.00088501V6.88212e-06ZM33.3776 1.32893V3.61752C33.402 3.59701 33.4174 3.58987 33.4246 3.57649C33.7549 3.04136 34.0815 2.50622 34.4144 1.97287C34.4669 1.88993 34.4208 1.86852 34.3638 1.8373L33.4798 1.35925C33.4527 1.34409 33.4264 1.31733 33.3776 1.32803V1.32893ZM36.1778 2.85406C36.157 2.7943 36.1145 2.78717 36.0819 2.76933L35.2423 2.31268C35.1165 2.24401 35.1156 2.2449 35.0396 2.36887C34.7266 2.87547 34.4144 3.38295 34.1032 3.89133C34.0887 3.91541 34.0516 3.9386 34.0824 3.98766L36.1778 2.85406V2.85317V2.85406Z" fill="#957244"/>
<path d="M27.0388 8.29996V3.21172C27.0967 3.18942 27.1311 3.22777 27.1673 3.24739C28.2584 3.83782 29.3478 4.42915 30.4398 5.01691C30.5312 5.06685 30.5629 5.12215 30.5601 5.22382C30.5547 5.57791 30.5556 5.93377 30.5601 6.28963C30.5601 6.36991 30.5393 6.42074 30.4624 6.46088C29.3459 7.06201 28.2322 7.66493 27.1166 8.26874C27.0976 8.27855 27.0768 8.28569 27.0379 8.30174L27.0388 8.29996ZM28.0033 4.21064V5.23988C28.0033 5.39239 28.0051 5.39418 28.1589 5.39418C28.7868 5.39418 29.4138 5.39418 30.0408 5.39239C30.0661 5.39239 30.1087 5.41915 30.1231 5.35939L28.0024 4.21064H28.0033ZM28.0033 7.27874L30.1277 6.1282L30.1222 6.09877H29.1559C28.8085 6.09877 28.4611 6.10055 28.1137 6.09877C28.0413 6.09877 28.0006 6.10858 28.0015 6.19688C28.006 6.5465 28.0033 6.89612 28.0033 7.27874Z" fill="#947244"/>
<path d="M27.408 8.9216L28.7651 8.18846C29.4373 7.82457 30.1114 7.46246 30.7818 7.09411C30.8859 7.03703 30.9646 7.02722 31.0722 7.08876C31.3871 7.26892 31.7083 7.43838 32.0295 7.60695C32.1109 7.64976 32.1525 7.69614 32.1525 7.79781C32.148 8.98581 32.1489 10.1729 32.1489 11.3609C32.1489 11.393 32.1571 11.4269 32.1218 11.4751L27.408 8.9216ZM28.8483 8.65403L29.9368 9.24179L30.9971 7.52489L30.9763 7.5026L28.8483 8.65314V8.65403ZM31.6685 7.8986L31.6431 7.88611L30.5909 9.59676L31.6685 10.1809V7.8986ZM32.1272 0.0107033C32.1652 0.0767033 32.1489 0.132892 32.1489 0.185514C32.1498 1.34051 32.148 2.49551 32.1534 3.65051C32.1534 3.7727 32.1172 3.83781 32.0078 3.894C31.6793 4.06168 31.3563 4.24005 31.0333 4.41843C30.9637 4.45678 30.9085 4.46303 30.8343 4.42289C29.7251 3.81908 28.6149 3.21884 27.5048 2.6186C27.4812 2.60611 27.4604 2.58916 27.417 2.56062L32.1263 0.0098114L32.1272 0.0107033ZM30.9872 3.99478C30.9872 3.96535 30.9899 3.95911 30.9872 3.95465C30.6551 3.4106 30.3195 2.86654 29.9892 2.32249C29.944 2.24757 29.9006 2.26184 29.8391 2.29573C29.536 2.46341 29.232 2.62751 28.9289 2.79341C28.9099 2.80322 28.8854 2.81035 28.8854 2.85584L30.9881 3.99478H30.9872ZM31.6703 3.60324V1.33516C31.6251 1.32 31.5997 1.34765 31.5708 1.36192C31.2812 1.51889 30.9917 1.67587 30.7022 1.83462C30.5936 1.8926 30.5936 1.89438 30.6606 2.00408C30.9754 2.51692 31.2903 3.02887 31.6061 3.53992C31.6196 3.56222 31.6278 3.58987 31.6703 3.60324Z" fill="#947243"/>
</g>
<defs>
<clipPath id="clip0_10_219">
<rect width="38" height="33" fill="white"/>
</clipPath>
</defs>
</svg>
