<svg width="90" height="43" viewBox="0 0 90 43" fill="none" xmlns="http://www.w3.org/2000/svg">
<rect x="0.5" y="0.5" width="89" height="41.3529" rx="7.5" fill="white" stroke="#DFE2F6"/>
<mask id="mask0_6119_2290" style="mask-type:alpha" maskUnits="userSpaceOnUse" x="8" y="5" width="74" height="32">
<rect x="8" y="5" width="74" height="32" fill="#C4C4C4"/>
</mask>
<g mask="url(#mask0_6119_2290)">
</g>
<g clip-path="url(#clip0_6119_2290)">
<path d="M62.5037 24.0951C62.5037 23.4689 62.9211 22.9648 63.463 22.9648C64.147 22.9648 64.5075 23.6391 64.5075 24.5704C64.5075 25.5113 64.1374 26.2049 63.4341 26.2049C62.9685 26.2049 62.5029 25.834 62.5029 25.0834V24.0959L62.5037 24.0951ZM62.2845 21.958H61.0779C61.0971 22.4325 61.1156 22.9937 61.1156 23.668V29.2741H62.5029V26.6706H62.5221C62.7501 27.0222 63.1869 27.2783 63.7577 27.2783C64.8214 27.2783 65.9044 26.4329 65.9044 24.5134C65.9044 22.9078 65.059 21.8432 63.919 21.8432C63.2447 21.8432 62.7124 22.1379 62.3696 22.6701H62.3511L62.2845 21.958ZM58.4743 27.1739H59.8616V21.9476H58.4743V27.1739ZM59.909 20.5226C59.909 20.0955 59.6047 19.7816 59.1583 19.7816C59.0602 19.7786 58.9625 19.7957 58.8712 19.8319C58.78 19.868 58.6971 19.9225 58.6277 19.9919C58.5583 20.0614 58.5038 20.1442 58.4676 20.2355C58.4314 20.3268 58.4143 20.4245 58.4173 20.5226C58.4173 20.9409 58.7216 21.2636 59.1583 21.2636C59.5959 21.2732 59.909 20.9786 59.909 20.5226ZM56.0611 22.8604L56.0041 21.9484H54.8159C54.8352 22.414 54.8544 22.9359 54.8544 23.5821V27.1739H56.2417V24.4757C56.2417 23.5821 56.717 23.1647 57.344 23.1647C57.4861 23.1647 57.6009 23.1735 57.7052 23.1928V21.8729C57.6019 21.8521 57.4967 21.8424 57.3913 21.844C56.9064 21.844 56.3364 22.1957 56.0988 22.8708H56.0611V22.8612V22.8604ZM49.1729 19.9622V21.1592H50.9495V27.1739H52.3368V21.1592H54.1223V19.963H49.1721L49.1729 19.9622ZM46.9106 24.6844C46.8328 25.0097 46.76 25.3363 46.6922 25.6638H46.6641C46.5872 25.336 46.5048 25.0094 46.4168 24.6844L45.6469 21.9572H44.1272L45.8854 26.7557C45.9231 26.86 45.9415 26.9363 45.9415 26.9933C45.9415 27.0977 45.7047 27.6299 45.2479 27.9623C45.0015 28.1333 44.7446 28.2858 44.5174 28.3428L44.8682 29.5117C45.1813 29.4539 45.7136 29.2645 46.2169 28.7796C46.8062 28.1903 47.2525 27.2687 47.833 25.5779L49.0107 21.9484H47.5665L46.9114 24.6844H46.9106ZM41.4193 19.9622L40.602 22.6701C40.3638 23.5115 40.1547 24.3609 39.975 25.2167H39.9461C39.773 24.3618 39.5736 23.5126 39.348 22.6701L38.5693 19.9622H36.8488L36.3639 27.1739H37.6284L37.7705 24.3994C37.8186 23.5067 37.8652 22.4421 37.8845 21.5301H37.9126C38.0836 22.4132 38.3124 23.3927 38.5404 24.2003L39.3384 27.0696H40.3933L41.2764 24.1521C41.5236 23.3445 41.7797 22.3859 41.9893 21.5301H42.0174C42.0086 22.2615 42.0559 23.4208 42.0936 24.3713L42.2269 27.1739H43.5476L43.1381 19.9622H41.4193ZM32.3635 24.0197C32.402 23.5059 32.687 22.813 33.3526 22.813C34.0366 22.813 34.2549 23.4778 34.2453 24.0197H32.3643H32.3635ZM35.4808 24.979C35.5092 24.7969 35.5219 24.6126 35.5186 24.4283C35.5186 22.7368 34.6917 21.8432 33.428 21.8432C31.8987 21.8432 31.034 23.1358 31.034 24.637C31.034 26.2619 31.9557 27.2783 33.5709 27.2783C34.2172 27.2783 34.8249 27.1643 35.2625 26.9748L35.0618 26.0147C34.7013 26.1383 34.3023 26.233 33.7893 26.233C33.0387 26.233 32.402 25.8718 32.3643 24.9887H35.4808V24.979ZM26.8425 26.9267C27.1942 27.1354 27.7457 27.2783 28.3157 27.2783C29.6171 27.2783 30.3677 26.6232 30.3677 25.6245C30.3677 24.9028 29.9591 24.3994 29.0752 24.0293C28.4771 23.7724 28.278 23.6303 28.278 23.3357C28.278 23.0507 28.506 22.8411 28.9234 22.8411C29.3136 22.8411 29.6837 22.9937 29.9117 23.1165L30.1782 22.1379C29.8732 21.9773 29.418 21.8432 28.8857 21.8432C27.7264 21.8432 26.9758 22.5561 26.9758 23.497C26.9758 24.067 27.3371 24.6178 28.3061 25.0168C28.8761 25.264 29.0567 25.4262 29.0567 25.7489C29.0567 26.0717 28.8191 26.2708 28.3342 26.2708C27.9071 26.2708 27.3844 26.0813 27.1187 25.9199L26.8425 26.9267ZM24.5722 25.3877C24.5722 26.0532 24.0303 26.29 23.6971 26.29C23.3463 26.29 23.042 26.0717 23.042 25.5779C23.042 24.8177 23.8207 24.637 24.5722 24.637V25.3877ZM22.3106 23.1928C22.6984 22.9601 23.1413 22.8353 23.5935 22.8315C24.3538 22.8315 24.5336 23.2217 24.5336 23.7435C22.8718 23.7435 21.6836 24.3713 21.6836 25.7104C21.6836 26.5566 22.2817 27.2783 23.2515 27.2783C23.8312 27.2783 24.3434 27.0407 24.6388 26.632H24.6669L24.7528 27.1739H25.9972C25.9402 26.8512 25.9209 26.3952 25.9209 25.9392V24.0285C25.9209 22.8885 25.4842 21.8529 23.8593 21.8529C23.042 21.8529 22.3957 22.0905 22.0449 22.2904L22.3098 23.1928H22.3106ZM18.3865 24.01H20.7427V22.8789H18.3873V21.1311H20.8856V19.9719H17V27.1836H21.0285V26.0235H18.3873V24.0084L18.3865 24.01Z" fill="#005999"/>
<path fill-rule="evenodd" clip-rule="evenodd" d="M25.9697 22.6285C29.7887 14.9134 40.2221 20.8141 46.008 15.6641C40.2406 21.6876 28.8294 16.6042 25.9697 22.6285Z" fill="#00699E"/>
<path fill-rule="evenodd" clip-rule="evenodd" d="M39.4621 11.0181L53.0016 12.1397C53.6575 12.1774 53.5524 12.3107 53.2296 12.6141L46.6265 19.0848C46.2556 19.4943 46.1697 19.3795 45.7329 18.8954L43.1479 15.9683C42.8067 15.607 42.7497 15.5316 43.3381 15.322L49.7615 13.2508L42.5313 14.5433C41.9894 14.6573 42.056 14.7336 41.6755 14.1917L39.2719 11.4364C38.9676 11.104 38.9965 10.9418 39.4621 11.0189V11.0181Z" fill="#00A3D6"/>
<path fill-rule="evenodd" clip-rule="evenodd" d="M43.3574 15.8099L44.0607 16.5605C44.4027 16.9314 44.3079 16.9402 43.9178 17.1787L41.6859 18.2231C41.4194 18.3845 41.2484 18.252 41.4387 17.9478L42.854 15.6766C42.9873 15.3916 43.139 15.5441 43.3574 15.8099Z" fill="#00699E"/>
<path d="M71.0835 29.5388C71.1142 29.5396 71.1443 29.5296 71.1686 29.5107C71.1978 29.4923 71.2209 29.4658 71.2352 29.4344C71.2633 29.3862 71.3018 29.3204 71.3492 29.216C71.4062 29.1205 71.4632 29.0073 71.5395 28.8829L71.7675 28.5128C71.8429 28.3891 71.928 28.2655 72.0051 28.1611C72.0681 28.0703 72.1378 27.9845 72.2138 27.9042C72.2805 27.8384 72.3278 27.7999 72.3752 27.7999C72.4041 27.7999 72.4234 27.8095 72.4322 27.8288C72.4418 27.8472 72.4515 27.8761 72.4611 27.9042C72.4687 27.9322 72.4717 27.9612 72.4699 27.9901V28.0568C72.4699 28.2181 72.4611 28.3795 72.4418 28.5409C72.423 28.7018 72.4136 28.8637 72.4137 29.0258C72.4137 29.0924 72.4137 29.1679 72.4226 29.2538C72.4322 29.3397 72.4418 29.4151 72.4707 29.4914C72.495 29.5621 72.5338 29.6269 72.5847 29.6817C72.6321 29.729 72.7076 29.7571 72.7935 29.7571C72.9044 29.754 73.0125 29.7213 73.1066 29.6624C73.2206 29.5958 73.3257 29.5195 73.4301 29.4344C73.5345 29.3485 73.6388 29.2538 73.7247 29.1494C73.8195 29.0539 73.8861 28.9591 73.9431 28.8925C73.9527 28.874 73.9624 28.8644 73.9808 28.8363C73.9916 28.8187 73.9982 28.799 74.0001 28.7785C73.9993 28.7522 73.9927 28.7265 73.9808 28.703C73.972 28.6741 73.9527 28.6645 73.915 28.6645C73.8765 28.6645 73.8484 28.6838 73.8195 28.7127C73.7914 28.7504 73.7633 28.7785 73.7432 28.8074C73.7055 28.8548 73.6581 28.9118 73.5915 28.988C73.5248 29.0635 73.4494 29.1301 73.3731 29.2064C73.2986 29.2726 73.2191 29.3329 73.1355 29.387C73.0736 29.4299 73.0017 29.4559 72.9267 29.4625C72.909 29.4635 72.8913 29.4607 72.8748 29.4542C72.8583 29.4476 72.8434 29.4376 72.8312 29.4248C72.8118 29.3985 72.7959 29.3699 72.7838 29.3397C72.7742 29.3011 72.7742 29.273 72.7742 29.2353V29.1398C72.7742 28.931 72.7838 28.7223 72.8127 28.5216C72.8408 28.3225 72.8505 28.1138 72.8505 27.9042C72.8505 27.8569 72.8408 27.7999 72.8312 27.7525C72.8241 27.7013 72.8048 27.6526 72.775 27.6104C72.7478 27.5661 72.7124 27.5274 72.6706 27.4964C72.6254 27.4662 72.5725 27.4495 72.5181 27.4482C72.4288 27.4506 72.3424 27.4806 72.2708 27.5341C72.1983 27.5839 72.1313 27.6412 72.0709 27.7051C72.0051 27.7814 71.9385 27.8577 71.8815 27.9428C71.8245 28.0279 71.7675 28.1138 71.7105 28.19L71.4825 28.5031C71.4062 28.6075 71.3396 28.7119 71.2737 28.8259C71.2633 28.8355 71.2545 28.8548 71.2352 28.8829C71.2159 28.9118 71.2063 28.931 71.1975 28.931C71.1878 28.931 71.1782 28.9118 71.1686 28.8829C71.1589 28.8548 71.1589 28.817 71.1589 28.7689C71.1589 28.7311 71.1493 28.6838 71.1493 28.646V28.5505C71.1493 28.4461 71.1493 28.3418 71.1589 28.2278C71.1589 28.1234 71.1686 28.019 71.1686 27.9147C71.1686 27.8761 71.1686 27.8288 71.1589 27.7814L71.1308 27.6289C71.1144 27.5848 71.092 27.5432 71.0642 27.5052C71.048 27.4892 71.0286 27.4767 71.0073 27.4686C70.9861 27.4604 70.9633 27.4568 70.9406 27.4579C70.8643 27.4579 70.788 27.4956 70.7029 27.5719C70.6126 27.656 70.5268 27.745 70.446 27.8384C70.3609 27.9428 70.2855 28.0471 70.2188 28.1515C70.1522 28.2559 70.0952 28.3418 70.0567 28.3988C70.0759 28.2944 70.0952 28.19 70.1233 28.0857C70.1522 27.9813 70.1803 27.8761 70.2188 27.7806C70.2373 27.7429 70.2469 27.7051 70.275 27.6481C70.2943 27.6 70.3232 27.5438 70.3417 27.4956C70.3609 27.4394 70.3802 27.3912 70.3987 27.3439C70.4179 27.2965 70.4179 27.2491 70.4179 27.2106C70.4179 27.1729 70.4083 27.1351 70.3898 27.1159C70.3706 27.0878 70.3417 27.0781 70.3039 27.0781C70.2216 27.0797 70.1406 27.0988 70.0663 27.1343C69.9876 27.167 69.9212 27.2238 69.8768 27.2965C69.8576 27.3447 69.8287 27.4201 69.8006 27.5245C69.7717 27.6385 69.7339 27.7621 69.705 27.9042C69.6769 28.0471 69.6392 28.1989 69.6103 28.361C69.5744 28.5115 69.546 28.6637 69.5252 28.817C69.4963 28.9591 69.477 29.0924 69.4586 29.216C69.4393 29.3397 69.4297 29.4248 69.4297 29.4818C69.4304 29.5127 69.4404 29.5426 69.4586 29.5677C69.477 29.5958 69.5059 29.6054 69.5437 29.6054C69.5673 29.6061 69.5907 29.6013 69.6122 29.5915C69.6336 29.5816 69.6525 29.5668 69.6673 29.5484C69.696 29.5127 69.7215 29.4745 69.7436 29.4344C69.7628 29.3862 69.7998 29.3204 69.8479 29.2257C69.8961 29.1301 69.9619 29.0169 70.0286 28.9021C70.0952 28.7785 70.1707 28.6549 70.2566 28.532C70.3417 28.4084 70.4179 28.2848 70.4942 28.1804C70.5697 28.076 70.6363 27.9901 70.7029 27.9235C70.7696 27.8569 70.8169 27.8191 70.8555 27.8191C70.8836 27.8191 70.9028 27.8384 70.9028 27.8673C70.9028 27.8954 70.9117 27.9235 70.9117 27.9331V28.3418C70.9117 28.4365 70.9117 28.532 70.9213 28.6364C70.9213 28.7408 70.9309 28.8451 70.9406 28.9495C70.9502 29.0539 70.9598 29.1494 70.9695 29.2345C70.9756 29.3102 70.9946 29.3843 71.0257 29.4537C71.0168 29.5099 71.0449 29.5388 71.0835 29.5388ZM68.5554 27.8472C68.6509 27.8472 68.7264 27.8954 68.7641 27.9805C68.8123 28.0752 68.8316 28.1804 68.8404 28.3129C68.8404 28.4839 68.8219 28.6364 68.7842 28.7689C68.7487 28.8894 68.6974 29.0046 68.6317 29.1117C68.5746 29.1954 68.504 29.2692 68.4229 29.33C68.359 29.3758 68.2831 29.402 68.2046 29.4055C68.1283 29.4055 68.0617 29.3678 68.0039 29.2915C67.9477 29.216 67.9284 29.102 67.9284 28.9399C67.9284 28.8259 67.9477 28.703 67.9766 28.5786C68.0134 28.459 68.0577 28.3419 68.109 28.2278C68.166 28.1234 68.2327 28.0279 68.3089 27.9612C68.3404 27.9268 68.3784 27.899 68.4207 27.8794C68.463 27.8598 68.5088 27.8489 68.5554 27.8472ZM67.5294 28.9399C67.5294 29.1871 67.5864 29.3774 67.6819 29.4914C67.7863 29.6054 67.9099 29.672 68.052 29.672C68.1755 29.6706 68.2965 29.6377 68.4037 29.5765C68.5273 29.5107 68.6317 29.4159 68.736 29.2915C68.8316 29.1679 68.9167 29.0161 68.9833 28.8355C69.0513 28.6339 69.0834 28.422 69.078 28.2093C69.078 28.113 69.0692 28.0182 69.0403 27.9235C69.0204 27.8432 68.9884 27.7663 68.9456 27.6955C68.9041 27.6302 68.8464 27.5767 68.7782 27.5401C68.71 27.5035 68.6336 27.4852 68.5562 27.4868C68.4037 27.4868 68.2704 27.5341 68.1379 27.6192C68.0143 27.7148 67.9003 27.828 67.8144 27.9709C67.7257 28.1168 67.6556 28.2732 67.6057 28.4365C67.5585 28.6005 67.5328 28.77 67.5294 28.9407V28.9399ZM66.1895 29.6905C66.3517 29.6905 66.5026 29.6624 66.6551 29.6054C66.8046 29.5538 66.9456 29.4802 67.0734 29.387C67.2038 29.2945 67.3219 29.1857 67.425 29.0635C67.5294 28.9399 67.6241 28.817 67.6908 28.6838C67.7021 28.6623 67.7118 28.6401 67.7197 28.6171C67.7293 28.589 67.7381 28.569 67.7381 28.5505C67.7381 28.4943 67.71 28.4654 67.653 28.4654C67.6153 28.4654 67.5864 28.4839 67.5583 28.5128C67.5294 28.5505 67.5101 28.5794 67.4917 28.6075C67.4315 28.7069 67.3647 28.8021 67.2918 28.8925C67.2163 28.988 67.1208 29.0635 67.0349 29.1398C66.9416 29.2123 66.8396 29.273 66.7314 29.3204C66.627 29.3686 66.5034 29.387 66.3894 29.387C66.3366 29.3885 66.2841 29.3792 66.2351 29.3596C66.1861 29.34 66.1416 29.3105 66.1044 29.273C66.0486 29.2182 66.0091 29.149 65.9904 29.0731C65.9622 28.9905 65.9492 28.9035 65.9519 28.8162C65.9529 28.6084 65.9915 28.4025 66.0659 28.2085C66.1044 28.1138 66.1421 28.019 66.1895 27.9428C66.2377 27.8665 66.285 27.7999 66.3228 27.7525C66.3592 27.7151 66.4008 27.6832 66.4464 27.6578C66.4895 27.6318 66.539 27.6184 66.5893 27.6192C66.6551 27.6192 66.6937 27.6385 66.7033 27.6859C66.7121 27.734 66.7218 27.7814 66.7218 27.8288C66.7228 27.9042 66.7066 27.9789 66.6744 28.0471C66.6436 28.0921 66.6269 28.1452 66.6262 28.1997C66.6262 28.2374 66.6463 28.2559 66.684 28.2559C66.7314 28.2559 66.7788 28.2374 66.8261 28.1997C66.8795 28.1442 66.9157 28.0745 66.9305 27.999C66.9498 27.9139 66.9594 27.8472 66.9594 27.7814C66.9594 27.6289 66.9217 27.5245 66.8358 27.4579C66.7595 27.3912 66.6463 27.3631 66.513 27.3631C66.399 27.3631 66.285 27.3912 66.1895 27.4298C66.0072 27.5205 65.8554 27.6625 65.7528 27.8384C65.6958 27.9235 65.658 28.0182 65.6195 28.1138C65.5823 28.2131 65.5506 28.3144 65.5248 28.4172C65.5055 28.5216 65.4959 28.626 65.4959 28.7408C65.4959 28.8829 65.5151 29.0258 65.5625 29.1582C65.6017 29.2884 65.6735 29.4065 65.7712 29.501C65.8194 29.5484 65.886 29.5958 65.9519 29.6247C66.0097 29.672 66.0948 29.6905 66.1895 29.6905ZM64.5558 29.5677C64.6409 29.5677 64.6979 29.5388 64.7268 29.4818C64.7546 29.4192 64.7675 29.3511 64.7645 29.2827C64.765 29.253 64.7583 29.2236 64.745 29.1971C64.7317 29.1705 64.7123 29.1475 64.6882 29.1301C64.6435 29.0908 64.5871 29.0674 64.5277 29.0635C64.4506 29.0635 64.4032 29.0924 64.3751 29.159C64.3491 29.2187 64.3362 29.2834 64.3374 29.3485C64.336 29.3787 64.3411 29.4088 64.3525 29.4368C64.3639 29.4648 64.3812 29.49 64.4032 29.5107C64.4321 29.5484 64.4891 29.5669 64.5558 29.5669V29.5677Z" fill="#383330"/>
</g>
<defs>
<clipPath id="clip0_6119_2290">
<rect width="57" height="19.2676" fill="white" transform="translate(17 11)"/>
</clipPath>
</defs>
</svg>
