<svg width="90" height="43" viewBox="0 0 90 43" fill="none" xmlns="http://www.w3.org/2000/svg">
<rect x="0.5" y="0.5" width="89" height="41.3529" rx="7.5" fill="white" stroke="#DFE2F6"/>
<mask id="mask0_6119_2307" style="mask-type:alpha" maskUnits="userSpaceOnUse" x="8" y="5" width="74" height="32">
<rect x="8" y="5" width="74" height="32" fill="#C4C4C4"/>
</mask>
<g mask="url(#mask0_6119_2307)">
</g>
<g clip-path="url(#clip0_6119_2307)">
<path fill-rule="evenodd" clip-rule="evenodd" d="M36.3182 33.8932V30.012H37.6686V33.8932H36.3182ZM39.7849 31.681H40.387C40.5993 31.681 40.7455 31.6548 40.8256 31.6025C40.9056 31.5501 40.9474 31.4552 40.9474 31.321C40.9474 31.1869 40.9056 31.0887 40.8256 31.0363C40.7455 30.984 40.5889 30.9578 40.3557 30.9578H39.7849V31.6843V31.681ZM38.4761 33.8965V30.0153H40.4531C41.0727 30.0153 41.5147 30.1037 41.7793 30.2771C42.0438 30.4505 42.1761 30.7353 42.1761 31.1345C42.1761 31.3734 42.1204 31.5665 42.0125 31.7235C41.9046 31.8806 41.7375 32.005 41.5113 32.0966C41.741 32.1424 41.908 32.2341 42.0125 32.3682C42.1169 32.5024 42.1726 32.6987 42.1795 32.9605L42.2004 33.5005V33.5136C42.2074 33.6674 42.2457 33.7492 42.3188 33.7558V33.8998H40.9822C40.9578 33.8049 40.9404 33.7263 40.9265 33.6543C40.9126 33.5856 40.9091 33.53 40.9091 33.494V33.1078C40.9091 32.9082 40.8673 32.7675 40.7838 32.6857C40.7003 32.6038 40.5541 32.5646 40.3452 32.5646H39.7814V33.903H38.4727L38.4761 33.8965ZM45.5349 32.3879H46.7914C46.7531 32.8984 46.5616 33.2943 46.2171 33.5791C45.8725 33.8605 45.4026 34.0012 44.8144 34.0012C44.153 34.0012 43.631 33.8179 43.2516 33.4547C42.8722 33.0914 42.6807 32.5908 42.6807 31.9559C42.6807 31.321 42.8687 30.8236 43.2446 30.4604C43.6205 30.0938 44.1322 29.9139 44.7796 29.9139C45.3782 29.9139 45.8481 30.0513 46.1892 30.3229C46.5303 30.5945 46.7252 30.9807 46.7635 31.4847H45.4931C45.4722 31.285 45.4061 31.1378 45.2877 31.0363C45.1694 30.9349 45.0058 30.8858 44.79 30.8858C44.529 30.8858 44.334 30.9741 44.2053 31.1541C44.0765 31.3341 44.0103 31.6025 44.0103 31.9624C44.0103 32.3224 44.08 32.5842 44.2192 32.7642C44.3584 32.9442 44.5603 33.0358 44.8283 33.0358C45.0336 33.0358 45.1972 32.9802 45.3156 32.8689C45.4374 32.7577 45.507 32.6006 45.5279 32.3944L45.5349 32.3879ZM48.2184 33.8932V31.0363H47.028V30.012H50.7071V31.0363H49.5445V33.8932H48.2184ZM53.8362 32.3879H55.0927C55.0544 32.8984 54.8629 33.2943 54.5184 33.5791C54.1738 33.8605 53.7039 34.0012 53.1157 34.0012C52.4544 34.0012 51.9323 33.8179 51.5529 33.4547C51.1735 33.0914 50.982 32.5908 50.982 31.9559C50.982 31.321 51.17 30.8236 51.5459 30.4604C51.9218 30.0938 52.4335 29.9139 53.0809 29.9139C53.6795 29.9139 54.1494 30.0513 54.4905 30.3229C54.8316 30.5945 55.0265 30.9807 55.0648 31.4847H53.7944C53.7735 31.285 53.7074 31.1378 53.589 31.0363C53.4707 30.9349 53.3071 30.8858 53.0913 30.8858C52.8303 30.8858 52.6353 30.9741 52.5066 31.1541C52.3778 31.3341 52.3116 31.6025 52.3116 31.9624C52.3116 32.3224 52.3813 32.5842 52.5205 32.7642C52.6597 32.9442 52.8616 33.0358 53.1296 33.0358C53.335 33.0358 53.4985 32.9802 53.6169 32.8689C53.7387 32.7577 53.8083 32.6006 53.8292 32.3944L53.8362 32.3879ZM55.6983 18.9084C57.108 23.8041 54.7759 25.9247 50.4251 25.1C50.0632 25.977 49.6942 26.8475 49.1095 27.6035C56.0568 29.2463 58.8622 24.4455 55.6983 18.9084ZM41.9881 16.2217H44.9501C45.7611 16.4115 46.2484 16.8108 46.4642 17.2722C46.579 17.5209 46.6208 17.7925 46.593 18.0609C46.5651 18.3325 46.4642 18.6008 46.2971 18.843C45.9421 19.36 45.2877 19.7462 44.3967 19.7626C43.8746 19.6775 43.6136 20.2011 44.0556 20.6003L47.0211 23.1889H41.9881C41.8384 23.1889 41.7131 23.0743 41.7131 22.9303V16.4802C41.7131 16.3395 41.8349 16.2217 41.9881 16.2217ZM46.948 16.2217H49.012C49.1617 16.2217 49.287 16.3363 49.287 16.4802V22.9303C49.287 23.0711 49.1652 23.1889 49.012 23.1889H48.5317L45.514 20.5578C46.2379 20.3287 46.7983 19.8935 47.1603 19.3666C47.4144 18.9968 47.5675 18.5812 47.6128 18.1558C47.658 17.7271 47.5919 17.2918 47.404 16.8893C47.2904 16.6466 47.1364 16.4223 46.948 16.225V16.2217ZM39.7744 11.938C43.5787 8.34481 46.6974 9.1793 48.114 13.1358C49.1025 12.9918 50.091 12.8576 51.076 12.9558C49.1164 6.47949 43.2899 6.59403 39.7744 11.938ZM41.205 28.2874C35.991 26.9882 35.2009 24.0299 38.1385 20.8981C37.512 20.1651 36.8959 19.4288 36.4887 18.5746C31.5044 23.4081 34.5221 28.0976 41.205 28.2874Z" fill="#2E3192"/>
<path d="M55.6983 18.9084C57.108 23.8041 54.7759 25.9247 50.4251 25.1C50.0632 25.977 49.6942 26.8475 49.1095 27.6035C56.0568 29.2463 58.8622 24.4455 55.6983 18.9084ZM41.9881 16.2217H44.9501C45.7611 16.4115 46.2484 16.8108 46.4642 17.2722C46.579 17.5209 46.6208 17.7925 46.593 18.0609C46.5651 18.3325 46.4642 18.6008 46.2971 18.843C45.9421 19.36 45.2877 19.7462 44.3967 19.7626C43.8746 19.6775 43.6136 20.2011 44.0556 20.6003L47.0211 23.1889H41.9881C41.8384 23.1889 41.7131 23.0743 41.7131 22.9303V16.4802C41.7131 16.3395 41.8349 16.2217 41.9881 16.2217V16.2217ZM46.948 16.2217H49.012C49.1617 16.2217 49.287 16.3363 49.287 16.4802V22.9303C49.287 23.0711 49.1652 23.1889 49.012 23.1889H48.5317L45.514 20.5578C46.2379 20.3287 46.7983 19.8935 47.1603 19.3666C47.4144 18.9968 47.5675 18.5812 47.6128 18.1558C47.658 17.7271 47.5919 17.2918 47.404 16.8893C47.2904 16.6466 47.1364 16.4223 46.948 16.225V16.2217ZM39.7744 11.938C43.5787 8.34481 46.6974 9.1793 48.114 13.1358C49.1025 12.9918 50.091 12.8576 51.076 12.9558C49.1164 6.47949 43.2899 6.59403 39.7744 11.938ZM41.205 28.2874C35.991 26.9882 35.2009 24.0299 38.1385 20.8981C37.512 20.1651 36.8959 19.4288 36.4887 18.5746C31.5044 23.4081 34.5221 28.0976 41.205 28.2874Z" stroke="#231F20" stroke-width="0.04" stroke-miterlimit="2.61"/>
<path fill-rule="evenodd" clip-rule="evenodd" d="M35.3297 16.5333C40.8535 13.4538 47.3866 12.3707 53.9058 13.2051C53.9441 19.2691 51.9149 24.5018 47.8252 28.9033C42.3327 26.2722 38.1664 22.2176 35.3297 16.5333ZM36.5096 18.5688C40.6864 15.1523 46.0501 13.2837 51.7165 13.0415C52.7468 18.1793 51.8905 22.9146 49.1443 27.2409C44.0522 25.8075 39.851 22.9735 36.5096 18.5688Z" fill="#D1D3D4"/>
</g>
<defs>
<clipPath id="clip0_6119_2307">
<rect width="23" height="26" fill="white" transform="translate(34 8)"/>
</clipPath>
</defs>
</svg>
