<svg width="90" height="43" viewBox="0 0 90 43" fill="none" xmlns="http://www.w3.org/2000/svg">
<rect x="0.5" y="0.5" width="89" height="41.3529" rx="7.5" fill="white" stroke="#DFE2F6"/>
<mask id="mask0_6119_2306" style="mask-type:alpha" maskUnits="userSpaceOnUse" x="8" y="5" width="74" height="32">
<rect x="8" y="5" width="74" height="32" fill="#C4C4C4"/>
</mask>
<g mask="url(#mask0_6119_2306)">
</g>
<path d="M49.7799 24.621C50.1738 24.5515 50.5615 24.8969 50.6457 25.383C50.73 25.876 50.4843 26.3303 50.0904 26.4006H50.0771C49.6637 26.4779 49.2503 26.5158 48.8307 26.522C47.9579 26.522 47.2543 26.3172 46.7052 25.8953C46.0008 25.3636 45.6327 24.519 45.6327 23.4689V13.7171C45.6327 13.3199 46.0398 13 46.5437 13C47.0476 13 47.4548 13.3199 47.4548 13.7171V23.4697C47.4548 23.9488 47.5772 24.2818 47.8159 24.468C48.0296 24.6342 48.5592 24.839 49.7604 24.628L49.7799 24.6218V24.621ZM31.3688 25.6712C31.0389 25.6712 30.7292 25.1913 30.5678 24.8776C29.8851 23.5593 29.2153 22.2345 28.5585 20.9035C27.5055 18.7715 26.9369 17.7546 26.4587 17.3899C25.9876 17.0251 25.8909 16.5576 26.1171 16.1419C26.232 15.9381 26.4239 15.7878 26.6506 15.7241C26.8773 15.6603 27.1202 15.6883 27.3261 15.8019C27.3323 15.8019 27.3323 15.8089 27.3386 15.8089C28.3526 16.3784 28.883 17.447 30.2004 20.1099C30.7105 21.1399 31.3439 22.4265 32.1769 24.026C32.3836 24.4232 32.5256 25.2238 32.1707 25.4857L31.3696 25.6712H31.3688Z" fill="#EA2330"/>
<path d="M52.6932 21.8062C52.693 20.669 52.2369 19.5785 51.4253 18.7744C50.6136 17.9703 49.5128 17.5185 48.365 17.5183H44.5352C44.1342 17.5183 43.8105 17.1149 43.8105 16.6158C43.8105 16.1166 44.1342 15.714 44.5344 15.714H48.365C49.1727 15.7137 49.9725 15.871 50.7188 16.1771C51.465 16.4831 52.1431 16.9319 52.7143 17.4976C53.2855 18.0634 53.7385 18.7351 54.0475 19.4744C54.3565 20.2137 54.5155 21.006 54.5153 21.8062V25.8189C54.5153 26.2161 54.1081 26.536 53.6042 26.536C53.1003 26.536 52.6932 26.2161 52.6932 25.8189V21.8062ZM41.7763 22.939V23.0348C41.7763 24.0656 40.9362 24.7309 39.6118 24.7309C38.2874 24.7309 37.4411 24.0656 37.4411 23.0418C37.4411 22.0109 38.2944 21.3456 39.6118 21.3456H39.6898C41.0657 21.3456 43.4361 21.9731 43.5976 22.0241V20.3086C42.7193 20.0018 41.3169 19.5405 39.6898 19.5405H39.6118C37.1704 19.5405 35.6198 21.1092 35.6198 23.041C35.6198 24.9743 37.1696 26.536 39.6118 26.536C42.0532 26.536 43.6038 24.9751 43.6038 23.0418V22.9521L43.5976 19.2083C43.5976 17.2757 41.7178 15.714 39.6118 15.714L39.2631 15.707C36.4848 15.707 34.3148 16.4496 32.7252 20.0845C32.5976 20.3778 32.4728 20.6722 32.3508 20.9678L32.3375 21.0064C31.9569 21.9344 31.7369 22.6191 31.1878 23.8732C30.1605 26.2223 29.2433 27.5924 27.8416 27.6688C27.085 27.7137 26.8978 28.2128 26.9891 28.712C27.0795 29.2112 27.4025 29.518 27.8416 29.518C30.1215 29.518 31.5497 27.4386 32.9124 24.4752L32.9319 24.4365C33.1386 23.9574 33.339 23.4575 33.5457 22.9328C33.8172 22.235 34.1011 21.5118 34.4115 20.8016C35.626 18.0244 37.0019 17.5121 39.2694 17.5121H39.618C40.593 17.5121 41.7825 18.1774 41.7825 19.2013V22.9204" fill="#EA2330"/>
<path d="M62.9393 22.9398V23.0357C62.9393 24.0665 62.0867 24.7318 60.7685 24.7318C59.4503 24.7318 58.5978 24.0665 58.5978 23.0426C58.5978 22.0118 59.4511 21.3465 60.7685 21.3465H60.8465C62.2224 21.3465 64.5929 21.9739 64.7543 22.0249V20.3095C63.876 20.0027 62.4674 19.5414 60.8465 19.5414H60.7685C58.3271 19.5414 56.7765 21.11 56.7765 23.0418C56.7765 24.9752 58.3263 26.5369 60.7685 26.5369C63.2099 26.5369 64.7613 24.9752 64.7613 23.0426V22.953L64.7543 19.2091C64.7543 17.2758 62.8745 15.721 60.7685 15.721C60.7685 15.721 60.1164 15.7148 59.9807 15.7148C55.4973 15.7148 52.7002 18.6133 52.7002 22.6199H54.5215C54.5215 19.6117 56.505 17.5199 59.9807 17.5199C60.1422 17.5199 60.6461 17.5253 60.6461 17.5253C61.951 17.5253 62.9455 18.1853 62.9455 19.2091L62.9393 22.9398Z" fill="#EA2330"/>
<g opacity="0.7">
<path opacity="0.7" d="M41.7762 21.6016V23.0419C41.7762 23.8479 41.2591 24.4305 40.3995 24.6415V26.4782C42.3831 26.1777 43.6038 24.7566 43.6038 23.0419V22.0242C43.3971 21.9732 42.2934 21.7229 41.7762 21.6016Z" fill="url(#paint0_linear_6119_2306)"/>
<path opacity="0.7" d="M62.9392 21.6016V23.0419C62.9392 23.8479 62.4158 24.4305 61.5563 24.6484V26.4852C63.5398 26.1838 64.7605 24.7636 64.7605 23.0481V22.0312C64.5476 21.9732 63.4556 21.7237 62.9392 21.6016Z" fill="url(#paint1_linear_6119_2306)"/>
<path opacity="0.7" d="M48.8235 15.7266V17.5378C49.8859 17.6512 50.8687 18.1487 51.584 18.9351C52.2993 19.7215 52.6966 20.7416 52.7001 21.8002V22.0181H52.7258C52.7923 20.8817 53.1382 19.7787 53.7336 18.8051C53.2321 17.9329 52.5221 17.1961 51.666 16.6593C50.8099 16.1225 49.8338 15.8022 48.8235 15.7266Z" fill="url(#paint2_linear_6119_2306)"/>
<path opacity="0.7" d="M47.4609 17.5117H45.6388V22.0878H47.4609V17.5117Z" fill="url(#paint3_linear_6119_2306)"/>
<path opacity="0.7" d="M28.5583 20.9124C29.0755 21.9556 29.7205 23.2615 30.5676 24.8865C30.5934 24.9314 30.6191 24.9824 30.6511 25.0334C30.9923 24.3393 31.3071 23.6328 31.5949 22.9153C31.0387 21.8211 30.5809 20.8993 30.1924 20.125L28.5583 20.9124Z" fill="url(#paint4_linear_6119_2306)"/>
</g>
<defs>
<linearGradient id="paint0_linear_6119_2306" x1="41.5274" y1="26.673" x2="42.4152" y2="21.5871" gradientUnits="userSpaceOnUse">
<stop offset="0.02" stop-color="white" stop-opacity="0"/>
<stop offset="0.65" stop-color="white" stop-opacity="0"/>
<stop offset="0.71" stop-color="#DFDFE0" stop-opacity="0.17"/>
<stop offset="0.89" stop-color="#88898A" stop-opacity="0.62"/>
<stop offset="0.99" stop-color="#666769" stop-opacity="0.8"/>
</linearGradient>
<linearGradient id="paint1_linear_6119_2306" x1="62.6826" y1="26.6737" x2="63.5734" y2="21.5701" gradientUnits="userSpaceOnUse">
<stop offset="0.02" stop-color="white" stop-opacity="0"/>
<stop offset="0.65" stop-color="white" stop-opacity="0"/>
<stop offset="0.71" stop-color="#DFDFE0" stop-opacity="0.17"/>
<stop offset="0.91" stop-color="#88898A" stop-opacity="0.62"/>
<stop offset="1" stop-color="#666769" stop-opacity="0.8"/>
</linearGradient>
<linearGradient id="paint2_linear_6119_2306" x1="48.102" y1="17.9304" x2="53.5957" y2="19.7325" gradientUnits="userSpaceOnUse">
<stop offset="0.02" stop-color="white" stop-opacity="0"/>
<stop offset="0.65" stop-color="white" stop-opacity="0"/>
<stop offset="0.71" stop-color="#DFDFE0" stop-opacity="0.17"/>
<stop offset="0.91" stop-color="#88898A" stop-opacity="0.62"/>
<stop offset="1" stop-color="#666769" stop-opacity="0.8"/>
</linearGradient>
<linearGradient id="paint3_linear_6119_2306" x1="46.5506" y1="22.0924" x2="46.5506" y2="17.5148" gradientUnits="userSpaceOnUse">
<stop offset="0.02" stop-color="white" stop-opacity="0"/>
<stop offset="0.65" stop-color="white" stop-opacity="0"/>
<stop offset="0.71" stop-color="#DFDFE0" stop-opacity="0.17"/>
<stop offset="0.91" stop-color="#88898A" stop-opacity="0.62"/>
<stop offset="1" stop-color="#666769" stop-opacity="0.8"/>
</linearGradient>
<linearGradient id="paint4_linear_6119_2306" x1="28.5849" y1="19.5323" x2="31.3074" y2="24.1278" gradientUnits="userSpaceOnUse">
<stop offset="0.02" stop-color="white" stop-opacity="0"/>
<stop offset="0.5" stop-color="white" stop-opacity="0"/>
<stop offset="0.54" stop-color="#F0F0F1" stop-opacity="0.07"/>
<stop offset="0.85" stop-color="#8D8D8F" stop-opacity="0.52"/>
<stop offset="1" stop-color="#666769" stop-opacity="0.7"/>
</linearGradient>
</defs>
</svg>
