<svg width="90" height="43" viewBox="0 0 90 43" fill="none" xmlns="http://www.w3.org/2000/svg">
<rect x="0.5" y="0.5" width="89" height="41.3529" rx="7.5" fill="white" stroke="#DFE2F6"/>
<mask id="mask0_6119_2234" style="mask-type:alpha" maskUnits="userSpaceOnUse" x="8" y="5" width="74" height="32">
<rect x="8" y="5" width="74" height="32" fill="#C4C4C4"/>
</mask>
<g mask="url(#mask0_6119_2234)">
</g>
<g clip-path="url(#clip0_6119_2234)">
<path d="M54.0402 29.9865C54.5601 29.9825 55.0739 29.8742 55.5513 29.668C56.0286 29.4619 56.4598 29.1621 56.8192 28.7864C57.5597 28.016 57.9717 26.9878 57.968 25.9192V16.103C57.9705 15.0287 57.5647 13.9935 56.8327 13.2071C56.4717 12.8299 56.0385 12.5294 55.5589 12.3233C55.0793 12.1173 54.5631 12.01 54.0411 12.0078H44.4741C43.9544 12.012 43.4407 12.1204 42.9635 12.3265C42.4863 12.5327 42.0553 12.8324 41.696 13.208C40.9549 13.9893 40.5435 15.0262 40.5471 16.103V25.9336C40.5606 28.1647 42.3123 29.973 44.4741 29.9865" fill="#CF381E"/>
<path d="M51.3314 21.5537C50.9616 22.8249 51.5635 24.0961 52.8365 23.5869C52.4676 24.5055 51.8514 25.8757 51.8514 27.3025C51.8514 27.3025 51.8514 28.2624 52.5351 28.5026C52.5351 28.5026 53.4932 28.7428 53.2881 27.8666C53.1381 27.3198 53.0962 26.7489 53.1649 26.186C53.3992 25.0139 53.7525 23.8687 54.2193 22.7682C54.2193 22.7682 55.683 19.6195 56.5314 18.1503C56.5314 18.1503 56.8876 17.4018 56.1625 17.4018C56.0523 17.404 55.9441 17.432 55.8466 17.4836C55.7491 17.5351 55.665 17.6088 55.6011 17.6987L53.5346 21.497C53.2198 22.0908 52.9193 22.2743 52.6863 22.2743C52.1663 22.2743 52.276 21.4125 52.3579 21.1021C52.59 20.0423 52.9607 19.0257 53.4528 18.0514C53.8216 17.2183 53.083 17.1472 53.083 17.1472C52.6179 17.0204 52.2616 17.8112 52.2616 17.8112L51.4411 19.534C50.9078 20.4878 50.3231 21.4119 49.6895 22.3022C49.6895 22.3022 49.5798 22.4435 49.4979 22.3868C49.4151 22.3166 49.4565 22.1754 49.4565 22.1754C49.5932 21.0031 49.8254 19.8453 50.1402 18.7009C50.1546 18.6298 50.1672 18.5741 50.1672 18.503C50.1841 18.3514 50.1401 18.1993 50.0449 18.0801C50.0011 18.0193 49.9436 17.9696 49.877 17.9352C49.8104 17.9008 49.7366 17.8826 49.6616 17.8822C49.2928 17.839 49.1137 18.0226 48.7854 18.4328C48.0602 19.3505 47.2119 20.735 46.8016 21.3567C46.7602 21.4269 46.6784 21.4125 46.6784 21.3135C46.6784 21.031 47.6365 17.9803 47.6365 17.9803C47.6365 17.9803 47.7454 17.5574 47.417 17.4153C47.417 17.4153 46.9114 17.0914 46.5002 17.7266L44.53 20.4948C44.3789 20.7062 44.297 20.6361 44.297 20.6361V20.4525L44.6119 18.6442C44.8584 17.2606 44.3924 17.1895 44.0919 17.1328C43.8724 17.1328 43.6402 17.2039 43.4486 17.3307C42.8324 17.642 42.3672 18.8988 42.3672 18.8988C42.3672 18.8988 42.2305 19.3505 42.531 19.534C42.6272 19.5907 42.737 19.633 42.8458 19.6186C43.284 19.5907 43.3667 18.7576 43.6807 18.7576C43.7356 18.7576 43.7356 18.8278 43.7356 18.8422L42.7235 23.2343C42.6919 23.3568 42.6985 23.486 42.7424 23.6047C42.7863 23.7233 42.8654 23.8258 42.9691 23.8982C43.1067 23.9828 43.257 23.9972 43.4072 23.9693C43.5489 23.9219 43.6697 23.8268 43.7491 23.7003L44.1189 23.1074C44.6523 22.1331 45.6384 20.735 45.7337 20.735C45.7751 20.735 45.7886 20.735 45.7886 20.7773L45.4198 23.362C45.4014 23.4743 45.4193 23.5896 45.471 23.691C45.5226 23.7924 45.6052 23.8748 45.7067 23.9261C45.7999 23.9613 45.8996 23.9758 45.9989 23.9685C46.0982 23.9612 46.1947 23.9323 46.2816 23.8838C46.4867 23.7147 46.6649 23.5024 46.7881 23.2631C46.9932 22.9239 47.9784 21.7228 48.5802 20.6217C48.6216 20.5506 48.663 20.6217 48.6486 20.664C48.5263 21.2433 48.43 22.7826 48.4165 23.1641C48.3895 23.9126 48.95 23.9972 48.9635 23.9972C49.3332 24.0251 49.6886 23.8559 49.8946 23.5455" fill="white"/>
<path d="M21.8792 23.2642H20.7844V20.7361C20.8006 20.4581 20.7441 20.1806 20.6206 19.9309C20.5607 19.8389 20.4767 19.7651 20.3777 19.7177C20.2786 19.6702 20.1685 19.6509 20.0592 19.6619C19.8676 19.6619 19.6904 19.7042 19.5392 19.8032C19.3757 19.9176 19.2401 20.0673 19.1425 20.2413V23.2642H18.0476V18.6732H18.663L19.0741 19.294C19.1839 19.195 19.2927 19.1105 19.4025 19.0259C19.5122 18.9548 19.6211 18.899 19.7444 18.8424C19.8676 18.7857 19.9909 18.7434 20.1141 18.7155C20.2374 18.6867 20.3741 18.6732 20.5109 18.6732C20.6611 18.6732 20.8122 18.6867 20.949 18.729C21.0587 18.7713 21.1676 18.8136 21.2774 18.8846C21.3592 18.9548 21.4411 19.0403 21.5104 19.1248C21.5913 19.2373 21.6471 19.3363 21.702 19.4496C21.8899 19.2435 22.1121 19.0715 22.3587 18.9413C22.482 18.8568 22.6188 18.7857 22.769 18.729C22.9336 18.6867 23.0974 18.6588 23.2755 18.6588C23.4941 18.6588 23.6992 18.7155 23.8909 18.8136C24.069 18.9269 24.2201 19.0682 24.3155 19.2373C24.4253 19.4496 24.5071 19.661 24.5485 19.9012C24.6025 20.1702 24.6295 20.4383 24.6295 20.7199V23.2633H23.5229V20.7361C23.5499 20.4536 23.4959 20.1711 23.3583 19.9309C23.3013 19.8395 23.2199 19.7658 23.1232 19.7183C23.0265 19.6707 22.9185 19.6512 22.8113 19.6619C22.6331 19.6619 22.455 19.7051 22.2913 19.8032C22.1204 19.9134 21.9792 20.0638 21.8801 20.2413L21.8792 23.2642ZM28.202 21.1734H27.2304C27.0269 21.1612 26.825 21.2158 26.6555 21.329C26.542 21.4463 26.4785 21.603 26.4783 21.7662C26.4783 21.9219 26.5322 22.0631 26.642 22.1765C26.7653 22.2754 26.9299 22.3312 27.0936 22.3177C27.2169 22.3177 27.3401 22.3033 27.4625 22.261C27.5731 22.2332 27.682 22.19 27.7774 22.1342C27.8736 22.0631 27.9555 21.9929 28.0248 21.9219C28.1057 21.8373 28.1615 21.7527 28.2164 21.6682L28.202 21.1734ZM28.202 22.755C28.0518 22.9106 27.8601 23.0374 27.6685 23.1229C27.4085 23.2219 27.135 23.2777 26.8615 23.2642C26.6646 23.2741 26.468 23.2403 26.2857 23.1652C26.1195 23.0929 25.967 22.9925 25.835 22.8683C25.7136 22.7302 25.6163 22.5727 25.5471 22.4023C25.4812 22.2167 25.4489 22.0208 25.4518 21.8238C25.4518 20.9763 26.095 20.4248 27.1215 20.4248H28.2155V20.1711C28.2158 20.0923 28.1943 20.0149 28.1534 19.9476C28.1124 19.8803 28.0536 19.8256 27.9834 19.7897C27.7609 19.6863 27.5169 19.6379 27.2718 19.6484C26.9983 19.6484 26.7239 19.6907 26.4639 19.7474C26.2546 19.8052 26.0491 19.8758 25.8485 19.9588L25.7253 19.0124C25.7936 18.9701 25.8899 18.9422 26.0131 18.8999C26.122 18.8577 26.2588 18.8289 26.382 18.7866C26.5053 18.7587 26.6699 18.7299 26.8336 18.702C26.9983 18.6741 27.1755 18.6741 27.3536 18.6741C27.6078 18.6537 27.8636 18.6843 28.1057 18.7644C28.3478 18.8444 28.5715 18.9722 28.7634 19.1401C29.1053 19.5072 29.2699 20.0011 29.242 20.4959V23.2642H28.462L28.202 22.755ZM34.3745 18.6039L32.6094 20.8909L34.621 23.2498H33.2527L31.3904 20.9197V23.2498H30.3108V16.9648H31.3904V20.9197L33.0466 18.603H34.3745V18.6039ZM36.7964 19.6907C36.6597 19.6907 36.5229 19.7051 36.4006 19.7474C36.2899 19.7761 36.187 19.8289 36.0992 19.9021C36.0056 19.9609 35.9297 20.0439 35.8797 20.1424C35.8257 20.2413 35.7843 20.3403 35.7564 20.4536H37.6862C37.6862 20.3547 37.6727 20.2557 37.6322 20.1568C37.5953 20.0657 37.5391 19.9838 37.4675 19.9165C37.3851 19.8472 37.2929 19.7902 37.194 19.7474C37.0667 19.7019 36.9314 19.6826 36.7964 19.6907ZM37.0024 22.2754C37.1662 22.2754 37.3443 22.261 37.508 22.2188C37.6592 22.19 37.8094 22.1477 37.9462 22.0919C38.0694 22.0487 38.1927 21.9929 38.3024 21.9219C38.3564 21.894 38.4113 21.8517 38.4662 21.8094L38.6713 22.8116C38.4356 22.9425 38.1884 23.0512 37.9327 23.1364C37.6299 23.2213 37.3169 23.2643 37.0024 23.2642C36.6606 23.2642 36.3178 23.2075 35.9894 23.0941C35.7169 22.993 35.4695 22.834 35.2643 22.6281C35.0606 22.426 34.9061 22.1797 34.8127 21.9084C34.6927 21.6169 34.6278 21.3058 34.621 20.9907C34.621 20.6938 34.6615 20.397 34.7578 20.1145C34.8531 19.832 34.9899 19.5918 35.1815 19.366C35.3597 19.1536 35.5927 18.9845 35.8527 18.8711C36.4449 18.631 37.1074 18.631 37.6997 18.8711C37.9462 18.9701 38.1513 19.1401 38.3294 19.3372C38.494 19.5351 38.6173 19.7609 38.6983 20.0011C38.7675 20.2557 38.8089 20.5229 38.8089 20.7928V21.0321C38.7945 21.1167 38.7819 21.2021 38.7675 21.2723H35.7429C35.7564 21.428 35.7969 21.5692 35.8662 21.6961C35.9201 21.8229 36.0164 21.9363 36.1262 22.0208C36.2359 22.1198 36.3592 22.19 36.5094 22.2188C36.6597 22.2754 36.8243 22.3033 37.0015 22.3033V22.2754H37.0024ZM59.0358 19.3237L60.4861 17.5154H60.8154V18.6597H62.0605V19.6475H60.8154V21.5395C60.8154 21.6385 60.8289 21.7518 60.8559 21.8643C60.8864 21.9407 60.9279 22.0122 60.9791 22.0766C61.034 22.1189 61.1024 22.1612 61.1707 22.1756C61.2402 22.2045 61.315 22.2189 61.3902 22.2179C61.5126 22.2179 61.6358 22.2035 61.7456 22.1612C61.8554 22.1477 61.9507 22.1045 62.047 22.0622V23.0662C61.9372 23.1229 61.814 23.1652 61.6772 23.1931C61.2967 23.2782 60.9007 23.2636 60.5275 23.1508C60.3532 23.0926 60.1943 22.9961 60.0624 22.8683C59.9469 22.7363 59.8586 22.5828 59.8024 22.4167C59.7407 22.225 59.713 22.0241 59.7205 21.8229V19.6763H59.0089L59.0358 19.3237ZM63.9219 19.6206C64.0865 19.3372 64.2907 19.0979 64.5516 18.9134C64.7702 18.7443 65.0437 18.6597 65.3316 18.6741C65.4132 18.6598 65.4966 18.6598 65.5781 18.6741L65.7284 18.7011C65.7284 18.7011 65.7014 18.9566 65.5368 19.7474C65.4549 19.733 65.3721 19.7186 65.2902 19.733C65.1027 19.7233 64.9155 19.7571 64.7433 19.832C64.5807 19.9033 64.4391 20.0151 64.3321 20.1568C64.2159 20.3044 64.1278 20.4721 64.0721 20.6516C64.0181 20.8765 63.9902 21.1032 63.9902 21.329V23.2633H62.8954V18.675H63.5791L63.9219 19.6206ZM70.6414 19.6763C70.5201 19.6663 70.3982 19.6858 70.286 19.733C70.0775 19.8108 69.8965 19.9485 69.766 20.1289C69.7111 20.2134 69.6563 20.298 69.6284 20.397V21.6961C69.6706 21.7798 69.7262 21.8561 69.793 21.9219C69.8614 21.9929 69.9298 22.0487 70.0116 22.1054C70.1079 22.1621 70.2033 22.2044 70.2995 22.2332C70.573 22.3033 70.86 22.2889 71.12 22.19C71.2433 22.1198 71.3665 22.0352 71.4484 21.9219C71.5446 21.8085 71.613 21.6673 71.6544 21.526C71.6949 21.3569 71.7228 21.1734 71.7363 20.9898C71.7363 20.8207 71.7093 20.6372 71.6544 20.4527C71.614 20.2997 71.544 20.156 71.4484 20.0299C71.3576 19.9141 71.2404 19.8219 71.1065 19.7609C70.9756 19.6935 70.83 19.6595 70.6828 19.6619L70.6414 19.6763ZM70.9428 18.6741C71.2433 18.6597 71.5311 18.7299 71.7911 18.8577C72.0233 18.9836 72.2149 19.1545 72.3795 19.3794C72.5298 19.6062 72.653 19.8599 72.7214 20.128C72.7898 20.4105 72.8311 20.7073 72.8311 20.9898C72.8311 21.2867 72.7898 21.5836 72.7079 21.8652C72.6405 22.1274 72.5195 22.3727 72.3525 22.5858C72.1976 22.7943 71.9961 22.9637 71.7642 23.0806C71.513 23.2044 71.2362 23.2673 70.9563 23.2642C70.6896 23.2678 70.4247 23.2198 70.1763 23.1229C69.9657 23.0281 69.7786 22.8881 69.6284 22.7127V25.0994H68.5335V18.6741H69.1768L69.6014 19.2247C69.7761 19.0494 69.9801 18.906 70.2042 18.801C70.4363 18.7164 70.6828 18.6597 70.9293 18.6741H70.9428ZM66.8511 16.7956C66.7761 16.796 66.7018 16.8113 66.6327 16.8407C66.5637 16.8701 66.5011 16.913 66.4489 16.9669C66.3966 17.0208 66.3556 17.0845 66.3282 17.1545C66.3009 17.2244 66.2878 17.2991 66.2898 17.3741C66.2898 17.6989 66.5354 17.9679 66.8502 17.9679C67.1651 17.9679 67.4116 17.6989 67.4116 17.3741C67.4156 17.298 67.403 17.222 67.3745 17.1513C67.3461 17.0806 67.3026 17.0169 67.247 16.9648C67.1978 16.9079 67.137 16.8621 67.0688 16.8305C67.0006 16.7988 66.9264 16.782 66.8511 16.7812V16.7956ZM67.3837 23.2642H66.2889V18.6741H67.3837V23.2642Z" fill="#174880"/>
</g>
<defs>
<clipPath id="clip0_6119_2234">
<rect width="54.8789" height="17.9931" fill="white" transform="translate(18 12)"/>
</clipPath>
</defs>
</svg>
