<svg width="19" height="18" viewBox="0 0 19 18" fill="none" xmlns="http://www.w3.org/2000/svg">
<path d="M6.61463 0.794922H2.20214C1.30488 0.794922 0.577515 1.52229 0.577515 2.41954V15.3754C0.577515 16.2726 1.30488 17 2.20214 17H6.61463C7.51188 17 8.23925 16.2726 8.23925 15.3754V2.41954C8.23925 1.52229 7.51188 0.794922 6.61463 0.794922Z" fill="#FEFEFE" stroke="#8D95AF" stroke-width="1.4306" stroke-miterlimit="10"/>
<path d="M15.8541 0.649414H11.5754C10.7053 0.649414 10 1.35473 10 2.22477V8.38141C10 9.25146 10.7053 9.95677 11.5754 9.95677H15.8541C16.7241 9.95677 17.4294 9.25146 17.4294 8.38141V2.22477C17.4294 1.35473 16.7241 0.649414 15.8541 0.649414Z" fill="#FEFEFE" stroke="#8D95AF" stroke-width="1.30052" stroke-miterlimit="10"/>
<path d="M15.9988 11.9521H11.4306C10.6405 11.9521 10 12.5926 10 13.3827V15.9621C10 16.7522 10.6405 17.3926 11.4306 17.3926H15.9988C16.7889 17.3926 17.4294 16.7522 17.4294 15.9621V13.3827C17.4294 12.5926 16.7889 11.9521 15.9988 11.9521Z" fill="#FEFEFE" stroke="#8D95AF" stroke-width="1.21381" stroke-miterlimit="10"/>
</svg>
