<svg width="17" height="17" viewBox="0 0 17 17" fill="none" xmlns="http://www.w3.org/2000/svg">
<path d="M17 8.5C17 10.7543 16.1045 12.9163 14.5104 14.5104C12.9163 16.1045 10.7543 17 8.5 17C6.24566 17 4.08365 16.1045 2.48959 14.5104C0.895533 12.9163 0 10.7543 0 8.5C0 6.24566 0.895533 4.08365 2.48959 2.48959C4.08365 0.895533 6.24566 0 8.5 0C10.7543 0 12.9163 0.895533 14.5104 2.48959C16.1045 4.08365 17 6.24566 17 8.5ZM9.03125 4.78125C9.03125 4.64035 8.97528 4.50523 8.87565 4.4056C8.77602 4.30597 8.6409 4.25 8.5 4.25C8.3591 4.25 8.22398 4.30597 8.12435 4.4056C8.02472 4.50523 7.96875 4.64035 7.96875 4.78125V7.96875H4.78125C4.64035 7.96875 4.50523 8.02472 4.4056 8.12435C4.30597 8.22398 4.25 8.3591 4.25 8.5C4.25 8.6409 4.30597 8.77602 4.4056 8.87565C4.50523 8.97528 4.64035 9.03125 4.78125 9.03125H7.96875V12.2188C7.96875 12.3596 8.02472 12.4948 8.12435 12.5944C8.22398 12.694 8.3591 12.75 8.5 12.75C8.6409 12.75 8.77602 12.694 8.87565 12.5944C8.97528 12.4948 9.03125 12.3596 9.03125 12.2188V9.03125H12.2188C12.3596 9.03125 12.4948 8.97528 12.5944 8.87565C12.694 8.77602 12.75 8.6409 12.75 8.5C12.75 8.3591 12.694 8.22398 12.5944 8.12435C12.4948 8.02472 12.3596 7.96875 12.2188 7.96875H9.03125V4.78125Z" fill="#00386C"/>
</svg>
