<svg width="61" height="20" viewBox="0 0 61 20" fill="none" xmlns="http://www.w3.org/2000/svg">
<path d="M40.06 19.992C40.6379 19.9875 41.2091 19.8672 41.7397 19.638C42.2703 19.4089 42.7495 19.0756 43.149 18.658C43.9722 17.8017 44.4301 16.6588 44.426 15.471V4.56C44.4287 3.36579 43.9776 2.21516 43.164 1.341C42.7628 0.921805 42.2813 0.587731 41.7482 0.358709C41.215 0.129686 40.6412 0.0104092 40.061 0.00799561H29.427C28.8493 0.0126585 28.2783 0.133115 27.7479 0.362244C27.2175 0.591374 26.7384 0.924523 26.339 1.342C25.5153 2.21048 25.0579 3.363 25.062 4.56V15.487C25.077 17.967 27.024 19.977 29.427 19.992" fill="#CF381E"/>
<path d="M37.049 10.62C36.638 12.033 37.307 13.446 38.722 12.88C38.312 13.901 37.627 15.424 37.627 17.01C37.627 17.01 37.627 18.077 38.387 18.344C38.387 18.344 39.452 18.611 39.224 17.637C39.0572 17.0292 39.0107 16.3946 39.087 15.769C39.3475 14.4661 39.7401 13.1932 40.259 11.97C40.259 11.97 41.886 8.46999 42.829 6.83699C42.829 6.83699 43.225 6.00499 42.419 6.00499C42.2964 6.00746 42.1762 6.03859 42.0678 6.0959C41.9594 6.1532 41.866 6.23509 41.795 6.33499L39.498 10.557C39.148 11.217 38.814 11.421 38.555 11.421C37.977 11.421 38.099 10.463 38.19 10.118C38.448 8.93999 38.86 7.80999 39.407 6.72699C39.817 5.80099 38.996 5.72199 38.996 5.72199C38.479 5.58099 38.083 6.45999 38.083 6.45999L37.171 8.37499C36.5782 9.43515 35.9282 10.4623 35.224 11.452C35.224 11.452 35.102 11.609 35.011 11.546C34.919 11.468 34.965 11.311 34.965 11.311C35.117 10.008 35.375 8.72099 35.725 7.44899C35.741 7.36999 35.755 7.30799 35.755 7.22899C35.7737 7.0605 35.7248 6.89146 35.619 6.75899C35.5704 6.69131 35.5064 6.63609 35.4324 6.59785C35.3584 6.55962 35.2763 6.53945 35.193 6.53899C34.783 6.49099 34.584 6.69499 34.219 7.15099C33.413 8.17099 32.47 9.70999 32.014 10.401C31.968 10.479 31.877 10.463 31.877 10.353C31.877 10.039 32.942 6.64799 32.942 6.64799C32.942 6.64799 33.063 6.17799 32.698 6.01999C32.698 6.01999 32.136 5.65999 31.679 6.36599L29.489 9.44299C29.321 9.67799 29.23 9.59999 29.23 9.59999V9.39599L29.58 7.38599C29.854 5.84799 29.336 5.76899 29.002 5.70599C28.758 5.70599 28.5 5.78499 28.287 5.92599C27.602 6.27199 27.085 7.66899 27.085 7.66899C27.085 7.66899 26.933 8.17099 27.267 8.37499C27.374 8.43799 27.496 8.48499 27.617 8.46899C28.104 8.43799 28.196 7.51199 28.545 7.51199C28.606 7.51199 28.606 7.58999 28.606 7.60599L27.481 12.488C27.4459 12.6242 27.4532 12.7678 27.502 12.8997C27.5508 13.0316 27.6387 13.1455 27.754 13.226C27.907 13.32 28.074 13.336 28.241 13.305C28.3985 13.2523 28.5328 13.1467 28.621 13.006L29.032 12.347C29.625 11.264 30.721 9.70999 30.827 9.70999C30.873 9.70999 30.888 9.70999 30.888 9.75699L30.478 12.63C30.4576 12.7548 30.4775 12.8829 30.5349 12.9957C30.5923 13.1084 30.6841 13.2 30.797 13.257C30.9005 13.2962 31.0113 13.3122 31.1217 13.3041C31.2321 13.296 31.3393 13.2639 31.436 13.21C31.664 13.022 31.862 12.786 31.999 12.52C32.227 12.143 33.322 10.808 33.991 9.58399C34.037 9.50499 34.083 9.58399 34.067 9.63099C33.931 10.275 33.824 11.986 33.809 12.41C33.779 13.242 34.402 13.336 34.417 13.336C34.828 13.367 35.223 13.179 35.452 12.834" fill="white"/>
<path d="M4.31201 12.52H3.09501V9.71C3.11303 9.40092 3.05031 9.09248 2.91301 8.81499C2.84645 8.71269 2.75302 8.63068 2.64296 8.57794C2.5329 8.52521 2.41044 8.50377 2.28901 8.516C2.07601 8.516 1.87901 8.563 1.71101 8.673C1.52929 8.80014 1.37855 8.96659 1.27001 9.16V12.52H0.053009V7.417H0.737009L1.19401 8.107C1.31601 7.997 1.43701 7.903 1.55901 7.809C1.68101 7.73 1.80201 7.668 1.93901 7.605C2.07601 7.542 2.21301 7.495 2.35001 7.464C2.48701 7.432 2.63901 7.417 2.79101 7.417C2.95801 7.417 3.12601 7.432 3.27801 7.479C3.40001 7.526 3.52101 7.573 3.64301 7.652C3.73401 7.73 3.82501 7.825 3.90201 7.919C3.99201 8.044 4.05401 8.154 4.11501 8.27999C4.32387 8.0509 4.57086 7.85974 4.84501 7.715C4.98201 7.621 5.13401 7.542 5.30101 7.479C5.48401 7.432 5.66601 7.401 5.86401 7.401C6.10701 7.401 6.33501 7.464 6.54801 7.573C6.74601 7.699 6.91401 7.85599 7.02001 8.04399C7.14201 8.27999 7.23301 8.51499 7.27901 8.78199C7.33901 9.08099 7.36901 9.379 7.36901 9.692V12.519H6.13901V9.71C6.16901 9.396 6.10901 9.08199 5.95601 8.81499C5.89271 8.71334 5.8022 8.63145 5.69474 8.5786C5.58728 8.52575 5.46717 8.50406 5.34801 8.516C5.15001 8.516 4.95201 8.564 4.77001 8.673C4.5801 8.79546 4.42317 8.96269 4.31301 9.16L4.31201 12.52ZM11.34 10.196H10.26C10.0338 10.1824 9.80945 10.2432 9.62101 10.369C9.49485 10.4993 9.42422 10.6736 9.42401 10.855C9.42401 11.028 9.48401 11.185 9.60601 11.311C9.74301 11.421 9.92601 11.483 10.108 11.468C10.245 11.468 10.382 11.452 10.518 11.405C10.641 11.374 10.762 11.326 10.868 11.264C10.975 11.185 11.066 11.107 11.143 11.028C11.233 10.934 11.295 10.84 11.356 10.746L11.34 10.196ZM11.34 11.954C11.173 12.127 10.96 12.268 10.747 12.363C10.458 12.473 10.154 12.535 9.85001 12.52C9.63117 12.531 9.41261 12.4934 9.21001 12.41C9.02524 12.3297 8.85574 12.218 8.70901 12.08C8.57404 11.9265 8.46587 11.7514 8.38901 11.562C8.31576 11.3557 8.27987 11.1379 8.28301 10.919C8.28301 9.97699 8.99801 9.364 10.139 9.364H11.355V9.082C11.3554 8.99438 11.3315 8.90838 11.2859 8.83353C11.2404 8.75868 11.175 8.69792 11.097 8.658C10.8497 8.54309 10.5784 8.48925 10.306 8.501C10.002 8.501 9.69701 8.548 9.40801 8.611C9.1754 8.67522 8.94697 8.7537 8.72401 8.84599L8.58701 7.794C8.66301 7.747 8.77001 7.716 8.90701 7.669C9.02801 7.622 9.18001 7.59 9.31701 7.543C9.45401 7.512 9.63701 7.48 9.81901 7.449C10.002 7.418 10.199 7.418 10.397 7.418C10.6796 7.39524 10.9638 7.42936 11.233 7.51833C11.5021 7.6073 11.7507 7.74932 11.964 7.936C12.344 8.344 12.527 8.893 12.496 9.443V12.52H11.629L11.34 11.954ZM18.201 7.34L16.239 9.882L18.475 12.504H16.954L14.884 9.91399V12.504H13.684V5.518H14.884V9.91399L16.725 7.339H18.201V7.34ZM20.893 8.548C20.741 8.548 20.589 8.564 20.453 8.611C20.33 8.64288 20.2156 8.70162 20.118 8.783C20.014 8.84826 19.9297 8.94054 19.874 9.05C19.814 9.16 19.768 9.27 19.737 9.396H21.882C21.882 9.286 21.867 9.176 21.822 9.066C21.781 8.96481 21.7186 8.87372 21.639 8.799C21.5473 8.72193 21.4449 8.6586 21.335 8.611C21.1934 8.56044 21.0431 8.53901 20.893 8.548ZM21.122 11.421C21.304 11.421 21.502 11.405 21.684 11.358C21.852 11.326 22.019 11.279 22.171 11.217C22.308 11.169 22.445 11.107 22.567 11.028C22.627 10.997 22.688 10.95 22.749 10.903L22.977 12.017C22.7151 12.1624 22.4402 12.2833 22.156 12.378C21.8195 12.4724 21.4715 12.5201 21.122 12.52C20.742 12.52 20.361 12.457 19.996 12.331C19.6931 12.2186 19.4181 12.0419 19.19 11.813C18.9636 11.5883 18.7918 11.3146 18.688 11.013C18.5547 10.689 18.4825 10.3432 18.475 9.993C18.475 9.663 18.52 9.333 18.627 9.019C18.733 8.705 18.885 8.438 19.098 8.187C19.296 7.951 19.555 7.763 19.844 7.637C20.5023 7.37009 21.2387 7.37009 21.897 7.637C22.171 7.747 22.399 7.93599 22.597 8.15499C22.78 8.37499 22.917 8.62599 23.007 8.89299C23.084 9.17599 23.13 9.47299 23.13 9.77299V10.039C23.114 10.133 23.1 10.228 23.084 10.306H19.722C19.737 10.479 19.782 10.636 19.859 10.777C19.919 10.918 20.026 11.044 20.148 11.138C20.27 11.248 20.407 11.326 20.574 11.358C20.741 11.421 20.924 11.452 21.121 11.452V11.421H21.122ZM45.613 8.14L47.225 6.13H47.591V7.402H48.975V8.5H47.591V10.603C47.591 10.713 47.606 10.839 47.636 10.964C47.67 11.0489 47.7161 11.1284 47.773 11.2C47.834 11.247 47.91 11.294 47.986 11.31C48.0633 11.3422 48.1463 11.3582 48.23 11.357C48.366 11.357 48.503 11.341 48.625 11.294C48.747 11.279 48.853 11.231 48.96 11.184V12.3C48.838 12.363 48.701 12.41 48.549 12.441C48.1261 12.5356 47.6859 12.5194 47.271 12.394C47.0773 12.3293 46.9007 12.222 46.754 12.08C46.6257 11.9332 46.5275 11.7627 46.465 11.578C46.3964 11.365 46.3656 11.1416 46.374 10.918V8.53199H45.583L45.613 8.14ZM51.044 8.47C51.227 8.155 51.454 7.889 51.744 7.684C51.987 7.496 52.291 7.402 52.611 7.418C52.7017 7.40212 52.7944 7.40212 52.885 7.418L53.052 7.448C53.052 7.448 53.022 7.732 52.839 8.611C52.748 8.595 52.656 8.579 52.565 8.595C52.3566 8.58417 52.1484 8.62182 51.957 8.705C51.7763 8.78428 51.619 8.90857 51.5 9.066C51.3708 9.23009 51.2729 9.41652 51.211 9.616C51.151 9.866 51.12 10.118 51.12 10.369V12.519H49.903V7.419H50.663L51.044 8.47ZM58.513 8.53199C58.3782 8.52088 58.2427 8.5425 58.118 8.595C57.8862 8.68148 57.6851 8.83456 57.54 9.035C57.479 9.129 57.418 9.223 57.387 9.333V10.777C57.4339 10.8701 57.4958 10.9548 57.57 11.028C57.646 11.107 57.722 11.169 57.813 11.232C57.92 11.295 58.026 11.342 58.133 11.374C58.437 11.452 58.756 11.436 59.045 11.326C59.182 11.248 59.319 11.154 59.41 11.028C59.517 10.902 59.593 10.745 59.639 10.588C59.684 10.4 59.715 10.196 59.73 9.99199C59.73 9.80399 59.7 9.6 59.639 9.395C59.5942 9.22486 59.5163 9.06518 59.41 8.925C59.3091 8.79631 59.1788 8.69376 59.03 8.626C58.8845 8.55111 58.7227 8.51332 58.559 8.516L58.513 8.53199ZM58.848 7.418C59.182 7.402 59.502 7.48 59.791 7.622C60.049 7.762 60.262 7.95199 60.445 8.20199C60.612 8.45399 60.749 8.736 60.825 9.034C60.901 9.348 60.947 9.67799 60.947 9.99199C60.947 10.322 60.901 10.652 60.81 10.965C60.7351 11.2564 60.6006 11.5291 60.415 11.766C60.2428 11.9977 60.0188 12.186 59.761 12.316C59.4818 12.4536 59.1742 12.5234 58.863 12.52C58.5666 12.524 58.2722 12.4707 57.996 12.363C57.7619 12.2577 57.554 12.102 57.387 11.907V14.56H56.17V7.418H56.885L57.357 8.02999C57.5512 7.83515 57.7779 7.67575 58.027 7.559C58.285 7.465 58.559 7.402 58.833 7.418H58.848ZM54.3 5.33C54.2166 5.33037 54.134 5.34739 54.0572 5.38008C53.9805 5.41276 53.911 5.46044 53.8528 5.52033C53.7947 5.58022 53.7492 5.6511 53.7188 5.72883C53.6884 5.80656 53.6739 5.88957 53.676 5.973C53.676 6.334 53.949 6.633 54.299 6.633C54.649 6.633 54.923 6.334 54.923 5.973C54.9275 5.88841 54.9134 5.80387 54.8818 5.72528C54.8502 5.64669 54.8018 5.57595 54.74 5.518C54.6853 5.45476 54.6178 5.40386 54.5419 5.36869C54.4661 5.33352 54.3836 5.31488 54.3 5.314V5.33ZM54.892 12.52H53.675V7.418H54.892V12.52Z" fill="#174880"/>
</svg>
