<svg width="59" height="17" viewBox="0 0 59 17" fill="none" xmlns="http://www.w3.org/2000/svg">
<g clip-path="url(#clip0_6459_2274)">
<path fill-rule="evenodd" clip-rule="evenodd" d="M36.603 13.2946C33.174 15.7131 28.2041 17.0006 23.9249 17.0006C17.9266 17.0006 12.5263 14.8813 8.43914 11.3521C8.11869 11.0755 8.40443 10.697 8.79198 10.9101C13.2008 13.3649 18.6554 14.8427 24.287 14.8427C28.0861 14.8427 32.2636 14.0879 36.1067 12.5285C36.6863 12.2927 37.171 12.8934 36.6053 13.2946H36.6018H36.603Z" fill="#FF9900"/>
<path fill-rule="evenodd" clip-rule="evenodd" d="M38.0295 11.7378C37.5899 11.2018 35.1316 11.4828 34.0268 11.6086C33.6913 11.6472 33.6381 11.3672 33.9412 11.1666C35.9021 9.84858 39.1193 10.2294 39.4918 10.668C39.8689 11.1145 39.3923 14.196 37.5552 15.6671C37.2718 15.8938 37.0046 15.7725 37.1283 15.4733C37.5425 14.485 38.4691 12.2728 38.0307 11.7356V11.7378H38.0295Z" fill="#FF9900"/>
<path fill-rule="evenodd" clip-rule="evenodd" d="M34.1044 1.85867V0.575733C34.1044 0.3808 34.2595 0.250467 34.4446 0.250467H40.4475C40.6396 0.250467 40.7934 0.383067 40.7934 0.573467V1.67053C40.7934 1.85413 40.6292 2.0944 40.3422 2.47633L37.2326 6.72067C38.386 6.6946 39.6076 6.85893 40.6569 7.42333C40.8929 7.55027 40.9577 7.7384 40.975 7.922V9.2888C40.975 9.47693 40.7599 9.69453 40.5343 9.58233C38.6868 8.65753 36.2342 8.55667 34.1912 9.59367C33.983 9.70133 33.7643 9.48487 33.7643 9.29673V7.99907C33.7643 7.79053 33.7689 7.43693 33.9888 7.1196L37.5901 2.17827H34.455C34.2618 2.17827 34.1079 2.04793 34.1079 1.85527L34.1044 1.85753V1.85867ZM12.2085 9.85433H10.3807C10.2994 9.85138 10.2218 9.82006 10.162 9.76603C10.1022 9.712 10.064 9.63882 10.0544 9.55967V0.5984C10.0544 0.417067 10.2141 0.2754 10.4084 0.2754H12.109C12.2872 0.283333 12.4306 0.4114 12.441 0.576867V1.74533H12.4757C12.9211 0.612 13.7552 0.0861333 14.8809 0.0861333C16.0053 0.0861333 16.7388 0.614267 17.2501 1.74533C17.6932 0.614267 18.6985 0.0861333 19.7721 0.0861333C20.5391 0.0861333 21.3766 0.3876 21.8857 1.06647C22.4664 1.82127 22.3461 2.9138 22.3461 3.87713V9.53133C22.3461 9.7104 22.1864 9.85433 21.9909 9.85433H20.1666C19.9849 9.843 19.8392 9.7036 19.8392 9.5336V4.78267C19.8392 4.4064 19.8727 3.46233 19.7871 3.10533C19.6506 2.50127 19.2434 2.3324 18.7147 2.3324C18.2716 2.3324 17.8123 2.61573 17.6226 3.06793C17.434 3.52127 17.4526 4.2738 17.4526 4.78267V9.53133C17.4526 9.7104 17.2952 9.85433 17.1009 9.85433H15.2765C15.0937 9.843 14.9491 9.7036 14.9491 9.5336V4.78267C14.9491 3.78307 15.1169 2.31313 13.8223 2.31313C12.5266 2.31313 12.5613 3.7468 12.5613 4.7838V9.53247C12.5613 9.7104 12.4029 9.85433 12.2085 9.85433ZM45.9588 0.0872667C48.6682 0.0872667 50.1351 2.31313 50.1351 5.14193C50.1351 7.9696 48.5155 10.0447 45.9588 10.0447C43.4021 10.0447 41.852 7.81887 41.852 5.04787C41.852 2.278 43.3154 0.0872667 45.9588 0.0872667ZM45.975 1.9176C44.6296 1.9176 44.544 3.66973 44.544 4.76453C44.544 5.86047 44.5278 8.1974 45.9588 8.1974C47.3899 8.1974 47.4419 6.31153 47.4419 5.16007C47.4419 4.4064 47.4084 3.50087 47.1689 2.7846C46.963 2.1624 46.5558 1.9176 45.975 1.9176ZM53.6496 9.85433H51.8311C51.6494 9.843 51.5037 9.7036 51.5037 9.5336V0.568933C51.5164 0.403467 51.6679 0.274267 51.8519 0.274267H53.5467C53.6212 0.276701 53.693 0.302598 53.7513 0.34812C53.8097 0.393642 53.8515 0.456367 53.8706 0.527V1.89833H53.9065C54.419 0.6698 55.1327 0.0861333 56.3937 0.0861333C57.2128 0.0861333 58.0133 0.369467 58.5258 1.14127C59.0024 1.85867 59.0024 3.06453 59.0024 3.93153V9.56987C58.9888 9.6506 58.9458 9.72376 58.8813 9.77584C58.8169 9.82792 58.7354 9.8554 58.6519 9.8532H56.8206C56.7414 9.85037 56.6656 9.8205 56.6065 9.76877C56.5473 9.71703 56.5085 9.64668 56.4967 9.56987V4.70787C56.4967 3.72753 56.6158 2.29387 55.3549 2.29387C54.9118 2.29387 54.5011 2.5772 54.2986 3.01013C54.0441 3.5564 54.0083 4.1038 54.0083 4.70787V9.53133C54.0038 9.62012 53.9639 9.70364 53.8973 9.76402C53.8307 9.82439 53.7427 9.85681 53.652 9.85433H53.6496ZM29.3197 5.576C29.3197 6.256 29.3359 6.82267 28.9784 7.42673C28.688 7.91747 28.2264 8.22007 27.7139 8.22007C27.014 8.22007 26.6033 7.71007 26.6033 6.95527C26.6033 5.46833 27.9997 5.1986 29.3197 5.1986V5.57713V5.57487V5.576ZM31.1614 9.83053C31.102 9.87901 31.0291 9.90892 30.9522 9.91639C30.8753 9.92387 30.7978 9.90857 30.7299 9.87247C30.1237 9.3908 30.0161 9.16753 29.6841 8.70967C28.6822 9.6866 27.9719 9.979 26.6728 9.979C25.1353 9.979 23.9379 9.07233 23.9379 7.259C23.9379 5.84007 24.742 4.87787 25.8849 4.40413C26.8752 3.9882 28.2588 3.9134 29.3197 3.80007V3.57453C29.3197 3.1586 29.3544 2.66787 29.0975 2.30973C28.8766 1.98787 28.4497 1.8564 28.0726 1.8564C27.3773 1.8564 26.7572 2.1964 26.6033 2.9036C26.5733 3.06 26.4529 3.2164 26.2875 3.22433L24.5175 3.043C24.3694 3.01013 24.204 2.89567 24.2445 2.67807C24.6506 0.623333 26.5918 0.0034 28.3282 0.0034C29.2167 0.0034 30.3782 0.230067 31.0781 0.8738C31.9666 1.66713 31.8821 2.72567 31.8821 3.87713V6.59713C31.8821 7.41427 32.2384 7.77353 32.5716 8.2144C32.6873 8.37307 32.715 8.56347 32.5658 8.67907C32.1921 8.97713 31.5304 9.52793 31.166 9.83847L31.1614 9.83507V9.83053ZM5.38185 5.57487C5.38185 6.256 5.39805 6.82153 5.03942 7.42673C4.75021 7.91747 4.28746 8.22007 3.77613 8.22007C3.07623 8.22007 2.66554 7.71007 2.66554 6.95527C2.66554 5.46833 4.06187 5.1986 5.38185 5.1986V5.57713V5.57487ZM7.22242 9.83053C7.16306 9.87863 7.09042 9.90831 7.01377 9.91578C6.93712 9.92325 6.85993 9.90817 6.79207 9.87247C6.18472 9.3908 6.07713 9.16753 5.74626 8.70967C4.74327 9.6866 4.03295 9.979 2.73611 9.979C1.19979 9.979 0.00244141 9.07233 0.00244141 7.259C0.00244141 5.84007 0.805304 4.87787 1.94944 4.40413C2.93972 3.9882 4.32332 3.9134 5.38301 3.80007V3.57453C5.38301 3.1586 5.41656 2.66787 5.16205 2.30973C4.93993 1.98787 4.51421 1.8564 4.13707 1.8564C3.44064 1.8564 2.82172 2.1964 2.66785 2.9036C2.63662 3.06 2.51746 3.2164 2.35087 3.22433L0.58203 3.043C0.432794 3.01013 0.267363 2.89567 0.30901 2.67807C0.712755 0.619933 2.65166 0 4.38926 0C5.27774 0 6.44038 0.226667 7.14028 0.869267C8.02876 1.6626 7.94315 2.72113 7.94315 3.87373V6.59373C7.94315 7.40973 8.29946 7.769 8.63379 8.211C8.74948 8.36967 8.77609 8.55893 8.62685 8.67453C8.25434 8.97373 7.59146 9.52453 7.22705 9.83507L7.22242 9.83053Z" fill="black"/>
</g>
<defs>
<clipPath id="clip0_6459_2274">
<rect width="59" height="17" fill="white"/>
</clipPath>
</defs>
</svg>
