<svg width="66" height="33" viewBox="0 0 66 33" fill="none" xmlns="http://www.w3.org/2000/svg">
<g clip-path="url(#clip0_6459_2370)">
<path d="M10.7395 6.05078C10.7729 6.16678 10.8858 6.14692 10.9662 6.18036C11.8513 6.53671 12.3979 7.17311 12.4637 8.16586C12.5306 9.20564 12.0917 9.95177 11.1721 10.4032C10.9861 10.492 10.799 10.5809 10.6193 10.7794C11.2923 10.7794 11.9715 10.8212 12.6372 10.7658C13.2297 10.7178 13.423 10.9372 13.3499 11.5182C13.3132 11.846 13.3132 12.1769 13.3499 12.5047C13.4021 12.976 13.2036 13.0795 12.7772 13.0795C9.49383 13.0659 6.20417 13.0795 2.92287 13.0659C2.51532 13.0659 2.31677 13.1338 2.40246 13.6124C2.46307 13.9416 2.6752 13.8799 2.86853 13.8799H6.83744C8.84175 13.8799 10.8398 13.8862 12.8441 13.8726C13.2234 13.8726 13.4168 13.9614 13.3561 14.3857C13.3363 14.5362 13.3561 14.694 13.3561 14.8518C13.3561 15.6794 13.3561 15.7003 12.5703 15.8027C12.2714 15.8445 12.2986 16.0358 12.3247 16.2134C12.3843 16.6648 12.1983 16.761 11.7845 16.7537C9.19496 16.7328 6.61172 16.7537 4.02012 16.7328C3.62824 16.7328 3.46104 16.7882 3.45477 17.2532C3.45477 17.7527 3.68154 17.7527 4.03997 17.7527C6.59082 17.7464 9.14166 17.7527 11.6915 17.7391C12.1648 17.7391 12.3843 17.8217 12.331 18.3619C12.2844 18.8446 12.2844 19.3307 12.331 19.8134C12.3644 20.2377 12.1983 20.3255 11.8116 20.3255C9.12808 20.3129 6.45079 20.3129 3.76723 20.3255C3.5948 20.3255 3.32206 20.176 3.2813 20.5313C3.23532 20.8741 3.3022 21.0518 3.71393 21.0444C5.02018 21.0173 6.31807 21.0382 7.62223 21.0382C10.3998 21.0382 13.1764 21.0246 15.953 21.0518C16.4065 21.0518 16.5194 20.9211 16.5131 20.4697C16.4922 17.3765 16.5131 14.2833 16.4922 11.1901C16.4922 10.7042 16.626 10.5809 17.092 10.5809C17.5518 10.5809 17.6981 10.6906 17.6919 11.1838C17.6647 14.1401 17.6783 17.0964 17.6845 20.0527C17.6845 20.477 17.6981 20.9013 17.7451 21.3255C17.7974 21.8042 17.6783 21.9964 17.1453 21.9891C15.1807 21.9546 13.2161 21.9755 11.2515 21.9755H3.54882C3.00333 21.9755 2.72954 21.6861 2.72954 21.1061C2.72954 20.7372 2.76298 20.3673 2.72327 20.0047C2.67625 19.5323 2.85599 19.4163 3.29593 19.4226C5.88649 19.4435 8.46973 19.4299 11.0603 19.4299C11.3132 19.4299 11.5796 19.5125 11.5932 19.06C11.5995 18.6294 11.3999 18.6085 11.0801 18.6085C8.48958 18.6159 5.90634 18.6023 3.31579 18.6221C2.83613 18.6221 2.68983 18.4863 2.73059 18.0056C2.7703 17.4517 2.7703 16.8843 2.73059 16.3231C2.69715 15.8717 2.8633 15.7756 3.27608 15.7818C5.87917 15.8027 8.49063 15.7954 11.0927 15.7891C11.3999 15.7891 11.7719 15.9323 11.8524 15.392C11.8796 15.2144 12.1325 15.2489 12.3049 15.2416C12.4721 15.2416 12.6654 15.2687 12.6445 14.9949C12.6246 14.7285 12.4324 14.7692 12.2652 14.7692H8.58154C6.45079 14.7692 4.31376 14.7556 2.18301 14.7765C1.78382 14.7765 1.65633 14.6595 1.6835 14.2561C1.71694 13.7974 1.73052 13.3261 1.6835 12.8663C1.6302 12.3197 1.77755 12.1557 2.34185 12.1619C5.53223 12.1964 8.72889 12.1755 11.9182 12.1755C12.0509 12.1755 12.1847 12.1693 12.3174 12.1755C12.5578 12.1891 12.657 12.0867 12.657 11.8411C12.657 11.5872 12.5578 11.5046 12.3174 11.5046C11.2055 11.512 10.0874 11.5046 8.97446 11.5046C8.75501 11.5046 8.476 11.5799 8.4227 11.2591C8.36209 10.9372 8.58886 10.7658 8.8616 10.677C9.28796 10.5265 9.72791 10.4032 10.147 10.2381C10.6998 10.0134 11.1857 9.68425 11.5253 9.1722C11.9318 8.56923 11.8785 7.85759 11.4124 7.36435C11.1865 7.13061 10.8864 6.98245 10.5634 6.9451C10.2405 6.90776 9.91454 6.98353 9.64117 7.15953C9.04866 7.53573 8.72157 8.12406 8.50212 8.77405C8.28894 9.3906 8.1092 10.0197 7.93573 10.6561C7.86258 10.9435 7.72987 11.095 7.43622 11.0877C7.14362 11.0877 6.9503 11.0051 6.87088 10.6634C6.66397 9.80129 6.43198 8.94543 6.10489 8.11779C5.9053 7.59738 5.58553 7.18043 5.06616 6.94739C4.46006 6.67987 3.82784 6.8105 3.41506 7.29642C2.9887 7.79593 2.92182 8.43234 3.24159 9.0144C3.48194 9.45226 3.84769 9.75322 4.30018 9.92355C4.86657 10.1367 5.43923 10.3353 6.01189 10.5265C6.26478 10.608 6.41839 10.7251 6.3442 11.0187C6.27105 11.327 6.04533 11.3406 5.81125 11.2862C4.90628 11.0741 4.02743 10.7794 3.26876 10.2047C2.54249 9.65708 2.1433 8.94543 2.30318 8.00807C2.44217 7.04353 2.98766 6.39981 3.92711 6.14692C3.97414 6.13334 4.01385 6.08422 4.05356 6.05078H4.95957C6.67128 6.61926 6.79773 8.30903 7.38397 9.71246C8.38195 6.74884 8.44256 6.66002 9.83241 6.05078H10.7384H10.7395Z" fill="#D73650"/>
<path d="M64.3497 21.9421C64.3163 21.9494 64.2766 21.9557 64.2432 21.9703C63.2316 22.3737 63.0247 22.264 62.9118 21.1072C62.8449 20.4363 62.8909 19.7591 62.8721 19.082C62.8721 18.8353 62.8512 18.5751 62.799 18.3358C62.638 17.6242 62.2451 17.3159 61.5993 17.3849C61.0141 17.4465 60.501 17.9732 60.4874 18.5762C60.4609 19.5792 60.4609 20.5828 60.4874 21.5858C60.5083 22.0665 60.2742 22.0665 59.9346 22.0592C59.6149 22.0519 59.3494 22.0926 59.3693 21.5994C59.409 20.6359 59.3891 19.6703 59.3755 18.6984C59.3693 17.8426 59.0025 17.3849 58.3567 17.3713C57.6638 17.3577 57.0118 17.9795 56.9919 18.7256C56.9653 19.6722 56.9653 20.6193 56.9919 21.5659C57.0055 22.0048 56.832 22.0728 56.4652 22.0592C56.1329 22.0456 55.9135 22.0592 55.9135 21.5868C55.9135 20.0057 55.9866 18.4184 55.8664 16.8373C55.8529 16.6931 55.7933 16.4674 56.0263 16.4883C56.3189 16.5092 56.7056 16.2688 56.8916 16.6388C57.018 16.8854 57.0849 16.7746 57.2187 16.7004C58.3034 16.1183 58.9429 16.1873 59.8813 17.0285C60.0945 17.2208 60.1614 17.0912 60.2742 16.9742C60.7811 16.4674 61.3924 16.2897 62.0925 16.3577C63.0508 16.4538 63.8043 17.2616 63.8837 18.364C63.937 19.0746 63.9171 19.7936 63.937 20.5053C63.9506 20.9442 63.9767 21.381 64.3362 21.7028V21.9359L64.3497 21.9421Z" fill="#D73751"/>
<path d="M17.5382 6.05078C18.091 6.36533 18.4777 6.79691 18.5435 7.4678C18.6302 8.28186 18.1913 9.04784 17.5183 9.25998C16.8119 9.47943 16.093 9.15757 15.7607 8.48041C15.421 7.77503 15.6269 6.80318 16.2267 6.33816C16.3594 6.23575 16.4995 6.14692 16.6332 6.05078H17.5382V6.05078Z" fill="#D6354F"/>
<path d="M31.3689 19.949C31.3689 21.2908 31.3626 22.619 31.3689 23.9398C31.3751 24.7748 31.1285 25.5335 30.8161 26.2806C30.7492 26.4437 30.6833 26.6286 30.4566 26.5534C30.1567 26.451 29.8045 26.5116 29.5579 26.2796C29.5244 26.2524 29.6174 26.0748 29.6645 25.9724C30.0637 25.1844 30.21 24.3505 30.21 23.4602C30.1964 19.3272 30.21 15.1942 30.0971 11.0602C30.0898 10.731 30.0971 10.4917 30.5235 10.5398C30.8694 10.5816 31.302 10.3956 31.255 11.0602C31.2152 11.566 31.2424 12.0864 31.3626 12.6747C32.1077 11.5733 33.02 10.8 34.2322 10.4573C38.2209 9.34224 41.7039 12.4835 41.1637 16.7064C40.8042 19.5122 39.3192 21.3597 36.8488 21.8519C34.7515 22.2699 32.8674 21.8457 31.488 19.9971C31.4692 19.9762 31.4284 19.9699 31.349 19.9427L31.3689 19.95V19.949ZM31.3751 16.2403C31.349 17.1233 31.302 17.9645 31.7283 18.7169C32.5873 20.2374 33.9124 20.9898 35.6043 20.9898C37.2752 20.9898 38.6003 20.2918 39.3997 18.7316C39.9525 17.65 40.0716 16.4869 39.965 15.2956C39.8052 13.4689 38.6201 11.9568 36.9763 11.4573C36.129 11.1927 35.2207 11.1952 34.3748 11.4644C33.5289 11.7336 32.7863 12.2565 32.2477 12.9621C31.5016 13.9413 31.2685 15.0699 31.3751 16.2403Z" fill="#D73650"/>
<path d="M21.8928 17.897C21.6336 19.6004 21.7204 19.7237 23.3516 20.1072C24.3841 20.3538 25.3894 20.6955 26.262 21.332C27.7197 22.3937 27.8598 24.631 26.541 25.8767C25.01 27.3344 22.1938 27.1704 20.574 26.1985C20.1686 25.9519 20.6545 25.6091 20.7078 25.3082C20.7684 24.98 20.968 25.1441 21.1279 25.2329C22.2324 25.8422 23.3913 26.0689 24.6297 25.7742C25.5022 25.5621 26.0613 25.0072 26.2348 24.1043C26.402 23.2077 26.0352 22.495 25.1825 21.9893C24.3371 21.4897 23.4112 21.2369 22.4655 21.0247C20.921 20.6757 20.4685 20.1344 20.7276 18.5679C20.8739 17.6985 20.7276 17.0757 20.2678 16.3097C18.763 13.832 20.5677 10.6019 23.4655 10.4859C24.7634 10.4305 26.0676 10.4723 27.3738 10.4378C27.959 10.4242 27.726 10.8349 27.773 11.1087C27.8326 11.464 27.6528 11.533 27.3467 11.4912C27.0008 11.4504 26.6611 11.3344 26.2881 11.4024C27.6664 13.3189 27.8263 15.0431 26.7939 16.5626C25.7823 18.0475 24.0643 18.5199 21.8803 17.8897L21.8928 17.897ZM26.4145 14.4005C26.4145 12.6689 25.2358 11.4024 23.6244 11.4097C22.0067 11.4097 20.8342 12.6752 20.8342 14.4141C20.8342 16.0286 22.0527 17.2878 23.6244 17.3014C25.2692 17.315 26.4145 16.131 26.4145 14.4067V14.4005Z" fill="#D73751"/>
<path d="M49.2676 19.3123C49.2676 17.6016 50.486 16.3633 52.1706 16.3633C53.829 16.3633 55.0213 17.5682 55.014 19.2308C55.0078 20.9341 53.782 22.1798 52.0985 22.1871C50.4526 22.1944 49.2676 20.9895 49.2676 19.3133V19.3123ZM53.922 19.2443C53.9157 18.1492 53.1498 17.3351 52.1371 17.3351C51.0524 17.3351 50.3 18.1565 50.3136 19.3206C50.3199 20.4012 51.1057 21.2152 52.1246 21.2016C53.1696 21.1807 53.9356 20.3594 53.922 19.2443Z" fill="#D73650"/>
<path d="M47.0836 16.3647C47.4567 16.3511 47.8569 16.4399 48.2561 16.5705C48.7556 16.7273 48.8486 16.9739 48.5957 17.4525C48.4421 17.7336 48.3355 17.8015 48.0554 17.6375C47.5434 17.3365 46.9645 17.3365 46.4043 17.4326C45.5056 17.5831 44.9466 18.3564 44.9664 19.3617C44.9925 20.3064 45.6122 21.0316 46.5047 21.1487C47.0575 21.2166 47.5967 21.1487 48.1035 20.8947C48.3292 20.786 48.509 20.7589 48.5549 21.0661C48.5957 21.3127 48.9552 21.6064 48.5351 21.8122C46.6844 22.7214 44.1074 22.1059 43.8942 19.5603C43.7406 17.7336 45.0856 16.3647 47.0909 16.3782L47.0836 16.3647Z" fill="#D73851"/>
<path d="M43.0621 21.0845C43.0548 21.6321 42.6953 22.0281 42.2094 22.0281C41.7036 22.0281 41.3232 21.5976 41.3368 21.0427C41.3577 20.4752 41.7496 20.0708 42.2564 20.099C42.735 20.1199 43.0683 20.5296 43.061 21.0845H43.0621Z" fill="#D83953"/>
</g>
<defs>
<clipPath id="clip0_6459_2370">
<rect width="62.7" height="20.9" fill="white" transform="translate(1.6499 6.05078)"/>
</clipPath>
</defs>
</svg>
