<svg width="84" height="36" viewBox="0 0 84 36" fill="none" xmlns="http://www.w3.org/2000/svg">
<mask id="mask0_3418_2161" style="mask-type:alpha" maskUnits="userSpaceOnUse" x="0" y="0" width="84" height="36">
<rect width="84" height="36" fill="#C4C4C4"/>
</mask>
<g mask="url(#mask0_3418_2161)">
</g>
<g clip-path="url(#clip0_3418_2161)">
<path d="M28.8661 9C28.9401 10.556 28.3061 11.76 27.0761 12.674C26.6371 12.999 26.1441 13.148 25.6181 13.216C25.3741 13.25 25.3141 13.162 25.3071 12.918C25.2531 11.375 26.1651 9.968 27.6501 9.291H27.6571L27.6841 9.277C27.6841 9.277 27.7181 9.257 27.7381 9.25C27.7521 9.244 27.7651 9.244 27.7851 9.244C27.7991 9.244 27.8121 9.237 27.8191 9.237C27.8791 9.23 27.9541 9.223 28.0011 9.189C28.0011 9.189 28.0011 9.183 28.0081 9.183C28.2921 9.095 28.6771 9 28.8591 9H28.8661V9ZM18.0001 18.69C17.9882 18.101 18.0589 17.5133 18.2101 16.944C18.7771 14.84 20.5931 13.446 22.7141 13.494C23.2586 13.5134 23.7907 13.6615 24.2671 13.926C25.0301 14.332 25.7531 14.332 26.5221 13.94C27.5821 13.398 28.6901 13.263 29.8521 13.595C30.7161 13.838 31.3921 14.359 31.9921 15.009C32.2081 15.239 31.9921 15.279 31.8711 15.368C30.8441 16.112 30.2301 17.107 30.1831 18.386C30.1291 20.03 30.8381 21.262 32.3161 21.999C32.5731 22.128 32.6001 22.236 32.5121 22.479C31.9791 23.928 31.2291 25.234 30.1291 26.323C29.4191 27.02 28.5691 27.156 27.6371 26.858C27.4607 26.8009 27.2889 26.7307 27.1231 26.648C26.1111 26.188 25.1111 26.208 24.0781 26.648C22.5311 27.311 21.6941 27.074 20.6271 25.748C18.9321 23.63 18.0001 21.174 18.0001 18.69ZM41.6291 25.89C40.9941 26.08 40.6231 25.863 40.4131 25.281C40.2991 24.97 40.1091 24.686 39.9411 24.388C39.7181 23.995 39.2251 23.82 38.7791 23.948C38.6041 23.995 38.6441 24.111 38.6441 24.226C38.6441 24.699 38.6241 25.173 38.6441 25.64C38.6641 26.019 38.4211 25.93 38.2191 25.938C38.0161 25.938 37.8271 25.985 37.8341 25.647C37.8541 24.158 37.8471 22.669 37.8341 21.181C37.8341 20.944 37.8941 20.883 38.1311 20.89C38.7661 20.91 39.3941 20.89 40.0281 20.91C40.7381 20.93 41.2641 21.302 41.4331 21.884C41.6431 22.602 41.3931 23.366 40.7711 23.732C40.5411 23.867 40.5891 23.975 40.6771 24.138C40.9871 24.72 41.3051 25.295 41.6291 25.898V25.89ZM39.4071 23.3H39.9341C40.3121 23.3 40.5341 23.09 40.6561 22.765C40.9001 22.115 40.5011 21.533 39.7991 21.533C39.4211 21.533 38.9211 21.371 38.7051 21.601C38.5151 21.797 38.6371 22.298 38.6371 22.657C38.6371 23.307 38.6371 23.307 39.4071 23.3ZM60.1521 24.198H59.0521C58.9101 24.198 58.7821 24.212 58.8361 24.422C58.9301 24.807 59.0861 25.166 59.4841 25.295C59.8891 25.423 60.3281 25.423 60.6121 25.065C60.8341 24.787 61.0921 24.875 61.3271 24.895C61.5371 24.915 61.4021 25.085 61.3551 25.193C61.0851 25.741 60.2401 26.127 59.5921 25.985C58.3161 25.715 57.7621 24.598 58.1941 23.184C58.4711 22.284 59.3291 21.796 60.2671 22.047C61.2271 22.297 61.5171 23.055 61.5231 24.016C61.5231 24.232 61.3881 24.198 61.2601 24.198H60.1521ZM59.7941 23.644H60.5371C60.6931 23.644 60.8011 23.637 60.7331 23.427C60.6181 23.062 60.4631 22.737 60.0441 22.669C59.6191 22.601 59.2341 22.669 58.9981 23.102C58.7281 23.589 58.7481 23.637 59.3081 23.637H59.7881L59.7951 23.644H59.7941ZM45.6061 24.848C45.4241 25.558 44.8431 25.978 44.0461 26.018C43.3711 26.059 42.6691 25.66 42.4331 25.078C42.1541 24.4049 42.1516 23.649 42.4261 22.974C42.6821 22.331 43.4051 21.904 44.0871 21.972C44.8841 22.053 45.4921 22.608 45.6131 23.366V23.454C45.6721 23.946 45.4531 24.192 44.9581 24.192C44.3841 24.192 43.8101 24.198 43.2361 24.192C42.9861 24.192 42.9191 24.28 42.9801 24.503C43.0871 24.868 43.2501 25.2 43.6481 25.302C44.0601 25.403 44.4851 25.41 44.7761 25.038C45.0191 24.719 45.3231 24.977 45.6001 24.841L45.6061 24.848ZM42.9931 23.644H44.7021C44.8971 23.644 44.9111 23.569 44.8701 23.4C44.7491 22.879 44.4381 22.629 43.8981 22.656C43.3511 22.676 43.0611 22.987 42.9861 23.644H42.9931ZM52.0491 24.198C51.7111 24.198 51.3731 24.212 51.0361 24.198C50.7591 24.185 50.6911 24.3 50.7661 24.537C50.8801 24.895 51.0361 25.241 51.4481 25.322C51.8601 25.403 52.2781 25.41 52.5681 25.031C52.7711 24.767 53.0281 24.889 53.2511 24.916C53.3861 24.929 53.2911 25.106 53.2511 25.2C53.0081 25.741 52.1431 26.127 51.4881 25.999C50.2731 25.762 49.8681 24.862 49.9821 23.745C50.0901 22.737 50.5901 22.189 51.4001 22.026C52.5821 21.796 53.5001 22.683 53.3921 24.043C53.3791 24.233 53.2571 24.198 53.1491 24.205H52.0491V24.198ZM52.6491 23.644C52.5751 22.974 52.3461 22.696 51.8391 22.662C51.2721 22.622 50.8871 22.892 50.7661 23.407C50.7261 23.569 50.7461 23.65 50.9411 23.65C51.5081 23.644 52.0831 23.65 52.6501 23.65V23.644H52.6491ZM46.6801 24.889C46.8221 24.889 46.9701 24.889 47.1061 25.099C47.3691 25.484 48.0511 25.519 48.4161 25.22C48.7131 24.977 48.6791 24.659 48.3081 24.496C48.0441 24.381 47.7481 24.341 47.4631 24.266C47.0781 24.165 46.6931 24.063 46.4641 23.691C46.0931 23.089 46.4041 22.405 47.1741 22.094C47.8341 21.83 48.7541 22.047 49.0911 22.547C49.1991 22.703 49.3611 22.967 49.1991 23.041C49.0171 23.136 48.7131 23.224 48.4971 22.94C48.3671 22.7699 48.1805 22.6518 47.9711 22.607C47.7617 22.5623 47.5432 22.5938 47.3551 22.696C47.1871 22.784 47.0651 22.92 47.0651 23.109C47.0651 23.299 47.1871 23.441 47.3691 23.495C47.7611 23.61 48.1591 23.705 48.5511 23.813C48.9761 23.935 49.2871 24.178 49.3271 24.652C49.3751 25.18 49.1791 25.545 48.7271 25.768C48.0981 26.073 47.4571 26.073 46.8221 25.775C46.6192 25.6833 46.451 25.5291 46.3421 25.335C46.1261 24.943 46.1741 24.875 46.6671 24.882L46.6801 24.889ZM63.1041 22.703C63.4211 22.203 63.7721 22.006 64.2581 22.013C64.6161 22.013 64.5081 22.256 64.5151 22.439C64.5281 22.609 64.5691 22.771 64.2721 22.771C63.3741 22.771 63.1241 23.055 63.1241 23.975C63.1241 24.537 63.1041 25.099 63.1241 25.653C63.1371 25.999 62.9211 25.924 62.7251 25.938C62.4951 25.958 62.3811 25.918 62.3881 25.64C62.4016 24.564 62.4016 23.488 62.3881 22.412C62.3881 22.128 62.4551 22.04 62.7461 22.04C63.0221 22.04 63.1581 22.1 63.1041 22.399C63.0901 22.453 63.1041 22.514 63.1041 22.696V22.703ZM54.3651 23.251C54.3651 22.5 54.3791 21.749 54.3651 20.998C54.3581 20.714 54.4261 20.612 54.7231 20.626C54.9731 20.639 55.1081 20.646 55.1081 20.971C55.0881 22.5 55.0941 24.036 55.1081 25.565C55.1081 25.843 55.0541 25.945 54.7501 25.945C54.4331 25.945 54.3581 25.843 54.3721 25.545C54.3921 24.78 54.3791 24.015 54.3791 23.245L54.3651 23.251ZM57.1001 23.292C57.1001 24.07 57.0801 24.855 57.1071 25.633C57.1201 25.958 56.9451 25.938 56.7291 25.938C56.5191 25.938 56.3771 25.951 56.3771 25.653C56.3911 24.063 56.3911 22.473 56.3771 20.89C56.3771 20.551 56.5801 20.653 56.7561 20.64C56.9511 20.626 57.1141 20.605 57.1061 20.91C57.0861 21.701 57.1001 22.5 57.1001 23.292ZM49.8201 14.935C50.7321 14.122 51.3401 14.129 52.0151 15.002C52.3331 14.474 52.8121 14.292 53.4001 14.352C53.9001 14.4 54.3181 14.745 54.3381 15.239C54.3781 16.153 54.3651 17.066 54.3651 17.979C54.3651 18.325 54.0821 18.122 53.9331 18.162C53.7641 18.202 53.6291 18.176 53.6361 17.925C53.6491 17.201 53.6431 16.485 53.6361 15.76C53.6361 15.286 53.4201 15.043 52.9741 15.002C52.5761 14.968 52.1841 15.246 52.1241 15.645C52.0221 16.362 52.0831 17.086 52.0891 17.804C52.0891 18.142 51.9541 18.162 51.6841 18.176C51.3671 18.189 51.3341 18.061 51.3401 17.796C51.3531 17.134 51.3401 16.471 51.3401 15.807C51.3401 15.287 51.0901 15.002 50.6371 14.995C50.424 15.0015 50.2214 15.0893 50.0709 15.2402C49.9203 15.3911 49.8331 15.5939 49.8271 15.807C49.8136 16.4703 49.8136 17.1337 49.8271 17.797C49.8341 18.074 49.7731 18.176 49.4691 18.176C49.1651 18.176 49.0781 18.088 49.0841 17.783C49.1041 16.795 49.0911 15.807 49.0841 14.819C49.0841 14.589 49.0511 14.407 49.4091 14.407C49.7661 14.407 49.7931 14.562 49.7591 14.827C49.7591 14.86 49.7331 14.921 49.8071 14.927L49.8201 14.935ZM62.4821 14.996C63.0021 14.116 64.1981 14.129 64.6501 15.009C64.9681 14.468 65.4541 14.292 66.0411 14.346C66.5811 14.393 66.9731 14.779 66.9801 15.327C66.9931 16.18 66.9731 17.039 66.9931 17.892C67.0001 18.217 66.8181 18.156 66.6291 18.162C66.4331 18.162 66.2571 18.196 66.2711 17.885C66.2911 17.161 66.2841 16.437 66.2711 15.72C66.2711 15.253 66.0211 15.01 65.5751 14.996C65.1231 14.982 64.7651 15.293 64.7581 15.726C64.7451 16.436 64.7381 17.141 64.7581 17.851C64.7721 18.162 64.6371 18.183 64.3941 18.169C64.1841 18.162 64.0021 18.196 64.0151 17.865C64.0421 17.188 64.0291 16.511 64.0221 15.828C64.0221 15.3 63.7451 15.002 63.2791 14.996C63.0659 15.0007 62.8626 15.0867 62.7107 15.2363C62.5589 15.3859 62.4699 15.5879 62.4621 15.801C62.4421 16.477 62.4421 17.161 62.4621 17.838C62.4761 18.128 62.3681 18.183 62.1111 18.169C61.8881 18.156 61.6991 18.209 61.7061 17.844C61.7331 16.843 61.7191 15.841 61.7061 14.84C61.7061 14.583 61.6861 14.414 62.0561 14.407C62.4151 14.407 62.4891 14.535 62.4421 14.833C62.4421 14.86 62.4421 14.894 62.4551 14.996H62.4821ZM37.8471 15.665C37.8471 14.941 37.8541 14.225 37.8471 13.5C37.8471 13.25 37.9151 13.168 38.1651 13.175C38.7391 13.195 39.3131 13.175 39.8801 13.182C40.8321 13.202 41.4601 13.845 41.4741 14.806C41.482 15.2349 41.3217 15.65 41.0276 15.9623C40.7334 16.2745 40.3287 16.4593 39.9001 16.477C39.6101 16.491 39.3061 16.511 39.0221 16.477C38.6721 16.437 38.6041 16.586 38.6311 16.897C38.6581 17.222 38.6111 17.547 38.6441 17.865C38.6781 18.189 38.5021 18.189 38.2791 18.169C38.0841 18.156 37.8341 18.264 37.8471 17.879C37.8741 17.141 37.8541 16.403 37.8541 15.672L37.8471 15.665ZM38.6311 14.799C38.6311 15.453 38.9551 15.779 39.6031 15.774H39.6501C40.2921 15.767 40.6631 15.442 40.6701 14.887C40.6831 14.231 40.3191 13.859 39.6571 13.832C38.9771 13.809 38.6371 14.132 38.6371 14.799H38.6311ZM48.1391 17.174C47.9571 17.973 47.1391 18.338 46.2621 18.237C45.4381 18.142 44.9041 17.52 44.8101 16.613C44.6951 15.523 45.1141 14.677 45.9441 14.441C47.4441 14.014 48.2201 15.002 48.2471 16.261C48.2471 16.491 48.1321 16.484 47.9701 16.484C47.2681 16.484 46.5591 16.491 45.8561 16.484C45.5861 16.484 45.4921 16.511 45.5791 16.822C45.7891 17.58 46.6261 17.912 47.2271 17.398C47.5171 17.148 47.7941 17.154 48.1321 17.188L48.1391 17.174ZM46.4901 15.923C46.7131 15.923 46.9301 15.909 47.1521 15.923C47.4561 15.95 47.5171 15.814 47.4221 15.563C47.2871 15.198 47.0301 14.995 46.6391 14.962C46.2071 14.928 45.8551 15.07 45.6531 15.462C45.4571 15.842 45.5041 15.916 45.9231 15.916H46.4971L46.4901 15.922V15.923ZM59.8961 17.54C59.5241 18.203 58.9911 18.325 58.3901 18.223C57.8021 18.122 57.4511 17.703 57.4381 17.08C57.4181 16.288 57.4441 15.49 57.4241 14.698C57.4171 14.38 57.6001 14.427 57.7891 14.434C57.9641 14.434 58.1671 14.366 58.1541 14.698C58.1271 15.348 58.1401 15.99 58.1541 16.64C58.1541 17.262 58.3901 17.526 58.9241 17.547C59.5111 17.567 59.8821 17.256 59.9091 16.667C59.9361 16.0333 59.9361 15.3987 59.9091 14.765C59.8961 14.434 60.0441 14.434 60.2941 14.42C60.5781 14.407 60.6661 14.488 60.6591 14.779C60.6388 15.7802 60.6388 16.7818 60.6591 17.783C60.6591 18.088 60.5911 18.169 60.2811 18.183C59.9431 18.189 59.8821 18.061 59.9231 17.777C59.9231 17.736 59.9231 17.689 59.9091 17.547L59.8961 17.54ZM43.0271 14.914C43.2701 14.589 43.5471 14.414 43.8911 14.359C44.3441 14.292 44.4111 14.366 44.3981 14.833C44.3981 15.036 44.3301 15.063 44.1411 15.07C43.2501 15.104 43.0411 15.327 43.0411 16.207C43.0411 16.768 43.0211 17.323 43.0471 17.885C43.0671 18.237 42.8441 18.162 42.6551 18.162C42.4661 18.162 42.2431 18.25 42.2501 17.892C42.2701 16.89 42.2501 15.889 42.2641 14.887C42.2641 14.684 42.1361 14.393 42.5611 14.413C42.8711 14.427 43.1551 14.413 43.0271 14.914ZM56.2831 16.329C56.2831 16.843 56.2631 17.357 56.2901 17.871C56.3031 18.156 56.1681 18.189 55.9521 18.162C55.7701 18.142 55.5401 18.25 55.5471 17.892C55.5671 16.836 55.5671 15.774 55.5471 14.718C55.5401 14.38 55.7291 14.434 55.9321 14.42C56.1751 14.407 56.3101 14.434 56.2901 14.738C56.2631 15.266 56.2831 15.794 56.2831 16.328V16.329ZM55.9321 13.73C55.6421 13.703 55.4391 13.56 55.4321 13.27C55.4321 12.986 55.6421 12.803 55.9121 12.803C56.1551 12.803 56.3571 12.952 56.3781 13.229C56.3981 13.547 56.1821 13.656 55.9321 13.723V13.73Z" fill="#010101"/>
</g>
<defs>
<clipPath id="clip0_3418_2161">
<rect width="49" height="18" fill="white" transform="translate(18 9)"/>
</clipPath>
</defs>
</svg>
