<svg width="59" height="30" viewBox="0 0 59 30" fill="none" xmlns="http://www.w3.org/2000/svg">
<path d="M48.1746 7.65249C47.7693 6.3026 47.0788 4.58496 45.7803 3.1942C45.2534 2.62216 44.4007 1.88516 43.2238 1.80344L42.6159 1.72172C40.5864 1.59914 38.4773 1.47656 36.4072 1.47656C34.4993 1.47656 32.4712 1.55828 29.9959 1.76258C28.0474 1.92602 25.7357 2.13032 23.4224 2.54044C21.0686 2.94904 18.6743 3.48174 16.4421 4.01292C14.8194 4.42152 13.2778 4.99507 11.8982 5.77142C10.6403 6.46755 9.86869 7.48905 9.62551 8.79809C9.46339 9.61681 9.3418 10.3931 9.3418 11.2119C9.3418 13.0945 9.54445 15.0981 10.0323 17.3076C10.316 18.6166 10.6403 19.9665 10.966 21.2756C11.1281 22.0126 11.3308 22.748 11.4929 23.4442C11.7766 24.5898 12.6698 24.5898 13.0346 24.5081C13.5209 24.4263 14.0088 24.3855 14.4952 24.3038H14.6573C15.0221 24.2629 15.4289 24.222 15.7937 24.1812C16.0368 25.245 16.6058 26.144 17.3759 26.8401C18.3096 27.618 19.4054 28.0266 20.5402 28.0266C20.7024 28.0266 20.905 28.0266 21.0671 27.9857C22.4061 27.8223 23.583 27.2078 24.4357 26.144C25.1262 25.2844 25.491 24.1812 25.5315 23.0356L34.175 22.0534C34.2966 23.3216 34.825 24.4672 35.7167 25.3268C36.772 26.3498 38.2326 26.8401 39.6932 26.6358C41.0322 26.4724 42.1685 25.858 42.9807 24.7956C43.8738 23.65 44.1981 22.341 43.9954 20.9093L44.4007 20.8685C45.2939 20.7459 46.1856 20.6642 47.0787 20.5825C47.8098 20.5007 48.0935 19.9696 48.1746 19.8046C48.742 18.6181 49.0272 17.2682 49.1083 15.5506C49.3109 12.8508 48.9867 10.1919 48.1746 7.65552V7.65249ZM46.5518 15.3841C46.5113 16.0394 46.3492 16.6932 46.2276 17.3893C46.1871 17.6345 46.1465 17.8388 46.0655 18.0839C44.9697 18.2065 43.8738 18.3291 42.9011 18.4517C41.8053 17.1018 40.1825 16.4056 38.5178 16.6099C36.8951 16.8142 35.475 17.7964 34.6629 19.3097C33.7292 19.3915 32.7955 19.514 31.8633 19.6366L30.0769 19.8409C29.0622 19.9635 28.0894 20.0861 27.0747 20.2087C26.7504 20.2495 26.3841 20.2904 26.0599 20.3312C25.6546 20.3721 25.2883 20.413 24.883 20.4538C23.7872 18.6545 22.1239 17.754 20.0133 17.9175C18.1474 18.04 16.3611 19.5942 15.8342 21.4768C15.2262 21.5177 14.5762 21.5994 13.7641 21.722C13.602 20.9441 13.3994 20.2087 13.2372 19.4308C12.9941 18.3261 12.7509 17.2213 12.5062 16.1166C12.5872 16.1575 12.7088 16.1983 12.8304 16.1983C13.0736 16.1983 13.2763 16.2392 13.5209 16.2392H14.9815V12.1895H15.0221C15.2653 12.1486 15.549 12.1895 15.8342 12.1895C15.7531 13.0491 15.8747 13.9071 16.28 14.6033C17.0111 15.8714 18.3096 16.3209 19.527 16.3209C20.2986 16.3209 21.0686 16.1575 21.597 15.8714C22.0023 15.6671 22.1645 15.2585 22.2065 14.9301V14.4807C22.5713 15.2585 23.1807 15.8306 23.9103 16.1166C24.6413 16.3618 25.4519 16.3209 26.2235 15.9532C26.6694 16.3209 27.2383 16.2392 27.522 16.2392H27.7652L28.3731 16.3209H29.2258C29.6311 16.3209 29.9974 16.3209 30.4027 16.28C31.3364 16.28 32.3091 16.2392 33.2428 16.1575C34.0549 16.0757 34.7034 15.5839 35.1087 14.8893C35.3924 15.6263 36.0019 16.1166 36.8936 16.28C37.0557 16.3209 37.2583 16.3209 37.4205 16.3209C37.8258 16.3209 38.192 16.2392 38.5163 16.0757V16.2392H40.3011C40.7064 16.28 40.9917 16.1575 41.2348 15.9532L41.2754 15.9123L41.6401 15.994C41.8023 16.0349 41.9644 16.0757 42.128 16.1166C42.4928 16.1983 42.8981 16.28 43.3049 16.3209C43.5076 16.3618 43.7102 16.3618 43.8723 16.3618C44.6439 16.3618 45.2519 16.1575 45.8193 15.7489C46.103 15.5037 46.3462 15.2177 46.5503 14.9301V15.3796L46.5518 15.3841ZM39.1663 24.0162C37.8678 24.0162 36.853 23.0341 36.853 21.6842C36.853 20.3343 37.8678 19.3521 39.1258 19.3521C39.7337 19.3521 40.3432 19.5973 40.789 20.0467C41.2348 20.4962 41.478 21.0697 41.478 21.6827C41.478 22.9917 40.4633 24.0147 39.1648 24.0147L39.1663 24.0162ZM18.3096 22.8298C18.3501 22.2577 18.6338 21.6842 19.0811 21.2756C19.527 20.9078 20.0554 20.7035 20.5823 20.7035H20.7444C22.2455 20.8261 22.8955 22.0126 22.8955 23.1173C22.8955 23.6908 22.6523 24.2629 22.205 24.7124C21.7186 25.1618 21.1092 25.4085 20.5012 25.3676C19.8918 25.3268 19.3243 25.0408 18.8785 24.5898C18.4732 24.0979 18.2705 23.485 18.3111 22.8313L18.3096 22.8298ZM12.913 8.2654C13.9278 7.61163 15.1046 7.20152 16.1599 6.87464C18.5948 6.09678 21.2323 5.52474 24.3156 5.07528C26.5478 4.7484 28.4947 4.5441 30.3216 4.42152C32.9186 4.25808 35.5155 4.1355 38.0314 4.1355C39.2894 4.1355 40.5879 4.21722 41.8458 4.3398C42.2106 4.3398 42.5769 4.38066 42.9416 4.42152C43.2659 4.46238 43.5901 4.62582 43.9969 5.11765C44.6454 5.85465 45.1333 6.75357 45.5791 8.10347C45.7007 8.47121 45.8223 8.88133 45.9439 9.28993C45.8223 9.20821 45.7007 9.16735 45.5791 9.12649L45.4575 9.08563C45.0117 9.00391 44.5238 8.92219 43.9969 8.92219C43.0632 8.92219 42.2931 9.28993 41.6837 9.9452C41.6431 9.98606 41.6432 10.0269 41.6026 10.0269L41.5216 9.24907H38.5598V13.2579C38.5193 13.2579 38.4788 13.2988 38.3572 13.3396C38.2761 13.3805 38.195 13.3805 38.1545 13.3396C38.1545 13.2988 38.114 13.2579 38.114 13.1353V10.1495L37.9924 9.24907H35.3144C35.2738 8.92218 35.1928 8.63616 35.0712 8.34863C34.7064 7.61163 34.0564 7.12131 33.2038 7.03959C32.2716 6.91701 31.3379 6.95787 30.4447 6.95787C30.0799 6.95787 29.6746 6.99873 29.2678 6.99873H28.7409V6.91701H25.6981V9.04477C24.2375 8.92219 23.1012 9.45337 22.4106 10.599C22.0053 9.82111 21.3959 9.33079 20.5853 9.08563C19.3273 8.67702 18.0288 8.96305 17.0546 9.78176C16.8925 9.41402 16.5682 9.12649 16.202 9.08563C15.7156 9.00391 15.2683 9.04477 14.863 9.20821V9.08563L12.266 9.24907C12.266 9.16735 12.3065 9.08563 12.3065 9.00391C12.3471 8.84047 12.4281 8.55444 12.9145 8.26691L12.913 8.2654ZM46.4303 11.9473C46.4303 12.0291 46.4303 12.0699 46.4708 12.1516C46.4708 12.1516 46.4708 12.1108 46.4303 12.1108V11.9473ZM34.7845 11.2527C34.825 11.171 34.9061 11.0893 34.9466 11.0076C34.9871 10.9667 34.9871 10.9258 35.0277 10.885V11.457C34.9466 11.3753 34.8655 11.2936 34.7845 11.2527ZM32.0254 10.2297H31.7417V9.73939H31.9849C31.9849 9.78025 32.0254 9.86197 32.0254 10.0663C32.0659 10.1888 32.0254 10.2297 32.0254 10.2297ZM31.7417 12.6435C31.9038 12.6435 32.0659 12.6435 32.2281 12.6843C32.3496 12.6843 32.3496 12.9704 32.3496 13.0521C32.3496 13.3381 32.3091 13.3381 32.147 13.379H31.7012V12.6435H31.7417ZM25.6951 13.3396C25.533 13.4213 25.3709 13.4213 25.2898 13.3396C25.1682 13.2579 25.0872 13.0945 25.0872 12.8902C25.0466 12.5633 25.0872 12.2364 25.1277 11.9489C25.1277 11.8671 25.1682 11.8263 25.2493 11.7854C25.2898 11.7854 25.3709 11.7446 25.4519 11.7446C25.533 11.7446 25.6141 11.7446 25.6951 11.7854V13.3396Z" fill="white"/>
<path d="M24.7209 22.297C25.0046 24.9968 23.2198 26.9202 21.0281 27.1654C19.8917 27.288 18.8364 26.9202 17.9448 26.1833C17.0516 25.4463 16.6058 24.4656 16.4842 23.2792C15.8357 23.3609 15.1857 23.4017 14.5762 23.4835C14.0088 23.5652 13.4399 23.606 12.8725 23.6878C12.4672 23.7695 12.3456 23.606 12.2645 23.2368C11.7781 21.1923 11.2497 19.1871 10.8039 17.1002C10.3986 15.1374 10.1554 13.1731 10.1554 11.2088C10.1554 10.4718 10.277 9.69544 10.4391 8.95844C10.6418 7.8537 11.3323 7.03499 12.3065 6.50381C13.6861 5.72595 15.1467 5.19477 16.6478 4.82703C18.9205 4.25499 21.2338 3.72229 23.5455 3.35455C25.6966 2.98681 27.8868 2.78251 30.0784 2.5767C32.189 2.41326 34.2981 2.29067 36.4087 2.29067C38.6814 2.29067 40.9121 2.45412 43.1848 2.5767C43.9969 2.61756 44.6454 3.10788 45.2143 3.72229C46.3101 4.90875 46.9181 6.34037 47.406 7.89456C48.1776 10.3492 48.5018 12.9264 48.3397 15.5036C48.2586 16.8535 48.056 18.2034 47.487 19.4716C47.406 19.6759 47.2844 19.7576 47.0397 19.7985L43.6306 20.1662C43.4685 20.2071 43.2659 20.2071 43.0617 20.2479C43.5075 21.7204 43.3454 23.1112 42.3727 24.2976C41.6822 25.1981 40.75 25.6884 39.6541 25.811C37.3004 26.097 34.825 24.2568 35.0276 21.106C31.578 21.5146 28.1705 21.9247 24.7209 22.2925V22.297ZM11.0861 11.4161C11.2482 12.9294 11.3293 14.2793 11.5725 15.6292C11.9778 17.8387 12.5467 19.9649 13.0331 22.1744C13.1141 22.6254 13.3168 22.6254 13.6831 22.583C14.4546 22.4604 15.2653 22.3787 16.0368 22.297C16.3611 22.2561 16.5232 22.1744 16.5637 21.8475C16.9285 20.2525 18.4717 18.9026 20.0539 18.78C21.9603 18.6166 23.3398 19.4338 24.2735 21.0712C24.3951 21.2755 24.4762 21.3572 24.7194 21.3164C25.5315 21.2346 26.3421 21.1529 27.1542 21.0303C28.4122 20.8669 29.6296 20.7443 30.8875 20.5809C32.2265 20.4174 33.5655 20.254 34.9451 20.1314C35.1883 20.0906 35.2693 20.0088 35.3909 19.8045C36.7299 16.9822 40.4227 16.5736 42.3712 19.0267C42.5333 19.231 42.6549 19.2718 42.8981 19.2718C44.075 19.1493 45.2113 18.9858 46.3882 18.8617C46.6314 18.8209 46.7935 18.7391 46.834 18.494C47.0367 17.471 47.3204 16.4888 47.3609 15.4264C47.5231 12.8084 47.1583 10.272 46.3462 7.81738C45.9409 6.63093 45.453 5.52619 44.6019 4.58489C44.156 4.09457 43.6697 3.68446 43.0197 3.60274C41.3564 3.48016 39.6932 3.31672 38.0284 3.31672C35.4314 3.31672 32.8345 3.4393 30.2781 3.60274C28.2485 3.72532 26.2205 3.97048 24.2315 4.2565C21.4319 4.6651 18.6323 5.23866 15.9543 6.09672C14.7774 6.46446 13.56 6.91544 12.5047 7.61006C12.0183 7.93694 11.652 8.30619 11.5304 8.87823C11.3278 9.73781 11.2062 10.6367 11.0846 11.4146L11.0861 11.4161ZM39.1663 24.8334C40.9106 24.8334 42.2901 23.4426 42.2901 21.725C42.2901 20.0073 40.87 18.5757 39.1257 18.5757C37.3814 18.5757 36.0424 19.9665 36.0424 21.725C36.0424 23.4835 37.4219 24.8334 39.1678 24.8334H39.1663ZM23.7466 23.0749C23.7466 21.3981 22.6508 19.9665 20.866 19.8439C19.1622 19.7213 17.619 21.0712 17.538 22.748C17.4569 24.5488 18.7554 26.0198 20.4997 26.1439C22.2035 26.2665 23.7466 24.8349 23.7466 23.0764V23.0749Z" fill="#C9323E"/>
<path d="M29.3068 7.77501C30.6053 7.77501 31.8633 7.65243 33.1212 7.81587C34.6223 8.02017 34.7845 9.69695 34.2981 10.5974C34.0954 10.9243 33.6901 11.1286 33.4455 11.3752C33.6076 11.457 33.8102 11.5387 34.0129 11.6613C34.7019 12.1107 35.0277 12.766 34.825 13.7073C34.6629 14.5669 34.1345 15.2206 33.2833 15.3432C31.9849 15.5066 30.6459 15.4658 29.3474 15.5066C29.3068 12.8069 29.3068 10.2705 29.3068 7.77501ZM30.9296 14.1568C31.3754 14.1568 31.8227 14.1976 32.2686 14.1568C32.8765 14.075 33.1617 13.7073 33.1617 13.052C33.1617 12.3967 32.878 11.9064 32.3091 11.8247C31.8633 11.7838 31.3754 11.8247 30.9296 11.8247V14.1568ZM30.9296 8.96147V11.0892H31.9849C32.5538 11.0892 32.8375 10.7215 32.878 10.1888C32.9186 9.49265 32.5943 9.04319 32.0659 9.00233C31.6606 8.92061 31.3349 8.96147 30.9296 8.96147ZM27.9678 15.3841C27.4409 15.3432 26.8315 15.6701 26.5478 14.8937C26.3451 14.9755 26.2235 15.0572 26.0614 15.1389C24.844 15.7942 23.5455 15.3841 23.0186 14.1159C22.5728 13.0929 22.5728 12.0699 23.0997 11.0892C23.7482 9.94362 24.925 9.69846 26.1425 9.94362C26.264 9.98448 26.3451 10.0253 26.5478 10.0662V7.73415H27.9678V15.3841ZM26.5072 12.5617V11.6204C26.5072 11.4978 26.4667 11.3752 26.4262 11.2935C25.8587 10.8032 24.5603 10.8032 24.3561 11.7838C24.275 12.1516 24.2345 12.5617 24.2751 12.9703C24.3561 14.0342 25.2493 14.5245 26.183 14.0342C26.4262 13.9116 26.5883 13.7482 26.5478 13.4621C26.4667 13.1353 26.5072 12.8492 26.5072 12.5617ZM22.1645 12.9703H18.2285C18.269 13.6664 18.7554 14.2385 19.4864 14.1976C20.1364 14.1568 20.7849 14.0342 21.4754 13.9116V14.8937C21.4754 14.9755 21.3944 15.098 21.3538 15.1389C20.177 15.7109 17.9853 15.7942 17.0531 14.1976C16.4857 13.1746 16.5667 11.6613 17.2558 10.7608C17.9868 9.81953 19.2042 9.45179 20.3796 9.81953C21.2728 10.1056 21.7592 10.8017 22.0023 11.7006C22.0834 12.1092 22.0834 12.4785 22.1645 12.9688V12.9703ZM20.6633 12.2333C20.7444 11.6204 20.1364 10.9651 19.4864 10.9651C18.7149 10.9243 18.188 11.4146 18.188 12.2333H20.6633ZM39.3689 15.4249C39.3284 15.2206 39.3284 15.0572 39.3284 14.8514C39.1257 14.974 38.9231 15.0557 38.7595 15.1374C38.2731 15.3826 37.7447 15.5869 37.1773 15.4643C36.4072 15.3008 35.9193 14.8499 35.8788 14.0327C35.8383 12.7236 35.8788 11.4146 35.8788 10.0647H37.2989V13.1322C37.2989 13.9101 37.7447 14.2778 38.5163 14.1144C39.1663 13.9918 39.3689 13.7058 39.3689 13.0096V10.0647H40.789C40.789 10.1873 40.8295 10.3507 40.8295 10.4733V14.9724C40.8295 15.2993 40.7485 15.4219 40.3837 15.4219C40.0189 15.381 39.6947 15.4219 39.3689 15.4219V15.4249ZM41.8443 15.1798V13.9116C42.4943 14.0342 43.1428 14.1568 43.7928 14.2385C43.9549 14.2793 44.1575 14.2385 44.2791 14.1568C44.4412 14.0342 44.6844 13.8299 44.725 13.6664C44.725 13.503 44.5223 13.217 44.3197 13.1761C43.9143 13.0535 43.467 13.0127 43.0617 12.931C41.9254 12.6858 41.52 11.295 42.2916 10.4355C42.7375 9.90428 43.3064 9.69846 43.9954 9.69846C44.4818 9.69846 44.9696 9.78018 45.456 9.8619C45.5371 9.8619 45.6587 10.0253 45.6587 10.1071C45.6992 10.4748 45.6587 10.8032 45.6587 11.1709L44.0765 10.9258C43.9143 10.9258 43.7522 10.9258 43.6306 11.0075C43.4685 11.0892 43.2659 11.2935 43.3064 11.4161C43.3064 11.5387 43.509 11.7838 43.6712 11.8247C43.9954 11.9473 44.3602 11.9473 44.7265 12.029C45.4155 12.1516 45.9033 12.4785 46.106 13.1746C46.3087 13.8707 45.9844 14.6471 45.4155 15.0965C44.8466 15.546 44.1575 15.5869 43.467 15.5051C42.8996 15.4234 42.3712 15.26 41.8443 15.1783V15.1798ZM12.7103 10.0253L14.1709 9.90276C14.1709 10.0662 14.2115 10.1888 14.2115 10.3931C14.4141 10.2705 14.5762 10.2296 14.6978 10.1071C15.1437 9.82104 15.591 9.73932 16.1179 9.82104C16.2395 9.82104 16.3611 9.98448 16.3611 10.1071C16.4016 10.5565 16.3611 11.0075 16.3611 11.3752C15.8747 11.3344 15.3869 11.2527 14.9005 11.3344C14.291 11.4161 14.1289 11.6613 14.1289 12.2757V15.3841H12.871C12.7899 15.3841 12.6683 15.1389 12.6683 15.0572V10.8032C12.7088 10.558 12.7088 10.3129 12.7088 10.0253H12.7103Z" fill="#C9323E"/>
</svg>
