<svg width="18" height="17" viewBox="0 0 18 17" fill="none" xmlns="http://www.w3.org/2000/svg">
<path d="M10.5 11.55C10.7 11.55 10.8793 11.4707 11.038 11.312C11.196 11.154 11.275 10.9667 11.275 10.75C11.275 10.55 11.196 10.3707 11.038 10.212C10.8793 10.054 10.7 9.975 10.5 9.975C10.3 9.975 10.121 10.054 9.963 10.212C9.80433 10.3707 9.725 10.55 9.725 10.75C9.725 10.9667 9.80433 11.154 9.963 11.312C10.121 11.4707 10.3 11.55 10.5 11.55ZM10.05 8.725H10.95C10.9667 8.30833 11.0293 7.99167 11.138 7.775C11.246 7.55833 11.5 7.26667 11.9 6.9C12.3333 6.5 12.6333 6.15 12.8 5.85C12.9667 5.55 13.05 5.20833 13.05 4.825C13.05 4.14167 12.8083 3.575 12.325 3.125C11.8417 2.675 11.2333 2.45 10.5 2.45C9.95 2.45 9.45833 2.6 9.025 2.9C8.59167 3.2 8.25833 3.61667 8.025 4.15L8.85 4.5C9.03333 4.1 9.26267 3.804 9.538 3.612C9.81267 3.42067 10.1333 3.325 10.5 3.325C10.9833 3.325 11.3793 3.46667 11.688 3.75C11.996 4.03333 12.15 4.4 12.15 4.85C12.15 5.11667 12.075 5.36667 11.925 5.6C11.775 5.83333 11.5167 6.11667 11.15 6.45C10.7167 6.81667 10.425 7.154 10.275 7.462C10.125 7.77067 10.05 8.19167 10.05 8.725ZM5.125 14C4.65833 14 4.271 13.846 3.963 13.538C3.65433 13.2293 3.5 12.8417 3.5 12.375V1.625C3.5 1.15833 3.65433 0.770667 3.963 0.462C4.271 0.154 4.65833 0 5.125 0H15.875C16.3417 0 16.7293 0.154 17.038 0.462C17.346 0.770667 17.5 1.15833 17.5 1.625V12.375C17.5 12.8417 17.346 13.2293 17.038 13.538C16.7293 13.846 16.3417 14 15.875 14H5.125ZM5.125 13H15.875C16.0417 13 16.1873 12.9373 16.312 12.812C16.4373 12.6873 16.5 12.5417 16.5 12.375V1.625C16.5 1.45833 16.4373 1.31267 16.312 1.188C16.1873 1.06267 16.0417 1 15.875 1H5.125C4.95833 1 4.81267 1.06267 4.688 1.188C4.56267 1.31267 4.5 1.45833 4.5 1.625V12.375C4.5 12.5417 4.56267 12.6873 4.688 12.812C4.81267 12.9373 4.95833 13 5.125 13ZM2.125 17C1.65833 17 1.27067 16.846 0.962 16.538C0.654 16.2293 0.5 15.8417 0.5 15.375V3.625H1.5V15.375C1.5 15.5417 1.56267 15.6873 1.688 15.812C1.81267 15.9373 1.95833 16 2.125 16H13.875V17H2.125Z" fill="#1C1B1F"/>
</svg>
