<svg width="18" height="17" viewBox="0 0 18 17" fill="none" xmlns="http://www.w3.org/2000/svg">
<path d="M1.50019 5.88633V5.87508C1.50018 4.76391 1.82927 3.67762 2.44594 2.75327C3.06262 1.82892 3.93925 1.10792 4.96524 0.681234C5.99123 0.254552 7.12061 0.141302 8.21089 0.355774C9.30117 0.570246 10.3035 1.10283 11.0914 1.88633C11.7114 1.58035 12.4039 1.4517 13.0923 1.51459C13.7808 1.57749 14.4385 1.82949 14.9927 2.24274C15.547 2.65599 15.9762 3.21442 16.2329 3.85632C16.4897 4.49821 16.564 5.1986 16.4477 5.88008C16.6187 5.89596 16.7847 5.94692 16.9351 6.02978C17.0856 6.11264 17.2174 6.22563 17.3223 6.36169C17.4271 6.49775 17.5028 6.65396 17.5446 6.82058C17.5864 6.9872 17.5934 7.16064 17.5652 7.33008C17.0002 10.7288 15.6027 12.8801 13.3752 13.7851V14.6251C13.3752 15.1224 13.1776 15.5993 12.826 15.9509C12.4744 16.3025 11.9975 16.5001 11.5002 16.5001H6.50019C6.00291 16.5001 5.526 16.3025 5.17437 15.9509C4.82274 15.5993 4.62519 15.1224 4.62519 14.6251V13.7851C2.39769 12.8801 1.0002 10.7288 0.435195 7.33008C0.407928 7.16514 0.414025 6.9964 0.453126 6.83385C0.492227 6.67131 0.563538 6.51826 0.662839 6.38376C0.762139 6.24926 0.88741 6.13605 1.03124 6.05082C1.17507 5.9656 1.33453 5.91009 1.50019 5.88758V5.88633ZM2.75019 5.87508H4.00019C4.00019 5.04628 4.32943 4.25143 4.91548 3.66538C5.50154 3.07932 6.29639 2.75008 7.12519 2.75008C7.95399 2.75008 8.74885 3.07932 9.3349 3.66538C9.92095 4.25143 10.2502 5.04628 10.2502 5.87508H11.5002C11.5002 4.71476 11.0393 3.60196 10.2188 2.78149C9.39831 1.96102 8.28551 1.50008 7.12519 1.50008C5.96487 1.50008 4.85207 1.96102 4.0316 2.78149C3.21113 3.60196 2.75019 4.71476 2.75019 5.87508ZM5.25019 5.87508H9.00019C9.00019 5.3778 8.80265 4.90089 8.45102 4.54926C8.09939 4.19763 7.62247 4.00008 7.12519 4.00008C6.62791 4.00008 6.151 4.19763 5.79937 4.54926C5.44774 4.90089 5.25019 5.3778 5.25019 5.87508ZM13.8327 5.87508H15.1714C15.2658 5.50567 15.2746 5.1196 15.1972 4.74627C15.1197 4.37295 14.9581 4.02223 14.7246 3.72083C14.491 3.41944 14.1918 3.17533 13.8497 3.0071C13.5075 2.83887 13.1315 2.75097 12.7502 2.75008C12.4502 2.75008 12.1652 2.80258 11.9002 2.89883C12.1214 3.25383 12.3039 3.63633 12.4439 4.03758C12.682 3.97853 12.9322 3.99069 13.1634 4.07255C13.3947 4.15441 13.5968 4.30237 13.7447 4.49806C13.8926 4.69375 13.9798 4.92856 13.9954 5.17336C14.0111 5.41815 13.9545 5.66216 13.8327 5.87508ZM12.1252 14.0001H5.87519V14.6251C5.87519 14.7908 5.94104 14.9498 6.05825 15.067C6.17546 15.1842 6.33443 15.2501 6.50019 15.2501H11.5002C11.666 15.2501 11.8249 15.1842 11.9421 15.067C12.0593 14.9498 12.1252 14.7908 12.1252 14.6251V14.0001ZM5.43519 12.7501H12.5652C14.5477 12.1126 15.8027 10.3101 16.3327 7.12508H1.66769C2.19769 10.3101 3.45269 12.1126 5.43519 12.7501Z" fill="white" fill-opacity="0.8"/>
</svg>
