<svg width="19" height="15" viewBox="0 0 19 15" fill="none" xmlns="http://www.w3.org/2000/svg">
<path d="M2.9375 0.9375C1.85797 0.9375 0.96875 1.82672 0.96875 2.90625V7.35562C0.568437 7.71788 0.3125 8.23631 0.3125 8.8125V14.7188H3.59375V13.4062H15.4062V14.7188H18.6875V8.8125C18.6875 8.23631 18.4316 7.71788 18.0312 7.35562V2.90625C18.0312 1.82672 17.142 0.9375 16.0625 0.9375H2.9375ZM2.9375 2.25H16.0625C16.4267 2.25 16.7188 2.54203 16.7188 2.90625V6.84375H15.4062V6.1875C15.4062 5.10797 14.517 4.21875 13.4375 4.21875H10.8125C10.3092 4.21875 9.84978 4.41562 9.5 4.73062C9.14112 4.40314 8.67334 4.22071 8.1875 4.21875H5.5625C4.48297 4.21875 3.59375 5.10797 3.59375 6.1875V6.84375H2.28125V2.90625C2.28125 2.54203 2.57328 2.25 2.9375 2.25ZM5.5625 5.53125H8.1875C8.55172 5.53125 8.84375 5.82328 8.84375 6.1875V6.84375H4.90625V6.1875C4.90625 5.82328 5.19828 5.53125 5.5625 5.53125ZM10.8125 5.53125H13.4375C13.8017 5.53125 14.0938 5.82328 14.0938 6.1875V6.84375H10.1562V6.1875C10.1562 5.82328 10.4483 5.53125 10.8125 5.53125ZM2.28125 8.15625H16.7188C17.083 8.15625 17.375 8.44828 17.375 8.8125V13.4062H16.7188V12.0938H2.28125V13.4062H1.625V8.8125C1.625 8.44828 1.91703 8.15625 2.28125 8.15625Z" fill="white"/>
</svg>
