<svg width="45" height="45" viewBox="0 0 45 45" fill="none" xmlns="http://www.w3.org/2000/svg">
<path d="M14 9L11 10L9 12.5L8.5 16L8 18L5 20.5V34L6.5 36H36.5L39 35V21L37 18.5L35 17V13.5L34 10L31 9H25.5H14Z" fill="#5DC837"/>
<mask id="mask0_3_3533" style="mask-type:alpha" maskUnits="userSpaceOnUse" x="0" y="0" width="45" height="45">
<rect width="45" height="45" fill="#5DC837"/>
</mask>
<g mask="url(#mask0_3_3533)">
<path d="M7.82205 37.5H37.1782C38.7927 37.5 39.783 37.133 40.149 36.3991C40.5169 35.6652 40.7009 34.8579 40.7009 33.9773V22.2348C40.7009 21.1095 40.3457 20.082 39.6353 19.1524C38.9268 18.2228 38.0588 17.6357 37.0314 17.3911V14.8958C37.0314 13.1344 36.3953 11.6177 35.1232 10.3456C33.8511 9.07349 32.3344 8.43744 30.573 8.43744H14.4272C12.6658 8.43744 11.1491 9.07349 9.87697 10.3456C8.60488 11.6177 7.96883 13.1344 7.96883 14.8958V17.3911C6.94137 17.6357 6.0734 18.2228 5.36494 19.1524C4.65453 20.082 4.29932 21.1095 4.29932 22.2348V33.9773C4.29932 35.5918 4.66627 36.5821 5.40017 36.9481C6.13407 37.316 6.94137 37.5 7.82205 37.5ZM7.82205 35.4451C7.38171 35.4451 7.02748 35.311 6.75936 35.0429C6.48928 34.7728 6.35424 34.4176 6.35424 33.9773V22.2348C6.35424 21.4031 6.63508 20.7054 7.19676 20.1417C7.7604 19.58 8.4581 19.2992 9.28985 19.2992C10.1216 19.2992 10.8193 19.58 11.3829 20.1417C11.9446 20.7054 12.2255 21.4031 12.2255 22.2348V28.106H32.7747V22.2348C32.7747 21.4031 33.0556 20.7054 33.6173 20.1417C34.1809 19.58 34.8786 19.2992 35.7103 19.2992C36.5421 19.2992 37.2388 19.58 37.8005 20.1417C38.3641 20.7054 38.646 21.4031 38.646 22.2348V33.9773C38.646 34.4176 38.5119 34.7728 38.2438 35.0429C37.9737 35.311 37.6185 35.4451 37.1782 35.4451H7.82205ZM14.2804 26.0511V22.2348C14.2804 20.9138 13.8528 19.8002 12.9975 18.8941C12.1403 17.9899 11.1491 17.4889 10.0238 17.3911V14.8958C10.0238 13.6237 10.4396 12.5718 11.2714 11.74C12.1031 10.9082 13.1551 10.4924 14.4272 10.4924H30.573C31.8451 10.4924 32.8971 10.9082 33.7288 11.74C34.5606 12.5718 34.9764 13.6237 34.9764 14.8958V17.3911C33.8511 17.4889 32.8608 17.9899 32.0056 18.8941C31.1484 19.8002 30.7198 20.9138 30.7198 22.2348V26.0511H14.2804Z" fill="#5DC837" stroke="white" stroke-width="0.8"/>
</g>
</svg>
