<svg width="134" height="66" viewBox="0 0 134 66" fill="none" xmlns="http://www.w3.org/2000/svg">
<mask id="mask0_270_2643" style="mask-type:alpha" maskUnits="userSpaceOnUse" x="0" y="0" width="134" height="66">
<rect width="134" height="66" fill="#D9D9D9"/>
</mask>
<g mask="url(#mask0_270_2643)">
<path d="M45.5792 41.5679V25.5903V25.3633H48.3131V38.8726H61.5811V41.5679H45.5792Z" fill="#373535"/>
<path d="M75.6267 25.3633C83.7914 25.3449 86.3686 30.0142 86.3736 33.4736C86.3728 33.4795 86.3736 33.4945 86.3736 33.5172C86.3745 35.3512 85.6799 37.3762 83.8894 38.9321C82.0998 40.4879 79.2361 41.5629 74.9279 41.5629H74.9246H64.9183V25.3633H75.6267ZM75.0628 38.8626C81.4446 38.8416 83.6021 36.1932 83.6121 33.5004C83.6121 33.4811 83.6129 33.4685 83.6129 33.4643C83.5794 30.8813 81.6063 28.0838 75.6309 28.0637H67.6337V38.8626H75.0628Z" fill="#373535"/>
<path d="M100.937 25C104.818 25 107.705 26.0456 109.624 27.6333C111.543 29.2202 112.487 31.3483 112.485 33.4664C112.487 35.5844 111.543 37.7133 109.624 39.3002C107.706 40.8871 104.822 41.9336 100.941 41.9327H100.937C97.054 41.9336 94.1694 40.8879 92.2507 39.3002C90.3312 37.7133 89.387 35.5844 89.3887 33.4664C89.387 31.3483 90.3312 29.2202 92.2507 27.6333C94.1694 26.0456 97.054 25 100.937 25ZM100.937 39.2181C106.937 39.2072 109.735 36.3326 109.744 33.4664C109.741 31.9977 109.028 30.5759 107.57 29.5017C106.114 28.4293 103.903 27.7155 100.937 27.7155C94.9377 27.7263 92.1401 30.6027 92.1317 33.4664C92.1401 36.3326 94.9377 39.2072 100.937 39.2181Z" fill="#373535"/>
<path d="M22.4122 41.5163L22 41.5154L32.581 25L43.142 41.5163H40.083L37.4673 37.6069H27.6336L25.0631 41.523L22.4122 41.5163ZM35.816 34.9158L32.5701 29.8402L29.2641 34.9158H35.816Z" fill="#373535"/>
</g>
</svg>
