<svg width="91" height="17" viewBox="0 0 91 17" fill="none" xmlns="http://www.w3.org/2000/svg">
<path d="M23.5791 16.564V0.586426V0.359375H26.313V13.8687H39.581V16.564H23.5791Z" fill="#373535"/>
<path d="M53.6269 0.359429C61.7916 0.340997 64.3688 5.01026 64.3738 8.46969C64.373 8.47556 64.3738 8.49064 64.3738 8.51326C64.3747 10.3473 63.6801 12.3723 61.8896 13.9282C60.1 15.484 57.2363 16.559 52.9281 16.559H52.9247H42.9185V0.359429H53.6269ZM53.063 13.8587C59.4448 13.8377 61.6023 11.1893 61.6123 8.49649C61.6123 8.47722 61.6131 8.46463 61.6131 8.46044C61.5796 5.87738 59.6065 3.07986 53.6311 3.05975H45.6339V13.8587H53.063Z" fill="#373535"/>
<path d="M78.9374 0C82.8183 0 85.7047 1.04563 87.6241 2.63333C89.5428 4.22019 90.487 6.34833 90.4853 8.46639C90.487 10.5844 89.5428 12.7133 87.6241 14.3002C85.7063 15.8871 82.8216 16.9336 78.9408 16.9327H78.9374C75.054 16.9336 72.1694 15.8879 70.2507 14.3002C68.3312 12.7133 67.387 10.5844 67.3887 8.46639C67.387 6.34833 68.3312 4.22019 70.2507 2.63333C72.1694 1.04563 75.054 0 78.9374 0ZM78.9374 14.2181C84.9372 14.2072 87.7347 11.3326 87.7439 8.46639C87.7406 6.99766 87.0276 5.57585 85.5697 4.50174C84.1136 3.42931 81.9034 2.71546 78.9374 2.71546C72.9377 2.72635 70.1401 5.60266 70.1317 8.46639C70.1401 11.3326 72.9377 14.2072 78.9374 14.2181Z" fill="#373535"/>
<path d="M0.412207 16.5163L0 16.5154L10.581 0L21.142 16.5163H18.083L15.4673 12.6069H5.63361L3.06313 16.523L0.412207 16.5163ZM13.816 9.91578L10.5701 4.84017L7.26405 9.91578H13.816Z" fill="#373535"/>
</svg>
