<svg width="93" height="28" viewBox="0 0 93 28" fill="none" xmlns="http://www.w3.org/2000/svg">
<path fill-rule="evenodd" clip-rule="evenodd" d="M57.6929 21.7457C52.2879 25.6372 44.454 27.7087 37.7088 27.7087C28.2538 27.7087 19.7416 24.2987 13.299 18.6202C12.7939 18.1753 13.2443 17.5662 13.8552 17.909C20.8047 21.8588 29.4026 24.2367 38.2796 24.2367C44.268 24.2367 50.8528 23.0222 56.9106 20.513C57.8242 20.1337 58.5882 21.1002 57.6965 21.7457H57.691H57.6929Z" fill="#FF9900"/>
<path fill-rule="evenodd" clip-rule="evenodd" d="M59.9412 19.24C59.2483 18.3775 55.3733 18.8297 53.6318 19.0321C53.103 19.0941 53.0191 18.6437 53.4969 18.321C56.5878 16.2002 61.659 16.8129 62.2462 17.5186C62.8406 18.2371 62.0893 23.1952 59.1936 25.5622C58.7468 25.9269 58.3256 25.7318 58.5207 25.2504C59.1735 23.6602 60.6342 20.1007 59.943 19.2364V19.24H59.9412Z" fill="#FF9900"/>
<path fill-rule="evenodd" clip-rule="evenodd" d="M53.754 3.34496V1.28072C53.754 0.967076 53.9984 0.75737 54.2901 0.75737H63.7524C64.0551 0.75737 64.2976 0.970723 64.2976 1.27708V3.04225C64.2976 3.33766 64.0387 3.72425 63.5865 4.33878L58.6848 11.1679C60.5029 11.126 62.4285 11.3904 64.0825 12.2985C64.4545 12.5027 64.5566 12.8054 64.5839 13.1008V15.3C64.5839 15.6027 64.2448 15.9528 63.8892 15.7723C60.977 14.2843 57.1111 14.122 53.8908 15.7905C53.5625 15.9638 53.2179 15.6155 53.2179 15.3128V13.2248C53.2179 12.8893 53.2252 12.3204 53.5716 11.8098L59.2483 3.85919H54.3065C54.002 3.85919 53.7595 3.64949 53.7595 3.33949L53.754 3.34314V3.34496ZM19.2401 16.21H16.3589C16.2307 16.2052 16.1085 16.1548 16.0142 16.0679C15.9199 15.981 15.8598 15.8632 15.8446 15.7358V1.31719C15.8446 1.02543 16.0963 0.797488 16.4026 0.797488H19.0832C19.3641 0.810252 19.5902 1.01631 19.6066 1.28255V3.16261H19.6613C20.3634 1.33908 21.6781 0.492958 23.4524 0.492958C25.2249 0.492958 26.381 1.34272 27.187 3.16261C27.8854 1.34272 29.4701 0.492958 31.1623 0.492958C32.3713 0.492958 33.6915 0.978017 34.4939 2.07031C35.4093 3.28478 35.2196 5.04266 35.2196 6.59266V15.6903C35.2196 15.9784 34.968 16.21 34.6598 16.21H31.7841C31.4978 16.1917 31.2681 15.9674 31.2681 15.6939V8.04966C31.2681 7.44425 31.3209 5.92525 31.186 5.35084C30.9708 4.3789 30.3289 4.10719 29.4956 4.10719C28.7972 4.10719 28.0732 4.56308 27.7742 5.29066C27.4769 6.02008 27.5061 7.2309 27.5061 8.04966V15.6903C27.5061 15.9784 27.2581 16.21 26.9518 16.21H24.0761C23.7879 16.1917 23.56 15.9674 23.56 15.6939V8.04966C23.56 6.44131 23.8244 4.07619 21.7839 4.07619C19.7415 4.07619 19.7962 6.38296 19.7962 8.05149V15.6921C19.7962 15.9784 19.5464 16.21 19.2401 16.21ZM72.4397 0.494782C76.7104 0.494782 79.0227 4.07619 79.0227 8.62772C79.0227 13.1774 76.4697 16.5163 72.4397 16.5163C68.4097 16.5163 65.9662 12.9349 65.9662 8.47637C65.9662 4.01966 68.2729 0.494782 72.4397 0.494782ZM72.4652 3.43978C70.3445 3.43978 70.2095 6.25896 70.2095 8.02049C70.2095 9.78384 70.184 13.544 72.4397 13.544C74.6954 13.544 74.7775 10.5096 74.7775 8.6569C74.7775 7.44425 74.7246 5.98725 74.3471 4.83478C74.0225 3.83366 73.3806 3.43978 72.4652 3.43978ZM84.5625 16.21H81.6959C81.4097 16.1917 81.1799 15.9674 81.1799 15.6939V1.26978C81.1999 1.00355 81.4388 0.795664 81.7288 0.795664H84.4002C84.5177 0.799581 84.6309 0.841249 84.7228 0.914494C84.8148 0.987739 84.8807 1.08866 84.9108 1.20231V3.40878H84.9674C85.7752 1.43208 86.9003 0.492958 88.8879 0.492958C90.179 0.492958 91.4409 0.948841 92.2487 2.19066C93 3.34496 93 5.28519 93 6.68019V15.7523C92.9785 15.8821 92.9107 15.9999 92.8091 16.0837C92.7075 16.1675 92.5791 16.2117 92.4475 16.2081H89.5608C89.4359 16.2036 89.3165 16.1555 89.2233 16.0723C89.1301 15.989 89.0689 15.8758 89.0502 15.7523V7.92931C89.0502 6.35196 89.2381 4.04519 87.2504 4.04519C86.552 4.04519 85.9046 4.50108 85.5855 5.19766C85.1844 6.07661 85.1278 6.95737 85.1278 7.92931V15.6903C85.1207 15.8331 85.058 15.9675 84.953 16.0646C84.848 16.1618 84.7092 16.2139 84.5662 16.21H84.5625ZM46.2119 9.32614C46.2119 10.4203 46.2374 11.332 45.6739 12.304C45.2162 13.0935 44.4886 13.5804 43.6808 13.5804C42.5776 13.5804 41.9302 12.7598 41.9302 11.5454C41.9302 9.1529 44.1312 8.7189 46.2119 8.7189V9.32796V9.32431V9.32614ZM49.1149 16.1717C49.0213 16.2497 48.9065 16.2978 48.7852 16.3098C48.664 16.3218 48.5419 16.2972 48.4348 16.2391C47.4792 15.4641 47.3096 15.1049 46.7863 14.3682C45.2071 15.9401 44.0875 16.4105 42.0396 16.4105C39.6162 16.4105 37.7288 14.9517 37.7288 12.0341C37.7288 9.75102 38.9962 8.20284 40.7978 7.44061C42.3588 6.77137 44.5397 6.65102 46.2119 6.46866V6.10578C46.2119 5.43655 46.2666 4.64696 45.8618 4.07072C45.5135 3.55284 44.8406 3.34131 44.2461 3.34131C43.1502 3.34131 42.1728 3.88837 41.9302 5.02625C41.8828 5.2779 41.6932 5.52955 41.4324 5.54231L38.6424 5.25055C38.409 5.19766 38.1482 5.01349 38.2121 4.66337C38.8521 1.35731 41.912 0.359841 44.6491 0.359841C46.0496 0.359841 47.8804 0.724547 48.9836 1.76031C50.3841 3.03678 50.251 4.73996 50.251 6.59266V10.9691C50.251 12.2839 50.8126 12.862 51.3378 13.5713C51.5202 13.8266 51.5639 14.133 51.3287 14.319C50.7397 14.7985 49.6966 15.6848 49.1222 16.1844L49.1149 16.179V16.1717ZM8.47941 9.32431C8.47941 10.4203 8.50494 11.3302 7.93965 12.304C7.48376 13.0935 6.75435 13.5804 5.94835 13.5804C4.84512 13.5804 4.19776 12.7598 4.19776 11.5454C4.19776 9.1529 6.39876 8.7189 8.47941 8.7189V9.32796V9.32431ZM11.3806 16.1717C11.2871 16.2491 11.1726 16.2968 11.0518 16.3088C10.9309 16.3208 10.8093 16.2966 10.7023 16.2391C9.74494 15.4641 9.57535 15.1049 9.05382 14.3682C7.47282 15.9401 6.35318 16.4105 4.309 16.4105C1.88735 16.4105 0 14.9517 0 12.0341C0 9.75102 1.26553 8.20284 3.069 7.44061C4.62994 6.77137 6.81088 6.65102 8.48124 6.46866V6.10578C8.48124 5.43655 8.53412 4.64696 8.13294 4.07072C7.78282 3.55284 7.11176 3.34131 6.51729 3.34131C5.41953 3.34131 4.44394 3.88837 4.20141 5.02625C4.15218 5.2779 3.96435 5.52955 3.70176 5.54231L0.913588 5.25055C0.678353 5.19766 0.417588 5.01349 0.483235 4.66337C1.11965 1.35184 4.17588 0.35437 6.91482 0.35437C8.31529 0.35437 10.1479 0.719076 11.2512 1.75302C12.6516 3.02949 12.5167 4.73266 12.5167 6.58719V10.9637C12.5167 12.2766 13.0784 12.8547 13.6054 13.5658C13.7877 13.8211 13.8296 14.1257 13.5944 14.3117C13.0072 14.7931 11.9624 15.6793 11.3879 16.179L11.3806 16.1717Z" fill="black"/>
</svg>
