<svg width="134" height="66" viewBox="0 0 134 66" fill="none" xmlns="http://www.w3.org/2000/svg">
<mask id="mask0_271_2795" style="mask-type:alpha" maskUnits="userSpaceOnUse" x="0" y="0" width="134" height="66">
<rect width="134" height="66" fill="#D9D9D9"/>
</mask>
<g mask="url(#mask0_271_2795)">
<path fill-rule="evenodd" clip-rule="evenodd" d="M56.2217 38.9647C52.2676 41.8659 46.535 43.4087 41.5982 43.4087C34.6799 43.4087 28.4495 40.8661 23.7347 36.6336C23.3649 36.3009 23.6947 35.8471 24.1396 36.1045C29.2261 39.0472 35.517 40.8196 42.0135 40.8196C46.3961 40.8196 51.2141 39.9151 55.6471 38.0456C56.3157 37.7642 56.8764 38.4838 56.2217 38.9647Z" fill="#F79C34"/>
<path fill-rule="evenodd" clip-rule="evenodd" d="M57.8675 37.0955C57.3613 36.4519 54.5244 36.7905 53.2496 36.9424C52.8635 36.9888 52.8035 36.6531 53.1514 36.4103C55.4149 34.8295 59.1241 35.2857 59.5551 35.8154C59.9891 36.3488 59.4405 40.0461 57.3201 41.8101C56.9934 42.0813 56.683 41.9366 56.8279 41.5787C57.3056 40.3932 58.3737 37.7403 57.8675 37.0955Z" fill="#F79C34"/>
<path fill-rule="evenodd" clip-rule="evenodd" d="M53.3393 25.2443V23.7087C53.3405 23.4749 53.5175 23.3194 53.7309 23.32L60.6547 23.3194C60.876 23.3194 61.0542 23.4791 61.0542 23.7069V25.0237C61.0518 25.2449 60.8645 25.533 60.5329 25.9904L56.9461 31.0816C58.2773 31.0509 59.6854 31.2492 60.8954 31.9247C61.1682 32.0772 61.2415 32.3032 61.2627 32.5244V34.163C61.2627 34.389 61.0142 34.65 60.7523 34.5144C58.6216 33.4043 55.7938 33.2831 53.4369 34.5276C53.1963 34.6554 52.9447 34.3974 52.9447 34.1714V32.6136C52.9447 32.3647 52.9496 31.938 53.2023 31.5583L57.3571 25.6318L53.7394 25.6312C53.5182 25.6312 53.3405 25.4745 53.3393 25.2443ZM28.0834 34.8368H25.9769C25.7763 34.8241 25.6162 34.6747 25.5999 34.483L25.6017 23.7346C25.6017 23.5201 25.7836 23.3483 26.0084 23.3483L27.97 23.3477C28.1749 23.358 28.3398 23.5123 28.3525 23.7087V25.1117H28.3926C28.9036 23.7545 29.8668 23.1211 31.1646 23.1211C32.4819 23.1211 33.3081 23.7545 33.8979 25.1117C34.4089 23.7545 35.5691 23.1211 36.8076 23.1211C37.6926 23.1211 38.6558 23.4833 39.2456 24.2975C39.9142 25.2027 39.7772 26.5141 39.7772 27.6676L39.7748 34.4505C39.7748 34.6644 39.5936 34.8368 39.3687 34.8368H37.2652C37.0531 34.8235 36.887 34.6572 36.887 34.4511L36.8864 28.753C36.8864 28.301 36.9258 27.1704 36.827 26.7407C36.67 26.0163 36.1984 25.8126 35.5891 25.8126C35.0775 25.8126 34.5465 26.1519 34.3301 26.6943C34.1137 27.2379 34.1337 28.1419 34.1337 28.753V34.4505C34.1337 34.6644 33.9518 34.8368 33.7276 34.8368H31.6235C31.4119 34.8235 31.2452 34.6572 31.2452 34.4511L31.2428 28.753C31.2428 27.5543 31.4398 25.7909 29.9456 25.7909C28.4314 25.7909 28.4908 27.5091 28.4908 28.753L28.4895 34.4505C28.4895 34.6644 28.3077 34.8368 28.0834 34.8368ZM67.0336 25.3154C65.4805 25.3154 65.3823 27.4181 65.3823 28.7301C65.3823 30.042 65.3629 32.8468 67.0148 32.8468C68.6466 32.8468 68.7254 30.585 68.7254 29.2056C68.7254 28.301 68.6854 27.215 68.4102 26.3556C68.1744 25.6089 67.7022 25.3154 67.0336 25.3154ZM67.0148 23.1211C70.1409 23.1211 71.8315 25.7909 71.8315 29.1833C71.8315 32.4617 69.9638 35.0634 67.0148 35.0634C63.9469 35.0634 62.2757 32.3942 62.2757 29.07C62.2757 25.7222 63.9663 23.1211 67.0148 23.1211ZM75.8862 34.8368H73.787C73.5767 34.8235 73.4094 34.6572 73.4094 34.4511L73.4057 23.6991C73.4239 23.502 73.5985 23.3483 73.8107 23.3483L75.7644 23.3477C75.9487 23.3574 76.1002 23.4815 76.139 23.6485V25.2925H76.1784C76.7688 23.822 77.5938 23.1211 79.0487 23.1211C79.9925 23.1211 80.9169 23.4604 81.5067 24.3879C82.0572 25.2473 82.0572 26.6943 82.0572 27.7351V34.4987C82.0341 34.6891 81.862 34.8368 81.6534 34.8368H79.5421C79.3469 34.8247 79.1899 34.6819 79.1669 34.4987V28.6632C79.1669 27.4868 79.3051 25.7674 77.8497 25.7674C77.3386 25.7674 76.8664 26.1067 76.6306 26.6268C76.3354 27.2831 76.296 27.9388 76.296 28.6632V34.4505C76.2924 34.6644 76.1105 34.8368 75.8862 34.8368ZM49.9429 34.8103C49.8041 34.9344 49.6034 34.9428 49.4458 34.8591C48.7463 34.2811 48.6208 34.0142 48.2383 33.4633C47.0823 34.6343 46.2634 34.9856 44.7655 34.9856C42.9924 34.9856 41.6128 33.8972 41.6128 31.7216C41.6128 30.0216 42.5396 28.8657 43.8593 28.2992C45.0019 27.8002 46.598 27.7098 47.8201 27.5736V27.3018C47.8201 26.8022 47.8595 26.214 47.5636 25.7831C47.3072 25.3974 46.815 25.2389 46.3816 25.2389C45.5778 25.2389 44.8643 25.6481 44.6885 26.496C44.6515 26.6846 44.5133 26.8721 44.323 26.8817L42.2808 26.6617C42.1086 26.6226 41.9171 26.4852 41.9662 26.2236C42.4299 23.7955 44.6109 23.0386 46.5931 23.0181H46.7495C47.7643 23.0307 49.0603 23.3074 49.8495 24.0601C50.8746 25.0123 50.7752 26.2815 50.7752 27.6646V30.9267C50.7752 31.9085 51.1856 32.3388 51.5705 32.8673C51.7057 33.0583 51.7354 33.2843 51.5638 33.4242C51.1334 33.7827 50.369 34.4426 49.949 34.8151L49.9429 34.8103ZM47.8201 29.7046C47.8201 30.5206 47.8394 31.2003 47.426 31.9259C47.0908 32.5147 46.5586 32.8775 45.9676 32.8775C45.1601 32.8775 44.6873 32.2658 44.6873 31.3588C44.6873 29.575 46.2961 29.2508 47.8201 29.2508V29.7046ZM22.3307 34.8103C22.1913 34.9344 21.9901 34.9428 21.8331 34.8591C21.1329 34.2811 21.0075 34.0142 20.6256 33.4633C19.469 34.6343 18.6506 34.9856 17.1527 34.9856C15.3797 34.9856 14 33.8972 14 31.7216C14 30.0216 14.9256 28.8657 16.2465 28.2992C17.3892 27.8002 18.9852 27.7098 20.2067 27.5736V27.3018C20.2067 26.8022 20.2467 26.214 19.9509 25.7831C19.6945 25.3974 19.2016 25.2389 18.7688 25.2389C17.965 25.2389 17.2503 25.6481 17.0758 26.496C17.0394 26.6846 16.9006 26.8721 16.7096 26.8817L14.668 26.6617C14.4952 26.6226 14.3037 26.4852 14.3534 26.2236C14.8159 23.7955 16.9976 23.0386 18.9804 23.0181H19.1368C20.1515 23.0307 21.4475 23.3074 22.2368 24.0601C23.2612 25.0123 23.1624 26.2815 23.1624 27.6646V30.9267C23.1624 31.9085 23.5728 32.3388 23.9577 32.8673C24.0917 33.0583 24.1226 33.2843 23.9511 33.4242C23.5207 33.7827 22.7557 34.4426 22.3356 34.8151L22.3307 34.8103ZM20.2067 29.7046C20.2067 30.5206 20.2267 31.2003 19.8127 31.9259C19.4781 32.5147 18.9458 32.8775 18.3542 32.8775C17.5468 32.8775 17.0739 32.2658 17.0739 31.3588C17.0739 29.575 18.6834 29.2508 20.2067 29.2508V29.7046ZM110.851 38.6926V37.9031C110.851 37.6783 110.962 37.5234 111.198 37.5373C111.638 37.5994 112.261 37.6614 112.703 37.571C113.28 37.4517 113.694 37.0449 113.939 36.4875C114.284 35.7028 114.512 35.07 114.656 34.6548L110.274 23.8624C110.2 23.6792 110.179 23.3393 110.546 23.3393H112.078C112.37 23.3393 112.489 23.5237 112.555 23.7045L115.732 32.4708L118.764 23.7045C118.826 23.5249 118.951 23.3393 119.24 23.3393H120.685C121.05 23.3393 121.03 23.6786 120.957 23.8624L116.61 34.9917C116.048 36.473 115.298 38.8324 113.611 39.2422C112.764 39.4622 111.697 39.3826 111.07 39.1217C110.912 39.0427 110.851 38.8318 110.851 38.6926ZM108.808 34.1793C108.808 34.38 108.642 34.5445 108.439 34.5445H107.359C107.126 34.5445 106.966 34.377 106.937 34.1793L106.828 33.4483C106.332 33.8659 105.722 34.2329 105.062 34.4884C103.791 34.979 102.327 35.0604 101.085 34.3022C100.187 33.7544 99.711 32.6835 99.711 31.5788C99.711 30.7243 99.9759 29.8769 100.563 29.2616C101.347 28.4209 102.483 28.0081 103.855 28.0081C104.683 28.0081 105.869 28.1051 106.732 28.3853V26.9143C106.732 25.4185 106.098 24.7712 104.428 24.7712C103.152 24.7712 102.175 24.9629 100.816 25.3829C100.598 25.3901 100.471 25.2256 100.471 25.0249V24.186C100.471 23.9847 100.644 23.7901 100.831 23.731C101.802 23.3104 103.176 23.0482 104.638 23C106.543 23 108.808 23.4273 108.808 26.3405V34.1793ZM106.732 32.0314V29.8118C106.007 29.6148 104.807 29.5328 104.343 29.5328C103.609 29.5328 102.806 29.7052 102.387 30.1541C102.073 30.4832 101.931 30.9557 101.931 31.4125C101.931 32.0031 102.137 32.5955 102.617 32.8884C103.175 33.2651 104.04 33.2192 104.853 32.9896C105.634 32.7691 106.367 32.3791 106.732 32.0314ZM92.8805 24.8044C95.2774 24.8044 95.9302 26.678 95.9302 28.8235C95.9436 30.2698 95.6762 31.5595 94.9227 32.2978C94.359 32.8504 93.7292 33.0011 92.7811 33.0011C91.9373 33.0011 90.8274 32.5636 89.9981 31.9543V25.8198C90.8613 25.1605 91.9628 24.8044 92.8805 24.8044ZM89.6308 39.0777H88.1838C87.9814 39.0777 87.8159 38.9132 87.8159 38.7125V23.7238C87.8159 23.5231 87.9814 23.3586 88.1838 23.3586H89.2913C89.5241 23.3586 89.6835 23.5261 89.7132 23.7238L89.8296 24.5091C90.8668 23.5936 92.2022 23.0066 93.4746 23.0066C97.0383 23.0066 98.2101 25.9259 98.2101 28.9615C98.2101 32.2092 96.4176 34.8187 93.3861 34.8187C92.1095 34.8187 90.9159 34.3504 89.9981 33.5368V38.7125C89.9981 38.9132 89.8326 39.0777 89.6308 39.0777Z" fill="#333E47"/>
</g>
</svg>
