<svg width="107" height="21" viewBox="0 0 107 21" fill="none" xmlns="http://www.w3.org/2000/svg">
<path fill-rule="evenodd" clip-rule="evenodd" d="M42.222 15.9672C38.2678 18.8684 32.5352 20.4112 27.5985 20.4112C20.6801 20.4112 14.4498 17.8686 9.7349 13.6362C9.36513 13.3035 9.69489 12.8497 10.1398 13.107C15.2263 16.0498 21.5172 17.8222 28.0137 17.8222C32.3964 17.8222 37.2143 16.9176 41.6473 15.0482C42.3159 14.7667 42.8766 15.4863 42.222 15.9672Z" fill="#F79C34"/>
<path fill-rule="evenodd" clip-rule="evenodd" d="M43.8673 14.0952C43.3612 13.4516 40.5242 13.7903 39.2494 13.9422C38.8633 13.9886 38.8033 13.6529 39.1512 13.41C41.4147 11.8293 45.1239 12.2855 45.5549 12.8152C45.989 13.3486 45.4404 17.0459 43.3199 18.8098C42.9932 19.081 42.6829 18.9364 42.8277 18.5784C43.3054 17.393 44.3735 14.7401 43.8673 14.0952Z" fill="#F79C34"/>
<path fill-rule="evenodd" clip-rule="evenodd" d="M39.3393 2.24429V0.708724C39.3405 0.474893 39.5175 0.319408 39.7309 0.320011L46.6547 0.319408C46.876 0.319408 47.0542 0.479112 47.0542 0.706916V2.02372C47.0518 2.2449 46.8645 2.53297 46.5329 2.99038L42.9461 8.08163C44.2773 8.05089 45.6854 8.24917 46.8954 8.92474C47.1682 9.07722 47.2415 9.30321 47.2627 9.52439V11.163C47.2627 11.389 47.0142 11.65 46.7523 11.5144C44.6216 10.4043 41.7938 10.2831 39.4369 11.5276C39.1963 11.6554 38.9447 11.3974 38.9447 11.1714V9.61358C38.9447 9.36468 38.9496 8.938 39.2023 8.55833L43.3571 2.6318L39.7394 2.6312C39.5182 2.6312 39.3405 2.47451 39.3393 2.24429ZM14.0834 11.8368H11.9769C11.7763 11.8241 11.6162 11.6747 11.5999 11.483L11.6017 0.734639C11.6017 0.520093 11.7836 0.348336 12.0084 0.348336L13.97 0.347733C14.1749 0.357978 14.3398 0.512258 14.3525 0.708724V2.11171H14.3926C14.9036 0.754526 15.8668 0.121134 17.1646 0.121134C18.4819 0.121134 19.3081 0.754526 19.8979 2.11171C20.4089 0.754526 21.5691 0.121134 22.8076 0.121134C23.6926 0.121134 24.6558 0.483331 25.2456 1.29752C25.9142 2.20271 25.7772 3.51409 25.7772 4.66758L25.7748 11.4505C25.7748 11.6644 25.5936 11.8368 25.3687 11.8368H23.2652C23.0531 11.8235 22.887 11.6572 22.887 11.4511L22.8864 5.75296C22.8864 5.30097 22.9258 4.17038 22.827 3.74069C22.67 3.0163 22.1984 2.8126 21.5891 2.8126C21.0775 2.8126 20.5465 3.15189 20.3301 3.69429C20.1137 4.23788 20.1337 5.14187 20.1337 5.75296V11.4505C20.1337 11.6644 19.9518 11.8368 19.7276 11.8368H17.6235C17.4119 11.8235 17.2452 11.6572 17.2452 11.4511L17.2428 5.75296C17.2428 4.55428 17.4398 2.7909 15.9456 2.7909C14.4314 2.7909 14.4908 4.50908 14.4908 5.75296L14.4895 11.4505C14.4895 11.6644 14.3077 11.8368 14.0834 11.8368ZM53.0336 2.31541C51.4805 2.31541 51.3823 4.41808 51.3823 5.73006C51.3823 7.04204 51.3629 9.84681 53.0148 9.84681C54.6466 9.84681 54.7254 7.58504 54.7254 6.20556C54.7254 5.30097 54.6854 4.21498 54.4102 3.35559C54.1744 2.6089 53.7022 2.31541 53.0336 2.31541ZM53.0148 0.121134C56.1409 0.121134 57.8315 2.7909 57.8315 6.18326C57.8315 9.46171 55.9638 12.0634 53.0148 12.0634C49.9469 12.0634 48.2757 9.39421 48.2757 6.06996C48.2757 2.7222 49.9663 0.121134 53.0148 0.121134ZM61.8862 11.8368H59.787C59.5767 11.8235 59.4094 11.6572 59.4094 11.4511L59.4057 0.699082C59.4239 0.502013 59.5985 0.348336 59.8107 0.348336L61.7644 0.347733C61.9487 0.357375 62.1002 0.481523 62.139 0.648459V2.29251H62.1784C62.7688 0.822024 63.5938 0.121134 65.0487 0.121134C65.9925 0.121134 66.9169 0.46043 67.5067 1.38792C68.0572 2.24731 68.0572 3.69429 68.0572 4.73507V11.4987C68.0341 11.6891 67.862 11.8368 67.6534 11.8368H65.5421C65.3469 11.8247 65.1899 11.6819 65.1669 11.4987V5.66317C65.1669 4.48678 65.3051 2.7674 63.8497 2.7674C63.3386 2.7674 62.8664 3.1067 62.6306 3.62679C62.3354 4.28308 62.296 4.93877 62.296 5.66317V11.4505C62.2924 11.6644 62.1105 11.8368 61.8862 11.8368ZM35.9429 11.8103C35.8041 11.9344 35.6034 11.9428 35.4458 11.8591C34.7463 11.2811 34.6208 11.0142 34.2383 10.4633C33.0823 11.6343 32.2634 11.9856 30.7655 11.9856C28.9924 11.9856 27.6128 10.8972 27.6128 8.72165C27.6128 7.02155 28.5396 5.86566 29.8593 5.29916C31.0019 4.80016 32.598 4.70976 33.8201 4.57356V4.30176C33.8201 3.80216 33.8595 3.21397 33.5636 2.78307C33.3072 2.39737 32.815 2.23887 32.3816 2.23887C31.5778 2.23887 30.8643 2.64807 30.6885 3.49601C30.6515 3.68464 30.5133 3.87207 30.323 3.88171L28.2808 3.66174C28.1086 3.62257 27.9171 3.48516 27.9662 3.22361C28.4299 0.795507 30.6109 0.03857 32.5931 0.0180797H32.7495C33.7643 0.0307355 35.0603 0.307355 35.8495 1.06007C36.8746 2.01227 36.7752 3.28147 36.7752 4.66456V7.92674C36.7752 8.90847 37.1856 9.33877 37.5705 9.8673C37.7057 10.0583 37.7354 10.2843 37.5638 10.4242C37.1334 10.7827 36.369 11.4426 35.949 11.8151L35.9429 11.8103ZM33.8201 6.70456C33.8201 7.52055 33.8394 8.20035 33.426 8.92595C33.0908 9.51474 32.5586 9.87754 31.9676 9.87754C31.1601 9.87754 30.6873 9.26585 30.6873 8.35885C30.6873 6.57498 32.2961 6.25076 33.8201 6.25076V6.70456ZM8.33075 11.8103C8.19132 11.9344 7.99007 11.9428 7.83307 11.8591C7.13293 11.2811 7.00745 11.0142 6.62556 10.4633C5.46897 11.6343 4.65062 11.9856 3.15275 11.9856C1.37967 11.9856 0 10.8972 0 8.72165C0 7.02155 0.925639 5.86566 2.24651 5.29916C3.38916 4.80016 4.98523 4.70976 6.20669 4.57356V4.30176C6.20669 3.80216 6.2467 3.21397 5.95088 2.78307C5.69446 2.39737 5.20164 2.23887 4.76883 2.23887C3.96503 2.23887 3.25034 2.64807 3.07576 3.49601C3.03939 3.68464 2.90058 3.87207 2.70963 3.88171L0.668011 3.66174C0.49525 3.62257 0.303697 3.48516 0.353404 3.22361C0.81592 0.795507 2.99757 0.03857 4.98038 0.0180797H5.13678C6.15153 0.0307355 7.44754 0.307355 8.23679 1.06007C9.26123 2.01227 9.16243 3.28147 9.16243 4.66456V7.92674C9.16243 8.90847 9.57281 9.33877 9.95774 9.8673C10.0917 10.0583 10.1226 10.2843 9.95107 10.4242C9.52068 10.7827 8.75568 11.4426 8.3356 11.8151L8.33075 11.8103ZM6.20669 6.70456C6.20669 7.52055 6.22669 8.20035 5.81267 8.92595C5.47806 9.51474 4.94583 9.87754 4.3542 9.87754C3.54677 9.87754 3.07394 9.26585 3.07394 8.35885C3.07394 6.57498 4.68335 6.25076 6.20669 6.25076V6.70456ZM96.8514 15.6926V14.9031C96.8514 14.6783 96.9623 14.5234 97.1981 14.5373C97.6382 14.5994 98.2607 14.6614 98.7026 14.571C99.2797 14.4517 99.6937 14.0449 99.9386 13.4875C100.284 12.7028 100.512 12.07 100.656 11.6548L96.2743 0.862402C96.2003 0.679194 96.1785 0.339296 96.5465 0.339296H98.0783C98.3704 0.339296 98.4893 0.523709 98.5547 0.704506L101.732 9.47075L104.764 0.704506C104.826 0.524914 104.951 0.339296 105.24 0.339296H106.685C107.05 0.339296 107.03 0.678591 106.957 0.862402L102.61 11.9917C102.048 13.473 101.298 15.8324 99.6107 16.2422C98.7645 16.4622 97.697 16.3826 97.0702 16.1217C96.912 16.0427 96.8514 15.8318 96.8514 15.6926ZM94.8079 11.1793C94.8079 11.38 94.6424 11.5445 94.4394 11.5445H93.3591C93.1258 11.5445 92.9663 11.377 92.9366 11.1793L92.8281 10.4483C92.3317 10.8659 91.7225 11.2329 91.0617 11.4884C89.7912 11.979 88.3266 12.0604 87.0852 11.3022C86.1874 10.7544 85.711 9.68349 85.711 8.57882C85.711 7.72425 85.9759 6.87692 86.5633 6.2616C87.347 5.4209 88.483 5.00808 89.8548 5.00808C90.6835 5.00808 91.8692 5.1051 92.7318 5.38534V3.91426C92.7318 2.41846 92.0983 1.77121 90.4283 1.77121C89.1516 1.77121 88.1751 1.96285 86.816 2.3829C86.5984 2.39014 86.4711 2.22561 86.4711 2.02493V1.18603C86.4711 0.984741 86.6439 0.790083 86.8312 0.731023C87.8017 0.310368 89.1765 0.0482125 90.638 0C92.5432 0 94.8079 0.427284 94.8079 3.34053V11.1793ZM92.7318 9.03141V6.81183C92.0068 6.61476 90.8071 6.5328 90.3428 6.5328C89.6093 6.5328 88.8061 6.70516 88.3867 7.15414C88.0733 7.48319 87.9314 7.95567 87.9314 8.41249C87.9314 9.00309 88.1369 9.5955 88.617 9.88839C89.1747 10.2651 90.0397 10.2192 90.8526 9.98964C91.634 9.76907 92.3674 9.37915 92.7318 9.03141ZM78.8805 1.80435C81.2774 1.80435 81.9302 3.67801 81.9302 5.82347C81.9436 7.26985 81.6762 8.55953 80.9227 9.29779C80.359 9.85042 79.7292 10.0011 78.7811 10.0011C77.9373 10.0011 76.8274 9.56356 75.9981 8.95427V2.81983C76.8613 2.16052 77.9628 1.80435 78.8805 1.80435ZM75.6308 16.0777H74.1838C73.9814 16.0777 73.8159 15.9132 73.8159 15.7125V0.723791C73.8159 0.523106 73.9814 0.358581 74.1838 0.358581H75.2913C75.5241 0.358581 75.6835 0.526119 75.7132 0.723791L75.8296 1.50905C76.8668 0.593617 78.2022 0.00662922 79.4746 0.00662922C83.0383 0.00662922 84.2101 2.9259 84.2101 5.96148C84.2101 9.2092 82.4176 11.8187 79.3861 11.8187C78.1095 11.8187 76.9159 11.3504 75.9981 10.5368V15.7125C75.9981 15.9132 75.8326 16.0777 75.6308 16.0777Z" fill="#333E47"/>
</svg>
