<svg width="134" height="66" viewBox="0 0 134 66" fill="none" xmlns="http://www.w3.org/2000/svg">
<mask id="mask0_270_2733" style="mask-type:alpha" maskUnits="userSpaceOnUse" x="0" y="0" width="134" height="66">
<rect width="134" height="66" fill="#D9D9D9"/>
</mask>
<g mask="url(#mask0_270_2733)">
<path d="M66.8657 13H67.5289V39.4994H66.8657V13ZM54.7307 29.1847H49.6086L52.1767 22.4822L54.7307 29.1847ZM59.3025 33.9258L53.362 18.4325H52.9951L47.0546 33.9258H47.8025L49.3687 29.8337H54.9988L56.5651 33.9258H59.3025ZM75.2614 33.8975H76.0798L80.5246 27.308L84.8 33.8975H87.9325L82.1755 25.1773L86.6203 18.7571H85.7878L81.6675 24.6834L77.8859 18.7571H74.9227L80.1859 26.6589L75.2614 33.8975Z" fill="black"/>
<path d="M50.7233 46.5842L54.6742 52.0167H54.9988V46.0903H54.6742V50.2106L51.5417 46.0903H50.554V52.0167H50.7233V46.5842ZM56.9883 46.0903H57.9761V52.0167H56.9883V46.0903ZM93.5202 46.5842L97.4712 52.0167H97.7957V46.0903H97.4712V50.2106L94.3387 46.0903H93.3509V52.0167H93.5202V46.5842ZM32.4221 48.8136V46.3443H32.916C33.7767 46.3443 34.1436 46.8805 34.1436 47.5719C34.1436 48.2633 33.7626 48.7995 32.916 48.7995H32.4221V48.8136ZM34.3834 51.9885H35.5123L33.819 49.0112C34.6092 48.8419 35.1877 48.3903 35.1877 47.586C35.1877 46.5842 34.2847 46.0903 33.184 46.0903H31.4202V51.9744H32.4221V49.0676H32.789L34.3834 51.9885ZM109.663 51.6781H107.024V49.0394H108.83V48.7149H107.024V46.4149H109.663V46.0903H106.036V52.0167H109.663V51.6781ZM67.684 51.6781H65.0454V49.0394H66.8515V48.7149H65.0454V46.4149H67.684V46.0903H64.0577V52.0167H67.684V51.6781ZM82.0061 46.0903H81.0184V52.0167H82.0061V49.0535H84.4755V52.0167H85.4632V46.0903H84.4755V48.8842H82.0061V46.0903ZM37.2337 46.0903V52.0167H37.5583V46.5842L39.5337 51.8474H39.8583L41.6644 46.5842V52.0167H42.6521V46.0903H41.6644L40.0135 50.3658L38.3767 46.0903H37.2337ZM74.7816 49.0394C74.7816 50.7327 75.854 52.1155 77.3497 52.1155C78.2528 52.1155 78.8736 51.6075 79.1982 51.1136L78.9724 50.9584C78.662 51.3817 78.1399 51.8615 77.4202 51.8615C76.2067 51.8615 75.854 50.3235 75.854 49.0394C75.854 47.7554 76.2067 46.2173 77.4202 46.2173C78.1399 46.2173 78.662 46.683 78.9724 47.1204L79.1982 46.9652C78.8736 46.4713 78.2528 45.9633 77.3497 45.9633C75.854 45.9633 74.7816 47.3462 74.7816 49.0394ZM100.674 49.0394C100.674 47.7554 101.027 46.2173 102.255 46.2173C102.974 46.2173 103.51 46.683 103.807 47.1204L104.033 46.9652C103.708 46.4713 103.073 45.9633 102.17 45.9633C100.66 45.9633 99.5877 47.332 99.5877 49.0394C99.5877 50.7327 100.688 52.1155 102.198 52.1155C103.553 52.1155 104.23 50.7468 104.23 50.7468V49.6462H102.424V49.9143H103.242V51.0572C103.242 51.3958 102.89 51.8756 102.255 51.8756C101.027 51.8615 100.674 50.3235 100.674 49.0394ZM26.9896 47.5296L27.9773 50.14H25.9877L26.9896 47.5296ZM28.6969 51.9744H29.7693L27.4552 45.9492H27.3141L25 51.9744H25.2822L25.889 50.3799H28.0761L28.6969 51.9744ZM46.2503 47.5296L47.238 50.14H45.2485L46.2503 47.5296ZM47.9436 51.9744H49.016L46.7018 45.9633H46.5607L44.2607 51.9744H44.5429L45.1497 50.3799H47.3368L47.9436 51.9744ZM89.0049 47.5296L89.9926 50.14H88.0031L89.0049 47.5296ZM90.7123 51.9744H91.7847L89.4706 45.9492H89.3294L87.0153 51.9744H87.2975L87.9043 50.3799H90.0914L90.7123 51.9744ZM68.9963 52.0167H69.3209L70.9718 49.3781L72.7779 52.0167H73.935L71.635 48.5596L73.4411 46.0903H73.1166L71.4656 48.3903L69.984 46.0903H68.827L70.8025 49.2228L68.9963 52.0167Z" fill="black"/>
</g>
</svg>
