<svg width="134" height="66" viewBox="0 0 134 66" fill="none" xmlns="http://www.w3.org/2000/svg">
<mask id="mask0_270_2650" style="mask-type:alpha" maskUnits="userSpaceOnUse" x="0" y="0" width="134" height="66">
<rect width="134" height="66" fill="#D9D9D9"/>
</mask>
<g mask="url(#mask0_270_2650)">
<path fill-rule="evenodd" clip-rule="evenodd" d="M37.218 27.0218C38.3549 27.0866 39.4976 27.1573 40.6461 27.2221C40.5696 27.5048 40.4989 27.7816 40.4223 28.0643C40.546 28.942 40.6638 29.8137 40.7875 30.6855C40.9112 31.5572 41.0349 32.429 41.1586 33.2948C41.2823 34.1607 41.406 35.0207 41.5297 35.8806C41.6534 36.7406 41.7771 37.6006 41.9125 38.4547C42.0186 38.7374 42.1246 39.0201 42.2483 39.3028C41.3883 39.3441 40.5283 39.3912 39.6743 39.4324C39.7273 39.1379 39.7803 38.8434 39.851 38.543C39.7803 37.9834 39.7155 37.418 39.6566 36.8584C39.1736 36.8702 38.6906 36.8879 38.2135 36.8996C38.1487 37.471 38.0839 38.0482 38.0309 38.6196C38.0839 38.9141 38.1487 39.2086 38.2135 39.5031C37.3417 39.5443 36.47 39.5915 35.61 39.6386C35.7337 39.3323 35.8515 39.0201 35.9634 38.7138C36.0812 37.8067 36.2108 36.8996 36.3227 35.9984C36.4405 35.0972 36.5642 34.1902 36.682 33.289C36.7998 32.3936 36.9176 31.4983 37.0354 30.603C37.1591 29.7077 37.2828 28.8183 37.4065 27.923C37.33 27.6226 37.2711 27.3222 37.2063 27.0159L37.218 27.0218ZM38.938 30.7267C38.8555 31.357 38.7848 31.9931 38.72 32.6234C38.6553 33.2595 38.5846 33.8898 38.5198 34.5259C38.7966 34.5259 39.0793 34.5259 39.3562 34.52C39.2796 33.8898 39.2089 33.2595 39.1441 32.6292C39.0793 31.9931 39.0087 31.3629 38.9439 30.7267H38.938ZM29.5785 26.5977C29.6727 26.6036 29.7669 26.6095 29.8671 26.6154C30.4679 26.6507 31.0746 26.686 31.6872 26.7273C32.4764 26.7744 33.2539 26.8215 34.0491 26.8686C34.4909 27.4753 34.9326 28.0761 35.3744 28.671V32.1463C35.1152 32.4525 34.8561 32.7588 34.5969 33.071C34.8561 33.3773 35.1094 33.6777 35.3744 33.9781V37.9834C34.9326 38.5607 34.4909 39.1497 34.0491 39.7387C33.2539 39.7799 32.4705 39.8271 31.6872 39.8742C31.0746 39.9095 30.4679 39.9449 29.8671 39.9743C29.7728 39.9802 29.6786 39.9861 29.5785 39.992C29.6197 39.6798 29.6609 39.3676 29.708 39.0496V27.5283C29.6668 27.2162 29.6256 26.9099 29.5785 26.5977ZM31.6813 29.2483V37.4356C32.123 37.418 32.5648 37.4062 33.0124 37.3885C33.1479 37.1765 33.307 36.9585 33.4542 36.7406V35.003C33.3246 34.7851 33.195 34.5612 33.0772 34.3433C32.606 34.7497 32.1407 35.1561 31.6813 35.5685V32.8236C32.2703 32.323 32.8652 31.8341 33.4542 31.3452V29.9492C33.307 29.7372 33.1538 29.5251 33.0124 29.3072C32.5589 29.2895 32.1171 29.2718 31.6813 29.2542V29.2483ZM43.0434 28.188C42.9787 27.9053 42.9139 27.6285 42.8609 27.3457C44.3334 27.4164 45.8177 27.4812 47.3021 27.546C47.7262 28.0938 48.1679 28.6416 48.6097 29.1835V33.4303C48.2563 33.8956 47.9146 34.3669 47.5671 34.8381C47.7851 35.4035 47.9971 35.969 48.2092 36.5286C48.4271 37.0881 48.6391 37.6477 48.8689 38.2014C49.0514 38.4664 49.234 38.7315 49.4166 38.9965C48.4683 39.0378 47.5377 39.079 46.6011 39.1202C46.6424 38.8434 46.6954 38.5607 46.7484 38.2838C46.5658 37.7537 46.3714 37.2177 46.2006 36.6817C46.0298 36.1457 45.8472 35.6038 45.6764 35.056C45.4408 35.056 45.2169 35.0619 44.9931 35.0619V36.7053C44.9931 37.2531 44.9931 37.8008 45.0049 38.3427C45.0991 38.6196 45.1993 38.8964 45.2935 39.1733C44.4512 39.2086 43.6207 39.2439 42.7902 39.2852C42.8726 38.9965 42.961 38.7079 43.0434 38.4134V28.188ZM44.9931 29.5899V32.8177C45.4172 32.8177 45.8472 32.8177 46.2772 32.8177C46.4303 32.6292 46.5776 32.4349 46.7366 32.2405V30.2143C46.5776 30.0081 46.4185 29.802 46.2536 29.5958C45.8236 29.5958 45.4054 29.5899 44.9872 29.584L44.9931 29.5899ZM49.9644 27.6697C50.0587 27.6697 50.1588 27.6756 50.2589 27.6815C50.8597 27.705 51.4605 27.7227 52.079 27.7522C52.8624 27.7816 53.6576 27.8111 54.4528 27.8405C54.8945 28.353 55.3363 28.8595 55.7781 29.3661V32.3406C55.5071 32.5998 55.2538 32.8707 54.9888 33.1299C55.2479 33.3891 55.5071 33.6483 55.7781 33.9015V37.3355C55.3363 37.8244 54.8945 38.3192 54.4528 38.8198C53.6576 38.8493 52.8565 38.8787 52.079 38.9023C51.4605 38.9259 50.8597 38.9494 50.2589 38.9671C50.1647 38.9671 50.0646 38.973 49.9644 38.9789C50.0057 38.7138 50.0469 38.4488 50.0999 38.1778V30.8858C50.0999 30.0729 50.0999 29.2659 50.1117 28.4531C50.0528 28.1939 50.0116 27.9348 49.9703 27.6697H49.9644ZM52.0731 29.8903V36.8348C52.5149 36.8231 52.9566 36.8172 53.4043 36.8054C53.5516 36.6228 53.7047 36.4402 53.8578 36.2576V34.7792C53.7224 34.5907 53.5987 34.4022 53.4691 34.2137C52.9979 34.5553 52.5326 34.9029 52.0731 35.2504V32.9238C52.6621 32.4997 53.2512 32.0756 53.8578 31.6574V30.4675C53.7047 30.285 53.5574 30.1024 53.4043 29.9198C52.9508 29.908 52.509 29.9021 52.0731 29.8844V29.8903ZM56.7382 27.9171C56.8147 28.1704 56.8854 28.4236 56.962 28.6769V37.954C56.8795 38.2132 56.8029 38.4782 56.7264 38.7374C58.5995 38.6785 60.4784 38.6196 62.3574 38.5548C62.4516 37.8244 62.5577 37.0999 62.6696 36.3695C62.4399 36.4461 62.2278 36.5168 62.0099 36.5875C60.9791 36.6051 59.9601 36.6228 58.9411 36.6405V34.1136C59.5124 34.1136 60.0779 34.1136 60.6551 34.1077C60.9143 34.196 61.1735 34.2844 61.4444 34.3669V31.9106C61.197 31.9931 60.9614 32.0756 60.7199 32.1521C60.1191 32.1521 59.5301 32.1463 58.9411 32.1404V29.9315C59.6361 29.9433 60.3312 29.961 61.0321 29.9787C61.4209 30.1024 61.8096 30.2202 62.2043 30.3439C62.0688 29.584 61.9451 28.8242 61.8273 28.0585C60.125 28.0113 58.4286 27.9583 56.7323 27.9112L56.7382 27.9171ZM63.4235 29.6724C63.8653 29.1481 64.3188 28.6239 64.7665 28.1056C65.7443 28.1291 66.722 28.1468 67.7116 28.1704C68.1651 28.6946 68.6128 29.2129 69.0781 29.7313V37.0528C69.3078 37.3414 69.5317 37.63 69.7555 37.9128C69.3373 38.3663 68.925 38.8198 68.5185 39.2734C68.224 39.0024 67.9413 38.7315 67.6468 38.4605C66.6572 38.4841 65.6677 38.5018 64.6899 38.5253C64.2599 38.007 63.8417 37.4945 63.4176 36.9703V29.6724H63.4235ZM65.4026 30.5618C65.3909 31.4689 65.3909 32.376 65.3909 33.2831V36.0043C65.544 36.1693 65.6912 36.3401 65.8444 36.4991C66.1036 36.4991 66.3686 36.4932 66.6396 36.4873C66.7986 36.3165 66.9753 36.1457 67.1461 35.9749V30.5795C67.0107 30.4204 66.8693 30.2555 66.7279 30.0965C66.4275 30.0965 66.1271 30.0906 65.8267 30.0847C65.6912 30.2437 65.5499 30.4028 65.4085 30.5618H65.4026ZM69.9616 28.2469C70.0264 28.4884 70.0912 28.7241 70.156 28.9597V36.8996C70.5801 37.3944 71.0219 37.8892 71.4636 38.384C72.4709 38.3722 73.4663 38.3604 74.4676 38.3427C74.9094 37.848 75.3512 37.3591 75.7929 36.8702V29.0244C75.8459 28.7947 75.899 28.5591 75.9637 28.3294C75.1686 28.3117 74.3852 28.3 73.6018 28.2823C73.6666 28.5238 73.7314 28.7653 73.7903 29.0068C73.7903 29.584 73.7903 30.1613 73.7903 30.7385C73.7903 31.3157 73.7903 31.893 73.7903 32.4702C73.7903 33.0475 73.7903 33.6247 73.802 34.2019C73.802 34.7792 73.8197 35.3564 73.8256 35.9336C73.6784 36.1221 73.537 36.3165 73.4015 36.505C73.0893 36.505 72.7772 36.505 72.465 36.505C72.3295 36.3165 72.2058 36.128 72.088 35.9395V28.9832C72.1646 28.7476 72.2353 28.512 72.3118 28.2764C71.5284 28.2646 70.745 28.2528 69.9558 28.2469H69.9616ZM86.9666 28.9008C86.9018 28.6651 86.8488 28.4295 86.7958 28.1939C87.5026 28.1822 88.2154 28.1645 88.9222 28.1527C89.3168 29.2306 89.7291 30.3144 90.1238 31.3982C90.5184 32.4879 90.9366 33.5776 91.343 34.6731C91.3313 33.7013 91.3313 32.7294 91.3313 31.7575V28.8419C91.237 28.5945 91.1428 28.353 91.0427 28.1056C91.8732 28.082 92.7096 28.0585 93.546 28.0349C93.4576 28.2882 93.3693 28.5415 93.2986 28.7888C93.2927 29.5369 93.2868 30.285 93.2868 31.033V37.7596C93.3398 38.007 93.4046 38.2485 93.4694 38.4959C92.7626 38.4782 92.0499 38.4547 91.343 38.437C90.9366 37.365 90.5184 36.2871 90.1238 35.2209C89.7291 34.1548 89.3168 33.0946 88.9222 32.0343V37.6536C89.0164 37.901 89.1166 38.1484 89.2108 38.3899C88.3744 38.3781 87.5498 38.3604 86.7251 38.3427C86.7958 38.1012 86.8842 37.8597 86.9666 37.6182V28.9008ZM118.167 27.8464C118.102 27.5578 118.037 27.2692 117.984 26.9806C118.697 26.9393 119.404 26.8922 120.111 26.8451C120.311 27.5107 120.511 28.1822 120.712 28.8536C120.912 29.5251 121.118 30.2025 121.312 30.8799C121.513 31.5631 121.713 32.2464 121.919 32.9355C122.119 33.6247 122.331 34.3138 122.538 35.003V27.6285C122.443 27.3222 122.349 27.0159 122.249 26.7037C123.074 26.6507 123.91 26.5977 124.752 26.5447C124.664 26.8686 124.576 27.1985 124.493 27.5224V38.973C124.546 39.2852 124.599 39.5973 124.664 39.9154C123.957 39.8742 123.25 39.8271 122.549 39.7858C122.343 39.1026 122.137 38.4134 121.931 37.736C121.731 37.0528 121.524 36.3754 121.324 35.698C121.13 35.0266 120.918 34.361 120.717 33.6954C120.517 33.0298 120.311 32.3642 120.111 31.7045V36.9644C120.111 37.5476 120.111 38.1307 120.123 38.7197C120.217 39.0319 120.311 39.3441 120.411 39.6563C119.575 39.6032 118.738 39.5502 117.914 39.5031C117.996 39.2086 118.085 38.9141 118.167 38.6196V27.8464ZM111.517 29.1423C111.959 28.5238 112.4 27.8935 112.848 27.2633C113.826 27.2103 114.804 27.1573 115.776 27.1042C116.229 27.6933 116.677 28.2882 117.136 28.889V37.5888C116.665 38.2014 116.194 38.8081 115.723 39.403C114.739 39.35 113.761 39.3028 112.783 39.2498C112.353 38.6196 111.929 38.0011 111.511 37.3826V31.2038C111.511 30.5206 111.511 29.8314 111.517 29.1423ZM113.484 30.067V36.3872C113.62 36.5875 113.773 36.7877 113.92 36.988C114.179 36.9939 114.439 37.0057 114.704 37.0116C114.874 36.8172 115.045 36.6228 115.222 36.4284V30.014C115.081 29.8314 114.939 29.6429 114.804 29.4603C114.503 29.4662 114.203 29.478 113.902 29.4898C113.761 29.6783 113.62 29.8726 113.484 30.0611V30.067ZM110.351 28.2352C110.427 27.9524 110.51 27.6697 110.598 27.3811C109.773 27.4164 108.955 27.4577 108.142 27.493C108.218 27.7639 108.301 28.0349 108.389 28.3058V38.1955C108.301 38.4664 108.218 38.7374 108.142 39.0083C108.955 39.0437 109.773 39.079 110.598 39.1144C110.51 38.8316 110.427 38.5489 110.351 38.2662V28.2352ZM102.852 29.7666V38.0011C102.77 38.2603 102.693 38.5253 102.617 38.7845C103.43 38.814 104.248 38.8434 105.061 38.8729C104.979 38.6019 104.89 38.331 104.814 38.06V29.7195C105.309 29.7018 105.815 29.6842 106.316 29.6606C106.705 29.7784 107.099 29.8962 107.5 30.0199C107.358 29.1953 107.229 28.3647 107.099 27.5401C106.328 27.5755 105.556 27.6108 104.796 27.6461C104.148 27.6756 103.506 27.6992 102.876 27.7227C102.104 27.7522 101.333 27.7816 100.567 27.8111C100.438 28.6062 100.314 29.4014 100.184 30.1907C100.567 30.0552 100.956 29.9256 101.35 29.7902C101.845 29.7843 102.346 29.7725 102.852 29.7666ZM95.7666 27.9701C96.8798 27.9407 97.9931 27.9053 99.1181 27.8641C99.0474 28.1291 98.9709 28.3883 98.8943 28.6534C99.018 29.4191 99.1417 30.1848 99.2654 30.9564C99.3891 31.728 99.5127 32.4938 99.6364 33.2654C99.7601 34.037 99.8838 34.8145 100.008 35.592C100.131 36.3695 100.261 37.147 100.39 37.9245C100.502 38.1837 100.608 38.4488 100.714 38.7138C99.8544 38.6844 99.0062 38.6549 98.1639 38.6255C98.2169 38.3722 98.2699 38.1189 98.3347 37.8656C98.2699 37.3709 98.2051 36.8761 98.1521 36.3813C97.6691 36.3695 97.1861 36.3636 96.7149 36.3577C96.6501 36.8466 96.5853 37.3296 96.5323 37.8185C96.5853 38.0718 96.6501 38.3251 96.7149 38.5842C95.8432 38.5607 94.9891 38.5371 94.1291 38.5136C94.2351 38.2662 94.3529 38.0188 94.4707 37.7714C94.5885 37.0233 94.7122 36.2753 94.83 35.5213C94.9478 34.7733 95.0715 34.0193 95.1893 33.2654C95.3072 32.5114 95.425 31.7575 95.5486 31.0036C95.6723 30.2496 95.796 29.4898 95.9197 28.7358C95.8667 28.4826 95.8137 28.2293 95.7725 27.9701H95.7666ZM97.4276 31.0566C97.3511 31.6044 97.2745 32.1463 97.2097 32.694C97.1449 33.2418 97.0742 33.7837 97.0094 34.3315C97.2863 34.3315 97.5631 34.3315 97.8458 34.3315C97.7692 33.7837 97.6927 33.2359 97.6279 32.6882C97.5631 32.1404 97.4924 31.5985 97.4276 31.0507V31.0566ZM76.7943 28.3353C76.8708 28.5709 76.9415 28.8006 77.0181 29.0362V37.6006C76.9356 37.8421 76.8473 38.0777 76.7707 38.3192C78.6497 38.3015 80.5345 38.2838 82.4135 38.2662C82.5078 37.577 82.602 36.8937 82.7139 36.2046C82.496 36.2694 82.2839 36.3401 82.066 36.4049C81.0352 36.4049 80.0162 36.4166 78.9972 36.4166V34.0665C79.5686 34.0665 80.134 34.0665 80.7054 34.0665C80.9645 34.1489 81.2296 34.2314 81.5005 34.3138V32.0049C81.2531 32.0815 81.0058 32.158 80.7701 32.2346C80.1811 32.2346 79.5921 32.2346 79.0031 32.2346V30.1789C79.6864 30.1789 80.3873 30.1848 81.0882 30.1907C81.477 30.3026 81.8775 30.4145 82.2722 30.5206C82.1367 29.802 82.013 29.0892 81.8834 28.3706C80.1811 28.3589 78.4848 28.353 76.8002 28.3412L76.7943 28.3353Z" fill="#EA5707"/>
<path fill-rule="evenodd" clip-rule="evenodd" d="M16.7162 38.241C15.332 38.241 13.9478 38.4119 12.5636 38.7653C12.4752 34.4772 11.1676 31.7677 9 30.1715C10.5786 30.0713 11.6094 30.6309 12.2691 31.6911L11.5976 32.1977C13.2763 34.7953 15.1258 31.8148 12.6107 29.5825C13.4059 29.5294 13.9242 29.8122 14.2541 30.3482L13.9124 30.5897C15.1611 32.6041 16.4747 32.0505 16.4688 31.1257V30.4012C15.974 30.3187 15.544 29.8946 15.6265 29.4058C15.6913 28.6871 15.7325 26.3782 16.186 26.0012V29.1112C16.186 29.3822 16.4099 29.6001 16.6749 29.6001C16.6867 29.6001 16.6985 29.6001 16.7103 29.6001C16.722 29.6001 16.7338 29.6001 16.7456 29.6001C17.0166 29.6001 17.2345 29.3763 17.2345 29.1112V26.0012C17.688 26.3782 17.7293 28.6871 17.7941 29.4058C17.8765 29.8946 17.4465 30.3187 16.9577 30.4012V31.1257C16.9577 32.0505 18.2653 32.6041 19.514 30.5897L19.1724 30.3482C19.5022 29.8122 20.0264 29.5294 20.8157 29.5825C18.3006 31.809 20.1501 34.7953 21.8288 32.1977L21.1574 31.6911C21.8171 30.6309 22.8478 30.0713 24.4264 30.1715C22.2588 31.7677 20.9512 34.4772 20.8629 38.7653C19.4787 38.4119 18.0945 38.241 16.7103 38.241H16.7162ZM12.5636 39.1599V40.014C14.0067 39.6783 15.385 39.5192 16.7162 39.5133C18.0473 39.5133 19.4256 39.6783 20.8687 40.014V39.1599C19.4669 38.7947 18.0945 38.618 16.7162 38.618C15.3378 38.618 13.9654 38.8006 12.5636 39.1599Z" fill="#EA5707"/>
<path fill-rule="evenodd" clip-rule="evenodd" d="M13.3293 35.0371L13.4176 35.3139H13.7063L13.4707 35.4789L13.559 35.7557L13.3293 35.5849L13.0937 35.7557L13.182 35.4789L12.9464 35.3139H13.2409L13.3293 35.0371Z" fill="white"/>
<path fill-rule="evenodd" clip-rule="evenodd" d="M20.1442 35.0371L20.2326 35.3139H20.5212L20.2915 35.4789L20.3799 35.7557L20.1442 35.5849L19.9145 35.7557L20.0029 35.4789L19.7673 35.3139H20.0559L20.1442 35.0371Z" fill="white"/>
<path fill-rule="evenodd" clip-rule="evenodd" d="M14.201 33.8361C14.2364 33.8243 14.2776 33.8184 14.313 33.8067C14.5427 33.7478 14.7783 33.7006 15.008 33.6535C15.3084 33.6005 15.6147 33.5593 15.9151 33.5239C16.0859 33.6712 16.2508 33.8184 16.4217 33.9657V34.9376C16.3215 35.0318 16.2214 35.1202 16.1213 35.2144C16.2214 35.291 16.3215 35.3734 16.4217 35.45V36.575C16.2508 36.74 16.0859 36.9049 15.9151 37.0757C15.6147 37.1052 15.3084 37.1405 15.008 37.1817C14.7783 37.2171 14.5427 37.2642 14.313 37.3113C14.2776 37.3172 14.2364 37.329 14.201 37.3349C14.2187 37.2524 14.2364 37.1641 14.2541 37.0816V35.5737C14.2541 35.073 14.2541 34.5724 14.2541 34.0658L14.201 33.8361ZM15.008 34.3309V36.5279C15.1788 36.4985 15.3496 36.4749 15.5205 36.4572C15.5794 36.3925 15.6324 36.3277 15.6913 36.2688V35.7917C15.6441 35.7386 15.597 35.6797 15.544 35.6267C15.3673 35.7622 15.1847 35.8918 15.008 36.0331V35.2969C15.2318 35.1261 15.4616 34.9552 15.6854 34.7903V34.4075C15.6265 34.3544 15.5735 34.3073 15.5146 34.2543C15.3437 34.2779 15.1729 34.3073 15.0021 34.3368L15.008 34.3309Z" fill="white"/>
<path fill-rule="evenodd" clip-rule="evenodd" d="M16.7044 33.7137C16.6808 33.6312 16.6573 33.5488 16.6337 33.4663C16.9046 33.4663 17.1756 33.4663 17.4465 33.484C17.5997 33.8727 17.7587 34.2674 17.9119 34.6561C18.065 35.0508 18.2241 35.4513 18.3772 35.8518C18.3772 35.522 18.3772 35.1862 18.3772 34.8564C18.3772 34.5265 18.3772 34.1908 18.3772 33.861C18.3419 33.7667 18.3065 33.6784 18.2653 33.5841C18.5834 33.6489 18.9014 33.7255 19.2195 33.8197C19.1842 33.8963 19.1547 33.967 19.1253 34.0435C19.1253 34.5442 19.1253 35.0449 19.1253 35.5455V37.0475C19.1488 37.1359 19.1724 37.2184 19.1959 37.3067C18.925 37.2419 18.654 37.1889 18.3831 37.1418C18.2299 36.753 18.0709 36.3643 17.9178 35.9814C17.7646 35.5986 17.6056 35.2157 17.4524 34.8387C17.4524 35.1627 17.4524 35.4866 17.4524 35.8165C17.4524 36.1463 17.4524 36.4644 17.4524 36.7884C17.4878 36.8767 17.5231 36.9651 17.5643 37.0534C17.2463 37.0358 16.9282 37.024 16.6101 37.0299C16.6396 36.9415 16.6749 36.8591 16.7044 36.7707V35.2451C16.7044 34.7386 16.7044 34.2261 16.7044 33.7137Z" fill="white"/>
</g>
</svg>
