<svg width="116" height="15" viewBox="0 0 116 15" fill="none" xmlns="http://www.w3.org/2000/svg">
<path fill-rule="evenodd" clip-rule="evenodd" d="M28.2182 1.02398C29.355 1.08877 30.4977 1.15946 31.6463 1.22425C31.5697 1.50698 31.499 1.78382 31.4225 2.06655C31.5462 2.94418 31.664 3.81593 31.7877 4.68768C31.9114 5.55943 32.035 6.43118 32.1587 7.29704C32.2824 8.1629 32.4061 9.02287 32.5298 9.88283C32.6535 10.7428 32.7772 11.6028 32.9127 12.4568C33.0187 12.7396 33.1247 13.0223 33.2484 13.305C32.3885 13.3463 31.5285 13.3934 30.6744 13.4346C30.7274 13.1401 30.7804 12.8456 30.8511 12.5452C30.7804 11.9856 30.7156 11.4202 30.6567 10.8606C30.1737 10.8724 29.6907 10.8901 29.2136 10.9018C29.1488 11.4732 29.0841 12.0504 29.031 12.6218C29.0841 12.9163 29.1488 13.2108 29.2136 13.5053C28.3419 13.5465 27.4701 13.5937 26.6102 13.6408C26.7339 13.3345 26.8517 13.0223 26.9636 12.716C27.0814 11.8089 27.211 10.9018 27.3229 10.0006C27.4407 9.09944 27.5644 8.19235 27.6822 7.29115C27.8 6.39584 27.9178 5.50053 28.0356 4.60522C28.1593 3.70991 28.283 2.82049 28.4067 1.92518C28.3301 1.62478 28.2712 1.32438 28.2064 1.01809L28.2182 1.02398ZM29.9381 4.72891C29.8557 5.35916 29.785 5.99531 29.7202 6.62556C29.6554 7.2617 29.5847 7.89195 29.5199 8.52809C29.7968 8.52809 30.0795 8.52809 30.3563 8.5222C30.2798 7.89195 30.2091 7.2617 30.1443 6.63145C30.0795 5.99531 30.0088 5.36505 29.944 4.72891H29.9381ZM20.5786 0.599887C20.6729 0.605777 20.7671 0.611667 20.8672 0.617557C21.468 0.652898 22.0747 0.68824 22.6873 0.729471C23.4766 0.776593 24.2541 0.823714 25.0493 0.870836C25.491 1.47753 25.9328 2.07833 26.3746 2.67324V6.14845C26.1154 6.45474 25.8562 6.76103 25.5971 7.07321C25.8562 7.3795 26.1095 7.6799 26.3746 7.9803V11.9856C25.9328 12.5629 25.491 13.1519 25.0493 13.7409C24.2541 13.7821 23.4707 13.8293 22.6873 13.8764C22.0747 13.9117 21.468 13.9471 20.8672 13.9765C20.773 13.9824 20.6787 13.9883 20.5786 13.9942C20.6198 13.682 20.6611 13.3698 20.7082 13.0518V1.53054C20.667 1.21836 20.6257 0.912067 20.5786 0.599887ZM22.6814 3.25047V11.4378C23.1232 11.4202 23.5649 11.4084 24.0126 11.3907C24.1481 11.1787 24.3071 10.9607 24.4544 10.7428V9.00519C24.3248 8.78726 24.1952 8.56343 24.0774 8.34549C23.6062 8.75192 23.1408 9.15834 22.6814 9.57065V6.82582C23.2704 6.32516 23.8653 5.83627 24.4544 5.34738V3.95141C24.3071 3.73936 24.154 3.52731 24.0126 3.30938C23.5591 3.29171 23.1173 3.27404 22.6814 3.25636V3.25047ZM34.0436 2.19024C33.9788 1.90751 33.914 1.63067 33.861 1.34794C35.3336 1.41862 36.8179 1.48342 38.3022 1.54821C38.7263 2.096 39.1681 2.64378 39.6098 3.18568V7.43251C39.2564 7.89784 38.9148 8.36905 38.5673 8.84027C38.7852 9.40573 38.9973 9.97119 39.2093 10.5308C39.4272 11.0903 39.6393 11.6499 39.869 12.2036C40.0516 12.4686 40.2342 12.7337 40.4168 12.9987C39.4685 13.04 38.5378 13.0812 37.6013 13.1224C37.6425 12.8456 37.6955 12.5629 37.7485 12.286C37.5659 11.7559 37.3716 11.2199 37.2007 10.6839C37.0299 10.1479 36.8473 9.60599 36.6765 9.05821C36.4409 9.05821 36.2171 9.0641 35.9933 9.0641V10.7075C35.9933 11.2552 35.9933 11.803 36.005 12.3449C36.0993 12.6218 36.1994 12.8986 36.2937 13.1755C35.4514 13.2108 34.6208 13.2461 33.7903 13.2874C33.8728 12.9987 33.9611 12.7101 34.0436 12.4156V2.19024ZM35.9933 3.59211V6.81993C36.4173 6.81993 36.8473 6.81993 37.2773 6.81993C37.4305 6.63145 37.5777 6.43707 37.7368 6.24269V4.21647C37.5777 4.01031 37.4187 3.80415 37.2538 3.598C36.8238 3.598 36.4056 3.59211 35.9874 3.58622L35.9933 3.59211ZM40.9646 1.6719C41.0588 1.6719 41.159 1.67779 41.2591 1.68368C41.8599 1.70724 42.4607 1.72491 43.0792 1.75436C43.8626 1.78382 44.6577 1.81327 45.4529 1.84272C45.8947 2.35516 46.3364 2.86172 46.7782 3.36828V6.34283C46.5073 6.602 46.254 6.87294 45.9889 7.13211C46.2481 7.39128 46.5073 7.65045 46.7782 7.90373V11.3377C46.3364 11.8266 45.8947 12.3214 45.4529 12.822C44.6577 12.8515 43.8567 12.8809 43.0792 12.9045C42.4607 12.9281 41.8599 12.9516 41.2591 12.9693C41.1648 12.9693 41.0647 12.9752 40.9646 12.9811C41.0058 12.716 41.047 12.451 41.1001 12.18V4.88795C41.1001 4.0751 41.1001 3.26815 41.1118 2.4553C41.0529 2.19613 41.0117 1.93696 40.9705 1.6719H40.9646ZM43.0733 3.89251V10.837C43.515 10.8253 43.9568 10.8194 44.4045 10.8076C44.5517 10.625 44.7049 10.4424 44.858 10.2598V8.78137C44.7225 8.59288 44.5988 8.40439 44.4692 8.21591C43.998 8.55754 43.5327 8.90506 43.0733 9.25258V6.92596C43.6623 6.50186 44.2513 6.07777 44.858 5.65956V4.46974C44.7049 4.28715 44.5576 4.10455 44.4045 3.92196C43.9509 3.91018 43.5091 3.90429 43.0733 3.88662V3.89251ZM47.7383 1.91929C47.8149 2.17257 47.8856 2.42585 47.9621 2.67913V11.9562C47.8797 12.2154 47.8031 12.4804 47.7265 12.7396C49.5996 12.6807 51.4786 12.6218 53.3576 12.557C53.4518 11.8266 53.5578 11.1021 53.6697 10.3717C53.44 10.4483 53.228 10.519 53.01 10.5897C51.9792 10.6073 50.9602 10.625 49.9412 10.6427V8.11578C50.5126 8.11578 51.078 8.11578 51.6553 8.10989C51.9145 8.19824 52.1736 8.28659 52.4446 8.36905V5.91284C52.1972 5.99531 51.9616 6.07777 51.7201 6.15434C51.1193 6.15434 50.5303 6.14845 49.9412 6.14256V3.93374C50.6363 3.94552 51.3313 3.96319 52.0323 3.98086C52.421 4.10455 52.8098 4.22236 53.2044 4.34605C53.0689 3.58622 52.9452 2.82638 52.8274 2.06065C51.1252 2.01353 49.4288 1.96052 47.7324 1.9134L47.7383 1.91929ZM54.4237 3.67457C54.8654 3.15034 55.319 2.62611 55.7666 2.10778C56.7444 2.13134 57.7222 2.14901 58.7117 2.17257C59.1653 2.6968 59.6129 3.21513 60.0783 3.73347V11.055C60.308 11.3436 60.5318 11.6322 60.7556 11.915C60.3374 12.3685 59.9251 12.822 59.5187 13.2756C59.2242 13.0046 58.9415 12.7337 58.6469 12.4627C57.6574 12.4863 56.6678 12.504 55.6901 12.5275C55.2601 12.0092 54.8419 11.4967 54.4178 10.9725V3.67457H54.4237ZM56.4028 4.56399C56.391 5.47108 56.391 6.37817 56.391 7.28526V10.0065C56.5441 10.1715 56.6914 10.3423 56.8445 10.5013C57.1037 10.5013 57.3688 10.4954 57.6397 10.4895C57.7988 10.3187 57.9755 10.1479 58.1463 9.97708V4.58166C58.0108 4.42262 57.8694 4.2577 57.7281 4.09866C57.4277 4.09866 57.1273 4.09277 56.8269 4.08688C56.6914 4.24592 56.55 4.40495 56.4087 4.56399H56.4028ZM60.9618 2.24914C61.0266 2.49064 61.0914 2.72625 61.1562 2.96186V10.9018C61.5803 11.3966 62.022 11.8914 62.4638 12.3862C63.471 12.3744 64.4665 12.3626 65.4678 12.3449C65.9096 11.8502 66.3513 11.3613 66.7931 10.8724V3.02665C66.8461 2.79693 66.8991 2.56132 66.9639 2.3316C66.1687 2.31393 65.3853 2.30215 64.6019 2.28448C64.6667 2.52598 64.7315 2.76748 64.7904 3.00898C64.7904 3.58622 64.7904 4.16345 64.7904 4.74069C64.7904 5.31793 64.7904 5.89517 64.7904 6.47241C64.7904 7.04965 64.7904 7.62689 64.8022 8.20413C64.8022 8.78137 64.8199 9.35861 64.8258 9.93585C64.6785 10.1243 64.5371 10.3187 64.4017 10.5072C64.0895 10.5072 63.7773 10.5072 63.4651 10.5072C63.3297 10.3187 63.206 10.1302 63.0882 9.94174V2.98542C63.1647 2.74981 63.2354 2.5142 63.312 2.27859C62.5286 2.26681 61.7452 2.25503 60.9559 2.24914H60.9618ZM77.9668 2.90295C77.902 2.66735 77.849 2.43174 77.796 2.19613C78.5028 2.18435 79.2155 2.16668 79.9223 2.1549C80.317 3.2328 80.7293 4.3166 81.1239 5.4004C81.5186 6.49008 81.9368 7.57977 82.3432 8.67534C82.3314 7.70346 82.3314 6.73158 82.3314 5.7597V2.84405C82.2372 2.59666 82.1429 2.35516 82.0428 2.10778C82.8733 2.08422 83.7097 2.06065 84.5461 2.03709C84.4578 2.29037 84.3694 2.54365 84.2988 2.79104C84.2929 3.53909 84.287 4.28715 84.287 5.0352V11.7618C84.34 12.0092 84.4048 12.2507 84.4696 12.4981C83.7627 12.4804 83.05 12.4568 82.3432 12.4392C81.9368 11.3672 81.5186 10.2893 81.1239 9.22313C80.7293 8.15701 80.317 7.09677 79.9223 6.03654V11.6558C80.0166 11.9032 80.1167 12.1506 80.211 12.3921C79.3745 12.3803 78.5499 12.3626 77.7253 12.3449C77.796 12.1034 77.8843 11.8619 77.9668 11.6204V2.90295ZM109.167 1.84861C109.102 1.55999 109.038 1.27137 108.985 0.982749C109.697 0.941518 110.404 0.894397 111.111 0.847275C111.311 1.51287 111.511 2.18435 111.712 2.85583C111.912 3.52731 112.118 4.20469 112.313 4.88206C112.513 5.56532 112.713 6.24858 112.919 6.93774C113.119 7.62689 113.332 8.31604 113.538 9.00519V1.63067C113.443 1.32438 113.349 1.01809 113.249 0.70591C114.074 0.652899 114.91 0.599887 115.752 0.546875C115.664 0.870836 115.576 1.20069 115.493 1.52465V12.9752C115.546 13.2874 115.599 13.5995 115.664 13.9176C114.957 13.8764 114.25 13.8293 113.549 13.788C113.343 13.1048 113.137 12.4156 112.931 11.7382C112.731 11.055 112.525 10.3776 112.324 9.70024C112.13 9.02876 111.918 8.36316 111.718 7.69757C111.517 7.03198 111.311 6.36639 111.111 5.70669V10.9666C111.111 11.5498 111.111 12.1329 111.123 12.7219C111.217 13.0341 111.311 13.3463 111.411 13.6584C110.575 13.6054 109.739 13.5524 108.914 13.5053C108.996 13.2108 109.085 12.9163 109.167 12.6218V1.84861ZM102.517 3.14445C102.959 2.52598 103.401 1.89573 103.848 1.26548C104.826 1.21247 105.804 1.15946 106.776 1.10644C107.229 1.69546 107.677 2.29037 108.136 2.89117V11.591C107.665 12.2036 107.194 12.8103 106.723 13.4052C105.739 13.3522 104.761 13.305 103.784 13.252C103.354 12.6218 102.929 12.0033 102.511 11.3848V5.20602C102.511 4.52276 102.511 3.8336 102.517 3.14445ZM104.484 4.06921V10.3894C104.62 10.5897 104.773 10.7899 104.92 10.9902C105.179 10.9961 105.439 11.0079 105.704 11.0138C105.875 10.8194 106.045 10.625 106.222 10.4306V4.0162C106.081 3.8336 105.939 3.64512 105.804 3.46252C105.503 3.46841 105.203 3.48019 104.903 3.49197C104.761 3.68046 104.62 3.87484 104.484 4.06332V4.06921ZM101.351 2.23736C101.427 1.95463 101.51 1.6719 101.598 1.38328C100.774 1.41862 99.9549 1.45986 99.142 1.4952C99.2186 1.76615 99.3011 2.03709 99.3894 2.30804V12.1977C99.3011 12.4686 99.2186 12.7396 99.142 13.0105C99.9549 13.0459 100.774 13.0812 101.598 13.1166C101.51 12.8338 101.427 12.5511 101.351 12.2684V2.23736ZM93.8526 3.76881V12.0033C93.7702 12.2625 93.6936 12.5275 93.617 12.7867C94.4299 12.8161 95.2486 12.8456 96.0615 12.8751C95.979 12.6041 95.8906 12.3332 95.8141 12.0622V3.72169C96.3089 3.70402 96.8154 3.68635 97.3161 3.66279C97.7048 3.78059 98.0995 3.8984 98.5 4.02209C98.3587 3.19746 98.2291 2.36695 98.0995 1.54232C97.3279 1.57766 96.5562 1.613 95.7964 1.64834C95.1485 1.67779 94.5065 1.70135 93.8762 1.72491C93.1046 1.75436 92.333 1.78382 91.5673 1.81327C91.4377 2.60844 91.314 3.40362 91.1844 4.19291C91.5672 4.05743 91.956 3.92785 92.3506 3.79237C92.8454 3.78648 93.3461 3.7747 93.8526 3.76881ZM86.7667 1.9723C87.88 1.94285 88.9932 1.90751 90.1183 1.86628C90.0476 2.13134 89.971 2.39051 89.8944 2.65556C90.0181 3.42129 90.1418 4.18702 90.2655 4.95863C90.3892 5.73025 90.5129 6.49597 90.6366 7.26759C90.7603 8.0392 90.884 8.81671 91.0077 9.59421C91.1314 10.3717 91.261 11.1492 91.3905 11.9267C91.5025 12.1859 91.6085 12.451 91.7145 12.716C90.8545 12.6866 90.0063 12.6571 89.164 12.6277C89.2171 12.3744 89.2701 12.1211 89.3349 11.8678C89.2701 11.3731 89.2053 10.8783 89.1523 10.3835C88.6693 10.3717 88.1863 10.3658 87.7151 10.3599C87.6503 10.8488 87.5855 11.3318 87.5325 11.8207C87.5855 12.074 87.6503 12.3273 87.7151 12.5864C86.8433 12.5629 85.9892 12.5393 85.1293 12.5158C85.2353 12.2684 85.3531 12.021 85.4709 11.7736C85.5887 11.0255 85.7124 10.2775 85.8302 9.52353C85.948 8.77548 86.0717 8.02153 86.1895 7.26759C86.3073 6.51364 86.4251 5.7597 86.5488 5.00575C86.6725 4.25181 86.7962 3.49197 86.9199 2.73803C86.8669 2.48475 86.8139 2.23147 86.7726 1.9723H86.7667ZM88.4278 5.05876C88.3512 5.60655 88.2746 6.14845 88.2098 6.69624C88.1451 7.24403 88.0744 7.78592 88.0096 8.33371C88.2864 8.33371 88.5632 8.33371 88.846 8.33371C88.7694 7.78592 88.6928 7.23814 88.628 6.69035C88.5632 6.14256 88.4926 5.60066 88.4278 5.05287V5.05876ZM67.7944 2.33749C67.871 2.5731 67.9417 2.80282 68.0182 3.03843V11.6028C67.9358 11.8443 67.8474 12.0799 67.7709 12.3214C69.6498 12.3037 71.5347 12.286 73.4137 12.2684C73.5079 11.5792 73.6022 10.8959 73.7141 10.2068C73.4961 10.2716 73.2841 10.3423 73.0661 10.4071C72.0354 10.4071 71.0164 10.4188 69.9974 10.4188V8.06865C70.5687 8.06865 71.1342 8.06865 71.7055 8.06865C71.9647 8.15112 72.2297 8.23358 72.5007 8.31604V6.00709C72.2533 6.08366 72.0059 6.16023 71.7703 6.2368C71.1813 6.2368 70.5923 6.2368 70.0032 6.2368V4.18113C70.6865 4.18113 71.3874 4.18702 72.0884 4.19291C72.4771 4.30482 72.8777 4.41673 73.2723 4.52276C73.1368 3.80415 73.0131 3.09144 72.8835 2.37284C71.1813 2.36106 69.4849 2.35516 67.8003 2.34338L67.7944 2.33749Z" fill="#EA5707"/>
<path fill-rule="evenodd" clip-rule="evenodd" d="M7.71616 12.2398C6.33196 12.2398 4.94776 12.4106 3.56357 12.7641C3.47521 8.47599 2.16759 5.7665 0 4.17026C1.57857 4.07012 2.60936 4.62969 3.26906 5.68993L2.59758 6.19649C4.27628 8.79406 6.1258 5.81362 3.61069 3.58124C4.40587 3.52823 4.9242 3.81096 5.25405 4.34696L4.91242 4.58846C6.16114 6.60291 7.47466 6.04923 7.46877 5.12447V4.39998C6.97399 4.31751 6.54401 3.89342 6.62647 3.40453C6.69126 2.68593 6.73249 0.376972 7.18604 0V3.11002C7.18604 3.38097 7.40986 3.59891 7.67492 3.59891C7.6867 3.59891 7.69848 3.59891 7.71027 3.59891C7.72205 3.59891 7.73383 3.59891 7.74561 3.59891C8.01655 3.59891 8.23449 3.37508 8.23449 3.11002V0C8.68804 0.376972 8.72927 2.68593 8.79406 3.40453C8.87652 3.89342 8.44654 4.31751 7.95765 4.39998V5.12447C7.95765 6.04923 9.26528 6.60291 10.514 4.58846L10.1724 4.34696C10.5022 3.81096 11.0264 3.52823 11.8157 3.58124C9.30062 5.80773 11.1501 8.79406 12.8288 6.19649L12.1574 5.68993C12.8171 4.62969 13.8478 4.07012 15.4264 4.17026C13.2588 5.7665 11.9512 8.47599 11.8629 12.7641C10.4787 12.4106 9.09446 12.2398 7.71027 12.2398H7.71616ZM3.56357 13.1587V14.0128C5.00667 13.677 6.38497 13.518 7.71616 13.5121C9.04734 13.5121 10.4256 13.677 11.8687 14.0128V13.1587C10.4669 12.7935 9.09446 12.6168 7.71616 12.6168C6.33785 12.6168 4.96543 12.7994 3.56357 13.1587Z" fill="#EA5707"/>
<path fill-rule="evenodd" clip-rule="evenodd" d="M4.32915 9.03906L4.4175 9.3159H4.70612L4.47052 9.48083L4.55887 9.75767L4.32915 9.58685L4.09354 9.75767L4.1819 9.48083L3.94629 9.3159H4.2408L4.32915 9.03906Z" fill="white"/>
<path fill-rule="evenodd" clip-rule="evenodd" d="M11.1441 9.03906L11.2324 9.3159H11.521L11.2913 9.48083L11.3797 9.75767L11.1441 9.58685L10.9143 9.75767L11.0027 9.48083L10.7671 9.3159H11.0557L11.1441 9.03906Z" fill="white"/>
<path fill-rule="evenodd" clip-rule="evenodd" d="M5.20117 7.83562C5.23651 7.82384 5.27774 7.81795 5.31309 7.80617C5.5428 7.74726 5.77841 7.70014 6.00813 7.65302C6.30853 7.60001 6.61482 7.55878 6.91522 7.52344C7.08603 7.67069 7.25096 7.81795 7.42178 7.9652V8.93708C7.32164 9.03133 7.22151 9.11968 7.12138 9.21392C7.22151 9.2905 7.32164 9.37296 7.42178 9.44953V10.5746C7.25096 10.7395 7.08603 10.9044 6.91522 11.0752C6.61482 11.1047 6.30853 11.14 6.00813 11.1812C5.77841 11.2166 5.5428 11.2637 5.31309 11.3108C5.27774 11.3167 5.23651 11.3285 5.20117 11.3344C5.21884 11.2519 5.23651 11.1636 5.25418 11.0811V9.57323C5.25418 9.07256 5.25418 8.57189 5.25418 8.06533L5.20117 7.83562ZM6.00813 8.33039V10.5274C6.17894 10.498 6.34976 10.4744 6.52058 10.4568C6.57948 10.392 6.63249 10.3272 6.69139 10.2683V9.79116C6.64427 9.73815 6.59715 9.67925 6.54414 9.62624C6.36743 9.76171 6.18483 9.8913 6.00813 10.0327V9.29639C6.23196 9.12557 6.46167 8.95475 6.6855 8.78983V8.40697C6.6266 8.35396 6.57359 8.30683 6.51469 8.25382C6.34387 8.27738 6.17305 8.30683 6.00224 8.33628L6.00813 8.33039Z" fill="white"/>
<path fill-rule="evenodd" clip-rule="evenodd" d="M7.70459 7.71614C7.68103 7.63368 7.65747 7.55121 7.63391 7.46875C7.90486 7.46875 8.17581 7.46875 8.44676 7.48642C8.5999 7.87517 8.75894 8.26982 8.91208 8.65857C9.06523 9.05321 9.22427 9.45375 9.37741 9.85428C9.37741 9.52443 9.37741 9.18869 9.37741 8.85884C9.37741 8.52898 9.37741 8.19324 9.37741 7.86339C9.34207 7.76915 9.30673 7.6808 9.2655 7.58655C9.58357 7.65135 9.90164 7.72792 10.2197 7.82216C10.1844 7.89873 10.1549 7.96942 10.1255 8.04599C10.1255 8.54666 10.1255 9.04732 10.1255 9.54799V11.05C10.149 11.1383 10.1726 11.2208 10.1961 11.3092C9.9252 11.2444 9.65425 11.1914 9.3833 11.1442C9.23016 10.7555 9.07112 10.3667 8.91798 9.98386C8.76483 9.601 8.60579 9.21814 8.45265 8.84117C8.45265 9.16513 8.45265 9.48909 8.45265 9.81894C8.45265 10.1488 8.45265 10.4669 8.45265 10.7908C8.48799 10.8792 8.52333 10.9675 8.56456 11.0559C8.24649 11.0382 7.92842 11.0264 7.61035 11.0323C7.6398 10.944 7.67514 10.8615 7.70459 10.7731V9.24759C7.70459 8.74103 7.70459 8.22859 7.70459 7.71614Z" fill="white"/>
</svg>
