<svg width="86" height="20" viewBox="0 0 86 20" fill="none" xmlns="http://www.w3.org/2000/svg">
<g clip-path="url(#clip0_8183_3463)">
<path d="M32.0512 9.04902C32.689 9.21366 33.1466 9.32125 33.599 9.45089C36.1736 10.1924 37.5814 12.3443 37.3908 15.2404C37.2314 17.6801 35.6084 19.5495 32.9897 19.6973C29.5259 19.893 26.0439 19.7452 22.51 19.7452V0.211787C22.5632 0.153451 22.5852 0.109375 22.6059 0.109375C25.7885 0.159933 28.9866 0.0406683 32.1484 0.327162C34.2187 0.515133 35.4346 2.14335 35.6045 4.06843C35.7885 6.15038 34.8292 7.77211 32.9003 8.64326C32.676 8.74438 32.4556 8.85586 32.0525 9.04902H32.0512ZM25.6096 9.44311C25.6096 12.0436 25.5227 14.3952 25.6368 16.7351C25.7276 18.6109 26.8048 19.4756 28.669 19.53C32.4932 19.6428 34.815 16.8816 33.6612 12.7203C33.2192 11.1271 32.1704 10.0537 30.5124 9.82164C28.9334 9.59997 27.3286 9.56756 25.6096 9.44181V9.44311ZM25.6044 9.26681C26.9656 9.1281 28.1932 9.10217 29.3768 8.86105C31.2396 8.48122 32.2625 6.95023 32.2365 4.8281C32.2093 2.63597 31.0789 0.932559 29.2834 0.596803C28.2801 0.408832 27.2339 0.419203 26.2072 0.414018C26.0076 0.414018 25.6329 0.749773 25.6303 0.933855C25.5927 3.63156 25.6044 6.32927 25.6044 9.2681V9.26681Z" fill="#C20020"/>
<path d="M61.507 9.05915C62.2019 9.23805 62.7282 9.34824 63.239 9.50898C65.6605 10.2661 67.0645 12.5178 66.8376 15.2544C66.6354 17.6967 65.0539 19.5505 62.5182 19.6918C59.0232 19.885 55.5088 19.7398 51.9438 19.7398V0.212842C52.0359 0.132469 52.0852 0.0546875 52.1318 0.0546875C55.0992 0.0845036 58.0743 0.00931519 61.0326 0.193397C63.2986 0.3347 64.7129 1.81384 65.024 3.8893C65.3378 5.98809 64.3123 7.75761 62.2447 8.6871C62.0515 8.77395 61.8674 8.87636 61.507 9.05915ZM55.0214 9.48435C55.0214 11.7478 55.0136 13.8051 55.0227 15.8624C55.0344 18.6885 56.2607 19.7904 59.066 19.5129C61.5732 19.264 63.2403 17.5645 63.3751 15.1196C63.541 12.0939 62.2654 10.1818 59.5858 9.74233C58.1417 9.5051 56.6483 9.56473 55.0201 9.48306L55.0214 9.48435ZM55.0421 9.26138C56.3748 9.12915 57.6296 9.10452 58.8391 8.85951C60.6476 8.49264 61.7054 6.93443 61.695 4.90953C61.6846 2.69017 60.5166 0.923243 58.7056 0.59397C57.7009 0.411184 56.6548 0.420259 55.6281 0.417666C55.4336 0.417666 55.0694 0.765088 55.0668 0.955652C55.0292 3.65206 55.0421 6.34977 55.0421 9.26138Z" fill="#C20020"/>
<path d="M85.9999 19.9159C84.9784 19.9159 84.0489 19.969 83.1336 19.8834C82.8627 19.8575 82.5218 19.4829 82.3973 19.1899C81.4743 17.0263 80.5734 14.8536 79.7242 12.6602C79.4987 12.0768 79.2083 11.8759 78.6003 11.8875C76.9552 11.9174 75.3089 11.92 73.6651 11.8642C73.061 11.8435 72.8315 12.0807 72.6345 12.5992C71.8009 14.7992 70.9363 16.9861 70.0548 19.1666C69.9329 19.466 69.6503 19.7007 69.4416 19.9651C69.3314 19.8925 69.2225 19.8199 69.1123 19.7486C69.4494 18.9332 69.7968 18.1204 70.1222 17.2998C72.2702 11.8772 74.4066 6.44935 76.5741 1.03579C76.731 0.645583 77.1095 0.343533 77.3856 0C77.6423 0.327977 77.9858 0.61836 78.1414 0.989117C80.6822 7.05086 83.1998 13.123 85.7225 19.1938C85.8067 19.396 85.8806 19.6021 86.0012 19.9159H85.9999ZM76.0893 3.65442C75.0574 6.33916 74.1214 8.7763 73.1608 11.2809H79.1655C78.1388 8.73482 77.1601 6.30935 76.0893 3.65442Z" fill="#C20020"/>
<path d="M45.2594 19.8851H42.2285V0.0703125H45.2594V19.8851Z" fill="#C20020"/>
<path d="M0.0181714 7.13868C-0.103686 5.59214 0.658569 4.6445 1.70473 3.85373C2.7794 3.04092 3.86315 2.23977 4.98968 1.39844C5.28136 2.59886 4.80041 3.61131 3.87352 4.3606C2.68088 5.32509 1.38582 6.16383 0.0181714 7.13868Z" fill="#C20020"/>
<path d="M0.105091 8C1.21347 8.75448 2.35167 9.47395 3.42764 10.2764C4.53991 11.1061 5.27235 12.1639 5.01438 13.6949C3.67654 12.6591 2.32963 11.6881 1.07087 10.616C0.154352 9.83563 -0.0725091 9.00597 0.105091 8Z" fill="#C20020"/>
<path d="M10.835 7.89973C10.9737 9.50721 10.1311 10.4419 9.06679 11.2482C8.01934 12.0416 6.96411 12.822 5.85054 13.6529C5.58738 12.4331 6.06055 11.4167 6.99004 10.6674C8.18398 9.70426 9.47774 8.86681 10.8363 7.89844L10.835 7.89973Z" fill="#C20020"/>
<path d="M5.00788 18.5541C3.88265 17.7128 2.82742 16.935 1.78515 16.1403C0.710476 15.3223 -0.137339 14.3773 0.0182235 12.8281C1.24457 13.6695 2.43073 14.4187 3.543 15.2653C4.6099 16.0768 5.27623 17.1268 5.00788 18.5541Z" fill="#C20020"/>
<path d="M10.8324 12.7825C10.997 14.3874 10.1362 15.3325 9.06025 16.1531C8.02058 16.9464 6.96664 17.7229 5.86086 18.55C5.59121 17.4235 6.01901 16.4694 6.83442 15.7097C7.46185 15.1251 8.2241 14.6856 8.92413 14.1774C9.51916 13.7457 10.1103 13.3102 10.8324 12.7812V12.7825Z" fill="#C20020"/>
<path d="M5.83491 1.36719C7.047 2.27463 8.21501 3.11597 9.34543 4.00656C10.3112 4.76752 10.9736 5.70478 10.8323 7.12169C9.52173 6.1974 8.26168 5.37681 7.0807 4.45251C6.11622 3.69803 5.61583 2.67521 5.83491 1.36848V1.36719Z" fill="#C20020"/>
</g>
<defs>
<clipPath id="clip0_8183_3463">
<rect width="86" height="19.9651" fill="white"/>
</clipPath>
</defs>
</svg>
