<svg width="86" height="20" viewBox="0 0 86 20" fill="none" xmlns="http://www.w3.org/2000/svg">
<g clip-path="url(#clip0_279_2889)">
<path d="M32.051 9.05317C32.6888 9.21781 33.1464 9.3254 33.5989 9.45504C36.1734 10.1966 37.5812 12.3485 37.3907 15.2445C37.2312 17.6843 35.6082 19.5536 32.9896 19.7014C29.5257 19.8972 26.0437 19.7494 22.5099 19.7494V0.215937C22.563 0.157601 22.585 0.113525 22.6058 0.113525C25.7883 0.164083 28.9864 0.0448187 32.1482 0.331313C34.2185 0.519284 35.4345 2.1475 35.6043 4.07258C35.7884 6.15453 34.8291 7.77626 32.9001 8.64741C32.6758 8.74853 32.4555 8.86001 32.0523 9.05317H32.051ZM25.6094 9.44726C25.6094 12.0477 25.5226 14.3993 25.6367 16.7392C25.7274 18.6151 26.8047 19.4797 28.6688 19.5342C32.4931 19.647 34.8148 16.8857 33.6611 12.7244C33.219 11.1312 32.1703 10.0578 30.5122 9.8258C28.9333 9.60412 27.3284 9.57171 25.6094 9.44596V9.44726ZM25.6042 9.27096C26.9654 9.13225 28.1931 9.10632 29.3766 8.8652C31.2395 8.48537 32.2623 6.95438 32.2364 4.83225C32.2092 2.64012 31.0787 0.936709 29.2833 0.600954C28.2799 0.412983 27.2338 0.423354 26.2071 0.418168C26.0074 0.418168 25.6328 0.753923 25.6302 0.938005C25.5926 3.63571 25.6042 6.33342 25.6042 9.27225V9.27096Z" fill="#C20020"/>
<path d="M61.5067 9.05988C62.2016 9.23878 62.7279 9.34897 63.2387 9.50972C65.6602 10.2668 67.0642 12.5185 66.8373 15.2551C66.6351 17.6975 65.0536 19.5513 62.5179 19.6926C59.0229 19.8857 55.5085 19.7405 51.9435 19.7405V0.213575C52.0356 0.133201 52.0848 0.0554199 52.1315 0.0554199C55.0989 0.085236 58.074 0.0100476 61.0323 0.19413C63.2983 0.335432 64.7126 1.81457 65.0237 3.89003C65.3375 5.98882 64.312 7.75835 62.2444 8.68783C62.0512 8.77468 61.8671 8.8771 61.5067 9.05988ZM55.0211 9.48509C55.0211 11.7485 55.0133 13.8058 55.0224 15.8631C55.034 18.6892 56.2604 19.7911 59.0657 19.5137C61.5728 19.2648 63.24 17.5652 63.3748 15.1203C63.5407 12.0946 62.2651 10.1825 59.5855 9.74306C58.1414 9.50583 56.648 9.56546 55.0198 9.48379L55.0211 9.48509ZM55.0418 9.26211C56.3745 9.12989 57.6293 9.10525 58.8388 8.86024C60.6473 8.49338 61.7051 6.93516 61.6947 4.91026C61.6843 2.6909 60.5163 0.923976 58.7053 0.594702C57.7006 0.411917 56.6545 0.420991 55.6278 0.418399C55.4333 0.418399 55.069 0.765821 55.0665 0.956385C55.0289 3.6528 55.0418 6.35051 55.0418 9.26211Z" fill="#C20020"/>
<path d="M86 19.9193C84.9785 19.9193 84.049 19.9724 83.1338 19.8869C82.8628 19.8609 82.5219 19.4863 82.3974 19.1933C81.4744 17.0297 80.5735 14.857 79.7244 12.6636C79.4988 12.0802 79.2084 11.8793 78.6004 11.891C76.9554 11.9208 75.309 11.9234 73.6652 11.8676C73.0611 11.8469 72.8317 12.0841 72.6346 12.6027C71.8011 14.8026 70.9364 16.9895 70.0549 19.17C69.933 19.4694 69.6504 19.7041 69.4417 19.9685C69.3315 19.8959 69.2226 19.8233 69.1124 19.752C69.4495 18.9366 69.7969 18.1238 70.1223 17.3032C72.2703 11.8806 74.4067 6.45277 76.5742 1.0392C76.7311 0.649001 77.1096 0.346951 77.3857 0.00341797C77.6424 0.331395 77.986 0.621778 78.1415 0.992535C80.6824 7.05428 83.1999 13.1264 85.7226 19.1972C85.8068 19.3994 85.8807 19.6056 86.0013 19.9193H86ZM76.0894 3.65783C75.0575 6.34258 74.1215 8.77972 73.1609 11.2843H79.1656C78.1389 8.73824 77.1602 6.31276 76.0894 3.65783Z" fill="#C20020"/>
<path d="M45.2596 19.8853H42.2287V0.0705566H45.2596V19.8853Z" fill="#C20020"/>
<path d="M0.0181714 7.13942C-0.103686 5.59287 0.658569 4.64524 1.70473 3.85446C2.7794 3.04165 3.86315 2.2405 4.98968 1.39917C5.28136 2.59959 4.80041 3.61204 3.87352 4.36133C2.68088 5.32582 1.38582 6.16456 0.0181714 7.13942Z" fill="#C20020"/>
<path d="M0.10503 8.00488C1.21341 8.75936 2.35161 9.47883 3.42758 10.2813C4.53985 11.1109 5.27229 12.1688 5.01432 13.6998C3.67648 12.664 2.32957 11.693 1.07081 10.6209C0.154291 9.84052 -0.0725702 9.01085 0.10503 8.00488Z" fill="#C20020"/>
<path d="M10.8349 7.90535C10.9736 9.51283 10.131 10.4475 9.0667 11.2538C8.01925 12.0472 6.96402 12.8276 5.85045 13.6586C5.58729 12.4387 6.06046 11.4224 6.98995 10.6731C8.18389 9.70987 9.47765 8.87243 10.8362 7.90405L10.8349 7.90535Z" fill="#C20020"/>
<path d="M5.00782 18.5592C3.88259 17.7179 2.82736 16.9401 1.78509 16.1454C0.710415 15.3274 -0.1374 14.3824 0.0181625 12.8333C1.24451 13.6746 2.43067 14.4239 3.54294 15.2704C4.60984 16.0819 5.27617 17.132 5.00782 18.5592Z" fill="#C20020"/>
<path d="M10.8323 12.7825C10.997 14.3874 10.1362 15.3325 9.06022 16.1531C8.02055 16.9464 6.96661 17.7229 5.86082 18.55C5.59118 17.4235 6.01898 16.4694 6.83439 15.7097C7.46182 15.1251 8.22407 14.6856 8.9241 14.1774C9.51913 13.7457 10.1103 13.3102 10.8323 12.7812V12.7825Z" fill="#C20020"/>
<path d="M5.83488 1.37158C7.04697 2.27903 8.21498 3.12036 9.3454 4.01096C10.3112 4.77191 10.9736 5.70918 10.8323 7.12609C9.5217 6.20179 8.26165 5.3812 7.08067 4.4569C6.11619 3.70242 5.6158 2.6796 5.83488 1.37288V1.37158Z" fill="#C20020"/>
</g>
<defs>
<clipPath id="clip0_279_2889">
<rect width="86" height="19.9651" fill="white"/>
</clipPath>
</defs>
</svg>
