<svg width="145" height="32" viewBox="0 0 145 32" fill="none" xmlns="http://www.w3.org/2000/svg">
<g clip-path="url(#clip0_8187_4799)">
<path d="M144.81 26.0682C144.421 26.0752 144.029 26.0456 143.645 26.0949C141.145 26.4172 140.071 25.4968 140.059 22.9593C140.043 20.0193 140.04 17.0793 140.066 14.1394C140.07 13.6158 139.971 13.4216 139.394 13.4399C138.064 13.4793 138.09 13.4455 138.06 12.1057C138.049 11.6075 138.19 11.4851 138.679 11.4935C140.054 11.516 140.054 11.4935 140.054 10.1411C140.054 8.25097 140.073 6.36089 140.043 4.4708C140.035 3.96697 140.199 3.85156 140.679 3.85156C142.423 3.85438 142.423 3.83608 142.423 5.57699C142.423 7.31789 142.423 9.16998 142.423 10.9672C142.423 11.2289 142.334 11.5062 142.785 11.5498C143.687 11.6385 144.367 12.1114 144.808 12.9065V13.4666C144.178 13.4666 143.546 13.492 142.917 13.4596C142.513 13.4385 142.41 13.5708 142.413 13.9649C142.43 16.9428 142.417 19.9222 142.427 22.9002C142.43 23.7193 142.844 24.0964 143.688 24.1077C144.061 24.1133 144.436 24.1091 144.81 24.1091V26.0696V26.0682Z" fill="#1A1A1A"/>
<path d="M0.0207399 15.5923C0.0207399 12.0007 0.0671828 8.40631 0.00103688 4.81613C-0.0327398 3.06819 1.49706 0.678492 3.51803 0.246432C4.14149 0.112733 4.74243 0.015625 5.37012 0.015625C12.3703 0.015625 19.3719 0.015625 26.3736 0.015625C29.1137 0.015625 31.319 2.14074 31.3275 4.86539C31.3472 12.0035 31.35 19.1417 31.3275 26.2784C31.3176 29.0016 29.1517 31.0915 26.4299 31.093C19.8026 31.0958 13.1767 31.131 6.55089 31.062C5.26456 31.0479 3.90224 31.2689 2.6708 30.5638C1.00448 29.611 0.0362209 28.2388 0.0263694 26.2981C0.00666632 22.729 0.0207399 19.1599 0.0207399 15.5909V15.5923ZM24.354 12.7579L24.209 12.6242C24.171 12.2681 23.8882 12.1443 23.6236 11.988C22.1163 11.0986 20.4964 10.8861 18.8076 11.252C18.3192 11.3575 17.8548 11.6137 17.4073 11.8543C17.0977 12.0218 17.3341 12.3075 17.3453 12.5454C17.3453 12.5679 17.1441 12.6002 17.0357 12.627L16.8851 12.4933L16.7416 12.3554C16.6909 12.2301 16.5854 12.2076 16.4657 12.2118L16.4615 12.209L16.318 12.0739H16.3166C16.0379 11.5743 15.5777 11.4772 15.0598 11.5109H15.0556C14.9993 11.3716 14.9036 11.2576 14.7558 11.2478C13.7242 11.1774 12.6856 11.0873 11.6666 11.3195C11.3289 11.3969 10.9095 11.3998 10.7068 11.7882H10.7026C10.5844 11.7854 10.4802 11.8065 10.4254 11.9275L10.4225 11.9303C10.3015 11.9247 10.196 11.9514 10.1467 12.0781L10.1495 12.0753C9.91167 12.0542 9.70338 12.0697 9.50916 12.2625C9.37406 12.3962 9.20517 12.6354 8.98985 12.5341C8.76608 12.4285 8.88148 12.1555 8.88007 11.9599C8.87304 9.48857 8.85615 7.01583 8.88711 4.54451C8.89555 3.8929 8.72948 3.61425 8.0258 3.65084C6.99843 3.70291 5.96684 3.6621 4.93665 3.66491C4.05142 3.66773 3.98246 3.75217 4.0852 4.61206C4.11053 4.81895 4.09646 5.03146 4.09646 5.24115C4.09646 11.981 4.09927 18.7194 4.09223 25.4593C4.09223 25.9209 4.14712 26.3825 4.00779 26.8469C3.89661 27.2171 4.16119 27.4085 4.49896 27.4592C4.72836 27.4929 4.9662 27.4634 5.19983 27.4732C6.46786 27.5267 7.62752 27.3297 8.36216 26.132C8.49023 25.9237 8.64504 25.9392 8.82659 26.0912C9.56827 26.7161 10.4085 27.1214 11.3725 27.3114C13.0065 27.6337 14.6066 27.59 16.1083 26.8385C16.5178 26.6344 16.8288 26.6626 17.1413 26.854C17.8492 27.286 18.6331 27.4648 19.4282 27.4521C20.3895 27.4366 21.3408 27.5056 22.3274 27.2649C23.124 27.0707 23.6785 26.6021 24.2752 26.2066C24.6538 25.9561 25.19 25.593 25.197 24.9639L25.3279 24.8218C26.1498 24.1237 26.6227 23.2596 26.5973 22.1604C27.0266 21.6482 27.066 20.9951 27.1307 20.3942C27.3362 18.5027 27.0041 16.6534 26.2596 14.9238C25.9105 14.1146 25.4686 13.2307 24.4905 12.8916L24.3512 12.7565L24.354 12.7579ZM16.6107 7.78003C16.6107 6.80051 16.6107 5.82239 16.6107 4.84287C16.6093 3.83379 16.5797 3.80424 15.6044 3.80424C15.1597 3.80424 14.715 3.81409 14.2717 3.80142C13.9592 3.79298 13.7932 3.8915 13.7932 4.23489C13.8002 6.32341 13.8002 8.41334 13.7932 10.5019C13.7932 10.834 13.9311 10.9888 14.2548 10.9438C14.8459 10.8607 15.337 11.1 15.8367 11.3618C16.4292 11.6714 16.6065 11.5518 16.6107 10.8565C16.6163 9.83056 16.6121 8.806 16.6121 7.78003H16.6107Z" fill="#9BC702"/>
<path d="M66.5015 23.1688C66.0596 23.3461 65.9146 23.75 65.6233 24.0005C63.1886 26.1031 58.8426 25.4445 57.2622 22.5425C55.624 19.5364 55.5973 16.3825 57.4803 13.4397C59.2522 10.67 62.8832 10.069 65.3897 11.9676C65.6768 12.1843 65.8977 12.4461 66.0962 12.736C66.3129 13.0541 66.4565 13.2806 66.7365 12.7276C67.2136 11.779 68.9278 11.1021 69.9678 11.3427C70.3802 11.4384 70.2127 11.7452 70.2141 11.9591C70.2268 14.2686 70.2254 16.5795 70.2197 18.889C70.2155 20.9888 70.2648 23.0899 70.1789 25.1869C70.0494 28.338 68.0693 30.449 64.8999 30.936C63.1154 31.2104 61.3463 31.164 59.6645 30.4378C58.2079 29.8087 57.1355 28.7912 56.6978 27.2051C56.5669 26.7294 56.657 26.5225 57.2031 26.5633C57.7618 26.6055 58.3275 26.5886 58.8891 26.5689C59.7265 26.538 60.5075 26.4564 60.8875 27.5259C61.0677 28.0326 61.7305 28.2015 62.2935 28.3408C64.8718 28.9755 66.5592 27.692 66.5606 25.0659C66.5606 24.4495 66.631 23.826 66.5015 23.1673V23.1688ZM66.5113 18.1346C66.5437 17.5787 66.4987 17.0439 66.3931 16.5176C66.0539 14.8287 64.9661 13.8577 63.3307 13.769C61.929 13.693 60.6229 14.5909 60.2247 16.0982C59.8334 17.5815 59.8207 19.1057 60.4653 20.5483C60.7524 21.1914 61.1873 21.76 61.8727 22.0443C63.8177 22.8493 65.8611 21.8121 66.3551 19.777C66.4874 19.2324 66.562 18.6779 66.5127 18.1332L66.5113 18.1346Z" fill="#F7061B"/>
<path d="M39.0453 24.0416C38.3106 25.577 37.3972 26.0794 35.7506 25.9936C35.372 25.9739 35.2876 25.8374 35.2932 25.4884C35.3129 24.3695 35.3003 23.2492 35.3003 22.129C35.3003 16.2744 35.3087 10.4197 35.2876 4.56513C35.2862 4.01063 35.4354 3.84878 35.9828 3.87834C36.823 3.92337 37.6703 3.92056 38.5105 3.87834C39.0213 3.853 39.1184 4.0444 39.1156 4.51024C39.0945 7.09978 39.103 9.68792 39.11 12.2775C39.11 12.4492 39.0073 12.6814 39.2226 12.7813C39.4055 12.8657 39.4998 12.6687 39.6124 12.5589C42.2906 9.95109 46.6014 10.4859 48.5337 13.6651C50.3942 16.7275 50.2056 21.1072 48.0467 23.9586C46.835 25.5587 45.149 26.154 43.1773 26.0414C41.5475 25.9486 40.1303 25.3941 39.0467 24.0402L39.0453 24.0416ZM38.927 18.1968C38.927 19.6464 39.2001 20.7681 39.8545 21.7729C41.0423 23.5926 43.7838 23.6714 44.928 21.8419C46.1834 19.835 46.2073 17.6508 45.1842 15.558C44.0991 13.3372 41.5222 13.1191 39.9474 15.0415C39.1438 16.0224 38.9622 17.2271 38.927 18.1968Z" fill="#F7061B"/>
<path d="M74.6544 13.0222C76.712 10.4931 79.4859 10.5523 81.3999 11.4093C83.2591 12.2411 84.2555 13.8075 84.672 15.7454C85.2758 18.5531 85.0042 21.251 83.4392 23.7195C82.0952 25.8404 79.1214 26.7833 76.7796 25.8854C76.0393 25.6012 75.4693 25.0917 74.9936 24.471C74.8712 24.3106 74.8121 24.0953 74.5419 23.9925C74.5193 24.5414 74.4433 25.0621 74.0014 25.4266C73.6623 25.7067 73.264 25.77 72.8305 25.794C72.3787 25.8193 72.2394 25.6898 72.2436 25.2226C72.269 22.8906 72.2549 20.5572 72.2549 18.2252C72.2549 13.6527 72.2647 9.08156 72.2422 4.51045C72.2394 3.98692 72.3689 3.84477 72.8995 3.85181C74.6643 3.87573 74.6657 3.85181 74.6629 5.63634C74.6601 7.87545 74.6559 10.1146 74.653 12.3537C74.653 12.576 74.653 12.7984 74.653 13.0208L74.6544 13.0222ZM82.5286 18.387C82.5821 17.2499 82.4611 16.1254 81.9755 15.0699C81.414 13.8469 80.4359 13.1854 79.0989 13.0531C77.638 12.9096 76.2546 13.1671 75.527 14.5463C74.2801 16.9079 74.0535 19.4285 75.0823 21.9265C75.7437 23.5337 77.1117 24.2149 78.8484 24.1248C80.4359 24.0418 81.3957 23.12 81.984 21.738C82.4371 20.674 82.5835 19.5523 82.5286 18.3898V18.387Z" fill="#1A1A1A"/>
<path d="M125.349 26.2117C124.429 26.2117 123.632 26.1905 122.837 26.2215C122.454 26.237 122.258 26.0878 122.067 25.774C120.761 23.632 119.435 21.5026 118.115 19.3691C118.005 19.1917 117.888 19.02 117.752 18.8089C117.123 19.3733 116.525 19.9278 115.906 20.457C115.652 20.6737 115.655 20.9326 115.655 21.2141C115.658 22.6848 115.642 24.1541 115.665 25.6248C115.67 26.0512 115.597 26.2285 115.101 26.2271C113.378 26.2215 113.378 26.244 113.378 24.5369C113.378 17.8857 113.385 11.2359 113.365 4.58475C113.364 4.01759 113.493 3.83041 114.09 3.84448C115.656 3.88248 115.656 3.85293 115.656 5.41369C115.656 9.21778 115.656 13.0205 115.656 16.8246V17.9012C116.546 17.0329 117.271 16.3221 118.001 15.6156C119.076 14.5756 120.142 13.5257 121.235 12.5068C122.066 11.7327 123.097 11.5399 123.863 11.9354C124.284 12.1521 124.42 12.3266 123.991 12.7263C122.606 14.0169 121.27 15.3595 119.888 16.6529C119.549 16.9709 119.525 17.1891 119.777 17.5747C121.581 20.3373 123.363 23.1155 125.152 25.8894C125.198 25.9611 125.241 26.0357 125.349 26.2131V26.2117Z" fill="#1F1F1F"/>
<path d="M95.5596 23.8028C94.5688 24.8992 93.4683 25.6915 92.0736 25.9997C90.2651 26.398 88.52 26.3276 87.0662 25.0301C85.7222 23.8296 85.5068 22.2576 85.9459 20.6067C86.3822 18.9657 87.5911 18.0707 89.1927 17.6865C90.5339 17.3642 91.916 17.3022 93.2783 17.1108C93.6934 17.0531 94.1128 17.0208 94.5252 16.9476C94.939 16.873 95.2458 16.6408 95.4203 16.2453C95.9593 15.0265 95.3935 13.6178 94.1438 13.1379C93.0221 12.7072 91.8653 12.6594 90.707 12.9634C89.9724 13.1562 89.4517 13.6473 89.066 14.2933C88.6748 14.9477 88.1048 15.346 87.3449 15.4867C86.613 15.6219 86.5159 15.5585 86.6243 14.8014C86.8846 12.9845 87.9359 11.7826 89.6754 11.2787C91.5233 10.7439 93.4021 10.7285 95.2486 11.3702C96.967 11.9669 97.8522 13.1759 97.8606 14.9857C97.8733 17.6696 97.8621 20.3534 97.8649 23.0372C97.8649 23.9534 98.0408 24.1505 98.9682 24.1125C99.4073 24.0942 99.5213 24.2053 99.5185 24.6416C99.5129 25.8491 99.3285 26.0574 98.1013 26.0645C96.6489 26.0729 96.1746 25.6648 95.5596 23.8042V23.8028ZM95.4836 18.3521C94.4647 18.7983 93.4711 18.9109 92.4873 19.0797C91.4614 19.2571 90.396 19.2697 89.4362 19.7511C88.4426 20.2493 88.1287 20.9529 88.299 22.3265C88.4144 23.2512 89.0393 23.9464 89.9837 24.1251C91.7809 24.4657 93.3472 23.9647 94.6688 22.7304C95.1332 22.2956 95.4611 21.7453 95.478 21.0852C95.5019 20.2028 95.4836 19.3176 95.4836 18.3507V18.3521Z" fill="#1A1A1A"/>
<path d="M137.613 21.2738C137.069 24.1378 134.744 26.0701 131.755 26.201C127.708 26.3783 124.918 23.831 124.686 19.7722C124.607 18.3901 124.668 17.0292 125.081 15.6993C126.065 12.5411 128.324 10.8945 131.631 10.9142C134.687 10.9325 136.703 12.6383 137.487 15.8653C137.725 16.842 137.776 17.8399 137.856 18.8349C137.901 19.3978 137.511 19.2233 137.255 19.2233C134.163 19.2317 131.07 19.2514 127.978 19.212C127.306 19.2036 127.177 19.4006 127.212 20.0241C127.316 21.8818 128.203 23.2849 129.723 23.8591C131.415 24.4995 133.258 24.1195 134.445 22.8937C134.774 22.5531 135.043 22.1605 135.168 21.7185C135.283 21.3118 135.499 21.2513 135.862 21.2682C136.44 21.2935 137.021 21.2752 137.613 21.2752V21.2738ZM127.257 18.3212C128.161 17.3135 129.291 17.3965 130.408 17.405C131.717 17.4162 133.026 17.4078 134.336 17.4078C135.086 17.4078 135.393 17.0372 135.258 16.296C134.718 13.3433 131.544 11.9754 129.104 13.6867C127.557 14.7718 127.012 16.3284 127.257 18.3212Z" fill="#1A1A1A"/>
<path d="M105.809 10.9147C107.422 10.8978 108.914 11.2257 110.099 12.4191C110.672 12.9962 111.018 13.6956 111.215 14.4753C111.311 14.8511 111.206 15.0284 110.774 15.0171C109.869 14.996 109.174 14.5626 108.559 13.963C107.395 12.8287 104.875 12.5557 103.479 13.4198C102.848 13.8096 102.517 14.3796 102.534 15.1044C102.554 15.8827 103.065 16.3302 103.76 16.5343C105.274 16.9776 106.803 17.3745 108.323 17.8009C108.703 17.9078 109.077 18.0359 109.446 18.1781C111.631 19.0239 112.259 20.7479 111.515 23.0025C111.035 24.4563 109.933 25.3317 108.517 25.7919C106.466 26.459 104.427 26.3548 102.44 25.5146C100.722 24.787 100.04 23.3529 99.8293 21.612C99.7913 21.2996 99.8434 21.1096 100.216 21.1645C100.308 21.1786 100.403 21.1659 100.496 21.1659C100.965 21.1659 101.466 21.0617 101.892 21.1954C102.422 21.3615 102.14 22.0033 102.363 22.3973C102.658 22.9181 102.976 23.4036 103.535 23.6471C105.034 24.2987 106.566 24.3606 108.079 23.7245C109.049 23.3163 109.458 22.5662 109.38 21.5614C109.306 20.6269 108.601 20.2736 107.848 20.0555C106.421 19.6431 104.975 19.2927 103.536 18.9211C102.811 18.734 102.122 18.4708 101.518 18.019C99.7716 16.713 100.038 14.1009 101.22 12.7077C102.268 11.4734 103.685 10.933 105.808 10.9147H105.809Z" fill="#1A1A1A"/>
<path d="M54.7909 18.7594C54.7909 20.9746 54.7769 23.1884 54.8008 25.4036C54.8064 25.9004 54.7093 26.1129 54.152 26.0805C53.2893 26.0298 52.4195 26.0425 51.5554 26.0777C51.1023 26.096 50.9503 25.9693 50.9517 25.5007C50.9672 20.9549 50.9643 16.4091 50.9545 11.8634C50.9545 11.4834 51.0417 11.3257 51.4583 11.3384C52.3928 11.3666 53.3315 11.3708 54.266 11.337C54.7262 11.3201 54.8008 11.5031 54.798 11.907C54.7811 14.1911 54.7895 16.4753 54.7895 18.7608L54.7909 18.7594Z" fill="#F7061B"/>
<path d="M52.8753 3.89203C53.1568 3.89203 53.4369 3.89203 53.7183 3.89203C54.7908 3.88922 54.809 3.88922 54.7837 4.9954C54.7682 5.66249 55.0877 6.55335 54.6444 6.93334C54.2616 7.25985 53.3918 7.04452 52.7402 7.02482C52.166 7.00652 51.4032 7.29081 51.0697 6.89675C50.7868 6.56461 50.9684 5.83137 50.9641 5.27547C50.9571 3.89062 50.9613 3.89062 52.3138 3.89062C52.501 3.89062 52.6882 3.89062 52.8753 3.89062V3.89203Z" fill="#F7061B"/>
<path d="M16.8849 12.4924C16.9356 12.5375 16.9848 12.5811 17.0355 12.6261C17.5703 13.2974 18.2247 13.8759 18.6061 14.6654C19.7334 17.0016 20.0064 19.4293 19.3562 21.94C18.3204 25.9482 15.5606 27.7482 11.513 27.0459C10.4125 26.8545 9.40339 26.4352 8.72223 25.4725C8.52661 25.1953 8.36898 25.1685 8.27187 25.5443C8.18884 25.8638 8.03544 26.1326 7.79478 26.3775C7.12487 27.0572 6.25935 27.0783 5.39945 27.1796C4.69718 27.2627 4.48607 27.0333 4.4903 26.3085C4.51844 19.5644 4.50718 12.8189 4.50718 6.07347C4.50718 5.53726 4.51844 4.99965 4.50437 4.46345C4.49311 4.0722 4.65636 3.93287 5.04902 3.94131C6.00743 3.96102 6.96866 3.96805 7.92707 3.9385C8.45483 3.92161 8.58853 4.11723 8.5829 4.63092C8.55757 7.33728 8.57023 10.045 8.57305 12.7528C8.57305 12.9906 8.59838 13.2299 8.61245 13.4987C9.16414 12.9892 9.65812 12.5347 10.1507 12.0787L10.1479 12.0815C10.2703 12.0871 10.3759 12.0632 10.4237 11.9337L10.4265 11.9309C10.5476 11.9408 10.6503 11.9154 10.7038 11.793H10.708C11.0711 11.8366 11.3723 11.6283 11.6988 11.5354C12.8205 11.2216 13.9379 11.4045 15.0568 11.5101H15.061C15.4621 11.7395 15.8674 11.9562 16.3178 12.0759H16.3192C16.367 12.1209 16.4149 12.1645 16.4627 12.2096L16.4669 12.2124C16.5204 12.3334 16.6231 12.3587 16.7428 12.3559C16.7906 12.401 16.8385 12.4474 16.8863 12.4938L16.8849 12.4924ZM15.4705 19.3308C15.4888 18.4596 15.3636 17.6068 15.0722 16.7933C14.6711 15.6759 14.0392 14.7259 12.7698 14.4796C11.4553 14.2249 10.3252 14.588 9.43013 15.6252C7.73285 17.5899 7.98618 21.6487 9.9016 23.4107C10.891 24.3213 13.3975 24.6197 14.484 22.9069C15.1848 21.8021 15.4297 20.6016 15.4719 19.3322L15.4705 19.3308Z" fill="#F7061B"/>
<path d="M10.1509 12.0787C9.65689 12.5347 9.16431 12.9892 8.61263 13.4987C8.59714 13.2285 8.57322 12.9906 8.57322 12.7528C8.5704 10.045 8.55774 7.33868 8.58307 4.63092C8.58729 4.11723 8.45359 3.92161 7.92724 3.9385C6.96883 3.96805 6.00901 3.96102 5.04919 3.94131C4.65654 3.93287 4.49328 4.0722 4.50454 4.46345C4.51861 4.99965 4.50736 5.53726 4.50736 6.07347C4.50736 12.8189 4.51861 19.563 4.49047 26.3085C4.48765 27.0333 4.69876 27.2627 5.39962 27.1796C6.25952 27.0783 7.12505 27.0586 7.79495 26.3775C8.03561 26.1326 8.19042 25.8638 8.27204 25.5443C8.36915 25.1671 8.52537 25.1953 8.7224 25.4725C9.40356 26.4352 10.4126 26.856 11.5132 27.0459C15.5608 27.7482 18.3206 25.9482 19.3564 21.94C20.0052 19.4279 19.7336 17.0002 18.6063 14.6654C18.2249 13.8759 17.5705 13.2974 17.0357 12.6261C17.144 12.598 17.3467 12.567 17.3453 12.5445C17.334 12.3067 17.0962 12.021 17.4072 11.8535C17.8534 11.6128 18.3192 11.3567 18.8075 11.2511C20.4964 10.8852 22.1162 11.0977 23.6235 11.9872C23.8881 12.1434 24.1696 12.2673 24.209 12.6233L24.1823 12.6472C23.8656 12.4544 23.556 12.2504 23.2323 12.0702C21.3957 11.0429 18.8667 11.0907 17.5029 12.1828C17.7731 12.4727 18.0954 12.7303 18.2981 13.061C18.5556 13.479 18.8216 13.5761 19.3142 13.4874C21.117 13.1666 22.5582 13.8759 23.3378 15.5267C24.52 18.0276 24.5017 20.5763 23.3167 23.0673C22.6792 24.41 21.542 25.2966 20.0221 25.0883C18.899 24.9335 18.2474 25.2488 17.5663 26.0622C17.1426 26.5689 17.2932 26.6449 17.7562 26.8067C18.9961 27.2416 20.267 27.2894 21.5561 27.1374C23.0972 26.9559 24.1879 26.0355 25.1801 24.9504L25.1984 24.9645C25.1913 25.5936 24.6551 25.9552 24.2765 26.2072C23.6798 26.6026 23.1253 27.0713 22.3288 27.2655C21.3422 27.5062 20.3922 27.4386 19.4296 27.4527C18.6358 27.4653 17.8519 27.288 17.1426 26.8545C16.8302 26.6631 16.5178 26.635 16.1096 26.8391C14.6066 27.5906 13.0078 27.6342 11.3739 27.3119C10.4112 27.1219 9.56963 26.7166 8.82795 26.0918C8.64781 25.9398 8.49159 25.9243 8.36352 26.1326C7.62888 27.3302 6.46922 27.5273 5.20118 27.4738C4.96756 27.4639 4.72972 27.4935 4.50032 27.4597C4.16255 27.409 3.89797 27.2191 4.00915 26.8475C4.14848 26.3831 4.09218 25.9215 4.09359 25.4599C4.10063 18.72 4.09781 11.9816 4.09781 5.24172C4.09781 5.03202 4.11189 4.81951 4.08656 4.61263C3.98241 3.75273 4.05278 3.66829 4.93801 3.66547C5.9682 3.66266 6.99979 3.70347 8.02716 3.6514C8.73084 3.61621 8.89691 3.89346 8.88847 4.54507C8.85751 7.0164 8.87439 9.48913 8.88143 11.9605C8.88143 12.1575 8.76744 12.4291 8.99121 12.5347C9.20653 12.636 9.37541 12.3967 9.51052 12.263C9.70474 12.0702 9.91303 12.0547 10.1509 12.0759V12.0787Z" fill="#A5BF09"/>
<path d="M16.6105 7.78379C16.6105 8.80975 16.6147 9.83431 16.609 10.8603C16.6048 11.5555 16.4289 11.6765 15.835 11.3655C15.3354 11.1052 14.8442 10.8645 14.2531 10.9475C13.9308 10.994 13.7901 10.8378 13.7915 10.5056C13.7986 8.4171 13.7986 6.32717 13.7915 4.23865C13.7915 3.89525 13.9576 3.79674 14.27 3.80518C14.7147 3.81644 15.1595 3.80659 15.6028 3.80799C16.5781 3.80799 16.6076 3.83755 16.609 4.84663C16.6105 5.82615 16.609 6.80426 16.609 7.78379H16.6105ZM16.3585 7.60646C16.3585 7.00129 16.3585 6.39613 16.3585 5.79237C16.3585 3.87977 16.3585 3.89525 14.4628 3.92621C14.0251 3.93325 13.9111 4.06554 13.9154 4.48634C13.9365 6.18503 13.9463 7.88371 13.9125 9.58099C13.8985 10.2607 13.9252 10.7646 14.8287 10.7139C15.1468 10.6956 15.5057 10.8856 15.8012 11.0573C16.3135 11.3543 16.3726 11.1347 16.3642 10.6773C16.3459 9.65417 16.3585 8.62961 16.3585 7.60646Z" fill="#A5BF09"/>
<path d="M24.4931 12.8906C25.4698 13.2298 25.9132 14.1136 26.2622 14.9229C27.0067 16.6511 27.3374 18.5018 27.1333 20.3933C27.0686 20.9942 27.0292 21.6472 26.6 22.1595L26.5788 22.1398C26.5873 21.9076 26.5605 21.6669 26.6098 21.4432C27.3064 18.2484 26.7196 15.3746 24.4805 12.9075L24.4945 12.8906H24.4931Z" fill="#A5BF09"/>
<path d="M15.0582 11.511C13.938 11.4054 12.8205 11.2211 11.7003 11.5363C11.3723 11.6278 11.0726 11.8375 10.7095 11.791C10.9121 11.4012 11.3315 11.3998 11.6693 11.3224C12.6882 11.0888 13.7269 11.1788 14.7584 11.2506C14.9062 11.2605 15.0019 11.3745 15.0582 11.5124V11.511Z" fill="#A5BF09"/>
<path d="M26.5987 22.1589C26.624 23.2581 26.1511 24.1208 25.3292 24.8202L25.3081 24.7977C25.8485 23.9674 26.1666 23.0329 26.5761 22.1406L26.5972 22.1603L26.5987 22.1589Z" fill="#A5BF09"/>
<path d="M16.3178 12.0764C15.8675 11.9568 15.4621 11.74 15.061 11.5134C15.5804 11.4811 16.0392 11.5782 16.3178 12.0764Z" fill="#A5BF09"/>
<path d="M16.7431 12.355C16.6249 12.3578 16.5208 12.3324 16.4673 12.2114C16.5869 12.2072 16.6911 12.2297 16.7431 12.355Z" fill="#A5BF09"/>
<path d="M10.4238 11.9304C10.3759 12.0613 10.2704 12.0852 10.1479 12.0782C10.1972 11.9501 10.3014 11.9248 10.4238 11.9304Z" fill="#A5BF09"/>
<path d="M10.704 11.7898C10.6491 11.9123 10.5464 11.9376 10.4268 11.9278C10.4816 11.8067 10.5858 11.7842 10.704 11.7898Z" fill="#A5BF09"/>
<path d="M24.2089 12.625L24.3538 12.7587L24.3355 12.7742C24.2849 12.732 24.2328 12.6897 24.1821 12.6489L24.2089 12.625Z" fill="#A5BF09"/>
<path d="M16.8853 12.4895C16.8374 12.443 16.7895 12.3966 16.7417 12.3516C16.7895 12.398 16.8374 12.4444 16.8853 12.4895Z" fill="#A5BF09"/>
<path d="M24.3542 12.7578C24.4007 12.8028 24.4471 12.8479 24.4936 12.8929L24.4795 12.9098L24.3359 12.7733L24.3542 12.7578Z" fill="#A5BF09"/>
<path d="M25.3294 24.8194L25.1985 24.9615L25.1802 24.9475L25.3082 24.7969L25.3294 24.8194Z" fill="#A5BF09"/>
<path d="M16.4629 12.2132C16.415 12.1682 16.3672 12.1232 16.3193 12.0781C16.3672 12.1232 16.415 12.1682 16.4629 12.2132Z" fill="#A5BF09"/>
<path d="M15.4708 19.337C15.43 20.6064 15.1837 21.8069 14.4828 22.9117C13.3964 24.6244 10.8898 24.3261 9.90048 23.4155C7.98506 21.6549 7.73173 17.5947 9.42901 15.63C10.3241 14.5942 11.4542 14.2297 12.7687 14.4844C14.0381 14.7307 14.67 15.6806 15.0711 16.7981C15.3624 17.6115 15.4877 18.4644 15.4694 19.3356L15.4708 19.337Z" fill="#9BC702"/>
<path d="M25.3098 24.7968L25.1817 24.9474C24.1909 26.0325 23.1002 26.9529 21.5578 27.1345C20.2672 27.2865 18.9978 27.2386 17.7579 26.8037C17.2949 26.6419 17.1443 26.5659 17.5679 26.0592C18.2491 25.2458 18.9021 24.9305 20.0237 25.0854C21.5437 25.2936 22.6808 24.407 23.3184 23.0644C24.502 20.5734 24.5203 18.0246 23.3395 15.5237C22.5598 13.8729 21.1173 13.1622 19.3158 13.4845C18.8233 13.5717 18.5559 13.4746 18.2997 13.0581C18.0971 12.7273 17.7748 12.4712 17.5046 12.1799C18.8683 11.0892 21.3973 11.0399 23.2339 12.0673C23.5576 12.2474 23.8672 12.4515 24.1839 12.6443C24.2346 12.6865 24.2866 12.7287 24.3373 12.7695L24.4808 12.9061C26.72 15.3732 27.3068 18.247 26.6102 21.4417C26.5609 21.6655 26.5877 21.9061 26.5792 22.1383C26.1697 23.0306 25.8516 23.9651 25.3112 24.7954L25.3098 24.7968Z" fill="#1A1A1A"/>
<path d="M16.3588 7.60148C16.3588 8.62463 16.3462 9.64919 16.3645 10.6723C16.3729 11.1297 16.3138 11.3507 15.8015 11.0523C15.506 10.8806 15.1485 10.6906 14.829 10.7089C13.9255 10.7596 13.8988 10.2558 13.9128 9.57601C13.9466 7.87873 13.9368 6.18005 13.9157 4.48136C13.91 4.06056 14.024 3.92827 14.4631 3.92124C16.3588 3.89027 16.3588 3.87479 16.3588 5.7874C16.3588 6.39256 16.3588 6.99772 16.3588 7.60148Z" fill="#1A1A1A"/>
</g>
<defs>
<clipPath id="clip0_8187_4799">
<rect width="144.81" height="31.09" fill="white"/>
</clipPath>
</defs>
</svg>
