<svg width="134" height="66" viewBox="0 0 134 66" fill="none" xmlns="http://www.w3.org/2000/svg">
<mask id="mask0_270_2619" style="mask-type:alpha" maskUnits="userSpaceOnUse" x="0" y="0" width="134" height="66">
<rect width="134" height="66" fill="#D9D9D9"/>
</mask>
<g mask="url(#mask0_270_2619)">
<path d="M79.9727 27.1216L78.2764 24.1573L75.2608 25.648L73.5645 22.6838L70.5489 24.1745L68.8526 21.2103L65.837 22.7009L64.1407 19.7367L61.1251 21.2274L59.4288 18.2632L56.4132 19.7539L49.9879 41.2059L57.7668 43.656C58.2808 41.9255 59.8571 40.6576 61.7076 40.6576C63.9865 40.6576 65.837 42.5595 65.837 44.9068V44.9925C65.8541 45.3695 65.8198 45.7636 65.6999 46.1405L73.6159 48.6421" fill="#D70B17"/>
<path d="M56.6531 39.4213C56.2419 39.3527 55.9677 38.9929 55.9677 38.5646V28.027C55.9677 27.5301 56.3447 27.1532 56.8244 27.1532H64.1921C64.3806 27.1532 64.5691 27.1703 64.7575 27.2046C66.3339 27.4959 67.499 28.9009 67.499 30.5629V38.5646C67.499 38.8044 67.4133 39.0272 67.242 39.1985C67.0878 39.3527 66.8651 39.4555 66.6423 39.4555L66.4881 39.4384C66.0769 39.3699 65.8027 39.0101 65.8027 38.5817V30.5972C65.8027 29.7919 65.2373 29.1065 64.4663 28.9694L64.1921 28.9352H62.5815V38.5817C62.5815 38.8216 62.4958 39.0443 62.3245 39.2157C62.1703 39.3699 61.9475 39.4727 61.7248 39.4727L61.5706 39.4555C61.1594 39.387 60.8852 39.0272 60.8852 38.5988V28.9352H57.664V38.5817C57.664 38.8216 57.5783 39.0443 57.407 39.1985C57.2528 39.3527 57.03 39.4555 56.8073 39.4555L56.6531 39.4213Z" fill="white"/>
<path d="M68.904 44.0172C68.4927 43.9487 68.2186 43.5888 68.2186 43.1605C68.2186 42.9206 68.3043 42.6979 68.4585 42.5437C68.6127 42.3894 68.8354 42.2866 69.0582 42.2866C69.7778 42.2866 70.3946 41.8069 70.6002 41.1044L71.4741 38.0888L68.6127 28.2023C68.4756 27.7397 68.7326 27.2428 69.1781 27.0886L69.5551 27.0715C69.8635 27.1229 70.1205 27.3628 70.2233 27.6712L72.3479 35.0389L74.5068 27.6712C74.6096 27.26 75.038 26.9858 75.4835 27.0715L75.5349 27.0886C75.9975 27.2428 76.2545 27.7397 76.1003 28.2023L73.1532 38.3458L72.228 41.6013C71.9881 42.3552 71.5769 42.9549 71.0286 43.3661C70.446 43.8116 69.7607 44.0515 69.041 44.0515L68.904 44.0172Z" fill="white"/>
<path d="M15.908 39.3222C15.4796 39.2365 15.1884 38.8767 15.1884 38.4312V22.7021C15.1884 22.445 15.274 22.2223 15.4454 22.051C15.5996 21.8796 15.8395 21.7939 16.0793 21.7939L16.2335 21.8111C16.6619 21.8968 16.9703 22.2566 16.9703 22.7021V27.1741H18.6495C18.8551 27.1741 19.0435 27.1912 19.2492 27.2255C20.894 27.5168 22.0934 28.9903 22.0934 30.7209V35.7926C22.0934 37.7459 20.5514 39.3393 18.6495 39.3393H16.0965L15.908 39.3222ZM16.9532 37.506H18.6323C19.5576 37.506 20.3115 36.735 20.3115 35.7754V30.7037C20.3115 29.8641 19.7289 29.1445 18.9236 29.0074L18.6323 28.9732H16.9532V37.506Z" fill="#5B5B5B"/>
<path d="M27.1651 39.3924C25.5202 39.1011 24.338 37.6276 24.338 35.897V30.6197C24.338 29.6602 24.6978 28.7863 25.3489 28.101C26 27.4327 26.8567 27.0558 27.782 27.0558C27.9876 27.0558 28.176 27.0729 28.3816 27.1072C30.0265 27.3985 31.2259 28.872 31.2259 30.6026V35.8799C31.2259 36.8223 30.8661 37.7133 30.215 38.3986C29.5639 39.0669 28.7072 39.4267 27.7991 39.4267C27.5763 39.4438 27.3707 39.4267 27.1651 39.3924ZM28.0561 28.9063L27.7648 28.872C26.8224 28.872 26.0857 29.6259 26.0857 30.6026V35.8799C26.0857 36.7195 26.6682 37.4391 27.4564 37.5762L27.7477 37.6104C28.6729 37.6104 29.4268 36.8394 29.4268 35.8799V30.6026C29.444 29.763 28.8614 29.0605 28.0561 28.9063Z" fill="#5B5B5B"/>
<path d="M36.3148 39.3933C34.6699 39.0849 33.4876 37.6285 33.4876 35.898V30.6206C33.4876 28.6673 35.0297 27.0739 36.9316 27.0739C37.1372 27.0739 37.3257 27.091 37.5313 27.1253C39.159 27.4165 40.3584 28.8901 40.3584 30.6035V35.8808C40.3584 36.8232 39.9986 37.7142 39.3475 38.3995C38.6964 39.0678 37.8397 39.4276 36.9144 39.4276C36.7088 39.4447 36.5032 39.4276 36.3148 39.3933ZM37.2057 28.9072L36.9144 28.8729C35.9721 28.8729 35.2353 29.6268 35.2353 30.6035V35.8808C35.2353 36.7204 35.8179 37.44 36.606 37.5771L36.8973 37.6114C37.3428 37.6114 37.754 37.44 38.0796 37.1145C38.4051 36.7889 38.5765 36.3606 38.5765 35.8808V30.6035C38.5936 29.7639 38.011 29.0614 37.2057 28.9072Z" fill="#5B5B5B"/>
<path d="M43.3398 39.425C42.9115 39.3565 42.6202 38.9795 42.6202 38.534V22.7021C42.6202 22.445 42.7058 22.2223 42.8772 22.051C43.0485 21.8796 43.2713 21.7939 43.5112 21.7939L43.6654 21.8111C44.0937 21.8968 44.4021 22.2566 44.4021 22.7021V32.0745L48.4629 27.3797C48.6685 27.1569 48.977 27.037 49.2854 27.1055L49.7309 27.3112C50.0907 27.6538 50.125 28.2193 49.7994 28.5962L46.6981 32.1087L49.8851 38.1057C50.005 38.3113 50.0221 38.5512 49.9707 38.7739C49.9022 38.9967 49.748 39.2023 49.5424 39.3222C49.371 39.425 49.1654 39.4593 48.9598 39.425C48.6857 39.3736 48.4801 39.2194 48.343 38.9967L45.4816 33.5823L44.385 34.8159V38.534C44.385 38.7739 44.2993 39.0138 44.128 39.1851C43.9566 39.3565 43.7339 39.4422 43.5112 39.4422L43.3398 39.425Z" fill="#5B5B5B"/>
<path d="M82.2859 39.4089C81.3092 39.2376 80.4868 38.6379 79.9899 37.7469C79.8699 37.5413 79.8528 37.2843 79.9042 37.0444C79.9727 36.8046 80.1098 36.6161 80.3154 36.4961C80.4868 36.3933 80.6924 36.3591 80.898 36.3933C81.155 36.4447 81.3777 36.5989 81.5148 36.8388C81.7547 37.25 82.1145 37.5071 82.56 37.5927C83.0569 37.6784 83.5024 37.5413 83.8622 37.1986C84.2049 36.8731 84.3762 36.4105 84.342 35.9478C84.3248 35.4681 84.0849 35.0397 83.708 34.7656L81.3263 33.0179C80.5382 32.4525 80.0584 31.5615 79.9727 30.5506C79.9213 29.5225 80.2983 28.563 81.0008 27.9119C81.7033 27.2265 82.6628 26.9181 83.6223 27.0552C84.6161 27.2437 85.4385 27.8262 85.9012 28.6658C86.004 28.8714 86.0382 29.1113 85.9868 29.3512C85.9183 29.5911 85.7812 29.7967 85.5756 29.8995C85.4043 30.0023 85.1987 30.0365 84.9931 30.0023C84.736 29.9509 84.5133 29.7967 84.3762 29.5739C84.1706 29.2141 83.8108 28.9571 83.3653 28.8714C82.9198 28.8029 82.4915 28.9228 82.1659 29.2312C81.8575 29.5225 81.6862 29.9509 81.7204 30.4135C81.7376 30.8419 81.9774 31.2702 82.3373 31.5101L84.7189 33.2235C85.5413 33.8232 86.0382 34.7656 86.0896 35.7936C86.1753 36.8217 85.7812 37.8155 85.0273 38.5008C84.3077 39.1862 83.3139 39.5118 82.3201 39.3747" fill="#5B5B5B"/>
<path d="M89.1223 39.4431C88.694 39.3574 88.3856 38.9805 88.3856 38.5521V22.7201C88.3856 22.4802 88.4884 22.2404 88.6597 22.069C88.831 21.8977 89.0538 21.812 89.2765 21.812L89.4307 21.8291C89.8591 21.9148 90.1504 22.2746 90.1504 22.7201V27.1921H91.8295C92.0351 27.1921 92.2408 27.2093 92.4292 27.2435C94.0741 27.5348 95.2564 29.0084 95.2564 30.7389V38.5521C95.2564 39.0661 94.8623 39.4602 94.3825 39.4602L94.2283 39.4431C93.8 39.3746 93.4915 38.9976 93.4915 38.5521V30.7389C93.4915 29.8993 92.909 29.1797 92.1208 29.0426L91.8124 29.0084H90.1332V38.5521C90.1332 39.0661 89.7392 39.4602 89.2423 39.4602L89.1223 39.4431Z" fill="#5B5B5B"/>
<path d="M100.345 39.3933C98.7003 39.1021 97.5181 37.6285 97.5181 35.898V30.6206C97.5181 28.6673 99.0601 27.0739 100.962 27.0739C101.168 27.0739 101.356 27.091 101.562 27.1253C103.207 27.4165 104.406 28.8901 104.406 30.6206V35.898C104.406 36.8403 104.046 37.7313 103.395 38.4167C102.744 39.0849 101.887 39.4447 100.979 39.4447C100.756 39.4447 100.551 39.4276 100.345 39.3933ZM101.253 28.9243L100.962 28.8901C100.517 28.8901 100.088 29.0614 99.7798 29.387C99.4714 29.7125 99.3 30.1409 99.3 30.6035V35.8808C99.3 36.7204 99.8826 37.44 100.671 37.5771L100.962 37.6114C101.408 37.6114 101.819 37.44 102.144 37.1145C102.47 36.7889 102.641 36.3606 102.641 35.8808V30.6035C102.624 29.7811 102.041 29.0614 101.253 28.9243Z" fill="#5B5B5B"/>
<path d="M117.976 28.1831C118.028 27.9433 117.993 27.7205 117.891 27.5149C117.771 27.3093 117.565 27.1551 117.325 27.1037L117.171 27.0865C116.777 27.0865 116.417 27.3607 116.314 27.7719C116.314 27.8062 115.355 31.7642 114.618 34.7798L114.601 34.8483L114.584 34.7798C113.864 31.7813 112.887 27.8233 112.87 27.7719C112.802 27.4121 112.545 27.1551 112.185 27.1037L112.031 27.0865C111.637 27.0865 111.311 27.3607 111.191 27.7719C111.174 27.8062 110.232 31.7642 109.495 34.7798L109.478 34.8483L109.461 34.7798C108.741 31.7642 107.764 27.8233 107.764 27.7719C107.679 27.4292 107.405 27.1551 107.079 27.1037L106.736 27.1208C106.274 27.2408 105.982 27.7205 106.102 28.2003L108.655 38.7549C108.758 39.0976 109.015 39.3718 109.341 39.4232L109.478 39.4403C109.889 39.4403 110.232 39.1661 110.317 38.7549C110.334 38.7207 111.294 34.7627 112.031 31.747L112.048 31.6785L112.065 31.747C112.819 34.7798 113.761 38.7549 113.761 38.7549C113.864 39.0976 114.121 39.3546 114.447 39.4232L114.584 39.4403C114.995 39.4403 115.338 39.1661 115.423 38.7549" fill="#5B5B5B"/>
</g>
</svg>
