<svg width="85" height="37" viewBox="0 0 85 37" fill="none" xmlns="http://www.w3.org/2000/svg">
<path d="M49.6025 36.7076H45.2313V24.8138H39.501V36.679H35.0664C35.0664 36.2795 35.0664 35.9167 35.0664 35.5559C35.0664 25.9492 35.0664 16.3404 35.0664 6.73374C35.0664 2.82827 36.5922 0.889809 40.3205 0.202888C42.1936 -0.143631 44.0765 -0.0641352 45.9 0.579981C48.283 1.42386 49.6461 3.16664 49.656 5.75329C49.6977 15.9042 49.6739 26.0552 49.6719 36.2061C49.6719 36.3366 49.6362 36.467 49.5985 36.7096L49.6025 36.7076ZM45.1004 20.4069C45.15 20.2643 45.2115 20.1725 45.2115 20.0808C45.2135 15.5373 45.2293 10.9939 45.1797 6.45041C45.1738 5.9714 44.89 5.34766 44.5309 5.05007C43.3979 4.10835 42.0606 4.19192 40.7729 4.66482C39.6042 5.09287 39.4871 6.15485 39.4911 7.26575C39.503 11.267 39.4871 15.2683 39.4832 19.2695C39.4832 19.6324 39.4832 19.9972 39.4832 20.4069H45.1004Z" fill="black"/>
<path d="M0 36.7267V9.28654C0.279768 9.258 0.559537 9.20704 0.841289 9.205C2.98816 9.19889 5.13702 9.18666 7.2839 9.205C10.7165 9.23761 12.6987 10.9315 13.2642 14.4435C13.4507 15.5993 13.4487 16.8141 13.3555 17.9862C13.2166 19.7106 12.5023 21.1823 11.028 22.1994C14.3753 25.0307 14.1214 28.6793 13.1967 32.3728C12.5221 35.0716 10.6252 36.5881 7.95257 36.7022C5.34933 36.8144 2.73816 36.7267 0 36.7267H0ZM4.40883 32.4849C5.29774 32.4849 6.08943 32.4931 6.87913 32.4849C7.8851 32.4727 8.57758 31.9774 8.90497 31.001C9.4149 29.4824 9.42879 27.9313 9.026 26.3923C8.80576 25.5546 8.27003 24.8921 7.39898 24.8024C6.42872 24.7025 5.4406 24.78 4.40883 24.78V32.489V32.4849ZM4.41875 20.4689C5.88307 20.2854 7.57359 21.1048 8.4744 19.3376C9.31569 17.6906 9.3653 15.8663 8.34146 14.2988C7.36922 12.8108 5.7799 13.616 4.41875 13.4692V20.4668V20.4689Z" fill="black"/>
<path d="M28.7545 22.4606C30.6117 23.4879 30.8835 25.4998 30.8756 27.6482C30.8657 30.6303 30.8736 33.6144 30.8736 36.674H26.4926C26.4707 36.3193 26.4291 35.9626 26.4271 35.6039C26.4211 33.3637 26.435 31.1236 26.4172 28.8834C26.4112 28.1721 26.3934 27.4505 26.2703 26.7554C26.0144 25.3102 25.306 24.7436 23.8735 24.7313C23.2524 24.7252 22.6334 24.7313 21.9052 24.7313V36.6658H17.5122V9.27866C17.794 9.25216 18.0777 9.20528 18.3614 9.20324C20.4766 9.19713 22.5897 9.18897 24.7048 9.20324C28.1652 9.22974 30.1931 10.8665 30.7189 14.3806C30.949 15.9216 30.9034 17.591 30.5701 19.1075C30.3121 20.2776 29.4093 21.2967 28.7525 22.4565L28.7545 22.4606ZM21.9429 20.4834C23.3735 20.2776 25.0203 21.101 25.933 19.4031C26.814 17.7643 26.8477 15.9461 25.8755 14.3562C24.931 12.8131 23.3238 13.6305 21.9448 13.4511V20.4834H21.9429Z" fill="black"/>
<path d="M76.1406 36.6976H71.7833C71.7675 36.3104 71.7377 35.9516 71.7377 35.5929C71.7357 28.6992 71.7377 21.8075 71.7377 14.9139C71.7377 11.9644 72.8965 10.2828 75.6187 9.38793C77.962 8.61743 80.2558 8.79273 82.4364 9.98516C84.0554 10.8698 84.9741 12.2905 84.984 14.174C85.0158 21.5752 84.9959 28.9784 84.994 36.3797C84.994 36.4449 84.9582 36.5081 84.9146 36.661H80.5593C80.5593 36.2879 80.5593 35.8986 80.5593 35.5073C80.5593 28.8867 80.5633 22.2641 80.5593 15.6436C80.5593 13.7867 79.4958 12.9102 77.7438 13.2975C76.6426 13.54 76.1545 14.1576 76.1525 15.397C76.1426 19.1312 76.1485 22.8675 76.1465 26.6017C76.1465 29.9263 76.1465 33.2508 76.1465 36.6997L76.1406 36.6976Z" fill="black"/>
<path d="M54.1777 9.25815H58.4814C58.4814 9.66378 58.4814 10.0837 58.4814 10.5056C58.4814 17.0915 58.4794 23.6754 58.4814 30.2612C58.4814 32.0672 59.4814 32.9539 61.1917 32.6706C62.3723 32.4749 62.8902 31.8226 62.8902 30.4671C62.8942 23.814 62.8902 17.1608 62.8902 10.5077C62.8902 10.1081 62.8902 9.71067 62.8902 9.25H67.3447C67.3447 9.74124 67.3447 10.1734 67.3447 10.6035C67.3447 17.222 67.2316 23.8445 67.3843 30.461C67.4816 34.7171 65.1323 36.3538 62.039 36.8716C59.8663 37.2344 57.8246 36.8329 55.9972 35.5324C54.8106 34.6885 54.1142 33.4818 54.1082 32.0081C54.0745 24.5396 54.0904 17.0732 54.0924 9.60467C54.0924 9.51091 54.138 9.41511 54.1797 9.25611L54.1777 9.25815Z" fill="black"/>
</svg>
