<svg width="55" height="46" viewBox="0 0 55 46" fill="none" xmlns="http://www.w3.org/2000/svg">
<path d="M27.0348 14C31.1281 14 35.2214 14 39.3148 14C40.2194 14 40.4843 14.2638 40.4885 15.1558C40.4959 16.9026 40.4599 16.9386 38.7173 16.9386C30.7245 16.9376 22.7317 16.9365 14.7389 16.9344C13.8374 16.9344 13.5694 16.6685 13.5652 15.7755C13.5567 14.0413 13.5969 14 15.3364 14C19.2359 14 23.1353 14 27.0348 14Z" fill="#252122"/>
<path d="M27.0276 18.5889C28.1145 18.3293 28.784 18.8728 29.4461 19.6736C31.3211 21.9428 33.2693 24.1515 35.1856 26.3857C35.7683 27.0647 35.7344 27.4344 35.0458 28.0287C33.7365 29.1591 33.6803 29.1538 32.5489 27.838C30.9281 25.9535 29.3084 24.0678 27.6865 22.1843C27.159 21.5709 26.8454 21.572 26.321 22.179C24.5583 24.2204 22.7966 26.2628 21.0338 28.3042C20.4988 28.9239 20.0857 28.9567 19.4638 28.4292C18.0856 27.2618 18.0814 27.2141 19.252 25.8571C21.1058 23.7076 22.9788 21.5752 24.7998 19.3982C25.3009 18.7997 25.8242 18.466 26.6049 18.5857C26.7426 18.6069 26.8867 18.5889 27.0276 18.5889Z" fill="#252122"/>
<path d="M31.1641 41.3593C30.1588 41.3593 29.1524 41.3752 28.1471 41.3508C27.7827 41.3423 27.7466 41.4684 27.8038 41.7809C28.0337 43.0468 29.2647 43.889 30.7086 43.7534C31.4618 43.6824 32.1599 43.4504 32.7775 43.0171C33.1599 42.7491 33.4205 42.7989 33.6112 43.2216C33.626 43.2534 33.643 43.2852 33.6599 43.3148C34.3178 44.4632 34.3125 44.4706 33.1016 45.0956C31.7859 45.7746 30.4014 45.8827 28.9882 45.531C27.1004 45.0606 26.0559 43.7831 25.7572 41.9017C25.5527 40.6145 25.612 39.3306 26.147 38.1102C26.9733 36.2235 29.0062 35.2373 31.2022 35.6462C33.2118 36.0201 34.6409 37.6674 34.7224 39.7099C34.7362 40.0626 34.7225 40.4154 34.7352 40.7681C34.7511 41.1972 34.553 41.3688 34.1282 41.3624C33.1408 41.3487 32.1525 41.3582 31.1641 41.3582V41.3593ZM30.1524 39.5382C30.8219 39.5382 31.4936 39.5022 32.1599 39.5499C32.6726 39.587 32.6652 39.3592 32.5614 38.9959C32.2764 38.0032 31.2944 37.3475 30.1588 37.3962C29.0316 37.445 28.0221 38.2331 27.8218 39.2067C27.7699 39.4567 27.8123 39.552 28.093 39.5446C28.7795 39.5266 29.467 39.5382 30.1535 39.5382H30.1524Z" fill="#252122"/>
<path d="M16.5111 44.4168C15.153 45.6488 13.653 46.0302 11.9665 45.439C10.6773 44.9867 10.0247 43.992 9.93572 42.671C9.79165 40.5406 9.88064 38.4039 9.86581 36.2704C9.86369 35.9144 10.0332 35.7704 10.3881 35.7725C12.3214 35.7863 11.9167 35.5776 11.957 37.2206C11.9951 38.7545 12.0025 40.2895 12.0078 41.8235C12.0099 42.5311 12.1286 43.1879 12.8256 43.528C13.5439 43.8797 14.2738 43.7865 14.9464 43.3775C15.7463 42.8902 16.0397 42.1148 16.0513 41.2207C16.0715 39.6158 16.0874 38.0098 16.0694 36.4049C16.0641 35.9123 16.2367 35.7555 16.7134 35.7661C18.4645 35.8032 18.169 35.567 18.1764 37.2111C18.1891 39.7864 18.1732 42.3616 18.1616 44.9369C18.1616 45.1573 18.277 45.5111 17.884 45.4952C17.5185 45.4804 17.045 45.7388 16.8194 45.1986C16.7187 44.9581 16.6266 44.7134 16.509 44.4157L16.5111 44.4168Z" fill="#252122"/>
<path d="M0.000165574 40.6839C0.0573704 38.6945 0.733235 37.0673 2.55426 36.1584C4.27358 35.2993 5.99396 35.3914 7.6296 36.4529C7.67409 36.4815 7.71647 36.5133 7.75778 36.5451C8.8595 37.3851 8.81819 37.9137 7.62218 38.614C7.32345 38.7888 7.15713 38.6161 6.97704 38.4519C6.20477 37.7495 5.29479 37.49 4.28206 37.687C3.10618 37.9159 2.37311 38.6733 2.11886 39.8195C1.83708 41.0897 2.06907 42.2761 3.14855 43.1099C4.11786 43.8578 5.20475 43.8609 6.28846 43.3164C6.68466 43.1173 7.03107 42.8397 7.31709 42.4975C7.51731 42.2581 7.70587 42.2655 7.94846 42.4594C8.99934 43.2942 9.01947 43.5399 8.00991 44.4234C6.45796 45.7826 4.68779 46.0273 2.83287 45.2275C0.861417 44.3779 0.0944477 42.6999 -0.00195312 40.6839H0.000165574Z" fill="#252122"/>
<path d="M30.9205 8.74018C30.9163 10.9171 29.1577 12.6598 26.9734 12.6502C24.8303 12.6407 23.075 10.879 23.0718 8.737C23.0686 6.56216 24.8314 4.7994 27.002 4.8047C29.1916 4.81 30.9237 6.55051 30.9194 8.74018H30.9205ZM26.9808 10.3313C27.8728 10.3419 28.5995 9.63639 28.6101 8.74654C28.6207 7.85351 27.9151 7.13209 27.0221 7.12362C26.1248 7.11514 25.4002 7.81643 25.3907 8.70416C25.3812 9.59084 26.093 10.3197 26.9808 10.3313Z" fill="#252122"/>
<path d="M49.5543 37.6511C49.5543 35.8788 49.5533 34.222 49.5543 32.5652C49.5543 31.9508 49.6507 31.8459 50.2472 31.8438C51.8627 31.8385 51.7419 31.6637 51.7387 33.2961C51.7377 33.9836 51.7536 34.6712 51.7313 35.3587C51.7207 35.6712 51.7885 35.8036 52.1328 35.7771C52.5534 35.7453 52.9782 35.7697 53.4008 35.7718C53.5057 35.7718 53.636 35.7432 53.7134 35.793C54.2843 36.1543 53.886 36.7189 53.9824 37.1839C54.0439 37.4795 53.8203 37.5812 53.5566 37.5823C53.0809 37.5833 52.6042 37.595 52.1286 37.5748C51.8447 37.5632 51.7271 37.632 51.7313 37.9477C51.7483 39.4107 51.7281 40.8737 51.7461 42.3366C51.7567 43.2042 52.1254 43.5867 52.9813 43.5475C53.5597 43.521 53.7494 43.7816 53.8542 44.2826C54.1276 45.5835 54.1403 45.5825 52.7822 45.5231C52.4135 45.5073 52.0459 45.4829 51.6826 45.3928C50.4643 45.093 49.7397 44.3335 49.6296 43.0845C49.4664 41.2391 49.6041 39.3853 49.5533 37.6511H49.5543Z" fill="#272324"/>
<path d="M39.9492 37.9496C39.945 37.6763 39.837 37.5746 39.5361 37.5714C38.3729 37.5619 38.3973 37.547 38.3729 36.3892C38.3623 35.8743 38.5753 35.7567 39.0319 35.7631C39.9132 35.7758 39.9048 35.7589 39.9249 34.8997C39.9323 34.566 39.962 34.2292 40.0213 33.9018C40.2226 32.7969 40.8868 32.1295 41.9949 31.9018C42.2004 31.8594 42.4122 31.8297 42.622 31.8202C44.0457 31.7535 44.1252 31.8456 44.0182 33.2546C43.9917 33.5946 43.8477 33.726 43.5171 33.7027C43.3074 33.6878 43.0945 33.6868 42.8858 33.709C42.4249 33.7577 42.1622 34.0236 42.0732 34.4781C41.8465 35.6275 41.9588 35.7716 43.1008 35.7716C43.9441 35.7716 43.9483 35.7716 43.9441 36.6032C43.9388 37.6763 44.0659 37.5778 42.997 37.5788C42.3628 37.5795 42.0457 37.8906 42.0457 38.5121C42.0457 40.6276 42.034 42.7421 42.0552 44.8576C42.0605 45.3703 41.8815 45.5631 41.3772 45.5133C41.0626 45.4826 40.7427 45.4964 40.426 45.508C40.0308 45.5229 39.8677 45.3555 39.9535 44.9625C40.1304 45.1924 40.1092 45.0133 40.1092 44.8862C40.1092 42.6923 40.1092 40.4984 40.1092 38.3045C40.1092 38.1625 40.1134 38.0185 39.9524 37.9475L39.9492 37.9496Z" fill="#272324"/>
<path d="M21.5358 36.054C21.6407 36.3464 21.7455 36.6388 21.8822 37.018C22.5252 36.1229 23.3494 35.6493 24.3854 35.5656C24.8134 35.5307 25.2287 35.5783 25.6312 35.7245C25.93 35.8336 26.0052 36.0222 25.8251 36.2976C25.6037 36.6366 25.3781 36.9725 25.1662 37.3178C25.0486 37.5106 24.8886 37.5456 24.6768 37.5456C23.3526 37.5466 22.6365 38.1642 22.4108 39.4757C22.2604 40.3507 22.343 41.2332 22.3282 42.1124C22.3123 43.0807 22.3112 44.05 22.325 45.0193C22.3303 45.3858 22.1852 45.5384 21.825 45.5119C21.3536 45.478 20.8758 45.5744 20.4076 45.4547C20.5008 45.2862 20.3832 45.1263 20.3843 44.9589C20.3981 42.2014 20.4012 39.4439 20.4065 36.6864C20.4076 35.9576 20.5368 35.858 21.2763 36.0116C21.361 36.0296 21.4479 36.0402 21.5337 36.0551L21.5358 36.054Z" fill="#252122"/>
<path d="M47.5227 40.6076C47.5227 42.0187 47.5068 43.4297 47.5301 44.8408C47.5386 45.3546 47.3373 45.5219 46.8415 45.5156C45.2567 45.4923 45.4082 45.6724 45.4082 44.1119C45.4082 41.5727 45.4082 39.0324 45.4082 36.4931C45.4082 35.8448 45.4813 35.7706 46.1413 35.7738C47.7038 35.7823 47.5163 35.6393 47.5216 37.17C47.5258 38.3162 47.5216 39.4625 47.5216 40.6087L47.5227 40.6076Z" fill="#252122"/>
<path d="M33.8314 18.633C34.0761 18.6277 34.2731 18.741 34.4659 18.8703C35.7085 19.7061 36.9533 20.5366 38.1927 21.3756C38.6239 21.668 38.7012 22.025 38.4459 22.4647C38.4109 22.525 38.3654 22.5801 38.3262 22.6384C37.6916 23.5971 37.5274 23.6299 36.5751 22.9912C35.4924 22.2644 34.4077 21.542 33.3261 20.8121C32.5686 20.3015 32.5241 20.096 33.039 19.3184C33.235 19.0228 33.3716 18.6319 33.8314 18.633Z" fill="#FCD106"/>
<path d="M16.5958 23.3667C16.2854 23.3932 16.1329 23.1729 15.9761 22.9547C15.2112 21.8858 15.2218 21.783 16.2918 21.0563C17.4126 20.2946 18.5429 19.5446 19.6732 18.7967C20.1849 18.4588 20.4836 18.5234 20.8332 19.0181C21.597 20.0965 21.5748 20.212 20.473 20.9482C19.4052 21.6612 18.3395 22.3794 17.2706 23.0903C17.0683 23.2248 16.8723 23.3911 16.5958 23.3667Z" fill="#04BDEE"/>
<path d="M20.1564 11.8606C20.0304 11.8553 19.864 11.7652 19.7009 11.6551C18.4318 10.8023 17.1585 9.95586 15.8915 9.09885C15.4307 8.7874 15.3745 8.48972 15.6574 8.02785C16.3576 6.88163 16.489 6.85303 17.6055 7.60093C18.5981 8.2662 19.5918 8.93147 20.5855 9.59569C21.5654 10.2514 21.5802 10.3372 20.9096 11.3341C20.7401 11.5862 20.5802 11.8415 20.1575 11.8595L20.1564 11.8606Z" fill="#252122"/>
<path d="M38.5586 8.43194C38.5469 8.7455 38.4145 8.91712 38.2122 9.05272C36.8975 9.93198 35.586 10.8165 34.2682 11.6916C33.8837 11.9469 33.5457 11.8769 33.2618 11.4988C32.443 10.4076 32.4652 10.2508 33.5934 9.49552C34.6888 8.76245 35.7841 8.02727 36.8816 7.29843C37.4314 6.93296 37.7079 6.97957 38.0628 7.52619C38.2598 7.82917 38.5522 8.09083 38.5586 8.43194Z" fill="#252122"/>
<path d="M27.7147 30.4138C27.3037 30.5557 26.88 30.4953 26.4647 30.4678C26.0971 30.4434 25.9085 30.1881 25.9064 29.8226C25.9011 28.6118 25.9022 27.401 25.9064 26.1912C25.9064 25.8745 26.0664 25.616 26.3747 25.5789C26.7889 25.5291 27.2147 25.5439 27.6321 25.5789C27.8418 25.5958 28.0166 25.7431 28.041 25.992C27.8101 26.3851 27.9626 26.813 27.9308 27.2241C27.8471 28.2866 28.113 29.3724 27.7147 30.4148V30.4138Z" fill="#252122"/>
<path d="M25.9065 1.66467C25.9065 1.38182 25.9022 1.10004 25.9086 0.81825C25.9107 0.696425 25.8991 0.556591 25.952 0.454893C26.3154 -0.256989 26.9775 0.0883585 27.5156 0.0544593C27.9182 0.0290349 28.0972 0.354255 28.1067 0.727146C28.1237 1.37971 28.1248 2.03332 28.1089 2.68588C28.0983 3.09797 27.8684 3.34374 27.4457 3.36175C26.0389 3.42213 25.8376 3.38505 25.9054 1.98353C25.9107 1.8776 25.9054 1.77166 25.9054 1.66573L25.9065 1.66467Z" fill="#F70B76"/>
<path d="M36.0402 44.286C36.0402 44.1091 36.0349 43.9332 36.0412 43.7563C36.0455 43.6514 36.038 43.5328 36.0836 43.4449C36.4395 42.7573 37.0815 43.0963 37.6027 43.0592C37.9703 43.0328 38.1652 43.3241 38.18 43.6853C38.197 44.073 38.1959 44.4618 38.1811 44.8495C38.1652 45.268 37.9374 45.4958 37.5126 45.5106C37.4247 45.5138 37.3357 45.5116 37.2478 45.5116C36.0709 45.5138 36.0402 45.482 36.0391 44.2849L36.0402 44.286Z" fill="#252122"/>
<path d="M47.533 33.066C47.533 33.2419 47.5372 33.4166 47.533 33.5925C47.5298 33.6974 47.5341 33.8075 47.5023 33.905C47.3709 34.3054 46.8582 34.4463 46.0001 34.3266C45.6135 34.2726 45.4027 34.0554 45.3984 33.6592C45.3942 33.2736 45.3899 32.887 45.4016 32.5014C45.4048 32.3838 45.4376 32.2556 45.4948 32.1539C45.6728 31.8382 46.479 31.7005 47.0616 31.87C47.4567 31.9844 47.5553 32.2757 47.5341 32.6444C47.5267 32.7842 47.533 32.9251 47.5341 33.066H47.533Z" fill="#272324"/>
<path d="M21.5355 36.0523C21.4497 36.0386 21.3629 36.0269 21.2781 36.0089C20.5387 35.8553 20.4094 35.9559 20.4084 36.6837C20.4031 39.4412 20.3999 42.1987 20.3861 44.9562C20.3861 45.1235 20.5027 45.2835 20.4094 45.4519C20.1308 45.3174 20.2272 45.0589 20.2272 44.8481C20.2198 42.0302 20.2188 39.2134 20.2241 36.3956C20.2241 36.171 20.1097 35.8108 20.4656 35.8002C20.8247 35.7896 21.2876 35.5311 21.5377 36.0502L21.5355 36.0523Z" fill="#272324"/>
<path d="M39.9491 37.9531C40.1101 38.0241 40.1059 38.1682 40.1059 38.3101C40.1059 40.504 40.1059 42.698 40.1059 44.8919C40.1059 45.019 40.1271 45.198 39.9502 44.9681C39.9004 42.6302 39.9057 40.2922 39.9481 37.9531H39.9491Z" fill="#252122"/>
<path d="M27.7149 30.415C28.1132 29.3736 27.8473 28.2867 27.931 27.2242C27.9628 26.8132 27.8103 26.3852 28.0412 25.9922C28.1959 26.8566 28.074 27.7285 28.1069 28.5961C28.1217 28.9796 28.1132 29.3641 28.1069 29.7486C28.1027 30.0421 28.0296 30.3027 27.7139 30.415H27.7149Z" fill="#272324"/>
</svg>
