<svg width="134" height="66" viewBox="0 0 134 66" fill="none" xmlns="http://www.w3.org/2000/svg">
<mask id="mask0_271_2820" style="mask-type:alpha" maskUnits="userSpaceOnUse" x="0" y="0" width="134" height="66">
<rect width="134" height="66" fill="#D9D9D9"/>
</mask>
<g mask="url(#mask0_271_2820)">
</g>
<g clip-path="url(#clip0_271_2820)">
<path d="M67.0347 23.9983C71.128 23.9983 75.2213 23.9983 79.3147 23.9983C80.2194 23.9983 80.4842 24.2621 80.4884 25.154C80.4958 26.9009 80.4598 26.9369 78.7172 26.9369C70.7244 26.9359 62.7316 26.9348 54.7388 26.9327C53.8373 26.9327 53.5693 26.6668 53.5651 25.7738C53.5566 24.0396 53.5968 23.9983 55.3363 23.9983C59.2358 23.9983 63.1352 23.9983 67.0347 23.9983Z" fill="#252122"/>
<path d="M67.0273 28.5918C68.1142 28.3323 68.7837 28.8757 69.4458 29.6766C71.3208 31.9457 73.269 34.1544 75.1853 36.3886C75.768 37.0677 75.7341 37.4374 75.0455 38.0317C73.7361 39.162 73.68 39.1567 72.5486 37.841C70.9278 35.9564 69.3081 34.0708 67.6862 32.1872C67.1586 31.5739 66.8451 31.5749 66.3207 32.1819C64.5579 34.2233 62.7962 36.2657 61.0335 38.3071C60.4985 38.9268 60.0854 38.9597 59.4635 38.4321C58.0853 37.2647 58.0811 37.217 59.2517 35.86C61.1055 33.7106 62.9784 31.5781 64.7995 29.4011C65.3005 28.8026 65.8239 28.4689 66.6046 28.5886C66.7423 28.6098 66.8864 28.5918 67.0273 28.5918Z" fill="#252122"/>
<path d="M71.164 51.3563C70.1587 51.3563 69.1523 51.3722 68.147 51.3479C67.7826 51.3394 67.7466 51.4654 67.8038 51.778C68.0337 53.0439 69.2646 53.8861 70.7085 53.7505C71.4617 53.6795 72.1598 53.4475 72.7774 53.0142C73.1599 52.7462 73.4205 52.796 73.6111 53.2187C73.626 53.2505 73.6429 53.2822 73.6599 53.3119C74.3177 54.4602 74.3124 54.4676 73.1016 55.0927C71.7859 55.7717 70.4013 55.8798 68.9881 55.5281C67.1004 55.0577 66.0559 53.7801 65.7571 51.8987C65.5527 50.6116 65.612 49.3277 66.147 48.1073C66.9733 46.2206 69.0062 45.2344 71.2022 45.6433C73.2118 46.0172 74.6408 47.6645 74.7224 49.7069C74.7362 50.0597 74.7224 50.4125 74.7351 50.7652C74.751 51.1943 74.5529 51.3659 74.1281 51.3595C73.1408 51.3457 72.1524 51.3553 71.164 51.3553V51.3563ZM70.1524 49.5353C70.8219 49.5353 71.4935 49.4993 72.1598 49.547C72.6726 49.584 72.6651 49.3563 72.5613 48.9929C72.2764 48.0003 71.2944 47.3446 70.1587 47.3933C69.0316 47.442 68.022 48.2302 67.8218 49.2037C67.7699 49.4537 67.8123 49.5491 68.093 49.5417C68.7795 49.5237 69.467 49.5353 70.1534 49.5353H70.1524Z" fill="#252122"/>
<path d="M56.5111 54.4169C55.153 55.6489 53.653 56.0303 51.9665 55.4392C50.6773 54.9868 50.0247 53.9921 49.9357 52.6711C49.7917 50.5407 49.8807 48.404 49.8658 46.2705C49.8637 45.9146 50.0332 45.7705 50.3881 45.7726C52.3214 45.7864 51.9167 45.5777 51.957 47.2207C51.9951 48.7547 52.0025 50.2897 52.0078 51.8236C52.0099 52.5312 52.1286 53.188 52.8256 53.5281C53.5439 53.8798 54.2738 53.7866 54.9465 53.3777C55.7463 52.8904 56.0397 52.1149 56.0514 51.2208C56.0715 49.6159 56.0874 48.0099 56.0694 46.405C56.0641 45.9124 56.2367 45.7557 56.7135 45.7662C58.4646 45.8033 58.169 45.5671 58.1764 47.2112C58.1891 49.7865 58.1732 52.3618 58.1616 54.937C58.1616 55.1574 58.2771 55.5112 57.884 55.4953C57.5186 55.4805 57.045 55.739 56.8194 55.1987C56.7188 54.9582 56.6266 54.7135 56.509 54.4158L56.5111 54.4169Z" fill="#252122"/>
<path d="M40.0001 50.6832C40.0573 48.6938 40.7332 47.0666 42.5542 46.1577C44.2735 45.2985 45.9939 45.3907 47.6295 46.4522C47.674 46.4808 47.7164 46.5125 47.7577 46.5443C48.8594 47.3844 48.8181 47.913 47.6221 48.6132C47.3234 48.788 47.1571 48.6154 46.977 48.4512C46.2047 47.7488 45.2947 47.4893 44.282 47.6863C43.1061 47.9151 42.373 48.6726 42.1188 49.8188C41.837 51.0889 42.069 52.2754 43.1485 53.1091C44.1178 53.857 45.2047 53.8602 46.2884 53.3157C46.6846 53.1165 47.031 52.839 47.317 52.4968C47.5172 52.2574 47.7058 52.2648 47.9484 52.4587C48.9993 53.2934 49.0194 53.5392 48.0098 54.4227C46.4579 55.7819 44.6877 56.0266 42.8328 55.2268C40.8613 54.3772 40.0944 52.6992 39.998 50.6832H40.0001Z" fill="#252122"/>
<path d="M70.9204 18.7377C70.9161 20.9147 69.1576 22.6573 66.9732 22.6478C64.8302 22.6383 63.0748 20.8766 63.0716 18.7346C63.0685 16.5597 64.8312 14.797 67.0018 14.8023C69.1915 14.8076 70.9235 16.5481 70.9193 18.7377H70.9204ZM66.9806 20.3289C67.8726 20.3395 68.5993 19.634 68.6099 18.7441C68.6205 17.8511 67.915 17.1296 67.022 17.1212C66.1247 17.1127 65.4001 17.814 65.3906 18.7017C65.381 19.5884 66.0929 20.3172 66.9806 20.3289Z" fill="#252122"/>
<path d="M89.5543 47.6548C89.5543 45.8825 89.5533 44.2257 89.5543 42.5688C89.5543 41.9544 89.6507 41.8495 90.2472 41.8474C91.8627 41.8421 91.7419 41.6673 91.7387 43.2998C91.7377 43.9873 91.7536 44.6748 91.7313 45.3623C91.7207 45.6749 91.7885 45.8073 92.1328 45.7808C92.5534 45.749 92.9782 45.7734 93.4008 45.7755C93.5057 45.7755 93.636 45.7469 93.7134 45.7967C94.2843 46.1579 93.886 46.7226 93.9824 47.1876C94.0439 47.4832 93.8203 47.5849 93.5566 47.5859C93.0809 47.587 92.6042 47.5986 92.1286 47.5785C91.8447 47.5669 91.7271 47.6357 91.7313 47.9514C91.7483 49.4144 91.7281 50.8773 91.7461 52.3403C91.7567 53.2079 92.1254 53.5903 92.9813 53.5511C93.5597 53.5246 93.7494 53.7852 93.8542 54.2863C94.1276 55.5872 94.1403 55.5861 92.7822 55.5268C92.4135 55.5109 92.0459 55.4866 91.6826 55.3965C90.4643 55.0967 89.7397 54.3372 89.6296 53.0882C89.4664 51.2428 89.6041 49.3889 89.5533 47.6548H89.5543Z" fill="#272324"/>
<path d="M79.9492 47.9503C79.945 47.677 79.8369 47.5753 79.5361 47.5721C78.3729 47.5626 78.3973 47.5478 78.3729 46.3899C78.3623 45.8751 78.5753 45.7575 79.0318 45.7638C79.9132 45.7765 79.9047 45.7596 79.9249 44.9005C79.9323 44.5668 79.9619 44.2299 80.0213 43.9026C80.2225 42.7976 80.8868 42.1303 81.9948 41.9025C82.2003 41.8601 82.4122 41.8305 82.622 41.8209C84.0457 41.7542 84.1252 41.8464 84.0182 43.2553C83.9917 43.5953 83.8476 43.7267 83.5171 43.7034C83.3074 43.6886 83.0944 43.6875 82.8857 43.7098C82.4249 43.7585 82.1622 44.0244 82.0732 44.4788C81.8465 45.6282 81.9588 45.7723 83.1008 45.7723C83.944 45.7723 83.9483 45.7723 83.944 46.6039C83.9387 47.677 84.0659 47.5785 82.997 47.5796C82.3628 47.5803 82.0457 47.8914 82.0457 48.5128C82.0457 50.6284 82.034 52.7428 82.0552 54.8583C82.0605 55.3711 81.8815 55.5639 81.3772 55.5141C81.0626 55.4834 80.7427 55.4971 80.4259 55.5088C80.0308 55.5236 79.8677 55.3562 79.9535 54.9632C80.1304 55.1931 80.1092 55.0141 80.1092 54.8869C80.1092 52.693 80.1092 50.4991 80.1092 48.3052C80.1092 48.1633 80.1134 48.0192 79.9524 47.9482L79.9492 47.9503Z" fill="#272324"/>
<path d="M61.5356 46.0567C61.6405 46.3491 61.7453 46.6414 61.882 47.0207C62.525 46.1255 63.3492 45.652 64.3852 45.5683C64.8132 45.5334 65.2285 45.581 65.631 45.7272C65.9298 45.8363 66.005 46.0249 65.8249 46.3003C65.6035 46.6393 65.3778 46.9751 65.166 47.3205C65.0484 47.5133 64.8884 47.5482 64.6766 47.5482C63.3524 47.5493 62.6362 48.1669 62.4106 49.4784C62.2602 50.3534 62.3428 51.2358 62.328 52.1151C62.3121 53.0833 62.311 54.0526 62.3248 55.022C62.3301 55.3885 62.185 55.541 61.8248 55.5146C61.3534 55.4807 60.8756 55.5771 60.4074 55.4573C60.5006 55.2889 60.383 55.129 60.3841 54.9616C60.3978 52.2041 60.401 49.4466 60.4063 46.6891C60.4074 45.9603 60.5366 45.8607 61.276 46.0143C61.3608 46.0323 61.4477 46.0429 61.5335 46.0577L61.5356 46.0567Z" fill="#252122"/>
<path d="M87.5225 50.6085C87.5225 52.0195 87.5066 53.4306 87.5299 54.8416C87.5384 55.3554 87.3371 55.5228 86.8413 55.5164C85.2566 55.4931 85.408 55.6732 85.408 54.1128C85.408 51.5735 85.408 49.0332 85.408 46.494C85.408 45.8456 85.4811 45.7715 86.1411 45.7747C87.7037 45.7831 87.5161 45.6401 87.5214 47.1709C87.5257 48.3171 87.5214 49.4633 87.5214 50.6095L87.5225 50.6085Z" fill="#252122"/>
<path d="M73.8315 28.6321C74.0762 28.6268 74.2732 28.7402 74.466 28.8694C75.7087 29.7053 76.9534 30.5358 78.1928 31.3748C78.624 31.6672 78.7013 32.0242 78.446 32.4638C78.4111 32.5242 78.3655 32.5793 78.3263 32.6375C77.6918 33.5962 77.5276 33.6291 76.5752 32.9903C75.4925 32.2636 74.4078 31.5411 73.3262 30.8112C72.5687 30.3006 72.5243 30.0951 73.0391 29.3175C73.2351 29.022 73.3717 28.6311 73.8315 28.6321Z" fill="#FCD106"/>
<path d="M56.5958 33.3671C56.2855 33.3936 56.1329 33.1732 55.9761 32.955C55.2113 31.8861 55.2219 31.7834 56.2918 31.0567C57.4126 30.295 58.5429 29.545 59.6733 28.7971C60.1849 28.4591 60.4837 28.5238 60.8332 29.0185C61.597 30.0969 61.5748 30.2124 60.4731 30.9486C59.4052 31.6616 58.3395 32.3798 57.2707 33.0906C57.0683 33.2252 56.8723 33.3915 56.5958 33.3671Z" fill="#04BDEE"/>
<path d="M60.1563 21.8631C60.0303 21.8578 59.8639 21.7678 59.7008 21.6576C58.4317 20.8048 57.1584 19.9584 55.8914 19.1014C55.4306 18.79 55.3744 18.4923 55.6573 18.0304C56.3575 16.8842 56.4889 16.8556 57.6054 17.6035C58.598 18.2688 59.5917 18.934 60.5854 19.5982C61.5653 20.254 61.5801 20.3398 60.9095 21.3366C60.74 21.5888 60.5801 21.8441 60.1574 21.8621L60.1563 21.8631Z" fill="#252122"/>
<path d="M78.5583 18.4344C78.5466 18.7479 78.4142 18.9196 78.2119 19.0552C76.8972 19.9344 75.5857 20.819 74.2679 21.694C73.8834 21.9493 73.5454 21.8794 73.2615 21.5012C72.4426 20.4101 72.4649 20.2533 73.5931 19.498C74.6885 18.7649 75.7838 18.0297 76.8813 17.3009C77.4311 16.9354 77.7076 16.982 78.0625 17.5286C78.2595 17.8316 78.5519 18.0933 78.5583 18.4344Z" fill="#252122"/>
<path d="M67.7148 40.4123C67.3038 40.5543 66.88 40.4939 66.4648 40.4663C66.0972 40.442 65.9086 40.1867 65.9065 39.8212C65.9012 38.6103 65.9023 37.3995 65.9065 36.1897C65.9065 35.873 66.0665 35.6145 66.3747 35.5774C66.7889 35.5276 67.2148 35.5425 67.6322 35.5774C67.8419 35.5944 68.0167 35.7416 68.0411 35.9906C67.8101 36.3836 67.9627 36.8116 67.9309 37.2226C67.8472 38.2851 68.1131 39.371 67.7148 40.4134V40.4123Z" fill="#252122"/>
<path d="M65.9065 11.6649C65.9065 11.3821 65.9022 11.1003 65.9086 10.8185C65.9107 10.6967 65.8991 10.5568 65.952 10.4551C66.3154 9.74325 66.9775 10.0886 67.5156 10.0547C67.9182 10.0293 68.0972 10.3545 68.1067 10.7274C68.1237 11.3799 68.1248 12.0336 68.1089 12.6861C68.0983 13.0982 67.8684 13.344 67.4457 13.362C66.0389 13.4224 65.8376 13.3853 65.9054 11.9838C65.9107 11.8778 65.9054 11.7719 65.9054 11.666L65.9065 11.6649Z" fill="#F70B76"/>
<path d="M76.0402 54.2854C76.0402 54.1085 76.0349 53.9326 76.0413 53.7557C76.0455 53.6508 76.0381 53.5322 76.0836 53.4442C76.4396 52.7567 77.0815 53.0957 77.6027 53.0586C77.9703 53.0322 78.1653 53.3235 78.1801 53.6847C78.197 54.0724 78.196 54.4612 78.1811 54.8489C78.1653 55.2674 77.9375 55.4951 77.5127 55.51C77.4248 55.5131 77.3358 55.511 77.2479 55.511C76.0709 55.5132 76.0402 55.4814 76.0391 54.2843L76.0402 54.2854Z" fill="#252122"/>
<path d="M87.5331 43.0688C87.5331 43.2447 87.5373 43.4195 87.5331 43.5953C87.5299 43.7002 87.5341 43.8103 87.5024 43.9078C87.371 44.3082 86.8583 44.4491 86.0002 44.3294C85.6135 44.2754 85.4027 44.0582 85.3985 43.662C85.3942 43.2764 85.39 42.8898 85.4017 42.5042C85.4048 42.3866 85.4377 42.2584 85.4949 42.1567C85.6729 41.841 86.479 41.7033 87.0617 41.8728C87.4568 41.9872 87.5553 42.2785 87.5341 42.6472C87.5267 42.787 87.5331 42.9279 87.5341 43.0688H87.5331Z" fill="#272324"/>
<path d="M61.5356 46.0544C61.4498 46.0406 61.363 46.029 61.2782 46.011C60.5388 45.8574 60.4095 45.958 60.4085 46.6858C60.4032 49.4433 60.4 52.2007 60.3862 54.9582C60.3862 55.1256 60.5028 55.2856 60.4095 55.454C60.1309 55.3195 60.2273 55.061 60.2273 54.8502C60.2199 52.0323 60.2189 49.2155 60.2242 46.3976C60.2242 46.173 60.1097 45.8129 60.4657 45.8023C60.8248 45.7917 61.2877 45.5332 61.5377 46.0523L61.5356 46.0544Z" fill="#272324"/>
<path d="M79.9492 47.9513C80.1102 48.0223 80.106 48.1663 80.106 48.3083C80.106 50.5022 80.106 52.6961 80.106 54.89C80.106 55.0172 80.1272 55.1962 79.9503 54.9663C79.9005 52.6283 79.9058 50.2903 79.9481 47.9513H79.9492Z" fill="#252122"/>
<path d="M67.7148 40.4133C68.1131 39.3719 67.8472 38.285 67.9309 37.2225C67.9627 36.8115 67.8101 36.3835 68.0411 35.9905C68.1958 36.8549 68.0739 37.7268 68.1068 38.5944C68.1216 38.9778 68.1131 39.3624 68.1068 39.7469C68.1025 40.0404 68.0294 40.301 67.7137 40.4133H67.7148Z" fill="#272324"/>
</g>
<defs>
<clipPath id="clip0_271_2820">
<rect width="54.03" height="45.7258" fill="white" transform="translate(40 10)"/>
</clipPath>
</defs>
</svg>
