<svg width="134" height="66" viewBox="0 0 134 66" fill="none" xmlns="http://www.w3.org/2000/svg">
<mask id="mask0_270_2661" style="mask-type:alpha" maskUnits="userSpaceOnUse" x="0" y="0" width="134" height="66">
<rect width="134" height="66" fill="#D9D9D9"/>
</mask>
<g mask="url(#mask0_270_2661)">
</g>
<g clip-path="url(#clip0_270_2661)">
<path d="M44.1895 30.2463H38.3232C38.1292 30.2463 37.9718 30.4038 37.9718 30.5977V43.8044C37.9718 43.9961 38.1292 44.1535 38.3232 44.1535H44.2078C48.8328 44.1535 51.8196 41.42 51.8196 37.1897C51.8196 32.9593 48.8237 30.2463 44.1872 30.2463M44.1872 40.4868H42.1839V33.9154H44.2078C46.2978 33.9154 47.5436 35.1384 47.5436 37.1897C47.5436 38.8279 46.3914 40.4868 44.1872 40.4868Z" fill="#0078AE"/>
<path d="M77.8269 33.8348C76.2068 33.8348 74.8903 34.7247 74.3039 35.6077C73.8726 34.4327 72.896 33.8348 71.4061 33.8348C69.7564 33.8348 68.506 34.67 68.0702 35.2313V34.4349C68.0702 34.241 67.9127 34.0835 67.7188 34.0835H64.6658C64.4719 34.0835 64.3167 34.2387 64.3167 34.4349V43.806C64.3167 43.9977 64.4742 44.1551 64.6658 44.1551H67.7188C67.9127 44.1551 68.0702 43.9977 68.0702 43.806V37.9397C68.2915 37.6818 68.7501 37.1479 69.5921 37.1479C70.3314 37.1479 70.7398 37.5495 70.7398 38.2751V43.806C70.7398 43.9977 70.8972 44.1551 71.0912 44.1551H74.1441C74.3381 44.1551 74.4955 43.9977 74.4955 43.806V37.9397C74.7146 37.6818 75.1755 37.1479 76.0357 37.1479C76.7659 37.1479 77.1834 37.5586 77.1834 38.2751V43.806C77.1834 43.9977 77.3386 44.1551 77.5348 44.1551H80.5878C80.7817 44.1551 80.9391 43.9977 80.9391 43.806V36.8581C80.9391 34.9073 79.8371 33.8348 77.8314 33.8348" fill="#0078AE"/>
<path d="M85.8677 34.0872H82.8147C82.6208 34.0872 82.4633 34.2446 82.4633 34.4385V43.8096C82.4633 44.0013 82.6208 44.1587 82.8147 44.1587H85.8677C86.0616 44.1587 86.2191 44.0013 86.2191 43.8096V34.4385C86.2191 34.2446 86.0616 34.0872 85.8677 34.0872Z" fill="#0078AE"/>
<path d="M84.4347 29.1405C83.2733 29.1405 82.3264 30.0851 82.3264 31.2465C82.3264 32.4079 83.2733 33.3526 84.4347 33.3526C85.5961 33.3526 86.5408 32.4079 86.5408 31.2465C86.5408 30.0851 85.5938 29.1405 84.4347 29.1405Z" fill="#0078AE"/>
<path d="M95.0243 33.8371C93.078 33.8371 92.0215 34.711 91.5629 35.2335V34.4372C91.5629 34.2433 91.4055 34.0858 91.2115 34.0858H88.1585C87.9669 34.0858 87.8072 34.241 87.8072 34.4372V43.8083C87.8072 44 87.9646 44.1574 88.1585 44.1574H91.2115C91.4055 44.1574 91.5629 44 91.5629 43.8083V37.942C91.8048 37.6659 92.2611 37.1502 93.167 37.1502C94.1367 37.1502 94.6273 37.6339 94.6273 38.5877V43.8083C94.6273 44 94.7847 44.1574 94.9786 44.1574H98.0293C98.2233 44.1574 98.3807 44 98.3807 43.8083V37.0064C98.3807 35.0213 97.1258 33.8348 95.022 33.8348" fill="#0078AE"/>
<path d="M57.8731 33.7903C54.9365 33.7903 52.5566 36.1724 52.5566 39.1044C52.5566 42.0365 54.9365 44.4232 57.8731 44.4232C60.8097 44.4232 63.1895 42.0433 63.1895 39.1044C63.1895 36.1656 60.8097 33.7903 57.8731 33.7903ZM57.8731 40.8454C56.8714 40.8454 56.0614 40.0331 56.0614 39.0291C56.0614 38.0252 56.8714 37.2174 57.8731 37.2174C58.8748 37.2174 59.6871 38.0275 59.6871 39.0291C59.6871 40.0308 58.8748 40.8454 57.8731 40.8454Z" fill="#0078AE"/>
<path d="M104.811 33.8052C101.876 33.8052 99.4965 36.185 99.4965 39.1193C99.4965 42.0536 101.876 44.4381 104.811 44.4381C107.745 44.4381 110.129 42.0582 110.129 39.1193C110.129 36.1805 107.747 33.8052 104.811 33.8052ZM104.811 40.8603C103.809 40.8603 102.997 40.0457 102.997 39.044C102.997 38.0424 103.809 37.2323 104.811 37.2323C105.812 37.2323 106.625 38.0446 106.625 39.044C106.625 40.0434 105.815 40.8603 104.811 40.8603Z" fill="#0078AE"/>
<path d="M113.064 30.8314V30.8268C113.064 30.8268 113.061 30.8222 113.061 30.8199C113.061 30.8131 113.059 30.804 113.057 30.7994C112.822 29.7521 111.681 28.9946 110.558 29.2273C109.424 29.4623 108.678 30.5188 108.897 31.582C109.08 32.4605 109.86 33.0697 110.766 33.1245C110.709 33.4827 110.392 33.8045 110.127 33.9528C109.951 34.0532 110.056 34.2425 110.056 34.2425L110.289 34.5894C110.355 34.7057 110.458 34.7651 110.579 34.7149C112.904 33.7634 113.303 31.7806 113.064 30.8336V30.8314Z" fill="#0078AE"/>
<path d="M115.768 37.0798C115.758 36.7033 116.247 36.5367 116.856 36.5367C118.07 36.5367 118.763 36.8835 119.537 37.3946C119.617 37.4494 119.717 37.4677 119.811 37.4448C119.904 37.422 119.986 37.3604 120.034 37.276L121.066 35.4848C121.159 35.3205 121.104 35.1106 120.94 35.0125C120.094 34.5083 118.852 33.8534 116.698 33.8534C113.593 33.8534 111.93 35.316 112.208 37.4175C112.696 41.1116 118.442 39.8452 118.35 41.107C118.33 41.3991 117.821 41.6159 116.943 41.6159C115.806 41.6159 114.515 41.0454 113.698 40.5412C113.618 40.491 113.518 40.475 113.426 40.5001C113.333 40.5252 113.255 40.5822 113.21 40.6667L112.019 42.6518C111.93 42.8115 111.975 43.0146 112.128 43.1172C113.271 43.8885 115.117 44.4064 116.719 44.4064C119.829 44.4064 121.62 43.0693 121.622 40.8766C121.622 36.8265 115.793 38.0814 115.768 37.082" fill="#0078AE"/>
<path d="M34.7635 26.9525L27.9138 20.1027C27.624 19.813 27.2407 19.6555 26.8322 19.6555C26.4238 19.6555 26.0382 19.8152 25.7507 20.1027L20.0076 25.8459L10.4471 35.4063C9.8493 36.0041 9.8493 36.9739 10.4471 37.5694L17.2946 44.4192C17.5844 44.709 17.9677 44.8664 18.3761 44.8664C18.7846 44.8664 19.1702 44.7067 19.4577 44.4192L28.0256 35.849L34.759 29.1133C35.3545 28.5178 35.3545 27.5458 34.759 26.9479L34.7635 26.9525Z" fill="white"/>
<path d="M34.2799 27.4375L27.4302 20.5901C27.0993 20.2592 26.5654 20.2592 26.2345 20.5901L18.8303 27.9943L26.8734 36.0374L34.2777 28.6332C34.6085 28.3023 34.6085 27.7684 34.2777 27.4375H34.2799ZM28.2562 29.4181C27.8683 29.806 27.3594 29.9976 26.8529 29.9976C26.3464 29.9976 25.8375 29.8037 25.4496 29.4181C25.064 29.0302 24.8678 28.5214 24.8678 28.0148C24.8678 27.5083 25.0617 26.9972 25.4496 26.6116C25.8375 26.2237 26.3441 26.0297 26.8529 26.0297C27.3594 26.0297 27.8683 26.2237 28.2562 26.6116C28.6418 26.9972 28.838 27.506 28.838 28.0148C28.838 28.5214 28.6418 29.0302 28.2562 29.4181Z" fill="#E31937"/>
<path d="M10.9309 35.8908C10.6001 36.2216 10.6001 36.7555 10.9309 37.0864L17.7807 43.9361C17.945 44.1004 18.1618 44.1826 18.3785 44.1826C18.5953 44.1826 18.812 44.1004 18.9763 43.9361L26.3783 36.5342L18.3329 28.4911L10.9309 35.8908ZM16.8612 37.8645C16.4733 38.2501 15.9644 38.444 15.4579 38.444C14.9491 38.444 14.4425 38.2501 14.0546 37.8645C13.6667 37.4766 13.4751 36.97 13.4751 36.4635C13.4751 35.9569 13.669 35.4481 14.0546 35.0579C14.4425 34.6723 14.9491 34.4784 15.4579 34.4784C15.9667 34.4784 16.4733 34.6723 16.8612 35.0579C17.2491 35.4458 17.4407 35.9546 17.4407 36.4612C17.4407 36.9677 17.2491 37.4766 16.8612 37.8645ZM19.8776 35.1378C20.2655 34.7499 20.7721 34.5559 21.2809 34.5559C21.7897 34.5559 22.2963 34.7499 22.6842 35.1378C23.072 35.5257 23.266 36.0322 23.266 36.541C23.266 37.0499 23.072 37.5564 22.6842 37.942C22.2985 38.3276 21.7897 38.5216 21.2809 38.5216C20.7743 38.5216 20.2655 38.3276 19.8776 37.942C19.4897 37.5541 19.2958 37.0453 19.2958 36.541C19.2958 36.0368 19.4897 35.5257 19.8776 35.1378Z" fill="#0078AE"/>
<path d="M124 34.3985C124 34.5948 123.952 34.775 123.854 34.9439C123.758 35.1127 123.626 35.2451 123.457 35.3432C123.29 35.4413 123.11 35.4892 122.916 35.4892C122.722 35.4892 122.544 35.4413 122.375 35.3432C122.209 35.2451 122.077 35.1127 121.978 34.9439C121.883 34.775 121.832 34.5925 121.832 34.3985C121.832 34.2046 121.88 34.022 121.978 33.8532C122.074 33.6843 122.207 33.5497 122.375 33.4539C122.542 33.3558 122.722 33.3079 122.916 33.3079C123.11 33.3079 123.29 33.3558 123.457 33.4539C123.624 33.552 123.756 33.6843 123.854 33.8532C123.95 34.022 124 34.2046 124 34.3985ZM123.79 34.3985C123.79 34.1544 123.706 33.9467 123.535 33.7756C123.363 33.6045 123.158 33.5178 122.918 33.5178C122.679 33.5178 122.471 33.6045 122.302 33.7756C122.134 33.9467 122.047 34.1544 122.047 34.3985C122.047 34.6427 122.131 34.8503 122.302 35.0214C122.474 35.1926 122.679 35.2793 122.918 35.2793C123.158 35.2793 123.366 35.1926 123.535 35.0214C123.703 34.8503 123.79 34.6427 123.79 34.3985ZM122.428 33.8144H122.946C123.092 33.8144 123.199 33.8441 123.263 33.9034C123.329 33.9627 123.361 34.0426 123.361 34.143C123.361 34.2206 123.336 34.289 123.286 34.346C123.236 34.4031 123.156 34.4442 123.049 34.4715C123.092 34.4898 123.126 34.5058 123.147 34.5263C123.176 34.5537 123.206 34.5925 123.238 34.645C123.238 34.6495 123.302 34.7613 123.425 34.9827H123.085C122.975 34.7613 122.9 34.6267 122.864 34.5833C122.825 34.54 122.788 34.5172 122.75 34.5172C122.74 34.5172 122.729 34.5172 122.713 34.5217V34.9804H122.426V33.8144H122.428ZM122.715 34.3095H122.841C122.923 34.3095 122.982 34.2959 123.017 34.2685C123.051 34.2411 123.067 34.2069 123.067 34.1635C123.067 34.1202 123.051 34.0859 123.019 34.0586C122.987 34.0312 122.93 34.0175 122.852 34.0175H122.715V34.3095Z" fill="#0078AE"/>
</g>
<defs>
<clipPath id="clip0_270_2661">
<rect width="114" height="25.2132" fill="white" transform="translate(10 19.6635)"/>
</clipPath>
</defs>
</svg>
