<svg width="134" height="66" viewBox="0 0 134 66" fill="none" xmlns="http://www.w3.org/2000/svg">
<mask id="mask0_271_2853" style="mask-type:alpha" maskUnits="userSpaceOnUse" x="0" y="0" width="134" height="66">
<rect width="134" height="66" fill="#D9D9D9"/>
</mask>
<g mask="url(#mask0_271_2853)">
<path d="M119.976 24.6097C119.964 24.5714 119.951 24.5336 119.936 24.4966C110.666 24.4999 101.399 24.4966 92.1345 24.4999C92.111 24.5233 92.0958 24.5537 92.0911 24.5864C92.0911 31.4973 92.0911 38.4049 92.0861 45.3158C92.1564 45.6876 92.3516 46.0244 92.6395 46.2706C92.6511 46.2756 92.6778 46.2789 92.6895 46.2822C92.8345 46.4286 93.0411 46.5001 93.2378 46.5683C93.3828 46.56 93.5228 46.6199 93.6678 46.6066H105.173C105.283 46.6016 105.394 46.6199 105.501 46.5799L105.513 46.5234L105.524 46.4402C105.771 45.1163 106.009 43.7873 106.273 42.465L106.296 42.2953C105.231 42.2903 104.163 42.2953 103.098 42.2903C102.839 42.2837 102.574 42.2903 102.314 42.2604C101.874 42.2421 101.428 42.2571 100.986 42.2155C100.436 42.2155 99.8927 42.1656 99.346 42.1656C98.916 42.1257 98.4794 42.1406 98.046 42.1207C97.7644 42.0874 97.4744 42.1041 97.1894 42.0907C96.7227 42.0408 96.2511 42.0758 95.7844 42.0275C95.2911 42.0309 94.7994 41.9893 94.3061 41.9776C94.3104 41.9711 94.3133 41.9638 94.3144 41.956C94.4778 41.9593 94.6378 41.9477 94.8028 41.9444C95.1661 41.8995 95.5344 41.9294 95.8977 41.8812C96.2777 41.8812 96.6544 41.8313 97.0327 41.8313C97.3694 41.7864 97.7094 41.813 98.046 41.7681C98.4427 41.7681 98.8294 41.7182 99.2244 41.7148C99.5494 41.6733 99.8777 41.6966 100.203 41.655C100.583 41.6583 100.958 41.6017 101.336 41.6051C101.709 41.5652 102.089 41.5751 102.461 41.5385C102.426 41.3988 102.398 41.2591 102.366 41.1211C102.339 41.0346 102.229 41.0529 102.159 41.0412C101.309 40.9248 100.464 40.8084 99.6193 40.6953C99.6743 40.6537 99.7493 40.672 99.811 40.6653C100.469 40.6154 101.123 40.5605 101.779 40.5156C101.929 40.5073 102.073 40.4824 102.223 40.4774C102.156 40.2811 102.116 40.0665 102.026 39.8869C100.621 39.6807 99.216 39.496 97.816 39.2732C98.1794 39.2166 98.5477 39.19 98.911 39.1534L98.9427 39.1418C100.104 39.0253 101.271 38.8923 102.433 38.7841C103.908 38.7775 105.379 38.7808 106.854 38.7841C106.903 38.7775 106.984 38.8008 106.993 38.7343L107.351 36.9063C107.521 36.0614 107.786 35.2264 108.198 34.4546C108.858 33.1972 109.868 32.1574 111.107 31.4607C112.271 30.8054 113.616 30.4894 114.954 30.4295C115.389 30.3912 115.827 30.4029 116.257 30.4544C116.541 30.5193 116.829 30.5942 117.052 30.7788C117.236 30.9218 117.346 31.1331 117.427 31.3443C117.607 31.8433 117.711 32.3622 117.796 32.8862C117.799 33.0957 117.839 33.3336 117.721 33.5249C117.612 33.7128 117.392 33.8043 117.186 33.8592C116.431 34.0488 115.639 33.8708 114.886 34.0488C114.262 34.1752 113.682 34.5062 113.287 34.9852C112.821 35.5408 112.576 36.2327 112.437 36.9263C112.332 37.5417 112.199 38.1604 112.094 38.7808C112.837 38.7841 113.586 38.7775 114.332 38.7841C114.631 38.7841 114.936 38.9422 115.056 39.2133C115.212 39.5592 115.177 39.9501 115.127 40.316C115.064 40.7252 114.962 41.131 114.771 41.5086C114.611 41.8279 114.344 42.1207 113.981 42.2338C113.792 42.3053 113.589 42.2903 113.389 42.2903C112.732 42.2903 112.074 42.2987 111.417 42.2903C111.312 42.7527 111.241 43.2268 111.147 43.6975C110.976 44.6123 110.808 45.5287 110.634 46.4469C110.63 46.4894 110.628 46.5322 110.628 46.5749C110.936 46.5916 111.244 46.5749 111.554 46.5833C113.847 46.5833 116.144 46.5799 118.441 46.5833C118.689 46.5914 118.935 46.534 119.154 46.4169C119.282 46.372 119.361 46.2639 119.474 46.2024C119.584 46.1425 119.616 46.0194 119.709 45.9396C119.811 45.7666 119.916 45.5853 119.926 45.3824C119.945 45.3818 119.965 45.3796 119.984 45.3757C119.971 38.4532 119.984 31.5306 119.976 24.6097Z" fill="url(#paint0_linear_271_2853)" stroke="#FCD109" stroke-width="0.375236"/>
<path d="M95.7377 20.0577C96.0711 19.9563 96.4194 20.0245 96.7594 20.0012C103.149 20.0045 109.539 20.0012 115.929 20.0012C116.309 19.9862 116.641 20.1925 116.994 20.2989C117.276 20.407 117.569 20.4935 117.851 20.61C117.909 20.6332 117.952 20.6815 117.996 20.7231C117.992 21.2204 117.996 21.721 117.996 22.22C117.999 22.3531 117.976 22.4878 118.022 22.6159C118.106 22.6275 118.147 22.6874 118.202 22.7356C118.461 22.8487 118.681 23.035 118.916 23.1847C119.266 23.4242 119.642 23.6338 119.987 23.8833C120.004 23.9814 119.991 24.0829 119.959 24.1727C119.926 24.2791 119.947 24.3922 119.936 24.497C110.666 24.5004 101.401 24.497 92.1345 24.5004C92.1145 24.3773 92.1511 24.2509 92.0945 24.1344C92.0878 24.038 92.0511 23.9099 92.1495 23.8417C92.5411 23.5789 92.9561 23.3427 93.3394 23.0633C93.5778 22.9169 93.8094 22.7656 94.0394 22.6159C94.0861 22.541 94.0711 22.4462 94.0711 22.363C94.0711 21.8175 94.0711 21.2736 94.0744 20.728C94.2078 20.5617 94.4394 20.5434 94.6228 20.4603C94.9944 20.3255 95.3694 20.1941 95.7394 20.0577H95.7377ZM95.7611 20.1209C95.2611 20.3056 94.7561 20.4835 94.2544 20.6665C94.1878 20.6781 94.1544 20.7347 94.1178 20.7829C94.1211 20.8145 94.1261 20.8661 94.1261 20.896C94.1211 21.3484 94.1261 21.7992 94.1211 22.2516C94.1261 22.363 94.1094 22.4762 94.1544 22.5776C94.1031 22.6294 94.0461 22.6751 93.9844 22.714C93.4178 23.0666 92.8695 23.4508 92.3011 23.8001C92.2045 23.8567 92.0945 23.9332 92.1261 24.0563C92.1061 24.1245 92.1428 24.181 92.2161 24.1627C93.4444 24.1544 94.6694 24.1694 95.8994 24.1511C97.726 24.1511 99.5493 24.1544 101.376 24.1511L101.404 24.1394C101.488 24.1577 101.568 24.1511 101.654 24.1511C104.964 24.1511 108.276 24.1544 111.589 24.1511C112.631 24.1544 113.676 24.1511 114.721 24.1511C116.442 24.1511 118.167 24.166 119.889 24.1577C119.939 24.1477 119.956 24.1128 119.936 24.0529C119.932 23.9931 119.956 23.9099 119.889 23.8716C119.616 23.7486 119.381 23.5556 119.119 23.4059C119.024 23.3311 118.902 23.2895 118.832 23.188C118.562 23.0417 118.312 22.8604 118.046 22.699C117.996 22.6691 117.956 22.6192 117.912 22.5776C117.935 22.497 117.946 22.4136 117.946 22.3298C117.941 21.8524 117.946 21.3751 117.941 20.896C117.952 20.8212 117.949 20.7347 117.877 20.6865C117.409 20.5235 116.944 20.3505 116.477 20.1858C116.331 20.1209 116.175 20.0778 116.016 20.0577H96.0161C95.9294 20.0611 95.8477 20.1027 95.7611 20.1209Z" fill="#F8F3B5" stroke="#F8F3B5" stroke-width="0.375236"/>
<path d="M94.1261 20.8959C94.4694 21.0356 94.8378 21.1138 95.1861 21.2502C95.3744 21.3217 95.4328 21.5163 95.5144 21.6743C95.4297 21.7521 95.337 21.8207 95.2378 21.8789C94.8761 22.1117 94.5094 22.3379 94.1545 22.5774C94.1095 22.4777 94.1261 22.3629 94.1211 22.2514C94.1261 21.799 94.1211 21.3483 94.1261 20.8959ZM116.879 21.2502C117.229 21.1171 117.592 21.0273 117.941 20.8959C117.944 21.3749 117.941 21.8523 117.944 22.3296C117.944 22.4128 117.936 22.4993 117.912 22.5791C117.607 22.3745 117.299 22.1833 116.994 21.9837C116.844 21.8789 116.681 21.8007 116.547 21.671C116.631 21.513 116.692 21.3217 116.881 21.2502H116.879Z" fill="#F7B402" stroke="#F7B402" stroke-width="0.375236"/>
<path d="M100.096 21.4056C100.528 21.3058 101.009 21.6767 100.974 22.1091C100.978 22.5333 100.511 22.8792 100.086 22.7827C99.911 22.7352 99.7557 22.6333 99.6427 22.4917C99.5735 22.393 99.5316 22.2778 99.5214 22.1577C99.5111 22.0377 99.5328 21.917 99.5843 21.8081C99.6627 21.5968 99.8743 21.4538 100.098 21.4056H100.096ZM111.262 21.6417C111.353 21.5427 111.468 21.4691 111.596 21.4282C111.724 21.3874 111.861 21.3807 111.992 21.4089C112.192 21.4654 112.387 21.5902 112.474 21.7781C112.556 21.9409 112.57 22.129 112.515 22.3023C112.459 22.4756 112.338 22.6205 112.177 22.7062C112.031 22.7797 111.865 22.805 111.704 22.7787C111.542 22.7525 111.393 22.6758 111.277 22.5599C111.164 22.4348 111.099 22.2728 111.096 22.1039C111.093 21.935 111.152 21.7708 111.261 21.6417H111.262Z" fill="#BDA727" stroke="#BDA727" stroke-width="0.375236"/>
<path d="M95.2378 21.8771C95.3369 21.8195 95.4297 21.7514 95.5144 21.6742L95.5428 21.7008C95.5694 21.8971 95.5494 22.0967 95.5578 22.2913C95.5461 22.8784 95.5694 23.4689 95.5411 24.056C94.4028 24.056 93.2645 24.0494 92.1245 24.056C92.0945 23.933 92.2045 23.8564 92.3028 23.7999C92.8695 23.4506 93.4178 23.0681 93.9861 22.7138C94.0466 22.6747 94.1025 22.6289 94.1528 22.5774C94.5094 22.3379 94.8761 22.1117 95.2361 21.8788L95.2378 21.8771ZM116.507 21.8023C116.507 21.7541 116.521 21.7125 116.547 21.6709C116.681 21.799 116.844 21.8788 116.994 21.9836C117.299 22.1832 117.607 22.3745 117.912 22.5774C117.956 22.619 117.996 22.6689 118.046 22.6988C118.312 22.8601 118.562 23.0414 118.832 23.1878C118.902 23.2876 119.024 23.3309 119.119 23.404C119.381 23.5554 119.616 23.7483 119.889 23.8714C119.956 23.9097 119.932 23.9928 119.936 24.0527C118.797 24.056 117.662 24.0494 116.524 24.056C116.504 23.9063 116.516 23.7567 116.512 23.6086C116.512 23.0065 116.504 22.4044 116.507 21.8023Z" fill="#F7E62D" stroke="#F7E62D" stroke-width="0.375236"/>
<path d="M119.936 24.0538C118.797 24.0571 117.662 24.0505 116.524 24.0571C116.504 23.9074 116.516 23.7577 116.512 23.6097C116.512 23.0076 116.504 22.4055 116.509 21.8034C116.509 21.7551 116.521 21.7136 116.547 21.672C116.631 21.514 116.692 21.3227 116.881 21.2512C117.229 21.1181 117.592 21.0283 117.941 20.8969C117.952 20.822 117.949 20.7355 117.877 20.6873C117.407 20.5243 116.944 20.3513 116.477 20.1867C116.331 20.1217 116.175 20.0786 116.016 20.0586H96.0161C95.9294 20.0619 95.8477 20.1035 95.7611 20.1218C95.2611 20.3064 94.7561 20.4827 94.2544 20.6674C94.1878 20.679 94.1544 20.7355 94.1178 20.7838C94.1211 20.8154 94.1261 20.8669 94.1261 20.8969C94.4694 21.0366 94.8378 21.1148 95.1861 21.2512C95.3744 21.3227 95.4328 21.5173 95.5144 21.6753L95.5428 21.7019C95.5694 21.8982 95.5494 22.0978 95.5578 22.2924C95.5461 22.8795 95.5694 23.47 95.5411 24.0571C94.4028 24.0571 93.2645 24.0505 92.1245 24.0571C92.1078 24.1236 92.1411 24.1819 92.2161 24.1636C93.4445 24.1553 94.6694 24.1702 95.8994 24.1519C97.726 24.1519 99.5494 24.1553 101.376 24.1519L101.404 24.1403C101.486 24.1586 101.568 24.1519 101.654 24.1519C104.964 24.1519 108.276 24.1553 111.589 24.1519C112.631 24.1553 113.676 24.1519 114.719 24.1519C116.441 24.1519 118.167 24.1669 119.889 24.1586C119.939 24.1469 119.956 24.1137 119.936 24.0538ZM99.5843 21.8084C99.6627 21.5971 99.8743 21.4541 100.098 21.4059C100.528 21.3061 101.009 21.6753 100.974 22.1094C100.978 22.5336 100.511 22.8795 100.084 22.7814C99.9102 22.734 99.7555 22.6326 99.6427 22.492C99.5735 22.3933 99.5316 22.278 99.5214 22.158C99.5111 22.038 99.5328 21.9173 99.5843 21.8084ZM111.261 21.642C111.352 21.5424 111.468 21.4685 111.596 21.4276C111.725 21.3867 111.862 21.3804 111.994 21.4092C112.192 21.4657 112.387 21.5888 112.474 21.7784C112.555 21.9414 112.57 22.1296 112.514 22.303C112.458 22.4763 112.337 22.6211 112.176 22.7065C112.029 22.7799 111.864 22.8053 111.702 22.779C111.54 22.7528 111.391 22.6761 111.276 22.5602C111.162 22.4349 111.098 22.2728 111.095 22.1039C111.093 21.935 111.151 21.7709 111.261 21.642Z" fill="url(#paint1_radial_271_2853)" stroke="#FCD109" stroke-width="0.375236"/>
<path d="M112.259 25.7054C112.313 25.717 111.974 25.391 112.039 25.376C112.103 25.3844 112.339 25.2064 112.627 25.3511C112.914 25.4958 112.842 25.8334 112.811 25.9598C112.771 26.1095 112.672 26.2043 112.594 26.2792C112.551 26.3125 112.454 26.3657 112.396 26.3624C112.431 26.1777 112.318 26.1461 112.309 25.9598L112.259 25.7054Z" fill="url(#paint2_linear_271_2853)" stroke="#FCD109" stroke-width="0.375236"/>
<path d="M99.7493 25.9107C99.741 26.0986 99.6277 26.1269 99.6627 26.3132C99.6043 26.3165 99.5077 26.2633 99.4643 26.23C99.3627 26.1467 99.2874 26.0358 99.2477 25.9107C99.216 25.7842 99.146 25.4449 99.431 25.3019C99.7193 25.1572 99.956 25.3352 100.019 25.3268C100.086 25.3418 99.746 25.6678 99.801 25.6562L99.7493 25.9107Z" fill="url(#paint3_linear_271_2853)" stroke="#FCD109" stroke-width="0.375236"/>
<path d="M111.746 28.1151C111.806 28.0669 111.844 28.0669 111.922 28.0669C111.452 29.0449 110.906 30.0229 110.081 30.7847C109.993 30.8604 109.9 30.9304 109.803 30.9943L109.524 31.1872C109.434 31.2465 109.345 31.3075 109.258 31.3702C109.034 31.4866 108.839 31.6496 108.591 31.7195C108.135 31.9222 107.658 32.0712 107.168 32.1636C106.976 32.1952 106.781 32.2401 106.584 32.2434C106.343 32.3099 106.084 32.2617 105.838 32.2767C105.701 32.2999 105.579 32.2251 105.446 32.2401C105.214 32.2073 104.983 32.1618 104.756 32.1037C102.961 31.5664 101.201 30.2491 100.688 28.4694C100.664 28.3488 100.653 28.2263 100.653 28.1035C100.708 28.2099 100.764 28.3147 100.823 28.4195C101.553 29.9497 103.001 31.1523 104.711 31.5149C104.849 31.5764 104.999 31.5548 105.133 31.608C105.254 31.608 105.373 31.603 105.489 31.6413C105.893 31.6496 106.296 31.6446 106.699 31.6446C106.753 31.6496 106.804 31.623 106.859 31.6113C107.531 31.5897 108.189 31.4117 108.801 31.1456C108.924 31.0924 109.044 31.0358 109.164 30.976C109.37 30.872 109.566 30.7507 109.751 30.6134C110.489 30.0557 111.095 29.3424 111.526 28.5243L111.746 28.1168V28.1151Z" fill="#BDA727" stroke="#BDA727" stroke-width="0.375236"/>
<path d="M111.107 31.4593C112.271 30.8056 113.616 30.4896 114.954 30.4281C115.389 30.3915 115.827 30.4031 116.257 30.4563C116.541 30.5195 116.829 30.5944 117.052 30.779C116.939 30.7873 116.829 30.7374 116.716 30.7225C116.394 30.6626 116.062 30.6859 115.737 30.6776C114.794 30.6776 113.844 30.7491 112.931 30.9969C112.449 31.1258 111.984 31.3077 111.542 31.5391C110.792 31.9383 110.114 32.4639 109.566 33.096C108.588 34.1771 108.013 35.546 107.736 36.9415C107.603 37.6899 107.449 38.4351 107.328 39.1869C107.133 39.2052 106.933 39.1952 106.738 39.1952C105.876 39.1919 105.016 39.1869 104.154 39.1786C103.971 39.1869 103.791 39.1453 103.608 39.1569C102.041 39.1653 100.476 39.1536 98.911 39.1536L98.9427 39.142C100.104 39.0255 101.271 38.8925 102.433 38.7844C103.908 38.7777 105.379 38.781 106.854 38.7844C106.901 38.7777 106.984 38.801 106.991 38.7345C107.113 38.1257 107.231 37.517 107.351 36.9065C107.519 36.0616 107.786 35.2266 108.198 34.4549C108.858 33.1975 109.868 32.1576 111.107 31.461V31.4593Z" fill="#0D69B3" stroke="#0D69B3" stroke-width="0.375236"/>
<path d="M112.932 30.9965C113.844 30.7486 114.794 30.6771 115.737 30.6771C116.062 30.6854 116.396 30.6622 116.716 30.722C116.829 30.7387 116.939 30.7869 117.052 30.7786C117.236 30.9216 117.346 31.1329 117.427 31.3441C117.607 31.8431 117.711 32.362 117.796 32.886C117.799 33.0955 117.839 33.3334 117.721 33.5247C117.612 33.7126 117.392 33.8041 117.186 33.8606C116.431 34.0486 115.639 33.8706 114.886 34.0486C114.262 34.175 113.684 34.5077 113.287 34.985C112.821 35.5422 112.576 36.2325 112.437 36.9261C112.332 37.5415 112.201 38.1602 112.094 38.7806C112.047 38.9203 112.021 39.07 111.994 39.2164C112.732 39.228 113.472 39.2164 114.211 39.2247C114.494 39.2164 114.774 39.2314 115.056 39.2131C115.212 39.559 115.177 39.9499 115.127 40.3158C115.064 40.725 114.962 41.1308 114.771 41.5084C114.611 41.8277 114.344 42.1205 113.981 42.2336C113.792 42.3051 113.589 42.2901 113.389 42.2901C112.732 42.2901 112.074 42.2985 111.418 42.2901C111.313 42.7525 111.241 43.2266 111.148 43.6973C110.976 44.6121 110.808 45.5302 110.634 46.4467C110.63 46.4892 110.628 46.532 110.628 46.5747V46.5797C108.918 46.5797 107.211 46.5831 105.501 46.5797L105.513 46.5232L105.524 46.44L105.536 46.5531C105.643 46.5648 105.834 46.6163 105.861 46.47C106.128 45.0861 106.374 43.6923 106.648 42.3084C106.54 42.2867 106.43 42.2856 106.323 42.3051C106.306 42.3583 106.291 42.4116 106.273 42.4631L106.296 42.2951C105.231 42.2901 104.163 42.2951 103.099 42.2901C102.839 42.2835 102.574 42.2901 102.316 42.2602C101.874 42.2419 101.428 42.2569 100.986 42.2153C100.438 42.2153 99.8944 42.1654 99.346 42.1654C98.916 42.1255 98.4811 42.1404 98.0461 42.1205C97.7644 42.0872 97.4761 42.1039 97.1894 42.0905C96.7227 42.0406 96.2511 42.0756 95.7844 42.0273C95.2928 42.0307 94.7994 41.9891 94.3061 41.9774C94.3105 41.971 94.3134 41.9636 94.3144 41.9558C94.4778 41.9591 94.6378 41.9475 94.8028 41.9442C95.1661 41.8993 95.5361 41.9292 95.8978 41.881C96.2778 41.881 96.6544 41.8311 97.0327 41.8311C97.3694 41.7862 97.7111 41.8128 98.0461 41.7679C98.4427 41.7679 98.8294 41.718 99.2244 41.7146C99.5494 41.6731 99.8777 41.6963 100.203 41.6548C100.583 41.6581 100.958 41.6015 101.338 41.6049C101.709 41.565 102.088 41.5749 102.461 41.5383C102.426 41.3986 102.398 41.2589 102.368 41.1209C102.339 41.0344 102.229 41.0527 102.159 41.041C101.309 40.9246 100.464 40.8082 99.6194 40.6951C99.6744 40.6535 99.7494 40.6718 99.811 40.6651C100.469 40.6152 101.123 40.5603 101.779 40.5154C101.929 40.5071 102.073 40.4822 102.223 40.4772C102.156 40.2809 102.116 40.0663 102.026 39.8867C100.621 39.6788 99.216 39.4958 97.8161 39.273C98.1794 39.2164 98.5477 39.1898 98.911 39.1532C100.478 39.1532 102.043 39.1648 103.608 39.1565C103.791 39.1449 103.971 39.1865 104.154 39.1798L106.738 39.1948C106.933 39.1948 107.133 39.2064 107.329 39.1865C107.449 38.4347 107.603 37.6895 107.736 36.941C108.013 35.5439 108.589 34.175 109.568 33.0955C110.114 32.4635 110.791 31.9379 111.543 31.5387C111.976 31.2975 112.454 31.1362 112.932 30.9965Z" fill="#107BD4" stroke="#107BD4" stroke-width="0.375236"/>
<path d="M112.096 38.7819C112.837 38.7852 113.586 38.7785 114.332 38.7852C114.631 38.7852 114.936 38.9432 115.056 39.2143C114.774 39.2326 114.492 39.2176 114.211 39.226C113.472 39.2176 112.732 39.2293 111.994 39.2176C112.021 39.0713 112.047 38.9216 112.094 38.7819H112.096ZM106.323 42.308C106.43 42.2884 106.54 42.2895 106.648 42.3113C106.374 43.6952 106.128 45.0874 105.861 46.4712C105.834 46.6176 105.643 46.566 105.536 46.5544L105.524 46.4413C105.771 45.1173 106.009 43.7883 106.273 42.466C106.291 42.4134 106.308 42.3601 106.323 42.3063V42.308Z" fill="#0D69B3" stroke="#0D69B3" stroke-width="0.375236"/>
<path d="M112.437 25.8114C112.41 25.7528 112.397 25.6881 112.401 25.6234L112.371 25.6267C112.322 25.4621 112.179 25.3041 111.991 25.2957C111.849 25.2858 111.674 25.2891 111.591 25.4172C111.436 25.6201 111.509 25.8795 111.501 26.1091L111.506 26.1656C111.506 26.3203 111.486 26.47 111.458 26.6214C111.435 26.6668 111.423 26.717 111.424 26.7677C111.358 27.1204 111.224 27.4713 111.044 27.7907C111.009 27.8333 110.983 27.8833 110.969 27.937C110.847 28.1316 110.713 28.3178 110.566 28.4942C110.543 28.5134 110.523 28.5345 110.504 28.5574C110.403 28.6788 110.293 28.7803 110.179 28.8851C110.151 28.9017 110.133 28.9184 110.109 28.935C109.974 29.0617 109.825 29.1733 109.666 29.2676L109.604 29.3109C108.603 29.9463 107.384 30.2091 106.199 30.2207C105.191 30.2499 104.19 30.0467 103.273 29.6269L103.201 29.597C103.049 29.5171 102.893 29.4489 102.751 29.3525L102.654 29.3026C102.51 29.2215 102.372 29.1286 102.243 29.0248C102.199 28.9866 102.153 28.9583 102.106 28.9233C101.961 28.8156 101.825 28.696 101.699 28.5657L101.606 28.4709C101.177 28.0507 100.855 27.5332 100.669 26.9623C100.503 26.5149 100.526 26.0259 100.506 25.5569C100.364 25.349 100.068 25.2325 99.8327 25.3606C99.7344 25.4271 99.7227 25.5519 99.6494 25.6384C99.5277 26.8808 100.079 28.1167 100.959 29.0148C100.959 29.0431 100.976 29.0631 101.003 29.073C101.159 29.2128 101.313 29.3558 101.469 29.4905C101.498 29.519 101.529 29.5446 101.563 29.567C101.719 29.6901 101.888 29.8032 102.051 29.9197C102.082 29.9418 102.115 29.9618 102.149 29.9795C102.366 30.101 102.568 30.244 102.799 30.3255C102.816 30.3371 102.843 30.3571 102.858 30.3637C103.601 30.7064 104.403 30.9392 105.224 31.0141C105.314 31.0141 105.404 31.0224 105.494 31.0407C105.886 31.064 106.278 31.0523 106.669 31.044C107.878 30.9442 109.126 30.6615 110.136 29.9762L110.148 29.9928C110.177 29.9672 110.207 29.9428 110.238 29.9197C110.437 29.7775 110.632 29.6283 110.821 29.4722C110.993 29.2926 111.193 29.1263 111.338 28.92L111.361 28.93L111.404 28.8552C111.538 28.6822 111.658 28.5025 111.776 28.3212C111.784 28.3096 111.803 28.2913 111.809 28.2797L111.796 28.2647L111.846 28.2048C112.063 27.784 112.253 27.3432 112.319 26.8759C112.348 26.8659 112.362 26.8426 112.362 26.816C112.366 26.6663 112.421 26.5232 112.406 26.3719C112.439 26.1889 112.444 25.9993 112.437 25.8114Z" fill="white" stroke="white" stroke-width="0.375236"/>
<path d="M33.9888 27.4173C34.5554 27.3341 35.2087 27.2842 35.6887 27.6235C35.9887 27.8397 36.0971 28.2306 36.0754 28.5799C36.0971 29.1554 35.8187 29.7725 35.2837 30.0718C34.8121 30.318 34.2454 30.338 33.7221 30.2881C33.3688 30.2465 33.0154 30.0602 32.8338 29.7525C32.4271 28.8577 32.9304 27.5919 33.9888 27.4173ZM17.0224 28.0659C17.0422 27.9074 17.119 27.7615 17.2386 27.6553C17.3582 27.5492 17.5123 27.49 17.6724 27.4888C20.1457 27.4888 22.6056 27.5004 25.0672 27.4888C25.3339 27.4688 25.6222 27.5819 25.7506 27.8081C25.9339 28.1175 25.7722 28.4568 25.7506 28.7745C25.6756 29.2069 25.6972 29.7824 25.1739 29.9471C23.3756 29.9987 21.579 29.9471 19.7807 29.9687C19.6107 31.0582 19.449 32.1393 19.279 33.2188C19.279 33.2604 19.289 33.3518 19.289 33.3934C20.6057 33.3834 21.9223 33.3934 23.2373 33.3834C23.6006 33.3618 23.9873 33.6612 23.9539 34.0321C23.9206 34.4113 23.8373 34.7806 23.7823 35.1631C23.7576 35.2964 23.6937 35.4194 23.5987 35.5162C23.5037 35.6131 23.3819 35.6795 23.2489 35.707C21.7823 35.7386 20.294 35.6771 18.829 35.7386C18.594 37.2921 18.3157 38.844 18.069 40.3975C18.0539 40.5517 17.9841 40.6956 17.8724 40.8031C17.7606 40.9107 17.614 40.9751 17.459 40.9846C16.849 40.9946 16.2391 40.9946 15.6307 40.9846C15.2341 40.9946 14.9141 40.5721 15.0207 40.2129C15.6724 36.1611 16.3474 32.1177 17.0207 28.0659H17.0224ZM27.8905 27.5104C28.4472 27.4688 29.0138 27.5004 29.5705 27.4888C29.9122 27.4688 30.2538 27.7266 30.2872 28.0659C30.2872 28.3321 30.2122 28.5998 30.1805 28.8676C29.7305 31.6237 29.2705 34.3814 28.8222 37.1375C28.7572 37.5799 28.6389 38.0523 28.7788 38.5063C28.9388 38.9587 29.6555 38.7625 29.8288 39.2365C29.9338 39.6157 29.8172 40.0183 29.7838 40.4091C29.7522 40.9231 29.1422 41.0362 28.7255 41.1493C27.8155 41.3139 26.7139 41.1909 26.0606 40.4707C25.5906 39.9451 25.5589 39.2049 25.6556 38.5463C26.2222 35.05 26.7889 31.5522 27.3672 28.0443C27.3863 27.9114 27.4473 27.788 27.5414 27.692C27.6355 27.596 27.7578 27.5324 27.8905 27.5104ZM49.1269 28.0659C49.1478 27.9091 49.2241 27.7649 49.342 27.6591C49.4599 27.5533 49.6117 27.4929 49.7702 27.4888H51.3951C51.8018 27.4788 52.1335 27.9013 52.0385 28.2705C51.6635 30.5542 51.2785 32.8379 50.9052 35.1216C51.4718 35.0384 52.1135 34.9369 52.5085 34.4945C53.1718 33.7743 53.7184 32.941 54.1251 32.0661C54.2634 31.7268 54.3384 31.2345 54.7984 31.1713C55.4084 31.1513 56.0284 31.1613 56.6384 31.1713C57.0551 31.1613 57.365 31.6137 57.2267 31.9846C57.0667 32.5302 56.7984 33.0325 56.5201 33.5165C55.9001 34.4845 55.2151 35.4409 54.3168 36.201C54.7134 37.3437 55.2167 38.4548 55.6534 39.5758C55.7817 39.9451 56.0934 40.3775 55.8034 40.7368C55.4717 41.1692 54.8518 40.953 54.3918 41.0046C53.9101 40.9547 53.2151 41.1892 52.9468 40.6653C52.4435 39.5442 52.0268 38.3916 51.5135 37.2722C51.2102 37.2888 50.9062 37.2849 50.6035 37.2605L50.5202 37.4269C50.3585 38.4548 50.1868 39.4827 50.0152 40.5106C49.9861 40.6378 49.918 40.7529 49.8203 40.8396C49.7226 40.9264 49.6002 40.9806 49.4702 40.9946C48.9035 41.0146 48.3252 41.0046 47.7469 41.0046C47.6273 41.0017 47.5108 40.9668 47.4094 40.9036C47.3079 40.8404 47.2253 40.7512 47.1702 40.6453C47.0636 40.4391 47.1269 40.2029 47.1586 39.9767C47.8219 36.0064 48.4752 32.0362 49.1269 28.0659ZM78.8597 29.187C78.9015 29.0455 78.9895 28.922 79.1097 28.8362C79.2299 28.7503 79.3753 28.7069 79.523 28.7129C79.9513 28.7246 80.3897 28.703 80.828 28.7246C81.1813 28.7346 81.4596 29.0739 81.4163 29.4032C81.353 29.9887 81.203 30.5758 81.1597 31.1613C81.5763 31.1613 82.0046 31.1513 82.4213 31.1613C82.7963 31.1613 83.1063 31.5322 83.043 31.8815C82.9896 32.2008 82.9146 32.5085 82.8596 32.8279C82.8299 32.9605 82.7612 33.0812 82.6624 33.1745C82.5635 33.2678 82.4389 33.3296 82.3046 33.3518C81.7913 33.3834 81.288 33.3319 80.7847 33.3834C80.5713 34.7606 80.3347 36.1395 80.1113 37.5183C80.078 37.836 80.058 38.197 80.2497 38.4747C80.5397 38.814 81.0413 38.691 81.4497 38.7325C81.7696 38.824 81.973 39.165 81.9196 39.4727C81.8663 39.822 81.8546 40.1713 81.7696 40.5106C81.6413 40.8931 81.1813 40.963 80.828 41.0561C79.8547 41.304 78.7314 41.304 77.8647 40.7568C77.0614 40.2328 76.9331 39.2149 77.0197 38.3516C77.2447 36.685 77.5964 35.0284 77.7897 33.3518C77.4897 33.3618 77.1264 33.4034 76.9014 33.1472C76.6447 32.8894 76.7731 32.5085 76.8164 32.1892C76.8797 31.8499 76.8697 31.4075 77.2547 31.2245C77.5647 31.1097 77.918 31.1912 78.2497 31.1513C78.453 30.4927 78.6447 29.834 78.8597 29.187ZM72.8131 32.5185C73.4864 31.8698 74.2998 31.3376 75.2298 31.0698C75.6381 30.8935 76.1631 31.2228 76.1514 31.6553C76.0764 32.2208 75.9364 32.7763 75.8414 33.3319C75.8161 33.4726 75.7463 33.6014 75.6422 33.6996C75.5381 33.7978 75.4053 33.8601 75.2631 33.8774C74.2131 34.0521 73.3048 34.6592 72.5781 35.3794C72.3948 35.5956 72.1281 35.8002 72.0948 36.0979C71.8689 37.5391 71.6378 38.9795 71.4015 40.4191C71.3681 40.7268 71.0898 41.0262 70.7582 41.0046H69.1332C69.0425 41.0059 68.9526 40.9885 68.8691 40.9534C68.7855 40.9183 68.7102 40.8663 68.6479 40.8006C68.5855 40.7349 68.5375 40.6571 68.5069 40.5719C68.4762 40.4868 68.4636 40.3962 68.4699 40.306C68.9399 37.4568 69.4115 34.6176 69.8698 31.7684C69.8915 31.4806 70.1065 31.2029 70.4165 31.1713C70.8115 31.1513 71.2082 31.1613 71.6148 31.1613C71.9348 31.1613 72.2348 31.4391 72.2348 31.7584C72.2348 32.2008 72.1931 32.6533 72.1815 33.1057C72.4381 32.951 72.5981 32.7048 72.8131 32.5185ZM32.8204 31.2129C33.3988 31.0998 33.9988 31.1929 34.5754 31.163C34.9087 31.1197 35.2604 31.326 35.3137 31.6453C35.3571 31.9331 35.2704 32.2108 35.2387 32.4886C34.8004 35.1332 34.3621 37.7745 33.9338 40.4191C33.9004 40.7185 33.6454 41.0146 33.3138 41.0046C32.7355 41.0046 32.1571 41.0146 31.5688 40.9946C31.2055 40.953 30.9388 40.5522 31.0355 40.2129C31.4955 37.4668 31.9338 34.7307 32.3938 31.9846C32.4155 31.6852 32.5005 31.3359 32.8204 31.2129ZM67.4415 31.3459C65.8482 31.0582 64.2216 30.8536 62.6066 31.0066C61.1617 31.1829 59.7067 31.81 58.8184 32.9526C57.5884 34.4529 57.1717 36.4688 57.45 38.3417C57.6 39.2365 58.0067 40.1413 58.7667 40.6969C59.4717 41.2208 60.4233 41.2923 61.28 41.1593C62.4783 40.9331 63.4949 40.1929 64.3299 39.3696C64.3716 39.7189 64.2866 40.0682 64.3066 40.4091C64.3283 40.7268 64.6283 41.0245 64.9599 41.0046H66.0516C66.3716 41.0046 66.6399 40.7168 66.6616 40.4191C67.1216 37.6314 67.5815 34.8538 68.0315 32.0778C68.0949 31.7285 67.8065 31.3875 67.4415 31.3459ZM64.4366 36.191C63.9899 36.9708 63.4146 37.6697 62.735 38.2585C62.35 38.5679 61.8583 38.8856 61.3333 38.7841C60.82 38.681 60.5733 38.167 60.4567 37.7246C60.3278 37.1427 60.3191 36.5406 60.4312 35.9553C60.5432 35.3699 60.7736 34.8134 61.1083 34.3199C61.4083 33.8558 61.89 33.5065 62.4466 33.3635C63.2266 33.1772 64.0499 33.2703 64.8099 33.4766L64.8533 33.5165C64.7566 34.4113 64.5749 35.2962 64.4366 36.191ZM46.4419 34.6509C46.4319 33.6213 46.1419 32.5418 45.3936 31.7701C44.8803 31.2245 44.1103 30.9467 43.3603 30.9567C42.1203 30.9168 40.9536 31.5023 40.0437 32.284C39.842 32.4387 39.702 32.6649 39.477 32.788C39.477 32.4487 39.5103 32.1094 39.4987 31.7601C39.5103 31.4407 39.1987 31.163 38.8787 31.163H37.787C37.6238 31.167 37.4678 31.2313 37.3493 31.3434C37.2308 31.4556 37.1581 31.6076 37.1454 31.7701C36.4704 35.885 35.7871 39.9983 35.1121 44.1116C35.0154 44.4941 35.3587 44.885 35.7654 44.8734C36.3654 44.8634 36.9737 44.9149 37.562 44.8334C38.0337 44.7087 38.022 44.1848 38.097 43.8039C38.2613 42.9007 38.3936 41.992 38.4937 41.0794C40.6003 41.4703 43.0503 41.2025 44.6236 39.669C45.9069 38.3217 46.5069 36.4588 46.4419 34.6509ZM43.4469 35.6887C43.3819 36.6351 43.0303 37.5915 42.3453 38.2801C41.457 39.0935 40.1087 38.9804 39.017 38.7026C38.9918 38.6638 38.9706 38.6226 38.9537 38.5795C39.1237 37.6847 39.2103 36.7798 39.4237 35.895C40.0237 34.9469 40.7503 33.9922 41.7886 33.4666C42.1736 33.292 42.6986 33.3335 42.9769 33.6728C43.4469 34.2384 43.4903 35.0001 43.4469 35.6887Z" fill="#107BD4" stroke="#107BD4" stroke-width="0.403179"/>
</g>
<defs>
<linearGradient id="paint0_linear_271_2853" x1="106.034" y1="24.4966" x2="106.034" y2="46.6082" gradientUnits="userSpaceOnUse">
<stop stop-color="#F7E830"/>
<stop offset="1" stop-color="#FDCB06"/>
</linearGradient>
<radialGradient id="paint1_radial_271_2853" cx="0" cy="0" r="1" gradientUnits="userSpaceOnUse" gradientTransform="translate(105.914 34.5823) scale(18.7075 17.9855)">
<stop offset="0.596" stop-color="#F29405"/>
<stop offset="0.736" stop-color="#F7D01E"/>
<stop offset="1" stop-color="#FDCB06"/>
</radialGradient>
<linearGradient id="paint2_linear_271_2853" x1="112.436" y1="25.2945" x2="112.441" y2="26.3407" gradientUnits="userSpaceOnUse">
<stop stop-color="#FADA1C"/>
<stop offset="1" stop-color="#FDCB06"/>
</linearGradient>
<linearGradient id="paint3_linear_271_2853" x1="99.6243" y1="25.2453" x2="99.6177" y2="26.2915" gradientUnits="userSpaceOnUse">
<stop stop-color="#FADA1C"/>
<stop offset="1" stop-color="#FDCB06"/>
</linearGradient>
</defs>
</svg>
