<svg width="134" height="66" viewBox="0 0 134 66" fill="none" xmlns="http://www.w3.org/2000/svg">
<mask id="mask0_270_2634" style="mask-type:alpha" maskUnits="userSpaceOnUse" x="0" y="0" width="134" height="66">
<rect width="134" height="66" fill="#D9D9D9"/>
</mask>
<g mask="url(#mask0_270_2634)">
</g>
<g clip-path="url(#clip0_270_2634)">
<path d="M113.676 34.2975C114.92 34.2975 115.964 34.7587 116.625 35.7267H116.656V34.5285H118.254V43.0397H116.656V41.7184H116.625C116.026 42.732 114.95 43.2547 113.737 43.2547C111.248 43.2547 109.22 41.3803 109.22 38.9224C109.22 36.2031 111.172 34.2975 113.676 34.2975ZM88.2726 34.2975C90.6227 34.2975 92.8352 36.1415 92.8048 38.8456C92.7737 41.1638 90.7942 43.338 87.9895 43.2518C85.6112 43.1794 83.5898 41.1356 83.6173 38.7566C83.6478 36.19 85.6807 34.2975 88.2726 34.2975ZM101.147 34.2975C102.561 34.2975 103.713 35.2814 103.759 36.7866H102.162C102.085 36.1727 101.732 35.7578 101.071 35.7578C100.456 35.7578 100.072 36.1727 100.072 36.6635C100.072 37.3861 100.811 37.6011 101.655 37.8624C102.853 38.231 103.959 38.9528 103.959 40.5354C103.959 42.1789 102.76 43.2547 101.102 43.2547C99.5654 43.2547 98.0899 42.21 98.0899 40.2429H99.6884C99.7652 41.2732 100.287 41.7952 101.132 41.7952C101.87 41.7952 102.361 41.3188 102.361 40.6274C102.361 40.0438 101.916 39.6601 100.917 39.3372C98.8276 38.6762 98.4743 37.7698 98.4743 36.8018C98.4743 35.2959 99.7493 34.2975 101.147 34.2975ZM74.5892 31.6709C75.4718 31.6709 76.1871 32.3862 76.1871 33.2687V35.4349H76.2182C76.725 34.682 77.5394 34.2983 78.5994 34.2983C80.6273 34.2983 82.1484 35.5884 82.1484 37.924V43.0397H80.5505V38.4156C80.5505 36.5875 79.8439 35.7578 78.4307 35.7578C77.0319 35.7578 76.187 36.7714 76.187 38.4308V43.0397H74.5892L74.5892 31.6709ZM96.2155 31.6709V34.5285H97.6142V35.988H96.2147V43.0397C95.3329 43.0397 94.6169 42.3244 94.6169 41.4418V35.988H93.9574V34.5285H94.6169V31.6709H96.2147H96.2155ZM107.314 31.6709V34.5285H108.713V35.988H107.315V43.0397C106.432 43.0397 105.717 42.3244 105.717 41.4418V35.988H105.057V34.5285H105.717V31.6709H107.315H107.314ZM124 34.2983V35.9417C122.617 35.988 121.911 36.8322 121.911 38.2621V41.4418C121.911 42.3244 121.195 43.0397 120.313 43.0397V34.5285H121.803V35.2959H121.834C122.218 34.7283 122.879 34.3598 124 34.2983H124ZM88.1959 35.7578C86.3634 35.7578 84.8134 37.5352 85.3079 39.516C85.6438 40.859 86.8681 41.8321 88.2523 41.7944C89.8864 41.7488 91.2062 40.4435 91.2062 38.7537C91.2062 37.0936 89.8697 35.7578 88.1959 35.7578ZM113.722 35.7578C112.035 35.7578 110.674 37.2811 110.83 39.0809C110.959 40.5651 112.172 41.7647 113.661 41.7944C115.349 41.8285 116.687 40.4319 116.687 38.7993C116.687 37.1399 115.488 35.7578 113.722 35.7578Z" fill="#01147C"/>
<path d="M52.8844 37.4664C52.0446 37.6589 49.8343 37.7697 49.8343 37.7697L49.5543 38.6445C49.5543 38.6445 50.6566 38.5512 51.4614 38.6328C51.4614 38.6328 51.7238 38.6037 51.753 38.9302C51.7646 39.2335 51.7296 39.5601 51.7296 39.5601C51.7296 39.5601 51.7121 39.7584 51.4322 39.805C51.1289 39.8575 49.0528 39.9333 49.0528 39.9333L48.7145 41.0706C48.7145 41.0706 48.592 41.333 48.872 41.2572C49.1344 41.1872 51.3097 40.779 51.5955 40.8373C51.8988 40.9131 52.237 41.3155 52.1379 41.6888C52.0212 42.1437 49.8517 43.5317 48.5279 43.4325C48.5279 43.4325 47.8339 43.4792 47.2449 42.5402C46.6967 41.6479 47.4548 39.9508 47.4548 39.9508C47.4548 39.9508 47.1107 39.1577 47.3615 38.8953C47.3615 38.8953 47.5131 38.7611 47.9447 38.7261L48.4754 37.6239C48.4754 37.6239 47.8689 37.6647 47.5073 37.2215C47.1691 36.7958 47.1457 36.6033 47.4023 36.4867C47.6764 36.3525 50.2017 35.8918 51.9396 35.9501C51.9396 35.9501 52.5461 35.8918 53.0652 36.9416C53.0593 36.9416 53.3159 37.3673 52.8844 37.4664H52.8844ZM46.3467 41.7004C46.1251 42.2253 45.5361 42.7852 44.8071 42.4352C44.084 42.0853 42.9351 39.7351 42.9351 39.7351C42.9351 39.7351 42.4977 38.8603 42.416 38.8778C42.416 38.8778 42.3227 38.7086 42.2644 39.6651C42.2061 40.6215 42.2761 42.4819 41.897 42.7735C41.5354 43.0651 41.098 42.9485 40.8705 42.6044C40.6664 42.2661 40.579 41.4613 40.6898 40.05C40.8239 38.6386 41.1505 37.134 41.5704 36.6616C41.9903 36.1951 42.3285 36.5333 42.4568 36.6558C42.4568 36.6558 43.0167 37.1632 43.944 38.6561L44.1073 38.9302C44.1073 38.9302 44.9471 40.3416 45.0346 40.3357C45.0346 40.3357 45.1045 40.3999 45.1629 40.3532C45.2503 40.3299 45.2154 39.875 45.2154 39.875C45.2154 39.875 45.0404 38.3412 44.2764 35.7402C44.2764 35.7402 44.1598 35.4136 44.2414 35.1103C44.3172 34.8012 44.6263 34.947 44.6263 34.947C44.6263 34.947 45.816 35.5419 46.3876 37.4781C46.9533 39.4318 46.5684 41.1755 46.3467 41.7004H46.3467ZM40.5031 36.7258C40.404 36.9241 40.3457 37.2098 39.8441 37.2856C39.8441 37.2856 35.0444 37.6122 34.817 37.9505C34.817 37.9505 34.6479 38.1488 34.9103 38.2071C35.1727 38.2596 36.2575 38.4054 36.7824 38.4345C37.3422 38.4404 39.2318 38.4579 39.9083 39.3035C39.9083 39.3035 40.3107 39.7059 40.2932 40.6157C40.2757 41.5488 40.1124 41.8754 39.7508 42.2136C39.3717 42.5286 36.1175 43.9865 34.018 41.7471C34.018 41.7471 33.0499 40.6682 34.3504 39.8517C34.3504 39.8517 35.2894 39.286 37.6746 39.9508C37.6746 39.9508 38.3978 40.2133 38.3628 40.4757C38.322 40.7556 37.768 41.0531 36.9631 41.0356C36.1817 41.0123 35.6101 40.639 35.7209 40.6973C35.8259 40.7381 34.8811 40.2424 34.5895 40.5807C34.2979 40.8898 34.3679 41.0822 34.6537 41.2747C35.3827 41.6888 38.1995 41.543 39.0393 40.6098C39.0393 40.6098 39.3717 40.2308 38.8644 39.9217C38.357 39.6301 36.9048 39.4551 36.3391 39.426C35.7967 39.3968 33.7789 39.4318 33.4873 38.8953C33.4873 38.8953 33.1957 38.5337 33.5165 37.5073C33.8547 36.4342 36.205 36.0201 37.2198 35.9268C37.2198 35.9268 40.0133 35.8277 40.5265 36.3992C40.5207 36.3992 40.5906 36.5333 40.5032 36.7258H40.5031ZM32.5717 43.0184C32.2334 43.2692 31.5161 43.1584 31.312 42.8785C31.1079 42.6277 31.0379 41.6304 31.0787 40.0675C31.1195 38.487 31.1545 36.5275 31.4928 36.2184C31.8544 35.9035 32.076 36.1776 32.2159 36.3933C32.3676 36.6033 32.5484 36.8366 32.5892 37.3323C32.6242 37.828 32.7408 40.4291 32.7408 40.4291C32.7408 40.4291 32.8924 42.7735 32.5717 43.0184ZM33.3007 34.6321C32.3151 34.9587 31.6386 34.8479 31.067 34.6029C30.8163 35.0403 30.6705 35.1745 30.478 35.2036C30.1981 35.2328 29.9473 34.7837 29.9007 34.6379C29.854 34.5271 29.7199 34.3405 29.8832 33.8973C29.3233 33.3957 29.2825 32.7192 29.3758 32.2643C29.5157 31.7395 30.4605 29.7449 33.3357 29.5116C33.3357 29.5116 34.7412 29.4067 34.9803 30.159H35.0211C35.0211 30.159 36.3858 30.1648 36.3566 31.3779C36.3392 32.5967 34.8403 34.1131 33.3007 34.6321H33.3007ZM30.618 31.9319C30.3264 32.3985 30.3147 32.6784 30.4489 32.8709C30.7813 32.3635 31.3878 31.5645 32.2801 30.958C31.5919 31.0163 31.0146 31.3137 30.618 31.9319ZM34.5895 31.1504C33.6856 31.2846 32.2859 32.4976 31.6211 33.489C32.6417 33.6757 34.4437 33.6057 35.2427 31.9786C35.2369 31.9786 35.6218 30.9696 34.5895 31.1504ZM59.1304 40.5457C58.588 41.4905 57.0659 43.4617 55.0364 43.0009C54.3657 44.6281 53.8058 46.2668 53.4851 48.7279C53.4851 48.7279 53.4151 49.2061 53.0185 49.037C52.6278 48.897 51.9746 48.2439 51.8463 47.3399C51.7063 46.1502 52.237 44.1382 53.3159 41.8346C53.001 41.3213 52.7852 40.5865 52.9718 39.5426C52.9718 39.5426 53.2459 37.6064 55.188 35.8568C55.188 35.8568 55.4213 35.6527 55.5554 35.7168C55.707 35.781 55.637 36.4108 55.5146 36.7141C55.3921 37.0174 54.5231 38.522 54.5231 38.522C54.5231 38.522 53.9808 39.5368 54.1324 40.3357C55.153 38.767 57.4741 35.6002 58.9146 36.5975C59.3986 36.9416 59.6203 37.6939 59.6203 38.5045C59.6144 39.2218 59.4453 39.98 59.1304 40.5457ZM58.7105 38.0613C58.7105 38.0613 58.6288 37.4373 58.0223 38.1254C57.4974 38.7028 56.5527 39.7934 55.7887 41.2689C56.5877 41.1814 57.3575 40.744 57.5907 40.5224C57.9698 40.1841 58.8504 39.2743 58.7105 38.0613ZM30.3964 38.8544C30.2856 40.2658 29.7432 42.6394 25.8999 43.8116C23.363 44.5756 20.9661 44.2082 19.6597 43.8757C19.6306 44.3948 19.5723 44.6164 19.4906 44.7039C19.3798 44.8147 18.5517 45.2929 18.0968 44.6164C17.8927 44.2956 17.7877 43.7124 17.7294 43.1934C14.7901 41.8404 13.4371 39.8925 13.3846 39.805C13.3204 39.7409 12.6497 39.0411 13.3204 38.1838C13.9503 37.4081 16.009 36.6325 17.8635 36.3175C17.9277 34.7312 18.1143 33.5357 18.3359 32.9875C18.6042 32.3518 18.9424 32.9233 19.234 33.3549C19.479 33.6757 19.6248 35.0578 19.6364 36.1601C20.8495 36.1018 21.5668 36.1892 22.9198 36.4342C24.6811 36.7549 25.8591 37.6531 25.7541 38.6736C25.6783 39.6767 24.7569 40.0908 24.4069 40.12C24.0395 40.1491 23.468 39.8867 23.468 39.8867C23.0773 39.7001 23.4388 39.5368 23.9112 39.3327C24.4244 39.0819 24.3078 38.8253 24.3078 38.8253C24.1154 38.2654 21.8292 37.8747 19.5548 37.8747C19.5431 39.1285 19.6073 41.2105 19.6364 42.4236C21.2285 42.7268 22.4183 42.6685 22.4183 42.6685C22.4183 42.6685 28.2269 42.5052 28.4018 38.7961C28.5826 35.0812 22.6107 31.5178 18.1959 30.3864C13.787 29.2317 11.2909 30.0365 11.0751 30.1473C10.8418 30.264 11.0576 30.299 11.0576 30.299C11.0576 30.299 11.2967 30.334 11.7108 30.4739C12.1482 30.6139 11.8099 30.8413 11.8099 30.8413C11.0576 31.0804 10.212 30.9288 10.0487 30.5847C9.88541 30.2406 10.1595 29.9316 10.4744 29.4883C10.7894 29.0218 11.1334 29.0393 11.1334 29.0393C16.5863 27.1497 23.2289 30.5672 23.2289 30.5672C29.4516 33.7223 30.513 37.4198 30.3964 38.8544ZM13.9386 38.662C13.3204 38.9652 13.7462 39.4026 13.7462 39.4026C14.9067 40.6507 16.3355 41.4322 17.6944 41.9162C17.8518 39.7642 17.8285 39.0061 17.846 37.9213C15.7232 38.0671 14.4985 38.4054 13.9386 38.662Z" fill="#01147C"/>
<path d="M70.6776 38.2189V38.9888C70.6776 39.1579 70.5435 39.292 70.3744 39.292H66.7061C66.7061 39.4845 66.7119 39.6536 66.7119 39.8111C66.7119 40.9483 66.6653 41.8756 66.5544 42.9195C66.5369 43.077 66.4086 43.1936 66.257 43.1936H65.4639C65.3822 43.1936 65.3064 43.1586 65.2539 43.1003C65.2014 43.042 65.1723 42.9603 65.1839 42.8787C65.2947 41.8406 65.3472 40.925 65.3472 39.8111C65.3472 39.6478 65.3472 39.4786 65.3414 39.292H61.7139C61.5448 39.292 61.4107 39.1579 61.4107 38.9888V38.2189C61.4107 38.0498 61.5448 37.9157 61.7139 37.9157H65.2889C65.2131 36.6618 65.0615 35.4546 64.8165 34.2299C64.8049 34.1541 64.8224 34.0783 64.869 34.0199C64.9157 33.9616 64.9856 33.9266 65.0615 33.9266H65.9188C66.0529 33.9266 66.1637 34.0199 66.1929 34.1541C66.432 35.4196 66.5836 36.6502 66.6594 37.9157H70.3744C70.5377 37.9157 70.6776 38.0557 70.6776 38.2189Z" fill="#01147C"/>
<path d="M65.6855 32.1105C63.7901 27.4508 60.5884 23.4792 56.4244 20.6216C52.1612 17.6998 47.1632 16.1543 41.9728 16.1543C33.3882 16.1543 25.4217 20.4174 20.6687 27.5616C20.6162 27.6374 20.6045 27.7365 20.6337 27.824C20.6629 27.9173 20.7329 27.9815 20.8203 28.0106L21.4852 28.2381C21.526 28.2498 21.5668 28.2556 21.6018 28.2556C21.7243 28.2556 21.8409 28.1914 21.9109 28.0923C24.0921 24.8847 27.043 22.2195 30.4489 20.3766C33.9655 18.4754 37.9488 17.4665 41.967 17.4665C46.825 17.4665 51.508 18.9011 55.5204 21.6072C59.4337 24.249 62.4721 27.9407 64.3092 32.2738C64.3617 32.4021 64.49 32.4896 64.6299 32.4896H65.4231C65.5164 32.4896 65.6039 32.4429 65.6505 32.3671C65.7088 32.2913 65.7205 32.198 65.6855 32.1105H65.6855ZM21.6018 28.0573C21.5843 28.0573 21.5668 28.0515 21.5493 28.0456C21.5668 28.0515 21.5843 28.0573 21.6018 28.0573H21.6135C21.6135 28.0573 21.6077 28.0573 21.6018 28.0573ZM64.4666 32.3846C64.4841 32.3963 64.5016 32.4079 64.5191 32.4138C64.5016 32.4021 64.4841 32.3963 64.4666 32.3846Z" fill="url(#paint0_radial_270_2634)"/>
</g>
<defs>
<radialGradient id="paint0_radial_270_2634" cx="0" cy="0" r="1" gradientUnits="userSpaceOnUse" gradientTransform="translate(64.9404 32.4602) scale(44.33 44.33)">
<stop offset="0.007" stop-color="#021192"/>
<stop offset="0.03" stop-color="#021096"/>
<stop offset="0.057" stop-color="#010CB4"/>
<stop offset="0.084" stop-color="#0008CE"/>
<stop offset="0.111" stop-color="#0006D7"/>
<stop offset="0.138" stop-color="#0004E1"/>
<stop offset="0.165" stop-color="#0001FA"/>
<stop offset="0.191" stop-color="#0000FE"/>
<stop offset="0.216" stop-color="#0F1EFF"/>
<stop offset="1" stop-color="#00FFFF" stop-opacity="0"/>
</radialGradient>
<clipPath id="clip0_270_2634">
<rect width="114" height="32.9167" fill="white" transform="translate(10 16.155)"/>
</clipPath>
</defs>
</svg>
