<svg width="114" height="34" viewBox="0 0 114 34" fill="none" xmlns="http://www.w3.org/2000/svg">
<g clip-path="url(#clip0_8184_4322)">
<path d="M103.676 18.2985C104.92 18.2985 105.965 18.7597 106.626 19.7277H106.656V18.5295H108.254V27.0407H106.656V25.7194H106.626C106.026 26.733 104.95 27.2557 103.737 27.2557C101.249 27.2557 99.2206 25.3813 99.2206 22.9233C99.2206 20.204 101.172 18.2985 103.676 18.2985ZM78.2728 18.2985C80.6228 18.2985 82.8353 20.1425 82.8049 22.8466C82.7738 25.1648 80.7944 27.3389 77.9897 27.2528C75.6114 27.1804 73.59 25.1366 73.6175 22.7575C73.6479 20.191 75.6809 18.2985 78.2728 18.2985ZM91.1474 18.2985C92.5614 18.2985 93.7133 19.2824 93.7596 20.7876H92.1618C92.085 20.1736 91.7317 19.7588 91.0707 19.7588C90.456 19.7588 90.0723 20.1736 90.0723 20.6645C90.0723 21.387 90.8108 21.6021 91.655 21.8634C92.8532 22.2319 93.9594 22.9537 93.9594 24.5364C93.9594 26.1798 92.7605 27.2557 91.1018 27.2557C89.5655 27.2557 88.09 26.211 88.09 24.2439H89.6886C89.7654 25.2741 90.2874 25.7961 91.1322 25.7961C91.87 25.7961 92.3616 25.3197 92.3616 24.6283C92.3616 24.0448 91.9163 23.6611 90.9172 23.3382C88.8278 22.6772 88.4745 21.7708 88.4745 20.8028C88.4745 19.2969 89.7494 18.2985 91.1474 18.2985ZM64.5894 15.6719C65.4719 15.6719 66.1872 16.3872 66.1872 17.2697V19.4359H66.2183C66.7251 18.6829 67.5396 18.2992 68.5995 18.2992C70.6274 18.2992 72.1485 19.5894 72.1485 21.925V27.0407H70.5507V22.4165C70.5507 20.5885 69.8441 19.7588 68.4308 19.7588C67.0321 19.7588 66.1872 20.7724 66.1872 22.4318V27.0407H64.5894L64.5894 15.6719ZM86.2156 15.6719V18.5295H87.6144V19.989H86.2149V27.0407C85.3331 27.0407 84.6171 26.3254 84.6171 25.4428V19.989H83.9575V18.5295H84.6171V15.6719H86.2149H86.2156ZM97.3144 15.6719V18.5295H98.7131V19.989H97.3151V27.0407C96.4326 27.0407 95.7173 26.3254 95.7173 25.4428V19.989H95.057V18.5295H95.7173V15.6719H97.3151H97.3144ZM114 18.2992V19.9427C112.617 19.989 111.911 20.8332 111.911 22.2631V25.4428C111.911 26.3254 111.195 27.0407 110.313 27.0407V18.5295H111.804V19.2969H111.834C112.218 18.7293 112.879 18.3608 114 18.2992H114ZM78.196 19.7588C76.3636 19.7588 74.8135 21.5362 75.308 23.517C75.644 24.86 76.8682 25.8331 78.2525 25.7954C79.8865 25.7498 81.2064 24.4444 81.2064 22.7547C81.2064 21.0945 79.8699 19.7588 78.196 19.7588ZM103.722 19.7588C102.035 19.7588 100.674 21.2821 100.83 23.0819C100.96 24.5661 102.172 25.7657 103.661 25.7954C105.349 25.8294 106.687 24.4329 106.687 22.8003C106.687 21.1409 105.488 19.7588 103.722 19.7588Z" fill="#01147C"/>
<path d="M42.8844 21.4655C42.0446 21.6579 39.8343 21.7687 39.8343 21.7687L39.5543 22.6435C39.5543 22.6435 40.6566 22.5502 41.4614 22.6318C41.4614 22.6318 41.7238 22.6027 41.753 22.9293C41.7646 23.2325 41.7296 23.5591 41.7296 23.5591C41.7296 23.5591 41.7121 23.7574 41.4322 23.8041C41.1289 23.8565 39.0528 23.9324 39.0528 23.9324L38.7145 25.0696C38.7145 25.0696 38.592 25.332 38.872 25.2562C39.1344 25.1862 41.3097 24.778 41.5955 24.8363C41.8988 24.9121 42.237 25.3145 42.1379 25.6878C42.0212 26.1427 39.8517 27.5307 38.5279 27.4315C38.5279 27.4315 37.8339 27.4782 37.2449 26.5392C36.6967 25.647 37.4548 23.9499 37.4548 23.9499C37.4548 23.9499 37.1107 23.1567 37.3615 22.8943C37.3615 22.8943 37.5131 22.7601 37.9447 22.7252L38.4754 21.6229C38.4754 21.6229 37.8689 21.6637 37.5073 21.2205C37.1691 20.7948 37.1457 20.6023 37.4023 20.4857C37.6764 20.3515 40.2017 19.8908 41.9396 19.9491C41.9396 19.9491 42.5461 19.8908 43.0652 20.9406C43.0593 20.9406 43.3159 21.3663 42.8844 21.4655H42.8844ZM36.3467 25.6994C36.1251 26.2243 35.5361 26.7842 34.8071 26.4343C34.084 26.0844 32.9351 23.7341 32.9351 23.7341C32.9351 23.7341 32.4977 22.8593 32.416 22.8768C32.416 22.8768 32.3227 22.7077 32.2644 23.6641C32.2061 24.6205 32.2761 26.4809 31.897 26.7725C31.5354 27.0641 31.098 26.9475 30.8705 26.6034C30.6664 26.2651 30.579 25.4603 30.6898 24.049C30.8239 22.6377 31.1505 21.133 31.5704 20.6606C31.9903 20.1941 32.3285 20.5323 32.4568 20.6548C32.4568 20.6548 33.0167 21.1622 33.944 22.6552L34.1073 22.9293C34.1073 22.9293 34.9471 24.3406 35.0346 24.3348C35.0346 24.3348 35.1045 24.3989 35.1629 24.3523C35.2503 24.329 35.2154 23.874 35.2154 23.874C35.2154 23.874 35.0404 22.3402 34.2764 19.7392C34.2764 19.7392 34.1598 19.4126 34.2414 19.1093C34.3172 18.8002 34.6263 18.946 34.6263 18.946C34.6263 18.946 35.816 19.5409 36.3876 21.4771C36.9533 23.4308 36.5684 25.1746 36.3467 25.6994H36.3467ZM30.5031 20.7248C30.404 20.9231 30.3457 21.2088 29.8441 21.2847C29.8441 21.2847 25.0444 21.6113 24.817 21.9495C24.817 21.9495 24.6479 22.1478 24.9103 22.2061C25.1727 22.2586 26.2575 22.4044 26.7824 22.4336C27.3422 22.4394 29.2318 22.4569 29.9083 23.3025C29.9083 23.3025 30.3107 23.7049 30.2932 24.6147C30.2757 25.5478 30.1124 25.8744 29.7508 26.2127C29.3717 26.5276 26.1175 27.9856 24.018 25.7461C24.018 25.7461 23.0499 24.6672 24.3504 23.8507C24.3504 23.8507 25.2894 23.285 27.6746 23.9499C27.6746 23.9499 28.3978 24.2123 28.3628 24.4747C28.322 24.7547 27.768 25.0521 26.9631 25.0346C26.1817 25.0113 25.6101 24.638 25.7209 24.6963C25.8259 24.7372 24.8811 24.2415 24.5895 24.5797C24.2979 24.8888 24.3679 25.0813 24.6537 25.2737C25.3827 25.6878 28.1995 25.542 29.0393 24.6089C29.0393 24.6089 29.3717 24.2298 28.8644 23.9207C28.357 23.6291 26.9048 23.4541 26.3391 23.425C25.7967 23.3958 23.7789 23.4308 23.4873 22.8943C23.4873 22.8943 23.1957 22.5327 23.5165 21.5063C23.8547 20.4332 26.205 20.0191 27.2198 19.9258C27.2198 19.9258 30.0133 19.8267 30.5265 20.3982C30.5207 20.3982 30.5906 20.5323 30.5032 20.7248H30.5031ZM22.5717 27.0175C22.2334 27.2682 21.5161 27.1574 21.312 26.8775C21.1079 26.6267 21.0379 25.6295 21.0787 24.0665C21.1195 22.486 21.1545 20.5265 21.4928 20.2174C21.8544 19.9025 22.076 20.1766 22.2159 20.3924C22.3676 20.6023 22.5484 20.8356 22.5892 21.3313C22.6242 21.827 22.7408 24.4281 22.7408 24.4281C22.7408 24.4281 22.8924 26.7725 22.5717 27.0175ZM23.3007 18.6311C22.3151 18.9577 21.6386 18.8469 21.067 18.602C20.8163 19.0394 20.6705 19.1735 20.478 19.2027C20.1981 19.2318 19.9473 18.7828 19.9007 18.637C19.854 18.5261 19.7199 18.3395 19.8832 17.8963C19.3233 17.3948 19.2825 16.7182 19.3758 16.2634C19.5157 15.7385 20.4605 13.744 23.3357 13.5107C23.3357 13.5107 24.7412 13.4057 24.9803 14.158H25.0211C25.0211 14.158 26.3858 14.1639 26.3566 15.3769C26.3392 16.5958 24.8403 18.1121 23.3007 18.6311H23.3007ZM20.618 15.9309C20.3264 16.3975 20.3147 16.6774 20.4489 16.8699C20.7813 16.3625 21.3878 15.5635 22.2801 14.957C21.5919 15.0153 21.0146 15.3127 20.618 15.9309ZM24.5895 15.1495C23.6856 15.2836 22.2859 16.4966 21.6211 17.4881C22.6417 17.6747 24.4437 17.6047 25.2427 15.9776C25.2369 15.9776 25.6218 14.9687 24.5895 15.1495ZM49.1304 24.5447C48.588 25.4895 47.0659 27.4607 45.0364 27C44.3657 28.6271 43.8058 30.2659 43.4851 32.7269C43.4851 32.7269 43.4151 33.2052 43.0185 33.036C42.6278 32.8961 41.9746 32.2429 41.8463 31.3389C41.7063 30.1492 42.237 28.1372 43.3159 25.8336C43.001 25.3204 42.7852 24.5855 42.9718 23.5416C42.9718 23.5416 43.2459 21.6054 45.188 19.8558C45.188 19.8558 45.4213 19.6517 45.5554 19.7159C45.707 19.78 45.637 20.4099 45.5146 20.7131C45.3921 21.0164 44.5231 22.521 44.5231 22.521C44.5231 22.521 43.9808 23.5358 44.1324 24.3348C45.153 22.766 47.4741 19.5992 48.9146 20.5965C49.3986 20.9406 49.6203 21.6929 49.6203 22.5035C49.6144 23.2209 49.4453 23.979 49.1304 24.5447ZM48.7105 22.0603C48.7105 22.0603 48.6288 21.4363 48.0223 22.1245C47.4974 22.7018 46.5527 23.7924 45.7887 25.2679C46.5877 25.1804 47.3575 24.743 47.5907 24.5214C47.9698 24.1831 48.8504 23.2734 48.7105 22.0603ZM20.3964 22.8535C20.2856 24.2648 19.7432 26.6384 15.8999 27.8106C13.363 28.5746 10.9661 28.2072 9.65975 27.8748C9.63058 28.3938 9.57227 28.6154 9.49062 28.7029C9.37981 28.8137 8.55168 29.2919 8.09678 28.6154C7.89266 28.2947 7.78769 27.7115 7.72937 27.1924C4.79007 25.8394 3.43706 23.8915 3.38457 23.8041C3.32042 23.7399 2.64974 23.0401 3.32042 22.1828C3.95027 21.4071 6.00895 20.6315 7.86351 20.3166C7.92766 18.7303 8.11428 17.5347 8.3359 16.9865C8.60416 16.3508 8.94242 16.9224 9.23402 17.3539C9.47896 17.6747 9.62475 19.0569 9.63642 20.1591C10.8495 20.1008 11.5668 20.1883 12.9198 20.4332C14.6811 20.754 15.8591 21.6521 15.7541 22.6727C15.6783 23.6758 14.7569 24.0898 14.4069 24.119C14.0395 24.1482 13.468 23.8857 13.468 23.8857C13.0773 23.6991 13.4388 23.5358 13.9112 23.3317C14.4244 23.0809 14.3078 22.8243 14.3078 22.8243C14.1154 22.2644 11.8292 21.8737 9.55478 21.8737C9.5431 23.1276 9.60726 25.2096 9.63642 26.4226C11.2285 26.7259 12.4183 26.6675 12.4183 26.6675C12.4183 26.6675 18.2269 26.5043 18.4018 22.7951C18.5826 19.0802 12.6107 15.5169 8.19593 14.3855C3.78698 13.2307 1.2909 14.0355 1.07512 14.1464C0.841841 14.263 1.05763 14.298 1.05763 14.298C1.05763 14.298 1.29674 14.333 1.7108 14.4729C2.1482 14.6129 1.80995 14.8404 1.80995 14.8404C1.05763 15.0795 0.211993 14.9278 0.048699 14.5838C-0.114595 14.2397 0.159502 13.9306 0.47443 13.4873C0.789355 13.0208 1.13344 13.0383 1.13344 13.0383C6.58631 11.1487 13.2289 14.5663 13.2289 14.5663C19.4516 17.7213 20.513 21.4188 20.3964 22.8535ZM3.93861 22.661C3.32042 22.9643 3.74616 23.4017 3.74616 23.4017C4.90671 24.6497 6.33554 25.4312 7.69438 25.9152C7.85185 23.7632 7.82851 23.0051 7.84601 21.9203C5.72318 22.0661 4.49848 22.4044 3.93861 22.661Z" fill="#01147C"/>
<path d="M60.6776 22.222V22.9918C60.6776 23.1609 60.5435 23.2951 60.3743 23.2951H56.7061C56.7061 23.4875 56.7119 23.6567 56.7119 23.8141C56.7119 24.9514 56.6652 25.8786 56.5544 26.9225C56.5369 27.08 56.4086 27.1967 56.257 27.1967H55.4639C55.3822 27.1967 55.3064 27.1617 55.2539 27.1033C55.2014 27.045 55.1723 26.9634 55.1839 26.8817C55.2947 25.8436 55.3472 24.928 55.3472 23.8141C55.3472 23.6508 55.3472 23.4817 55.3414 23.2951H51.7139C51.5448 23.2951 51.4106 23.1609 51.4106 22.9918V22.222C51.4106 22.0529 51.5448 21.9187 51.7139 21.9187H55.2889C55.2131 20.6649 55.0614 19.4577 54.8165 18.2329C54.8048 18.1571 54.8223 18.0813 54.869 18.023C54.9156 17.9647 54.9856 17.9297 55.0614 17.9297H55.9187C56.0529 17.9297 56.1637 18.023 56.1928 18.1571C56.432 19.4227 56.5836 20.6532 56.6594 21.9187H60.3743C60.5376 21.9187 60.6776 22.0587 60.6776 22.222Z" fill="#01147C"/>
<path d="M55.6856 16.1125C53.7902 11.4527 50.5885 7.48118 46.4245 4.62352C42.1613 1.70172 37.1633 0.15625 31.9729 0.15625C23.3883 0.15625 15.4218 4.4194 10.6688 11.5635C10.6163 11.6394 10.6046 11.7385 10.6338 11.826C10.663 11.9193 10.7329 11.9834 10.8204 12.0126L11.4853 12.24C11.5261 12.2517 11.5669 12.2575 11.6019 12.2575C11.7244 12.2575 11.841 12.1934 11.911 12.0942C14.0921 8.88668 17.0431 6.22148 20.449 4.37858C23.9656 2.47737 27.9488 1.46844 31.9671 1.46844C36.8251 1.46844 41.5081 2.9031 45.5205 5.60912C49.4337 8.251 52.4722 11.9426 54.3093 16.2758C54.3617 16.4041 54.49 16.4915 54.63 16.4915H55.4232C55.5165 16.4915 55.6039 16.4449 55.6506 16.3691C55.7089 16.2933 55.7206 16.1999 55.6856 16.1125H55.6856ZM11.6019 12.0593C11.5844 12.0593 11.5669 12.0534 11.5494 12.0476C11.5669 12.0534 11.5844 12.0593 11.6019 12.0593H11.6136C11.6136 12.0593 11.6077 12.0593 11.6019 12.0593ZM54.4667 16.3866C54.4842 16.3982 54.5017 16.4099 54.5192 16.4157C54.5017 16.4041 54.4842 16.3982 54.4667 16.3866Z" fill="url(#paint0_radial_8184_4322)"/>
</g>
<defs>
<radialGradient id="paint0_radial_8184_4322" cx="0" cy="0" r="1" gradientUnits="userSpaceOnUse" gradientTransform="translate(54.9405 16.4621) scale(44.33 44.33)">
<stop offset="0.007" stop-color="#021192"/>
<stop offset="0.03" stop-color="#021096"/>
<stop offset="0.057" stop-color="#010CB4"/>
<stop offset="0.084" stop-color="#0008CE"/>
<stop offset="0.111" stop-color="#0006D7"/>
<stop offset="0.138" stop-color="#0004E1"/>
<stop offset="0.165" stop-color="#0001FA"/>
<stop offset="0.191" stop-color="#0000FE"/>
<stop offset="0.216" stop-color="#0F1EFF"/>
<stop offset="1" stop-color="#00FFFF" stop-opacity="0"/>
</radialGradient>
<clipPath id="clip0_8184_4322">
<rect width="114" height="32.9167" fill="white" transform="translate(0 0.15625)"/>
</clipPath>
</defs>
</svg>
