<svg width="100" height="25" viewBox="0 0 100 25" fill="none" xmlns="http://www.w3.org/2000/svg">
<g clip-path="url(#clip0_279_2905)">
<path d="M99.15 24.2217C98.6451 24.3323 98.1312 24.3024 97.6203 24.3024C96.0367 24.3024 94.4532 24.3024 92.8667 24.3024C92.2392 24.3024 92.0301 24.0485 92.1167 23.427C92.1376 23.2866 92.1287 23.1431 92.1287 22.9997C92.1287 19.0887 92.1287 15.1807 92.1287 11.2696C92.1287 10.457 92.9145 10.0058 93.6674 10.3404C94.4592 10.693 95.245 11.1023 96.1622 10.9709C96.1383 11.0426 96.0995 11.1113 96.0218 11.1083C95.5467 11.1023 95.0687 11.2039 94.6115 10.9589C94.265 10.7737 93.8945 10.6243 93.521 10.4988C93.2372 10.4032 92.9115 10.2986 92.7203 10.684C92.3528 10.7797 92.299 11.0635 92.299 11.3802C92.299 12.7755 92.299 14.1738 92.299 15.5691C92.299 18.2043 92.299 20.8396 92.299 23.4748C92.299 23.7347 92.2721 24.0126 92.6515 24.0335C93.1445 24.0245 93.6345 24.0126 94.1275 24.0275C95.4003 24.0694 96.6761 24.0425 97.9519 24.0425C98.2208 24.0425 98.4897 24.0335 98.7287 23.8811C98.8333 23.8602 98.9379 23.8393 98.8213 23.7049C98.8213 18.5658 98.8213 13.4268 98.8213 8.28783C98.9199 8.16533 98.9289 8.05179 98.7974 7.94722L98.7825 7.70521C98.7198 7.26302 98.6242 6.83875 98.2088 6.57283C97.9878 6.39357 97.8682 6.1157 97.6143 5.96631C97.6023 5.79302 97.4649 5.74223 97.3424 5.67052C96.0726 4.93552 94.8356 5.09388 93.6375 5.83485C93.3985 5.98125 93.1356 6.16649 93.0818 6.49814C93.0758 6.52204 93.0698 6.54594 93.0639 6.56985C92.538 6.92539 92.4872 7.49308 92.4065 8.04582C92.4065 8.12649 92.4006 8.20716 92.3976 8.28783C92.2751 8.66728 92.4872 9.1035 92.8876 9.22898C93.1176 9.30069 93.3895 9.47398 93.5837 9.14831C93.7451 9.05569 93.8437 8.91825 93.8556 8.72704C93.9243 8.70612 93.9961 8.67325 93.9961 8.59258C94.002 8.18326 94.1783 7.81576 94.259 7.42436L94.3456 7.33771L94.5219 7.34369C94.256 7.91435 94.1962 8.54179 94.005 9.13338C93.6734 9.56661 93.2312 9.56362 92.78 9.41124C92.3259 9.25886 92.1227 8.89734 92.1347 8.32966C92.1556 7.25106 92.6306 6.36668 93.4284 5.68247C94.495 4.76522 96.2399 4.76522 97.447 5.47631C98.2148 5.92747 98.6361 6.56686 98.9588 7.33173C98.9648 7.34369 98.9887 7.40643 99.0395 7.47216C99.0484 7.48411 99.0544 7.49308 99.0604 7.49606C99.0902 13.0713 99.1231 18.6435 99.153 24.2188L99.15 24.2217Z" fill="#C4801C"/>
<path d="M49.8962 4.99271C51.1899 4.93893 52.2028 5.41698 52.9736 6.3671C53.4696 6.97661 53.374 7.14392 52.639 7.55027C52.5404 7.60405 52.4179 7.616 52.3193 7.67276C51.411 8.2016 51.423 7.94465 50.8075 7.37399C50.0097 6.636 48.5278 6.93478 48.0766 8.12392C47.9362 8.49441 48.1244 8.84697 48.3993 9.13081C48.9311 9.68355 49.5496 10.1048 50.2607 10.3827C51.0973 10.7114 51.9159 11.0968 52.6479 11.5928C53.6489 12.271 54.3361 13.2032 54.3988 14.5148C54.4795 16.1701 53.855 17.4697 52.5075 18.384C51.1869 19.2774 49.699 19.3969 48.22 18.9039C47.3386 18.6111 46.517 18.1211 45.9433 17.3233C45.782 17.0993 45.6595 16.8543 45.5938 16.6003C45.4802 16.1641 45.8985 16.0685 46.1495 15.8982C46.3676 15.7518 46.6455 15.686 46.8935 15.5815C47.246 15.4321 47.5 15.5874 47.7061 15.8533C48.5457 16.9409 49.448 17.2367 50.7746 16.8543C51.8562 16.5435 52.3103 14.8166 51.5395 13.9949C51.0166 13.4362 50.4041 13.0478 49.705 12.7192C48.8773 12.3307 48.0467 11.9214 47.2819 11.3956C46.0808 10.5679 45.9314 9.37282 46.0389 8.07014C46.1883 6.27746 48.0049 4.83735 49.8932 4.98674L49.8962 4.99271ZM46.8994 7.77136C46.768 7.78331 46.5947 7.71758 46.5588 7.92972C46.4483 8.57807 46.3198 9.22642 46.8098 9.79709C46.9293 9.93751 46.9592 10.1287 46.9801 10.317C47.0249 10.7173 47.1175 10.7711 47.4641 10.562C47.6434 10.4544 47.7749 10.3857 47.8346 10.6516C47.9691 11.2432 48.3425 11.4912 48.9401 11.5091C49.1373 11.5151 49.5406 11.4344 49.4062 11.9095C49.3942 11.9543 49.4958 12.0588 49.5645 12.0947C49.935 12.2859 50.2577 12.5727 50.7059 12.6086C50.8792 12.6235 51.0913 12.6743 51.1989 12.8357C51.4319 13.1852 51.7636 13.4392 52.0444 13.741C52.1848 13.8934 52.2416 14.0666 52.2954 14.2668C52.4627 14.9092 52.3253 15.5396 52.2685 16.173C52.2476 16.3941 52.2984 16.7168 52.0623 16.8393C51.647 17.0574 51.2795 17.3413 50.9001 17.6072C50.8822 17.6191 50.8403 17.6132 50.8164 17.6012C50.4041 17.407 49.9948 17.5534 49.5825 17.6012C49.3554 17.6281 49.1672 17.5922 48.9431 17.4847C48.6204 17.3323 48.3366 17.1351 48.0467 16.9409C47.8884 16.8363 47.6404 16.7407 47.5986 16.9947C47.5328 17.401 47.3267 17.3622 47.0548 17.2666C46.9442 17.2277 46.8337 17.1769 46.756 17.3144C46.6753 17.4608 46.756 17.5893 46.8725 17.6371C47.24 17.7954 47.5717 18.0733 48.0199 17.9866C48.3067 17.9299 48.6383 17.9687 48.8206 18.1749C49.1373 18.5364 49.5048 18.6768 49.9619 18.7037C50.1203 18.7127 50.2846 18.7844 50.3712 18.6021C50.4519 18.4348 50.3742 18.3093 50.2159 18.2137C50.0038 18.0852 50.0784 17.9747 50.2547 17.8761C50.4728 17.7506 50.6401 17.8432 50.7865 17.9956C51.2975 18.5394 51.7934 18.4169 52.0384 17.6879C52.1251 17.4309 52.2625 17.2247 52.6031 17.3502C52.8123 17.4279 52.9975 17.3592 53.12 17.162C53.4367 16.6481 53.849 16.1701 53.7504 15.4948C53.7385 15.4171 53.7564 15.3155 53.7982 15.2498C53.9954 14.9451 53.9357 14.6194 53.8759 14.2997C53.8102 13.9501 53.5532 13.6513 53.4576 13.3526C53.2963 12.8626 53.0184 12.761 52.627 12.755C52.3253 12.749 52.1669 12.6295 52.1281 12.3487C52.0862 12.0439 51.9219 11.9095 51.6201 11.8796C51.3781 11.8557 51.1929 11.7153 50.9987 11.5509C50.6372 11.2462 50.1352 11.1446 49.7946 10.7831C49.7468 10.7323 49.6034 10.7741 49.5018 10.7741C49.3793 10.7741 49.2538 10.7442 49.2329 10.6128C49.1522 10.1257 48.8534 10.1228 48.474 10.2333C48.2051 10.311 48.1603 10.1885 48.2858 9.97038C48.3814 9.80306 48.3575 9.64471 48.1991 9.56404C47.497 9.2055 47.6464 8.5691 47.7091 7.99246C47.742 7.69368 47.6613 7.30527 48.0438 7.126C48.3306 6.99155 48.5577 6.77344 48.8146 6.59716C49.5347 6.0982 50.0784 6.12807 50.7925 6.6599C51.0345 6.83917 51.2347 7.06325 51.4678 7.2485C51.7187 7.44868 51.9697 7.39191 52.1878 7.16484C52.2954 7.0513 52.4747 6.87801 52.2924 6.7824C51.8412 6.54935 51.7247 6.01753 51.2855 5.77551C50.912 5.56936 50.4908 5.64704 50.1053 5.47972C49.6392 5.27655 49.0895 5.54844 48.8056 5.98167C48.7041 6.13704 48.5845 6.25057 48.3455 6.17289C48.1663 6.11612 47.8406 6.06533 47.7838 6.21472C47.5926 6.71966 47.2131 7.07222 46.9084 7.48752C46.8606 7.55325 46.8994 7.68173 46.8994 7.78331V7.77136Z" fill="#CF7D32"/>
<path d="M12.2231 4.91027C13.3315 4.87442 14.3474 5.0029 15.3005 5.50186C15.5903 5.65424 15.674 5.87533 15.674 6.15618C15.6799 6.72685 15.674 7.29752 15.674 7.86819C15.674 8.05642 15.674 8.26557 15.5007 8.37014C15.3065 8.48368 15.1123 8.3313 15.0077 8.21179C14.5237 7.65606 13.8574 7.45588 13.2031 7.21685C12.4232 6.93002 11.6165 6.96887 10.8517 7.14216C9.94935 7.34832 9.14265 7.81142 8.51521 8.53746C8.15668 8.95276 7.9057 9.42185 7.70851 9.9238C6.83906 12.1437 7.33802 14.3218 8.89466 15.8695C9.85673 16.8256 11.0548 17.0318 12.3545 16.9272C13.0357 16.8734 13.6512 16.6344 14.2607 16.3685C14.5326 16.249 14.6701 15.9741 14.9061 15.8157C15.0764 15.6992 15.2527 15.514 15.4828 15.6424C15.6829 15.756 15.671 15.9771 15.671 16.1773C15.671 16.6613 15.6351 17.1513 15.6829 17.6323C15.7337 18.1522 15.5156 18.436 15.0525 18.5974C14.0307 18.9469 13.0029 19.2875 11.9093 19.2875C11.013 19.2875 10.1495 19.0993 9.28905 18.8155C8.24332 18.4719 7.37089 17.8922 6.66278 17.0975C5.73358 16.0577 4.95974 14.9134 4.77449 13.4613C4.72071 13.0401 4.62809 12.6277 4.62212 12.1975C4.58327 10.2345 5.27943 8.58228 6.63888 7.16905C7.16473 6.61929 7.70851 6.08747 8.37479 5.74985C9.08887 5.38832 9.84777 5.09253 10.6634 4.98497C11.2012 4.91625 11.742 4.89235 12.2231 4.91027ZM5.07327 12.1945C4.95376 13.4494 5.39595 14.7461 6.20565 15.9651C7.17369 17.4172 8.50625 18.3583 10.1734 18.7139C11.7868 19.0575 13.4092 18.8932 14.9479 18.2299C15.2109 18.1163 15.3363 17.9281 15.3274 17.6293C15.3154 17.2588 15.3334 16.8883 15.3513 16.5179C15.3573 16.3834 15.3632 16.243 15.2378 16.1773C15.1272 16.1205 15.0107 16.2131 14.933 16.2908C14.2458 16.972 13.3584 17.1871 12.4531 17.3126C11.6255 17.4291 10.768 17.3843 10.0181 17.0288C8.46442 16.2908 7.4904 15.0269 7.07808 13.3598C6.7793 12.1497 6.89583 10.9546 7.37089 9.8013C8.0282 8.20581 9.18149 7.13917 10.8726 6.77765C12.3545 6.46094 13.7588 6.74777 14.9868 7.69789C15.175 7.8413 15.3095 7.81441 15.3184 7.55149C15.3274 7.25271 15.3214 6.95094 15.3214 6.65216C15.3214 5.87533 15.2318 5.77375 14.4968 5.55265C13.4421 5.23594 12.3605 5.1732 11.2819 5.28674C10.3049 5.38832 9.32491 5.58552 8.48533 6.12332C6.35205 7.48277 4.98663 9.31428 5.07327 12.1945Z" fill="#002C4A"/>
<path d="M75.406 11.703C75.406 13.5883 75.406 15.4706 75.406 17.3559C75.406 17.5561 75.4179 17.7503 75.4598 17.9475C75.5703 18.4554 75.3014 18.7841 74.7815 18.799C74.3543 18.808 73.924 18.805 73.4968 18.799C73.0486 18.7901 72.8873 18.6198 72.8723 18.1686C72.8664 17.9834 72.8783 17.7981 72.8723 17.6129C72.8693 17.4904 72.9201 17.335 72.7558 17.2842C72.6273 17.2454 72.5526 17.3589 72.466 17.4276C72.0118 17.7922 71.5906 18.1865 71.0946 18.5062C70.4672 18.9066 69.8069 19.1665 69.0808 19.2203C67.5959 19.3339 66.1378 19.2054 64.868 18.3389C63.9866 17.7384 63.2457 16.9735 62.7288 16.0114C62.0983 14.8372 61.7637 13.5824 61.7547 12.2617C61.7458 10.8814 61.943 9.56078 62.5943 8.27603C63.1202 7.23628 63.8432 6.44152 64.7694 5.84695C66.3261 4.84903 68.0739 4.59506 69.8457 5.09403C70.7958 5.36293 71.6175 5.97841 72.3554 6.66262C72.472 6.77018 72.5855 6.90762 72.7618 6.82695C72.95 6.7403 72.8723 6.55207 72.8723 6.40567C72.8783 5.20159 72.9351 5.14183 74.1631 5.14482C74.3065 5.14482 74.4499 5.14482 74.5903 5.14482C75.2058 5.15976 75.403 5.35695 75.403 5.96646C75.403 7.87865 75.403 9.79084 75.403 11.706L75.406 11.703ZM75.0026 12.1841H75.0086C75.0086 10.3705 75.0116 8.55987 75.0086 6.74628C75.0086 5.60494 74.9518 5.56311 73.8314 5.6139C73.5984 5.62585 73.4789 5.6886 73.4221 5.93957C73.3504 6.25329 73.3713 6.56402 73.3564 6.87475C73.3474 7.09585 73.4161 7.35878 73.1442 7.47231C72.9052 7.57091 72.708 7.44243 72.5198 7.29902C71.9461 6.85981 71.3904 6.3967 70.757 6.03817C69.9533 5.58402 69.1436 5.2225 68.1815 5.27031C67.6915 5.29421 67.2403 5.44061 66.7713 5.52427C65.7763 5.70055 64.9397 6.18756 64.1868 6.80902C63.5295 7.34981 63.0993 8.07585 62.8274 8.88255C62.5316 9.75499 62.2298 10.6214 62.2149 11.5626C62.1969 12.6531 62.3254 13.6989 62.681 14.7476C63.0993 15.9786 63.7536 17.0064 64.8083 17.7444C66.0243 18.5959 67.3808 18.8857 68.8776 18.7781C70.0668 18.6945 70.9661 18.1477 71.8236 17.4247C72.0836 17.2036 72.3345 16.9705 72.5975 16.7524C72.7737 16.606 72.9889 16.5492 73.201 16.6299C73.431 16.7166 73.3474 16.9436 73.3593 17.1169C73.3832 17.3858 73.4191 17.6547 73.4012 17.9206C73.3803 18.2672 73.5715 18.3718 73.8553 18.3987C73.9957 18.4136 74.1392 18.4017 74.2826 18.4017C74.9518 18.4017 75.0026 18.3598 75.0056 17.6667C75.0086 15.8411 75.0056 14.0126 75.0056 12.1871L75.0026 12.1841Z" fill="#CF7D32"/>
<path d="M31.9156 11.9269C31.9156 9.88627 31.9156 7.8456 31.9156 5.80195C31.9156 5.25518 32.0501 5.12671 32.6028 5.12372C33.0032 5.12372 33.4035 5.11774 33.8009 5.12372C34.2909 5.1297 34.4493 5.30598 34.4792 5.79896C34.4941 6.04396 34.3417 6.41744 34.5658 6.50707C34.7809 6.59372 34.9363 6.22024 35.1305 6.06488C35.9999 5.37768 37.0009 5.01317 38.0884 4.86976C39.0027 4.74726 39.908 4.81598 40.7685 5.1536C42.3371 5.7661 43.1975 6.91341 43.3947 8.6045C43.5023 9.52773 43.5561 10.445 43.5531 11.3682C43.5471 13.5672 43.5531 15.7633 43.5531 17.9623C43.5531 18.6973 43.4366 18.8108 42.7225 18.8108C42.3221 18.8108 41.9218 18.8198 41.5244 18.8078C40.8611 18.7899 40.7236 18.6554 40.7744 18.0071C40.8521 16.9942 40.8103 15.9844 40.8252 14.9745C40.8432 13.6628 40.876 12.3452 40.8133 11.0366C40.7744 10.2239 40.8342 9.3873 40.5026 8.60151C40.1261 7.70816 39.2327 7.11658 38.2408 7.06878C37.0995 7.01499 36.1912 7.45121 35.5398 8.32365C34.9512 9.11243 34.6405 10.0566 34.5658 11.0545C34.3895 13.391 34.518 15.7304 34.4821 18.0669C34.4732 18.6764 34.3477 18.8048 33.7203 18.8078C33.3348 18.8078 32.9494 18.8108 32.564 18.8078C32.068 18.8048 31.9246 18.6674 31.9246 18.1744C31.9246 16.0889 31.9246 14.0064 31.9246 11.921L31.9156 11.9269ZM32.6715 5.38366L32.5192 5.40756C32.3369 5.39262 32.1636 5.39262 32.1995 5.65555C32.1965 5.69738 32.1875 5.73921 32.1875 5.78402C32.1875 9.78468 32.1875 13.7853 32.1875 17.783C32.1875 17.9802 32.1726 18.1834 32.2771 18.3656C32.307 18.4822 32.3817 18.521 32.4953 18.4971C32.815 18.5778 33.1287 18.4851 33.4484 18.4851C33.7322 18.6136 33.9981 18.6495 34.1834 18.3268C34.3656 18.2252 34.2969 18.0519 34.2969 17.9055C34.2999 15.8619 34.2999 13.8182 34.2969 11.7746C34.2969 11.6371 34.3447 11.4877 34.2282 11.3712L34.261 10.7886C34.3985 10.7258 34.4343 10.6362 34.3238 10.5167L34.3477 10.3613C34.4582 10.3225 34.4911 10.2508 34.4433 10.1432C34.6166 9.48291 34.8586 8.86444 35.256 8.28481C36.236 6.85365 37.5566 6.62061 39.0415 6.93731C39.5076 7.03591 39.905 7.3317 40.2396 7.71414C40.7535 8.29975 41.0135 8.96304 41.0374 9.72791C40.9836 9.82651 40.9657 9.91913 41.0702 9.9998C41.1419 11.3383 41.121 12.6799 41.124 14.0214C41.124 15.3629 41.121 16.7044 41.118 18.0459C41.118 18.2999 41.1091 18.5658 41.4975 18.4851L41.6708 18.4941C42.0114 18.6375 42.3699 18.521 42.7165 18.5658C43.1109 18.6166 43.2424 18.4254 43.2394 18.0429C43.2274 15.4794 43.2334 12.9129 43.2274 10.3494C43.2274 10.197 43.2633 10.0327 43.1557 9.89523L43.1497 9.75779C43.2334 9.58749 43.1916 9.41121 43.1647 9.23792C43.2155 9.13633 43.2304 9.04072 43.1109 8.972L43.075 8.64036C43.1258 8.56267 43.1139 8.49993 43.0243 8.4581C43.0033 8.2878 42.9884 8.11749 42.9585 7.95017C42.7524 6.84768 41.9606 5.9125 40.8073 5.55695L40.5593 5.49122C40.2068 5.30896 39.8542 5.13268 39.4359 5.21933C39.0445 5.12671 38.6531 5.07592 38.2587 5.20439C37.5088 5.21933 36.7977 5.36573 36.1792 5.82585L35.982 5.92445C35.6265 5.94536 35.4203 6.18439 35.2321 6.44433C35.008 6.52201 34.8556 6.67439 34.7809 6.90146C34.6853 6.90146 34.6435 6.94628 34.6584 7.04189C34.6285 7.05981 34.5987 7.07475 34.5688 7.09268L34.1654 7.05981L34.1415 7.07475C34.1624 6.78493 34.2073 6.49512 34.2013 6.2053C34.1983 6.01408 34.3089 5.78701 34.0937 5.63165C34.0997 5.61073 34.0997 5.58982 34.0937 5.57189C33.9264 5.22829 33.6097 5.41652 33.3617 5.36872C33.1765 5.2761 32.9942 5.2014 32.8448 5.42549L32.809 5.41354L32.6685 5.37768L32.6715 5.38366Z" fill="#002C4A"/>
<path d="M58.8715 13.1407C58.8715 14.8258 58.8715 16.5109 58.8715 18.193C58.8715 18.7518 58.8177 18.8025 58.256 18.8055C57.8855 18.8055 57.5121 18.7906 57.1416 18.8055C56.2841 18.8294 56.1556 18.6293 56.1945 17.8166C56.3199 15.1485 56.1945 12.4834 56.2602 9.81526C56.2751 9.19081 56.0869 8.57831 56.2393 7.94788C56.311 7.65508 56.1407 7.48776 55.7941 7.48776C55.0173 7.48776 54.8858 7.34136 54.8858 6.55856C54.8858 6.31655 54.8828 6.07454 54.8858 5.82954C54.8918 5.39631 55.1278 5.16027 55.573 5.13936C56.2512 5.1035 56.2662 5.10052 56.2512 4.41631C56.2303 3.53491 56.3199 2.65052 56.1795 1.76912C56.1078 1.31498 56.2154 0.860834 56.2662 0.409677C56.296 0.155714 56.4663 0.000348637 56.7323 -0.00263916C57.288 -0.00861475 57.8467 -0.0175781 58.4024 0.00333643C58.7879 0.0182754 58.8805 0.287177 58.8775 0.630773C58.8715 1.9454 58.8715 3.25705 58.8685 4.57168C58.8685 5.12741 58.8835 5.14234 59.4512 5.14533C59.8366 5.14533 60.222 5.13039 60.6074 5.14533C61.2767 5.17222 61.4888 5.44411 61.3783 6.10143C61.3454 6.28966 61.3753 6.46295 61.4141 6.64819C61.5187 7.14118 61.2916 7.41307 60.7897 7.41307C60.3535 7.41307 59.9202 7.47283 59.478 7.42801C58.9641 7.37423 58.8745 7.49075 58.8715 8.00167C58.8715 9.71367 58.8715 11.4287 58.8715 13.1407ZM56.6606 12.7015C56.6606 14.3985 56.6606 16.0986 56.6606 17.7957C56.6606 18.3006 56.7651 18.3992 57.2551 18.4022C57.5539 18.4022 57.8557 18.4022 58.1545 18.4082C58.3905 18.4141 58.5459 18.2588 58.513 18.0765C58.4592 17.7837 58.5548 17.5118 58.5548 17.231C58.5488 14.4493 58.5548 11.6677 58.5488 8.88307C58.5488 8.41697 58.4204 7.95685 58.5459 7.48478C58.6116 7.23978 58.7162 7.13819 58.9612 7.08441C59.4332 6.98283 59.8934 7.14118 60.3594 7.09636C60.8704 7.04856 60.954 6.97685 60.951 6.48386C60.951 6.29862 60.9421 6.11338 60.951 5.92814C60.969 5.65326 60.8465 5.54271 60.5716 5.5457C60.0577 5.55466 59.5438 5.5457 59.0299 5.54869C58.7431 5.55167 58.6146 5.43515 58.5339 5.14234C58.3905 4.61052 58.5339 4.09064 58.5578 3.57375C58.6026 2.67741 58.3756 1.79004 58.5339 0.890712C58.5966 0.538152 58.3666 0.358884 58.008 0.41864C57.7959 0.454494 57.5898 0.490347 57.3746 0.487359C56.7084 0.481384 56.7024 0.490347 56.6606 1.16858C56.6546 1.26717 56.6606 1.36876 56.6606 1.46736C56.6606 2.52205 56.6606 3.57973 56.6606 4.63442C56.6606 5.45606 56.5261 5.5935 55.7104 5.62338C55.57 5.62936 55.3818 5.5935 55.337 5.75783C55.2443 6.10441 55.2294 6.4749 55.3399 6.80953C55.4356 7.10234 55.7433 7.01569 55.9764 7.01868C56.5261 7.02466 56.6606 7.15014 56.6606 7.69691C56.6606 9.36709 56.6606 11.0343 56.6606 12.7045V12.7015Z" fill="#CF7D32"/>
<path d="M80.1745 24.2956C79.8608 24.2956 79.5471 24.3016 79.2333 24.2956C78.839 24.2866 78.6657 24.0626 78.818 23.713C79.0929 23.0826 79.4156 22.473 79.6994 21.8486C79.9265 21.3496 80.2283 20.8925 80.4374 20.3786C80.6197 19.9334 80.9185 19.5271 81.1306 19.0789C81.3875 18.5351 81.6863 18.0093 81.9463 17.4685C82.1225 17.098 81.9911 16.7604 81.8058 16.4168C81.4055 15.6788 81.0499 14.9169 80.6555 14.1729C80.2701 13.4499 79.807 12.7627 79.4783 12.0158C78.9854 10.9013 78.2623 9.91235 77.7932 8.78595C77.4944 8.07187 77.0493 7.42053 76.6728 6.73931C76.5085 6.44352 76.3352 6.14773 76.1888 5.84298C76.0364 5.52627 76.1051 5.25737 76.4756 5.19462C77.2793 5.06316 78.089 5.08109 78.8957 5.18566C79.2124 5.22749 79.32 5.49938 79.4395 5.7384C79.9654 6.78413 80.4643 7.8448 81.0081 8.88455C81.5519 9.9243 82.1285 10.9431 82.7022 11.965C83.0069 12.5087 83.1384 13.1332 83.4999 13.6501C83.5686 13.7517 83.5836 13.919 83.7479 13.91C83.9033 13.9011 83.9361 13.7457 83.9839 13.6322C84.45 12.5087 85.0685 11.457 85.5824 10.3545C85.932 9.60461 86.3503 8.8726 86.7148 8.12565C87.1241 7.28309 87.638 6.50029 87.9906 5.63084C88.1549 5.22749 88.5134 4.97353 88.9287 5.05718C89.4845 5.16773 90.0372 5.09304 90.59 5.11993C91.071 5.14383 91.2323 5.39481 91.0919 5.83999C90.8439 6.62877 90.3748 7.30401 89.9984 8.02705C89.2634 9.44028 88.5792 10.8834 87.8591 12.3056C87.3452 13.3125 86.7327 14.2775 86.2935 15.3143C85.8334 16.4048 85.0745 17.343 84.7488 18.4903C84.7369 18.5321 84.7219 18.574 84.695 18.6068C84.3126 19.055 84.1094 19.5988 83.8555 20.1187C83.3774 21.0987 82.8605 22.0577 82.3616 23.0288C82.3227 23.1035 82.2988 23.1871 82.2719 23.2678C81.9911 24.0805 81.6863 24.2986 80.8258 24.2986C80.6107 24.2986 80.3986 24.2986 80.1835 24.2986L80.1745 24.2956ZM86.2965 14.6151C86.3891 14.5912 86.4309 14.5225 86.4668 14.4389C87.0136 13.1063 87.7755 11.8783 88.3879 10.5756C89.117 9.03095 89.9506 7.53706 90.7274 6.01926C90.9545 5.57706 90.826 5.38285 90.327 5.37389C89.843 5.36792 89.356 5.38584 88.872 5.36792C88.5314 5.35298 88.3372 5.53523 88.1997 5.80115C87.7784 6.62279 87.3631 7.45041 86.9478 8.27504C86.2696 9.62552 85.5944 10.976 84.9191 12.3265C84.6323 12.9001 84.3514 13.4738 84.0556 14.0415C83.978 14.1909 83.8734 14.3522 83.6792 14.3522C83.5059 14.3522 83.47 14.1789 83.4073 14.0564C83.1802 13.6142 82.9651 13.1631 82.738 12.7239C82.1136 11.5258 81.4832 10.3306 80.8587 9.13254C80.288 8.03303 79.7233 6.92755 79.1616 5.82206C79.0511 5.60395 78.9077 5.40676 78.6657 5.39779C78.0532 5.37688 77.4407 5.37987 76.8282 5.41273C76.4607 5.43365 76.3979 5.62785 76.5682 5.97145C76.8909 6.62279 77.2674 7.24126 77.596 7.88962C78.4296 9.52693 79.32 11.1314 80.1805 12.7537C80.8736 14.0624 81.5519 15.377 82.251 16.6827C82.3944 16.9516 82.4004 17.1996 82.2719 17.4535C81.5728 18.807 80.8647 20.1545 80.1655 21.508C79.8249 22.1653 79.4903 22.8256 79.1706 23.4919C78.9943 23.8624 79.1049 24.0327 79.5052 24.0386C80.0042 24.0476 80.5032 24.0327 81.0021 24.0446C81.3577 24.0536 81.6116 23.8982 81.767 23.5965C82.4691 22.231 83.1623 20.8596 83.8585 19.4942C84.3036 18.6188 84.7638 17.7523 85.197 16.8709C85.5645 16.121 85.9888 15.4009 86.2905 14.6181L86.2965 14.6151Z" fill="#CF7D32"/>
<path d="M29.3431 18.6675C29.0593 18.6675 28.7755 18.6675 28.4886 18.6705C28.4289 18.6705 28.3661 18.6705 28.3064 18.6705C28.1391 18.6705 27.9688 18.6735 27.8014 18.6735C27.664 18.5779 27.5266 18.4823 27.3891 18.3867L27.3383 17.8728C27.3742 17.6756 27.3832 17.4784 27.3443 17.2812C27.3533 17.2244 27.3622 17.1677 27.3712 17.1139C27.2308 16.7703 27.0904 16.9256 26.9469 17.1139C26.6989 17.2931 26.4629 17.4814 26.3195 17.7622L26.3135 17.7682C26.1522 17.7652 26.0625 17.8847 25.949 17.9684C25.6054 18.2223 25.2648 18.4763 24.8644 18.6436C23.257 19.3039 21.6585 19.2143 20.0899 18.548C19.0323 18.0969 18.1807 17.3947 17.6041 16.358C17.1231 15.4915 16.7317 14.6071 16.5494 13.6241C16.1431 11.4401 16.3403 9.38445 17.6818 7.52903C18.3959 6.54305 19.2892 5.75129 20.4545 5.41367C21.9962 4.9655 23.5647 4.80715 25.0407 5.71544C25.2588 5.84989 25.4859 5.9694 25.707 6.09489C26.191 6.37275 26.6063 6.74324 27.0455 7.08086C27.1262 7.14061 27.2128 7.21232 27.3144 7.13763C27.413 7.06293 27.3772 6.96135 27.3324 6.86872C27.3413 6.45641 27.3503 6.04409 27.3593 5.63178C27.5206 5.42562 27.7238 5.35092 27.9897 5.36586C28.3452 5.38678 28.7038 5.36885 29.0593 5.37184C29.6001 5.37184 29.6838 5.4555 29.6838 5.99031C29.6838 9.985 29.6838 13.9797 29.6897 17.9773C29.6897 18.2851 29.6449 18.5331 29.3431 18.6705V18.6675ZM29.4388 11.9988C29.4388 10.1583 29.4388 8.31781 29.4388 6.47732C29.4388 5.89769 29.142 5.60787 28.5484 5.60787C28.405 5.60787 28.2616 5.6258 28.1211 5.6019C27.6879 5.53318 27.5654 5.73336 27.6132 6.13074C27.6491 6.42354 27.667 6.72232 27.655 7.01811C27.6461 7.19738 27.6013 7.39458 27.3951 7.47525C27.2427 7.535 27.1262 7.45732 27.0097 7.35872C26.2926 6.74921 25.5068 6.26519 24.6762 5.81403C22.9015 4.85196 21.1835 5.19855 19.5999 6.09489C17.3681 7.35872 16.5912 9.52786 16.5823 11.9689C16.5763 13.1879 16.8452 14.4069 17.4099 15.5094C17.7684 16.2116 18.115 16.9406 18.7693 17.4455C19.9704 18.3717 21.3 18.8259 22.8477 18.787C24.0219 18.7602 25.0049 18.4016 25.9132 17.7055C26.3016 17.4067 26.6123 17.0362 26.9738 16.7165C27.1023 16.603 27.2547 16.4805 27.431 16.5462C27.6222 16.6149 27.6162 16.8181 27.6192 16.9854C27.6252 17.2991 27.6401 17.6158 27.6132 17.9266C27.5803 18.312 27.7477 18.4375 28.1122 18.4076C28.396 18.3837 28.6828 18.3837 28.9667 18.4076C29.3551 18.4405 29.4477 18.2672 29.4447 17.9056C29.4298 15.9367 29.4388 13.9677 29.4388 11.9988Z" fill="#002C4A"/>
<path d="M0.143409 12.4466C0.143409 10.5942 0.143409 8.73877 0.143409 6.88634C0.143409 6.66524 0.0776776 6.39634 0.346579 6.28579C0.576639 6.19317 0.797736 6.235 1.02481 6.39335C1.31164 6.59353 1.63432 6.55768 1.94505 6.37841C2.59041 6.00793 2.85931 6.16329 2.85931 6.90128C2.85931 10.6091 2.85931 14.314 2.85931 18.0219C2.85931 18.709 2.75175 18.8196 2.07352 18.8196C1.67316 18.8196 1.27578 18.8196 0.875419 18.8196C0.286823 18.8196 0.143409 18.6822 0.143409 18.0965C0.143409 16.2142 0.143409 14.3319 0.143409 12.4526V12.4466ZM2.54858 12.5542C2.54858 10.7137 2.54858 8.87322 2.54858 7.03274C2.54858 6.5786 2.44401 6.49195 2.04663 6.66524C1.67017 6.82957 1.32658 6.8714 0.938163 6.69512C0.615481 6.54872 0.475054 6.71902 0.475054 7.06262C0.475054 10.7286 0.475054 14.3977 0.463103 18.0637C0.463103 18.4103 0.627432 18.5626 0.953102 18.5686C1.2967 18.5746 1.63731 18.5746 1.9809 18.5686C2.46493 18.5626 2.55157 18.476 2.55157 17.989C2.55157 16.1754 2.55157 14.3648 2.55157 12.5512L2.54858 12.5542Z" fill="#002C4A"/>
<path d="M1.4192 5.17697C0.403352 5.17996 0.0029878 4.77362 0 3.72789C0 2.95405 0.657315 2.26984 1.38932 2.24295C2.19902 2.21009 2.86828 2.98393 2.91908 3.81752C2.97286 4.681 2.40816 5.17398 1.4192 5.17697Z" fill="#002C4A"/>
<path d="M27.3324 6.86488C27.3772 6.9575 27.413 7.05908 27.3144 7.13378C27.2128 7.20847 27.1262 7.13677 27.0455 7.07701C26.6063 6.73939 26.191 6.3689 25.707 6.09104C25.4859 5.96256 25.2588 5.84604 25.0407 5.71159C23.5647 4.8033 21.9961 4.96165 20.4544 5.40982C19.2922 5.75043 18.3988 6.53921 17.6818 7.52518C16.3373 9.3806 16.1401 11.4362 16.5494 13.6203C16.7317 14.6033 17.1231 15.4877 17.6041 16.3541C18.1807 17.3909 19.0323 18.093 20.0899 18.5442C21.6585 19.2104 23.257 19.3001 24.8644 18.6398C25.2678 18.4754 25.6054 18.2185 25.949 17.9645C26.0625 17.8809 26.1522 17.7584 26.3135 17.7644C26.0864 18.3111 25.5546 18.5173 25.0945 18.7503C23.5259 19.5451 21.9334 19.4853 20.2991 18.8549C18.844 18.2962 17.8581 17.3371 17.135 15.9627C16.2805 14.3374 16.0445 12.6552 16.2237 10.8655C16.2715 10.3815 16.3582 9.90944 16.4478 9.43737C16.6271 8.52012 17.1798 7.80603 17.7356 7.08896C18.1419 6.56909 18.6199 6.11793 19.1667 5.76537C19.7224 5.40384 20.3409 5.12299 20.9952 4.99153C21.9035 4.81226 22.8357 4.77043 23.75 4.94074C24.5806 5.09311 25.2738 5.57415 25.9878 6.0014C26.445 6.27628 26.7886 6.72744 27.3324 6.86189V6.86488Z" fill="#002C4A"/>
<path d="M29.3431 18.6668C29.6449 18.5293 29.6897 18.2814 29.6897 17.9736C29.6808 13.9789 29.6838 9.98425 29.6838 5.98658C29.6838 5.45177 29.6001 5.3711 29.0593 5.36811C28.7038 5.36811 28.3452 5.38604 27.9897 5.36214C27.7238 5.34421 27.5206 5.42189 27.3592 5.62805C27.2009 5.23067 27.4847 5.20677 27.7447 5.20079C28.3333 5.18884 28.9249 5.19781 29.5134 5.19781C29.5463 5.2725 29.612 5.28445 29.6838 5.28445C29.8391 5.52049 29.863 5.78341 29.86 6.06128C29.8541 9.77212 29.8541 13.483 29.857 17.1938C29.857 17.3372 29.869 17.4776 29.872 17.6211C29.872 17.8212 29.875 18.0184 29.878 18.2186C29.7405 18.4158 29.8391 18.8968 29.3431 18.6638V18.6668Z" fill="#002C4A"/>
<path d="M94.6593 9.16311C94.6653 9.81744 95.0477 10.2656 95.6005 10.2566C96.1204 10.2507 96.6223 9.68597 96.6104 9.12128C96.5984 8.58647 96.1293 8.17116 95.5437 8.18311C94.991 8.19208 94.6563 8.56256 94.6623 9.1661L94.6593 9.16311Z" fill="#C4801C"/>
<path d="M96.5745 10.852C96.6373 10.7683 96.7 10.7205 96.7388 10.6907C96.7388 10.6907 96.7956 10.6458 97.1183 10.3262C97.2468 10.1977 97.3752 9.93176 97.3573 9.3103C97.5127 9.33122 97.5187 9.44475 97.5157 9.56427C97.4918 10.374 96.9749 11.1597 96.1921 11.4018C95.7678 11.5332 95.2689 11.7573 94.8625 11.2912C95.2031 11.2882 95.5467 11.3062 96.452 11.0851C96.5178 11.0701 96.4968 10.9536 96.5775 10.849L96.5745 10.852Z" fill="#C4801C"/>
<path d="M96.5745 10.8521C96.4789 11.2136 96.1712 11.2524 95.8813 11.2793C95.5437 11.3092 95.2001 11.2913 94.8595 11.2943C94.7788 11.2823 94.7012 11.2703 94.6205 11.2554C94.0558 10.8341 93.4792 10.4607 92.7203 10.6818C92.9115 10.2993 93.2371 10.4009 93.521 10.4965C93.8945 10.619 94.2649 10.7684 94.6115 10.9566C95.0687 11.2046 95.5497 11.1 96.0218 11.106C96.0995 11.106 96.1383 11.0373 96.1622 10.9686C96.2996 10.9297 96.4371 10.8909 96.5745 10.8521Z" fill="#C4801C"/>
<path d="M26.3195 17.7602C26.4629 17.4823 26.6989 17.2911 26.9469 17.1118V17.2732C26.8185 17.5391 26.696 17.8139 26.3195 17.7602Z" fill="#002C4A"/>
<path d="M27.3891 18.386C27.5266 18.4816 27.664 18.5772 27.8014 18.6728C27.5027 18.7983 27.2666 18.7923 27.2128 18.3949C27.2726 18.392 27.3294 18.389 27.3891 18.386Z" fill="#002C4A"/>
<path d="M27.3891 18.3882C27.3294 18.3912 27.2726 18.3941 27.2128 18.3971C27.1531 18.1999 26.938 17.9609 27.3383 17.8743C27.3563 18.0446 27.3712 18.2149 27.3891 18.3882Z" fill="#002C4A"/>
<path d="M29.878 18.2211C29.878 18.0209 29.875 17.8237 29.872 17.6235C30.12 17.8207 30.111 18.0209 29.878 18.2211Z" fill="#002C4A"/>
<path d="M26.9439 17.2732V17.1118C27.0844 17.1118 27.2278 17.1118 27.3682 17.1118C27.3592 17.1686 27.3503 17.2254 27.3413 17.2791C27.2069 17.2761 27.0754 17.2732 26.9409 17.2702L26.9439 17.2732Z" fill="#002C4A"/>
<path d="M29.6837 5.28876C29.612 5.28876 29.5463 5.27681 29.5134 5.20212C29.6509 5.07663 29.6658 5.18419 29.6837 5.28876Z" fill="#002C4A"/>
<path d="M28.3064 18.6694C28.3661 18.6694 28.4289 18.6694 28.4886 18.6694C28.4289 18.7501 28.3661 18.7501 28.3064 18.6694Z" fill="#002C4A"/>
<path d="M92.7232 10.6801C93.4821 10.459 94.0588 10.8325 94.6235 11.2538C94.247 11.2269 93.9363 11.0237 93.6046 10.8743C93.034 10.6144 92.6635 10.8624 92.6336 11.4868C92.5918 12.3413 92.7203 13.1898 92.7203 14.0444C92.7203 15.9028 92.7203 17.7642 92.7203 19.6226C92.7203 20.8864 92.7203 22.1473 92.7203 23.4111C92.7203 23.6262 92.7173 23.7995 93.022 23.7965C94.749 23.7876 96.4729 23.7905 98.1999 23.7965C98.4568 23.7965 98.5405 23.68 98.5584 23.432C98.6719 21.8216 98.648 20.2052 98.6421 18.5948C98.6361 17.1188 98.7317 15.6339 98.5674 14.1549C98.5196 13.7396 98.6361 13.3064 98.6331 12.8821C98.6182 11.2806 98.5883 9.67919 98.5524 8.07773C98.5315 7.14554 97.3304 5.76518 96.4042 5.63969C95.3704 5.49926 94.3994 5.56201 93.5987 6.40457C92.9204 7.11566 92.547 7.88352 92.7412 8.87547L92.7262 8.89041C92.4753 8.76492 92.5261 8.48108 92.4006 8.28688C92.4006 8.20621 92.4065 8.12554 92.4095 8.04487C92.7442 7.60566 92.7591 7.02304 93.0668 6.56889C93.0728 6.54499 93.0788 6.52109 93.0848 6.49719C93.261 6.47926 93.3477 6.33585 93.4582 6.22829C94.3606 5.33493 95.8126 5.11384 96.9689 5.67256C97.181 5.77414 97.3603 5.96536 97.6202 5.96536C97.8742 6.11176 97.9937 6.38963 98.2148 6.57188C98.3672 6.96926 98.5106 7.36962 98.7885 7.70426C98.7944 7.78493 98.7974 7.8656 98.8034 7.94627C98.6988 8.06877 98.6899 8.1823 98.8273 8.28688C98.8273 13.4259 98.8273 18.5649 98.8273 23.7039C98.7436 23.7368 98.7287 23.8025 98.7347 23.8802C98.4957 24.0296 98.2297 24.0415 97.9579 24.0415C96.6821 24.0415 95.4063 24.0684 94.1335 24.0266C93.6375 24.0087 93.1475 24.0206 92.6545 24.0326C92.4872 23.7876 92.4663 23.5157 92.4663 23.2229C92.4723 19.4881 92.4663 15.7534 92.4693 12.0186C92.4693 11.5585 92.3916 11.0805 92.7232 10.6831V10.6801Z" fill="#C4801C"/>
<path d="M92.7233 10.6824C92.3946 11.0797 92.4693 11.5578 92.4693 12.0179C92.4693 15.7527 92.4693 19.4874 92.4663 23.2222C92.4663 23.512 92.4842 23.7868 92.6545 24.0318C92.2781 24.0109 92.302 23.7331 92.302 23.4731C92.302 20.8379 92.302 18.2027 92.302 15.5674C92.302 14.1721 92.302 12.7738 92.302 11.3785C92.302 11.0618 92.3587 10.778 92.7233 10.6824Z" fill="#C4801C"/>
<path d="M94.3456 7.33707C94.3157 7.36694 94.2889 7.39383 94.259 7.42371C93.8885 7.78523 93.8825 8.25731 93.8526 8.72639C93.8407 8.91761 93.7451 9.05505 93.5807 9.14767C93.273 9.12974 92.9324 9.22535 92.7173 8.89072L92.7322 8.87578C92.774 8.88176 92.8189 8.88474 92.8577 8.89669C93.4911 9.06999 93.5359 9.00724 93.6823 8.35889C93.772 7.95554 93.8257 7.52231 94.1245 7.1817C94.5428 6.70664 95.0567 6.54231 95.6842 6.5692C96.8554 6.61999 97.7248 7.84798 97.3484 8.97438C97.3304 8.86682 97.3035 8.6995 97.2557 8.49932C97.1183 7.9167 97.0317 7.56713 96.7388 7.26237C96.5745 7.09207 96.4102 7.00542 96.3265 6.9606C96.2339 6.9128 95.8933 6.73054 95.4182 6.76042C94.988 6.78731 94.5458 6.86499 94.3396 7.34005L94.3456 7.33707Z" fill="#C4801C"/>
<path d="M97.6143 5.96826C97.3543 5.96826 97.1751 5.77704 96.9629 5.67546C95.8067 5.11973 94.3546 5.33784 93.4523 6.23119C93.3447 6.33875 93.2551 6.48216 93.0788 6.50009C93.1326 6.16844 93.3955 5.98619 93.6345 5.8368C94.8296 5.09582 96.0696 4.93747 97.3394 5.67247C97.4619 5.74418 97.6023 5.79497 97.6113 5.96826H97.6143Z" fill="#C4801C"/>
<path d="M94.3456 7.33829C94.5518 6.86323 94.997 6.78555 95.4242 6.75866C95.8993 6.72878 96.2399 6.91104 96.3325 6.95884C96.5207 7.05744 96.6552 7.17396 96.7448 7.26061C96.1592 6.8214 95.466 6.69293 94.9521 6.96183C94.8356 7.02457 94.6713 7.13512 94.5219 7.34427L94.3456 7.33829Z" fill="#C4801C"/>
<path d="M92.7203 8.894C92.9354 9.22864 93.276 9.13303 93.5837 9.15095C93.3895 9.47662 93.1176 9.30632 92.8876 9.23461C92.4872 9.10913 92.2751 8.66992 92.3976 8.29346C92.5231 8.48468 92.4723 8.7715 92.7232 8.89699L92.7203 8.894Z" fill="#C4801C"/>
<path d="M93.0609 6.573C92.7561 7.02714 92.7382 7.60976 92.4035 8.04897C92.4842 7.49623 92.535 6.92855 93.0609 6.573Z" fill="#C4801C"/>
<path d="M98.7825 7.70537C98.5016 7.37373 98.3612 6.97037 98.2088 6.573C98.6242 6.83592 98.7198 7.26318 98.7825 7.70537Z" fill="#C4801C"/>
<path d="M93.8556 8.72944C93.8825 8.26334 93.8885 7.78828 94.2619 7.42676C94.1783 7.81816 94.005 8.18566 93.999 8.59499C93.999 8.67267 93.9273 8.70553 93.8586 8.72944H93.8556Z" fill="#C4801C"/>
<path d="M98.8243 8.28543C98.6869 8.18086 98.6929 8.06732 98.8004 7.94482C98.9319 8.0494 98.9259 8.16592 98.8243 8.28543Z" fill="#C4801C"/>
<path d="M98.7287 23.8806C98.7227 23.8029 98.7377 23.7372 98.8213 23.7043C98.9379 23.8388 98.8333 23.8597 98.7287 23.8806Z" fill="#C4801C"/>
<path d="M46.8994 7.77528C46.8994 7.67668 46.8606 7.54522 46.9084 7.47949C47.2131 7.06717 47.5926 6.71461 47.7838 6.20669C47.8406 6.05431 48.1662 6.1051 48.3455 6.16486C48.5845 6.24254 48.7041 6.12901 48.8056 5.97364C49.0895 5.54041 49.6392 5.26852 50.1053 5.47169C50.4908 5.63901 50.912 5.56133 51.2855 5.76748C51.7247 6.00949 51.8412 6.54132 52.2924 6.77437C52.4747 6.86699 52.2984 7.04028 52.1878 7.15681C51.9697 7.38687 51.7187 7.44065 51.4678 7.24047C51.2347 7.05522 51.0345 6.83114 50.7925 6.65187C50.0814 6.12303 49.5347 6.09017 48.8146 6.58913C48.5577 6.76541 48.3306 6.98352 48.0438 7.11797C47.6643 7.29723 47.742 7.68565 47.7091 7.98443C47.6464 8.56107 47.494 9.19747 48.1991 9.55601C48.3575 9.63668 48.3814 9.79503 48.2858 9.96235C48.1603 10.1775 48.2051 10.303 48.474 10.2253C48.8534 10.1147 49.1522 10.1177 49.2329 10.6047C49.2538 10.7362 49.3823 10.7631 49.5018 10.7661C49.6004 10.7661 49.7468 10.7272 49.7946 10.775C50.1352 11.1366 50.6372 11.2381 50.9987 11.5429C51.1929 11.7072 51.3781 11.8476 51.6201 11.8715C51.9219 11.9014 52.0862 12.0329 52.1281 12.3406C52.1669 12.6185 52.3253 12.741 52.627 12.747C53.0184 12.7559 53.2963 12.8575 53.4576 13.3445C53.5562 13.6403 53.8132 13.9391 53.8759 14.2917C53.9357 14.6114 53.9984 14.937 53.7982 15.2418C53.7564 15.3075 53.7385 15.4091 53.7504 15.4868C53.849 16.162 53.4367 16.6401 53.12 17.154C52.9975 17.3512 52.8153 17.4199 52.6031 17.3422C52.2625 17.2137 52.1251 17.4229 52.0384 17.6798C51.7934 18.4088 51.2975 18.5343 50.7865 17.9876C50.6431 17.8352 50.4758 17.7426 50.2547 17.8681C50.0784 17.9696 50.0037 18.0772 50.2159 18.2057C50.3742 18.3013 50.4519 18.4268 50.3712 18.5941C50.2816 18.7763 50.1203 18.7046 49.9619 18.6957C49.5048 18.6688 49.1373 18.5284 48.8206 18.1668C48.6413 17.9607 48.3097 17.9218 48.0198 17.9786C47.5687 18.0682 47.24 17.7874 46.8725 17.629C46.759 17.5812 46.6753 17.4528 46.756 17.3064C46.8337 17.1689 46.9413 17.2197 47.0548 17.2585C47.3237 17.3512 47.5298 17.393 47.5986 16.9867C47.6404 16.7327 47.8884 16.8283 48.0467 16.9329C48.3395 17.1271 48.6204 17.3213 48.9431 17.4767C49.1672 17.5842 49.3524 17.6201 49.5825 17.5932C49.9918 17.5454 50.4041 17.402 50.8164 17.5932C50.8403 17.6051 50.8822 17.6111 50.9001 17.5992C51.2825 17.3362 51.647 17.0494 52.0623 16.8313C52.2984 16.7088 52.2476 16.3861 52.2685 16.165C52.3253 15.5346 52.4627 14.9012 52.2954 14.2588C52.2446 14.0586 52.1878 13.8823 52.0444 13.7329C51.7636 13.4312 51.4349 13.1772 51.1989 12.8276C51.0913 12.6663 50.8792 12.6155 50.7059 12.6006C50.2577 12.5647 49.935 12.2779 49.5645 12.0867C49.4958 12.0508 49.3942 11.9462 49.4062 11.9014C49.5406 11.4264 49.1373 11.507 48.9401 11.5011C48.3425 11.4861 47.9691 11.2351 47.8346 10.6436C47.7748 10.3777 47.6434 10.4464 47.4641 10.5539C47.1175 10.7631 47.0249 10.7093 46.9801 10.3089C46.9592 10.1207 46.9293 9.92948 46.8098 9.78906C46.3168 9.21839 46.4483 8.57004 46.5588 7.92168C46.5947 7.70955 46.765 7.77528 46.8994 7.76333C46.8397 8.19059 46.6843 8.6268 47.013 9.0182C47.0877 9.10784 47.1026 9.31698 47.2609 9.24827C47.4103 9.18552 47.4701 8.97936 47.3745 8.84491C47.2191 8.62382 47.2281 8.39077 47.243 8.15174C47.258 7.89479 47.1265 7.79321 46.8994 7.76333V7.77528Z" fill="#CF7D32"/>
<path d="M5.07329 12.1939C4.98664 9.31368 6.35206 7.48216 8.48535 6.12272C9.32492 5.5879 10.3079 5.38772 11.2819 5.28613C12.3605 5.1726 13.4421 5.23534 14.4968 5.55205C15.2318 5.77315 15.3244 5.87473 15.3214 6.65156C15.3214 6.95034 15.3244 7.2521 15.3184 7.55088C15.3125 7.8168 15.175 7.84369 14.9868 7.69729C13.7588 6.74717 12.3575 6.46034 10.8726 6.77704C9.1815 7.13857 8.02822 8.20521 7.3709 9.80069C6.89584 10.954 6.77932 12.1491 7.0781 13.3592C7.49041 15.0263 8.46443 16.2902 10.0181 17.0282C10.771 17.3837 11.6285 17.4285 12.4531 17.312C13.3584 17.1865 14.2458 16.9684 14.933 16.2902C15.0107 16.2155 15.1242 16.1199 15.2378 16.1766C15.3633 16.2394 15.3573 16.3798 15.3513 16.5173C15.3334 16.8877 15.3154 17.2582 15.3274 17.6287C15.3364 17.9275 15.2109 18.1157 14.9479 18.2293C13.4062 18.8926 11.7839 19.0569 10.1735 18.7133C8.50925 18.3577 7.17371 17.4166 6.20566 15.9645C5.39298 14.7455 4.95079 13.4488 5.07329 12.1939Z" fill="#002C4A"/>
<path d="M75.0026 12.1839C75.0026 14.0095 75.0026 15.838 75.0026 17.6636C75.0026 18.3567 74.9518 18.4015 74.2796 18.3986C74.1362 18.3986 73.9928 18.4075 73.8523 18.3956C73.5685 18.3687 73.3773 18.2641 73.3982 17.9175C73.4161 17.6516 73.3773 17.3797 73.3564 17.1138C73.3414 16.9405 73.4281 16.7134 73.198 16.6268C72.9859 16.5491 72.7707 16.6059 72.5945 16.7493C72.3315 16.9674 72.0836 17.2004 71.8206 17.4215C70.9661 18.1446 70.0638 18.6914 68.8747 18.775C67.3778 18.8826 66.0213 18.5928 64.8053 17.7412C63.7506 17.0033 63.0963 15.9755 62.678 14.7445C62.3224 13.6958 62.191 12.65 62.2119 11.5595C62.2268 10.6153 62.5286 9.74889 62.8244 8.87944C63.0963 8.07273 63.5295 7.34969 64.1838 6.80591C64.9397 6.18146 65.7733 5.69743 66.7683 5.52115C67.2373 5.4375 67.6885 5.29109 68.1785 5.26719C69.1376 5.21939 69.9503 5.58091 70.754 6.03506C71.3874 6.39359 71.9431 6.8567 72.5168 7.29591C72.705 7.43932 72.9022 7.57078 73.1412 7.4692C73.4131 7.35566 73.3444 7.09274 73.3534 6.87164C73.3653 6.56091 73.3474 6.25018 73.4191 5.93646C73.4759 5.68548 73.5954 5.61975 73.8284 5.61079C74.9489 5.56 75.0026 5.60183 75.0056 6.74316C75.0116 8.55676 75.0056 10.3674 75.0056 12.181H74.9996L75.0026 12.1839ZM73.186 12.1033C73.2249 11.2069 73.1532 10.3554 72.9201 9.53078C72.5885 8.35657 71.9013 7.4453 70.7659 6.92841C69.7262 6.45633 68.5968 6.42347 67.5541 6.7103C65.9257 7.15548 64.8322 8.28487 64.2884 9.9162C63.9299 10.9918 63.8731 12.0913 64.0434 13.1998C64.1629 13.9766 64.381 14.7534 64.865 15.3719C65.2684 15.8888 65.7464 16.3549 66.2783 16.7792C67.2254 17.5321 68.2681 17.6367 69.3706 17.4843C69.8547 17.4186 70.3775 17.3708 70.7809 16.9823C71.3187 16.4625 71.985 16.0711 72.3704 15.3988C72.959 14.365 73.2817 13.2595 73.186 12.1003V12.1033Z" fill="#CF7D32"/>
<path d="M40.5653 5.49723C40.649 5.51815 40.7296 5.54205 40.8133 5.56297C40.8103 5.72431 40.8671 5.83187 41.0344 5.88266C41.7873 6.12467 42.1697 6.75211 42.5313 7.37954C42.83 7.89345 42.7464 8.50893 42.8928 9.06765C42.9555 9.30667 42.839 9.62338 43.1587 9.76381C43.1587 9.80862 43.1617 9.85643 43.1647 9.90124C42.9764 9.99984 43.0541 10.1791 43.0541 10.3225C43.0511 12.7157 43.0541 15.112 43.0541 17.5052C43.0541 18.3179 43.0541 18.3059 42.2534 18.3268C42.0622 18.3328 41.7813 18.1565 41.6768 18.4971C41.62 18.4941 41.5602 18.4912 41.5035 18.4882C41.2674 18.1834 41.4168 17.8428 41.4108 17.5171C41.372 15.097 41.4855 12.6739 41.3332 10.2538C41.2883 9.5457 41.2286 8.85552 40.873 8.21015C40.4787 7.49607 39.9558 6.91046 39.164 6.71625C37.0517 6.19937 35.6862 6.9254 34.6883 8.736C34.1684 9.67716 33.9533 10.7468 33.9682 11.8582C33.9981 13.7973 33.9742 15.7364 33.9742 17.6755C33.9742 17.9982 34.0878 18.4015 33.5201 18.3537C33.5021 18.3537 33.4753 18.4433 33.4543 18.4941C33.1376 18.4941 32.8209 18.5868 32.5012 18.5061C32.5012 18.3448 32.4236 18.3059 32.2831 18.3746C32.1786 18.1924 32.1935 17.9862 32.1935 17.792C32.1935 13.7914 32.1935 9.7907 32.1935 5.79303C32.1935 5.7512 32.1995 5.70937 32.2054 5.66455C32.2772 5.64364 32.3489 5.62272 32.4206 5.60181C32.552 5.61675 32.6984 5.69742 32.7791 5.51217L32.8209 5.42851L32.8568 5.43748C33.0151 5.554 33.1974 5.47333 33.3677 5.49723C33.6037 5.61675 33.8637 5.51516 34.1027 5.58388C34.1087 5.60479 34.1087 5.62571 34.1027 5.64364C33.8577 6.10376 33.9832 6.57882 34.037 7.05089C34.037 7.06583 34.1117 7.07479 34.1505 7.08375L34.1744 7.06881C34.1625 7.13455 34.1505 7.19729 34.1415 7.26302C34.0071 7.38552 34.0549 7.52893 34.1893 7.55284C34.3746 7.58271 34.5449 7.49308 34.5718 7.26601L34.5778 7.10168C34.6076 7.08375 34.6375 7.06881 34.6674 7.05089C34.7451 7.12558 34.8228 7.10766 34.8676 7.024C34.8974 6.97022 34.8496 6.9254 34.7899 6.91046C34.8646 6.68339 35.017 6.534 35.241 6.45632C35.4741 6.56089 35.8804 6.28004 35.991 5.93644C36.0567 5.90357 36.1224 5.87071 36.1882 5.83784C36.2121 5.95437 36.2868 5.96931 36.3764 5.92449C36.974 5.6287 37.6373 5.54504 38.2647 5.34486C38.3215 5.32693 38.3304 5.2612 38.2647 5.21638C38.6591 5.08791 39.0505 5.1387 39.4419 5.23132C39.651 5.44943 39.9379 5.50022 40.2127 5.54205C40.3203 5.55699 40.4757 5.72431 40.5653 5.50321V5.49723Z" fill="#002C4A"/>
<path d="M33.4514 18.4871C33.4723 18.4393 33.4992 18.3467 33.5171 18.3467C34.0848 18.3975 33.9712 17.9911 33.9712 17.6685C33.9712 15.7294 33.9951 13.7903 33.9653 11.8512C33.9503 10.7428 34.1654 9.67014 34.6853 8.72898C35.6832 6.92136 37.0487 6.19234 39.161 6.70923C39.9528 6.90344 40.4757 7.48905 40.8701 8.20313C41.2256 8.84849 41.2854 9.54166 41.3302 10.2468C41.4826 12.6669 41.372 15.09 41.4079 17.5101C41.4138 17.8358 41.2644 18.1764 41.5005 18.4811C41.1121 18.5588 41.121 18.2929 41.121 18.0419C41.121 16.7004 41.127 15.3589 41.127 14.0174C41.127 12.6759 41.1479 11.3343 41.0732 9.99581C41.2017 9.88825 41.1808 9.79861 41.0404 9.72392C41.0135 8.95605 40.7565 8.29575 40.2426 7.71014C39.908 7.3277 39.5106 7.03191 39.0445 6.93332C37.5566 6.6196 36.236 6.84966 35.259 8.28081C34.8646 8.86044 34.6226 9.47593 34.4463 10.1392C34.3477 10.181 34.2969 10.2468 34.3507 10.3573C34.3417 10.4081 34.3358 10.4619 34.3268 10.5127C34.2043 10.5814 34.2192 10.68 34.264 10.7846C34.2521 10.9788 34.2431 11.173 34.2312 11.3672C34.0878 11.4897 34.1475 11.66 34.1475 11.8064C34.1415 13.8232 34.1445 15.8399 34.1475 17.8597C34.1475 18.015 34.1744 18.1674 34.1864 18.3228C34.0011 18.6485 33.7352 18.6096 33.4514 18.4811V18.4871Z" fill="#002C4A"/>
<path d="M41.6738 18.4992C41.7783 18.1586 42.0592 18.3319 42.2504 18.3289C43.0511 18.308 43.0511 18.3199 43.0511 17.5073C43.0511 15.114 43.0511 12.7178 43.0511 10.3246C43.0511 10.1812 42.9705 10.0019 43.1617 9.90332C43.2693 10.0408 43.2334 10.2051 43.2334 10.3575C43.2394 12.921 43.2334 15.4875 43.2454 18.051C43.2454 18.4335 43.1139 18.6247 42.7225 18.5739C42.3759 18.5291 42.0174 18.6456 41.6768 18.5022L41.6738 18.4992Z" fill="#002C4A"/>
<path d="M43.1557 9.76359C42.836 9.62316 42.9526 9.30645 42.8898 9.06743C42.7434 8.5117 42.8271 7.89621 42.5283 7.37932C42.1668 6.75189 41.7843 6.12445 41.0314 5.88244C40.8671 5.82866 40.8073 5.7211 40.8103 5.56274C41.9636 5.91829 42.7554 6.85347 42.9615 7.95597C42.9914 8.12328 43.0063 8.29359 43.0302 8.46389C42.9257 8.55652 42.9854 8.60731 43.081 8.64615C43.093 8.7567 43.1049 8.86725 43.1169 8.97779C43.0123 9.09133 43.0302 9.18096 43.1707 9.24371C43.1976 9.417 43.2394 9.59328 43.1557 9.76359Z" fill="#002C4A"/>
<path d="M34.1863 18.3286C34.1714 18.1733 34.1475 18.0209 34.1475 17.8655C34.1475 15.8488 34.1475 13.832 34.1475 11.8123C34.1475 11.6629 34.0878 11.4955 34.2312 11.373C34.3507 11.4926 34.2999 11.6419 34.2999 11.7764C34.2999 13.8201 34.2999 15.8637 34.2999 17.9074C34.2999 18.0538 34.3686 18.227 34.1863 18.3286Z" fill="#002C4A"/>
<path d="M38.2647 5.20752C38.3274 5.25234 38.3215 5.31807 38.2647 5.33599C37.6373 5.53319 36.974 5.61685 36.3764 5.91563C36.2868 5.96044 36.2121 5.94551 36.1882 5.82898C36.8037 5.36886 37.5148 5.21947 38.2677 5.20752H38.2647Z" fill="#002C4A"/>
<path d="M34.1475 7.08099C34.1087 7.06904 34.037 7.06306 34.034 7.04812C33.9772 6.57605 33.8547 6.098 34.0997 5.64087C34.3148 5.79623 34.2043 6.02331 34.2073 6.21453C34.2132 6.50434 34.1714 6.79416 34.1475 7.08397V7.08099Z" fill="#002C4A"/>
<path d="M40.5653 5.49664C40.4757 5.72072 40.3203 5.55341 40.2127 5.53548C39.9349 5.49365 39.651 5.44286 39.4419 5.22475C39.8602 5.13512 40.2127 5.31438 40.5653 5.49664Z" fill="#002C4A"/>
<path d="M35.988 5.93091C35.8774 6.2745 35.4711 6.55835 35.2381 6.45079C35.4263 6.18786 35.6324 5.95182 35.988 5.93091Z" fill="#002C4A"/>
<path d="M34.0997 5.57616C33.8577 5.50744 33.5978 5.60903 33.3647 5.48952V5.37C33.6187 5.41781 33.9354 5.22958 34.0997 5.57318V5.57616Z" fill="#002C4A"/>
<path d="M33.3647 5.37313V5.49264C33.1914 5.46874 33.0062 5.54941 32.8478 5.43289C32.9972 5.2088 33.1795 5.2835 33.3647 5.37612V5.37313Z" fill="#002C4A"/>
<path d="M34.1385 7.25915C34.1505 7.19342 34.1595 7.13067 34.1714 7.06494C34.3059 7.07689 34.4403 7.08586 34.5748 7.09781C34.5748 7.15159 34.5718 7.20836 34.5688 7.26214C34.4254 7.2711 34.282 7.37268 34.1385 7.26214V7.25915Z" fill="#002C4A"/>
<path d="M32.4146 5.59379C32.3429 5.61471 32.2712 5.63562 32.1995 5.65654C32.1636 5.39062 32.3369 5.39361 32.5192 5.40855C32.4833 5.47129 32.4475 5.53105 32.4146 5.59379Z" fill="#002C4A"/>
<path d="M32.4146 5.59269C32.4504 5.52995 32.4863 5.47019 32.5192 5.40745C32.57 5.39848 32.6208 5.38952 32.6715 5.38354C32.7044 5.42537 32.7373 5.46422 32.7701 5.50604C32.6895 5.69129 32.5431 5.61062 32.4116 5.59568L32.4146 5.59269Z" fill="#002C4A"/>
<path d="M43.1707 9.24052C43.0272 9.17778 43.0123 9.08815 43.1169 8.97461C43.2364 9.04333 43.2214 9.13894 43.1707 9.24052Z" fill="#002C4A"/>
<path d="M34.264 10.7912C34.2192 10.6866 34.2013 10.585 34.3268 10.5193C34.4403 10.6418 34.4015 10.7284 34.264 10.7912Z" fill="#002C4A"/>
<path d="M34.7869 6.90869C34.8467 6.92363 34.8945 6.96845 34.8646 7.02223C34.8198 7.10589 34.7421 7.12381 34.6644 7.04912C34.6495 6.95351 34.6913 6.90869 34.7869 6.90869Z" fill="#002C4A"/>
<path d="M41.0404 9.73071C41.1838 9.80541 41.2047 9.89205 41.0732 10.0026C40.9686 9.92492 40.9836 9.82931 41.0404 9.73071Z" fill="#002C4A"/>
<path d="M34.3507 10.3626C34.2969 10.2521 34.3507 10.1864 34.4463 10.1445C34.4911 10.2521 34.4582 10.3238 34.3507 10.3626Z" fill="#002C4A"/>
<path d="M43.081 8.64539C42.9884 8.60655 42.9286 8.55576 43.0302 8.46313C43.1169 8.50496 43.1288 8.56771 43.081 8.64539Z" fill="#002C4A"/>
<path d="M32.2801 18.3702C32.4206 18.3015 32.4953 18.3374 32.4982 18.5017C32.3847 18.5286 32.31 18.4897 32.2801 18.3702Z" fill="#002C4A"/>
<path d="M32.7731 5.50263C32.7403 5.4608 32.7074 5.42196 32.6745 5.38013C32.7223 5.39208 32.7672 5.40403 32.815 5.41598C32.803 5.44287 32.7881 5.47275 32.7731 5.49964V5.50263Z" fill="#002C4A"/>
<path d="M56.6605 12.7012C56.6605 11.031 56.6605 9.36384 56.6605 7.69366C56.6605 7.1439 56.5261 7.01842 55.9763 7.01543C55.7403 7.01543 55.4355 7.09909 55.3399 6.80628C55.2294 6.46866 55.2443 6.09818 55.337 5.75458C55.3818 5.59025 55.57 5.6261 55.7104 5.62013C56.5291 5.59025 56.6605 5.45281 56.6605 4.63117C56.6605 3.57648 56.6605 2.5188 56.6605 1.4641C56.6605 1.36551 56.6576 1.26392 56.6605 1.16533C56.7024 0.487096 56.7083 0.478132 57.3746 0.484108C57.5897 0.484108 57.7989 0.451242 58.008 0.415389C58.3696 0.355633 58.5966 0.534901 58.5339 0.88746C58.3755 1.78679 58.6056 2.67416 58.5578 3.5705C58.5309 4.09038 58.3905 4.60726 58.5339 5.13909C58.6116 5.4319 58.743 5.54842 59.0299 5.54543C59.5438 5.53946 60.0577 5.55141 60.5716 5.54245C60.8464 5.53647 60.966 5.64702 60.951 5.92488C60.9391 6.11013 60.948 6.29537 60.951 6.48061C60.951 6.97659 60.8703 7.04531 60.3594 7.09311C59.8933 7.13793 59.4332 6.97957 58.9611 7.08116C58.7161 7.13494 58.6086 7.23653 58.5458 7.48152C58.4204 7.9536 58.5458 8.41372 58.5488 8.87981C58.5548 11.6614 58.5488 14.4431 58.5548 17.2277C58.5548 17.5086 58.4592 17.7805 58.513 18.0733C58.5458 18.2555 58.3905 18.4109 58.1544 18.4049C57.8557 18.3989 57.5539 18.3989 57.2551 18.3989C56.7651 18.3989 56.6605 18.2973 56.6605 17.7924C56.6605 16.0953 56.6605 14.3953 56.6605 12.6982V12.7012ZM57.6077 12.6116C57.4075 11.3686 57.9961 9.79408 57.1924 8.34201C57.1266 8.2225 57.1476 8.02829 56.9533 8.05518C56.7771 8.08207 56.8548 8.26134 56.8338 8.37786C56.7591 8.7842 57.0221 9.1278 57.0191 9.53713C56.9952 11.9333 56.9952 14.3296 57.0191 16.7258C57.0221 17.0843 56.8129 17.3711 56.8309 17.7147C56.8368 17.8372 56.8577 17.9358 56.9802 17.9956C57.0908 18.0523 57.1894 18.0284 57.2402 17.9358C57.4643 17.5414 57.8497 17.1948 57.6674 16.672C57.5927 16.4628 57.6047 16.2507 57.6047 16.0386C57.6047 14.9839 57.6047 13.9262 57.6047 12.6116H57.6077Z" fill="#CF7D32"/>
<path d="M86.2935 14.6246C85.9947 15.4074 85.5675 16.1274 85.2 16.8774C84.7667 17.7588 84.3066 18.6252 83.8614 19.5006C83.1653 20.8691 82.4721 22.2375 81.77 23.6029C81.6146 23.9046 81.3607 24.06 81.0051 24.0511C80.5061 24.0391 80.0072 24.0511 79.5082 24.0451C79.1079 24.0391 78.9973 23.8688 79.1736 23.4983C79.4933 22.832 79.8279 22.1717 80.1685 21.5144C80.8677 20.1609 81.5758 18.8134 82.2749 17.46C82.4064 17.209 82.3974 16.958 82.254 16.6891C81.5549 15.3835 80.8766 14.0688 80.1835 12.7602C79.323 11.1378 78.4326 9.53037 77.599 7.89604C77.2704 7.24769 76.8939 6.62922 76.5712 5.97788C76.4009 5.63428 76.4637 5.44007 76.8312 5.41916C77.4407 5.38629 78.0561 5.38331 78.6686 5.40422C78.9107 5.41318 79.0541 5.61038 79.1646 5.82849C79.7263 6.93397 80.291 8.03647 80.8617 9.13897C81.4832 10.3371 82.1166 11.5322 82.741 12.7303C82.9711 13.1725 83.1862 13.6207 83.4103 14.0629C83.473 14.1854 83.5119 14.3586 83.6822 14.3586C83.8764 14.3586 83.9809 14.1973 84.0586 14.0479C84.3544 13.4802 84.6353 12.9066 84.9221 12.3329C85.5974 10.9824 86.2726 9.63195 86.9508 8.28147C87.3661 7.45385 87.7814 6.62922 88.2027 5.80757C88.3401 5.54166 88.5343 5.36239 88.875 5.37434C89.359 5.39227 89.846 5.37434 90.33 5.38032C90.829 5.38629 90.9575 5.58349 90.7304 6.02568C89.9536 7.54647 89.12 9.04037 88.3909 10.5821C87.7754 11.8847 87.0166 13.1097 86.4698 14.4453C86.4339 14.5289 86.3921 14.5977 86.2995 14.6216C86.2995 14.5379 86.2995 14.4513 86.2965 14.3676C86.2786 14.1465 86.4548 13.9882 86.4907 13.785C86.5953 13.7671 86.6491 13.7073 86.6371 13.5968C86.6012 13.3936 86.8104 13.28 86.8253 13.0948C87.0942 12.9813 87.1361 12.7393 87.16 12.4883C87.4229 11.9505 87.6828 11.4097 87.9458 10.8719C88.2296 10.7255 88.2296 10.4118 88.3581 10.1757C88.5344 10.0084 88.5224 9.75744 88.624 9.56024C89.2186 8.41293 89.8131 7.26263 90.4107 6.1183C90.578 5.79861 90.4973 5.64922 90.1239 5.64026C89.7384 5.63129 89.353 5.6552 88.9706 5.63428C88.6897 5.61934 88.4925 5.72989 88.376 5.95995C87.9637 6.76367 87.5663 7.57336 87.163 8.38006C87.0195 8.52348 86.9389 8.69677 86.909 8.89397C86.7028 9.15092 86.6162 9.47061 86.4698 9.75744C85.9768 10.7195 85.439 11.6607 85.0177 12.6586C84.9759 12.6944 84.9191 12.7243 84.8922 12.7691C84.6114 13.2113 84.4351 13.7043 84.211 14.1764C84.0736 14.4632 83.9212 14.7919 83.485 14.6305C83.2609 14.4184 83.1802 14.1286 83.0517 13.8627C83.0517 13.7013 82.9621 13.6177 82.8097 13.5938L82.7948 13.3488C82.7978 13.2382 82.744 13.1785 82.6335 13.1695C82.4871 13.0291 82.5677 12.7751 82.3765 12.6586C82.3167 12.554 82.2749 12.4435 82.2809 12.321C82.2421 12.1208 82.1943 11.9266 81.9522 11.8818L81.9433 11.7204C81.8895 11.5591 81.9194 11.3499 81.6923 11.2872H81.6863C81.6415 11.0721 81.516 10.9077 81.3487 10.7673C81.265 10.4028 81.1694 10.0413 80.9185 9.74549C80.9185 9.63793 80.8587 9.57817 80.7541 9.56921C80.6944 9.3989 80.6346 9.23159 80.5749 9.06128C80.5749 8.95372 80.5181 8.89695 80.4165 8.87903C80.4105 8.85214 80.4075 8.82226 80.3986 8.79537C79.9654 7.78251 79.326 6.87123 78.9166 5.84641C78.8449 5.66715 78.6776 5.62532 78.4894 5.62831C78.0771 5.63428 77.6618 5.62831 77.2494 5.63129C77.0971 5.63129 76.9148 5.58946 76.8341 5.77172C76.7684 5.92111 76.873 6.0466 76.9477 6.16312C77.4198 6.88617 77.8141 7.66001 78.1876 8.42787C78.585 9.24055 79.1138 9.98152 79.4365 10.8301C79.6905 11.4993 80.1775 12.0371 80.4494 12.7004C80.5689 12.9902 80.6585 13.3577 80.9872 13.54L81.1694 14.03C81.1694 14.1555 81.2232 14.2421 81.3397 14.2899C81.767 15.1474 82.1942 16.0019 82.6215 16.8594V17.3674C82.511 17.4899 82.487 17.6482 82.4512 17.8006L82.3586 18.1173C82.0628 18.4549 81.8716 18.8553 81.6803 19.2556C81.6236 19.3692 81.5638 19.4827 81.5071 19.5962C81.2531 19.9697 81.0469 20.3641 80.9005 20.7944L80.8229 20.875C80.5211 21.12 80.4524 21.4935 80.3149 21.8281L80.3 21.9925L80.2163 22.1598C80.0072 22.1867 79.9594 22.3629 79.8936 22.5183C79.813 22.6767 79.7024 22.8261 79.7084 23.0173C79.5321 23.0352 79.5441 23.1607 79.5471 23.2862L79.5291 23.4475C79.5052 23.4475 79.4783 23.4505 79.4544 23.4535C79.2841 23.57 79.1766 23.6836 79.4515 23.8031H79.6277L80.1416 23.8658C80.4374 23.8718 80.7362 23.8658 81.032 23.8837C81.3188 23.9017 81.4921 23.7493 81.5997 23.5252C81.7042 23.3131 81.767 23.08 81.8477 22.8559C81.9313 22.6558 82.1704 22.5273 82.1315 22.2673C82.3616 22.0911 82.4273 21.8162 82.5408 21.5712C82.6574 21.5234 82.7171 21.4397 82.7111 21.3112C82.7918 21.1828 82.8127 21.0394 82.8097 20.89C82.9741 20.7973 83.0697 20.6629 83.0727 20.4687C83.2788 20.3551 83.3326 20.143 83.3983 19.9398C83.3953 19.8173 83.4312 19.7098 83.4999 19.6112C83.8614 19.2825 83.9869 18.8284 84.1722 18.4011C84.3305 18.3354 84.3514 18.2039 84.3425 18.0575L84.3574 17.8992C84.6652 17.8095 84.6472 17.5018 84.7667 17.2867C84.7428 16.9461 85.1342 16.7788 85.1223 16.4411C85.3762 16.2439 85.5077 15.981 85.5406 15.6613C85.5436 15.6344 85.5466 15.6105 85.5495 15.5836C85.6601 15.5747 85.7139 15.5149 85.7109 15.4044C85.7676 15.261 85.8274 15.1205 85.8842 14.9771C86.0814 14.9323 86.0903 14.6574 86.3025 14.6305L86.2935 14.6246Z" fill="#CF7D32"/>
<path d="M29.4387 11.9975C29.4387 13.9664 29.4298 15.9354 29.4447 17.9043C29.4447 18.2688 29.3551 18.4391 28.9667 18.4063C28.6828 18.3824 28.396 18.3854 28.1122 18.4063C27.7477 18.4362 27.5803 18.3107 27.6132 17.9252C27.6401 17.6145 27.6252 17.2978 27.6192 16.9841C27.6162 16.8138 27.6192 16.6136 27.4309 16.5449C27.2547 16.4791 27.1023 16.6016 26.9738 16.7152C26.6123 17.0379 26.3016 17.4084 25.9131 17.7041C25.0049 18.4003 24.0219 18.7588 22.8477 18.7857C21.297 18.8216 19.9704 18.3704 18.7693 17.4442C18.118 16.9423 17.7684 16.2102 17.4099 15.5081C16.8452 14.4056 16.5793 13.1866 16.5823 11.9676C16.5942 9.52655 17.3681 7.35741 19.5999 6.09357C21.1835 5.19723 22.9014 4.85065 24.6762 5.81272C25.5068 6.26388 26.2956 6.7479 27.0097 7.35741C27.1262 7.45601 27.2427 7.53369 27.3951 7.47393C27.6013 7.39326 27.6461 7.19308 27.655 7.0168C27.667 6.72101 27.6491 6.42223 27.6132 6.12942C27.5654 5.73205 27.6879 5.53187 28.1211 5.60059C28.2616 5.6215 28.405 5.60656 28.5484 5.60656C29.142 5.60656 29.4387 5.89638 29.4387 6.47601C29.4387 8.31649 29.4387 10.157 29.4387 11.9975ZM18.4735 12.3799C18.5034 12.7056 18.4018 13.1717 18.5363 13.6139C18.8859 14.7642 19.4685 15.7561 20.4156 16.5359C21.3866 17.3337 22.4951 17.7161 23.7082 17.483C26.2149 17.002 27.2487 15.0958 27.5744 13.1C27.7716 11.8929 27.6849 10.632 27.2786 9.43094C26.9469 8.44795 26.4539 7.61436 25.471 7.13332C24.1444 6.48497 22.8178 6.44314 21.4344 6.969C19.8838 7.55759 19.0472 8.72582 18.6319 10.2586C18.4556 10.9099 18.4586 11.5822 18.4735 12.3799Z" fill="#002C4A"/>
<path d="M27.3682 17.1144C27.2278 17.1144 27.0844 17.1144 26.9439 17.1144C27.0874 16.9292 27.2278 16.7738 27.3682 17.1144Z" fill="#002C4A"/>
<path d="M2.54858 12.5517C2.54858 14.3653 2.54858 16.1759 2.54858 17.9895C2.54858 18.4765 2.46194 18.5662 1.97791 18.5692C1.63432 18.5722 1.29371 18.5751 0.950112 18.5692C0.624442 18.5632 0.460114 18.4078 0.460114 18.0642C0.469077 14.3982 0.472065 10.7292 0.472065 7.06317C0.472065 6.71658 0.612491 6.54927 0.935173 6.69567C1.32359 6.87195 1.66718 6.83012 2.04365 6.66579C2.44102 6.4925 2.54559 6.57914 2.54559 7.03329C2.54559 8.87377 2.54559 10.7143 2.54559 12.5547L2.54858 12.5517ZM2.27669 12.6832C2.27669 11.0011 2.27669 9.31596 2.27669 7.63383C2.27669 7.47847 2.26175 7.32012 2.23486 7.16774C2.19901 6.97353 2.11535 6.83012 1.89127 6.99146C1.712 7.12292 1.50584 7.09006 1.31164 7.06914C0.740966 7.00939 0.729015 7.00939 0.729015 7.60694C0.729015 10.8308 0.729015 14.0546 0.729015 17.2784C0.729015 18.3152 0.729015 18.3003 1.76877 18.3242C2.15718 18.3331 2.29163 18.2256 2.28864 17.8192C2.26773 16.1072 2.27968 14.3952 2.27968 12.6832H2.27669Z" fill="#002C4A"/>
<path d="M94.6593 9.1594C94.6534 8.55885 94.988 8.18538 95.5407 8.17641C96.1263 8.16745 96.5954 8.57977 96.6074 9.11458C96.6193 9.67927 96.1174 10.244 95.5975 10.2499C95.0448 10.2559 94.6623 9.81074 94.6564 9.15641L94.6593 9.1594Z" fill="#002C4A"/>
<path d="M97.3573 8.97362C97.7338 7.84423 96.8643 6.61625 95.6931 6.56845C95.0627 6.54156 94.5518 6.7029 94.1335 7.18094C93.8347 7.52155 93.7809 7.95478 93.6913 8.35813C93.5449 9.00947 93.5001 9.06923 92.8667 8.89594C92.8248 8.88399 92.783 8.881 92.7412 8.87502C92.547 7.88308 92.9204 7.11521 93.5987 6.40412C94.3994 5.56156 95.3734 5.5018 96.4042 5.63924C97.3304 5.76473 98.5315 7.14509 98.5524 8.07728C98.5883 9.67874 98.6182 11.2802 98.6331 12.8817C98.6361 13.3059 98.5226 13.7392 98.5674 14.1545C98.7317 15.6334 98.6391 17.1183 98.6421 18.5943C98.6481 20.2047 98.672 21.8211 98.5584 23.4316C98.5405 23.6766 98.4568 23.7961 98.1999 23.7961C96.4729 23.7931 94.749 23.7871 93.022 23.7961C92.7173 23.7961 92.7203 23.6258 92.7203 23.4106C92.7233 22.1468 92.7203 20.886 92.7203 19.6221C92.7203 17.7637 92.7203 15.9023 92.7203 14.0439C92.7203 13.1894 92.5918 12.3439 92.6336 11.4864C92.6635 10.8619 93.034 10.6169 93.6047 10.8739C93.9363 11.0232 94.247 11.2264 94.6235 11.2533C94.7042 11.2653 94.7818 11.2772 94.8625 11.2892C95.2659 11.7553 95.7678 11.5282 96.1921 11.3997C96.9779 11.1577 97.4918 10.3719 97.5157 9.56222C97.5187 9.43972 97.5127 9.32917 97.3573 9.30825C97.3573 9.19472 97.3573 9.08417 97.3573 8.97063V8.97362ZM94.4412 20.2764C93.9154 20.381 93.7959 20.5304 93.8467 21.0174C93.8855 21.4088 94.0797 21.5552 94.5667 21.5612C94.994 21.5612 95.4242 21.5612 95.8515 21.5642C95.9889 21.5642 96.1742 21.5313 96.2011 21.7196C96.2279 21.9197 96.0218 21.9138 95.8963 21.9466C95.49 22.0512 95.0746 21.9795 94.6623 21.9914C94.1454 22.0034 93.9363 22.1408 93.9303 22.4964C93.9244 22.8639 94.1365 22.9894 94.6384 23.0312C95.1613 23.073 95.6812 23.0222 96.204 23.0222C96.9032 23.0222 97.2378 22.6786 97.2737 21.9795C97.2916 21.618 97.1123 21.2714 97.187 20.9218C97.2946 20.4258 97.2587 19.9299 97.2647 19.4339C97.2707 18.908 97.1093 18.7557 96.5835 18.7407C96.3385 18.7347 96.0845 18.7945 95.8306 18.6869C95.9321 18.5316 96.0696 18.5316 96.1831 18.4868C96.9032 18.188 97.3275 17.6681 97.3394 16.8763C97.3514 16.2788 97.2677 15.7021 96.5984 15.4362C96.5327 15.4093 96.449 15.3077 96.452 15.245C96.461 15.1046 96.5984 15.1434 96.6881 15.1404C96.9032 15.1345 97.0854 15.0568 97.202 14.8805C97.4559 14.507 97.3872 13.3956 97.0824 13.04C96.5656 12.4365 95.7917 11.9764 94.9163 12.4066C94.2829 12.7173 93.7062 13.8049 93.9064 14.516C94.02 14.9253 94.2859 15.1673 94.8058 15.2958C94.5129 15.4362 94.3038 15.3615 94.1933 15.5707C93.5957 16.6971 93.8885 17.8414 94.9581 18.4868C95.0209 18.5256 95.0926 18.5585 95.0896 18.6362C95.0896 18.7258 95.0029 18.7318 94.9312 18.7407C94.7221 18.7676 94.51 18.8214 94.3008 18.8184C94.0259 18.8184 93.9184 18.9917 93.8586 19.1979C93.7959 19.416 93.8526 19.6161 94.0708 19.7506C94.2679 19.8701 94.4831 19.8402 94.6952 19.8552C94.6982 20.0494 94.3516 20.0315 94.4382 20.2764H94.4412Z" fill="#C4801C"/>
<path d="M46.8994 7.77539C47.1265 7.80527 47.258 7.90685 47.243 8.1638C47.2281 8.39984 47.2191 8.63588 47.3745 8.85697C47.4701 8.99441 47.4103 9.19758 47.2609 9.26033C47.1026 9.32904 47.0906 9.1199 47.013 9.03026C46.6843 8.63886 46.8397 8.20265 46.8994 7.77539Z" fill="#CF7D32"/>
<path d="M73.1861 12.1039C73.2787 13.2661 72.959 14.3686 72.3704 15.4024C71.9879 16.0747 71.3187 16.4661 70.7809 16.9859C70.3775 17.3744 69.8576 17.4222 69.3706 17.4879C68.2681 17.6403 67.2224 17.5327 66.2783 16.7828C65.7464 16.3585 65.2684 15.8924 64.865 15.3755C64.384 14.757 64.1659 13.9772 64.0434 13.2034C63.8731 12.0949 63.9299 10.9954 64.2884 9.91981C64.8292 8.28847 65.9227 7.15908 67.5541 6.7139C68.5968 6.42707 69.7262 6.45994 70.7659 6.93201C71.9013 7.4489 72.5885 8.36018 72.9201 9.53438C73.1532 10.356 73.2249 11.2075 73.1861 12.1069V12.1039ZM72.8783 11.8051C72.8186 11.0492 72.7498 10.0991 72.4122 9.19676C72.0537 8.24066 71.4203 7.58335 70.4373 7.21286C69.7023 6.935 68.9733 6.92006 68.2233 6.98878C67.1656 7.08439 66.3111 7.58335 65.5851 8.32731C64.9338 8.99658 64.626 9.83913 64.4766 10.7295C64.1271 12.7881 64.4348 14.6794 66.0871 16.1434C68.2203 18.0347 70.7271 17.2907 72.1104 15.1096C72.6871 14.2043 72.8723 13.0988 72.8753 11.8051H72.8783Z" fill="#CF7D32"/>
<path d="M34.1385 7.26031C34.282 7.37385 34.4254 7.27226 34.5688 7.26031C34.5389 7.48738 34.3686 7.57702 34.1863 7.54714C34.0519 7.52324 34.0041 7.37982 34.1385 7.25732V7.26031Z" fill="#002C4A"/>
<path d="M57.6077 12.6085C57.6077 13.9231 57.6077 14.9808 57.6077 16.0355C57.6077 16.2476 57.5987 16.4598 57.6704 16.6689C57.8527 17.1948 57.4673 17.5414 57.2432 17.9328C57.1894 18.0254 57.0938 18.0493 56.9832 17.9925C56.8607 17.9298 56.8398 17.8342 56.8338 17.7117C56.8159 17.3681 57.0251 17.0812 57.0221 16.7227C56.9952 14.3265 56.9952 11.9303 57.0221 9.53406C57.0251 9.12473 56.7621 8.78114 56.8368 8.3748C56.8577 8.25827 56.7801 8.079 56.9563 8.05211C57.1476 8.02224 57.1296 8.21943 57.1954 8.33894C57.9991 9.79101 57.4105 11.3656 57.6107 12.6085H57.6077Z" fill="#CF7D32"/>
<path d="M83.488 19.6026C83.4192 19.7012 83.3804 19.8117 83.3864 19.9312C83.0816 19.985 83.0189 20.1912 83.0607 20.4601C83.0607 20.6543 82.9621 20.7887 82.7978 20.8813C82.6693 20.8694 82.5827 20.9411 82.508 21.0277C82.3556 21.213 82.1435 21.2937 81.9463 21.1831C81.7431 21.0666 81.8626 20.8246 81.8596 20.6393C81.8596 20.5617 81.9104 20.478 81.9522 20.4063C82.021 20.2838 81.9971 20.1673 81.8865 20.1135C81.6594 20.0029 81.6325 19.7549 81.4951 19.5876C81.5519 19.4741 81.6116 19.3606 81.6684 19.247C82.0777 18.9751 82.3227 18.6076 82.3466 18.1087C82.3765 18.0041 82.4094 17.8965 82.4393 17.792C82.6633 17.7143 82.7082 17.5649 82.6066 17.3587C82.6066 17.1884 82.6066 17.0211 82.6066 16.8508C82.744 16.7432 82.6633 16.5819 82.7022 16.4564C82.8008 16.1427 82.4273 15.9873 82.4661 15.7214C82.49 15.5571 82.4811 15.5033 82.3078 15.4675C81.9522 15.3928 81.8716 15.1388 81.9612 14.8161C82.0986 14.3142 82.2152 13.8481 81.9612 13.3103C81.7341 12.8322 81.8477 12.7366 82.3646 12.647C82.5558 12.7635 82.4751 13.0175 82.6215 13.1579C82.6125 13.2714 82.6693 13.3312 82.7828 13.3372C82.7888 13.4178 82.7918 13.4985 82.7978 13.5822C82.7828 13.7584 82.8755 13.8361 83.0398 13.8511C83.1683 14.117 83.2489 14.4068 83.473 14.6189C83.5477 14.9625 83.7539 14.9446 83.96 14.7623C84.5994 14.2066 84.6652 13.3581 85.0058 12.647C85.427 11.6491 85.9619 10.7079 86.4578 9.74583C86.6042 9.459 86.6879 9.13931 86.897 8.88236C87.1062 8.77181 87.3153 8.66126 87.151 8.36846C87.5544 7.56175 87.9547 6.75206 88.364 5.94834C88.4836 5.71828 88.6778 5.60773 88.9586 5.62267C89.3411 5.64359 89.7295 5.62267 90.1119 5.62865C90.4884 5.63761 90.5661 5.787 90.3987 6.1067C89.8012 7.25401 89.2096 8.40132 88.612 9.54864C88.5075 9.74882 88.5194 9.99681 88.3461 10.1641C87.9667 10.2538 87.9517 10.5585 87.9338 10.8603C87.6709 11.3981 87.4109 11.9389 87.148 12.4767C86.9239 12.6171 86.8104 12.8173 86.8134 13.0832C86.7984 13.2684 86.5893 13.382 86.6251 13.5851C86.5146 13.6001 86.4578 13.6569 86.4788 13.7734C86.4429 13.9765 86.2666 14.1349 86.2845 14.356C85.9858 14.4486 85.8364 14.6428 85.8663 14.9625L85.693 15.3898C85.5794 15.3958 85.5227 15.4525 85.5316 15.569C85.5316 15.5959 85.5256 15.6198 85.5227 15.6467C85.1761 15.7961 85.2 16.1427 85.1044 16.4265C85.1193 16.7642 84.7279 16.9315 84.7488 17.2721C84.4231 17.3498 84.4381 17.6575 84.3395 17.8846L84.3246 18.0429C84.0975 18.0728 84.1692 18.2491 84.1542 18.3865C83.6762 18.6495 83.5896 19.1305 83.482 19.5966L83.488 19.6026Z" fill="#CF7D32"/>
<path d="M80.9782 13.5376C80.6496 13.3583 80.5569 12.9908 80.4404 12.698C80.1685 12.0347 79.6815 11.4969 79.4276 10.8277C79.1079 9.98211 78.576 9.23815 78.1787 8.42547C77.8052 7.65761 77.4108 6.88377 76.9387 6.16072C76.861 6.0442 76.7595 5.91871 76.8252 5.76932C76.9059 5.58707 77.0881 5.6289 77.2405 5.6289C77.6528 5.62591 78.0681 5.63188 78.4804 5.62591C78.6657 5.62591 78.836 5.66475 78.9077 5.84402C79.32 6.86883 79.9564 7.78011 80.3896 8.79297C80.4016 8.81986 80.4016 8.84974 80.4076 8.87663C80.3926 8.99913 80.4494 9.0559 80.5659 9.05889C80.6257 9.22919 80.6854 9.39651 80.7422 9.56681C80.7332 9.64151 80.7512 9.70724 80.8199 9.74907C80.4882 10.018 80.5629 10.3436 80.6884 10.6753C80.7332 10.7948 80.79 10.9113 80.8587 11.0189C80.9962 11.234 81.0021 11.4103 80.7482 11.5417C80.5121 11.6613 80.4703 11.8286 80.5211 12.1005C80.6167 12.6024 80.9095 13.0356 80.9782 13.5406V13.5376Z" fill="#CF7D32"/>
<path d="M80.9782 13.5348C80.9095 13.0299 80.6167 12.5966 80.5211 12.0947C80.4703 11.8198 80.5121 11.6555 80.7482 11.536C81.0021 11.4075 80.9961 11.2312 80.8587 11.0131C80.79 10.9055 80.7362 10.789 80.6884 10.6695C80.5599 10.3379 80.4882 10.0122 80.8199 9.74328C80.8497 9.74328 80.8796 9.7373 80.9095 9.7373C81.1605 10.0331 81.2561 10.3916 81.3397 10.7591C81.3397 11.0071 81.265 11.3029 81.6774 11.282H81.6833C81.6833 11.4224 81.6803 11.5658 81.6774 11.7093C81.6803 12.1514 81.9522 12.6325 81.4772 13.003C81.4503 13.0239 81.4413 13.1225 81.4652 13.1553C81.6176 13.3824 81.5459 13.6543 81.6236 13.8903C81.7222 14.1891 81.5997 14.2817 81.3308 14.2847C81.3368 14.1563 81.3368 14.0338 81.1605 14.0248L80.9782 13.5348Z" fill="#CF7D32"/>
<path d="M80.291 21.9837L80.306 21.8194C80.784 21.667 80.7661 21.2487 80.8139 20.8663C80.8408 20.8394 80.8647 20.8125 80.8916 20.7856C81.1933 20.6362 81.3487 20.6064 81.5788 21.0037C81.8148 21.4131 81.7939 21.909 82.1196 22.2586C82.1614 22.5185 81.9194 22.647 81.8357 22.8472C81.6863 22.8591 81.6086 22.9398 81.5877 23.0892C81.5579 23.3073 81.3816 23.391 81.2083 23.4358C80.9902 23.4926 80.9214 23.2774 80.8438 23.146C80.6257 22.7755 80.6286 22.3004 80.288 21.9867L80.291 21.9837Z" fill="#CF7D32"/>
<path d="M81.3278 14.2874C81.5967 14.2874 81.7192 14.1918 81.6206 13.893C81.5429 13.657 81.6146 13.3851 81.4622 13.158C81.4383 13.1222 81.4443 13.0265 81.4742 13.0056C81.9493 12.6351 81.6803 12.1541 81.6744 11.7119C81.761 11.7119 81.8447 11.7119 81.9313 11.7119C81.9343 11.7657 81.9373 11.8195 81.9403 11.8733C81.9104 12.1242 82.021 12.2706 82.269 12.3125C82.26 12.435 82.3048 12.5455 82.3646 12.6501C81.8477 12.7427 81.7311 12.8383 81.9612 13.3134C82.2182 13.8512 82.1016 14.3173 81.9612 14.8192C81.8716 15.1419 81.9522 15.3959 82.3078 15.4706C82.4811 15.5064 82.49 15.5602 82.4661 15.7245C82.4273 15.9934 82.8008 16.1488 82.7022 16.4595C82.6603 16.588 82.744 16.7463 82.6066 16.8539C82.1793 15.9964 81.7521 15.1419 81.3248 14.2844L81.3278 14.2874Z" fill="#CF7D32"/>
<path d="M80.291 21.983C80.6316 22.2938 80.6287 22.7718 80.8468 23.1423C80.9244 23.2738 80.9902 23.4889 81.2113 23.4321C81.3846 23.3873 81.5608 23.3036 81.5907 23.0855C81.6116 22.9391 81.6893 22.8555 81.8387 22.8435C81.758 23.0676 81.6953 23.3006 81.5907 23.5128C81.4802 23.7369 81.3069 23.8892 81.023 23.8713C80.7273 23.8504 80.4315 23.8594 80.1327 23.8534C80.1596 23.7339 80.1954 23.6144 80.2104 23.4919C80.2492 23.1064 80.0729 22.9451 79.6965 23.0019C79.6905 22.8106 79.801 22.6613 79.8817 22.5029C80.1297 22.5089 80.2462 22.3983 80.2044 22.1444L80.288 21.9771L80.291 21.983Z" fill="#CF7D32"/>
<path d="M82.1196 22.2595C81.7909 21.9099 81.8148 21.4139 81.5788 21.0046C81.3487 20.6072 81.1933 20.6371 80.8916 20.7865C81.035 20.3592 81.2441 19.9619 81.4951 19.5884C81.6326 19.7587 81.6565 20.0037 81.8865 20.1142C81.9971 20.168 82.021 20.2845 81.9522 20.407C81.9104 20.4787 81.8596 20.5624 81.8596 20.6401C81.8626 20.8253 81.7431 21.0673 81.9463 21.1839C82.1435 21.2944 82.3556 21.2137 82.508 21.0285C82.5827 20.9419 82.6693 20.8701 82.7978 20.8821C82.7978 21.0315 82.7799 21.1749 82.6992 21.3034C82.5528 21.3303 82.4064 21.3572 82.5289 21.5633C82.4153 21.8083 82.3496 22.0832 82.1196 22.2595Z" fill="#CF7D32"/>
<path d="M85.0118 12.6538C84.6711 13.3619 84.6054 14.2104 83.966 14.7692C83.7569 14.9514 83.5537 14.9693 83.479 14.6258C83.9152 14.7901 84.0676 14.4584 84.205 14.1716C84.4291 13.7025 84.6084 13.2095 84.8863 12.7644C84.9161 12.7195 84.9699 12.6897 85.0118 12.6538Z" fill="#CF7D32"/>
<path d="M79.6965 23.009C80.0729 22.9493 80.2492 23.1136 80.2104 23.499C80.1984 23.6215 80.1596 23.741 80.1327 23.8605C79.9624 23.8396 79.7891 23.8187 79.6188 23.7978C79.6098 23.6723 79.6576 23.5319 79.5202 23.4423C79.5262 23.3885 79.5321 23.3347 79.5381 23.2809C79.7144 23.269 79.7084 23.1435 79.6994 23.018L79.6965 23.009Z" fill="#CF7D32"/>
<path d="M83.488 19.6026C83.5955 19.1365 83.6822 18.6555 84.1602 18.3926C83.975 18.8168 83.8495 19.274 83.488 19.6026Z" fill="#CF7D32"/>
<path d="M82.3496 18.1123C82.3257 18.6113 82.0807 18.9788 81.6714 19.2507C81.8626 18.8503 82.0538 18.4499 82.3496 18.1123Z" fill="#CF7D32"/>
<path d="M80.8139 20.866C80.7631 21.2484 80.781 21.6637 80.306 21.8191C80.4464 21.4844 80.5121 21.114 80.8139 20.866Z" fill="#CF7D32"/>
<path d="M85.1103 16.4348C85.2059 16.151 85.182 15.8044 85.5286 15.655C85.4958 15.9717 85.3643 16.2376 85.1103 16.4348Z" fill="#CF7D32"/>
<path d="M87.9428 10.8668C87.9607 10.565 87.9756 10.2603 88.3551 10.1707C88.2266 10.4067 88.2266 10.7204 87.9428 10.8668Z" fill="#CF7D32"/>
<path d="M85.8752 14.9679C85.8453 14.6482 85.9947 14.4539 86.2935 14.3613C86.2935 14.445 86.2935 14.5316 86.2965 14.6153H86.2935C86.0784 14.6452 86.0724 14.92 85.8752 14.9649V14.9679Z" fill="#CF7D32"/>
<path d="M81.6774 11.2865C81.265 11.3075 81.3397 11.0117 81.3397 10.7637C81.51 10.9011 81.6355 11.0684 81.6774 11.2865Z" fill="#CF7D32"/>
<path d="M86.8223 13.0909C86.8223 12.825 86.9359 12.6248 87.157 12.4844C87.1331 12.7353 87.0913 12.9744 86.8223 13.0909Z" fill="#CF7D32"/>
<path d="M84.3485 17.8906C84.4471 17.6605 84.4351 17.3558 84.7578 17.2781C84.6383 17.4932 84.6562 17.8009 84.3485 17.8906Z" fill="#CF7D32"/>
<path d="M83.0637 20.4595C83.0219 20.1906 83.0846 19.9874 83.3894 19.9307C83.3236 20.1338 83.2729 20.343 83.0637 20.4595Z" fill="#CF7D32"/>
<path d="M82.2749 12.3142C82.0269 12.2724 81.9164 12.126 81.9463 11.875C82.1913 11.9198 82.2391 12.114 82.2749 12.3142Z" fill="#CF7D32"/>
<path d="M87.157 8.37183C87.3213 8.66762 87.1122 8.77817 86.903 8.88573C86.9359 8.68853 87.0136 8.51225 87.157 8.37183Z" fill="#CF7D32"/>
<path d="M81.9343 11.7122C81.8477 11.7122 81.764 11.7122 81.6774 11.7122C81.6774 11.5688 81.6804 11.4254 81.6833 11.282C81.9104 11.3447 81.8776 11.5539 81.9343 11.7152V11.7122Z" fill="#CF7D32"/>
<path d="M80.2074 22.1531C80.2492 22.407 80.1297 22.5176 79.8847 22.5116C79.9534 22.3562 79.9982 22.18 80.2074 22.1531Z" fill="#CF7D32"/>
<path d="M82.6096 17.3628C82.7111 17.569 82.6663 17.7154 82.4422 17.796C82.4781 17.6436 82.499 17.4883 82.6096 17.3628Z" fill="#CF7D32"/>
<path d="M79.5202 23.4404C79.6576 23.5301 79.6098 23.6705 79.6188 23.796C79.559 23.796 79.4993 23.796 79.4425 23.796C79.4425 23.6795 79.4425 23.5629 79.4455 23.4464C79.4694 23.4434 79.4963 23.4404 79.5202 23.4404Z" fill="#CF7D32"/>
<path d="M79.4455 23.4468C79.4455 23.5633 79.4455 23.6798 79.4425 23.7963C79.1676 23.6768 79.2752 23.5603 79.4455 23.4468Z" fill="#CF7D32"/>
<path d="M82.5289 21.5624C82.4064 21.3563 82.5528 21.3294 82.6992 21.3025C82.7052 21.431 82.6454 21.5146 82.5289 21.5624Z" fill="#CF7D32"/>
<path d="M84.1602 18.3939C84.1752 18.2594 84.1035 18.0802 84.3305 18.0503C84.3395 18.1967 84.3186 18.3282 84.1602 18.3939Z" fill="#CF7D32"/>
<path d="M83.0458 13.8548C82.8814 13.8429 82.7858 13.7652 82.8038 13.5859C82.9591 13.6098 83.0458 13.6935 83.0458 13.8548Z" fill="#CF7D32"/>
<path d="M79.6994 23.0134C79.7084 23.1419 79.7144 23.2644 79.5381 23.2764C79.5351 23.1539 79.5232 23.0254 79.6994 23.0134Z" fill="#CF7D32"/>
<path d="M81.1605 14.0256C81.3368 14.0346 81.3368 14.1571 81.3308 14.2856C81.2143 14.2378 81.1575 14.1511 81.1605 14.0256Z" fill="#CF7D32"/>
<path d="M86.4877 13.7805C86.4698 13.664 86.5236 13.6072 86.6341 13.5923C86.6461 13.7028 86.5923 13.7626 86.4877 13.7805Z" fill="#CF7D32"/>
<path d="M82.7858 13.3448C82.6723 13.3358 82.6185 13.2791 82.6245 13.1655C82.7351 13.1745 82.7888 13.2342 82.7858 13.3448Z" fill="#CF7D32"/>
<path d="M80.5659 9.05579C80.4464 9.0528 80.3896 8.99603 80.4076 8.87354C80.5121 8.88847 80.5659 8.94823 80.5659 9.05579Z" fill="#CF7D32"/>
<path d="M85.5376 15.5738C85.5286 15.4573 85.5854 15.4005 85.6989 15.3945C85.6989 15.5051 85.6452 15.5648 85.5376 15.5738Z" fill="#CF7D32"/>
<path d="M80.9095 9.74073C80.8796 9.74073 80.8497 9.74372 80.8199 9.74671C80.7511 9.70488 80.7332 9.63915 80.7422 9.56445C80.8497 9.57342 80.9065 9.63317 80.9065 9.74073H80.9095Z" fill="#CF7D32"/>
<path d="M18.4735 12.3803C18.4586 11.5826 18.4556 10.9103 18.6319 10.259C19.0472 8.72626 19.8838 7.55803 21.4344 6.96943C22.8178 6.44358 24.1444 6.4884 25.471 7.13376C26.4539 7.61181 26.9469 8.4454 27.2786 9.43138C27.6849 10.6325 27.7716 11.8933 27.5744 13.1004C27.2487 15.0932 26.2149 17.0024 23.7082 17.4835C22.4951 17.7165 21.3866 17.3341 20.4156 16.5364C19.4685 15.7595 18.8859 14.7646 18.5363 13.6143C18.4018 13.1721 18.5034 12.706 18.4735 12.3803ZM27.3802 11.8455C27.4429 11.2659 27.3204 10.6325 27.183 10.008C26.9439 8.93241 26.4838 7.99723 25.4829 7.41163C24.476 6.82303 23.3705 6.75431 22.2919 6.95748C21.1745 7.16961 20.1826 7.69248 19.5521 8.75016C19.104 9.50009 18.8171 10.268 18.7663 11.1523C18.6946 12.4102 18.6319 13.6322 19.2832 14.8034C20.0511 16.1808 21.1596 17.0921 22.7102 17.2594C24.3535 17.4357 25.6383 16.6678 26.5227 15.2904C27.177 14.2686 27.4369 13.1243 27.3802 11.8425V11.8455Z" fill="#002C4A"/>
<path d="M2.27969 12.6832C2.27969 14.3952 2.26773 16.1072 2.28865 17.8192C2.29462 18.2255 2.15719 18.3331 1.76877 18.3241C0.729019 18.3002 0.729019 18.3152 0.729019 17.2784C0.729019 14.0546 0.729019 10.8307 0.729019 7.6069C0.729019 7.01233 0.74097 7.00934 1.31164 7.0691C1.50585 7.09001 1.712 7.12288 1.89127 6.99142C2.11536 6.83008 2.19901 6.97349 2.23487 7.1677C2.26475 7.32007 2.2767 7.47843 2.2767 7.63379C2.2767 9.31592 2.2767 11.001 2.2767 12.6832H2.27969Z" fill="#002C4A"/>
<path d="M94.6952 19.8536C94.483 19.8417 94.2709 19.8716 94.0707 19.7491C93.8496 19.6146 93.7959 19.4144 93.8586 19.1963C93.9184 18.9902 94.0259 18.8139 94.3008 18.8169C94.5099 18.8169 94.7221 18.7661 94.9312 18.7392C95.0029 18.7302 95.0866 18.7243 95.0896 18.6346C95.0896 18.5569 95.0209 18.5241 94.9581 18.4852C93.8885 17.8399 93.5957 16.6926 94.1932 15.5691C94.3038 15.36 94.5129 15.4347 94.8057 15.2943C94.2859 15.1658 94.0199 14.9268 93.9064 14.5144C93.7092 13.8034 94.2858 12.7158 94.9163 12.4051C95.7917 11.9748 96.5655 12.4349 97.0824 13.0385C97.3872 13.394 97.4589 14.5055 97.2019 14.879C97.0824 15.0523 96.9002 15.1299 96.688 15.1389C96.5954 15.1389 96.458 15.103 96.452 15.2435C96.449 15.3062 96.5327 15.4078 96.5984 15.4347C97.2677 15.7006 97.3483 16.2772 97.3394 16.8748C97.3244 17.6636 96.9002 18.1864 96.1831 18.4852C96.0696 18.533 95.9321 18.53 95.8305 18.6854C96.0875 18.793 96.3415 18.7332 96.5835 18.7392C97.1093 18.7541 97.2707 18.9065 97.2647 19.4324C97.2587 19.9283 97.2946 20.4243 97.187 20.9203C97.1093 21.2699 97.2916 21.6164 97.2736 21.978C97.2378 22.6741 96.9061 23.0207 96.204 23.0207C95.6811 23.0207 95.1643 23.0715 94.6384 23.0297C94.1365 22.9908 93.9243 22.8653 93.9303 22.4949C93.9363 22.1363 94.1424 22.0019 94.6623 21.9899C95.0746 21.9809 95.4899 22.0497 95.8963 21.9451C96.0188 21.9122 96.2279 21.9212 96.201 21.718C96.1741 21.5298 95.9889 21.5627 95.8515 21.5627C95.4242 21.5567 94.994 21.5627 94.5667 21.5597C94.0797 21.5567 93.8885 21.4103 93.8466 21.0159C93.7959 20.5289 93.9154 20.3795 94.4412 20.2749C94.8804 20.2749 95.3226 20.2839 95.7618 20.2749C95.8963 20.2719 96.1233 20.3675 96.1293 20.1255C96.1323 19.9313 95.953 19.8507 95.7648 19.8507C95.4093 19.8507 95.0537 19.8507 94.6982 19.8536H94.6952ZM95.9859 14.4637C96.3235 14.2963 96.3086 14.0125 96.1592 13.7555C95.9919 13.4627 95.711 13.3134 95.3704 13.4777C95.0627 13.6271 94.9372 13.8661 95.1194 14.1977C95.1792 14.383 95.239 14.5682 95.2957 14.7565C95.3764 15.0224 95.5826 15.0164 95.7678 14.9327C95.9471 14.8521 95.9859 14.6549 95.9889 14.4637H95.9859ZM95.6602 18.9991C95.3316 18.9991 95.0029 18.9872 94.6773 18.9991C94.4621 19.0081 94.2022 19.041 94.2141 19.3218C94.2261 19.5668 94.4562 19.5967 94.6713 19.5967C95.0716 19.5967 95.472 19.5698 95.8694 19.6146C96.1443 19.6445 96.4819 19.7401 96.4669 20.1016C96.452 20.4661 96.1204 20.5169 95.8305 20.5319C95.475 20.5498 95.1165 20.5378 94.7609 20.5319C94.4741 20.5319 94.1783 20.5408 94.1902 20.9292C94.2022 21.2788 94.492 21.2938 94.7549 21.2997C95.1673 21.3087 95.5826 21.2938 95.9949 21.3296C96.2219 21.3505 96.4729 21.4521 96.464 21.7359C96.452 22.0228 96.2219 22.1244 95.962 22.1692C95.5258 22.2439 95.0866 22.2558 94.6444 22.2439C94.4263 22.2379 94.2112 22.3036 94.2141 22.5516C94.2141 22.7757 94.4412 22.8295 94.6265 22.8355C95.0537 22.8504 95.484 22.8116 95.9112 22.8474C96.9868 22.9341 97.3035 22.0108 96.951 21.2938C96.8554 21.0966 96.8434 20.9263 96.945 20.7291C97.196 20.251 96.9988 19.7521 96.9868 19.2621C96.9808 19.0738 96.7986 18.9932 96.6044 18.9961C96.2907 18.9961 95.9769 18.9961 95.6632 18.9961L95.6602 18.9991ZM94.1783 16.7732C94.1843 17.6815 94.7609 18.3149 95.5855 18.3119C96.443 18.3119 97.0585 17.6008 97.1033 16.6926C97.1392 15.9635 96.1861 15.2644 95.6065 15.2465C94.8804 15.2255 94.1753 15.9904 94.1813 16.7702L94.1783 16.7732ZM97.0914 14.1499C97.0914 13.5285 97.0227 13.3821 96.5147 12.8921C95.9351 12.3304 95.3137 12.4379 94.7221 12.7935C94.247 13.0773 93.9721 14.0932 94.2112 14.5593C94.3187 14.7714 94.507 14.9417 94.7639 14.8252C95.0089 14.7146 94.9312 14.5204 94.8446 14.3173C94.6832 13.9468 94.8446 13.4807 95.1613 13.3163C95.5377 13.1221 96.0965 13.2476 96.3116 13.5763C96.4759 13.8302 96.5446 14.0812 96.3773 14.374C96.2907 14.5234 96.2548 14.7236 96.4401 14.8282C96.6432 14.9417 96.8285 14.8341 96.9659 14.6728C97.1033 14.5085 97.0944 14.3023 97.0884 14.1499H97.0914Z" fill="#C4801C"/>
<path d="M94.6952 19.8521C95.0507 19.8521 95.4063 19.8491 95.7618 19.8491C95.9531 19.8491 96.1293 19.9298 96.1263 20.124C96.1234 20.366 95.8933 20.2704 95.7588 20.2734C95.3196 20.2853 94.8774 20.2734 94.4382 20.2734C94.3516 20.0284 94.6982 20.0463 94.6952 19.8521Z" fill="#C4801C"/>
<path d="M27.3831 11.8494C27.4399 13.1312 27.18 14.2755 26.5256 15.2973C25.6413 16.6747 24.3595 17.4426 22.7132 17.2663C21.1625 17.099 20.0541 16.1907 19.2862 14.8103C18.6319 13.6391 18.6976 12.4171 18.7693 11.1592C18.8201 10.2748 19.1069 9.50698 19.5551 8.75705C20.1855 7.69937 21.1775 7.1765 22.2949 6.96437C23.3735 6.75821 24.482 6.82992 25.4859 7.41851C26.4898 8.00412 26.9499 8.9393 27.1859 10.0149C27.3234 10.6394 27.4459 11.2698 27.3831 11.8524V11.8494ZM18.9576 11.8972C18.9844 12.8802 18.9337 13.5286 19.2384 14.1769C19.7792 15.3302 20.4694 16.2564 21.7093 16.7643C23.0628 17.3171 24.8077 16.9496 25.8145 15.871C26.7438 14.8731 27.0963 13.657 27.1232 12.3275C27.1441 11.3176 27.0814 10.3197 26.7378 9.34564C26.5525 8.81979 26.3045 8.36565 25.8892 8.01309C25.0885 7.33486 24.1593 7.01815 23.1046 7.08388C21.5032 7.18547 20.2453 7.84876 19.4834 9.31278C19.0083 10.227 18.9068 11.21 18.9546 11.8972H18.9576Z" fill="#002C4A"/>
<path d="M95.6602 18.9999C95.974 18.9999 96.2877 18.9999 96.6014 18.9999C96.7956 18.9999 96.9779 19.0776 96.9838 19.2658C96.9958 19.7558 97.193 20.2548 96.942 20.7328C96.8374 20.93 96.8494 21.1003 96.948 21.2975C97.3005 22.0116 96.9838 22.9378 95.9082 22.8512C95.484 22.8153 95.0537 22.8512 94.6235 22.8392C94.4353 22.8332 94.2112 22.7794 94.2112 22.5554C94.2082 22.3074 94.4203 22.2446 94.6414 22.2476C95.0836 22.2596 95.5228 22.2476 95.959 22.1729C96.219 22.1281 96.452 22.0265 96.461 21.7397C96.4729 21.4559 96.219 21.3513 95.9919 21.3334C95.5826 21.2975 95.1673 21.3124 94.752 21.3035C94.489 21.2975 94.1992 21.2855 94.1873 20.933C94.1723 20.5446 94.4711 20.5326 94.7579 20.5356C95.1135 20.5386 95.472 20.5506 95.8276 20.5356C96.1174 20.5207 96.449 20.4699 96.464 20.1054C96.4789 19.7438 96.1443 19.6482 95.8664 19.6184C95.472 19.5765 95.0687 19.6004 94.6683 19.6004C94.4562 19.6004 94.2231 19.5706 94.2112 19.3256C94.1992 19.0447 94.4592 19.0118 94.6743 19.0029C95.0029 18.9879 95.3316 18.9999 95.6573 18.9999H95.6602ZM94.9043 20.7029C94.7281 20.7388 94.4771 20.6432 94.4831 20.8971C94.489 21.1063 94.7191 21.0495 94.8655 21.0525C95.3615 21.0674 95.8634 21.0017 96.3504 21.1601C96.4311 21.187 96.5357 21.2288 96.5596 21.1093C96.5835 20.9868 96.5805 20.8523 96.5596 20.7298C96.5416 20.6223 96.4401 20.6312 96.3534 20.6551C95.8664 20.7836 95.3794 20.8643 94.9073 20.6999L94.9043 20.7029Z" fill="white"/>
<path d="M94.1783 16.7752C94.1753 15.9954 94.8774 15.2305 95.6035 15.2514C96.1831 15.2693 97.1362 15.9685 97.1004 16.6975C97.0585 17.6058 96.4431 18.3139 95.5826 18.3169C94.7579 18.3169 94.1813 17.6864 94.1753 16.7782L94.1783 16.7752ZM95.6154 17.543C96.0845 17.5341 96.4819 17.1935 96.4669 16.817C96.449 16.4136 96.0098 15.9954 95.6154 16.0043C95.2091 16.0133 94.7699 16.4585 94.7878 16.8379C94.8087 17.2144 95.2001 17.549 95.6154 17.54V17.543Z" fill="white"/>
<path d="M97.0914 14.1485C97.0944 14.3008 97.1064 14.507 96.9689 14.6713C96.8315 14.8327 96.6462 14.9402 96.4431 14.8267C96.2578 14.7221 96.2937 14.5189 96.3803 14.3725C96.5506 14.0827 96.4819 13.8288 96.3146 13.5748C96.0995 13.2461 95.5408 13.1207 95.1643 13.3149C94.8476 13.4792 94.6862 13.9453 94.8476 14.3158C94.9342 14.5189 95.0089 14.7131 94.7669 14.8237C94.51 14.9402 94.3217 14.7699 94.2142 14.5578C93.9751 14.0917 94.25 13.0758 94.7251 12.792C95.3167 12.4364 95.9381 12.3289 96.5178 12.8906C97.0257 13.3806 97.0944 13.53 97.0944 14.1485H97.0914Z" fill="white"/>
<path d="M95.1195 14.2024C94.9372 13.8678 95.0627 13.6318 95.3704 13.4824C95.711 13.3151 95.9919 13.4675 96.1592 13.7603C96.3056 14.0172 96.3206 14.301 95.9859 14.4684C95.7917 14.065 95.469 14.0919 95.1195 14.2054V14.2024Z" fill="#C4801C"/>
<path d="M95.1195 14.1998C95.469 14.0862 95.7917 14.0593 95.9859 14.4627C95.9859 14.6539 95.9471 14.8511 95.7648 14.9318C95.5796 15.0154 95.3734 15.0244 95.2928 14.7555C95.236 14.5703 95.1762 14.385 95.1165 14.1968L95.1195 14.1998Z" fill="#C4801C"/>
<path d="M94.9073 20.7012C95.3794 20.8655 95.8664 20.7849 96.3534 20.6564C96.443 20.6325 96.5416 20.6235 96.5596 20.7311C96.5805 20.8536 96.5835 20.988 96.5596 21.1105C96.5357 21.23 96.4311 21.1852 96.3504 21.1613C95.8634 21.003 95.3615 21.0657 94.8655 21.0538C94.7191 21.0508 94.489 21.1075 94.4831 20.8984C94.4771 20.6444 94.7281 20.74 94.9043 20.7042L94.9073 20.7012Z" fill="white"/>
<path d="M95.6154 17.5398C95.2001 17.5487 94.8057 17.2141 94.7878 16.8376C94.7669 16.4552 95.2091 16.013 95.6154 16.004C96.0098 15.9951 96.449 16.4104 96.467 16.8167C96.4849 17.1932 96.0845 17.5338 95.6154 17.5428V17.5398Z" fill="#C4801C"/>
</g>
<defs>
<clipPath id="clip0_279_2905">
<rect width="99.15" height="24.3117" fill="white"/>
</clipPath>
</defs>
</svg>
