<svg width="100" height="22" viewBox="0 0 100 22" fill="none" xmlns="http://www.w3.org/2000/svg">
<g clip-path="url(#clip0_8184_3899)">
<path fill-rule="evenodd" clip-rule="evenodd" d="M44.6154 5.48887C48.4308 5.48887 51.5216 8.34118 51.5216 11.8581C51.5216 15.375 48.4324 18.2273 44.6139 18.2273C40.7985 18.2273 37.737 15.375 37.737 11.8581C37.737 8.34118 40.8293 5.48887 44.6139 5.48887H44.6154ZM44.6154 16.5504C47.1877 16.5504 49.2493 14.4581 49.2493 11.8735C49.2493 9.2858 47.1877 7.16272 44.6154 7.16272C42.0431 7.16272 40.0123 9.25195 40.0123 11.872C40.0123 14.4935 42.0754 16.5504 44.6154 16.5504ZM65.5 13.7612C65.4988 13.6472 65.4525 13.5384 65.3712 13.4585C65.2898 13.3786 65.1802 13.3342 65.0662 13.335H63.66C63.5738 13.3351 63.4895 13.3607 63.4177 13.4086C63.346 13.4565 63.2901 13.5246 63.257 13.6043C62.6385 15.3027 61.1554 16.5073 58.8462 16.5073C56.3616 16.5073 54.3693 14.4243 54.3693 11.8443C54.3693 9.26272 56.3616 7.14887 58.8462 7.14887C60.8739 7.14887 62.3447 8.17657 63.057 9.6458C63.1277 9.78118 63.2754 9.87657 63.44 9.87657H64.8462C64.9599 9.87698 65.0692 9.83241 65.1502 9.75258C65.2312 9.67274 65.2773 9.56413 65.2785 9.45041C65.2785 9.32887 65.22 9.21041 65.22 9.21041C63.5154 5.45041 58.8662 5.47657 58.8662 5.47657C55.1293 5.47657 52.1016 8.32734 52.1016 11.8443C52.1016 15.3596 55.1293 18.2104 58.8662 18.2104C58.8662 18.2104 63.5216 18.5181 65.44 14.0304C65.44 14.0304 65.5 13.8966 65.5 13.7581V13.7612ZM33.1385 16.1596C34.1477 15.6643 34.877 14.5289 34.877 13.1781V6.39811C34.8782 6.28439 34.9243 6.17578 35.0053 6.09594C35.0863 6.01611 35.1956 5.97154 35.3093 5.97195H36.717C36.8307 5.97154 36.94 6.01611 37.0209 6.09594C37.1019 6.17578 37.1481 6.28439 37.1493 6.39811L37.1431 13.0227C37.1431 16.0027 34.8477 18.1843 31.9877 18.1843H31.1416C30.0724 18.1843 28.897 17.8043 28.897 17.8043C27.0616 17.2289 25.7339 15.5766 25.7339 13.6304V13.5673C25.7351 13.4534 25.7814 13.3445 25.8628 13.2646C25.9441 13.1848 26.0538 13.1404 26.1677 13.1412H27.3031C27.7293 13.1412 27.7154 13.5243 27.7154 13.5243V13.6135C27.7154 15.2212 29.3308 16.5243 31.32 16.5243C31.32 16.5243 32.3047 16.5704 33.1416 16.1596H33.1385ZM78.1616 16.9966L73.3231 10.0443L76.777 6.56888C76.777 6.56888 76.8723 6.47657 76.8723 6.29964C76.8723 6.29964 76.8754 5.97195 76.58 5.97195H74.857C74.7411 5.97214 74.63 6.01802 74.5477 6.09964L68.9231 11.6443V6.39811C68.9219 6.28439 68.8758 6.17578 68.7948 6.09594C68.7138 6.01611 68.6045 5.97154 68.4908 5.97195H67.7939C67.7939 5.97195 66.6524 5.91041 66.6524 7.41195V17.1904C66.6536 17.3039 66.6995 17.4122 66.7801 17.492C66.8608 17.5718 66.9697 17.6166 67.0831 17.6166H67.7816C67.7816 17.6166 68.9231 17.6781 68.9231 16.1766V14.4689L71.78 11.592L75.8324 17.3966C75.9216 17.5181 76.0785 17.5966 76.197 17.5966H77.96C78.2554 17.5966 78.2523 17.2689 78.2523 17.2689C78.2523 17.132 78.157 16.9996 78.157 16.9996L78.16 16.9966H78.1616ZM86.3277 12.3966C86.8277 12.3966 87.2354 11.9966 87.2354 11.5043C87.2354 11.012 86.8277 10.612 86.3277 10.612H81.2985V7.75657H87.02C87.52 7.75657 87.9262 7.35657 87.9262 6.86426C87.9262 6.37195 87.52 5.97195 87.0185 5.97195H79.8124C79.7079 5.97094 79.6043 5.99051 79.5074 6.02954C79.4105 6.06858 79.3222 6.12632 79.2477 6.19946C79.1731 6.27261 79.1137 6.35973 79.0728 6.45584C79.0319 6.55196 79.0103 6.65519 79.0093 6.75964V16.8058C79.0093 17.2396 79.3693 17.5966 79.8124 17.5966H87.02C87.52 17.5966 87.9262 17.1966 87.9262 16.7043C87.9262 16.212 87.52 15.812 87.0185 15.812H81.2985V12.3966H86.3293H86.3277ZM92.9385 16.7043C92.9385 17.2058 93.297 17.612 93.7416 17.612H94.4385C94.88 17.612 95.2385 17.2058 95.2385 16.7043V13.4135L99.8554 6.83811C100.009 6.56272 100 6.41503 100 6.41503C99.9984 6.30159 99.9521 6.19336 99.8712 6.11386C99.7902 6.03436 99.6812 5.99 99.5677 5.99041H98.0262C98.0262 5.99041 97.6216 5.96426 97.3154 6.43811L93.9754 11.2181L91.0524 6.43811C90.7462 5.96426 90.3447 5.99041 90.3447 5.99041H88.96C88.8469 5.9904 88.7382 6.03494 88.6576 6.1144C88.577 6.19386 88.5309 6.30185 88.5293 6.41503C88.5293 6.41503 88.5185 6.56272 88.6724 6.83811L92.9447 13.5243V16.7043H92.9385Z" fill="#231F20"/>
<path d="M96.8184 17.6623V16.6669H96.4568V16.4638H97.4261V16.6669H97.0661V17.6638H96.8184V17.6623ZM97.5814 17.6623V16.4669H97.9491L98.1691 17.2838L98.3876 16.4684H98.7553V17.6638H98.5245V16.7223L98.2845 17.6638H98.0491L97.8076 16.7223V17.6638H97.5768H97.5814V17.6623ZM21.7691 16.4269C21.7691 16.4269 21.3645 16.1638 21.1676 16.0654C21.1676 16.0654 17.9061 14.4192 15.9107 17.7884C15.1168 19.2715 15.6584 20.4346 15.6584 20.4346C14.5245 20.5084 13.2276 20.2438 11.9814 19.6192C10.4968 18.8684 9.39836 17.7592 8.87836 16.6146C8.87836 16.6146 8.27836 15.4192 8.39836 13.9684C8.76505 14.4901 9.25214 14.9156 9.81832 15.2088C10.3845 15.5021 11.0131 15.6545 11.6507 15.6531C15.3584 15.6531 17.8661 12.8269 17.8661 12.8269C18.8661 11.6531 19.5076 9.84536 19.5076 7.82074C19.5076 5.9469 18.9537 4.26382 18.0799 3.09459L18.0737 3.08536C17.4414 2.21613 16.4999 1.42074 15.3322 0.840742C14.1568 0.256127 12.9384 -0.016181 11.8445 0.000742058H11.6137C11.6137 0.000742058 11.0199 0.000742078 10.9291 0.73305C10.9291 0.73305 10.8614 1.22382 10.8768 1.43767C10.8768 1.43767 10.8737 5.0869 14.9107 5.26074C16.6491 5.26074 17.4737 4.23613 17.4737 4.23613C18.0676 5.20074 18.4276 6.46843 18.4276 7.86228C18.4276 9.5269 17.9091 11.0161 17.0937 12.0161C17.0937 12.0161 16.3784 12.9623 15.1522 13.5592C15.5282 12.8491 15.671 12.0387 15.5606 11.2429C15.4501 10.4471 15.0919 9.70621 14.5368 9.12536C12.683 6.26536 9.23682 5.60843 9.23682 5.60843C7.72759 5.34997 5.84144 5.70997 4.07221 6.71767C2.43683 7.6469 1.23836 8.94843 0.64144 10.2654V10.2746C0.187594 11.2361 -0.0508674 12.4207 0.00913258 13.6869C0.070671 14.9638 0.424517 16.1192 0.970671 17.03L1.08298 17.2238C1.08298 17.2238 1.33221 17.71 2.05375 17.4346C2.05375 17.4346 2.4999 17.253 2.69221 17.13C2.69221 17.13 5.8799 15.3207 4.06913 11.8469C3.22452 10.3869 1.93067 10.2054 1.93067 10.2054C2.48452 9.22843 3.41682 8.29305 4.63221 7.60536C6.08606 6.7792 7.63682 6.47151 8.90144 6.6592C8.90144 6.6592 10.3907 6.82228 11.6061 7.82843L11.7214 7.88536L11.6476 7.88228C10.7289 7.87745 9.8374 8.19434 9.12786 8.77799C8.41831 9.36165 7.93543 10.1752 7.76298 11.0777C6.62144 14.01 7.79221 16.9084 7.79221 16.9084C8.38298 18.2915 9.70759 19.6515 11.5184 20.5623C13.1922 21.4038 14.9491 21.6884 16.3953 21.4684H16.403C17.4676 21.3146 18.6091 20.8715 19.6599 20.1361C20.7168 19.3946 21.5168 18.4792 21.9984 17.5377L22.1061 17.3407C22.1061 17.3407 22.4091 16.8546 21.7645 16.4284L21.7707 16.4254L21.7691 16.4269ZM11.6522 8.94536C13.2353 8.94536 14.5184 10.2069 14.5184 11.7669C14.5184 13.3254 13.2353 14.5869 11.6522 14.5869C10.0676 14.5869 8.78606 13.3254 8.78606 11.7669C8.78606 10.2084 10.0691 8.94536 11.6522 8.94536ZM14.8861 4.18382C11.8184 4.18382 11.9737 1.09613 11.9737 1.09613C13.0691 1.04997 14.2968 1.36228 15.4261 2.05459C16.023 2.4192 16.5337 2.85613 16.9491 3.33151C16.9491 3.33151 16.3476 4.18382 14.8876 4.18382H14.8861ZM16.8784 18.2146C18.3353 15.61 20.9691 17.2084 20.9691 17.2084C20.4861 18.1623 19.6307 19.0546 18.4876 19.6854C17.8845 20.0192 17.2568 20.2438 16.6414 20.3715C16.6414 20.3715 16.183 19.4546 16.8784 18.2146ZM3.14913 12.3946C4.62606 14.9869 1.8599 16.3454 1.8599 16.3454C1.29067 15.4423 0.973748 14.2531 1.03221 12.9654C1.06452 12.2854 1.19682 11.6423 1.41221 11.0592C1.41221 11.0592 2.44606 11.1607 3.15067 12.3946H3.14913Z" fill="#231F20"/>
</g>
<defs>
<clipPath id="clip0_8184_3899">
<rect width="100" height="21.5385" fill="white"/>
</clipPath>
</defs>
</svg>
