<svg width="100" height="26" viewBox="0 0 100 26" fill="none" xmlns="http://www.w3.org/2000/svg">
<g clip-path="url(#clip0_279_3028)">
<path d="M75.525 0.318646V0.862191C75.0122 0.862191 74.5138 0.874748 74.0171 0.856809C73.7787 0.84784 73.6048 0.923183 73.4362 1.08284C73.0938 1.40932 72.728 1.71249 72.3892 2.04436C72.2941 2.13764 72.2117 2.2955 72.2117 2.42466C72.2027 5.57292 72.2027 8.71938 72.2099 11.8676C72.2099 11.986 72.2655 12.1278 72.3408 12.221C72.6599 12.6085 72.9916 12.987 73.3358 13.3512C73.4201 13.4409 73.5725 13.5055 73.6962 13.5108C74.1606 13.5288 74.6249 13.518 75.0893 13.518C75.4252 13.518 75.5644 13.695 75.507 14.049H65.4524V13.518C65.8827 13.518 66.3094 13.4839 66.7272 13.527C67.1951 13.5754 67.4658 13.3853 67.767 13.0372C68.2655 12.465 68.4358 11.8658 68.425 11.1088C68.3838 8.06641 68.4089 5.0222 68.4053 1.97798C68.4053 1.83447 68.486 1.63535 68.2386 1.59051C68.0163 1.55104 67.9159 1.68379 67.8316 1.86138C66.0082 5.67876 64.1812 9.49254 62.356 13.3099C62.3399 13.344 62.3291 13.3835 62.304 13.4104C62.2126 13.5144 62.1176 13.6149 62.0244 13.7153C61.9204 13.6131 61.7805 13.5288 61.7142 13.405C59.6918 9.61273 57.6783 5.81689 55.6613 2.02104C55.5717 1.85062 55.5017 1.60665 55.2489 1.66585C54.9926 1.72684 55.0445 1.9726 55.0445 2.16634C55.0445 5.11548 55.0445 8.06282 55.0392 11.012C55.0392 11.2344 55.0947 11.4066 55.2489 11.5699C55.7814 12.1349 56.3068 12.7072 56.8231 13.2884C56.9683 13.4516 57.1154 13.527 57.3359 13.5162C57.6747 13.4983 58.0136 13.5108 58.3686 13.5108V14.04H50.9693C50.9567 14.0059 50.9406 13.9808 50.9388 13.9539C50.9185 13.6585 51.0523 13.5108 51.3404 13.5108C51.681 13.5108 52.0235 13.5216 52.3641 13.5037C52.4628 13.4983 52.5865 13.4427 52.6474 13.3673C53.1638 12.7377 53.673 12.1008 54.1732 11.4568C54.2413 11.3689 54.2826 11.2344 54.2826 11.1214C54.2879 8.15431 54.2915 5.18544 54.2808 2.21836C54.2808 1.96005 54.2126 1.68917 54.1158 1.44879C53.9527 1.04517 53.6425 0.837077 53.1817 0.84784C52.4448 0.863985 51.7079 0.851428 50.9531 0.851428V0.302501H51.2687C53.7142 0.302501 56.1579 0.306089 58.6035 0.297119C58.824 0.297119 58.9352 0.363493 59.0391 0.559025C60.5022 3.33954 61.9759 6.11646 63.4479 8.89339C63.4874 8.96694 63.534 9.03869 63.6039 9.1535C63.8029 8.74091 63.9876 8.36419 64.1687 7.98389C65.3556 5.49937 66.5407 3.01305 67.724 0.526736C67.7957 0.374256 67.8746 0.297119 68.0593 0.298913C70.4761 0.306089 72.8912 0.302501 75.308 0.304295C75.3726 0.304295 75.4371 0.313264 75.5268 0.32044L75.525 0.318646Z" fill="#75461A"/>
<path d="M0.869926 14.0491V13.5199C1.29305 13.5199 1.72156 13.4787 2.13931 13.5289C2.74531 13.6024 3.13617 13.3639 3.54674 12.9226C4.00035 12.4346 4.17785 11.9557 4.16888 11.2919C4.13303 8.33381 4.15095 5.37571 4.15813 2.4176C4.15813 2.22207 4.1133 2.07497 3.9627 1.9476C3.81927 1.82562 3.66687 1.69826 3.56288 1.54578C3.15768 0.94662 2.59829 0.767233 1.90264 0.855133C1.56916 0.896392 1.22492 0.862308 0.871719 0.862308V0.320557H10.609V0.864102C10.2666 0.864102 9.91875 0.847957 9.57272 0.871278C9.4257 0.880247 9.26613 0.944827 9.14242 1.02914C8.93982 1.16727 8.77667 1.36639 8.57048 1.49375C8.18321 1.73234 8.10253 2.05703 8.1097 2.49474C8.1348 4.22045 8.12046 5.94616 8.12046 7.67008V8.09882C10.8295 6.37131 13.4866 4.6761 16.1814 2.95756C15.8389 2.60058 15.518 2.26153 15.1935 1.92608C14.9102 1.63188 14.6377 1.32692 14.3383 1.05425C14.2271 0.952002 14.0514 0.885629 13.8972 0.871278C13.5996 0.842575 13.2966 0.862308 12.9793 0.862308V0.320557H22.2576V0.864102C21.7932 0.864102 21.3306 0.856927 20.8699 0.86769C20.7444 0.871278 20.6009 0.894598 20.4987 0.960971C18.5301 2.22207 16.5651 3.49213 14.6 4.76041C14.5624 4.78552 14.5283 4.81781 14.4674 4.86625C14.5803 5.01334 14.6861 5.15506 14.7955 5.29319C16.8878 7.95172 18.9819 10.6067 21.0707 13.2688C21.2123 13.45 21.3539 13.5414 21.5906 13.5271C21.9384 13.5056 22.288 13.5217 22.6538 13.5217V14.0473H13.085V13.5396C13.1836 13.5343 13.284 13.5217 13.3827 13.5217C13.847 13.5199 14.3114 13.5109 14.7757 13.5253C14.9694 13.5325 15.0644 13.4625 15.1361 13.2885C15.2545 12.9997 15.4069 12.7252 15.5198 12.4346C15.5557 12.3431 15.5431 12.1871 15.4857 12.1135C14.1662 10.4273 12.8358 8.74999 11.5126 7.06554C11.4069 6.931 11.3244 6.92382 11.1845 7.01172C10.2235 7.61806 9.25537 8.21183 8.29796 8.82354C8.21011 8.88095 8.13301 9.02984 8.13122 9.13747C8.11867 10.1331 8.12046 11.1287 8.12943 12.1243C8.12943 12.2337 8.17963 12.3682 8.25493 12.4472C8.55435 12.7647 8.86452 13.0714 9.18724 13.3639C9.28047 13.4482 9.42929 13.5074 9.55658 13.5145C9.90441 13.5343 10.2522 13.5217 10.6198 13.5217V14.0509H0.869926V14.0491Z" fill="#75461A"/>
<path d="M99.9498 14.0562H89.5742V13.5198C90.1713 13.5198 90.7593 13.4857 91.342 13.5306C91.8405 13.57 92.104 13.4068 92.3425 12.9512C92.5971 12.4668 92.6204 12.1152 92.312 11.6488C91.819 10.899 91.4048 10.0971 90.9655 9.31137C90.8759 9.15351 90.7773 9.08714 90.5872 9.08893C88.7387 9.09611 86.892 9.09611 85.0435 9.08893C84.8517 9.08893 84.7567 9.15889 84.6724 9.31855C84.3246 9.98049 83.9714 10.6406 83.6092 11.2936C83.5249 11.4461 83.5285 11.5573 83.6146 11.708C83.9176 12.2318 84.2116 12.7628 84.4931 13.2992C84.5863 13.4786 84.7047 13.5306 84.8965 13.5234C85.2928 13.5108 85.689 13.5198 86.1067 13.5198V14.0544H79.3851V13.5198C79.6056 13.4732 79.8333 13.4247 80.0628 13.3763C81.2515 13.1252 82.1175 12.4166 82.7163 11.3977C83.4514 10.1491 84.1345 8.87187 84.832 7.6036C86.1587 5.18904 87.4819 2.77268 88.7943 0.350946C88.9144 0.128505 89.0525 0.0764825 89.2945 0.0477805C89.7965 -0.0150053 90.0368 0.202054 90.2753 0.62541C92.4196 4.44817 94.5998 8.25119 96.7423 12.0757C97.273 13.0211 98.0565 13.4445 99.0946 13.5001C99.2452 13.5073 99.3976 13.5037 99.55 13.5073C100.032 13.5198 100.056 13.5503 99.9498 14.0544V14.0562ZM90.4635 8.52386C90.4635 8.46646 90.4707 8.44313 90.4635 8.42878C89.6836 6.89502 88.9055 5.35946 88.1202 3.82748C88.018 3.62657 87.8387 3.61401 87.6827 3.78443C87.6146 3.85977 87.5608 3.95306 87.5124 4.04454C86.7719 5.45094 86.0314 6.85735 85.2928 8.26375C85.2533 8.34088 85.2246 8.4234 85.1834 8.52386H90.4635Z" fill="#75461A"/>
<path d="M26.505 14.0478V13.524C26.7488 13.472 26.9873 13.42 27.2257 13.3697C28.4808 13.0971 29.3432 12.3042 29.9581 11.2296C30.7578 9.834 31.5197 8.41683 32.2943 7.00684C33.5188 4.77526 34.7434 2.54188 35.9608 0.306706C36.0612 0.12373 36.1831 0.0842651 36.3803 0.055563C36.8949 -0.0197799 37.1585 0.190104 37.4095 0.638574C39.5233 4.4129 41.6856 8.16031 43.7868 11.9418C44.4 13.045 45.2768 13.5222 46.487 13.5115C46.6573 13.5115 46.8276 13.5204 46.998 13.5258C47.0248 13.5258 47.0517 13.5366 47.1001 13.5473V14.0568H36.6959V13.5384C36.7909 13.533 36.8895 13.524 36.9899 13.524C37.6336 13.524 38.279 13.5186 38.9227 13.5258C39.084 13.5258 39.1809 13.4827 39.2544 13.3303C39.396 13.0325 39.5717 12.7491 39.7116 12.4495C39.751 12.3652 39.751 12.2252 39.7062 12.1445C39.1719 11.1848 38.6286 10.2304 38.0746 9.28328C38.0208 9.19358 37.8738 9.10568 37.7698 9.10568C35.8855 9.09492 33.9993 9.09492 32.115 9.10568C32.02 9.10568 31.8855 9.19 31.8371 9.27431C31.4552 9.95957 31.0859 10.6538 30.7255 11.3516C30.6843 11.4323 30.6878 11.5759 30.7309 11.6566C31.0321 12.2252 31.3405 12.7903 31.6668 13.3446C31.7188 13.4343 31.8676 13.5097 31.9734 13.515C32.3875 13.5348 32.8035 13.5222 33.2356 13.5222V14.0496H26.5068L26.505 14.0478ZM37.6318 8.52447C37.5834 8.41683 37.5583 8.34867 37.5242 8.28229C37.2015 7.65085 36.8806 7.0194 36.556 6.38796C36.1293 5.5556 35.7008 4.72144 35.2723 3.89088C35.1253 3.60386 34.9209 3.59489 34.7452 3.86576C34.7147 3.9124 34.6896 3.96443 34.6627 4.01465C33.9205 5.41926 33.1764 6.82387 32.4359 8.22848C32.3893 8.31458 32.3517 8.40607 32.2961 8.52626H37.63L37.6318 8.52447Z" fill="#75461A"/>
<path d="M42.8778 23.2037C42.8778 23.8495 42.8563 24.4827 42.8868 25.1124C42.9047 25.4622 43.1091 25.6003 43.4821 25.638C43.6201 25.6523 43.7564 25.681 43.8926 25.7043L43.8801 25.8066H41.0885L41.0688 25.7187C41.171 25.6918 41.2714 25.6505 41.3754 25.6415C41.8631 25.5949 42.0334 25.4299 42.0352 24.9401C42.0406 23.4423 42.0406 21.9462 42.0352 20.4483C42.0352 19.9639 41.8559 19.7971 41.361 19.763C41.266 19.7558 41.171 19.7307 41.076 19.7146L41.0796 19.6141C41.2588 19.598 41.4381 19.5729 41.6174 19.5657C42.6089 19.5244 43.6022 19.4096 44.5883 19.598C44.8626 19.65 45.1423 19.7379 45.3915 19.8635C46.5408 20.4429 46.6125 21.9408 45.5296 22.6404C45.3664 22.7462 45.1835 22.8216 45.0114 22.9113C45.7644 23.6396 46.4995 24.3751 47.2615 25.0819C47.656 25.4478 48.1329 25.6792 48.6779 25.7492C48.7478 25.7581 48.8124 25.8066 48.8859 25.8407C48.8536 25.8963 48.8447 25.925 48.8339 25.925C47.8478 26.0129 46.9316 25.8837 46.184 25.1428C45.5923 24.5563 44.9827 23.9894 44.3803 23.4135C44.201 23.2413 44.0038 23.1642 43.742 23.1965C43.4659 23.2306 43.1808 23.2037 42.8796 23.2037H42.8778ZM42.8778 23.0081C43.2077 23.0081 43.5179 23.0225 43.8263 23.0045C44.7461 22.9525 45.2857 22.4162 45.3592 21.5013C45.4184 20.7407 45.1459 20.1702 44.5775 19.9029C44.0379 19.6482 43.4677 19.6518 42.8778 19.7038V23.0063V23.0081Z" fill="#75461A"/>
<path d="M80.0682 19.7125C80.3282 19.6946 80.5864 19.6623 80.8463 19.6605C81.8199 19.6497 82.797 19.6084 83.767 19.6605C84.2762 19.6874 84.8015 19.8201 85.273 20.0192C86.8078 20.6668 87.3994 22.3943 86.6554 23.955C86.0314 25.261 84.9306 25.8637 83.5393 25.9319C82.4151 25.9857 81.2856 25.9426 80.1579 25.9408C80.131 25.9408 80.1041 25.9283 80.027 25.9103C80.0844 25.8529 80.1148 25.7937 80.1579 25.783C80.2583 25.7561 80.364 25.7543 80.4662 25.7399C80.7925 25.6933 80.9288 25.5659 80.988 25.2376C81.0041 25.1444 81.0095 25.0493 81.0095 24.956C81.0095 23.5352 81.0095 22.1127 81.0095 20.6919C81.0095 20.6453 81.0095 20.5969 81.0095 20.5502C80.979 20.0731 80.8248 19.9188 80.3461 19.8757C80.2475 19.8668 80.1507 19.8434 80.0539 19.8273L80.0682 19.7143V19.7125ZM81.8235 22.6491C81.8235 23.5119 81.8217 24.3748 81.8235 25.2358C81.8235 25.5964 81.931 25.7238 82.2914 25.7363C82.7163 25.7507 83.1431 25.7507 83.5644 25.7166C84.2206 25.6628 84.7872 25.3973 85.2336 24.9022C85.8468 24.2223 86.0673 23.4097 86.0225 22.5145C85.9543 21.1189 85.1547 20.1556 83.7849 19.9008C83.2417 19.8004 82.6751 19.8345 82.1193 19.7986C81.8773 19.7825 81.8163 19.8919 81.8181 20.1179C81.8289 20.961 81.8217 21.8042 81.8217 22.6491H81.8235Z" fill="#75461A"/>
<path d="M27.1468 19.5389H29.6426L29.6856 19.6214C29.6246 19.6591 29.5655 19.7201 29.5009 19.7291C28.9218 19.8026 28.8017 19.9282 28.7999 20.504C28.7963 21.3956 28.8107 22.2871 28.7963 23.1769C28.7694 24.8308 29.8739 25.4982 31.3118 25.4264C31.518 25.4157 31.7259 25.3816 31.9267 25.3313C32.782 25.1179 33.3449 24.4649 33.3718 23.5823C33.4023 22.5508 33.3898 21.5158 33.3754 20.4825C33.3682 19.9874 33.1621 19.8008 32.6582 19.7416C32.5686 19.7308 32.4825 19.6788 32.3965 19.6447L32.427 19.5533H34.799C34.7022 19.6429 34.6573 19.7237 34.6071 19.7273C33.9527 19.7739 33.838 20.1793 33.8344 20.7372C33.829 21.6377 33.8398 22.5383 33.8308 23.4388C33.8236 24.2694 33.4991 24.9474 32.8106 25.4282C31.8192 26.1206 30.0029 26.1314 29.0007 25.4497C28.2907 24.9672 27.9895 24.2676 27.9805 23.4316C27.9698 22.445 27.9805 21.4601 27.977 20.4735C27.977 19.9156 27.8586 19.79 27.3172 19.7291C27.2419 19.7201 27.1719 19.6717 27.1002 19.6429L27.1468 19.5371V19.5389Z" fill="#75461A"/>
<path d="M73.7285 24.5134C73.6783 24.9816 73.6281 25.4498 73.5761 25.9198H68.2691L68.2493 25.8444C68.3228 25.8211 68.3928 25.7834 68.4681 25.778C69.3771 25.7188 69.4811 25.6112 69.4811 24.6999C69.4811 23.4388 69.4811 22.1795 69.4811 20.9184C69.4811 20.8323 69.4829 20.748 69.4811 20.6619C69.4578 20.0735 69.2964 19.9121 68.7119 19.8726C68.6258 19.8672 68.5434 19.8367 68.4591 19.8188L68.4699 19.7327H73.2641C73.291 20.1596 73.3179 20.5973 73.3448 21.0368L73.2802 21.0727C73.2372 21.0225 73.1763 20.9776 73.1529 20.9184C73.0974 20.7695 73.0669 20.6081 73.0095 20.4592C72.9073 20.1937 72.7065 20.0502 72.4214 20.0484C71.7867 20.043 71.1521 20.0412 70.5174 20.0538C70.4474 20.0538 70.3201 20.1524 70.3184 20.208C70.3058 20.974 70.3094 21.7382 70.3094 22.5293C70.9674 22.5293 71.5985 22.5455 72.2296 22.5221C72.5254 22.5114 72.6115 22.2549 72.6707 22.0019C72.6886 21.9248 72.7388 21.8548 72.7746 21.7813L72.8571 21.8136V23.6415L72.8051 23.69C72.7603 23.6308 72.6904 23.5769 72.6742 23.5124C72.5398 22.9634 72.4412 22.8809 71.88 22.8809C71.3708 22.8809 70.8616 22.8809 70.3094 22.8809C70.3094 23.1428 70.3094 23.3742 70.3094 23.6074C70.3094 24.1097 70.304 24.612 70.313 25.1143C70.3184 25.4569 70.4403 25.5753 70.7827 25.5789C71.3027 25.5843 71.8244 25.5807 72.3461 25.5807C73.0185 25.5807 73.2462 25.4121 73.4703 24.7681C73.5079 24.6587 73.5761 24.5582 73.6317 24.4542L73.7339 24.5151L73.7285 24.5134Z" fill="#75461A"/>
<path d="M95.5625 25.9272H93.2909L93.2622 25.8644C93.3196 25.8267 93.377 25.7585 93.4344 25.7585C93.8862 25.7639 94.0888 25.4733 94.2268 25.1056C94.5675 24.1925 94.9045 23.2794 95.2416 22.3645C95.5231 21.6021 95.8064 20.8379 96.0789 20.0719C96.1363 19.9123 96.1488 19.7365 96.1847 19.5517C96.9485 19.471 96.9449 19.4728 97.221 20.2101C97.8288 21.8317 98.4402 23.4498 99.0462 25.0715C99.1878 25.4482 99.3761 25.7567 99.8404 25.7639C99.8924 25.7639 99.9426 25.8195 99.9785 25.911H97.1654C97.264 25.8411 97.3035 25.7908 97.3483 25.7854C97.5168 25.7639 97.6871 25.7621 97.8575 25.746C98.2447 25.7065 98.3559 25.5415 98.2268 25.1684C98.0888 24.7665 97.9381 24.3683 97.784 23.97C97.6836 23.7081 97.6351 23.3565 97.4415 23.2166C97.2586 23.0839 96.9144 23.1718 96.6401 23.1682C96.2887 23.1646 95.9391 23.1574 95.5894 23.1754C95.5034 23.1807 95.3797 23.2633 95.3492 23.3404C95.1125 23.9378 94.8884 24.5423 94.6733 25.1468C94.5424 25.5128 94.6697 25.6922 95.0677 25.7424C95.2398 25.7639 95.4137 25.7837 95.5858 25.8034L95.5643 25.9272H95.5625ZM95.5805 22.7215H97.3214C97.0309 21.9519 96.7512 21.2129 96.4715 20.472L96.4016 20.4792C96.1327 21.2129 95.8655 21.9448 95.5805 22.7215Z" fill="#75461A"/>
<path d="M3.81389 19.5439C4.29797 19.514 4.63145 19.7436 4.81433 20.2327C5.41675 21.8347 6.02275 23.4366 6.618 25.0403C6.76143 25.4278 6.93535 25.7525 7.41405 25.7632C7.46425 25.7632 7.51446 25.8314 7.62382 25.9103H4.83226L4.8215 25.8224C4.91832 25.8063 5.01514 25.7812 5.11196 25.7758C5.90621 25.7274 5.97614 25.6215 5.70362 24.8825C5.52074 24.3855 5.33428 23.8904 5.16216 23.3899C5.10478 23.2213 5.01872 23.1549 4.83405 23.1585C4.29439 23.1711 3.75472 23.1693 3.21505 23.1585C3.04831 23.1549 2.95867 23.2052 2.9013 23.3684C2.69332 23.9568 2.4692 24.5398 2.25943 25.1264C2.12138 25.5121 2.23971 25.6897 2.65746 25.7399C2.83137 25.7615 3.00349 25.7812 3.1774 25.8027L3.16665 25.9086H0.800003C0.898613 25.8368 0.957779 25.7561 1.01695 25.7561C1.47952 25.7561 1.68391 25.4601 1.82196 25.0798C2.39211 23.5263 2.96405 21.9746 3.53061 20.4193C3.63101 20.1448 3.7099 19.8632 3.81389 19.5403V19.5439ZM3.16485 22.7101H4.89143L4.04697 20.4623L3.98063 20.4803C3.71169 21.214 3.44455 21.9477 3.16485 22.7101Z" fill="#75461A"/>
<path d="M59.6308 19.554H61.9921C61.9168 19.6401 61.8809 19.7226 61.8397 19.7244C61.2749 19.762 61.0633 20.1728 60.8894 20.6177C60.4107 21.8537 59.9392 23.0897 59.4641 24.3275C59.2848 24.7957 59.0983 25.2621 58.9334 25.7339C58.8706 25.9097 58.7756 25.9563 58.5981 25.9527C58.4224 25.9491 58.3094 25.9258 58.2341 25.7339C57.5546 23.9992 56.8643 22.2681 56.1741 20.5352C56.1257 20.4114 56.0665 20.293 56.0127 20.1728C55.8944 19.9073 55.6972 19.7585 55.4013 19.7333C55.3278 19.728 55.2579 19.6759 55.1862 19.6436L55.2167 19.5575H57.8989L57.9365 19.6275C57.872 19.6634 57.811 19.7154 57.7411 19.7315C57.5492 19.7764 57.3466 19.7836 57.1602 19.8446C56.9414 19.9181 56.8464 20.0867 56.9396 20.3181C57.5403 21.8196 58.1445 23.3193 58.7487 24.819C58.7505 24.8244 58.7648 24.8262 58.7989 24.8405C58.8348 24.7616 58.876 24.6809 58.9065 24.5983C59.4103 23.2924 59.9123 21.9847 60.4161 20.6787C60.4233 20.6608 60.4287 20.6428 60.4358 20.6249C60.6725 19.9737 60.547 19.78 59.8603 19.7333C59.7707 19.728 59.6828 19.6903 59.5949 19.6688L59.6254 19.5557L59.6308 19.554Z" fill="#75461A"/>
<path d="M18.7901 25.9311H15.9698C16.0631 25.8504 16.0989 25.8073 16.1437 25.784C16.1742 25.7679 16.219 25.7804 16.2567 25.775C16.929 25.6997 17.0097 25.5526 17.0671 24.8673C17.1406 24.0117 16.9308 23.2851 16.4073 22.6017C15.9662 22.024 15.613 21.38 15.2186 20.7665C14.9317 20.3181 14.6216 19.9037 14.0156 19.8839C13.9636 19.8839 13.9134 19.8229 13.8614 19.7907L13.8883 19.7261H16.5203L16.5454 19.8176C16.4485 19.8463 16.3517 19.8857 16.2513 19.9019C15.8103 19.9736 15.7314 20.11 15.9644 20.4777C16.4969 21.3155 17.042 22.1442 17.5978 23.0017C17.6587 22.9264 17.7036 22.8815 17.7358 22.8277C18.1697 22.094 18.6036 21.3603 19.0339 20.6248C19.0823 20.5441 19.1236 20.458 19.154 20.3683C19.2419 20.1136 19.1594 19.9754 18.8923 19.9162C18.7686 19.8893 18.6466 19.8588 18.5247 19.8283L18.5409 19.7332H20.7766L20.8125 19.7871C20.7426 19.8283 20.6744 19.8947 20.5991 19.9055C20.1294 19.97 19.7995 20.2266 19.5646 20.623C19.0249 21.5361 18.4871 22.4492 17.9492 23.3641C17.9151 23.4215 17.8667 23.4825 17.8667 23.5434C17.8721 24.139 17.8667 24.7364 17.9062 25.3302C17.9241 25.5974 18.1572 25.7105 18.4154 25.7445C18.548 25.7625 18.6789 25.7894 18.8116 25.8127L18.7883 25.9293L18.7901 25.9311Z" fill="#75461A"/>
</g>
<defs>
<clipPath id="clip0_279_3028">
<rect width="99.2" height="25.9233" fill="white" transform="translate(0.800003 0.0383301)"/>
</clipPath>
</defs>
</svg>
