<svg width="134" height="66" viewBox="0 0 134 66" fill="none" xmlns="http://www.w3.org/2000/svg">
<mask id="mask0_270_2684" style="mask-type:alpha" maskUnits="userSpaceOnUse" x="0" y="0" width="134" height="66">
<rect width="134" height="66" fill="#D9D9D9"/>
</mask>
<g mask="url(#mask0_270_2684)">
</g>
<path d="M67.1988 7.85474C66.5887 7.85474 65.3982 7.91852 65.3497 7.92147C65.5804 7.983 47.5439 17.2364 47.5439 17.1393C47.5383 17.1707 47.5298 17.1967 47.5134 17.2172C43.9378 21.5911 41.8155 27.1474 41.8155 33.2377C41.8155 38.2571 43.278 42.9322 45.7925 46.8714C45.8095 46.8622 52.1951 53.0472 52.1169 53.6527C56.3346 56.7727 61.5495 58.6194 67.198 58.6194C69.1708 58.6194 71.0874 58.3864 72.9318 57.9616C72.8982 57.7616 72.8677 57.5614 72.8403 57.3641L72.507 55.0241C72.4066 54.384 71.8823 50.0333 71.8823 50.0333L71.8806 50.0205L72.4385 49.8063C72.4385 49.8063 73.1721 49.8366 73.1539 49.8388C73.1539 49.8388 73.8976 54.2145 74.0269 54.9735L74.1668 55.7769C74.2209 56.1005 74.2665 56.4213 74.3332 56.7538C74.38 57.0303 74.4216 57.2953 74.4625 57.5593C75.0642 57.3785 75.657 57.1778 76.2385 56.9556C76.1501 56.4583 76.0539 55.9457 76.0457 55.87L75.7461 54.0898C75.3502 52.2534 75.0978 50.8912 74.9128 49.985C74.8865 49.8548 74.8373 49.6234 74.8373 49.6234L75.4101 49.3942L76.1659 49.4532C76.1659 49.4532 77.13 53.6721 77.3707 54.9477L77.6456 56.3678C78.1627 56.134 78.6747 55.8868 79.1718 55.6193L79.0129 54.8906C78.9959 54.8201 78.9775 54.7353 78.9558 54.641C78.6321 53.2159 77.7725 49.246 77.7725 49.246L78.4618 48.9753L79.1352 49.0701H79.1385C79.1385 49.0701 80.0036 52.7299 80.5651 54.8128C81.5292 54.2145 82.4528 53.5574 83.3237 52.8391C83.3237 52.8391 91.3617 40.807 91.4192 40.8467C92.1727 38.4448 92.5807 35.8886 92.5807 33.2375C92.5805 19.2193 81.2165 7.85474 67.1988 7.85474Z" fill="#A3080C"/>
<path d="M73.5579 20.491C73.5579 20.491 70.3876 14.5128 69.0944 13.6154C67.8027 12.7181 65.6736 12.1579 64.1977 12.3444C62.329 12.5803 58.055 14.8421 57.7709 14.9168C57.7729 14.9387 56.1785 16.9055 55.7621 18.931C55.6695 19.3812 54.0288 26.5577 54.0288 26.5577L57.1488 35.571L68.2674 40.8757L72.3444 36.4377C72.3444 36.4377 72.8646 32.0467 73.9623 28.7533C75.06 25.46 74.7133 23.6689 74.7133 23.6689L73.5579 20.491Z" fill="#FFF1E2"/>
<path d="M60.8557 43.4656C60.8219 43.4784 60.791 43.4921 60.7621 43.5051C60.791 43.4921 60.8219 43.4784 60.8557 43.4656Z" fill="white"/>
<path d="M59.9403 26.2991C59.7639 26.3997 59.6333 26.4232 59.5519 26.4666C59.4702 26.5111 59.3414 26.6068 59.3733 26.7779C59.407 26.9498 59.4541 27.0056 59.4706 27.1382C59.4862 27.2694 59.4231 27.5073 59.2705 27.7773C59.1204 28.0481 58.8802 28.2436 58.7438 28.3228C58.6096 28.403 58.5273 28.4247 58.451 28.4649C58.4337 28.4729 58.4181 28.5143 58.4025 28.5975C58.4018 28.5982 58.4018 28.5982 58.4009 28.5991C58.4106 28.5915 58.4214 28.5844 58.4363 28.5786C58.4656 28.5662 58.5259 28.5646 58.5802 28.5545C58.6327 28.5448 58.6713 28.5325 58.6906 28.5299C58.711 28.5275 58.8327 28.5103 58.8532 28.5058C58.8736 28.5018 59.2423 28.4247 59.4707 28.3195C59.698 28.2138 60.097 28.0214 60.3256 27.7451C60.4936 27.5428 60.6959 27.1745 60.7156 26.8089C60.7203 26.7333 60.7194 26.6864 60.7194 26.6864C60.7194 26.6864 60.7203 26.6864 60.7203 26.6855C60.7229 26.6855 60.7252 26.6848 60.7276 26.6848C60.6898 26.6832 60.6569 26.6708 60.63 26.6487C60.5688 26.6009 60.5194 26.5655 60.3319 26.3652C60.2112 26.2359 60.2195 26.141 60.2847 26.0327C60.2832 26.0351 60.2804 26.0376 60.2787 26.04C60.223 26.092 60.1145 26.1988 59.9403 26.2991Z" fill="white"/>
<path d="M69.2618 25.1044C69.2618 25.1044 69.1589 25.1132 69.1235 25.1288C69.0954 25.1404 69.0424 25.1602 69.0062 25.2087C68.9701 25.2581 68.9618 25.3444 69.0375 25.4372C69.1147 25.5296 69.2207 25.7022 69.2119 25.8501C69.2064 25.9151 69.2159 26.1276 69.1469 26.2806C69.0698 26.4541 68.9807 26.6252 68.9195 26.7023C68.8841 26.7477 68.7209 26.9284 68.6969 27.0563C68.6905 27.0831 68.6969 27.113 68.7096 27.141C68.7096 27.141 68.7115 27.1395 68.7115 27.1417C68.7106 27.1426 68.7115 27.1442 68.7106 27.1457C68.7139 27.1357 68.7179 27.126 68.7259 27.1168C68.7666 27.071 68.8496 27.0247 68.9942 26.9802C69.1859 26.9195 69.322 26.8472 69.4281 26.7665C69.4152 26.7814 69.4119 26.7987 69.4038 26.8159C69.4149 26.7893 69.4272 26.7632 69.4509 26.7424C69.508 26.6933 70.2602 26.1884 70.2795 25.3732C70.2867 25.0671 69.8896 25.0267 69.7243 25.0212C69.6014 25.016 69.3698 25.1286 69.2719 25.1049C69.2703 25.1042 69.2674 25.1016 69.2639 25.1009C69.2655 25.1009 69.2655 25.1016 69.2655 25.1016C69.2656 25.1035 69.2625 25.1035 69.2618 25.1044Z" fill="white"/>
<path d="M61.2511 30.7321C61.2511 30.7321 64.2411 31.6566 65.6711 29.9954C67.1011 28.3343 69.5711 30.8766 69.7298 31.6277C69.8889 32.3787 66.0177 34.4587 64.8477 34.5021C63.6777 34.5454 59.0411 33.9243 59.0411 33.4477C59.0411 32.971 61.2511 30.7321 61.2511 30.7321Z" fill="white"/>
<path d="M73.5217 18.8517C73.0462 13.8091 70.726 11.2817 69.0583 10.055C67.3058 8.90027 63.1366 7.88315 61.1717 7.97502C58.8533 8.08335 53.4994 10.6121 53.2923 10.799C53.0949 10.9791 49.5043 16.983 49.9483 18.0556C50.3924 19.1282 51.0216 24.1938 51.2267 24.6006C51.2891 24.7225 52.3133 28.0228 52.9889 27.9012C53.67 27.7787 54.3049 24.7688 54.2746 24.5356C54.1879 23.8712 52.982 20.8773 53.0756 20.455C53.1704 20.034 56.3911 14.9916 56.6217 14.8144C56.7843 14.6906 62.3089 14.0036 62.341 14.0569C62.3403 14.0554 62.3403 14.0536 62.338 14.0521L62.3373 14.0512C62.7235 13.7146 63.6191 12.8273 64.4194 12.8592C65.219 12.8921 67.5051 13.1778 68.7968 14.0762C70.09 14.9735 70.4894 15.852 70.5991 16.0978C70.5982 16.0978 70.5967 16.099 70.5958 16.099C70.6391 16.1054 72.4382 20.195 72.9654 20.2096C73.3171 20.2191 73.5796 19.4578 73.5217 18.8517Z" fill="white"/>
<path d="M71.2836 22.2044C71.0917 22.2268 70.567 22.2746 70.5091 22.2819C70.4062 22.2953 70.4088 22.3535 70.4152 22.3972C70.4206 22.4422 70.4369 22.6149 70.4431 22.6892C70.4495 22.7631 70.5266 22.8064 70.6057 22.8C70.6852 22.7945 71.187 22.749 71.2619 22.7374C71.3351 22.7255 71.4073 22.6636 71.4065 22.6045C71.4049 22.545 71.4058 22.388 71.4049 22.3246C71.4032 22.2606 71.3559 22.1963 71.2836 22.2044Z" fill="white"/>
<path d="M50.4075 46.318C50.5072 46.3397 50.6134 46.364 50.716 46.3879C50.4867 46.3347 50.2373 46.2802 50.0943 46.2449C50.0236 46.227 49.9123 46.2168 49.7835 46.2194C49.5686 46.2241 49.3032 46.2662 49.0889 46.3738C48.818 46.5085 47.0968 47.3812 46.3754 47.7456C47.2012 48.9288 48.1226 50.0384 49.1328 51.0634C49.1959 50.8032 50.3241 49.6193 50.4829 48.9255C50.7003 47.9747 50.1593 46.7196 50.4075 46.318Z" fill="white"/>
<path d="M79.1359 49.0709L77.7758 49.2463C77.7758 49.2463 78.7543 53.7639 79.0162 54.8908L79.1741 55.6195C79.6473 55.3647 80.1099 55.0956 80.5645 54.8129C80.0023 52.73 79.1371 49.0709 79.1371 49.0709H79.1359Z" fill="white"/>
<path d="M87.0177 30.996C86.3308 31.5149 85.9504 32.2159 85.9524 32.9174C85.9557 33.9572 86.7967 34.9585 88.7454 34.9521C89.229 34.9488 89.6555 34.9 90.0433 34.8341C90.1565 34.8157 90.2674 34.7953 90.3726 34.7736L90.5992 33.8057C90.2216 33.9319 89.7445 34.0362 89.3621 34.038C88.3243 34.0413 87.6286 33.4259 87.627 32.6191C87.6253 32.189 87.8021 31.8113 88.1217 31.535C88.464 31.239 88.9686 31.0599 89.5997 31.0599C90.0994 31.0599 90.3917 31.1981 90.591 31.3953C90.6311 31.434 90.668 31.4745 90.7002 31.517H90.8628L91.1809 30.3747C90.8531 30.2666 90.3672 30.1756 89.8547 30.1699C88.6613 30.1539 87.6917 30.4867 87.0177 30.996Z" fill="white"/>
<path d="M85.3926 31.1547C85.5326 31.1547 85.6489 31.2056 85.7269 31.2724C85.7937 31.3291 85.8337 31.3965 85.8337 31.4547H85.9937L86.3038 30.2144H82.0927L82.0311 30.457L82.0166 30.516C82.0166 30.516 82.4776 30.5678 82.3364 31.0285L81.2851 34.8477L83.073 34.8512H83.3866L83.4661 34.5232C83.4661 34.5232 83.073 34.4284 83.1758 34.0653C83.1807 34.0426 83.3287 33.4995 83.4171 33.1735C83.4566 33.0328 83.4847 32.9315 83.4847 32.9315L84.447 32.9308C84.6044 32.9308 84.7251 32.9598 84.8183 32.9958C85.0111 33.0697 85.0851 33.1816 85.0851 33.1816L85.3643 32.0467H83.7419L83.9172 31.3984L83.983 31.1566L85.3926 31.1547Z" fill="white"/>
<path d="M80.2758 34.166C80.1511 34.0325 79.0692 32.3472 79.0692 32.3472L80.9826 30.8158L81.0461 30.7649C81.1317 30.6933 81.2123 30.6427 81.2828 30.6059C81.4862 30.5014 81.6172 30.5163 81.6172 30.5163L81.694 30.2111L79.2346 30.2147L79.1734 30.4565L79.1588 30.5163C79.3259 30.5279 79.5592 30.6773 79.3685 30.8553C79.3436 30.8767 77.3919 32.368 77.3919 32.368L77.4071 32.3153L77.8129 30.8453C77.8987 30.5517 78.2141 30.5163 78.2141 30.5163L78.2913 30.2138L75.9433 30.2145L75.883 30.4563L75.8676 30.5161C75.9799 30.5451 76.3005 30.6073 76.1894 31.0287C75.4058 33.8606 75.4954 33.5803 75.4424 33.7346C75.267 34.4059 75.0038 34.4983 74.8456 34.5154C74.8111 34.5187 74.7813 34.5187 74.7596 34.52L74.7274 34.6468L74.6776 34.8476H76.8207H77.1334L77.2154 34.5151C77.2154 34.5151 76.8257 34.438 76.8999 34.1568C76.9377 34.0156 77.0362 33.6571 77.123 33.3408C77.2073 33.0338 77.282 32.7648 77.282 32.7648C77.7078 33.4475 77.8058 33.532 78.3199 34.2372C78.7929 34.8897 79.2985 34.8592 80.5191 34.8508C80.6186 34.8502 80.7216 34.8493 80.8325 34.8493L80.9136 34.5231C80.6042 34.525 80.3994 34.2991 80.2758 34.166Z" fill="white"/>
<path d="M91.8558 30.2944C91.7948 30.2346 91.7225 30.2048 91.6357 30.2048C91.5506 30.2048 91.4783 30.2346 91.4171 30.2944C91.3575 30.3542 91.327 30.4277 91.327 30.5134C91.327 30.5997 91.3575 30.6728 91.4171 30.7338C91.4767 30.7938 91.5506 30.825 91.6357 30.825C91.7225 30.825 91.7948 30.7936 91.8558 30.7338C91.9163 30.6728 91.9466 30.5997 91.9466 30.5134C91.9475 30.4277 91.9161 30.3542 91.8558 30.2944ZM91.8255 30.7033C91.774 30.7559 91.7099 30.7826 91.6359 30.7826C91.562 30.7826 91.4993 30.756 91.448 30.7033C91.3965 30.6515 91.37 30.5881 91.37 30.5134C91.37 30.4402 91.3965 30.3768 91.448 30.325C91.5001 30.2724 91.562 30.2459 91.6359 30.2459C91.7099 30.2459 91.7724 30.2724 91.8255 30.325C91.877 30.3768 91.9026 30.4402 91.9026 30.5134C91.9026 30.5879 91.877 30.6515 91.8255 30.7033Z" fill="white"/>
<path d="M91.7764 30.4401C91.7764 30.3975 91.7581 30.3687 91.7241 30.3538C91.7016 30.3465 91.6726 30.3425 91.631 30.3425H91.5119V30.6828H91.5707V30.5483H91.6178C91.6506 30.5483 91.6723 30.5523 91.6863 30.5595C91.7064 30.5727 91.7177 30.5985 91.7168 30.6379V30.6641L91.7194 30.6757C91.7194 30.6772 91.7194 30.6781 91.7194 30.6797C91.7194 30.6797 91.7194 30.6812 91.7211 30.683H91.7764L91.7756 30.6781C91.7723 30.6757 91.7723 30.6701 91.7709 30.6608V30.6362V30.6105C91.7709 30.5932 91.7645 30.5743 91.7518 30.5569C91.7406 30.5396 91.7194 30.528 91.6939 30.524C91.7147 30.5207 91.7309 30.516 91.7428 30.5075C91.7643 30.4928 91.7764 30.4708 91.7764 30.4401ZM91.6818 30.4997C91.6698 30.5046 91.6511 30.5062 91.6265 30.5062H91.5712V30.3836H91.6218C91.6555 30.3829 91.6804 30.3876 91.6957 30.3961C91.7102 30.4041 91.7182 30.4214 91.7182 30.4464C91.7179 30.4717 91.7057 30.4897 91.6818 30.4997Z" fill="white"/>
<path d="M88.4067 39.8469C85.1711 38.8646 78.5267 39.0958 78.5267 39.0958L83.9577 51.8936C83.9577 51.8936 84.4607 51.6414 84.5235 51.779C87.47 49.0244 89.7578 45.5799 91.1297 41.7003C91.0216 41.6171 91.6423 40.8292 88.4067 39.8469Z" fill="white"/>
<path d="M77.3726 54.9478C77.1301 53.6724 76.1652 49.4533 76.1652 49.4533C76.1652 49.4533 77.4463 49.1167 77.7467 48.3833C78.047 47.6503 77.3672 46.5209 77.335 46.0758C77.1962 44.747 76.6741 39.3048 75.8183 38.1782C75.32 37.5221 73.0284 36.2277 72.85 36.2355C72.0267 36.2715 70.38 39.8574 69.0041 40.1824C68.087 40.3991 67.4392 39.5069 67.5876 39.5744C67.585 39.5725 67.5819 39.5709 67.5803 39.5693C67.5803 39.5693 67.5819 39.4667 67.4285 38.9847C67.2751 38.5009 66.9537 37.9934 66.8943 37.8787C66.8365 37.7636 66.6622 37.5131 66.6561 37.4843C66.6512 37.4561 66.5878 37.2947 66.5429 37.0007C66.4575 36.4336 66.4966 36.0536 66.4999 36.0191C66.5017 35.9845 66.5174 35.8817 66.5221 35.8609C66.5258 35.839 66.5173 35.8021 66.4911 35.7957C66.4637 35.791 66.3906 35.7732 66.3141 35.8519C66.1546 36.0127 66.1474 36.0432 66.1444 36.0704C66.1389 36.0959 66.1553 36.1445 66.1505 36.2006C66.1332 36.379 66.102 36.5154 66.022 36.6456C65.9425 36.7773 65.8907 36.8225 65.778 36.8118C65.6634 36.8014 65.5681 36.7106 65.5542 36.4753C65.5393 36.2403 65.493 36.1597 65.4459 36.1042C65.3989 36.0463 65.2918 36.0198 65.2552 36.0221C65.2192 36.0221 65.189 36.0543 64.9411 36.1152C64.6954 36.1777 64.3047 36.1987 64.2471 36.2011C64.1884 36.2046 63.9739 36.2263 63.9724 36.2268C64.0173 36.3946 63.0714 36.1367 62.9123 36.2642C62.5873 36.5242 62.4354 38.2125 62.2767 39.088C62.2765 39.0887 62.2765 39.0896 62.2763 39.0906L56.9467 39.63L55.0833 43.9633C55.0833 43.9633 55.6467 52.5433 55.6467 52.6733C55.6467 52.8033 67.4333 50.1167 67.4333 50.1167L71.8802 50.0205C71.8802 50.0205 71.8812 50.0238 71.8821 50.0323C71.9135 50.2886 72.4064 54.3836 72.5068 55.0248L72.8401 57.3631C72.8675 57.5617 72.898 57.7626 72.9316 57.9607C73.4475 57.8416 73.9583 57.7094 74.462 57.5584C74.4211 57.2948 74.379 57.0289 74.3327 56.7541C74.2666 56.4208 74.2209 56.1003 74.1672 55.7765L74.0261 54.9731C73.8974 54.2148 73.1521 49.8402 73.1521 49.8402L73.9333 49.3469L74.8374 49.6232C74.8615 49.7341 74.8856 49.8544 74.913 49.9848C75.0985 50.8923 75.3515 52.2532 75.7462 54.0879L76.0459 55.8696C76.0541 55.9452 76.1506 56.4577 76.2395 56.9557C76.715 56.7732 77.1833 56.5765 77.6453 56.3676L77.3726 54.9478Z" fill="white"/>
<path d="M68.5383 22.4411C67.5561 22.5854 66.1261 23.3871 66.1911 23.9721C66.2311 24.3347 68.2797 24.3902 69.2027 24.4561C70.1257 24.5219 70.2781 23.6346 70.2285 23.1524C70.1789 22.6702 69.5721 22.2892 68.5383 22.4411Z" fill="#F5D4B7"/>
<path d="M75.2415 38.1892C74.7539 38.1384 74.9804 38.9288 74.9747 39.0089V39.0105C75.2214 39.9408 75.4261 40.8688 75.5845 41.7088C75.5864 41.7916 75.5926 41.8642 75.6029 41.9232C75.6727 42.2893 75.8173 43.4724 76.0953 46.1451C76.1596 47.0351 76.2158 47.9637 76.2529 48.7445C76.2782 48.7428 77.92 48.838 77.92 48.838C77.92 48.838 77.855 46.5413 77.3457 43.6596C76.8365 40.7781 76.073 38.2759 75.2415 38.1892Z" fill="#F5D4B7"/>
<path d="M70.8145 30.9525C70.8884 30.546 70.8038 30.3451 70.6707 30.1075C70.5398 29.8705 70.2867 29.6488 69.9597 29.4339C69.6433 29.2235 68.9283 28.5926 68.859 28.5329C68.7914 28.4747 68.4576 28.159 68.3802 28.0963C68.2998 28.0344 68.144 27.9048 67.8018 27.7313C66.9728 27.3132 66.3061 27.626 66.2803 27.6404C66.255 27.6546 66.1319 27.7541 66.0141 27.8661C65.8979 27.9762 65.9851 28.189 66.0297 28.2667C66.0297 28.2667 70.4296 31.4919 70.4384 31.5671L70.4417 31.5696C70.4417 31.5696 70.7534 31.2846 70.8145 30.9525Z" fill="#F5D4B7"/>
<path d="M68.9942 26.9802C68.8496 27.0247 68.7666 27.0709 68.7259 27.1168C68.7179 27.126 68.7148 27.136 68.7115 27.1457C68.708 27.1534 68.708 27.1613 68.708 27.169C68.708 27.1754 68.708 27.1809 68.708 27.1866C68.7096 27.1943 68.7127 27.2007 68.7144 27.2076C68.7183 27.2156 68.7224 27.2241 68.7273 27.2321C68.7306 27.2373 68.7337 27.243 68.7382 27.2485C68.7446 27.2586 68.7536 27.2681 68.7624 27.2782C68.7663 27.283 68.7706 27.287 68.7753 27.2915C68.7864 27.3026 68.7987 27.3144 68.8124 27.326C68.8157 27.3293 68.8188 27.3324 68.8228 27.3348C68.8382 27.3482 68.8543 27.3605 68.8701 27.3738C68.8734 27.3754 68.8748 27.3771 68.8782 27.3796C68.8975 27.3936 68.9169 27.4064 68.9361 27.4196C68.9368 27.4205 68.9377 27.4205 68.9386 27.4212C68.9602 27.4352 68.981 27.4485 69.0011 27.4617C69.0228 27.4745 69.0533 27.4813 69.0904 27.4822C69.1256 27.4837 69.1691 27.4789 69.2159 27.4706C69.3702 27.4401 69.5676 27.3622 69.7347 27.2821C69.7347 27.283 69.7329 27.2821 69.7314 27.283C69.7217 27.2863 69.4157 26.7814 69.4277 26.7665C69.322 26.8473 69.1869 26.9195 68.9942 26.9802Z" fill="#F5D4B7"/>
<path d="M63.0863 29.9975C63.0984 30.0023 63.1092 30.0094 63.1217 30.0143C63.1201 30.0127 63.1191 30.0119 63.1182 30.0103C63.0556 29.9453 63.0508 29.9307 63.0289 29.8423C63.0052 29.7503 62.945 29.6375 62.9197 29.5737C62.8925 29.5094 62.7715 29.2913 62.7249 29.15C62.6784 29.0086 62.6575 28.9223 62.6481 28.7805C62.6121 28.6735 62.5847 28.4607 62.6011 28.2683C62.6152 28.0981 62.653 27.902 62.761 27.351C62.8341 26.9891 62.7195 26.5722 62.7155 26.1862C62.7121 25.8886 62.6826 25.1571 62.6908 24.421V24.4186C62.6398 24.4359 56.0873 23.0302 56.1334 23.0232C56.1342 23.0232 56.136 23.0224 56.1374 23.0224C56.1892 22.4798 56.1578 21.7499 56.1285 21.1965C56.298 19.534 56.5537 17.6097 57.1411 16.3268C57.5951 15.3404 57.5344 15.6654 57.7587 15.2005C57.7712 15.1756 57.7877 15.1463 57.7903 15.1118C57.7927 15.0885 57.7736 14.958 57.7698 14.9166C57.7698 14.9159 57.7698 14.9159 57.7698 14.915C57.7565 14.919 56.1596 14.4718 54.1726 19.0321C53.341 20.9425 54.4477 25.7199 54.4477 25.7199L56.1774 26.2942L57.3041 25.6822L59.9691 25.1351L61.0578 25.666C61.0578 25.666 60.7226 26.6854 60.7198 26.6854C60.7198 26.6861 60.7189 26.6861 60.7189 26.6861C60.7189 26.6861 60.7198 26.7339 60.7142 26.8087C60.6955 27.1749 60.4931 27.5432 60.3242 27.7457C60.0966 28.0213 59.6978 28.2137 59.4707 28.3199C59.2419 28.4245 58.8736 28.5023 58.8519 28.5059C58.8324 28.5106 58.7098 28.5273 58.6899 28.5304C58.6701 28.5319 58.6323 28.5444 58.5798 28.5548C58.5252 28.5642 58.4654 28.5657 58.4356 28.5782C58.4207 28.5838 58.4094 28.591 58.4002 28.5995C58.3838 28.6129 58.3749 28.6285 58.3706 28.6458C58.3697 28.6474 58.369 28.6507 58.369 28.6531C58.3656 28.6696 58.3656 28.686 58.3682 28.7009C58.3791 28.7552 58.4378 28.8308 58.4448 28.8439C58.4694 28.8909 58.6107 29.0251 58.8421 28.9732C59.1464 28.9049 59.3432 28.8439 59.5463 28.7784C59.7512 28.7117 60.0228 28.5942 60.0642 28.5579C60.1064 28.5229 60.219 28.4369 60.2371 28.4271C60.2371 28.4262 60.2377 28.4262 60.2377 28.4262C60.2611 28.4049 60.2833 28.3848 60.3053 28.3659C60.3147 28.3579 60.3241 28.3479 60.3336 28.3406C60.3358 28.3387 60.3374 28.3371 60.3398 28.3352C60.3757 28.7645 59.8607 30.0536 59.8607 30.0536C59.8607 30.0536 58.6609 30.4806 58.737 30.424C58.737 30.424 58.7356 30.424 58.7356 30.4247C58.638 30.4726 58.4945 30.5244 58.3493 30.4107C58.3493 30.4107 58.208 30.2457 58.035 30.0268C57.9314 29.8959 57.817 29.7465 57.7135 29.6007C57.6403 29.4979 57.5882 29.414 57.5497 29.3449C57.475 29.2176 57.4452 29.136 57.432 29.085C57.4304 29.0811 57.4287 29.0765 57.4287 29.0734C57.3965 28.9887 57.3696 28.8514 57.3696 28.8514C57.1531 28.8245 56.9253 28.7751 56.7151 28.6983C56.7166 28.699 56.7166 28.7011 56.7184 28.7027C56.7359 28.7183 55.2324 29.0462 55.2324 29.0462L56.7881 35.3838C56.7881 35.3838 59.6914 39.9482 61.5114 39.0671C61.7827 38.9358 62.255 38.0107 62.0603 37.6949C61.8603 37.3712 58.7814 32.2638 58.7814 32.2638C58.7814 32.2638 63.0449 29.9791 63.0863 29.9975Z" fill="#F5D4B7"/>
<path d="M68.9878 47.2235C69.5565 47.601 69.7543 47.6894 70.376 47.9494C70.5738 48.0426 71.0957 47.9365 71.3189 47.6024C71.315 47.6041 71.311 47.6088 71.3078 47.6114C71.3061 47.6121 71.3061 47.6121 71.3046 47.6121C71.29 47.6209 68.2086 45.2031 67.807 45.0601C67.664 45.0095 66.8771 45.2982 66.9783 45.4437C67.069 45.5745 67.4494 45.9709 67.4585 45.9862C67.9956 46.4039 68.6713 46.9614 68.9878 47.2235Z" fill="#F5D4B7"/>
<path d="M62.4356 42.7644L57.2826 39.8141C57.2826 39.8141 57.4329 41.2758 57.432 41.2987C57.4329 41.2996 57.4329 41.2996 57.4336 41.3006C57.8095 41.6369 58.3983 42.0397 58.4914 42.103C58.5257 42.1257 58.7653 42.2837 58.8164 42.3409C58.8797 42.4098 59.5155 42.862 59.564 42.8958C59.6105 42.9273 60.297 43.3062 60.713 43.5278C60.7279 43.5196 60.4236 43.7689 60.4282 43.7609C60.2819 43.7706 60.1759 43.8378 60.0145 43.8893C59.2922 44.2951 59.7209 45.1392 59.789 45.7274C59.9271 46.2229 60.1017 47.0833 60.7442 47.1636C61.2334 47.2224 62.3531 46.9162 62.945 46.7949C63.0289 46.6465 63.8871 46.5933 63.8765 46.6053C64.028 46.56 64.2312 46.4886 64.2927 46.5001C64.3296 46.5065 64.1585 46.6881 64.0594 46.8736C63.9597 47.0608 63.3437 48.8794 62.7701 49.8482C62.5777 50.2449 62.6689 50.0811 62.5517 50.3696V50.3704L63.7139 50.6365L65.5917 45.8697L62.4356 42.7644Z" fill="#F5D4B7"/>
<path d="M56.5901 46.4699C56.7901 46.841 57.3665 47.6194 57.3947 47.6636C57.4228 47.707 57.5469 47.8406 57.6932 48.0042C57.8399 48.1672 57.9655 48.3096 58.0009 48.3512C58.0362 48.3914 58.311 48.6766 58.3819 48.7419C58.4526 48.8069 58.5346 48.9395 58.594 48.9948C58.7973 49.1773 59.546 49.828 59.6183 49.8818C59.6905 49.9369 60.0476 50.1763 60.1119 50.1851C60.755 50.2666 61.0706 49.9144 61.1358 49.81C61.2017 49.7081 61.2141 49.6641 61.1736 49.5112C61.1727 49.5221 58.6911 47.6576 57.0444 44.0716C56.9806 43.9328 56.4095 43.2412 55.8852 43.66C55.4546 44.0039 55.7659 44.8279 55.7659 44.8279V44.8326C55.9294 45.1702 56.419 46.1534 56.5901 46.4699Z" fill="#F5D4B7"/>
<path d="M51.7177 46.8233C51.8838 46.202 50.5066 46.3405 50.4073 46.318C49.978 47.0129 49.5223 49.373 49.2902 50.4783C49.25 50.6028 49.1959 50.8028 49.1323 51.0614C49.4484 51.3828 49.7715 51.6969 50.1036 52.0005C50.3434 51.0678 51.6737 46.9884 51.7177 46.8233Z" fill="#F5D4B7"/>
<path d="M91.7194 30.6754C91.7194 30.6771 91.7203 30.6789 91.7203 30.6796C91.7203 30.6796 91.7203 30.6813 91.7212 30.6831C91.7203 30.6815 91.7203 30.6796 91.7203 30.6796C91.7201 30.6789 91.7194 30.6772 91.7194 30.6754Z" fill="#A3080C"/>
<path d="M88.5899 39.5712C87.8218 39.4012 86.0032 39.0362 83.5518 38.811C81.1015 38.5879 79.0959 38.3966 78.8203 38.3668C78.5679 38.3416 78.4766 38.1104 78.2474 37.9953C77.4168 37.5788 75.8471 37.1922 74.8634 36.8459C74.6201 36.7617 74.4601 36.5462 74.1242 36.1366C73.92 35.8869 73.7818 35.7742 73.6071 35.616C73.5024 35.5203 73.2745 35.3275 73.2135 35.2809C73.154 35.2327 73.1123 35.0946 73.1637 34.8262C73.2152 34.5569 73.3761 33.5065 73.3629 32.2834C73.3594 31.9552 73.504 31.7449 73.6577 31.6681C73.7404 31.6263 74.2786 31.387 74.2424 30.858C74.2044 30.3225 74.0391 29.5756 74.4698 28.5244C74.8867 27.5059 75.4072 25.6879 75.4701 24.4886C75.5368 23.2146 75.2169 22.3929 74.7142 21.9479C74.5182 21.776 74.2868 21.5162 74.4757 20.9615C74.6773 20.3647 75.0434 18.7348 74.6837 17.6567C74.6031 17.4173 74.5117 17.4158 74.4568 17.3868C74.4017 17.3588 74.1405 17.1587 74.0424 16.7188C73.9105 16.1388 73.4865 14.0776 71.8878 11.9821C71.0409 10.8697 70.1365 10.2081 69.7752 9.94147C69.5277 9.78045 69.0932 9.47763 68.5733 9.20117C67.8296 8.80787 67.2392 8.50783 66.0517 8.12355C65.9394 8.08819 65.6851 8.01037 65.3492 7.92075C65.3483 7.92075 65.3454 7.92075 65.3454 7.92075C65.3454 7.92075 64.3336 7.65001 63.2395 7.52226C63.0527 7.50493 62.797 7.48135 62.5069 7.46159C61.3805 7.39573 60.9694 7.46489 60.3837 7.52382C60.3211 7.52989 60.2573 7.53942 60.1944 7.54791C60.0776 7.56351 59.9568 7.58154 59.8304 7.6013C58.0901 7.89926 56.3197 8.71549 55.4586 9.12611C54.9724 9.35699 54.5424 9.59723 54.1468 9.82257C54.1359 9.8295 54.1219 9.83747 54.1146 9.84181C54.0127 9.90403 53.853 9.99295 53.6974 10.0784C53.454 10.2157 53.2214 10.3443 52.9961 10.4544C52.2991 10.7934 51.686 10.9669 51.2378 11.1224C51.1563 11.1529 51.0882 11.1787 51.0353 11.1968C50.7122 11.3226 50.5063 11.4526 50.4685 11.667C50.3995 12.0518 50.8524 12.4089 50.6907 13.0226C50.2926 14.532 48.5889 15.9808 48.3157 16.1478C47.5244 16.6308 47.5738 16.9668 47.5433 17.1388C47.5433 17.2986 47.5761 17.4761 47.6671 17.6678C47.9307 18.2265 48.4185 18.7052 48.6572 19.2101C48.8965 19.7154 49.033 20.601 48.8539 21.6361C48.683 22.6371 48.6294 22.8591 48.5405 23.0427C48.4521 23.227 48.2738 23.5849 48.5197 24.0106C48.7667 24.4375 49.2872 24.8729 49.6138 25.1236C49.7875 25.2577 49.8774 25.3794 49.7487 25.6212C49.5365 26.0169 49.5907 26.95 49.7916 27.4721C50.095 28.2685 50.4512 29.0277 50.7817 29.5157C51.1126 30.0032 51.703 30.8332 52.0502 31.1334C52.396 31.4355 52.4435 31.9591 52.4367 32.2841C52.4294 32.6074 52.384 33.524 53.3259 34.0976C53.7901 34.3829 53.8317 34.3111 54.0019 34.451C54.1721 34.5884 54.2522 34.6598 54.3699 35.031C54.4876 35.4007 55.023 36.697 55.7602 37.6096C55.9753 37.8747 56.0947 38.0625 56.1204 38.1061C56.1464 38.1494 56.1864 38.1976 56.0932 38.416C56.0004 38.6346 55.6283 39.8787 55.3314 41.1649C55.2771 41.4008 55.1974 41.7109 54.9015 41.8565C54.6051 41.9993 53.9431 42.365 53.7022 42.4981C53.4597 42.6314 53.3401 42.7039 53.0612 43.0507C52.9371 43.205 52.8468 43.2955 52.7685 43.3896C52.7234 43.444 52.7035 43.4789 52.4677 43.6018C52.2635 43.7078 49.2333 44.774 46.0201 46.7396C45.9405 46.7876 45.8662 46.8303 45.7923 46.8713C45.9816 47.1669 46.1747 47.4596 46.3756 47.7455C47.097 47.3808 48.818 46.5084 49.0886 46.3735C49.3021 46.2659 49.5679 46.2241 49.7826 46.2189C49.9119 46.2165 50.0229 46.2271 50.0934 46.2446C50.2376 46.2799 50.4858 46.3347 50.7164 46.3874C50.7377 46.3921 50.759 46.3973 50.781 46.402C50.7952 46.4053 50.8093 46.4084 50.824 46.4125C50.9192 46.4359 51.0072 46.4569 51.0783 46.476C51.0823 46.4775 51.0856 46.4775 51.0896 46.4793C51.1241 46.4892 51.1554 46.4976 51.1795 46.5049C51.3842 46.5723 51.4931 46.9563 51.3823 47.3057C51.3627 47.3716 51.2989 47.5933 51.2055 47.9211C51.1591 48.0857 51.1059 48.2754 51.0476 48.4858C50.989 48.6964 50.9251 48.928 50.8576 49.1737C50.6207 50.0347 50.3425 51.0679 50.1031 52.0006C50.7445 52.5853 51.4173 53.1356 52.1166 53.6527C52.1949 53.0472 52.2772 52.4166 52.341 51.958C52.5081 50.7613 53.4641 46.3283 53.7339 45.3204C53.9303 44.587 54.0324 44.2528 54.2905 44.1372C54.368 44.1036 54.456 44.0521 54.507 44.0271C54.558 44.0036 54.6696 43.9765 54.6351 44.1708C54.5956 44.4014 54.3966 45.342 54.1038 48.3944C53.9005 50.512 53.8957 52.3875 53.9688 53.5156C54.0003 53.9959 54.0085 54.6748 54.7434 54.3805C55.6021 54.0375 58.5294 52.9878 60.0932 52.5059C62.6112 51.7292 67.3307 50.6918 71.8795 50.0205L73.1514 49.8397C73.1514 49.8397 73.8961 54.215 74.0243 54.9733L74.1656 55.776L74.0257 54.9733C73.8964 54.215 73.1526 49.8397 73.1526 49.8397C73.3308 49.8152 73.5102 49.7924 73.6869 49.7698C74.0942 49.7183 74.4766 49.6703 74.8364 49.6235L76.165 49.4533C76.7867 49.3738 77.3201 49.3055 77.7721 49.2464C77.7721 49.2464 78.6308 53.216 78.9538 54.6421C78.9763 54.7358 78.9955 54.8204 79.0117 54.8911L79.1706 55.6198C79.1715 55.6198 79.1723 55.6198 79.173 55.6198L79.0149 54.8911C78.7529 53.7633 77.7747 49.2465 77.7747 49.2465L79.1349 49.0713C79.5372 49.02 80.0497 48.9557 80.2025 48.9484C80.5221 48.9351 80.6616 48.7543 80.4176 48.681C80.2415 48.6295 79.8345 48.5887 79.6285 48.5837C79.55 48.5828 79.407 48.5811 79.3216 48.5797C79.0068 48.5742 78.9168 48.5121 78.8477 48.0481C78.6516 46.6871 77.8935 43.3137 77.349 41.5351C76.8221 39.8193 76.6919 39.3253 76.5651 38.9474C76.4541 38.6221 76.6691 38.6021 76.7724 38.6068C77.1563 38.6252 77.6881 38.8245 77.8406 39.153C78.1781 39.8848 80.4867 45.9317 81.4137 48.1861C81.9985 49.6062 82.6797 51.3158 83.3231 52.8387C83.7353 52.4998 84.133 52.1429 84.5224 51.7784C83.3249 49.1453 80.6587 43.1802 79.2529 40.1614C79.2023 40.0528 79.134 39.8768 79.0995 39.7735C79.0876 39.739 79.0825 39.7084 79.0825 39.6811C79.0843 39.4886 79.3389 39.4617 79.4649 39.474C79.9612 39.5238 84.4694 39.821 85.7002 39.9385C86.5125 40.0153 87.3228 40.1393 87.8641 40.2358C87.9896 40.259 88.1 40.28 88.1933 40.2984C88.3089 40.3214 88.3957 40.3398 88.4519 40.3552C88.8535 40.4599 89.5619 40.7402 90.2178 41.0919C90.4891 41.2365 90.7978 41.4471 91.1287 41.701C91.2284 41.4179 91.3277 41.1344 91.418 40.8478C91.1819 40.684 90.9165 40.5168 90.6562 40.3769C89.9072 39.9777 89.2751 39.7238 88.5899 39.5712ZM51.8812 24.6211C51.7586 24.6738 51.6479 24.6878 51.5631 24.5207C51.3575 24.1142 51.2014 23.3904 51.1417 22.9202C51.0804 22.4502 50.9864 21.0476 51.0161 20.2813C51.0488 19.5145 50.8991 19.086 50.625 18.7192C50.3503 18.353 50.1737 18.0987 50.1062 17.9753C50.0215 17.8214 50.0782 17.7162 50.2402 17.5986C50.3189 17.5435 50.4796 17.5766 50.6039 17.5508C50.8497 17.5014 51.6704 17.2038 52.2819 16.7242C52.8921 16.2446 53.8645 15.3169 54.5243 14.9598C55.1821 14.6028 55.4742 14.44 56.2441 14.3476C56.3807 14.3317 56.5856 14.4046 56.3544 14.5806C56.1233 14.7565 55.3823 15.0191 54.5183 16.3229C53.9877 17.1206 53.9012 17.5813 53.7332 17.9392C53.5644 18.297 53.403 18.3982 53.1359 18.6879C53.0059 18.826 52.7411 19.1164 52.6456 19.5374C52.5528 19.9588 52.1693 21.4432 52.3946 23.6884C52.4211 23.9498 52.5287 24.2976 52.2837 24.4242C52.1323 24.5027 52.0025 24.5692 51.8812 24.6211ZM52.9392 27.6463C52.8087 27.5535 52.2752 26.8312 52.0153 26.0285C51.9867 25.9438 51.9555 25.7282 52.0961 25.6666C52.2114 25.6172 52.3644 25.5285 52.444 25.4907C52.5246 25.4501 52.7255 25.3974 52.7532 25.6871C52.7813 25.9774 52.8066 26.3196 53.1375 27.176C53.1975 27.3291 53.2098 27.3769 53.2254 27.4383C53.2682 27.6161 53.06 27.7322 52.9392 27.6463ZM54.026 24.9187C53.9906 24.9248 53.6246 24.969 53.4271 25.0059C53.3046 25.0284 53.1784 25.0742 53.1644 24.9561C53.1479 24.822 53.1085 24.6448 53.0969 24.597C53.0864 24.5472 53.1103 24.5001 53.1696 24.486C53.315 24.4524 53.8769 24.358 53.9312 24.3552C53.9854 24.3545 54.0404 24.3729 54.064 24.4854C54.0853 24.5982 54.1123 24.7183 54.1187 24.7672C54.1253 24.8175 54.1394 24.9014 54.026 24.9187ZM54.2257 23.0852C54.1919 22.9141 54.1446 22.6212 54.1598 22.4388C54.165 22.3662 54.187 22.1845 54.2742 22.0866C54.3975 21.9469 54.5613 21.8198 54.6675 21.7339C54.8608 21.5756 54.8206 21.166 54.8346 20.931C54.8772 20.2482 54.8166 18.0921 56.2157 16.0293C56.2696 15.9509 56.3246 15.8787 56.3787 15.8104C56.3951 15.7899 56.4116 15.771 56.4281 15.7509C56.4683 15.7036 56.5083 15.658 56.5497 15.6159C56.5671 15.597 56.5842 15.579 56.6024 15.5616C56.6518 15.5129 56.7021 15.4665 56.7522 15.4244C56.7595 15.4186 56.7659 15.4122 56.7726 15.4063C56.8293 15.3606 56.8862 15.3191 56.9427 15.2798C56.9631 15.2664 56.9836 15.2533 57.004 15.2413C57.043 15.2157 57.0824 15.1926 57.1217 15.1702C57.1441 15.1581 57.1663 15.1456 57.1892 15.134C57.2321 15.112 57.2763 15.0914 57.32 15.0718C57.3367 15.0649 57.353 15.0569 57.3694 15.0493C57.4261 15.0255 57.4843 15.0044 57.5421 14.9846C57.5669 14.9761 57.5908 14.969 57.6152 14.9614C57.654 14.9492 57.6927 14.9376 57.7313 14.9269C57.7445 14.9236 57.7567 14.9189 57.77 14.9156C57.77 14.9163 57.77 14.9163 57.77 14.9172C58.0548 14.8413 58.3469 14.7986 58.6419 14.7485C59.4747 14.6071 60.4456 14.7393 60.9449 14.8983C61.3419 15.024 61.5429 15.1203 61.6757 14.995C61.809 14.8702 62.1567 14.476 62.3042 14.3363C62.3245 14.3166 62.3405 14.2949 62.3514 14.2736C62.3559 14.2663 62.3583 14.2589 62.3616 14.2516C62.367 14.2375 62.3717 14.2226 62.3739 14.2079C62.3748 14.1999 62.3765 14.1914 62.3765 14.1826C62.3765 14.1686 62.3748 14.1545 62.3725 14.1396C62.371 14.1323 62.371 14.124 62.3673 14.1167C62.3619 14.0963 62.3529 14.0765 62.3406 14.0576C62.3082 14.0037 62.2567 13.9557 62.1929 13.9174C62.0311 13.8222 60.4055 12.6294 58.2143 12.576C56.0731 12.5224 54.3352 13.28 53.8743 13.4386C53.7811 13.47 53.7332 13.4865 53.6785 13.4872C53.6242 13.4887 53.4374 13.425 53.5065 13.2899C53.5824 13.1457 53.7724 12.9237 53.9698 12.7438C54.177 12.5571 55.1901 11.6034 56.1908 11.1617C56.3759 11.0806 56.4209 11.0468 56.5395 11.0007C56.691 10.9433 56.7806 10.6019 56.4459 10.601C56.1029 10.5986 55.9663 10.6371 55.7852 10.6653C55.6037 10.6955 55.504 10.6144 55.6186 10.4589C55.7318 10.3039 55.9555 10.132 56.3594 9.9127C57.2363 9.43482 58.8403 8.93111 59.5987 8.76523C60.5875 8.54874 60.7083 8.5347 61.3646 8.49449C61.9784 8.45913 62.4692 8.50246 62.7015 8.51182C64.6676 8.58653 66.9319 9.23722 68.6848 10.3914C70.3516 11.6178 72.7503 13.6609 73.2258 18.7043C73.2828 19.3096 73.2428 19.6526 73.2194 19.8041C73.1986 19.9556 73.0266 20.2342 72.8757 19.9178C72.3784 18.8756 71.6096 17.5116 70.7421 16.2187C70.6906 16.142 70.6383 16.105 70.5958 16.0995C70.5779 16.0958 70.5629 16.0988 70.5476 16.1052C70.5438 16.1076 70.5412 16.1116 70.5372 16.1144C70.5289 16.1208 70.5201 16.1288 70.5136 16.1397C70.5103 16.1473 70.5064 16.1553 70.5039 16.1634C70.4999 16.1744 70.4975 16.1867 70.496 16.1988C70.4942 16.2097 70.4925 16.2198 70.4925 16.231C70.4925 16.2567 70.4942 16.285 70.5015 16.3158C70.5232 16.4073 70.7995 17.7749 70.8097 17.9654C70.8217 18.1554 70.7286 18.6217 71.437 19.4821C71.7263 19.8352 71.9832 20.1368 72.1151 20.6576C72.2451 21.1766 72.2893 21.3986 72.2901 21.4538C72.292 21.508 72.3544 21.6626 72.1038 21.6642C71.8547 21.6649 70.9036 21.5959 70.4967 21.6051C70.0893 21.6148 67.278 21.8906 66.2321 22.1128C65.1861 22.3353 64.6233 22.5988 64.0861 23.1632C63.9568 23.2989 63.776 23.4254 63.7349 23.437C63.6961 23.448 63.5597 23.445 63.2931 23.427C63.0275 23.4096 62.567 23.4748 62.3252 23.584C62.0818 23.6929 61.9083 23.7941 61.6152 23.6747C61.1963 23.5052 60.4776 22.7312 58.6117 22.8224C57.4885 22.8773 56.913 22.908 56.1336 23.0233C56.0881 23.0306 56.0412 23.0373 55.9945 23.0446C55.9649 23.0495 55.9342 23.0541 55.9039 23.0593C55.8874 23.0618 55.8703 23.0642 55.8529 23.0673C55.5356 23.1191 55.1771 23.1859 54.7346 23.2722C54.6732 23.2838 54.6129 23.2963 54.5495 23.3082C54.377 23.3427 54.2577 23.2654 54.2257 23.0852ZM71.4073 22.604C71.4073 22.6634 71.3351 22.725 71.2611 22.7375C71.1879 22.7491 70.6859 22.795 70.6057 22.8009C70.527 22.8064 70.4499 22.7631 70.4433 22.6889C70.4369 22.6158 70.4206 22.4423 70.4161 22.3969C70.4079 22.3542 70.4062 22.2948 70.5084 22.2816C70.5679 22.2743 71.0914 22.2273 71.2845 22.2045C71.3567 22.196 71.4041 22.2611 71.4058 22.3244C71.4058 22.3878 71.4058 22.5451 71.4073 22.604ZM69.0594 23.1675C68.9041 23.0583 68.6311 22.8864 68.4657 22.826C68.3517 22.7851 68.3915 22.6425 68.5541 22.6196C69.1197 22.5373 69.4825 22.5373 69.7638 22.7128C69.9695 22.8402 70.1061 23.0876 70.0432 23.3056C69.9692 23.5559 69.8713 23.5017 69.7484 23.4996C69.6255 23.4974 69.2128 23.2772 69.0594 23.1675ZM69.3863 24.2709C69.2868 24.338 68.9614 24.2782 68.8432 24.2319C68.6007 24.1368 68.4286 24.0709 68.0913 23.8568C67.871 23.7171 67.4881 23.648 67.1531 23.7492C66.9322 23.8159 66.7547 23.8718 66.5603 23.9468C66.3654 24.0215 66.3256 23.844 66.3765 23.7681C66.4268 23.6924 66.7351 23.3313 67.1442 23.1777C67.2302 23.1448 67.4053 23.1268 67.4912 23.125C67.7549 23.1174 68.0816 23.246 68.3291 23.4266C68.5787 23.6086 68.975 23.9054 69.2353 24.0167C69.3573 24.0692 69.6224 24.1078 69.3863 24.2709ZM61.2545 33.0508C60.2679 33.3962 59.9913 33.0492 59.9034 32.9463C59.8159 32.8435 59.9238 32.7431 60.0284 32.6944C60.2631 32.5852 60.5771 32.3474 60.7357 32.1926C60.8952 32.038 61.2049 31.4998 61.4285 31.3107C61.5346 31.2204 62.1077 31.0256 62.5387 31.2311C63.0513 31.4754 63.8493 31.5007 64.3393 31.4369C64.829 31.371 65.0157 31.0131 65.1219 30.8018C65.2278 30.5886 65.4877 30.5106 65.6243 30.4544C66.0002 30.3007 66.4979 29.7848 66.5488 29.7323C66.5998 29.6781 66.7549 29.6018 67.0016 29.7464C67.4505 30.0102 67.6788 30.3593 68.0956 30.8328C68.5125 31.3067 69.0058 31.3807 69.1504 31.3899C69.2951 31.3991 69.3851 31.5667 69.3917 31.6128C69.3996 31.6589 69.2792 31.8193 69.1892 31.8867C69.0989 31.9541 69.0491 32.0735 68.2509 32.0924C64.2456 32.1912 62.4432 32.6348 61.2545 33.0508ZM66.6871 33.5328C66.4495 33.6557 65.7426 33.9221 65.3908 33.9899C65.0377 34.0577 63.9174 34.2848 63.7283 34.3C63.4929 34.3182 63.1631 34.2477 62.8767 34.0518C62.8192 34.0121 62.741 33.8582 62.9499 33.8273C63.3375 33.7698 63.9632 33.4789 66.2394 33.363C66.484 33.3503 66.5989 33.3453 66.6575 33.3439C66.7161 33.3427 66.9265 33.4099 66.6871 33.5328ZM61.4136 38.5864C60.6187 38.7174 58.5025 38.0965 57.1266 34.7009C56.7719 33.8275 57.1609 32.9584 57.5022 32.7826C57.7047 32.6799 57.8142 32.6381 57.8832 32.6208C57.9581 32.6019 58.3183 32.5549 58.3592 32.9601C58.3916 33.2879 59.0279 35.9791 59.8835 36.869C60.0944 37.0896 60.2611 37.0761 60.3156 36.8482C60.3624 36.6393 60.4546 36.3646 60.4815 36.2599C60.5003 36.1843 60.7068 35.9562 60.8238 36.2471C61.0755 36.8643 61.3791 37.6724 61.5787 37.996C61.7738 38.3118 61.7111 38.5371 61.4136 38.5864ZM61.5705 29.7079C61.6452 29.8115 61.6915 30 61.6858 30.0832C61.6781 30.1792 61.3499 30.3534 61.0086 29.9703C60.6671 29.5864 60.7338 29.0558 60.8751 28.8305C61.1004 28.471 61.5431 28.65 61.5003 28.7783C61.3525 29.2224 61.4946 29.6035 61.5705 29.7079ZM59.0338 24.7355C58.7785 24.7272 58.5037 24.6958 58.0376 24.8684C57.5159 25.0612 57.1805 25.3127 56.9378 25.4616C56.6884 25.617 56.4244 25.6838 56.336 25.6902C56.2481 25.6978 55.9278 25.6557 56.1485 25.4238C56.2071 25.3603 56.3476 25.3125 56.561 25.157C56.7135 25.0447 56.8265 24.9646 57.0001 24.8185C57.3093 24.555 57.9395 24.1742 58.2143 24.1404C58.4158 24.1163 58.7722 24.1545 58.9842 24.328C59.2049 24.5091 59.2896 24.7436 59.0338 24.7355ZM54.6438 25.1879C54.6706 25.0208 54.8533 24.5802 55.2383 24.4524C55.2901 24.4368 55.482 24.3744 55.6423 24.3332C55.8314 24.2855 56.0348 24.2436 56.1384 24.2248C56.417 24.1763 56.4757 24.3883 56.3003 24.5264C56.1854 24.618 56.0018 24.7372 55.8396 24.8686C55.5929 25.0704 55.356 25.2946 55.1728 25.447C54.9497 25.6328 54.5883 25.5309 54.6438 25.1879ZM55.9516 29.9859C55.9507 29.9852 55.95 29.9844 55.95 29.9844C55.9484 29.9819 55.9474 29.9804 55.946 29.9783C55.877 29.8814 55.8125 29.7795 55.7524 29.6758C55.7397 29.6529 55.7271 29.6295 55.7139 29.6067C55.6539 29.4954 55.5978 29.3829 55.5536 29.2645C55.4673 29.0352 55.6118 29.0014 55.7082 29.0513C55.8044 29.1028 56.0859 29.2669 56.3866 29.3304C56.5704 29.3682 56.6794 29.2801 56.7225 29.1477C56.729 29.1279 56.7373 29.1035 56.7463 29.077C56.7515 29.0653 56.7555 29.0529 56.7595 29.04C56.7619 29.0324 56.7641 29.0244 56.7671 29.0159C56.7709 29.0016 56.7744 28.9875 56.7775 28.9726C56.7801 28.965 56.781 28.957 56.7823 28.9494C56.786 28.9341 56.7875 28.9192 56.7893 28.9036C56.79 28.896 56.79 28.8887 56.7908 28.8802C56.7908 28.865 56.7893 28.8501 56.7875 28.8345C56.7867 28.8277 56.7858 28.8204 56.7841 28.814C56.7804 28.7975 56.774 28.7819 56.7667 28.7663C56.7636 28.7615 56.7622 28.7563 56.7598 28.7523C56.7492 28.7343 56.735 28.7176 56.718 28.702C56.6957 28.6824 56.6678 28.6642 56.6317 28.6502C56.3698 28.545 55.6273 28.3105 55.0696 27.2734C54.9889 27.1268 55.0653 27.002 55.1196 26.9581C55.174 26.9148 55.3681 26.791 55.461 26.7337C55.555 26.6761 55.6822 26.6827 55.8148 26.7742C55.9422 26.8654 56.219 27.067 56.4411 27.0474C56.6473 27.0273 56.6679 26.9427 56.7047 26.8891C56.8501 26.677 57.2441 25.9063 58.2767 25.8939C58.7027 25.8883 59.1017 25.9277 59.2445 25.9188C59.3858 25.9096 59.8897 25.8642 60.1864 25.6623C60.4787 25.4614 60.6033 25.606 60.4345 25.8257C60.4093 25.8587 60.3866 25.8876 60.3653 25.9166C60.357 25.927 60.3506 25.9362 60.343 25.9459C60.3201 25.9764 60.3003 26.0053 60.283 26.033C60.2187 26.1419 60.2107 26.2362 60.3307 26.3655C60.5191 26.5659 60.5681 26.6018 60.6293 26.6491C60.6565 26.6707 60.6891 26.6836 60.7271 26.6844C60.7427 26.6844 60.76 26.6811 60.7773 26.6765C60.7846 26.674 60.7917 26.674 60.8002 26.6709C60.8262 26.6593 60.8538 26.6435 60.8841 26.6179C60.9917 26.5227 61.064 26.466 61.158 26.3447C61.2278 26.2551 61.2869 26.3454 61.2696 26.4856C61.2559 26.5948 61.305 27.2958 60.5411 28.1576C60.5161 28.1865 60.4581 28.2344 60.3858 28.2957C60.3684 28.3098 60.3521 28.3238 60.3333 28.3403C60.3239 28.3483 60.3144 28.3576 60.305 28.3656C60.2811 28.3864 60.2573 28.4086 60.2327 28.4315C60.2131 28.4495 60.1932 28.4712 60.1733 28.4909C60.1528 28.5114 60.1331 28.5303 60.1124 28.5523C60.0999 28.5656 60.0875 28.5812 60.0746 28.5961C60.049 28.6251 60.0228 28.6544 59.9972 28.6864C59.9892 28.6974 59.9816 28.7084 59.9743 28.7187C59.9453 28.7565 59.9173 28.7946 59.8919 28.8346C59.8595 28.8865 59.8294 28.9407 59.803 28.9972C59.5905 29.4507 59.6181 29.6002 59.595 29.7656C59.5742 29.9294 59.447 29.9946 59.3038 30.0608C59.2175 30.1005 58.9887 30.2327 58.7351 30.4246L58.7365 30.4234C58.6606 30.4804 58.5833 30.5439 58.5067 30.6094C58.4919 30.6227 58.4777 30.635 58.464 30.6484C58.3874 30.7158 58.3118 30.7874 58.242 30.8619C58.1957 30.9106 58.148 30.9535 58.1002 30.9921C58.0837 31.0049 58.0685 31.015 58.0522 31.0266C58.0186 31.051 57.9837 31.0739 57.9494 31.094C57.9314 31.1046 57.912 31.1145 57.8941 31.1226C57.8594 31.14 57.8249 31.154 57.7894 31.1663C57.7707 31.1727 57.7525 31.1805 57.7338 31.1852C57.7244 31.1876 57.7157 31.1916 57.7073 31.1944C57.6852 31.1992 57.6631 31.1999 57.641 31.2032C57.6137 31.2081 57.5864 31.2133 57.5585 31.2148C57.528 31.2164 57.4968 31.2148 57.4655 31.2133C57.4386 31.2103 57.4112 31.2103 57.385 31.2072C57.3528 31.2024 57.3209 31.1923 57.2893 31.1835C57.2627 31.1765 57.236 31.171 57.2087 31.1615C57.1786 31.1498 57.1488 31.1332 57.1184 31.1185C57.0895 31.1044 57.0618 31.0932 57.0337 31.0758C57.0311 31.0738 57.0281 31.0731 57.0257 31.0715C56.9747 31.0393 56.9227 31.0016 56.8707 30.959C56.7368 30.8437 56.5899 30.7096 56.4447 30.5633C56.4409 30.559 56.4371 30.555 56.4333 30.5517C56.4293 30.5477 56.4253 30.5428 56.4216 30.5383C56.3469 30.4628 56.2722 30.3822 56.1996 30.2981C56.1934 30.2903 56.0238 30.0863 55.9516 29.9859ZM65.1323 46.0907C65.0854 46.3347 64.8862 47.1572 64.1551 48.8498C64.1057 48.9638 64.0577 49.0739 64.0109 49.1801C63.9996 49.2051 63.988 49.2289 63.9771 49.254C63.959 49.2947 63.9401 49.336 63.9223 49.3743C63.9206 49.3776 63.9197 49.3807 63.9183 49.384C63.8918 49.4429 63.8649 49.498 63.8375 49.553C63.8375 49.553 63.836 49.5546 63.836 49.5565C63.8325 49.5629 63.8287 49.57 63.8244 49.5771C63.8147 49.5963 63.8046 49.615 63.7951 49.6332C63.7819 49.6577 63.7694 49.6839 63.7554 49.7074C63.7554 49.7099 63.7545 49.7107 63.7538 49.7119C63.7505 49.7168 63.7474 49.7216 63.7441 49.7281C63.7316 49.7497 63.7136 49.7813 63.7127 49.7827C63.711 49.7859 63.7087 49.7889 63.707 49.7924C63.707 49.7924 63.707 49.7924 63.707 49.7941C63.6977 49.8076 63.6895 49.8213 63.6814 49.8341C63.6789 49.8386 63.6767 49.8438 63.6741 49.8477C63.6725 49.8494 63.6713 49.8515 63.6689 49.8539C63.6578 49.8723 63.646 49.8894 63.6346 49.9085C63.632 49.9111 63.6297 49.9132 63.6281 49.9158C63.615 49.935 63.6016 49.9537 63.5886 49.9719C63.5879 49.9719 63.5859 49.9754 63.5836 49.9766C63.5725 49.992 63.5605 50.0073 63.5491 50.0217C63.5456 50.0252 63.5436 50.0281 63.5411 50.0298C63.528 50.0475 63.5139 50.0614 63.5016 50.0766C63.4997 50.0766 63.498 50.0791 63.4966 50.0811C63.4893 50.0884 63.4808 50.0957 63.4735 50.1037H63.4728C63.469 50.1085 63.4643 50.1125 63.4595 50.1165C63.4571 50.1189 63.4533 50.1212 63.4507 50.1246C63.4366 50.1373 63.4233 50.1498 63.4092 50.1591C63.4077 50.1607 63.4068 50.1616 63.4045 50.1626C63.3921 50.173 63.3789 50.1815 63.3657 50.1896C63.3621 50.1921 63.3591 50.1943 63.3557 50.1961C63.3532 50.1976 63.3508 50.1985 63.3493 50.1995C63.3465 50.202 63.3441 50.2033 63.3416 50.2033C63.3319 50.2098 63.3219 50.2153 63.3118 50.2212C63.3118 50.2212 63.3103 50.2212 63.3085 50.2219C63.2957 50.229 63.2817 50.2338 63.2667 50.2389C63.2633 50.2406 63.2598 50.2423 63.2558 50.2435C63.2402 50.2482 63.2253 50.2526 63.2089 50.2564C63.057 50.2891 62.8946 50.3125 62.7996 50.3288C62.7856 50.3302 62.6883 50.3465 62.6804 50.3495C62.6407 50.3552 62.5979 50.3616 62.5519 50.3696C62.5519 50.3696 62.5519 50.3696 62.5519 50.3687C61.4545 50.5535 58.4696 51.0674 57.085 51.3472C56.1665 51.5306 56.2568 51.0679 56.0263 50.233C55.9294 49.882 55.5883 46.7765 55.7656 44.8274C55.825 44.1802 55.8535 43.9906 55.9696 43.9191C56.0855 43.8475 56.2632 43.7319 56.3166 43.7167C56.3686 43.703 56.5269 43.6612 56.6007 43.7945C56.673 43.9262 58.0135 46.646 58.8897 47.6311C59.6671 48.509 60.2137 49.1458 60.869 49.5734C60.9124 49.6024 60.9496 49.6202 60.9834 49.6313C60.9867 49.6329 60.9907 49.635 60.9945 49.636C61.0101 49.6407 61.0242 49.6431 61.0375 49.6449C61.0507 49.6466 61.0628 49.6457 61.0744 49.6449C61.0779 49.6442 61.0808 49.6442 61.0843 49.6431C61.106 49.6384 61.1233 49.6279 61.1365 49.6144C61.138 49.6126 61.1398 49.6104 61.1422 49.6079C61.1545 49.5927 61.1635 49.5734 61.168 49.5526C61.1689 49.5494 61.1689 49.5454 61.1689 49.5419C61.1869 49.4407 61.1387 49.2873 61.0425 49.1831C60.898 49.0273 60.2991 48.4111 59.5103 47.2889C58.4899 45.8405 57.7984 43.703 57.6124 43.0183C57.4908 42.5701 57.4225 41.8632 57.4337 41.2992C57.433 41.2992 57.4322 41.2992 57.4322 41.2992C57.433 41.2742 57.4337 41.2526 57.4351 41.2287C57.4358 41.2108 57.4367 41.1935 57.4377 41.1748C57.4393 41.1368 57.441 41.0992 57.4431 41.063C57.4471 41.0097 57.4511 40.9583 57.4573 40.9102C57.4599 40.8893 57.4629 40.8707 57.4653 40.8506C57.4705 40.8172 57.4755 40.7848 57.4804 40.7549C57.4837 40.7371 57.4871 40.7204 57.4913 40.7043C57.5001 40.661 57.5102 40.621 57.5227 40.5861C57.6814 40.1325 57.814 40.1812 57.9544 40.3332C58.0952 40.4866 59.3619 41.6362 61.4504 42.572C61.8939 42.7705 62.1585 42.8618 62.2189 42.9272C62.2787 42.9904 62.3743 43.1248 62.1845 43.1695C61.9969 43.2138 61.4398 43.2336 60.8565 43.4641C60.8227 43.4778 60.7915 43.4915 60.7629 43.5042C60.5589 43.5957 60.4633 43.6876 60.4199 43.7862C60.4114 43.8053 60.405 43.8257 60.4003 43.8458C60.3967 43.8593 60.3934 43.8755 60.3918 43.89C60.3892 43.9124 60.3884 43.9349 60.3892 43.9574C60.3892 43.9722 60.3884 43.9874 60.3899 44.0027C60.3917 44.0315 60.3948 44.0606 60.3979 44.0911C60.4048 44.1426 60.4119 44.1956 60.4171 44.2538C60.448 44.5704 60.5028 44.7962 60.543 45.2195C60.5823 45.6443 60.5579 46.0283 60.765 46.2075C60.9715 46.3843 61.2533 46.4893 62.0061 46.3432C62.7202 46.204 62.958 46.1432 63.0426 46.1408C63.1257 46.1381 63.3262 46.1045 63.2037 46.3383C63.192 46.3609 63.1768 46.3881 63.1588 46.4212C62.9941 46.7143 62.5953 47.3749 62.4594 47.815C62.3087 48.3001 62.2782 48.4343 62.2651 48.5172C62.2529 48.6005 62.3105 48.7612 62.4587 48.5815C62.6065 48.4014 62.8993 47.7307 63.6347 46.8769C63.7334 46.7628 63.8238 46.6625 63.9088 46.5699C63.9095 46.5699 63.9103 46.5682 63.9121 46.5665C63.9786 46.495 64.0405 46.43 64.0996 46.3704C64.1161 46.3534 64.1317 46.3382 64.1475 46.3233C64.1977 46.2744 64.2447 46.2293 64.2885 46.1867C64.3002 46.1768 64.3128 46.165 64.323 46.1551C64.4328 46.0558 64.5271 45.9792 64.6094 45.9192C64.6177 45.9146 64.625 45.9094 64.6326 45.904C64.6643 45.8806 64.6957 45.8596 64.7247 45.8421C64.7326 45.8374 64.7411 45.8317 64.7491 45.826C64.778 45.8081 64.8054 45.7934 64.8307 45.7794C64.8347 45.7759 64.841 45.7729 64.8455 45.7705C64.8489 45.7695 64.8512 45.767 64.8534 45.7658C64.8833 45.7521 64.908 45.7376 64.9333 45.7261C65.1387 45.6249 65.1946 45.7653 65.1323 46.0907ZM66.3498 49.8277C66.232 49.8549 65.7229 49.9322 65.6442 49.9335C65.5667 49.9354 65.5008 49.8629 65.5338 49.8073C65.5665 49.7527 65.917 49.2966 66.1096 48.5028C66.142 48.3735 66.2229 48.2835 66.2755 48.4693C66.316 48.605 66.4732 49.2798 66.5095 49.5337C66.5148 49.5781 66.5421 49.7827 66.3498 49.8277ZM66.5634 43.3546C66.2288 43.4801 65.8569 43.1041 65.5558 42.9032C64.8791 42.4406 64.2565 41.9948 63.7457 41.3706C62.9632 40.4154 63.0364 39.7494 63.2636 38.5155C63.4215 37.6389 63.1352 36.8147 63.0728 36.6986C63.0109 36.5821 63.0808 36.4639 63.2659 36.5506C63.4508 36.6376 63.6278 36.9075 63.8178 37.1389C64.0062 37.3703 64.048 37.2058 64.0636 37.0486C64.0996 36.6856 64.0178 36.3949 63.9726 36.2263H63.9715C63.9691 36.2181 63.967 36.2079 63.9653 36.199C63.9388 36.0985 63.8452 35.8744 63.6483 35.8337C63.3844 35.7782 63.1251 35.7548 62.9844 35.6536C62.9189 35.6064 62.8443 35.51 62.9182 35.4393C63.0525 35.3092 63.2477 35.1365 63.4331 35.0731C63.6853 34.9864 63.9278 34.8545 64.2473 34.8562C66.4032 34.8699 66.9846 34.3711 67.8088 34.0291C67.9703 33.9613 68.0672 33.9312 68.2055 33.9745C68.3445 34.0163 68.7214 34.1579 68.8165 34.3253C68.9122 34.4934 68.929 35.1939 69.1131 35.6992C69.2946 36.206 69.6038 35.6808 69.6716 35.4639C69.7366 35.2461 69.7621 34.7281 69.7655 34.5971C69.7688 34.4661 69.8071 33.9135 69.9806 33.7271C70.3252 33.3592 70.4063 32.9237 70.4481 32.7535C70.485 32.6008 70.514 32.1739 70.4384 31.5674C70.4303 31.4927 70.4192 31.4144 70.406 31.3341C70.2895 30.6026 70.1424 30.5408 69.9441 30.4078C69.7451 30.2752 69.5367 30.3328 69.0303 29.9857C68.5772 29.6741 68.1658 29.1295 67.8228 28.7972C67.4812 28.4654 66.9409 28.1318 66.371 28.073C66.3349 28.0697 66.3034 28.069 66.2744 28.069C66.272 28.069 66.2706 28.069 66.268 28.069C66.2427 28.0706 66.2188 28.0723 66.1983 28.0766C66.1943 28.0773 66.1919 28.0791 66.1874 28.0799C66.1694 28.0832 66.1529 28.0879 66.1389 28.0936C66.1351 28.0964 66.1316 28.0988 66.1269 28.1006C66.116 28.107 66.1053 28.113 66.0964 28.1202C66.0924 28.1241 66.0891 28.1281 66.0848 28.1326C66.0784 28.139 66.072 28.146 66.0675 28.154C66.0635 28.1595 66.0611 28.1664 66.0576 28.1728C66.0552 28.1798 66.0515 28.1853 66.05 28.1917C66.0467 28.2018 66.0451 28.2115 66.0435 28.2222C66.0435 28.2262 66.0429 28.2295 66.0429 28.2339C66.042 28.2479 66.042 28.2625 66.0435 28.2772H66.0429C66.0545 28.4181 66.156 28.5901 66.1819 28.6608C66.2179 28.7568 66.3091 29.0504 66.1474 29.2215C65.9844 29.3926 65.0318 30.2449 64.1397 30.2236C63.7365 30.2144 63.4 30.1315 63.1177 30.011C63.1192 30.0126 63.1203 30.0138 63.1211 30.0154C63.1092 30.0102 63.0991 30.0038 63.0867 29.998C63.0192 29.9684 62.9553 29.9362 62.8943 29.9024C62.8845 29.8968 62.8729 29.892 62.862 29.8859C62.7935 29.8466 62.7308 29.8051 62.671 29.7627C62.653 29.7493 62.6356 29.7361 62.6183 29.7233C62.5729 29.6888 62.5296 29.6535 62.489 29.6172C62.477 29.6063 62.4632 29.5956 62.4512 29.585C62.4027 29.5387 62.3576 29.4935 62.3155 29.4484C62.3051 29.4359 62.2959 29.4243 62.2853 29.413C62.2531 29.3758 62.2236 29.3387 62.1952 29.3026C62.1864 29.291 62.1779 29.2806 62.1699 29.2688C62.1378 29.2234 62.1082 29.1801 62.0829 29.1383C62.0794 29.1331 62.0777 29.1291 62.0744 29.1243C62.0524 29.0861 62.0335 29.0499 62.0168 29.017C62.0129 29.0081 62.0085 29.0002 62.0044 28.9908C61.9879 28.9554 61.9739 28.921 61.9643 28.892C61.8341 28.5004 62.1574 27.575 62.146 26.9124C62.142 26.622 62.082 26.0649 62.0375 25.6784C61.9931 25.2917 62.1969 24.7712 62.2917 24.645C62.3131 24.6173 62.3451 24.5907 62.3821 24.5647C62.3914 24.5578 62.4018 24.5523 62.4117 24.5458C62.4462 24.5233 62.4857 24.502 62.5304 24.4824C62.5368 24.4791 62.5429 24.476 62.5502 24.4724C62.5939 24.4543 62.6405 24.4354 62.6913 24.419V24.4214C62.7745 24.3928 62.8641 24.3663 62.9622 24.3443C63.2799 24.2735 63.6514 24.4308 63.7469 24.693C64.079 25.6079 64.447 25.8011 64.5702 25.8609C64.6954 25.9219 64.8919 25.7408 64.9691 25.6741C65.0465 25.6094 65.2332 25.364 65.1504 25.2563C65.0226 25.0929 64.9526 24.9925 64.9157 24.8904C64.8531 24.7178 65.0788 24.7142 65.1322 24.7382C65.8121 25.0263 66.1378 25.0868 66.7962 25.0648C67.4533 25.0444 68.4754 24.6114 68.6019 24.6089C68.7051 24.6065 68.9089 24.67 68.9854 24.776C68.998 24.7941 69.0152 24.8197 69.0313 24.845C69.0972 24.943 69.1856 25.0743 69.2643 25.1017C69.2677 25.1024 69.2698 25.1042 69.2731 25.105C69.3705 25.1291 69.6024 25.1114 69.7253 25.1166C69.8915 25.1224 70.18 25.0648 70.1718 25.37C70.1535 26.1851 69.5092 26.6934 69.4506 26.7428C69.4281 26.7633 69.4152 26.7895 69.4036 26.816C69.4003 26.8233 69.3941 26.8309 69.3927 26.8389C69.3892 26.8538 69.3863 26.8687 69.3863 26.8827C69.3863 26.8975 69.388 26.9108 69.3911 26.9221C69.4064 26.9706 69.4761 27.1465 69.5059 27.1944C69.5165 27.2117 69.5293 27.2282 69.5457 27.2438C69.5497 27.2478 69.5565 27.2511 69.5612 27.2554C69.574 27.2651 69.5867 27.2743 69.6012 27.2807C69.6085 27.2847 69.6182 27.2856 69.6267 27.2883C69.6402 27.2916 69.6556 27.2947 69.6711 27.2939C69.6808 27.2939 69.6927 27.2906 69.7024 27.2883C69.7265 27.2831 69.7491 27.2783 69.7747 27.2627C70.3207 26.9361 70.5428 26.5501 70.7804 26.0649C71.0173 25.582 71.142 23.9872 71.1557 23.7256C71.1692 23.4622 71.252 23.3003 71.3813 23.1944C71.5098 23.0879 72.1477 22.6794 72.2376 22.6586C72.3291 22.6373 72.4337 22.6284 72.5364 22.8662C72.6411 23.1056 72.8691 24.576 72.9124 24.802C72.9615 25.0423 73.0859 25.0137 73.1487 24.9676C73.2851 24.8679 73.3839 24.7454 73.5054 24.5367C73.6309 24.3278 73.539 24.0397 73.417 23.9056C73.2967 23.7707 73.106 23.5552 73.1871 23.3414C73.3719 22.8553 73.7602 22.8798 73.8643 22.8971C73.9664 22.9144 74.3599 23.0916 74.431 24.1506C74.5338 25.7195 73.894 27.3417 73.7415 27.753C73.4041 28.6675 73.3334 29.2902 73.2813 29.5866C73.2306 29.8817 73.0065 29.8284 72.9526 29.7805C72.898 29.7328 72.828 29.5042 72.7935 29.4704C72.7581 29.4366 72.6697 29.454 72.6118 29.7058C72.5541 29.9571 72.3614 30.3062 72.2485 30.4962C72.173 30.6194 72.187 30.7962 72.2052 30.9335C72.239 31.2003 72.3778 32.2209 72.3354 33.3812C72.2584 35.4456 71.5682 36.7459 71.0534 37.4266C69.8421 39.0284 68.7061 39.6978 68.5697 39.7928C68.3945 39.915 68.1014 39.8959 68.0033 39.8635C67.9036 39.8354 67.8161 39.7324 67.6297 39.5995C67.6145 39.5875 67.5992 39.5811 67.5864 39.5744C67.4384 39.5059 67.4162 39.7142 67.4176 39.7687C67.4193 39.8266 67.5089 40.041 67.5595 40.249C67.6562 40.6411 67.4384 41.115 67.2142 41.489C66.8944 42.0178 66.5375 42.5992 66.6121 43.2379C66.6112 43.2948 66.6112 43.3362 66.5634 43.3546ZM76.8278 43.9652C77.0103 45.0146 77.2157 46.2933 77.4478 47.8607C77.4598 47.9434 77.4686 48.0141 77.4751 48.08C77.4768 48.0882 77.4785 48.0972 77.4785 48.105C77.4849 48.1668 77.4882 48.2234 77.4882 48.2696C77.4882 48.2745 77.4875 48.2786 77.4875 48.2825C77.4875 48.3033 77.4875 48.3258 77.4858 48.3436C77.4832 48.3615 77.4803 48.3764 77.4768 48.3918C77.4768 48.3981 77.4751 48.4045 77.4751 48.4102C77.4671 48.4423 77.4562 48.4697 77.4416 48.4929C77.4399 48.4964 77.4369 48.4993 77.4335 48.504C77.4208 48.5218 77.4045 48.5378 77.3875 48.5508C77.382 48.5548 77.3769 48.5589 77.3705 48.5636C77.3489 48.5773 77.3246 48.5893 77.2948 48.599C77.2877 48.6023 77.2771 48.6035 77.2676 48.6069C77.245 48.6142 77.2204 48.6206 77.1936 48.6279C77.1767 48.6314 77.1601 48.6343 77.1429 48.639C77.1078 48.6461 77.07 48.6536 77.0299 48.6614C76.9559 48.6766 76.8474 48.692 76.7722 48.6983C76.642 48.7111 76.4902 48.7239 76.3248 48.7385C74.7262 48.8848 71.5975 49.202 69.0911 49.5176C69.0439 49.5221 68.9956 49.5273 68.9441 49.5355C68.7489 49.5629 68.6357 49.5317 68.6203 49.3401C68.6084 49.1642 68.3151 47.4243 67.4292 45.9421C67.3479 45.8055 67.2621 45.6707 67.1713 45.54C67.0702 45.3944 67.2203 45.2836 67.3633 45.3341C67.7647 45.4752 68.8765 45.9839 70.4623 47.1189C70.8672 47.4082 70.9725 47.4981 71.0633 47.5753C71.0752 47.5858 71.094 47.5961 71.1106 47.6042C71.117 47.6075 71.1243 47.6089 71.1323 47.6122C71.1432 47.6162 71.1572 47.6203 71.1709 47.6234C71.1782 47.625 71.1853 47.6267 71.1926 47.6273C71.2078 47.629 71.2231 47.6297 71.2368 47.629C71.2432 47.629 71.2487 47.629 71.2539 47.629C71.2721 47.6264 71.29 47.6208 71.3046 47.6118C71.3415 47.5886 71.3585 47.5435 71.3295 47.4657C71.2309 47.1877 70.7005 46.6415 69.3438 45.3826C69.1502 45.2035 69.1469 45.128 69.3476 45.107C69.5477 45.0879 70.0916 45.1125 70.3807 45.1006C70.6707 45.0879 71.3181 45.0699 71.1912 44.2226C71.094 43.5664 71.0177 42.8876 71.0057 42.6845C70.9948 42.482 70.9591 42.1035 70.4852 42.0499C70.0144 41.9958 69.2249 42.1052 68.5167 42.3534C68.3213 42.4212 68.2523 42.3311 68.3969 42.1992C68.5408 42.0683 69.7843 41.2592 70.8438 40.0424C72.0086 38.7027 72.521 37.7169 72.8119 36.8204C72.8644 36.6613 72.9315 36.7154 72.9966 36.7518C73.0609 36.7898 73.4979 37.1432 73.6529 38.0121C73.8047 38.8828 74.106 40.0911 73.5751 43.2641C73.2833 45.0023 72.9268 46.0289 72.8439 46.274C72.7606 46.5165 72.9034 46.6533 73.0641 46.4358C73.4385 45.9246 73.9335 44.5078 74.3512 42.8788C74.7626 41.2715 74.9116 39.8935 74.9747 39.0102V39.0093C74.9811 38.9282 74.9867 38.8519 74.9907 38.7788L74.9933 38.7491C74.9967 38.6777 75.0004 38.6091 75.0052 38.5475C75.0052 38.5098 75.0099 38.4799 75.0163 38.4527C75.0181 38.4446 75.021 38.4382 75.0236 38.4311C75.0274 38.4189 75.0309 38.4054 75.0354 38.3957C75.0354 38.394 75.0373 38.394 75.0373 38.3924C75.0453 38.3772 75.055 38.3643 75.0635 38.3544C75.0662 38.3512 75.0683 38.348 75.0707 38.3463C75.0787 38.3392 75.086 38.3359 75.0933 38.3321C75.0988 38.3295 75.1044 38.3257 75.1096 38.3238C75.1141 38.3231 75.1175 38.3231 75.1222 38.3222C75.1312 38.3205 75.1401 38.3187 75.1479 38.3187C75.1512 38.3187 75.1543 38.3187 75.1583 38.3205C75.1623 38.3205 75.1675 38.3205 75.1704 38.3205C75.1734 38.3205 75.1751 38.3231 75.1767 38.3231C75.2089 38.3286 75.2384 38.3414 75.2611 38.3512C75.3439 38.3836 75.7102 38.4893 75.901 39.3681C75.909 39.4035 75.9171 39.4419 75.9267 39.4802C75.9282 39.4931 75.9312 39.5075 75.9346 39.5203C75.9437 39.5556 75.9516 39.591 75.9601 39.6297L75.962 39.6361C76.1203 40.327 76.407 41.5225 76.8278 43.9652Z" fill="black"/>
<path d="M70.069 45.4623H70.2472V45.917H70.3549V45.4623H70.5325V45.371H70.069V45.4623Z" fill="black"/>
<path d="M70.9189 45.7613L70.7814 45.371H70.6265V45.917H70.7261V45.4776L70.878 45.917H70.9655L71.1149 45.4776V45.917H71.2144V45.371H71.0595L70.9189 45.7613Z" fill="black"/>
</svg>
