<svg width="134" height="66" viewBox="0 0 134 66" fill="none" xmlns="http://www.w3.org/2000/svg">
<mask id="mask0_271_2801" style="mask-type:alpha" maskUnits="userSpaceOnUse" x="0" y="0" width="134" height="66">
<rect width="134" height="66" fill="#D9D9D9"/>
</mask>
<g mask="url(#mask0_271_2801)">
</g>
<g clip-path="url(#clip0_271_2801)">
<path d="M20.5429 35.9159C20.3972 35.9293 20.2808 35.7247 20.234 35.6766C18.933 34.3769 17.628 33.0826 16.3323 31.7776C15.859 31.3002 15.3081 31.1251 14.6743 31.3363C13.6287 31.684 13.372 32.9208 14.1796 33.7391C15.4485 35.0254 16.7255 36.3037 18.0198 37.5659C18.3474 37.8855 18.5105 38.1342 18.2658 38.6142C17.9716 39.1878 18.0278 39.2172 17.5705 38.7626C16.1665 37.3627 14.7519 35.9721 13.3626 34.5574C11.9092 33.0772 12.5055 30.6424 14.4952 30.2065C15.2199 30.0474 15.4017 29.8134 15.5582 29.1354C16.0128 27.1632 18.4517 26.5562 19.9252 28.0083C21.8265 29.8829 23.7065 31.7789 25.5945 33.6669C26.9182 34.9893 28.2366 36.317 29.567 37.6314C30.1567 38.2131 30.9697 38.2452 31.5607 37.7464C32.1182 37.2758 32.2412 36.4441 31.8334 35.8424C31.7452 35.7113 31.6289 35.5977 31.5165 35.484C30.2276 34.1951 28.9439 32.9007 27.6416 31.6265C27.3942 31.3845 27.3354 31.22 27.6456 31.0114C27.7232 30.9593 27.794 30.8857 27.8489 30.8095C28.0561 30.5234 28.2179 30.5367 28.4733 30.7975C29.8064 32.1546 31.1595 33.4917 32.5087 34.8329C32.9432 35.2647 33.4607 35.4279 34.0423 35.1885C34.6053 34.9572 34.9288 34.516 34.977 33.9036C35.0144 33.4302 34.8286 33.0398 34.4889 32.7028C33.1598 31.3858 31.8455 30.0554 30.5097 28.7437C30.2717 28.5097 30.1875 28.3252 30.3733 28.0163C30.499 27.8077 30.5391 27.547 30.6648 27.1646C31.4925 28.0243 32.2493 28.8199 33.0181 29.6034C33.7455 30.3455 34.4742 31.0863 35.223 31.807C36.0694 32.6213 36.3636 33.5987 35.9664 34.6871C35.5706 35.7742 34.7296 36.3679 33.5449 36.3852C33.2722 36.3893 33.2481 36.4976 33.2401 36.7275C33.2 37.8641 32.6437 38.6877 31.5887 39.0822C30.5498 39.4686 29.5724 39.2761 28.7648 38.4698C25.6186 35.3303 22.4723 32.1894 19.3301 29.0472C19.0213 28.7383 18.7084 28.4468 18.2457 28.3987C17.6013 28.3332 17.0223 28.6487 16.7509 29.2183C16.4821 29.7813 16.5877 30.4097 17.0651 30.8924C18.1227 31.9608 19.1911 33.0171 20.2554 34.0787C20.5162 34.3381 20.7582 34.6203 21.0403 34.8529C21.0403 34.8529 21.0898 34.9011 21.1673 34.9906C21.2529 35.0909 21.297 35.1417 21.2984 35.1805C21.3024 35.2661 21.1954 35.2875 21.0309 35.4479C20.9066 35.5696 20.9079 35.6137 20.7368 35.7822C20.6098 35.9066 20.571 35.9186 20.5416 35.9213L20.5429 35.9159Z" fill="#FE0304"/>
<path d="M44.8314 35.8461C46.2688 33.1264 47.6608 30.4909 49.0567 27.8568C49.1757 27.6322 49.2974 27.4036 49.4525 27.203C49.6771 26.9102 50.0047 26.9021 50.327 26.9891C50.6332 27.072 50.7308 27.3273 50.7548 27.6162C50.7629 27.7111 50.7602 27.8074 50.7602 27.9036C50.7602 31.4684 50.7602 35.0331 50.7602 38.5978C50.7602 39.0203 50.7187 39.4135 50.1973 39.5097C49.7146 39.5993 49.3776 39.3453 49.3442 38.8559C49.3281 38.6165 49.3388 38.3759 49.3388 38.1365C49.3388 35.4864 49.3388 32.8362 49.2519 30.1486C48.927 30.753 48.6021 31.356 48.2798 31.9604C47.3693 33.6639 46.4587 35.366 45.5508 37.0708C45.397 37.361 45.2459 37.6137 44.8502 37.6244C44.4316 37.6364 44.2565 37.377 44.0934 37.0735C42.9408 34.9408 41.7882 32.8068 40.6343 30.6741C40.5527 30.5244 40.4658 30.3773 40.3709 30.2142C40.2077 30.3211 40.2706 30.4589 40.2706 30.5698C40.2666 33.2708 40.2679 35.9731 40.2625 38.674C40.2625 39.2904 40.0419 39.5418 39.5472 39.5218C39.1581 39.5057 38.9214 39.3145 38.88 38.9134C38.8733 38.8505 38.876 38.785 38.876 38.7222C38.876 35.0612 38.876 31.4015 38.8746 27.7405C38.8746 27.4183 38.9254 27.1254 39.2771 27.0038C39.5806 26.8995 39.8841 26.9075 40.1288 27.1388C40.2532 27.2565 40.3428 27.4169 40.4257 27.5707C41.4914 29.5697 42.553 31.5713 43.6174 33.5716C44.0064 34.3017 44.3982 35.0304 44.8355 35.8474L44.8314 35.8461Z" fill="#057CF7"/>
<path d="M82.4736 33.0419C84.3442 33.9752 85.0128 35.4661 84.363 37.2511C83.8642 38.6217 82.7464 39.1859 81.4013 39.325C79.6496 39.5068 77.8873 39.3878 76.1304 39.3918C75.5207 39.3932 75.3147 39.1351 75.3121 38.4612C75.3054 36.6722 75.3094 34.8818 75.3094 33.0927C75.3094 31.4147 75.3067 29.7379 75.3107 28.0599C75.3134 27.2817 75.5354 27.049 76.3082 27.061C77.9689 27.0891 79.6336 26.9581 81.2903 27.1426C83.6275 27.4033 84.9259 29.5454 84.0006 31.5885C83.6957 32.2611 83.1703 32.7063 82.4723 33.0406L82.4736 33.0419ZM76.7963 35.9434C76.7963 36.5826 76.8029 37.2217 76.7923 37.8609C76.7882 38.0788 76.8417 38.1737 77.0837 38.1711C78.2978 38.1577 79.5146 38.1965 80.7274 38.1443C81.5724 38.1082 82.3934 37.9036 82.8333 37.0532C83.5647 35.6413 82.8159 34.1063 81.2448 33.8602C79.8502 33.6423 78.4369 33.8161 77.0329 33.7666C76.7896 33.7586 76.7923 33.9003 76.7936 34.0728C76.7976 34.6959 76.7949 35.319 76.7963 35.9421V35.9434ZM76.7963 30.4078C76.7963 31.0149 76.8043 31.6219 76.7923 32.2276C76.7882 32.4456 76.8364 32.5352 77.0784 32.5311C78.2604 32.5138 79.4437 32.5525 80.6244 32.495C81.5203 32.4509 82.3653 32.1715 82.6434 31.1833C83.0232 29.8355 82.5632 28.6201 80.9814 28.3875C79.6791 28.1962 78.366 28.346 77.0583 28.2979C76.7882 28.2885 76.7936 28.4463 76.7949 28.6335C76.7989 29.2245 76.7963 29.8155 76.7976 30.4065L76.7963 30.4078Z" fill="#FE0304"/>
<path d="M67.4994 38.1471C66.0045 39.7008 64.1901 39.9843 62.6163 38.9667C61.933 38.5242 61.4798 37.8984 61.2123 37.1416C60.7497 35.8312 60.7417 34.5008 61.1762 33.1918C62.1804 30.1672 66.0072 30.0162 67.4125 32.0205C67.5489 31.9055 67.4753 31.7517 67.4767 31.622C67.4834 30.3437 67.4753 29.0655 67.482 27.7872C67.486 27.1681 67.7588 26.9087 68.3217 26.9475C68.6894 26.9729 68.9154 27.1547 68.9716 27.5265C68.9876 27.6361 68.9943 27.7484 68.9943 27.8594C68.9943 31.4388 68.9943 35.0196 68.993 38.599C68.993 39.2275 68.8018 39.4789 68.3244 39.519C67.8564 39.5577 67.5529 39.3171 67.5048 38.8491C67.4834 38.6445 67.5008 38.4359 67.5008 38.1484L67.4994 38.1471ZM67.5101 35.0036C67.5021 34.8685 67.4981 34.6118 67.4713 34.3591C67.3283 33.022 66.4217 32.0312 65.2745 31.9483C63.8585 31.8467 62.8744 32.5272 62.5374 33.8777C62.3502 34.6292 62.3529 35.3927 62.4919 36.1602C62.7246 37.4545 63.5857 38.2581 64.8546 38.3343C66.0553 38.4065 67.0221 37.6657 67.3697 36.4075C67.486 35.9877 67.5074 35.5571 67.5114 35.0049L67.5101 35.0036Z" fill="#057CF7"/>
<path d="M101.358 32.148C101.358 30.6023 101.354 29.1663 101.359 27.7302C101.362 27.1325 101.713 26.8491 102.294 26.9587C102.59 27.0149 102.786 27.1807 102.822 27.4935C102.838 27.6353 102.842 27.7797 102.842 27.9241C102.842 31.4728 102.843 35.0201 102.842 38.5688C102.842 38.9218 102.863 39.2855 102.446 39.4593C101.898 39.6866 101.403 39.3804 101.368 38.7827C101.356 38.5835 101.367 38.3816 101.367 38.1356C99.9243 39.6946 98.0002 39.9982 96.4424 38.9485C95.7552 38.4846 95.2979 37.8361 95.0425 37.0579C94.6173 35.7595 94.6146 34.4465 95.0545 33.1522C96.0721 30.1584 99.9376 30.0354 101.355 32.148H101.358ZM101.371 35.1217C101.388 34.7527 101.348 34.3556 101.265 33.9625C101.031 32.8527 100.189 32.0437 99.1661 31.9488C97.8999 31.8311 96.9332 32.3673 96.5347 33.4891C96.1376 34.607 96.1336 35.7502 96.5761 36.8627C96.9425 37.7839 97.6619 38.2639 98.6433 38.3254C99.5927 38.3843 100.367 38.0447 100.884 37.221C101.28 36.5899 101.386 35.8852 101.371 35.1217Z" fill="#FE0304"/>
<path d="M110.802 32.1243C110.802 30.6147 110.798 29.2281 110.803 27.8415C110.806 27.189 111.041 26.9336 111.593 26.9484C112.037 26.9604 112.267 27.1743 112.309 27.6196C112.314 27.6824 112.311 27.7479 112.311 27.8108C112.311 31.4236 112.311 35.0365 112.309 38.6494C112.309 39.2778 112.038 39.5573 111.496 39.5158C111.111 39.4864 110.866 39.2979 110.844 38.8914C110.832 38.6708 110.842 38.4475 110.842 38.1105C110.602 38.3686 110.45 38.5585 110.274 38.7189C108.856 40.0065 106.372 39.7846 105.166 38.2683C103.953 36.744 103.894 33.8278 104.98 32.2099C106.205 30.3847 109.336 30.1093 110.802 32.1243ZM110.873 35.1702C110.831 34.7945 110.815 34.4255 110.747 34.0671C110.503 32.7835 109.59 31.9625 108.407 31.9424C107.039 31.9184 106.169 32.6003 105.846 33.9575C105.666 34.7143 105.663 35.4778 105.828 36.2346C106.118 37.573 107.035 38.3459 108.293 38.3365C109.527 38.3271 110.439 37.5583 110.731 36.2519C110.81 35.8963 110.827 35.5259 110.873 35.1689V35.1702Z" fill="#FE0304"/>
<path d="M24.8804 21.4757C26.3018 21.4757 27.3982 22.4839 27.5038 23.9333C27.5279 24.2542 27.5988 24.3478 27.9331 24.3625C28.9867 24.4107 29.7488 24.9508 30.1647 25.9109C30.5966 26.9097 30.4655 27.8858 29.7141 28.672C28.3449 30.1041 26.9182 31.4826 25.5222 32.8893C25.3671 33.0457 25.2722 33.0564 25.0984 32.9C24.4419 32.317 24.4352 32.325 25.0529 31.7099C26.2978 30.4678 27.5493 29.2336 28.7835 27.9807C29.2956 27.4606 29.3424 26.6891 28.9452 26.1382C28.5388 25.5753 27.8354 25.368 27.199 25.6274C26.9409 25.7331 26.7444 25.9203 26.5518 26.1128C25.2735 27.3884 23.9859 28.656 22.725 29.9476C22.4656 30.2124 22.3092 30.2164 22.1073 29.9316C22.0618 29.8674 21.999 29.8126 21.9361 29.7644C21.6433 29.5451 21.638 29.374 21.9228 29.0972C23.2398 27.8149 24.5341 26.5086 25.8298 25.2049C26.4729 24.5577 26.5465 23.7475 26.033 23.1417C25.4581 22.4638 24.502 22.4331 23.8335 23.0949C22.5606 24.3532 21.2863 25.6127 20.0374 26.895C19.7058 27.236 19.4531 27.4191 18.9477 27.1678C18.3674 26.879 18.3353 26.9378 18.7926 26.4832C20.2193 25.0618 21.6446 23.6378 23.074 22.2205C23.5714 21.7257 24.1785 21.4811 24.8804 21.4757Z" fill="#057CF7"/>
<path d="M23.0446 33.7025C23.0874 33.6504 23.2652 33.4378 23.431 33.4752C23.4872 33.4886 23.5915 33.5287 23.7038 33.6918C23.7386 33.744 23.788 33.7908 23.8388 33.8269C24.1865 34.0635 24.1704 34.2588 23.8589 34.5596C22.6395 35.7363 21.4508 36.9437 20.25 38.1404C20.1712 38.2193 20.0883 38.2955 20.0107 38.3757C19.3462 39.0643 19.3127 39.9535 19.9251 40.5472C20.5322 41.1328 21.3919 41.0927 22.0605 40.4309C23.2412 39.2609 24.4151 38.0829 25.5918 36.9089C25.66 36.8407 25.7282 36.7739 25.7964 36.7057C26.2644 36.239 26.2416 36.2644 26.7511 36.7003C27.0947 36.9931 27.0185 37.1456 26.7337 37.4224C25.4166 38.7046 24.1196 40.0083 22.8267 41.3147C22.2437 41.903 22.1701 42.6919 22.61 43.2642C23.1877 44.0156 24.1664 44.0691 24.8671 43.3738C26.1614 42.0902 27.4584 40.8093 28.73 39.5042C29.0389 39.1873 29.3049 39.0149 29.6927 39.3197C29.8705 39.4601 30.2463 39.3304 30.2556 39.543C30.2636 39.7128 29.9802 39.904 29.8117 40.0725C28.4345 41.4524 27.0626 42.8403 25.6707 44.2042C24.2533 45.5934 22.011 45.1 21.3171 43.2735C21.178 42.9072 21.3585 42.4084 21.1018 42.1878C20.8691 41.9872 20.3985 42.1236 20.0455 41.9953C18.2551 41.3468 17.7243 39.1098 19.0413 37.7192C19.5253 37.2084 20.0401 36.7284 20.5268 36.2203C20.595 36.1494 20.6512 36.1053 20.7541 36.0077C20.8919 35.878 20.9467 35.8245 21.0042 35.7657C21.0964 35.6721 21.1606 35.5999 21.1753 35.5825C21.2876 35.4582 21.7623 34.9768 23.0459 33.6999L23.0446 33.7025Z" fill="#057CF7"/>
<path d="M56.8279 35.479C55.9321 35.479 55.0362 35.4844 54.1417 35.475C53.8689 35.4723 53.7579 35.5098 53.8114 35.8467C54.1149 37.7641 55.4922 38.648 57.5861 38.2401C58.1129 38.1385 58.5795 37.9099 59.0302 37.6251C59.3297 37.4365 59.6479 37.4018 59.8765 37.7347C60.1119 38.0757 59.9915 38.3832 59.692 38.6145C58.1677 39.7965 54.9827 40.0238 53.3475 38.2348C51.7108 36.4444 51.7817 31.8755 55.1673 30.882C57.9565 30.0651 60.2884 31.9397 60.1293 34.8466C60.1039 35.3105 59.9354 35.471 59.4179 35.475C58.5541 35.483 57.6904 35.4777 56.8279 35.4763V35.479ZM56.3239 34.4521C57.0579 34.4521 57.792 34.4535 58.5261 34.4508C58.6584 34.4508 58.8082 34.4962 58.8229 34.2582C58.8804 33.3303 58.1437 32.2339 57.2531 31.9584C55.6834 31.4704 54.1444 32.4304 53.8555 34.059C53.7967 34.392 53.901 34.4682 54.2166 34.4588C54.9186 34.4388 55.6205 34.4521 56.3225 34.4535L56.3239 34.4521Z" fill="#057CF7"/>
<path d="M91.8655 38.278C91.1114 39.1845 90.1594 39.6044 88.968 39.5442C87.3608 39.464 86.3473 38.5441 86.1908 36.9395C86.0638 35.6319 86.1547 34.3202 86.132 33.0098C86.124 32.5137 86.1173 32.0177 86.1373 31.5229C86.1614 30.96 86.382 30.7514 86.8968 30.7554C87.4009 30.7594 87.6269 30.9934 87.6402 31.543C87.6496 31.9428 87.6429 32.3426 87.6429 32.7424C87.6429 33.8776 87.6389 35.0128 87.6429 36.148C87.6483 37.4517 88.1069 38.1376 89.0496 38.2673C90.3679 38.4478 91.4296 37.8006 91.7692 36.6186C91.8722 36.2603 91.8869 35.8953 91.8869 35.5276C91.8869 34.2172 91.8815 32.9055 91.8869 31.5951C91.8896 31.0028 92.1115 30.7661 92.6317 30.7581C93.1264 30.7501 93.3898 30.9694 93.3911 31.4735C93.4018 33.903 93.4005 36.3338 93.3911 38.7634C93.3885 39.2728 93.1224 39.5202 92.6611 39.5202C92.1971 39.5202 91.9685 39.2755 91.9324 38.7634C91.9203 38.5976 92.0086 38.413 91.8575 38.2673C91.8842 38.3061 91.9096 38.3061 91.927 38.2633C91.9324 38.2512 91.923 38.2339 91.9217 38.2178L91.8655 38.278Z" fill="#FE0304"/>
<path d="M117.412 37.6141C118.26 35.563 119.069 33.6082 119.879 31.652C119.934 31.5196 119.984 31.3846 120.049 31.2562C120.28 30.8029 120.711 30.6224 121.115 30.8056C121.44 30.9527 121.539 31.3391 121.341 31.8124C120.914 32.826 120.476 33.8341 120.038 34.8437C119.019 37.1983 117.999 39.5529 116.979 41.9076C116.928 42.0239 116.876 42.1416 116.811 42.2499C116.603 42.5882 116.15 42.75 115.813 42.5815C115.423 42.3863 115.383 42.0253 115.52 41.6749C115.788 40.993 116.083 40.3218 116.404 39.6626C116.558 39.3457 116.554 39.0836 116.413 38.764C115.431 36.5164 114.464 34.2607 113.495 32.0076C113.22 31.3698 113.291 30.9754 113.702 30.8109C114.209 30.6077 114.622 30.823 114.885 31.4594C115.638 33.2859 116.38 35.1178 117.127 36.9469C117.205 37.1355 117.288 37.3226 117.415 37.6155L117.412 37.6141Z" fill="#FE0304"/>
<path d="M72.3678 35.1688C72.3678 36.304 72.3704 37.4379 72.3664 38.5731C72.3651 38.9942 72.2956 39.3807 71.7728 39.4636C71.2352 39.5491 70.901 39.3045 70.8568 38.7562C70.8301 38.4233 70.8502 38.085 70.8502 37.7494C70.8502 35.7357 70.8502 33.722 70.8502 31.7084C70.8502 31.2845 70.9103 30.8941 71.4211 30.7951C72.0068 30.6815 72.3624 30.9863 72.3664 31.6201C72.3745 32.8021 72.3691 33.9854 72.3691 35.1674L72.3678 35.1688Z" fill="#057CF7"/>
<path d="M71.599 27.1277C72.2542 27.125 72.5778 27.4245 72.5711 28.0289C72.5644 28.5999 72.2302 28.9194 71.6285 28.9301C70.9933 28.9408 70.6497 28.6293 70.6417 28.0343C70.6337 27.4165 70.9345 27.1304 71.599 27.1277Z" fill="#057CF7"/>
</g>
<defs>
<clipPath id="clip0_271_2801">
<rect width="108.885" height="23.5277" fill="white" transform="translate(12.5577 21.4723)"/>
</clipPath>
</defs>
</svg>
