<svg width="110" height="24" viewBox="0 0 110 24" fill="none" xmlns="http://www.w3.org/2000/svg">
<path d="M8.54289 14.9076C8.39715 14.921 8.28082 14.7164 8.23402 14.6683C6.93302 13.3686 5.628 12.0743 4.33234 10.7693C3.85901 10.2919 3.30812 10.1168 2.67433 10.328C1.62871 10.6757 1.37199 11.9125 2.1796 12.7308C3.44852 14.0171 4.72545 15.2954 6.01977 16.5576C6.34736 16.8772 6.51049 17.1259 6.2658 17.6059C5.97164 18.1795 6.0278 18.2089 5.57051 17.7543C4.16654 16.3544 2.75188 14.9638 1.36263 13.5491C-0.0908058 12.0689 0.505544 9.63407 2.49516 9.19817C3.21987 9.03905 3.40172 8.80506 3.55816 8.12715C4.01278 6.15491 6.45166 5.54787 7.92515 6.99996C9.82652 8.87459 11.7065 10.7706 13.5945 12.6586C14.9182 13.981 16.2366 15.3087 17.567 16.6231C18.1567 17.2048 18.9697 17.2369 19.5607 16.7381C20.1182 16.2675 20.2412 15.4358 19.8334 14.8341C19.7452 14.703 19.6288 14.5894 19.5165 14.4757C18.2276 13.1868 16.9439 11.8924 15.6416 10.6182C15.3942 10.3762 15.3354 10.2117 15.6456 10.0031C15.7232 9.95096 15.794 9.87742 15.8488 9.8012C16.0561 9.51506 16.2179 9.52843 16.4733 9.78917C17.8064 11.1463 19.1595 12.4834 20.5087 13.8246C20.9432 14.2564 21.4607 14.4196 22.0423 14.1802C22.6052 13.9489 22.9288 13.5077 22.977 12.8953C23.0144 12.4219 22.8285 12.0315 22.4889 11.6945C21.1598 10.3775 19.8455 9.04708 18.5097 7.73537C18.2717 7.50138 18.1874 7.31686 18.3733 7.00799C18.499 6.7994 18.5391 6.53866 18.6648 6.15625C19.4925 7.01601 20.2493 7.81159 21.0181 8.59513C21.7455 9.33723 22.4742 10.078 23.223 10.7987C24.0694 11.613 24.3635 12.5904 23.9664 13.6788C23.5706 14.7659 22.7296 15.3596 21.5449 15.3769C21.2722 15.381 21.2481 15.4893 21.2401 15.7192C21.1999 16.8558 20.6437 17.6794 19.5887 18.0739C18.5498 18.4603 17.5724 18.2678 16.7648 17.4615C13.6186 14.322 10.4723 11.1811 7.33014 8.0389C7.02127 7.73002 6.70838 7.43854 6.24574 7.3904C5.60126 7.32488 5.02229 7.64044 4.75086 8.21005C4.4821 8.77297 4.58773 9.40141 5.06508 9.8841C6.12273 10.9525 7.19108 12.0088 8.25542 13.0704C8.51615 13.3298 8.75817 13.612 9.0403 13.8446C9.0403 13.8446 9.08977 13.8928 9.16732 13.9823C9.2529 14.0826 9.29702 14.1334 9.29836 14.1722C9.30237 14.2578 9.1954 14.2792 9.03094 14.4396C8.90659 14.5613 8.90792 14.6054 8.73677 14.7739C8.60975 14.8983 8.57097 14.9103 8.54156 14.913L8.54289 14.9076Z" fill="#FE0304"/>
<path d="M32.8313 14.8362C34.2687 12.1165 35.6606 9.48105 37.0566 6.84695C37.1756 6.62232 37.2973 6.39367 37.4524 6.19311C37.677 5.90028 38.0046 5.89226 38.3268 5.97917C38.633 6.06207 38.7306 6.31746 38.7547 6.60627C38.7627 6.70121 38.7601 6.79748 38.7601 6.89375C38.7601 10.4585 38.7601 14.0232 38.7601 17.5879C38.7601 18.0105 38.7186 18.4036 38.1971 18.4998C37.7144 18.5894 37.3775 18.3354 37.3441 17.846C37.328 17.6067 37.3387 17.366 37.3387 17.1266C37.3387 14.4765 37.3387 11.8263 37.2518 9.13875C36.9269 9.74313 36.602 10.3462 36.2797 10.9505C35.3692 12.654 34.4586 14.3561 33.5507 16.061C33.3969 16.3511 33.2458 16.6038 32.85 16.6145C32.4315 16.6266 32.2564 16.3672 32.0932 16.0636C30.9407 13.9309 29.7881 11.7969 28.6341 9.66424C28.5526 9.51448 28.4657 9.3674 28.3707 9.20427C28.2076 9.31124 28.2704 9.44896 28.2704 9.55994C28.2664 12.2609 28.2678 14.9632 28.2624 17.6641C28.2624 18.2806 28.0418 18.5319 27.5471 18.5119C27.158 18.4958 26.9213 18.3046 26.8799 17.9035C26.8732 17.8406 26.8758 17.7751 26.8758 17.7123C26.8758 14.0513 26.8758 10.3916 26.8745 6.73062C26.8745 6.40838 26.9253 6.11556 27.277 5.99388C27.5805 5.88958 27.884 5.89761 28.1287 6.12893C28.2531 6.24659 28.3427 6.40704 28.4256 6.56081C29.4912 8.55979 30.5529 10.5614 31.6172 12.5617C32.0063 13.2918 32.3981 14.0205 32.8353 14.8375L32.8313 14.8362Z" fill="#057CF7"/>
<path d="M70.4735 12.0313C72.3441 12.9646 73.0127 14.4555 72.3629 16.2405C71.8641 17.6111 70.7463 18.1753 69.4012 18.3144C67.6495 18.4962 65.8872 18.3772 64.1303 18.3812C63.5206 18.3826 63.3146 18.1245 63.312 17.4506C63.3053 15.6615 63.3093 13.8712 63.3093 12.0821C63.3093 10.404 63.3066 8.72731 63.3106 7.04924C63.3133 6.27105 63.5353 6.03839 64.3081 6.05042C65.9688 6.0785 67.6335 5.94747 69.2902 6.13199C71.6274 6.39272 72.9258 8.53477 72.0005 10.5779C71.6956 11.2504 71.1702 11.6957 70.4722 12.03L70.4735 12.0313ZM64.7962 14.9328C64.7962 15.572 64.8028 16.2111 64.7922 16.8502C64.7881 17.0682 64.8416 17.1631 65.0836 17.1604C66.2977 17.1471 67.5145 17.1859 68.7273 17.1337C69.5723 17.0976 70.3933 16.893 70.8332 16.0426C71.5646 14.6306 70.8158 13.0956 69.2447 12.8496C67.8501 12.6317 66.4368 12.8055 65.0328 12.756C64.7895 12.748 64.7922 12.8897 64.7935 13.0622C64.7975 13.6853 64.7948 14.3084 64.7962 14.9315V14.9328ZM64.7962 9.3972C64.7962 10.0043 64.8042 10.6113 64.7922 11.217C64.7881 11.435 64.8363 11.5245 65.0783 11.5205C66.2603 11.5031 67.4436 11.5419 68.6243 11.4844C69.5202 11.4403 70.3652 11.1608 70.6433 10.1727C71.0231 8.82492 70.5631 7.60949 68.9813 7.37683C67.679 7.18563 66.3659 7.33538 65.0582 7.28725C64.7881 7.27789 64.7935 7.43567 64.7948 7.62286C64.7988 8.21386 64.7962 8.80486 64.7975 9.39587L64.7962 9.3972Z" fill="#FE0304"/>
<path d="M55.4992 17.1409C54.0043 18.6946 52.1899 18.9781 50.6161 17.9605C49.9328 17.5179 49.4795 16.8922 49.2121 16.1354C48.7495 14.825 48.7415 13.4946 49.176 12.1856C50.1802 9.16102 54.007 9.00993 55.4123 11.0142C55.5487 10.8993 55.4751 10.7455 55.4765 10.6158C55.4832 9.33752 55.4751 8.05924 55.4818 6.78097C55.4858 6.16189 55.7586 5.90249 56.3215 5.94127C56.6892 5.96667 56.9152 6.14852 56.9714 6.52023C56.9874 6.62988 56.9941 6.74219 56.9941 6.85317C56.9941 10.4326 56.9941 14.0134 56.9928 17.5928C56.9928 18.2213 56.8015 18.4726 56.3242 18.5127C55.8562 18.5515 55.5527 18.3108 55.5046 17.8429C55.4832 17.6383 55.5005 17.4297 55.5005 17.1422L55.4992 17.1409ZM55.5099 13.9973C55.5019 13.8623 55.4979 13.6056 55.4711 13.3528C55.3281 12.0157 54.4215 11.0249 53.2743 10.942C51.8583 10.8404 50.8742 11.521 50.5372 12.8715C50.35 13.6229 50.3527 14.3864 50.4917 15.1539C50.7244 16.4483 51.5855 17.2519 52.8544 17.3281C54.0551 17.4003 55.0219 16.6595 55.3695 15.4013C55.4858 14.9814 55.5072 14.5509 55.5112 13.9987L55.5099 13.9973Z" fill="#057CF7"/>
<path d="M89.3577 11.1422C89.3577 9.59646 89.3537 8.1604 89.359 6.72435C89.3617 6.12667 89.7134 5.8432 90.2937 5.95284C90.5905 6.009 90.7857 6.1748 90.8218 6.48768C90.8379 6.62942 90.8419 6.77382 90.8419 6.91823C90.8419 10.4669 90.8432 14.0143 90.8419 17.5629C90.8419 17.9159 90.8633 18.2796 90.4461 18.4535C89.8979 18.6808 89.4031 18.3746 89.3684 17.7769C89.3563 17.5776 89.367 17.3757 89.367 17.1297C87.9243 18.6888 86.0002 18.9923 84.4425 17.9427C83.7552 17.4787 83.2979 16.8302 83.0425 16.052C82.6173 14.7537 82.6147 13.4406 83.0546 12.1463C84.0721 9.15254 87.9377 9.02952 89.355 11.1422H89.3577ZM89.3711 14.1159C89.3884 13.7468 89.3483 13.3497 89.2654 12.9566C89.0314 11.8468 88.1891 11.0379 87.1662 10.9429C85.8999 10.8253 84.9332 11.3614 84.5347 12.4833C84.1376 13.6011 84.1336 14.7443 84.5762 15.8568C84.9426 16.7781 85.6619 17.2581 86.6434 17.3196C87.5927 17.3784 88.3669 17.0388 88.8844 16.2151C89.2801 15.584 89.3858 14.8794 89.3711 14.1159Z" fill="#FE0304"/>
<path d="M98.8017 11.114C98.8017 9.60445 98.7977 8.21787 98.803 6.83129C98.8057 6.17878 99.041 5.92339 99.5933 5.9381C100.037 5.95013 100.267 6.16407 100.309 6.60933C100.314 6.67217 100.311 6.73769 100.311 6.80053C100.311 10.4134 100.311 14.0263 100.309 17.6391C100.309 18.2676 100.039 18.547 99.4957 18.5056C99.1106 18.4761 98.8659 18.2876 98.8445 17.8811C98.8325 17.6605 98.8418 17.4372 98.8418 17.1003C98.6025 17.3583 98.45 17.5482 98.2735 17.7087C96.8562 18.9963 94.3719 18.7743 93.1658 17.258C91.953 15.7337 91.8942 12.8175 92.9799 11.1996C94.2047 9.37446 97.3362 9.09902 98.8017 11.114ZM98.8726 14.16C98.8311 13.7842 98.8151 13.4152 98.7469 13.0569C98.5035 11.7732 97.5903 10.9522 96.407 10.9322C95.0391 10.9081 94.1686 11.59 93.8464 12.9472C93.6659 13.704 93.6632 14.4675 93.8277 15.2243C94.1178 16.5627 95.0351 17.3356 96.2933 17.3262C97.5274 17.3169 98.4393 16.548 98.7308 15.2417C98.8097 14.886 98.8271 14.5156 98.8726 14.1586V14.16Z" fill="#FE0304"/>
<path d="M12.8806 0.46875C14.3019 0.46875 15.3984 1.47693 15.504 2.92635C15.5281 3.24726 15.5989 3.34086 15.9332 3.35556C16.9868 3.4037 17.749 3.94389 18.1648 4.90393C18.5967 5.90275 18.4657 6.87884 17.7142 7.66506C16.345 9.0971 14.9183 10.4757 13.5224 11.8823C13.3673 12.0387 13.2724 12.0494 13.0985 11.893C12.442 11.31 12.4353 11.318 13.0531 10.703C14.2979 9.46079 15.5495 8.22664 16.7836 6.97378C17.2957 6.45364 17.3425 5.68213 16.9454 5.13124C16.5389 4.56832 15.8356 4.36107 15.1991 4.62047C14.9411 4.7261 14.7445 4.91329 14.552 5.10584C13.2737 6.38144 11.9861 7.64901 10.7252 8.94066C10.4658 9.20541 10.3093 9.20942 10.1074 8.92461C10.062 8.86043 9.99913 8.80561 9.93628 8.75748C9.64346 8.53819 9.63811 8.36704 9.92291 8.09026C11.24 6.80797 12.5343 5.50162 13.8299 4.19794C14.4731 3.55078 14.5466 2.74049 14.0332 2.13479C13.4582 1.45687 12.5022 1.42612 11.8336 2.08799C10.5607 3.3462 9.28645 4.60576 8.03759 5.88804C7.70599 6.22901 7.45328 6.41219 6.94785 6.16081C6.36754 5.872 6.33545 5.93083 6.79274 5.47622C8.21944 4.05487 9.64479 2.63085 11.0742 1.21352C11.5716 0.718789 12.1786 0.474098 12.8806 0.46875Z" fill="#057CF7"/>
<path d="M11.0446 12.6926C11.0874 12.6405 11.2652 12.4279 11.431 12.4653C11.4872 12.4787 11.5915 12.5188 11.7038 12.6819C11.7386 12.7341 11.7881 12.7809 11.8389 12.817C12.1865 13.0537 12.1705 13.2489 11.8589 13.5497C10.6395 14.7264 9.45079 15.9338 8.25007 17.1305C8.17118 17.2094 8.08828 17.2856 8.01073 17.3658C7.34619 18.0544 7.31276 18.9436 7.92515 19.5373C8.5322 20.1229 9.39196 20.0828 10.0605 19.421C11.2412 18.251 12.4152 17.073 13.5918 15.899C13.66 15.8308 13.7282 15.764 13.7964 15.6958C14.2644 15.2291 14.2416 15.2545 14.7511 15.6904C15.0947 15.9833 15.0185 16.1357 14.7337 16.4125C13.4167 17.6948 12.1197 18.9984 10.8267 20.3048C10.2437 20.8931 10.1702 21.682 10.6101 22.2543C11.1877 23.0057 12.1665 23.0592 12.8671 22.3639C14.1614 21.0803 15.4584 19.7994 16.73 18.4943C17.0389 18.1775 17.305 18.005 17.6927 18.3098C17.8706 18.4502 18.2463 18.3205 18.2556 18.5331C18.2637 18.7029 17.9802 18.8941 17.8117 19.0626C16.4345 20.4425 15.0626 21.8304 13.6707 23.1943C12.2534 24.5835 10.011 24.0901 9.31708 22.2637C9.17802 21.8973 9.35853 21.3985 9.10181 21.1779C8.86915 20.9774 8.39849 21.1137 8.04549 20.9854C6.25511 20.3369 5.72428 18.0999 7.04133 16.7093C7.52536 16.1985 8.04014 15.7185 8.52685 15.2104C8.59504 15.1395 8.6512 15.0954 8.75416 14.9978C8.89188 14.8681 8.9467 14.8146 9.0042 14.7558C9.09646 14.6622 9.16064 14.59 9.17535 14.5726C9.28767 14.4483 9.76234 13.9669 11.046 12.69L11.0446 12.6926Z" fill="#057CF7"/>
<path d="M44.8277 14.4689C43.9318 14.4689 43.036 14.4742 42.1415 14.4649C41.8687 14.4622 41.7577 14.4996 41.8112 14.8366C42.1147 16.754 43.4919 17.6378 45.5858 17.23C46.1127 17.1284 46.5793 16.8998 47.0299 16.6149C47.3294 16.4264 47.6477 16.3917 47.8763 16.7246C48.1116 17.0656 47.9913 17.3731 47.6918 17.6044C46.1675 18.7864 42.9825 19.0137 41.3472 17.2247C39.7106 15.4343 39.7815 10.8654 43.167 9.87192C45.9562 9.05494 48.2881 10.9296 48.129 13.8364C48.1036 14.3004 47.9351 14.4609 47.4177 14.4649C46.5539 14.4729 45.6901 14.4676 44.8277 14.4662V14.4689ZM44.3236 13.442C45.0577 13.442 45.7918 13.4433 46.5258 13.4407C46.6582 13.4407 46.808 13.4861 46.8227 13.2481C46.8802 12.3202 46.1434 11.2237 45.2529 10.9483C43.6831 10.4602 42.1441 11.4203 41.8553 13.0489C41.7965 13.3818 41.9008 13.458 42.2163 13.4487C42.9183 13.4286 43.6203 13.442 44.3223 13.4433L44.3236 13.442Z" fill="#057CF7"/>
<path d="M79.8656 17.2726C79.1115 18.1792 78.1595 18.599 76.9681 18.5389C75.3609 18.4586 74.3474 17.5387 74.1909 15.9342C74.0639 14.6265 74.1548 13.3148 74.1321 12.0044C74.1241 11.5084 74.1174 11.0123 74.1374 10.5176C74.1615 9.95463 74.3821 9.74605 74.8969 9.75006C75.401 9.75407 75.627 9.98806 75.6403 10.5376C75.6497 10.9374 75.643 11.3372 75.643 11.737C75.643 12.8722 75.639 14.0074 75.643 15.1426C75.6484 16.4463 76.107 17.1322 77.0497 17.2619C78.368 17.4424 79.4297 16.7953 79.7693 15.6133C79.8723 15.2549 79.887 14.8899 79.887 14.5222C79.887 13.2118 79.8816 11.9001 79.887 10.5898C79.8897 9.99742 80.1116 9.76075 80.6318 9.75273C81.1265 9.74471 81.3899 9.96399 81.3912 10.4681C81.4019 12.8976 81.4006 15.3285 81.3912 17.758C81.3886 18.2674 81.1225 18.5148 80.6612 18.5148C80.1972 18.5148 79.9686 18.2701 79.9325 17.758C79.9204 17.5922 80.0087 17.4077 79.8576 17.2619C79.8843 17.3007 79.9097 17.3007 79.9271 17.2579C79.9325 17.2459 79.9231 17.2285 79.9218 17.2124L79.8656 17.2726Z" fill="#FE0304"/>
<path d="M105.412 16.6058C106.26 14.5547 107.069 12.5999 107.879 10.6437C107.934 10.5113 107.984 10.3763 108.049 10.2479C108.281 9.79461 108.711 9.6141 109.115 9.79729C109.44 9.94437 109.539 10.3308 109.341 10.8041C108.914 11.8177 108.476 12.8258 108.039 13.8354C107.02 16.19 105.999 18.5446 104.979 20.8993C104.928 21.0156 104.876 21.1333 104.811 21.2416C104.604 21.5799 104.15 21.7417 103.813 21.5732C103.423 21.378 103.383 21.017 103.52 20.6666C103.788 19.9847 104.083 19.3135 104.404 18.6543C104.558 18.3374 104.554 18.0753 104.414 17.7557C103.431 15.5081 102.464 13.2524 101.495 10.9993C101.221 10.3615 101.291 9.9671 101.702 9.80264C102.209 9.5994 102.622 9.81467 102.885 10.4511C103.638 12.2776 104.38 14.1095 105.128 15.9386C105.205 16.1272 105.288 16.3143 105.415 16.6072L105.412 16.6058Z" fill="#FE0304"/>
<path d="M60.3676 14.1627C60.3676 15.2979 60.3703 16.4318 60.3663 17.567C60.3649 17.9881 60.2954 18.3746 59.7726 18.4575C59.2351 18.543 58.9008 18.2984 58.8567 17.7501C58.8299 17.4172 58.85 17.0789 58.85 16.7433C58.85 14.7296 58.85 12.7159 58.85 10.7022C58.85 10.2784 58.9102 9.88795 59.4209 9.789C60.0066 9.67535 60.3623 9.98021 60.3663 10.614C60.3743 11.796 60.3689 12.9793 60.3689 14.1613L60.3676 14.1627Z" fill="#057CF7"/>
<path d="M59.5991 6.11721C60.2543 6.11453 60.5779 6.41404 60.5712 7.01842C60.5645 7.58936 60.2302 7.90893 59.6285 7.91963C58.9934 7.93032 58.6498 7.61878 58.6418 7.02376C58.6337 6.40602 58.9346 6.11988 59.5991 6.11721Z" fill="#057CF7"/>
</svg>
