<svg width="134" height="66" viewBox="0 0 134 66" fill="none" xmlns="http://www.w3.org/2000/svg">
<mask id="mask0_271_2740" style="mask-type:alpha" maskUnits="userSpaceOnUse" x="0" y="0" width="134" height="66">
<rect width="134" height="66" fill="#D9D9D9"/>
</mask>
<g mask="url(#mask0_271_2740)">
<path d="M54.8877 19.0906C55.8525 17.9375 56.8998 16.6978 58.3786 16.2237C60.0457 15.7825 61.4517 17.095 62.4989 18.2069C65.2394 21.339 67.2281 25.0429 69.0835 28.7454C70.0936 26.497 71.3346 24.3502 72.6362 22.2557C73.8758 20.3646 75.1554 18.4336 76.931 16.9961C77.7543 16.3639 78.9032 15.7646 79.9271 16.2924C81.3812 17.0634 82.4848 18.3361 83.5128 19.5922C85.7022 22.4069 87.416 25.5555 88.9662 28.755C90.9027 32.8754 92.5767 37.1798 93.2845 41.6973C93.4947 43.7891 93.683 46.1406 92.4172 47.9603C91.4428 49.3855 89.5833 49.8802 87.9437 49.6012C86.5116 49.0969 85.2624 48.1637 84.325 46.9721C82.1041 44.2248 80.782 40.8933 79.5519 37.6155C79.3678 37.0396 79.1534 36.4762 78.9554 35.9058C78.8263 36.4885 78.6668 37.0616 78.4785 37.6279C77.2251 40.9566 75.8879 44.3443 73.5968 47.1109C72.6829 48.242 71.4652 49.1065 70.0964 49.5985C68.1173 50.0108 66.2042 48.9759 64.9247 47.5287C62.4247 44.802 61.0325 41.2905 59.753 37.8739C59.5042 37.1716 59.2541 36.4679 59.0768 35.745C58.8761 36.4775 58.6232 37.1963 58.3607 37.9082C57.2104 41.0624 55.8924 44.2261 53.7938 46.8786C52.6599 48.242 51.1674 49.5765 49.3079 49.67C47.594 49.8184 45.9242 48.7107 45.2728 47.1411C44.3341 44.971 44.6062 42.5164 45.0268 40.2556C45.9146 35.9278 47.5748 31.7937 49.5154 27.8383C51.0478 24.7777 52.7506 21.7761 54.8877 19.0933V19.0906ZM55.8649 20.0458C53.747 22.7505 52.0635 25.7644 50.553 28.8361C48.6647 32.8066 46.9646 36.9421 46.2417 41.2988C45.9861 42.5041 45.9764 43.7602 46.1097 44.982C46.2554 46.1324 46.7117 47.3748 47.7741 47.9713C48.787 48.5664 50.0926 48.3272 51.0189 47.673C52.6737 46.5199 53.7663 44.758 54.7173 43.0167C56.7473 39.1273 58.0831 34.9135 59.0933 30.6571C60.1625 35.0193 61.5163 39.3568 63.6534 43.3246C64.5014 44.7924 65.4016 46.3165 66.7924 47.3308C67.4892 47.9589 68.4183 48.4028 69.3762 48.2956C70.4454 48.1857 71.3484 47.5054 72.0905 46.7742C73.3756 45.4534 74.3088 43.8399 75.1292 42.2045C76.8843 38.6023 78.0992 34.7596 79.0503 30.8729C80.2322 35.576 81.7028 40.2886 84.2261 44.4598C85.1744 45.918 86.289 47.4339 87.9547 48.1128C89.1298 48.5897 90.6045 48.1719 91.2779 47.0766C92.0901 45.775 92.152 44.1519 92.0297 42.6649C91.8648 40.2529 91.1583 37.9234 90.3901 35.6474C88.8577 31.2467 86.8305 27.0165 84.3635 23.0652C83.2228 21.3033 82.0381 19.5262 80.4452 18.1368C79.8818 17.642 79.0462 17.1651 78.3301 17.6612C76.9599 18.4969 76.002 19.8382 75.0523 21.104C72.7131 24.4341 70.7863 28.0541 69.2071 31.802C69.159 31.8597 69.0615 31.9697 69.0134 32.026C68.8801 31.6013 68.7412 31.1808 68.5543 30.7781C66.9353 27.2735 65.1281 23.8307 62.8411 20.7123C62.055 19.6857 61.251 18.6357 60.1914 17.8756C59.7406 17.5527 59.1386 17.2723 58.5971 17.5485C57.4509 18.0708 56.6483 19.0974 55.8635 20.0416" fill="#FEFEFE"/>
<path d="M55.8636 20.0428C56.6483 19.1 57.451 18.0733 58.5972 17.5497C59.1387 17.2721 59.7406 17.5538 60.1914 17.8768C61.251 18.6354 62.0564 19.6868 62.8412 20.7135C65.1281 23.8319 66.9354 27.2746 68.5544 30.7792C68.7413 31.1833 68.8787 31.6025 69.0134 32.0272C66.9106 28.4387 64.981 24.7142 62.3382 21.4762C61.5671 20.5719 60.7618 19.6071 59.6444 19.1247C59.0095 18.8553 58.3622 19.2113 57.8413 19.5563C55.9433 21.1409 54.5511 23.2189 53.2262 25.2818C50.1229 30.2364 47.7782 35.6582 46.2376 41.2944C46.9605 36.9377 48.6606 32.8023 50.5489 28.8318C52.0607 25.7587 53.7429 22.7461 55.8608 20.0414" fill="#9E242E"/>
<path d="M78.3301 17.6626C79.0461 17.1665 79.8817 17.6434 80.4452 18.1381C82.0381 19.5276 83.2214 21.3046 84.3635 23.0666C86.8291 27.0178 88.8563 31.2481 90.39 35.6488C91.1583 37.9247 91.8661 40.2542 92.0296 42.6662C91.7644 40.9881 91.3356 39.3403 90.7625 37.7433C89.3043 33.3522 87.2909 29.1536 84.839 25.2353C83.7698 23.5545 82.6304 21.9025 81.2506 20.4608C80.694 19.9165 80.1071 19.3379 79.3498 19.0933C78.7575 18.9119 78.2201 19.3242 77.746 19.6156C76.4733 20.6161 75.4783 21.9107 74.5341 23.2109C72.856 25.5844 71.3662 28.0885 70.0097 30.6599C69.7898 31.0722 69.515 31.4543 69.2071 31.8061C70.7849 28.0582 72.7117 24.4382 75.0509 21.1081C76.0019 19.8423 76.9585 18.501 78.3287 17.6654" fill="#9E242E"/>
<path d="M57.8425 19.5592C58.3634 19.2128 59.0107 18.8569 59.6457 19.1276C60.763 19.61 61.567 20.5748 62.3394 21.4791C64.9823 24.7171 66.9119 28.4416 69.0146 32.0287C67.6939 35.7752 66.1312 39.5492 66.0378 43.5774C65.9704 44.8734 66.3168 46.1392 66.7923 47.3307C65.4001 46.3165 64.4999 44.7923 63.6533 43.3245C61.5162 39.3567 60.1624 35.0179 59.0932 30.6571C58.3153 27.0164 57.6006 23.3015 57.8453 19.5605" fill="#FF912E"/>
<path d="M77.7447 19.6137C78.2202 19.3223 78.7576 18.91 79.3486 19.0914C80.1058 19.3374 80.6927 19.9147 81.2493 20.4589C82.6291 21.9006 83.7685 23.5526 84.8377 25.2334C87.2896 29.1517 89.303 33.3504 90.7612 37.7414C91.3343 39.3384 91.7645 40.9863 92.0284 42.6644C92.1507 44.1514 92.0875 45.7759 91.2766 47.076C90.6031 48.1714 89.1285 48.5892 87.9534 48.1123C86.2863 47.4347 85.1717 45.9188 84.2234 44.4593C81.7001 40.2881 80.2295 35.5754 79.0476 30.8724C78.2436 27.1809 77.5028 23.4097 77.7433 19.6137" fill="#F41CB2"/>
<path d="M53.2275 25.2834C54.5524 23.2205 55.9446 21.1439 57.8426 19.5579C57.5993 23.2989 58.3126 27.0137 59.0919 30.6544C58.0817 34.9108 56.7445 39.1259 54.7159 43.014C53.7662 44.7539 52.6723 46.5158 51.0175 47.6703C50.0912 48.3245 48.7856 48.5636 47.7727 47.9685C46.7103 47.3721 46.254 46.1296 46.1083 44.9793C45.975 43.7561 45.9846 42.5013 46.2403 41.2947C47.7796 35.6584 50.1242 30.2352 53.2289 25.282" fill="#F41CB2"/>
<path d="M74.5341 23.2091C75.4769 21.9076 76.4733 20.6143 77.746 19.6138C77.5041 23.4097 78.2449 27.1823 79.0489 30.8725C78.0992 34.7592 76.8829 38.6005 75.1292 42.204C74.3073 43.8395 73.3742 45.453 72.0891 46.7738C71.347 47.5049 70.444 48.1852 69.3748 48.2952C68.4169 48.4024 67.4892 47.9585 66.791 47.3304C66.3155 46.1388 65.9691 44.873 66.0365 43.577C66.1299 39.5488 67.6939 35.7748 69.0133 32.0283C69.0614 31.9706 69.159 31.8606 69.2071 31.8043C69.515 31.4538 69.7898 31.0718 70.0097 30.6581C71.3662 28.0867 72.856 25.5826 74.5341 23.2091Z" fill="#F25511"/>
</g>
</svg>
