<svg width="84" height="34" viewBox="0 0 84 34" fill="none" xmlns="http://www.w3.org/2000/svg">
<path d="M27.8879 3.09448C28.8527 1.9414 29.8999 0.701729 31.3787 0.227577C33.0458 -0.213591 34.4518 1.09892 35.4991 2.21077C38.2395 5.34292 40.2282 9.04681 42.0836 12.7493C43.0937 10.5009 44.3348 8.35413 45.6363 6.25962C46.876 4.36851 48.1555 2.43754 49.9312 0.999964C50.7544 0.367761 51.9034 -0.231457 52.9272 0.296295C54.3813 1.06731 55.4849 2.33996 56.5129 3.59612C58.7023 6.4108 60.4161 9.55944 61.9664 12.7589C63.9028 16.8793 65.5768 21.1837 66.2846 25.7012C66.4949 27.793 66.6832 30.1445 65.4174 31.9642C64.443 33.3894 62.5835 33.8841 60.9439 33.6051C59.5118 33.1008 58.2625 32.1676 57.3252 30.976C55.1042 28.2287 53.7821 24.8972 52.5521 21.6194C52.3679 21.0435 52.1535 20.4801 51.9556 19.9097C51.8264 20.4924 51.667 21.0655 51.4787 21.6318C50.2253 24.9605 48.888 28.3482 46.597 31.1148C45.683 32.2459 44.4654 33.1104 43.0965 33.6024C41.1174 34.0147 39.2043 32.9798 37.9248 31.5326C35.4248 28.8059 34.0326 25.2944 32.7531 21.8778C32.5043 21.1755 32.2542 20.4718 32.0769 19.7489C31.8763 20.4814 31.6234 21.2002 31.3609 21.9121C30.2105 25.0663 28.8925 28.23 26.7939 30.8826C25.6601 32.2459 24.1675 33.5804 22.308 33.6739C20.5942 33.8223 18.9243 32.7146 18.2729 31.1451C17.3342 28.9749 17.6063 26.5204 18.0269 24.2595C18.9147 19.9317 20.5749 15.7976 22.5155 11.8422C24.0479 8.78156 25.7508 5.77997 27.8879 3.09723V3.09448ZM28.8651 4.04966C26.7472 6.75439 25.0636 9.76835 23.5532 12.84C21.6648 16.8105 19.9647 20.946 19.2418 25.3027C18.9862 26.508 18.9766 27.7641 19.1099 28.9859C19.2556 30.1363 19.7119 31.3787 20.7742 31.9752C21.7871 32.5703 23.0928 32.3311 24.0191 31.6769C25.6738 30.5238 26.7664 28.7619 27.7175 27.0206C29.7474 23.1312 31.0833 18.9174 32.0934 14.661C33.1627 19.0232 34.5164 23.3607 36.6535 27.3285C37.5015 28.7963 38.4017 30.3204 39.7925 31.3347C40.4893 31.9628 41.4184 32.4067 42.3763 32.2995C43.4456 32.1896 44.3485 31.5093 45.0907 30.7781C46.3757 29.4573 47.3089 27.8439 48.1294 26.2084C49.8844 22.6062 51.0994 18.7635 52.0504 14.8768C53.2324 19.5799 54.7029 24.2925 57.2262 28.4637C58.1745 29.9219 59.2891 31.4378 60.9549 32.1167C62.1299 32.5936 63.6046 32.1758 64.278 31.0805C65.0903 29.7789 65.1521 28.1558 65.0298 26.6688C64.8649 24.2568 64.1585 21.9273 63.3902 19.6513C61.8578 15.2506 59.8306 11.0204 57.3637 7.06911C56.223 5.30719 55.0383 3.53015 53.4454 2.14068C52.8819 1.64591 52.0463 1.16901 51.3302 1.66515C49.96 2.50076 49.0021 3.84213 48.0524 5.10791C45.7133 8.43797 43.7864 12.058 42.2073 15.8059C42.1592 15.8636 42.0616 15.9736 42.0135 16.0299C41.8802 15.6052 41.7414 15.1847 41.5545 14.782C39.9355 11.2774 38.1282 7.83463 35.8413 4.71622C35.0551 3.68958 34.2511 2.63957 33.1915 1.87955C32.7407 1.55658 32.1388 1.27621 31.5973 1.55245C30.4511 2.07471 29.6484 3.10135 28.8637 4.04553" fill="#FEFEFE"/>
<path d="M28.8638 4.04364C29.6485 3.10083 30.4512 2.07419 31.5974 1.55056C32.1389 1.27294 32.7408 1.55468 33.1916 1.87765C34.2512 2.6363 35.0566 3.68768 35.8414 4.71432C38.1283 7.83273 39.9356 11.2755 41.5546 14.7801C41.7415 15.1842 41.8789 15.6033 42.0136 16.028C39.9108 12.4396 37.9812 8.71507 35.3384 5.47709C34.5673 4.57276 33.762 3.60797 32.6446 3.12557C32.0097 2.85619 31.3623 3.21215 30.8415 3.55712C28.9435 5.14175 27.5513 7.21977 26.2264 9.28268C23.1231 14.2372 20.7784 19.6591 19.2378 25.2953C19.9607 20.9386 21.6608 16.8031 23.5491 12.8326C25.0609 9.75958 26.7431 6.74699 28.861 4.04226" fill="#9E242E"/>
<path d="M51.33 1.66272C52.046 1.16658 52.8816 1.64348 53.4451 2.13825C55.038 3.52772 56.2213 5.30476 57.3634 7.06669C59.829 11.018 61.8562 15.2482 63.39 19.6489C64.1582 21.9248 64.866 24.2544 65.0296 26.6664C64.7643 24.9883 64.3355 23.3404 63.7624 21.7434C62.3042 17.3524 60.2908 13.1537 57.8389 9.23542C56.7697 7.55458 55.6304 5.90261 54.2505 4.46091C53.6939 3.91667 53.107 3.33806 52.3498 3.09343C51.7574 2.91201 51.22 3.32432 50.7459 3.61568C49.4732 4.61621 48.4782 5.91085 47.534 7.21099C45.8559 9.58451 44.3661 12.0886 43.0097 14.66C42.7898 15.0723 42.5149 15.4544 42.207 15.8062C43.7848 12.0583 45.7116 8.43829 48.0508 5.10823C49.0018 3.84245 49.9584 2.50108 51.3286 1.66547" fill="#9E242E"/>
<path d="M30.8425 3.56612C31.3634 3.21978 32.0107 2.86382 32.6456 3.13457C33.763 3.61697 34.567 4.58177 35.3394 5.48609C37.9822 8.72407 39.9118 12.4486 42.0146 16.0356C40.6938 19.7821 39.1312 23.5561 39.0378 27.5843C38.9704 28.8804 39.3167 30.1461 39.7923 31.3377C38.4 30.3234 37.4998 28.7993 36.6532 27.3315C34.5161 23.3637 33.1624 19.0249 32.0931 14.664C31.3153 11.0234 30.6006 7.30849 30.8452 3.56749" fill="#FF912E"/>
<path d="M50.7447 3.61369C51.2202 3.32232 51.7576 2.91002 52.3486 3.09143C53.1058 3.33744 53.6927 3.91467 54.2493 4.45892C55.6292 5.90061 56.7685 7.55259 57.8378 9.23342C60.2896 13.1517 62.303 17.3504 63.7612 21.7414C64.3343 23.3384 64.7645 24.9863 65.0284 26.6644C65.1507 28.1514 65.0875 29.7759 64.2766 31.076C63.6032 32.1714 62.1285 32.5892 60.9534 32.1123C59.2863 31.4347 58.1717 29.9188 57.2234 28.4593C54.7001 24.2881 53.2295 19.5754 52.0476 14.8724C51.2436 11.1809 50.5028 7.40965 50.7433 3.61369" fill="#F41CB2"/>
<path d="M26.2274 9.28806C27.5523 7.22516 28.9445 5.14851 30.8425 3.5625C30.5992 7.30349 31.3125 11.0184 32.0918 14.659C31.0816 18.9154 29.7444 23.1306 27.7158 27.0186C26.7661 28.7585 25.6722 30.5205 24.0174 31.6749C23.0911 32.3291 21.7855 32.5683 20.7726 31.9732C19.7102 31.3767 19.2539 30.1343 19.1082 28.9839C18.9749 27.7608 18.9845 26.506 19.2402 25.2993C20.7794 19.6631 23.1241 14.2399 26.2288 9.28669" fill="#F41CB2"/>
<path d="M47.5343 7.2125C48.4771 5.91099 49.4736 4.61772 50.7462 3.61719C50.5043 7.41316 51.2451 11.1858 52.0491 14.8759C51.0994 18.7626 49.8831 22.6039 48.1294 26.2075C47.3076 27.8429 46.3744 29.4564 45.0894 30.7772C44.3472 31.5083 43.4443 32.1886 42.375 32.2986C41.4171 32.4058 40.4894 31.9619 39.7912 31.3338C39.3157 30.1422 38.9694 28.8765 39.0367 27.5804C39.1302 23.5522 40.6942 19.7782 42.0136 16.0317C42.0617 15.974 42.1592 15.8641 42.2073 15.8077C42.5152 15.4573 42.7901 15.0752 43.01 14.6615C44.3664 12.0901 45.8563 9.58601 47.5343 7.2125Z" fill="#F25511"/>
</svg>
