<svg width="100" height="40" viewBox="0 0 100 40" fill="none" xmlns="http://www.w3.org/2000/svg">
<path d="M88.2326 19.0458L81.8488 30.0298L76.4151 30.0465L88.2326 9.36183L100 30.0465H94.4663L88.2326 19.0458ZM71.0648 25.2629H77.1652L74.3317 30.0465H66.3812L66.3978 24.2295V9.49518H71.0815L71.0648 25.2629ZM54.347 9.49518C60.1641 9.51185 64.8644 14.1121 64.831 19.7792C64.8144 25.4295 60.1141 30.0298 54.297 30.0298C48.5133 30.0132 43.813 25.4129 43.813 19.7458C43.8464 14.0788 48.5467 9.49518 54.347 9.49518ZM54.3304 25.2462C57.4472 25.2462 59.9474 22.796 59.9474 19.7792C59.9641 16.7623 57.4472 14.2955 54.347 14.2955C51.2635 14.2788 48.73 16.7456 48.73 19.7625C48.7133 22.7794 51.2468 25.2462 54.3304 25.2462ZM35.1625 18.1457C35.0958 17.2957 34.8791 16.1623 34.5458 15.0789C33.8791 12.8454 32.7123 10.7786 31.1289 9.06182C30.2955 8.16176 29.3621 7.34504 27.9787 6.36164C26.9119 5.84494 25.8785 5.27824 24.8451 4.6782C24.1784 4.29484 23.3617 3.82815 22.295 3.49479C21.0282 3.19477 19.7448 3.02809 18.4447 3.01143C17.178 2.96142 15.9279 3.0781 14.6945 3.31145C13.4111 3.52813 12.3443 3.86148 10.9276 4.2115C7.72736 5.59493 5.24387 7.67839 3.1104 10.4452C-4.34008 20.8459 2.39369 35.3969 14.8278 37.1136C16.878 37.397 18.9281 37.2803 20.8615 36.8303L22.2283 36.4636C22.2783 36.4469 22.345 36.4136 22.3783 36.4136L23.9451 35.8135C24.0284 35.7635 24.0951 35.7469 24.1784 35.7135L24.8285 35.4135C26.0785 34.7968 27.262 34.0301 28.3287 33.1467C27.3453 34.0301 26.2786 34.8302 25.1452 35.5135L25.2118 35.5635C25.4285 35.4969 25.6285 35.4302 25.8452 35.3969C25.8452 35.3969 25.8452 35.7302 25.7952 35.6802C25.4452 35.9302 25.9952 35.6969 26.6953 35.3469C27.3953 34.9802 28.062 34.5468 28.6787 34.0301C29.5788 33.28 30.3622 32.48 31.4622 31.1632C32.5956 29.1798 34.0124 27.463 34.6624 25.1462C34.8791 24.5295 35.0791 23.8128 35.2125 23.0627C35.3458 22.3127 35.4292 21.546 35.4292 20.7626C35.4125 19.9625 35.3291 19.1458 35.1625 18.1457ZM19.0448 35.6135C22.8617 35.0135 26.0452 32.9134 28.662 30.0465C29.3788 28.9964 29.9455 28.0464 30.6455 27.013C31.5122 24.8795 31.4456 22.9961 31.7289 21.6626C32.0789 19.2458 31.2456 17.279 30.5622 15.1955C29.4954 12.7787 28.0787 10.9619 25.5952 9.56185C19.3281 5.69493 10.7942 6.77834 6.7273 12.562C6.71063 12.562 6.59396 12.7121 6.37728 13.0121C6.66063 11.8287 7.37734 11.1286 8.09405 10.4452C10.2275 8.69512 12.711 7.32837 15.5445 6.64499C18.7447 6.31164 21.9283 6.64499 24.7785 8.02842C29.0454 10.4452 31.8789 14.2622 32.5956 18.7624V22.9294C31.6956 29.7298 25.8119 34.9135 19.0448 35.6135ZM34.6958 20.0959C34.5458 10.1119 24.5951 3.36145 14.9112 4.7282C12.0776 5.42825 8.99411 6.82834 6.79397 8.79513C5.72723 9.49518 5.2272 10.7953 4.16047 11.8287C-0.106475 18.0624 0.626905 26.0296 5.94391 30.8799C6.62729 31.5466 7.34401 32.18 8.12739 32.7467C3.69377 30.0965 1.67697 26.0629 0.993596 21.1793C0.993596 19.4292 1.34362 17.7124 1.71031 15.9789C4.1938 8.3451 12.011 2.79474 20.5115 4.2115C21.9283 4.54486 23.345 4.91155 24.7785 5.26157C26.5619 5.96162 28.3287 7.01168 29.7455 8.37844C31.1622 9.76186 32.2289 11.4953 33.2957 13.2288C34.0124 14.6122 34.3624 16.3456 34.7124 17.729C34.7624 18.5124 34.7624 19.3125 34.6958 20.0959Z" fill="black"/>
<path d="M25.8619 20.2459C25.8619 24.5461 22.245 28.0297 17.7947 28.0297C13.3278 28.0297 9.72754 24.5461 9.72754 20.2459C9.72754 15.9456 13.3444 12.462 17.7947 12.462C22.245 12.462 25.8619 15.9622 25.8619 20.2459Z" fill="white"/>
<path d="M25.912 18.9291C25.7953 18.3291 25.6287 17.8624 25.462 17.2123C24.7619 15.7622 23.7452 14.6455 22.3951 13.6788C17.3448 10.3452 10.3943 13.5454 9.66096 19.2458C9.37761 21.496 10.1777 23.6628 11.6278 25.3295C11.1944 24.8795 10.711 24.4128 10.3943 23.8794L10.3443 23.9294C10.3943 24.0628 10.561 24.1461 10.611 24.2628C10.611 24.2628 10.4443 24.2628 10.4777 24.2461C10.3443 24.0961 10.461 24.3295 10.6444 24.6462C10.811 24.9628 11.0444 25.2629 11.2944 25.5462C11.6611 25.9462 12.0611 26.3129 12.7112 26.7963C13.6779 27.2797 14.5113 27.9297 15.628 28.213C15.928 28.2964 16.2781 28.3797 16.6281 28.4464C16.9948 28.5131 17.3448 28.5297 17.7448 28.5297C18.1115 28.5297 18.5115 28.4797 18.9782 28.3964C19.4783 28.3464 19.9616 28.2464 20.4283 28.0964C21.4951 27.7797 22.4785 27.2297 23.2952 26.4796C23.7119 26.0962 24.2952 25.6129 24.7453 24.9628C25.112 24.2461 25.162 23.8794 25.3286 23.5627C25.4953 23.2461 25.712 22.8794 25.8787 22.396C25.9953 21.8126 26.0787 21.2293 26.0954 20.6292C26.0787 20.0625 26.0453 19.4958 25.912 18.9291ZM20.7283 14.9789C21.4617 15.3956 21.5784 15.4622 21.1784 15.1955C21.7451 15.3289 22.0951 15.6456 22.4451 15.9623C23.2952 16.9123 23.9952 18.0457 24.3452 19.3458C24.5453 20.8126 24.3952 22.2793 23.7619 23.5794C22.6285 25.5629 20.8283 26.8796 18.6615 27.2297C18.4282 27.2297 18.1615 27.2297 17.9282 27.2463C18.5449 27.1463 18.9282 26.763 20.045 26.3463C21.245 25.9296 22.5951 23.9461 23.2452 22.796C25.1453 19.6792 22.8785 16.7956 20.7283 14.9789ZM16.6281 27.263C13.3279 26.9296 10.7777 24.2295 10.4277 21.0959C10.7277 22.846 11.7778 24.1795 13.1945 25.3629C13.6946 25.6796 14.4279 26.1296 14.928 26.4463C15.778 26.763 16.2781 27.113 17.1114 27.2463L16.6281 27.263ZM25.5287 21.596C25.3786 22.2627 25.2286 22.896 25.0786 23.5461C24.7453 24.3461 24.2786 25.1795 23.6285 25.8462C22.9785 26.5129 22.1451 27.013 21.3284 27.4963C20.6783 27.8297 19.845 28.013 19.1782 28.1797C18.7782 28.2297 18.3282 28.0464 17.9448 28.0297C22.7785 27.8964 26.0787 23.4127 25.362 18.9791C25.012 17.679 24.3119 16.5623 23.4619 15.4289C23.1118 14.9455 22.4451 14.6455 21.9451 14.1455C18.9116 12.262 14.9113 12.6287 12.6278 15.1289C12.3111 15.4622 12.0111 15.7956 11.7278 16.1623C12.9445 14.3788 14.9113 13.1287 17.2615 12.7621C18.0948 12.7454 18.9449 12.8954 19.7616 13.0454C23.3952 14.1455 26.1287 17.679 25.5287 21.596Z" fill="#D7DF23"/>
</svg>
