<svg width="134" height="66" viewBox="0 0 134 66" fill="none" xmlns="http://www.w3.org/2000/svg">
<mask id="mask0_271_2847" style="mask-type:alpha" maskUnits="userSpaceOnUse" x="0" y="0" width="134" height="66">
<rect width="134" height="66" fill="#D9D9D9"/>
</mask>
<g mask="url(#mask0_271_2847)">
</g>
<g clip-path="url(#clip0_271_2847)">
<path d="M42.3858 48.0025H33.6911C33.6911 39.4545 33.7047 30.9064 33.6667 22.3584C33.664 21.5791 33.963 21.5736 34.5448 21.5736C39.1505 21.59 43.7561 21.5818 48.3644 21.5818C50.8603 22.3639 53.3452 23.1596 54.7726 25.6398C54.8623 25.7957 55.0119 25.9242 55.2158 25.8339C55.4876 25.7136 55.4115 25.4538 55.4115 25.246C55.4251 24.0237 55.4251 22.8041 55.4278 21.5818H64.1225C64.1551 24.5214 64.2149 27.4582 64.2095 30.3978C64.2095 31.1826 64.3754 31.5518 65.2508 31.5135C66.6945 31.4506 68.1436 31.4506 69.5845 31.5135C70.4491 31.5518 70.634 31.2127 70.6258 30.4087C70.5932 27.4664 70.6313 24.5241 70.6449 21.5818H87.2186C87.8629 24.4612 89.2251 27.0781 90.2147 29.829C90.4539 30.4935 91.0167 30.4826 91.256 29.8345C92.2647 27.0836 93.5642 24.4393 94.282 21.5818C97.4059 21.5818 100.53 21.5736 103.656 21.6009C103.86 21.6009 104.314 21.2509 104.336 21.8552C103.909 22.167 103.798 22.6756 103.58 23.1104C101.011 28.2458 98.4771 33.3976 95.8806 38.5165C95.3505 39.5611 95.1112 40.592 95.1357 41.7569C95.1792 43.8379 95.1167 45.9188 95.1003 47.9998H86.4057C86.3785 45.7821 86.3268 43.5644 86.3404 41.3467C86.3459 40.4608 86.18 39.6705 85.7749 38.8747C84.1708 35.7328 82.613 32.5635 81.0361 29.4079C80.7805 28.8966 80.631 28.1938 79.8316 28.4071C79.0486 28.6177 79.4211 29.3204 79.4157 29.7853C79.3695 35.8559 79.3613 41.9292 79.3423 47.9998H70.6476C70.6367 45.3719 70.5687 42.7441 70.6367 40.1189C70.6693 38.9376 70.4382 38.3716 69.1088 38.5165C67.9478 38.6423 66.757 38.6068 65.5879 38.5247C64.5494 38.4509 64.1742 38.7408 64.1986 39.8592C64.2557 42.5718 64.1606 45.2871 64.1279 47.9998H55.4333V35.8395C55.1505 35.8613 55.0934 35.8477 55.0662 35.8723C54.9357 35.9899 54.7835 36.0965 54.691 36.2414C53.4377 38.1911 51.5672 39.2084 49.3948 39.758C47.5298 40.2311 45.6212 40.2037 43.7235 40.1326C42.7692 40.0971 42.4973 40.4033 42.4973 41.3522C42.4973 43.5671 42.6767 45.7903 42.3913 48.0025H42.3858ZM42.5163 30.9775C42.5163 31.7022 42.5544 32.4295 42.5054 33.1514C42.4538 33.9198 42.7365 34.1851 43.5087 34.1577C44.7267 34.114 45.9556 34.0484 46.4667 32.7276C47.005 31.3385 47.1219 29.8509 46.2383 28.5602C45.4744 27.4418 44.1449 27.4254 43.0193 27.6578C41.9617 27.8766 42.693 28.9513 42.5326 29.624C42.4293 30.0533 42.5136 30.5263 42.5136 30.9775H42.5163Z" fill="#FEE401"/>
</g>
<defs>
<clipPath id="clip0_271_2847">
<rect width="70.6667" height="26.5" fill="white" transform="translate(33.6667 21.5)"/>
</clipPath>
</defs>
</svg>
