<svg width="100" height="40" viewBox="0 0 100 40" fill="none" xmlns="http://www.w3.org/2000/svg">
<path d="M100 23.5876V24.6689C99.9307 24.72 99.825 24.7546 99.7976 24.8221C97.7754 29.667 95.6766 31.0765 90.4542 31.0747C60.7465 31.0638 31.0388 31.051 1.33112 31.0437C0.888022 31.0437 0.444923 31.1148 0.00182345 31.1513V25.4785C6.21615 25.4585 12.4287 25.4494 18.643 25.4038C19.3942 25.3983 19.5547 25.7101 19.5292 26.3666C19.4927 27.3111 19.5146 28.2575 19.5255 29.202C19.5292 29.5503 19.48 29.895 19.9832 30.0372C21.3964 30.4347 22.062 29.9679 22.0638 28.5091C22.0638 27.8344 22.1075 27.1561 22.0528 26.4851C21.9872 25.6773 22.2552 25.371 23.105 25.3965C24.9503 25.453 26.7975 25.4111 28.6428 25.4111C48.6826 25.4111 68.7241 25.4111 88.7639 25.4001C89.2453 25.4001 89.8087 25.6007 90.4323 24.9461H86.552C89.548 21.5599 87.9032 19.6563 85.2009 18.5057C84.7505 18.3142 84.3183 18.0644 83.9044 17.8018C83.578 17.5939 83.3847 17.2694 83.5762 16.881C83.8004 16.4269 84.2362 16.4269 84.6283 16.5728C84.8617 16.6585 85.0258 16.9174 85.2446 17.0615C86.0105 17.5684 86.4098 16.7278 86.9915 16.5564C87.4018 16.436 87.3307 16.0896 87.1428 15.7851C86.4627 14.6837 85.4561 14.1895 84.1852 14.2789C82.6863 14.3847 81.5102 15.2909 81.2002 16.5929C80.9048 17.8346 81.1674 18.936 82.307 19.6599C82.9854 20.0921 83.7166 20.444 84.4332 20.8142C84.9985 21.1059 85.6202 21.3557 85.6148 22.127C85.613 22.5464 85.4343 22.9093 84.982 23.0661C84.2508 23.3178 83.5907 23.1427 83.1768 22.5391C82.3216 21.2919 81.492 22.2839 80.9212 22.6832C80.2484 23.1536 81.1637 23.6113 81.3607 24.0836C81.4883 24.3936 82.0007 24.4282 81.9569 24.9333C79.7852 24.9333 77.6281 24.9297 75.4727 24.937C75.0278 24.937 74.6522 24.8896 74.6668 24.3115C74.7178 22.2893 74.4826 20.2562 74.8199 18.2467C75.0625 16.7989 75.9067 16.3503 77.3709 16.7624C77.6171 16.8317 77.9344 17.2238 78.1477 16.7223C78.4194 16.0859 79.2254 15.4386 78.8407 14.8241C78.4614 14.2205 77.5351 14.0674 76.7473 14.2297C76.317 14.3172 75.9085 14.5397 75.511 14.7421C75.1591 14.9208 74.9895 15.3584 74.5118 14.6855C74.1179 14.1312 73.1405 14.3755 72.4841 14.5433C71.8751 14.6983 72.1796 15.3967 72.1759 15.8471C72.1486 18.5476 72.1705 21.2481 72.1522 23.9487C72.1504 24.3316 72.402 24.926 71.6289 24.9279C70.812 24.9297 69.9951 24.9279 68.932 24.9279C69.5082 24.4665 69.8474 24.2386 70.1318 23.956C70.4491 23.6405 70.7409 23.2904 70.9962 22.9221C71.1274 22.7324 71.3718 22.5428 71.1749 22.2237C70.6935 21.4414 69.3113 21.332 68.7114 22.045C67.2654 23.7609 64.8183 23.4928 63.9686 21.5381C63.6166 20.7285 63.6513 20.3036 64.7216 20.3364C66.6107 20.3929 68.5035 20.3492 70.3962 20.3528C70.9068 20.3528 71.3189 20.4039 71.3627 19.6289C71.5013 17.1964 69.8383 14.8351 67.5808 14.4065C64.5885 13.8394 62.1032 15.1614 61.3993 17.7927C60.6553 20.5698 61.186 23.0059 63.8118 24.8877H60.2943C60.5842 24.4446 60.5277 24.0034 60.5295 23.5694C60.5332 22.9604 60.5295 22.3495 60.5295 21.6475C57.9548 23.4618 56.4651 23.6077 55.1886 22.2529C54.038 21.0311 53.9669 18.8321 55.0446 17.5283C55.4549 17.0323 55.9508 16.6749 56.6073 16.5491C58.1426 16.2555 59.3935 16.7697 60.5295 18.2905C60.5295 17.1253 60.5076 16.4087 60.5368 15.6939C60.5587 15.1742 60.3691 14.8934 59.8786 14.6746C57.3877 13.5623 54.1274 14.5378 52.6103 16.8901C51.0585 19.297 51.5563 22.2437 53.8375 24.131C54.0946 24.3425 54.3608 24.5431 54.8568 24.9333C53.7828 24.9333 53.0224 24.875 52.2766 24.9479C51.3612 25.0373 51.0111 24.7783 51.0567 23.79C51.1387 21.9939 51.126 20.1887 51.0622 18.3908C51.0093 16.8737 50.7394 15.3912 49.1348 14.6691C47.8328 14.0838 46.5236 14.1093 45.249 14.7986C44.8825 14.9973 44.6272 15.5371 44.1914 14.6819C43.9142 14.1403 42.9332 14.4193 42.3023 14.5214C41.6057 14.6345 41.9157 15.3256 41.9103 15.7559C41.8774 17.9167 41.8957 20.0775 41.8975 22.2383C41.8975 24.086 40.9803 24.982 39.1459 24.926C39.0383 24.9224 38.9326 24.844 38.7721 24.7783C39.7039 24.0945 40.488 23.3761 41.0058 22.3112C40.4187 21.9739 39.8388 21.6384 39.2553 21.312C39.1878 21.2737 39.0511 21.2408 39.0219 21.2737C38.6663 21.6766 38.3655 22.1325 37.9752 22.4936C36.5949 23.7736 34.2882 23.2211 33.6172 21.4742C33.3382 20.7485 33.3491 20.3072 34.3575 20.3382C36.2466 20.3966 38.1393 20.3546 40.0321 20.351C40.4697 20.351 40.8928 20.4495 40.9876 19.7456C41.3195 17.2821 39.5398 14.8296 37.0909 14.3847C34.4213 13.8978 31.5476 14.9572 30.7872 18.7263H30.3094C29.0166 14.4922 26.637 13.4036 22.5926 15.2162C22.2698 15.3602 22.2024 15.3639 22.051 15.0065C21.6025 13.9416 20.6524 14.5451 19.9486 14.536C19.3122 14.5287 19.5383 15.2216 19.5347 15.6246C19.5146 18.1884 19.5237 20.7522 19.5237 23.3141C19.5237 24.5249 18.9116 25.0069 17.6875 24.7601C20.0197 22.0122 19.6277 20.2343 16.3345 18.5841C15.8531 18.3434 15.3626 18.1136 14.914 17.82C14.5475 17.5812 14.3451 17.1891 14.6259 16.777C14.9031 16.3722 15.3462 16.4561 15.7255 16.622C15.9151 16.7041 16.0263 16.9539 16.2123 17.0633C17.0092 17.5338 17.5106 16.7989 18.0668 16.5035C18.7415 16.1443 18.0941 15.7212 17.8771 15.4368C16.9691 14.2443 15.7054 14.0656 14.3579 14.4339C13.1963 14.7512 12.3812 15.5006 12.1788 16.7406C11.9546 18.11 12.343 19.2259 13.6558 19.897C14.2558 20.2033 14.8411 20.537 15.4446 20.8324C16.0209 21.115 16.6025 21.3575 16.5387 22.1708C16.5041 22.6157 16.3801 22.9531 15.9078 23.0862C15.2331 23.2758 14.5913 23.1609 14.2156 22.5866C13.4097 21.3539 12.5125 22.1963 11.9582 22.6358C11.1741 23.2539 12.1989 23.7207 12.4651 24.2477C12.5782 24.472 12.9483 24.4994 12.9338 24.8896H0.275341C0.273518 22.9822 0.30087 21.0749 0.255283 19.1694C0.231579 18.2066 0.508743 17.211 0 16.2938V15.2125C0.475921 14.9846 0.423041 14.4704 0.605386 14.0838C1.84898 11.469 3.74173 9.67285 6.72125 9.25346L6.99294 9.20058C7.64027 8.92524 8.32589 9.03647 8.99327 9.03647C26.3179 9.02735 43.6407 9.02188 60.9653 9.0237C68.0294 9.0237 75.0935 9.04012 82.1575 9.04923C82.5204 9.28264 82.8832 9.28446 83.2461 9.04923C86.7581 9.04923 90.2682 9.04923 93.7802 9.04923C94.774 9.37381 95.7678 9.37563 96.7597 9.04923C97.2083 9.04923 97.655 9.04923 98.1036 9.04923C98.286 9.19329 98.4701 9.19146 98.6525 9.04923H99.4548C99.6371 9.21152 99.8176 9.37745 100 9.54339V11.9741C99.7228 12.3351 99.721 12.6943 100 13.0554V18.4583C99.5952 20.1687 99.5715 21.8791 100 23.5913V23.5876ZM81.2075 11.8136C80.4343 11.6568 80.0952 12.0506 80.0186 12.8092C79.9748 13.2486 79.8253 13.679 79.787 14.1184C79.7615 14.423 79.4843 14.8989 80.0496 14.9773C80.4471 15.032 80.9559 15.2107 81.1801 14.5998C81.4099 13.9762 81.6287 13.3416 81.9332 12.7527C82.3727 11.9029 82.0025 11.7297 81.2057 11.8136H81.2075Z" fill="#F58001"/>
<path d="M0.275341 24.8859H12.9283C12.9429 24.4975 12.5727 24.4684 12.4597 24.2441C12.1934 23.7189 11.1705 23.2521 11.9527 22.6321C12.5071 22.1945 13.4042 21.3503 14.2102 22.5829C14.5858 23.1573 15.2277 23.274 15.9023 23.0825C16.3746 22.9494 16.4968 22.6121 16.5333 22.1672C16.5971 21.3539 16.0154 21.1114 15.4392 20.8287C14.8356 20.5315 14.2503 20.1978 13.6504 19.8933C12.3375 19.2223 11.9509 18.1063 12.1734 16.7369C12.3758 15.497 13.1909 14.7475 14.3524 14.4302C15.6999 14.0619 16.9636 14.2406 17.8717 15.4331C18.0887 15.7176 18.7378 16.1406 18.0613 16.4999C17.507 16.7953 17.0055 17.5301 16.2069 17.0597C16.0209 16.9503 15.9096 16.7004 15.72 16.6184C15.3407 16.4543 14.8976 16.3704 14.6205 16.7734C14.3396 17.1837 14.542 17.5757 14.9086 17.8164C15.3571 18.1082 15.8476 18.3397 16.329 18.5804C19.6222 20.2307 20.0124 22.0085 17.682 24.7565C18.905 25.0032 19.517 24.5212 19.5182 23.3105C19.5182 20.7467 19.5091 18.1829 19.5292 15.621C19.5328 15.218 19.3067 14.5251 19.9431 14.5324C20.6451 14.5415 21.597 13.9379 22.0456 15.0028C22.1951 15.3602 22.2644 15.3584 22.5871 15.2125C26.6315 13.3982 29.0111 14.4868 30.304 18.7227C30.4936 21.1588 29.9666 23.3178 27.6381 24.8239H33.4276C31.1501 22.9822 30.9075 22.4042 30.7799 18.7227C31.5403 14.9554 34.4122 13.896 37.0836 14.381C39.5325 14.8278 41.3122 17.2785 40.9803 19.742C40.8855 20.4458 40.4624 20.3455 40.0248 20.3474C38.1339 20.3528 36.2411 20.3929 34.3502 20.3346C33.3418 20.3036 33.3309 20.7467 33.6099 21.4706C34.2809 23.2175 36.5876 23.7718 37.9679 22.4899C38.3582 22.127 38.659 21.6712 39.0146 21.27C39.0438 21.2372 39.1805 21.27 39.248 21.3083C39.8315 21.6365 40.4095 21.9702 40.9985 22.3076C40.4807 23.3706 39.6966 24.0891 38.7648 24.7747C38.9253 24.8403 39.031 24.9187 39.1386 24.9224C40.9742 24.9795 41.8914 24.0836 41.8902 22.2346C41.8902 20.0738 41.872 17.913 41.903 15.7522C41.9103 15.3201 41.6003 14.6308 42.295 14.5178C42.9241 14.4157 43.9069 14.1348 44.1841 14.6782C44.6199 15.5334 44.8752 14.9937 45.2417 14.7949C46.5163 14.1057 47.8255 14.0801 49.1275 14.6655C50.7339 15.3876 51.0038 16.87 51.0549 18.3871C51.1169 20.1851 51.1315 21.9903 51.0494 23.7864C51.0038 24.7765 51.3539 25.0355 52.2693 24.9443C53.0151 24.8713 53.7755 24.9297 54.8495 24.9297C54.3535 24.5413 54.0873 24.3407 53.8302 24.1274C51.549 22.2383 51.0512 19.2916 52.603 16.8864C54.1201 14.5342 57.3804 13.5568 59.8713 14.6709C60.3618 14.8898 60.5514 15.1724 60.5295 15.6903C60.5004 16.405 60.5222 17.1217 60.5222 18.2868C59.3881 16.7661 58.1353 16.2501 56.6 16.5455C55.9436 16.6713 55.4476 17.0287 55.0373 17.5246C53.9596 18.8266 54.0308 21.0257 55.1813 22.2492C56.4559 23.604 57.9475 23.4582 60.5222 21.6438C60.5222 22.3459 60.5259 22.9549 60.5222 23.5657C60.5186 23.9997 60.5751 24.441 60.287 24.8841H63.8045C61.1787 23.0023 60.6481 20.5662 61.392 17.789C62.0977 15.1578 64.5812 13.8358 67.5735 14.4029C69.831 14.8296 71.4921 17.191 71.3554 19.6253C71.3116 20.4002 70.8995 20.351 70.3889 20.3492C68.498 20.3455 66.6053 20.3893 64.7144 20.3328C63.644 20.2999 63.6075 20.7248 63.9613 21.5344C64.8128 23.4892 67.2581 23.759 68.7041 22.0413C69.304 21.3284 70.6862 21.4378 71.1676 22.22C71.3645 22.5391 71.1202 22.7288 70.9889 22.9184C70.7354 23.2868 70.4418 23.6369 70.1245 23.9523C69.8401 24.235 69.5009 24.4629 68.9247 24.9242C69.986 24.9242 70.8029 24.9242 71.6216 24.9242C72.3929 24.9242 72.1413 24.3279 72.1449 23.945C72.1632 21.2445 72.1413 18.544 72.1686 15.8434C72.1741 15.3949 71.8678 14.6965 72.4768 14.5397C73.1332 14.3719 74.1106 14.1276 74.5045 14.6819C74.9822 15.3547 75.1518 14.9171 75.5037 14.7384C75.9013 14.536 76.3097 14.3135 76.74 14.226C77.5278 14.0637 78.4541 14.2169 78.8334 14.8205C79.2181 15.435 78.4121 16.0823 78.1404 16.7187C77.9271 17.2201 77.6098 16.8281 77.3637 16.7588C75.8994 16.3467 75.0552 16.7934 74.8126 18.2431C74.4753 20.2525 74.7105 22.2857 74.6595 24.3079C74.6449 24.8859 75.0205 24.9352 75.4654 24.9333C77.6226 24.926 79.7797 24.9297 81.9496 24.9297C81.9934 24.4246 81.4828 24.3899 81.3534 24.08C81.1583 23.6077 80.2411 23.15 80.9139 22.6795C81.4847 22.2802 82.3162 21.2883 83.1695 22.5355C83.5835 23.1409 84.2436 23.3159 84.9748 23.0625C85.4251 22.9057 85.6039 22.5446 85.6075 22.1234C85.613 21.3521 84.993 21.1023 84.4259 20.8105C83.7093 20.4403 82.9781 20.0884 82.2998 19.6563C81.1601 18.9324 80.8975 17.831 81.1929 16.5892C81.5029 15.2873 82.679 14.381 84.1779 14.2753C85.4489 14.1859 86.4554 14.6801 87.1355 15.7814C87.3234 16.0859 87.3927 16.4306 86.9842 16.5527C86.4025 16.7241 86.0032 17.5666 85.2373 17.0578C85.0185 16.912 84.8544 16.6549 84.621 16.5692C84.2271 16.4233 83.7932 16.4233 83.5689 16.8773C83.3756 17.2657 83.5689 17.5921 83.8971 17.7982C84.311 18.0607 84.7432 18.3106 85.1936 18.502C87.8959 19.6508 89.5407 21.5563 86.5447 24.9425H90.4251C89.8014 25.5971 89.238 25.3965 88.7566 25.3965C68.7168 25.4074 48.6753 25.4056 28.6355 25.4074C26.7884 25.4074 24.9412 25.4476 23.0977 25.3928C22.248 25.3673 21.9799 25.6737 22.0456 26.4814C22.1003 27.1525 22.0565 27.8308 22.0565 28.5055C22.0547 29.9624 21.3891 30.431 19.9759 30.0335C19.4727 29.8913 19.5219 29.5467 19.5182 29.1984C19.5073 28.2538 19.4854 27.3075 19.5219 26.3629C19.5474 25.7065 19.3888 25.3947 18.6357 25.4001C12.4268 25.4476 6.21433 25.4567 0 25.4767V24.937L0.275341 24.8841V24.8859ZM48.6114 21.4888C48.5422 20.5042 48.6698 19.3445 48.4874 18.1756C48.2996 16.9721 47.6833 16.4543 46.5054 16.4743C45.3383 16.4944 44.7001 17.0469 44.5087 18.2176C44.1823 20.2288 44.4084 22.2474 44.33 24.2605C44.3081 24.8057 44.5944 24.8987 45.0721 24.9443C48.6114 25.2798 48.6114 25.2907 48.6114 21.7988V21.487V21.4888ZM21.8869 19.8222C21.8851 21.9228 23.0266 23.1919 24.8993 23.1774C26.586 23.1628 27.8368 21.7295 27.8332 19.8131C27.8295 17.882 26.6133 16.5072 24.8847 16.4835C23.012 16.4561 21.8887 17.707 21.8869 19.8222ZM33.6099 18.4455C35.0723 18.4455 36.4144 18.4345 37.7564 18.451C38.3782 18.4583 38.4165 18.2249 38.1758 17.7216C37.6653 16.6549 36.7663 16.4452 35.7105 16.4907C34.5654 16.54 33.8907 17.1107 33.6099 18.4473V18.4455ZM66.3117 18.4455C66.8514 18.4455 67.393 18.4236 67.9328 18.451C68.6877 18.4874 68.7916 18.2103 68.4433 17.5848C67.6757 16.2099 65.3453 16.0312 64.3953 17.2985C64.1874 17.5775 63.8865 17.8912 64.0999 18.265C64.284 18.5877 64.6688 18.4218 64.9624 18.4382C65.4109 18.4637 65.8631 18.4455 66.3117 18.4437V18.4455Z" fill="#FCF8F1"/>
<path d="M0.275341 24.8859L0 24.937V16.2938C0.508743 17.211 0.231579 18.2066 0.255283 19.1658C0.302693 21.0713 0.273518 22.9786 0.275341 24.8859Z" fill="#F4920F"/>
<path d="M100 23.5876C99.5715 21.8772 99.5952 20.1668 100 18.4546V23.5876Z" fill="#F3941D"/>
<path d="M100 13.0517C99.721 12.6907 99.7228 12.3314 100 11.9704V13.0517Z" fill="#F3941D"/>
<path d="M99.4548 9.04376L100 9V9.53974C99.8176 9.37381 99.6371 9.2097 99.4548 9.04376Z" fill="#F3941D"/>
<path d="M30.778 18.7227C30.9057 22.4042 31.1482 22.9841 33.4257 24.8239H27.6362C29.963 23.3159 30.4918 21.157 30.3021 18.7227C30.4608 18.7227 30.6194 18.7227 30.7799 18.7227H30.778Z" fill="#F18407"/>
<path d="M81.2075 11.8136C82.0025 11.7297 82.3745 11.9029 81.935 12.7527C81.6305 13.3416 81.4117 13.9762 81.182 14.5998C80.9577 15.2089 80.4489 15.032 80.0514 14.9773C79.4861 14.8989 79.7633 14.423 79.7888 14.1184C79.8253 13.679 79.9748 13.2486 80.0204 12.8092C80.097 12.0506 80.4362 11.6568 81.2093 11.8136H81.2075Z" fill="#FAF3E8"/>
<path d="M93.7802 9.04741C94.774 9.04741 95.7678 9.04741 96.7597 9.04741C95.766 9.37563 94.774 9.37381 93.7802 9.04741Z" fill="#F3941D"/>
<path d="M82.1575 9.04923C82.5204 9.04923 82.8833 9.04923 83.2461 9.04923C82.8833 9.28446 82.5204 9.28446 82.1575 9.04923Z" fill="#F3941D"/>
<path d="M98.1036 9.04741H98.6525C98.4702 9.18964 98.2878 9.19146 98.1036 9.04741Z" fill="#F3941D"/>
<path d="M6.72125 9.25346C6.81243 9.23523 6.90177 9.21699 6.99295 9.19876C6.90177 9.21699 6.81243 9.23523 6.72125 9.25346Z" fill="#F3941D"/>
<path d="M48.6114 21.4888V21.8006C48.6114 25.2926 48.6114 25.2834 45.0721 24.9461C44.5944 24.9005 44.3081 24.8075 44.33 24.2623C44.4102 22.2492 44.1823 20.2288 44.5087 18.2194C44.7001 17.0487 45.3383 16.4962 46.5054 16.4762C47.6833 16.4543 48.2996 16.974 48.4874 18.1774C48.6698 19.3445 48.5403 20.506 48.6114 21.4907V21.4888Z" fill="#F48204"/>
<path d="M21.8869 19.8204C21.8887 17.7052 23.012 16.4543 24.8847 16.4816C26.6115 16.5072 27.8277 17.8802 27.8332 19.8113C27.8368 21.7277 26.5878 23.1609 24.8992 23.1755C23.0247 23.1919 21.8851 21.921 21.8869 19.8204Z" fill="#F48103"/>
<path d="M33.6099 18.4437C33.8907 17.1071 34.5672 16.5363 35.7105 16.4871C36.7663 16.4415 37.667 16.6512 38.1758 17.7179C38.4165 18.2212 38.3782 18.4546 37.7564 18.4473C36.4143 18.4309 35.0704 18.4418 33.6099 18.4418V18.4437Z" fill="#F28306"/>
<path d="M66.3136 18.4455C65.8632 18.4455 65.4128 18.4637 64.9642 18.44C64.6688 18.4236 64.2859 18.5895 64.1017 18.2668C63.8884 17.8912 64.1892 17.5775 64.3971 17.3004C65.3471 16.0312 67.6775 16.2118 68.4452 17.5866C68.7953 18.2121 68.6895 18.4893 67.9346 18.4528C67.3967 18.4254 66.8551 18.4473 66.3136 18.4473V18.4455Z" fill="#F28206"/>
</svg>
