<svg width="100" height="40" viewBox="0 0 100 40" fill="none" xmlns="http://www.w3.org/2000/svg">
<path d="M9.87191 34.2309C9.85027 34.216 9.8297 34.1995 9.81038 34.1817C8.11826 32.0445 6.53967 29.8199 5.08112 27.517C4.41804 26.4032 3.98881 25.5324 4.07035 25.3078C4.28574 24.7232 8.13806 24.4016 9.32576 24.9324C9.6873 25.0939 9.67807 25.3047 9.67807 25.4309C9.67807 25.9647 9.65191 27.4032 9.65191 27.4032C9.64822 27.476 9.65941 27.5488 9.68479 27.6172C9.71017 27.6856 9.74922 27.748 9.79954 27.8008C9.84986 27.8536 9.91041 27.8956 9.97748 27.9242C10.0446 27.9528 10.1168 27.9675 10.1897 27.9673C10.2626 27.967 10.3347 27.952 10.4016 27.923C10.4686 27.894 10.5289 27.8517 10.5789 27.7986C10.6289 27.7455 10.6676 27.6828 10.6926 27.6143C10.7176 27.5458 10.7283 27.4729 10.7242 27.4001L10.7165 23.8216C10.7165 23.5109 10.3796 23.4339 10.3165 23.4216C9.69807 23.4185 8.4396 23.4139 7.08882 23.4139C4.10881 23.4139 3.44266 23.537 2.93496 23.2047C1.83649 22.4816 0.0426405 17.6293 0.00110183 14.897C-0.05736 11.0462 2.2165 7.71232 5.41651 6.05847C6.79483 5.36125 8.31805 4.99863 9.86268 5C14.9289 5 19.1012 8.84002 19.6566 13.7816V13.7939C19.7581 14.9893 13.2027 15.2431 11.9058 14.8954C11.7058 14.8416 11.6565 14.637 11.6565 14.5508C11.6565 13.6431 11.6488 11.0862 11.6488 11.0862C11.6486 11.0158 11.6346 10.9461 11.6074 10.8811C11.5803 10.8162 11.5407 10.7572 11.4907 10.7075C11.4408 10.6579 11.3816 10.6185 11.3164 10.5918C11.2513 10.565 11.1816 10.5514 11.1111 10.5516C11.0407 10.5518 10.9711 10.5658 10.9061 10.593C10.8411 10.6201 10.7821 10.6598 10.7325 10.7097C10.6828 10.7596 10.6435 10.8188 10.6168 10.884C10.59 10.9491 10.5763 11.0189 10.5765 11.0893L10.5873 15.797C10.5878 15.8896 10.6204 15.9792 10.6796 16.0505C10.7388 16.1218 10.8209 16.1703 10.9119 16.1877H14.9812C17.1504 16.1877 18.0643 16.4401 18.6689 16.9031C19.0735 17.2108 19.2304 17.8047 19.092 18.5724C17.8766 25.4093 10.1611 33.8801 9.87038 34.234L9.87191 34.2309ZM30.7905 18.2724C32.7366 19.1108 33.9428 20.0416 33.9428 22.0801C33.9428 24.1185 32.3705 25.5109 29.9382 25.5109C27.9674 25.5109 26.3843 24.6124 25.5966 23.0493L25.4704 22.797L27.7874 21.4508L27.9397 21.7001C28.4612 22.5555 29.0458 22.9201 29.8905 22.9201C30.6212 22.9201 31.1105 22.597 31.1105 22.1124C31.1105 21.577 30.7566 21.377 29.6597 20.8939L29.1028 20.6555C27.6151 20.0185 26.2397 19.1339 26.2397 16.9924C26.2397 15.0662 27.7074 13.7231 29.812 13.7231C31.4043 13.7231 32.4982 14.3416 33.2489 15.6724L33.3874 15.9201L31.1428 17.3693L30.9889 17.0908C30.612 16.4154 30.2612 16.2801 29.8089 16.2801C29.3582 16.2801 29.0366 16.5416 29.0366 16.9447C29.0366 17.4077 29.2597 17.6108 30.2305 18.0324L30.7889 18.2739L30.7905 18.2724ZM47.1921 18.6662L48.829 14.0877H51.6367L47.4767 25.697H46.8536L44.3305 20.2601C44.2047 19.9844 44.0902 19.7036 43.9874 19.4185C43.8798 19.7031 43.7567 20.0139 43.6398 20.2616L41.0182 25.7001H40.3997L36.1705 14.0893H39.1705L40.8228 18.6693C40.9274 18.9616 41.0382 19.3185 41.1305 19.6478C41.2428 19.3078 41.3782 18.9385 41.5197 18.6416L43.6936 13.9923H44.2936L46.4998 18.6416C46.65 18.9687 46.78 19.3047 46.889 19.6478C46.9828 19.3185 47.0921 18.9601 47.1967 18.6693L47.1905 18.6662H47.1921ZM54.909 25.3632V13.8508H57.7444V25.3662H54.909V25.3632ZM67.0337 21.4955V18.9231H72.2968V24.0832L72.1876 24.1739C71.5876 24.6693 69.9876 25.5093 67.8291 25.5093C64.1814 25.5093 61.6368 23.0847 61.6368 19.6093C61.6368 16.1324 64.0922 13.7231 67.4783 13.7231C69.3399 13.7231 70.7029 14.2493 71.6476 15.3339L71.8322 15.5447L69.9014 17.4631L69.6906 17.2462C69.1522 16.6877 68.5906 16.3401 67.4752 16.3401C65.7414 16.3401 64.5306 17.6816 64.5306 19.6047C64.5306 21.5278 65.8229 22.9016 67.826 22.9016C68.4906 22.9016 69.1814 22.7862 69.6537 22.6016V21.4908H67.0337V21.4955ZM81.3938 21.4955V18.9231H86.6569V24.0832L86.5476 24.1739C85.9476 24.6693 84.3476 25.5093 82.1892 25.5093C78.5415 25.5093 75.9937 23.0847 75.9937 19.6093C75.9937 16.1324 78.4522 13.7231 81.8368 13.7231C83.6984 13.7231 85.0646 14.2493 86.0092 15.3339L86.1938 15.5447L84.263 17.4631L84.0522 17.2462C83.5138 16.6877 82.9538 16.3401 81.8384 16.3401C80.1061 16.3401 78.8953 17.6816 78.8953 19.6047C78.8953 21.5278 80.1891 22.9016 82.1907 22.9016C82.8538 22.9016 83.5445 22.7862 84.0184 22.6016V21.4908H81.3984L81.3938 21.4955ZM97.0385 13.8493H100L95.9354 21.5124V25.3662H93.0861V21.677L88.7553 13.8508H91.9154L93.9154 17.5216C94.1307 17.9216 94.3569 18.4493 94.5261 18.8785C94.6892 18.4539 94.9046 17.9293 95.1169 17.5262L97.0354 13.8523L97.0385 13.8508V13.8493Z" fill="#F47C2A"/>
</svg>
