<svg width="47" height="40" viewBox="0 0 47 40" fill="none" xmlns="http://www.w3.org/2000/svg">
<g clip-path="url(#clip0_8184_3716)">
<path d="M34.6803 39.9978C34.6584 39.9719 34.6364 39.947 34.6167 39.9211C34.5333 39.8097 34.5377 39.734 34.6375 39.6378C34.7362 39.5438 34.8569 39.4778 34.9775 39.4184C35.5686 39.1221 36.0577 38.6984 36.5041 38.2227C37.1873 37.494 37.5931 36.6227 37.8201 35.6627C37.9835 34.9654 38.0603 34.2573 38.1041 33.5438C38.1599 32.4885 38.1841 31.4318 38.1765 30.3751C38.1787 26.813 38.1776 23.2508 38.1732 19.6897C38.1732 19.0238 38.1568 18.3567 38.1425 17.6897C38.1383 17.4205 38.1138 17.152 38.069 16.8865C37.9901 16.4389 37.7346 16.1535 37.2926 16.0205C36.9482 15.9167 36.5973 15.9059 36.2453 15.8843C36.163 15.88 36.0819 15.8821 36.0007 15.8789C35.9601 15.8789 35.9185 15.8778 35.8779 15.8713C35.732 15.8486 35.6596 15.7838 35.6563 15.6767C35.6531 15.5686 35.7189 15.4984 35.8669 15.4746C35.9678 15.4573 36.0698 15.4454 36.1718 15.4465C36.9811 15.4605 37.7883 15.4724 38.5976 15.4951C39.3522 15.5167 40.1056 15.52 40.8601 15.4929C41.54 15.4692 42.22 15.4594 42.8977 15.4454C42.9997 15.4443 43.1017 15.4562 43.2015 15.4735C43.3507 15.4984 43.4143 15.5654 43.4121 15.6757C43.4088 15.7827 43.3386 15.8486 43.1905 15.8692C43.1039 15.88 43.0151 15.8778 42.9273 15.8811C42.6543 15.894 42.3856 15.9243 42.1202 15.987C41.9554 16.0197 41.8033 16.0977 41.6815 16.2119C41.5596 16.326 41.473 16.4718 41.4315 16.6324C41.3751 16.8263 41.3402 17.0257 41.3273 17.227C41.2878 17.7178 41.2834 18.2086 41.2823 18.7005C41.2768 21.8248 41.2494 24.9492 41.2955 28.0724C41.3119 29.1762 41.3679 30.28 41.324 31.3838C41.2823 32.4151 41.1452 33.4324 40.8195 34.4194C40.4576 35.5254 39.8182 36.4594 39.0034 37.2811C38.0008 38.2899 36.8226 39.1131 35.5247 39.7113L34.926 39.9957H34.6814V39.9978H34.6803Z" fill="#937142"/>
<path d="M46.0604 10.0652C44.6962 9.32681 43.3319 8.58735 41.9665 7.8533C41.8569 7.79384 41.813 7.73005 41.813 7.60465C41.8218 7.17438 41.8207 6.74411 41.813 6.31276C41.813 6.20357 41.8492 6.14735 41.9457 6.09438C43.2946 5.36789 44.6391 4.63708 45.9859 3.90627C46.0078 3.89438 46.0319 3.87924 46.0604 3.88357V10.0652ZM42.3394 6.50195L42.3526 6.54303H44.774C44.9111 6.54303 44.9133 6.5387 44.9133 6.38951C44.9155 6.00573 44.9133 5.62195 44.9133 5.23924C44.9133 5.20897 44.9243 5.17222 44.8716 5.13114L42.3383 6.50411V6.50195H42.3394ZM42.3317 7.43168L44.9144 8.82735V7.56897C44.9144 7.39816 44.9122 7.396 44.7345 7.396H42.4567C42.4206 7.396 42.3778 7.37978 42.3328 7.4306L42.3317 7.43168Z" fill="#947143"/>
<path d="M17.8725 33.567C17.0391 33.6005 16.142 33.6254 15.2449 33.6286C15.1232 33.6286 15.0003 33.62 14.8786 33.6178C14.8239 33.6155 14.7709 33.5987 14.7251 33.5692C14.6891 33.5488 14.6604 33.5178 14.6432 33.4806C14.6259 33.4434 14.6208 33.4018 14.6286 33.3616C14.6395 33.2816 14.6867 33.2232 14.7711 33.2102C14.8589 33.1983 14.9466 33.1886 15.0343 33.1854C15.3469 33.1735 15.6583 33.1638 15.9665 33.0967C16.396 33.0057 16.7821 32.7754 17.0632 32.4427C17.3045 32.1648 17.4865 31.8502 17.6411 31.5183C18.0732 30.5832 18.4549 29.6254 18.8541 28.6751C20.6614 24.3865 22.4665 20.0967 24.2717 15.807C24.3737 15.5638 24.4746 15.3205 24.6128 15.0967C24.8518 14.7097 25.1337 14.7075 25.376 15.0892C25.546 15.3594 25.6678 15.6513 25.7906 15.9432C26.9333 18.6481 28.0739 21.354 29.2144 24.06C30.1049 26.1702 30.991 28.2816 31.9123 30.3789C32.1448 30.9108 32.4003 31.4308 32.7238 31.9151C32.9069 32.1919 33.112 32.4502 33.3632 32.6719C33.6615 32.9356 34.0124 33.0794 34.4072 33.1324C34.6638 33.1659 34.9205 33.1778 35.1793 33.1865C35.267 33.1886 35.3547 33.1973 35.4425 33.2102C35.5258 33.2232 35.5741 33.2751 35.5807 33.3605C35.5872 33.4416 35.5587 33.5054 35.4809 33.54C35.3612 33.5885 35.233 33.6135 35.1036 33.6135C34.4171 33.6394 33.7306 33.6297 33.044 33.6243C31.8267 33.6135 30.6094 33.6265 29.3943 33.5735C29.2582 33.5683 29.1228 33.5517 28.9896 33.5238C28.9172 33.5086 28.847 33.4762 28.8416 33.3832C28.8372 33.2859 28.892 33.2329 28.9797 33.2081C29.0313 33.1929 29.0839 33.1821 29.1377 33.1735C29.3767 33.1302 29.5083 32.9313 29.4491 32.6967C29.4305 32.6254 29.3998 32.5562 29.3723 32.4881L27.4246 27.5875C27.3248 27.3367 27.293 27.314 27.0189 27.314H21.5738C21.3128 27.314 21.3019 27.3227 21.2032 27.5681L19.7939 31.1162C19.6471 31.4785 19.544 31.8566 19.4869 32.2427C19.4847 32.2567 19.4803 32.2686 19.4792 32.2827C19.4134 32.7962 19.6623 33.1151 20.1844 33.167C20.3861 33.1865 20.5923 33.18 20.7963 33.1865C20.8906 33.1908 20.9849 33.1973 21.0814 33.2059C21.1801 33.2156 21.2448 33.2675 21.2547 33.3702C21.2635 33.4686 21.2108 33.554 21.1121 33.5929C21.0213 33.622 20.9255 33.6331 20.8303 33.6254C20.3554 33.6178 19.8784 33.6146 19.4046 33.5929C18.9144 33.5713 18.4253 33.567 17.8725 33.5648V33.567ZM24.3177 26.1032H26.4979C26.8083 26.1032 26.8226 26.0816 26.7129 25.7973L24.7904 20.7843L24.4647 19.9151C24.4428 19.8611 24.4362 19.7843 24.3605 19.7811C24.2783 19.7789 24.2552 19.8524 24.2311 19.9151C24.1982 19.9962 24.1697 20.0783 24.1368 20.1605L21.9325 25.7573C21.9036 25.8251 21.8809 25.8953 21.8645 25.967C21.8502 26.0459 21.8842 26.0989 21.9741 26.1L22.1167 26.101H24.3166L24.3177 26.1032Z" fill="#937142"/>
<path d="M10.6476 24.2878C10.6519 25.9343 10.6311 27.9343 10.6662 29.9332C10.6783 30.6467 10.6991 31.3603 10.8175 32.0673C10.8318 32.1538 10.8493 32.2392 10.8735 32.3224C11.0106 32.7959 11.3111 33.0403 11.8057 33.0943C12.2443 33.144 12.6841 33.184 13.1261 33.1851C13.2291 33.1851 13.3311 33.1959 13.4255 33.2392C13.5614 33.3019 13.5768 33.4359 13.4595 33.5289C13.3837 33.5872 13.2902 33.6188 13.1941 33.6186C13.0515 33.623 12.9089 33.624 12.7663 33.624C11.651 33.6305 10.5368 33.584 9.42147 33.5657C8.72179 33.5548 8.0232 33.5776 7.32242 33.597C6.75215 33.6121 6.18187 33.6154 5.60941 33.623C5.50053 33.6299 5.39139 33.6141 5.28918 33.5765C5.20144 33.5386 5.13893 33.4846 5.14113 33.3819C5.14551 33.2716 5.22228 33.2338 5.3133 33.2132C5.4131 33.1916 5.51509 33.183 5.61708 33.183C5.90222 33.184 6.18626 33.1505 6.46701 33.0965C6.58797 33.0754 6.7019 33.0256 6.79897 32.9514C6.89603 32.8772 6.97331 32.7808 7.02413 32.6705C7.13928 32.4446 7.18863 32.2003 7.22263 31.9549C7.30597 31.3603 7.33558 30.7613 7.34765 30.1624C7.397 27.8738 7.37835 25.584 7.38055 23.2954C7.38274 21.1743 7.38055 19.0521 7.38055 16.9321C7.38055 16.6684 7.40468 16.69 7.14037 16.6976C5.75417 16.7343 4.36906 16.77 2.98286 16.8132C2.57708 16.8262 2.16912 16.8651 1.77322 16.97C1.40533 17.0578 1.08713 17.2846 0.887099 17.6013C0.733564 17.8403 0.590995 18.0835 0.509841 18.3581C0.500849 18.3909 0.489487 18.4231 0.475844 18.4543C0.413333 18.5862 0.309148 18.6457 0.185223 18.6251C0.0700716 18.6067 0.0163342 18.5332 0.00207734 18.37C-0.0220496 18.0781 0.0459446 17.7938 0.100779 17.5105C0.230187 16.8294 0.372756 16.1516 0.538354 15.4781C0.560043 15.38 0.589751 15.2839 0.627186 15.1905C0.707243 15.0057 0.808138 14.9613 1.00006 15.0316C1.26874 15.1278 1.53085 15.2446 1.81818 15.2727C2.11429 15.303 2.41258 15.3311 2.71088 15.3484C3.30747 15.3851 3.90626 15.4078 4.50395 15.4078C7.9903 15.4078 11.4777 15.4057 14.9641 15.4078C15.7482 15.4078 16.5236 15.343 17.2934 15.1873C17.5369 15.1386 17.617 15.2024 17.6268 15.4532C17.6422 15.85 17.6257 16.2478 17.6115 16.6446C17.5917 17.223 17.572 17.8013 17.5545 18.3797C17.5512 18.4954 17.5501 18.6089 17.5073 18.7181C17.4744 18.8067 17.4174 18.8673 17.3143 18.8673C17.2079 18.8684 17.13 18.8251 17.0906 18.7246C17.0441 18.5978 17.0218 18.4637 17.0248 18.3289C17.0259 17.7754 16.7276 17.4262 16.2527 17.1938C15.8645 17.0035 15.4477 16.9116 15.0233 16.85C14.5854 16.7939 14.1445 16.7646 13.7029 16.7624C12.8058 16.7462 11.9087 16.7213 11.0117 16.6986C10.9437 16.6965 10.8757 16.6943 10.8088 16.6943C10.6476 16.6943 10.6476 16.6943 10.6443 16.863V24.2857L10.6476 24.2878Z" fill="#947143"/>
<path d="M39.9103 13.9146C39.8631 13.8335 39.8774 13.773 39.8774 13.7146C39.8774 12.3092 39.8796 10.9027 39.8741 9.49622C39.8741 9.35784 39.9158 9.28 40.0408 9.21513C40.4444 9.00649 40.8414 8.78811 41.2384 8.56865C41.3239 8.52216 41.3941 8.51676 41.4829 8.56649L45.5549 10.7708C45.5725 10.7805 45.5878 10.7946 45.6218 10.8205L39.9114 13.9135L39.9103 13.9146ZM41.7681 11.6368C41.3042 10.8173 40.5749 9.66486 40.4575 9.56432V12.3481L41.7692 11.6378L41.7681 11.6368ZM42.5654 11.2032C43.0084 10.9654 43.4339 10.7341 43.8836 10.4897L41.314 9.09513L41.2855 9.12432L42.5654 11.2032ZM39.8916 0.00108108C41.8064 1.03892 43.7026 2.06378 45.5999 3.09297C45.5746 3.16541 45.5165 3.17405 45.4716 3.19784C44.1501 3.91459 42.8286 4.62811 41.506 5.34703C41.4094 5.4 41.3349 5.41622 41.2274 5.35459C40.8271 5.12757 40.4213 4.91135 40.0145 4.69513C39.9202 4.64649 39.8719 4.59351 39.8741 4.48C39.8785 3.01297 39.8763 1.54595 39.8774 0.0778378C39.8774 0.0648649 39.8818 0.0518919 39.8916 0V0.00108108ZM40.4575 1.61189V4.38595C40.4871 4.36108 40.5058 4.35243 40.5146 4.33622C40.9148 3.68757 41.3107 3.03892 41.7143 2.39243C41.7779 2.29189 41.722 2.26595 41.6529 2.22811L40.5815 1.64865C40.5486 1.63027 40.5167 1.59784 40.4575 1.61081V1.61189ZM43.8518 3.46054C43.8265 3.38811 43.775 3.37946 43.7355 3.35784L42.7178 2.80432C42.5654 2.72108 42.5643 2.72216 42.4721 2.87243C42.0927 3.48649 41.7143 4.10162 41.3371 4.71784C41.3195 4.74703 41.2746 4.77514 41.3118 4.83459L43.8518 3.46054V3.45946V3.46054Z" fill="#957244"/>
<path d="M32.774 10.0586V3.89101C32.8442 3.86398 32.8859 3.91047 32.9298 3.93425C34.2524 4.64993 35.5728 5.36668 36.8965 6.07911C37.0072 6.13966 37.0456 6.20668 37.0423 6.32993C37.0357 6.75911 37.0368 7.19047 37.0423 7.62182C37.0423 7.71911 37.0171 7.78074 36.9239 7.82938C35.5706 8.55803 34.2206 9.28884 32.8684 10.0207C32.8453 10.0326 32.8201 10.0413 32.7729 10.0607L32.774 10.0586ZM33.9431 5.10182V6.34938C33.9431 6.53425 33.9453 6.53641 34.1317 6.53641C34.8928 6.53641 35.6528 6.53641 36.4128 6.53425C36.4435 6.53425 36.4951 6.56668 36.5126 6.49425L33.942 5.10182H33.9431ZM33.9431 8.82074L36.5181 7.42614L36.5115 7.39047H35.3403C34.9192 7.39047 34.498 7.39263 34.0769 7.39047C33.9892 7.39047 33.9398 7.40236 33.9409 7.50938C33.9464 7.93317 33.9431 8.35695 33.9431 8.82074Z" fill="#947244"/>
<path d="M33.2217 10.8178L34.8667 9.92914C35.6815 9.48806 36.4986 9.04914 37.3112 8.60265C37.4373 8.53346 37.5327 8.52157 37.6632 8.59616C38.0449 8.81454 38.4342 9.01995 38.8235 9.22427C38.9222 9.27617 38.9727 9.33238 38.9727 9.45562C38.9672 10.8956 38.9683 12.3345 38.9683 13.7745C38.9683 13.8135 38.9782 13.8545 38.9354 13.9129L33.2217 10.8178ZM34.9676 10.4935L36.2869 11.2059L37.5722 9.12481L37.547 9.09779L34.9676 10.4924V10.4935ZM38.3859 9.57779L38.3552 9.56265L37.0798 11.6362L38.3859 12.3443V9.57779ZM38.942 0.0167061C38.988 0.0967061 38.9683 0.164814 38.9683 0.228598C38.9694 1.6286 38.9672 3.0286 38.9738 4.4286C38.9738 4.57671 38.9299 4.65562 38.7972 4.72373C38.3991 4.92698 38.0076 5.14319 37.6161 5.35941C37.5316 5.40589 37.4647 5.41346 37.3748 5.36481C36.0303 4.63292 34.6847 3.90535 33.339 3.17779C33.3105 3.16265 33.2853 3.14211 33.2326 3.10752L38.9409 0.015625L38.942 0.0167061ZM37.5602 4.84589C37.5602 4.81022 37.5634 4.80265 37.5602 4.79725C37.1577 4.13779 36.7508 3.47833 36.3505 2.81887C36.2957 2.72806 36.243 2.74535 36.1685 2.78644C35.8011 2.98968 35.4326 3.1886 35.0652 3.38968C35.0422 3.40157 35.0126 3.41022 35.0126 3.46535L37.5612 4.84589H37.5602ZM38.3881 4.3713V1.62211C38.3333 1.60373 38.3026 1.63725 38.2675 1.65454C37.9166 1.84481 37.5656 2.03508 37.2147 2.22752C37.0831 2.29779 37.0831 2.29995 37.1642 2.43292C37.5459 3.05454 37.9275 3.67508 38.3103 4.29454C38.3267 4.32157 38.3366 4.35508 38.3881 4.3713Z" fill="#947243"/>
</g>
<defs>
<clipPath id="clip0_8184_3716">
<rect width="46.0606" height="40" fill="white"/>
</clipPath>
</defs>
</svg>
