<svg width="134" height="66" viewBox="0 0 134 66" fill="none" xmlns="http://www.w3.org/2000/svg">
<mask id="mask0_270_2580" style="mask-type:alpha" maskUnits="userSpaceOnUse" x="0" y="0" width="134" height="66">
<rect width="134" height="66" fill="#D9D9D9"/>
</mask>
<g mask="url(#mask0_270_2580)">
<path d="M30.4556 12V15.4013H33.6513V23.686H38.0978V15.4013H41.2935V12H30.4556ZM44.8747 12L40.3596 23.686H44.8661L47.3164 16.6093L49.7838 23.6775H54.2818L49.7838 12H44.8747ZM53.3565 12V15.4013H56.5436V23.686H60.9901V15.4013H64.1858V12H53.3565ZM67.767 12L63.2433 23.686H67.7584L70.2173 16.6179L72.6761 23.686H77.1826L72.6761 12H67.767ZM30.4556 41.2236C30.4556 33.3244 34.7222 29.529 42.1759 29.529C46.6996 29.529 49.6639 31.1312 51.1975 33.1274C51.4973 33.5215 51.6087 33.8556 51.6087 34.224C51.6087 35.1921 50.7091 35.9889 49.5868 35.9889C49.0642 35.9889 48.5416 35.7919 48.0532 35.3206C46.5196 33.8213 44.909 32.9903 42.1759 32.9903C37.1982 32.9903 34.945 35.7233 34.945 41.2236C34.945 47.0581 37.1897 49.4227 42.1759 49.4227C44.9432 49.4227 46.4425 48.8572 48.2417 47.2209C48.8414 46.6897 49.3298 46.4926 49.8524 46.4926C50.9747 46.4926 51.8743 47.2894 51.8743 48.2918C51.8743 48.6602 51.7372 49.0115 51.4973 49.2942C49.6982 51.4275 46.1855 52.8925 42.1759 52.8925C34.7222 52.8925 30.4556 49.3884 30.4556 41.2236ZM65.5823 49.1828C66.5846 49.1485 67.4157 49.9367 67.45 50.9391C67.45 50.9734 67.45 50.9991 67.45 51.0334C67.45 52.1043 66.6789 52.8925 65.5823 52.8925H55.7211C54.6159 52.8925 53.8191 52.07 53.8191 50.9734V31.5167C53.8191 30.4201 54.6844 29.529 55.7554 29.529C56.8263 29.529 57.6831 30.4201 57.6831 31.5167V49.1828H65.5823ZM75.2378 50.8278C75.2378 51.9672 74.3639 52.8925 73.293 52.8925C72.222 52.8925 71.3482 51.9672 71.3482 50.8278V37.4282C71.3482 36.2888 72.222 35.3635 73.293 35.3635C74.3725 35.3635 75.2378 36.2888 75.2378 37.4282V50.8278ZM102.422 54.8373C101.883 54.8373 101.377 54.6231 101 54.2462L98.2843 51.5217L97.4961 52.0015C97.3333 52.1043 97.1705 52.1986 96.9992 52.2842L96.9306 52.3185C95.7312 52.9354 94.4375 53.3637 93.101 53.5779C92.5012 53.6722 91.8844 53.7236 91.2761 53.7236C90.2566 53.7236 89.2456 53.5951 88.2603 53.3552C86.7439 52.9525 85.3217 52.2757 84.0537 51.3504C82.7857 50.4337 81.7148 49.2685 80.9009 47.932C80.6867 47.5893 80.4897 47.238 80.3097 46.8696C79.83 45.8586 79.4873 44.7791 79.3073 43.6739L79.2902 43.5625L79.2645 43.434L79.2388 43.237C79.1703 42.7058 79.1274 42.1746 79.1274 41.6349C79.1274 40.6325 79.2559 39.6386 79.5044 38.6705C79.9071 37.1541 80.601 35.7319 81.5434 34.4725C82.4859 33.213 83.6596 32.1421 85.0133 31.3282C85.5359 31.0026 86.0928 30.7113 86.6754 30.4715C87.5921 30.0945 88.5516 29.8203 89.5369 29.6661C91.1647 29.4177 92.8268 29.5119 94.4203 29.9403L94.4546 29.9488C94.5831 29.9831 94.7031 30.0174 94.8145 30.0517L94.8573 30.0602C97.3847 30.8656 99.578 32.4677 101.103 34.6267C101.291 34.8923 101.446 35.1322 101.574 35.3635C102.2 36.3916 102.662 37.4968 102.954 38.6448C103.073 39.1075 103.168 39.5958 103.228 40.1184C103.399 41.6092 103.305 43.117 102.962 44.5821C102.671 45.7473 102.208 46.861 101.591 47.8891L101.12 48.6688L103.845 51.4018C104.641 52.1986 104.641 53.458 103.845 54.2547C103.468 54.6231 102.954 54.8373 102.422 54.8373ZM91.3789 32.8361C90.9334 32.8361 90.4964 32.8703 90.0509 32.9389C88.8686 33.1188 87.7377 33.53 86.7182 34.1383L86.6925 34.1555C85.6815 34.8066 84.8676 35.5605 84.1994 36.4601C83.5054 37.3683 82.9999 38.4135 82.7258 39.5187C82.4173 40.6239 82.3488 41.7891 82.5373 42.92C82.7172 44.1194 83.1113 45.1732 83.7281 46.1585C84.3107 47.118 85.1075 47.9748 86.0242 48.6345C88.5088 50.4936 91.7901 50.9049 94.6602 49.714C96.1338 49.0971 97.4018 48.0862 98.3357 46.7839C98.9954 45.91 99.4752 44.8819 99.7579 43.7425C100.032 42.5859 100.092 41.4292 99.9292 40.2983C99.5523 37.9594 98.3442 35.9204 96.5194 34.5496C95.0372 33.4358 93.238 32.8361 91.3789 32.8361Z" fill="black"/>
<path d="M76.4801 31.2447C77.4225 32.1871 77.4225 33.7207 76.4801 34.6631C75.5377 35.6055 74.0041 35.6055 73.0617 34.6631L70.1059 31.6988C69.1892 30.7306 69.232 29.2056 70.2001 28.2889C71.134 27.4065 72.5904 27.4065 73.5243 28.2889L76.4801 31.2447Z" fill="#FF1744"/>
</g>
</svg>
