<svg width="75" height="43" viewBox="0 0 75 43" fill="none" xmlns="http://www.w3.org/2000/svg">
<path d="M0.455566 0V3.40128H3.65123V11.686H8.09775V3.40128H11.2934V0H0.455566ZM14.8746 0L10.3596 11.686H14.866L17.3163 4.6093L19.7838 11.6775H24.2817L19.7838 0H14.8746ZM23.3564 0V3.40128H26.5435V11.686H30.99V3.40128H34.1857V0H23.3564ZM37.7669 0L33.2433 11.686H37.7583L40.2172 4.61787L42.676 11.686H47.1825L42.676 0H37.7669ZM0.455566 29.2236C0.455566 21.3244 4.72217 17.529 12.1759 17.529C16.6995 17.529 19.6638 19.1312 21.1974 21.1274C21.4973 21.5215 21.6086 21.8556 21.6086 22.224C21.6086 23.1921 20.7091 23.9889 19.5867 23.9889C19.0641 23.9889 18.5415 23.7919 18.0531 23.3206C16.5196 21.8213 14.9089 20.9903 12.1759 20.9903C7.19816 20.9903 4.94492 23.7233 4.94492 29.2236C4.94492 35.0581 7.1896 37.4227 12.1759 37.4227C14.9432 37.4227 16.4425 36.8572 18.2416 35.2209C18.8414 34.6897 19.3297 34.4926 19.8523 34.4926C20.9746 34.4926 21.8742 35.2894 21.8742 36.2918C21.8742 36.6602 21.7372 37.0115 21.4973 37.2942C19.6981 39.4275 16.1854 40.8925 12.1759 40.8925C4.72217 40.8925 0.455566 37.3884 0.455566 29.2236ZM35.5822 37.1828C36.5846 37.1485 37.4156 37.9367 37.4499 38.9391C37.4499 38.9734 37.4499 38.9991 37.4499 39.0334C37.4499 40.1043 36.6788 40.8925 35.5822 40.8925H25.721C24.6158 40.8925 23.819 40.07 23.819 38.9734V19.5167C23.819 18.4201 24.6844 17.529 25.7553 17.529C26.8262 17.529 27.683 18.4201 27.683 19.5167V37.1828H35.5822ZM45.2377 38.8278C45.2377 39.9672 44.3638 40.8925 43.2929 40.8925C42.222 40.8925 41.3481 39.9672 41.3481 38.8278V25.4282C41.3481 24.2888 42.222 23.3635 43.2929 23.3635C44.3724 23.3635 45.2377 24.2888 45.2377 25.4282V38.8278ZM72.4223 42.8373C71.8825 42.8373 71.3771 42.6231 71.0001 42.2462L68.2842 39.5217L67.496 40.0015C67.3332 40.1043 67.1704 40.1986 66.9991 40.2842L66.9305 40.3185C65.7311 40.9354 64.4374 41.3637 63.1009 41.5779C62.5012 41.6722 61.8843 41.7236 61.276 41.7236C60.2565 41.7236 59.2455 41.5951 58.2603 41.3552C56.7438 40.9525 55.3216 40.2757 54.0536 39.3504C52.7856 38.4337 51.7147 37.2685 50.9008 35.932C50.6866 35.5893 50.4896 35.238 50.3097 34.8696C49.8299 33.8586 49.4872 32.7791 49.3073 31.6739L49.2901 31.5625L49.2644 31.434L49.2387 31.237C49.1702 30.7058 49.1273 30.1746 49.1273 29.6349C49.1273 28.6325 49.2559 27.6386 49.5043 26.6705C49.907 25.1541 50.6009 23.7319 51.5434 22.4725C52.4858 21.213 53.6595 20.1421 55.0132 19.3282C55.5358 19.0026 56.0927 18.7113 56.6753 18.4715C57.592 18.0945 58.5516 17.8203 59.5368 17.6661C61.1646 17.4177 62.8267 17.5119 64.4203 17.9403L64.4545 17.9488C64.5831 17.9831 64.703 18.0174 64.8144 18.0517L64.8572 18.0602C67.3846 18.8656 69.5779 20.4677 71.1029 22.6267C71.2914 22.8923 71.4456 23.1322 71.5741 23.3635C72.1995 24.3916 72.6622 25.4968 72.9535 26.6448C73.0734 27.1075 73.1677 27.5958 73.2276 28.1184C73.399 29.6092 73.3047 31.117 72.962 32.5821C72.6707 33.7473 72.2081 34.861 71.5912 35.8891L71.12 36.6688L73.8445 39.4018C74.6413 40.1986 74.6413 41.458 73.8445 42.2547C73.4675 42.6231 72.9535 42.8373 72.4223 42.8373ZM61.3788 20.8361C60.9333 20.8361 60.4964 20.8703 60.0509 20.9389C58.8686 21.1188 57.7376 21.53 56.7181 22.1383L56.6924 22.1555C55.6815 22.8066 54.8675 23.5605 54.1993 24.4601C53.5053 25.3683 52.9998 26.4135 52.7257 27.5187C52.4172 28.6239 52.3487 29.7891 52.5372 30.92C52.7171 32.1194 53.1112 33.1732 53.7281 34.1585C54.3107 35.118 55.1074 35.9748 56.0242 36.6345C58.5087 38.4936 61.7901 38.9049 64.6602 37.714C66.1338 37.0971 67.4017 36.0862 68.3356 34.7839C68.9953 33.91 69.4751 32.8819 69.7578 31.7425C70.032 30.5859 70.0919 29.4292 69.9292 28.2983C69.5522 25.9594 68.3442 23.9204 66.5193 22.5496C65.0371 21.4358 63.238 20.8361 61.3788 20.8361Z" fill="black"/>
<path d="M46.4801 19.2426C47.4226 20.185 47.4226 21.7186 46.4801 22.661C45.5377 23.6035 44.0041 23.6035 43.0617 22.661L40.1059 19.6967C39.1892 18.7286 39.2321 17.2036 40.2002 16.2868C41.134 15.4044 42.5905 15.4044 43.5244 16.2868L46.4801 19.2426Z" fill="#FF1744"/>
</svg>
