<svg width="134" height="66" viewBox="0 0 134 66" fill="none" xmlns="http://www.w3.org/2000/svg">
<mask id="mask0_270_2585" style="mask-type:alpha" maskUnits="userSpaceOnUse" x="0" y="0" width="134" height="66">
<rect width="134" height="66" fill="#D9D9D9"/>
</mask>
<g mask="url(#mask0_270_2585)">
</g>
<g clip-path="url(#clip0_270_2585)">
<path d="M59.4846 26.7813V25.4447H45.8588V26.7813H51.2747V41.5826H54.0814V26.7813H59.4846ZM63.3502 41.5826H66.1569V25.4447H63.3502V41.5826ZM83.6464 26.7813V25.4447H70.0207V26.7813H75.4365V41.5826H78.2433V26.7813H83.6464ZM84.8576 41.6477L87.4486 36.3612H94.3657L96.8714 41.6477H99.6745L91.9506 25.4447H91.2688L83.369 41.6477H84.8576ZM87.9309 35.3363L90.9914 29.0724L93.8598 35.3363H87.9309ZM116 41.5826V25.4447H114.646V36.9652L103.99 25.4447H102.454V41.6706L103.808 41.6389V28.7941L115.367 41.5826H116Z" fill="black"/>
<path d="M18 25.3373L19.3798 27.4998H24.6107V40.0857C21.3489 38.9411 19.2184 34.0226 20.6889 30.7788H18.3554C18.1632 31.5061 18.0598 32.2545 18.0598 33.0206C18.0598 37.6309 22.2663 41.2673 26.859 41.5579V25.3373H18ZM27.7492 25.3373V41.5561C32.3437 41.2656 36.5502 37.6291 36.5502 33.0188C36.5502 32.2545 36.4468 31.5061 36.2547 30.777H33.9302C35.339 34.0877 33.2938 38.927 29.9993 40.0839V27.4998H35.232L36.6155 25.3373H27.7492Z" fill="black"/>
</g>
<defs>
<clipPath id="clip0_270_2585">
<rect width="98" height="16.3333" fill="white" transform="translate(18 25.3334)"/>
</clipPath>
</defs>
</svg>
