<svg width="98" height="17" viewBox="0 0 98 17" fill="none" xmlns="http://www.w3.org/2000/svg">
<g clip-path="url(#clip0_8184_4273)">
<path d="M41.4846 1.78973V0.453125H27.8589V1.78973H33.2747V16.591H36.0815V1.78973H41.4846ZM45.3502 16.591H48.1569V0.453125H45.3502V16.591ZM65.6465 1.78973V0.453125H52.0207V1.78973H57.4366V16.591H60.2433V1.78973H65.6465ZM66.8576 16.6561L69.4486 11.3696H76.3657L78.8715 16.6561H81.6746L73.9506 0.453125H73.2689L65.369 16.6561H66.8576ZM69.9309 10.3447L72.9915 4.0808L75.8599 10.3447H69.9309ZM98.0001 16.591V0.453125H96.6456V11.9736L85.9898 0.453125H84.4541V16.679L85.8085 16.6473V3.80256L97.3673 16.591H98.0001Z" fill="black"/>
<path d="M0 0.34375L1.3798 2.50627H6.61069V15.0922C3.34886 13.9475 1.21843 9.02903 2.68888 5.78526H0.355375C0.163182 6.51256 0.0598335 7.26098 0.0598335 8.02702C0.0598335 12.6373 4.26631 16.2738 8.85898 16.5644V0.34375H0ZM9.74923 0.34375V16.5626C14.3437 16.2721 18.5502 12.6356 18.5502 8.02526C18.5502 7.26098 18.4468 6.51255 18.2547 5.7835H15.9302C17.339 9.09419 15.2938 13.9334 11.9993 15.0904V2.50627H17.232L18.6155 0.34375H9.74923Z" fill="black"/>
</g>
<defs>
<clipPath id="clip0_8184_4273">
<rect width="98" height="16.3333" fill="white" transform="translate(0 0.335938)"/>
</clipPath>
</defs>
</svg>
