<svg width="134" height="66" viewBox="0 0 134 66" fill="none" xmlns="http://www.w3.org/2000/svg">
<mask id="mask0_271_2774" style="mask-type:alpha" maskUnits="userSpaceOnUse" x="0" y="0" width="134" height="66">
<rect width="134" height="66" fill="#D9D9D9"/>
</mask>
<g mask="url(#mask0_271_2774)">
</g>
<g clip-path="url(#clip0_271_2774)">
<path d="M67.7056 8.99609C68.2435 9.05145 68.7825 9.09532 69.3194 9.16426C72.4666 9.56954 75.3004 10.7436 77.8334 12.6499C77.8825 12.6875 77.9253 12.7334 77.9566 12.7616C77.4239 13.2943 76.8995 13.8187 76.3606 14.3566C74.681 13.1074 72.8039 12.2039 70.7431 11.714C69.8897 11.5113 69.0144 11.4006 68.1171 11.2429V25.7608C71.962 21.918 75.7976 18.0846 79.632 14.2532C87.0796 21.4239 86.8132 34.3448 78.0182 41.1008C77.4939 40.5744 76.9716 40.05 76.442 39.5184C80.4718 36.32 82.6424 32.1461 82.6915 26.962C82.7239 23.5099 81.6511 20.3794 79.5735 17.5613C77.4646 19.6691 75.3735 21.7582 73.2834 23.8483C71.1922 25.9384 69.1 28.0285 66.9859 30.1416C62.7858 25.9436 58.6035 21.7634 54.392 17.555C51.8652 21.0698 50.8333 24.9409 51.4453 29.1984C52.0574 33.4622 54.1653 36.8788 57.6123 39.5706C57.325 39.8369 57.0461 40.0845 56.7787 40.3456C56.5155 40.6015 56.2648 40.871 56.012 41.1311C47.6903 34.912 46.4368 22.0935 54.2813 14.2887C58.1095 18.1149 61.9387 21.942 65.768 25.7681L65.8265 25.7295V11.3035C64.3255 11.4037 62.8861 11.7286 61.4864 12.2467C60.0836 12.7669 58.7884 13.4855 57.6206 14.3483C57.0775 13.8062 56.5542 13.2829 56.0068 12.7355C56.3996 12.4598 56.8028 12.1568 57.2258 11.8853C59.8737 10.1837 62.7691 9.2238 65.9194 9.04414C66.0375 9.03788 66.1544 9.01281 66.2725 8.99609C66.7509 8.99609 67.2282 8.99609 67.7066 8.99609H67.7056Z" fill="black"/>
<path d="M79.1307 21.1536C81.6083 26.2195 80.7027 33.1051 75.5072 37.3835C70.5227 41.4885 63.2319 41.4352 58.2547 37.2018C53.1845 32.8899 52.4209 26.0952 54.838 21.1577C54.9999 21.3155 55.1555 21.4648 55.308 21.6163C55.66 21.9662 56.0037 22.3255 56.3651 22.664C56.5103 22.8008 56.5228 22.9157 56.4549 23.0953C55.9849 24.3258 55.7561 25.6074 55.7624 26.9204C55.777 29.6655 56.6377 32.1253 58.4395 34.205C60.8733 37.0148 63.9871 38.3413 67.6983 38.1429C72.8321 37.8682 77.1628 33.9627 78.0339 28.8988C78.3744 26.9194 78.2115 24.986 77.519 23.1006C77.4532 22.9209 77.4626 22.8102 77.6067 22.6723C78.1154 22.1824 78.6095 21.6769 79.1317 21.1536H79.1307Z" fill="black"/>
<path d="M80.8092 56.3965H80.1533V50.3914C80.3507 50.3914 80.5512 50.3737 80.7455 50.3998C80.8239 50.4102 80.9064 50.5063 80.9586 50.5836C81.5843 51.5133 82.2037 52.446 82.8252 53.3767C82.8805 53.4603 82.9401 53.5418 83.0132 53.6452C83.0748 53.5606 83.1281 53.4916 83.1772 53.4185C83.7747 52.5265 84.3868 51.6428 84.9602 50.7361C85.1388 50.4541 85.331 50.3371 85.6475 50.3873C85.7185 50.3988 85.7927 50.3894 85.8836 50.3894V56.3871H85.213V51.6773L85.1441 51.647C84.439 52.6821 83.7339 53.7172 83.008 54.7827C82.2799 53.7183 81.5728 52.6842 80.8646 51.6491L80.8082 51.6605V56.3954L80.8092 56.3965Z" fill="black"/>
<path d="M48.6053 50.3926V56.3924H47.9263V51.6774L47.8616 51.6492C47.1555 52.6853 46.4494 53.7205 45.7224 54.7859C44.9922 53.7184 44.2851 52.6832 43.5769 51.6492L43.5184 51.6627V56.3924H42.8645V50.3936C43.0588 50.3936 43.2521 50.3738 43.4369 50.402C43.5247 50.4156 43.6197 50.5085 43.6751 50.591C44.2966 51.5113 44.9118 52.4367 45.5281 53.3611C45.5887 53.452 45.6513 53.5419 45.7307 53.6578C46.0441 53.1919 46.346 52.7459 46.6457 52.2978C47.004 51.7641 47.3738 51.2376 47.7101 50.6913C47.8543 50.4574 48.0141 50.3477 48.2846 50.3895C48.3817 50.4041 48.4841 50.3915 48.6063 50.3915L48.6053 50.3926Z" fill="black"/>
<path d="M57.7679 51.5894V56.3911H57.1339V50.4164C57.4796 50.3621 57.7585 50.3632 58.0238 50.7131C59.1049 52.1399 60.2257 53.5354 61.3319 54.9434C61.3768 55.0009 61.4248 55.0562 61.5126 55.1596V50.4133H62.1769V56.3838C61.8625 56.4455 61.6348 56.4079 61.4144 56.1217C60.2957 54.6656 59.1488 53.2314 58.0123 51.79C57.9517 51.7137 57.888 51.6396 57.8264 51.5644L57.769 51.5894H57.7679Z" fill="black"/>
<path d="M104.549 50.404H105.213V56.3797C104.884 56.456 104.654 56.3954 104.431 56.105C103.319 54.6552 102.178 53.2263 101.047 51.7911C100.988 51.7159 100.926 51.6417 100.812 51.5028V56.3871H100.153V50.4176C100.537 50.3361 100.814 50.3977 101.077 50.7445C102.143 52.1494 103.248 53.524 104.338 54.9101C104.393 54.978 104.451 55.0427 104.55 55.1597V50.4029L104.549 50.404Z" fill="black"/>
<path d="M78.7014 53.3769C78.7108 55.1348 77.3832 56.5 75.6566 56.5094C73.8861 56.5188 72.5637 55.1985 72.5574 53.4145C72.5512 51.6461 73.8882 50.283 75.6325 50.2809C77.3853 50.2788 78.693 51.597 78.7024 53.3758L78.7014 53.3769ZM73.2729 53.1022C73.2729 55.0001 74.6517 56.172 76.1485 55.82C77.1638 55.5808 77.7529 54.8998 77.9409 53.9117C78.1331 52.9016 77.8553 52.0054 77.0009 51.3724C76.2404 50.8094 75.4006 50.7447 74.5598 51.174C73.6709 51.6273 73.3043 52.4149 73.2729 53.1022Z" fill="black"/>
<path d="M34.5239 50.4092H38.8462V50.9899H35.2259V53.0696H38.4545V53.6901H35.206V55.7927H38.8901V56.3954H34.5229V50.4102L34.5239 50.4092Z" fill="black"/>
<path d="M32.7858 56.3985H32.1309V53.7172H28.661V56.3891H27.9935V50.4092H28.6485V53.0404H32.1132V50.4123H32.7858V56.3985Z" fill="black"/>
<path d="M55.9034 56.378C55.8616 56.3926 55.8449 56.403 55.8282 56.4041C55.4083 56.4326 55.1144 56.2547 54.9466 55.8703C54.8255 55.5935 54.6938 55.3199 54.5842 55.0389C54.5194 54.8718 54.4327 54.8028 54.2416 54.8049C53.314 54.8164 52.3854 54.8164 51.4579 54.8049C51.2667 54.8028 51.1811 54.8718 51.1121 55.0357C50.9565 55.4076 50.7664 55.7659 50.6254 56.1429C50.5418 56.3665 50.4165 56.4375 50.195 56.4114C50.0791 56.3978 49.959 56.4093 49.7981 56.4093C50.0258 55.9006 50.2368 55.4254 50.452 54.9522C51.1101 53.4992 51.7796 52.0515 52.4209 50.5913C52.5379 50.3249 52.7124 50.3594 52.9192 50.3406C53.1312 50.3207 53.2231 50.4116 53.3036 50.5923C54.1214 52.4161 54.9477 54.2356 55.7697 56.0563C55.8178 56.1618 55.8595 56.2704 55.9045 56.378H55.9034ZM52.8513 51.147C52.3833 52.1915 51.9394 53.1827 51.4861 54.1928H54.206C53.7548 53.1775 53.314 52.1863 52.8513 51.147Z" fill="black"/>
<path d="M98.9329 56.4086C98.7156 56.4086 98.5234 56.4254 98.3364 56.4003C98.2623 56.3898 98.1756 56.2979 98.139 56.2217C97.9541 55.8331 97.7755 55.4404 97.6136 55.0424C97.5457 54.8742 97.4611 54.8042 97.271 54.8063C96.3341 54.8168 95.3982 54.8147 94.4612 54.8074C94.3004 54.8063 94.2158 54.8544 94.1531 55.0058C94.0037 55.3704 93.8167 55.7203 93.6799 56.089C93.5849 56.346 93.4459 56.4588 93.1733 56.4128C93.0762 56.3961 92.9749 56.4107 92.8318 56.4107C92.9331 56.1778 93.0177 55.9783 93.1065 55.7819C93.892 54.0449 94.6806 52.3109 95.4577 50.5708C95.5402 50.3859 95.6436 50.3295 95.8306 50.3451C96.0207 50.3619 96.2025 50.3013 96.3184 50.5645C97.1499 52.4405 98.0032 54.3081 98.8483 56.1778C98.8775 56.2426 98.8953 56.3115 98.9308 56.4107L98.9329 56.4086ZM95.8828 51.1473C95.4118 52.1981 94.9699 53.1842 94.5187 54.1932H97.2376C96.7874 53.181 96.3487 52.194 95.8828 51.1473Z" fill="black"/>
<path d="M88.2828 54.2723V56.3843H87.6237V50.4107C87.6885 50.4044 87.7585 50.3908 87.8285 50.3898C88.5356 50.3877 89.2438 50.3793 89.951 50.3939C90.2048 50.3992 90.4649 50.4378 90.7103 50.5036C91.5731 50.7345 92.063 51.3309 92.1037 52.1676C92.1476 53.0732 91.7141 53.7793 90.8722 54.0749C90.5328 54.194 90.1588 54.241 89.7964 54.2639C89.3044 54.2953 88.8093 54.2712 88.2828 54.2712V54.2723ZM88.3006 53.6341C88.9482 53.6341 89.5802 53.6602 90.2079 53.6205C90.4482 53.6048 90.7009 53.4722 90.9098 53.3353C91.3245 53.0648 91.4687 52.6491 91.4185 52.1644C91.3684 51.6808 91.1125 51.3372 90.6592 51.1753C90.4043 51.0844 90.1254 51.0332 89.8549 51.0207C89.3378 50.9966 88.8187 51.0134 88.2996 51.0134V53.6341H88.3006Z" fill="black"/>
<path d="M71.1943 55.0106C71.3332 55.1736 71.4628 55.325 71.5944 55.4796C70.6344 56.7362 68.4858 56.8751 67.2 55.7387C65.9048 54.5939 65.8787 52.3596 67.1457 51.1198C68.3344 49.9572 70.5509 50.0167 71.5954 51.2555C71.4502 51.4112 71.3029 51.5689 71.14 51.7433C70.4945 51.1365 69.7664 50.8022 68.8775 50.9453C68.3093 51.0372 67.8466 51.3151 67.481 51.7559C66.6663 52.7377 66.7488 54.338 67.6575 55.2289C68.4441 56.0009 69.9064 56.2651 71.1943 55.0117V55.0106Z" fill="black"/>
<path d="M109.501 56.3965H108.813C108.813 55.892 108.777 55.3958 108.823 54.9059C108.88 54.2834 108.69 53.7831 108.319 53.2869C107.676 52.4273 107.091 51.5248 106.483 50.6401C106.438 50.5743 106.398 50.5043 106.329 50.3946C106.595 50.3946 106.821 50.3789 107.044 50.4029C107.123 50.4113 107.211 50.5001 107.262 50.5753C107.893 51.4997 108.518 52.4293 109.165 53.3882C109.353 53.1125 109.528 52.8586 109.7 52.6038C110.139 51.9583 110.589 51.3211 111.009 50.6641C111.148 50.4479 111.299 50.3633 111.542 50.3904C111.675 50.405 111.81 50.3935 112.002 50.3935C111.668 50.8782 111.368 51.3138 111.067 51.7483C110.588 52.4429 110.103 53.1354 109.633 53.8363C109.558 53.9491 109.512 54.1037 109.509 54.2395C109.496 54.8547 109.504 55.47 109.504 56.0852V56.3944L109.501 56.3965Z" fill="black"/>
<path d="M26.6732 50.4139V50.9978H24.6855V56.3928H24.0013V51.0198H22V50.4139H26.6732Z" fill="black"/>
</g>
<defs>
<clipPath id="clip0_271_2774">
<rect width="90" height="47.5158" fill="white" transform="translate(22 9)"/>
</clipPath>
</defs>
</svg>
