<svg width="134" height="66" viewBox="0 0 134 66" fill="none" xmlns="http://www.w3.org/2000/svg">
<mask id="mask0_270_2592" style="mask-type:alpha" maskUnits="userSpaceOnUse" x="0" y="0" width="134" height="66">
<rect width="134" height="66" fill="#D9D9D9"/>
</mask>
<g mask="url(#mask0_270_2592)">
</g>
<g clip-path="url(#clip0_270_2592)">
<path fill-rule="evenodd" clip-rule="evenodd" d="M62.3386 41.7988C62.3386 40.7171 63.1526 39.8311 64.2792 39.8311C64.938 39.8311 65.3361 40.0083 65.7341 40.3444L65.2147 40.9819C64.938 40.7334 64.6773 40.5908 64.2434 40.5908C63.6542 40.5908 63.1865 41.1225 63.1865 41.7621V41.7804C63.1865 42.473 63.6542 42.9863 64.313 42.9863C64.6076 42.9863 64.8683 42.915 65.0753 42.7562V42.2245H64.2613V41.5156H65.8555V43.1656C65.4734 43.5017 64.9539 43.7685 64.2792 43.7685C63.1347 43.7502 62.3386 42.9171 62.3386 41.8008V41.7988Z" fill="#737678"/>
<path fill-rule="evenodd" clip-rule="evenodd" d="M66.8448 39.8999H69.6332V40.6454H67.6588V41.4073H69.3904V42.1528H67.6588V42.9513H69.6512V43.6785H66.8448V39.8999Z" fill="#737678"/>
<path fill-rule="evenodd" clip-rule="evenodd" d="M71.4524 40.6801H70.3279V39.8999H73.393V40.6801H72.2685V43.6785H71.4524V40.6801Z" fill="#737678"/>
<path fill-rule="evenodd" clip-rule="evenodd" d="M76.8761 40.6801H75.7496V39.8999H78.8167V40.6801H77.6922V43.6785H76.8761V40.6801Z" fill="#737678"/>
<path fill-rule="evenodd" clip-rule="evenodd" d="M79.6487 39.8999H80.4468V41.4073H81.9535V39.8999H82.7676V43.6785H81.9535V42.1711H80.4468V43.6785H79.6487V39.8999Z" fill="#737678"/>
<path fill-rule="evenodd" clip-rule="evenodd" d="M83.8603 39.8999H86.6488V40.6454H84.6743V41.4073H86.4079V42.1528H84.6743V42.9513H86.6667V43.6785H83.8603V39.8999Z" fill="#737678"/>
<path fill-rule="evenodd" clip-rule="evenodd" d="M87.6021 39.8999H88.4859L89.4572 41.4969L90.4265 39.8999H91.2943V43.6785H90.4961V41.2117L89.4572 42.827H89.4213L88.4003 41.2301V43.6785H87.6021V39.8999Z" fill="#737678"/>
<path fill-rule="evenodd" clip-rule="evenodd" d="M95.054 40.6801H93.9275V39.8999H96.9767V40.6801H95.8502V43.6785H95.054V40.6801Z" fill="#737678"/>
<path fill-rule="evenodd" clip-rule="evenodd" d="M98.6048 39.8793H99.3492L100.926 43.6925H100.076L99.7473 42.841H98.1869L97.8585 43.6925H97.0265L98.6029 39.8793H98.6048ZM99.4547 42.0955L98.9691 40.8713L98.4834 42.0955H99.4547Z" fill="#737678"/>
<path fill-rule="evenodd" clip-rule="evenodd" d="M101.724 39.8999H102.522V42.933H104.375V43.6785H101.724V39.8999Z" fill="#737678"/>
<path fill-rule="evenodd" clip-rule="evenodd" d="M105.191 39.8999H106.005V41.5499L107.512 39.8999H108.483L106.974 41.5132L108.553 43.6785H107.581L106.437 42.0815L106.005 42.5256V43.6785H105.191V39.8999Z" fill="#737678"/>
<path fill-rule="evenodd" clip-rule="evenodd" d="M109.297 43.6785H110.111V39.8999H109.297V43.6785Z" fill="#737678"/>
<path fill-rule="evenodd" clip-rule="evenodd" d="M111.238 39.8999H111.982L113.716 42.2241V39.8999H114.512V43.6785H113.819L112.034 41.283V43.6785H111.238V39.8999Z" fill="#737678"/>
<path fill-rule="evenodd" clip-rule="evenodd" d="M115.447 41.7988C115.447 40.7171 116.261 39.8311 117.388 39.8311C118.047 39.8311 118.445 40.0083 118.843 40.3444L118.341 40.9819C118.065 40.7334 117.804 40.5908 117.37 40.5908C116.781 40.5908 116.313 41.1225 116.313 41.7621V41.7804C116.313 42.473 116.781 42.9863 117.44 42.9863C117.734 42.9863 117.995 42.915 118.202 42.7562V42.2245H117.388V41.5156H119V43.1656C118.618 43.5017 118.098 43.7685 117.424 43.7685C116.245 43.7502 115.449 42.9171 115.449 41.8008L115.447 41.7988Z" fill="#737678"/>
<path fill-rule="evenodd" clip-rule="evenodd" d="M72.579 24.2084C73.0806 24.2084 73.3592 23.801 73.3592 23.4282C73.3592 22.9842 73.0308 22.6481 72.5969 22.6481H63.0671C62.4958 22.6481 62.044 23.0921 62.044 23.6584V36.3203C62.044 36.9049 62.4779 37.3673 63.0671 37.3673H72.579C73.0288 37.3673 73.3592 37.0129 73.3592 36.5688C73.3592 36.1248 73.0308 35.7703 72.579 35.7703H63.6383V30.8592H71.9043C72.4058 30.8592 72.6845 30.4518 72.6845 30.079C72.6845 29.7062 72.4078 29.2988 71.9043 29.2988H63.6383V24.2084H72.579Z" fill="#737678"/>
<path fill-rule="evenodd" clip-rule="evenodd" d="M87.9843 22.5551C87.5862 22.5551 87.1881 22.8565 87.1881 23.4248V34.3309L77.7439 23.0337C77.5369 22.7669 77.2583 22.608 76.9816 22.608C76.5995 22.608 76.2014 22.9278 76.2014 23.5308V36.6184C76.2014 37.1684 76.6174 37.4699 76.9975 37.4699C77.3777 37.4699 77.7937 37.1684 77.7937 36.6184V25.694L87.2538 37.0075C87.4608 37.2743 87.7554 37.4149 88.034 37.4149C88.3983 37.4149 88.7963 37.148 88.7963 36.5451V23.4248C88.7784 22.8565 88.3804 22.5551 87.9823 22.5551H87.9843Z" fill="#737678"/>
<path fill-rule="evenodd" clip-rule="evenodd" d="M112.762 29.1343C110.266 28.9224 107.91 28.7085 107.91 26.7571C107.91 26.5615 107.944 26.366 108.013 26.2254L108.031 26.1725C108.481 24.824 110.388 24.221 111.861 24.1151C111.948 24.1151 112.034 24.1151 112.137 24.0968C112.207 24.0968 112.277 24.0785 112.344 24.0785C114.667 24.0785 116.174 24.5918 116.815 25.6388C116.954 25.869 117.197 25.9932 117.455 25.9932C117.871 25.9932 118.218 25.6571 118.218 25.2314C118.218 25.0725 118.166 24.9299 118.078 24.7873C116.831 22.8359 113.937 22.5344 112.342 22.5344C111.753 22.5344 111.112 22.5874 110.487 22.7116C107.888 23.28 106.345 24.769 106.345 26.7184C106.345 30.1405 109.828 30.4257 112.617 30.6559C115.286 30.8677 117.416 31.047 117.416 32.9964C117.416 35.8522 113.067 35.9398 112.581 35.9398C112.269 35.9398 111.94 35.9215 111.646 35.8685C110.207 35.7259 108.423 35.1759 107.764 34.0413C107.695 33.9354 107.47 33.581 107.072 33.581C106.638 33.581 106.292 33.9354 106.292 34.3795C106.292 34.5037 106.325 34.6463 106.379 34.7523C107.661 37.2537 111.457 37.4472 112.583 37.4472C115.684 37.4472 118.994 36.2759 118.994 32.9964C118.96 29.6618 115.666 29.3787 112.756 29.1302L112.762 29.1343Z" fill="#737678"/>
<path fill-rule="evenodd" clip-rule="evenodd" d="M102.799 30.0226C102.799 33.2329 100.46 35.7506 97.4783 35.7506H93.3543V24.2763H97.4783C100.615 24.2763 102.799 26.6351 102.799 30.0226ZM97.4803 22.6447H92.785C92.2138 22.6447 91.762 23.0887 91.762 23.6387V36.3536C91.762 36.9219 92.2118 37.3822 92.785 37.3822H97.4803C101.361 37.3822 104.395 34.1556 104.395 30.0226C104.395 25.8896 101.483 22.6447 97.4803 22.6447Z" fill="#737678"/>
<path fill-rule="evenodd" clip-rule="evenodd" d="M44.4214 22.6447H32.7261C32.1887 22.6447 31.8941 23.0521 31.8941 23.4248C31.8941 23.7976 32.1887 24.205 32.7261 24.205H37.7517V36.5837C37.7517 37.1521 38.1677 37.4535 38.5658 37.4535C38.9639 37.4535 39.3978 37.1337 39.3978 36.5837V24.207H44.4234C44.9608 24.207 45.2554 23.7996 45.2554 23.4269C45.2554 23.0541 44.9787 22.6467 44.4234 22.6467L44.4214 22.6447Z" fill="#737678"/>
<path fill-rule="evenodd" clip-rule="evenodd" d="M57.6772 27.078C57.6772 28.6037 55.9794 29.8972 53.9692 29.9156H48.7883V24.2405H53.9512C55.7525 24.2405 57.6772 25.2346 57.6772 27.078ZM55.1295 31.3333C57.4682 30.8729 59.1839 29.0804 59.1839 27.0597C59.1839 24.5766 56.9666 22.6802 54.0209 22.6619H47.9742C47.5244 22.6619 47.1781 23.0163 47.1781 23.4767V36.6722C47.1781 36.9024 47.2656 37.1163 47.4388 37.2752C47.5781 37.3994 47.7672 37.4707 47.9583 37.4707C48.4081 37.4707 48.7544 37.1163 48.7544 36.6559V31.4596H53.0854L57.7289 37.0287C57.9021 37.2406 58.127 37.3485 58.3698 37.3485C58.5609 37.3485 58.752 37.2772 58.8893 37.153C59.0446 37.0104 59.1501 36.8169 59.166 36.603C59.1839 36.3728 59.1142 36.1426 58.959 35.9471L55.1295 31.3374V31.3333Z" fill="#737678"/>
<path fill-rule="evenodd" clip-rule="evenodd" d="M21.6876 33.604C21.393 32.8951 21.1502 32.1863 20.9949 31.4407C20.9949 31.4224 20.977 31.4061 20.9611 31.4061C20.9452 31.4061 20.9273 31.4244 20.9273 31.4407C20.772 32.1863 20.5292 32.9135 20.2346 33.604C20.0615 34.0114 19.8704 34.4025 19.8186 34.8445C19.7848 35.1643 19.749 35.4821 19.8007 35.8202C20.0077 37.0261 20.9611 37.6637 20.9611 37.6637H20.9949C20.9949 37.6637 21.9483 37.0261 22.1553 35.8202C22.2071 35.5004 22.1732 35.1827 22.1374 34.8445C22.0498 34.4005 21.8608 34.0114 21.6876 33.604ZM29.7445 30.0922L29.7266 30.1106C29.6928 32.7892 28.3413 35.1297 26.3311 36.4232C26.2793 36.4415 26.0365 36.5821 25.7758 36.5821C25.3936 36.5821 25.0652 36.3865 24.8582 36.0851L22.3623 32.6976C23.6441 32.6976 24.6851 31.6342 24.6851 30.3204C24.6851 29.0065 23.6461 27.9432 22.3623 27.9432H22.2927C20.0217 27.9432 18.1686 30.3896 18.1686 33.4044C18.1686 35.1236 18.7757 36.6493 19.6933 37.6433C16.9406 36.4945 15 33.657 15 30.3041C15 25.9592 18.31 22.4312 22.3822 22.4312C26.4545 22.4312 29.4699 25.6577 29.7465 29.7378C29.7465 29.8091 29.7644 29.8804 29.7644 29.9497C29.7465 30.021 29.7465 30.0556 29.7465 30.0922H29.7445Z" fill="#737678"/>
<path fill-rule="evenodd" clip-rule="evenodd" d="M21.6876 33.6044C21.393 32.8955 21.1502 32.1867 20.9949 31.4411C20.9949 31.4228 20.977 31.4065 20.9611 31.4065C20.9452 31.4065 20.9273 31.4248 20.9273 31.4411C20.772 32.1867 20.5292 32.9139 20.2346 33.6044C20.0615 34.0118 19.8704 34.4029 19.8186 34.8449C19.7848 35.1647 19.749 35.4825 19.8007 35.8206C20.0077 37.0265 20.9611 37.6641 20.9611 37.6641H20.9949C20.9949 37.6641 21.9483 37.0265 22.1553 35.8206C22.2071 35.5008 22.1732 35.1831 22.1374 34.8449C22.0498 34.4009 21.8607 34.0118 21.6876 33.6044Z" fill="#737678"/>
</g>
<defs>
<clipPath id="clip0_270_2592">
<rect width="104" height="21.3333" fill="white" transform="translate(15 22.4359)"/>
</clipPath>
</defs>
</svg>
