<svg width="111" height="30" viewBox="0 0 111 30" fill="none" xmlns="http://www.w3.org/2000/svg">
<g clip-path="url(#clip0_279_3049)">
<path d="M46.8412 2.38376C48.0704 1.58294 49.8556 2.38376 50.0658 3.96146C50.1137 4.30999 50.1057 4.66916 50.1031 5.02301C50.0392 10.4292 49.9753 15.8354 49.9009 21.2416C49.8876 22.2819 49.8503 23.3221 49.7998 24.3624C49.7625 25.1047 50.127 25.5916 50.7442 25.8949C51.3908 26.2115 52.0186 26.0731 52.5215 25.5916C53.3622 24.7854 53.9076 23.8409 53.897 22.6144C53.8624 19.3127 54.8202 16.4074 57.4328 14.2284C59.4096 12.5816 61.7376 11.9111 64.281 11.9697C65.5395 11.9989 66.2259 12.7439 66.1381 13.8799C66.1035 14.3349 65.9226 14.545 65.4304 14.5424C64.4806 14.5371 63.5068 14.4652 62.5889 14.6488C59.649 15.2394 57.6776 17.3732 57.22 20.5046C57.0497 21.6673 57.0524 22.8911 57.2067 24.0564C57.3929 25.4532 58.4491 26.2434 59.673 26.1822C60.6787 26.1317 62.0009 24.9211 62.0435 23.8037C62.1287 21.5928 62.1207 19.3792 62.0754 17.1683C62.0621 16.5591 62.2723 16.301 62.7964 16.1946C64.0975 15.9365 65.2574 16.8704 65.2521 18.1793C65.2441 20.2625 65.2095 22.3457 65.2122 24.4289C65.2122 25.6953 66.029 26.4749 67.1039 26.2301C67.4471 26.1529 67.8515 25.9534 68.0457 25.6794C68.5033 25.0408 68.9423 24.3571 69.219 23.6281C69.7298 22.2845 70.0863 20.9011 70.0411 19.4245C69.9772 17.4104 70.0304 15.3964 70.0118 13.3797C70.0065 12.8955 70.1981 12.6454 70.6636 12.5417C72.0046 12.2437 73.2098 13.1908 73.2231 14.569C73.2284 15.0559 73.2231 15.5401 73.2231 16.027L73.3907 16.019C73.9627 15.2448 74.4895 14.436 75.1121 13.707C75.9874 12.68 77.0968 12.116 78.4989 12.2011C79.8877 12.2836 80.9306 13.0552 81.3483 14.3907C81.8299 15.9312 81.6357 17.5115 81.6144 19.0786C81.5931 20.8053 81.5186 22.5346 81.4893 24.2613C81.4814 24.679 81.5133 25.1074 81.6091 25.5118C81.8379 26.4855 82.6733 26.8234 83.5539 26.3312C84.4106 25.8523 84.7778 25.0116 85.1156 24.1682C85.5227 23.1545 85.7116 22.1063 85.7116 20.9968C85.7116 18.0516 85.7755 15.1038 85.85 12.1586C85.8659 11.5147 85.7063 11.2274 85.0119 11.246C84.2829 11.2673 83.5512 11.1954 82.8223 11.1289C81.8698 11.0411 81.0663 9.77738 81.4281 8.89408C81.5053 8.70252 81.8565 8.50831 82.08 8.50831C83.0963 8.51895 84.1153 8.58014 85.129 8.66528C85.6664 8.71051 85.9058 8.56152 85.8952 7.98684C85.8739 6.7896 85.9085 5.59236 85.8952 4.39779C85.8925 4.09448 85.8287 3.77788 85.7143 3.49587C85.5733 3.14468 85.6318 2.98504 86.0016 2.86C87.6139 2.31725 89.0373 3.31229 89.0213 4.99374C89.0107 6.03401 89.0053 7.07694 88.9628 8.11721C88.9442 8.58546 89.1304 8.75307 89.5774 8.75041C92.0596 8.73179 94.5393 8.72381 97.0215 8.71317C97.0428 8.71317 97.0668 8.71051 97.088 8.70784C98.0804 8.62005 98.2055 8.76904 97.9926 9.77206C97.9474 9.98756 97.8968 10.2057 97.8303 10.4159C97.6308 11.0438 97.3009 11.395 96.54 11.3737C94.3025 11.3152 92.065 11.3418 89.8274 11.3418C88.9388 11.3418 88.9255 11.3577 88.9149 12.2171C88.8564 16.2717 88.8005 20.3264 88.7446 24.381C88.742 24.5806 88.7393 24.7801 88.7499 24.9797C88.7819 25.6581 88.9628 26.2886 89.6572 26.544C90.3808 26.8101 91.0939 26.6478 91.6047 26.0651C92.3762 25.1845 92.8711 24.1682 92.9562 22.9603C93.1425 20.2652 93.342 17.5727 93.5974 14.8856C93.7437 13.3345 94.2705 12.9328 95.803 12.9833C96.665 13.0126 96.8965 13.3052 96.7342 14.1673C96.54 15.1889 96.3298 16.2052 96.1515 17.2295C95.7711 19.4005 95.654 21.5848 95.8535 23.7797C95.9041 24.3225 96.0584 24.8679 96.234 25.3867C96.7555 26.9298 98.1363 27.3342 99.4506 26.3472C100.443 25.5996 101.058 24.5752 101.406 23.4099C101.614 22.7182 101.757 21.9892 101.789 21.2682C101.88 19.2994 101.917 17.328 101.925 15.3565C101.925 14.7951 101.802 14.2205 101.656 13.6724C101.555 13.2999 101.704 13.2015 101.989 13.0977C103.404 12.5736 104.721 13.4489 104.716 14.9787C104.702 18.1261 104.631 21.2709 104.599 24.4183C104.593 24.8333 104.633 25.2617 104.732 25.6661C104.886 26.3099 105.272 26.8154 105.956 26.9218C106.677 27.0362 107.307 26.7223 107.65 26.1077C108.012 25.4585 108.23 24.7296 108.488 24.0272C108.595 23.7372 108.629 23.4232 108.704 23.1226C108.903 22.3111 109.273 21.9121 109.763 21.9653C110.322 22.0291 110.944 22.7315 110.981 23.378C110.997 23.6414 111.019 23.9367 110.917 24.1655C110.388 25.3521 109.946 26.6026 109.239 27.6774C108.166 29.303 106.025 29.9336 104.157 29.3775C103.05 29.0476 102.39 28.2494 101.978 27.2118C101.909 27.0362 101.842 26.8606 101.717 26.5334C101.406 26.9298 101.177 27.2092 100.962 27.4965C99.5517 29.3775 97.4259 30.0134 95.5236 29.021C94.941 28.7177 94.4435 28.1856 94.0151 27.6694C93.6719 27.2544 93.5043 27.2624 93.1584 27.6349C91.8255 29.0609 90.1973 29.5957 88.2817 29.1434C87.4968 28.9571 86.8796 28.5049 86.4007 27.8583C86.2597 27.6668 86.116 27.4779 86.0069 27.3342C85.2433 27.845 84.5729 28.449 83.7907 28.7895C80.9386 30.032 78.4217 28.3585 78.4244 25.2484C78.4244 22.5905 78.5016 19.9326 78.5282 17.2748C78.5335 16.7905 78.4909 16.301 78.4244 15.8194C78.294 14.8856 77.6795 14.5344 76.8574 15.008C76.2561 15.3565 75.6814 15.8168 75.2265 16.3409C73.8297 17.9452 73.0528 19.8049 73.0581 21.9759C73.0634 23.8808 73.0049 25.7858 72.9623 27.6907C72.949 28.3213 72.8267 28.896 72.0338 28.9971C71.1691 29.1061 70.3258 28.6991 70.0384 28.0073C69.94 27.7732 69.8655 27.5284 69.7936 27.3209C69.054 27.7679 68.4048 28.2814 67.6679 28.5847C65.8667 29.3296 64.2278 28.9279 62.9135 27.4885C62.5676 27.1081 62.3761 27.3076 62.1021 27.5444C60.4605 28.9518 58.2257 29.2179 56.483 28.1749C56.036 27.9089 55.6396 27.5311 55.2804 27.148C54.7324 26.56 54.7537 26.5387 54.155 27.1267C52.8806 28.3745 51.3721 28.9784 49.6162 28.5075C48.9244 28.3213 48.2806 27.861 47.6979 27.414C47.3441 27.1427 47.1472 26.9883 46.7614 27.3262C44.5798 29.2498 40.7406 28.8853 39.1337 26.4084C38.9022 26.0492 38.6787 26.1317 38.4366 26.3631C36.7073 27.9994 34.5922 28.4782 32.3014 28.3479C30.0027 28.2175 28.1138 27.2783 26.8447 25.2989C26.552 24.8413 26.3339 24.7774 25.8497 25.0728C23.2689 26.6318 20.6217 28.0526 17.6712 28.8188C15.9818 29.2578 15.5268 29.0955 14.4919 27.7546C10.4532 22.5187 7.11154 16.8225 3.52781 11.2859C2.42901 9.57518 1.19718 7.95491 0.050492 6.27346C-0.0452871 6.13245 -5.80796e-05 5.76796 0.119666 5.63227C1.05085 4.58934 3.1979 4.78888 3.97211 6.00475C5.40082 8.24491 6.78696 10.509 8.19704 12.7572C9.27987 14.4812 10.3813 16.1946 11.4562 17.9239C11.6877 18.2964 11.8819 18.3789 12.2969 18.1527C13.5261 17.4849 14.8484 17.1231 16.2558 17.2375C16.8012 17.2827 17.0114 17.0539 17.1178 16.575C17.751 13.7017 18.4002 10.8309 19.0307 7.95758C19.4803 5.90631 19.9433 3.85504 20.3344 1.79047C20.6058 0.35644 22.359 -0.311354 23.66 0.124973C24.0299 0.250018 24.1921 0.492127 24.0777 0.949738C23.3328 3.90559 22.5985 6.8641 21.9041 9.83325C21.1538 13.0418 20.4408 16.2584 19.7251 19.475C19.2542 21.5928 18.8126 23.7132 18.3629 25.8337C18.3177 26.0439 18.3044 26.2647 18.2618 26.6052C18.5944 26.5254 18.8418 26.4962 19.068 26.4084C21.2283 25.5676 23.1944 24.3837 25.0808 23.0481C25.5942 22.6836 25.6235 22.2899 25.5224 21.7365C24.9531 18.6529 25.5277 15.8221 27.6029 13.4117C28.8428 11.9723 30.4151 11.1635 32.3892 11.254C34.0068 11.3285 35.3557 12.5097 35.7069 14.0901C36.3002 16.7746 35.0445 18.6928 33.1555 20.3024C32.0833 21.2177 30.8727 21.9759 29.6968 22.7634C29.3057 23.0242 29.2711 23.2343 29.4839 23.6228C30.6413 25.7113 33.6317 26.4749 35.7522 25.1127C36.4732 24.6497 37.0718 23.9474 37.6039 23.2609C37.8726 22.9151 37.9631 22.359 37.9737 21.8961C38.0136 19.7331 38.3754 17.6605 39.5833 15.8168C41.1344 13.4516 43.4597 12.3208 46.1468 11.8499C46.7375 11.7462 46.9157 11.5333 46.9211 10.9587C46.937 8.92069 47.0168 6.88272 47.0275 4.84475C47.0301 4.06256 46.9131 3.28036 46.8386 2.37312L46.8412 2.38376ZM46.8865 19.0014C46.9477 17.4078 46.8173 15.8115 46.8945 14.2178C46.8998 14.1194 46.9157 13.8161 46.7322 13.6724C46.6151 13.5819 46.4315 13.5766 46.1735 13.6431C44.3324 14.114 42.9515 15.1676 42.0922 16.873C41.451 18.1421 41.161 19.5149 41.1637 20.9144C41.1637 21.9387 41.2328 23.0215 41.5654 23.9766C42.3449 26.2221 44.7447 26.6026 46.2905 24.7961C46.5965 24.4396 46.6311 24.0325 46.663 23.8516C47.0089 21.9573 46.8279 20.643 46.8891 19.0014H46.8865ZM28.6379 19.3713C28.6379 19.6346 28.6166 19.749 28.6432 19.8528C28.6991 20.0763 28.7762 20.2971 28.8454 20.5179C29.0423 20.4408 29.2684 20.4009 29.4307 20.2785C30.0666 19.8049 30.7477 19.3659 31.2958 18.8019C32.368 17.7004 32.8841 16.3622 32.5835 14.8058C32.4451 14.0821 32.054 13.8586 31.3304 13.9704C30.5748 14.0848 30.1358 14.6036 29.7819 15.2075C28.9997 16.5378 28.7443 18.0117 28.6352 19.3713H28.6379Z" fill="#F8580B"/>
</g>
<defs>
<clipPath id="clip0_279_3049">
<rect width="111" height="29.5745" fill="white"/>
</clipPath>
</defs>
</svg>
