<svg width="100" height="40" viewBox="0 0 100 40" fill="none" xmlns="http://www.w3.org/2000/svg">
<g clip-path="url(#clip0_102_728)">
<path d="M0 14.7615H4.09176L5.6818 20.4591L5.87758 20.4512C6.42342 18.786 6.95145 17.1129 7.53486 15.4616C7.62781 15.2005 7.96994 14.8465 8.2033 14.8426C11.1658 14.801 14.1284 14.8149 17.255 14.8149C16.4462 17.109 15.6709 19.3121 14.8917 21.5251C16.6617 21.887 16.725 21.8534 17.2491 20.3266C17.791 18.7445 18.3427 17.1643 18.8569 15.5723C19.029 15.0384 19.2604 14.7892 19.8873 14.7971C22.917 14.8347 25.9508 14.7556 28.9766 14.8643C29.5916 14.8861 30.1849 15.5407 30.8454 15.9382C30.8395 14.6092 31.8501 14.7892 32.8132 14.807C34.427 14.8366 36.0407 14.8347 37.6545 14.803C38.2063 14.7931 38.4634 14.9454 38.6077 15.513C38.9736 16.9547 39.4245 18.3727 40.0455 19.8104C40.5162 18.3964 41.0165 16.9903 41.4397 15.5624C41.6098 14.9889 41.857 14.7654 42.4681 14.7991C43.4174 14.8525 44.3706 14.8129 45.4425 14.8129C44.6811 17.0556 43.9474 19.2211 43.2117 21.3866C42.3791 23.8389 41.5406 26.2873 40.7159 28.7415C40.6249 29.0125 40.5973 29.3071 40.5419 29.5899H36.5866C37.0335 28.3935 37.4943 27.2009 37.9175 25.9946C38.0085 25.7315 38.0481 25.3934 37.965 25.1363C37.2629 22.9569 36.5431 20.7834 35.7817 18.6238C35.7045 18.4043 35.307 18.1591 35.0677 18.167C34.7019 18.1789 34.1303 18.3054 34.0156 18.5546C33.5707 19.5257 33.2701 20.5639 32.8884 21.6576L34.4151 21.7485C34.0394 22.4289 33.6241 22.9668 33.4283 23.5759C32.9022 25.2094 31.7987 25.6228 30.2047 25.4448C29.3583 25.3498 28.5514 25.4013 28.1361 24.2246C27.3153 25.7375 26.0259 25.4131 24.8373 25.429C24.5407 25.4329 24.244 25.429 23.9494 25.429C21.8966 25.425 21.3804 24.7051 21.9994 22.7117C22.4543 21.2502 22.9091 19.7887 23.3699 18.3074C22.4464 17.9752 22.0053 18.1947 21.7087 19.1044C20.8168 21.8454 19.7923 24.5449 18.8846 27.282C18.5168 28.3875 17.9254 29.2003 16.81 29.5899H13.0525C13.3175 28.8839 13.5865 28.1818 13.8475 27.4738C14.0334 26.9715 14.0532 26.3802 14.8561 26.3703C15.0618 26.3683 15.2615 25.8601 15.5859 25.4191C14.2806 25.4191 13.2641 25.4191 12.2456 25.4191C10.175 25.423 9.89815 25.0492 10.5389 23.1072C10.6714 22.7018 10.8039 22.2964 10.9364 21.8909C11.3161 20.7261 11.6939 19.5593 12.0815 18.3707C11.0676 18.2718 10.4189 18.6311 10.1355 19.4485C9.52437 21.2126 8.93108 22.9866 8.27648 24.7348C8.16968 25.0196 7.79393 25.3854 7.52892 25.3973C6.05359 25.4626 4.57233 25.429 3.03965 25.429C2.74498 24.3848 2.47207 23.3801 2.18135 22.3794C1.45951 19.9073 0.727776 17.4353 0 14.9593V14.7615ZM30.0089 18.167C29.1546 18.167 28.5039 18.1373 27.8592 18.1848C27.6535 18.2006 27.349 18.3786 27.2857 18.5527C26.9277 19.5474 26.6271 20.5639 26.287 21.6417C27.0543 21.6417 27.6772 21.6813 28.2903 21.622C28.5296 21.6002 28.8777 21.4104 28.9568 21.2106C29.3266 20.2831 29.6193 19.3259 30.0109 18.167H30.0089Z" fill="#FF0006"/>
<path d="M62.476 18.1828H56.5015C57.4389 19.0431 58.1311 19.8144 58.9578 20.3978C60.0474 21.1691 60.2946 22.0195 59.733 23.2258C59.4205 23.8982 59.29 24.6577 59.0705 25.4052H49.8052C50.2205 24.2167 50.5883 23.0815 51.0313 21.976C51.0966 21.8118 51.506 21.7149 51.7591 21.707C52.6945 21.6754 53.6319 21.6951 54.8502 21.6951C53.9187 20.8329 53.2265 20.1486 52.4869 19.5197C52.0498 19.1479 51.8797 18.792 52.1487 18.2441C52.3208 17.8941 52.4157 17.5045 52.5442 17.1327C53.0676 15.6323 54.1382 14.8828 55.7559 14.8841C59.6756 14.8881 63.5954 14.9019 67.5151 14.898C68.4406 14.898 69.3978 14.7615 69.9199 16.0153C70.0524 14.6013 70.972 14.7674 71.8204 14.7832C72.5086 14.7951 73.1988 14.7852 74.0472 14.7852C73.3274 17.0852 72.6392 19.2903 71.949 21.4914C73.0901 21.8593 73.2028 21.8098 73.5509 20.7894C74.3577 18.432 75.1883 16.0806 75.9478 13.7094C76.1772 12.9915 76.5134 12.7245 77.2688 12.7898C78.1173 12.8649 78.9756 12.8076 79.996 12.8076C78.9854 15.78 78.0085 18.6515 76.9959 21.6319L78.4891 21.7406C78.0698 22.9806 77.6644 24.1771 77.2471 25.4131C74.4131 25.4131 71.6147 25.4507 68.8183 25.3795C68.2883 25.3657 67.7702 24.9167 67.1077 24.6043C65.927 26.1627 63.9948 25.3004 62.2802 25.3637C61.1371 25.4052 60.6605 24.4045 61.0303 23.1171C61.4456 21.6675 61.9104 20.2337 62.3475 18.79C62.4028 18.61 62.4266 18.4221 62.478 18.1809L62.476 18.1828ZM69.1585 18.1334C68.32 18.1334 67.6654 18.1116 67.0127 18.1453C66.8189 18.1551 66.5124 18.2758 66.4629 18.4182C66.101 19.4485 65.7925 20.4987 65.4326 21.6516C66.2276 21.6516 66.8506 21.6813 67.4696 21.6358C67.6851 21.62 68.0114 21.4638 68.0767 21.2937C68.4584 20.2969 68.7768 19.2765 69.1605 18.1354L69.1585 18.1334Z" fill="#FF0006"/>
<path d="M83.0436 21.5646H92.8726C91.8382 20.6055 90.9404 19.7729 90.0188 18.9165C90.4934 17.55 90.9641 16.1933 91.4427 14.8169H100.002C99.6638 15.9323 99.3395 17.0022 99.0013 18.1156H94.5951C95.5424 19.1262 96.2741 19.9865 97.0929 20.7498C97.6545 21.2739 97.8068 21.7584 97.4924 22.4704C97.0731 23.4216 96.992 24.7388 96.288 25.2866C95.665 25.7711 94.3914 25.4309 93.4045 25.4329C89.0221 25.4369 84.6396 25.4369 80.2571 25.4329C78.9281 25.4329 78.3744 24.8297 78.7759 23.5719C79.6599 20.7914 80.6487 18.0444 81.6355 15.2974C81.7127 15.0799 82.1003 14.8446 82.3475 14.8386C84.2579 14.803 86.1703 14.7753 88.0807 14.8386C89.5936 14.8881 90.0524 15.6238 89.5995 17.0714C89.295 18.0424 88.9331 18.9976 88.6859 19.9825C88.5039 20.7103 88.1717 20.999 87.3964 20.9555C86.2138 20.8902 85.0252 20.9298 83.8386 20.9634C83.54 20.9713 83.2473 21.1236 82.9527 21.2106L83.0496 21.5666L83.0436 21.5646ZM86.4709 18.0919C84.6534 17.7003 84.0166 17.8526 83.8129 18.7801C84.6732 18.4973 85.7214 19.2527 86.4709 18.0919Z" fill="#FF0006"/>
<path d="M19.4304 13.4187C19.7033 12.6731 19.9011 12.0185 20.1918 11.4094C20.2848 11.2156 20.619 11.0356 20.8524 11.0257C21.8333 10.9842 22.8181 11.0079 23.9711 11.0079C23.6942 11.7594 23.4826 12.4259 23.1919 13.0568C23.1108 13.2328 22.8003 13.3949 22.5887 13.4028C21.5762 13.4384 20.5616 13.4187 19.4344 13.4187H19.4304Z" fill="#FF0006"/>
<path d="M13.9207 13.4167C14.2133 12.6177 14.3894 12.0244 14.6544 11.4727C14.7532 11.265 15.0558 11.0376 15.2753 11.0277C16.2839 10.9802 17.2965 11.0079 18.4455 11.0079C18.1805 11.7515 17.9847 12.4022 17.7118 13.0152C17.6288 13.1991 17.3321 13.391 17.1264 13.3989C16.1178 13.4384 15.1092 13.4167 13.9207 13.4167Z" fill="#FF0006"/>
</g>
<defs>
<clipPath id="clip0_102_728">
<rect width="100" height="18.5939" fill="white" transform="translate(0 11)"/>
</clipPath>
</defs>
</svg>
