<svg width="100" height="19" viewBox="0 0 100 19" fill="none" xmlns="http://www.w3.org/2000/svg">
<g clip-path="url(#clip0_8184_3828)">
<path d="M0 3.75781H4.09176L5.6818 9.45543L5.87758 9.44752C6.42342 7.78234 6.95145 6.10924 7.53486 4.4579C7.62781 4.19685 7.96994 3.84285 8.2033 3.8389C11.1658 3.79737 14.1284 3.81121 17.255 3.81121C16.4462 6.10529 15.6709 8.30839 14.8917 10.5214C16.6617 10.8833 16.725 10.8497 17.2491 9.32293C17.791 7.7408 18.3427 6.16066 18.8569 4.56865C19.029 4.03468 19.2604 3.7855 19.8873 3.79341C22.917 3.83099 25.9508 3.75188 28.9766 3.86065C29.5916 3.8824 30.1849 4.53701 30.8454 4.93452C30.8395 3.60553 31.8501 3.7855 32.8132 3.8033C34.427 3.83296 36.0407 3.83099 37.6545 3.79934C38.2063 3.78945 38.4634 3.94173 38.6077 4.50932C38.9736 5.95103 39.4245 7.36901 40.0455 8.80676C40.5162 7.39274 41.0165 5.98663 41.4397 4.55876C41.6098 3.98524 41.857 3.76177 42.4681 3.79539C43.4174 3.84878 44.3706 3.80923 45.4425 3.80923C44.6811 6.05189 43.9474 8.21742 43.2117 10.3829C42.3791 12.8352 41.5406 15.2836 40.7159 17.7378C40.6249 18.0088 40.5973 18.3034 40.5419 18.5863H36.5866C37.0335 17.3898 37.4943 16.1972 37.9175 14.9909C38.0085 14.7279 38.0481 14.3897 37.965 14.1326C37.2629 11.9532 36.5431 9.77976 35.7817 7.62017C35.7045 7.40065 35.307 7.15542 35.0677 7.16333C34.7019 7.1752 34.1303 7.30177 34.0156 7.55095C33.5707 8.52198 33.2701 9.56025 32.8884 10.6539L34.4151 10.7449C34.0394 11.4252 33.6241 11.9631 33.4283 12.5722C32.9022 14.2058 31.7987 14.6191 30.2047 14.4411C29.3583 14.3462 28.5514 14.3976 28.1361 13.2209C27.3153 14.7338 26.0259 14.4094 24.8373 14.4253C24.5407 14.4292 24.244 14.4253 23.9494 14.4253C21.8966 14.4213 21.3804 13.7015 21.9994 11.708C22.4543 10.2465 22.9091 8.78501 23.3699 7.30374C22.4464 6.9715 22.0053 7.19102 21.7087 8.10074C20.8168 10.8418 19.7923 13.5413 18.8846 16.2783C18.5168 17.3838 17.9254 18.1967 16.81 18.5863H13.0525C13.3175 17.8802 13.5865 17.1782 13.8475 16.4702C14.0334 15.9678 14.0532 15.3765 14.8561 15.3666C15.0618 15.3647 15.2615 14.8564 15.5859 14.4154C14.2806 14.4154 13.2641 14.4154 12.2456 14.4154C10.175 14.4193 9.89815 14.0456 10.5389 12.1035C10.6714 11.6981 10.8039 11.2927 10.9364 10.8872C11.3161 9.72241 11.6939 8.5556 12.0815 7.36703C11.0676 7.26815 10.4189 7.62742 10.1355 8.44485C9.52437 10.2089 8.93108 11.9829 8.27648 13.7311C8.16968 14.0159 7.79393 14.3818 7.52892 14.3936C6.05359 14.4589 4.57233 14.4253 3.03965 14.4253C2.74498 13.3811 2.47207 12.3764 2.18135 11.3757C1.45951 8.90366 0.727776 6.4316 0 3.95558V3.75781ZM30.0089 7.16333C29.1546 7.16333 28.5039 7.13367 27.8592 7.18113C27.6535 7.19695 27.349 7.37494 27.2857 7.54897C26.9277 8.54373 26.6271 9.56025 26.287 10.6381C27.0543 10.6381 27.6772 10.6776 28.2903 10.6183C28.5296 10.5965 28.8777 10.4067 28.9568 10.2069C29.3266 9.27942 29.6193 8.32224 30.0109 7.16333H30.0089Z" fill="#FF0006"/>
<path d="M62.476 7.18381H56.5015C57.4389 8.04409 58.1311 8.81538 58.9578 9.39878C60.0474 10.1701 60.2946 11.0205 59.733 12.2268C59.4205 12.8992 59.29 13.6586 59.0705 14.4062H49.8052C50.2205 13.2176 50.5883 12.0825 51.0313 10.977C51.0966 10.8128 51.506 10.7159 51.7591 10.708C52.6945 10.6763 53.6319 10.6961 54.8502 10.6961C53.9187 9.83387 53.2265 9.1496 52.4869 8.52071C52.0498 8.14891 51.8797 7.79293 52.1487 7.24512C52.3208 6.89508 52.4157 6.50548 52.5442 6.13368C53.0676 4.6333 54.1382 3.88377 55.7559 3.88509C59.6756 3.88904 63.5954 3.90289 67.5151 3.89893C68.4406 3.89893 69.3978 3.76247 69.9199 5.01631C70.0524 3.60228 70.972 3.76841 71.8204 3.78423C72.5086 3.79609 73.1988 3.78621 74.0472 3.78621C73.3274 6.08622 72.6392 8.2913 71.949 10.4924C73.0901 10.8603 73.2028 10.8108 73.5509 9.79036C74.3577 7.433 75.1883 5.08157 75.9478 2.71036C76.1772 1.99248 76.5134 1.72549 77.2688 1.79076C78.1173 1.86591 78.9756 1.80855 79.996 1.80855C78.9854 4.78097 78.0085 7.65252 76.9959 10.6328L78.4891 10.7416C78.0698 11.9816 77.6644 13.1781 77.2471 14.4141C74.4131 14.4141 71.6147 14.4517 68.8183 14.3805C68.2883 14.3666 67.7702 13.9177 67.1077 13.6053C65.927 15.1636 63.9948 14.3014 62.2802 14.3647C61.1371 14.4062 60.6605 13.4055 61.0303 12.1181C61.4456 10.6684 61.9104 9.23464 62.3475 7.79095C62.4028 7.61099 62.4266 7.42311 62.478 7.18184L62.476 7.18381ZM69.1585 7.13437C68.32 7.13437 67.6654 7.11262 67.0127 7.14624C66.8189 7.15613 66.5124 7.27676 66.4629 7.41915C66.101 8.44951 65.7925 9.49965 65.4326 10.6526C66.2276 10.6526 66.8506 10.6823 67.4696 10.6368C67.6851 10.621 68.0114 10.4647 68.0767 10.2947C68.4584 9.29792 68.7768 8.27746 69.1605 7.13635L69.1585 7.13437Z" fill="#FF0006"/>
<path d="M83.0435 10.5685H92.8724C91.8381 9.6093 90.9403 8.77671 90.0187 7.92039C90.4933 6.55383 90.964 5.19716 91.4426 3.82071H100.002C99.6637 4.93611 99.3394 6.00602 99.0012 7.11944H94.595C95.5423 8.13002 96.274 8.9903 97.0928 9.75367C97.6544 10.2778 97.8067 10.7623 97.4922 11.4742C97.073 12.4255 96.9919 13.7426 96.2878 14.2904C95.6649 14.7749 94.3913 14.4348 93.4044 14.4368C89.0219 14.4407 84.6395 14.4407 80.257 14.4368C78.928 14.4368 78.3743 13.8336 78.7757 12.5758C79.6597 9.7952 80.6486 7.04824 81.6354 4.30128C81.7125 4.08374 82.1002 3.8484 82.3474 3.84247C84.2578 3.80687 86.1702 3.77918 88.0806 3.84247C89.5935 3.89191 90.0523 4.6276 89.5994 6.07524C89.2949 7.04627 88.933 8.00147 88.6858 8.98634C88.5038 9.71412 88.1716 10.0029 87.3963 9.95935C86.2137 9.89409 85.0251 9.93364 83.8385 9.96726C83.5399 9.97517 83.2472 10.1274 82.9525 10.2145L83.0494 10.5704L83.0435 10.5685ZM86.4708 7.09571C84.6533 6.70413 84.0165 6.85641 83.8128 7.78393C84.6731 7.50113 85.7212 8.25659 86.4708 7.09571Z" fill="#FF0006"/>
<path d="M19.4307 2.41751C19.7036 1.67193 19.9013 1.01733 20.1921 0.408214C20.285 0.214404 20.6192 0.0344375 20.8526 0.0245493C21.8335 -0.0169814 22.8184 0.00675039 23.9714 0.00675039C23.6945 0.758258 23.4829 1.42473 23.1922 2.0556C23.1111 2.23161 22.8006 2.39378 22.589 2.40169C21.5764 2.43729 20.5619 2.41751 19.4346 2.41751H19.4307Z" fill="#FF0006"/>
<path d="M13.9209 2.41681C14.2136 1.61784 14.3896 1.02454 14.6546 0.472776C14.7535 0.265123 15.0561 0.0376924 15.2756 0.0278042C16.2842 -0.0196595 17.2968 0.00802763 18.4458 0.00802763C18.1808 0.751625 17.985 1.40227 17.7121 2.01534C17.629 2.19927 17.3323 2.3911 17.1267 2.39901C16.1181 2.43856 15.1095 2.41681 13.9209 2.41681Z" fill="#FF0006"/>
</g>
<defs>
<clipPath id="clip0_8184_3828">
<rect width="100" height="18.5939" fill="white"/>
</clipPath>
</defs>
</svg>
