<svg width="11" height="14" viewBox="0 0 11 14" fill="none" xmlns="http://www.w3.org/2000/svg">
<path d="M5.66699 7.41669C6.63349 7.41669 7.41699 6.63319 7.41699 5.66669C7.41699 4.70019 6.63349 3.91669 5.66699 3.91669C4.70049 3.91669 3.91699 4.70019 3.91699 5.66669C3.91699 6.63319 4.70049 7.41669 5.66699 7.41669Z" stroke="white" stroke-linecap="round" stroke-linejoin="round"/>
<path d="M5.66667 1C4.42899 1 3.242 1.49167 2.36683 2.36684C1.49167 3.242 1 4.42899 1 5.66667C1 6.77033 1.2345 7.4925 1.875 8.29167L5.66667 12.6667L9.45833 8.29167C10.0988 7.4925 10.3333 6.77033 10.3333 5.66667C10.3333 4.42899 9.84167 3.242 8.9665 2.36684C8.09133 1.49167 6.90434 1 5.66667 1V1Z" stroke="white" stroke-linecap="round" stroke-linejoin="round"/>
</svg>
