<svg width="24" height="24" viewBox="0 0 24 24" fill="none" xmlns="http://www.w3.org/2000/svg">
<path d="M12 24C15.1826 24 18.2348 22.7357 20.4853 20.4853C22.7357 18.2348 24 15.1826 24 12C24 8.8174 22.7357 5.76516 20.4853 3.51472C18.2348 1.26428 15.1826 -3.85421e-07 12 -5.24537e-07C8.8174 -6.63652e-07 5.76516 1.26428 3.51472 3.51472C1.26428 5.76515 1.52193e-06 8.8174 1.38281e-06 12C1.2437e-06 15.1826 1.26428 18.2348 3.51472 20.4853C5.76515 22.7357 8.8174 24 12 24ZM6.75 12.75C6.55109 12.75 6.36032 12.671 6.21967 12.5303C6.07902 12.3897 6 12.1989 6 12C6 11.8011 6.07902 11.6103 6.21967 11.4697C6.36032 11.329 6.55109 11.25 6.75 11.25L15.4395 11.25L12.219 8.031C12.0782 7.89017 11.9991 7.69916 11.9991 7.5C11.9991 7.30084 12.0782 7.10983 12.219 6.969C12.3598 6.82817 12.5508 6.74905 12.75 6.74905C12.9492 6.74905 13.1402 6.82817 13.281 6.969L17.781 11.469C17.8508 11.5387 17.9063 11.6214 17.9441 11.7125C17.9819 11.8037 18.0013 11.9013 18.0013 12C18.0013 12.0987 17.9819 12.1963 17.9441 12.2875C17.9063 12.3786 17.8508 12.4613 17.781 12.531L13.281 17.031C13.1402 17.1718 12.9492 17.2509 12.75 17.2509C12.5508 17.2509 12.3598 17.1718 12.219 17.031C12.0782 16.8902 11.9991 16.6992 11.9991 16.5C11.9991 16.3008 12.0782 16.1098 12.219 15.969L15.4395 12.75L6.75 12.75Z" fill="white"/>
</svg>
