<svg width="57" height="29" viewBox="0 0 57 29" fill="none" xmlns="http://www.w3.org/2000/svg">
<g clip-path="url(#clip0_760_26)">
<path fill-rule="evenodd" clip-rule="evenodd" d="M56.25 29L56.25 0.875007L3.68815e-06 0.875L0 29L56.25 29Z" fill="#9B9B9B"/>
<path fill-rule="evenodd" clip-rule="evenodd" d="M42.708 20.6668L42.708 9.2078C42.708 8.0578 43.641 7.1248 44.791 7.1248L46.875 7.1248C48.025 7.1248 48.958 8.0578 48.958 9.2078L48.958 20.6668C48.958 21.8178 48.025 22.7498 46.875 22.7498L44.791 22.7498C43.641 22.7498 42.708 21.8178 42.708 20.6668Z" fill="white"/>
<path d="M35.8808 7.7678L6.55078 22.1068" stroke="#FCFCFC"/>
<path d="M35.8808 22.1072L6.55078 7.76821" stroke="#FCFCFC"/>
</g>
<defs>
<clipPath id="clip0_760_26">
<rect width="29" height="57" fill="white" transform="translate(0 29) rotate(-90)"/>
</clipPath>
</defs>
</svg>
