<svg width="53" height="16" viewBox="0 0 53 16" fill="none" xmlns="http://www.w3.org/2000/svg">
<path d="M31.657 8.59458V5.87858C31.657 5.25758 31.957 4.41158 32.507 4.65258C34.43 5.48658 36.399 3.56658 38.25 4.89558C39.026 5.45258 39.645 4.70158 40.336 4.55058C42.588 4.02458 43.683 4.79858 43.78 7.07258C43.842 8.46558 43.78 9.86458 43.78 11.2616C43.78 12.1076 43.361 12.4256 42.538 12.3866C41.748 12.3536 41.597 11.8806 41.599 11.2366V7.53658C41.599 6.68658 41.308 6.05258 40.309 6.14758C40.122 6.13631 39.9349 6.16723 39.7615 6.23806C39.5881 6.30889 39.4329 6.41781 39.3073 6.55676C39.1817 6.69571 39.0889 6.86114 39.0359 7.04078C38.9829 7.22043 38.9709 7.4097 39.001 7.59458C39.053 8.57858 39.022 9.56558 39.001 10.5516C38.985 11.4306 39.211 12.4516 37.726 12.4066C36.393 12.3656 36.641 11.4366 36.626 10.6466C36.601 9.57958 36.61 8.51258 36.612 7.44158C36.612 6.69058 36.348 6.10258 35.495 6.14158C34.719 6.18058 34.011 6.40158 34.034 7.42158C34.061 8.57158 34.034 9.72158 34.034 10.8726C34.034 11.6336 34.075 12.3646 32.946 12.4076C31.697 12.4546 31.638 11.6956 31.656 10.8076C31.667 10.0736 31.655 9.33758 31.657 8.59458Z" fill="#4A91BE"/>
<path d="M4.687 14.8528C2.93424 13.1148 1.36374 11.2022 0 9.1448C1.48 8.6718 2.549 8.8268 3.345 10.0568C4.216 11.4028 4.839 10.8328 5.464 9.7908C6.349 8.3108 7.311 6.8808 8.225 5.4098C8.32586 5.20209 8.46885 5.01765 8.64486 4.8682C8.82087 4.71876 9.02606 4.60758 9.24738 4.54174C9.46869 4.4759 9.70129 4.45684 9.93037 4.48577C10.1595 4.51471 10.38 4.591 10.578 4.7098C11.534 5.3228 10.497 5.9868 10.161 6.5098C8.4 9.2648 6.577 11.9848 4.687 14.8528Z" fill="#EB9F43"/>
<path d="M21.161 8.58277C21.161 7.84177 21.149 7.09877 21.161 6.35777C21.18 4.98377 21.446 3.83577 23.161 4.99977C24.079 5.62277 24.498 4.69977 25.167 4.61177C25.732 4.53077 26.187 4.58077 26.367 5.17077C26.547 5.76077 26.526 6.48377 25.727 6.47077C23.257 6.42577 23.48 8.05977 23.542 9.65277C23.563 10.1458 23.528 10.6408 23.542 11.1348C23.565 11.8798 23.412 12.4038 22.467 12.4188C21.456 12.4348 21.144 11.9398 21.167 11.0608C21.18 10.2318 21.164 9.40677 21.161 8.58277Z" fill="#5295C0"/>
<path d="M27.55 8.3687V5.6687C27.55 5.0067 27.773 4.5837 28.543 4.5687C29.257 4.5567 29.676 4.8577 29.684 5.5487C29.709 7.5137 29.698 9.4797 29.684 11.4487C29.684 12.1897 29.236 12.4187 28.543 12.4037C27.779 12.4037 27.543 11.9927 27.543 11.3207C27.55 10.3287 27.55 9.3387 27.55 8.3687Z" fill="#4990BD"/>
<path d="M28.674 3.40646C27.848 3.27846 27.411 2.86546 27.456 2.10646C27.4476 1.94251 27.477 1.77882 27.542 1.62807C27.607 1.47733 27.7059 1.34358 27.8309 1.2372C27.956 1.13083 28.1038 1.05468 28.263 1.01466C28.4223 0.974649 28.5886 0.971841 28.749 1.00646C28.912 1.00154 29.0742 1.0311 29.225 1.0932C29.3758 1.1553 29.5117 1.24855 29.624 1.36684C29.7362 1.48512 29.8222 1.62578 29.8763 1.7796C29.9305 1.93343 29.9515 2.09695 29.938 2.25946C29.911 2.57489 29.7657 2.86845 29.5313 3.08119C29.2968 3.29394 28.9906 3.41014 28.674 3.40646Z" fill="#5E9CC5"/>
<path d="M18.881 5.6707C17.911 4.1187 16.423 4.1787 14.9 4.7797C14.7168 4.87176 14.5159 4.92309 14.311 4.93017C14.1061 4.93724 13.9021 4.8999 13.713 4.8207C12.031 4.0777 11.913 5.0957 11.932 6.3397C11.959 8.4737 11.845 10.6257 11.981 12.7577C12.043 13.7397 11.16 15.4637 12.893 15.5647C15.027 15.6887 13.712 13.7197 14.14 12.7597C14.206 12.6127 14.26 12.4597 14.334 12.2767C14.5717 12.2786 14.8091 12.298 15.044 12.3347C16.627 12.7017 18.109 12.6277 18.988 11.0637C19.4791 10.2457 19.7296 9.30574 19.7107 8.3518C19.6917 7.39786 19.4042 6.4686 18.881 5.6707ZM17.446 8.5447C17.415 9.7827 17.112 10.8957 15.506 10.8727C13.806 10.8497 14.134 9.5727 14.084 8.5447C14.008 7.3377 13.97 6.0447 15.657 6.0677C17.186 6.0957 17.479 7.3027 17.446 8.5447Z" fill="#5295C0"/>
<path d="M49.4991 10.928C48.7661 10.788 47.7531 10.876 47.7321 9.95796C47.7031 8.74696 48.8591 9.40296 49.4781 9.25796C50.9331 8.90896 52.3471 8.52696 52.1691 6.65796C51.9851 4.73296 50.5341 4.37796 48.9041 4.43296C46.5511 4.51996 45.0961 6.23296 45.1621 8.75596C45.2281 11.256 46.7431 12.716 49.4091 12.718C50.2371 12.462 51.8831 12.85 51.8091 11.438C51.7441 10.263 50.3041 11.085 49.4991 10.928ZM48.8671 5.96496C49.0107 5.93384 49.1594 5.9344 49.3028 5.96662C49.4462 5.99884 49.5808 6.06194 49.6974 6.15152C49.8139 6.2411 49.9095 6.355 49.9775 6.4853C50.0454 6.61559 50.0842 6.75915 50.0911 6.90596C49.9771 7.69596 49.3621 7.84896 48.6691 7.86196C48.1691 7.86196 47.5861 7.81496 47.5921 7.17696C47.5918 7.01231 47.6252 6.84934 47.69 6.69798C47.7548 6.54662 47.8497 6.41004 47.969 6.29655C48.0883 6.18306 48.2294 6.09505 48.3838 6.03787C48.5382 5.98069 48.7026 5.95554 48.8671 5.96396V5.96496Z" fill="#4A91BE"/>
</svg>
