<?xml version="1.0" encoding="UTF-8"?>
<svg width="24px" height="24px" viewBox="0 0 24 24" version="1.1" xmlns="http://www.w3.org/2000/svg" xmlns:xlink="http://www.w3.org/1999/xlink">
    <!-- Generator: Sketch 54 (76480) - https://sketchapp.com -->
    <title>24-7-support</title>
    <desc>Created with Sketch.</desc>
    <g id="24-7-support" stroke="none" stroke-width="1" fill="none" fill-rule="evenodd">
        <g id="002-support" transform="translate(4.000000, 5.000000)" fill="#000000" fill-rule="nonzero">
            <path d="M10.2803215,10.4049015 L10.2803215,10.1329803 C10.3589976,10.0709113 10.4346478,10.002931 10.5072719,9.93199507 C11.0887565,9.3066133 11.4549031,8.51896552 11.5542695,7.67977833 C12.0768605,7.60200739 12.547896,7.32846059 12.8675556,6.91721675 C13.3063262,6.31130542 13.3456643,5.43938424 12.9795177,4.34578818 C12.9579953,4.28272167 12.9153664,4.22855911 12.8584775,4.1920936 L12.6920473,4.08273399 C12.7165957,3.09598522 12.3674704,2.13509852 11.7116217,1.38421182 C10.8976265,0.48864532 9.64788652,0.0364285714 7.99266194,0.0305172414 C6.34046336,0.0305172414 5.0876974,0.48864532 4.27370213,1.37238916 C3.61785343,2.12327586 3.26872813,3.08416256 3.2932766,4.07091133 L3.12684634,4.18027094 C3.06995745,4.21673645 3.02732861,4.27089901 3.00580615,4.33396552 C2.63965957,5.43347291 2.67899764,6.29948276 3.11776832,6.90539409 C3.43621749,7.3195197 3.90725296,7.5962069 4.43105437,7.67682266 C4.53083688,8.5173399 4.8981182,9.30609606 5.48107801,9.93199507 C5.55313475,10.0027833 5.62886052,10.0698768 5.70802837,10.1329803 L5.70802837,10.4049015 C4.54906856,10.6236207 -0.0776926714,11.6847044 0.000983451537,14.6994828 C0.000983451537,14.8627094 0.136472813,14.9950493 0.303583924,14.9950493 L15.684766,14.9950493 C15.8518771,14.9950493 15.9873664,14.8627094 15.9873664,14.6994828 C16.0660426,11.6847044 11.4392813,10.6236207 10.2803215,10.4049015 Z M4.24949409,7.01770936 C3.99235934,6.93336207 3.76824586,6.77334975 3.60798109,6.55958128 L3.62311111,6.56253695 C3.32051064,6.13100985 3.2932766,5.47780788 3.56259102,4.61475369 L3.78348936,4.46992611 C3.87642553,4.40933498 3.92760284,4.30366995 3.91663357,4.19504926 C3.86572104,3.31167488 4.15988652,2.44230296 4.73970686,1.76253695 C5.42358392,1.0058867 6.52202364,0.627561576 7.99266194,0.621650246 C9.46330024,0.615738916 10.56174,1.0058867 11.257721,1.76253695 C11.8375414,2.44230296 12.1317069,3.31167488 12.0807943,4.19504926 C12.0698251,4.30366995 12.1210024,4.40933498 12.2139385,4.46992611 L12.4348369,4.61475369 C12.7041513,5.47485222 12.6859953,6.13100985 12.3743168,6.56253695 C12.2129551,6.77649015 11.9878582,6.93650246 11.7297778,7.02066502 C12.0947896,6.615 12.2731348,6.08068966 12.2230165,5.54283251 C12.1663168,5.21922414 11.9936076,4.92591133 11.7358298,4.71524631 C11.6057116,1.75958128 9.48448227,1.4285468 8.57062884,1.4285468 C8.37719149,1.42799261 8.18398109,1.44184729 7.99266194,1.46992611 C7.80138061,1.44181034 7.60813239,1.42799261 7.41469504,1.4285468 C6.50689362,1.4285468 4.38869031,1.75366995 4.24949409,4.71524631 C3.99005201,4.92421182 3.81522459,5.21652709 3.75625532,5.53987685 C3.70579669,6.07777094 3.88417967,6.61222906 4.24949409,7.01770936 Z M11.1336548,4.59406404 C9.86390544,4.66573892 8.60209929,4.35631773 7.5175792,3.70736453 C7.39483688,3.62316502 7.22746099,3.63953202 7.12419858,3.74578818 C6.51899764,4.38125616 5.41450591,4.52903941 4.88192908,4.56155172 C5.04533333,2.47189655 6.34046336,2.01672414 7.42982506,2.01672414 C7.60321513,2.01550493 7.77637825,2.02935961 7.94727187,2.05810345 C7.98721513,2.06608374 8.02836879,2.06608374 8.06831206,2.05810345 C8.23920567,2.0294335 8.41236879,2.01557882 8.58575887,2.01672414 C9.66604255,2.01672414 10.9672246,2.48371921 11.1185248,4.59110837 L11.1336548,4.59406404 Z M4.98783924,7.073867 L4.99994326,7.07682266 C5.00058629,7.00396552 4.97365485,6.93343596 4.92429314,6.8787931 C4.5097305,6.41475369 4.3190922,5.9920936 4.37053428,5.64332512 C4.39519622,5.44906404 4.4934279,5.27087438 4.64590071,5.14381773 C5.04533333,5.14381773 6.46150355,5.06992611 7.36930496,4.30440887 C8.39167849,4.87850985 9.54889835,5.18401478 10.7281702,5.19110837 C10.9309125,5.19110837 11.1366809,5.19110837 11.3515272,5.15859606 C11.4998392,5.28229064 11.5967092,5.4546798 11.6238676,5.64332512 C11.6753097,5.98618227 11.4846714,6.41475369 11.0701087,6.8787931 C11.020747,6.93343596 10.9938156,7.00396552 10.9944586,7.07682266 C10.9944586,7.07682266 10.9944586,7.13593596 10.9944586,7.23051724 L9.23332388,8.15268473 C8.88382033,7.82948276 8.33221749,7.84422414 8.00132388,8.18560345 C7.67043026,8.52698276 7.68552246,9.06576355 8.035026,9.38896552 C8.38452955,9.71216749 8.93613239,9.69742611 9.267026,9.3560468 C9.42036879,9.19784483 9.50577778,8.98825123 9.5056643,8.77041872 C9.507026,8.74381773 9.507026,8.71721675 9.5056643,8.69061576 L10.8946005,7.96352217 C10.7753759,8.54634236 10.4949031,9.08608374 10.0836312,9.5241133 C9.54719622,10.0285714 8.82106856,10.2938793 8.07739007,10.2571182 L7.92608983,10.2571182 C7.184,10.2931034 6.45946099,10.0290887 5.9228747,9.52706897 C4.96665721,8.59603448 4.98783924,7.08864532 4.98783924,7.073867 Z M8.90046336,8.77041872 C8.90046336,8.91568966 8.77987707,9.03347291 8.63114894,9.03347291 C8.4824208,9.03347291 8.36183452,8.91568966 8.36183452,8.77041872 C8.36183452,8.62514778 8.4824208,8.50736453 8.63114894,8.50736453 C8.77987707,8.50736453 8.90046336,8.62514778 8.90046336,8.77041872 Z M7.69006147,14.3861823 L0.615262411,14.3861823 C0.854316785,12.1664778 4.54906856,11.238399 5.70500236,10.9989901 L5.70500236,11.5280542 C5.70500236,12.1989901 6.54017967,12.7103202 7.69006147,12.7960345 L7.69006147,14.3861823 Z M6.31020331,11.5280542 L6.31020331,11.5191872 L6.31020331,10.5083498 C6.81320095,10.7361946 7.36264775,10.8493966 7.91701182,10.8393842 L8.06831206,10.8393842 C8.62267612,10.8493966 9.17212293,10.7361946 9.67512057,10.5083498 L9.67512057,11.5280542 C9.67512057,11.8088424 9.01847754,12.2137685 7.99266194,12.2137685 C6.96684634,12.2137685 6.31020331,11.8088424 6.31020331,11.5280542 Z M8.29526241,14.3950493 L8.29526241,12.7930788 C9.44514421,12.7162315 10.2803215,12.2019458 10.2803215,11.5250985 L10.2803215,11.0078571 C11.4453333,11.2443103 15.1219291,12.1723892 15.3700615,14.3950493 L8.29526241,14.3950493 Z" id="Shape"></path>
        </g>
    </g>
</svg>