<?xml version="1.0" encoding="UTF-8"?>
<svg width="24px" height="24px" viewBox="0 0 24 24" version="1.1" xmlns="http://www.w3.org/2000/svg" xmlns:xlink="http://www.w3.org/1999/xlink">
    <!-- Generator: Sketch 54 (76480) - https://sketchapp.com -->
    <title>air-freshner</title>
    <desc>Created with Sketch.</desc>
    <g id="air-freshner" stroke="none" stroke-width="1" fill="none" fill-rule="evenodd">
        <g id="scent" transform="translate(4.000000, 4.000000)" fill="#000000" fill-rule="nonzero">
            <path d="M12.5322266,12.8514851 C12.4063721,12.8196782 12.2781982,12.8972772 12.2468262,13.0252475 C12.059082,13.7863861 11.7608642,14.5128713 11.3604736,15.1837871 C11.243042,15.3805693 11.0292969,15.5028465 10.8026123,15.5028465 L5.20324706,15.5028465 C4.9765625,15.5028465 4.76269531,15.3805693 4.64526369,15.1837871 C3.91442872,13.9586634 3.52819825,12.5542079 3.52819825,11.122401 C3.52819825,10.7063119 3.52502441,10.957302 3.87634278,5.75742574 C3.88513184,5.62586633 3.78759766,5.51163368 3.65759278,5.50272279 C3.52783203,5.4934406 3.41552734,5.5928218 3.40637206,5.72425743 C3.05688475,10.902104 3.05725097,10.6787129 3.05725097,11.122401 C3.05725097,12.6414604 3.467041,14.1311881 4.2421875,15.4308168 C4.44433594,15.7699257 4.81262206,15.9803218 5.20324706,15.9803218 L10.8026123,15.9803218 C11.1931152,15.9803218 11.5614014,15.7699257 11.7636719,15.4308168 C12.1881103,14.7190594 12.5046387,13.9483911 12.7036133,13.1412129 C12.7349853,13.0132426 12.6584472,12.8836634 12.5322266,12.8514851 Z" id="Path"></path>
            <path d="M8.609375,2.94183167 C8.63049316,3.07190593 8.75158691,3.16002474 8.88000488,3.13861386 C9.00830078,3.11720298 9.09521484,2.99430691 9.07409669,2.86423268 C8.98876953,2.33849011 8.52819825,1.94195545 8.00292969,1.94195545 C7.40429687,1.94195545 6.91735841,2.43564356 6.91735841,3.04257426 L6.91735841,4.85222774 C6.91735841,5.45915843 7.40429687,5.95284654 8.00292969,5.95284654 C8.60144044,5.95284654 9.08837891,5.45915843 9.08837891,4.85222774 L9.08837891,3.85730199 C9.08837891,3.72537128 8.98303222,3.61856437 8.85290528,3.61856437 C8.72277831,3.61856437 8.61743163,3.72537128 8.61743163,3.85730199 L8.61743163,4.85222774 C8.61743163,5.1957921 8.34179688,5.47537128 8.00292969,5.47537128 C7.6640625,5.47537128 7.38830566,5.1957921 7.38830566,4.85222774 L7.38830566,3.04257426 C7.38830566,2.6990099 7.6640625,2.41943069 8.00292969,2.41943069 C8.30029297,2.41943069 8.56103516,2.64405941 8.609375,2.94183167 Z" id="Path"></path>
            <path d="M8.39538575,3.11967823 C8.39538575,3.33948021 8.2196045,3.51757427 8.00292969,3.51757427 C7.78613281,3.51757427 7.61035156,3.33948021 7.61035156,3.11967823 C7.61035156,2.9 7.78613281,2.72178218 8.00292969,2.72178218 C8.2196045,2.72178218 8.39538575,2.9 8.39538575,3.11967823 L8.39538575,3.11967823 Z" id="Path"></path>
            <path d="M14.7397461,3.36076733 C14.5067139,2.56386139 13.4887695,2.34764851 12.9614258,2.98898516 C12.7226563,2.93217822 12.4610596,2.93997526 12.2352295,2.99628711 C11.1380615,-0.0418316673 7.30200194,-1.01707919 4.92822266,1.22896038 C3.36047363,2.71175743 3.52246094,4.54554455 3.47167969,4.77153464 C3.46252441,4.90334159 3.56054688,5.01732673 3.69018556,5.02623762 C3.82019044,5.03477722 3.93225097,4.93613861 3.94140625,4.8045792 L3.9765625,4.28700496 C4.12255859,2.15074256 5.89111328,0.477722772 8.00292969,0.477722772 C9.73571778,0.477722772 11.2374268,1.6042079 11.8010254,3.1888614 C11.6624756,3.28403466 11.5438233,3.40693069 11.4483643,3.5549505 L9.75073244,3.5549505 C9.62048341,3.5549505 9.51525878,3.66150989 9.51525878,3.79368811 C9.51525878,3.92537128 9.62048341,4.03242576 9.75073244,4.03242576 L11.583374,4.03242576 C11.6716309,4.03242576 11.7523193,3.98242573 11.7928467,3.90284654 C12.0246582,3.44467821 12.5770264,3.33898516 12.9742432,3.49121286 C13.0834961,3.53329207 13.2069092,3.48712871 13.2634278,3.38329207 C13.3620606,3.20284654 13.5494385,3.0904703 13.7525635,3.0904703 C14.0893555,3.0904703 14.3312988,3.39269801 14.3101807,3.66955444 C14.3109131,3.67264852 14.2862549,3.82339108 14.4257813,3.90606435 C14.5020752,3.95086634 14.5965576,3.9490099 14.6710205,3.9006188 C15.0404053,3.66175743 15.5290528,3.93032177 15.5290528,4.37747523 C15.5290528,4.82908417 15.0321045,5.0964109 14.6644287,4.85049505 C14.4936523,4.73650991 14.2684326,4.88292081 14.3023682,5.0888614 C14.3602295,5.44752475 14.0860596,5.74851485 13.7525635,5.74851485 C13.5494385,5.74851485 13.3620606,5.63638615 13.2634278,5.4555693 C13.2069092,5.35185644 13.0834961,5.30631189 12.9742432,5.3480198 C12.4799805,5.53737625 11.9274903,5.2944307 11.7247314,4.80012375 C11.6882324,4.71138614 11.6025391,4.65309405 11.5074463,4.65309405 L10.5460205,4.65309405 C10.4160156,4.65309405 10.3105469,4.76002474 10.3105469,4.8918317 C10.3105469,5.02400989 10.4160156,5.13056931 10.5460205,5.13056931 L11.3598633,5.13056931 C11.53125,5.4454208 11.8068848,5.68131187 12.1325684,5.8006188 L12.1787109,6.47586633 C11.9438477,6.56905942 11.7604981,6.76707922 11.6844483,7.01225248 C10.8760986,6.82896038 10.3365478,7.82054457 10.8841553,8.41955447 C10.3326416,9.03180692 10.8862305,10.0048267 11.6844483,9.82388613 C11.7877197,10.1565594 12.0886231,10.4017327 12.4473877,10.4179455 C12.4782715,10.9200495 12.5070801,11.3891089 12.4154053,12.1152228 C12.3990478,12.2460396 12.4901123,12.3654703 12.6191406,12.382302 C12.7520752,12.3986386 12.8665772,12.3034653 12.8825684,12.1753713 C12.9841309,11.3715346 12.9455566,10.8492574 12.911499,10.3007426 C13.0882568,10.1950495 13.2235108,10.0257426 13.2860108,9.82388613 C14.09375,10.0059406 14.6323242,9.01559408 14.0866699,8.41633663 C14.6367188,7.8055693 14.0852051,6.83106436 13.2860108,7.01225248 C13.1949463,6.71868813 12.9500733,6.49306931 12.6474609,6.43316832 L12.6103516,5.8888614 C12.6848144,5.8928218 12.829834,5.88155941 12.9614258,5.85 C13.5101318,6.51720298 14.581665,6.2503713 14.7595215,5.39888615 C15.4000244,5.53465347 16,5.03787127 16,4.37747523 C16,3.7055693 15.3795166,3.20940594 14.7397461,3.36076733 L14.7397461,3.36076733 Z M12.8477783,7.33304456 C12.8094483,7.55247525 13.0631103,7.7 13.230835,7.55742574 C13.3165283,7.48452971 13.4063721,7.46930693 13.4669189,7.46930693 C13.8768311,7.46930693 13.980957,8.04987625 13.5931397,8.1938119 C13.3868408,8.27004952 13.3876953,8.56633663 13.5931397,8.64232675 C13.7407227,8.69678219 13.8361816,8.83490097 13.8361816,8.9938119 C13.8361816,9.30383664 13.4747314,9.48601486 13.230835,9.27858912 C13.0964356,9.16386139 12.8901367,9.23477722 12.8505859,9.40631189 C12.8344727,9.47537128 12.8533936,9.50012375 12.8533936,9.57017328 C12.8533936,9.8075495 12.6352539,9.98032177 12.4145508,9.93440596 C12.2211914,9.89616336 12.0861816,9.7071782 12.1231689,9.50272279 C12.1608887,9.28304456 11.9063721,9.13675742 11.7397461,9.27858912 C11.55896,9.43242576 11.2954102,9.37586633 11.184082,9.17970297 C11.0716553,8.98267327 11.1561279,8.72400989 11.3774414,8.64232675 C11.5828858,8.56633663 11.5837403,8.27017328 11.3774414,8.1938119 C11.1573486,8.1121287 11.0710449,7.85532179 11.184082,7.65618813 C11.2957764,7.46002474 11.559082,7.40383664 11.7397461,7.55742574 C11.9072266,7.69987625 12.1608887,7.55284654 12.1231689,7.33341586 C12.081665,7.10383664 12.2565918,6.8944307 12.4854736,6.8944307 C12.7082519,6.8944307 12.8878174,7.0960396 12.8477783,7.33304456 L12.8477783,7.33304456 Z" id="Shape"></path>
            <path d="M1.82324219,1.39764851 C1.36047363,1.39764851 0.983886719,1.77945543 0.983886719,2.24876236 C0.983886719,2.71794554 1.36047363,3.09975249 1.82324219,3.09975249 C2.28613281,3.09975249 2.66271972,2.71806929 2.66271972,2.24876236 C2.66271972,1.77945543 2.28613281,1.39764851 1.82324219,1.39764851 Z M1.82324219,2.62240098 C1.62011719,2.62240098 1.454834,2.45470295 1.454834,2.24876236 C1.454834,2.04282177 1.62011719,1.87524752 1.82324219,1.87524752 C2.02648925,1.87524752 2.19177247,2.04282177 2.19177247,2.24876236 C2.19177247,2.45470295 2.02648925,2.62240098 1.82324219,2.62240098 Z" id="Shape"></path>
            <path d="M3.42456056,2.24715346 C3.97412109,1.63663366 3.42089844,0.662499992 2.6241455,0.842821766 C2.37854003,0.0513613941 1.26770019,0.051980198 1.02233887,0.842821766 C0.215454094,0.660272285 -0.323852531,1.65210395 0.222045906,2.2503713 C-0.328369125,2.86163365 0.222412125,3.83564356 1.02246094,3.65470295 C1.26794434,4.44628714 2.37890625,4.4454208 2.6241455,3.6545792 C3.42431641,3.83564356 3.97753906,2.85321784 3.42456056,2.24715346 Z M2.56872559,3.10928219 C2.40087891,2.96658414 2.14770506,3.11460398 2.18554687,3.33353961 C2.22644044,3.56980198 2.04675294,3.77227723 1.82324219,3.77227723 C1.59948731,3.77227723 1.42004394,3.56943069 1.4609375,3.33353961 C1.48632812,3.18700496 1.37463378,3.05346535 1.22912597,3.05346535 C1.06799316,3.05346535 1.05615234,3.197401 0.841796875,3.197401 C0.432128906,3.197401 0.327514656,2.61646039 0.715454094,2.47301982 C0.921264656,2.3970297 0.921508781,2.1006188 0.715454094,2.02438118 C0.493286125,1.94232675 0.41015625,1.68316832 0.521850594,1.48700496 C0.633300781,1.29133662 0.896484375,1.23415842 1.07775878,1.38811881 C1.24560547,1.53081682 1.49890137,1.38292081 1.4609375,1.16398514 C1.42004394,0.927599018 1.5998535,0.72512377 1.82324219,0.72512377 C2.04699706,0.72512377 2.2265625,0.927970281 2.18554687,1.16386139 C2.14770506,1.38254951 2.40063475,1.53094058 2.56872559,1.38811881 C2.63671875,1.33044556 2.71826172,1.3 2.80480956,1.3 C3.21630859,1.3 3.31799316,1.88143563 2.93115234,2.02438118 C2.83813475,2.05878714 2.77624512,2.1483911 2.77624512,2.24863861 C2.77624512,2.3490099 2.83813475,2.43861386 2.93115234,2.47301982 C3.07873534,2.52759902 3.17407225,2.66547029 3.17407225,2.82425743 C3.17407225,3.13527227 2.81237794,3.31621288 2.56872559,3.10928219 Z" id="Shape"></path>
            <path d="M6.02416994,7.2898515 C5.56127931,7.2898515 5.18469237,7.67165842 5.18469237,8.14096535 C5.18469237,8.6101485 5.56127931,8.99195545 6.02416994,8.99195545 C6.48693847,8.99195545 6.86352537,8.6101485 6.86352537,8.14096535 C6.86352537,7.67165842 6.48693847,7.2898515 6.02416994,7.2898515 L6.02416994,7.2898515 Z M6.02416994,8.51448019 C5.82092284,8.51448019 5.65563966,8.34690595 5.65563966,8.14096535 C5.65563966,7.93490097 5.82092284,7.76732673 6.02416994,7.76732673 C6.22729494,7.76732673 6.39257812,7.93502476 6.39257812,8.14096535 C6.39257812,8.34690595 6.22729494,8.51448019 6.02416994,8.51448019 Z" id="Shape"></path>
            <path d="M5.22326659,6.73502476 C4.41564941,6.55235149 3.87451172,7.54158416 4.42285156,8.14257426 C3.87243653,8.7539604 4.42333984,9.72784653 5.22326659,9.54690595 C5.46887206,10.3383664 6.57958984,10.3377475 6.82495119,9.54678216 C7.62512206,9.72784653 8.17834472,8.74529705 7.62536622,8.13935645 C8.17346191,7.53056931 7.623291,6.55433169 6.82495119,6.73502476 C6.57934569,5.94356436 5.46862794,5.94405941 5.22326659,6.73502476 L5.22326659,6.73502476 Z M7.13183594,7.91658417 C6.92602537,7.99269801 6.92590331,8.28910891 7.13183594,8.36522278 C7.279541,8.41980198 7.37487794,8.55767325 7.37487794,8.71658417 C7.37487794,9.02698018 7.01354981,9.20866338 6.76953125,9.00148515 C6.60180663,8.85866335 6.34851075,9.00680694 6.38635253,9.22574257 C6.42724609,9.46150989 6.24792481,9.66448019 6.02404784,9.66448019 C5.80029297,9.66448019 5.62084962,9.46163365 5.66174316,9.22574257 C5.69958497,9.00705445 5.44665528,8.85866335 5.27856444,9.00148515 C5.09814453,9.15482674 4.83459472,9.09925741 4.72265625,8.90272279 C4.61120606,8.70693069 4.69323731,8.44764851 4.91625975,8.36522278 C5.12207031,8.28910891 5.12231444,7.99269801 4.91625975,7.91658417 C4.52868653,7.77339108 4.63232422,7.19220296 5.04248047,7.19220296 C5.12902831,7.19220296 5.21069337,7.22264852 5.27856444,7.28032177 C5.44641113,7.42301979 5.69970703,7.27512377 5.66174316,7.05606435 C5.62084962,6.82029703 5.80017091,6.61732673 6.02404784,6.61732673 C6.24780275,6.61732673 6.42724609,6.82017328 6.38635253,7.05606435 C6.34851075,7.27500002 6.6015625,7.42314357 6.76953125,7.28032177 C6.83740234,7.22264852 6.91906738,7.19220296 7.00561525,7.19220296 C7.41809081,7.19220296 7.51806641,7.77388613 7.13183594,7.91658417 L7.13183594,7.91658417 Z" id="Shape"></path>
            <path d="M8.65295409,12.3668317 C8.19006347,12.3668317 7.81347656,12.7486386 7.81347656,13.2179455 C7.81347656,13.6871287 8.19006347,14.0689356 8.65295409,14.0689356 C9.11572266,14.0689356 9.49230956,13.6871287 9.49230956,13.2179455 C9.49230956,12.7486386 9.11572266,12.3668317 8.65295409,12.3668317 Z M8.65295409,13.5914604 C8.44970703,13.5914604 8.28442381,13.4238861 8.28442381,13.2179455 C8.28442381,13.0118812 8.44982909,12.8443069 8.65295409,12.8443069 C8.85607909,12.8443069 9.02136231,13.0120049 9.02136231,13.2179455 C9.02136231,13.4238861 8.85607909,13.5914604 8.65295409,13.5914604 L8.65295409,13.5914604 Z" id="Shape"></path>
            <path d="M9.45373534,11.8120049 C9.20825194,11.0204208 8.09729003,11.0211634 7.85205078,11.8120049 C7.04553222,11.6295792 6.50524903,12.6207921 7.05163575,13.2195545 C6.50134278,13.8308168 7.05200194,14.8048267 7.85205078,14.6238861 C8.09765625,15.4153465 9.20849609,15.4147277 9.45385744,14.6237624 C10.2547607,14.8049505 10.8067627,13.8219059 10.2541504,13.2163366 C10.8043213,12.605198 10.2526856,11.6311881 9.45373534,11.8120049 L9.45373534,11.8120049 Z M9.76074219,13.442203 C9.98327637,13.524505 10.0657959,13.7837871 9.95434569,13.979703 C9.84240722,14.1762376 9.57885744,14.2318069 9.3984375,14.0784653 C9.23059081,13.9357673 8.97729494,14.0837871 9.01525878,14.3028465 C9.05615234,14.5391089 8.87646484,14.7414604 8.65295409,14.7414604 C8.42785644,14.7414604 8.24975587,14.5371287 8.29064941,14.3028465 C8.31604003,14.1564356 8.20458984,14.0226485 8.05871581,14.0226485 C7.9001465,14.0226485 7.88305663,14.1665841 7.67138672,14.1665841 C7.26232909,14.1665841 7.15637206,13.5858911 7.545166,13.442203 C7.75097656,13.3660891 7.75122069,13.0696782 7.545166,12.9935644 C7.39746094,12.9389852 7.30212403,12.8011139 7.30212403,12.6423267 C7.30212403,12.3277228 7.66650391,12.1527228 7.90747069,12.3574257 C8.07543944,12.5002475 8.32861328,12.3518564 8.29064941,12.1330446 C8.24975587,11.8967822 8.42944337,11.6944307 8.65295409,11.6944307 C8.87658691,11.6944307 9.05615234,11.8970297 9.01525878,12.1330446 C8.97729494,12.3518564 9.23034669,12.5001238 9.3984375,12.3574257 C9.57934569,12.2035891 9.84265137,12.2601485 9.95434569,12.4561881 C10.065918,12.6523515 9.98327637,12.9113861 9.76074219,12.9936881 C9.55480956,13.0696782 9.5546875,13.3660891 9.76074219,13.442203 Z" id="Shape"></path>
            <path d="M11.645874,8.41794554 C11.645874,8.88725247 12.0224609,9.26905942 12.4853516,9.26905942 C12.9481201,9.26905942 13.324707,8.88725247 13.324707,8.41794554 C13.324707,7.94876236 12.9481201,7.56695544 12.4853516,7.56695544 C12.0224609,7.56695544 11.645874,7.94876236 11.645874,8.41794554 L11.645874,8.41794554 Z M12.8537598,8.41794554 C12.8537598,8.62400989 12.6884766,8.79158416 12.4853516,8.79158416 C12.2821045,8.79158416 12.1168213,8.62400989 12.1168213,8.41794554 C12.1168213,8.21200494 12.2821045,8.0444307 12.4853516,8.0444307 C12.6884766,8.0444307 12.8537597,8.21200494 12.8537597,8.41794554 L12.8537598,8.41794554 Z" id="Shape"></path>
        </g>
    </g>
</svg>