<svg xmlns="http://www.w3.org/2000/svg" width="24" height="24" viewBox="0 0 24 24">
    <g fill="#010101" fill-rule="evenodd">
        <path d="M18.632 9.847l-.094-.013c-.923-.112-2.211-.746-2.211-1.52v-2.44c0-.775 1.288-1.409 2.211-1.521l.094-.012v5.506zM15.958 7.17H10.26c-.101 0-.183.075-.184.168v1.051h-.702V7.338c.001-.446.397-.807.886-.808h5.698v.64zm-5.4 2.095l.037.1h-1.74l.038-.1c.097-.268.323-.54.565-.54h.536c.24 0 .467.272.564.54zm2.982 2.94l.008.084H5.903l.008-.084c.137-1.423 1.446-2.513 3.012-2.509h1.604c1.568-.004 2.877 1.088 3.013 2.512v-.003zm.547.739c0 .176-.158.32-.351.32H5.715c-.194 0-.35-.144-.35-.32 0-.177.156-.32.35-.32h8.02c.194 0 .351.143.352.32zM18.817 4c-1.125 0-2.859.809-2.859 1.873v.32H10.26c-.69.003-1.247.512-1.25 1.14v1.201l-.029.023c-.254.205-.425.48-.488.784l-.01.053-.059.009c-1.574.221-2.771 1.407-2.882 2.857v.05l-.054.017c-.375.115-.577.486-.45.828.098.265.37.445.678.445h8.026c.396 0 .716-.294.715-.655 0-.28-.197-.53-.488-.618l-.053-.016v-.051c-.112-1.452-1.312-2.638-2.89-2.857l-.058-.009-.01-.053a1.368 1.368 0 0 0-.486-.784l-.028-.023V7.506h5.514v.807c0 1.07 1.734 1.875 2.859 1.875.1 0 .182-.075.183-.167V4.167c0-.092-.083-.167-.183-.167zM6.077 15.733c.101 0 .184-.14.184-.315v-.457c-.007-.174-.095-.305-.196-.294-.092.011-.166.136-.172.294v.457c0 .174.082.315.184.315M7.153 14.667c-.1 0-.182.088-.183.197v1.725c-.007.109.07.203.171.21.102.008.19-.075.197-.184V14.864c0-.11-.083-.197-.185-.197M8.23 15.733c.102 0 .185-.14.185-.315v-.457c-.007-.174-.095-.305-.197-.294-.092.011-.165.136-.171.294v.457c0 .174.082.315.183.315M9.307 14.667c-.1 0-.183.088-.183.197v1.725c-.007.109.07.203.171.21.102.008.19-.075.196-.184V14.864c0-.11-.082-.197-.184-.197M10.384 15.733c.102 0 .184-.14.184-.315v-.457c-.006-.174-.094-.305-.196-.294-.092.011-.165.136-.171.294v.457c0 .174.082.315.183.315M11.461 14.667c-.101 0-.183.088-.183.197v1.725c-.007.109.07.203.171.21.102.008.19-.075.196-.184V14.864c0-.11-.082-.197-.184-.197M12.538 14.667c-.101 0-.183.135-.183.302v.44c-.007.168.07.312.171.324.101.01.19-.116.196-.283v-.481c0-.167-.083-.302-.184-.302"/>
        <path d="M7.153 16.8c-.101 0-.183.075-.183.166v.724c-.007.091.07.17.171.176.102.006.19-.063.197-.154v-.745c0-.091-.081-.166-.183-.167h-.002zM9.307 16.8c-.101 0-.183.075-.183.166v.724c-.007.091.07.17.171.176.102.006.19-.063.196-.154v-.745c.001-.091-.08-.166-.182-.167h-.002zM11.461 16.8c-.101 0-.183.075-.183.166v.724c-.007.091.07.17.171.176.102.006.19-.063.196-.154v-.745c.001-.091-.08-.166-.182-.167h-.002zM13.616 16.8c-.102 0-.184.074-.184.166v.724c-.007.091.07.17.171.176.101.007.19-.063.196-.154v-.745c.001-.091-.08-.166-.182-.167h-.001z"/>
        <path d="M13.616 14.667c-.102 0-.184.088-.184.197v1.725c-.007.109.07.203.171.21.101.008.19-.075.196-.184V14.864c0-.109-.082-.197-.183-.197M6.077 17.867c.1 0 .183-.088.184-.197v-1.725c.007-.11-.07-.204-.172-.211-.101-.008-.189.075-.196.184v1.752c0 .108.082.196.184.197M8.23 17.867c.102 0 .184-.088.185-.197v-1.725c.006-.11-.07-.204-.172-.211-.101-.008-.19.075-.196.184v1.752c0 .108.082.196.183.197M10.384 17.867c.102 0 .184-.088.184-.197v-1.725c.007-.11-.07-.204-.171-.211-.101-.008-.19.075-.196.184v1.752c0 .108.082.196.183.197M12.538 15.733c-.101 0-.183.09-.183.2v1.747c.007.11.094.194.196.186.092-.007.165-.086.171-.186v-1.746c0-.111-.082-.2-.184-.2M6.206 18.805a.37.37 0 0 0-.06-.037.206.206 0 0 0-.105-.008l-.033.008-.036.02a.28.28 0 0 0-.028.022.189.189 0 0 0-.035.055.126.126 0 0 0-.015.065.18.18 0 0 0 .179.18c.05.002.1-.017.135-.05a.18.18 0 0 0 0-.254l-.002-.001zM8.357 18.804a.205.205 0 0 0-.259 0 .193.193 0 0 0-.037.057.168.168 0 0 0 .04.198.209.209 0 0 0 .06.035c.092.04.2 0 .24-.087a.166.166 0 0 0 .001-.139.229.229 0 0 0-.045-.064M10.513 18.806l-.024-.016-.006-.004a.314.314 0 0 0-.029-.016l-.032-.008a.19.19 0 0 0-.108.008.336.336 0 0 0-.064.042.178.178 0 0 0-.034.054.167.167 0 0 0 .038.192c.018.015.039.027.061.037.092.037.2-.003.239-.091a.165.165 0 0 0 0-.136.22.22 0 0 0-.041-.062M12.668 18.807a.204.204 0 0 0-.26 0 .192.192 0 0 0-.037.057.17.17 0 0 0 .038.192c.018.016.04.028.062.037a.185.185 0 0 0 .236-.095.168.168 0 0 0 .014-.064.136.136 0 0 0-.014-.064.229.229 0 0 0-.04-.063"/>
    </g>
</svg>
