<svg xmlns="http://www.w3.org/2000/svg" width="24" height="24" viewBox="0 0 24 24">
    <path fill="#000" fill-rule="nonzero" d="M19.558 15.686c-.112-.114-.254-.203-.419-.305-.082-.052-.169-.106-.259-.168l-.093-.064.098-.056a.85.85 0 0 1 .05-.027c.032-.016.062-.032.085-.051.943-.8 1.202-2.072.646-3.169-.3-.589-.592-1.18-.886-1.773l-.48-.967-.314-.637c-.269-.546-.546-1.11-.841-1.653-.272-.5-.737-.773-1.344-.786-.203-.004-1.31-.006-2.72-.006l-2.513.001H8.6c-.693.001-1.198.31-1.501.919-.145.29-.283.582-.422.875l-.124.262c-.206.433-.41.866-.615 1.3-.462.983-.94 1.998-1.433 2.987-.443.891-.572 1.747-.394 2.616.35 1.702 1.946 2.987 3.713 2.989 4.556.003 6.182.004 10.738 0 .608 0 1.04-.28 1.28-.832.231-.53.133-1.033-.285-1.455zM5.68 10.912a4.67 4.67 0 0 0 .037-.1c.02-.058.036-.103.056-.146l.56-1.18c.362-.76.724-1.52 1.08-2.281.252-.538.672-.8 1.284-.8h.005c2.101.005 3.023.005 4.263.005l2.741.001c.518 0 .903.222 1.116.641.42.826.832 1.655 1.244 2.485l.431.866a.493.493 0 0 1 .03.084l.02.071.04.125-.13-.035a5.523 5.523 0 0 1-.235-.072 1.868 1.868 0 0 0-.428-.104c-.465-.032-.976-.049-1.562-.05l-3.767-.003c-1.267 0-2.436-.001-4.504-.005h-.01c-.734 0-1.386.167-1.994.511a.707.707 0 0 1-.093.042l-.086.035-.156.067.058-.157zm13.84 5.947c-.112.437-.511.732-.992.733l-4.343.002h-5.12l-1.144-.001c-1.795 0-3.286-1.324-3.47-3.079-.187-1.793 1.137-3.439 2.952-3.669.211-.026.44-.04.682-.04h.22c3.854-.002 4.99-.002 8.946 0 1.247.002 2.237.922 2.303 2.14.052.964-.628 2.096-1.992 2.294-.064.01-.128.009-.19.009H8.32c-.498 0-.875-.251-1.008-.673a.941.941 0 0 1 .145-.86.998.998 0 0 1 .804-.394c.979-.003 3.839-.002 6.362-.002h2.428a.302.302 0 0 0 .203-.1c.018-.023.038-.057.032-.094-.02-.13-.093-.193-.225-.193-4.786 0-5.359-.002-6.363-.002l-2.104.001h-.055c-.23.006-.468 0-.686.051a1.337 1.337 0 0 0-1.028 1.428c.069.674.618 1.198 1.277 1.217.647.02 3.481.02 6.222.02 1.405 0 2.81 0 3.946.003.309.001.567.047.768.135.395.175.598.627.482 1.074z"/>
</svg>
