<svg xmlns="http://www.w3.org/2000/svg" width="24" height="24" viewBox="0 0 24 24">
    <g fill="#000" fill-rule="evenodd">
        <path fill-rule="nonzero" d="M16.928 12.031a1.076 1.076 0 0 0-.302-.754l-.017-.018V9.297a4.163 4.163 0 0 0-1.134-2.875l-.021-.022.005-.031a.178.178 0 0 0-.026-.126l-1.408-2.166a.164.164 0 0 0-.173-.073l-1.888.404h-.012l-1.855-.404a.164.164 0 0 0-.173.073L8.517 6.243a.176.176 0 0 0-.028.112v.029l-.02.02c-.23.239-.43.507-.597.798a.182.182 0 0 0-.018.132.171.171 0 0 0 .139.127.167.167 0 0 0 .167-.081c.173-.301.386-.576.631-.816l.022-.02h.01l3.113.55a.162.162 0 0 0 .056 0l3.127-.55.021.022a3.839 3.839 0 0 1 1.134 2.731v1.739l-.08-.024a.987.987 0 0 0-.292-.045h-.38V8.736c-.001-.674-.503-1.232-1.149-1.28l-.063-.004.007-.065c.016-.121.023-.244.023-.366a.17.17 0 0 0-.167-.174.17.17 0 0 0-.167.174c0 1.397-1.09 2.53-2.434 2.531h-1.53c-.213 0-.425.045-.62.133l-1.408.632a.178.178 0 0 0-.087.228.168.168 0 0 0 .22.09l.256-.114v.446h-.378c-.1 0-.199.015-.294.045l-.08.024V9.297c.001-.37.054-.74.16-1.095a.184.184 0 0 0-.013-.133A.166.166 0 0 0 7.57 8a.173.173 0 0 0-.08.103 4.247 4.247 0 0 0-.17 1.197v1.96l-.018.018a1.073 1.073 0 0 0-.302.754c0 .313.132.609.36.811l.018.014v.022a4.297 4.297 0 0 0 1.578 2.68l.065.051-.066.049A2.58 2.58 0 0 0 7.91 17.74v2.066a.179.179 0 0 0 .049.127.165.165 0 0 0 .121.052h7.766a.164.164 0 0 0 .119-.051.178.178 0 0 0 .048-.124v-2.07c-.011-1.37-1.058-2.488-2.375-2.538h-.032l-.198-.393v-.226l.035-.016a3.605 3.605 0 0 0 1.56-1.437l.018-.03h.885a.979.979 0 0 0 .174-.015l.091-.016-.024.092a3.97 3.97 0 0 1-.98 1.764.177.177 0 0 0-.037.19.166.166 0 0 0 .155.106.163.163 0 0 0 .118-.049 4.319 4.319 0 0 0 1.14-2.293l.004-.022.015-.015c.23-.201.364-.498.365-.81zm-4.964-5.278h-.01l-3.015-.541.017-.026 1.182-1.817 1.792.387a.153.153 0 0 0 .068 0l1.812-.388 1.199 1.844-3.045.541zm-4.627 5.278c0-.395.31-.716.69-.716h.38l.006.127c0 .034.005.07.008.104v.018c0 .03.004.06.01.089v.029l.014.099.018.108.006.03.017.082.004.021.024.1.014.028.021.083.008.027.03.099v.01l.03.09.01.028.033.09.006.014.03.074.035.082h-.706a.666.666 0 0 1-.397-.13.727.727 0 0 1-.29-.586zm.448 1.125l-.024-.093.091.017c.058.01.116.015.175.015h.882l.017.03c.37.63.915 1.13 1.561 1.437l.035.016v.236l-.196.383h-.036c-.312.009-.62.08-.906.21l-.03.014-.027-.019a3.936 3.936 0 0 1-1.544-2.246h.002zm3.786 5.303l-.994-.996-.013-.011-.054-.03-.054-.008h-.01l-.923.083 1.032-2.016 1.016 2.978zm-.715-3.141v-.605l.08.024c.042.014.08.024.116.034l.023.007.1.024.017.005.112.024.026.004.103.018h.014c.037.006.075.01.113.015h.028l.108.01h.016c.036 0 .072.005.108.006H12.115c.035 0 .07 0 .104-.006h.02l.109-.01h.027l.11-.014h.017l.103-.018.027-.005.112-.024.016-.004c.034-.007.066-.016.1-.024l.023-.007.11-.032.074-.023.01.077v.545l-1.104 3.24-1.117-3.261zm3.048.254c1.025.169 1.779 1.09 1.775 2.168v1.892h-7.43V17.74c-.005-1.079.75-2 1.775-2.168l.118-.02-1.059 2.071a.18.18 0 0 0 .01.178.165.165 0 0 0 .153.077l1.155-.109.006.007 1.437 1.443.052-.049.064-.074-.079.151.013.007.008.005.014.005H11.945a.17.17 0 0 0 .045 0H12l.015-.005h.006l.015-.005h.007l.01-.005-.08-.147.106.125 1.449-1.458h.01l1.144.108a.161.161 0 0 0 .155-.077.18.18 0 0 0 .008-.178l-1.06-2.07.119.02zm.5 1.93l-.922-.083a.161.161 0 0 0-.132.048l-.99.992 1.009-2.973 1.035 2.016zm.785-6.308c0 .071 0 .144-.006.215 0 .04-.006.083-.01.12a3.46 3.46 0 0 1-.302 1.117l-.021.043-.025.052a3.22 3.22 0 0 1-2.55 1.79 3.163 3.163 0 0 1-2.593-.966 3.417 3.417 0 0 1-.944-2.37v-.826l.817-.363c.134-.06.278-.095.424-.102h1.593a2.714 2.714 0 0 0 1.823-.715l.028-.025.054-.052.032-.032.047-.05.032-.035.043-.048.032-.037.04-.05.03-.039.04-.052.029-.04.033-.047.03-.045.036-.057.024-.039.042-.074.014-.024c.018-.033.036-.066.052-.1l.015-.03.034-.072.02-.047.024-.058.018-.044.023-.062.014-.04a1.48 1.48 0 0 0 .023-.068l.036-.12h.044c.498-.001.903.416.906.934l-.001 2.458zm1.111 1.424a.666.666 0 0 1-.397.13h-.709l.036-.083c.01-.023.02-.046.028-.069l.007-.019.033-.09.01-.028.029-.082v-.008l.032-.107.007-.027.022-.082.006-.025.024-.102.005-.02.016-.083.006-.027.017-.104.015-.105v-.028l.01-.09v-.017c0-.034.006-.07.009-.105l.007-.127h.38c.38.002.688.322.689.717 0 .23-.105.445-.283.58h.001z"/>
        <path d="M13.607 10.793a.172.172 0 0 0-.167.174v.063a.17.17 0 0 0 .167.174.17.17 0 0 0 .168-.174v-.063a.17.17 0 0 0-.168-.174zM10.32 10.793a.172.172 0 0 0-.168.174v.063a.17.17 0 0 0 .168.174.17.17 0 0 0 .167-.174v-.063a.172.172 0 0 0-.167-.174zM12.966 12.289a.17.17 0 0 0-.13-.14.164.164 0 0 0-.173.072.842.842 0 0 1-.7.381.842.842 0 0 1-.699-.381.167.167 0 0 0-.138-.075.166.166 0 0 0-.095.03.18.18 0 0 0-.042.243c.221.333.586.53.975.53s.753-.197.975-.53a.179.179 0 0 0 .027-.13zM13.437 5.442h-1.031a.164.164 0 0 0-.119.05l-.317.33-.318-.33a.164.164 0 0 0-.118-.05h-1.032a.17.17 0 0 0-.167.174.17.17 0 0 0 .167.174h.962l.357.372a.164.164 0 0 0 .147.09h.009a.164.164 0 0 0 .144-.086l.008-.01.351-.366h.96a.17.17 0 0 0 .168-.174.17.17 0 0 0-.168-.174h-.003z"/>
    </g>
</svg>
