<svg xmlns="http://www.w3.org/2000/svg" width="24" height="24" viewBox="0 0 24 24">
    <g fill="#000" fill-rule="evenodd">
        <path fill-rule="nonzero" d="M16.946 13.342c0-.64-.001-1.824.001-2.371l.02-3.762c0-.16-.092-.25-.262-.252l-.09-.001c-.249-.003-.506-.008-.757.003-.082 0-.198 0-.282-.078-.083-.077-.093-.19-.092-.28v-.11c.006-.68.006-.68.003-1.133l-.002-.445c-.002-.383-.284-.742-.688-.874-.338-.111-.723.02-.98.333a.958.958 0 0 0-.216.642l.001.696c0 .206 0 .324.005.89 0 .093-.01.2-.09.275-.079.076-.196.08-.278.084-.87-.009-1.682-.01-2.478 0-.098.007-.209-.007-.29-.084-.08-.077-.09-.187-.09-.283.007-.732.007-.756.005-1.138l-.001-.53c-.001-.385-.281-.747-.68-.881-.332-.112-.715.008-.973.306a.924.924 0 0 0-.236.631c.003.67.003.713.002 1.016v.572c0 .054-.004.108-.007.167l-.01.22-.436.003c-.229.003-.449.004-.669-.006-.163-.013-.27.035-.343.15v6.47a.325.325 0 0 1 .034.067c.17.495.513.736 1.045.736h2.571v.732c0 .238 0 .413.002.75.002.218.065.278.292.28h.81V16.55c.001.02.001.02-.001.234v.033c-.01.734.137.948.867 1.276.54.242.61.296.6.876-.002.163-.003.272-.01.346l.002.016h.003-.003c.006.075.007.187.007.355 0 .29.144.292.217.288.063 0 .108-.015.14-.044.044-.042.067-.124.068-.237 0-.175 0-.29.006-.366h-.006.006v-.005a5.334 5.334 0 0 1-.006-.368c-.002-.761-.201-.955-.936-1.275a1.399 1.399 0 0 0-.197-.068c-.208-.058-.28-.125-.3-.41a3.973 3.973 0 0 1-.017-.525c.002-.072.007-.175.007-.404v-.135H13.035c.202-.003.263-.063.264-.258.002-.292.002-.465.002-.66v-.482c0-.051.004-.103.007-.154l.012-.196h2.756c.28 0 .497-.073.642-.217.218-.215.232-.544.228-.675v-.153zm-2.917-8.315v-.036-.016h.001l.001-.045c.002-.2.075-.36.205-.449.09-.06.245-.118.485-.04.111.035.215.134.306.294a.46.46 0 0 1 .04.255l-.003.053v.61c0 .228-.001.295.006.892.001.116-.01.236-.099.32-.078.072-.185.087-.277.087l-.04-.001-.034-.001c-.532-.02-.592-.083-.59-.617V5.14v-.045h-.001v-.02-.048zM8.93 4.921c0-.185.057-.324.17-.414.114-.092.272-.12.468-.087.388.068.388.401.387.51l-.001 2h-.99l-.023-.163a.767.767 0 0 1-.012-.116v-.528L8.93 4.92zm3.923 10.784h-1.725v-1.32h1.725v1.32zm3.672-4.205v1.892c0 .413-.158.567-.582.567H8.072c-.447 0-.598-.143-.598-.565l-.001-6.019 6.635-.008c.682 0 1.364 0 2.046-.003.096-.002.207.009.287.086.08.077.09.189.09.266-.005 1.261-.005 2.522-.005 3.784z"/>
        <path d="M11.716 10.59l.432-.519c.235-.283.453-.544.667-.807.099-.12.1-.22.003-.3a.188.188 0 0 0-.13-.042c-.063.006-.127.045-.182.111-.227.27-.453.543-.68.814l-.645.774c-.092.11-.079.18-.051.239.03.065.073.102.22.106.075-.002.152-.002.232-.002h.181l.499.001-.24.31c-.034.045-.06.08-.09.114l-.251.301c-.171.204-.342.408-.51.615-.054.068-.073.143-.052.208.018.055.066.097.133.117.074.023.143.013.238-.1l.35-.418c.327-.387.653-.774.968-1.17.042-.052.062-.175.044-.268-.013-.069-.116-.084-.2-.084h-.936z"/>
    </g>
</svg>
