<?xml version="1.0" encoding="UTF-8"?>
<svg width="32px" height="32px" viewBox="0 0 32 32" version="1.1" xmlns="http://www.w3.org/2000/svg" xmlns:xlink="http://www.w3.org/1999/xlink">
    <!-- Generator: Sketch 63.1 (92452) - https://sketch.com -->
    <title>deep clean bus</title>
    <desc>Created with Sketch.</desc>
    <defs>
        <polygon id="path-1" points="0.3326 0.0002 12.6406 0.0002 12.6406 16 0.3326 16"></polygon>
        <polygon id="path-3" points="0.0001 0.502 3.3331 0.502 3.3331 3.8352 0.0001 3.8352"></polygon>
    </defs>
    <g id="deep-clean-bus" stroke="none" stroke-width="1" fill="none" fill-rule="evenodd">
        <g id="Group-17" transform="translate(8.000000, 6.000000)">
            <g id="Group-3" transform="translate(3.000000, 3.498200)">
                <mask id="mask-2" fill="white">
                    <use xlink:href="#path-1"></use>
                </mask>
                <g id="Clip-2"></g>
                <path d="M11.1016,0.0002 L1.8716,0.0002 C1.0246,0.0002 0.3326,0.6922 0.3326,1.5382 L0.3326,12.6152 C0.3326,13.0922 0.5936,13.4932 0.9626,13.7692 C0.9626,13.7852 0.9476,13.8152 0.9476,13.8462 L0.9476,14.9232 C0.9476,15.5232 1.4246,16.0002 2.0246,16.0002 L2.3326,16.0002 C2.9326,16.0002 3.4096,15.5232 3.4096,14.9232 L3.4096,14.1542 L9.5626,14.1542 L9.5626,14.9232 C9.5626,15.5232 10.0406,16.0002 10.6406,16.0002 L10.9476,16.0002 C11.5476,16.0002 12.0246,15.5232 12.0246,14.9232 L12.0246,13.8462 C12.3946,13.5702 12.6406,13.1232 12.6406,12.6152 L12.6406,1.5382 C12.6406,0.6922 11.9476,0.0002 11.1016,0.0002 L11.1016,0.0002 Z M2.7936,14.9232 C2.7936,15.1852 2.5936,15.3842 2.3326,15.3842 L2.0246,15.3842 C1.7626,15.3842 1.5626,15.1852 1.5626,14.9232 L1.5626,14.0782 C1.7176,14.1232 1.8716,14.1542 2.0246,14.1542 L2.7936,14.1542 L2.7936,14.9232 Z M11.4096,14.9232 C11.4096,15.1852 11.2086,15.3842 10.9476,15.3842 L10.6406,15.3842 C10.3776,15.3842 10.1776,15.1852 10.1776,14.9232 L10.1776,14.1542 L11.1016,14.1542 C11.2086,14.1542 11.3176,14.1382 11.4096,14.1232 L11.4096,14.9232 Z M12.0246,12.6152 C12.0246,13.1232 11.6096,13.5392 11.1016,13.5392 L2.0246,13.5392 C1.5326,13.5392 0.9476,13.1232 0.9476,12.6152 L0.9476,9.8462 L12.0246,9.8462 L12.0246,12.6152 Z M0.9476,9.2302 L12.0246,9.2302 L12.0246,3.0772 L0.9476,3.0772 L0.9476,9.2302 Z M12.0246,2.4612 L0.9476,2.4612 L0.9476,1.5382 C0.9476,1.0302 1.3636,0.6152 1.8716,0.6152 L11.1016,0.6152 C11.6096,0.6152 12.0246,1.0302 12.0246,1.5382 L12.0246,2.4612 Z" id="Fill-1" fill="#000000" mask="url(#mask-2)"></path>
            </g>
            <path d="M8.8712,4.7289 L6.8712,4.7289 C6.7012,4.7289 6.5632,4.8679 6.5632,5.0369 C6.5632,5.2059 6.7012,5.3449 6.8712,5.3449 L8.8712,5.3449 C9.0402,5.3449 9.1782,5.2059 9.1782,5.0369 C9.1782,4.8679 9.0402,4.7289 8.8712,4.7289" id="Fill-4" fill="#000000"></path>
            <path d="M10.7169,4.7289 L10.2559,4.7289 C10.0859,4.7289 9.9479,4.8679 9.9479,5.0369 C9.9479,5.2059 10.0859,5.3449 10.2559,5.3449 L10.7169,5.3449 C10.8859,5.3449 11.0249,5.2059 11.0249,5.0369 C11.0249,4.8679 10.8859,4.7289 10.7169,4.7289" id="Fill-6" fill="#000000"></path>
            <path d="M6.1134,14.5565 L5.6524,14.5565 C5.4834,14.5565 5.3444,14.6955 5.3444,14.8645 C5.3444,15.0335 5.4834,15.1715 5.6524,15.1715 L6.1134,15.1715 C6.2834,15.1715 6.4224,15.0335 6.4224,14.8645 C6.4224,14.6955 6.2834,14.5565 6.1134,14.5565" id="Fill-8" fill="#000000"></path>
            <path d="M12.8585,14.5565 C12.6895,14.5565 12.5515,14.6955 12.5515,14.8645 C12.5515,15.0335 12.6895,15.1715 12.8585,15.1715 L13.3205,15.1715 C13.4895,15.1715 13.6285,15.0335 13.6285,14.8645 C13.6285,14.6955 13.4895,14.5565 13.3205,14.5565 L12.8585,14.5565 Z" id="Fill-10" fill="#000000"></path>
            <g id="Group-14" transform="translate(0.000000, 0.498200)">
                <mask id="mask-4" fill="white">
                    <use xlink:href="#path-3"></use>
                </mask>
                <g id="Clip-13"></g>
                <path d="M3.3331,2.1682 C1.8021,2.2432 1.7411,2.3032 1.6661,3.8352 C1.5921,2.3032 1.5311,2.2432 0.0001,2.1682 C1.5311,2.0932 1.5921,2.0332 1.6661,0.5012 C1.7411,2.0332 1.8021,2.0932 3.3331,2.1682" id="Fill-12" fill="#000000" mask="url(#mask-4)"></path>
            </g>
            <path d="M14.2305,8.6078 C13.1825,8.6588 13.1405,8.6998 13.0895,9.7488 C13.0395,8.6998 12.9975,8.6588 11.9495,8.6078 C12.9975,8.5568 13.0395,8.5148 13.0895,7.4668 C13.1405,8.5148 13.1825,8.5568 14.2305,8.6078" id="Fill-15" fill="#000000"></path>
        </g>
    </g>
</svg>