<?xml version="1.0" encoding="UTF-8"?>
<svg width="24px" height="24px" viewBox="0 0 24 24" version="1.1" xmlns="http://www.w3.org/2000/svg" xmlns:xlink="http://www.w3.org/1999/xlink">
    <!-- Generator: Sketch 56.2 (81672) - https://sketch.com -->
    <title>disposal seat cover</title>
    <desc>Created with Sketch.</desc>
    <g id="disposal-seat-cover" stroke="none" stroke-width="1" fill="none" fill-rule="evenodd">
        <g id="Group-7" transform="translate(7.000000, 4.000000)" stroke="#231F20" stroke-width="0.5">
            <path d="M5.92087273,2.50385455 L3.02705455,2.49730909 C2.85687273,2.49658182 2.72232727,2.35258182 2.73469091,2.18312727 L2.82705455,0.868945455 C2.82705455,0.489309091 3.13469091,0.1824 3.51432727,0.1824 L5.42705455,0.1824 C5.80669091,0.1824 6.11432727,0.489309091 6.11432727,0.868945455 L6.21396364,2.18676364 C6.22705455,2.3584 6.09178182,2.50385455 5.92087273,2.50385455 Z" id="Stroke-1"></path>
            <path d="M7.12967273,11.4669091 L1.79658182,11.4669091 C1.39294545,11.4669091 1.06130909,11.1490909 1.04458182,10.7461818 L0.925309091,7.87490909 C0.915854545,7.63709091 0.934763636,7.39927273 0.982036364,7.16654545 L1.62203636,4.04654545 C1.68530909,3.73745455 1.95658182,3.51636364 2.27149091,3.51636364 L6.70494545,3.51636364 C7.02203636,3.51636364 7.29476364,3.74036364 7.35585455,4.05163636 L7.97549091,7.19927273 C8.01767273,7.41018182 8.03294545,7.62618182 8.02276364,7.84145455 L7.88021818,10.752 C7.86130909,11.152 7.53112727,11.4669091 7.12967273,11.4669091 Z" id="Stroke-3"></path>
            <path d="M6.86829091,15.5848 L2.08065455,15.5848 C1.42974545,15.5848 0.861745455,15.2197091 0.698109091,14.6968 L0.201381818,13.1149818 C0.104654545,12.8088 0.3832,12.5091636 0.765745455,12.5091636 L8.1832,12.5091636 C8.56501818,12.5091636 8.84429091,12.8088 8.74756364,13.1149818 L8.25083636,14.6968 C8.0872,15.2197091 7.51847273,15.5848 6.86829091,15.5848 Z" id="Stroke-5"></path>
        </g>
    </g>
</svg>