<?xml version="1.0" encoding="UTF-8"?>
<svg width="24px" height="24px" viewBox="0 0 24 24" version="1.1" xmlns="http://www.w3.org/2000/svg" xmlns:xlink="http://www.w3.org/1999/xlink">
    <!-- Generator: Sketch 54 (76480) - https://sketchapp.com -->
    <title>emergency-contact</title>
    <desc>Created with Sketch.</desc>
    <g id="emergency-contact" stroke="none" stroke-width="1" fill="none" fill-rule="evenodd">
        <g id="001-emergency-call" transform="translate(5.000000, 4.000000)" fill="#000000" fill-rule="nonzero">
            <path d="M11.127907,2.2278481 C11.2627672,2.2278481 11.372093,2.12205884 11.372093,1.99156118 L11.372093,1.14767932 C11.372093,1.01718166 11.2627672,0.911392405 11.127907,0.911392405 C10.9930467,0.911392405 10.8837209,1.01718166 10.8837209,1.14767932 L10.8837209,1.99156118 C10.8837209,2.05422837 10.9094476,2.11432887 10.9552414,2.15864126 C11.0010351,2.20295366 11.0631448,2.2278481 11.127907,2.2278481 L11.127907,2.2278481 Z" id="Path"></path>
            <path d="M12.627907,3.61181435 C12.627907,3.74231201 12.7372328,3.84810127 12.872093,3.84810127 L13.7093023,3.84810127 C13.8441626,3.84810127 13.9534884,3.74231201 13.9534884,3.61181435 C13.9534884,3.48131668 13.8441626,3.37552743 13.7093023,3.37552743 L12.872093,3.37552743 C12.7372328,3.37552743 12.627907,3.48131668 12.627907,3.61181435 Z" id="Path"></path>
            <path d="M9.8372093,3.61181435 C9.8372093,3.48131668 9.72788349,3.37552743 9.59302326,3.37552743 L8.72093023,3.37552743 C8.58607,3.37552743 8.47674419,3.48131668 8.47674419,3.61181435 C8.47674419,3.74231201 8.58607,3.84810127 8.72093023,3.84810127 L9.59302326,3.84810127 C9.72788349,3.84810127 9.8372093,3.74231201 9.8372093,3.61181435 Z" id="Path"></path>
            <path d="M9.69715116,2.59915612 C9.79251661,2.69143661 9.94713455,2.6914366 10.0425,2.59915612 C10.1378654,2.50687563 10.1378654,2.35725939 10.0425,2.2649789 L9.43674419,1.67878481 C9.37505356,1.6190898 9.28513751,1.59577624 9.20086654,1.61762613 C9.11659558,1.63947602 9.05077246,1.70316984 9.02819212,1.78471474 C9.00561179,1.86625964 9.02970472,1.95326702 9.09139535,2.01296203 L9.69715116,2.59915612 Z" id="Path"></path>
            <path d="M12.572093,2.66852321 C12.6368611,2.6685305 12.6989633,2.64356757 12.7446628,2.59915612 L13.3504884,2.01279325 C13.412179,1.95309824 13.4362719,1.86609087 13.4136916,1.78454596 C13.3911113,1.70300106 13.3252881,1.63930725 13.2410172,1.61745736 C13.1567462,1.59560747 13.0668302,1.61892102 13.0051395,1.67861603 L12.3992791,2.26514768 C12.3294304,2.33272991 12.3085377,2.43437534 12.346345,2.52267728 C12.3841524,2.61097922 12.4732125,2.66854376 12.5719884,2.66852321 L12.572093,2.66852321 Z" id="Path"></path>
            <path d="M13.1860465,5.82437131 L13.1860465,5.4498903 C13.185835,5.23271621 13.0148476,5.05137835 12.7913721,5.03132489 L12.5018372,3.0422616 C12.4551977,2.74170464 12.1761977,2.53164557 11.8234884,2.53164557 L10.6062209,2.53164557 C10.2535465,2.53164557 9.9745814,2.74167089 9.9274186,3.04472574 L9.63861628,5.02953586 L9.50417442,5.02953586 C9.26436964,5.0297963 9.07003658,5.21784292 9.06976744,5.4498903 L9.06976744,5.82437131 C9.07003658,6.05641869 9.26436964,6.2444653 9.50417442,6.24472574 L12.7516395,6.24472574 C12.9914443,6.2444653 13.1857774,6.05641869 13.1860465,5.82437131 L13.1860465,5.82437131 Z M10.4106977,3.11277637 C10.4240233,3.02690295 10.544407,3.00421941 10.6062209,3.00421941 L11.8234884,3.00421941 C11.8852674,3.00421941 12.0056163,3.02690295 12.0186279,3.11051477 L12.2979419,5.02953586 L10.1316628,5.02953586 L10.4106977,3.11277637 Z M12.6976744,5.7721519 L9.55813953,5.7721519 L9.55813953,5.5021097 L12.5616279,5.5021097 C12.5672791,5.50251477 12.5729651,5.50288608 12.5787209,5.50288608 C12.5823837,5.50288608 12.5861512,5.50227848 12.5898488,5.5021097 L12.6976744,5.5021097 L12.6976744,5.7721519 Z" id="Shape"></path>
            <path d="M10.0318256,9.87527426 C10.1239624,9.92963256 10.2420471,9.91902402 10.3222674,9.84918143 C10.4265,9.75848101 12.8827326,7.61795781 13.646686,6.76300422 C14.5563837,5.74487764 14.9986047,4.76577215 14.9986047,3.76978903 C14.9980148,1.76430562 13.3747031,0.110417782 11.3049564,0.00656854427 C9.23520968,-0.0972806937 7.4438296,1.38527548 7.22888906,3.37994469 C7.01394851,5.3746139 8.45071722,7.18288577 10.4980814,7.49444726 L9.92277907,9.61350211 C9.89536439,9.71448927 9.93969823,9.82091509 10.0318256,9.87527426 Z M8.60326744,6.01076793 C7.56600568,4.92751721 7.39961234,3.3089895 8.19599992,2.04922859 C8.9923875,0.789467685 10.557298,0.195759358 12.0263049,0.596056752 C13.4953117,0.996354147 14.5100889,2.29301517 14.510093,3.76978903 C14.510093,4.65957806 14.118314,5.51247257 13.2771279,6.45394093 L13.2771279,6.45394093 C12.7628372,7.02960338 11.403314,8.25370464 10.6047209,8.96172152 L11.0417442,7.35189873 C11.0601061,7.2842625 11.0465631,7.21223005 11.0047598,7.15518556 C10.9629565,7.09814108 10.8971874,7.06194491 10.8251512,7.05633755 C9.9750859,6.99026828 9.18186641,6.61699663 8.60326744,6.01076793 Z" id="Shape"></path>
            <path d="M1.84074419,11.0132658 C2.70237209,12.4573165 4.1215814,14.3916962 5.98984884,15.4064135 C6.67356977,15.7777215 7.22284884,15.916692 7.56310465,15.9677975 C7.69654145,15.9884025 7.83141164,15.9991004 7.96653488,15.9997975 C8.205,15.9997975 8.40418605,15.9612827 8.5382093,15.8864135 L10.0035698,15.0677131 C10.4899901,14.7951442 10.6566721,14.1930472 10.3761977,13.7216878 L9.43395349,12.1425823 C9.15547674,11.6758143 8.51630233,11.5071055 8.03836047,11.7740084 L7.20575581,12.2391561 C7.20387209,12.2402363 7.20195349,12.2413165 7.20003488,12.2425316 C7.19706977,12.2443207 6.88723256,12.4165063 6.37060465,12.289789 C5.79725581,12.1491983 4.89659302,11.617654 3.86218605,9.88391561 C3.32846512,8.98923207 2.74161628,7.71648945 2.97763953,6.73383966 C3.11082558,6.17964557 3.44588372,5.97947679 3.46381395,5.96911392 L3.46447674,5.96877637 L4.29722093,5.50359494 C4.77512791,5.23648945 4.94382558,4.61684388 4.66552326,4.15051477 L3.72327907,2.57144304 C3.44005774,2.10259113 2.81977842,1.94142046 2.33194186,2.20992405 L0.866546512,3.02852321 C0.662162791,3.14268354 0.456174419,3.42089451 0.301430233,3.79183122 C0.117976744,4.23135865 0.0146860465,4.77711392 0.00272093023,5.37012658 C-0.0386860465,7.41873418 0.979395349,9.56962025 1.84074419,11.0132658 Z M0.490988372,5.37951055 C0.515860465,4.14835443 0.953965116,3.52550211 1.11073256,3.43790717 L2.57616279,2.61910549 C2.65501243,2.57506902 2.74448333,2.5519664 2.83552326,2.55213502 C2.88351149,2.552193 2.9312828,2.55836705 2.97760465,2.57049789 C3.11357422,2.60470534 3.22977429,2.69008137 3.30034884,2.80762869 L4.24262791,4.38673418 C4.38800279,4.63333895 4.3039067,4.94712036 4.053,5.09427848 L3.22161628,5.5587173 C3.03722093,5.65920675 2.6847907,5.97785654 2.52467442,6.54032068 C2.26304651,7.45988186 2.57065116,8.66433755 3.43925581,10.120135 C4.33813953,11.6267004 5.28404651,12.5107848 6.25063953,12.7478143 C6.82395349,12.8884051 7.27398837,12.7515612 7.4524186,12.6470886 L8.28265116,12.1832911 C8.54013622,12.046682 8.86321915,12.1334176 9.01116279,12.3788692 L9.95337209,13.9579409 C10.0955231,14.2036983 10.0095696,14.5142988 9.75952326,14.6584304 L8.29405814,15.4771308 C8.1392093,15.5636118 7.36227907,15.6099241 6.22894186,14.9944304 C4.45723256,14.0320675 3.09474419,12.169789 2.2637093,10.7769789 C1.43337209,9.38531646 0.45177907,7.31922363 0.490988372,5.37937553 L0.490988372,5.37951055 Z" id="Shape"></path>
        </g>
    </g>
</svg>