<svg xmlns="http://www.w3.org/2000/svg" width="24" height="24" viewBox="0 0 24 24">
    <g fill="#000" fill-rule="evenodd">
        <path fill-rule="nonzero" d="M19.687 6.016c-1.626-.484-3.251-.97-4.877-1.458l-1.7-.51c-.198-.058-.261-.005-.297.047a.534.534 0 0 0-.075.284l-.004 8.147c0 2.376-.001 4.753-.003 7.129 0 .158.051.257.17.326h.151l.44-.136c.354-.11.708-.22 1.064-.326 1.714-.513 3.429-1.026 5.145-1.534.157-.047.24-.113.282-.229V6.236c-.052-.109-.139-.173-.296-.22zm-.475 11.613c-1.492.44-2.983.886-4.472 1.332l-1.24.37c-.031.01-.063.017-.097.025l-.172.043V4.594l2.427.724c1.18.353 2.36.706 3.54 1.053.213.061.292.168.292.392-.006 3.338-.005 6.869 0 10.496 0 .21-.075.31-.278.37z"/>
        <path d="M10.411 12.536c.067-.066.101-.133.101-.199 0-.064-.032-.129-.096-.192l-2.168-2.14c-.035-.033-.063-.061-.095-.085a.225.225 0 0 0-.257-.017c-.055.029-.144.094-.121.207a.474.474 0 0 0 .118.22c.364.369.731.732 1.1 1.096l.35.346c.028.029.056.058.09.096l.216.227H4.376a.82.82 0 0 0-.156.008c-.124.024-.205.12-.203.238.001.12.085.214.208.232.063.01.132.01.202.009H9.654l-.211.22-.097.1-1.43 1.418c-.048.046-.08.077-.106.115a.234.234 0 0 0 .03.299.236.236 0 0 0 .31.026c.034-.025.065-.056.096-.087l2.165-2.137zM8.664 6.27c-.006.683-.005 1.366 0 2.049a.23.23 0 0 0 .234.225h.004c.123 0 .229-.098.242-.225.003-.04.003-.083.002-.125V6.527h1.141c.428 0 .855 0 1.283-.002.105 0 .19-.035.242-.097a.232.232 0 0 0 .043-.199c-.032-.154-.175-.187-.288-.187-.406-.001-.812-.002-1.218-.001h-.687l-.28-.001c-.148 0-.295 0-.441.002-.183.002-.277.08-.277.228zM11.788 17.886c.095-.074.082-.176.054-.25-.04-.105-.115-.153-.243-.153H9.144l.001-.425c.001-.23.002-.452-.001-.673-.003-.145-.104-.251-.243-.251-.14 0-.238.103-.239.25-.004.442-.004.882 0 1.324.002.162.09.251.251.252.897.002 1.794.004 2.69-.003a.34.34 0 0 0 .185-.07zM14.997 12.096a2.664 2.664 0 0 0-.22 0h-.093l-.11-.001a10.045 10.045 0 0 0-.233.002c-.145.008-.245.103-.25.235-.004.137.1.24.245.246.217.009.445.01.675 0 .145-.005.252-.11.249-.243-.003-.136-.109-.232-.263-.239zM19.075 18.73z"/>
    </g>
</svg>
