<svg width="11" height="10" viewBox="0 0 11 10" fill="none" xmlns="http://www.w3.org/2000/svg">
<path fill-rule="evenodd" clip-rule="evenodd" d="M0 5C0 4.86739 0.0526784 4.74022 0.146447 4.64645C0.240215 4.55268 0.367392 4.5 0.5 4.5L9.293 4.5L6.146 1.354C6.05211 1.26012 5.99937 1.13278 5.99937 1C5.99937 0.867227 6.05211 0.739888 6.146 0.646002C6.23989 0.552115 6.36722 0.499371 6.5 0.499371C6.63278 0.499371 6.76011 0.552115 6.854 0.646002L10.854 4.646C10.9006 4.69245 10.9375 4.74762 10.9627 4.80837C10.9879 4.86911 11.0009 4.93423 11.0009 5C11.0009 5.06577 10.9879 5.13089 10.9627 5.19164C10.9375 5.25238 10.9006 5.30756 10.854 5.354L6.854 9.354C6.76011 9.44789 6.63278 9.50063 6.5 9.50063C6.36722 9.50063 6.23989 9.44789 6.146 9.354C6.05211 9.26012 5.99937 9.13278 5.99937 9C5.99937 8.86723 6.05211 8.73989 6.146 8.646L9.293 5.5L0.5 5.5C0.367392 5.5 0.240215 5.44732 0.146447 5.35355C0.0526784 5.25979 0 5.13261 0 5Z" fill="#888888"/>
</svg>
