<svg xmlns="http://www.w3.org/2000/svg" id="gift" width="29.513" height="27.521" viewBox="0 0 29.513 27.521">
    <defs>
        <style>
            .cls-1{fill:#ffdb57}.cls-2{fill:#f7434c}.cls-3{fill:#db2e37}.cls-4{fill:#f5ba3d}.cls-5{fill:#ef9325}
        </style>
    </defs>
    <g id="Group_507" data-name="Group 507" transform="translate(3.356 .466)">
        <path id="Path_442" d="M67.668 30.432c-2.324-2.574-5.9-6.072-7.168-4.794-1.937 1.955-3.978 7.259 0 7.259h7.168z" class="cls-1" data-name="Path 442" transform="translate(-58.219 -25.366)"/>
        <path id="Path_443" d="M289.861 30.432c2.324-2.574 5.9-6.072 7.168-4.794 1.937 1.955 3.978 7.259 0 7.259h-7.168z" class="cls-1" data-name="Path 443" transform="translate(-276.508 -25.366)"/>
    </g>
    <path id="Rectangle_198" d="M0 0h24.574v14.459H0z" class="cls-2" data-name="Rectangle 198" transform="translate(2.469 12.596)"/>
    <path id="Rectangle_199" d="M0 0h24.574v1.864H0z" class="cls-3" data-name="Rectangle 199" transform="translate(2.469 12.596)"/>
    <path id="Rectangle_200" d="M0 0h28.581v4.598H0z" class="cls-2" data-name="Rectangle 200" transform="translate(.466 7.998)"/>
    <g id="Group_508" data-name="Group 508" transform="translate(11.643 7.998)">
        <path id="Rectangle_201" d="M0 0h6.227v4.598H0z" class="cls-1" data-name="Rectangle 201"/>
        <path id="Rectangle_202" d="M0 0h4.761v14.459H0z" class="cls-1" data-name="Rectangle 202" transform="translate(.733 4.598)"/>
    </g>
    <path id="Rectangle_203" d="M0 0h4.761v1.854H0z" class="cls-4" data-name="Rectangle 203" transform="translate(12.376 12.596)"/>
    <g id="Group_509" data-name="Group 509" transform="translate(3.356 3.991)">
        <path id="Path_444" d="M61.223 87.009c-1.758-.8-2.492-.481-2.795-.023-.5 1.834-.18 3.541 2.077 3.541h5.3a11.121 11.121 0 0 0-4.582-3.518z" class="cls-5" data-name="Path 444" transform="translate(-58.224 -86.521)"/>
        <path id="Path_445" d="M326.788 87.009c1.758-.8 2.492-.481 2.795-.023.5 1.834.18 3.541-2.077 3.541h-5.3a11.12 11.12 0 0 1 4.582-3.518z" class="cls-5" data-name="Path 445" transform="translate(-306.986 -86.521)"/>
    </g>
    <path id="Rectangle_204" d="M0 0h3.904v2.926H0z" class="cls-4" data-name="Rectangle 204" transform="translate(12.805 5.071)"/>
    <path id="Path_446" d="M29.047 24.814H26.12l.1-.136c.031-.048.059-.1.084-.143v-.009c.028-.052.053-.1.075-.154l.022-.05.022-.059.032-.085.023-.072.034-.114.01-.04a4.27 4.27 0 0 0-.016-1.883v-.007a6.896 6.896 0 0 0-.049-.222l-.027-.105c-.009-.035-.018-.075-.029-.113v-.006a8.419 8.419 0 0 0-.265-.806 9.417 9.417 0 0 0-1.929-3.112 1.422 1.422 0 0 0-1.069-.41c-1.318.031-3.419 1.592-6.248 4.642a.465.465 0 0 0-.182-.037H12.8a.465.465 0 0 0-.182.037c-2.829-3.05-4.93-4.611-6.248-4.642a1.42 1.42 0 0 0-1.069.41A9.416 9.416 0 0 0 3.377 20.8a8.436 8.436 0 0 0-.264.805v.007l-.031.123-.024.093a4.467 4.467 0 0 0-.067 2.114l.01.038c.01.039.022.077.034.115l.023.071.032.086.022.059.022.05c.022.051.048.1.075.153v.009c.026.048.054.1.084.143a1.1 1.1 0 0 0 .1.136H.466A.466.466 0 0 0 0 25.28v4.6a.466.466 0 0 0 .466.466H2v2.074a.466.466 0 1 0 .932 0v-2.076h8.978v5.493a.466.466 0 0 0 .932 0v-5.493h3.829v13.527h-3.829V37.7a.466.466 0 1 0-.932 0v6.17H2.935v-9.586a.466.466 0 0 0-.932 0v10.053a.466.466 0 0 0 .466.466h24.575a.466.466 0 0 0 .466-.466V41.8a.466.466 0 1 0-.932 0v2.074H17.6v-13.53h8.975v9.588a.466.466 0 1 0 .932 0v-9.588h1.537a.466.466 0 0 0 .466-.466v-4.6a.466.466 0 0 0-.463-.464zm-3.369-1.444v.026c0 .036-.008.072-.013.107 0 .019-.005.038-.009.057l-.013.069c-.004.023-.01.053-.017.078l-.009.035a1.514 1.514 0 0 1-.178.423 1.207 1.207 0 0 1-.128.167l-.011.011c-.019.02-.038.039-.058.057l-.029.026-.042.034-.045.034-.016.011a1.825 1.825 0 0 1-.837.286h-.034l-.084.008H19.564a12.051 12.051 0 0 1 3.786-2.627c1.088-.492 1.87-.579 2.171-.245a4.386 4.386 0 0 1 .158 1.442zm-12.408-.55h2.972v1.994h-2.971zm-9.278-.88c.3-.334 1.083-.247 2.171.246a12.051 12.051 0 0 1 3.786 2.627h-4.59l-.084-.008h-.034A1.825 1.825 0 0 1 4.4 24.5l-.016-.011-.045-.034-.039-.03-.027-.025a1.037 1.037 0 0 1-.058-.057l-.015-.012a1.214 1.214 0 0 1-.128-.167 1.51 1.51 0 0 1-.178-.422c0-.012-.007-.024-.01-.036l-.016-.077-.013-.07a1.91 1.91 0 0 1-.021-.165v-.024a4.377 4.377 0 0 1 .158-1.43zm7.185 7.472H.932v-3.666h10.245zm0-4.6a12.093 12.093 0 0 0-4.632-3.476 4.814 4.814 0 0 0-2.168-.519 8.2 8.2 0 0 1 1.589-2.469.465.465 0 0 1 .364-.134h.021c1.069.025 3.247 1.764 5.986 4.779v1.819h-1.16zm6.225 4.6h-5.3v-3.666h5.3v3.666zm-.23-4.6v-1.819c2.739-3.015 4.917-4.754 5.986-4.779a.476.476 0 0 1 .385.134 8.2 8.2 0 0 1 1.589 2.469 4.814 4.814 0 0 0-2.168.519 12.094 12.094 0 0 0-4.632 3.476h-1.16zm11.407 4.6H18.336v-3.666h10.245v3.666z" data-name="Path 446" transform="translate(0 -17.282)"/>
</svg>
