<svg xmlns="http://www.w3.org/2000/svg" width="24" height="24" viewBox="0 0 24 24">
    <path fill="#000" fill-rule="nonzero" d="M18.875 10.28a.152.152 0 0 0-.208 0l-.167.165-1.067-1.062.62-.504a.146.146 0 0 0 .011-.217l-2.306-2.295a8.008 8.008 0 0 0-5.63-2.33c-.1 0-.17.06-.17.147v.808c0 .074.056.137.13.146a6.291 6.291 0 0 1 3.624 1.764l.264.262-1.282 1.786a.145.145 0 0 0 .015.189l.302.3-2.74 2.722-1.864 1.06a.16.16 0 0 0-.033.024l-4.331 4.31a.147.147 0 0 0 0 .208L6.21 19.92a.147.147 0 0 0 .207 0l4.333-4.313c.01-.01.017-.02.023-.03l1.086-1.882 2.715-2.702.303.301a.144.144 0 0 0 .195.01l.773-.629 1.1 1.315-.174.175a.145.145 0 0 0 0 .207l1.083 1.079a.15.15 0 0 0 .207 0l1.896-1.887a.147.147 0 0 0 0-.207l-1.082-1.078zm-8.357 5.145L6.315 19.61l-1.959-1.95 4.23-4.203 1.767-1.005 1.194 1.19-1.029 1.784zm1.212-2.015l-1.145-1.14 2.635-2.623 1.145 1.14-2.635 2.623zm3.26-2.415L13.006 9.02l1.281-1.786a.147.147 0 0 0-.015-.19l-.353-.349a6.516 6.516 0 0 0-3.563-1.815l-.103-.017v-.532l.127.004c1.955.064 3.79.86 5.17 2.24l2.19 2.18-2.75 2.24zm1.084-.504l1.13-.921 1.088 1.082-1.136 1.13-1.082-1.291zm1.885 2.65l-.875-.872 1.687-1.68.875.872-1.687 1.68z"/>
</svg>
