<?xml version="1.0" encoding="UTF-8"?>
<svg width="32px" height="32px" viewBox="0 0 32 32" version="1.1" xmlns="http://www.w3.org/2000/svg" xmlns:xlink="http://www.w3.org/1999/xlink">
    <!-- Generator: Sketch 63.1 (92452) - https://sketch.com -->
    <title>hand sanitiser</title>
    <desc>Created with Sketch.</desc>
    <defs>
        <polygon id="path-1" points="0.0008 0.768 14.0891429 0.768 14.0891429 14.8566857 0.0008 14.8566857"></polygon>
    </defs>
    <g id="hand-sanitiser" stroke="none" stroke-width="1" fill="none" fill-rule="evenodd">
        <g id="Group-8" transform="translate(9.000000, 8.000000)">
            <path d="M6.74857143,6.34788571 C6.86628571,6.47017143 6.94742857,6.62217143 6.984,6.78788571 C6.97942857,6.9136 6.87428571,7.01188571 6.74857143,7.00731429 C6.62285714,7.01188571 6.51771429,6.9136 6.51314286,6.78788571 C6.54971429,6.62217143 6.63085714,6.47017143 6.74857143,6.34788571 M6.04342857,6.78788571 C6.04342857,7.17645714 6.36,7.49188571 6.74857143,7.49188571 C7.13714286,7.49188571 7.45257143,7.17645714 7.45257143,6.78788571 C7.41485714,6.47588571 7.27085714,6.18788571 7.04457143,5.9696 C6.89371429,5.80502857 6.63885714,5.79588571 6.47542857,5.9456 C6.46742857,5.9536 6.45942857,5.9616 6.45257143,5.96845714 C6.22628571,6.18788571 6.08228571,6.47588571 6.04342857,6.78788571" id="Fill-1" fill="#000000"></path>
            <path d="M5.80708571,3.64251429 C5.9248,3.7648 6.00594286,3.9168 6.04251429,4.08251429 C6.04251429,4.2128 5.93622857,4.31794286 5.80708571,4.31794286 C5.67794286,4.31794286 5.57165714,4.2128 5.57165714,4.08251429 C5.60822857,3.9168 5.68937143,3.7648 5.80708571,3.64251429 M5.80708571,4.78651429 C6.19565714,4.78651429 6.51108571,4.47222857 6.51108571,4.08251429 C6.47222857,3.77165714 6.32822857,3.48251429 6.10308571,3.26422857 C5.95222857,3.1008 5.69737143,3.09051429 5.53394286,3.24137143 C5.52594286,3.24822857 5.51794286,3.25622857 5.51108571,3.26422857 C5.2848,3.48251429 5.1408,3.77165714 5.10194286,4.08251429 C5.10194286,4.47222857 5.41851429,4.78651429 5.80708571,4.78651429" id="Fill-3" fill="#000000"></path>
            <g id="Group-7" transform="translate(0.000000, 0.375314)">
                <mask id="mask-2" fill="white">
                    <use xlink:href="#path-1"></use>
                </mask>
                <g id="Clip-6"></g>
                <path d="M13.6202286,13.9172571 C13.6202286,14.1778286 13.4099429,14.3869714 13.1505143,14.3869714 L9.3928,14.3869714 C9.13337143,14.3869714 8.92308571,14.1778286 8.92308571,13.9172571 L8.92308571,13.4486857 L11.7413714,13.4486857 C12.1299429,13.4486857 12.4453714,13.1321143 12.4453714,12.7435429 L12.4453714,7.3424 C12.4453714,6.95382857 12.1299429,6.6384 11.7413714,6.6384 L8.92308571,6.6384 L8.92308571,5.9344 C8.92308571,5.67497143 9.13337143,5.46468571 9.3928,5.46468571 L13.1505143,5.46468571 C13.4099429,5.46468571 13.6202286,5.67497143 13.6202286,5.9344 L13.6202286,13.9172571 Z M6.74822857,10.3949714 L6.11737143,10.8555429 L5.57222857,10.3949714 L6.74822857,10.3949714 Z M6.32194286,12.2578286 C6.02708571,12.5012571 5.62708571,12.5721143 5.26594286,12.4464 L2.3448,11.4029714 C2.21908571,11.3584 2.08537143,11.3344 1.95165714,11.3344 L0.469371429,11.3344 L0.469371429,9.45668571 L1.8008,9.45668571 C2.05451429,9.45554286 2.30137143,9.37325714 2.5048,9.22125714 L2.89337143,8.93097143 C3.03851429,8.82125714 3.21451429,8.7584 3.39622857,8.75154286 C3.4568,8.74925714 3.51737143,8.75268571 3.57565714,8.76525714 L7.31965714,9.37782857 C7.45565714,9.39497143 7.56194286,9.50468571 7.57451429,9.64182857 C7.57794286,9.7184 7.54822857,9.79382857 7.49222857,9.84525714 C7.44194286,9.89668571 7.37337143,9.9264 7.30137143,9.9264 L3.99165714,9.9264 C3.86251429,9.9264 3.75737143,10.0315429 3.75737143,10.1606857 C3.75737143,10.2898286 3.86251429,10.3949714 3.99165714,10.3949714 L4.84537143,10.3949714 L5.83508571,11.2326857 C5.98822857,11.3618286 6.2088,11.3698286 6.37108571,11.2521143 L9.39737143,9.0464 C9.5128,8.95725714 9.67737143,8.96868571 9.77908571,9.07268571 C9.8328,9.12754286 9.8625403,9.20068571 9.8625403,9.27725714 C9.86365714,9.36182857 9.82708571,9.44182857 9.76308571,9.49668571 L6.32194286,12.2578286 Z M8.92308571,7.10811429 L11.7413714,7.10811429 C11.8705143,7.10811429 11.9768,7.21325714 11.9768,7.3424 L11.9768,12.7435429 C11.9768,12.8738286 11.8705143,12.9789714 11.7413714,12.9789714 L8.92308571,12.9789714 L8.92308571,10.7709714 L10.0590857,9.86011429 C10.2328,9.71611429 10.3333714,9.50354286 10.3322286,9.27725714 C10.3333714,8.85782857 9.9928,8.51725714 9.57337143,8.51725714 C9.4088,8.51725714 9.24765714,8.57097143 9.11622857,8.66925714 L8.92308571,8.81097143 L8.92308571,7.10811429 Z M9.86251429,4.75954286 C9.86251429,4.6304 9.96765714,4.52525714 10.0968,4.52525714 L12.4453714,4.52525714 C12.5756571,4.52525714 12.6808,4.6304 12.6808,4.75954286 L12.6808,4.99382857 L9.86251429,4.99382857 L9.86251429,4.75954286 Z M11.0373714,4.05554286 L11.5070857,4.05554286 L11.5070857,1.23725714 L11.0373714,1.23725714 L11.0373714,4.05554286 Z M13.1505143,4.99382857 L13.1505143,4.75954286 C13.1505143,4.36982857 12.8350857,4.05554286 12.4453714,4.05554286 L11.9768,4.05554286 L11.9768,1.23725714 L13.1905143,1.23725714 C13.2533714,1.23725714 13.3128,1.2624 13.3573714,1.30582857 L13.6888,1.6384 C13.7825143,1.72754286 13.9310857,1.72525714 14.0213714,1.63154286 C14.1082286,1.54125714 14.1082286,1.39725714 14.0213714,1.30582857 L13.6888,0.9744 C13.5573714,0.841828571 13.3779429,0.767542857 13.1905143,0.767542857 L6.10594286,0.767542857 C5.97565714,0.767542857 5.87051429,0.872685714 5.87051429,1.00182857 C5.87051429,1.13211429 5.97565714,1.23725714 6.10594286,1.23725714 L10.5676571,1.23725714 L10.5676571,4.05554286 L10.0968,4.05554286 C9.70822857,4.05554286 9.3928,4.36982857 9.3928,4.75954286 L9.3928,4.99382857 C8.87394286,4.99382857 8.45337143,5.41554286 8.45337143,5.9344 L8.45337143,9.15268571 L8.02137143,9.46697143 C7.93908571,9.17668571 7.69451429,8.95954286 7.39508571,8.91497143 L3.65908571,8.30354286 C3.5688,8.2864 3.47622857,8.27954286 3.38365714,8.28182857 C3.10365714,8.29097143 2.83394286,8.38582857 2.61108571,8.55497143 L2.22251429,8.8464 C2.10022857,8.93668571 1.9528,8.98697143 1.8008,8.98697143 L0.469371429,8.98697143 C0.209942857,8.98697143 0.0008,9.19611429 0.0008,9.45668571 L0.0008,11.3344 C0.0008,11.5938286 0.209942857,11.8041143 0.469371429,11.8041143 L1.95165714,11.8041143 C2.03165714,11.8041143 2.11165714,11.8178286 2.18822857,11.8464 L5.10708571,12.8875429 C5.27394286,12.9469714 5.45108571,12.9789714 5.62822857,12.9789714 C5.99051429,12.9789714 6.34022857,12.8521143 6.61908571,12.6212571 L8.45337143,11.1492571 L8.45337143,13.9172571 C8.45337143,14.4361143 8.87394286,14.8566857 9.3928,14.8566857 L13.1505143,14.8566857 C13.6693714,14.8566857 14.0899429,14.4361143 14.0899429,13.9172571 L14.0899429,5.9344 C14.0899429,5.41554286 13.6693714,4.99382857 13.1505143,4.99382857 L13.1505143,4.99382857 Z" id="Fill-5" fill="#000000" mask="url(#mask-2)"></path>
            </g>
        </g>
    </g>
</svg>