<svg width="14" height="17" viewBox="0 0 14 17" fill="none" xmlns="http://www.w3.org/2000/svg">
<path d="M13.3875 13.0091C13.1567 13.547 12.8716 14.06 12.5367 14.5399C12.0892 15.1791 11.7217 15.6208 11.44 15.8666C11.0025 16.2683 10.5325 16.4749 10.03 16.4866C9.67 16.4866 9.235 16.3841 8.72833 16.1758C8.22 15.9683 7.75333 15.8666 7.32583 15.8666C6.87833 15.8666 6.39833 15.9683 5.88416 16.1758C5.37083 16.3841 4.95583 16.4933 4.63833 16.5033C4.1575 16.5241 3.67666 16.3124 3.1975 15.8666C2.89166 15.5999 2.50916 15.1416 2.05 14.4933C1.55833 13.8024 1.15416 12.9983 0.837498 12.0841C0.498331 11.0949 0.328331 10.1383 0.328331 9.21161C0.328331 8.15077 0.557498 7.23494 1.01666 6.46827C1.36395 5.86616 1.86045 5.36363 2.45833 5.0091C3.04789 4.6555 3.7209 4.46509 4.40833 4.45744C4.79166 4.45744 5.29416 4.57577 5.91666 4.8091C6.53916 5.04244 6.93916 5.16077 7.11333 5.16077C7.245 5.16077 7.6875 5.02161 8.44083 4.74577C9.15166 4.48994 9.75167 4.3841 10.2433 4.42577C11.5767 4.53327 12.5775 5.05827 13.2433 6.00494C12.0517 6.72744 11.4625 7.73827 11.4742 9.03577C11.4842 10.0466 11.8517 10.8874 12.5717 11.5549C12.89 11.8596 13.2614 12.1033 13.6675 12.2741C13.5792 12.5299 13.4858 12.7741 13.3875 13.0091ZM10.3317 0.983272C10.3317 1.77494 10.0417 2.51494 9.46583 3.19911C8.76916 4.01244 7.9275 4.48327 7.015 4.40911C7.00306 4.30955 6.99722 4.20937 6.9975 4.1091C6.9975 3.34827 7.3275 2.53494 7.91667 1.8691C8.21 1.53244 8.58333 1.2516 9.03583 1.02827C9.4875 0.808272 9.91416 0.686605 10.3158 0.665771C10.3267 0.772438 10.3317 0.878272 10.3317 0.983272Z" fill="white"/>
</svg>
