<svg width="19" height="19" viewBox="0 0 19 19" fill="none" xmlns="http://www.w3.org/2000/svg">
<g opacity="0.8">
<path d="M9.5 16.625C9.36678 16.6247 9.23372 16.616 9.1016 16.5989C7.88135 14.6436 7.20572 12.3978 7.1446 10.0938H17.7828C17.7971 9.89663 17.8125 9.7001 17.8125 9.5C17.8125 7.85595 17.325 6.24881 16.4116 4.88183C15.4982 3.51484 14.2 2.44941 12.6811 1.82026C11.1621 1.1911 9.49078 1.02649 7.87832 1.34723C6.26585 1.66797 4.7847 2.45965 3.62218 3.62218C2.45965 4.7847 1.66797 6.26585 1.34723 7.87832C1.02649 9.49078 1.1911 11.1621 1.82026 12.6811C2.44941 14.2 3.51484 15.4982 4.88183 16.4116C6.24881 17.325 7.85595 17.8125 9.5 17.8125V16.625ZM16.5953 8.90625H13.0405C12.9767 6.72145 12.4178 4.57963 11.4059 2.64219C12.8063 3.03295 14.0537 3.84233 14.9812 4.96188C15.9087 6.08143 16.4719 7.45768 16.5953 8.90625ZM9.89782 2.40113C11.1183 4.35636 11.7941 6.60219 11.8554 8.90625H7.1446C7.2059 6.60219 7.88174 4.35636 9.10219 2.40113C9.36666 2.36644 9.63453 2.36644 9.899 2.40113H9.89782ZM7.59347 2.6416C6.58182 4.57928 6.02312 6.7213 5.95947 8.90625H2.40469C2.52822 7.45771 3.09144 6.08149 4.0189 4.96196C4.94636 3.84242 6.19378 3.03303 7.59407 2.64219L7.59347 2.6416ZM2.40469 10.0938H5.95947C6.02339 12.2786 6.58229 14.4204 7.59407 16.3578C6.19378 15.967 4.94636 15.1576 4.0189 14.038C3.09144 12.9185 2.52822 11.5423 2.40469 10.0938Z" fill="white"/>
<path fill-rule="evenodd" clip-rule="evenodd" d="M14.8438 14.8438L17.8125 16.0312V14.8438L14.8438 13.3594V11.875C14.8438 11.7175 14.7812 11.5665 14.6698 11.4552C14.5585 11.3438 14.4075 11.2812 14.25 11.2812C14.0925 11.2812 13.9415 11.3438 13.8302 11.4552C13.7188 11.5665 13.6562 11.7175 13.6562 11.875V13.3594L10.6875 14.8438V16.0312L13.6562 14.8438V16.9219L12.4688 17.8125V18.4062L14.25 17.8125L16.0312 18.4062V17.8125L14.8438 16.9219V14.8438Z" fill="white"/>
</g>
</svg>
