<svg width="20" height="20" viewBox="0 0 20 20" fill="none" xmlns="http://www.w3.org/2000/svg">
<g opacity="0.8">
<path d="M16.6667 3.33325H3.33332C2.41416 3.33325 1.66666 4.08075 1.66666 4.99992V14.9999C1.66666 15.9191 2.41416 16.6666 3.33332 16.6666H16.6667C17.5858 16.6666 18.3333 15.9191 18.3333 14.9999V4.99992C18.3333 4.08075 17.5858 3.33325 16.6667 3.33325ZM3.33332 14.9999V4.99992H16.6667L16.6675 14.9999H3.33332Z" fill="white"/>
<path d="M5.41667 9.16675H7.91667C8.02717 9.16675 8.13315 9.12285 8.21129 9.04471C8.28943 8.96657 8.33333 8.86059 8.33333 8.75008V7.08341C8.33333 6.97291 8.28943 6.86693 8.21129 6.78879C8.13315 6.71065 8.02717 6.66675 7.91667 6.66675H5.41667C5.30616 6.66675 5.20018 6.71065 5.12204 6.78879C5.0439 6.86693 5 6.97291 5 7.08341V8.75008C5 8.86059 5.0439 8.96657 5.12204 9.04471C5.20018 9.12285 5.30616 9.16675 5.41667 9.16675ZM5 11.6667H10V13.3342H5V11.6667ZM10.8333 11.6667H15V13.3342H10.8333V11.6667Z" fill="white"/>
</g>
</svg>
