<svg width="19" height="19" viewBox="0 0 19 19" fill="none" xmlns="http://www.w3.org/2000/svg">
<path d="M15.3348 15.8538C14.1013 16.9869 12.5647 17.7363 10.9124 18.0105C9.26009 18.2848 7.56369 18.0721 6.0303 17.3983C4.49691 16.7245 3.19287 15.6188 2.27739 14.2163C1.36192 12.8137 0.874625 11.1749 0.875 9.50004H2.3125C2.3124 10.9477 2.74947 12.3617 3.56649 13.5569C4.38351 14.752 5.54239 15.6725 6.89138 16.198C8.24037 16.7234 9.71658 16.8292 11.1267 16.5015C12.5369 16.1739 13.8152 15.428 14.7943 14.3617H12.7056C12.515 14.3617 12.3322 14.2859 12.1974 14.1511C12.0626 14.0164 11.9869 13.8335 11.9869 13.6429C11.9869 13.4523 12.0626 13.2695 12.1974 13.1347C12.3322 12.9999 12.515 12.9242 12.7056 12.9242H16.0536C16.2442 12.9242 16.427 12.9999 16.5618 13.1347C16.6966 13.2695 16.7723 13.4523 16.7723 13.6429V16.988C16.7723 17.1786 16.6966 17.3614 16.5618 17.4962C16.427 17.631 16.2442 17.7067 16.0536 17.7067C15.8629 17.7067 15.6801 17.631 15.5453 17.4962C15.4105 17.3614 15.3348 17.1786 15.3348 16.988V15.8524V15.8538ZM4.20569 4.63986H6.29437C6.485 4.63986 6.66781 4.71558 6.80261 4.85037C6.9374 4.98516 7.01312 5.16798 7.01312 5.35861C7.01312 5.54923 6.9374 5.73205 6.80261 5.86684C6.66781 6.00163 6.485 6.07736 6.29437 6.07736H2.945C2.75438 6.07736 2.57156 6.00163 2.43677 5.86684C2.30197 5.73205 2.22625 5.54923 2.22625 5.35861V2.01067C2.22625 1.82004 2.30197 1.63723 2.43677 1.50244C2.57156 1.36764 2.75438 1.29192 2.945 1.29192C3.13562 1.29192 3.31844 1.36764 3.45323 1.50244C3.58802 1.63723 3.66375 1.82004 3.66375 2.01067V3.14629C4.89706 2.01182 6.43414 1.26119 8.08714 0.98613C9.74014 0.711071 11.4375 0.923497 12.9717 1.59745C14.5059 2.2714 15.8106 3.37769 16.7263 4.78111C17.642 6.18454 18.129 7.82431 18.1279 9.50004H16.6904C16.6905 8.05215 16.2533 6.63797 15.4361 5.44273C14.6189 4.2475 13.4598 3.32694 12.1106 2.80163C10.7613 2.27632 9.28488 2.17076 7.87463 2.49876C6.46437 2.82677 5.18606 3.57305 4.20712 4.63986H4.20569Z" fill="white"/>
</svg>
