<svg xmlns="http://www.w3.org/2000/svg" width="24" height="24" viewBox="0 0 24 24">
    <path fill="#000" fill-rule="nonzero" d="M19.98 16.527v-.021-.051c-.025-3.026-.84-5.873-2.308-8.02-1.509-2.208-3.522-3.426-5.668-3.426-2.146 0-4.167 1.214-5.672 3.426-1.489 2.181-2.311 5.075-2.311 8.152h.008c.037 1.887 1.401 3.409 3.076 3.409a.253.253 0 0 0 .248-.256v-6.473a.253.253 0 0 0-.248-.256c-.992 0-1.873.537-2.44 1.364C5.36 9.33 8.388 5.52 12 5.52c3.61 0 6.632 3.801 7.33 8.842-.562-.822-1.443-1.35-2.427-1.35a.253.253 0 0 0-.248.255v6.477c0 .14.112.256.248.256 1.67 0 3.035-1.521 3.076-3.41v-.063zM6.856 13.536v5.936c-1.307-.145-2.332-1.42-2.332-2.97 0-1.552 1.025-2.822 2.332-2.966zm10.294 5.936v-5.936c1.29.144 2.307 1.389 2.332 2.91v.085c-.012 1.534-1.033 2.796-2.332 2.94z"/>
</svg>
