<svg width="24" height="19" viewBox="0 0 24 19" fill="none" xmlns="http://www.w3.org/2000/svg">
<path d="M0.749956 16.7936H23.25V18.2936H0.749956V16.7936ZM21.3603 2.17627C20.264 1.87088 19.0985 1.89253 18.0787 2.23721L18.0368 2.25127L14.9852 3.70158L6.07988 0.161203C5.69113 0.00500796 5.26632 -0.0388668 4.85384 0.0345763C4.44137 0.10802 4.05781 0.295828 3.74686 0.57661L2.55464 1.64527C2.42887 1.75803 2.33011 1.89766 2.26568 2.05381C2.20125 2.20995 2.1728 2.3786 2.18246 2.54724C2.19212 2.71589 2.23963 2.88019 2.32147 3.02796C2.40331 3.17573 2.51737 3.30317 2.65519 3.40083L8.17552 7.31293L6.05804 8.42213L4.38108 6.88993C4.06045 6.59755 3.66221 6.40397 3.23422 6.33246C2.80623 6.26094 2.36669 6.31454 1.96843 6.4868L1.05647 6.88219C0.913935 6.94396 0.785735 7.03458 0.679949 7.14834C0.574162 7.26209 0.493081 7.39653 0.441814 7.54317C0.390548 7.68981 0.370206 7.84548 0.38207 8.00037C0.393935 8.15526 0.437749 8.30601 0.510752 8.44313L3.92424 14.8569L22.514 5.69405C23.6271 5.17013 23.7628 4.33257 23.5181 3.72253C23.2467 3.04622 22.4602 2.48264 21.3603 2.17627ZM21.8713 4.33875L21.8643 4.34204L4.5653 12.8686L2.0258 8.09673L2.56486 7.86296C2.69762 7.80553 2.84414 7.78766 2.98681 7.8115C3.12948 7.83534 3.26223 7.89988 3.3691 7.99735L5.82235 10.2389L11.0409 7.50521L3.90568 2.44861L4.74807 1.69355C4.85172 1.59997 4.97957 1.53737 5.11706 1.51289C5.25454 1.48841 5.39614 1.50303 5.52572 1.55508L15.0387 5.33701L18.5988 3.64505C19.3233 3.41025 20.1862 3.40294 20.9736 3.62569C21.6221 3.80916 21.9665 4.07569 22.0833 4.21547C22.0173 4.26414 21.9463 4.30553 21.8714 4.33889L21.8713 4.33875Z" fill="white"/>
</svg>
