<svg xmlns="http://www.w3.org/2000/svg" xmlns:xlink="http://www.w3.org/1999/xlink" width="24" height="21" viewBox="0 0 24 21">
    <defs>
        <path id="a" d="M.713.656h1.353v2.792H.713z"/>
        <path id="c" d="M.491.88h21.075v16.231H.491z"/>
        <path id="e" d="M0 .999h2.677v1.386H0z"/>
    </defs>
    <g fill="none" fill-rule="evenodd">
        <path fill="#444" d="M14.093 4.68a.431.431 0 0 1-.62-.05.457.457 0 0 1-.002-.58L14.8 2.686a.43.43 0 0 1 .614-.074.458.458 0 0 1 .006.702L14.093 4.68zM3.7 4.74L2.37 3.378a.46.46 0 0 1-.056-.635.43.43 0 0 1 .67-.005l1.33 1.366c.185.157.21.442.054.633a.43.43 0 0 1-.669.005"/>
        <g transform="translate(9.524 -.434)">
            <mask id="b" fill="#fff">
                <use xlink:href="#a"/>
            </mask>
            <path fill="#444" d="M1.577 3.093a.436.436 0 0 1-.518.345.448.448 0 0 1-.336-.53V2.87l.482-1.86a.435.435 0 0 1 .516-.344.447.447 0 0 1 .335.53v.038l-.48 1.86z" mask="url(#b)"/>
        </g>
        <g transform="translate(2.381 3.232)">
            <mask id="d" fill="#fff">
                <use xlink:href="#c"/>
            </mask>
            <path fill="#444" d="M19.827 11.074a3.057 3.057 0 0 1 .023 4.243 2.89 2.89 0 0 1-2.092.891H5.233c-2.136-.004-3.863-1.784-3.86-3.977.004-2.191 1.738-3.966 3.873-3.962a3.794 3.794 0 0 1 1.714.414.43.43 0 0 0 .586-.198.492.492 0 0 0 .041-.137c.42-2.686 2.884-4.515 5.5-4.083 2.305.38 4.01 2.409 4.037 4.805v.314c0 .1-.007.191-.024.273a.448.448 0 0 0 .322.54c.045.011.09.015.136.011h.2c.775 0 1.52.316 2.069.879v-.013zM7.99 2.069c.833.334 1.54.937 2.008 1.718-.375.173-.732.39-1.062.643-.265.273-.577.387-.678.603a5.858 5.858 0 0 0-1.435 2.642 4.637 4.637 0 0 0-3.987.375v-.038a4.148 4.148 0 0 1-.206-.436c-.85-2.169.174-4.633 2.286-5.505a4.027 4.027 0 0 1 3.074-.002zm9.777 15.042c2.1-.002 3.8-1.752 3.798-3.908-.002-2.056-1.558-3.759-3.556-3.892V9.08c0-3.217-2.54-5.824-5.675-5.824-.517 0-1.03.072-1.527.215C9.573 1.247 6.93.3 4.616 1.246h-.013C2.045 2.299.802 5.28 1.823 7.909c.072.177.152.352.242.52l.072.134c-.089.08-.178.164-.266.248C.024 10.718.033 13.8 1.89 15.695a4.679 4.679 0 0 0 3.347 1.416h12.531z" mask="url(#d)"/>
        </g>
        <g transform="translate(0 5.677)">
            <mask id="f" fill="#fff">
                <use xlink:href="#e"/>
            </mask>
            <path fill="#444" d="M2.666 2.048a.436.436 0 0 1-.531.323h-.001L.316 1.876a.45.45 0 0 1-.3-.552.436.436 0 0 1 .524-.312l1.81.494a.448.448 0 0 1 .314.544h-.002l.004-.002z" mask="url(#f)"/>
        </g>
        <path fill="#444" d="M.335 11.365l1.799-.505a.436.436 0 0 1 .541.307.451.451 0 0 1-.3.555l-1.798.508a.435.435 0 0 1-.54-.308.45.45 0 0 1 .298-.555v-.002zM7.213 2.997a.435.435 0 0 1-.532-.303L6.2.842a.45.45 0 0 1 .298-.555.434.434 0 0 1 .54.307l.496 1.852a.45.45 0 0 1-.293.546l-.028.005z"/>
    </g>
</svg>
