<svg width="24" height="24" viewBox="0 0 24 24" fill="none" xmlns="http://www.w3.org/2000/svg">
<g clip-path="url(#clip0_678_58)">
<rect width="24" height="24" fill="white"/>
<g clip-path="url(#clip1_678_58)">
</g>
<g clip-path="url(#clip2_678_58)">
<path d="M2.02075 19.5126C2.02075 13.8508 2.02663 8.18895 2.00901 2.52713C2.00607 2.0881 2.09711 2 2.53466 2C8.51364 2.01762 14.4941 2.01762 20.4731 2C20.9121 2 21.0017 2.0881 21.0002 2.52713C20.9826 8.50757 20.9826 14.488 21.0002 20.4685C21.0002 20.9075 20.9121 20.9971 20.4731 20.9956C14.4941 20.978 8.51511 20.9736 2.53613 21C1.99579 21.0029 1.96496 20.7915 2.02075 20.3951C2.51411 20.8561 3.02949 20.9163 3.66233 20.6256C4.86928 20.072 6.15112 19.7901 7.47555 19.6345C9.02315 19.4539 9.94966 18.3233 9.93057 16.7624C9.9291 16.5907 9.94819 16.413 9.90708 16.25C9.80282 15.8315 10.2624 15.8403 10.3711 15.6039C10.5781 15.1546 9.90267 15.3543 9.93351 15.0621C9.96287 14.7714 10.2463 14.6378 10.4459 14.466C12.2388 12.9287 13.6616 11.1197 14.5734 8.92604C14.6174 8.81886 14.6057 8.62357 14.8436 8.61182C15.1357 8.99212 15.7671 9.183 15.4881 9.90394C15.4206 10.0787 15.6966 10.3547 15.8391 10.1594C16.2473 9.59853 16.4734 10.0963 16.7524 10.2534C17.1561 10.481 17.5438 10.7379 17.949 10.9655C18.1531 11.0801 18.4101 11.2739 18.5701 10.9391C18.7052 10.6543 18.4204 10.5676 18.2383 10.4722C16.6701 9.65139 15.3736 8.52226 14.3487 7.07597C14.2313 6.91005 14.1035 6.64428 13.8348 6.83516C13.5779 7.0187 13.7276 7.2551 13.8833 7.39753C14.3869 7.85711 14.2269 8.31816 13.9905 8.84382C13.271 10.4487 12.3797 11.9655 11.0347 13.0872C9.77199 14.14 9.04958 15.2398 9.31828 16.9665C9.47099 17.9415 8.78381 18.777 7.825 18.9517C6.21279 19.2468 4.61086 19.5434 3.09996 20.2086C2.93551 20.2805 2.75491 20.2805 2.64919 20.0955C2.54347 19.909 2.65213 19.7696 2.78281 19.6462C2.99571 19.4436 3.21449 19.2468 3.42006 19.0369C3.55221 18.9018 3.74015 18.7461 3.53899 18.5435C3.36132 18.3644 3.18513 18.4686 3.02802 18.6125C2.69471 18.915 2.357 19.2116 2.02222 19.5111L2.02075 19.5126ZM14.1711 2.30688C13.0684 2.39057 12.0112 2.99405 11.4312 4.27295C10.8982 5.44907 10.4239 6.65162 9.9291 7.8439C9.83219 8.07736 9.59726 8.39158 9.97021 8.52519C10.3255 8.65147 10.3608 8.25502 10.4592 8.0245C10.9187 6.94969 11.3636 5.86754 11.8247 4.79274C12.6132 2.95294 14.2577 2.3847 16.0182 3.34938C17.3867 4.09969 18.7463 4.86615 20.1148 5.61646C20.3277 5.73393 20.5993 6.01878 20.7917 5.64142C20.9517 5.3272 20.6038 5.2347 20.4114 5.12751C18.9636 4.31847 17.51 3.52117 16.0578 2.72388C15.5572 2.4493 15.0212 2.301 14.1696 2.30688H14.1711ZM4.31573 18.0516C4.53891 18.0428 4.6461 17.8607 4.78559 17.7301C5.55352 17.0091 6.31558 16.2808 7.0835 15.5599C7.33752 15.322 7.53281 15.0533 7.66643 14.7274C8.33598 13.1019 9.02021 11.4809 9.69417 9.85696C9.79108 9.62349 10.0245 9.31808 9.64572 9.17566C9.33443 9.05966 9.2757 9.40178 9.18466 9.61909C8.55182 11.1285 7.91163 12.6335 7.29494 14.1488C7.09672 14.6363 6.81921 15.0401 6.4257 15.394C5.69741 16.0503 5.00143 16.7404 4.29224 17.4173C4.15128 17.5524 3.98683 17.6816 4.07933 17.9151C4.12044 18.0179 4.20707 18.0531 4.31426 18.0487L4.31573 18.0516ZM15.5572 14.0607C15.3604 14.071 15.2033 14.0461 15.0697 14.0901C14.5117 14.2707 14.8054 14.7435 14.7599 15.09C14.732 15.3044 14.9287 15.5555 15.1034 15.3925C15.4779 15.043 15.6306 15.3558 15.8449 15.5393C15.9815 15.6553 16.121 15.7655 16.2928 15.6128C16.5072 15.4233 16.35 15.278 16.2326 15.115C16.1166 14.9549 15.751 14.8522 15.9125 14.6304C16.4088 13.9492 15.8391 14.1092 15.5586 14.0593L15.5572 14.0607ZM13.619 16.6215C13.5221 16.2573 13.2225 16.1002 13.0067 15.8785C12.8452 15.7141 12.647 15.7155 12.4913 15.8873C12.2843 16.1164 11.948 16.2471 11.9025 16.598C11.8937 16.6655 12.0215 16.8197 12.0596 16.8109C12.5574 16.7037 12.4531 17.0561 12.4575 17.3189C12.4619 17.5436 12.4458 17.7961 12.7688 17.7829C13.0317 17.7726 13.0405 17.5553 13.0434 17.3512C13.0478 17.0825 12.9421 16.7301 13.4428 16.8138C13.4912 16.8226 13.5646 16.6832 13.619 16.62V16.6215ZM14.4427 11.917C14.4427 12.1123 14.4779 12.2342 14.6027 12.2738C14.682 12.2988 14.8186 12.2914 14.8641 12.2415C15.1725 11.9009 15.4015 11.5059 15.5513 11.0713C15.5924 10.9538 15.5219 10.8437 15.3986 10.7776C15.2943 10.7203 15.1857 10.7438 15.1387 10.8143C14.8876 11.1917 14.6527 11.5808 14.4427 11.9185V11.917ZM19.5612 11.1065C19.3439 11.0992 19.2309 11.1256 19.1736 11.2592C19.1164 11.3913 19.1575 11.5191 19.2676 11.5749C19.6758 11.7834 20.0898 11.9801 20.5112 12.1593C20.6228 12.2063 20.7491 12.1328 20.8064 12.0051C20.8636 11.8774 20.8328 11.7511 20.7153 11.6894C20.3101 11.475 19.8975 11.2753 19.5612 11.1065ZM12.4869 14.4822C12.4766 14.3529 12.4208 14.2032 12.2887 14.2311C11.788 14.3397 11.3563 14.604 10.9922 14.9535C10.8879 15.0533 10.9672 15.231 11.1331 15.2985C11.3901 15.4028 12.4796 14.7435 12.4854 14.4807L12.4869 14.4822ZM13.1374 14.049C13.3679 14.0637 14.2694 13.1695 14.2401 12.9551C14.1931 12.613 13.967 12.6438 13.7746 12.8024C13.4971 13.0344 13.2402 13.2957 12.9993 13.5659C12.7982 13.7906 12.8951 13.9565 13.1374 14.049Z" fill="#FCFCFC"/>
<path d="M2.021 19.5126C2.35724 19.2131 2.69349 18.915 3.0268 18.614C3.18537 18.4701 3.3601 18.3659 3.53777 18.545C3.73893 18.7476 3.55098 18.9018 3.41884 19.0383C3.21327 19.2483 2.99449 19.4436 2.78159 19.6477C2.65238 19.771 2.54225 19.9105 2.64797 20.097C2.75369 20.2835 2.93429 20.2835 3.09874 20.2101C4.60964 19.5449 6.21157 19.2483 7.82378 18.9532C8.78259 18.777 9.4683 17.943 9.31706 16.968C9.04836 15.2413 9.77077 14.14 11.0335 13.0887C12.3785 11.9684 13.2698 10.4502 13.9892 8.84529C14.2242 8.31964 14.3857 7.85858 13.8821 7.399C13.7249 7.25658 13.5766 7.02018 13.8336 6.83664C14.1023 6.64576 14.23 6.91152 14.3475 7.07744C15.3724 8.52226 16.6689 9.6514 18.2371 10.4737C18.4191 10.5691 18.704 10.6572 18.5689 10.9406C18.4089 11.2768 18.1519 11.0815 17.9478 10.967C17.544 10.7394 17.1564 10.4825 16.7511 10.2549C16.4722 10.0978 16.2475 9.60001 15.8378 10.1609C15.6954 10.3562 15.4194 10.0801 15.4869 9.90542C15.7659 9.18447 15.1345 8.99359 14.8423 8.6133C14.603 8.62505 14.6162 8.82033 14.5722 8.92752C13.6618 11.1227 12.2375 12.9316 10.4447 14.4675C10.245 14.6393 9.96165 14.7729 9.93228 15.0636C9.90292 15.3558 10.5769 15.1576 10.3698 15.6054C10.2612 15.8418 9.8016 15.833 9.90585 16.2515C9.94697 16.4145 9.92641 16.5921 9.92935 16.7639C9.94843 18.3233 9.0234 19.4539 7.47432 19.6359C6.15137 19.7901 4.86806 20.0735 3.66111 20.6271C3.02826 20.9163 2.51289 20.8576 2.01953 20.3965C2.01953 20.1029 2.01953 19.8077 2.01953 19.5141L2.021 19.5126Z" fill="#111111"/>
<path d="M14.1705 2.30693C15.0207 2.30106 15.5581 2.44936 16.0588 2.72393C17.5124 3.52123 18.9661 4.31852 20.4124 5.12756C20.6047 5.23475 20.9527 5.32726 20.7926 5.64147C20.6003 6.01736 20.3287 5.73251 20.1158 5.61651C18.7473 4.8662 17.3876 4.09828 16.0192 3.34943C14.2586 2.38475 12.6127 2.95299 11.8256 4.79279C11.3646 5.8676 10.9197 6.94828 10.4601 8.02455C10.3617 8.25361 10.3265 8.65152 9.97116 8.52525C9.59821 8.3931 9.83314 8.07741 9.93005 7.84395C10.4249 6.65168 10.8991 5.44913 11.4321 4.27301C12.0121 2.9941 13.0693 2.39062 14.172 2.30693H14.1705Z" fill="#111111"/>
<path d="M4.3157 18.0516C4.20851 18.056 4.12041 18.0193 4.08077 17.9179C3.98827 17.6845 4.15125 17.5553 4.29368 17.4202C5.00287 16.7433 5.70032 16.0532 6.42714 15.3968C6.81918 15.043 7.09816 14.6392 7.29638 14.1517C7.91307 12.6364 8.55326 11.1299 9.1861 9.62197C9.27714 9.40465 9.33587 9.06254 9.64715 9.17853C10.026 9.31949 9.79252 9.62637 9.69561 9.85983C9.02165 11.4838 8.33742 13.1048 7.66786 14.7302C7.53425 15.0562 7.33896 15.3234 7.08494 15.5628C6.31701 16.2837 5.55643 17.012 4.78703 17.7329C4.64901 17.8622 4.54035 18.0457 4.31717 18.0545L4.3157 18.0516Z" fill="#111111"/>
<path d="M15.5568 14.0608C15.8372 14.1092 16.4084 13.9507 15.9106 14.632C15.7491 14.8537 16.1147 14.955 16.2307 15.1165C16.3482 15.2795 16.5053 15.4249 16.2909 15.6143C16.1191 15.767 15.9796 15.6583 15.8431 15.5409C15.6273 15.3573 15.476 15.0446 15.1016 15.394C14.9269 15.557 14.7301 15.3059 14.758 15.0915C14.8035 14.7436 14.5099 14.2708 15.0678 14.0916C15.2029 14.0476 15.3586 14.0725 15.5553 14.0623L15.5568 14.0608Z" fill="#0F0F0F"/>
<path d="M13.6192 16.6215C13.5634 16.6847 13.4915 16.8227 13.443 16.8153C12.9423 16.7316 13.0481 17.0826 13.0437 17.3527C13.0407 17.5583 13.0334 17.7741 12.7691 17.7844C12.4461 17.7976 12.4637 17.5451 12.4578 17.3204C12.4519 17.0576 12.5576 16.7052 12.0599 16.8124C12.0217 16.8212 11.894 16.6656 11.9028 16.5995C11.9483 16.2486 12.2845 16.1179 12.4916 15.8888C12.6457 15.7185 12.8454 15.717 13.007 15.88C13.2228 16.1003 13.5209 16.2574 13.6192 16.623V16.6215Z" fill="#111111"/>
<path d="M14.4424 11.9171C14.6539 11.5793 14.8873 11.1902 15.1384 10.8129C15.1854 10.7424 15.2955 10.7189 15.3983 10.7762C15.5202 10.8437 15.5906 10.9538 15.551 11.0698C15.4012 11.5045 15.1722 11.8994 14.8638 12.2401C14.8183 12.2915 14.6803 12.2973 14.6025 12.2724C14.4777 12.2327 14.441 12.1109 14.4424 11.9156V11.9171Z" fill="#151515"/>
<path d="M19.5628 11.1065C19.8991 11.2754 20.3117 11.475 20.7169 11.6894C20.8344 11.7511 20.8652 11.8774 20.808 12.0051C20.7522 12.1314 20.6244 12.2063 20.5128 12.1593C20.0914 11.9801 19.6774 11.7819 19.2692 11.5749C19.159 11.5191 19.1179 11.3913 19.1752 11.2592C19.2325 11.1256 19.3455 11.1006 19.5628 11.1065Z" fill="#151515"/>
<path d="M12.4865 14.4821C12.4806 14.7435 11.3911 15.4042 11.1342 15.3C10.9683 15.2324 10.889 15.0547 10.9932 14.9549C11.3574 14.604 11.789 14.3411 12.2897 14.2325C12.4219 14.2031 12.4777 14.3529 12.488 14.4836L12.4865 14.4821Z" fill="#0F0F0F"/>
<path d="M13.1382 14.049C12.896 13.9565 12.7991 13.7905 13.0002 13.5659C13.2425 13.2957 13.498 13.0344 13.7755 12.8024C13.9678 12.6423 14.1925 12.6129 14.2409 12.9551C14.2703 13.1694 13.3688 14.0636 13.1382 14.049Z" fill="#080808"/>
</g>
</g>
<defs>
<clipPath id="clip0_678_58">
<rect width="24" height="24" fill="white"/>
</clipPath>
<clipPath id="clip1_678_58">
<rect width="879.5" height="132.36" fill="white" transform="translate(-428 -54)"/>
</clipPath>
<clipPath id="clip2_678_58">
<rect width="19" height="19" fill="white" transform="translate(2 2)"/>
</clipPath>
</defs>
</svg>
