<svg xmlns="http://www.w3.org/2000/svg" width="15.998" height="16" viewBox="0 0 15.998 16">
    <defs>
        <style>
            .cls-1,.cls-2,.cls-3{fill-rule:evenodd}.cls-2,.cls-3{fill:none}.cls-2{stroke:#000;stroke-width:.15px}
        </style>
    </defs>
    <g id="live_track" data-name="live track" transform="translate(-1.074 -1.075)">
        <g id="Group-14" transform="translate(1.075 1.075)">
            <path id="Fill-1" d="M5.892 16.378a.836.836 0 1 1 .8-.835.819.819 0 0 1-.8.835m0-2a1.16 1.16 0 1 0 1.126 1.16 1.146 1.146 0 0 0-1.126-1.16m6.925.324a.837.837 0 1 1-.8.836.819.819 0 0 1 .8-.836m-1.124.836a1.125 1.125 0 1 0 1.124-1.16 1.141 1.141 0 0 0-1.124 1.16" class="cls-1" transform="translate(-1.354 -3.976)"/>
            <path id="Stroke-3" d="M5.892 16.378a.836.836 0 1 1 .8-.835.819.819 0 0 1-.8.835zm0-2a1.16 1.16 0 1 0 1.126 1.16 1.146 1.146 0 0 0-1.126-1.16zm6.925.324a.837.837 0 1 1-.8.836.819.819 0 0 1 .799-.838zm-1.124.836a1.125 1.125 0 1 0 1.124-1.16 1.141 1.141 0 0 0-1.125 1.161z" class="cls-2" transform="translate(-1.354 -3.976)"/>
            <path id="Fill-5" d="M9.834 16.754h1.809v-1H9.834z" class="cls-1" transform="translate(-2.736 -4.351)"/>
            <path id="Stroke-7" d="M9.834 16.754h1.809v-1H9.834z" class="cls-2" transform="translate(-2.736 -4.351)"/>
            <path id="Fill-8" d="M15.749 5.93a.46.46 0 0 1-.449.47h-.767V2.355h.767a.458.458 0 0 1 .447.47v3.1zM14.212 9h-3.281a1.521 1.521 0 0 1-.05.325h3.327v2.74a1.763 1.763 0 0 1-1.759 1.759H3.7a1.763 1.763 0 0 1-1.758-1.759V9.322h3.335A1.879 1.879 0 0 1 5.223 9h-3.28V2.157A1.763 1.763 0 0 1 3.7.4h8.751a1.763 1.763 0 0 1 1.759 1.759zM12.4 14.9a.822.822 0 0 1-.781.854h-.2a.819.819 0 0 1-.781-.854v-.751H12.4zm-6.89 0a.822.822 0 0 1-.781.854h-.2a.819.819 0 0 1-.781-.854v-.751h1.765zm-3.9-8.5H.847A.457.457 0 0 1 .4 5.933V2.825a.46.46 0 0 1 .447-.47h.767zM15.3 2.031h-.767l-.023-.16a2.093 2.093 0 0 0-2.066-1.8H3.7a2.09 2.09 0 0 0-2.063 1.8l-.02.161H.846a.781.781 0 0 0-.772.791V5.93a.785.785 0 0 0 .772.794h.767v5.334A2.094 2.094 0 0 0 3.272 14.1l.15.03v.764a1.145 1.145 0 0 0 1.1 1.178h.2a1.146 1.146 0 0 0 1.106-1.178v-.751h4.476v.757a1.146 1.146 0 0 0 1.105 1.179h.2a1.147 1.147 0 0 0 1.118-1.179v-.763l.149-.03a2.091 2.091 0 0 0 1.66-2.041V6.725h.764a.783.783 0 0 0 .771-.793V2.825a.778.778 0 0 0-.762-.794H15.3z" class="cls-1" transform="translate(-.075 -.075)"/>
            <path id="Stroke-9" d="M15.749 5.93a.46.46 0 0 1-.449.47h-.767V2.355h.767a.458.458 0 0 1 .447.47v3.1zM14.212 9h-3.281a1.521 1.521 0 0 1-.05.325h3.327v2.74a1.763 1.763 0 0 1-1.759 1.759H3.7a1.763 1.763 0 0 1-1.758-1.759V9.322h3.335A1.879 1.879 0 0 1 5.223 9h-3.28V2.157A1.763 1.763 0 0 1 3.7.4h8.751a1.763 1.763 0 0 1 1.759 1.759zM12.4 14.9a.822.822 0 0 1-.781.854h-.2a.819.819 0 0 1-.781-.854v-.751H12.4zm-6.89 0a.822.822 0 0 1-.781.854h-.2a.819.819 0 0 1-.781-.854v-.751h1.765zm-3.9-8.5H.847A.457.457 0 0 1 .4 5.933V2.825a.46.46 0 0 1 .447-.47h.767zM15.3 2.031h-.767l-.023-.16a2.093 2.093 0 0 0-2.066-1.8H3.7a2.09 2.09 0 0 0-2.063 1.8l-.02.161H.846a.781.781 0 0 0-.772.791V5.93a.785.785 0 0 0 .772.794h.767v5.334A2.094 2.094 0 0 0 3.272 14.1l.15.03v.764a1.145 1.145 0 0 0 1.1 1.178h.2a1.146 1.146 0 0 0 1.106-1.178v-.751h4.476v.757a1.146 1.146 0 0 0 1.105 1.179h.2a1.147 1.147 0 0 0 1.118-1.179v-.763l.149-.03a2.091 2.091 0 0 0 1.66-2.041V6.725h.764a.783.783 0 0 0 .771-.793V2.825a.778.778 0 0 0-.762-.794H15.3z" class="cls-3" transform="translate(-.075 -.075)"/>
            <path id="Fill-10" d="M12.4 6.474a9.943 9.943 0 0 1-1.134 1.884c-.236.321-.484.637-.735.95-.108.133-.215.268-.317.4l-.049.057-.127.141-.213-.255a20.615 20.615 0 0 1-.351-.431 15.45 15.45 0 0 1-1.5-2.18 9.283 9.283 0 0 1-.377-.8 2.2 2.2 0 0 1 .06-1.793 2.585 2.585 0 0 1 2.511-1.557 2.613 2.613 0 0 1 2.457 2.217 2.4 2.4 0 0 1-.225 1.367zm-1.651-3.731c-.119-.031-.241-.047-.359-.065l-.153-.023h-.392l-.065.008-.172.023a2.805 2.805 0 0 0-2.175 1.693 2.363 2.363 0 0 0-.076 1.865 8.2 8.2 0 0 0 .794 1.518 21.128 21.128 0 0 0 1.831 2.423l.069.081q.788-.907 1.484-1.886a11.331 11.331 0 0 0 1.092-1.839 2.572 2.572 0 0 0 .235-1.527 2.89 2.89 0 0 0-2.113-2.271z" class="cls-1" transform="translate(-2.018 -.778)"/>
            <path id="Stroke-11" d="M12.4 6.474a9.943 9.943 0 0 1-1.134 1.884c-.236.321-.484.637-.735.95-.108.133-.215.268-.317.4l-.049.057-.127.141-.213-.255a20.615 20.615 0 0 1-.351-.431 15.45 15.45 0 0 1-1.5-2.18 9.283 9.283 0 0 1-.377-.8 2.2 2.2 0 0 1 .06-1.793 2.585 2.585 0 0 1 2.511-1.557 2.613 2.613 0 0 1 2.457 2.217 2.4 2.4 0 0 1-.225 1.367zm-1.651-3.731c-.119-.031-.241-.047-.359-.065l-.153-.023h-.392l-.065.008-.172.023a2.805 2.805 0 0 0-2.175 1.693 2.363 2.363 0 0 0-.076 1.865 8.2 8.2 0 0 0 .794 1.518 21.128 21.128 0 0 0 1.831 2.423l.069.081q.788-.907 1.484-1.886a11.331 11.331 0 0 0 1.092-1.839 2.572 2.572 0 0 0 .235-1.527 2.89 2.89 0 0 0-2.113-2.271z" class="cls-2" transform="translate(-2.018 -.778)"/>
            <path id="Fill-12" d="M10.6 7.174a1.12 1.12 0 0 1 0-2.239h.012a1.088 1.088 0 0 1 .785.332 1.119 1.119 0 0 1-.8 1.907m0-2.479a1.344 1.344 0 0 0-.961.4 1.36 1.36 0 0 0 .95 2.324 1.359 1.359 0 0 0 .983-2.319 1.364 1.364 0 0 0-.961-.4" class="cls-1" transform="translate(-2.575 -1.335)"/>
            <path id="Stroke-13" d="M10.6 7.174a1.12 1.12 0 0 1 0-2.239h.012a1.088 1.088 0 0 1 .785.332 1.119 1.119 0 0 1-.8 1.907zm0-2.479a1.344 1.344 0 0 0-.961.4 1.36 1.36 0 0 0 .95 2.324 1.359 1.359 0 0 0 .98-2.319 1.364 1.364 0 0 0-.969-.4z" class="cls-2" transform="translate(-2.575 -1.335)"/>
        </g>
    </g>
</svg>
