<svg xmlns="http://www.w3.org/2000/svg" width="24" height="24" viewBox="0 0 24 24">
    <g fill="none" fill-rule="evenodd">
        <path stroke="#000" stroke-width=".5" d="M16.15 14.826l-.305-.871"/>
        <path stroke="#000" stroke-dasharray="1.977" stroke-width=".5" d="M15.591 13.232l-1.65-4.693"/>
        <path stroke="#000" stroke-width=".5" d="M13.815 8.178l-.306-.872"/>
        <path fill="#000" fill-rule="nonzero" d="M19.97 13.559c-.018-.04-.038-.08-.05-.12l-.677-1.922c-.006-.02-.014-.037-.022-.06-.511.225-1.03.178-1.537-.135-.435-.27-.705-.595-.823-.996-.122-.415-.068-.844.173-1.349.193-.405.523-.66 1.036-.794a2.271 2.271 0 0 0-.02-.06l-.679-1.937a1.1 1.1 0 0 1-.032-.117v-.004L17.203 6h-.004a1.241 1.241 0 0 1-.115.047l-12.89 4.209c-.04.012-.08.023-.122.03h-.004L4 10.42l.012.03c.025.056.049.11.069.17l.651 1.85.023.059c.51-.227 1.03-.178 1.55.144.42.262.685.58.805.972.129.423.076.856-.169 1.365-.197.41-.529.663-1.037.792l.016.048.684 1.95c.013.04.024.08.033.12v.002l.138.066h.003c.038-.018.076-.033.115-.047l12.889-4.208c.04-.012.08-.022.122-.03h.003l.068-.132-.004-.012zm-.383-.108l-.096.034-.066.022-4.9 1.595-7.568 2.466-.098.032-.566-1.622.084-.037c.472-.209.793-.598.982-1.19a1.951 1.951 0 0 0-.053-1.322c-.333-.868-1.407-1.482-2.253-1.288l-.092.02-.565-1.62L17.1 6.39l.573 1.625-.086.037c-.423.184-.727.53-.93 1.064-.174.458-.172.961.004 1.418.324.88 1.408 1.504 2.273 1.31l.091-.02.562 1.626z"/>
        <path stroke="#000" stroke-width=".5" d="M12.737 13.919l-1.558-.225-1.075 1.109-.26-1.498-1.426-.644 1.398-.7.194-1.506 1.122 1.065 1.547-.288-.704 1.358z"/>
    </g>
</svg>
