<svg width="17" height="16" viewBox="0 0 17 16" fill="none" xmlns="http://www.w3.org/2000/svg">
<path d="M6.51667 15.8298C6.81667 15.8298 7.09167 15.6714 7.25833 15.4214L11.1667 9.16311L15.75 9.16311C16.4417 9.16311 17 8.60478 17 7.91311C17 7.22145 16.4417 6.66311 15.75 6.66311L11.1667 6.66311L7.25833 0.404779C7.14466 0.226396 6.97022 0.095228 6.76729 0.0355489C6.56436 -0.0241303 6.34669 -0.00827999 6.15454 0.0801667C5.9624 0.168613 5.8088 0.323668 5.72217 0.516637C5.63554 0.709605 5.62174 0.927422 5.68333 1.12978L7.41667 6.66311L2.83333 6.66311L1.70833 5.16311C1.67047 5.11036 1.62034 5.06762 1.56226 5.03859C1.50419 5.00955 1.43992 4.99509 1.375 4.99645L0.883333 4.99645C0.608331 4.99645 0.408333 5.26311 0.483333 5.52978L1.16667 7.91311L0.483333 10.2964C0.408332 10.5631 0.608331 10.8298 0.883333 10.8298L1.375 10.8298C1.43992 10.8311 1.50419 10.8167 1.56226 10.7876C1.62034 10.7586 1.67047 10.7159 1.70833 10.6631L2.83333 9.16311L7.41667 9.16311L5.68333 14.6964C5.50833 15.2631 5.93333 15.8298 6.51667 15.8298Z" fill="#D3D7DE"/>
</svg>
