<svg xmlns="http://www.w3.org/2000/svg" width="24" height="24" viewBox="0 0 24 24">
    <g fill="#000" fill-rule="evenodd">
        <path fill-rule="nonzero" d="M19.963 17.313a.92.92 0 0 0-.56-.852.9.9 0 0 0-.992.2l-.971.984-1.932-1.956.691-1.167a.888.888 0 0 0 .123-.448v-.15a.887.887 0 0 0-.253-.624.864.864 0 0 0-.615-.26h-6.15L6.729 7.178V5.209A.208.208 0 0 0 6.523 5H4.207A.208.208 0 0 0 4 5.21v2.345c0 .03.006.06.018.086l3.639 8.378a.207.207 0 0 0 .189.124h7.278a.208.208 0 0 0 .096-.025l.081-.043 2.985 3.023a.206.206 0 0 0 .293 0l1.117-1.132a.933.933 0 0 0 .267-.653zm-4.956-1.59H7.98L4.414 7.51V5.42h1.902v1.8c0 .03.006.06.018.087l2.646 6.035c.035.075.11.122.193.12h6.285c.251 0 .455.206.455.46v.153a.47.47 0 0 1-.065.237l-.841 1.411zm4.397 1.945l-.972.984-.7-.709.973-.984a.49.49 0 0 1 .695.004.506.506 0 0 1 .005.705z"/>
        <path d="M15.962 18.563l-1.107-.803a.148.148 0 0 0-.15-.017.152.152 0 0 0-.023.264l.807.589-4.162.69a.15.15 0 0 0-.122.094c-.02.052-.01.111.025.154a.149.149 0 0 0 .145.05l4.163-.69-.581.82a.153.153 0 0 0-.026.16.15.15 0 0 0 .27.013l.791-1.117a.153.153 0 0 0-.03-.207z"/>
    </g>
</svg>
