<svg width="13" height="13" viewBox="0 0 13 13" fill="none" xmlns="http://www.w3.org/2000/svg">
<path d="M10.6104 3.46468L10.3369 3.7382C10.1976 3.87745 10.0088 3.95568 9.81185 3.95568C9.61493 3.95568 9.42607 3.87745 9.28682 3.7382C9.14757 3.59895 9.06934 3.41009 9.06934 3.21317C9.06934 3.01624 9.14757 2.82738 9.28682 2.68813L9.56034 2.41462L7.81723 0.671509L5.61709 2.87165L5.51708 3.17391L5.21481 3.27392L0.35376 8.13497L2.09787 9.87908L2.37139 9.60557C2.51063 9.46632 2.69949 9.38809 2.89642 9.38809C3.09334 9.38809 3.2822 9.46632 3.42145 9.60557C3.5607 9.74481 3.63893 9.93367 3.63893 10.1306C3.63893 10.3275 3.5607 10.5164 3.42145 10.6556L3.14793 10.9291L4.89104 12.6723L9.75135 7.81195L9.85135 7.50969L10.1536 7.40968L12.3538 5.20954L10.6104 3.46468ZM5.39607 3.60044L5.94286 3.05366L6.76791 3.87871L6.22088 4.42549L5.39607 3.60044ZM6.47114 4.67551L7.01818 4.12847L7.83123 4.94153L7.28419 5.48856L6.47114 4.67551ZM7.53521 5.73958L8.08224 5.19254L8.89529 6.00559L8.34926 6.55388L7.53521 5.73958ZM9.42458 7.62869L8.59953 6.80364L9.14631 6.25661L9.97136 7.08166L9.42458 7.62869Z" fill="#555454"/>
</svg>
