<svg xmlns="http://www.w3.org/2000/svg" width="24" height="24" viewBox="0 0 24 24">
    <g fill="#010101" fill-rule="evenodd">
        <path d="M19.273 15.877c.409-.296.662-.773.686-1.291 0-.264-.1-.473-.272-.572-.172-.099-.393-.074-.609.068L14.616 17a.197.197 0 0 0-.061.265c.054.09.168.119.255.063l4.463-2.918c.099-.064.187-.087.238-.056.05.031.083.12.083.239-.024.386-.213.74-.515.967l-4.327 2.83c-.256.167-.497.21-.663.116-.166-.094-.258-.329-.258-.643 0-.742.511-1.701 1.114-2.096l4.93-3.226a.192.192 0 0 0 .086-.16.192.192 0 0 0-.085-.162l-9.47-6.19a.177.177 0 0 0-.194 0L5.225 9.29C4.54 9.74 4 10.752 4 11.595v.148c0 .842.538 1.855 1.225 2.303l7.417 4.85a.177.177 0 0 0 .182.008.19.19 0 0 0 .098-.16.192.192 0 0 0-.086-.168l-7.416-4.85c-.571-.374-1.054-1.283-1.054-1.98v-.15c0-.702.483-1.61 1.054-1.98l4.891-3.198 9.124 5.966-4.681 3.06c-.72.472-1.285 1.534-1.285 2.418 0 .464.16.81.447.975.288.166.663.118 1.033-.127l4.324-2.832z"/>
        <path d="M10.212 8.525l6.141 4.016a.182.182 0 0 0 .249-.06.194.194 0 0 0-.057-.258l-6.138-4.02a.181.181 0 0 0-.274.107.193.193 0 0 0 .079.214v.001zM12.696 11.584l2.594 1.69a.183.183 0 0 0 .253-.06.197.197 0 0 0 .023-.144.187.187 0 0 0-.082-.118l-2.595-1.69a.178.178 0 0 0-.19-.015.191.191 0 0 0-.1.167.192.192 0 0 0 .096.17h.001zM14.422 13.684l-2.614-1.694a.175.175 0 0 0-.138-.023.192.192 0 0 0-.137.229.19.19 0 0 0 .083.119l2.614 1.695c.086.05.194.024.249-.061a.197.197 0 0 0-.057-.265zM11.896 10.613L9.302 8.925a.18.18 0 0 0-.194 0l-2.21 1.445a.193.193 0 0 0-.083.162c0 .064.031.125.083.16l2.636 1.701a.18.18 0 0 0 .195 0l.587-.393a.195.195 0 0 0 .05-.26.18.18 0 0 0-.249-.06l-.489.33-2.287-1.483L9.205 9.31l2.254 1.464-.354.242a.195.195 0 0 0-.054.258.18.18 0 0 0 .248.056l.596-.4a.191.191 0 0 0 .085-.16.191.191 0 0 0-.085-.16l.001.002zM10.532 13.038l2.634 1.701c.086.05.195.024.25-.06a.197.197 0 0 0 .022-.145.187.187 0 0 0-.083-.118l-2.63-1.7a.175.175 0 0 0-.138-.024.18.18 0 0 0-.114.086.196.196 0 0 0 .059.26zM12.638 15.374l-6.502-4.198a.176.176 0 0 0-.096-.03.183.183 0 0 0-.156.087.196.196 0 0 0 .06.258l6.501 4.199c.086.05.194.024.249-.061a.196.196 0 0 0-.059-.259l.003.004z"/>
    </g>
</svg>
