<?xml version="1.0" encoding="UTF-8"?>
<svg width="32px" height="32px" viewBox="0 0 32 32" version="1.1" xmlns="http://www.w3.org/2000/svg" xmlns:xlink="http://www.w3.org/1999/xlink">
    <!-- Generator: Sketch 63.1 (92452) - https://sketch.com -->
    <title>no blankets</title>
    <desc>Created with Sketch.</desc>
    <defs>
        <polygon id="path-1" points="0.000273275524 0.9558 16 0.9558 16 13.2396934 0.000273275524 13.2396934"></polygon>
    </defs>
    <g id="no-blankets" stroke="none" stroke-width="1" fill="none" fill-rule="evenodd">
        <g id="Group-8" transform="translate(8.000000, 8.000000)">
            <g id="Group-3" transform="translate(0.000000, 1.804700)">
                <mask id="mask-2" fill="white">
                    <use xlink:href="#path-1"></use>
                </mask>
                <g id="Clip-2"></g>
                <path d="M15.5531,12.0928 C15.4401,12.5418 15.0391,12.8438 14.5571,12.8458 C14.0601,12.8468 12.2401,12.8478 10.1941,12.8478 C8.4071,12.8478 6.4491,12.8468 5.0521,12.8468 L3.9031,12.8468 C2.1001,12.8468 0.6021,11.4858 0.4191,9.6818 C0.2301,7.8388 1.5601,6.1478 3.3831,5.9108 C3.5951,5.8838 3.8251,5.8688 4.0681,5.8688 L4.2891,5.8688 C8.1591,5.8668 9.3001,5.8668 13.2741,5.8698 C14.5261,5.8718 15.5201,6.8168 15.5871,8.0688 C15.6391,9.0608 14.9561,10.2238 13.5871,10.4268 C13.5221,10.4368 13.4581,10.4358 13.3951,10.4358 L13.3571,10.4358 L4.3041,10.4368 C3.8041,10.4368 3.4261,10.1778 3.2911,9.7438 C3.1971,9.4388 3.2501,9.1158 3.4371,8.8618 C3.6261,8.6048 3.9201,8.4568 4.2441,8.4558 C5.2281,8.4518 8.1001,8.4528 10.6351,8.4538 L13.0011,8.4538 C13.0251,8.4538 13.0491,8.4548 13.0731,8.4528 C13.1511,8.4468 13.2311,8.4068 13.2771,8.3498 C13.2941,8.3278 13.3151,8.2928 13.3091,8.2538 C13.2891,8.1208 13.2161,8.0558 13.0831,8.0548 C8.2761,8.0558 7.7011,8.0538 6.6931,8.0538 C6.2301,8.0538 5.6761,8.0538 4.5791,8.0548 L4.5241,8.0548 C4.2921,8.0608 4.0531,8.0548 3.8351,8.1078 C3.1781,8.2658 2.7351,8.8968 2.8021,9.5738 C2.8711,10.2678 3.4231,10.8058 4.0851,10.8258 C4.7351,10.8458 7.5811,10.8468 10.3341,10.8468 C11.7451,10.8468 13.1571,10.8478 14.2971,10.8498 C14.6081,10.8508 14.8671,10.8978 15.0691,10.9888 C15.4661,11.1678 15.6691,11.6328 15.5531,12.0928 M8.4671,5.4728 C7.1951,5.4718 6.0201,5.4708 3.9431,5.4668 L3.9331,5.4668 C3.1971,5.4668 2.5411,5.6388 1.9301,5.9928 C1.9061,6.0078 1.8791,6.0188 1.8381,6.0358 C1.8151,6.0448 1.7861,6.0568 1.7511,6.0718 L1.5941,6.1408 L1.6531,5.9798 C1.6671,5.9398 1.6781,5.9058 1.6891,5.8758 C1.7091,5.8168 1.7251,5.7698 1.7461,5.7258 C1.9331,5.3218 2.1211,4.9178 2.3091,4.5138 C2.6721,3.7328 3.0351,2.9518 3.3931,2.1688 C3.6461,1.6158 4.0681,1.3478 4.6831,1.3478 L4.6871,1.3478 C6.7981,1.3518 7.7231,1.3518 8.9691,1.3518 L11.7221,1.3528 C12.2421,1.3528 12.6301,1.5808 12.8431,2.0118 C13.2641,2.8608 13.6781,3.7128 14.0931,4.5658 L14.5251,5.4568 C14.5361,5.4798 14.5441,5.5048 14.5551,5.5428 C14.5601,5.5628 14.5671,5.5858 14.5761,5.6158 L14.6161,5.7438 L14.4861,5.7078 C14.4031,5.6848 14.3241,5.6588 14.2491,5.6338 C14.0981,5.5848 13.9571,5.5378 13.8191,5.5278 C13.3521,5.4938 12.8391,5.4768 12.2501,5.4758 C11.4461,5.4748 10.7771,5.4738 10.1851,5.4738 M15.5911,10.8868 C15.4781,10.7698 15.3351,10.6778 15.1701,10.5718 C15.0881,10.5198 15.0011,10.4638 14.9101,10.4008 L14.8171,10.3338 L14.9151,10.2768 C14.9311,10.2668 14.9481,10.2578 14.9651,10.2488 C14.9971,10.2328 15.0281,10.2168 15.0511,10.1968 C15.9971,9.3748 16.2581,8.0668 15.6991,6.9398 C15.3991,6.3348 15.1041,5.7258 14.8101,5.1168 C14.6501,4.7858 14.4891,4.4548 14.3281,4.1238 C14.2211,3.9048 14.1161,3.6868 14.0111,3.4678 C13.7421,2.9068 13.4641,2.3268 13.1671,1.7688 C12.8941,1.2548 12.4271,0.9748 11.8171,0.9618 C11.6141,0.9568 10.5011,0.9558 9.0871,0.9558 C8.3031,0.9558 7.4271,0.9558 6.5611,0.9558 L4.5861,0.9568 C3.8901,0.9568 3.3831,1.2748 3.0781,1.9008 C2.9331,2.1988 2.7941,2.4998 2.6551,2.7998 L2.5301,3.0688 C2.3231,3.5138 2.1181,3.9598 1.9121,4.4058 C1.4481,5.4158 0.9681,6.4598 0.4731,7.4758 C0.0281,8.3918 -0.1009,9.2718 0.0781,10.1638 C0.4291,11.9138 2.0321,13.2358 3.8061,13.2378 C8.3831,13.2396934 10.0161,13.2408 14.5921,13.2378 C15.2021,13.2378 15.6351,12.9488 15.8771,12.3818 C16.1101,11.8368 16.0111,11.3198 15.5911,10.8868" id="Fill-1" fill="#000000" mask="url(#mask-2)"></path>
            </g>
            <g id="Group-7" transform="translate(0.000000, 0.804700)">
                <line x1="15.6523" y1="0.4453" x2="0.3473" y2="15.7503" id="Fill-4" fill="#FCFCFC"></line>
                <line x1="15.6523" y1="0.4453" x2="0.3473" y2="15.7503" id="Stroke-6" stroke="#000000" stroke-width="0.5" stroke-linecap="round"></line>
            </g>
        </g>
    </g>
</svg>