<svg width="15" height="15" viewBox="0 0 15 15" fill="none" xmlns="http://www.w3.org/2000/svg">
<path d="M7.10417 11.0625H7.89583V6.70833H7.10417V11.0625ZM7.5 5.58021C7.63194 5.58021 7.74753 5.53403 7.84675 5.44167C7.94544 5.34931 7.99479 5.23056 7.99479 5.08542C7.99479 4.95347 7.94544 4.84132 7.84675 4.74896C7.74753 4.6566 7.63194 4.61042 7.5 4.61042C7.36806 4.61042 7.25247 4.6566 7.15325 4.74896C7.05456 4.84132 7.00521 4.95347 7.00521 5.08542C7.00521 5.23056 7.05456 5.34931 7.15325 5.44167C7.25247 5.53403 7.36806 5.58021 7.5 5.58021ZM7.5 14.625C6.51042 14.625 5.58364 14.4371 4.71967 14.0613C3.85517 13.685 3.10308 13.1768 2.46342 12.5366C1.82322 11.8969 1.31497 11.1448 0.938667 10.2803C0.562889 9.41636 0.375 8.48958 0.375 7.5C0.375 6.51042 0.562889 5.58338 0.938667 4.71888C1.31497 3.8549 1.82322 3.10282 2.46342 2.46263C3.10308 1.82296 3.85517 1.31497 4.71967 0.938667C5.58364 0.562889 6.51042 0.375 7.5 0.375C8.48958 0.375 9.41663 0.562889 10.2811 0.938667C11.1451 1.31497 11.8972 1.82296 12.5374 2.46263C13.177 3.10282 13.685 3.8549 14.0613 4.71888C14.4371 5.58338 14.625 6.51042 14.625 7.5C14.625 8.48958 14.4371 9.41636 14.0613 10.2803C13.685 11.1448 13.177 11.8969 12.5374 12.5366C11.8972 13.1768 11.1451 13.685 10.2811 14.0613C9.41663 14.4371 8.48958 14.625 7.5 14.625Z" fill="#F0AE00"/>
</svg>
