<svg xmlns="http://www.w3.org/2000/svg" width="13.5" height="13.5" viewBox="0 0 13.5 13.5">
    <defs>
        <style>
            .cls-1{fill-rule:evenodd}
        </style>
    </defs>
    <g id="Reschedulable" transform="translate(-1 -1)">
        <g id="Group-5" transform="translate(1 1)">
            <path id="Fill-1" d="M13.35 6.6a.15.15 0 0 0-.15.15c0 .152-.006.3-.016.454a6.468 6.468 0 1 1-1.7-4.826l-.443.383 1.412.491-.281-1.469-.461.4a6.742 6.742 0 1 0 1.775 5.042c.011-.157.017-.314.017-.474a.15.15 0 0 0-.15-.15" class="cls-1"/>
            <path id="Fill-3" d="M11.15 3a.15.15 0 0 0-.15.15v4.8a.15.15 0 0 0 .15.15h3.6a.15.15 0 0 0 0-.3H11.3V3.15a.15.15 0 0 0-.15-.15" class="cls-1" transform="translate(-4.4 -1.2)"/>
        </g>
    </g>
</svg>
