<svg xmlns="http://www.w3.org/2000/svg" width="24" height="24" viewBox="0 0 24 24">
    <g fill="#000" fill-rule="evenodd">
        <path d="M9.571 6.782a.238.238 0 0 0-.07-.165l-2.548-2.55a.247.247 0 0 0-.337 0 .24.24 0 0 0 0 .336l2.378 2.379-2.209 2.21-2.38-2.378a.238.238 0 0 0-.336.336l2.547 2.548a.247.247 0 0 0 .337 0L9.5 6.95a.236.236 0 0 0 .071-.168z"/>
        <path fill-rule="nonzero" d="M6.19 9.949c-.001.231.09.453.255.616.306.306.708.72.99 1.012a.867.867 0 0 0 .62.265h.007a.868.868 0 0 0 .618-.257l2.913-2.911a.876.876 0 0 0 0-1.237l-1.007-1.01a.873.873 0 0 0-1.237 0L6.448 9.33a.87.87 0 0 0-.258.62zm.593-.283l2.904-2.901a.4.4 0 0 1 .564 0l1.01 1.008a.4.4 0 0 1 0 .564L8.349 11.25a.398.398 0 0 1-.567-.003c-.285-.294-.69-.71-.998-1.017a.398.398 0 0 1 0-.563h-.001z"/>
        <path d="M13.003 11.09a.24.24 0 0 0 0-.337l-1.91-1.91a.247.247 0 0 0-.337 0 .237.237 0 0 0 0 .336l1.741 1.742-1.573 1.574-1.742-1.742a.24.24 0 0 0-.165-.07.238.238 0 0 0-.165.406L10.755 13a.247.247 0 0 0 .338 0l1.91-1.91zM7.89 9.798a.24.24 0 0 0 0 .336.247.247 0 0 0 .336 0l1.91-1.91a.24.24 0 0 0-.167-.406.237.237 0 0 0-.169.07l-1.91 1.91zM19.925 17.138a.237.237 0 0 0-.07-.165l-1.91-1.91a.236.236 0 0 0-.164-.07.233.233 0 0 0-.165.07l-2.548 2.547a.24.24 0 0 0 0 .336l1.911 1.91c.095.088.24.088.336 0a.24.24 0 0 0 0-.337l-1.748-1.745 2.21-2.21 1.742 1.742a.238.238 0 0 0 .406-.165v-.003z"/>
        <path fill-rule="nonzero" d="M17.945 15.395a.238.238 0 0 0 .053-.256.225.225 0 0 0-.062-.088l-.011-.012c-.141-.182-.797-1.214-1.755-2.76a.865.865 0 0 0-.638-.406c-.033 0-.067-.006-.101-.006a.875.875 0 0 0-.62.26l-2.69 2.69a.875.875 0 0 0 .149 1.356l2.833 1.803a.24.24 0 0 0 .293-.033l2.549-2.548zm-2.747 2.076l-2.672-1.7a.398.398 0 0 1-.068-.618l2.69-2.69a.402.402 0 0 1 .285-.12h.045c.12.014.227.081.29.184.939 1.518 1.401 2.262 1.656 2.622l.038.055-2.264 2.267z"/>
        <path d="M16.105 13.954a.238.238 0 0 0-.239-.238.238.238 0 0 0-.165.07l-1.913 1.91a.236.236 0 0 0-.07.165c.002.062.026.121.07.165a.247.247 0 0 0 .337 0l1.91-1.91a.233.233 0 0 0 .07-.162zM13.152 8.294a.24.24 0 0 0 .239-.239V7.42a.238.238 0 0 0-.476 0v.636c0 .132.106.238.237.239zM15.7 9.728h-.637a.238.238 0 1 0 0 .476h.637a.238.238 0 0 0 0-.476zM14.257 8.525a.24.24 0 0 0 0 .336.247.247 0 0 0 .337 0l.637-.637a.238.238 0 1 0-.337-.336l-.637.637zM9.969 14.821a.238.238 0 0 0-.238.239v.636a.238.238 0 1 0 .476 0v-.636a.24.24 0 0 0-.238-.239zM8.296 13.15a.238.238 0 0 0-.237-.239h-.637a.238.238 0 1 0 0 .476h.637a.238.238 0 0 0 .237-.237zM8.933 14.423a.237.237 0 0 0-.403-.167l-.637.637a.24.24 0 0 0 0 .337.247.247 0 0 0 .336 0l.638-.637a.237.237 0 0 0 .066-.17z"/>
    </g>
</svg>
