<svg xmlns="http://www.w3.org/2000/svg" width="17.178" height="20.974" viewBox="0 0 17.178 20.974">
    <defs>
        <style>
            .cls-1{fill:#868686;stroke:rgba(0,0,0,0)}
        </style>
    </defs>
    <g id="seat-1" transform="translate(-950.499 -481.999)">
        <path id="Union_2" d="M12.934 19.974H11.4v-3.328H4.861v3.327H3.244V16.5a2.5 2.5 0 0 1-1.624-2.352v-.975A2.5 2.5 0 0 1 0 10.821V6.66h3.241V2.5A2.473 2.473 0 0 1 5.673 0h4.916a2.476 2.476 0 0 1 2.433 2.5v4.16h3.157v4.161a2.5 2.5 0 0 1-1.624 2.353v.975a2.49 2.49 0 0 1-1.533 2.318v3.507zm-9.69-6.8v.975a.817.817 0 0 0 .808.83h8.157a.786.786 0 0 0 .083 0v-.031a.811.811 0 0 0 .641-.794v-.975a2.565 2.565 0 0 1-.641-.372v-.053a2.471 2.471 0 0 1-.753-1.1H4.723a2.479 2.479 0 0 1-1.479 1.52zm10.5-1.522a.819.819 0 0 0 .809-.83v-2.5h-1.532v2.87a.815.815 0 0 0 .725.459zM1.62 10.821a.81.81 0 1 0 1.62 0v-2.5H1.62zM4.861 2.5v7.487H11.4V2.5a.824.824 0 0 0-.808-.834H5.673a.828.828 0 0 0-.812.834z" class="cls-1" data-name="Union 2" transform="translate(950.999 482.499)"/>
    </g>
</svg>
