<svg width="16" height="14" viewBox="0 0 16 14" fill="none" xmlns="http://www.w3.org/2000/svg">
<path d="M1 6.98069C1.03548 6.73353 1.06079 6.48416 1.10837 6.23947C1.47861 4.34151 2.49688 2.88817 4.14972 1.88714C5.1028 1.30987 6.14693 1.02096 7.26341 1.00037C7.30769 0.999542 7.35225 1.00037 7.40341 1.00037V1.90417C5.65623 1.95278 4.21188 2.6248 3.11577 3.98009C2.27436 5.02039 1.87304 6.22958 1.92173 7.56483C2.0301 10.5429 4.39342 12.7542 7.16796 12.8679C10.0225 12.9849 12.4621 10.9387 12.8452 8.14567C12.6898 8.30249 12.5223 8.47111 12.3694 8.62517C12.1262 8.38515 11.9133 8.17506 11.6784 7.94272C11.7375 7.89137 11.8206 7.8271 11.8946 7.75378C12.2618 7.39044 12.626 7.02436 12.9924 6.66048C13.2405 6.41413 13.4861 6.41523 13.7339 6.65828C14.1773 7.09302 14.6218 7.52666 15.06 7.95508C14.8267 8.18742 14.6169 8.39641 14.3897 8.62243C14.2079 8.42799 14.0161 8.22284 13.7986 7.99023C13.7661 8.19318 13.7433 8.34917 13.7163 8.50434C13.5224 9.61164 13.062 10.5973 12.3438 11.4613C11.3574 12.6477 10.104 13.4125 8.58562 13.6723C6.22395 14.0766 4.20968 13.3798 2.5959 11.6063C1.68325 10.6033 1.18704 9.40128 1.03246 8.05724C1.02283 7.97238 1.011 7.88779 1 7.80293C1 7.52885 1 7.25477 1 6.98069Z" fill="#E70000" stroke="#E31E24" stroke-width="0.4"/>
<path d="M8.32806 5.11682V5.26979C8.32806 5.87645 8.32531 6.48338 8.33191 7.09003C8.33274 7.15732 8.36822 7.24053 8.41553 7.28859C8.79401 7.67142 9.17937 8.04739 9.55401 8.41704C9.33038 8.64004 9.12161 8.84821 8.90404 9.06517C8.89029 9.05308 8.8592 9.02919 8.8317 9.00173C8.41773 8.58896 8.00597 8.17454 7.59007 7.7637C7.47647 7.65165 7.41184 7.52477 7.41211 7.36439C7.41294 6.64349 7.41211 5.92286 7.41266 5.20196C7.41266 5.17587 7.41789 5.14978 7.42119 5.11655H8.32806V5.11682Z" fill="#E70000" stroke="#E31E24" stroke-width="0.4"/>
</svg>
