<?xml version="1.0" encoding="UTF-8"?>
<svg width="12px" height="12px" viewBox="0 0 12 12" version="1.1" xmlns="http://www.w3.org/2000/svg" xmlns:xlink="http://www.w3.org/1999/xlink">
    <!-- Generator: Sketch 53.2 (72643) - https://sketchapp.com -->
    <title>shopping-1</title>
    <desc>Created with Sketch.</desc>
    <defs>
        <polygon id="path-1" points="0 0 16 0 16 16 0 16"></polygon>
        <polygon id="path-3" points="0 0 16 0 16 16 0 16"></polygon>
    </defs>
    <g id="Page-1" stroke="none" stroke-width="1" fill="none" fill-rule="evenodd">
        <g id="shopping-1" transform="translate(-2.000000, -2.000000)">
            <g id="Clipped">
                <mask id="mask-2" fill="white">
                    <use xlink:href="#path-1"></use>
                </mask>
                <g id="a"></g>
                <path d="M3.54033333,13.56 L6.93,13.56 C7.05313728,13.5596331 7.15281703,13.4598044 7.153,13.3366667 C7.15245116,13.2137893 7.05287803,13.114365 6.93,13.114 L3.54033333,13.114 C2.9360702,13.1132653 2.44640133,12.6235965 2.44566667,12.0193333 L2.44566667,4.99566667 L9.332,4.99566667 L9.332,5.49533333 C9.332,5.61766667 9.43266667,5.718 9.55533333,5.718 C9.67808121,5.71745242 9.77745242,5.61808121 9.778,5.49533333 L9.778,4.77266667 C9.77745116,4.64978932 9.67787803,4.55036503 9.555,4.55 L7.81866667,4.55 C7.78801353,3.50770184 6.93408211,2.67872967 5.89133333,2.679 C4.84893924,2.67960402 3.99551658,3.50808228 3.964,4.55 L2.22333333,4.55 C2.10045531,4.55036503 2.00088217,4.64978932 2.00033333,4.77266667 L2.00033333,12.0193333 C2.00266667,12.8693333 2.69366667,13.5596667 3.54066667,13.5596667 L3.54033333,13.56 Z M5.88666667,3.12433333 C6.68385145,3.1259919 7.33817389,3.75547596 7.37066667,4.552 L4.405,4.552 C4.43543052,3.75546861 5.08955467,3.12518431 5.88666667,3.12433333 L5.88666667,3.12433333 Z" id="Shape" fill="#63BAEA" fill-rule="nonzero" mask="url(#mask-2)"></path>
            </g>
            <g id="Clipped">
                <mask id="mask-4" fill="white">
                    <use xlink:href="#path-3"></use>
                </mask>
                <g id="a"></g>
                <path d="M9.25633333,7.55 L9.25633333,7.84866667 L7.897,7.84866667 C7.77412266,7.84921551 7.67469836,7.94878864 7.67433333,8.07166667 L7.67433333,12.5216667 C7.6748846,13.0961825 8.14048417,13.5617821 8.715,13.5623333 L12.9443333,13.5623333 C13.5191094,13.5619656 13.9849656,13.0961094 13.9853333,12.5213333 L13.9853333,8.069 C13.9847845,7.94612266 13.8852114,7.84669836 13.7623333,7.84633333 L12.4033333,7.84633333 L12.4033333,7.54733333 C12.4033333,6.68066667 11.698,5.97533333 10.831,5.97533333 C9.96217206,5.9773494 9.2583494,6.68117206 9.25633333,7.55 L9.25633333,7.55 Z M13.5396667,12.5213333 C13.5396667,12.8496667 13.2726667,13.1163333 12.9443333,13.1163333 L8.715,13.1163333 C8.387,13.1163333 8.12,12.8496667 8.12,12.5213333 L8.12,8.292 L13.5396667,8.292 L13.5396667,12.5213333 Z M10.8286667,6.421 C11.4517396,6.42210084 11.9565658,6.92692707 11.9576667,7.55 L11.9576667,7.84866667 L9.69966667,7.84866667 L9.69966667,7.55 C9.7007675,6.92692707 10.2055937,6.42210084 10.8286667,6.421 L10.8286667,6.421 Z" id="Shape" fill="#E26076" fill-rule="nonzero" mask="url(#mask-4)"></path>
            </g>
        </g>
    </g>
</svg>