<svg xmlns="http://www.w3.org/2000/svg" width="24" height="24" viewBox="0 0 24 24">
    <g fill="#000" fill-rule="evenodd">
        <path d="M9.645 12.304a.15.15 0 0 0 .127-.046.162.162 0 0 0 .043-.13c0-1.38.622-2.383 1.476-2.383h1.37a.158.158 0 0 0 .143-.115l.007-.02c.032-.068-.014-.137-.058-.184-.242-.194-.472-.814-.472-1.275 0-.892.92-.962 1.202-.962a.175.175 0 0 0 .14-.173.175.175 0 0 0-.14-.174c-.949 0-1.537.502-1.537 1.31.007.379.096.752.26 1.092l.077.16h-.994c-1.05 0-1.81 1.146-1.81 2.728a.161.161 0 0 0 .044.127.15.15 0 0 0 .122.045z"/>
        <path d="M14.237 6.322c.403.193.719.748.719 1.264-.001.69-.54 1.247-1.205 1.246-.085 0-.17.044-.17.118a.198.198 0 0 0 .125.21c.257.132.421.4.426.698a.668.668 0 0 1-.655.678h-1.64c-.63 0-1.263.493-1.263 1.594a.172.172 0 0 0 .167.146.172.172 0 0 0 .168-.146c0-.78.346-1.246.928-1.246h1.643c.545-.001.987-.458.989-1.023a1.131 1.131 0 0 0-.2-.617l-.078-.114.125-.053a1.63 1.63 0 0 0 .975-1.488c0-.675-.388-1.337-.922-1.574a.183.183 0 0 0-.13 0 .146.146 0 0 0-.085.083.199.199 0 0 0 0 .137c.013.04.042.072.08.088h.003z"/>
        <path fill-rule="nonzero" d="M19.947 11.248l-.006-.024a.116.116 0 0 0-.01-.038l-.392-.765-.35-.712a.168.168 0 0 0-.027-.038l-.014-.018a.137.137 0 0 0-.088-.063.133.133 0 0 0-.105.021l-7.586 4.049H9.098a.15.15 0 0 0-.127.045.162.162 0 0 0-.043.131v.883a.387.387 0 0 1-.38.368.387.387 0 0 1-.381-.368v-.914a.161.161 0 0 0-.044-.131.15.15 0 0 0-.126-.045H6.8v-.931a.73.73 0 0 0-.715-.742H4.99a.15.15 0 0 0-.126.046.163.163 0 0 0-.044.13v1.5h-.125c-.407.078-.695.406-.695.794v2.847a.717.717 0 0 0 .236.54.532.532 0 0 0 .397.176h11.021a.601.601 0 0 0 .497-.145.717.717 0 0 0 .235-.54v-2.846a.828.828 0 0 0-.478-.734l-.2-.094.04-.021 4.123-2.174a.137.137 0 0 0 .077-.076.144.144 0 0 0 0-.11zM5.156 12.304h.93c.209 0 .38.176.38.394v.933h-1.31v-1.327zm10.893 4.969a.371.371 0 0 1-.113.276l-.015.014-.012.007-.027.015a.331.331 0 0 1-.185.053H4.689a.553.553 0 0 1-.151-.023h-.063l-.027-.033a.37.37 0 0 1-.113-.276v-.45H16.05v.417zm0-2.84v2.07H4.335v-2.045a.467.467 0 0 1 .39-.45h3.11v.706c0 .39.307.685.715.685.407 0 .716-.295.716-.685v-.735h6.411c.238.087.372.25.372.451v.004zm.551-1.643l-1.644.873H12.11l3.915-2.098.596 1.215-.022.01zm.31-.167l-.588-1.219 2.626-1.411.59 1.22-2.628 1.41z"/>
    </g>
</svg>
