<svg xmlns="http://www.w3.org/2000/svg" width="24" height="24" viewBox="0 0 24 24">
    <g fill="#010101" fill-rule="evenodd">
        <path d="M9.939 18.666a28.54 28.54 0 0 1-4.171-.303l-.06-.008-.01-.06c-.447-2.58-.45-9.471-.005-12.086l.011-.063.062-.007a38.907 38.907 0 0 1 7.042-.182.171.171 0 0 0 .128-.046.184.184 0 0 0 .06-.126.189.189 0 0 0-.044-.133.176.176 0 0 0-.123-.06 39.248 39.248 0 0 0-6.817.15l-.092.01v-.995l.072-.011a26.617 26.617 0 0 1 7.893 0l.07.01v1.198c.001.093.068.17.157.182l.062.007.01.063c.03.17.057.362.083.572.006.048.03.092.067.122a.177.177 0 0 0 .25-.032.187.187 0 0 0 .037-.135 12.33 12.33 0 0 0-.126-.816.181.181 0 0 0-.125-.14l-.059-.017V4.6a.18.18 0 0 0-.147-.18c-2.8-.447-5.65-.447-8.45 0a.18.18 0 0 0-.15.18v1.16l-.06.019a.18.18 0 0 0-.121.138c-.508 2.54-.508 10.097 0 12.637a.18.18 0 0 0 .147.144c1.46.224 2.933.336 4.409.335a.182.182 0 0 0 .167-.183.182.182 0 0 0-.167-.184zM14.69 12.927a.181.181 0 0 0 .178-.182v-.596a.18.18 0 0 0-.178-.183.18.18 0 0 0-.178.183v.596c0 .1.078.183.176.184v.085l.002-.087z"/>
        <path fill-rule="nonzero" d="M14.306 13.374a2.64 2.64 0 0 0-.745-.115 1.54 1.54 0 0 0-.772.185c-.395.227-.647.642-.71 1.17-.144 1.191-.318 1.617-.937 2.678-.26.445-.312.945-.141 1.373.17.428.58.787 1.15 1.031.4.171.827.262 1.26.267.26.005.518-.042.761-.138.46-.19.85-.527 1.111-.961.628-1.091.79-1.567.965-2.825a2.438 2.438 0 0 0-.28-1.463c-.27-.51-.922-.981-1.662-1.202zm1.59 2.613c-.165 1.212-.315 1.64-.92 2.69-.22.367-.55.65-.94.81a1.586 1.586 0 0 1-.618.107 2.97 2.97 0 0 1-1.13-.237c-.478-.203-.828-.506-.957-.831-.128-.325-.087-.696.116-1.045.642-1.095.836-1.569.986-2.823.05-.409.238-.726.53-.895.293-.168.746-.183 1.243-.036.633.188 1.229.61 1.448 1.021.208.377.293.812.243 1.243v-.004z"/>
        <path d="M6.46 17.557c-.01.048 0 .098.025.138.026.041.067.07.114.079a.18.18 0 0 0 .21-.143c.433-2.168.433-8.622 0-10.791a.183.183 0 0 0-.174-.146.184.184 0 0 0-.175.22c.414 2.089.414 8.555 0 10.643zM14.73 15.287h-.026a.173.173 0 0 0-.106.036.184.184 0 0 0-.07.121c-.165 1.212-.315 1.64-.92 2.69a.188.188 0 0 0 .063.256.181.181 0 0 0 .248-.065c.628-1.091.79-1.567.966-2.825a.19.19 0 0 0-.034-.136.178.178 0 0 0-.121-.077z"/>
        <path fill-rule="nonzero" d="M17.018 10.938c.268-.32.402-.664.379-.969a1.038 1.038 0 0 0-.492-.787c-.633-.408-.84-.581-1.255-1.218a.99.99 0 0 0-.777-.48h-.034c-.288 0-.602.15-.889.425-.37.353-.615.83-.625 1.214-.015.336.076.668.259.948.45.66.69.897 1.35 1.33.279.177.607.256.934.226.373-.027.824-.298 1.15-.69zm-1.272.328a1.131 1.131 0 0 1-.62-.17c-.624-.41-.823-.606-1.249-1.231a1.241 1.241 0 0 1-.196-.729c.008-.287.214-.671.512-.956.228-.218.465-.34.663-.326a.636.636 0 0 1 .497.319c.44.675.685.888 1.36 1.324a.664.664 0 0 1 .327.504c.016.204-.091.46-.293.702-.265.316-.628.542-.906.563h-.095z"/>
        <path d="M10.568 15.95c-.374-.708-.508-1.163-.654-2.212a2.07 2.07 0 0 1 .241-1.237c.22-.415.815-.836 1.448-1.021.497-.146.948-.133 1.243.037.22.13.384.34.461.588a.181.181 0 0 0 .091.104.174.174 0 0 0 .136.008.18.18 0 0 0 .102-.093.188.188 0 0 0 .008-.14 1.405 1.405 0 0 0-.624-.787 1.54 1.54 0 0 0-.772-.185 2.643 2.643 0 0 0-.746.117c-.735.218-1.39.691-1.66 1.202a2.443 2.443 0 0 0-.28 1.463c.15 1.085.3 1.586.692 2.333.048.088.155.12.242.074a.187.187 0 0 0 .072-.25z"/>
        <path fill-rule="nonzero" d="M18.73 6.108c.132-.2.197-.44.187-.68-.007-.277-.182-.618-.444-.869-.206-.197-.434-.305-.644-.305h-.026a.734.734 0 0 0-.574.353c-.278.425-.414.54-.838.813a.768.768 0 0 0-.362.58c-.017.224.079.473.271.703.232.278.555.47.823.49.235.02.47-.037.672-.163.457-.3.623-.464.935-.922zm-1.128.613a.713.713 0 0 1-.39.109h-.063c-.141-.011-.382-.13-.58-.364-.128-.153-.196-.311-.186-.435a.396.396 0 0 1 .196-.3c.46-.297.64-.454.944-.918a.381.381 0 0 1 .293-.193h.012a.643.643 0 0 1 .4.207c.222.212.327.466.332.611a.782.782 0 0 1-.123.462c-.284.416-.417.547-.835.82z"/>
    </g>
</svg>
