<svg width="26" height="27" viewBox="0 0 26 27" fill="none" xmlns="http://www.w3.org/2000/svg">
<path d="M21.9131 2.54306H12.5214C12.1064 2.54347 11.7085 2.70852 11.415 3.00197C11.1216 3.29543 10.9565 3.69332 10.9561 4.10833V11.9347H3.12973C2.71472 11.9351 2.31683 12.1002 2.02337 12.3936C1.72991 12.6871 1.56487 13.085 1.56445 13.5V24.4569H23.4783V4.10833C23.4779 3.69332 23.3129 3.29543 23.0194 3.00197C22.726 2.70852 22.3281 2.54347 21.9131 2.54306ZM7.04293 22.8917V17.4132H10.1735V22.8917H7.04293ZM21.9131 22.8917H11.7388V16.6306C11.7388 16.423 11.6563 16.2239 11.5095 16.0771C11.3628 15.9304 11.1637 15.8479 10.9561 15.8479H6.26029C6.05272 15.8479 5.85365 15.9304 5.70688 16.0771C5.5601 16.2239 5.47765 16.423 5.47765 16.6306V22.8917H3.12973V13.5H12.5214V4.10833H21.9131V22.8917Z" fill="#CF8D56"/>
<path d="M14.0869 7.23889H15.6522V8.80417H14.0869V7.23889Z" fill="#CF8D56"/>
<path d="M18.7832 7.23889H20.3485V8.80417H18.7832V7.23889Z" fill="#CF8D56"/>
<path d="M14.0869 11.9347H15.6522V13.5H14.0869V11.9347Z" fill="#CF8D56"/>
<path d="M18.7832 11.9347H20.3485V13.5H18.7832V11.9347Z" fill="#CF8D56"/>
<path d="M14.0869 16.6306H15.6522V18.1958H14.0869V16.6306Z" fill="#CF8D56"/>
<path d="M18.7832 16.6306H20.3485V18.1958H18.7832V16.6306Z" fill="#CF8D56"/>
</svg>
