<svg width="22" height="22" viewBox="0 0 22 22" fill="none" xmlns="http://www.w3.org/2000/svg">
<path d="M18.7004 2H10.9925C10.6519 2.00034 10.3253 2.1358 10.0845 2.37664C9.84365 2.61748 9.7082 2.94404 9.70786 3.28464V9.70786H3.28464C2.94404 9.7082 2.61748 9.84365 2.37664 10.0845C2.1358 10.3253 2.00034 10.6519 2 10.9925V19.985H19.985V3.28464C19.9847 2.94404 19.8492 2.61748 19.6084 2.37664C19.3675 2.1358 19.041 2.00034 18.7004 2ZM6.49625 18.7004V14.2041H9.06554V18.7004H6.49625ZM18.7004 18.7004H10.3502V13.5618C10.3502 13.3914 10.2825 13.2281 10.162 13.1076C10.0416 12.9871 9.87821 12.9195 9.70786 12.9195H5.85393C5.68357 12.9195 5.5202 12.9871 5.39974 13.1076C5.27928 13.2281 5.21161 13.3914 5.21161 13.5618V18.7004H3.28464V10.9925H10.9925V3.28464H18.7004V18.7004Z" fill="#1D86FF"/>
<path d="M12.2773 5.85394H13.562V7.13859H12.2773V5.85394Z" fill="#1D86FF"/>
<path d="M16.1309 5.85394H17.4155V7.13859H16.1309V5.85394Z" fill="#1D86FF"/>
<path d="M12.2773 9.70786H13.562V10.9925H12.2773V9.70786Z" fill="#1D86FF"/>
<path d="M16.1309 9.70786H17.4155V10.9925H16.1309V9.70786Z" fill="#1D86FF"/>
<path d="M12.2773 13.5618H13.562V14.8464H12.2773V13.5618Z" fill="#1D86FF"/>
<path d="M16.1309 13.5618H17.4155V14.8464H16.1309V13.5618Z" fill="#1D86FF"/>
</svg>
