<svg xmlns="http://www.w3.org/2000/svg" width="24" height="24" viewBox="0 0 24 24">
    <g fill="#000" fill-rule="nonzero">
        <path d="M19.98 9.871a.291.291 0 0 1-.025-.079c-.097-.823-.489-1.507-1.196-2.091-.68-.561-1.539-.958-2.705-1.249-.96-.24-1.995-.37-3.255-.41-1.792-.056-3.256.054-4.601.35-1.08.238-1.909.57-2.61 1.045-.811.55-1.3 1.217-1.494 2.038-.02.084-.036.168-.053.252l-.022.105.007.715.023.12c.105.66.344 1.205.73 1.665.247.293.576.384.95.264.194-.062.395-.156.582-.272.342-.213.678-.434 1.014-.655l.423-.278c.424-.276.551-.626.4-1.101l-.054-.18a3.39 3.39 0 0 0-.126-.376c-.117-.276-.049-.527.199-.725.157-.126.3-.208.435-.25.422-.13.793-.227 1.134-.297a10.674 10.674 0 0 1 2.16-.244c.376 0 .736.026 1.09.077.62.09 1.24.221 1.842.348.195.042.391.083.587.123.217.045.406.176.564.392.112.154.138.32.075.493-.049.136-.091.274-.134.412a16.43 16.43 0 0 1-.07.223c-.154.473-.013.85.419 1.12.126.079.252.16.376.24.124.08.248.16.373.238.101.063.201.129.301.194.243.158.493.322.754.447.51.244.925.133 1.266-.341a3.494 3.494 0 0 0 .606-1.518c.012-.064.023-.13.036-.194l-.002-.601zm-.854 2.107c-.266.404-.575.483-1.007.26-.193-.1-.376-.221-.553-.338-.065-.043-.13-.087-.196-.129l-.397-.256c-.174-.112-.346-.224-.52-.334-.346-.218-.437-.462-.313-.842l.208-.638a.705.705 0 0 0-.098-.667 1.322 1.322 0 0 0-.788-.552c-.821-.203-1.629-.393-2.47-.482-1.309-.137-2.629-.023-4.036.351a6.068 6.068 0 0 0-.517.158c-.27.098-.496.27-.674.51a.715.715 0 0 0-.114.69c.077.232.154.465.224.699.097.316.017.538-.258.72l-.11.075c-.471.313-.957.637-1.448.94-.243.15-.435.222-.604.222a.558.558 0 0 1-.135-.016c-.201-.05-.369-.21-.544-.521-.613-1.085-.629-2.131-.049-3.11.361-.61.93-1.08 1.793-1.483.847-.394 1.788-.643 2.879-.762.596-.066 1.205-.106 1.793-.146.263-.017.526-.035.788-.054l.104-.008.004.046c1.114.01 2.55.073 3.966.43.958.242 1.694.565 2.317 1.017 1.426 1.035 1.73 2.731.755 4.22z"/>
        <path d="M17.508 13.469l-.144-.088c-.165-.103-.335-.2-.504-.296a11.62 11.62 0 0 1-.745-.45c-.788-.53-1.19-1.248-1.196-2.132-.004-.551-.513-1.039-1.113-1.064-.042-.003-.102.003-.139.036-.03.027-.045.069-.046.125-.002.075-.002.15-.001.224v.201c-.006.23-.167.384-.403.384-.81.002-1.621.002-2.43 0-.244 0-.403-.156-.406-.398v-.186c0-.074.001-.149-.001-.223-.002-.06-.018-.103-.048-.13-.04-.034-.103-.035-.148-.033-.63.05-1.095.517-1.105 1.11-.013.831-.368 1.497-1.055 1.98-.298.208-.617.393-.926.572-.192.11-.384.22-.571.337l-.042.027c-.323.2-.656.408-.954.643a1.265 1.265 0 0 0-.495 1.017c-.006.91-.005 1.731.001 2.508.003.335.092.609.273.837.271.341.651.5 1.196.5 1.257.002 2.513.002 3.77.002H15c.847 0 1.693.001 2.54-.002.652-.003 1.147-.308 1.323-.817.061-.178.096-.384.1-.595.006-.432.004-.864.004-1.296 0-.349-.002-.697.002-1.046.004-.476-.171-.854-.522-1.124-.295-.227-.622-.428-.939-.623zm1.163 2.966v1.13c-.002.722-.413 1.12-1.158 1.12a8909.095 8909.095 0 0 1-11.018 0c-.767 0-1.03-.404-1.117-.743a1.591 1.591 0 0 1-.045-.385c-.002-.336-.002-.672-.002-1.007.001-.44.001-.88-.003-1.32-.004-.397.144-.718.438-.951.214-.17.456-.334.783-.531.2-.121.405-.236.609-.352.307-.173.624-.352.92-.547.692-.456 1.11-1.047 1.241-1.759.028-.152.038-.314.047-.47l.005-.077c.022-.352.223-.618.564-.748l.136-.051.01.23c.002.059.003.114.012.167.05.314.337.552.667.553.805.003 1.61.003 2.415.001.456-.001.732-.264.74-.702v-.215l.126.025c.341.069.583.385.588.77.008.578.163 1.07.474 1.504.253.351.58.65.972.886.252.152.508.296.765.44.257.143.513.287.765.44.242.145.483.321.715.523.235.203.353.481.352.827l-.001 1.242z"/>
        <path d="M12.001 12.358c-.645 0-1.253.244-1.711.687a2.275 2.275 0 0 0-.709 1.653c.004 1.282 1.09 2.325 2.42 2.326.645 0 1.253-.244 1.71-.685a2.28 2.28 0 0 0 .71-1.655c-.004-1.282-1.088-2.326-2.42-2.326zm-.005 4.38h-.003a2.14 2.14 0 0 1-1.494-.602 2 2 0 0 1-.622-1.453c.003-1.126.957-2.04 2.126-2.04h.005a2.145 2.145 0 0 1 1.498.606c.401.39.621.904.618 1.45-.004 1.125-.96 2.04-2.128 2.04z"/>
    </g>
</svg>
