<svg xmlns="http://www.w3.org/2000/svg" width="24" height="24" viewBox="0 0 24 24">
    <g fill="#000" fill-rule="evenodd">
        <path d="M14.427 11.35a.77.77 0 0 1-.577-.272l-.313.223c.215.265.538.423.882.43h.012c.34-.008.66-.166.87-.43l-.312-.222a.765.765 0 0 1-.562.271z"/>
        <path fill-rule="nonzero" d="M17.927 16.476h-.64v-.584h-.385v.584h-.64a.266.266 0 0 0-.265.263v2.098c0 .145.119.263.266.263h.865v.85h.388v-.848h.414a.266.266 0 0 0 .266-.263v-2.097a.262.262 0 0 0-.078-.19.268.268 0 0 0-.191-.076zm-.119 2.25h-1.427v-1.867h.52v.283h.386v-.283h.521v1.867z"/>
        <path d="M11.408 18.112h1v1.839h-1zM18.797 9.487h1v1h-1zM18.797 8.72h.385c-.01-1.678-.654-3.203-1.684-4l-.235.305c.94.726 1.524 2.134 1.534 3.694zM7.744 9.84h1v1.971h-1zM7.744 12.405h1v1h-1z"/>
        <path fill-rule="nonzero" d="M18.468 14.284l-.05-.027.064-.063a1.332 1.332 0 0 0-.01-1.732l-.226-.261a.96.96 0 0 1-.233-.625v-1.358l.007-.01a.731.731 0 0 0 .11-.386v-.15a.72.72 0 0 0-.046-.25v-.009l.05-.744c0-2.209-1.637-4.007-3.648-4.007h-.209c-2.012 0-3.648 1.798-3.648 4.009l.024 1.136c.002.17.062.334.169.466l.008.012v1.29a.96.96 0 0 1-.232.626l-.225.261a1.333 1.333 0 0 0-.015 1.732l.034.04-.047.023a3.13 3.13 0 0 0-1.12.99l-.077.111V4.27a.268.268 0 0 0-.17-.249.273.273 0 0 0-.296.062L4.161 8.686a.267.267 0 0 0-.055.292c.042.1.14.165.25.164l4.402-.008v10.818h.385v-3.535c0-.077.012-.153.035-.225a2.755 2.755 0 0 1 2.233-1.883l.909-.138a1.29 1.29 0 0 0 .337-.1l.059-.027v.702c0 .127.066.246.175.314a.383.383 0 0 0 .362.026l1.235-.564 1.237.564a.383.383 0 0 0 .362-.025.37.37 0 0 0 .174-.315v-.614l.053.014c.041.01.083.019.126.025l.91.138a2.753 2.753 0 0 1 2.227 1.887.727.727 0 0 1 .036.225v3.535h.384v-3.54c0-.115-.017-.23-.053-.34a3.12 3.12 0 0 0-1.476-1.792zm-9.71-5.53L4.62 8.76l4.137-4.215v4.207zm5.513-3.716h.213c1.796 0 3.26 1.625 3.263 3.62l-.023.351-.055-.022a.754.754 0 0 0-.287-.057h-.357c-.72-.1-1.047-1.125-1.18-1.727a.609.609 0 0 0-.742-.457c-.396.098-.752.463-1.057 1.083-.482.986-1.727 1.093-2.097 1.102h-.524c-.12 0-.239.029-.345.083l-.06.03-.008-.377c.001-2.002 1.465-3.629 3.263-3.629h-.004zm3.471 4.634v.15c0 .2-.163.361-.364.361h-.184V9.31h.184c.097 0 .191.037.26.105.07.068.108.161.108.258h-.004zm-.93-.396v.704c0 1.273-.988 2.31-2.204 2.31h-.478a2.197 2.197 0 0 1-1.902-1.14 2.3 2.3 0 0 1-.252-1.464l.057-.377h.034c.522-.033 1.797-.226 2.328-1.31.246-.5.531-.815.803-.881a.223.223 0 0 1 .27.168c.24 1.09.707 1.795 1.315 1.982l.03.008zm-5.25.867v.043h-.138a.387.387 0 0 1-.388-.384v-.107c0-.212.173-.385.387-.386h.217l-.048.318c-.026.17-.036.343-.03.515zm1.471 2.865a.921.921 0 0 1-.771.785l-.91.135a3.26 3.26 0 0 0-.566.14l-.027.009-.106-.124a.96.96 0 0 1 .007-1.244l.225-.261c.21-.244.325-.553.324-.872v-1.04l.052.01a.784.784 0 0 0 .163.018h.187l.007.034a2.62 2.62 0 0 0 1.457 1.837l.028.013-.07.56zm.07 1.726v-.717l.065.041c.206.127.435.215.674.258l.127.025-.866.393zm1.316-.746c-.7 0-1.044-.224-1.186-.357l-.025-.023.018-.03c.101-.159.166-.337.189-.524l.06-.47.046.012c.199.05.403.076.609.077h.478c.214-.001.426-.03.632-.084l.047-.011.06.475c.024.19.09.374.197.536l.017.028-.022.023c-.122.13-.43.346-1.12.346v.002zm1.46.746l-.905-.411.116-.03c.264-.058.508-.186.705-.37l.026-.025.046.034.013.03v.772zm2.315-.79l-.156.148-.025-.009a3.237 3.237 0 0 0-.603-.152l-.91-.138a.921.921 0 0 1-.772-.785l-.07-.567.026-.013a2.694 2.694 0 0 0 1.444-1.833l.007-.032h.246a.75.75 0 0 0 .195-.027l.053-.014v1.054c0 .32.115.628.325.872l.225.261a.956.956 0 0 1 .015 1.233v.002z"/>
    </g>
</svg>
