<svg width="16" height="20" viewBox="0 0 16 20" fill="none" xmlns="http://www.w3.org/2000/svg">
<g clip-path="url(#clip0_49_214)">
<path d="M1.97297 19.9998C2.50233 19.398 3.03169 18.7962 3.56104 18.1948C3.73206 18.0006 3.90494 17.8073 4.10857 17.5778C4.00792 17.5778 3.94921 17.5778 3.89096 17.5778C3.17195 17.5778 2.45294 17.5817 1.73346 17.5768C0.904473 17.5715 0.275396 17.0743 0.0610438 16.2499C0.0177074 16.083 0.00326188 15.903 0.00326188 15.7288C0 11.491 0.00232992 7.25366 0 3.01586C0 2.30051 0.390494 1.84546 0.912861 1.48485C1.69665 0.9432 2.58341 0.675065 3.48742 0.468582C5.30895 0.0526796 7.15471 -0.053987 9.01351 0.0228325C10.2982 0.0761659 11.5708 0.220508 12.8211 0.542466C13.617 0.747481 14.3961 1.00436 15.0885 1.48387C15.4781 1.75347 15.8122 2.08032 15.9432 2.57305C15.9809 2.71494 15.9972 2.86809 15.9972 3.01586C16 7.25366 16.0005 11.491 15.9986 15.7288C15.9981 16.8253 15.2777 17.5744 14.2297 17.5773C13.4795 17.5793 12.7297 17.5783 11.9795 17.5788C11.9674 17.5788 11.9553 17.5827 11.9157 17.59C11.9609 17.6463 11.9953 17.6938 12.034 17.7373C12.6598 18.4419 13.2861 19.1455 13.9119 19.8506C13.9534 19.8976 13.9893 19.9499 14.028 19.9998H12.5023C12.493 19.9837 12.4856 19.9651 12.4734 19.9514C11.7982 19.1905 11.1244 18.4287 10.4427 17.6737C10.3891 17.6145 10.2829 17.5822 10.2008 17.5817C8.96878 17.5759 7.73719 17.5768 6.50513 17.5783C6.21482 17.5783 5.89049 17.502 5.64352 17.6126C5.40354 17.7202 5.24091 18.0216 5.04753 18.2408C4.53029 18.8265 4.01445 19.4137 3.49814 19.9998H1.97297ZM7.9972 16.4055C10.0429 16.4055 12.089 16.4055 14.1347 16.4055C14.7013 16.4055 14.883 16.2166 14.883 15.6285C14.883 11.5208 14.8756 7.41317 14.8938 3.30552C14.8956 2.85782 14.7344 2.59653 14.3933 2.40179C14.3062 2.35237 14.2218 2.29757 14.1328 2.25256C13.0396 1.70063 11.863 1.48289 10.6747 1.33121C9.3863 1.1673 8.09227 1.13158 6.79543 1.20351C5.51771 1.27396 4.25256 1.43054 3.01864 1.798C2.43989 1.97023 1.87325 2.17916 1.38257 2.56375C1.20317 2.70418 1.1123 2.87201 1.11277 3.12399C1.11929 7.30993 1.11743 11.4954 1.11743 15.6813C1.11743 16.1931 1.3192 16.406 1.80429 16.406C3.86859 16.406 5.93337 16.406 7.99767 16.406L7.9972 16.4055Z" fill="black"/>
<path d="M2.2417 10.1412V3.52393H13.7524V10.1412H2.2417ZM7.43415 4.69922H3.36425V8.97224H7.43368V4.69971L7.43415 4.69922ZM12.6378 8.9742V4.70166H8.56835V8.97469H12.6378V8.9742Z" fill="black"/>
<path d="M2.23493 13.484C2.227 12.5314 2.9791 11.7324 3.89522 11.7192C4.80715 11.7059 5.58208 12.5143 5.58069 13.4772C5.57929 14.4338 4.82253 15.2289 3.91107 15.2323C3.00193 15.2352 2.24285 14.4436 2.23493 13.484ZM4.46466 13.4806C4.46698 13.1621 4.21582 12.894 3.91247 12.8915C3.60911 12.8891 3.35375 13.1528 3.35142 13.4713C3.34909 13.7899 3.60026 14.058 3.90361 14.0604C4.20697 14.0629 4.46233 13.7992 4.46466 13.4806Z" fill="black"/>
<path d="M12.1009 11.7191C13.0147 11.7269 13.7691 12.5244 13.7658 13.4791C13.7626 14.4439 12.9853 15.2503 12.0757 15.2322C11.1573 15.2141 10.4075 14.4131 10.4201 13.4624C10.4327 12.5005 11.1936 11.7112 12.1009 11.7191ZM12.0953 14.0603C12.3986 14.0589 12.6512 13.7922 12.6498 13.4737C12.6484 13.1551 12.3944 12.8899 12.0911 12.8914C11.7877 12.8929 11.5352 13.1595 11.5366 13.4781C11.538 13.7966 11.7919 14.0618 12.0953 14.0603Z" fill="black"/>
</g>
<defs>
<clipPath id="clip0_49_214">
<rect width="16" height="20" fill="white"/>
</clipPath>
</defs>
</svg>
