<svg width="23" height="29" viewBox="0 0 23 29" fill="none" xmlns="http://www.w3.org/2000/svg">
<path d="M6.10818 0.810791C9.7052 0.810791 13.3028 0.810791 16.8998 0.810791C16.9749 0.829032 17.0488 0.854683 17.125 0.863803C19.7661 1.18017 21.9209 3.44885 21.9373 6.02478C21.966 10.4795 21.9473 14.9348 21.9467 19.3895C21.9467 19.8928 21.7719 20.3397 21.444 20.7262C20.9391 21.3213 20.2728 21.5265 19.4951 21.5254C14.1685 21.5174 8.84187 21.5214 3.51526 21.5208C3.41731 21.5208 3.31995 21.5191 3.22201 21.5145C1.97803 21.4587 1.06426 20.5489 1.06251 19.3331C1.05723 14.9348 1.02673 10.5365 1.076 6.13935C1.10121 3.91969 2.24313 2.29741 4.2953 1.33236C4.85541 1.06958 5.50174 0.980087 6.10818 0.810791ZM3.98856 6.43234V12.372H10.3163V6.43234H3.98856ZM19.0183 12.3725V6.43234H12.6917V12.3725H19.0183ZM16.0699 17.0792C16.0652 17.8881 16.7203 18.5356 17.5467 18.5379C18.3719 18.5402 19.04 17.8921 19.0394 17.09C19.0394 16.3023 18.3843 15.6559 17.5731 15.6422C16.7544 15.6279 16.0746 16.2778 16.0699 17.0792ZM6.93749 17.0855C6.93515 16.2835 6.25774 15.6308 5.44016 15.6428C4.62785 15.6547 3.9739 16.2971 3.9698 17.086C3.96569 17.8881 4.63137 18.5385 5.45599 18.5379C6.28413 18.5379 6.94043 17.8943 6.93749 17.0849V17.0855Z" fill="#1D86FF"/>
<path opacity="0.1" d="M18.4017 26.6788L2.88281 28.4032L4.60713 25.5293L18.4017 26.6788Z" fill="black"/>
<path d="M0.00878906 28.3422C0.0750638 28.2778 0.150723 28.2197 0.207027 28.1478C1.46683 26.5495 2.72664 24.9517 3.97882 23.3477C4.09143 23.2029 4.20404 23.1465 4.38996 23.1487C5.2181 23.159 6.04683 23.1533 6.94124 23.1533C6.56177 23.6378 6.21691 24.0785 5.84507 24.5533H17.1628C16.8003 24.0899 16.4555 23.6498 16.0866 23.179C16.1898 23.1681 16.2602 23.1544 16.3311 23.1544C17.0936 23.1527 17.856 23.1596 18.6185 23.1493C18.8044 23.147 18.917 23.2023 19.0302 23.3477C20.2759 24.9443 21.5293 26.5352 22.7832 28.1262C22.846 28.2054 22.9275 28.271 23.0002 28.3428C22.9416 28.3616 22.8829 28.3969 22.8243 28.3975C21.9445 28.4009 21.0648 28.3998 20.185 28.3998C19.7481 27.8412 19.317 27.278 18.8683 26.7279C18.7968 26.6407 18.649 26.5643 18.5358 26.5637C13.8485 26.5558 9.16115 26.5558 4.47383 26.5637C4.36063 26.5637 4.21225 26.6407 4.14128 26.7279C3.69261 27.278 3.26153 27.8412 2.82458 28.3998C1.94424 28.3998 1.06332 28.4009 0.18298 28.3975C0.124916 28.3975 0.0674392 28.3622 0.00937556 28.3428L0.00878906 28.3422Z" fill="#1D86FF"/>
</svg>
