<svg width="22" height="22" viewBox="0 0 22 22" fill="none" xmlns="http://www.w3.org/2000/svg">
<path fill-rule="evenodd" clip-rule="evenodd" d="M5.89655 2H15.5517C16.3199 2 17.0567 2.30517 17.5999 2.84838C18.1431 3.39159 18.4483 4.12834 18.4483 4.89655V15.1954C18.4483 15.9636 18.1431 16.7004 17.5999 17.2436C17.0567 17.7868 16.3199 18.092 15.5517 18.092H15.2299L16.0023 19.1218C16.1559 19.3267 16.2219 19.5842 16.1857 19.8377C16.1495 20.0912 16.0141 20.3199 15.8092 20.4736C15.6043 20.6272 15.3468 20.6932 15.0933 20.657C14.8398 20.6208 14.6111 20.4853 14.4575 20.2805L12.8161 18.092H8.63219L6.99081 20.2805C6.91473 20.3819 6.81942 20.4674 6.71032 20.532C6.60121 20.5966 6.48046 20.639 6.35494 20.657C6.22942 20.6749 6.1016 20.6679 5.97877 20.6365C5.85594 20.605 5.74052 20.5497 5.63908 20.4736C5.53765 20.3975 5.45219 20.3022 5.38759 20.1931C5.32299 20.084 5.28051 19.9632 5.26258 19.8377C5.24465 19.7122 5.25161 19.5844 5.28308 19.4615C5.31455 19.3387 5.3699 19.2233 5.44598 19.1218L6.21839 18.092H5.89655C5.12834 18.092 4.39159 17.7868 3.84838 17.2436C3.30517 16.7004 3 15.9636 3 15.1954V4.89655C3 4.12834 3.30517 3.39159 3.84838 2.84838C4.39159 2.30517 5.12834 2 5.89655 2ZM15.5512 3.93104H5.89599C5.63992 3.93104 5.39433 4.03276 5.21326 4.21383C5.03219 4.3949 4.93047 4.64049 4.93047 4.89656V9.72415H16.5167V4.89656C16.5167 4.64049 16.415 4.3949 16.2339 4.21383C16.0528 4.03276 15.8072 3.93104 15.5512 3.93104ZM5.89599 16.1609H15.5512C15.8072 16.1609 16.0528 16.0592 16.2339 15.8781C16.415 15.6971 16.5167 15.4515 16.5167 15.1954V11.6552H4.93047V15.1954C4.93047 15.4515 5.03219 15.6971 5.21326 15.8781C5.39433 16.0592 5.63992 16.1609 5.89599 16.1609Z" fill="#1D86FF"/>
<circle cx="8.10765" cy="13.8678" r="1.48851" fill="#1D86FF"/>
<circle cx="13.4182" cy="13.8678" r="1.48851" fill="#1D86FF"/>
</svg>
