<svg xmlns="http://www.w3.org/2000/svg" width="24" height="24" viewBox="0 0 24 24">
    <g fill="#010101" fill-rule="evenodd">
        <path fill-rule="nonzero" d="M6.379 6.872c0 .844.703 1.53 1.57 1.53.868 0 1.571-.686 1.571-1.53 0-.845-.703-1.53-1.57-1.53-.867.002-1.57.686-1.571 1.53zm1.57-1.156c.656 0 1.188.517 1.188 1.156 0 .638-.532 1.156-1.188 1.156-.655 0-1.187-.518-1.187-1.156 0-.639.532-1.156 1.187-1.156zM9.236 9.235a.193.193 0 0 0-.183-.133H6.846a.193.193 0 0 0-.183.133l-1.655 5.37a.181.181 0 0 0 .03.165.195.195 0 0 0 .153.075H6.38v3.573a.19.19 0 0 0 .192.186h2.757a.19.19 0 0 0 .192-.186v-3.572h1.188a.189.189 0 0 0 .19-.187.164.164 0 0 0-.008-.053L9.236 9.235zm.092 5.237a.19.19 0 0 0-.191.187v3.573H8.14v-3.76h-.383v3.76h-.996v-3.573a.19.19 0 0 0-.191-.187H5.449l1.54-4.997H8.91l1.54 4.997H9.328zM17.326 8.4c.636 0 1.209-.372 1.452-.943a1.5 1.5 0 0 0-.34-1.667 1.602 1.602 0 0 0-1.713-.332 1.53 1.53 0 0 0-.969 1.414c.002.843.704 1.526 1.57 1.528zm0-2.684c.656 0 1.187.517 1.187 1.156 0 .638-.531 1.156-1.187 1.156S16.14 7.51 16.14 6.872c0-.639.532-1.156 1.187-1.156zM18.154 9.102h-1.655c-1.018.004-1.843.807-1.847 1.798v3.76a.19.19 0 0 0 .192.186h.912v3.573c0 .103.086.186.191.186h2.759c.05 0 .099-.02.135-.054a.184.184 0 0 0 .056-.132v-3.573h.912a.189.189 0 0 0 .191-.187V10.9c-.004-.99-.828-1.793-1.846-1.797zm1.463 5.37h-.72V11.25h-.384v6.982h-.996v-3.76h-.382v3.76h-.996V11.25h-.383v3.222h-.72V10.9c.002-.786.656-1.422 1.463-1.425h1.655c.807.003 1.46.639 1.463 1.425v3.572z"/>
        <path d="M12.446 4h1v15.947h-1z"/>
    </g>
</svg>
