<svg xmlns="http://www.w3.org/2000/svg" width="24" height="24" viewBox="0 0 24 24">
    <g fill="#000" fill-rule="evenodd">
        <path d="M10.104 16.683a.227.227 0 1 0 .163-.389.23.23 0 0 0-.39.16c0 .126.101.228.227.229z"/>
        <path fill-rule="nonzero" d="M18.43 10.04a1.487 1.487 0 0 0-1.334-.82h-1.37l.045-.117c.57-1.508.867-3.105.88-4.717a.226.226 0 0 0-.121-.202c-.607-.319-1.289-.219-1.825.267-.49.445-1.098.445-1.588 0-.659-.597-1.544-.597-2.203 0-.49.445-1.098.445-1.588 0-.54-.492-1.253-.585-1.86-.247a.228.228 0 0 0-.117.2c.015 1.605.313 3.196.88 4.7l.046.117h-1.37c-.566 0-1.084.32-1.335.825a134.872 134.872 0 0 1-1.325 2.634c-.224.435-.245.476-.245.543v5.218a1.49 1.49 0 0 0 1.492 1.483h13.016A1.49 1.49 0 0 0 20 18.441v-5.218c0-.068-.021-.112-.25-.553-.212-.414-.607-1.179-1.32-2.63zM7.81 4.604v-.062l.058-.022c.396-.142.805-.047 1.152.268.66.598 1.544.598 2.204 0 .49-.444 1.098-.444 1.587 0 .66.598 1.544.598 2.204 0 .335-.305.733-.404 1.118-.28l.062.02v.064c-.04 1.631-.382 3.24-1.01 4.748a7.37 7.37 0 0 1-1.014 1.74l-.026.03h-.738l.078-.13c.501-.864.928-1.77 1.274-2.706a.229.229 0 0 0-.43-.156 16.136 16.136 0 0 1-1.436 2.957l-.027.04h-.634V8.19a.228.228 0 0 0-.229-.227.228.228 0 0 0-.228.227v2.915h-.638l-.026-.04a16.081 16.081 0 0 1-1.437-2.952.23.23 0 0 0-.422-.018.225.225 0 0 0-.007.174c.346.936.772 1.842 1.274 2.706l.078.13h-.738l-.026-.031a7.4 7.4 0 0 1-1.014-1.74 13.166 13.166 0 0 1-1.01-4.732zm-1.831 5.642a1.03 1.03 0 0 1 .926-.57h1.563l.023.052c.196.433.428.85.695 1.243l.093.136H8.21a.228.228 0 0 0 0 .455h7.582a.228.228 0 0 0 0-.455h-1.07l.094-.136c.267-.394.499-.81.694-1.243l.023-.051h1.564c.392-.001.75.219.925.568l1.381 2.747H4.598l1.38-2.746zm13.564 8.19c0 .568-.464 1.029-1.035 1.03H5.492a1.033 1.033 0 0 1-1.035-1.03v-4.989h15.086v4.989z"/>
        <path fill-rule="nonzero" d="M8.841 17.94h6.318a.228.228 0 0 0 .229-.228v-2.514a.228.228 0 0 0-.23-.227H8.842a.228.228 0 0 0-.229.227v2.514c0 .126.103.227.23.227zm.228-2.515h5.858v2.06H9.07v-2.06z"/>
        <path d="M11.14 16.455c0 .125.102.227.228.228h2.528a.228.228 0 0 0 0-.455h-2.528a.228.228 0 0 0-.228.227z"/>
    </g>
</svg>
