<svg width="20" height="26" viewBox="0 0 20 26" fill="none" xmlns="http://www.w3.org/2000/svg">
<path d="M7.04118 6.53582C7.04472 6.51899 7.05169 6.503 7.06169 6.48877C7.07169 6.47454 7.08451 6.46235 7.09943 6.45291C7.11434 6.44347 7.13105 6.43695 7.14859 6.43374C7.16614 6.43053 7.18417 6.43069 7.20165 6.43421C7.22051 6.43813 7.23827 6.44595 7.25368 6.45713C7.26909 6.46831 7.28178 6.48257 7.29088 6.49894L7.35194 6.45604C6.96055 6.07069 7.07875 5.74028 7.32533 5.5446L5.1218 2.23303C5.09712 2.25089 5.07094 2.26675 5.04353 2.28044C4.76799 2.41592 4.49558 2.24883 4.27484 1.99219L4.22083 2.03208C4.23286 2.06335 4.23557 2.09724 4.22865 2.12992C4.22407 2.15218 4.21496 2.17335 4.20185 2.19222C4.18874 2.21108 4.17188 2.22727 4.15224 2.23986C4.1326 2.25245 4.11058 2.26118 4.08742 2.26556C4.06426 2.26994 4.04044 2.26989 4.0173 2.26539C3.99067 2.25999 3.96574 2.24864 3.9445 2.23228L3.8764 2.28195C3.90435 2.32584 3.91387 2.37832 3.90302 2.42871C3.89629 2.45654 3.88392 2.48281 3.86663 2.50604C3.84933 2.52927 3.82745 2.54899 3.80223 2.56409C3.777 2.57919 3.74893 2.58936 3.71962 2.59402C3.69031 2.59869 3.66033 2.59776 3.63139 2.59128C3.58676 2.58265 3.54569 2.56173 3.51319 2.53107L3.45605 2.57096C3.47996 2.59068 3.49816 2.61602 3.50886 2.64451C3.51956 2.673 3.5224 2.70367 3.51711 2.73353C3.50099 2.78384 3.46498 2.82607 3.41682 2.85112C3.36866 2.87617 3.3122 2.88205 3.25957 2.8675C3.20883 2.85788 3.16254 2.83313 3.12728 2.79675L3.07014 2.83589C3.08814 2.86298 3.10537 2.89083 3.12102 2.91943C3.29636 3.24682 3.24079 3.62013 3.0083 3.82258L5.5218 6.89332C5.54462 6.87703 5.5687 6.86244 5.59382 6.84966C5.87484 6.71043 6.23022 6.8173 6.45488 7.08674L6.52141 7.04083C6.50763 7.02058 6.50043 6.99685 6.50072 6.97265C6.50102 6.94845 6.50879 6.92488 6.52306 6.90494C6.53733 6.88501 6.55745 6.86961 6.58086 6.8607C6.60426 6.85179 6.62989 6.84978 6.65448 6.85493C6.68281 6.86055 6.7081 6.87578 6.72572 6.89783L6.78443 6.85644C6.77266 6.84103 6.76435 6.82344 6.76004 6.80478C6.75573 6.78612 6.7555 6.76681 6.75938 6.74806C6.76544 6.72166 6.77919 6.69746 6.79904 6.67831C6.81889 6.65915 6.844 6.64583 6.87143 6.63991C6.89887 6.63399 6.9275 6.6357 6.95395 6.64486C6.98041 6.65402 7.00361 6.67023 7.02083 6.69161L7.07562 6.65247C7.06035 6.63725 7.04922 6.61864 7.04321 6.59829C7.03721 6.57794 7.03651 6.55648 7.04118 6.53582Z" fill="#A5723F"/>
<path d="M7.06207 6.48797C7.06746 6.46198 7.08101 6.4382 7.10089 6.41986C7.12078 6.40151 7.14604 6.38947 7.17327 6.38537C7.20049 6.38126 7.22838 6.38529 7.25315 6.39691C7.27792 6.40853 7.29838 6.42718 7.31178 6.45034L7.37284 6.40819C6.98145 6.02284 7.09965 5.69244 7.34622 5.49675L5.1427 2.18518C5.1182 2.20307 5.09199 2.2187 5.06442 2.23184C4.78888 2.36882 4.51648 2.20098 4.29573 1.94434L4.24172 1.98423C4.25375 2.0155 4.25646 2.04939 4.24955 2.08207C4.24497 2.10433 4.23586 2.1255 4.22274 2.14436C4.20963 2.16323 4.19277 2.17942 4.17314 2.19201C4.1535 2.2046 4.13147 2.21333 4.10832 2.21771C4.08516 2.22209 4.06133 2.22204 4.0382 2.21754C4.01157 2.21214 3.98663 2.20079 3.9654 2.18443L3.8973 2.2341C3.92622 2.27902 3.93603 2.33293 3.9247 2.38463C3.91055 2.44031 3.87427 2.48844 3.82363 2.5187C3.773 2.54895 3.71204 2.55891 3.65385 2.54644C3.60922 2.53781 3.56815 2.51689 3.53565 2.48623L3.47851 2.52612C3.50242 2.54584 3.52062 2.57118 3.53132 2.59967C3.54202 2.62816 3.54486 2.65883 3.53957 2.68869C3.52345 2.739 3.48744 2.78123 3.43928 2.80628C3.39112 2.83133 3.33466 2.83721 3.28203 2.82266C3.23129 2.81304 3.185 2.78829 3.14974 2.75191L3.0926 2.7918C3.1111 2.81875 3.12809 2.84664 3.14348 2.87534C3.31882 3.20198 3.26403 3.57529 3.03076 3.77473L5.54348 6.84547C5.5665 6.82908 5.59085 6.81448 5.61628 6.80181C5.8973 6.66258 6.25268 6.76945 6.47734 7.03889L6.54309 6.99298C6.52931 6.97273 6.52211 6.949 6.5224 6.9248C6.52269 6.9006 6.53047 6.87703 6.54474 6.8571C6.55901 6.83716 6.57913 6.82176 6.60253 6.81285C6.62594 6.80394 6.65157 6.80194 6.67616 6.80708C6.70436 6.81301 6.72954 6.82817 6.7474 6.84998L6.8061 6.80859C6.79434 6.79318 6.78603 6.77559 6.78172 6.75693C6.77741 6.73827 6.77718 6.71896 6.78106 6.70021C6.78948 6.66339 6.81277 6.6313 6.84579 6.61098C6.87882 6.59065 6.91888 6.58377 6.95718 6.59183C6.99104 6.5986 7.02129 6.61675 7.0425 6.64301L7.0973 6.60538C7.08188 6.59007 7.07061 6.57136 7.06447 6.55089C7.05833 6.53042 7.05751 6.50881 7.06207 6.48797Z" fill="#663606"/>
<path d="M6.89164 6.1227C6.74135 5.84122 6.79301 5.5206 6.99966 5.35577L5.14761 2.57104C5.12741 2.58582 5.10593 2.59891 5.08342 2.61017C4.84859 2.72533 4.56131 2.64179 4.37344 2.42578L3.42471 3.07831C3.44043 3.10084 3.45481 3.12421 3.46776 3.1483C3.61493 3.42301 3.56874 3.73686 3.37305 3.9047L5.48655 6.48472C5.50603 6.47137 5.52643 6.4593 5.54761 6.44859C5.78244 6.33118 6.08225 6.4215 6.27011 6.64804L6.93548 6.19044C6.91904 6.16937 6.90495 6.14679 6.89164 6.1227ZM6.18714 6.493C6.01336 6.28452 5.73782 6.20097 5.51943 6.30935C5.49982 6.31905 5.48099 6.33012 5.46307 6.34247L3.5116 3.95889C3.69242 3.80385 3.73547 3.51408 3.59927 3.26045C3.58675 3.23787 3.57344 3.21604 3.55935 3.19497L4.43606 2.59286C4.60984 2.79156 4.87833 2.86908 5.09203 2.76371C5.11272 2.75274 5.13259 2.74042 5.15152 2.72683L6.86268 5.29857C6.67168 5.4491 6.62314 5.75015 6.76248 6.00755C6.775 6.02938 6.78753 6.05045 6.80162 6.07077L6.18714 6.493Z" fill="#C1874D"/>
<path d="M5.27979 3.53302L5.17725 3.39152L4.76942 3.66548L4.72559 3.60602L5.1342 3.33206L5.03243 3.19132L5.08097 3.1582L5.32911 3.4999L5.27979 3.53302Z" fill="#C1874D"/>
<path d="M4.96425 3.93391L4.92041 3.87446L5.37755 3.56738L5.42139 3.62759L4.96425 3.93391Z" fill="#C1874D"/>
<path d="M5.41766 4.25839C5.39819 4.27298 5.37557 4.2832 5.35146 4.28828C5.32734 4.29336 5.30235 4.29317 5.27832 4.28775C5.2249 4.27541 5.17857 4.24355 5.14916 4.19894C5.13178 4.17646 5.11982 4.15056 5.11413 4.12309C5.10845 4.09563 5.10918 4.06729 5.11629 4.04013C5.13126 3.98306 5.16819 3.93357 5.21961 3.90165L5.29789 3.8467C5.34764 3.81067 5.4097 3.794 5.47167 3.80004C5.5005 3.80319 5.52826 3.81237 5.55301 3.82693C5.57775 3.84149 5.59888 3.86109 5.61492 3.88433C5.64949 3.92707 5.66548 3.98102 5.65954 4.03486C5.65647 4.05862 5.64783 4.0814 5.63427 4.10148C5.62071 4.12155 5.60259 4.13841 5.58126 4.15077L5.53977 4.09357C5.55393 4.08529 5.56622 4.07436 5.5759 4.06144C5.58558 4.04851 5.59246 4.03384 5.59613 4.0183C5.59832 4.00142 5.59703 3.98429 5.59233 3.96789C5.58763 3.95149 5.57961 3.93614 5.56874 3.92272C5.55785 3.9069 5.54309 3.8939 5.52576 3.88484C5.50843 3.87579 5.48905 3.87096 5.46932 3.87079C5.42411 3.871 5.38018 3.88526 5.34408 3.91143L5.2658 3.96637C5.22739 3.98966 5.19818 4.02463 5.18282 4.06572C5.17602 4.08351 5.17388 4.10264 5.17662 4.12142C5.17935 4.14019 5.18686 4.15803 5.19848 4.17334C5.2176 4.20231 5.2476 4.22307 5.28224 4.2313C5.2992 4.23358 5.31646 4.23256 5.333 4.22829C5.34955 4.22403 5.36502 4.2166 5.37852 4.20646L5.41766 4.25839Z" fill="#C1874D"/>
<path d="M5.61658 4.40986L5.579 4.35793L5.37313 4.49641L5.33008 4.43695L5.78722 4.12988L5.83027 4.18934L5.62832 4.32557L5.66119 4.37148L5.97822 4.39255L6.02597 4.45878L5.68311 4.43545L5.58135 4.77564L5.52969 4.70489L5.61658 4.40986Z" fill="#C1874D"/>
<path d="M6.01943 4.95551L5.87384 4.75381L5.71024 4.86369L5.87854 5.09625L5.83 5.12862L5.61865 4.83735L6.07579 4.53027L6.28558 4.81853L6.23626 4.85089L6.07032 4.6251L5.92237 4.72445L6.06875 4.92616L6.01943 4.95551Z" fill="#C1874D"/>
<path d="M6.51026 5.22637L6.40772 5.08488L5.99833 5.35959L5.95605 5.30013L6.36388 5.02542L6.26134 4.88468L6.31065 4.85156L6.55879 5.19326L6.51026 5.22637Z" fill="#C1874D"/>
<path d="M4.20192 3.66504L4.16748 3.68988L5.83793 5.82734L5.87159 5.80326L4.20192 3.66504Z" fill="#C1874D"/>
<path d="M5.37556 5.60503C5.3805 5.58213 5.37825 5.55833 5.36911 5.53665C5.35997 5.51498 5.34434 5.4964 5.32421 5.48327C5.30408 5.47014 5.28035 5.46305 5.25602 5.46289C5.2317 5.46274 5.20787 5.46953 5.18756 5.48241C5.16725 5.49528 5.15138 5.51367 5.14194 5.53523C5.13251 5.55679 5.12994 5.58055 5.13457 5.60352C5.13919 5.62648 5.1508 5.64761 5.16792 5.66422C5.18504 5.68084 5.20691 5.69219 5.23075 5.69685C5.26259 5.70287 5.29561 5.69662 5.3227 5.67945C5.34979 5.66227 5.36878 5.63554 5.37556 5.60503Z" fill="#C1874D"/>
<path d="M4.86335 4.97515C4.86829 4.95224 4.86605 4.92845 4.8569 4.90677C4.84776 4.8851 4.83214 4.86652 4.81201 4.85339C4.79187 4.84026 4.76814 4.83316 4.74382 4.83301C4.71949 4.83286 4.69566 4.83965 4.67536 4.85253C4.65505 4.8654 4.63917 4.88379 4.62974 4.90535C4.6203 4.9269 4.61773 4.95067 4.62236 4.97363C4.62698 4.9966 4.63859 5.01772 4.65571 5.03434C4.67283 5.05096 4.6947 5.06231 4.71854 5.06697C4.7504 5.07319 4.78353 5.06703 4.81067 5.04982C4.83781 5.03261 4.85676 5.00576 4.86335 4.97515Z" fill="#C1874D"/>
<path d="M4.43204 4.50321C4.43713 4.48031 4.43503 4.45648 4.42601 4.43473C4.41699 4.41298 4.40145 4.3943 4.38136 4.38106C4.36128 4.36782 4.33756 4.36061 4.3132 4.36036C4.28885 4.3601 4.26497 4.36681 4.24459 4.37962C4.22421 4.39244 4.20825 4.41079 4.19873 4.43234C4.18922 4.4539 4.18658 4.47768 4.19115 4.50068C4.19572 4.52368 4.20729 4.54485 4.22439 4.56152C4.2415 4.57818 4.26337 4.58958 4.28723 4.59428C4.31898 4.60052 4.35201 4.59446 4.37913 4.5774C4.40625 4.56034 4.42527 4.53368 4.43204 4.50321Z" fill="#C1874D"/>
<g style="mix-blend-mode:overlay" opacity="0.4">
<path d="M7.34657 5.49683L5.64011 2.93262L4.95361 6.12076L5.54305 6.84178C5.56607 6.82539 5.59041 6.81079 5.61584 6.79813C5.89686 6.65889 6.25224 6.76577 6.4769 7.03521L6.54265 6.9893C6.52887 6.96905 6.52167 6.94531 6.52196 6.92111C6.52226 6.89691 6.53003 6.87334 6.5443 6.85341C6.55857 6.83347 6.57869 6.81807 6.6021 6.80917C6.6255 6.80026 6.65113 6.79825 6.67572 6.8034C6.70392 6.80932 6.72911 6.82449 6.74696 6.8463L6.80567 6.8049C6.7939 6.7895 6.78559 6.77191 6.78128 6.75325C6.77697 6.73459 6.77674 6.71527 6.78062 6.69652C6.78905 6.65971 6.81233 6.62761 6.84535 6.60729C6.87838 6.58697 6.91844 6.58008 6.95674 6.58815C6.9906 6.59492 7.02085 6.61306 7.04206 6.63932L7.09686 6.60169C7.0832 6.58844 7.07269 6.5725 7.06603 6.55498C7.05938 6.53745 7.05674 6.51875 7.0583 6.50015C7.05987 6.48156 7.06559 6.46351 7.07509 6.44724C7.08458 6.43097 7.09762 6.41686 7.11331 6.40589C7.12901 6.39492 7.14698 6.38733 7.16601 6.38366C7.18503 6.37999 7.20466 6.38031 7.22354 6.38461C7.24242 6.38891 7.26011 6.39709 7.2754 6.40858C7.29069 6.42006 7.30322 6.43459 7.31212 6.45117L7.37318 6.40902C6.98023 6.02292 7.09999 5.69251 7.34657 5.49683Z" fill="#FFECAD"/>
</g>
<g style="mix-blend-mode:multiply" opacity="0.3">
<path d="M5.57973 4.86752C5.98599 4.80129 6.58012 5.20846 6.64352 5.61263L7.34803 5.52231L5.25879 2.35449L5.57973 4.86752Z" fill="#9A4C00"/>
</g>
<path d="M8.24108 5.28384C8.25796 5.26244 8.28134 5.24662 8.30799 5.23857C8.33464 5.23052 8.36323 5.23063 8.38981 5.2389C8.41638 5.24717 8.43963 5.26318 8.45632 5.28472C8.47301 5.30626 8.48232 5.33225 8.48295 5.3591L8.55732 5.34631C8.37963 4.83452 8.6356 4.58841 8.94871 4.51841L8.47904 0.613766C8.44913 0.619453 8.41873 0.622476 8.38824 0.622798C8.07513 0.629571 7.91388 0.365399 7.82855 0.0410156L7.76202 0.0538091C7.75888 0.0846445 7.74731 0.114131 7.72847 0.139268C7.70963 0.164405 7.68421 0.184295 7.65478 0.196914C7.62535 0.209533 7.59296 0.21443 7.56093 0.211106C7.52889 0.207783 7.49834 0.196357 7.47239 0.177993C7.45127 0.161727 7.43416 0.141165 7.42229 0.117783L7.33853 0.133588C7.34343 0.184767 7.32806 0.235838 7.29548 0.276587C7.27687 0.298834 7.25386 0.317327 7.22779 0.331002C7.20172 0.344676 7.1731 0.353262 7.14357 0.356269C7.11404 0.359276 7.08418 0.356645 7.05571 0.348524C7.02724 0.340404 7.00072 0.326956 6.97767 0.308952C6.94212 0.281931 6.91503 0.245986 6.89939 0.205089L6.82973 0.216378C6.84244 0.244109 6.84733 0.274575 6.8439 0.304703C6.84046 0.33483 6.82882 0.363554 6.81016 0.387977C6.77285 0.426669 6.72117 0.449639 6.66635 0.451894C6.61153 0.454149 6.558 0.435507 6.5174 0.40002C6.47668 0.369819 6.44662 0.328302 6.43129 0.281105L6.36241 0.289383C6.36632 0.320993 6.36945 0.353356 6.37102 0.385719C6.37885 0.753756 6.15967 1.06309 5.85986 1.14738L6.72092 4.96623C6.74879 4.96095 6.77707 4.95793 6.80546 4.9572C7.11857 4.95042 7.39254 5.19653 7.47082 5.53221L7.5491 5.51866C7.54498 5.48704 7.55398 5.45513 7.57415 5.42985C7.59501 5.40423 7.62554 5.38757 7.65911 5.38348C7.69268 5.37939 7.72656 5.38821 7.7534 5.40802C7.77594 5.42531 7.79168 5.44947 7.79802 5.47651L7.86926 5.46447C7.86579 5.44562 7.86636 5.42628 7.87094 5.40764C7.87552 5.38901 7.884 5.37147 7.89587 5.35609C7.92034 5.32656 7.95597 5.30753 7.99498 5.30316C8.03399 5.29879 8.07321 5.30943 8.10409 5.33276C8.13106 5.35346 8.14984 5.38241 8.15732 5.4148L8.22464 5.40351C8.21693 5.3838 8.21439 5.36257 8.21726 5.34169C8.22012 5.32082 8.22831 5.30094 8.24108 5.28384Z" fill="#A5723F"/>
<path d="M8.28317 5.24952C8.29399 5.2359 8.30751 5.22447 8.32294 5.21589C8.33836 5.20731 8.3554 5.20174 8.37308 5.1995C8.39075 5.19726 8.4087 5.1984 8.42592 5.20285C8.44313 5.2073 8.45926 5.21497 8.47338 5.22543C8.4886 5.23683 8.50104 5.2513 8.50983 5.26781C8.51862 5.28432 8.52354 5.30248 8.52426 5.32101L8.59863 5.30897C8.42094 4.79643 8.67691 4.55032 8.99002 4.48108L8.52035 0.57568C8.49066 0.581209 8.46056 0.58448 8.43033 0.585465C8.11722 0.592239 7.95518 0.328066 7.86986 0.00292969L7.80333 0.0157231C7.80026 0.0490413 7.78751 0.0808592 7.76653 0.107544C7.73754 0.143924 7.69472 0.167762 7.64746 0.173829C7.60021 0.179896 7.55239 0.167696 7.51448 0.139907C7.49275 0.124237 7.47551 0.103521 7.46438 0.0796972L7.38063 0.0955018C7.38519 0.146883 7.36986 0.198075 7.33757 0.239254C7.2996 0.28395 7.24477 0.312367 7.18506 0.318291C7.12536 0.324215 7.06564 0.307164 7.01898 0.270866C6.983 0.244249 6.95581 0.208171 6.9407 0.167003L6.87182 0.178292C6.88415 0.206104 6.88883 0.2365 6.8854 0.266555C6.88197 0.296609 6.87056 0.325309 6.85225 0.349891C6.81495 0.388512 6.76335 0.411497 6.70859 0.413891C6.65383 0.416284 6.60028 0.397895 6.55949 0.362687C6.51825 0.332643 6.48808 0.290714 6.47338 0.243019L6.40293 0.254308C6.40781 0.286477 6.41069 0.318897 6.41155 0.351396C6.41937 0.718679 6.20019 1.02876 5.90039 1.11231L6.76145 4.93115C6.78937 4.9262 6.81762 4.92319 6.84599 4.92212C7.1591 4.9161 7.43229 5.16146 7.51057 5.49788L7.58884 5.48434C7.58537 5.45276 7.59431 5.42109 7.61389 5.39553C7.63478 5.36974 7.66539 5.35291 7.69909 5.34869C7.73279 5.34446 7.76687 5.35318 7.79393 5.37295C7.81586 5.39062 7.83124 5.41465 7.83777 5.44144L7.90978 5.42939C7.90598 5.41055 7.90638 5.39114 7.91097 5.37245C7.91556 5.35377 7.92423 5.33624 7.9364 5.32101C7.96085 5.2917 7.99632 5.27282 8.03514 5.26845C8.07396 5.26409 8.11301 5.27459 8.14383 5.29768C8.1712 5.31836 8.19006 5.34769 8.19706 5.38047L8.26438 5.36918C8.25678 5.34933 8.25453 5.32795 8.25781 5.30703C8.26109 5.28611 8.26982 5.26633 8.28317 5.24952Z" fill="#663606"/>
<path d="M8.29689 4.84914C8.28906 4.53228 8.48241 4.26585 8.74307 4.20489L8.3462 0.922668C8.32038 0.927442 8.29421 0.930209 8.26792 0.930945C8.00726 0.936214 7.78495 0.739025 7.71372 0.46582L6.56381 0.652471C6.56381 0.679566 6.57008 0.706662 6.57086 0.733757C6.5779 1.04309 6.39317 1.30576 6.14111 1.37349L6.8644 4.58271C6.88796 4.57892 6.91176 4.57666 6.93563 4.57593C7.20178 4.57067 7.42878 4.77689 7.49454 5.05912L8.3008 4.92817C8.30002 4.90258 8.29767 4.87548 8.29689 4.84914ZM7.49297 4.88451C7.43192 4.6241 7.22213 4.43294 6.97634 4.4382C6.95425 4.43856 6.93225 4.44082 6.91059 4.44498L6.24209 1.47961C6.47693 1.41639 6.64601 1.17404 6.63896 0.888045C6.63846 0.862858 6.63637 0.837724 6.6327 0.812782L7.69336 0.641182C7.75912 0.893313 7.96499 1.07545 8.2053 1.07018C8.22894 1.06925 8.25248 1.06673 8.27575 1.06266L8.64288 4.095C8.40178 4.15145 8.22331 4.39606 8.23035 4.69034C8.23078 4.71553 8.23288 4.74066 8.23661 4.7656L7.49297 4.88451Z" fill="#C1874D"/>
<path d="M8.0276 1.84162L7.99942 1.67152L7.50783 1.74679L7.49609 1.67529L7.98768 1.60002L7.96028 1.42993L8.01899 1.4209L8.08631 1.83334L8.0276 1.84162Z" fill="#C1874D"/>
<path d="M7.56008 2.06918L7.54834 1.99392L8.09628 1.91113L8.10803 1.98263L7.56008 2.06918Z" fill="#C1874D"/>
<path d="M7.82068 2.55179C7.79647 2.55632 7.77152 2.5557 7.74759 2.54998C7.72365 2.54426 7.70131 2.53358 7.68212 2.51867C7.6388 2.48559 7.61069 2.43749 7.60384 2.38471C7.59862 2.35723 7.59969 2.32898 7.60699 2.30194C7.61429 2.2749 7.62764 2.24972 7.64611 2.22816C7.68593 2.18311 7.74172 2.15387 7.80267 2.14612L7.90052 2.13107C7.96178 2.12006 8.02511 2.13132 8.07821 2.16268C8.10271 2.17762 8.12348 2.19758 8.13904 2.22113C8.1546 2.24467 8.16457 2.27123 8.16823 2.29891C8.18005 2.3505 8.1705 2.40449 8.14162 2.44943C8.1281 2.46952 8.11001 2.48639 8.08872 2.49877C8.06743 2.51116 8.0435 2.51873 8.01872 2.52093L8.00776 2.45169C8.02457 2.45001 8.04083 2.445 8.05551 2.43696C8.0702 2.42893 8.08299 2.41806 8.09308 2.40503C8.10304 2.39098 8.10985 2.37509 8.11309 2.35838C8.11632 2.34167 8.11591 2.32449 8.11187 2.30794C8.10955 2.28911 8.10229 2.27116 8.09079 2.25576C8.07929 2.24036 8.06392 2.22802 8.04612 2.21988C8.00568 2.20053 7.95976 2.19445 7.91539 2.20257L7.81676 2.21762C7.77163 2.22272 7.72952 2.24204 7.69699 2.27256C7.68284 2.28568 7.67229 2.30196 7.66628 2.31995C7.66027 2.33794 7.65899 2.35709 7.66255 2.37568C7.66416 2.39261 7.66929 2.40906 7.67762 2.42405C7.68596 2.43905 7.69734 2.45229 7.71109 2.46298C7.72523 2.47232 7.74119 2.4788 7.758 2.48203C7.77482 2.48526 7.79215 2.48519 7.80893 2.4818L7.82068 2.55179Z" fill="#C1874D"/>
<path d="M7.92807 2.77265L7.91789 2.71019L7.66897 2.74782L7.65723 2.67632L8.20517 2.59277L8.21691 2.66804L7.97347 2.70416L7.98208 2.75986L8.25684 2.91038L8.27014 2.98941L7.97269 2.82383L7.72611 3.08725L7.71202 3.00145L7.92807 2.77265Z" fill="#C1874D"/>
<path d="M8.04542 3.43127L8.0055 3.18817L7.80824 3.21828L7.85443 3.49826L7.79572 3.50653L7.73779 3.15581L8.28574 3.07227L8.34288 3.41998L8.28417 3.42826L8.23877 3.1528L8.06108 3.17989L8.101 3.42224L8.04542 3.43127Z" fill="#C1874D"/>
<path d="M8.36159 3.88174L8.33419 3.71165L7.84182 3.78691L7.83008 3.71165L8.32166 3.63638L8.29427 3.46704L8.35298 3.45801L8.4203 3.86895L8.36159 3.88174Z" fill="#C1874D"/>
<path d="M6.99735 1.50781L6.95508 1.51534L7.48267 4.14051L7.52494 4.13298L6.99735 1.50781Z" fill="#C1874D"/>
<path d="M7.16872 3.74529C7.18362 3.72682 7.1925 3.70451 7.19422 3.68119C7.19593 3.65787 7.19041 3.63458 7.17836 3.61427C7.1663 3.59396 7.14825 3.57755 7.12649 3.56711C7.10473 3.55668 7.08023 3.55268 7.05611 3.55563C7.03199 3.55859 7.00932 3.56835 6.99097 3.5837C6.97262 3.59905 6.95942 3.61928 6.95304 3.64184C6.94666 3.6644 6.94738 3.68828 6.95512 3.71045C6.96285 3.73262 6.97726 3.75207 6.99651 3.76637C7.02226 3.78549 7.05486 3.79402 7.08714 3.79007C7.11943 3.78612 7.14876 3.77001 7.16872 3.74529Z" fill="#C1874D"/>
<path d="M6.99587 2.96404C7.01078 2.94557 7.01965 2.92326 7.02137 2.89994C7.02308 2.87661 7.01756 2.85333 7.00551 2.83302C6.99345 2.81271 6.9754 2.7963 6.95364 2.78586C6.93188 2.77543 6.90738 2.77143 6.88326 2.77438C6.85914 2.77734 6.83646 2.7871 6.81812 2.80245C6.79977 2.81779 6.78657 2.83803 6.78019 2.86059C6.7738 2.88316 6.77453 2.90703 6.78227 2.9292C6.79 2.95136 6.80441 2.97083 6.82366 2.98512C6.84941 3.00424 6.88201 3.01277 6.91429 3.00882C6.94658 3.00487 6.97591 2.98876 6.99587 2.96404Z" fill="#C1874D"/>
<path d="M6.82277 2.35713C6.83753 2.33876 6.84629 2.31659 6.84794 2.29343C6.8496 2.27027 6.84407 2.24716 6.83207 2.22702C6.82007 2.20687 6.80213 2.1906 6.78051 2.18026C6.7589 2.16992 6.73458 2.16597 6.71063 2.16892C6.68668 2.17186 6.66418 2.18156 6.64596 2.1968C6.62775 2.21204 6.61464 2.23213 6.6083 2.25452C6.60195 2.27692 6.60265 2.30063 6.61032 2.32264C6.61798 2.34465 6.63226 2.36399 6.65134 2.3782C6.66404 2.38765 6.67854 2.3946 6.69403 2.39866C6.70951 2.40272 6.72568 2.4038 6.7416 2.40184C6.75752 2.39988 6.77289 2.39493 6.78682 2.38725C6.80074 2.37958 6.81296 2.36935 6.82277 2.35713Z" fill="#C1874D"/>
<g style="mix-blend-mode:overlay" opacity="0.4">
<path d="M8.9904 4.4784L8.62406 1.45508L6.55518 4.03209L6.75791 4.92847C6.78583 4.92352 6.81409 4.9205 6.84246 4.91944C7.15557 4.91342 7.42876 5.15878 7.50703 5.4952L7.58531 5.48165C7.58184 5.45008 7.59078 5.4184 7.61036 5.39284C7.63124 5.36706 7.66185 5.35023 7.69556 5.34601C7.72926 5.34178 7.76334 5.3505 7.7904 5.37026C7.81233 5.38794 7.82771 5.41197 7.83423 5.43875L7.90625 5.42671C7.90245 5.40787 7.90285 5.38846 7.90744 5.36977C7.91203 5.35109 7.9207 5.33355 7.93287 5.31833C7.95732 5.28902 7.99279 5.27014 8.03161 5.26577C8.07043 5.2614 8.10947 5.2719 8.1403 5.295C8.16767 5.31568 8.18653 5.34501 8.19353 5.37779L8.26085 5.3665C8.25403 5.34694 8.25231 5.32607 8.25586 5.30573C8.25941 5.28538 8.26811 5.26619 8.2812 5.24984C8.29203 5.23623 8.30554 5.2248 8.32097 5.21622C8.3364 5.20763 8.35344 5.20206 8.37111 5.19983C8.38878 5.19759 8.40674 5.19873 8.42395 5.20318C8.44116 5.20763 8.4573 5.2153 8.47142 5.22576C8.48663 5.23716 8.49907 5.25162 8.50786 5.26814C8.51665 5.28465 8.52158 5.30281 8.5223 5.32134L8.59666 5.3093C8.42132 4.79676 8.67964 4.55065 8.9904 4.4784Z" fill="#FFECAD"/>
</g>
<path d="M9.90995 4.54385C9.70721 3.7009 9.47003 4.19764 8.97062 4.26613C8.4712 4.33462 8.01328 3.89884 8.10251 4.79297C8.13696 5.12864 8.59723 5.34314 9.09586 5.2739C9.59449 5.20466 9.98823 4.872 9.90995 4.54385Z" fill="#CF821B"/>
<path d="M19.4663 7.39343C19.8577 7.03141 19.4342 6.90648 19.1947 6.54822C18.9552 6.18997 18.7109 5.88666 18.4158 6.06955C18.1207 6.25244 18.0745 6.69047 18.3141 7.04797C18.5536 7.40547 19.0671 7.76222 19.4663 7.39343Z" fill="#875713"/>
<path d="M4.48984 12.1731C3.72116 9.30704 4.89611 6.02105 7.06519 5.11037C9.23427 4.19969 11.8268 6.6337 13.282 8.78697C14.8531 11.1111 12.0178 14.5822 9.84953 15.4899C7.68123 16.3976 5.25853 15.0406 4.48984 12.1731Z" fill="#CF821B"/>
<path d="M4.30518 9.02804C3.88405 7.71169 5.72201 4.45355 6.85626 8.76161C7.48483 12.2139 4.42808 10.2676 4.30518 9.02804Z" fill="#ECDBD5"/>
<path d="M2.98794 9.35237C2.71083 8.23848 3.26034 5.65771 4.37659 9.12658C4.84234 12.0498 3.09909 10.4023 2.98794 9.35237Z" fill="#FB3D3D"/>
<path d="M19.3174 9.04391C19.3174 5.59235 16.5706 2.57129 13.3479 2.57129C10.1252 2.57129 7.53659 6.38035 6.36243 9.3713C5.09746 12.6016 10.126 15.0672 13.3495 15.0672C16.573 15.0672 19.3174 12.4947 19.3174 9.04391Z" fill="#875713"/>
<path d="M19.1891 7.79304C18.9128 4.72005 9.45137 0.314147 6.36096 9.37356C5.09599 12.6038 10.1246 15.0695 13.348 15.0695C16.5715 15.0695 19.1469 10.4363 19.1891 7.79304Z" fill="#F4B867"/>
<path d="M16.2803 4.47474C16.1316 4.69375 15.6885 4.87363 15.2627 4.62526C15.2384 4.69225 15.2799 4.76977 15.4529 4.87589C15.8811 5.13705 16.3335 4.95115 16.483 4.73289C16.6075 4.54849 16.5324 4.31894 16.3194 4.16992C16.3374 4.22026 16.3432 4.27386 16.3364 4.32667C16.3296 4.37948 16.3105 4.43011 16.2803 4.47474Z" fill="#875713"/>
<path d="M6.83992 8.6235C6.47827 6.99405 8.37416 3.58088 9.7495 8.6235C9.7495 8.6235 6.97925 9.86308 6.83992 8.6235Z" fill="#FB3D3D"/>
<path d="M12.6099 8.42374C12.6099 8.42374 14.6639 3.29983 15.3378 8.61868L12.6099 8.42374Z" fill="#CC3B3B"/>
<path d="M18.5392 8.81523C18.5635 8.11604 20.0101 5.673 19.7384 9.1223C19.7384 9.1223 18.5236 9.28111 18.5392 8.81523Z" fill="#CC3B3B"/>
<path d="M15.3267 8.57699C15.3588 6.85648 17.8417 3.49071 18.5658 8.83816C18.5658 8.83816 15.221 9.79324 15.3267 8.57699Z" fill="#CC3B3B"/>
<path d="M19.9567 9.04343C15.051 8.08834 9.51444 8.31037 2.82324 9.24513L5.89252 25.3319H17.6546L19.9567 9.04343Z" fill="#FB3D3D"/>
<path d="M8.43815 25.3113L6.68003 8.65332L4.15479 8.86857L6.3497 25.3519L8.43815 25.3113Z" fill="#ECDBD5"/>
<path d="M16.3333 25.3117L18.763 8.71547L15.5239 8.34668L14.2456 25.3524L16.3333 25.3117Z" fill="#ECDBD5"/>
<path d="M12.2742 25.3121L12.8182 8.40804L9.55713 8.37793L10.1865 25.3528L12.2742 25.3121Z" fill="#ECDBD5"/>
<path d="M17.7081 24.666H5.78564V25.4036H17.7081V24.666Z" fill="#FB3D3D"/>
<path d="M9.55771 8.41769C9.5898 6.69643 12.0563 3.29529 12.7859 8.64348C12.7859 8.63897 9.45047 9.63018 9.55771 8.41769Z" fill="#ECDBD5"/>
<path d="M6.65925 8.69458C6.29761 7.06589 8.1935 3.65195 9.56884 8.69458C9.57198 8.69458 6.7978 9.93416 6.65925 8.69458Z" fill="#FB3D3D"/>
<path d="M4.16114 9.12569C3.74 7.80934 5.57797 4.5512 6.713 8.85926C7.34157 12.3116 4.28404 10.3653 4.16114 9.12569Z" fill="#ECDBD5"/>
<path d="M2.84384 9.47594C2.56673 8.3613 3.11702 5.78053 4.23248 9.25015C4.69824 12.1726 2.95499 10.5251 2.84384 9.47594Z" fill="#FB3D3D"/>
<g style="mix-blend-mode:multiply" opacity="0.4">
<path d="M12.5833 8.49245C11.8208 3.51154 9.62278 6.67334 9.55938 8.37956V8.39837C9.55897 8.40414 9.55897 8.40992 9.55938 8.41568C9.55589 8.45834 9.5572 8.50124 9.56329 8.54363H9.52728C8.18091 3.8126 6.36956 6.96311 6.64431 8.6061C5.61965 5.07702 4.09558 7.2747 4.10185 8.69039C3.00596 6.04189 2.58404 8.42472 2.8494 9.47539C2.8648 9.5997 2.89582 9.72177 2.94177 9.83891L5.89284 25.3318L12.094 25.4138L12.5833 8.49245Z" fill="#542700"/>
</g>
<g style="mix-blend-mode:multiply" opacity="0.2">
<path d="M5.63663 16.9932C5.63663 16.9932 11.0918 25.1479 11.1771 25.2721C11.2625 25.3963 5.89182 25.3338 5.89182 25.3338L4.22998 17.5674L5.63663 16.9932Z" fill="#AD2C00"/>
</g>
<path d="M17.7031 25.1305L5.78076 25.1885L5.78206 25.4346L17.7044 25.3766L17.7031 25.1305Z" fill="#FB3D3D"/>
<path d="M17.0816 3.58711C17.1395 3.2537 16.8327 2.92705 16.3959 2.85706C15.9591 2.78706 15.5591 3.00006 15.5012 3.33348C15.4432 3.66689 15.7501 3.99353 16.1869 4.06353C16.6237 4.13352 17.0237 3.92053 17.0816 3.58711Z" fill="#875713"/>
<path d="M16.1231 3.21797C16.181 2.88456 15.8742 2.55791 15.4374 2.48792C15.0006 2.41792 14.6006 2.63092 14.5427 2.96433C14.4847 3.29775 14.7916 3.62439 15.2284 3.69439C15.6652 3.76438 16.0691 3.55139 16.1231 3.21797Z" fill="#875713"/>
<path d="M14.8233 2.33773C14.8812 2.00432 14.6604 1.96142 14.2244 1.89293C13.7884 1.82444 13.4119 1.39996 13.1802 1.91325C12.9673 2.3844 13.4933 2.74114 13.9278 2.81641C14.3622 2.89167 14.7653 2.6704 14.8233 2.33773Z" fill="#875713"/>
<path d="M13.7517 5.7945C13.3204 5.72526 12.8046 5.37378 12.9987 4.91016C12.8766 4.91016 12.7709 4.97037 12.6856 5.16078C12.4727 5.63193 12.9987 5.98868 13.4331 6.06394C13.7963 6.12265 14.1376 5.98416 14.2715 5.74407C14.1067 5.8078 13.9265 5.82528 13.7517 5.7945Z" fill="#875713"/>
<path d="M14.4808 2.17095C14.5035 2.04375 14.383 2.02042 14.1442 1.98279C13.9055 1.94516 13.6385 1.60647 13.5 1.93537C13.4217 2.12353 13.7701 2.29438 14.0088 2.33276C14.2475 2.37114 14.4589 2.29739 14.4808 2.17095Z" fill="#F4B867"/>
<path d="M14.93 2.03069C15.02 1.91102 14.9425 1.85382 14.7844 1.74394C14.6263 1.63405 14.5652 1.39848 14.3703 1.55729C14.1911 1.70255 14.3249 1.94188 14.4815 2.05101C14.638 2.16014 14.84 2.15111 14.93 2.03069Z" fill="#875713"/>
<path d="M19.6196 5.66872C19.6196 5.55056 19.5413 5.5468 19.3894 5.54378C19.2376 5.54077 19.0841 5.41207 19.0301 5.60023C18.9808 5.77259 19.1796 5.87193 19.3346 5.8757C19.4896 5.87946 19.6164 5.78689 19.6196 5.66872Z" fill="#875713"/>
<path d="M10.6404 3.2451C10.7312 3.12468 10.653 3.06748 10.4956 2.95835C10.3383 2.84922 10.2757 2.61214 10.0808 2.77095C9.9015 2.91621 10.0354 3.15554 10.1927 3.26467C10.35 3.37381 10.5504 3.36477 10.6404 3.2451Z" fill="#875713"/>
<path d="M7.74244 4.76139C7.83246 4.64097 7.75418 4.58377 7.59684 4.47464C7.4395 4.36551 7.37767 4.12919 7.18197 4.28724C7.0035 4.4325 7.13657 4.67183 7.29391 4.78096C7.45125 4.89009 7.65242 4.88031 7.74244 4.76139Z" fill="#CF821B"/>
<path d="M12.7881 2.60163C12.5063 1.77976 12.3185 2.29456 11.8285 2.4067C11.3384 2.51884 10.8406 2.12597 11.0144 3.0088C11.0801 3.34071 11.5623 3.51306 12.0492 3.40092C12.5361 3.28878 12.8985 2.923 12.7881 2.60163Z" fill="#875713"/>
<path d="M8.31305 4.77321C8.03125 3.95134 7.84338 4.46689 7.35336 4.57904C6.86334 4.69118 6.36549 4.29755 6.53927 5.18114C6.60502 5.5123 7.08721 5.6854 7.5741 5.57251C8.06099 5.45961 8.42342 5.09308 8.31305 4.77321Z" fill="#CF821B"/>
<path d="M6.48996 5.40222C6.01012 5.00483 6.09075 5.38115 5.83791 5.61973C5.58507 5.85832 5.13341 5.79435 5.57333 6.26549C5.73771 6.44236 6.09153 6.37914 6.34515 6.14056C6.59877 5.90197 6.67548 5.55727 6.48996 5.40222Z" fill="#CF821B"/>
<path d="M18.1505 4.66165C18.5897 4.19276 18.1818 4.26426 17.9314 4.00686C17.6809 3.74946 17.7591 3.3024 17.2409 3.72763C17.0468 3.88719 17.1055 4.24093 17.3568 4.49908C17.6081 4.75723 17.9791 4.84379 18.1505 4.66165Z" fill="#875713"/>
<path d="M19.4794 5.37028C19.5373 5.03686 19.2304 4.71022 18.7936 4.63947C18.3568 4.56873 17.9561 4.78323 17.8981 5.11589C17.8402 5.44855 18.1471 5.77595 18.5839 5.84594C19.0206 5.91594 19.4214 5.70294 19.4794 5.37028Z" fill="#875713"/>
<g style="mix-blend-mode:overlay" opacity="0.4">
<path d="M18.5831 6.01603C18.5503 5.95055 18.515 5.88733 18.4798 5.82336C18.514 5.83291 18.5488 5.84045 18.5839 5.84594C18.7568 5.87554 18.9348 5.85754 19.0974 5.79401C19.1645 5.8449 19.2468 5.87367 19.3323 5.87604C19.4888 5.87604 19.6141 5.78723 19.6172 5.66907C19.6203 5.55091 19.5483 5.54789 19.4097 5.54488C19.4432 5.49116 19.466 5.43197 19.4771 5.37028C19.535 5.03686 19.2281 4.71022 18.7914 4.63947C18.4133 4.57926 18.0618 4.73129 17.9373 4.9902C17.87 4.90139 17.8009 4.81483 17.7299 4.73054C17.8943 4.77946 18.0524 4.76366 18.1479 4.66205C18.587 4.19316 18.1792 4.26466 17.9287 4.00726C17.6782 3.74986 17.7565 3.3028 17.2383 3.72804C17.1326 3.81459 17.1045 3.95834 17.1381 4.11263C17.0598 4.03737 16.9761 3.96737 16.8916 3.89738C16.9905 3.81872 17.057 3.70881 17.0794 3.58729C17.1373 3.25388 16.8305 2.92724 16.3937 2.85724C16.2783 2.83834 16.1602 2.83987 16.0454 2.86176C15.9778 2.76045 15.8883 2.67437 15.7829 2.60942C15.6775 2.54447 15.5588 2.50218 15.4348 2.48544C15.1092 2.43276 14.8039 2.53888 14.6458 2.73381C14.6113 2.72478 14.5777 2.71499 14.5432 2.70672C14.6148 2.66784 14.6768 2.61444 14.7247 2.55024C14.7727 2.48604 14.8056 2.41256 14.8211 2.33492C14.8396 2.25937 14.832 2.18007 14.7992 2.10913C14.8507 2.09586 14.896 2.06613 14.9276 2.02483C15.0176 1.90516 14.9401 1.84797 14.782 1.73808C14.6238 1.6282 14.5628 1.39262 14.3679 1.55143C14.2458 1.65002 14.2685 1.79227 14.3452 1.90742L14.2223 1.8871C13.7855 1.81711 13.4098 1.39413 13.1781 1.90742C13.0583 2.17235 13.171 2.40115 13.3706 2.56372H13.3456C13.2195 2.56372 13.0951 2.57124 12.9706 2.58253C11.1851 3.87028 17.5146 5.16104 19.1726 6.51503C18.9886 6.24483 18.7984 6.00926 18.5831 6.01603Z" fill="#FFF2C6"/>
</g>
<path d="M10.963 3.26858C10.7775 2.98183 10.3227 2.93141 9.94539 3.15569C9.56809 3.37997 9.41466 3.79467 9.60018 4.08218C9.7857 4.36968 10.2405 4.41936 10.6178 4.19432C10.9951 3.96929 11.1485 3.55534 10.963 3.26858Z" fill="#875713"/>
<path d="M9.21644 4.61845C9.05206 4.45363 8.782 4.35353 8.46184 4.64781C8.14168 4.94208 8.15734 5.3756 8.32172 5.54042C8.48611 5.70525 8.7366 5.54042 9.05597 5.24389C9.37535 4.94735 9.38004 4.78253 9.21644 4.61845Z" fill="#875713"/>
<path d="M11.7729 4.23217C11.5874 3.94467 11.1326 3.89424 10.7553 4.11852C10.378 4.34281 10.2254 4.75826 10.4109 5.04501C10.5964 5.33176 11.0512 5.38219 11.4285 5.15791C11.8058 4.93362 11.9584 4.51892 11.7729 4.23217Z" fill="#875713"/>
<path d="M11.2751 4.31181C11.1702 4.14924 10.9847 4.30127 10.7718 4.42847C10.5589 4.55566 10.4 4.60835 10.5048 4.77091C10.6097 4.93348 10.8673 4.96208 11.0802 4.83489C11.2931 4.70769 11.38 4.47363 11.2751 4.31181Z" fill="#F4B867"/>
<path d="M12.1551 2.72114C12.1246 2.61878 11.9164 2.58642 11.691 2.64587C11.4655 2.70533 11.3066 2.84231 11.3379 2.94693C11.3692 3.05154 11.5767 3.08165 11.8029 3.02219C12.0291 2.96273 12.1865 2.82425 12.1551 2.72114Z" fill="#F4B867"/>
<path d="M11.9931 2.55554C11.9712 2.48027 11.8491 2.44791 11.7215 2.48027C11.5939 2.51264 11.5078 2.60521 11.5305 2.68047C11.5532 2.75574 11.6753 2.7881 11.8029 2.75574C11.9305 2.72337 12.0158 2.63005 11.9931 2.55554Z" fill="#F4B867"/>
<path d="M11.3393 4.11804C11.3166 4.04277 11.1945 4.01041 11.0669 4.04277C10.9393 4.07514 10.854 4.16847 10.8767 4.24298C10.8994 4.31749 11.0207 4.3506 11.1483 4.31824C11.2759 4.28588 11.362 4.1933 11.3393 4.11804Z" fill="#F4B867"/>
<path d="M12.8179 8.43958C12.8179 8.43958 14.8711 3.31567 15.5451 8.63376L12.8179 8.43958Z" fill="#FB3D3D"/>
<path d="M18.7477 8.8468C18.7712 8.14761 20.2178 5.70383 19.9462 9.15387C19.9462 9.15387 18.7305 9.31192 18.7477 8.8468Z" fill="#FB3D3D"/>
<path d="M15.503 8.63873C15.5351 6.91747 18.0173 3.55246 18.7421 8.89989C18.7421 8.89989 15.3965 9.85498 15.503 8.63873Z" fill="#ECDBD5"/>
<path d="M18.4956 16.034C18.7305 13.6489 17.9579 11.6266 16.7633 11.5182C15.5688 11.4098 14.4064 13.2493 14.1684 15.6359C13.9305 18.0225 14.7054 20.0433 15.8999 20.1516C17.0945 20.26 18.2538 18.4183 18.4956 16.034Z" fill="#ECDBD5"/>
<path d="M18.1918 16.0057C18.3969 13.9518 17.7292 12.2102 16.6998 12.1154C15.6705 12.0205 14.6708 13.6101 14.4658 15.6618C14.2607 17.7134 14.9276 19.4565 15.957 19.5521C16.9863 19.6477 17.9867 18.0596 18.1918 16.0057Z" fill="#FB3D3D"/>
<path d="M18.1042 16.0605C18.2913 14.1933 17.6839 12.609 16.7477 12.5232C15.8115 12.4374 14.9027 13.8779 14.7125 15.7482C14.5222 17.6185 15.1328 19.1998 16.069 19.2856C17.0052 19.3714 17.9211 17.9278 18.1042 16.0605Z" fill="#ECDBD5"/>
<path d="M15.208 12.6982C15.0593 13.3342 15.0851 14.0304 15.0953 14.7048C15.0953 14.7868 15.2518 14.9305 15.2518 14.9305C15.2417 14.2532 15.2143 13.5525 15.363 12.9135C15.3771 12.8503 15.215 12.6772 15.2064 12.7005L15.208 12.6982Z" fill="#ECDBD5"/>
<path d="M15.2127 13.1316C15.2377 12.9585 15.3692 12.9134 15.4929 12.9103C15.655 12.9058 15.7168 12.9856 15.6745 13.1881C15.6143 13.4756 15.3544 13.7149 15.1485 13.827C15.1485 13.827 15.2659 14.0754 15.3137 14.0528C15.5798 13.9091 15.9884 13.4951 15.8107 13.0797C15.7499 12.9373 15.6442 12.8168 15.5086 12.735C15.3583 12.6507 15.0859 12.677 15.0499 12.9179C15.0381 12.9976 15.215 13.1143 15.2127 13.1346V13.1316Z" fill="#ECDBD5"/>
<path d="M15.6992 14.014C15.5928 14.1735 15.6351 14.4655 15.7775 14.586C15.9607 14.7365 16.1885 14.7688 16.3043 14.5009C16.4202 14.233 16.2456 13.9952 16.0601 13.8943C15.9654 13.8424 15.8527 13.798 15.7556 13.8544C15.6585 13.9109 15.6773 14.0539 15.729 14.1555C15.7623 14.1982 15.8085 14.23 15.8613 14.2465C15.8652 14.2465 15.9677 14.2834 15.9505 14.2526C15.9281 14.2205 15.914 14.1837 15.9095 14.1453C15.905 14.1069 15.9102 14.0681 15.9247 14.032C15.9374 14.0073 15.958 13.987 15.9834 13.9741C15.9946 13.9686 16.0064 13.9643 16.0186 13.9613C16.0703 13.9462 16.0852 13.9952 16.0061 13.9327C16.1251 14.026 16.1282 14.2465 16.0765 14.3843C16.0495 14.4543 16.0002 14.5143 15.9356 14.5559C15.9239 14.5632 15.9113 14.5693 15.8981 14.5739C15.83 14.6025 15.8488 14.5265 15.9536 14.6326C15.9314 14.6058 15.9142 14.5755 15.9028 14.5431C15.876 14.4766 15.8643 14.4055 15.8685 14.3343C15.8727 14.2632 15.8926 14.1937 15.927 14.1306C15.9349 14.1186 15.7376 13.962 15.7024 14.0147L15.6992 14.014Z" fill="#ECDBD5"/>
<path d="M16.374 13.7537C16.3811 14.1624 16.4617 14.5726 16.4601 14.9873C16.4601 15.1506 16.695 15.2514 16.695 15.0753C16.695 14.6343 16.6167 14.2015 16.6049 13.7687C16.6049 13.6084 16.3701 13.5685 16.3701 13.7537H16.374Z" fill="#ECDBD5"/>
<path d="M16.5385 14.0121C16.5426 13.9812 16.5544 13.9518 16.5729 13.9263C16.5886 13.9135 16.5995 13.9173 16.6144 13.9263C16.679 13.9745 16.727 14.0404 16.7522 14.1152C16.7862 14.1859 16.7934 14.2658 16.7725 14.341C16.7318 14.4592 16.5815 14.4652 16.4923 14.4637C16.3694 14.4637 16.4524 14.7557 16.5643 14.758C16.7208 14.758 16.8907 14.7128 16.9557 14.5171C17.0113 14.3538 16.9619 14.1536 16.8985 14.0031C16.8351 13.8525 16.742 13.7133 16.6207 13.6561C16.4993 13.5989 16.3944 13.6719 16.3592 13.8284C16.3507 13.8643 16.351 13.9015 16.3601 13.9372C16.3692 13.9728 16.3869 14.006 16.4117 14.0339C16.4477 14.0715 16.5212 14.0881 16.5369 14.0151L16.5385 14.0121Z" fill="#ECDBD5"/>
<path d="M16.4064 15.831C16.5668 15.8731 16.6255 15.7934 16.5958 15.5856C16.5844 15.4924 16.5462 15.4041 16.4855 15.3306C16.4248 15.257 16.344 15.2012 16.2521 15.1694C15.8608 15.0611 15.8013 15.7 15.8248 16.0666C15.8475 16.4143 15.9563 16.8252 16.2208 16.9915C16.5465 17.197 16.7641 16.9163 16.9097 16.5753C16.9285 16.5309 16.6983 16.4098 16.6655 16.4865C16.6175 16.609 16.5522 16.7245 16.4713 16.8297C16.4465 16.8581 16.4181 16.8833 16.3868 16.905C16.3202 16.9532 16.3351 16.9381 16.3085 16.905C16.1856 16.7703 16.1285 16.5377 16.0917 16.3473C16.047 16.1104 16.047 15.8677 16.0917 15.6308C16.1305 15.5069 16.181 15.3867 16.2428 15.2718C16.2921 15.3301 16.3274 15.3982 16.3461 15.4712C16.3597 15.5516 16.3642 15.6331 16.3594 15.7143C16.1919 15.6707 16.3109 15.8047 16.4064 15.8295V15.831Z" fill="#ECDBD5"/>
<path d="M16.8624 16.0193C16.7661 16.3204 16.9344 16.6576 17.1927 16.6786C17.3892 16.6952 17.6162 16.5055 17.5575 16.2218C17.5427 16.1363 17.5004 16.0573 17.4367 15.996C17.3731 15.9346 17.291 15.8938 17.2021 15.8794C17.1556 15.8703 17.1075 15.8728 17.0623 15.8866C17.0171 15.9005 16.9763 15.9252 16.9438 15.9584C16.8757 16.0336 16.8655 16.1646 16.8655 16.2775C16.8655 16.361 17.1176 16.3701 17.1168 16.2835C17.1118 16.2047 17.123 16.1257 17.1497 16.051C17.1569 16.0321 17.1678 16.0147 17.1818 15.9998C17.21 15.9727 17.1818 15.9998 17.1489 15.9923C17.1325 15.9923 17.1536 15.9922 17.1591 15.9983C17.1798 16.0118 17.1987 16.0277 17.2154 16.0457C17.2502 16.0876 17.2767 16.1353 17.2937 16.1864C17.3135 16.2459 17.3167 16.3093 17.303 16.3704C17.2892 16.4314 17.259 16.4879 17.2154 16.5341C17.2035 16.5459 17.1898 16.5558 17.1747 16.5635C17.2327 16.5334 17.2358 16.5801 17.1919 16.5304C17.1603 16.4908 17.1354 16.4466 17.1184 16.3994C17.0759 16.2894 17.0702 16.1695 17.1019 16.0562C17.1285 15.9727 16.8843 15.9433 16.86 16.0193H16.8624Z" fill="#ECDBD5"/>
<path d="M17.625 16.0636C17.6796 16.1346 17.7163 16.2168 17.7322 16.3037L17.823 16.1885C17.8301 16.1998 17.8285 16.1976 17.8191 16.1833C17.8237 16.1898 17.8274 16.1969 17.8301 16.2043C17.8248 16.1944 17.8223 16.1832 17.823 16.172C17.8191 16.1309 17.8236 16.0894 17.8364 16.0501C17.8528 15.9996 17.9005 15.9432 17.9295 15.9793C17.9585 16.0154 18.0203 16.0862 18.0508 16.0222C18.0589 15.9872 18.0591 15.9509 18.0512 15.9158C18.0434 15.8808 18.0278 15.8477 18.0054 15.819C17.9483 15.7437 17.8771 15.6685 17.7925 15.6775C17.7315 15.6858 17.6892 15.7528 17.6673 15.8167C17.6375 15.9176 17.6333 16.0239 17.655 16.1267C17.6766 16.2294 17.7235 16.3257 17.7917 16.4076C17.8786 16.5069 17.9123 16.391 17.8825 16.2924C17.8452 16.1284 17.7676 15.9754 17.6563 15.8461C17.6227 15.813 17.5624 15.7821 17.5514 15.8574C17.5489 15.8947 17.554 15.9322 17.5667 15.9676C17.5793 16.003 17.5991 16.0356 17.625 16.0636Z" fill="#ECDBD5"/>
<path d="M18.1658 15.8553C18.2105 16.0161 18.2411 16.1803 18.2574 16.346C18.2574 16.2798 18.2628 16.2128 18.266 16.1466C18.2151 15.9637 18.3184 15.6852 18.4938 15.783C18.6354 15.8628 18.6002 16.2188 18.6167 16.3693C18.6167 16.3799 18.6331 16.492 18.6401 16.4288C18.6456 16.3535 18.6435 16.2779 18.6339 16.203C18.6135 16.0118 18.6409 15.3315 18.3497 15.4504C18.2307 15.4993 18.2214 15.7477 18.2182 15.8786C18.209 16.0733 18.2275 16.2683 18.273 16.4581C18.2801 16.4837 18.2855 16.4122 18.2855 16.416C18.2855 16.3633 18.2855 16.3106 18.2816 16.2579C18.2643 16.0276 18.2261 15.7992 18.1673 15.5753C18.1525 15.5143 18.1501 15.6205 18.1501 15.6325C18.1463 15.7064 18.1516 15.7804 18.1658 15.853V15.8553Z" fill="#ECDBD5"/>
<path d="M15.337 12.6173C15.2016 13.1961 15.2251 13.8305 15.2337 14.4447C15.2337 14.5199 15.3762 14.6502 15.3762 14.6486C15.3668 14.0315 15.3417 13.3933 15.4771 12.8115C15.4905 12.7528 15.3425 12.5955 15.337 12.6173Z" fill="#FB3D3D"/>
<path d="M15.3418 13.0121C15.3482 12.9528 15.3786 12.8983 15.4266 12.8605C15.4745 12.8227 15.5361 12.8047 15.5978 12.8104C15.745 12.8066 15.8013 12.8819 15.763 13.0632C15.7082 13.3259 15.471 13.5449 15.2839 13.6458C15.28 13.6458 15.3904 13.8716 15.4334 13.8482C15.6769 13.718 16.0487 13.341 15.8866 12.9624C15.8318 12.8323 15.7353 12.7224 15.6111 12.6485C15.4749 12.5733 15.2268 12.5951 15.1939 12.8149C15.1829 12.8901 15.3442 12.994 15.3418 13.0121Z" fill="#FB3D3D"/>
<path d="M15.7856 13.8163C15.6893 13.9616 15.7269 14.2303 15.8545 14.3371C16.0205 14.4771 16.2287 14.5042 16.3336 14.2619C16.4385 14.0195 16.2811 13.8013 16.1113 13.7095C16.0252 13.662 15.9218 13.6222 15.8334 13.6733C15.7449 13.7245 15.759 13.8547 15.8091 13.9443C15.8398 13.983 15.8817 14.0121 15.9297 14.0278C15.9297 14.0278 16.0267 14.0609 16.0079 14.0331C15.9876 14.004 15.9748 13.9706 15.9707 13.9357C15.9666 13.9009 15.9714 13.8656 15.9845 13.8329C15.9965 13.8103 16.0153 13.7917 16.0385 13.7795C16.0483 13.7744 16.0589 13.7706 16.0698 13.7682C16.1175 13.7539 16.1308 13.7983 16.0588 13.7418C16.1668 13.8269 16.1708 14.0278 16.1238 14.155C16.099 14.2188 16.0541 14.2735 15.9954 14.3116C15.9844 14.318 15.9729 14.3235 15.961 14.3281C15.8991 14.3545 15.9156 14.2852 16.0111 14.3816C15.9911 14.3568 15.9755 14.3291 15.9649 14.2995C15.9403 14.2389 15.9295 14.1739 15.9334 14.109C15.9374 14.044 15.9558 13.9807 15.9876 13.9232C15.9946 13.9127 15.8146 13.7727 15.7825 13.8178L15.7856 13.8163Z" fill="#FB3D3D"/>
<path d="M16.3999 13.5781C16.4069 13.9506 16.4782 14.3247 16.4782 14.7025C16.4782 14.853 16.6934 14.9434 16.6934 14.7823C16.6934 14.3811 16.6199 13.9868 16.6152 13.5924C16.6152 13.4464 16.3999 13.4103 16.403 13.5781H16.3999Z" fill="#FB3D3D"/>
<path d="M16.5511 13.8141C16.5551 13.7871 16.5655 13.7613 16.5816 13.7388C16.5957 13.7275 16.6059 13.7306 16.62 13.7388C16.6791 13.7826 16.7228 13.8428 16.7452 13.9112C16.7761 13.975 16.7827 14.0471 16.764 14.1151C16.7272 14.222 16.5895 14.228 16.5088 14.2265C16.3961 14.2265 16.472 14.493 16.5746 14.4945C16.717 14.4945 16.872 14.4538 16.9323 14.2755C16.9824 14.1249 16.9378 13.9443 16.8799 13.8066C16.8219 13.6688 16.7358 13.5431 16.627 13.4912C16.5182 13.4393 16.4212 13.5055 16.3922 13.6485C16.3846 13.6811 16.3849 13.7149 16.3932 13.7473C16.4015 13.7796 16.4175 13.8097 16.4399 13.8352C16.472 13.869 16.5394 13.8841 16.5542 13.8179L16.5511 13.8141Z" fill="#FB3D3D"/>
<path d="M16.4298 15.4714C16.5762 15.5098 16.6286 15.4368 16.602 15.2457C16.591 15.1613 16.5559 15.0815 16.5006 15.0151C16.4454 14.9487 16.3721 14.8982 16.2889 14.8693C15.9327 14.7715 15.8779 15.3533 15.8975 15.6874C15.9186 16.0035 16.018 16.3776 16.2591 16.5296C16.5558 16.717 16.7539 16.4634 16.8854 16.1533C16.9034 16.1127 16.6928 16.0028 16.6631 16.0728C16.6198 16.1844 16.5602 16.2896 16.4862 16.3851C16.4635 16.4113 16.4371 16.4344 16.4079 16.4536C16.3468 16.4973 16.3601 16.4845 16.3335 16.4536C16.2216 16.3309 16.1691 16.1187 16.1363 15.9456C16.0951 15.7299 16.0951 15.5088 16.1363 15.2931C16.1733 15.1798 16.2215 15.0701 16.2803 14.9657C16.3251 15.0191 16.3574 15.0813 16.375 15.1478C16.387 15.221 16.3909 15.2951 16.3867 15.3691C16.2341 15.3292 16.3429 15.4511 16.4298 15.4737V15.4714Z" fill="#FB3D3D"/>
<path d="M16.8456 15.6423C16.7571 15.917 16.9113 16.224 17.1462 16.2444C17.199 16.2447 17.2512 16.2332 17.2987 16.2109C17.3461 16.1885 17.3876 16.1559 17.4197 16.1156C17.4519 16.0753 17.4739 16.0283 17.484 15.9785C17.4941 15.9286 17.4921 15.8772 17.4781 15.8282C17.4645 15.7504 17.4263 15.6786 17.3685 15.6227C17.3107 15.5667 17.2363 15.5294 17.1556 15.5158C17.113 15.5083 17.0691 15.5112 17.028 15.5243C16.987 15.5375 16.9501 15.5605 16.9207 15.5911C16.864 15.6776 16.8392 15.7799 16.8503 15.8816C16.8503 15.9569 17.0796 15.9659 17.0788 15.8876C17.0742 15.8157 17.0843 15.7436 17.1086 15.6754C17.1152 15.6583 17.1253 15.6427 17.1383 15.6295C17.1634 15.6046 17.1383 15.6295 17.1086 15.6219C17.0929 15.6219 17.1086 15.6219 17.1172 15.628C17.1362 15.6401 17.1536 15.6546 17.1689 15.6709C17.2011 15.7068 17.2263 15.7482 17.2432 15.7928C17.2613 15.8471 17.2642 15.9051 17.2516 15.9609C17.2389 16.0167 17.2112 16.0682 17.1712 16.1104C17.1604 16.1209 17.148 16.1297 17.1344 16.1367C17.1876 16.1089 17.19 16.1518 17.1501 16.1066C17.1214 16.0704 17.0989 16.03 17.0835 15.987C17.0443 15.887 17.0391 15.7776 17.0687 15.6746C17.0922 15.5994 16.8698 15.5715 16.8479 15.6408L16.8456 15.6423Z" fill="#FB3D3D"/>
<path d="M17.5398 15.6836C17.5892 15.7483 17.6226 15.8229 17.6377 15.9018C17.6651 15.8672 17.6925 15.8318 17.7207 15.7972C17.7269 15.807 17.7254 15.8055 17.7168 15.7919C17.7209 15.7981 17.7243 15.8046 17.7269 15.8115C17.7199 15.7957 17.7222 15.804 17.7207 15.7814C17.717 15.7441 17.721 15.7066 17.7324 15.6708C17.7473 15.6249 17.7911 15.5729 17.8169 15.6068C17.8428 15.6407 17.8999 15.7039 17.9273 15.6459C17.9349 15.6141 17.9351 15.581 17.9281 15.5491C17.9211 15.5171 17.9069 15.487 17.8866 15.4608C17.8342 15.3938 17.77 15.3215 17.6917 15.3321C17.6369 15.3389 17.5986 15.3983 17.5782 15.4585C17.5514 15.5505 17.5477 15.6472 17.5674 15.7408C17.5872 15.8343 17.6298 15.922 17.6917 15.9967C17.77 16.087 17.8021 15.9816 17.7747 15.892C17.7406 15.7428 17.6701 15.6034 17.5688 15.4856C17.5383 15.4555 17.4827 15.4269 17.4733 15.4954C17.4708 15.5294 17.4754 15.5636 17.4869 15.5959C17.4983 15.6282 17.5163 15.658 17.5398 15.6836Z" fill="#FB3D3D"/>
<path d="M18.0322 15.4916C18.0734 15.6396 18.1014 15.7906 18.116 15.9432C18.116 15.8822 18.1215 15.8213 18.1238 15.761C18.0776 15.594 18.1716 15.3403 18.3312 15.4299C18.4604 15.5051 18.4283 15.8265 18.4432 15.9643C18.4432 15.974 18.4588 16.0756 18.4651 16.0177C18.4699 15.9499 18.4681 15.8819 18.4596 15.8145C18.4408 15.6406 18.4659 15.0205 18.2005 15.1288C18.0917 15.1732 18.0831 15.3998 18.0808 15.5187C18.0723 15.6956 18.0889 15.8729 18.1301 16.0455C18.1363 16.0689 18.1418 16.0034 18.1418 16.0072C18.1418 15.9597 18.1418 15.9108 18.1418 15.8626C18.1255 15.653 18.0906 15.445 18.0377 15.241C18.0236 15.1853 18.0213 15.2824 18.0213 15.2937C18.0185 15.3607 18.0232 15.4278 18.0354 15.4939L18.0322 15.4916Z" fill="#FB3D3D"/>
<path d="M15.3432 16.7571L0.334961 16.3643L0.663728 24.7184C0.670945 24.9012 0.750943 25.0743 0.887173 25.2019C1.0234 25.3295 1.20544 25.4019 1.39563 25.4041L14.3475 25.5546C14.5418 25.5569 14.7293 25.4856 14.8696 25.3563C15.0099 25.2269 15.0917 25.0497 15.0974 24.863L15.3432 16.7571Z" fill="#263342"/>
<path d="M14.691 16.954L0.928223 16.5957L1.23038 24.2168C1.23702 24.3841 1.31045 24.5424 1.43539 24.6589C1.56034 24.7754 1.72718 24.841 1.90122 24.8423L13.7807 24.9793C13.9585 24.9819 14.1303 24.9172 14.2589 24.799C14.3875 24.6808 14.4626 24.5188 14.4679 24.3478L14.691 16.954Z" fill="#405166"/>
<path d="M15.4193 16.6107L0.263184 16.3525L0.768076 18.7978L15.262 18.7768L15.4193 16.6107Z" fill="#344256"/>
<path d="M15.2047 18.2762L0.32955 18.3529L0 15.7383L15.2971 16.4089L15.2047 18.2762Z" fill="#687F99"/>
<path d="M16.1028 14.279L1.19476 10.6611L0.379883 13.6257L15.4445 16.3028L16.1028 14.279Z" fill="#687F99"/>
<path d="M15.8559 14.4032L1.49346 10.9268L0.942383 13.4579L15.3189 16.1967L15.8559 14.4032Z" fill="#405166"/>
<path d="M15.5044 15.0828L1.3823 12.043L0.942383 13.4579L15.3189 16.1967L15.5044 15.0828Z" fill="#263342"/>
<path d="M1.67773 10.9707L2.42294 13.7396L4.39554 14.1152L3.73409 11.4682L1.67773 10.9707Z" fill="#B4C4D6"/>
<path d="M5.56689 11.9121L6.15789 14.4507L7.96376 14.7947L7.44243 12.3667L5.56689 11.9121Z" fill="#B4C4D6"/>
<path d="M9.40967 12.8428L9.86211 15.1564L11.5099 15.471L11.1146 13.2552L9.40967 12.8428Z" fill="#B4C4D6"/>
<path d="M12.7217 13.6445L13.0669 15.7669L14.5847 16.056L14.2849 14.0231L12.7217 13.6445Z" fill="#B4C4D6"/>
<path d="M14.9896 18.1681L0.562182 18.1816L0.274902 15.9268L15.1735 16.5424L14.9896 18.1681Z" fill="#405166"/>
<path d="M14.9894 18.1686L0.562012 18.1821L0.641855 17.1006L14.9346 17.1555L14.9894 18.1686Z" fill="#263342"/>
<path d="M0.745117 18.1814L1.8097 15.9912L3.8551 16.0755L2.78817 18.1799L0.745117 18.1814Z" fill="#B4C4D6"/>
<path d="M4.6167 18.178L5.68206 16.1504L7.55369 16.2279L6.49224 18.1765L4.6167 18.178Z" fill="#B4C4D6"/>
<path d="M8.46729 18.1746L9.52091 16.3096L11.2281 16.3803L10.1847 18.1731L8.46729 18.1746Z" fill="#B4C4D6"/>
<path d="M11.8081 18.1713L12.8414 16.4463L14.4132 16.511L13.3924 18.1698L11.8081 18.1713Z" fill="#B4C4D6"/>
<path d="M14.5089 14.7305C13.6001 15.8865 13.6095 15.8888 12.6592 17.0982L14.8815 17.2382L15.056 14.7997L14.5089 14.7305Z" fill="#263342"/>
<path d="M14.5536 14.8184C13.7661 15.8201 13.6792 15.9398 12.855 16.9889L14.7822 17.1109L14.9387 14.9094L14.5536 14.8184Z" fill="#65768E"/>
<path d="M14.8659 15.9345L14.9395 14.9094L14.5535 14.8184C14.1426 15.3452 13.9218 15.6244 13.687 15.9247L14.8659 15.9345Z" fill="#8498AF"/>
<path d="M13.9052 16.6467C13.9185 16.4924 13.8269 16.3585 13.6986 16.3457C13.5702 16.3329 13.4575 16.4503 13.4442 16.6046C13.4308 16.7589 13.5224 16.8928 13.6508 16.9056C13.7792 16.9184 13.8919 16.801 13.9052 16.6467Z" fill="#344256"/>
<path d="M14.7383 16.6796C14.7524 16.511 14.6514 16.3643 14.512 16.3515C14.3727 16.3387 14.2482 16.4666 14.2334 16.6352C14.2185 16.8038 14.3203 16.9506 14.4596 16.9626C14.5989 16.9746 14.721 16.8467 14.7383 16.6796Z" fill="#344256"/>
<path d="M14.8103 15.4922C14.8194 15.4173 14.7982 15.3418 14.7509 15.2816C14.7037 15.2213 14.6342 15.1808 14.5567 15.1686C14.5186 15.1661 14.4804 15.1711 14.4443 15.1831C14.4082 15.1952 14.375 15.2141 14.3466 15.2388C14.3183 15.2634 14.2954 15.2933 14.2793 15.3266C14.2632 15.3599 14.2543 15.396 14.253 15.4327C14.244 15.5077 14.2654 15.5832 14.3128 15.6433C14.3602 15.7035 14.4299 15.7437 14.5074 15.7556C14.5454 15.7581 14.5836 15.7531 14.6196 15.7411C14.6556 15.7291 14.6887 15.7102 14.717 15.6857C14.7452 15.6611 14.768 15.6313 14.7841 15.5981C14.8001 15.5648 14.8091 15.5288 14.8103 15.4922Z" fill="#344256"/>
<path d="M13.81 16.6296C13.8167 16.5921 13.8084 16.5536 13.7868 16.5218C13.7651 16.4899 13.7318 16.4672 13.6934 16.458C13.6741 16.4582 13.6552 16.4621 13.6375 16.4694C13.6199 16.4767 13.6039 16.4873 13.5906 16.5006C13.5772 16.514 13.5668 16.5297 13.5598 16.5469C13.5529 16.5641 13.5496 16.5825 13.5501 16.601C13.5434 16.6385 13.5517 16.677 13.5734 16.7088C13.595 16.7407 13.6284 16.7635 13.6668 16.7726C13.7054 16.7718 13.7422 16.7563 13.7691 16.7295C13.7959 16.7027 13.8106 16.6668 13.81 16.6296Z" fill="#8498AF"/>
<path d="M14.6285 16.6695C14.6357 16.6291 14.6267 16.5875 14.6033 16.5532C14.5799 16.5188 14.5439 16.4942 14.5025 16.4844C14.4815 16.4844 14.4607 16.4884 14.4414 16.4962C14.4221 16.5041 14.4047 16.5156 14.3901 16.5301C14.3755 16.5445 14.364 16.5616 14.3564 16.5804C14.3489 16.5992 14.3453 16.6193 14.3459 16.6394C14.3383 16.6799 14.3472 16.7217 14.3706 16.7561C14.394 16.7905 14.4303 16.815 14.4719 16.8246C14.4929 16.8246 14.5136 16.8205 14.5329 16.8127C14.5523 16.8049 14.5697 16.7934 14.5843 16.7789C14.5989 16.7644 14.6104 16.7473 14.6179 16.7285C14.6255 16.7097 14.6291 16.6897 14.6285 16.6695Z" fill="#8498AF"/>
<path d="M14.6864 15.4706C14.6924 15.4296 14.6819 15.388 14.657 15.3543C14.6321 15.3205 14.5947 15.2972 14.5525 15.2892C14.5315 15.2884 14.5104 15.2917 14.4907 15.2989C14.471 15.3061 14.453 15.317 14.4378 15.3311C14.4226 15.3451 14.4105 15.362 14.4022 15.3807C14.3939 15.3993 14.3897 15.4194 14.3897 15.4397C14.3839 15.4807 14.3947 15.5222 14.4197 15.5558C14.4447 15.5893 14.4822 15.6125 14.5244 15.6203C14.5453 15.6211 14.5662 15.6177 14.5858 15.6105C14.6053 15.6033 14.6232 15.5924 14.6383 15.5784C14.6534 15.5645 14.6655 15.5477 14.6737 15.5292C14.682 15.5107 14.6863 15.4907 14.6864 15.4706Z" fill="#8498AF"/>
<path d="M12.8852 23.6028L3.18506 23.4545L3.18662 23.3213L12.8876 23.4703L12.8852 23.6028Z" fill="#8EA7C1"/>
<path d="M5.06527 24.5203L4.94629 24.512L5.01596 23.3838L5.13494 23.3921L5.06527 24.5203Z" fill="#8EA7C1"/>
<path d="M2.35558 20.5463L2.35352 20.6787L13.6086 20.8412L13.6107 20.7087L2.35558 20.5463Z" fill="#8EA7C1"/>
<g style="mix-blend-mode:overlay" opacity="0.6">
<path d="M15.0996 24.8639L15.2976 18.2769L15.419 16.6076H15.2875L15.2976 16.4081L14.9415 16.3931L14.954 16.2154L15.4448 16.3028L16.1023 14.2782L7.77593 12.2559L6.66516 14.7395L13.5442 15.9618L13.2679 16.3201L6.10078 16.0062L1.90039 25.4118L14.3466 25.5556C14.5415 25.5586 14.7297 25.4878 14.8707 25.3583C15.0116 25.2289 15.0939 25.0512 15.0996 24.8639Z" fill="#685949"/>
</g>
<g style="mix-blend-mode:overlay" opacity="0.6">
<path d="M14.4248 18.7618V24.2808C14.4248 24.2808 14.5892 19.6145 14.6448 18.7588L14.4248 18.7618Z" fill="#685949"/>
</g>
<path d="M15.819 3.18674C15.8902 2.77505 15.6624 2.78258 15.3908 2.73968C15.1192 2.69678 14.9211 2.6185 14.8429 3.03019C14.7646 3.44188 14.9282 3.41554 15.1967 3.45844C15.4652 3.50134 15.7478 3.60069 15.819 3.18674Z" fill="#F4B867"/>
<path d="M16.3263 4.27752C16.2308 3.87035 16.0203 3.96142 15.7541 4.01862C15.488 4.07582 15.268 4.07958 15.3627 4.48675C15.4574 4.89393 15.5929 4.81189 15.859 4.75394C16.1252 4.69598 16.4226 4.68545 16.3263 4.27752Z" fill="#F4B867"/>
<path d="M19.1873 5.29899C19.3016 5.02879 19.0957 4.98062 18.8609 4.88805C18.626 4.79548 18.4538 4.69462 18.3395 4.96331C18.2252 5.232 18.3677 5.25157 18.6017 5.34339C18.8358 5.43521 19.073 5.56843 19.1873 5.29899Z" fill="#F4B867"/>
<path d="M14.1315 2.26446C14.1386 2.0748 13.9648 2.15081 13.8521 2.19973C13.7393 2.24865 13.6415 2.26897 13.7229 2.44208C13.8043 2.61518 13.8881 2.5053 14.0008 2.45638C14.041 2.44199 14.0754 2.4156 14.0989 2.38107C14.1225 2.34653 14.1339 2.30567 14.1315 2.26446Z" fill="#F4B867"/>
<path d="M15.6072 18.1124C15.6596 17.8663 16.1958 17.4148 16.3344 17.7211C16.473 18.0274 17.2416 17.8076 16.7814 18.561C16.3211 19.3144 16.0142 18.9516 16.0142 18.622C16.0142 18.2923 15.5548 18.3586 15.6072 18.1124Z" fill="#FB3D3D"/>
<path d="M15.8793 18.0723C15.9138 17.9098 16.2668 17.6125 16.3584 17.8134C16.45 18.0144 16.9564 17.8714 16.6527 18.3674C16.349 18.8634 16.1478 18.6248 16.1478 18.408C16.1478 18.1913 15.8441 18.2342 15.8793 18.0723Z" fill="#ECDBD5"/>
<path d="M15.7276 16.7461C15.7276 16.7461 16.1432 17.1164 15.9499 17.1774C15.7565 17.2383 15.9342 17.7644 15.5029 17.4641C15.0716 17.1638 15.3111 16.993 15.4199 16.9478C15.5342 16.8988 15.6384 16.8305 15.7276 16.7461Z" fill="#FB3D3D"/>
<path d="M15.6726 16.7764C15.6726 16.7764 15.8628 16.9465 15.7744 16.9736C15.6859 17.0007 15.7673 17.2422 15.5693 17.1053C15.3712 16.9683 15.4816 16.8893 15.5317 16.8689C15.5841 16.8465 15.6318 16.8151 15.6726 16.7764Z" fill="#ECDBD5"/>
<path d="M16.9673 17.786C16.9673 17.786 17.4745 17.9907 17.473 17.8063C17.4714 17.622 17.9473 17.5256 17.5058 17.2795C17.0643 17.0334 16.9876 17.2908 17.0706 17.4511C17.1536 17.6114 16.9673 17.786 16.9673 17.786Z" fill="#FB3D3D"/>
<g style="mix-blend-mode:overlay" opacity="0.6">
<path d="M13.6479 6.85832L17.655 25.3316L19.8742 9.62499C20.3391 6.8365 19.4162 6.72511 18.7931 8.74442C18.3086 4.906 16.1395 5.41628 15.5838 8.34477C15.0961 5.81894 14.4323 5.70755 13.6479 6.85832Z" fill="#0D0D0D"/>
</g>
<g style="mix-blend-mode:multiply" opacity="0.4">
<path d="M15.978 16.3974L14.8241 16.6638L14.5932 16.2649L13.578 16.5291L12.4241 14.3457L12.378 15.2887L13.0699 16.642L12.3435 16.864L12.0664 25.3823L17.7079 25.4493L15.8394 18.1728L16.3005 17.7732L15.978 16.3974Z" fill="#AD2C00"/>
</g>
<path d="M14.5816 3.96664C14.6388 3.63322 14.4188 3.59033 13.982 3.52184C13.5452 3.45335 13.1726 3.02886 12.9378 3.54216C12.7241 4.0133 13.2509 4.37005 13.6853 4.44531C14.1198 4.52058 14.5261 4.30005 14.5816 3.96664Z" fill="#F4B867"/>
<path d="M13.774 4.21735C13.3419 4.14811 12.826 3.79663 13.0202 3.33301C12.8988 3.33301 12.7924 3.39322 12.7071 3.58363C12.4941 4.05478 13.0202 4.41153 13.4546 4.48679C13.8186 4.54549 14.1591 4.40701 14.293 4.16692C14.1284 4.2305 13.9485 4.24799 13.774 4.21735Z" fill="#875713"/>
<g style="mix-blend-mode:overlay" opacity="0.4">
<path d="M14.3467 5.31628C14.3467 5.10253 14.0696 5.19435 13.7737 5.06866C13.4434 4.92943 13.1733 5.10253 13.1733 5.31628C13.1733 5.53002 13.4364 5.70238 13.7596 5.70238C14.0829 5.70238 14.3467 5.52927 14.3467 5.31628Z" fill="#FFF2C6"/>
</g>
<g style="mix-blend-mode:overlay" opacity="0.4">
<path d="M10.8522 3.24934C10.8522 3.09128 10.6761 3.15902 10.4875 3.06645C10.2777 2.96334 10.1055 3.09128 10.1055 3.24934C10.1055 3.40739 10.2722 3.53534 10.4789 3.53534C10.6855 3.53534 10.8522 3.40739 10.8522 3.24934Z" fill="#FFF2C6"/>
</g>
<g style="mix-blend-mode:overlay" opacity="0.4">
<path d="M12.3592 3.00922C12.23 2.97535 12.3318 2.82633 12.3052 2.6329C12.2762 2.4169 12.4257 2.28444 12.5549 2.31755C12.684 2.35067 12.7443 2.53356 12.6903 2.72548C12.6363 2.9174 12.4875 3.04309 12.3592 3.00922Z" fill="#FFF2C6"/>
</g>
<g style="mix-blend-mode:overlay" opacity="0.4">
<path d="M16.7248 3.94009C16.5957 3.90623 16.6974 3.75721 16.6716 3.56378C16.6426 3.34702 16.7922 3.21456 16.9205 3.24843C17.0489 3.28229 17.11 3.46443 17.056 3.6556C17.0019 3.84677 16.8516 3.97697 16.7248 3.94009Z" fill="#FFF2C6"/>
</g>
<g style="mix-blend-mode:overlay" opacity="0.4">
<path d="M11.5554 4.90478C11.4529 4.87844 11.5429 4.72641 11.5327 4.53524C11.5202 4.32375 11.6494 4.18527 11.7519 4.21236C11.8544 4.23946 11.8944 4.41557 11.8396 4.60674C11.7848 4.79791 11.6588 4.93188 11.5554 4.90478Z" fill="#FFF2C6"/>
</g>
</svg>
