<svg xmlns="http://www.w3.org/2000/svg" xmlns:xlink="http://www.w3.org/1999/xlink" width="163" height="196" viewBox="0 0 163 196">
    <defs>
        <linearGradient id="1kd28k2m5f" x1=".488" y1=".49" x2=".963" y2=".88" gradientUnits="objectBoundingBox">
            <stop offset="0" stop-color="#5e6fdb" stop-opacity=".2"/>
            <stop offset="1" stop-color="#f6f8ff" stop-opacity=".2"/>
        </linearGradient>
        <linearGradient id="9g16kofwxg" x1="-6.209" y1="2.007" x2="-6.209" y2="2.007" gradientUnits="objectBoundingBox">
            <stop offset="0" stop-color="gray" stop-opacity=".251"/>
            <stop offset=".54" stop-color="gray" stop-opacity=".122"/>
            <stop offset="1" stop-color="gray" stop-opacity=".102"/>
        </linearGradient>
        <linearGradient id="poujocgp8h" x1=".443" y1=".138" x2=".615" y2=".986" gradientUnits="objectBoundingBox">
            <stop offset="0" stop-color="#31467a"/>
            <stop offset="1" stop-color="#0e204d"/>
        </linearGradient>
        <linearGradient id="8wyvhthl3b" x1=".565" y1=".181" x2=".367" y2=".926" gradientUnits="objectBoundingBox">
            <stop offset="0" stop-color="#fdfefe"/>
            <stop offset="1" stop-color="#e3edf3"/>
        </linearGradient>
        <linearGradient id="5hu340d7ma" x1=".684" y1=".052" x2=".294" y2=".917" gradientUnits="objectBoundingBox">
            <stop offset="0" stop-color="#ffa77c"/>
            <stop offset="1" stop-color="#ff6a63"/>
        </linearGradient>
        <linearGradient id="xcfkbpjx3i" x1=".572" y1=".106" x2=".446" y2=".946" xlink:href="#5hu340d7ma"/>
        <linearGradient id="01lcstlocj" x1=".009" y1=".244" x2=".976" y2=".748" gradientUnits="objectBoundingBox">
            <stop offset="0" stop-color="#7a88ff"/>
            <stop offset="1" stop-color="#1c24b4"/>
        </linearGradient>
        <linearGradient id="qly9j0jtck" x1=".25" y1=".745" x2=".853" y2=".172" xlink:href="#8wyvhthl3b"/>
        <linearGradient id="n6ms0ya87l" x1="0" y1=".5" x2="1" y2=".5" xlink:href="#5hu340d7ma"/>
        <linearGradient id="7fq9kzrw4m" x1=".251" y1=".07" x2=".844" y2=".991" xlink:href="#5hu340d7ma"/>
        <linearGradient id="vzx9w2jltn" x1=".891" y1=".5" x2=".082" y2=".5" xlink:href="#5hu340d7ma"/>
        <linearGradient id="htqakg7n0o" x1=".72" y1=".173" x2="-.052" y2=".91" xlink:href="#5hu340d7ma"/>
        <linearGradient id="9a4c29zruc" x1=".408" y1=".368" x2=".586" y2=".718" gradientUnits="objectBoundingBox">
            <stop offset="0" stop-color="#fdfefe"/>
            <stop offset=".175" stop-color="#f6fafd"/>
            <stop offset=".416" stop-color="#e5f2fb"/>
            <stop offset=".693" stop-color="#c8e4f7"/>
            <stop offset=".996" stop-color="#a0d0f3"/>
            <stop offset="1" stop-color="#a0d0f3"/>
        </linearGradient>
        <linearGradient id="ssi8crztap" x1=".301" y1=".178" x2=".822" y2=".852" gradientUnits="objectBoundingBox">
            <stop offset="0" stop-color="#bac1ff"/>
            <stop offset=".23" stop-color="#b3bbff"/>
            <stop offset=".545" stop-color="#a2abff"/>
            <stop offset=".907" stop-color="#8592ff"/>
            <stop offset="1" stop-color="#7d8bff"/>
        </linearGradient>
        <linearGradient id="wfnd1vazaq" x1="0" y1=".5" x2="1" y2=".5" xlink:href="#9a4c29zruc"/>
        <linearGradient id="cv9s2dndvr" x1=".362" y1=".242" x2=".831" y2=".627" gradientUnits="objectBoundingBox">
            <stop offset="0" stop-color="#5a3f53"/>
            <stop offset="1" stop-color="#301a29"/>
        </linearGradient>
        <linearGradient id="64q8yp3y5s" x1=".114" y1=".057" x2=".598" y2=".44" gradientUnits="objectBoundingBox">
            <stop offset="0" stop-color="#00a7f8"/>
            <stop offset=".999" stop-color="#1e42c2"/>
        </linearGradient>
        <linearGradient id="p1bhn65myd" x1="-.06" y1=".041" x2=".318" y2=".328" gradientUnits="objectBoundingBox">
            <stop offset="0" stop-color="#00c8ff"/>
            <stop offset="1" stop-color="#0662e2"/>
        </linearGradient>
        <linearGradient id="ciq7o9s80t" x1="0" y1=".5" x2="1" y2=".5" xlink:href="#p1bhn65myd"/>
        <clipPath id="z3q38an47e">
            <rect width="163" height="196" rx="8" style="fill:#f98000"/>
        </clipPath>
    </defs>
    <g transform="translate(12.211 7.314)" data-name="Mask Group 487" style="clip-path:url(#z3q38an47e)">
        <path data-name="Path 9277" d="M710.65 199.461c-21.18 31.256-5.6 84.464-29.645 114.008-23.833 29.672-87.823 35.36-108.844 66.71a45.334 45.334 0 0 0-2.761 4.721h156.93a5.485 5.485 0 0 0 5.389-5.576V179.923c-8.477 5.645-15.852 11.947-21.069 19.538z" transform="translate(-569.398 -179.923)" style="stroke:transparent;stroke-miterlimit:10;fill:url(#1kd28k2m5f)"/>
        <path data-name="Union 20" d="M1.979 52.944A1.6 1.6 0 0 1 3.58 51.3a1.664 1.664 0 0 1 1.62 1.668 1.605 1.605 0 0 1-1.6 1.643 1.664 1.664 0 0 1-1.621-1.667zm10 .076a1.284 1.284 0 0 1 1.28-1.314 1.331 1.331 0 0 1 1.3 1.334 1.284 1.284 0 0 1-1.28 1.314 1.331 1.331 0 0 1-1.302-1.334zm10 .076a.963.963 0 0 1 .96-.986 1 1 0 0 1 .975 1 .963.963 0 0 1-.96.986 1 1 0 0 1-.979-.996zm10 .076a.642.642 0 0 1 .64-.657.665.665 0 0 1 .65.667.642.642 0 0 1-.64.657.666.666 0 0 1-.657-.668zm19.673.149a.321.321 0 0 1 .32-.329.333.333 0 0 1 .325.333.321.321 0 0 1-.32.328.333.333 0 0 1-.332-.333zm-9.675-.073a.321.321 0 0 1 .32-.329.333.333 0 0 1 .325.333.321.321 0 0 1-.32.328.333.333 0 0 1-.332-.333zM1.583 43.012A1.926 1.926 0 0 1 3.5 41.041a2 2 0 0 1 1.95 2 1.926 1.926 0 0 1-1.92 1.971 2 2 0 0 1-1.947-2zm10 .076a1.6 1.6 0 0 1 1.6-1.643 1.664 1.664 0 0 1 1.625 1.667 1.6 1.6 0 0 1-1.6 1.643 1.664 1.664 0 0 1-1.627-1.667zm10 .076a1.284 1.284 0 0 1 1.28-1.314 1.331 1.331 0 0 1 1.3 1.334 1.284 1.284 0 0 1-1.28 1.314 1.331 1.331 0 0 1-1.304-1.334zm10 .076a.963.963 0 0 1 .96-.986 1 1 0 0 1 .975 1 .963.963 0 0 1-.96.986 1 1 0 0 1-.982-1.001zm10 .076a.642.642 0 0 1 .64-.657.666.666 0 0 1 .65.667.642.642 0 0 1-.64.657.666.666 0 0 1-.659-.668zm10 .076a.321.321 0 0 1 .32-.328.333.333 0 0 1 .325.333.321.321 0 0 1-.32.329.333.333 0 0 1-.336-.335zM1.187 33.08a2.247 2.247 0 0 1 2.241-2.3A2.329 2.329 0 0 1 5.7 33.115a2.247 2.247 0 0 1-2.24 2.3 2.33 2.33 0 0 1-2.273-2.335zm10 .076a1.926 1.926 0 0 1 1.92-1.971 2 2 0 0 1 1.95 2 1.926 1.926 0 0 1-1.92 1.971 2 2 0 0 1-1.952-2zm10 .076a1.6 1.6 0 0 1 1.6-1.643 1.664 1.664 0 0 1 1.625 1.667 1.6 1.6 0 0 1-1.6 1.643 1.664 1.664 0 0 1-1.629-1.667zm10 .076a1.284 1.284 0 0 1 1.28-1.314 1.331 1.331 0 0 1 1.3 1.334 1.284 1.284 0 0 1-1.28 1.314 1.331 1.331 0 0 1-1.306-1.334zm10 .076a.963.963 0 0 1 .96-.986 1 1 0 0 1 .975 1 .963.963 0 0 1-.96.986 1 1 0 0 1-.984-1.001zm10 .076a.642.642 0 0 1 .64-.657.666.666 0 0 1 .65.667.642.642 0 0 1-.64.657.666.666 0 0 1-.661-.668zM.792 23.149a2.568 2.568 0 0 1 2.56-2.628 2.662 2.662 0 0 1 2.6 2.667 2.568 2.568 0 0 1-2.56 2.628 2.662 2.662 0 0 1-2.6-2.667zm10 .076a2.247 2.247 0 0 1 2.24-2.3 2.33 2.33 0 0 1 2.268 2.334 2.247 2.247 0 0 1-2.241 2.3 2.329 2.329 0 0 1-2.27-2.334zm10 .076a1.926 1.926 0 0 1 1.92-1.971 2 2 0 0 1 1.95 2 1.926 1.926 0 0 1-1.92 1.971 2 2 0 0 1-1.955-2.001zm10 .076a1.6 1.6 0 0 1 1.6-1.643A1.664 1.664 0 0 1 34.01 23.4a1.605 1.605 0 0 1-1.6 1.643 1.664 1.664 0 0 1-1.625-1.667zm10 .076a1.284 1.284 0 0 1 1.28-1.314 1.331 1.331 0 0 1 1.3 1.334 1.284 1.284 0 0 1-1.28 1.314 1.331 1.331 0 0 1-1.309-1.335zm10 .076a.963.963 0 0 1 .96-.986 1 1 0 0 1 .975 1 .963.963 0 0 1-.96.986 1 1 0 0 1-.987-1.001zM.4 13.217a2.889 2.889 0 0 1 2.877-2.957 3 3 0 0 1 2.925 3 2.889 2.889 0 0 1-2.881 2.957 3 3 0 0 1-2.921-3zm10 .076a2.568 2.568 0 0 1 2.56-2.628 2.662 2.662 0 0 1 2.6 2.667 2.568 2.568 0 0 1-2.561 2.628 2.662 2.662 0 0 1-2.605-2.667zm10 .076a2.247 2.247 0 0 1 2.24-2.3 2.329 2.329 0 0 1 2.266 2.331 2.247 2.247 0 0 1-2.24 2.3 2.33 2.33 0 0 1-2.275-2.331zm10 .076a1.926 1.926 0 0 1 1.92-1.971 2 2 0 0 1 1.95 2 1.926 1.926 0 0 1-1.92 1.971 2 2 0 0 1-1.961-2.001zm10 .076a1.6 1.6 0 0 1 1.6-1.643 1.664 1.664 0 0 1 1.625 1.667 1.6 1.6 0 0 1-1.6 1.643 1.664 1.664 0 0 1-1.638-1.668zm10 .076a1.284 1.284 0 0 1 1.28-1.314 1.331 1.331 0 0 1 1.3 1.334 1.284 1.284 0 0 1-1.28 1.314 1.331 1.331 0 0 1-1.316-1.331zM0 3.285A3.21 3.21 0 0 1 3.2 0a3.328 3.328 0 0 1 3.25 3.334 3.21 3.21 0 0 1-3.2 3.286A3.328 3.328 0 0 1 0 3.285zm10 .076A2.889 2.889 0 0 1 12.878.4a3 3 0 0 1 2.925 3 2.889 2.889 0 0 1-2.881 2.957A3 3 0 0 1 10 3.361zm10 .076A2.568 2.568 0 0 1 22.556.809a2.662 2.662 0 0 1 2.6 2.667A2.568 2.568 0 0 1 22.6 6.1 2.662 2.662 0 0 1 20 3.437zm10 .076a2.247 2.247 0 0 1 2.241-2.3 2.329 2.329 0 0 1 2.275 2.334 2.247 2.247 0 0 1-2.24 2.3 2.329 2.329 0 0 1-2.283-2.334zm10 .076a1.926 1.926 0 0 1 1.92-1.971 2 2 0 0 1 1.95 2 1.926 1.926 0 0 1-1.92 1.971 2 2 0 0 1-1.959-2.001zm10 .076a1.6 1.6 0 0 1 1.6-1.643 1.664 1.664 0 0 1 1.625 1.667 1.6 1.6 0 0 1-1.6 1.643 1.664 1.664 0 0 1-1.636-1.668z" transform="rotate(14.98 13.196 526.349)" style="fill:#fff"/>
        <path data-name="Union 21" d="M2.281 51.867a1.584 1.584 0 0 1 1.625-1.6 1.686 1.686 0 0 1 1.667 1.643 1.584 1.584 0 0 1-1.625 1.6 1.686 1.686 0 0 1-1.667-1.643zm10.2.131a1.267 1.267 0 0 1 1.3-1.28 1.349 1.349 0 0 1 1.334 1.314 1.267 1.267 0 0 1-1.3 1.28A1.349 1.349 0 0 1 12.486 52zm10.2.131a.95.95 0 0 1 .975-.96 1.012 1.012 0 0 1 1 .986.95.95 0 0 1-.975.96 1.012 1.012 0 0 1-.991-.986zm10.2.131a.634.634 0 0 1 .65-.64.674.674 0 0 1 .667.657.633.633 0 0 1-.65.64.674.674 0 0 1-.648-.656zm20.08.258a.317.317 0 0 1 .325-.32.337.337 0 0 1 .333.329.317.317 0 0 1-.325.32.337.337 0 0 1-.319-.328zm-9.861-.126a.317.317 0 0 1 .325-.32.337.337 0 0 1 .333.329.317.317 0 0 1-.325.32.337.337 0 0 1-.333-.329zM1.825 42.134a1.9 1.9 0 0 1 1.95-1.92 2.023 2.023 0 0 1 2 1.971 1.9 1.9 0 0 1-1.95 1.92 2.023 2.023 0 0 1-2-1.971zm10.2.131a1.584 1.584 0 0 1 1.625-1.6 1.686 1.686 0 0 1 1.667 1.643 1.584 1.584 0 0 1-1.625 1.6 1.686 1.686 0 0 1-1.662-1.643zm10.2.131a1.267 1.267 0 0 1 1.3-1.28 1.349 1.349 0 0 1 1.334 1.314 1.267 1.267 0 0 1-1.3 1.28 1.349 1.349 0 0 1-1.325-1.31zm10.2.131a.95.95 0 0 1 .975-.96 1.012 1.012 0 0 1 1 .986.95.95 0 0 1-.975.96 1.012 1.012 0 0 1-.986-.986zm10.2.131a.633.633 0 0 1 .65-.64.674.674 0 0 1 .667.657.634.634 0 0 1-.65.64.674.674 0 0 1-.648-.657zm10.2.131a.317.317 0 0 1 .325-.32.337.337 0 0 1 .333.328.317.317 0 0 1-.325.32.337.337 0 0 1-.31-.327zM1.369 32.4a2.217 2.217 0 0 1 2.275-2.24 2.36 2.36 0 0 1 2.334 2.3A2.217 2.217 0 0 1 3.7 34.7a2.36 2.36 0 0 1-2.331-2.3zm10.2.131a1.9 1.9 0 0 1 1.95-1.92 2.023 2.023 0 0 1 2 1.971 1.9 1.9 0 0 1-1.95 1.92 2.023 2.023 0 0 1-1.996-1.97zm10.2.131a1.584 1.584 0 0 1 1.625-1.6 1.686 1.686 0 0 1 1.667 1.643 1.584 1.584 0 0 1-1.625 1.6 1.686 1.686 0 0 1-1.658-1.642zm10.2.131a1.267 1.267 0 0 1 1.3-1.28 1.349 1.349 0 0 1 1.334 1.314 1.267 1.267 0 0 1-1.3 1.28 1.349 1.349 0 0 1-1.32-1.313zm10.2.131a.95.95 0 0 1 .975-.96 1.011 1.011 0 0 1 1 .986.95.95 0 0 1-.975.96 1.012 1.012 0 0 1-.982-.985zm10.2.131a.634.634 0 0 1 .65-.64.674.674 0 0 1 .667.657.634.634 0 0 1-.65.64.674.674 0 0 1-.644-.655zM.913 22.667a2.534 2.534 0 0 1 2.6-2.561 2.7 2.7 0 0 1 2.667 2.628 2.534 2.534 0 0 1-2.6 2.56 2.7 2.7 0 0 1-2.667-2.627zm10.2.131a2.217 2.217 0 0 1 2.275-2.241 2.36 2.36 0 0 1 2.334 2.3 2.217 2.217 0 0 1-2.275 2.24 2.36 2.36 0 0 1-2.33-2.297zm10.2.131a1.9 1.9 0 0 1 1.95-1.92 2.023 2.023 0 0 1 2 1.971 1.9 1.9 0 0 1-1.95 1.92 2.023 2.023 0 0 1-1.991-1.97zm10.2.131a1.584 1.584 0 0 1 1.625-1.6 1.686 1.686 0 0 1 1.68 1.64 1.584 1.584 0 0 1-1.625 1.6 1.686 1.686 0 0 1-1.666-1.639zm10.2.131a1.267 1.267 0 0 1 1.3-1.28 1.349 1.349 0 0 1 1.334 1.314 1.267 1.267 0 0 1-1.3 1.28 1.349 1.349 0 0 1-1.316-1.313zm10.2.131a.95.95 0 0 1 .975-.96 1.012 1.012 0 0 1 1 .986.95.95 0 0 1-.975.96 1.011 1.011 0 0 1-.977-.985zM.456 12.934a2.851 2.851 0 0 1 2.925-2.881 3.035 3.035 0 0 1 3 2.957 2.851 2.851 0 0 1-2.924 2.881 3.035 3.035 0 0 1-3.001-2.957zm10.2.131a2.534 2.534 0 0 1 2.6-2.561 2.7 2.7 0 0 1 2.667 2.628 2.534 2.534 0 0 1-2.6 2.561 2.7 2.7 0 0 1-2.662-2.628zm10.2.131a2.217 2.217 0 0 1 2.275-2.24 2.36 2.36 0 0 1 2.334 2.3A2.217 2.217 0 0 1 23.2 15.5a2.36 2.36 0 0 1-2.334-2.3zm10.2.131a1.9 1.9 0 0 1 1.95-1.92 2.023 2.023 0 0 1 2 1.971 1.9 1.9 0 0 1-1.95 1.92 2.023 2.023 0 0 1-1.986-1.97zm10.2.131a1.584 1.584 0 0 1 1.625-1.6 1.686 1.686 0 0 1 1.686 1.642 1.584 1.584 0 0 1-1.625 1.6 1.686 1.686 0 0 1-1.667-1.641zm10.2.131a1.267 1.267 0 0 1 1.3-1.28 1.349 1.349 0 0 1 1.334 1.314 1.267 1.267 0 0 1-1.3 1.28 1.349 1.349 0 0 1-1.31-1.313zM0 3.2A3.167 3.167 0 0 1 3.25 0a3.372 3.372 0 0 1 3.334 3.286 3.167 3.167 0 0 1-3.249 3.2A3.372 3.372 0 0 1 0 3.2zm10.2.131A2.851 2.851 0 0 1 13.129.452a3.035 3.035 0 0 1 3 2.957 2.851 2.851 0 0 1-2.925 2.881A3.035 3.035 0 0 1 10.2 3.332zm10.2.131A2.534 2.534 0 0 1 23.009.9a2.7 2.7 0 0 1 2.667 2.628 2.534 2.534 0 0 1-2.6 2.561 2.7 2.7 0 0 1-2.666-2.626zm10.2.131a2.217 2.217 0 0 1 2.275-2.24 2.36 2.36 0 0 1 2.334 2.3 2.217 2.217 0 0 1-2.275 2.24 2.36 2.36 0 0 1-2.32-2.298zm10.2.131a1.9 1.9 0 0 1 1.95-1.92 2.023 2.023 0 0 1 2 1.971 1.9 1.9 0 0 1-1.95 1.92 2.023 2.023 0 0 1-1.981-1.969zm10.2.131a1.584 1.584 0 0 1 1.625-1.6 1.686 1.686 0 0 1 1.69 1.645 1.584 1.584 0 0 1-1.625 1.6 1.686 1.686 0 0 1-1.666-1.643z" transform="rotate(-120 84.36 111.307)" style="fill:#fff"/>
        <path data-name="Path 8430" d="m710.809 345.277-.556-1.641.207-.226-1.1-5.581a2.176 2.176 0 0 0 .045-.6 2.624 2.624 0 0 0-.474-1.639l-.219-1.108a1.315 1.315 0 0 1 .017-.263c.451-6.517-2.255-14.4-2.255-14.4v-7.249l-2.091-14.193c.04-7.1-2.663-9.581-2.663-9.581s-.221-.054-.582-.167c-.715-1.525-1.934-3.931-3.924-7.794a15.329 15.329 0 0 0-2.861-3.961 11.24 11.24 0 0 0-5.643-3.22 5.318 5.318 0 0 1 .6-.592c.474-.4 1-.712 1.452-1.135a5.606 5.606 0 0 0 1.321-2.11 6.681 6.681 0 0 0 .359-3.65 4.647 4.647 0 0 0-1.988-3.012 4.829 4.829 0 0 1-.839-.563 3.443 3.443 0 0 1-.677-1.255 11.784 11.784 0 0 0-2.65-4.043 2.907 2.907 0 0 0-1.745-1 4.362 4.362 0 0 0-2 .6 8.14 8.14 0 0 1-6.973-.245c-1.047-.553-2.055-1.359-3.238-1.341a2.76 2.76 0 0 0-2.065 1.093c.021-.047.04-.093.064-.139a3.538 3.538 0 0 0-.818 1.771v.066a6.461 6.461 0 0 0 1.855 4.962c-.1.133-.2.265-.3.4a10.2 10.2 0 0 0-1.561 8.32 1.352 1.352 0 0 0-.179.1l-1.345.938-3.061 2.728-1.368.954c1.43-1.085 3.481-2.854 2.99-3.259-.677-.558-7.52 1.474-9.088 3.358a25.366 25.366 0 0 0-2.325 3.8l-.055-.1c-.064.089-.135.194-.214.309l-.031-.059c-.319.443-.822 1.2-1.38 2.056-.2.309-.413.634-.62.961-2.165 2.509-6.332 7.562-6.935 9.989 0 0-4.1 6.846-3.112 10.229s4.96 4.043 7.827 3.012c2.048-.737 7.126-3.259 9.86-4.644l-.271 3.984s-2.237 16.37-3.984 23.01a10.977 10.977 0 0 1-.851 2.44 1.71 1.71 0 0 0-.093.174c-1.768 3.471-4.456 22.969-4.456 22.969s-2.385 2.6 2.212 2.928c3.167.226 5.064 3 5.936 4.706v.037c-.093 2.606-.135 4.829-.076 6.227a97.281 97.281 0 0 1-.618 12.617 16.052 16.052 0 0 0 .135 4.391c.672 4 2.127 12.176 3.315 15.658a24.4 24.4 0 0 1 .861 9.9s1.6 5.072 3.073 6.93a1.4 1.4 0 0 0 .384.309c-.019.15-.038.3-.064.457a8.376 8.376 0 0 1-1.953 4.377c-1.745 1.87-4.165 4.421-4.449 6.279a1.766 1.766 0 0 0 1.376 2.053c3.576 1.319 8.2 0 8.2 0s3.117-1.156 3.117-2.311 1.271-1.154 1.271-1.154l2.048-1.474a16.6 16.6 0 0 0 0-2.292 8.389 8.389 0 0 0-1.316-4.461 4.684 4.684 0 0 1-.656-1.135 4.457 4.457 0 0 1-.155-.466 5.778 5.778 0 0 1 1.549-.182c.369.245 1.476-6.559-1.353-10.148s-1.476-6.81-1.476-6.81-.369-13.118-2.212-14.23c0 0 1.473-3.961 1.353-5.94s-.737-5.94 0-6.81c.348-.413 1.781-3.194 3.186-6 .083-.165.167-.329.238-.488.865.062 1.818.1 2.813.079q.018.243.04.488a17.43 17.43 0 0 0 1.95 7.163v12.5a34.777 34.777 0 0 0 1.6 5.075c.737 1.486-2.293 11.755-2.293 11.755s-1.683 12.56 0 14.137a2.916 2.916 0 0 0 1.23.589q.039.254.074.516a17.364 17.364 0 0 1 .21 4.56 12.437 12.437 0 0 0 .019 4.092c.036.209.062.319.062.319s-.777 4 4.591 3.427 5.942-2.311 5.942-2.311a1.452 1.452 0 0 0-.012-.155 10.929 10.929 0 0 0-.152-1.177 12.973 12.973 0 0 0-1.986-4.85 3.908 3.908 0 0 1-.715-2.064c0-.488-.031-1.032-.057-1.562 0-.164-.017-.329-.026-.488.387-.027.618-.049.618-.049s1.718-3.1 1.6-9.035a45.65 45.65 0 0 1 1.339-11.381s.369-8.91 0-10.148-.78-8.241.164-9.195c.653-.66 1.5-8.777 1.962-13.693.017-.167.031-.329.045-.488 1.2-.049 1.967-.056 1.967-.056s.135-3.639.25-8.6l.521-.209c-.225.37.017 1.379 1.759.872 2.243-.648 5.225-1.207 5.225-1.207s1.6-1.177 1.668-2.012a9.542 9.542 0 0 1 .277-1.263c3.5-1.437 6.373-2.636 6.373-2.636s1.137-1.907-.991-5.414zm-12.255-20.752.425 3.493-1.192.378-2.51.176c-.7-6.537.474-17.542.474-17.542l.212-.139c1.062 4.419 2.591 13.634 2.591 13.634zm-12.533-45.54c-.052-.125-.1-.245-.155-.393l.238.379a.549.549 0 0 0-.083.015zm9.336 50.192-.043-.349.822-.18 1.3-.139zm-25.847-48.2c-.35.086-.715.18-1.061.285l.062-.037 1.02-.627a3.147 3.147 0 0 0-.021.367zm-11.568 9.1a2.564 2.564 0 0 1-1.23.37l1.883-3.758a9.767 9.767 0 0 0 .589-1.061 3.06 3.06 0 0 1 1.7-.174s.456-.1 1.159-.283a7.929 7.929 0 0 0-.453.658c-.21.341-2.831 3.832-3.648 4.251zm38.844 66.73.591-.234c-.25.189-.463.289-.588.234z" transform="translate(-548.973 -202.603)" style="fill:url(#9g16kofwxg)"/>
        <path data-name="Path 8431" d="M689.929 284.746c-.758.459-.782 2.422-.665 4 .083 1.153.238 2.1.238 2.1l-4.933 12.357s-1.826-8.8-1.858-12.734a2.992 2.992 0 0 1 .135-.915c.872-2.841 5.704-4.427 7.083-4.808z" transform="translate(-561.938 -211.52)" style="fill:#67647e"/>
        <path data-name="Path 8432" d="M693.745 284.6s-.135.032-.365.1a.7.7 0 0 1 .365-.1z" transform="translate(-565.39 -211.475)" style="fill:#67647e"/>
        <path data-name="Path 8433" d="m683.958 495.472-1.986 1.474s-1.233 0-1.233 1.147-3.019 2.292-3.019 2.292-4.491 1.31-7.948 0a1.753 1.753 0 0 1-1.333-2.039c.275-1.85 2.623-4.378 4.313-6.232a8.347 8.347 0 0 0 1.894-4.343 13.381 13.381 0 0 0 .135-3.107l7.272-.533a5.087 5.087 0 0 0 0 3.508 4.605 4.605 0 0 0 .637 1.125 8.487 8.487 0 0 1 1.278 4.421 16.637 16.637 0 0 1-.01 2.287z" transform="translate(-557.313 -271.923)" style="fill:#301c2b"/>
        <path data-name="Path 8434" d="M708.152 499.3s-.556 1.72-5.762 2.295-4.46-3.4-4.46-3.4-.026-.112-.06-.316a12.581 12.581 0 0 1-.019-4.064 17.908 17.908 0 0 0-.2-4.525c-.271-1.98-.632-3.746-.632-3.746l8.068.619s.14 1.692.221 3.405c.026.533.048 1.066.055 1.548a3.949 3.949 0 0 0 .7 2.051 13.037 13.037 0 0 1 1.927 4.815 11.327 11.327 0 0 1 .148 1.169l.014.149z" transform="translate(-566.566 -272.35)" style="fill:#301c2b"/>
        <path data-name="Path 8435" d="m683.958 499.406-1.986 1.474s-1.233 0-1.233 1.147-3.019 2.292-3.019 2.292-4.491 1.31-7.948 0a1.753 1.753 0 0 1-1.333-2.039c.107 0 .21.015.3.017 1.416.047 2.794.44 4.206.57a20.2 20.2 0 0 0 2.412.039 8.242 8.242 0 0 0 1.192-.1 8.582 8.582 0 0 0 2.689-1.182 1.534 1.534 0 0 0 .537-.432 2.161 2.161 0 0 0 .238-.658 4.529 4.529 0 0 1 2.1-2.579 9.04 9.04 0 0 1 1.853-.825 16.647 16.647 0 0 1-.008 2.276z" transform="translate(-557.313 -275.863)" style="fill:#67647e"/>
        <path data-name="Path 8436" d="M708.565 504.657s-.556 1.719-5.762 2.295-4.46-3.4-4.46-3.4-.026-.112-.059-.316c.238.128.44.245.534.3.474.288.9.683 1.4.95a6.268 6.268 0 0 0 3.967.245c.632-.1 1.264-.2 1.894-.316a4.683 4.683 0 0 0 1.385-.422 8.207 8.207 0 0 0 .934-.653 11.288 11.288 0 0 1 .148 1.169l.019.148z" transform="translate(-566.976 -277.711)" style="fill:#67647e"/>
        <path data-name="Path 8437" d="m683.958 499.406-1.986 1.474s-1.233 0-1.233 1.147-3.019 2.292-3.019 2.292-4.491 1.31-7.948 0a1.753 1.753 0 0 1-1.333-2.039c.107 0 .21.015.3.017 1.416.047 2.794.44 4.206.57a20.2 20.2 0 0 0 2.412.039 8.242 8.242 0 0 0 1.192-.1 8.582 8.582 0 0 0 2.689-1.182 1.534 1.534 0 0 0 .537-.432 2.161 2.161 0 0 0 .238-.658 4.529 4.529 0 0 1 2.1-2.579 9.04 9.04 0 0 1 1.853-.825 16.647 16.647 0 0 1-.008 2.276z" transform="translate(-557.313 -275.863)" style="isolation:isolate;opacity:.1"/>
        <path data-name="Path 8438" d="M708.565 504.657s-.556 1.719-5.762 2.295-4.46-3.4-4.46-3.4-.026-.112-.059-.316c.238.128.44.245.534.3.474.288.9.683 1.4.95a6.268 6.268 0 0 0 3.967.245c.632-.1 1.264-.2 1.894-.316a4.683 4.683 0 0 0 1.385-.422 8.207 8.207 0 0 0 .934-.653 11.288 11.288 0 0 1 .148 1.169l.019.148z" transform="translate(-566.976 -277.711)" style="isolation:isolate;opacity:.1"/>
        <path data-name="Path 8439" d="M685.032 484.13a5.086 5.086 0 0 0 0 3.508c-2.086.366-5.975 1.1-7.405.13a13.378 13.378 0 0 0 .135-3.107z" transform="translate(-560.294 -271.923)" style="isolation:isolate;opacity:.1"/>
        <path data-name="Path 8440" d="M705.327 489.553a29.029 29.029 0 0 1-7.658-.27c-.271-1.98-.632-3.746-.632-3.746l8.068.619s.135 1.689.222 3.397z" transform="translate(-566.573 -272.349)" style="isolation:isolate;opacity:.1"/>
        <path data-name="Path 8441" d="M701.246 396.152s-.125 1.534-.321 3.685c-.446 4.879-1.269 12.934-1.9 13.592-.915.946-.518 7.9-.159 9.126s0 10.072 0 10.072a46.2 46.2 0 0 0-1.311 11.3c.119 5.9-1.549 8.966-1.549 8.966s-7.868.737-9.5-.825 0-14.034 0-14.034 2.939-10.2 2.224-11.669a35.12 35.12 0 0 1-1.549-5.035v-12.407a17.774 17.774 0 0 1-1.891-7.11 38.548 38.548 0 0 1-.017-6.279s-1.48 3.119-2.989 6.2c-1.364 2.788-2.751 5.547-3.1 5.955-.715.859-.119 4.79 0 6.756s-1.311 5.9-1.311 5.9c1.789 1.1 2.146 14.125 2.146 14.125a7.121 7.121 0 0 0 1.43 6.756c2.741 3.562 1.668 10.316 1.311 10.072s-7.629 1.843-9.06 0-2.981-6.878-2.981-6.878a24.747 24.747 0 0 0-.834-9.828c-1.15-3.459-2.558-11.571-3.211-15.54a16.332 16.332 0 0 1-.129-4.363 98.689 98.689 0 0 0 .6-12.528c-.055-1.388-.017-3.594.074-6.181.307-8.868 1.238-22.193 1.238-22.193l6.48-4.5 4.267-2.982 1.044.164 19.459 3.087.756 9.89z" transform="translate(-556.68 -236.228)" style="fill:url(#poujocgp8h)"/>
        <path data-name="Path 8442" d="m675.3 370.584-.338 1.931s-2.861 14.125-3.457 21.372-3.1 5.158-3.1 5.158a11.63 11.63 0 0 0-.8-1.754c.307-8.868 1.237-22.193 1.237-22.193z" transform="translate(-557.052 -237.524)" style="isolation:isolate;opacity:.1"/>
        <path data-name="Path 8443" d="M702.728 287.426s-13.351 11.013-10.886 8.8c1.349-1.214.432-6.387-.677-10.809-.911-3.648-1.948-6.788-1.948-6.788s11.654-11.234 10.808-2.048a20.264 20.264 0 0 0 .4 7.165c.815 2.976 2.303 3.68 2.303 3.68z" transform="translate(-564.043 -207.952)" style="fill:#ffd3d5"/>
        <path data-name="Path 8444" d="m701.1 289.508-8.464 6.82-2.466-2.825s-2.1-.941-2.265.123-.753 7.615.474 8.229a7.52 7.52 0 0 0 4.213.825c1.39-.209 2.939-1.8 3.974-2.417s4.847-3.807 4.847-3.807l1.9-2.742z" transform="translate(-563.527 -212.962)" style="isolation:isolate;opacity:.1"/>
        <path data-name="Path 8445" d="m701.1 289.86-8.463 6.816-2.466-2.825s-2.1-.941-2.265.123-.753 7.615.474 8.229a7.52 7.52 0 0 0 4.213.825c1.39-.209 2.939-1.8 3.974-2.417s4.847-3.807 4.847-3.807l1.9-2.741z" transform="translate(-563.527 -213.069)" style="fill:#bbc2ed"/>
        <path data-name="Path 8446" d="M706.979 396.219s-.125 1.534-.321 3.685a58.255 58.255 0 0 0-11.281 1.386 19.022 19.022 0 0 1-4.353.587 38.542 38.542 0 0 1-.017-6.279s-1.48 3.119-2.99 6.2a30.668 30.668 0 0 1-3.845-.516l1.59-21.291s-.052-7.145.21-13.469l19.459 3.087.756 9.89z" transform="translate(-562.411 -236.295)" style="isolation:isolate;opacity:.1"/>
        <path data-name="Path 8447" d="M696.27 296.038s5.781-6.512 7.152-5.478a9.126 9.126 0 0 1 2.257 3.555l-4.7 5.321z" transform="translate(-566.325 -213.247)" style="isolation:isolate;opacity:.1"/>
        <path data-name="Path 8448" d="M696.622 295.685s5.781-6.512 7.153-5.478a9.136 9.136 0 0 1 2.258 3.555l-4.7 5.321z" transform="translate(-566.438 -213.14)" style="fill:#bbc2ed"/>
        <path data-name="Path 8449" d="m689.534 300.662 3.324-4.311s-.527-4.076-1.745-3.555-1.578 2.606-1.578 2.606z" transform="translate(-564.145 -213.945)" style="isolation:isolate;opacity:.1"/>
        <path data-name="Path 8450" d="m689.161 300.252 3.324-4.311s-.525-4.076-1.745-3.555-1.578 2.606-1.578 2.606z" transform="translate(-564.025 -213.82)" style="fill:#bbc2ed"/>
        <path data-name="Path 8451" d="M700.037 292.592s-6.845 7.615-10.931 8.126c-.371.047-.739.11-1.1.187-1.066.217-3.393 0-3.023-6.294l-.518-1.115-3.18 2.007-1.072 9.006-1.9 23.091-2.82 25.712s8.659-.859 11.086 1.394 3.1-12.279 3.1-12.279l6.634-29.478 7.074-18.96z" transform="translate(-559.602 -213.897)" style="isolation:isolate;opacity:.1"/>
        <path data-name="Path 8452" d="m703.373 295.392-7.074 18.96-6.63 29.475s-.677 14.533-3.1 12.279a7.305 7.305 0 0 0-3.856-1.349 33.908 33.908 0 0 0-5.942-.139c-.791.045-1.29.093-1.29.093L678.3 329l1.9-23.091 1.072-9.006 3.18-2.007.517 1.115c0 .165-.017.327-.024.488-.225 5.817 2.01 6.023 3.044 5.813q.551-.115 1.1-.187c2.894-.367 7.171-4.29 9.42-6.544.927-.928 1.511-1.582 1.511-1.582z" transform="translate(-559.6 -214.323)" style="isolation:isolate;opacity:.1"/>
        <path data-name="Path 8453" d="M703.373 294.335 696.3 313.3l-6.63 29.475s-.677 14.533-3.1 12.279a7.305 7.305 0 0 0-3.856-1.349 33.908 33.908 0 0 0-5.942-.139c-.791.045-1.29.093-1.29.093l2.82-25.712 1.9-23.091 1.072-9.006 3.18-2.007.517 1.115c0 .165-.017.327-.024.488-.225 5.817 2.01 6.023 3.044 5.813q.551-.115 1.1-.187c2.894-.366 7.171-4.29 9.42-6.544.927-.928 1.511-1.582 1.511-1.582z" transform="translate(-559.6 -214.003)" style="fill:url(#8wyvhthl3b)"/>
        <path data-name="Path 8454" d="M684.973 295.355c0 .165-.017.327-.024.488l-.055.039c-.84.569-2.187 10.2-2.187 10.2L680.96 330.6l-3.219 18.3s-.421 2.086-.976 5.065c-.791.045-1.29.093-1.29.093l2.82-25.712 1.9-23.091 1.072-9.006 3.18-2.007z" transform="translate(-559.598 -214.397)" style="isolation:isolate;opacity:.1"/>
        <path data-name="Path 8455" d="M680.551 292.977s-1.9 1.592-2.746 2.161-2.186 10.2-2.186 10.2l-1.747 24.524-3.219 18.3s-2.861 14.125-3.457 21.372-3.1 5.158-3.1 5.158-1.869-5.65-6.318-5.977-2.146-2.909-2.146-2.909 2.6-19.351 4.32-22.8a1.664 1.664 0 0 1 .091-.172 11 11 0 0 0 .825-2.419c1.7-6.593 3.863-22.846 3.863-22.846l1.353-20.145c3.457-5.815 14.2-5.613 14.2-5.613z" transform="translate(-552.986 -213.66)" style="fill:url(#5hu340d7ma)"/>
        <path data-name="Path 8456" d="m706.826 294.336-7.074 18.96-6.639 29.478s-.677 14.533-3.1 12.279a7.305 7.305 0 0 0-3.856-1.349c.029-5 .177-13.963.875-17.732a51.5 51.5 0 0 0 .753-10.44l8.663-19.448s6.515-8.275 6.557-9.46a4.992 4.992 0 0 0-1.034-2.1c.927-.928 1.511-1.582 1.511-1.582z" transform="translate(-563.053 -214.003)" style="isolation:isolate;opacity:.1"/>
        <path data-name="Path 8457" d="m684.52 377.877 1.59-21.291s-.119-15.893.875-21.249a51.5 51.5 0 0 0 .753-10.44l8.663-19.448s6.515-8.275 6.557-9.46-3.414-5.122-3.414-5.122 7.546.906 8.54 4.387 6.438 4.832 6.438 4.832 2.623 2.457 2.582 9.5-8.344 12.567-8.344 12.567-1.39 13.266-.2 19.244.157 35.046.157 35.046-7.987.084-12.994 1.435-11.203-.001-11.203-.001z" transform="translate(-562.524 -213.374)" style="fill:url(#xcfkbpjx3i)"/>
        <path data-name="Path 8458" d="m701.908 364.294 6.118 23.868s.834 2.129 5.125.488 16.767-6.959 16.767-6.959 1.111-1.882-.953-5.367l-6.239-18.834z" transform="translate(-568.148 -233.558)" style="fill:url(#01lcstlocj)"/>
        <path data-name="Path 8459" d="m713.612 376.368 9.895-11.209 6.318-2.64L732.416 376l-12.009 13.45z" transform="translate(-571.935 -235.081)" style="fill:url(#qly9j0jtck)"/>
        <path data-name="Path 8460" d="M726.2 387.762a19.426 19.426 0 0 1-3.721 1.842c-.777.059-3.512 5.384-2.356 5.343s3.846-1.474 3.576-.737-2.024 2.948-2.531 2.737-.744 1.624 1.43.982 5.066-1.2 5.066-1.2 1.549-1.167 1.609-2 1.4-5.19 1.4-5.19z" transform="translate(-573.949 -242.729)" style="fill:#ffd3d5"/>
        <path data-name="Path 8461" d="M659.42 292.779s2.547-5.665 4.067-7.532 8.156-3.886 8.822-3.334-3.338 3.655-4.053 4.053 4.62 4.1 4.73 4.176 4.172-.37 2.086 1.041-8.253 2.85-8.253 2.85a3.035 3.035 0 0 0-2.385.589c-1.194.888-5.014-1.843-5.014-1.843z" transform="translate(-554.404 -210.633)" style="fill:#ffd3d5"/>
        <path data-name="Path 8462" d="M734.065 387.141a17.262 17.262 0 0 1-1.349 3.276c-.6-.558-6.287-2.489-6.287-2.489l.632-1.005 1.03-1.637s5.074-1.135 5.936 0a2.335 2.335 0 0 1 .038 1.855z" transform="translate(-576.081 -241.826)" style="isolation:isolate;opacity:.1"/>
        <path data-name="Path 8463" d="M734.417 386.789a17.273 17.273 0 0 1-1.349 3.276c-.6-.558-6.287-2.489-6.287-2.489l.632-1.005 1.03-1.637s5.074-1.135 5.937 0a2.335 2.335 0 0 1 .037 1.855z" transform="translate(-576.195 -241.719)" style="fill:url(#n6ms0ya87l)"/>
        <path data-name="Path 8464" d="M664.012 297.138a8.631 8.631 0 0 1-.646 1.214c-.919 1.491-2.3 3.25-2.3 3.25s-5.422-2.569-5.422-2.683 1.645-2.788 2.982-4.889c.541-.85 1.03-1.6 1.34-2.041 0 0 2.024 4.363 4.022 4.391.528.006.241.22.024.758z" transform="translate(-553.182 -213.714)" style="isolation:isolate;opacity:.1"/>
        <path data-name="Path 8465" d="M663.661 297.49a8.62 8.62 0 0 1-.644 1.214c-.918 1.491-2.3 3.25-2.3 3.25s-5.422-2.569-5.422-2.683 1.645-2.788 2.982-4.889c.541-.85 1.03-1.6 1.34-2.041 0 0 2.024 4.363 4.022 4.391.529.009.241.225.022.758z" transform="translate(-553.07 -213.821)" style="fill:url(#n6ms0ya87l)"/>
        <path data-name="Path 8467" d="M734.719 386.791a8.319 8.319 0 0 0-7-.213l1.03-1.637s5.074-1.135 5.936 0a2.333 2.333 0 0 1 .034 1.85z" transform="translate(-576.497 -241.721)" style="isolation:isolate;opacity:.1"/>
        <path data-name="Path 8468" d="M732.637 352.119c-.024.356-.045.712-.068 1.066-.06 1.083-.1 2.157-.127 3.194-.119 4.8.074 8.76.074 8.76a8.418 8.418 0 0 0-7.629-.368L724.5 357v-.139l-.4-3.4-1.3-10.961s-2.462-15.23-3.219-15.8 5.6-12.9 5.6-12.9l3.252 2.737 2.029 14.08v7.2s2.607 7.834 2.175 14.302z" transform="translate(-573.844 -220.322)" style="fill:url(#7fq9kzrw4m)"/>
        <path data-name="Path 8469" d="m663.783 297.694-.763 1.56c-.918 1.491-2.3 3.25-2.3 3.25s-5.422-2.569-5.422-2.683 1.645-2.788 2.982-4.889c.413-.479.663-.762.663-.762-1.597 4.058 4.84 3.524 4.84 3.524z" transform="translate(-553.07 -214.375)" style="isolation:isolate;opacity:.1"/>
        <path data-name="Path 8470" d="m664.8 297.1-2.224 1.149s-2.742 3.807-3.536 4.219a2.425 2.425 0 0 1-1.192.368l2.344-4.79s-6.438.53-4.847-3.523c0 0-7.193 8.107-7.987 11.384 0 0-3.974 6.795-3.021 10.153s4.807 4.012 7.589 2.992 11.325-5.527 11.325-5.527z" transform="translate(-549.476 -214.481)" style="fill:url(#vzx9w2jltn)"/>
        <path data-name="Path 8471" d="M660.192 309.683s-6 6.92-5.522 7.861 5.206-6.468 5.522-7.861z" transform="translate(-552.859 -219.075)" style="isolation:isolate;opacity:.1"/>
        <path data-name="Path 8472" d="M698.238 282.461s8.442-2.621 13.21 6.836 4.928 10.112 4.69 10.563-9.5-2.047-10.012-.941 5.245 5.65 5.245 5.65l-22.1 17.687 9.145-20.792a15.531 15.531 0 0 1 2.487-3.948c1.542-1.779 3.653-4.5 2.9-5.343-.658-.737-1.71-2.66-3.13-4.874-1.026-1.62-2.673-3.45-2.435-4.838z" transform="translate(-564.061 -210.727)" style="fill:url(#htqakg7n0o)"/>
        <path data-name="Path 8473" d="M698.473 282.813s8.442-2.621 13.21 6.836 4.928 10.112 4.69 10.563-9.5-2.046-10.012-.941 5.245 5.65 5.245 5.65l-22.334 17.439 9.384-20.546a15.538 15.538 0 0 1 2.487-3.948c1.542-1.779 3.653-4.5 2.9-5.343-.658-.737-1.71-2.66-3.131-4.874-1.027-1.618-2.68-3.449-2.439-4.836z" transform="translate(-564.061 -210.833)" style="opacity:.2;isolation:isolate"/>
        <ellipse data-name="Ellipse 591" cx="1.747" cy="1.8" rx="1.747" ry="1.8" transform="translate(134.157 111.491)" style="fill:#ef4f4b"/>
        <ellipse data-name="Ellipse 592" cx="1.747" cy="1.8" rx="1.747" ry="1.8" transform="translate(134.157 122.669)" style="fill:#ef4f4b"/>
        <path data-name="Path 8477" d="m707.662 378.757 4.451 15.641s1.192.573 1.192-.45-5.643-15.191-5.643-15.191z" transform="translate(-570.01 -240)" style="isolation:isolate;opacity:.1;fill:#fff"/>
        <path data-name="Path 8478" d="M699.987 282.982a9.658 9.658 0 0 1-.88.646c-1.514.982-2.861 2.316-4.79 2.316a9.479 9.479 0 0 1-3.15-.533c-.911-3.648-1.948-6.788-1.948-6.788s11.654-11.234 10.808-2.048c-.298 3.236-.486 4.779-.04 6.407z" transform="translate(-564.044 -207.95)" style="isolation:isolate;opacity:.1"/>
        <path data-name="Path 8479" d="M701.863 272.024a9.793 9.793 0 1 1-9.789-10.086 9.889 9.889 0 0 1 9.789 9.989v.1z" transform="translate(-561.8 -204.61)" style="fill:#ffd3d5"/>
        <path data-name="Path 8480" d="M681.368 285.855a1.166 1.166 0 0 1-.457.553l-1.556.982-2.9 1.82-4.6 2.879a3.425 3.425 0 0 1-.329.185 3.855 3.855 0 0 1-3.488.049 2.929 2.929 0 0 1-1.628-2.091 3.552 3.552 0 0 1 1.245-3.439.169.169 0 0 1 .086-.045 8.354 8.354 0 0 0 2.718-1.37l2.894-2.064 2.585-2.434 1.3-.928a1.188 1.188 0 0 1 1.314-.049c1.348.78 4.005 2.849 2.816 5.952z" transform="translate(-556.642 -210)" style="fill:url(#9a4c29zruc)"/>
        <path data-name="Path 8481" d="m682.526 287.87-2.9 1.82a11.976 11.976 0 0 0-3.483-5.633l2.966-2.7c2.249 1.151 3.146 4.999 3.417 6.513z" transform="translate(-559.812 -210.493)" style="fill:url(#ssi8crztap)"/>
        <path data-name="Path 8482" d="M671.521 295.317a3.855 3.855 0 0 1-3.488.049 2.929 2.929 0 0 1-1.628-2.091 3.552 3.552 0 0 1 1.245-3.439 7.318 7.318 0 0 1 1.979 1.28 5.765 5.765 0 0 1 1.712 2.776 6.021 6.021 0 0 1 .18 1.425z" transform="translate(-556.642 -213.062)" style="fill:url(#wfnd1vazaq)"/>
        <path data-name="Path 8483" d="M702.724 272.025a10.3 10.3 0 0 1-.911 4.252 5.714 5.714 0 0 0-1.316 2.151 6.777 6.777 0 0 1-1.81 1.874c-.356-.386-1.153-.619-1.3-1.115a13.714 13.714 0 0 1-.141-4c0-.595-.081-1.3-.589-1.582a1.4 1.4 0 0 0-1.369.172 3.6 3.6 0 0 1-1.3.609 2 2 0 0 1-1.768-1.046c-.4-.609-.632-1.324-1.011-1.945a8.89 8.89 0 0 0-1.967-2.064c-.832-.708-1.64-1.491-2.527-2.125-.53-.381-1.164-.558-1.685-.941l-.083-.064a9.605 9.605 0 0 1 13.644-2.409 10.183 10.183 0 0 1 4.136 8.234z" transform="translate(-562.661 -204.612)" style="isolation:isolate;opacity:.1"/>
        <path data-name="Path 8484" d="M682.716 259.211a3.114 3.114 0 0 1 2.732-2.771c1.15-.02 2.124.781 3.14 1.329a7.718 7.718 0 0 0 6.765.245 4.114 4.114 0 0 1 1.935-.6 2.861 2.861 0 0 1 1.691.982 11.729 11.729 0 0 1 2.571 4 3.45 3.45 0 0 0 .653 1.246 4.377 4.377 0 0 0 .812.558 4.633 4.633 0 0 1 1.927 2.992 6.763 6.763 0 0 1-.35 3.625 5.538 5.538 0 0 1-1.273 2.1c-.434.418-.953.737-1.409 1.135a5.894 5.894 0 0 0-1.9 5.375c-1.268.3-2.485-.87-2.861-2.151a13.461 13.461 0 0 1-.14-4c0-.595-.081-1.3-.589-1.582a1.4 1.4 0 0 0-1.369.172 3.6 3.6 0 0 1-1.3.608 1.992 1.992 0 0 1-1.768-1.046c-.4-.612-.63-1.324-1.015-1.945a8.837 8.837 0 0 0-1.968-2.051c-.832-.7-1.641-1.491-2.525-2.125-.532-.381-1.166-.558-1.691-.941-1.584-1.177-2.068-3.301-2.068-5.155z" transform="translate(-561.94 -202.944)" style="fill:url(#cv9s2dndvr)"/>
        <path data-name="Path 8485" d="M693.745 284.6s-.135.032-.365.1a.7.7 0 0 1 .365-.1z" transform="translate(-565.39 -211.475)" style="isolation:isolate;opacity:.1"/>
        <g data-name="Group 3852-2" style="opacity:.1">
            <path data-name="Path 8486" d="M135.679 73.526a13.74 13.74 0 0 1-.141-4c0-.595-.081-1.3-.589-1.582a1.406 1.406 0 0 0-1.368.172 3.652 3.652 0 0 1-1.3.609 2 2 0 0 1-1.768-1.041c-.4-.608-.63-1.324-1.011-1.948a9.016 9.016 0 0 0-1.967-2.064c-.832-.7-1.641-1.491-2.525-2.125-.532-.381-1.166-.558-1.691-.941-1.58-1.164-2.067-3.287-2.067-5.141a3.566 3.566 0 0 1 .315-1.012 3.591 3.591 0 0 0-.791 1.754c0 1.858.474 3.977 2.067 5.142.522.386 1.157.558 1.691.941.884.634 1.691 1.42 2.525 2.125a9 9 0 0 1 1.967 2.064c.382.619.609 1.341 1.011 1.948a2 2 0 0 0 1.768 1.041 3.725 3.725 0 0 0 1.3-.609 1.436 1.436 0 0 1 1.369-.172 1.707 1.707 0 0 1 .589 1.582 13.4 13.4 0 0 0 .14 4c.38 1.3 1.588 2.457 2.861 2.151a5.741 5.741 0 0 1-.076-.7 2.973 2.973 0 0 1-2.309-2.194z"/>
            <path data-name="Path 8487" d="M141.849 69.173c-.434.422-.953.737-1.409 1.135a5.519 5.519 0 0 0-1.242 1.547 5.187 5.187 0 0 1 .765-.811c.458-.393.975-.708 1.409-1.135a4.855 4.855 0 0 0 .877-1.177 4.244 4.244 0 0 1-.4.441z"/>
        </g>
        <path data-name="Path 8488" d="M693.852 403.041a6.526 6.526 0 0 0-.455 1.617c-.057.958.511 1.847.551 2.808a5.181 5.181 0 0 1-1.24 3.021 2.183 2.183 0 0 0 1.941-.928 3.137 3.137 0 0 0 .279-.808c.677-2.774 1.33-5.807.157-8.4a3.815 3.815 0 0 0-.775-1.2 22.44 22.44 0 0 1-.458 3.89z" transform="translate(-565.172 -246.18)" style="isolation:isolate;opacity:.1"/>
        <path data-name="Path 8489" d="m665.313 372.075-1.981-2.754a6 6 0 0 1-1.142-2.167 11.4 11.4 0 0 1 .06-2.7v-.309a1.821 1.821 0 0 1 .09-.172 10.927 10.927 0 0 0 .825-2.419 2.964 2.964 0 0 1 .658 1.046c.922 2.318.068 5.04.832 7.419a10.926 10.926 0 0 1 .658 2.056z" transform="translate(-555.283 -234.788)" style="isolation:isolate;opacity:.1"/>
        <path data-name="Path 8490" d="M674.285 496.239a8.251 8.251 0 0 0 6.852 1.4" transform="translate(-559.213 -275.592)" style="isolation:isolate;opacity:.1"/>
        <path data-name="Path 8491" d="M698.553 496.608a4.917 4.917 0 0 0 7.1-.238q.112-.122.215-.253" transform="translate(-567.063 -275.555)" style="isolation:isolate;opacity:.1"/>
        <path data-name="Path 8492" d="M680.713 442.714a4.457 4.457 0 0 1-4.952-2.254" transform="translate(-559.69 -258.693)" style="isolation:isolate;opacity:.1"/>
        <path data-name="Path 8493" d="M699.793 452.076a6.436 6.436 0 0 0 4.256-1.2" transform="translate(-567.464 -261.847)" style="isolation:isolate;opacity:.1"/>
        <path data-name="Path 8494" d="M684.748 473.885c-1.271.53-2.4 1.361-3.643 1.961a5.442 5.442 0 0 1-3.979.578" transform="translate(-560.132 -268.819)" style="isolation:isolate;opacity:.1"/>
        <path data-name="Rectangle 2836" transform="translate(99.981 132.394)" style="fill:#dfecfd" d="M0 0h1.49v46.87H0z"/>
        <path data-name="Rectangle 2837" transform="translate(104.608 132.394)" style="fill:#dfecfd" d="M0 0h1.492v46.87H0z"/>
        <ellipse data-name="Ellipse 594" cx="2.548" cy="2.626" rx="2.548" ry="2.626" transform="translate(94.135 222.249)" style="fill:#535461"/>
        <path data-name="Path 8495" d="M633.772 433.1s2.542-2.129 4.768-1.394 8.025 1.474 9.06 5.24 0 45.119 0 45.119-4.938 1.324-6.28.656-1.192-6.878-1.192-6.878l-.4-36.674z" transform="translate(-546.107 -255.994)" style="fill:#c14c52"/>
        <path data-name="Path 8496" d="M633.772 433.1s2.542-2.129 4.768-1.394 8.025 1.474 9.06 5.24 0 45.119 0 45.119-4.938 1.324-6.28.656-1.192-6.878-1.192-6.878l-.4-36.674z" transform="translate(-546.107 -255.994)" style="fill:url(#64q8yp3y5s)"/>
        <path data-name="Path 8497" d="m660.613 480.377-10.7 2.457-.112-1.961-.068-38.584a11.893 11.893 0 0 0-4.478-9.317 26.123 26.123 0 0 1 9.775 1.9c.9.418 1.814.833 2.747 1.185a3.865 3.865 0 0 1 2.825 3.222c.129 2.408.577 26.256.737 34.937a22.69 22.69 0 0 1-.726 6.161z" transform="translate(-549.823 -256.425)" style="fill:url(#p1bhn65myd)"/>
        <path data-name="Path 9233" d="M658.094 364.879c-2.565-3.029-7.168-.634-7.168-.634l.018.017v4h2.485v-1.91a2.465 2.465 0 0 1 2.174-1.469h.009v4.012h2.488v-4.012z" transform="translate(-551.656 -235.332)" style="fill:url(#ciq7o9s80t)"/>
        <ellipse data-name="Ellipse 595" cx="2.548" cy="2.626" rx="2.548" ry="2.626" transform="translate(104.974 224.099)" style="fill:#2730c0"/>
        <ellipse data-name="Ellipse 596" cx="2.548" cy="2.626" rx="2.548" ry="2.626" transform="translate(78.658 220.514)" style="fill:#2730c0"/>
        <path data-name="Path 8499" d="M627.429 432.962s-7.234 1.961-7.629 20.719-.474 20.716-.474 20.716.157 5.4 10.808 8.763h6.515l1.034-43.073s-1.194-6.562-10.254-7.125z" transform="translate(-541.434 -256.422)" style="fill:url(#ciq7o9s80t)"/>
        <path data-name="Path 8500" d="M630.284 463.206s-1.853-26.221 8.135-26.335l.938.938s-8.745-3.265-9.073 25.397z" transform="translate(-544.935 -257.606)" style="isolation:isolate;opacity:.1"/>
        <ellipse data-name="Ellipse 597" cx="2.548" cy="2.626" rx="2.548" ry="2.626" transform="translate(87.3 226.388)" style="fill:#2730c0"/>
    </g>
</svg>
