<?xml version="1.0" encoding="UTF-8"?><svg xmlns="http://www.w3.org/2000/svg" viewBox="0 0 20 20"><defs><style>.e{fill:#f6f7fa;}.f{fill:#f4f5f9;}.g{fill:#28369c;}</style></defs><g id="a"/><g id="b"><g id="c"><g><rect class="g" width="20" height="20" rx="4" ry="4"/><g id="d"><g><path class="f" d="M7.68,6.67c0,.23-.3,.54-.5,.53-.22-.02-.46-.32-.46-.55,0-.24,.23-.46,.48-.46,.26,0,.48,.22,.47,.49Z"/><path class="f" d="M11.81,6.18c.26,0,.5,.24,.5,.51,0,.18-.31,.49-.49,.5-.2,.01-.47-.29-.48-.52,0-.25,.22-.49,.48-.49Z"/><path class="f" d="M13.87,9.7c0,.23-.25,.53-.47,.55-.18,.02-.46-.28-.48-.5-.02-.27,.18-.49,.45-.5,.27-.01,.49,.19,.5,.45Z"/><path class="f" d="M12.92,8.2c0-.27,.21-.47,.49-.47,.26,0,.46,.21,.47,.46,0,.24-.26,.54-.48,.54-.22,0-.48-.28-.48-.53Z"/><path class="f" d="M12.92,6.67c0-.26,.21-.49,.47-.49,.25,0,.49,.23,.49,.47,0,.23-.29,.54-.49,.54-.18,0-.46-.31-.47-.52Z"/><path class="f" d="M13.41,10.76c.26,0,.48,.24,.46,.5-.01,.23-.32,.53-.52,.51-.21-.02-.45-.34-.43-.58,.01-.24,.23-.43,.49-.43Z"/><path class="f" d="M8.26,6.65c0-.27,.22-.48,.49-.47,.27,0,.47,.23,.46,.5-.01,.22-.29,.51-.48,.51-.2,0-.47-.32-.47-.54Z"/><path class="f" d="M10.25,7.13c-.26,0-.46-.2-.45-.47,0-.27,.22-.48,.48-.48,.25,0,.46,.21,.47,.45,.01,.27-.21,.49-.5,.5Z"/><path class="f" d="M12.32,8.19c0,.23-.27,.54-.49,.54-.21,0-.48-.3-.48-.53,0-.24,.21-.46,.46-.47,.27-.01,.5,.2,.5,.46Z"/><path class="f" d="M9.06,11.41c0,.25-.27,.51-.52,.5-.2,0-.44-.27-.44-.49,0-.25,.23-.49,.48-.49,.24,0,.49,.24,.49,.48Z"/><path class="f" d="M5.44,12.49c0-.26,.22-.47,.49-.47,.25,0,.47,.21,.48,.45,0,.22-.32,.57-.52,.55-.18-.01-.45-.33-.45-.54Z"/><path class="f" d="M14.97,5.58c0,.25-.23,.48-.49,.48-.24,0-.48-.26-.47-.5,0-.24,.23-.46,.47-.46,.25,0,.49,.23,.49,.48Z"/><path class="f" d="M15.63,4.94c-.29-.01-.49-.24-.47-.52,.01-.24,.24-.45,.48-.44,.25,0,.47,.25,.46,.51-.01,.25-.24,.46-.47,.45Z"/><path class="e" d="M9.66,9.87c.29,0,.49,.21,.48,.5-.01,.25-.22,.45-.47,.45-.26,0-.48-.22-.47-.49,0-.26,.22-.47,.47-.46Z"/><path class="f" d="M13.87,12.74c0,.25-.21,.48-.48,.49-.25,.01-.48-.22-.48-.48,0-.25,.21-.46,.45-.47,.25-.01,.49,.21,.5,.46Z"/><path class="e" d="M7.48,12.03c.26,0,.47,.18,.48,.44,.01,.26-.21,.49-.47,.5-.26,0-.48-.21-.48-.48,0-.25,.2-.45,.47-.45Z"/><path class="e" d="M7.49,14.5c-.26,0-.47-.19-.48-.44-.01-.27,.2-.49,.47-.49,.27,0,.49,.21,.48,.48,0,.26-.21,.45-.47,.45Z"/><path class="e" d="M7.48,16.02c-.26,0-.46-.2-.46-.46,0-.27,.2-.47,.48-.47,.26,0,.46,.2,.47,.45,0,.27-.21,.48-.48,.48Z"/><path class="f" d="M10.75,9.73c-.27,0-.47-.19-.48-.43,0-.28,.22-.51,.49-.5,.24,0,.48,.24,.47,.46,0,.26-.23,.48-.49,.48Z"/><path class="e" d="M4.85,12.49c0,.28-.23,.49-.52,.48-.22,0-.44-.25-.43-.49,0-.26,.22-.46,.5-.46,.26,0,.45,.21,.45,.46Z"/></g></g></g></g></g></svg>