<svg xmlns="http://www.w3.org/2000/svg" viewBox="0 0 24 24"><defs><style>.cls-1{fill:none;}.cls-2{fill:#fe0000;}.cls-3{fill:#00349e;}</style></defs><g id="Layer_2" data-name="Layer 2"><g id="Layer_1-2" data-name="Layer 1"><rect class="cls-1" width="24" height="24"/><g id="uuKQ4k"><path class="cls-2" d="M24,11.22H20.15c-.14,0-.12,0-.12-.12V4.47c0-.13,0-.13-.13-.13H13.25c-.08,0-.11,0-.11-.11V.5H23.88c.07,0,.08,0,.08.09Z"/><path class="cls-2" d="M10.86.5V4.2c0,.15,0,.14-.14.14H4c-.08,0-.09,0-.09.1v6.65c0,.15,0,.13-.13.13H.17c-.13,0-.13,0-.13-.12V.5Z"/><path class="cls-2" d="M24,23.51H13.29c-.15,0-.15,0-.15-.14v-3c0-.08,0-.1.1-.1h6.65c.16,0,.14,0,.14-.14V13.59c0-.09,0-.11.11-.11H24Z"/><path class="cls-3" d="M12,16.64H7.73c-.13,0-.13,0-.13-.12V8.1c0-.07,0-.11.11-.11h8.51c.1,0,.12,0,.12.12v8.42c0,.1,0,.12-.12.12Z"/><path class="cls-2" d="M5.45,23.5H.15c-.09,0-.11,0-.11-.12v-9.8c0-.09,0-.11.11-.11H3.79c.14,0,.13,0,.13.13v6.57c0,.13,0,.12.12.12h6.7c.1,0,.12,0,.12.12v3c0,.1,0,.13-.12.13Z"/></g></g></g></svg>