<svg width="19" height="16" viewBox="0 0 19 16" fill="none" xmlns="http://www.w3.org/2000/svg">
<path fill-rule="evenodd" clip-rule="evenodd" d="M17.6429 1.68889V3.37778H1.35714V1.68889H17.6429ZM1.35714 5.06667H17.6429V13.5111H1.35714V5.06667ZM17.6429 0H1.35714C0.997206 0 0.652012 0.177936 0.397498 0.494664C0.142984 0.811393 0 1.24097 0 1.68889V13.5111C0 13.959 0.142984 14.3886 0.397498 14.7053C0.652012 15.0221 0.997206 15.2 1.35714 15.2H17.6429C18.0028 15.2 18.348 15.0221 18.6025 14.7053C18.857 14.3886 19 13.959 19 13.5111V1.68889C19 1.24097 18.857 0.811393 18.6025 0.494664C18.348 0.177936 18.0028 0 17.6429 0ZM13.5714 10.1333H16.2857V11.8222H13.5714V10.1333Z" fill="#8B93AE"/>
</svg>
