<svg width="14" height="14" viewBox="0 0 14 14" fill="none" xmlns="http://www.w3.org/2000/svg">
<g clip-path="url(#clip0_4497_2785)">
<path d="M2.43529 0C5.47873 0 8.52307 0 11.5665 0C11.5737 0.00539638 11.58 0.0152897 11.5881 0.0161891C12.261 0.099833 12.8701 0.741102 12.8377 1.59643C12.808 2.3834 12.8332 3.17217 12.8287 3.96004C12.8287 4.06707 12.8521 4.12013 12.9636 4.14981C13.2443 4.22446 13.4665 4.39265 13.6581 4.6103C13.8489 4.82706 13.9343 5.08608 14 5.3577V6.2598C13.9937 6.27149 13.9847 6.28228 13.9802 6.29577C13.8318 6.78145 13.5421 6.9973 13.0374 6.9982C12.9717 6.9982 12.9052 6.9982 12.8314 6.9982C12.8314 7.07825 12.8314 7.13761 12.8314 7.19607C12.8305 8.60812 12.8413 10.0202 12.8233 11.4322C12.8152 12.0465 12.4787 12.4809 11.9183 12.713C11.7248 12.793 11.6601 12.8695 11.6619 13.0808C11.6664 13.6384 11.2876 13.9928 10.7272 13.9955C10.3808 13.9964 10.0344 13.9973 9.68809 13.9955C9.11682 13.9928 8.75337 13.6259 8.75068 13.0511C8.75068 12.9801 8.75068 12.909 8.75068 12.8353H5.24933C5.24933 12.9414 5.25292 13.0403 5.24933 13.1393C5.22683 13.6106 4.88678 13.9712 4.41717 13.9901C4.00334 14.0063 3.58771 14.0054 3.17389 13.9901C2.72227 13.9739 2.39571 13.651 2.34623 13.1977C2.33183 13.0673 2.33183 12.936 2.32554 12.8065C1.56445 12.6032 1.14433 11.9701 1.16232 11.1669C1.19291 9.8331 1.17042 8.49749 1.17042 7.16279V6.9982C1.06696 6.9982 0.985092 6.9991 0.903226 6.9982C0.379643 6.98831 0.0116952 6.62315 0.00269888 6.0997C-0.000899627 5.90364 -0.000899627 5.70757 0.00269888 5.5124C0.0161933 4.88642 0.423725 4.33869 1.02468 4.15611C1.14523 4.11923 1.17311 4.06707 1.17311 3.94835C1.16862 3.09212 1.16592 2.2359 1.17671 1.37967C1.18211 0.971348 1.37013 0.64037 1.67061 0.366054C1.89012 0.16369 2.15461 0.0674547 2.43529 0ZM7.01619 3.49865C5.77741 3.49865 4.53862 3.49865 3.29893 3.49865C2.69888 3.49865 2.33453 3.85931 2.33363 4.45651C2.33183 5.37209 2.33183 6.28678 2.33363 7.20236C2.33453 7.79956 2.69888 8.16382 3.29623 8.16472C5.76481 8.16562 8.23339 8.16472 10.7029 8.16382C10.8063 8.16382 10.9134 8.15572 11.0132 8.12964C11.428 8.01991 11.6673 7.67904 11.6682 7.20596C11.6691 6.29038 11.67 5.37569 11.6673 4.46011C11.6673 4.35667 11.6574 4.24965 11.6313 4.14981C11.5233 3.74149 11.186 3.49955 10.7326 3.49955C9.49377 3.49865 8.25498 3.49955 7.01529 3.49955L7.01619 3.49865ZM7.0063 1.16832C5.98072 1.16832 4.95605 1.16832 3.93047 1.16832C3.8621 1.16832 3.79373 1.16921 3.72536 1.17371C3.10641 1.21508 2.72767 1.89413 3.02005 2.44186C3.20537 2.78903 3.51125 2.91854 3.89179 2.91764C5.89706 2.91584 7.90143 2.91764 9.9067 2.91764C9.99756 2.91764 10.0893 2.92034 10.1802 2.91764C10.8333 2.89246 11.2408 2.31594 11.0213 1.72684C10.8891 1.37248 10.5706 1.17011 10.1361 1.16921C9.09253 1.16832 8.04897 1.16921 7.0054 1.16921L7.0063 1.16832ZM3.78653 11.0752C4.26873 11.0788 4.66637 10.6857 4.66727 10.2045C4.66817 9.73236 4.27773 9.33933 3.80003 9.33033C3.32412 9.32224 2.92199 9.72157 2.92199 10.2045C2.92199 10.6839 3.30703 11.0716 3.78653 11.0752ZM11.0798 10.2045C11.0798 9.72697 10.6948 9.33843 10.2153 9.33033C9.74117 9.32314 9.33453 9.72697 9.33453 10.2045C9.33453 10.6839 9.73397 11.0788 10.2162 11.0752C10.6957 11.0716 11.0807 10.683 11.0798 10.2045Z" fill="#676767"/>
</g>
<defs>
<clipPath id="clip0_4497_2785">
<rect width="14" height="14" fill="white"/>
</clipPath>
</defs>
</svg>
