<svg width="43" height="43" fill="none" xmlns="http://www.w3.org/2000/svg"><rect width="43" height="43" rx="5" fill="#F1F1F1"/><path d="m8.142 26.753.702.104c.03.215.11.371.243.472.178.132.422.2.733.2.332 0 .59-.068.772-.2a.98.98 0 0 0 .37-.557c.037-.147.055-.454.052-.92a1.48 1.48 0 0 1-1.176.555c-.585 0-1.037-.209-1.358-.628-.32-.42-.48-.923-.48-1.512 0-.404.074-.775.222-1.118.147-.34.36-.604.637-.791.28-.187.607-.279.982-.279.502 0 .915.202 1.241.607v-.512h.665v3.66c0 .659-.068 1.125-.203 1.4a1.475 1.475 0 0 1-.64.653c-.293.16-.653.24-1.078.24-.508 0-.918-.114-1.229-.34-.31-.228-.462-.571-.452-1.028l-.003-.006zm.597-2.544c0 .555.11.96.332 1.217.222.255.5.383.835.383.335 0 .61-.126.834-.38.225-.254.336-.653.336-1.195 0-.543-.117-.908-.345-1.171-.231-.264-.508-.395-.834-.395-.327 0-.592.128-.816.389-.225.26-.336.644-.336 1.152H8.74zM12.825 26.4v-4.233h.65v.641c.166-.3.316-.5.458-.595a.814.814 0 0 1 .462-.144c.243 0 .49.077.742.23l-.25.665a1.026 1.026 0 0 0-.529-.156.688.688 0 0 0-.425.141.765.765 0 0 0-.268.392c-.08.255-.12.534-.12.837v2.216h-.72v.006zM15.297 24.286c0-.785.219-1.364.656-1.74.366-.313.813-.473 1.336-.473.585 0 1.062.19 1.435.573.37.38.557.908.557 1.582 0 .545-.083.971-.246 1.284a1.722 1.722 0 0 1-.718.726c-.314.172-.655.261-1.028.261-.594 0-1.078-.19-1.444-.57-.366-.38-.551-.929-.551-1.643h.003zm.742 0c0 .543.12.947.357 1.217.237.27.536.404.896.404s.656-.134.893-.407c.237-.27.357-.684.357-1.238 0-.524-.12-.92-.357-1.19a1.143 1.143 0 0 0-.89-.404c-.354 0-.659.135-.896.401-.237.27-.357.675-.357 1.217h-.003zM22.902 24.852l.708.092c-.077.487-.277.867-.594 1.143-.32.276-.712.414-1.176.414-.582 0-1.05-.19-1.404-.567-.355-.38-.53-.923-.53-1.628 0-.456.077-.858.228-1.201.15-.343.385-.6.696-.772.31-.172.65-.258 1.016-.258.462 0 .84.117 1.133.35.292.232.483.564.563.99l-.702.107c-.068-.285-.185-.5-.354-.64a.919.919 0 0 0-.616-.215c-.363 0-.659.128-.883.389-.228.257-.342.668-.342 1.229 0 .56.11.98.33 1.238.218.258.504.387.855.387a1 1 0 0 0 .708-.261c.191-.172.311-.438.36-.797h.004zM27.138 25.04l.745.092c-.116.432-.335.77-.652 1.008-.317.24-.724.36-1.216.36-.622 0-1.115-.191-1.481-.574-.367-.383-.548-.916-.548-1.606 0-.69.184-1.266.55-1.658.367-.393.847-.589 1.435-.589.588 0 1.035.193 1.395.58.36.386.542.928.542 1.627 0 .043 0 .107-.003.19h-3.171c.027.466.16.822.397 1.07.237.248.533.37.89.37.264 0 .49-.07.677-.208.188-.138.336-.358.443-.662h-.003zm-2.367-1.158h2.373c-.03-.356-.123-.623-.27-.8a1.108 1.108 0 0 0-.893-.414c-.333 0-.61.11-.835.33-.224.221-.35.516-.375.887v-.003zM28.78 26.4v-4.233h.649v.641c.166-.3.317-.5.459-.595a.814.814 0 0 1 .461-.144c.244 0 .49.077.742.23l-.249.665a1.025 1.025 0 0 0-.53-.156.688.688 0 0 0-.424.141.765.765 0 0 0-.268.392c-.08.255-.12.534-.12.837v2.216h-.72v.006zM31.486 28.03l-.08-.674c.157.043.295.064.412.064.16 0 .29-.027.385-.08a.66.66 0 0 0 .237-.223c.046-.07.12-.248.222-.533.012-.04.034-.099.064-.175l-1.613-4.242h.776l.884 2.452c.113.31.218.637.307.98.084-.33.182-.649.296-.965l.908-2.467h.72l-1.616 4.306c-.172.466-.308.785-.403.96-.13.236-.274.41-.44.52-.166.111-.364.166-.591.166-.139 0-.293-.03-.465-.089h-.003z" fill="#41AC4E"/><path fill-rule="evenodd" clip-rule="evenodd" d="M24.007 19.838c-1.205.878-2.957 1.346-4.47 1.346-2.12 0-4.019-.77-5.464-2.053-.109-.102-.016-.239.125-.159 1.557.894 3.479 1.426 5.464 1.426a11 11 0 0 0 4.173-.843c.201-.077.367.136.172.283z" fill="#020203"/><path fill-rule="evenodd" clip-rule="evenodd" d="M24.51 19.268c-.154-.194-1.024-.092-1.41-.045-.12.016-.138-.086-.03-.159.694-.484 1.826-.337 1.957-.181.131.159-.035 1.283-.687 1.814-.102.08-.198.035-.154-.073.15-.354.477-1.156.323-1.356zM23.122 15.681v-.47c0-.074.05-.116.118-.116h2.12c.067 0 .125.051.125.115v.398c0 .064-.058.153-.16.296l-1.097 1.54c.41-.006.84.051 1.205.252.08.044.103.114.11.181v.497c0 .073-.074.153-.154.108a2.449 2.449 0 0 0-2.235.006c-.074.035-.154-.035-.154-.108v-.474c0-.073 0-.2.08-.318l1.273-1.796H23.25c-.067 0-.128-.047-.128-.11zM15.4 18.584h-.643a.136.136 0 0 1-.118-.108V15.22c0-.064.058-.115.125-.115h.598c.067 0 .108.051.118.108v.427h.016c.153-.41.454-.605.847-.605.394 0 .659.194.832.605.153-.41.511-.605.892-.605.271 0 .563.108.745.36.204.273.16.671.16 1.021v2.06c0 .063-.058.114-.125.114h-.636c-.067-.006-.119-.057-.119-.114v-1.729c0-.136.016-.483-.016-.61-.05-.217-.188-.28-.38-.28a.429.429 0 0 0-.387.267c-.067.165-.058.439-.058.627v1.728c0 .064-.057.114-.124.114h-.643c-.067-.006-.118-.057-.118-.114v-1.732c0-.36.057-.9-.393-.9-.451 0-.445.519-.445.9v1.729c-.003.057-.054.108-.128.108zm11.91-3.552c.956 0 1.478.808 1.478 1.836 0 1.029-.57 1.786-1.478 1.786s-1.445-.808-1.445-1.814c-.01-1.016.509-1.808 1.445-1.808zm0 .668c-.476 0-.505.64-.505 1.038s-.006 1.248.496 1.248.527-.685.527-1.102c0-.273-.016-.605-.096-.866-.073-.232-.22-.318-.422-.318zm2.708 2.884h-.642c-.067-.006-.119-.057-.119-.115v-3.265a.125.125 0 0 1 .125-.109h.598c.058 0 .102.045.118.093v.496h.016c.183-.445.432-.655.876-.655.285 0 .57.101.752.382.17.257.17.7.17 1.015v2.053c-.007.057-.058.102-.125.102h-.643c-.058-.007-.109-.051-.118-.102v-1.77c0-.36.044-.878-.403-.878-.154 0-.3.102-.374.258-.087.2-.103.397-.103.62v1.757c0 .067-.06.118-.128.118zm-8.585-1.556c0 .245.007.455-.118.678-.102.18-.262.29-.444.29-.25 0-.393-.189-.393-.462 0-.541.489-.64.955-.64v.134zm.653 1.55a.136.136 0 0 1-.154.015c-.21-.171-.255-.257-.374-.426-.352.353-.607.461-1.058.461-.54 0-.966-.33-.966-.986 0-.519.285-.866.688-1.038.351-.153.84-.181 1.211-.223V16.3c0-.153.017-.331-.08-.462-.08-.114-.226-.165-.358-.165-.249 0-.466.12-.518.381-.015.058-.05.115-.108.115l-.62-.063c-.052-.016-.11-.052-.096-.131.147-.748.825-.974 1.438-.974.314 0 .723.08.972.318.314.29.285.678.285 1.095v.987c0 .296.125.426.24.592.045.057.05.13 0 .165-.138.109-.371.312-.502.42zm-9.09-1.55c0 .245.006.455-.119.678-.102.18-.262.29-.444.29-.25 0-.393-.189-.393-.462 0-.541.489-.64.956-.64v.134zm.642 1.55a.136.136 0 0 1-.153.015c-.211-.171-.256-.257-.374-.426-.352.353-.608.461-1.059.461-.54 0-.965-.33-.965-.986 0-.519.284-.866.687-1.038.352-.153.841-.181 1.212-.223V16.3c0-.153.016-.331-.08-.462-.08-.114-.227-.165-.358-.165-.25 0-.467.12-.518.381-.016.058-.051.115-.109.115l-.62-.063c-.051-.016-.109-.052-.096-.131.147-.748.825-.974 1.439-.974.313 0 .723.08.972.318.313.29.285.678.285 1.095v.987c0 .296.124.426.24.592.044.057.05.13 0 .165-.135.109-.368.312-.503.42z" fill="#020203"/></svg>