<svg width="13" height="15" viewBox="0 0 13 15" fill="none" xmlns="http://www.w3.org/2000/svg">
<path d="M5.69238 0H7.37868C7.42792 0.00644449 7.47715 0.0156509 7.52639 0.0184128C8.06135 0.0515559 8.59915 0.0681274 9.13221 0.121525C9.93229 0.2007 10.7191 0.349844 11.4501 0.698766C12.0494 0.985086 12.5238 1.39385 12.7841 2.00884C12.9555 2.41392 13 2.83834 13 3.27012C13 5.61775 13 7.96538 13 10.313C13 10.4889 13.001 10.6647 12.9849 10.8396C12.876 11.9923 12.2634 12.7932 11.1679 13.2278C10.864 13.3484 10.525 13.3843 10.2059 13.4579C10.2211 13.4745 10.2533 13.5095 10.2873 13.5435C10.596 13.8437 10.8924 14.1576 11.2181 14.4393C11.4103 14.6069 11.3876 14.7883 11.3648 14.9972C10.863 14.9972 10.3716 15.0009 9.88021 14.9936C9.80636 14.9926 9.71452 14.9549 9.66149 14.9043C9.17766 14.443 8.7033 13.9726 8.21947 13.5113C8.16645 13.4607 8.07555 13.4211 8.0017 13.4211C7.06812 13.4147 6.13549 13.4147 5.20192 13.4211C5.12807 13.4211 5.03622 13.4588 4.9832 13.5095C4.49937 13.9707 4.02122 14.4375 3.54496 14.9061C3.47585 14.9742 3.40578 15 3.30826 15C2.80644 14.9963 2.30462 14.9982 1.8028 14.9982H1.6532C1.59544 14.745 1.64657 14.5627 1.84162 14.3951C2.14176 14.1374 2.4135 13.8483 2.69755 13.5712C2.74205 13.5279 2.78371 13.4828 2.84147 13.4239C2.79129 13.4193 2.76856 13.4165 2.74489 13.4156C1.43732 13.3493 0.394858 12.5097 0.0899787 11.2686C0.0464244 11.09 0.0303283 10.9041 0.000976562 10.7218C0.000976562 8.17345 0.000976562 5.62512 0.000976562 3.07586C0.0104449 3.00405 0.0227537 2.93316 0.0284347 2.86135C0.0842977 2.23992 0.324793 1.70226 0.792527 1.26864C1.17031 0.9188 1.62384 0.693243 2.10862 0.523845C2.94657 0.23016 3.82049 0.119683 4.70199 0.0570797C5.03149 0.0340637 5.36193 0.0184128 5.69238 0ZM5.68386 6.31007V3.16977H1.64468V6.31007H5.68291H5.68386ZM11.3667 6.31007V3.16977H7.3285V6.31099H11.3667V6.31007ZM2.84999 11.8376C3.5194 11.8394 4.06572 11.3101 4.06667 10.6592C4.06762 10.0083 3.52508 9.47708 2.85473 9.47431C2.19194 9.47063 1.63899 10.0055 1.63521 10.6546C1.63142 11.2981 2.18248 11.8367 2.84999 11.8385V11.8376ZM10.1624 11.8376C10.8289 11.8348 11.3819 11.2944 11.3753 10.6518C11.3677 10.0018 10.8147 9.46787 10.1538 9.47339C9.48254 9.47984 8.9419 10.0101 8.94379 10.6601C8.94664 11.311 9.4939 11.8394 10.1624 11.8367V11.8376Z" fill="#676767"/>
</svg>
