<svg xmlns="http://www.w3.org/2000/svg" width="24" height="24" viewBox="0 0 24 24">
    <g data-name="Group 17316">
        <g data-name="Group 17309">
            <g data-name="Ellipse 2464" transform="translate(4 4)" style="stroke:#555;fill:#fff">
                <circle cx="8" cy="8" r="8" style="stroke:none"/>
                <circle cx="8" cy="8" r="7.5" style="fill:none"/>
            </g>
            <g data-name="Ellipse 2465" transform="translate(8.5 4)" style="stroke:#555;fill:#fff">
                <ellipse cx="3.5" cy="8" rx="3.5" ry="8" style="stroke:none"/>
                <ellipse cx="3.5" cy="8" rx="3" ry="7.5" style="fill:none"/>
            </g>
            <path data-name="Path 16767" d="M12174.861-3920.155a6.731 6.731 0 0 1 4.627-2.07 7.427 7.427 0 0 1 4.868 2.07" transform="translate(-12167.517 3937.486)" style="fill:none;stroke:#555"/>
            <path data-name="Path 16802" d="M12174.861-3920.155a6.731 6.731 0 0 1 4.627-2.07 7.427 7.427 0 0 1 4.868 2.07" transform="rotate(180 6095.85 -1956.95)" style="fill:none;stroke:#555"/>
            <path data-name="Line 1034" transform="translate(4.433 12)" style="fill:none;stroke:#555" d="M0 0h14.923"/>
        </g>
    </g>
</svg>
