<svg xmlns="http://www.w3.org/2000/svg" width="24" height="24" viewBox="0 0 24 24">
    <g data-name="Group 17427">
        <path data-name="Rectangle 4825" style="fill:#fff" d="M0 0h24v24H0z"/>
        <g data-name="Group 17426">
            <g data-name="Group 17424">
                <g data-name="Group 17423">
                    <path data-name="Path 6479" d="m188.584 32.017.018-.851h-.491l-.33.851h-1.791l2.337-5.117h1.807l.184 5.117z" transform="translate(-177.851 -14.553)" style="fill:#fff"/>
                    <path data-name="Path 6480" d="M193.681 30.54h1.284l.161 4.468h-1.064l.018-.851h-1.046l-.33.851h-1.064zm.455.813h-.012l-.774 1.992h.746z" transform="translate(-182.996 -17.868)" style="fill:#555"/>
                    <path data-name="Path 6481" d="m229.85 32.017 1.063-5.117h1.855a1.355 1.355 0 0 1 1.11.44 1.526 1.526 0 0 1 .216 1.308 1.871 1.871 0 0 1-2 1.623h-.194l-.363 1.747z" transform="translate(-217.791 -14.553)" style="fill:#fff"/>
                    <path data-name="Path 6482" d="M235.248 30.54h1.59c1.082 0 1.124.8 1.008 1.358a1.56 1.56 0 0 1-1.684 1.365h-.452l-.363 1.746h-1.027zm.626 1.946h.282a.6.6 0 0 0 .626-.563c.072-.344.016-.607-.4-.607h-.263z" transform="translate(-221.861 -17.868)" style="fill:#555"/>
                    <path data-name="Path 6483" d="m266.52 32.017 1.063-5.117h1.854a1.356 1.356 0 0 1 1.111.44 1.526 1.526 0 0 1 .215 1.308 1.87 1.87 0 0 1-2 1.623h-.188l-.363 1.747z" transform="translate(-251.183 -14.553)" style="fill:#fff"/>
                    <path data-name="Path 6484" d="M271.927 30.54h1.589c1.082 0 1.124.8 1.008 1.358a1.559 1.559 0 0 1-1.683 1.365h-.452l-.363 1.746H271zm.626 1.946h.281a.6.6 0 0 0 .626-.563c.072-.344.016-.607-.4-.607h-.26z" transform="translate(-255.262 -17.868)" style="fill:#555"/>
                    <path data-name="Path 6485" d="m134.488 2.485-4.388-.277L138.705 0l-3.958 7.294 11.94.3-16.17 2.461z" transform="translate(-126.957 9.949)" style="fill:#fff"/>
                    <path data-name="Path 6486" d="m137.813 6.967-4.653.023 7.707-1.71-3.878 7.148h12l-15.106 2.028z" transform="translate(-129.744 5.14)" style="fill:#555"/>
                </g>
                <g data-name="Group 17422">
                    <path data-name="Path 6476" d="M65.158 30.54H66.9c1.188 0 1.233.881 1.107 1.49a1.712 1.712 0 0 1-1.848 1.5h-.5l-.4 1.916H64.14zm.687 2.136h.309a.663.663 0 0 0 .687-.618c.077-.378.017-.666-.44-.666h-.292z" transform="translate(-53.721 -26.119)" style="fill:#555"/>
                    <path data-name="Path 6477" d="M94.491 30.54H95.9l.177 4.9h-1.169l.02-.934h-1.149l-.361.934H92.25zm.5.892h-.017l-.846 2.186h.818z" transform="translate(-79.073 -26.119)" style="fill:#555"/>
                    <path data-name="Path 6478" d="m134.906 33.515-.6-2.975h1.245l.159 1.82h.014l.928-1.82h1.208l-1.833 2.975-.4 1.93H134.5z" transform="translate(-117.007 -26.119)" style="fill:#555"/>
                    <g data-name="Group 17421">
                        <path data-name="Path 6487" d="m0 31.931 1.178-5.691h5.577l-1.178 5.691z" transform="translate(4.127 -22.24)" style="fill:#fff"/>
                        <path data-name="Path 6488" d="M9.319 34.859H4.47L5.5 29.88h4.85z" transform="translate(.094 -25.524)" style="fill:#555"/>
                        <path data-name="Path 6489" d="M18.142 42.016H14.99l.669-3.236h3.153z" transform="translate(-9.396 -33.553)" style="fill:#fff"/>
                        <path data-name="Path 6490" d="M27.254 34.859h-.484l1.03-4.979h.485z" transform="translate(-20.023 -25.524)" style="fill:#fff"/>
                        <path data-name="Path 6491" d="m9.21 53.278.1-.5h4.85l-.1.5z" transform="translate(-4.182 -46.183)" style="fill:#fff"/>
                        <path data-name="Path 6492" d="M26.955 49.192H25.5l.308-1.492h1.456z" transform="translate(-18.878 -41.6)" style="fill:#555"/>
                    </g>
                </g>
            </g>
        </g>
    </g>
</svg>
