<svg xmlns="http://www.w3.org/2000/svg" width="24" height="24" viewBox="0 0 24 24">
    <g data-name="Group 17325">
        <g data-name="Group 17323">
            <g data-name="Subtraction 53" style="fill:#fff">
                <path d="M.5 10.892.501.5h6.044v10.388L3.777 9.335l-.244-.137-.244.136L.5 10.892z" style="stroke:none" transform="translate(8.476 9.259)"/>
                <path d="m1 10.04 2.533-1.415 2.512 1.41V1H1.001v9.04M0 11.744.001 0h7.044v11.742L3.532 9.771 0 11.744z" style="fill:#555;stroke:none" transform="translate(8.476 9.259)"/>
            </g>
            <g data-name="Ellipse 2467" transform="translate(5.737 2.997)" style="stroke:#555;fill:#fff">
                <circle cx="6.263" cy="6.263" r="6.263" style="stroke:none"/>
                <circle cx="6.263" cy="6.263" r="5.763" style="fill:none"/>
            </g>
            <g data-name="Polygon 54" style="fill:none">
                <path d="M3.59.265a.2.2 0 0 1 .337 0L5.031 2a.2.2 0 0 0 .123.087l2.037.474a.2.2 0 0 1 .1.327L5.944 4.414a.2.2 0 0 0-.05.148l.162 2.01a.2.2 0 0 1-.273.2L3.833 6a.2.2 0 0 0-.148 0l-1.95.776a.2.2 0 0 1-.273-.2l.162-2.01a.2.2 0 0 0-.05-.148L.222 2.884a.2.2 0 0 1 .1-.327l2.037-.474A.2.2 0 0 0 2.487 2z" style="stroke:none" transform="translate(8.241 5.813)"/>
                <path d="m3.759 1.86-.429.673c-.17.267-.432.453-.74.524l-.73.17.463.524c.215.243.323.568.297.891l-.058.727.753-.3c.284-.113.604-.113.888 0l.753.3-.059-.727a1.206 1.206 0 0 1 .297-.89l.464-.525-.73-.17a1.193 1.193 0 0 1-.74-.524l-.43-.672m0-1.689c.065 0 .13.031.17.093l1.103 1.73a.2.2 0 0 0 .123.088l2.037.474a.2.2 0 0 1 .104.327l-1.351 1.53a.2.2 0 0 0-.05.148l.162 2.01a.2.2 0 0 1-.273.202l-1.95-.776a.2.2 0 0 0-.148 0l-1.95.776a.2.2 0 0 1-.273-.202l.161-2.01a.2.2 0 0 0-.05-.148l-1.35-1.53a.2.2 0 0 1 .104-.327l2.037-.474a.2.2 0 0 0 .123-.087L3.59.265A.198.198 0 0 1 3.76.172z" style="fill:#555;stroke:none" transform="translate(8.241 5.813)"/>
            </g>
        </g>
    </g>
</svg>
