<svg xmlns="http://www.w3.org/2000/svg" width="24" height="24" viewBox="0 0 24 24">
    <g data-name="Group 17320">
        <g data-name="Group 17318">
            <g data-name="Group 17317">
                <g data-name="Path 16769" style="fill:#fff">
                    <path d="M1.222 8.776a.657.657 0 0 1-.489-.224C.5 8.304.373 7.888.4 7.438l.27-4.81c.047-.833.582-1.573 1.168-1.615l9.217-.674a.657.657 0 0 1 .539.222c.234.249.359.665.333 1.115l-.27 4.81c-.047.833-.581 1.573-1.167 1.615l-9.217.674a.686.686 0 0 1-.05.001z" style="stroke:none" transform="rotate(-13 34.941 -14.4)"/>
                    <path d="m11.104.837-.014.001-9.217.673c-.256.019-.667.485-.704 1.144l-.27 4.811c-.022.371.088.627.197.743.064.067.107.067.126.067h.013l9.217-.673c.256-.019.668-.485.705-1.144l.27-4.811c.021-.371-.088-.627-.198-.743-.064-.068-.107-.068-.125-.068m0-1c.795 0 1.38.814 1.322 1.867l-.27 4.81c-.062 1.091-.792 2.025-1.631 2.086l-9.217.673C.47 9.335-.162 8.5-.1 7.41L.17 2.6C.232 1.508.962.574 1.8.513l9.217-.673c.03-.003.058-.004.087-.004z" style="fill:#555;stroke:none" transform="rotate(-13 34.941 -14.4)"/>
                </g>
                <g data-name="Rectangle 4764" transform="translate(4.604 7.688)" style="stroke:#555;fill:#fff">
                    <rect width="15.398" height="11.775" rx="2" style="stroke:none"/>
                    <rect x=".5" y=".5" width="14.398" height="10.775" rx="1.5" style="fill:none"/>
                </g>
                <g data-name="Union 78" style="fill:#fff">
                    <path d="M7.041 5.952H1.885C1.23 5.952.5 4.833.5 3.227.5 1.62 1.23.5 1.885.5h5.156v5.452z" style="stroke:none" transform="translate(12.304 10.35)"/>
                    <path d="M6.541 5.452V1H1.885C1.615 1 1 1.841 1 3.227c0 1.385.615 2.225.885 2.225h4.656m1 1H1.885C.844 6.452 0 5.01 0 3.227 0 1.446.844 0 1.885 0h5.656v6.452z" style="fill:#555;stroke:none" transform="translate(12.304 10.35)"/>
                </g>
            </g>
        </g>
    </g>
</svg>
