<svg width="74" height="32" viewBox="0 0 74 32" fill="none" xmlns="http://www.w3.org/2000/svg">
<mask id="mask0_3921_2897" style="mask-type:alpha" maskUnits="userSpaceOnUse" x="0" y="0" width="74" height="32">
<rect width="74" height="32" fill="#C4C4C4"/>
</mask>
<g mask="url(#mask0_3921_2897)">
</g>
<g clip-path="url(#clip0_3921_2897)">
<path fill-rule="evenodd" clip-rule="evenodd" d="M42.515 20.01C39.8527 22.0334 35.9939 23.1105 32.6714 23.1105C28.0141 23.1105 23.8211 21.3374 20.6477 18.3849C20.3989 18.1535 20.6208 17.8369 20.9217 18.0151C24.3448 20.0688 28.5799 21.3052 32.9525 21.3052C35.9023 21.3052 39.1458 20.6737 42.1297 19.3691C42.5797 19.1719 42.9561 19.6744 42.5168 20.01H42.5141H42.515Z" fill="#FF9900"/>
<path fill-rule="evenodd" clip-rule="evenodd" d="M43.6224 18.7089C43.2811 18.2604 41.3724 18.4956 40.5146 18.6008C40.2541 18.633 40.2128 18.3989 40.4481 18.231C41.9706 17.1283 44.4686 17.4469 44.7578 17.8138C45.0506 18.1874 44.6805 20.7654 43.2542 21.9961C43.0341 22.1858 42.8266 22.0843 42.9227 21.834C43.2443 21.0072 43.9638 19.1564 43.6233 18.707V18.7089H43.6224Z" fill="#FF9900"/>
<path fill-rule="evenodd" clip-rule="evenodd" d="M40.5748 10.4436V9.37033C40.5748 9.20725 40.6952 9.09821 40.8389 9.09821H45.4998C45.6489 9.09821 45.7684 9.20915 45.7684 9.36843V10.2862C45.7684 10.4398 45.6408 10.6408 45.4181 10.9604L43.0036 14.5112C43.8992 14.4894 44.8477 14.6269 45.6624 15.099C45.8456 15.2052 45.8959 15.3626 45.9094 15.5162V16.6597C45.9094 16.8171 45.7423 16.9991 45.5672 16.9053C44.1327 16.1316 42.2285 16.0472 40.6422 16.9147C40.4805 17.0048 40.3107 16.8237 40.3107 16.6663V15.5807C40.3107 15.4062 40.3143 15.1104 40.485 14.8449L43.2812 10.711H40.847C40.697 10.711 40.5775 10.602 40.5775 10.4408L40.5748 10.4427V10.4436ZM23.5741 17.1328H22.1549C22.0918 17.1303 22.0316 17.1041 21.9851 17.0589C21.9387 17.0137 21.9091 16.9525 21.9016 16.8863V9.38929C21.9016 9.23759 22.0256 9.11907 22.1765 9.11907H23.4969C23.6352 9.12571 23.7466 9.23285 23.7546 9.37128V10.3488H23.7816C24.1274 9.40067 24.775 8.96073 25.649 8.96073C26.5221 8.96073 27.0916 9.40257 27.4886 10.3488C27.8326 9.40257 28.6132 8.96073 29.4467 8.96073C30.0422 8.96073 30.6925 9.21294 31.0878 9.78088C31.5387 10.4123 31.4453 11.3264 31.4453 12.1323V16.8626C31.4453 17.0124 31.3213 17.1328 31.1695 17.1328H29.753C29.612 17.1233 29.4988 17.0067 29.4988 16.8645V12.8899C29.4988 12.5751 29.5249 11.7853 29.4584 11.4866C29.3524 10.9812 29.0362 10.84 28.6257 10.84C28.2817 10.84 27.9251 11.077 27.7778 11.4553C27.6314 11.8346 27.6458 12.4641 27.6458 12.8899V16.8626C27.6458 17.0124 27.5236 17.1328 27.3727 17.1328H25.9562C25.8143 17.1233 25.702 17.0067 25.702 16.8645V12.8899C25.702 12.0536 25.8322 10.8238 24.8271 10.8238C23.8211 10.8238 23.8481 12.0233 23.8481 12.8908V16.8635C23.8481 17.0124 23.725 17.1328 23.5741 17.1328ZM49.7789 8.96168C51.8826 8.96168 53.0215 10.8238 53.0215 13.1904C53.0215 15.5561 51.764 17.2921 49.7789 17.2921C47.7939 17.2921 46.5902 15.4299 46.5902 13.1117C46.5902 10.7944 47.7265 8.96168 49.7789 8.96168ZM49.7915 10.4929C48.7469 10.4929 48.6804 11.9588 48.6804 12.8747C48.6804 13.7915 48.6678 15.7466 49.7789 15.7466C50.8901 15.7466 50.9305 14.1689 50.9305 13.2056C50.9305 12.5751 50.9044 11.8175 50.7185 11.2183C50.5586 10.6977 50.2424 10.4929 49.7915 10.4929ZM55.7504 17.1328H54.3383C54.1973 17.1233 54.0841 17.0067 54.0841 16.8645V9.36464C54.094 9.22621 54.2117 9.11812 54.3545 9.11812H55.6704C55.7283 9.12016 55.784 9.14183 55.8293 9.17991C55.8746 9.21799 55.9071 9.27047 55.9219 9.32956V10.4768H55.9498C56.3477 9.44903 56.9019 8.96073 57.8809 8.96073C58.5169 8.96073 59.1385 9.19777 59.5364 9.84346C59.9064 10.4436 59.9064 11.4525 59.9064 12.1778V16.8948C59.8958 16.9624 59.8624 17.0236 59.8124 17.0672C59.7624 17.1107 59.6991 17.1337 59.6343 17.1319H58.2124C58.1509 17.1295 58.0921 17.1045 58.0461 17.0612C58.0002 17.018 57.9701 16.9591 57.9609 16.8948V12.8273C57.9609 12.0071 58.0534 10.8077 57.0743 10.8077C56.7303 10.8077 56.4114 11.0448 56.2543 11.407C56.0567 11.864 56.0288 12.3219 56.0288 12.8273V16.8626C56.0253 16.9369 55.9944 17.0068 55.9427 17.0573C55.891 17.1078 55.8226 17.1349 55.7522 17.1328H55.7504ZM36.8598 13.5536C36.8598 14.1225 36.8723 14.5965 36.5948 15.1019C36.3693 15.5124 36.0109 15.7656 35.613 15.7656C35.0696 15.7656 34.7507 15.3389 34.7507 14.7075C34.7507 13.4635 35.8349 13.2378 36.8598 13.2378V13.5545V13.5526V13.5536ZM38.2897 17.1129C38.2436 17.1535 38.187 17.1785 38.1273 17.1847C38.0676 17.191 38.0075 17.1782 37.9547 17.148C37.484 16.745 37.4005 16.5582 37.1427 16.1752C36.3648 16.9925 35.8133 17.2371 34.8046 17.2371C33.6109 17.2371 32.6812 16.4786 32.6812 14.9616C32.6812 13.7745 33.3055 12.9695 34.1929 12.5732C34.9618 12.2252 36.0361 12.1626 36.8598 12.0678V11.8791C36.8598 11.5312 36.8867 11.1206 36.6873 10.821C36.5157 10.5517 36.1843 10.4417 35.8915 10.4417C35.3516 10.4417 34.8702 10.7262 34.7507 11.3178C34.7274 11.4487 34.634 11.5795 34.5055 11.5862L33.1312 11.4344C33.0163 11.407 32.8878 11.3112 32.9192 11.1291C33.2345 9.41015 34.7417 8.89152 36.09 8.89152C36.7798 8.89152 37.6816 9.08115 38.2251 9.61969C38.9149 10.2834 38.8493 11.169 38.8493 12.1323V14.4078C38.8493 15.0915 39.126 15.392 39.3847 15.7609C39.4745 15.8936 39.4961 16.0529 39.3802 16.1496C39.0901 16.399 38.5763 16.8598 38.2933 17.1195L38.2897 17.1167V17.1129ZM18.2737 13.5526C18.2737 14.1225 18.2862 14.5956 18.0078 15.1019C17.7832 15.5124 17.424 15.7656 17.0269 15.7656C16.4835 15.7656 16.1646 15.3389 16.1646 14.7075C16.1646 13.4635 17.2488 13.2378 18.2737 13.2378V13.5545V13.5526ZM19.7028 17.1129C19.6567 17.1531 19.6003 17.178 19.5407 17.1842C19.4812 17.1905 19.4213 17.1779 19.3686 17.148C18.897 16.745 18.8135 16.5582 18.5566 16.1752C17.7779 16.9925 17.2263 17.2371 16.2194 17.2371C15.0266 17.2371 14.0969 16.4786 14.0969 14.9616C14.0969 13.7745 14.7203 12.9695 15.6086 12.5732C16.3775 12.2252 17.4518 12.1626 18.2746 12.0678V11.8791C18.2746 11.5312 18.3006 11.1206 18.103 10.821C17.9306 10.5517 17.6 10.4417 17.3072 10.4417C16.7665 10.4417 16.2859 10.7262 16.1664 11.3178C16.1422 11.4487 16.0497 11.5795 15.9203 11.5862L14.5469 11.4344C14.4311 11.407 14.3026 11.3112 14.335 11.1291C14.6484 9.40731 16.1539 8.88867 17.503 8.88867C18.1928 8.88867 19.0956 9.0783 19.639 9.6159C20.3288 10.2796 20.2623 11.1652 20.2623 12.1294V14.405C20.2623 15.0877 20.539 15.3882 20.7986 15.758C20.8884 15.8907 20.9091 16.0491 20.7932 16.1458C20.504 16.3961 19.9893 16.8569 19.7063 17.1167L19.7028 17.1129Z" fill="black"/>
</g>
<defs>
<clipPath id="clip0_3921_2897">
<rect width="45.8095" height="14.2222" fill="white" transform="translate(14.0952 8.88867)"/>
</clipPath>
</defs>
</svg>
