<svg width="74" height="32" viewBox="0 0 74 32" fill="none" xmlns="http://www.w3.org/2000/svg">
<path d="M16.2151 23.8454L17.281 24.0037C17.3277 24.3294 17.4493 24.5668 17.6503 24.7204C17.9215 24.9205 18.2908 25.0229 18.763 25.0229C19.2679 25.0229 19.6606 24.9205 19.9364 24.7204C20.2123 24.5202 20.3993 24.2364 20.4975 23.8733C20.5536 23.6499 20.5816 23.1845 20.5769 22.4771C20.1001 23.0403 19.5017 23.3195 18.791 23.3195C17.9028 23.3195 17.2155 23.003 16.7293 22.3654C16.2431 21.7278 16 20.9646 16 20.071C16 19.4567 16.1122 18.8935 16.3366 18.3723C16.561 17.8557 16.8836 17.4555 17.3044 17.1716C17.7298 16.8877 18.2254 16.748 18.7957 16.748C19.5578 16.748 20.1842 17.0552 20.6798 17.6695V16.8923H21.6896V22.4492C21.6896 23.4498 21.5868 24.1572 21.3811 24.5761C21.1753 24.995 20.8528 25.3254 20.4086 25.5674C19.9645 25.8094 19.4175 25.9304 18.7723 25.9304C18.0009 25.9304 17.3792 25.7582 16.907 25.4138C16.4348 25.0694 16.2057 24.5482 16.2197 23.8547L16.2151 23.8454ZM17.122 19.9826C17.122 20.825 17.2903 21.4393 17.6269 21.8302C17.9635 22.2165 18.3843 22.412 18.8939 22.412C19.4035 22.412 19.8196 22.2212 20.1608 21.8349C20.5021 21.4486 20.6704 20.8436 20.6704 20.0198C20.6704 19.1961 20.4928 18.6422 20.1468 18.242C19.7962 17.8417 19.3754 17.6416 18.8799 17.6416C18.3843 17.6416 17.9822 17.8371 17.641 18.2327C17.2997 18.6283 17.1314 19.21 17.1314 19.9826H17.122Z" fill="#41AC4E"/>
<path d="M23.3262 23.3105V16.8833H24.3126V17.856C24.5651 17.3999 24.7942 17.0974 25.0092 16.9531C25.2243 16.8088 25.458 16.7344 25.7105 16.7344C26.0798 16.7344 26.4538 16.8507 26.8372 17.0834L26.4585 18.0933C26.192 17.9351 25.9255 17.856 25.6544 17.856C25.4159 17.856 25.2009 17.9258 25.0092 18.0701C24.8175 18.2144 24.682 18.4145 24.6025 18.6658C24.4809 19.0521 24.4201 19.4756 24.4201 19.9363V23.3012H23.3262V23.3105Z" fill="#41AC4E"/>
<path d="M27.0801 20.1004C27.0801 18.909 27.412 18.0294 28.0759 17.457C28.6323 16.9822 29.3101 16.7402 30.1049 16.7402C30.9932 16.7402 31.7178 17.0288 32.2835 17.6105C32.8445 18.1876 33.1297 18.9881 33.1297 20.012C33.1297 20.8404 33.0035 21.4873 32.7557 21.962C32.5079 22.4367 32.1433 22.8044 31.6664 23.065C31.1895 23.3257 30.6706 23.4606 30.1049 23.4606C29.2026 23.4606 28.4686 23.1721 27.9123 22.595C27.3559 22.0179 27.0754 21.1848 27.0754 20.1004H27.0801ZM28.2068 20.1004C28.2068 20.9242 28.3891 21.5385 28.7491 21.9481C29.1091 22.3576 29.5626 22.5624 30.1096 22.5624C30.6566 22.5624 31.1054 22.3576 31.4654 21.9434C31.8253 21.5339 32.0077 20.9056 32.0077 20.0632C32.0077 19.2674 31.8253 18.667 31.4654 18.2574C31.1007 17.8479 30.6519 17.6431 30.1143 17.6431C29.5766 17.6431 29.1138 17.8479 28.7538 18.2528C28.3938 18.6623 28.2115 19.2767 28.2115 20.1004H28.2068Z" fill="#41AC4E"/>
<path d="M38.6273 20.9587L39.7025 21.0983C39.5856 21.8383 39.2818 22.4154 38.8002 22.8343C38.314 23.2531 37.7203 23.4626 37.0143 23.4626C36.1307 23.4626 35.4201 23.174 34.8825 22.6016C34.3449 22.0245 34.0784 21.2007 34.0784 20.1303C34.0784 19.4369 34.1952 18.8272 34.4243 18.3059C34.6534 17.7847 35.0087 17.3937 35.4809 17.1331C35.9531 16.8725 36.4673 16.7422 37.0237 16.7422C37.725 16.7422 38.3 16.919 38.7441 17.2727C39.1883 17.6264 39.4781 18.1291 39.5997 18.776L38.5337 18.9389C38.4309 18.5061 38.2532 18.1803 37.9961 17.9662C37.739 17.7475 37.4257 17.6404 37.0611 17.6404C36.5094 17.6404 36.0606 17.8359 35.7193 18.2315C35.3734 18.6224 35.2004 19.246 35.2004 20.0977C35.2004 20.9494 35.3687 21.587 35.7006 21.978C36.0326 22.3689 36.4674 22.5644 37.0003 22.5644C37.4304 22.5644 37.7904 22.434 38.0756 22.1688C38.3654 21.9081 38.5478 21.5032 38.6226 20.9587H38.6273Z" fill="#41AC4E"/>
<path d="M45.0607 21.2453L46.1921 21.3849C46.0145 22.0412 45.6825 22.5531 45.201 22.9161C44.7195 23.2791 44.1024 23.4606 43.3543 23.4606C42.41 23.4606 41.6619 23.1721 41.1056 22.5903C40.5493 22.0086 40.2734 21.1988 40.2734 20.1516C40.2734 19.1045 40.5539 18.2295 41.1103 17.6338C41.6666 17.0381 42.3959 16.7402 43.2889 16.7402C44.1818 16.7402 44.8597 17.0334 45.4067 17.6198C45.9537 18.2062 46.2295 19.03 46.2295 20.0911C46.2295 20.1563 46.2295 20.254 46.2249 20.3797H41.4095C41.4516 21.0871 41.6526 21.6269 42.0126 22.0039C42.3726 22.3809 42.8214 22.5671 43.3637 22.5671C43.7657 22.5671 44.107 22.46 44.3922 22.2506C44.6774 22.0412 44.9018 21.7061 45.0654 21.2453H45.0607ZM41.4656 19.4861H45.0701C45.0233 18.9462 44.8831 18.5413 44.6587 18.2714C44.3081 17.8525 43.8592 17.6431 43.3029 17.6431C42.798 17.6431 42.3772 17.8107 42.036 18.1457C41.6947 18.4808 41.503 18.9276 41.4656 19.4908V19.4861Z" fill="#41AC4E"/>
<path d="M47.5522 23.3105V16.8833H48.5387V17.856C48.7912 17.3999 49.0202 17.0974 49.2353 16.9531C49.4503 16.8088 49.6841 16.7344 49.9366 16.7344C50.3059 16.7344 50.6799 16.8507 51.0633 17.0834L50.6846 18.0933C50.4181 17.9351 50.1516 17.856 49.8805 17.856C49.642 17.856 49.427 17.9258 49.2353 18.0701C49.0436 18.2144 48.908 18.4145 48.8286 18.6658C48.707 19.0521 48.6462 19.4756 48.6462 19.9363V23.3012H47.5522V23.3105Z" fill="#41AC4E"/>
<path d="M51.6614 25.784L51.5398 24.7601C51.7783 24.8253 51.9886 24.8578 52.1663 24.8578C52.4094 24.8578 52.6058 24.8159 52.7507 24.7368C52.8956 24.6577 53.0172 24.5414 53.1107 24.3971C53.1808 24.29 53.293 24.0201 53.4473 23.5873C53.466 23.5268 53.4987 23.4384 53.5455 23.322L51.0957 16.8809H52.2738L53.6156 20.6041C53.7886 21.0741 53.9475 21.5721 54.0831 22.0934C54.2093 21.5907 54.3589 21.1067 54.5319 20.6273L55.9111 16.8809H57.005L54.5506 23.4197C54.2888 24.1272 54.0831 24.6112 53.9382 24.8765C53.7418 25.2348 53.5221 25.5001 53.2696 25.6676C53.0172 25.8352 52.718 25.919 52.372 25.919C52.1616 25.919 51.9279 25.8724 51.6661 25.784H51.6614Z" fill="#41AC4E"/>
<path fill-rule="evenodd" clip-rule="evenodd" d="M40.3067 13.3469C38.4764 14.6808 35.8158 15.3913 33.5194 15.3913C30.3005 15.3913 27.4167 14.2217 25.2222 12.2739C25.0571 12.1193 25.1979 11.9114 25.4115 12.0323C27.7759 13.3904 30.6938 14.1975 33.7088 14.1975C35.7382 14.1975 37.9812 13.7819 40.0446 12.9167C40.3504 12.8007 40.6029 13.1246 40.3067 13.3469Z" fill="#020203"/>
<path fill-rule="evenodd" clip-rule="evenodd" d="M41.0685 12.4816C40.8355 12.1867 39.5149 12.3414 38.9275 12.4139C38.7478 12.4381 38.7187 12.2834 38.8838 12.1722C39.9373 11.4376 41.656 11.6599 41.855 11.8967C42.0541 12.1384 41.8016 13.8445 40.8112 14.6516C40.6558 14.7724 40.5102 14.7048 40.5782 14.5405C40.8063 14.004 41.3016 12.786 41.0685 12.4816Z" fill="#020203"/>
<path fill-rule="evenodd" clip-rule="evenodd" d="M38.9618 7.03428V6.31898C38.9618 6.20782 39.0394 6.14499 39.1414 6.14499H42.3603C42.4622 6.14499 42.5496 6.22232 42.5496 6.31898V6.92312C42.5496 7.01979 42.4622 7.15511 42.3069 7.3726L40.6416 9.71182C41.263 9.70216 41.9185 9.78915 42.4719 10.0936C42.5933 10.1613 42.6273 10.2676 42.637 10.3691V11.1231C42.637 11.2343 42.5254 11.3551 42.404 11.2874C41.4184 10.7751 40.0978 10.7171 39.0103 11.2971C38.8987 11.3502 38.7773 11.2439 38.7773 11.1328V10.4126C38.7773 10.3015 38.7773 10.1081 38.8987 9.92931L40.8309 7.20344H39.156C39.054 7.20344 38.9618 7.13095 38.9618 7.03428ZM27.2369 11.4421H26.2611C26.1737 11.4324 26.096 11.3647 26.0814 11.2778V6.33348C26.0814 6.23682 26.1688 6.15949 26.2708 6.15949H27.1787C27.2806 6.15949 27.3437 6.23682 27.3583 6.32382V6.97145H27.3826C27.6156 6.34798 28.072 6.05316 28.6691 6.05316C29.2663 6.05316 29.6693 6.34798 29.9314 6.97145C30.1645 6.34798 30.7082 6.05316 31.286 6.05316C31.6987 6.05316 32.1405 6.21749 32.4172 6.5993C32.7279 7.01495 32.66 7.61909 32.66 8.15073V11.2778C32.66 11.3744 32.5726 11.4517 32.4706 11.4517H31.5045C31.4025 11.4421 31.3248 11.3647 31.3248 11.2778V8.65337C31.3248 8.44555 31.3491 7.91874 31.3006 7.72542C31.2229 7.39677 31.0141 7.30011 30.7228 7.30011C30.4898 7.30011 30.2325 7.45476 30.1354 7.70609C30.0334 7.95741 30.048 8.37305 30.048 8.65821V11.2826C30.048 11.3792 29.9606 11.4566 29.8586 11.4566H28.8828C28.7808 11.4469 28.7031 11.3696 28.7031 11.2826V8.65337C28.7031 8.10723 28.7905 7.28561 28.106 7.28561C27.4214 7.28561 27.4311 8.0734 27.4311 8.65337V11.2778C27.4263 11.3647 27.3486 11.4421 27.2369 11.4421ZM45.3218 6.04833C46.7735 6.04833 47.5649 7.27594 47.5649 8.83703C47.5649 10.3981 46.7007 11.5484 45.3218 11.5484C43.943 11.5484 43.1274 10.3208 43.1274 8.79353C43.1128 7.25177 43.8993 6.04833 45.3218 6.04833ZM45.3218 7.06328C44.5984 7.06328 44.5547 8.03474 44.5547 8.63888C44.5547 9.24301 44.545 10.5335 45.3073 10.5335C46.0695 10.5335 46.1083 9.49433 46.1083 8.8612C46.1083 8.44555 46.0841 7.94291 45.9627 7.54659C45.851 7.19378 45.6277 7.06328 45.3218 7.06328ZM49.434 11.4421H48.4582C48.3562 11.4324 48.2785 11.3551 48.2785 11.2681V6.30932C48.2882 6.22232 48.3659 6.14499 48.4679 6.14499H49.3758C49.4632 6.14499 49.5311 6.21266 49.5554 6.28515V7.03912H49.5797C49.8564 6.36248 50.2351 6.0435 50.91 6.0435C51.3421 6.0435 51.7741 6.19816 52.0509 6.62347C52.3082 7.01495 52.3082 7.68675 52.3082 8.16523V11.2826C52.2985 11.3696 52.2208 11.4372 52.1189 11.4372H51.143C51.0556 11.4276 50.9779 11.3599 50.9634 11.2826V8.59538C50.9634 8.04924 51.0313 7.26144 50.3516 7.26144C50.1186 7.26144 49.8953 7.4161 49.7836 7.65292C49.6525 7.95741 49.6282 8.25706 49.6282 8.59538V11.2633C49.6282 11.3647 49.536 11.4421 49.434 11.4421ZM36.3983 9.07869C36.3983 9.45084 36.408 9.76982 36.2187 10.1081C36.0633 10.3836 35.8206 10.548 35.5438 10.548C35.1651 10.548 34.9467 10.2628 34.9467 9.84715C34.9467 9.02552 35.6895 8.8757 36.3983 8.8757V9.07869ZM37.3887 11.4324C37.3208 11.4856 37.2334 11.5001 37.1557 11.4566C36.8353 11.1956 36.7673 11.0651 36.5877 10.8089C36.0536 11.3454 35.6652 11.5097 34.9807 11.5097C34.1602 11.5097 33.5144 11.0071 33.5144 10.0115C33.5144 9.22368 33.9465 8.69687 34.5583 8.43588C35.0923 8.2039 35.8351 8.1604 36.3983 8.09757V7.97191C36.3983 7.73992 36.4226 7.46926 36.2769 7.27111C36.1556 7.09711 35.9322 7.01978 35.7332 7.01978C35.3545 7.01978 35.0244 7.20344 34.9467 7.59976C34.9224 7.68675 34.869 7.77375 34.7816 7.77375L33.8397 7.67709C33.7621 7.65292 33.6747 7.59976 33.6941 7.47893C33.9174 6.34315 34.9467 6 35.8788 6C36.3546 6 36.9761 6.12083 37.3548 6.48331C37.8306 6.92312 37.7869 7.51276 37.7869 8.1459V9.64416C37.7869 10.0936 37.9762 10.2918 38.151 10.5431C38.219 10.6301 38.2287 10.7413 38.151 10.7944C37.9422 10.9588 37.5878 11.2681 37.3887 11.4324ZM23.5859 9.07869C23.5859 9.45084 23.5957 9.76982 23.4063 10.1081C23.2509 10.3836 23.0082 10.548 22.7315 10.548C22.3528 10.548 22.1343 10.2628 22.1343 9.84715C22.1343 9.02552 22.8771 8.8757 23.5859 8.8757V9.07869ZM24.5618 11.4324C24.4938 11.4856 24.4064 11.5001 24.3288 11.4566C24.0083 11.1956 23.9404 11.0651 23.7607 10.8089C23.2267 11.3454 22.8383 11.5097 22.1537 11.5097C21.3332 11.5097 20.6875 11.0071 20.6875 10.0115C20.6875 9.22368 21.1196 8.69687 21.7313 8.43588C22.2654 8.2039 23.0082 8.1604 23.5714 8.09757V7.97191C23.5714 7.73992 23.5957 7.46926 23.45 7.27111C23.3286 7.09711 23.1053 7.01978 22.9062 7.01978C22.5276 7.01978 22.1974 7.20344 22.1197 7.59976C22.0955 7.68675 22.042 7.77375 21.9547 7.77375L21.0128 7.67709C20.9351 7.65292 20.8477 7.59976 20.8671 7.47893C21.0905 6.34315 22.1197 6 23.0519 6C23.5277 6 24.1491 6.12083 24.5278 6.48331C25.0036 6.92312 24.9599 7.51276 24.9599 8.1459V9.64416C24.9599 10.0936 25.1493 10.2918 25.324 10.5431C25.392 10.6301 25.4017 10.7413 25.324 10.7944C25.1201 10.9588 24.7657 11.2681 24.5618 11.4324Z" fill="#020203"/>
</svg>
