<svg width="74" height="32" viewBox="0 0 74 32" fill="none" xmlns="http://www.w3.org/2000/svg">
<mask id="mask0_3921_2957" style="mask-type:alpha" maskUnits="userSpaceOnUse" x="0" y="0" width="74" height="32">
<rect width="74" height="32" fill="#C4C4C4"/>
</mask>
<g mask="url(#mask0_3921_2957)">
</g>
<g clip-path="url(#clip0_3921_2957)">
<path d="M18.234 7.11133C18.2622 7.20999 18.3573 7.19311 18.4251 7.22155C19.1713 7.52466 19.632 8.06599 19.6875 8.91044C19.7439 9.79488 19.3739 10.4296 18.5987 10.8136C18.4419 10.8891 18.2842 10.9647 18.1327 11.1336C18.7 11.1336 19.2726 11.1691 19.8338 11.122C20.3333 11.0811 20.4962 11.2678 20.4346 11.762C20.4037 12.0408 20.4037 12.3223 20.4346 12.6011C20.4786 13.002 20.3112 13.09 19.9518 13.09C17.1839 13.0784 14.4106 13.09 11.6444 13.0784C11.3009 13.0784 11.1335 13.1362 11.2057 13.5433C11.2568 13.8233 11.4357 13.7709 11.5986 13.7709H14.9445C16.6342 13.7709 18.3185 13.7762 20.0082 13.7647C20.328 13.7647 20.491 13.8402 20.4399 14.2011C20.4231 14.3291 20.4399 14.4633 20.4399 14.5976C20.4399 15.3016 20.4399 15.3193 19.7774 15.4064C19.5254 15.442 19.5483 15.6047 19.5704 15.7558C19.6206 16.1398 19.4638 16.2216 19.1149 16.2153C16.9319 16.1976 14.7542 16.2153 12.5694 16.1976C12.2391 16.1976 12.0981 16.2447 12.0928 16.6402C12.0928 17.0651 12.284 17.0651 12.5862 17.0651C14.7366 17.0598 16.887 17.0651 19.0365 17.0536C19.4356 17.0536 19.6206 17.1238 19.5757 17.5833C19.5363 17.9939 19.5363 18.4074 19.5757 18.818C19.6038 19.1789 19.4638 19.2536 19.1378 19.2536C16.8755 19.2429 14.6185 19.2429 12.3562 19.2536C12.2109 19.2536 11.981 19.1264 11.9466 19.4287C11.9078 19.7202 11.9642 19.8713 12.3113 19.8651C13.4125 19.842 14.5067 19.8598 15.6061 19.8598C17.9477 19.8598 20.2883 19.8482 22.629 19.8713C23.0114 19.8713 23.1065 19.7602 23.1012 19.3762C23.0836 16.7451 23.1012 14.114 23.0836 11.4829C23.0836 11.0696 23.1964 10.9647 23.5893 10.9647C23.9769 10.9647 24.1002 11.058 24.0949 11.4776C24.072 13.9922 24.0835 16.5069 24.0888 19.0216C24.0888 19.3824 24.1002 19.7433 24.1399 20.1042C24.1839 20.5113 24.0835 20.6749 23.6342 20.6687C21.978 20.6393 20.3218 20.6571 18.6656 20.6571H12.1721C11.7123 20.6571 11.4815 20.4109 11.4815 19.9176C11.4815 19.6038 11.5097 19.2891 11.4762 18.9807C11.4365 18.5789 11.5881 18.4802 11.9589 18.4856C14.1428 18.5033 16.3205 18.4918 18.5044 18.4918C18.7176 18.4918 18.9422 18.562 18.9537 18.1771C18.959 17.8109 18.7907 17.7931 18.5212 17.7931C16.3373 17.7993 14.1596 17.7878 11.9757 17.8047C11.5713 17.8047 11.448 17.6891 11.4823 17.2802C11.5158 16.8091 11.5158 16.3264 11.4823 15.8491C11.4542 15.4651 11.5942 15.3833 11.9422 15.3887C14.1367 15.4064 16.3382 15.4002 18.5317 15.3949C18.7907 15.3949 19.1043 15.5167 19.1722 15.0571C19.1951 14.906 19.4083 14.9353 19.5536 14.9291C19.6946 14.9291 19.8576 14.9522 19.8399 14.7193C19.8232 14.4927 19.6611 14.5273 19.5202 14.5273H16.4148C14.6185 14.5273 12.817 14.5158 11.0207 14.5336C10.6842 14.5336 10.5767 14.434 10.5996 14.0909C10.6278 13.7007 10.6393 13.2998 10.5996 12.9087C10.5547 12.4438 10.6789 12.3042 11.1546 12.3096C13.8442 12.3389 16.539 12.3211 19.2277 12.3211C19.3396 12.3211 19.4523 12.3158 19.5642 12.3211C19.7668 12.3327 19.8505 12.2456 19.8505 12.0367C19.8505 11.8207 19.7668 11.7504 19.5642 11.7504C18.6269 11.7567 17.6842 11.7504 16.746 11.7504C16.561 11.7504 16.3258 11.8144 16.2809 11.5416C16.2298 11.2678 16.421 11.122 16.6509 11.0464C17.0103 10.9184 17.3812 10.8136 17.7345 10.6731C18.2005 10.482 18.6101 10.202 18.8964 9.76644C19.2391 9.25355 19.1942 8.64822 18.8013 8.22866C18.6108 8.02984 18.3578 7.90382 18.0856 7.87205C17.8133 7.84028 17.5385 7.90474 17.3081 8.05444C16.8086 8.37444 16.5328 8.87488 16.3478 9.42777C16.1681 9.95222 16.0166 10.4873 15.8704 11.0287C15.8087 11.2731 15.6968 11.402 15.4493 11.3958C15.2026 11.3958 15.0396 11.3256 14.9727 11.0349C14.7982 10.3016 14.6027 9.57355 14.3269 8.86955C14.1587 8.42688 13.8891 8.07222 13.4513 7.87399C12.9403 7.64644 12.4073 7.75755 12.0594 8.17088C11.6999 8.59577 11.6436 9.13711 11.9131 9.63222C12.1157 10.0047 12.4241 10.2607 12.8055 10.4056C13.283 10.5869 13.7658 10.7558 14.2485 10.9184C14.4617 10.9878 14.5912 11.0873 14.5287 11.3371C14.467 11.5993 14.2767 11.6109 14.0794 11.5647C13.3165 11.3842 12.5756 11.1336 11.936 10.6447C11.3238 10.1789 10.9872 9.57355 11.122 8.77622C11.2392 7.95577 11.6991 7.40822 12.491 7.19311C12.5307 7.18155 12.5642 7.13977 12.5976 7.11133H13.3614C14.8044 7.59488 14.911 9.03222 15.4052 10.226C16.2465 7.70511 16.2976 7.62955 17.4693 7.11133H18.2331H18.234Z" fill="#D73650"/>
<path d="M63.4287 20.6277C63.4005 20.6339 63.367 20.6392 63.3388 20.6517C62.4861 20.9948 62.3117 20.9015 62.2165 19.9175C62.1601 19.3468 62.1989 18.7708 62.183 18.1948C62.183 17.985 62.1654 17.7637 62.1214 17.5601C61.9857 16.9548 61.6545 16.6926 61.11 16.7512C60.6167 16.8037 60.1842 17.2517 60.1727 17.7646C60.1503 18.6178 60.1503 19.4714 60.1727 20.3246C60.1903 20.7335 59.993 20.7335 59.7067 20.7272C59.4371 20.721 59.2133 20.7557 59.2301 20.3361C59.2636 19.5166 59.2468 18.6952 59.2354 17.8686C59.2301 17.1406 58.9209 16.7512 58.3764 16.7397C57.7924 16.7281 57.2426 17.257 57.2259 17.8917C57.2034 18.6969 57.2034 19.5025 57.2259 20.3077C57.2374 20.681 57.0911 20.7388 56.7819 20.7272C56.5018 20.7157 56.3168 20.7272 56.3168 20.3255C56.3168 18.9806 56.3784 17.6304 56.2771 16.2855C56.2657 16.1628 56.2155 15.9708 56.4119 15.9886C56.6586 16.0064 56.9845 15.8019 57.1413 16.1166C57.2479 16.3264 57.3043 16.2321 57.4171 16.169C58.3315 15.6739 58.8706 15.7326 59.6617 16.4481C59.8415 16.6117 59.8978 16.5015 59.993 16.4019C60.4202 15.9708 60.9356 15.8197 61.5258 15.8775C62.3337 15.9592 62.9688 16.6464 63.0358 17.5841C63.0807 18.1886 63.064 18.8001 63.0807 19.4055C63.0922 19.7788 63.1142 20.1504 63.4172 20.4241V20.6224L63.4287 20.6277Z" fill="#D73751"/>
<path d="M23.9654 7.11133C24.4314 7.37888 24.7574 7.74599 24.8129 8.31666C24.886 9.00911 24.516 9.66066 23.9487 9.84111C23.3532 10.0278 22.7471 9.75399 22.4669 9.17799C22.1806 8.57799 22.3542 7.75133 22.8598 7.35577C22.9717 7.26866 23.0898 7.19311 23.2025 7.11133H23.9654V7.11133Z" fill="#D6354F"/>
<path d="M35.625 18.9327C35.625 20.074 35.6197 21.2038 35.625 22.3274C35.6302 23.0376 35.4223 23.6829 35.1589 24.3185C35.1026 24.4571 35.0471 24.6145 34.8559 24.5505C34.6031 24.4634 34.3062 24.5149 34.0983 24.3176C34.0701 24.2945 34.1485 24.1434 34.1881 24.0563C34.5247 23.386 34.648 22.6767 34.648 21.9194C34.6365 18.4038 34.648 14.8883 34.5528 11.3718C34.5467 11.0918 34.5528 10.8883 34.9123 10.9291C35.2039 10.9647 35.5686 10.8065 35.5289 11.3718C35.4955 11.802 35.5184 12.2447 35.6197 12.7451C36.2478 11.8083 37.0169 11.1505 38.0388 10.8589C41.4014 9.91048 44.3376 12.5825 43.8821 16.1745C43.5791 18.5611 42.3272 20.1327 40.2447 20.5514C38.4766 20.9069 36.8882 20.546 35.7254 18.9736C35.7095 18.9558 35.6752 18.9505 35.6082 18.9274L35.625 18.9336V18.9327ZM35.6302 15.778C35.6082 16.5291 35.5686 17.2447 35.928 17.8847C36.6522 19.178 37.7692 19.818 39.1955 19.818C40.6041 19.818 41.7211 19.2243 42.3951 17.8971C42.8611 16.9771 42.9615 15.9878 42.8717 14.9745C42.7369 13.4207 41.7379 12.1345 40.3521 11.7096C39.6378 11.4845 38.8722 11.4866 38.159 11.7156C37.4459 11.9446 36.8199 12.3894 36.3658 12.9896C35.7368 13.8225 35.5404 14.7825 35.6302 15.778Z" fill="#D73650"/>
<path d="M27.6365 17.187C27.418 18.6359 27.4911 18.7407 28.8663 19.067C29.7367 19.2767 30.5842 19.5674 31.3198 20.1087C32.5487 21.0119 32.6667 22.915 31.555 23.9745C30.2644 25.2145 27.8902 25.075 26.5247 24.2483C26.1829 24.0385 26.5926 23.747 26.6375 23.491C26.6886 23.2119 26.8569 23.3514 26.9916 23.427C27.9228 23.9452 28.8998 24.1381 29.9437 23.8874C30.6793 23.707 31.1506 23.235 31.2969 22.467C31.4378 21.7043 31.1286 21.0981 30.4097 20.6679C29.697 20.243 28.9165 20.0279 28.1193 19.8474C26.8172 19.5505 26.4358 19.0901 26.6542 17.7576C26.7776 17.0181 26.6542 16.4883 26.2666 15.8367C24.998 13.7292 26.5194 10.9816 28.9623 10.883C30.0565 10.8359 31.1559 10.8714 32.2571 10.8421C32.7504 10.8305 32.554 11.1799 32.5936 11.4127C32.6438 11.715 32.4923 11.7736 32.2342 11.7381C31.9426 11.7034 31.6563 11.6047 31.3418 11.6625C32.5038 13.2927 32.6385 14.7594 31.7682 16.0519C30.9154 17.315 29.4671 17.7167 27.6259 17.1807L27.6365 17.187ZM31.4484 14.2127C31.4484 12.7399 30.4547 11.6625 29.0962 11.6687C27.7325 11.6687 26.7441 12.7452 26.7441 14.2243C26.7441 15.5976 27.7713 16.6687 29.0962 16.6803C30.4829 16.6919 31.4484 15.6847 31.4484 14.2181V14.2127Z" fill="#D73751"/>
<path d="M50.7139 18.3913C50.7139 16.9361 51.7411 15.8828 53.1612 15.8828C54.5592 15.8828 55.5644 16.9077 55.5582 18.3219C55.5529 19.7708 54.5196 20.8304 53.1004 20.8366C51.7129 20.8428 50.7139 19.8179 50.7139 18.3921V18.3913ZM54.6376 18.3335C54.6323 17.4019 53.9866 16.7095 53.133 16.7095C52.2185 16.7095 51.5842 17.4081 51.5957 18.3984C51.601 19.3175 52.2635 20.0099 53.1224 19.9984C54.0033 19.9806 54.6491 19.2819 54.6376 18.3335Z" fill="#D73650"/>
<path d="M48.8728 15.884C49.1873 15.8724 49.5247 15.948 49.8612 16.0591C50.2823 16.1924 50.3607 16.4022 50.1475 16.8093C50.018 17.0484 49.9282 17.1062 49.6921 16.9666C49.2604 16.7106 48.7724 16.7106 48.3002 16.7924C47.5426 16.9204 47.0712 17.5782 47.088 18.4333C47.11 19.2369 47.6324 19.8538 48.3847 19.9533C48.8508 20.0111 49.3053 19.9533 49.7326 19.7373C49.9229 19.6449 50.0744 19.6218 50.1132 19.8831C50.1475 20.0929 50.4506 20.3426 50.0964 20.5178C48.5363 21.2911 46.3638 20.7675 46.1841 18.6022C46.0546 17.0484 47.1884 15.884 48.879 15.8955L48.8728 15.884Z" fill="#D73851"/>
<path d="M45.4828 19.9C45.4767 20.3657 45.1736 20.7026 44.764 20.7026C44.3376 20.7026 44.0169 20.3364 44.0284 19.8644C44.046 19.3817 44.3763 19.0377 44.8036 19.0617C45.2071 19.0795 45.4881 19.428 45.4819 19.9H45.4828Z" fill="#D83953"/>
</g>
<defs>
<clipPath id="clip0_3921_2957">
<rect width="52.8571" height="17.7778" fill="white" transform="translate(10.5715 7.11133)"/>
</clipPath>
</defs>
</svg>
