<svg width="74" height="32" viewBox="0 0 74 32" fill="none" xmlns="http://www.w3.org/2000/svg">
<mask id="mask0_3921_2978" style="mask-type:alpha" maskUnits="userSpaceOnUse" x="0" y="0" width="74" height="32">
<rect width="74" height="32" fill="#C4C4C4"/>
</mask>
<g mask="url(#mask0_3921_2978)">
</g>
<g clip-path="url(#clip0_3921_2978)">
<path fill-rule="evenodd" clip-rule="evenodd" d="M33.5475 13.1712C35.7323 13.1712 37.5021 14.8192 37.5021 16.8512C37.5021 18.8832 35.7332 20.5312 33.5466 20.5312C31.3619 20.5312 29.6088 18.8832 29.6088 16.8512C29.6088 14.8192 31.3795 13.1712 33.5466 13.1712H33.5475ZM33.5475 19.5623C35.0205 19.5623 36.201 18.3534 36.201 16.8601C36.201 15.365 35.0205 14.1383 33.5475 14.1383C32.0746 14.1383 30.9117 15.3454 30.9117 16.8592C30.9117 18.3738 32.0931 19.5623 33.5475 19.5623ZM45.5065 17.9507C45.5058 17.8849 45.4792 17.822 45.4327 17.7758C45.3861 17.7297 45.3233 17.704 45.258 17.7045H44.4528C44.4034 17.7046 44.3552 17.7193 44.3141 17.747C44.273 17.7747 44.241 17.814 44.222 17.8601C43.8679 18.8414 43.0186 19.5374 41.6963 19.5374C40.2736 19.5374 39.1328 18.3338 39.1328 16.8432C39.1328 15.3516 40.2736 14.1303 41.6963 14.1303C42.8574 14.1303 43.6996 14.7241 44.1075 15.573C44.148 15.6512 44.2326 15.7063 44.3269 15.7063H45.1321C45.1972 15.7065 45.2597 15.6808 45.3061 15.6346C45.3525 15.5885 45.3789 15.5258 45.3796 15.4601C45.3796 15.3898 45.3461 15.3214 45.3461 15.3214C44.37 13.149 41.7078 13.1641 41.7078 13.1641C39.568 13.1641 37.8342 14.8112 37.8342 16.8432C37.8342 18.8743 39.568 20.5214 41.7078 20.5214C41.7078 20.5214 44.3735 20.6992 45.4721 18.1063C45.4721 18.1063 45.5065 18.029 45.5065 17.949V17.9507ZM26.9756 19.3365C27.5535 19.0503 27.9711 18.3943 27.9711 17.6138V13.6965C27.9718 13.6308 27.9982 13.5681 28.0446 13.5219C28.091 13.4758 28.1535 13.45 28.2186 13.4503H29.0247C29.0898 13.45 29.1524 13.4758 29.1988 13.5219C29.2451 13.5681 29.2716 13.6308 29.2723 13.6965L29.2687 17.5241C29.2687 19.2458 27.9544 20.5063 26.3167 20.5063H25.8321C25.2199 20.5063 24.5468 20.2867 24.5468 20.2867C23.4959 19.9543 22.7356 18.9996 22.7356 17.8752V17.8387C22.7363 17.7729 22.7628 17.71 22.8094 17.6638C22.856 17.6177 22.9188 17.592 22.984 17.5925H23.6342C23.8782 17.5925 23.8703 17.8138 23.8703 17.8138V17.8654C23.8703 18.7943 24.7953 19.5472 25.9343 19.5472C25.9343 19.5472 26.4981 19.5738 26.9774 19.3365H26.9756ZM52.7567 19.8201L49.9861 15.8032L51.9638 13.7952C51.9638 13.7952 52.0185 13.7418 52.0185 13.6396C52.0185 13.6396 52.0202 13.4503 51.8511 13.4503H50.8644C50.7981 13.4504 50.7344 13.4769 50.6873 13.5241L47.4666 16.7276V13.6965C47.4659 13.6308 47.4395 13.5681 47.3931 13.5219C47.3467 13.4758 47.2841 13.45 47.219 13.4503H46.82C46.82 13.4503 46.1663 13.4147 46.1663 14.2823V19.9321C46.167 19.9976 46.1933 20.0602 46.2395 20.1063C46.2856 20.1524 46.348 20.1783 46.413 20.1783H46.8129C46.8129 20.1783 47.4666 20.2138 47.4666 19.3463V18.3596L49.1025 16.6974L51.4229 20.0512C51.474 20.1214 51.5639 20.1667 51.6317 20.1667H52.6413C52.8104 20.1667 52.8087 19.9774 52.8087 19.9774C52.8087 19.8983 52.754 19.8218 52.754 19.8218L52.7558 19.8201H52.7567ZM57.4328 17.1623C57.7191 17.1623 57.9525 16.9312 57.9525 16.6467C57.9525 16.3623 57.7191 16.1312 57.4328 16.1312H54.553V14.4814H57.8292C58.1155 14.4814 58.3481 14.2503 58.3481 13.9658C58.3481 13.6814 58.1155 13.4503 57.8283 13.4503H53.702C53.6421 13.4497 53.5828 13.461 53.5273 13.4836C53.4718 13.5061 53.4213 13.5395 53.3786 13.5817C53.3359 13.624 53.3019 13.6743 53.2785 13.7299C53.255 13.7854 53.2427 13.845 53.2421 13.9054V19.7098C53.2421 19.9605 53.4482 20.1667 53.702 20.1667H57.8292C58.1155 20.1667 58.3481 19.9356 58.3481 19.6512C58.3481 19.3667 58.1155 19.1356 57.8283 19.1356H54.553V17.1623H57.4337H57.4328ZM61.2182 19.6512C61.2182 19.941 61.4235 20.1756 61.6781 20.1756H62.0772C62.33 20.1756 62.5353 19.941 62.5353 19.6512V17.7498L65.179 13.9507C65.2671 13.7916 65.2618 13.7063 65.2618 13.7063C65.2609 13.6407 65.2344 13.5782 65.188 13.5323C65.1417 13.4863 65.0792 13.4607 65.0143 13.461H64.1315C64.1315 13.461 63.8999 13.4458 63.7245 13.7196L61.812 16.4814L60.1382 13.7196C59.9629 13.4458 59.733 13.461 59.733 13.461H58.9401C58.8753 13.4609 58.8131 13.4867 58.7669 13.5326C58.7208 13.5785 58.6944 13.6409 58.6934 13.7063C58.6934 13.7063 58.6873 13.7916 58.7754 13.9507L61.2218 17.8138V19.6512H61.2182Z" fill="#231F20"/>
<path d="M63.44 20.2049V19.6298H63.233V19.5124H63.788V19.6298H63.5819V20.2058H63.44V20.2049ZM63.877 20.2049V19.5142H64.0875L64.2135 19.9862L64.3386 19.5151H64.5492V20.2058H64.417V19.6618L64.2796 20.2058H64.1448L64.0065 19.6618V20.2058H63.8743H63.877V20.2049ZM20.4654 19.4911C20.4654 19.4911 20.2337 19.3391 20.121 19.2822C20.121 19.2822 18.2533 18.3311 17.1108 20.2778C16.6562 21.1347 16.9663 21.8067 16.9663 21.8067C16.317 21.8493 15.5744 21.6964 14.8608 21.3355C14.0107 20.9018 13.3817 20.2609 13.0839 19.5995C13.0839 19.5995 12.7403 18.9089 12.8091 18.0707C13.019 18.372 13.298 18.6179 13.6222 18.7873C13.9464 18.9568 14.3063 19.0448 14.6714 19.044C16.7945 19.044 18.2304 17.4111 18.2304 17.4111C18.8031 16.7329 19.1704 15.6884 19.1704 14.5187C19.1704 13.436 18.8533 12.4635 18.3529 11.788L18.3494 11.7827C17.9873 11.2804 17.4482 10.8209 16.7795 10.4858C16.1065 10.148 15.4088 9.99065 14.7824 10.0004H14.6503C14.6503 10.0004 14.3102 10.0004 14.2582 10.4235C14.2582 10.4235 14.2195 10.7071 14.2283 10.8307C14.2283 10.8307 14.2265 12.9391 16.5381 13.0395C17.5336 13.0395 18.0058 12.4475 18.0058 12.4475C18.3458 13.0049 18.552 13.7373 18.552 14.5427C18.552 15.5044 18.2551 16.3649 17.7882 16.9427C17.7882 16.9427 17.3786 17.4893 16.6764 17.8342C16.8917 17.4239 16.9735 16.9557 16.9103 16.4959C16.847 16.0361 16.6419 15.608 16.3241 15.2724C15.2625 13.62 13.2892 13.2404 13.2892 13.2404C12.425 13.0911 11.3449 13.2991 10.3318 13.8813C9.39537 14.4182 8.70911 15.1702 8.3673 15.9311V15.9364C8.10742 16.492 7.97087 17.1764 8.00523 17.908C8.04047 18.6458 8.24309 19.3133 8.55582 19.8395L8.62013 19.9515C8.62013 19.9515 8.76285 20.2324 9.17602 20.0733C9.17602 20.0733 9.43149 19.9684 9.54161 19.8973C9.54161 19.8973 11.3669 18.852 10.3301 16.8449C9.84642 16.0013 9.10554 15.8964 9.10554 15.8964C9.42268 15.332 9.95654 14.7915 10.6525 14.3942C11.485 13.9169 12.373 13.7391 13.0971 13.8475C13.0971 13.8475 13.9499 13.9418 14.6458 14.5231L14.7119 14.556L14.6696 14.5542C14.1435 14.5514 13.6331 14.7345 13.2268 15.0717C12.8205 15.409 12.544 15.879 12.4452 16.4004C11.7916 18.0947 12.462 19.7693 12.462 19.7693C12.8003 20.5684 13.5588 21.3542 14.5956 21.8804C15.5541 22.3667 16.5602 22.5311 17.3883 22.404H17.3927C18.0023 22.3151 18.6559 22.0591 19.2576 21.6342C19.8628 21.2058 20.3209 20.6769 20.5967 20.1329L20.6583 20.0191C20.6583 20.0191 20.8319 19.7382 20.4628 19.492L20.4663 19.4902L20.4654 19.4911ZM14.6723 15.1684C15.5788 15.1684 16.3135 15.8973 16.3135 16.7987C16.3135 17.6991 15.5788 18.428 14.6723 18.428C13.7649 18.428 13.0311 17.6991 13.0311 16.7987C13.0311 15.8982 13.7658 15.1684 14.6723 15.1684ZM16.524 12.4173C14.7674 12.4173 14.8564 10.6333 14.8564 10.6333C15.4836 10.6067 16.1866 10.7871 16.8333 11.1871C17.1751 11.3978 17.4675 11.6502 17.7054 11.9249C17.7054 11.9249 17.3609 12.4173 16.5249 12.4173H16.5232H16.524ZM17.6649 20.524C18.4991 19.0191 20.0073 19.9427 20.0073 19.9427C19.7307 20.4938 19.2409 21.0093 18.5863 21.3738C18.241 21.5667 17.8816 21.6964 17.5292 21.7702C17.5292 21.7702 17.2667 21.2404 17.6649 20.524ZM9.80325 17.1613C10.649 18.6591 9.06502 19.444 9.06502 19.444C8.73906 18.9222 8.55759 18.2351 8.59106 17.4911C8.60956 17.0982 8.68532 16.7267 8.80866 16.3898C8.80866 16.3898 9.40066 16.4484 9.80413 17.1613H9.80325Z" fill="#231F20"/>
</g>
<defs>
<clipPath id="clip0_3921_2978">
<rect width="57.2619" height="12.4444" fill="white" transform="translate(8 10)"/>
</clipPath>
</defs>
</svg>
