<svg width="100" height="40" viewBox="0 0 100 40" fill="none" xmlns="http://www.w3.org/2000/svg">
<g clip-path="url(#clip0_94_236)">
<path d="M100 1H0V38.931H100V1Z" fill="#FFE100"/>
<path d="M12.7787 10.1942H17.4727V16.9188C18.4344 15.9272 19.4317 15.3352 20.5943 15.0426C23.9535 14.1959 27.2336 16.0139 28.2787 19.4399C29.1052 22.1465 28.9372 24.8153 27.2268 27.1995C25 30.3044 20.5191 30.639 17.7896 27.9527C17.7295 27.8931 17.6571 27.8443 17.5068 27.7238V29.371H12.7787V10.1942ZM24.1393 22.2522C24.1352 20.2242 22.6694 18.7436 20.6885 18.7653C18.7869 18.7856 17.4713 20.2771 17.4863 22.3972C17.5 24.3438 18.8675 25.792 20.7035 25.8028C22.7459 25.815 24.1448 24.3709 24.1407 22.2522H24.1393Z" fill="black"/>
<path d="M62.6858 24.4793C61.7118 25.3057 61.0069 26.1713 61.2254 27.5151C61.3211 28.1058 61.2418 28.7235 61.2418 29.3778H56.5479V10.2213H61.205V20.4993L61.347 20.5683C61.8498 19.9547 62.3566 19.3424 62.8552 18.726C63.7104 17.6707 64.5547 16.6073 65.4194 15.5601C65.5506 15.4002 65.7651 15.2038 65.9427 15.2011C67.5984 15.174 69.2541 15.1848 71.097 15.1848C69.276 17.3307 67.5588 19.3518 65.8129 21.4096C67.5574 24.0363 69.291 26.6481 71.0724 29.3304C70.8552 29.3711 70.7145 29.4198 70.5724 29.4198C69.138 29.4252 67.7022 29.4469 66.2692 29.4036C65.9973 29.3954 65.6298 29.1855 65.4809 28.9579C64.5328 27.5002 63.6326 26.0114 62.6831 24.4807L62.6858 24.4793Z" fill="black"/>
<path d="M46.0219 29.4212C44.4904 29.4212 43.0806 29.432 41.6721 29.4036C41.5342 29.4009 41.3989 29.157 41.2705 29.0175C41.2473 28.9931 41.265 28.9294 41.265 28.8847C41.265 24.4847 41.265 20.0847 41.2691 15.6847C41.2691 15.533 41.3142 15.3813 41.3415 15.216H45.9809V16.4488C46.7978 16.0017 47.5492 15.4463 48.3935 15.1537C51.9686 13.9155 55.4139 16.3431 55.4495 20.0942C55.4782 23.0948 55.4549 26.0968 55.4536 29.0974C55.4536 29.1638 55.4344 29.2302 55.4139 29.3616H50.9536C50.9426 29.1381 50.9208 28.8996 50.9194 28.6612C50.9153 26.2688 50.918 23.8778 50.9139 21.4855C50.9139 20.6171 50.7036 19.8233 49.9768 19.2624C49.1995 18.6623 48.3402 18.6312 47.4686 19.0186C46.4932 19.4535 46.0506 20.2487 46.0451 21.289C46.0328 23.7261 46.0287 26.1632 46.0219 28.6003C46.0219 28.8427 46.0219 29.0852 46.0219 29.4198V29.4212Z" fill="black"/>
<path d="M79.235 18.8642H77.4058V15.1632C77.7801 15.1632 78.1421 15.1266 78.4946 15.1713C79.1216 15.2499 79.2651 14.9762 79.2459 14.4019C79.2063 13.207 79.25 12.0095 79.2268 10.8133C79.2186 10.3595 79.347 10.1685 79.8388 10.1793C81.1066 10.2078 82.3743 10.1888 83.7172 10.1888V15.1578C84.4877 15.1578 85.1872 15.1916 85.8825 15.1483C86.5137 15.1077 86.7924 15.2811 86.7295 15.9652C86.6667 16.6371 86.7159 17.3185 86.7159 17.9958C86.7159 18.8628 86.7159 18.8655 85.8142 18.871C85.1571 18.875 84.5014 18.871 83.7364 18.871C83.7364 19.4128 83.7364 19.8978 83.7364 20.3841C83.7364 21.5573 83.7323 22.7318 83.7323 23.9049C83.7323 25.6105 84.5533 26.1537 86.1407 25.498C86.2008 25.4737 86.2691 25.4696 86.4044 25.4412C86.6817 26.3203 86.9768 27.1887 87.2159 28.0733C87.2569 28.2277 87.1161 28.5203 86.97 28.6192C85.3402 29.7165 83.5861 30.0823 81.7418 29.2383C79.9754 28.4309 79.2651 26.9259 79.2391 25.07C79.2159 23.3102 79.2364 21.5492 79.2364 19.7881C79.2364 19.5198 79.2364 19.2503 79.2364 18.8615L79.235 18.8642Z" fill="#008600"/>
<path d="M29.3607 10.1996H34V29.3805H29.3607V10.1996Z" fill="black"/>
<path d="M40.0219 29.3887H35.373V15.2228H40.0219V29.3887Z" fill="black"/>
<path d="M71.847 15.1971H76.4468V29.3209H71.847V15.1971Z" fill="#008600"/>
<path d="M40.1025 13.8315H35.3893V10.1671H36.2145C37.3279 10.1671 38.4426 10.1522 39.5546 10.182C39.7404 10.1874 40.0738 10.3825 40.0792 10.499C40.1202 11.5963 40.1038 12.6949 40.1038 13.8302L40.1025 13.8315Z" fill="black"/>
<path d="M71.7991 13.8004C71.7814 13.6365 71.754 13.5064 71.754 13.375C71.7499 12.3441 71.7527 11.3132 71.7527 10.1942C73.254 10.1942 74.6966 10.1874 76.1406 10.2078C76.254 10.2091 76.4589 10.4096 76.4617 10.522C76.4863 11.5963 76.4767 12.6706 76.4767 13.799H71.8005L71.7991 13.8004Z" fill="#008600"/>
</g>
<defs>
<clipPath id="clip0_94_236">
<rect width="100" height="37.931" fill="white" transform="translate(0 1)"/>
</clipPath>
</defs>
</svg>
