<svg width="100" height="40" viewBox="0 0 100 40" fill="none" xmlns="http://www.w3.org/2000/svg">
<g clip-path="url(#clip0_126_22)">
<path fill-rule="evenodd" clip-rule="evenodd" d="M44.6154 14.4862C48.4308 14.4862 51.5216 17.3385 51.5216 20.8554C51.5216 24.3723 48.4324 27.2246 44.6139 27.2246C40.7985 27.2246 37.737 24.3723 37.737 20.8554C37.737 17.3385 40.8293 14.4862 44.6139 14.4862H44.6154ZM44.6154 25.5477C47.1877 25.5477 49.2493 23.4554 49.2493 20.8708C49.2493 18.2831 47.1877 16.16 44.6154 16.16C42.0431 16.16 40.0123 18.2492 40.0123 20.8692C40.0123 23.4908 42.0754 25.5477 44.6154 25.5477ZM65.5 22.7585C65.4988 22.6445 65.4525 22.5356 65.3712 22.4558C65.2898 22.3759 65.1802 22.3315 65.0662 22.3323H63.66C63.5738 22.3324 63.4895 22.358 63.4177 22.4059C63.346 22.4538 63.2901 22.5219 63.257 22.6015C62.6385 24.3 61.1554 25.5046 58.8462 25.5046C56.3616 25.5046 54.3693 23.4215 54.3693 20.8415C54.3693 18.26 56.3616 16.1462 58.8462 16.1462C60.8739 16.1462 62.3447 17.1738 63.057 18.6431C63.1277 18.7785 63.2754 18.8738 63.44 18.8738H64.8462C64.9599 18.8743 65.0692 18.8297 65.1502 18.7499C65.2312 18.67 65.2773 18.5614 65.2785 18.4477C65.2785 18.3262 65.22 18.2077 65.22 18.2077C63.5154 14.4477 58.8662 14.4738 58.8662 14.4738C55.1293 14.4738 52.1016 17.3246 52.1016 20.8415C52.1016 24.3569 55.1293 27.2077 58.8662 27.2077C58.8662 27.2077 63.5216 27.5154 65.44 23.0277C65.44 23.0277 65.5 22.8938 65.5 22.7554V22.7585ZM33.1385 25.1569C34.1477 24.6615 34.877 23.5262 34.877 22.1754V15.3954C34.8782 15.2817 34.9243 15.1731 35.0053 15.0932C35.0863 15.0134 35.1956 14.9688 35.3093 14.9692H36.717C36.8307 14.9688 36.94 15.0134 37.0209 15.0932C37.1019 15.1731 37.1481 15.2817 37.1493 15.3954L37.1431 22.02C37.1431 25 34.8477 27.1815 31.9877 27.1815H31.1416C30.0724 27.1815 28.897 26.8015 28.897 26.8015C27.0616 26.2262 25.7339 24.5738 25.7339 22.6277V22.5646C25.7351 22.4506 25.7814 22.3418 25.8628 22.2619C25.9441 22.182 26.0538 22.1376 26.1677 22.1385H27.3031C27.7293 22.1385 27.7154 22.5215 27.7154 22.5215V22.6108C27.7154 24.2185 29.3308 25.5215 31.32 25.5215C31.32 25.5215 32.3047 25.5677 33.1416 25.1569H33.1385ZM78.1616 25.9938L73.3231 19.0415L76.777 15.5662C76.777 15.5662 76.8723 15.4738 76.8723 15.2969C76.8723 15.2969 76.8754 14.9692 76.58 14.9692H74.857C74.7411 14.9694 74.63 15.0153 74.5477 15.0969L68.9231 20.6415V15.3954C68.9219 15.2817 68.8758 15.1731 68.7948 15.0932C68.7138 15.0134 68.6045 14.9688 68.4908 14.9692H67.7939C67.7939 14.9692 66.6524 14.9077 66.6524 16.4092V26.1877C66.6536 26.3011 66.6995 26.4095 66.7801 26.4893C66.8608 26.5691 66.9697 26.6139 67.0831 26.6138H67.7816C67.7816 26.6138 68.9231 26.6754 68.9231 25.1738V23.4662L71.78 20.5892L75.8324 26.3938C75.9216 26.5154 76.0785 26.5938 76.197 26.5938H77.96C78.2554 26.5938 78.2523 26.2662 78.2523 26.2662C78.2523 26.1292 78.157 25.9969 78.157 25.9969L78.16 25.9938H78.1616ZM86.3277 21.3938C86.8277 21.3938 87.2354 20.9938 87.2354 20.5015C87.2354 20.0092 86.8277 19.6092 86.3277 19.6092H81.2985V16.7538H87.02C87.52 16.7538 87.9262 16.3538 87.9262 15.8615C87.9262 15.3692 87.52 14.9692 87.0185 14.9692H79.8124C79.7079 14.9682 79.6043 14.9878 79.5074 15.0268C79.4105 15.0659 79.3222 15.1236 79.2477 15.1967C79.1731 15.2699 79.1137 15.357 79.0728 15.4531C79.0319 15.5492 79.0103 15.6525 79.0093 15.7569V25.8031C79.0093 26.2369 79.3693 26.5938 79.8124 26.5938H87.02C87.52 26.5938 87.9262 26.1938 87.9262 25.7015C87.9262 25.2092 87.52 24.8092 87.0185 24.8092H81.2985V21.3938H86.3293H86.3277ZM92.9385 25.7015C92.9385 26.2031 93.297 26.6092 93.7416 26.6092H94.4385C94.88 26.6092 95.2385 26.2031 95.2385 25.7015V22.4108L99.8554 15.8354C100.009 15.56 100 15.4123 100 15.4123C99.9984 15.2989 99.9521 15.1906 99.8712 15.1111C99.7902 15.0316 99.6812 14.9873 99.5677 14.9877H98.0262C98.0262 14.9877 97.6216 14.9615 97.3154 15.4354L93.9754 20.2154L91.0524 15.4354C90.7462 14.9615 90.3447 14.9877 90.3447 14.9877H88.96C88.8469 14.9877 88.7382 15.0322 88.6576 15.1117C88.577 15.1911 88.5309 15.2991 88.5293 15.4123C88.5293 15.4123 88.5185 15.56 88.6724 15.8354L92.9447 22.5215V25.7015H92.9385Z" fill="#231F20"/>
<path d="M96.8185 26.6615V25.6662H96.4569V25.4631H97.4262V25.6662H97.0662V26.6631H96.8185V26.6615ZM97.5816 26.6615V25.4662H97.9493L98.1693 26.2831L98.3877 25.4677H98.7554V26.6631H98.5246V25.7215L98.2846 26.6631H98.0493L97.8077 25.7215V26.6631H97.5769H97.5816V26.6615ZM21.7693 25.4262C21.7693 25.4262 21.3646 25.1631 21.1677 25.0646C21.1677 25.0646 17.9062 23.4185 15.9108 26.7877C15.1169 28.2708 15.6585 29.4338 15.6585 29.4338C14.5246 29.5077 13.2277 29.2431 11.9816 28.6185C10.4969 27.8677 9.39849 26.7585 8.87849 25.6138C8.87849 25.6138 8.27849 24.4185 8.39849 22.9677C8.76517 23.4893 9.25226 23.9148 9.81844 24.2081C10.3846 24.5014 11.0132 24.6537 11.6508 24.6523C15.3585 24.6523 17.8662 21.8262 17.8662 21.8262C18.8662 20.6523 19.5077 18.8446 19.5077 16.82C19.5077 14.9462 18.9539 13.2631 18.08 12.0938L18.0739 12.0846C17.4416 11.2154 16.5 10.42 15.3323 9.84C14.1569 9.25538 12.9385 8.98308 11.8446 9H11.6139C11.6139 9 11.02 9 10.9293 9.73231C10.9293 9.73231 10.8616 10.2231 10.8769 10.4369C10.8769 10.4369 10.8739 14.0862 14.9108 14.26C16.6493 14.26 17.4739 13.2354 17.4739 13.2354C18.0677 14.2 18.4277 15.4677 18.4277 16.8615C18.4277 18.5262 17.9093 20.0154 17.0939 21.0154C17.0939 21.0154 16.3785 21.9615 15.1523 22.5585C15.5283 21.8484 15.6712 21.038 15.5607 20.2422C15.4502 19.4463 15.0921 18.7055 14.5369 18.1246C12.6831 15.2646 9.23695 14.6077 9.23695 14.6077C7.72772 14.3492 5.84156 14.7092 4.07233 15.7169C2.43695 16.6462 1.23849 17.9477 0.641562 19.2646V19.2738C0.187716 20.2354 -0.0507453 21.42 0.00925465 22.6862C0.0707931 23.9631 0.424639 25.1185 0.970793 26.0292L1.0831 26.2231C1.0831 26.2231 1.33233 26.7092 2.05387 26.4338C2.05387 26.4338 2.50002 26.2523 2.69233 26.1292C2.69233 26.1292 5.88002 24.32 4.06925 20.8462C3.22464 19.3862 1.93079 19.2046 1.93079 19.2046C2.48464 18.2277 3.41695 17.2923 4.63233 16.6046C6.08618 15.7785 7.63695 15.4708 8.90156 15.6585C8.90156 15.6585 10.3908 15.8215 11.6062 16.8277L11.7216 16.8846L11.6477 16.8815C10.729 16.8767 9.83752 17.1936 9.12798 17.7773C8.41843 18.3609 7.93556 19.1745 7.7631 20.0769C6.62156 23.0092 7.79233 25.9077 7.79233 25.9077C8.3831 27.2908 9.70772 28.6508 11.5185 29.5615C13.1923 30.4031 14.9493 30.6877 16.3954 30.4677H16.4031C17.4677 30.3138 18.6093 29.8708 19.66 29.1354C20.7169 28.3938 21.5169 27.4785 21.9985 26.5369L22.1062 26.34C22.1062 26.34 22.4093 25.8538 21.7646 25.4277L21.7708 25.4246L21.7693 25.4262ZM11.6523 17.9446C13.2354 17.9446 14.5185 19.2062 14.5185 20.7662C14.5185 22.3246 13.2354 23.5862 11.6523 23.5862C10.0677 23.5862 8.78618 22.3246 8.78618 20.7662C8.78618 19.2077 10.0693 17.9446 11.6523 17.9446ZM14.8862 13.1831C11.8185 13.1831 11.9739 10.0954 11.9739 10.0954C13.0693 10.0492 14.2969 10.3615 15.4262 11.0538C16.0231 11.4185 16.5339 11.8554 16.9493 12.3308C16.9493 12.3308 16.3477 13.1831 14.8877 13.1831H14.8862ZM16.8785 27.2138C18.3354 24.6092 20.9693 26.2077 20.9693 26.2077C20.4862 27.1615 19.6308 28.0538 18.4877 28.6846C17.8846 29.0185 17.2569 29.2431 16.6416 29.3708C16.6416 29.3708 16.1831 28.4538 16.8785 27.2138ZM3.14925 21.3938C4.62618 23.9862 1.86002 25.3446 1.86002 25.3446C1.29079 24.4415 0.97387 23.2523 1.03233 21.9646C1.06464 21.2846 1.19695 20.6415 1.41233 20.0585C1.41233 20.0585 2.44618 20.16 3.15079 21.3938H3.14925Z" fill="#231F20"/>
</g>
<defs>
<clipPath id="clip0_126_22">
<rect width="100" height="21.5385" fill="white" transform="translate(0 9)"/>
</clipPath>
</defs>
</svg>
