<svg width="100" height="40" viewBox="0 0 100 40" fill="none" xmlns="http://www.w3.org/2000/svg">
<g clip-path="url(#clip0_105_898)">
<path d="M44.157 10.4996C42.6866 11.283 42.2331 12.0086 42.5669 13.0275C42.812 13.7762 43.416 14.0734 44.1357 14.0541C45.1971 14.0271 45.5541 13.3671 45.9998 11.121C46.0809 11.3544 46.2526 11.5995 46.2275 11.8195C46.1156 12.7593 46.5961 13.2783 47.4066 13.5446C48.1707 13.7955 48.9638 13.4173 49.3112 12.6435C49.6797 11.8234 49.6296 11.0071 49.0835 10.2758C48.5605 9.57528 48.0588 9.50002 46.654 9.81842C46.4629 8.45992 47.1538 7.60314 48.4872 7.73629C49.3575 7.82313 49.5234 7.50666 49.5253 6.74443C49.5253 6.17518 49.7106 5.60785 49.8129 5.03859L50.222 4.99807C50.3725 5.41102 50.5712 5.81433 50.6581 6.23886C50.7507 6.70198 50.7391 7.1844 50.7719 7.64173C53.3751 7.9775 53.6433 8.18976 53.5159 9.81842C53.404 9.8107 53.2786 9.83192 53.1782 9.78947C52.3851 9.46336 51.5091 9.45564 51.1193 10.2159C50.7739 10.8875 50.6889 11.7983 50.7912 12.5624C50.8935 13.3285 51.8487 13.7337 52.6167 13.5774C53.5198 13.3941 53.954 12.8249 53.9636 11.8832C53.9655 11.6285 54.0852 11.3757 54.1508 11.1229L54.4866 11.1711C54.4731 11.4162 54.4943 11.669 54.4422 11.9063C54.2222 12.9156 54.6506 13.6585 55.6521 13.9634C56.4355 14.2007 57.302 13.8437 57.5972 13.1606C57.9619 12.3174 57.5798 11.2811 56.7424 10.8624C56.5166 10.7505 56.2715 10.6752 56.0207 10.5787C56.835 9.84929 57.7554 9.85894 58.7357 10.708C59.2085 11.1171 59.525 11.1595 60.0595 10.8161C60.4917 10.5382 61.0648 10.4784 61.6746 10.4533C58.7184 13.6816 57.4969 17.4522 57.6049 21.7747H42.8815C42.4646 19.7254 42.1578 17.7031 41.6291 15.7425C41.0888 13.7357 39.8673 12.0704 38.4084 10.5826L38.5455 10.3143C39.0549 10.4687 39.6492 10.5092 40.0525 10.8064C40.6257 11.2329 40.973 11.1152 41.4593 10.7061C42.399 9.91104 43.0763 9.87438 44.1589 10.4938L44.157 10.4996Z" fill="black"/>
<path d="M57.7708 24.2061V25.8483H42.3546V24.2061H57.7708Z" fill="black"/>
<path d="M36.1757 30.2499C35.9538 30.6571 35.7415 31.0469 35.5119 31.4675C34.6821 30.6513 33.6922 30.3792 32.6077 30.6165C32.2951 30.6841 32.0462 31.0372 31.7683 31.261C32.0578 31.4637 32.3221 31.7743 32.6405 31.8477C33.2619 31.9905 33.9161 31.9847 34.5529 32.0657C35.6586 32.2066 36.2027 32.6987 36.249 33.5651C36.2934 34.4199 35.7859 35.0625 34.796 35.3365C33.3487 35.7379 31.9401 35.5739 30.5005 34.912C30.6375 34.5878 30.7919 34.2192 30.9791 33.7735C31.9709 34.665 33.0902 34.7653 34.2402 34.4817C34.5374 34.4084 34.7555 34.0108 35.0102 33.7638C34.7285 33.5882 34.4641 33.3123 34.1592 33.2544C33.4684 33.1251 32.7544 33.1232 32.0539 33.0306C31.2184 32.9206 30.5642 32.5462 30.5024 31.6103C30.4407 30.6667 31.0003 29.9701 31.8301 29.8524C32.876 29.7038 33.9701 29.8582 35.0411 29.9296C35.4058 29.9547 35.7608 30.1283 36.1738 30.248L36.1757 30.2499Z" fill="black"/>
<path d="M11.0706 35.6665C8.8862 35.5411 7.31544 34.2887 7.46981 32.5192C7.52963 31.8245 7.91557 31.016 8.41536 30.5297C9.65228 29.3236 12.0104 29.3236 13.4171 30.3618C15.1133 31.6142 14.9936 33.9742 13.1334 34.9795C12.5044 35.3192 11.7595 35.4446 11.0687 35.6665H11.0706ZM10.9973 34.5724C12.3075 34.5801 13.4229 33.6558 13.4074 32.5771C13.392 31.5351 12.323 30.6397 11.059 30.6088C9.76228 30.5799 8.62183 31.4888 8.61026 32.5636C8.59675 33.6654 9.66772 34.5647 10.9973 34.5724Z" fill="black"/>
<path d="M53.0373 29.7327V31.9229H56.5435V29.752H57.8731V35.4716H56.5512V33.1058H53.0566V35.4697H51.7135V29.7308H53.0353L53.0373 29.7327Z" fill="black"/>
<path d="M100 34.5299V35.5372H94.4155V29.6671H99.8958V30.6532H95.7489V31.9094H98.518V33.0634H95.8454C95.4556 34.3698 95.5675 34.528 96.9183 34.5299C97.9333 34.5299 98.9464 34.5299 100 34.5299Z" fill="black"/>
<path d="M44.7802 35.4948H43.3156V29.7424C44.676 29.7424 46.1696 29.6903 47.6593 29.7598C48.6878 29.808 49.2011 30.4216 49.2146 31.3653C49.23 32.3301 48.7534 32.9167 47.721 33.0286C46.7388 33.1348 45.747 33.1309 44.7802 33.1734V35.4928V35.4948ZM44.7165 32.0792C45.6485 32.0792 46.4841 32.1294 47.3061 32.0484C47.5435 32.0252 47.914 31.618 47.9121 31.3903C47.9101 31.1626 47.5338 30.767 47.2926 30.7439C46.4455 30.6648 45.5868 30.713 44.7146 30.713V32.0792H44.7165Z" fill="black"/>
<path d="M79.337 33.0537V35.4813H77.9032V29.7405C79.2636 29.7405 80.7321 29.6941 82.1948 29.7559C83.2118 29.7983 83.7636 30.4158 83.8022 31.3305C83.8408 32.2934 83.3082 32.9418 82.2373 33.0344C81.2859 33.1155 80.323 33.0518 79.3389 33.0518L79.337 33.0537ZM79.2733 32.0947C80.1802 32.0947 80.9868 32.1526 81.7761 32.0619C82.0462 32.031 82.2739 31.6277 82.5209 31.3961C82.299 31.1684 82.0945 30.7651 81.8533 30.7439C81.0061 30.6628 80.1474 30.713 79.2733 30.713V32.0947Z" fill="black"/>
<path d="M87.4899 33.0479C87.5381 34.007 87.5728 34.7287 87.6114 35.4851H86.1738V29.7405C87.5458 29.7405 89.0105 29.6806 90.4674 29.7598C91.5769 29.8196 92.0748 30.4313 92.0594 31.4289C92.0439 32.388 91.5789 32.9399 90.506 33.0325C89.5546 33.1155 88.5898 33.0499 87.4899 33.0499V33.0479ZM87.5671 32.0908C88.4779 32.0908 89.2845 32.1487 90.0737 32.058C90.34 32.0271 90.5658 31.62 90.8089 31.3845C90.5851 31.1588 90.3747 30.7632 90.1316 30.74C89.2845 30.659 88.4277 30.7092 87.5671 30.7092V32.0889V32.0908Z" fill="black"/>
<path d="M17.2669 29.7231H18.4748C18.4748 30.9079 18.4555 32.0734 18.4806 33.2351C18.5038 34.3099 18.9495 34.6264 20.3215 34.6168C21.6221 34.6071 22.0583 34.2849 22.0776 33.2486C22.1007 32.0869 22.0833 30.9253 22.0833 29.7308H23.2392C23.2392 30.9156 23.2604 32.112 23.2334 33.3084C23.2026 34.6901 22.6661 35.3365 21.3018 35.4774C20.4817 35.5604 19.6288 35.5353 18.8164 35.4021C17.7377 35.2265 17.2939 34.6303 17.2726 33.5246C17.2476 32.2857 17.2669 31.0449 17.2669 29.7231Z" fill="black"/>
<path d="M65.4896 29.7173H66.9234V34.4373H71.0876V35.5276H65.4896V29.7173Z" fill="black"/>
<path d="M5.57485 34.5184V35.5546H0V29.7366H1.29289C1.29289 31.0912 1.27552 32.4787 1.31025 33.8642C1.31604 34.0842 1.54375 34.4836 1.67882 34.4894C2.94855 34.5377 4.22215 34.5184 5.57485 34.5184Z" fill="black"/>
<path d="M27.6253 29.7578V35.487H26.2456V29.7578H27.6253Z" fill="black"/>
<path d="M74.7095 35.5006H73.3279V29.7231H74.7095V35.5006Z" fill="black"/>
<path d="M62.5044 35.489H61.1246V29.7269H62.5044V35.489Z" fill="black"/>
</g>
<defs>
<clipPath id="clip0_105_898">
<rect width="100" height="30.6665" fill="white" transform="translate(0 5)"/>
</clipPath>
</defs>
</svg>
