<svg width="100" height="40" viewBox="0 0 100 40" fill="none" xmlns="http://www.w3.org/2000/svg">
<g clip-path="url(#clip0_98_487)">
<path d="M15.377 15.4144C16.9138 16.6636 18.2979 18.0566 19.3404 19.7552C20.0504 20.9145 20.5896 22.1368 20.6974 23.5208C20.7334 23.9432 20.7064 24.3566 20.5806 24.761C20.5806 24.4465 20.6166 24.1319 20.5357 23.8174C20.2571 22.7659 19.4932 22.2087 18.5315 21.8672C16.7341 21.2381 14.8917 21.3639 13.0494 21.6245C11.5575 21.8312 10.1016 22.2267 8.69061 22.7659C7.96265 23.0445 7.21671 23.2871 6.54268 23.7006H6.43483C5.48219 22.8647 4.54753 22.02 3.75666 21.0224C2.68719 19.6833 1.79746 18.2543 1.42899 16.5558C1.29418 15.9446 1.24925 15.3335 1.37507 14.7134C1.40203 15.8817 2.02214 16.6546 3.04668 17.1309C3.90944 17.5264 4.83512 17.6612 5.76978 17.6971C7.62113 17.769 9.42755 17.4725 11.207 16.9692C12.618 16.5737 13.993 16.0705 15.2962 15.3785C15.3141 15.3785 15.3411 15.3874 15.3591 15.3874L15.377 15.4144Z" fill="#ED1F25"/>
<path d="M74.7282 25.6148C74.8989 23.9702 74.8809 22.3525 74.9708 20.7348C74.818 20.7618 74.818 20.8696 74.7731 20.9415C74.0182 22.3165 73.2453 23.6826 72.5443 25.0936C72.3196 25.5339 72.0949 25.6597 71.6366 25.6328C71.0165 25.5879 70.3963 25.6148 69.7672 25.6328C69.5336 25.6328 69.4078 25.6418 69.4797 25.3182C69.5516 24.9947 69.5156 24.6442 69.5156 24.3027C69.5516 21.9481 69.5785 19.5844 69.6055 17.2298C69.6055 17.122 69.6324 17.0141 69.6055 16.9153C69.4797 16.5288 69.6774 16.5198 69.9829 16.5288C71.0704 16.5468 72.1668 16.5288 73.2363 16.5288C73.0745 18.0926 73.1015 19.6473 73.0925 21.2201C73.2812 20.8876 73.461 20.564 73.6497 20.2315C74.2159 19.207 74.7821 18.1735 75.3393 17.1489C75.3662 17.095 75.4202 17.0501 75.4202 16.9961C75.4471 16.4749 75.8066 16.5108 76.1751 16.5198C77.0109 16.5378 77.8377 16.5198 78.6466 16.5198C78.4758 18.0926 78.5117 19.6563 78.4668 21.2291C78.6196 20.9595 78.7634 20.6899 78.9162 20.4113C79.5093 19.3328 80.0935 18.2543 80.6866 17.1759C80.7226 17.113 80.7765 17.059 80.7855 16.9871C80.8394 16.4929 81.163 16.4749 81.5494 16.5108C81.8909 16.5378 82.2414 16.5108 82.5829 16.5108C81.0192 19.3867 79.4374 22.2356 77.9276 25.1115C77.6849 25.5699 77.4513 25.6238 77.0379 25.6148C76.265 25.5968 75.4921 25.6148 74.7371 25.6148H74.7282Z" fill="#0077BF"/>
<path d="M6.44383 23.7095H6.55168C6.6775 23.9252 6.89319 24.0421 7.07293 24.1679C9.28377 25.7676 11.6564 26.9988 14.3795 27.4841C15.5208 27.6819 16.6532 27.7358 17.7766 27.4392C18.199 27.3314 18.6124 27.1696 19.0348 27.0258C18.4417 27.601 17.7137 27.9874 16.9858 28.3559C14.8288 29.4343 12.5371 30.1353 10.2005 30.6925C8.25923 31.1509 6.28206 31.4115 4.27793 31.3756C3.28934 31.3576 2.30974 31.2587 1.37508 30.9172C1.00661 30.7824 0.656107 30.6117 0.386492 30.3331C-0.0898266 29.8567 -0.125775 29.2007 0.269659 28.4458C0.736991 27.565 1.45596 26.909 2.21088 26.2888C3.50503 25.2463 4.95196 24.4465 6.43484 23.7095H6.44383Z" fill="#FCB218"/>
<path d="M64.9681 16.5108L64.8423 17.104C65.4624 16.5468 66.1275 16.2412 66.9183 16.2412C68.0777 16.2412 68.8056 16.8883 68.9494 18.0476C69.0752 19.0991 68.8685 20.1057 68.5899 21.1033C68.2754 22.2626 67.835 23.377 67.0621 24.3207C66.2353 25.3272 65.1838 25.8485 63.8627 25.7766C63.4043 25.7496 63.0269 25.5789 62.6944 25.1655C62.5955 25.516 62.4966 25.8125 62.4158 26.1181C62.272 26.7112 62.0383 27.2774 61.9754 27.8886C61.9574 28.0413 61.8675 28.0144 61.7777 28.0144C60.6902 28.0144 59.5938 28.0144 58.5423 28.0144C59.3332 25.1744 60.124 22.3435 60.8969 19.5125C61.1576 18.5689 61.4901 17.6342 61.6339 16.6546C61.6519 16.5198 61.7148 16.5108 61.8136 16.5108C62.8561 16.5108 63.8986 16.5108 64.9681 16.5108ZM65.5702 18.9014C65.5523 18.6048 65.6152 18.2993 65.2916 18.2004C64.9861 18.1016 64.7884 18.3083 64.5996 18.515C64.4379 18.6947 64.366 18.9194 64.2941 19.1441C63.9885 20.0787 63.6829 21.0134 63.4583 21.966C63.3504 22.4424 63.2426 22.9277 63.1527 23.404C63.1168 23.6197 63.1707 23.8443 63.3864 23.9522C63.62 24.069 63.8178 23.9522 63.9885 23.7904C64.1503 23.6376 64.2671 23.4399 64.348 23.2332C64.5098 22.8288 64.6715 22.4334 64.7974 22.02C65.1209 20.9774 65.4265 19.9349 65.5523 18.9014H65.5702Z" fill="#0077BF"/>
<path d="M15.377 15.4144C15.377 15.4144 15.3321 15.4144 15.3141 15.4054C15.2872 15.3784 15.2692 15.3425 15.2422 15.3245C13.301 13.8416 11.198 12.6913 8.8344 12.0352C7.45937 11.6578 6.06636 11.5409 4.65538 11.7297C4.10716 11.8016 3.61287 12.0532 3.09161 12.215C3.54996 11.7117 4.1521 11.4151 4.74525 11.1185C7.48633 9.72553 10.4161 8.88074 13.4448 8.36847C14.6581 8.16177 15.8893 8.04494 17.1206 8.08987C18.2529 8.12582 19.3943 8.18873 20.4458 8.70998C21.4344 9.20428 21.6681 9.97717 21.1378 10.9478C20.6435 11.8555 19.8886 12.5205 19.0977 13.1496C17.9474 14.0573 16.6712 14.7493 15.377 15.4144Z" fill="#6996CE"/>
<path d="M19.0348 27.0348C18.6124 27.1696 18.208 27.3314 17.7766 27.4482C16.6532 27.7448 15.5118 27.6908 14.3794 27.4931C11.6563 27.0168 9.28373 25.7766 7.07289 24.1769C6.88416 24.0421 6.67746 23.9252 6.55164 23.7185C7.21668 23.3051 7.97161 23.0625 8.69956 22.7839C10.1105 22.2356 11.5665 21.8492 13.0583 21.6425C14.8917 21.3819 16.7431 21.256 18.5405 21.8851C19.5021 22.2177 20.266 22.7839 20.5446 23.8354C20.6255 24.1499 20.5896 24.4645 20.5896 24.779C20.5087 25.453 20.1402 25.9833 19.7088 26.4686C19.592 26.5944 19.4572 26.7023 19.3314 26.8191L19.2505 26.891C19.1426 26.891 19.0438 26.891 19.0438 27.0438L19.0348 27.0348Z" fill="#F47921"/>
<path d="M3.0826 12.206C3.60386 12.0442 4.09815 11.7926 4.64637 11.7207C6.05735 11.5319 7.45036 11.6488 8.82539 12.0262C11.189 12.6823 13.292 13.8327 15.2332 15.3155C15.2602 15.3335 15.2782 15.3695 15.3051 15.3964C14.002 16.0884 12.627 16.5917 11.216 16.9871C9.44551 17.4814 7.63909 17.787 5.77875 17.7151C4.84409 17.6792 3.91841 17.5444 3.05564 17.1489C2.02212 16.6726 1.41099 15.8997 1.38403 14.7314C1.50087 13.6709 2.11199 12.916 2.92982 12.2959C3.00172 12.2959 3.06463 12.2959 3.09159 12.206H3.0826Z" fill="#914B9D"/>
<path d="M29.9992 22.7209C30.3137 23.0175 30.5653 23.3231 30.8799 23.5478C31.5 23.9881 32.174 24.1409 32.911 23.9342C33.3783 23.7994 33.7108 23.4938 33.8726 23.0355C34.0344 22.5861 33.9265 22.2536 33.5131 22.0289C33.0728 21.7863 32.6144 21.5706 32.174 21.3369C30.808 20.618 30.4126 19.7103 30.808 18.2274C31.3472 16.2143 33.1896 14.7224 35.2746 14.5606C36.398 14.4797 37.4675 14.5966 38.51 15.0459C38.7796 15.1628 38.8245 15.2706 38.6807 15.5312C38.3662 16.1064 38.0966 16.6996 37.791 17.3107C37.3416 16.8793 36.9103 16.5108 36.3621 16.3041C35.8408 16.1154 35.3285 16.1064 34.8612 16.4479C34.6185 16.6277 34.4658 16.8703 34.3939 17.1759C34.322 17.4814 34.4118 17.7151 34.6815 17.8499C35.1038 18.0746 35.5352 18.2903 35.9666 18.497C37.6382 19.2789 38.0516 20.2225 37.4944 21.993C36.7395 24.4015 34.7713 25.8305 32.2459 25.8395C31.1405 25.8395 30.107 25.6328 29.1364 25.0936C28.9387 24.9767 28.8668 24.8958 28.9926 24.6712C29.3341 24.0421 29.6576 23.404 29.9992 22.7389V22.7209Z" fill="#0078BF"/>
<path d="M49.6451 23.1344C49.5732 23.7455 49.5013 24.3027 49.4384 24.8509C49.4204 24.9767 49.3485 25.0217 49.2406 25.0666C47.6589 25.7766 46.0232 25.9923 44.3337 25.6148C42.9676 25.3093 42.1048 24.2757 42.1588 22.8827C42.2666 20.2225 43.3271 18.0656 45.7446 16.7625C46.877 16.1513 48.1352 16.0794 49.3844 16.3401C50.6966 16.6097 51.4155 17.7151 51.2897 19.1261C51.2358 19.7552 51.101 20.3753 50.9572 20.9954C50.9033 21.2471 50.7954 21.3279 50.5348 21.319C49.0789 21.301 47.6229 21.319 46.167 21.31C45.8884 21.31 45.7806 21.3819 45.7356 21.6605C45.6548 22.1997 45.493 22.7389 45.6008 23.2961C45.7267 23.8893 46.1491 24.2488 46.7602 24.2847C47.605 24.3386 48.3239 24.0421 48.998 23.5837C49.1957 23.4489 49.4024 23.3051 49.654 23.1344H49.6451ZM47.0568 19.7642C47.2455 19.7642 47.4342 19.7642 47.614 19.7642C47.7218 19.7642 47.7757 19.7282 47.8027 19.6114C47.8836 19.189 48.0094 18.7756 48.0184 18.3352C48.0184 18.0926 48.0274 17.8409 47.7578 17.7421C47.4971 17.6432 47.2814 17.76 47.1017 17.9488C46.8141 18.2454 46.6793 18.6138 46.5355 18.9913C46.2479 19.7642 46.2479 19.7642 47.0568 19.7642Z" fill="#0077BF"/>
<path d="M58.5153 23.1254C58.4434 23.7365 58.3715 24.2847 58.3086 24.8419C58.2907 24.9677 58.2278 25.0127 58.1199 25.0666C56.5292 25.7766 54.8845 25.9923 53.177 25.6148C51.8199 25.3092 50.9751 24.2578 51.029 22.8647C51.1279 20.2764 52.1704 18.1645 54.4711 16.8344C55.6395 16.1603 56.9516 16.0794 58.2637 16.3401C59.6837 16.6277 60.187 17.769 60.16 19.0003C60.142 19.6743 59.9892 20.3214 59.8275 20.9685C59.7646 21.2201 59.6567 21.319 59.3781 21.319C57.9222 21.301 56.4663 21.319 55.0104 21.31C54.7587 21.31 54.6419 21.3549 54.5969 21.6335C54.5071 22.1997 54.3363 22.7569 54.4711 23.3321C54.5969 23.8893 55.0193 24.2308 55.5855 24.2757C56.4483 24.3476 57.1942 24.0241 57.8862 23.5568C58.075 23.4309 58.2637 23.2871 58.5064 23.1164L58.5153 23.1254ZM55.1631 19.7642C55.6305 19.7642 56.0619 19.7642 56.4932 19.7642C56.5831 19.7642 56.655 19.7462 56.673 19.6384C56.7629 19.1441 56.9336 18.6677 56.8977 18.1555C56.8707 17.769 56.5741 17.6162 56.2236 17.778C56.0708 17.8499 55.954 17.9667 55.8551 18.1016C55.5136 18.5958 55.3339 19.162 55.1721 19.7642H55.1631Z" fill="#0077BF"/>
<path d="M88.2358 23.1254C88.1729 23.7275 88.11 24.2578 88.0561 24.797C88.0471 24.9228 87.9932 25.0037 87.8674 25.0576C86.3216 25.7586 84.7129 25.9743 83.0592 25.6508C81.5224 25.3452 80.6237 24.2038 80.7495 22.5951C80.9293 20.3843 81.81 18.488 83.6614 17.1669C84.9825 16.2232 86.4743 16.0345 88.0291 16.358C89.1525 16.5917 89.8086 17.4275 89.8805 18.5869C89.9344 19.4676 89.7277 20.3124 89.512 21.1482C89.4581 21.3459 89.3233 21.319 89.1885 21.319C87.7056 21.319 86.2317 21.319 84.7488 21.319C84.4882 21.319 84.3803 21.3998 84.3354 21.6425C84.2545 22.1008 84.1557 22.5592 84.1736 23.0355C84.2006 23.7904 84.6589 24.2488 85.4049 24.2937C86.3306 24.3476 87.0855 23.9522 87.8044 23.4399C87.9303 23.35 88.0471 23.2602 88.2358 23.1254ZM84.8926 19.7642C85.342 19.7642 85.7733 19.7642 86.2047 19.7642C86.2946 19.7642 86.3665 19.7462 86.3845 19.6473C86.4923 19.171 86.6451 18.6947 86.6271 18.2004C86.6092 17.7511 86.2407 17.5893 85.8542 17.823C85.6835 17.9308 85.5577 18.0926 85.4588 18.2633C85.1982 18.7217 85.0274 19.216 84.8926 19.7642Z" fill="#0078BF"/>
<path d="M36.9731 25.6148C37.4225 24.3836 37.7011 23.1523 38.0426 21.9391C38.7346 19.4946 39.3997 17.0411 40.0737 14.5966C40.1097 14.4707 40.1816 14.3449 40.1636 14.2281C40.1276 13.8776 40.3074 13.8416 40.595 13.8506C41.6105 13.8686 42.635 13.8506 43.6236 13.8506C42.5901 17.5623 41.5656 21.265 40.541 24.9767C40.4871 25.1744 40.5231 25.498 40.4152 25.5609C40.2175 25.6687 39.9389 25.6148 39.6962 25.6148C38.7885 25.6148 37.8898 25.6148 36.9731 25.6148Z" fill="#0078BF"/>
<path d="M100 13.8506C99.4248 15.6211 98.9934 17.3916 98.4992 19.1441C97.9599 21.0583 97.4387 22.9816 96.9084 24.9048C96.8455 25.1295 96.8815 25.48 96.7557 25.5609C96.5489 25.6777 96.2344 25.6148 95.9648 25.6148C95.084 25.6148 94.2033 25.6148 93.3675 25.6148C94.1584 22.7749 94.9492 19.9349 95.7401 17.095C95.9828 16.2143 96.2164 15.3335 96.477 14.4528C96.54 14.2551 96.4141 13.9765 96.6208 13.8776C96.8006 13.7967 97.0342 13.8506 97.2499 13.8506C98.1666 13.8506 99.0833 13.8506 100.009 13.8506H100Z" fill="#0078BF"/>
<path d="M88.9009 25.6148C89.5749 23.4669 90.1141 21.301 90.7253 19.153C91.1477 17.6522 91.5611 16.1513 91.9745 14.6505C92.0104 14.5157 92.0733 14.3719 92.0644 14.2461C92.0374 13.8776 92.2261 13.8506 92.5227 13.8506C93.5293 13.8686 94.5448 13.8506 95.5604 13.8506C94.9402 15.8368 94.437 17.8409 93.8708 19.8271C93.3855 21.5526 92.9091 23.2782 92.4328 25.0037C92.3789 25.1924 92.4238 25.489 92.307 25.5609C92.1452 25.6597 91.8756 25.6058 91.6599 25.6058C90.7343 25.6058 89.8086 25.6058 88.9009 25.6058V25.6148Z" fill="#0078BF"/>
<path d="M74.9888 8C75.1326 8.44037 75.2674 8.76391 75.3393 9.10542C75.3932 9.37503 75.528 9.43794 75.7796 9.41997C76.1032 9.402 76.4357 9.41997 76.8671 9.41997C76.5076 9.69857 76.211 9.94122 75.9055 10.1569C75.7527 10.2648 75.7257 10.3636 75.7886 10.5344C75.9145 10.8939 76.0223 11.2713 76.1661 11.7297C75.8066 11.4601 75.51 11.2533 75.2314 11.0197C75.0697 10.8849 74.9438 10.8759 74.7731 11.0197C74.5035 11.2533 74.2069 11.4511 73.8474 11.7207C73.9732 11.2803 74.0631 10.9298 74.1889 10.5973C74.2698 10.3816 74.2249 10.2558 74.0451 10.13C73.7575 9.93224 73.4879 9.70756 73.1194 9.42896C73.5778 9.42896 73.9373 9.41997 74.2878 9.42896C74.4945 9.43794 74.5754 9.35706 74.6293 9.17732C74.7281 8.81783 74.845 8.45834 74.9888 8.01797V8Z" fill="#007AC0"/>
<path d="M71.8253 14.8752C71.6186 14.7224 71.4029 14.5786 71.2142 14.4168C71.0614 14.282 70.9536 14.273 70.7918 14.4168C70.5941 14.5966 70.3694 14.7404 70.0818 14.9561C70.1897 14.5876 70.2705 14.318 70.3604 14.0394C70.4143 13.8866 70.3874 13.7787 70.2436 13.6799C70.0279 13.5271 69.8212 13.3563 69.5156 13.1227C69.8751 13.1227 70.1357 13.1227 70.3964 13.1227C70.5761 13.1227 70.675 13.0777 70.7199 12.889C70.7828 12.6104 70.8907 12.3408 71.0075 11.9903C71.1153 12.3588 71.2052 12.6284 71.2861 12.907C71.331 13.0598 71.4029 13.1407 71.5827 13.1317C71.8523 13.1137 72.1219 13.1317 72.4814 13.1317C72.2297 13.3294 72.05 13.4911 71.8433 13.617C71.6366 13.7518 71.5647 13.8956 71.6636 14.1382C71.7534 14.3629 71.8074 14.6056 71.8792 14.8392L71.8253 14.8842V14.8752Z" fill="#007ABF"/>
<path d="M79.9946 13.1047C79.9946 13.1047 79.9497 13.1047 79.9407 13.1047C79.6891 12.9339 79.4374 12.6284 79.1948 12.6284C78.9431 12.6284 78.7005 12.9429 78.3949 13.1586C78.4758 12.88 78.5297 12.6553 78.6196 12.4486C78.7095 12.233 78.6555 12.1071 78.4668 11.9903C78.2871 11.8825 78.1343 11.7387 77.8737 11.5409C78.1792 11.5409 78.3769 11.523 78.5747 11.5409C78.8083 11.5589 78.9431 11.496 78.9971 11.2444C79.042 11.0287 79.1319 10.831 79.2127 10.5703C79.2936 10.8399 79.3835 11.0466 79.4284 11.2623C79.4734 11.496 79.5992 11.5589 79.8239 11.5409C80.0306 11.523 80.2373 11.5409 80.453 11.5409C80.408 11.7027 80.2822 11.7387 80.1923 11.8016C79.8748 12.0472 79.7759 12.3678 79.8958 12.7632C79.9317 12.871 79.9587 12.9789 79.9946 13.0957V13.1047Z" fill="#007AC0"/>
<path d="M19.0348 27.0348C19.0348 26.891 19.1336 26.882 19.2415 26.882C19.1966 26.9719 19.1247 27.0078 19.0348 27.0348Z" fill="#FCB218"/>
<path d="M3.09158 12.215C3.06462 12.2959 3.00171 12.3048 2.92981 12.3048C2.96576 12.2509 3.01069 12.197 3.09158 12.215Z" fill="#6996CE"/>
<path d="M19.2415 26.882L19.3224 26.8101L19.2415 26.882Z" fill="#FCB218"/>
</g>
<defs>
<clipPath id="clip0_98_487">
<rect width="100" height="23.3756" fill="white" transform="translate(0 8)"/>
</clipPath>
</defs>
</svg>
