<svg width="100" height="40" viewBox="0 0 100 40" fill="none" xmlns="http://www.w3.org/2000/svg">
<g clip-path="url(#clip0_97_415)">
<path d="M61.6803 40C61.6584 39.9741 61.6364 39.9492 61.6167 39.9232C61.5333 39.8119 61.5377 39.7362 61.6375 39.64C61.7362 39.5459 61.8569 39.48 61.9775 39.4205C62.5686 39.1243 63.0577 38.7005 63.5041 38.2249C64.1873 37.4962 64.5931 36.6249 64.8201 35.6649C64.9835 34.9676 65.0603 34.2595 65.1041 33.5459C65.1599 32.4907 65.1841 31.434 65.1765 30.3773C65.1787 26.8151 65.1776 23.253 65.1732 19.6919C65.1732 19.0259 65.1568 18.3589 65.1425 17.6919C65.1383 17.4227 65.1138 17.1542 65.069 16.8886C64.9901 16.4411 64.7346 16.1557 64.2926 16.0227C63.9482 15.9189 63.5973 15.9081 63.2453 15.8865C63.163 15.8822 63.0819 15.8843 63.0007 15.8811C62.9601 15.8811 62.9185 15.88 62.8779 15.8735C62.732 15.8508 62.6596 15.7859 62.6563 15.6789C62.6531 15.5708 62.7189 15.5005 62.8669 15.4768C62.9678 15.4595 63.0698 15.4476 63.1718 15.4486C63.9811 15.4627 64.7883 15.4746 65.5976 15.4973C66.3522 15.5189 67.1056 15.5222 67.8601 15.4951C68.54 15.4713 69.22 15.4616 69.8977 15.4476C69.9997 15.4465 70.1017 15.4584 70.2015 15.4757C70.3507 15.5005 70.4143 15.5676 70.4121 15.6778C70.4088 15.7849 70.3386 15.8508 70.1905 15.8713C70.1039 15.8822 70.0151 15.88 69.9273 15.8832C69.6543 15.8962 69.3856 15.9265 69.1202 15.9892C68.9554 16.0219 68.8033 16.0999 68.6815 16.214C68.5596 16.3282 68.473 16.474 68.4315 16.6346C68.3751 16.8285 68.3402 17.0279 68.3273 17.2292C68.2878 17.72 68.2834 18.2108 68.2823 18.7027C68.2768 21.827 68.2494 24.9513 68.2955 28.0746C68.3119 29.1784 68.3679 30.2822 68.324 31.3859C68.2823 32.4173 68.1452 33.4346 67.8195 34.4216C67.4576 35.5276 66.8182 36.4616 66.0034 37.2832C65.0008 38.2921 63.8226 39.1153 62.5247 39.7135L61.926 39.9978H61.6814V40H61.6803Z" fill="#937142"/>
<path d="M73.0607 10.0605C71.6964 9.32216 70.3321 8.5827 68.9668 7.84864C68.8571 7.78918 68.8132 7.7254 68.8132 7.6C68.822 7.16973 68.8209 6.73945 68.8132 6.3081C68.8132 6.19891 68.8494 6.1427 68.9459 6.08972C70.2949 5.36324 71.6394 4.63243 72.9861 3.90162C73.008 3.88972 73.0322 3.87459 73.0607 3.87891V10.0605ZM69.3396 6.49729L69.3528 6.53837H71.7743C71.9114 6.53837 71.9135 6.53405 71.9135 6.38486C71.9157 6.00108 71.9135 5.61729 71.9135 5.23459C71.9135 5.20432 71.9245 5.16756 71.8719 5.12648L69.3385 6.49945V6.49729H69.3396ZM69.332 7.42702L71.9146 8.8227V7.56432C71.9146 7.39351 71.9125 7.39135 71.7348 7.39135H69.457C69.4208 7.39135 69.378 7.37513 69.3331 7.42594L69.332 7.42702Z" fill="#947143"/>
<path d="M44.8727 33.5676C44.0392 33.6011 43.1421 33.6259 42.245 33.6292C42.1233 33.6292 42.0005 33.6205 41.8787 33.6184C41.824 33.616 41.771 33.5992 41.7252 33.5697C41.6892 33.5493 41.6606 33.5184 41.6433 33.4811C41.626 33.4439 41.6209 33.4024 41.6287 33.3622C41.6397 33.2822 41.6868 33.2238 41.7713 33.2108C41.859 33.1989 41.9467 33.1892 42.0345 33.1859C42.347 33.174 42.6585 33.1643 42.9666 33.0973C43.3961 33.0063 43.7822 32.776 44.0633 32.4432C44.3046 32.1654 44.4866 31.8508 44.6413 31.5189C45.0734 30.5838 45.455 29.6259 45.8542 28.6757C47.6615 24.387 49.4667 20.0973 51.2718 15.8076C51.3738 15.5643 51.4747 15.3211 51.6129 15.0973C51.8519 14.7103 52.1338 14.7081 52.3762 15.0897C52.5461 15.36 52.6679 15.6519 52.7907 15.9438C53.9334 18.6486 55.074 21.3546 56.2145 24.0605C57.1051 26.1708 57.9912 28.2822 58.9124 30.3795C59.1449 30.9113 59.4004 31.4313 59.7239 31.9157C59.9071 32.1924 60.1122 32.4508 60.3633 32.6724C60.6616 32.9362 61.0125 33.08 61.4073 33.133C61.664 33.1665 61.9206 33.1784 62.1794 33.187C62.2671 33.1892 62.3549 33.1978 62.4426 33.2108C62.5259 33.2238 62.5742 33.2757 62.5808 33.3611C62.5874 33.4422 62.5588 33.5059 62.481 33.5405C62.3613 33.5891 62.2331 33.614 62.1037 33.614C61.4172 33.64 60.7307 33.6303 60.0442 33.6249C58.8268 33.614 57.6095 33.627 56.3944 33.574C56.2583 33.5689 56.1229 33.5522 55.9897 33.5243C55.9173 33.5092 55.8472 33.4767 55.8417 33.3838C55.8373 33.2865 55.8921 33.2335 55.9799 33.2086C56.0314 33.1935 56.084 33.1827 56.1378 33.174C56.3769 33.1308 56.5085 32.9319 56.4492 32.6973C56.4306 32.6259 56.3999 32.5567 56.3725 32.4886L54.4248 27.5881C54.325 27.3373 54.2932 27.3146 54.019 27.3146H48.574C48.313 27.3146 48.302 27.3232 48.2033 27.5686L46.7941 31.1168C46.6472 31.4791 46.5441 31.8572 46.487 32.2432C46.4848 32.2573 46.4804 32.2692 46.4793 32.2832C46.4135 32.7967 46.6625 33.1157 47.1845 33.1676C47.3863 33.187 47.5924 33.1805 47.7964 33.187C47.8907 33.1913 47.985 33.1978 48.0816 33.2065C48.1803 33.2162 48.245 33.2681 48.2548 33.3708C48.2636 33.4692 48.211 33.5546 48.1123 33.5935C48.0214 33.6226 47.9256 33.6336 47.8304 33.6259C47.3556 33.6184 46.8785 33.6151 46.4047 33.5935C45.9145 33.5719 45.4254 33.5676 44.8727 33.5654V33.5676ZM51.3179 26.1038H53.4981C53.8084 26.1038 53.8227 26.0822 53.713 25.7978L51.7905 20.7849L51.4648 19.9157C51.4429 19.8616 51.4363 19.7849 51.3606 19.7816C51.2784 19.7795 51.2554 19.853 51.2312 19.9157C51.1983 19.9968 51.1698 20.0789 51.1369 20.1611L48.9326 25.7578C48.9037 25.8256 48.881 25.8958 48.8646 25.9676C48.8503 26.0465 48.8843 26.0995 48.9743 26.1005L49.1168 26.1016H51.3168L51.3179 26.1038Z" fill="#937142"/>
<path d="M37.6477 24.2843C37.6521 25.9308 37.6312 27.9308 37.6663 29.9297C37.6784 30.6432 37.6992 31.3567 37.8177 32.0638C37.8319 32.1503 37.8495 32.2357 37.8736 32.3189C38.0107 32.7924 38.3112 33.0367 38.8058 33.0908C39.2445 33.1405 39.6842 33.1805 40.1262 33.1816C40.2293 33.1816 40.3313 33.1924 40.4256 33.2357C40.5616 33.2984 40.5769 33.4324 40.4596 33.5254C40.3838 33.5837 40.2903 33.6153 40.1942 33.6151C40.0516 33.6194 39.909 33.6205 39.7665 33.6205C38.6511 33.627 37.5369 33.5805 36.4216 33.5622C35.7219 33.5513 35.0233 33.574 34.3225 33.5935C33.7523 33.6086 33.182 33.6119 32.6095 33.6194C32.5007 33.6264 32.3915 33.6106 32.2893 33.573C32.2016 33.5351 32.1391 33.4811 32.1412 33.3784C32.1456 33.2681 32.2224 33.2303 32.3134 33.2097C32.4132 33.1881 32.5152 33.1794 32.6172 33.1794C32.9023 33.1805 33.1864 33.147 33.4671 33.093C33.5881 33.0719 33.702 33.0221 33.7991 32.9479C33.8962 32.8736 33.9734 32.7773 34.0242 32.667C34.1394 32.4411 34.1888 32.1967 34.2227 31.9513C34.3061 31.3567 34.3357 30.7578 34.3478 30.1589C34.3971 27.8703 34.3785 25.5805 34.3807 23.2919C34.3829 21.1708 34.3807 19.0486 34.3807 16.9286C34.3807 16.6649 34.4048 16.6865 34.1405 16.694C32.7543 16.7308 31.3692 16.7665 29.983 16.8097C29.5772 16.8227 29.1692 16.8616 28.7733 16.9665C28.4055 17.0543 28.0873 17.281 27.8872 17.5978C27.7337 17.8367 27.5911 18.08 27.51 18.3546C27.501 18.3874 27.4896 18.4196 27.476 18.4508C27.4135 18.5827 27.3093 18.6422 27.1853 18.6216C27.0702 18.6032 27.0165 18.5297 27.0022 18.3665C26.9781 18.0746 27.0461 17.7903 27.1009 17.507C27.2303 16.8259 27.3729 16.1481 27.5385 15.4746C27.5602 15.3765 27.5899 15.2804 27.6273 15.187C27.7074 15.0022 27.8083 14.9578 28.0002 15.0281C28.2689 15.1243 28.531 15.2411 28.8183 15.2692C29.1144 15.2994 29.4127 15.3276 29.711 15.3449C30.3076 15.3816 30.9064 15.4043 31.5041 15.4043C34.9904 15.4043 38.4779 15.4022 41.9642 15.4043C42.7483 15.4043 43.5237 15.3394 44.2936 15.1838C44.537 15.1351 44.6171 15.1989 44.627 15.4497C44.6423 15.8465 44.6259 16.2443 44.6116 16.6411C44.5919 17.2194 44.5721 17.7978 44.5546 18.3762C44.5513 18.4919 44.5502 18.6054 44.5074 18.7146C44.4745 18.8032 44.4175 18.8638 44.3144 18.8638C44.208 18.8649 44.1302 18.8216 44.0907 18.7211C44.0443 18.5943 44.022 18.4602 44.0249 18.3254C44.026 17.7719 43.7277 17.4227 43.2528 17.1903C42.8646 17 42.4479 16.9081 42.0234 16.8465C41.5856 16.7904 41.1446 16.7611 40.703 16.7589C39.806 16.7427 38.9089 16.7178 38.0118 16.6951C37.9438 16.693 37.8758 16.6908 37.8089 16.6908C37.6477 16.6908 37.6477 16.6908 37.6444 16.8594V24.2822L37.6477 24.2843Z" fill="#947143"/>
<path d="M66.9104 13.9135C66.8632 13.8324 66.8775 13.7719 66.8775 13.7135C66.8775 12.3081 66.8797 10.9016 66.8742 9.49513C66.8742 9.35675 66.9159 9.27892 67.0409 9.21405C67.4445 9.0054 67.8415 8.78702 68.2385 8.56756C68.324 8.52108 68.3942 8.51567 68.483 8.5654L72.555 10.7697C72.5726 10.7795 72.5879 10.7935 72.6219 10.8195L66.9115 13.9124L66.9104 13.9135ZM68.7682 11.6357C68.3043 10.8162 67.575 9.66378 67.4576 9.56324V12.347L68.7693 11.6368L68.7682 11.6357ZM69.5655 11.2022C70.0085 10.9643 70.434 10.733 70.8837 10.4886L68.3142 9.09405L68.2856 9.12324L69.5655 11.2022ZM66.8918 -2.29292e-06C68.8066 1.03784 70.7027 2.0627 72.6 3.09189C72.5748 3.16432 72.5166 3.17297 72.4717 3.19675C71.1502 3.91351 69.8287 4.62702 68.5061 5.34594C68.4096 5.39892 68.335 5.41513 68.2275 5.35351C67.8272 5.12648 67.4215 4.91027 67.0146 4.69405C66.9203 4.6454 66.872 4.59243 66.8742 4.47892C66.8786 3.01189 66.8764 1.54486 66.8775 0.0767545C66.8775 0.0637815 66.8819 0.0508085 66.8918 -0.00108337V-2.29292e-06ZM67.4576 1.61081V4.38486C67.4873 4.36 67.5059 4.35135 67.5147 4.33513C67.915 3.68648 68.3109 3.03784 68.7144 2.39135C68.7781 2.29081 68.7221 2.26486 68.653 2.22702L67.5816 1.64757C67.5487 1.62919 67.5169 1.59675 67.4576 1.60973V1.61081ZM70.8519 3.45946C70.8267 3.38702 70.7751 3.37838 70.7356 3.35675L69.7179 2.80324C69.5655 2.72 69.5644 2.72108 69.4723 2.87135C69.0928 3.4854 68.7144 4.10054 68.3372 4.71675C68.3196 4.74594 68.2747 4.77405 68.312 4.83351L70.8519 3.45946V3.45838V3.45946Z" fill="#957244"/>
<path d="M59.7743 10.0605V3.89298C59.8445 3.86595 59.8862 3.91243 59.93 3.93622C61.2526 4.65189 62.573 5.36865 63.8967 6.08108C64.0075 6.14162 64.0459 6.20865 64.0426 6.33189C64.036 6.76108 64.0371 7.19243 64.0426 7.62379C64.0426 7.72108 64.0173 7.7827 63.9241 7.83135C62.5708 8.56 61.2208 9.29081 59.8686 10.0227C59.8456 10.0346 59.8204 10.0432 59.7732 10.0627L59.7743 10.0605ZM60.9434 5.10379V6.35135C60.9434 6.53622 60.9455 6.53838 61.132 6.53838C61.8931 6.53838 62.6531 6.53838 63.4131 6.53622C63.4438 6.53622 63.4953 6.56865 63.5129 6.49622L60.9423 5.10379H60.9434ZM60.9434 8.8227L63.5184 7.42811L63.5118 7.39243H62.3405C61.9194 7.39243 61.4983 7.3946 61.0771 7.39243C60.9894 7.39243 60.9401 7.40433 60.9412 7.51135C60.9466 7.93514 60.9434 8.35892 60.9434 8.8227Z" fill="#947244"/>
<path d="M60.2218 10.814L61.8668 9.9254C62.6817 9.48432 63.4987 9.0454 64.3113 8.59891C64.4374 8.52972 64.5329 8.51783 64.6634 8.59243C65.045 8.81081 65.4343 9.01621 65.8236 9.22054C65.9224 9.27243 65.9728 9.32864 65.9728 9.45189C65.9673 10.8919 65.9684 12.3308 65.9684 13.7708C65.9684 13.8097 65.9783 13.8508 65.9355 13.9092L60.2218 10.814ZM61.9677 10.4897L63.287 11.2022L64.5723 9.12108L64.5471 9.09405L61.9677 10.4886V10.4897ZM65.3861 9.57405L65.3554 9.55891L64.0799 11.6324L65.3861 12.3405V9.57405ZM65.9421 0.0129677C65.9881 0.0929677 65.9684 0.161076 65.9684 0.22486C65.9695 1.62486 65.9673 3.02486 65.9739 4.42486C65.9739 4.57297 65.93 4.65189 65.7973 4.71999C65.3992 4.92324 65.0077 5.13945 64.6162 5.35567C64.5318 5.40216 64.4649 5.40972 64.3749 5.36108C63.0304 4.62918 61.6848 3.90162 60.3391 3.17405C60.3106 3.15891 60.2854 3.13837 60.2328 3.10378L65.941 0.0118866L65.9421 0.0129677ZM64.5603 4.84216C64.5603 4.80648 64.5636 4.79891 64.5603 4.79351C64.1578 4.13405 63.7509 3.47459 63.3506 2.81513C63.2958 2.72432 63.2432 2.74162 63.1686 2.7827C62.8012 2.98594 62.4327 3.18486 62.0653 3.38594C62.0423 3.39783 62.0127 3.40648 62.0127 3.46162L64.5614 4.84216H64.5603ZM65.3883 4.36756V1.61837C65.3334 1.59999 65.3027 1.63351 65.2676 1.65081C64.9167 1.84108 64.5658 2.03135 64.2148 2.22378C64.0832 2.29405 64.0832 2.29621 64.1644 2.42918C64.546 3.05081 64.9277 3.67135 65.3104 4.29081C65.3269 4.31783 65.3367 4.35135 65.3883 4.36756Z" fill="#947243"/>
</g>
<defs>
<clipPath id="clip0_97_415">
<rect width="46.0606" height="40" fill="white" transform="translate(27)"/>
</clipPath>
</defs>
</svg>
