<?xml version="1.0" encoding="UTF-8"?>
<svg width="28px" height="30px" viewBox="0 0 28 30" version="1.1" xmlns="http://www.w3.org/2000/svg" xmlns:xlink="http://www.w3.org/1999/xlink">
    <!-- Generator: Sketch 55.2 (78181) - https://sketchapp.com -->
    <title>3</title>
    <desc>Created with Sketch.</desc>
    <g id="3" stroke="none" stroke-width="1" fill="none" fill-rule="evenodd">
        <g id="Group-11">
            <path d="M0.000396353742,23.7075 L0.000396353742,6.2935 C0.000396353742,5.2375 0.8204,4.3635 1.8744,4.2975 L21.8744,3.0365 C22.9764,2.9675 23.9264,3.8055 23.9954,4.9065 C23.9984,4.9485 24.0003964,4.9905 24.0003964,5.0325 L24.0003964,24.9675 C24.0003964,26.0715 23.1054,26.9675 22.0014,26.9685 C21.9584,26.9685 21.9164,26.9665 21.8744,26.9645 L1.8744,25.7035 C0.8194,25.6375 -0.0016,24.7625 0.000396353742,23.7055 L0.000396353742,23.7075 Z" id="Fill-1" fill="#9B9B9B"></path>
            <path d="M8.7055,27.2944 L8.7055,2.7054 C8.7055,1.6014 9.6015,0.7054 10.7055,0.7054 L21.2945,0.7054 C22.3985,0.7054 23.2945,1.6014 23.2945,2.7054 L23.2945,27.2944 C23.2945,28.3984 22.3985,29.2944 21.2945,29.2944 L10.7055,29.2944 C9.6015,29.2944 8.7055,28.3984 8.7055,27.2944 Z" id="Stroke-3" stroke="#9B9B9B" stroke-width="1.412"></path>
            <path d="M20.7055,21.2944 L20.7055,8.7054 C20.7055,7.6014 21.6015,6.7054 22.7055,6.7054 L25.2945,6.7054 C26.3985,6.7054 27.2945,7.6014 27.2945,8.7054 L27.2945,21.2944 C27.2945,22.3984 26.3985,23.2944 25.2945,23.2944 L22.7055,23.2944 C21.6015,23.2944 20.7055,22.3984 20.7055,21.2944 Z" id="Stroke-5" stroke="#9B9B9B" stroke-width="1.412"></path>
            <path d="M19.5522,11.1586 L3.8392,18.8416" id="Stroke-7" stroke="#FCFCFC"></path>
            <path d="M19.5522,18.8413 L3.8392,11.1583" id="Stroke-9" stroke="#FCFCFC"></path>
        </g>
    </g>
</svg>