<?xml version="1.0" encoding="UTF-8"?>
<svg width="30px" height="29px" viewBox="0 0 30 29" version="1.1" xmlns="http://www.w3.org/2000/svg" xmlns:xlink="http://www.w3.org/1999/xlink">
    <!-- Generator: Sketch 56.2 (81672) - https://sketch.com -->
    <title>Group 2</title>
    <desc>Created with Sketch.</desc>
    <g id="Page-1" stroke="none" stroke-width="1" fill="none" fill-rule="evenodd">
        <g id="Group-2" transform="translate(0.000000, 0.999999)">
            <g id="availableSeat" transform="translate(0.000000, 8.000001)" stroke="#9B9B9B" stroke-width="1.41">
                <rect id="Rectangle" x="0.706" y="0.706" width="28.588" height="14.588" rx="2"></rect>
            </g>
            <rect id="Rectangle" stroke="#9B9B9B" stroke-width="1.41" x="0.706" y="8.70600099" width="28.588" height="14.588" rx="2"></rect>
            <rect id="Rectangle" stroke="#9B9B9B" stroke-width="1.412" x="6.706" y="20.706001" width="16.588" height="6.588" rx="2"></rect>
            <path d="M6.293,-7.10542736e-15 L23.707,-7.10542736e-15 C24.7626357,-7.10542736e-15 25.6364949,0.820462254 25.703,1.87400099 L26.963,21.874001 C26.9977954,22.4252122 26.8030993,22.9662746 26.4250631,23.3689323 C26.047027,23.77159 25.5193084,24 24.967,24 L5.033,24 C4.48051782,24.0002698 3.95253484,23.7719869 3.57427905,23.369297 C3.19602326,22.966607 3.00119355,22.4253857 3.036,21.874001 L4.296,1.87400099 C4.36255315,0.819692187 5.23759322,-0.00104109363 6.294,-7.10542736e-15 L6.293,-7.10542736e-15 Z" id="Path" stroke="#979797" stroke-width="0.5" fill="#ECEDEF" fill-rule="nonzero"></path>
        </g>
    </g>
</svg>