<svg xmlns="http://www.w3.org/2000/svg" xmlns:xlink="http://www.w3.org/1999/xlink" width="59" height="25" viewBox="0 0 59 25">
  <defs>
    <clipPath id="clip-path">
      <rect id="Rectangle_6" data-name="Rectangle 6" width="65.683" height="22.203" fill="#fff"/>
    </clipPath>
    <clipPath id="clip-foryou_emt_new">
      <rect width="59" height="25"/>
    </clipPath>
  </defs>
  <g id="foryou_emt_new" clip-path="url(#clip-foryou_emt_new)">
    <g id="emt" transform="translate(1 1.121)" clip-path="url(#clip-path)">
      <path id="Path_28" data-name="Path 28" d="M52.435,12.908a1.206,1.206,0,0,1,1.106-1.3c.788,0,1.2.777,1.2,1.85s-.426,1.884-1.237,1.884a1.142,1.142,0,0,1-1.073-1.292V12.909Zm-.253-2.463h-1.39c.022.547.043,1.193.043,1.97v6.46h1.6v-3h.022a1.651,1.651,0,0,0,1.424.7c1.226,0,2.474-.974,2.474-3.186,0-1.85-.974-3.077-2.288-3.077a2.028,2.028,0,0,0-1.785.953h-.021Zm-4.391,6.01h1.6V10.434h-1.6Zm1.653-7.664a.859.859,0,1,0-.865.854A.807.807,0,0,0,49.445,8.792Zm-4.434,2.694-.066-1.051H43.576c.022.537.044,1.138.044,1.883v4.139h1.6V13.347c0-1.03.548-1.511,1.27-1.511a2.272,2.272,0,0,1,.416.032V10.348a1.693,1.693,0,0,0-.362-.033A1.668,1.668,0,0,0,45.055,11.5h-.043v-.011Zm-7.937-3.34V9.525h2.047v6.931h1.6V9.525h2.058V8.147h-5.7Zm-2.607,5.442q-.134.562-.252,1.129h-.032q-.133-.567-.285-1.129l-.887-3.143H31.259l2.026,5.529a.865.865,0,0,1,.065.274,2.16,2.16,0,0,1-.8,1.117,2.835,2.835,0,0,1-.842.439l.4,1.347a3.14,3.14,0,0,0,1.554-.844,9.508,9.508,0,0,0,1.862-3.689l1.357-4.182H35.222l-.755,3.153ZM28.139,8.146l-.942,3.12q-.412,1.454-.722,2.934h-.033q-.3-1.478-.689-2.934l-.9-3.12H22.872l-.559,8.31h1.457l.164-3.2c.056-1.029.109-2.255.131-3.306H24.1c.2,1.018.461,2.146.723,3.077l.92,3.306h1.216l1.018-3.362c.285-.931.58-2.035.821-3.021h.032c-.01.843.044,2.179.088,3.274l.154,3.23h1.522l-.472-8.31ZM17.7,12.822c.044-.592.373-1.39,1.14-1.39.788,0,1.04.766,1.029,1.39H17.7ZM21.3,13.927a3.7,3.7,0,0,0,.043-.635c0-1.949-.953-2.979-2.409-2.979-1.762,0-2.759,1.489-2.759,3.219A2.744,2.744,0,0,0,19.1,16.577a5.1,5.1,0,0,0,1.949-.35l-.231-1.106a4.343,4.343,0,0,1-1.466.252A1.457,1.457,0,0,1,17.7,13.938H21.3Zm-9.954,2.244a3.5,3.5,0,0,0,1.7.405c1.5,0,2.365-.755,2.365-1.906,0-.832-.471-1.412-1.489-1.838-.689-.3-.919-.46-.919-.8s.263-.57.744-.57a2.513,2.513,0,0,1,1.139.317l.307-1.128a3.269,3.269,0,0,0-1.489-.34,1.979,1.979,0,0,0-2.2,1.906c0,.657.416,1.291,1.533,1.751.657.285.865.472.865.844s-.274.6-.833.6a3.107,3.107,0,0,1-1.4-.4ZM8.726,14.4a1,1,0,0,1-1.008,1.04.731.731,0,0,1-.755-.821c0-.876.9-1.084,1.763-1.084ZM6.12,11.869A2.922,2.922,0,0,1,7.6,11.452c.876,0,1.083.45,1.083,1.051-1.915,0-3.284.723-3.284,2.266A1.747,1.747,0,0,0,7.2,16.577a1.938,1.938,0,0,0,1.6-.745h.032l.1.624h1.434a8.987,8.987,0,0,1-.088-1.423v-2.2c0-1.314-.5-2.507-2.376-2.507a4.357,4.357,0,0,0-2.091.5l.305,1.04ZM1.6,12.81H4.313v-1.3H1.6V9.493H4.478V8.157H0v8.31H4.642V15.131H1.6V12.81Z" transform="translate(0 2.181)" fill="#2b2b2b"/>
      <path id="Path_29" data-name="Path 29" d="M8.107,12.244c4.4-8.89,16.423-2.091,23.091-8.025C24.552,11.16,11.4,5.3,8.107,12.244Z" transform="translate(2.228 1.159)" fill="#2b2b2b" fill-rule="evenodd"/>
      <path id="Path_30" data-name="Path 30" d="M20.4.021,36,1.313c.756.043.635.2.263.547L28.656,9.316c-.427.472-.526.34-1.03-.218L24.647,5.725c-.393-.416-.459-.5.219-.745l7.4-2.387L23.937,4.083c-.625.131-.548.219-.986-.405L20.181.5c-.351-.383-.317-.57.219-.481Z" transform="translate(5.483 0)" fill="#2b2b2b" fill-rule="evenodd"/>
      <path id="Path_31" data-name="Path 31" d="M24.321,4.418l.81.865c.394.427.285.438-.165.712L22.395,7.2c-.307.186-.5.033-.285-.317l1.631-2.617C23.894,3.936,24.069,4.112,24.321,4.418Z" transform="translate(6.05 1.123)" fill="#2b2b2b" fill-rule="evenodd"/>
    </g>
  </g>
</svg>
