<svg width="100" height="40" viewBox="0 0 100 40" fill="none" xmlns="http://www.w3.org/2000/svg">
<g clip-path="url(#clip0_94_247)">
<path d="M89.5436 39H89.3824C88.6377 38.5576 87.9076 38.0881 87.146 37.6775C80.564 34.1301 73.5379 32.8266 66.0952 33.7051C62.2929 34.1539 58.6251 35.1365 55.1242 36.6576C53.5365 37.3478 52.0278 38.2136 50.4828 39H50.3217C50.2338 38.9404 50.15 38.8753 50.0589 38.8221C48.2279 37.7378 46.2993 36.8514 44.3086 36.0952C40.1211 34.5058 35.7916 33.5764 31.2994 33.4525C26.38 33.3167 21.6388 34.169 17.0958 36.0444C15.1156 36.8617 13.2104 37.822 11.4229 38.9992H11.2617C11.2448 38.8705 11.2391 38.7387 11.2093 38.6132C8.35311 26.6079 5.4953 14.6019 2.63426 2.59741C2.43923 1.78085 2.21196 0.971445 2 0.158863V0C2.14748 0.00317725 2.29497 0.00873745 2.44245 0.00873745C28.3441 0.00873745 54.2457 0.00873745 80.1465 0.00873745H80.6663C79.1834 3.50213 80.6647 6.46889 82.5272 7.93678C84.7 9.64932 87.8681 9.93289 90.248 8.39748C93.4129 6.3553 94.0624 3.44335 92.8616 0.0301839H98.6522C98.6264 0.324874 98.632 0.60209 98.5732 0.865802C98.3645 1.80627 98.1348 2.74197 97.9115 3.67926C95.2923 14.6686 92.6722 25.6579 90.0562 36.648C89.87 37.4288 89.7129 38.216 89.5428 39H89.5436ZM44.6794 18.3137C44.6963 18.1755 44.7164 18.0722 44.7213 17.9682C44.8688 14.9808 43.3004 12.3992 40.5087 11.1808C37.8081 10.0012 35.022 10.0226 32.2593 10.9242C29.0098 11.9846 27.323 14.6281 27.7026 17.9793C28.0064 20.6593 29.5828 22.41 32.0658 23.387C34.4748 24.3346 36.9699 24.3052 39.4691 23.8048C41.6088 23.3759 43.2086 22.2138 44.1765 20.2598C44.2305 20.1509 44.2684 20.035 44.3328 19.8753C42.9208 19.8753 41.5806 19.8817 40.2395 19.8698C39.9881 19.8674 39.8269 19.9452 39.6601 20.1335C38.3682 21.5886 35.7642 21.6657 34.378 20.2923C33.8405 19.7601 33.5415 19.1223 33.5705 18.3145H44.6786L44.6794 18.3137ZM86.5762 14.4374C86.4005 14.0196 86.2893 13.6527 86.1023 13.3286C85.4874 12.265 84.5388 11.5668 83.4137 11.0981C81.5101 10.3054 79.5187 10.1696 77.4918 10.415C76.1741 10.5747 74.9185 10.9401 73.8128 11.6931C72.5426 12.5581 71.8374 13.7297 71.9446 15.2826C72.0518 16.8426 73.0584 17.7481 74.4398 18.2279C75.5568 18.6155 76.7334 18.8435 77.8923 19.104C78.8038 19.309 79.7355 19.4297 80.647 19.6362C81.0467 19.7268 81.328 20.0103 81.3232 20.4647C81.3183 20.9182 80.9887 21.1105 80.6196 21.2241C79.7291 21.4989 78.8176 21.5172 77.923 21.2725C77.3129 21.1057 76.7931 20.7475 76.536 20.1541C76.4312 19.9119 76.3047 19.8833 76.0895 19.8848C75.2038 19.8912 74.3181 19.8872 73.4324 19.8872C73.0197 19.8872 72.6063 19.8872 72.0961 19.8872C72.2468 20.3241 72.3363 20.7101 72.5088 21.0557C73.1422 22.3274 74.2206 23.1145 75.5519 23.5419C78.1607 24.3783 80.7832 24.2734 83.3855 23.4926C84.5388 23.1463 85.5365 22.5371 86.245 21.5458C87.5264 19.7538 86.9985 17.5154 85.0441 16.4757C84.6815 16.2826 84.2962 16.0928 83.8981 16.007C82.4345 15.6925 80.9581 15.4351 79.4921 15.1285C78.8409 14.9919 78.1777 14.8521 77.5692 14.5987C76.9567 14.3437 76.968 13.6678 77.5369 13.3206C77.6828 13.2317 77.8496 13.1618 78.0157 13.1221C78.7918 12.9378 79.5792 12.8544 80.3665 13.0228C81.1926 13.1999 81.9478 13.4906 82.1613 14.4374H86.5762ZM61.6417 10.6327H61.1767C60.1701 10.6327 59.1635 10.6446 58.1577 10.6255C57.8474 10.6192 57.6862 10.7081 57.5484 10.9949C56.3588 13.4755 55.15 15.9482 53.9467 18.4225C53.8951 18.529 53.8379 18.6338 53.7605 18.7831C52.3832 16.1317 51.0365 13.551 49.7043 10.9623C49.5762 10.7129 49.4303 10.6263 49.1506 10.6279C47.2454 10.639 45.3394 10.6335 43.4342 10.6351C43.3198 10.6351 43.2061 10.6517 43.045 10.6645C43.1207 10.8209 43.1707 10.9393 43.2327 11.0513C45.5046 15.1817 47.7806 19.3098 50.0452 23.4434C50.1726 23.6761 50.316 23.7547 50.5771 23.7532C51.9327 23.7412 53.2883 23.7373 54.643 23.7555C54.9598 23.7595 55.1129 23.6547 55.2507 23.379C57.301 19.2859 59.3641 15.1992 61.4241 11.1101C61.4886 10.9822 61.5442 10.8495 61.6425 10.6335L61.6417 10.6327ZM14.869 23.692H27.5784C27.5865 23.5379 27.5986 23.4092 27.5986 23.2797C27.6002 22.3814 27.5793 21.483 27.6091 20.5854C27.622 20.201 27.4785 20.1303 27.1263 20.1327C25.1131 20.147 23.1007 20.1398 21.0875 20.1398H20.5967C20.5967 19.9174 20.5967 19.7609 20.5967 19.6037C20.5967 16.7505 20.5919 13.8973 20.6032 11.0449C20.6048 10.7328 20.5121 10.6382 20.1946 10.6406C18.544 10.6541 16.8935 10.6462 15.243 10.6478C15.1253 10.6478 15.0076 10.6637 14.869 10.674V23.692ZM67.7578 10.647H62.2606V23.6856H67.7578V10.647ZM69.5615 14.0157C69.9943 14.1173 70.3384 14.0808 70.5818 13.713C70.6398 13.6257 70.7156 13.5454 70.7994 13.4811C71.7391 12.7551 72.1058 11.8202 71.9245 10.6533C71.8673 10.2864 71.9156 9.90271 71.9156 9.53573H68.7733C68.7733 10.3507 68.7669 11.1379 68.7854 11.925C68.787 11.9941 68.9514 12.1117 69.0457 12.1173C69.4414 12.1387 69.8395 12.1268 70.2852 12.1268C70.033 12.7869 69.8001 13.3961 69.5631 14.0165L69.5615 14.0157Z" fill="#B80029"/>
<path d="M90.0763 6.66587C89.3236 5.5165 88.6168 4.43703 87.8874 3.32181C88.6627 3.13515 89.3824 2.92386 89.7056 2.17482C90.0086 1.47265 89.9328 0.757765 89.6371 0.0103161C90.2214 0.0103161 90.7774 0.000784375 91.3319 0.0198479C91.4173 0.0230252 91.527 0.138995 91.5777 0.228752C92.5892 2.00643 92.3353 4.69597 91.0055 6.36482C89.6451 8.0718 87.42 8.79145 85.2754 8.21716C83.2026 7.66273 81.6399 5.88109 81.353 3.70229C81.1966 2.51558 81.3223 1.35906 81.876 0.268468C81.9711 0.0818044 82.0751 -0.00398151 82.3007 0.002373C82.9003 0.0198479 83.5016 0.00872751 84.1431 0.00872751V6.6341H85.3737V3.39647C85.7936 3.39647 86.1651 3.379 86.5334 3.40839C86.6334 3.41633 86.7446 3.55057 86.8107 3.65145C87.3829 4.52837 87.9559 5.40529 88.5063 6.29572C88.6788 6.57452 88.8666 6.7175 89.2107 6.67222C89.4606 6.63886 89.7185 6.66587 90.0763 6.66587Z" fill="#B80029"/>
<path d="M85.4075 0.0786363C86.2086 0.0786363 86.9847 0.0278002 87.7504 0.0945225C88.3548 0.146947 88.6433 0.549664 88.6546 1.1168C88.6675 1.78641 88.4136 2.20501 87.781 2.29C87.0073 2.39406 86.2183 2.38294 85.4075 2.42345V0.0786363Z" fill="#B80029"/>
<path d="M33.5543 15.636C33.5688 14.6916 33.9218 13.9307 34.7253 13.4549C35.7174 12.8679 36.7619 12.9433 37.7484 13.4819C38.5744 13.933 38.8831 14.6972 38.8904 15.636H33.5535H33.5543Z" fill="#B80029"/>
</g>
<defs>
<clipPath id="clip0_94_247">
<rect width="96.6522" height="39" fill="white" transform="translate(2)"/>
</clipPath>
</defs>
</svg>
