<svg width="100" height="40" viewBox="0 0 100 40" fill="none" xmlns="http://www.w3.org/2000/svg">
<g clip-path="url(#clip0_103_763)">
<path d="M0 26.0551V6.45302H3.09568V25.5385C3.09568 26.4733 3.36156 27.2049 3.90008 27.7418C4.43184 28.2786 5.13124 28.5445 5.99831 28.5445V31.2998C1.99831 31.2998 0 29.5504 0 26.0534" fill="#231F20"/>
<path d="M9.07195 31.3539V15.8569H6.70447V13.2456H12.1676V31.3539H9.07195Z" fill="#231F20"/>
<path d="M24.1456 9.20999C23.5123 8.99492 22.9246 8.88484 22.3793 8.88484C21.4361 8.88484 20.652 9.24386 20.039 9.95682C19.4208 10.6715 19.1143 11.5741 19.1143 12.6681C19.1143 13.0034 19.1058 12.9831 19.1058 13.2642H22.7417V16.1939H19.2108V31.3099H16.1152V16.1939H13.6003V13.2642H16.1355C16.1355 11.0542 16.6825 9.62659 17.7799 8.36325C18.8755 7.09991 20.3201 6.46825 22.1185 6.46825C23.0178 6.46825 23.9831 6.63082 25.011 6.95089L24.1456 9.2083" fill="#231F20"/>
<path d="M38.4724 22.5529H25.9542C25.9542 24.597 26.5097 26.1634 27.6206 27.2608C28.6045 28.2193 29.8713 28.6918 31.4157 28.6918C33.1769 28.6918 34.6469 28.1787 35.8238 27.1456L37.1211 29.3726C36.6452 29.8518 35.9153 30.2684 34.9348 30.619C33.7036 31.0762 32.3285 31.3031 30.8162 31.3031C28.635 31.3031 26.7807 30.5614 25.2582 29.0745C23.5597 27.4352 22.7163 25.232 22.7163 22.4666C22.7163 19.7011 23.5834 17.2845 25.326 15.5504C26.884 13.9975 28.7231 13.2218 30.8552 13.2218C33.3277 13.2218 35.2701 13.9196 36.6774 15.3184C38.0355 16.663 38.7163 18.4462 38.7163 20.6664C38.7163 21.3522 38.6367 21.9805 38.4741 22.5529H38.4724ZM30.9161 15.9297C29.5427 15.9297 28.3895 16.3751 27.4597 17.2659C26.5724 18.1126 26.0711 19.166 25.9525 20.4242H35.5715C35.5715 19.1778 35.182 18.1346 34.4064 17.2981C33.5512 16.3887 32.3895 15.9314 30.9161 15.9314" fill="#231F20"/>
<path d="M39.6038 29.9331L40.6859 27.0017C42.4014 28.1296 43.785 28.6935 44.8298 28.6935C46.7282 28.6935 47.6749 27.8891 47.6749 26.287C47.6749 25.1355 46.7587 24.1499 44.9196 23.3285C43.5022 22.6765 42.5487 22.1821 42.0593 21.8467C41.5648 21.5097 41.1397 21.127 40.7756 20.6969C40.4132 20.2684 40.1457 19.8129 39.9662 19.3319C39.79 18.8493 39.702 18.3294 39.702 17.7739C39.702 16.3429 40.2168 15.2269 41.2566 14.4242C42.2913 13.6232 43.6461 13.2202 45.3193 13.2202C46.5826 13.2202 48.1745 13.6198 50.0999 14.4208L49.221 17.2794C48.0034 16.3141 46.779 15.8298 45.5479 15.8298C44.8146 15.8298 44.1982 16.0042 43.6935 16.3497C43.1922 16.6969 42.9416 17.1355 42.9416 17.6689C42.9416 18.7849 43.575 19.63 44.8366 20.2024L47.0466 21.21C48.3929 21.8349 49.3785 22.5377 49.9983 23.3268C50.6131 24.116 50.9213 25.1118 50.9213 26.3057C50.9213 27.8671 50.3743 29.0931 49.2837 29.9754C48.1965 30.8594 46.6825 31.2997 44.7519 31.2997C42.9298 31.2997 41.216 30.8459 39.6088 29.9314" fill="#231F20"/>
<path d="M53.1567 15.9755H51.1262V13.2744H53.1567V9.63168L56.249 8.44455V13.276H61.0348V15.9771H56.249V24.641C56.249 26.1025 56.4946 27.1473 56.989 27.7655C57.4852 28.3853 58.2778 28.6935 59.3752 28.6935C60.166 28.6935 60.9891 28.4987 61.8358 28.1126L62.293 30.8171C61.0111 31.1406 59.6021 31.3015 58.0746 31.3015C56.6944 31.3015 55.5276 30.79 54.5792 29.7621C53.6275 28.7392 53.1567 27.4437 53.1567 25.8789V15.9738" fill="#231F20"/>
<path d="M70.486 33.9704C70.083 35.0728 69.2447 35.9941 67.9644 36.7324C66.6824 37.4708 65.2548 37.8383 63.6799 37.8383V35.0813C64.9636 35.0813 66.0677 34.7815 66.9873 34.1804C67.9068 33.5792 68.3658 32.8442 68.3658 31.9788C68.3658 31.0237 68.1998 30.0838 67.8611 29.1609C67.5258 28.2345 67.0923 27.0881 66.5588 25.7231L61.7443 13.3184H64.8857L70.1084 27.0711L74.8637 13.2439H78.0068L70.4877 33.9721" fill="#231F20"/>
<path d="M78.8705 26.0551V6.45302H81.9645V25.5385C81.9645 26.4733 82.2287 27.2049 82.7655 27.7418C83.3006 28.2786 84 28.5445 84.8654 28.5445V31.2998C80.8688 31.2998 78.8722 29.5504 78.8722 26.0534" fill="#231F20"/>
<path d="M99.7578 22.5495H87.2345C87.2345 24.5936 87.7934 26.1617 88.9077 27.2591C89.8899 28.2159 91.1532 28.6935 92.6994 28.6935C94.4623 28.6935 95.9322 28.1787 97.1092 27.1473L98.4081 29.3709C97.9305 29.8535 97.2023 30.265 96.2167 30.6173C94.9856 31.0762 93.6122 31.3031 92.1033 31.3031C89.917 31.3031 88.0643 30.5597 86.5419 29.0745C84.8433 27.4352 83.9983 25.2337 83.9983 22.4699C83.9983 19.7062 84.867 17.2845 86.6096 15.5487C88.1626 13.9992 90.0085 13.2235 92.1389 13.2235C94.6113 13.2235 96.5521 13.9196 97.9593 15.3201C99.3209 16.6647 100 18.4462 100 20.6681C100 21.3506 99.9221 21.9788 99.7578 22.5512V22.5495ZM92.2997 15.8298C90.9246 15.8298 89.7731 16.2752 88.8399 17.166C87.9559 18.0144 87.4513 19.066 87.3328 20.326H96.9568C96.9568 19.0779 96.5656 18.0364 95.7866 17.1981C94.9314 16.2887 93.7697 15.8298 92.2997 15.8298Z" fill="#231F20"/>
<path d="M12.7807 8.06182C12.7807 10.0771 11.1481 11.7096 9.13628 11.7096C7.12443 11.7096 5.48853 10.0771 5.48853 8.06182C5.48853 6.04658 7.12104 4.41745 9.13628 4.41745C11.1515 4.41745 12.7807 6.05166 12.7807 8.06182Z" fill="#EE4D9B"/>
<path d="M16.0068 6.25487C16.0068 8.04996 14.5504 9.50974 12.752 9.50974C10.9535 9.50974 9.49878 8.04996 9.49878 6.25487C9.49878 4.45978 10.9535 3 12.752 3C14.5504 3 16.0068 4.45639 16.0068 6.25487Z" fill="#FAA61A"/>
<path d="M12.4539 9.54361C10.7672 9.42168 9.44458 7.97714 9.44458 6.26165C9.44458 5.60797 9.56312 5.03049 9.89843 4.52075V4.51567C11.5208 4.88485 12.7282 6.33616 12.7282 8.06859C12.7282 8.60881 12.6673 9.08637 12.4556 9.54869V9.54192" fill="#DA2128"/>
</g>
<defs>
<clipPath id="clip0_103_763">
<rect width="100" height="34.8366" fill="white" transform="translate(0 3)"/>
</clipPath>
</defs>
</svg>
