<svg width="105" height="55" viewBox="0 0 105 55" fill="none" xmlns="http://www.w3.org/2000/svg">
<rect width="105" height="55" rx="5" fill="white"/>
<g clip-path="url(#clip0_6277_57)">
<path fill-rule="evenodd" clip-rule="evenodd" d="M44.4114 18.0898C45.356 18.0898 46.1143 18.757 46.1143 19.578C46.1143 20.3991 45.356 21.0662 44.4114 21.0662C43.4669 21.0662 42.6953 20.3991 42.6953 19.578C42.6953 18.757 43.4669 18.0898 44.4114 18.0898V18.0898ZM42.988 22.5287H45.8748V31.8299H42.988V22.5287Z" fill="#1268B3"/>
<path fill-rule="evenodd" clip-rule="evenodd" d="M27.1173 27.7759C26.7714 30.8421 22.5276 30.6753 23.0997 26.6213C23.2726 25.364 24.1506 24.1837 25.7071 24.5943C26.9709 24.915 27.2769 26.2877 27.1173 27.7887V27.7759ZM27.0907 30.5342C27.4099 34.1392 24.3901 34.678 21.8359 33.7543C21.5033 33.6388 21.1973 33.4336 20.8913 33.3309V35.6787C21.1574 36.025 22.7272 36.2175 23.2859 36.256C25.8269 36.3971 28.3811 35.8198 29.5119 33.5747C30.2835 32.0737 30.0972 30.1493 30.0972 28.3275V22.4903H27.104V23.5936C26.798 23.3755 26.4654 22.5416 25.0153 22.3235C24.0176 22.1695 22.94 22.4005 22.2217 22.8367C20.878 23.6449 20.0133 25.1459 20 27.314C20 29.4565 20.7849 31.0345 22.2483 31.7144C23.0465 32.0865 24.2038 32.202 25.1484 31.9454C26.4654 31.5733 26.798 30.7523 27.0907 30.5213V30.5342Z" fill="#F36C21"/>
<path fill-rule="evenodd" clip-rule="evenodd" d="M70.7918 27.7245C70.6854 28.4045 70.4326 28.9946 70.0734 29.3538C69.7142 29.7002 68.9693 29.9824 68.2376 29.8157C66.7077 29.4821 66.7077 27.8015 66.7875 26.6212C66.8806 25.3639 67.8518 24.2478 69.355 24.5685C70.6455 24.8508 71.018 26.3133 70.8051 27.7245H70.7918ZM63.8209 31.8683H66.8141V30.7779C67.027 30.8933 67.4261 31.8042 68.8894 32.0479C69.9005 32.2147 71.0047 31.9966 71.7363 31.5476C73.08 30.7009 73.8649 29.2512 73.9181 27.0574C73.958 24.9662 73.1997 23.26 71.7097 22.6057C70.4858 22.0668 68.7165 22.1823 67.6522 23.0547C67.3063 23.3369 66.8939 23.8758 66.8274 23.9142C66.8008 23.0162 66.8939 18.3977 66.8008 18H63.8475C63.7544 18.3849 63.8209 24.0041 63.8209 24.8893V31.8683V31.8683Z" fill="#1268B3"/>
<path fill-rule="evenodd" clip-rule="evenodd" d="M54.6282 27.7245C54.2291 30.4956 51.4886 30.316 50.8101 28.7508C50.5707 28.1864 50.5707 27.2883 50.6239 26.6084C50.7037 25.3383 51.7014 24.235 53.1914 24.5685C54.4685 24.8508 54.841 26.2748 54.6282 27.7245V27.7245ZM47.6572 31.8683H50.6505V30.7779C50.9032 30.9446 50.85 31.1242 51.5019 31.5733C53.3244 32.8177 57.648 32.1249 57.7544 27.0446C57.7944 24.9534 57.0494 23.2215 55.5195 22.58C54.0827 21.977 52.0872 22.2336 51.0629 23.4396C50.9564 23.5679 50.7702 23.8244 50.6638 23.9014V18.0128L47.6572 18V31.8683Z" fill="#1268B3"/>
<path fill-rule="evenodd" clip-rule="evenodd" d="M79.8382 29.8542C78.1487 29.8542 77.5367 28.8407 77.5367 27.1857C77.5367 25.6077 78.2152 24.5172 79.8382 24.5172C81.5943 24.5172 81.9268 25.8771 81.9268 27.314C81.9268 28.7509 81.3282 29.8413 79.8382 29.8413V29.8542ZM74.5169 27.917C74.8229 30.8035 77.1776 32.4072 80.5034 32.0608C83.4567 31.7529 85.266 29.6233 84.9467 26.4288C84.3613 20.4761 73.7453 20.7326 74.5036 27.917H74.5169Z" fill="#1268B3"/>
<path fill-rule="evenodd" clip-rule="evenodd" d="M34.3276 27.7759C33.9418 24.1965 36.8552 24.1067 37.9328 24.9534C38.9838 25.7873 39.2232 29.3795 37.0814 29.8157C36.3497 29.9696 35.4983 29.7772 35.0859 29.418C34.6469 29.0331 34.4074 28.52 34.3276 27.7759ZM35.8841 22.3235C32.8509 22.6185 30.9885 24.5686 31.2678 27.8015C31.5206 30.7394 33.8221 32.3559 37.108 32.0736C40.1545 31.8171 41.9504 29.7644 41.7242 26.5699C41.5247 23.6834 39.1168 22.0156 35.8708 22.3235H35.8841Z" fill="#F36C21"/>
<path d="M69.3018 36.3072C69.3018 36.1148 69.3683 35.9608 69.488 35.8197C69.6077 35.6786 69.7674 35.6144 69.9403 35.6144C70.1133 35.6144 70.2729 35.6786 70.3926 35.8197C70.5257 35.9608 70.5789 36.1148 70.5789 36.3072C70.5789 36.4996 70.5124 36.6664 70.3926 36.7947C70.2729 36.923 70.1133 37 69.9403 37C69.7674 37 69.6077 36.9358 69.488 36.7947C69.355 36.6664 69.3018 36.4996 69.3018 36.3072ZM74.1575 35.9223V36.7562C73.7318 36.923 73.3593 37 73.0001 37C72.4014 37 71.9225 36.8332 71.5633 36.474C71.2041 36.1276 71.0179 35.6657 71.0179 35.1013C71.0179 34.5368 71.2041 34.0878 71.5633 33.7157C71.9225 33.3565 72.3881 33.1769 72.9469 33.1769C73.3061 33.1769 73.6918 33.2539 74.0909 33.4206V34.2802C73.7983 34.1134 73.5056 34.0364 73.2129 34.0364C72.8937 34.0364 72.6409 34.1391 72.4413 34.3315C72.2418 34.5239 72.1487 34.7805 72.1487 35.1013C72.1487 35.422 72.2418 35.6914 72.428 35.8967C72.6143 36.1019 72.867 36.1917 73.173 36.1917C73.3992 36.1917 73.7185 36.1019 74.1309 35.9352L74.1575 35.9223ZM76.4057 33.1769C76.9379 33.1769 77.3902 33.3437 77.7627 33.6772C78.1352 34.0108 78.3214 34.4855 78.3214 35.0884C78.3214 35.6914 78.1352 36.1661 77.7494 36.4996C77.3769 36.8332 76.9246 37 76.3924 37C75.8204 37 75.3681 36.8204 74.9956 36.474C74.6364 36.1148 74.4501 35.6529 74.4501 35.0884C74.4501 34.5239 74.6364 34.0493 74.9956 33.7029C75.3681 33.3565 75.8204 33.1769 76.3791 33.1769H76.4057ZM76.4057 36.32C76.9113 36.32 77.1773 35.8967 77.1773 35.0628C77.1773 34.2289 76.9246 33.8697 76.4057 33.8697C76.1663 33.8697 75.9667 33.9723 75.8337 34.1904C75.7007 34.3957 75.6208 34.7036 75.6208 35.1013C75.6208 35.9223 75.8869 36.3329 76.4057 36.3329V36.32ZM79.9045 33.2539V33.7285C80.2637 33.3693 80.6628 33.1769 81.0885 33.1769C81.6738 33.1769 82.0862 33.4335 82.3124 33.9595C82.7248 33.4335 83.1771 33.1769 83.656 33.1769C84.0551 33.1769 84.3744 33.3052 84.6139 33.5618C84.8666 33.8183 84.9864 34.1519 84.9864 34.5624V36.923H83.9088V34.7677C83.9088 34.5111 83.8556 34.3058 83.7359 34.1647C83.6294 34.0236 83.4698 33.9466 83.2702 33.9466C82.951 33.9466 82.6716 34.1519 82.4188 34.5624V36.9102H81.3413V34.7292C81.3413 34.4726 81.288 34.2802 81.1683 34.1391C81.0486 33.9979 80.8889 33.9338 80.6894 33.9338C80.41 33.9338 80.1307 34.1006 79.8779 34.447V36.9102H78.8003V33.241H79.8779L79.9045 33.2539Z" fill="#231F20"/>
<path fill-rule="evenodd" clip-rule="evenodd" d="M60.6282 18.0898C61.5728 18.0898 62.3311 18.757 62.3311 19.578C62.3311 20.3991 61.5728 21.0662 60.6282 21.0662C59.6837 21.0662 58.9121 20.3991 58.9121 19.578C58.9121 18.757 59.6837 18.0898 60.6282 18.0898V18.0898ZM59.2048 22.5287H62.0916V31.8299H59.2048V22.5287Z" fill="#1268B3"/>
</g>
<defs>
<clipPath id="clip0_6277_57">
<rect width="65" height="19" fill="white" transform="translate(20 18)"/>
</clipPath>
</defs>
</svg>
