<svg xmlns="http://www.w3.org/2000/svg" width="24.669" height="24.044" viewBox="0 0 24.669 24.044">
    <path data-name="Icon awesome-arrow-right" d="m10.489 4.258 1.222-1.222a1.316 1.316 0 0 1 1.867 0l10.7 10.7a1.316 1.316 0 0 1 0 1.867l-10.7 10.7a1.316 1.316 0 0 1-1.867 0l-1.222-1.222a1.323 1.323 0 0 1 .022-1.889l6.635-6.321H1.321A1.318 1.318 0 0 1 0 15.55v-1.761a1.318 1.318 0 0 1 1.321-1.321h15.824l-6.634-6.322a1.313 1.313 0 0 1-.022-1.888z" transform="translate(0 -2.647)" style="fill:#fff"/>
</svg>
