<svg width="46" height="13" viewBox="0 0 46 13" fill="none" xmlns="http://www.w3.org/2000/svg">
<line x1="2.18557e-08" y1="6.75" x2="46" y2="6.75" stroke="black" stroke-width="0.5" stroke-dasharray="3 3"/>
<rect width="13" height="6.90625" rx="1" transform="matrix(-1 0 0 1 29 2.64062)" fill="black"/>
<path d="M16.5079 5.66658C16.5079 6.37873 17.386 6.95642 18.4678 6.95642H23.73C24.8124 6.95642 25.6899 6.37873 25.6899 5.66658V5.20975C25.6899 4.49759 24.8124 3.91991 23.73 3.91991H18.4684C17.3862 3.91991 16.5083 4.49759 16.5083 5.20975L16.5079 5.66658Z" fill="black"/>
<path d="M23.6549 5.59894C23.6549 6.09985 23.7857 6.5061 23.947 6.5061H24.7321C24.8934 6.5061 25.0242 6.09985 25.0242 5.59894V5.27801C25.0242 4.77751 24.8934 4.37085 24.7321 4.37085H23.947C23.7857 4.37085 23.6549 4.7771 23.6549 5.27801V5.59894ZM17.2203 5.59894C17.2203 6.09985 17.3513 6.5061 17.5128 6.5061H18.2973C18.4588 6.5061 18.5894 6.09985 18.5894 5.59894V5.27801C18.5894 4.77751 18.4588 4.37085 18.2973 4.37085H17.513C17.3511 4.37085 17.2205 4.7771 17.2205 5.27801L17.2203 5.59894ZM19.386 5.59894C19.386 6.09985 19.517 6.5061 19.6781 6.5061H20.4632C20.6243 6.5061 20.7553 6.09985 20.7553 5.59894V5.27801C20.7553 4.77751 20.6243 4.37085 20.4632 4.37085H19.6781C19.517 4.37085 19.386 4.7771 19.386 5.27801V5.59894ZM21.5308 5.59894C21.5308 6.09985 21.6614 6.5061 21.8227 6.5061H22.6076C22.7689 6.5061 22.8997 6.09985 22.8997 5.59894V5.27801C22.8997 4.77751 22.7685 4.37085 22.6076 4.37085H21.8225C21.6612 4.37085 21.5306 4.7771 21.5306 5.27801L21.5308 5.59894Z" fill="white"/>
<path d="M24.429 9.06769C24.4291 9.36897 24.5185 9.66347 24.6859 9.91396C24.8534 10.1644 25.0913 10.3597 25.3697 10.475C25.648 10.5902 25.9543 10.6204 26.2498 10.5617C26.5453 10.5029 26.8168 10.3579 27.0298 10.1449C27.2429 9.93187 27.3881 9.66048 27.4469 9.365C27.5058 9.06952 27.4758 8.76322 27.3606 8.48482C27.2454 8.20642 27.0503 7.96841 26.7999 7.80089C26.5494 7.63336 26.255 7.54384 25.9537 7.54364C25.5494 7.54359 25.1617 7.70412 24.8758 7.98993C24.5898 8.27573 24.4291 8.66341 24.429 9.06769Z" fill="black"/>
<path d="M25.1407 9.04983C25.1407 9.49833 25.5039 9.86233 25.9532 9.86233C26.1138 9.86225 26.2707 9.81457 26.4042 9.7253C26.5377 9.63604 26.6417 9.5092 26.7032 9.36083C26.7646 9.21245 26.7806 9.0492 26.7493 8.89171C26.7179 8.73421 26.6406 8.58955 26.527 8.476C26.4135 8.36245 26.2688 8.28512 26.1113 8.25377C25.9538 8.22242 25.7906 8.23847 25.6422 8.29988C25.4938 8.3613 25.367 8.46532 25.2777 8.59881C25.1885 8.7323 25.1408 8.88925 25.1407 9.04983Z" fill="white"/>
<path d="M17.367 9.06709C17.3736 9.46687 17.537 9.84808 17.822 10.1285C18.107 10.4089 18.4908 10.5661 18.8907 10.5661C19.2905 10.5661 19.6743 10.4089 19.9594 10.1285C20.2444 9.84808 20.4078 9.46687 20.4143 9.06709C20.4143 8.6631 20.2538 8.27565 19.9682 7.98991C19.6826 7.70417 19.2953 7.54351 18.8913 7.54324C18.4871 7.5433 18.0995 7.70385 17.8137 7.9896C17.5278 8.27535 17.3672 8.66292 17.367 9.06709Z" fill="black"/>
<path d="M18.0783 9.04943C18.0783 9.49793 18.4409 9.86193 18.8908 9.86193C19.1061 9.86161 19.3126 9.77589 19.4648 9.62358C19.6171 9.47126 19.7027 9.26479 19.7029 9.04943C19.7027 8.83416 19.617 8.62777 19.4648 8.47558C19.3125 8.32339 19.1061 8.23785 18.8908 8.23775C18.4415 8.23775 18.0783 8.60093 18.0783 9.04943Z" fill="white"/>
<path d="M26.4931 3.91991H27.1169C27.6381 3.96602 28.6753 4.29142 28.655 6.14413V6.82561C28.655 7.40959 28.4687 7.88288 28.2386 7.88288H26.4931C26.2634 7.88288 26.0767 7.40959 26.0767 6.82561V4.97636C26.0767 4.39238 26.2634 3.91991 26.4931 3.91991Z" fill="black"/>
<path d="M26.6261 4.27579H27.1384C27.5662 4.31377 28.4165 4.58068 28.4004 6.10066V6.66027C28.4004 7.13924 28.2475 7.52741 28.0583 7.52741H26.6263C26.4376 7.52741 26.2851 7.13944 26.2851 6.66027V5.14273C26.2851 4.66376 26.4376 4.27579 26.6263 4.27579" fill="white"/>
<path d="M27.3629 6.17764C27.3875 5.53698 27.3511 4.87804 27.1931 4.27496C27.6237 4.31518 28.4626 4.58798 28.4466 6.09862V6.65823C28.4466 7.13699 28.2936 7.52557 28.1049 7.52557H27.174C27.2839 7.12014 27.3432 6.67164 27.3629 6.17764Z" fill="white"/>
</svg>
