<svg width="12" height="12" viewBox="0 0 12 12" fill="none" xmlns="http://www.w3.org/2000/svg">
<path d="M11.4 1.8C11.7314 1.46863 11.7314 0.931371 11.4 0.6C11.0686 0.268629 10.5314 0.268629 10.2 0.6L6.70711 4.09289C6.31658 4.48342 5.68342 4.48342 5.29289 4.09289L1.8 0.6C1.46863 0.268629 0.931371 0.268629 0.6 0.6C0.268629 0.931371 0.268629 1.46863 0.6 1.8L4.09289 5.29289C4.48342 5.68342 4.48342 6.31658 4.09289 6.70711L0.6 10.2C0.268629 10.5314 0.268629 11.0686 0.6 11.4C0.931371 11.7314 1.46863 11.7314 1.8 11.4L5.29289 7.90711C5.68342 7.51658 6.31658 7.51658 6.70711 7.90711L10.2 11.4C10.5314 11.7314 11.0686 11.7314 11.4 11.4C11.7314 11.0686 11.7314 10.5314 11.4 10.2L7.90711 6.70711C7.51658 6.31658 7.51658 5.68342 7.90711 5.29289L11.4 1.8Z" fill="#555555"/>
</svg>
