<svg width="24" height="24" viewBox="0 0 24 24" fill="none" xmlns="http://www.w3.org/2000/svg">
<g opacity="0.5">
<path d="M4.57492 4.57501C4.85621 4.29381 5.23768 4.13583 5.63542 4.13583C6.03317 4.13583 6.41463 4.29381 6.69592 4.57501L11.9999 9.87901L17.3039 4.57501C17.5868 4.30178 17.9657 4.15058 18.359 4.154C18.7523 4.15742 19.1285 4.31517 19.4067 4.59329C19.6848 4.8714 19.8425 5.24762 19.8459 5.64091C19.8494 6.03421 19.6982 6.41311 19.4249 6.69601L14.1209 12L19.4249 17.304C19.6982 17.5869 19.8494 17.9658 19.8459 18.3591C19.8425 18.7524 19.6848 19.1286 19.4067 19.4067C19.1285 19.6849 18.7523 19.8426 18.359 19.846C17.9657 19.8494 17.5868 19.6983 17.3039 19.425L11.9999 14.121L6.69592 19.425C6.41302 19.6983 6.03412 19.8494 5.64082 19.846C5.24753 19.8426 4.87131 19.6849 4.59319 19.4067C4.31508 19.1286 4.15733 18.7524 4.15391 18.3591C4.15049 17.9658 4.30168 17.5869 4.57492 17.304L9.87892 12L4.57492 6.69601C4.29372 6.41472 4.13574 6.03326 4.13574 5.63551C4.13574 5.23777 4.29372 4.8563 4.57492 4.57501Z" fill="black"/>
</g>
</svg>
