<svg width="65" height="63" viewBox="0 0 65 63" fill="none" xmlns="http://www.w3.org/2000/svg">
<path fill-rule="evenodd" clip-rule="evenodd" d="M54.9234 18.8681C52.4209 21.9054 48.6305 23.8418 44.3877 23.8418C36.8521 23.8418 30.7433 17.733 30.7433 10.1974C30.7433 10.1219 30.7439 10.0465 30.7451 9.97132C30.3461 10.0064 29.9423 10.0243 29.5342 10.0243C24.1123 10.0243 19.4289 6.8618 17.2283 2.28076C6.98685 7.65059 0 18.3846 0 30.7504C0 48.4926 14.3829 62.8754 32.125 62.8754C49.8671 62.8754 64.25 48.4926 64.25 30.7504C64.25 30.4577 64.2461 30.1658 64.2383 29.8749C64.2461 29.592 64.25 29.3081 64.25 29.0233C64.25 27.2216 64.0933 25.4566 63.7927 23.741C60.2312 23.3074 57.0932 21.5015 54.9234 18.8681Z" fill="#E0992D"/>
<path fill-rule="evenodd" clip-rule="evenodd" d="M55.1241 16.2307C52.6754 19.2027 48.9665 21.0975 44.815 21.0975C37.4414 21.0975 31.4639 15.1201 31.4639 7.74648C31.4639 7.67265 31.4645 7.59896 31.4657 7.52541C31.0753 7.55974 30.6801 7.57727 30.2808 7.57727C24.9753 7.57727 20.3927 4.48265 18.2394 0C8.21826 5.25437 1.38171 15.7575 1.38171 27.8574C1.38171 45.218 15.4553 59.2915 32.8159 59.2915C50.1764 59.2915 64.25 45.218 64.25 27.8574C64.25 27.5709 64.2462 27.2853 64.2385 27.0007C64.2462 26.7238 64.25 26.4461 64.25 26.1674C64.25 24.4044 64.0966 22.6773 63.8025 20.9986C60.3177 20.5743 57.2473 18.8074 55.1241 16.2307Z" fill="#F7B239"/>
<path d="M21.7621 28.4541L26.4254 30.8721L21.7621 32.5993" stroke="#B67416" stroke-width="3" stroke-linecap="round" stroke-linejoin="round"/>
<path d="M43.6968 28.4541L39.0335 30.8721L43.6968 32.5993" stroke="#B67416" stroke-width="3" stroke-linecap="round" stroke-linejoin="round"/>
<path d="M24.6982 43.1353C27.3465 46.4744 34.6466 51.1492 42.6606 43.1353" stroke="#B67416" stroke-width="3" stroke-linecap="round" stroke-linejoin="round"/>
<circle cx="40.7607" cy="11.7514" r="3.10887" fill="#E0992D"/>
<circle cx="35.7521" cy="4.32467" r="1.89987" fill="#B67416"/>
<circle cx="51.6418" cy="9.16071" r="3.62702" fill="#E0992D"/>
</svg>
