<svg width="22" height="22" viewBox="0 0 22 22" fill="none" xmlns="http://www.w3.org/2000/svg">
<path d="M11 1.375C13.5527 1.375 16.0009 2.38906 17.8059 4.1941C19.6109 5.99913 20.625 8.44729 20.625 11C20.625 13.5527 19.6109 16.0009 17.8059 17.8059C16.0009 19.6109 13.5527 20.625 11 20.625C8.44729 20.625 5.99913 19.6109 4.1941 17.8059C2.38906 16.0009 1.375 13.5527 1.375 11C1.375 8.44729 2.38906 5.99913 4.1941 4.1941C5.99913 2.38906 8.44729 1.375 11 1.375ZM11 9.83263L8.76425 7.59688C8.60945 7.44207 8.39949 7.3551 8.18056 7.3551C7.96164 7.3551 7.75168 7.44207 7.59688 7.59688C7.44207 7.75168 7.3551 7.96164 7.3551 8.18056C7.3551 8.39949 7.44207 8.60945 7.59688 8.76425L9.83263 11L7.59688 13.2358C7.52022 13.3124 7.45942 13.4034 7.41794 13.5035C7.37645 13.6037 7.3551 13.711 7.3551 13.8194C7.3551 13.9278 7.37645 14.0352 7.41794 14.1353C7.45942 14.2355 7.52022 14.3265 7.59688 14.4031C7.67353 14.4798 7.76452 14.5406 7.86467 14.5821C7.96482 14.6235 8.07216 14.6449 8.18056 14.6449C8.28896 14.6449 8.3963 14.6235 8.49645 14.5821C8.5966 14.5406 8.6876 14.4798 8.76425 14.4031L11 12.1674L13.2358 14.4031C13.3124 14.4798 13.4034 14.5406 13.5035 14.5821C13.6037 14.6235 13.711 14.6449 13.8194 14.6449C13.9278 14.6449 14.0352 14.6235 14.1353 14.5821C14.2355 14.5406 14.3265 14.4798 14.4031 14.4031C14.4798 14.3265 14.5406 14.2355 14.5821 14.1353C14.6235 14.0352 14.6449 13.9278 14.6449 13.8194C14.6449 13.711 14.6235 13.6037 14.5821 13.5035C14.5406 13.4034 14.4798 13.3124 14.4031 13.2358L12.1674 11L14.4031 8.76425C14.4798 8.6876 14.5406 8.5966 14.5821 8.49645C14.6235 8.3963 14.6449 8.28896 14.6449 8.18056C14.6449 8.07216 14.6235 7.96482 14.5821 7.86467C14.5406 7.76452 14.4798 7.67353 14.4031 7.59688C14.3265 7.52022 14.2355 7.45942 14.1353 7.41794C14.0352 7.37645 13.9278 7.3551 13.8194 7.3551C13.711 7.3551 13.6037 7.37645 13.5035 7.41794C13.4034 7.45942 13.3124 7.52022 13.2358 7.59688L11 9.83263Z" fill="black"/>
</svg>
