<svg xmlns="http://www.w3.org/2000/svg" width="24" height="24" viewBox="0 0 24 24">
    <g data-name="Group 17237">
        <path data-name="Rectangle 3681" style="fill:none" d="M0 0h24v24H0z"/>
        <g data-name="Group 13017">
            <path data-name="Path 12786" d="m74.188 433.89-12.852 4.677-2.1-1.528-1.736.632 1.066 2.927a2.952 2.952 0 0 0 3.785 1.765l.324-.118 4.752-1.729-1.111 4.662 3.184-1.158 1.979-4.978 4.05-1.474 2.1-.764a1.328 1.328 0 0 0 .794-1.7h0c-.316-.862-2.375-1.891-4.235-1.214z" style="stroke:#555;stroke-linecap:round;stroke-linejoin:round;fill:none" transform="translate(-56 -427)"/>
            <path data-name="Path 12787" d="m65.422 432.822-3.182 1.158 3.848 2.858 4.05-1.474z" style="stroke:#555;stroke-linecap:round;stroke-linejoin:round;fill:none" transform="translate(-56 -427)"/>
        </g>
    </g>
</svg>
