<svg width="12" height="18" viewBox="0 0 12 18" fill="none" xmlns="http://www.w3.org/2000/svg">
<path opacity="0.8" d="M2.11111 16H9.88889M8.77778 14.8889L10.4444 16.5556M3.22222 14.8889L1.55556 16.5556M9.05556 1.55556H8.22222C8.22222 1.40821 8.16369 1.26691 8.0595 1.16272C7.95532 1.05853 7.81401 1 7.66667 1H4.33333C4.18599 1 4.04468 1.05853 3.9405 1.16272C3.83631 1.26691 3.77778 1.40821 3.77778 1.55556H2.94444C2.4292 1.55702 1.93547 1.76235 1.57113 2.12669C1.2068 2.49103 1.00147 2.98475 1 3.5V12.0764C1 13.3021 6 14.3333 6 14.3333C6 14.3333 11 13.3021 11 12.0764V3.5C11 2.9843 10.7951 2.48972 10.4305 2.12507C10.0658 1.76042 9.57125 1.55556 9.05556 1.55556V1.55556ZM6 12.1111C5.67036 12.1111 5.34813 12.0134 5.07405 11.8302C4.79997 11.6471 4.58635 11.3868 4.4602 11.0822C4.33405 10.7777 4.30105 10.4426 4.36536 10.1193C4.42967 9.79599 4.5884 9.49902 4.82149 9.26593C5.05458 9.03284 5.35155 8.87411 5.67485 8.8098C5.99815 8.74549 6.33326 8.7785 6.63781 8.90464C6.94235 9.03079 7.20265 9.24441 7.38578 9.51849C7.56892 9.79258 7.66667 10.1148 7.66667 10.4444C7.66667 10.8865 7.49107 11.3104 7.17851 11.623C6.86595 11.9355 6.44203 12.1111 6 12.1111ZM9.33333 6.55556C9.33333 6.7029 9.2748 6.84421 9.17062 6.94839C9.06643 7.05258 8.92512 7.11111 8.77778 7.11111H3.22222C3.07488 7.11111 2.93357 7.05258 2.82939 6.94839C2.7252 6.84421 2.66667 6.7029 2.66667 6.55556V4.33333C2.66667 4.18599 2.7252 4.04468 2.82939 3.9405C2.93357 3.83631 3.07488 3.77778 3.22222 3.77778H8.77778C8.92512 3.77778 9.06643 3.83631 9.17062 3.9405C9.2748 4.04468 9.33333 4.18599 9.33333 4.33333V6.55556Z" stroke="white" stroke-linecap="round" stroke-linejoin="round"/>
</svg>
