<svg width="14" height="14" viewBox="0 0 14 14" fill="none" xmlns="http://www.w3.org/2000/svg">
<path opacity="0.8" d="M6.5 2C6.36739 2 6.24021 2.05268 6.14645 2.14645C6.05268 2.24021 6 2.36739 6 2.5C6 2.63261 6.05268 2.75979 6.14645 2.85355C6.24021 2.94732 6.36739 3 6.5 3H7.5C7.63261 3 7.75979 2.94732 7.85355 2.85355C7.94732 2.75979 8 2.63261 8 2.5C8 2.36739 7.94732 2.24021 7.85355 2.14645C7.75979 2.05268 7.63261 2 7.5 2H6.5ZM5.5 9.25C5.5 9.44891 5.42098 9.63968 5.28033 9.78033C5.13968 9.92098 4.94891 10 4.75 10C4.55109 10 4.36032 9.92098 4.21967 9.78033C4.07902 9.63968 4 9.44891 4 9.25C4 9.05109 4.07902 8.86032 4.21967 8.71967C4.36032 8.57902 4.55109 8.5 4.75 8.5C4.94891 8.5 5.13968 8.57902 5.28033 8.71967C5.42098 8.86032 5.5 9.05109 5.5 9.25ZM9.25 10C9.44891 10 9.63968 9.92098 9.78033 9.78033C9.92098 9.63968 10 9.44891 10 9.25C10 9.05109 9.92098 8.86032 9.78033 8.71967C9.63968 8.57902 9.44891 8.5 9.25 8.5C9.05109 8.5 8.86032 8.57902 8.71967 8.71967C8.57902 8.86032 8.5 9.05109 8.5 9.25C8.5 9.44891 8.57902 9.63968 8.71967 9.78033C8.86032 9.92098 9.05109 10 9.25 10ZM1 2.9C1 2.13087 1.30553 1.39325 1.84939 0.84939C2.39325 0.305535 3.13087 0 3.9 0H10.1C10.8691 0 11.6068 0.305535 12.1506 0.84939C12.6945 1.39325 13 2.13087 13 2.9V5H13.5C13.6326 5 13.7598 5.05268 13.8536 5.14645C13.9473 5.24021 14 5.36739 14 5.5C14 5.63261 13.9473 5.75979 13.8536 5.85355C13.7598 5.94732 13.6326 6 13.5 6H13V12.7C13 13.0448 12.863 13.3754 12.6192 13.6192C12.3754 13.863 12.0448 14 11.7 14H10.3C9.95522 14 9.62456 13.863 9.38076 13.6192C9.13696 13.3754 9 13.0448 9 12.7V12H5V12.7C5 13.0448 4.86304 13.3754 4.61924 13.6192C4.37544 13.863 4.04478 14 3.7 14H2.3C1.95522 14 1.62456 13.863 1.38076 13.6192C1.13696 13.3754 1 13.0448 1 12.7V6H0.5C0.367392 6 0.240215 5.94732 0.146447 5.85355C0.0526784 5.75979 0 5.63261 0 5.5C0 5.36739 0.0526784 5.24021 0.146447 5.14645C0.240215 5.05268 0.367392 5 0.5 5H1V2.9ZM12 2.9C12 2.39609 11.7998 1.91282 11.4435 1.5565C11.0872 1.20018 10.6039 1 10.1 1H3.9C3.39609 1 2.91282 1.20018 2.5565 1.5565C2.20018 1.91282 2 2.39609 2 2.9V7H12V2.9ZM10 12V12.7C10 12.7394 10.0078 12.7784 10.0228 12.8148C10.0379 12.8512 10.06 12.8843 10.0879 12.9121C10.1157 12.94 10.1488 12.9621 10.1852 12.9772C10.2216 12.9922 10.2606 13 10.3 13H11.7C11.7394 13 11.7784 12.9922 11.8148 12.9772C11.8512 12.9621 11.8843 12.94 11.9121 12.9121C11.94 12.8843 11.9621 12.8512 11.9772 12.8148C11.9922 12.7784 12 12.7394 12 12.7V12H10ZM2 12V12.7C2 12.7394 2.00776 12.7784 2.02284 12.8148C2.03791 12.8512 2.06001 12.8843 2.08787 12.9121C2.11573 12.94 2.1488 12.9621 2.18519 12.9772C2.22159 12.9922 2.2606 13 2.3 13H3.7C3.7394 13 3.77841 12.9922 3.81481 12.9772C3.8512 12.9621 3.88427 12.94 3.91213 12.9121C3.93999 12.8843 3.96209 12.8512 3.97716 12.8148C3.99224 12.7784 4 12.7394 4 12.7V12H2ZM2 11H12V8H2V11Z" fill="white"/>
</svg>
