<svg width="21" height="13" viewBox="0 0 21 13" fill="none" xmlns="http://www.w3.org/2000/svg">
<path opacity="0.8" d="M18.401 1.84757C17.4395 1.58831 16.4174 1.6067 15.523 1.89931L15.4862 1.91124L12.81 3.14247L4.9999 0.136904C4.65896 0.00430328 4.2864 -0.0329438 3.92466 0.0294051C3.56292 0.0917539 3.22654 0.251192 2.95383 0.489559L1.90825 1.39678C1.79794 1.49251 1.71132 1.61105 1.65482 1.74361C1.59831 1.87617 1.57337 2.01934 1.58184 2.16251C1.59031 2.30568 1.63198 2.44516 1.70375 2.57061C1.77552 2.69605 1.87555 2.80424 1.99643 2.88715L6.8378 6.20829L4.98075 7.14994L3.51005 5.84919C3.22885 5.60097 2.87959 5.43664 2.50424 5.37593C2.12889 5.31522 1.74341 5.36072 1.39413 5.50696L0.594337 5.84262C0.469331 5.89506 0.356899 5.97199 0.264124 6.06856C0.171348 6.16513 0.100239 6.27926 0.055278 6.40375C0.0103166 6.52824 -0.00752339 6.66039 0.00288203 6.79188C0.0132875 6.92338 0.0517128 7.05136 0.115737 7.16777L3.10939 12.6127L19.4128 4.83396C20.389 4.38918 20.508 3.67814 20.2933 3.16026C20.0554 2.58611 19.3655 2.10767 18.401 1.84757ZM18.8491 3.68339L18.843 3.68618L3.67161 10.9247L1.44445 6.87369L1.91721 6.67524C2.03364 6.62648 2.16213 6.61131 2.28726 6.63155C2.41238 6.65179 2.5288 6.70657 2.62253 6.78932L4.77405 8.69224L9.35076 6.37153L3.09311 2.07878L3.83189 1.43777C3.9228 1.35833 4.03492 1.30519 4.1555 1.2844C4.27608 1.26362 4.40026 1.27603 4.51391 1.32022L12.8568 4.53085L15.9791 3.09448C16.6145 2.89515 17.3712 2.88894 18.0618 3.07805C18.6305 3.2338 18.9326 3.46007 19.035 3.57874C18.9771 3.62006 18.9147 3.65507 18.8491 3.68339Z" fill="white"/>
</svg>
