<svg width="17" height="17" viewBox="0 0 17 17" fill="none" xmlns="http://www.w3.org/2000/svg">
<path d="M1.41667 1.41675H15.5833" stroke="white" stroke-width="1.5" stroke-linecap="round" stroke-linejoin="round"/>
<path d="M13.4583 1.41675H3.54167C3.15046 1.41675 2.83333 1.73388 2.83333 2.12508V14.8751C2.83333 15.2663 3.15046 15.5834 3.54167 15.5834H13.4583C13.8495 15.5834 14.1667 15.2663 14.1667 14.8751V2.12508C14.1667 1.73388 13.8495 1.41675 13.4583 1.41675Z" stroke="white" stroke-width="1.5" stroke-linejoin="round"/>
<path d="M7.08333 11.3335H9.91667V15.5835H7.08333V11.3335Z" stroke="white" stroke-width="1.5" stroke-linecap="round" stroke-linejoin="round"/>
<path d="M5.3125 4.25H6.02083M5.3125 6.375H6.02083M8.14583 4.25H8.85417M8.14583 6.375H8.85417M10.9792 4.25H11.6875M10.9792 6.375H11.6875" stroke="white" stroke-width="1.5" stroke-linecap="round"/>
<path d="M1.41667 15.5835H15.5833M9.91667 11.3335H10.625C10.8205 11.3335 10.9827 11.1734 10.9452 10.9815C10.7497 9.97562 9.72931 9.2085 8.5 9.2085C7.27104 9.2085 6.25033 9.97527 6.05483 10.9815C6.01729 11.1734 6.1795 11.3335 6.375 11.3335H7.08333" stroke="white" stroke-width="1.5" stroke-linecap="round" stroke-linejoin="round"/>
</svg>
