<svg width="17" height="13" viewBox="0 0 17 13" fill="none" xmlns="http://www.w3.org/2000/svg">
<path d="M3.15626 0.166748C2.47388 0.166748 1.81945 0.437822 1.33693 0.920338C0.854418 1.40285 0.583344 2.05728 0.583344 2.73966V9.46883C0.583344 10.1512 0.854418 10.8056 1.33693 11.2882C1.81945 11.7707 2.47388 12.0417 3.15626 12.0417H13.8438C14.1816 12.0417 14.5162 11.9752 14.8284 11.8459C15.1405 11.7166 15.4242 11.5271 15.6631 11.2882C15.902 11.0492 16.0915 10.7656 16.2208 10.4534C16.3501 10.1413 16.4167 9.80671 16.4167 9.46883V2.73966C16.4167 2.40178 16.3501 2.06721 16.2208 1.75505C16.0915 1.44289 15.902 1.15926 15.6631 0.920338C15.4242 0.68142 15.1405 0.491901 14.8284 0.3626C14.5162 0.233299 14.1816 0.166748 13.8438 0.166748H3.15626ZM1.77084 2.73966C1.77084 1.97491 2.39151 1.35425 3.15626 1.35425H5.33334V2.31058C4.96868 2.15119 4.56444 2.10544 4.17338 2.17929C3.78232 2.25315 3.4226 2.44319 3.14119 2.7246C2.85978 3.00601 2.66975 3.36572 2.59589 3.75678C2.52203 4.14784 2.56779 4.55209 2.72718 4.91675H1.77084V2.73966ZM6.52084 4.12508C6.52084 3.9685 6.56727 3.81544 6.65426 3.68525C6.74125 3.55507 6.86489 3.4536 7.00955 3.39368C7.15421 3.33376 7.31339 3.31808 7.46696 3.34863C7.62052 3.37917 7.76159 3.45457 7.8723 3.56529C7.98302 3.67601 8.05842 3.81707 8.08896 3.97063C8.11951 4.1242 8.10383 4.28338 8.04391 4.42804C7.98399 4.5727 7.88252 4.69634 7.75234 4.78333C7.62215 4.87032 7.46909 4.91675 7.31251 4.91675H6.52084V4.12508ZM5.33334 4.91675H4.54168C4.3851 4.91675 4.23204 4.87032 4.10185 4.78333C3.97166 4.69634 3.87019 4.5727 3.81027 4.42804C3.75035 4.28338 3.73467 4.1242 3.76522 3.97063C3.79577 3.81707 3.87117 3.67601 3.98188 3.56529C4.0926 3.45457 4.23366 3.37917 4.38723 3.34863C4.5408 3.31808 4.69998 3.33376 4.84463 3.39368C4.98929 3.4536 5.11293 3.55507 5.19992 3.68525C5.28691 3.81544 5.33334 3.9685 5.33334 4.12508V4.91675ZM5.33334 6.94342V10.8542H3.15626C2.78882 10.8542 2.43644 10.7083 2.17662 10.4485C1.91681 10.1887 1.77084 9.83627 1.77084 9.46883V6.10425H4.49418L3.13251 7.46592C3.07417 7.52027 3.02738 7.58582 2.99493 7.65866C2.96248 7.73149 2.94503 7.81011 2.94362 7.88983C2.94222 7.96956 2.95688 8.04875 2.98675 8.12268C3.01661 8.19661 3.06106 8.26377 3.11744 8.32015C3.17382 8.37653 3.24098 8.42098 3.31491 8.45085C3.38884 8.48071 3.46803 8.49537 3.54776 8.49397C3.62748 8.49256 3.7061 8.47511 3.77894 8.44266C3.85177 8.41021 3.91732 8.36342 3.97168 8.30508L5.33334 6.94342ZM6.52084 10.8542V6.94342L7.88251 8.30508C7.93687 8.36342 8.00242 8.41021 8.07525 8.44266C8.14808 8.47511 8.22671 8.49256 8.30643 8.49397C8.38615 8.49537 8.46534 8.48071 8.53927 8.45085C8.61321 8.42098 8.68037 8.37653 8.73675 8.32015C8.79313 8.26377 8.83758 8.19661 8.86744 8.12268C8.8973 8.04875 8.91197 7.96956 8.91056 7.88983C8.90915 7.81011 8.8917 7.73149 8.85925 7.65866C8.8268 7.58582 8.78001 7.52027 8.72168 7.46592L7.36001 6.10425H15.2292V9.46883C15.2292 9.65077 15.1933 9.83092 15.1237 9.99901C15.0541 10.1671 14.952 10.3198 14.8234 10.4485C14.6947 10.5771 14.542 10.6792 14.3739 10.7488C14.2058 10.8184 14.0257 10.8542 13.8438 10.8542H6.52084ZM6.52084 2.31058V1.35425H13.8438C14.6085 1.35425 15.2292 1.97491 15.2292 2.73966V4.91675H9.12701C9.2864 4.55209 9.33215 4.14784 9.2583 3.75678C9.18444 3.36572 8.9944 3.00601 8.71299 2.7246C8.43158 2.44319 8.07187 2.25315 7.68081 2.17929C7.28975 2.10544 6.8855 2.15119 6.52084 2.31058Z" fill="white"/>
</svg>
