<svg id="icn-cart" xmlns="http://www.w3.org/2000/svg" width="24" height="24" viewBox="0 0 24 24">
  <defs>
    <style>
      .cls-1 {
        fill: none;
      }

      .cls-2 {
        fill: #555;
      }
    </style>
  </defs>
  <path id="Path_18409" data-name="Path 18409" class="cls-1" d="M0,0H24V24H0Z"/>
  <path id="Path_18410" data-name="Path 18410" class="cls-2" d="M4,6.414.757,3.172,2.172,1.757,5.414,5H20.656a1,1,0,0,1,.958,1.287l-2.4,8a1,1,0,0,1-.958.713H6v2H17v2H5a1,1,0,0,1-1-1ZM5.5,23A1.5,1.5,0,1,1,7,21.5,1.5,1.5,0,0,1,5.5,23Zm12,0A1.5,1.5,0,1,1,19,21.5,1.5,1.5,0,0,1,17.5,23Z"/>
</svg>
