<svg width="14" height="18" viewBox="0 0 14 18" fill="none" xmlns="http://www.w3.org/2000/svg">
<path d="M7 0.25C6.00544 0.25 5.05161 0.645088 4.34835 1.34835C3.64509 2.05161 3.25 3.00544 3.25 4V9C3.25 9.99456 3.64509 10.9484 4.34835 11.6517C5.05161 12.3549 6.00544 12.75 7 12.75C7.99456 12.75 8.94839 12.3549 9.65165 11.6517C10.3549 10.9484 10.75 9.99456 10.75 9V4C10.75 3.00544 10.3549 2.05161 9.65165 1.34835C8.94839 0.645088 7.99456 0.25 7 0.25ZM9.5 9C9.5 9.66304 9.23661 10.2989 8.76777 10.7678C8.29893 11.2366 7.66304 11.5 7 11.5C6.33696 11.5 5.70107 11.2366 5.23223 10.7678C4.76339 10.2989 4.5 9.66304 4.5 9V4C4.5 3.33696 4.76339 2.70107 5.23223 2.23223C5.70107 1.76339 6.33696 1.5 7 1.5C7.66304 1.5 8.29893 1.76339 8.76777 2.23223C9.23661 2.70107 9.5 3.33696 9.5 4V9ZM1.375 8.375C1.54076 8.375 1.69973 8.44085 1.81694 8.55806C1.93415 8.67527 2 8.83424 2 9C2 10.3261 2.52678 11.5979 3.46447 12.5355C4.40215 13.4732 5.67392 14 7 14C8.32608 14 9.59785 13.4732 10.5355 12.5355C11.4732 11.5979 12 10.3261 12 9C12 8.83424 12.0658 8.67527 12.1831 8.55806C12.3003 8.44085 12.4592 8.375 12.625 8.375C12.7908 8.375 12.9497 8.44085 13.0669 8.55806C13.1842 8.67527 13.25 8.83424 13.25 9C13.25 12.2413 10.7831 14.9062 7.62438 15.2188L7.625 15.25V17.125C7.625 17.2908 7.55915 17.4497 7.44194 17.5669C7.32473 17.6842 7.16576 17.75 7 17.75C6.83424 17.75 6.67527 17.6842 6.55806 17.5669C6.44085 17.4497 6.375 17.2908 6.375 17.125V15.25L6.37563 15.2188C3.21688 14.9062 0.75 12.2419 0.75 9C0.75 8.83424 0.815848 8.67527 0.933058 8.55806C1.05027 8.44085 1.20924 8.375 1.375 8.375Z" fill="white"/>
</svg>
