<svg width="24" height="24" viewBox="0 0 24 24" fill="none" xmlns="http://www.w3.org/2000/svg">
<g clip-path="url(#clip0_4402_2670)">
<path d="M9.00703 21.9992C8.8865 21.9237 8.7449 21.8677 8.65024 21.7683C8.443 21.55 8.40323 21.2839 8.52415 21.0073C8.64308 20.7353 8.86503 20.5952 9.16215 20.5929C9.95489 20.587 10.7476 20.5902 11.5404 20.5898C11.612 20.5898 11.6832 20.5898 11.7683 20.5898V18.7198C11.4588 18.6556 11.1394 18.6087 10.8312 18.5226C8.65143 17.9153 7.17216 16.556 6.37783 14.4704C6.12008 13.7934 6.01547 13.088 5.99996 12.3688C5.99081 11.9454 6.28913 11.6382 6.70042 11.6273C7.10096 11.6163 7.39371 11.8961 7.42832 12.3195C7.449 12.5718 7.46451 12.8254 7.49832 13.0762C7.78232 15.1692 9.53366 16.9183 11.6653 17.2427C14.1914 17.6269 16.541 16.2261 17.3123 13.8396C17.4642 13.3697 17.4952 12.859 17.5565 12.3641C17.6094 11.9403 17.7987 11.6926 18.167 11.639C18.5465 11.5838 18.8229 11.7654 18.9737 12.1684C18.9777 12.1794 18.9904 12.1876 18.9988 12.1974V12.627C18.9888 12.6771 18.9725 12.7268 18.9693 12.7769C18.9053 13.795 18.6066 14.7447 18.0728 15.6153C17.1889 17.0576 15.9245 18.0264 14.2766 18.4928C13.9305 18.5907 13.5729 18.649 13.2241 18.7249V20.5902C13.3084 20.5902 13.38 20.5902 13.4516 20.5902C14.2443 20.5905 15.0371 20.5874 15.8298 20.5933C16.1269 20.5956 16.3493 20.7357 16.4678 21.0077C16.5887 21.2843 16.549 21.5504 16.3417 21.7687C16.2475 21.8681 16.1055 21.9241 15.9849 21.9996H9.00703V21.9992Z" fill="#555555"/>
<path d="M16.469 9.13599C16.469 10.2872 16.5255 11.4419 16.4555 12.5891C16.3564 14.2114 15.483 15.372 13.9603 15.9714C11.639 16.8855 9.11163 15.5105 8.59375 13.0994C8.5313 12.809 8.50982 12.5058 8.50862 12.208C8.50146 10.1522 8.49232 8.09633 8.50862 6.04089C8.52215 4.35912 9.29182 3.10856 10.8355 2.37176C13.1763 1.25463 16.0526 2.77675 16.4245 5.31504C16.4706 5.62886 16.4829 5.94933 16.4853 6.26705C16.4929 7.22337 16.4881 8.17968 16.4881 9.13599H16.4686H16.469Z" fill="#555555"/>
</g>
<defs>
<clipPath id="clip0_4402_2670">
<rect width="13" height="20" fill="white" transform="translate(6 2)"/>
</clipPath>
</defs>
</svg>
