<svg width="35" height="35" viewBox="0 0 35 35" fill="none" xmlns="http://www.w3.org/2000/svg">
<circle cx="17.5" cy="17.5" r="17.5" fill="#C1D5FE"/>
<circle cx="17.4999" cy="17.4994" r="14.0854" fill="#1D86FF"/>
<g clip-path="url(#clip0_5276_2186)">
<path d="M15.2227 25.1107C15.131 25.0532 15.0233 25.0106 14.9512 24.935C14.7936 24.7689 14.7633 24.5664 14.8553 24.3559C14.9458 24.149 15.1147 24.0424 15.3407 24.0407C15.9439 24.0362 16.5471 24.0386 17.1502 24.0383C17.2047 24.0383 17.2589 24.0383 17.3237 24.0383V22.6155C17.0882 22.5666 16.8452 22.5309 16.6106 22.4654C14.9521 22.0034 13.8266 20.9691 13.2222 19.3822C13.0261 18.8672 12.9465 18.3304 12.9347 17.7832C12.9278 17.461 13.1547 17.2273 13.4677 17.219C13.7724 17.2107 13.9952 17.4235 14.0215 17.7457C14.0373 17.9377 14.0491 18.1306 14.0748 18.3214C14.2909 19.914 15.6234 21.2448 17.2453 21.4916C19.1674 21.7839 20.9551 20.7181 21.5419 18.9023C21.6575 18.5447 21.6811 18.1562 21.7277 17.7796C21.768 17.4572 21.912 17.2687 22.1923 17.2279C22.481 17.1859 22.6913 17.3241 22.806 17.6307C22.8091 17.6391 22.8188 17.6453 22.8251 17.6528V17.9797C22.8175 18.0178 22.8051 18.0556 22.8027 18.0937C22.754 18.8684 22.5267 19.5909 22.1206 20.2534C21.4481 21.3508 20.486 22.0879 19.2321 22.4428C18.9688 22.5172 18.6968 22.5616 18.4313 22.6193V24.0386C18.4955 24.0386 18.55 24.0386 18.6044 24.0386C19.2076 24.0389 19.8108 24.0365 20.414 24.041C20.64 24.0427 20.8092 24.1493 20.8994 24.3562C20.9914 24.5667 20.9611 24.7692 20.8035 24.9353C20.7317 25.0109 20.6237 25.0535 20.532 25.111H15.2227V25.1107Z" fill="white"/>
<path d="M20.9004 15.3221C20.9004 16.198 20.9434 17.0766 20.8901 17.9495C20.8148 19.1839 20.1502 20.0669 18.9916 20.523C17.2254 21.2185 15.3024 20.1723 14.9084 18.3378C14.8609 18.1168 14.8445 17.8861 14.8436 17.6595C14.8382 16.0953 14.8312 14.5311 14.8436 12.9672C14.8539 11.6876 15.4395 10.736 16.6141 10.1754C18.3951 9.32545 20.5836 10.4836 20.8665 12.4149C20.9016 12.6537 20.911 12.8975 20.9128 13.1392C20.9186 13.8669 20.9149 14.5945 20.9149 15.3221H20.9001H20.9004Z" fill="white"/>
</g>
<defs>
<clipPath id="clip0_5276_2186">
<rect width="9.8913" height="15.2174" fill="white" transform="translate(12.9348 9.89258)"/>
</clipPath>
</defs>
</svg>
