<svg xmlns="http://www.w3.org/2000/svg" viewBox="0 0 300.06 511.36"><g id="Layer_2" data-name="Layer 2"><g id="Layer_1-2" data-name="Layer 1"><g id="SeIABz.tif"><path d="M260.58,511.36c14.93-5.09,24-17.34,33.74-28.46,7.93-9.09,7.13-23.82-.43-33.28a78.56,78.56,0,0,0-5.75-6.22q-91.41-91.57-182.88-183.09a42.59,42.59,0,0,0-5.06-3.72c2.27-2.39,3.59-3.83,5-5.2q92.13-92.28,184.25-184.54c10.95-11,14.28-24.5,6.1-35.49A140.14,140.14,0,0,0,268.58,4.44C259.18-2.79,246.51-.66,237.2,7c-1.28,1.06-2.53,2.16-3.7,3.33Q121.8,122.14,10.13,234C-.68,244.82-3,257.89,3.92,269.75a41.35,41.35,0,0,0,6.57,8.09Q121.78,389.38,233.26,500.71c4.51,4.5,10.86,7.14,16.36,10.65Z"/></g></g></g></svg>