<svg width="85" height="8" viewBox="0 0 85 8" fill="none" xmlns="http://www.w3.org/2000/svg">
<path fill-rule="evenodd" clip-rule="evenodd" d="M18.5 8C18.6541 8 18.8212 7.99788 19 7.99337V8H67V7.97222C67.4799 7.99048 67.9795 8 68.5 8H68.5352H68.5704H68.6056H68.6408H68.6761H68.7114H68.7467H68.7821H68.8175H68.8529H68.8883H68.9237H68.9592H68.9947H69.0302H69.0658H69.1013H69.1369H69.1725H69.2081H69.2438H69.2795H69.3152H69.3509H69.3866H69.4224H69.4581H69.4939H69.5298H69.5656H69.6015H69.6373H69.6732H69.7091H69.7451H69.781H69.817H69.853H69.889H69.925H69.961H69.9971H70.0331H70.0692H70.1053H70.1414H70.1776H70.2137H70.2499H70.2861H70.3223H70.3585H70.3947H70.4309H70.4672H70.5034H70.5397H70.576H70.6123H70.6486H70.6849H70.7212H70.7576H70.7939H70.8303H70.8667H70.9031H70.9395H70.9759H71.0123H71.0487H71.0852H71.1216H71.1581H71.1945H71.231H71.2675H71.304H71.3405H71.377H71.4135H71.45H71.4865H71.523H71.5596H71.5961H71.6327H71.6692H71.7058H71.7423H71.7789H71.8155H71.852H71.8886H71.9252H71.9618H71.9984H72.035H72.0716H72.1082H72.1448H72.1814H72.218H72.2546H72.2912H72.3278H72.3644H72.401H72.4376H72.4742H72.5108H72.5474H72.584H72.6206H72.6572H72.6938H72.7304H72.767H72.8036H72.8402H72.8768H72.9134H72.95H72.9865H73.0231H73.0597H73.0963H73.1328H73.1694H73.2059H73.2425H73.279H73.3156H73.3521H73.3886H73.4251H73.4616H73.4981H73.5346H73.5711H73.6076H73.6441H73.6805H73.717H73.7534H73.7899H73.8263H73.8627H73.8991H73.9355H73.9719H74.0083H74.0447H74.081H74.1174H74.1537H74.19H74.2264H74.2627H74.299H74.3352H74.3715H74.4077H74.444H74.4802H74.5164H74.5526H74.5888H74.6249H74.6611H74.6972H74.7333H74.7695H74.8055H74.8416H74.8777H74.9137H74.9497H74.9857H75.0217H75.0577H75.0937H75.1296H75.1655H75.2014H75.2373H75.2731H75.309H75.3448H75.3806H75.4164H75.4521H75.4879H75.5236H75.5593H75.595H75.6306H75.6663H75.7019H75.7375H75.773H75.8086H75.8441H75.8796H75.9151H75.9505H75.986H76.0214H76.0568H76.0921H76.1274H76.1628H76.198H76.2333H76.2685H76.3037H76.3389H76.374H76.4092H76.4443H76.4793H76.5144H76.5494H76.5844H76.6193H76.6542H76.6891H76.724H76.7588H76.7936H76.8284H76.8632H76.8979H76.9326H76.9672H77.0019H77.0365H77.071H77.1056H77.1401H77.1745H77.209H77.2434H77.2777H77.3121H77.3464H77.3806H77.4149H77.4491H77.4832H77.5174H77.5515H77.5855H77.6196H77.6535H77.6875H77.7214H77.7553H77.7891H77.823H77.8567H77.8904H77.9241H77.9578H77.9914H78.025H78.0585H78.092H78.1255H78.1589H78.1923H78.2257H78.259H78.2922H78.3255H78.3586H78.3918H78.4249H78.4579H78.491H78.5239H78.5569H78.5897H78.6226H78.6554H78.6881H78.7209H78.7535H78.7862H78.8187H78.8513H78.8838H78.9162H78.9486H78.981H79.0133H79.0456H79.0778H79.11H79.1421H79.1742H79.2062H79.2382H79.2701H79.302H79.3339H79.3656H79.3974H79.4291H79.4607H79.4923H79.5239H79.5554H79.5868H79.6182H79.6496H79.6808H79.7121H79.7433H79.7744H79.8055H79.8365H79.8675H79.8984H79.9293H79.9601H79.9909H80.0216H80.0523H80.0829H80.1135H80.144H80.1744H80.2048H80.2351H80.2654H80.2956H80.3258H80.3559H80.3859H80.4159H80.4459H80.4758H80.5056H80.5353H80.5651H80.5947H80.6243H80.6538H80.6833H80.7127H80.7421H80.7714H80.8006H80.8298H80.8589H80.8879H80.9169H80.9458H80.9747H81.0035H81.0323H81.061H81.0896H81.1181H81.1466H81.175H81.2034H81.2317H81.26H81.2881H81.3162H81.3443H81.3723H81.4002H81.428H81.4558H81.4835H81.5112H81.5388H81.5663H81.5937H81.6211H81.6484H81.6757H81.7029H81.73H81.757H81.784H81.8109H81.8377H81.8645H81.8912H81.9178H81.9444H81.9709H81.9973H82.0237H82.0499H82.0761H82.1023H82.1283H82.1543H82.1802H82.2061H82.2318H82.2575H82.2832H82.3087H82.3342H82.3596H82.3849H82.4102H82.4353H82.4604H82.4855H82.5104H82.5353H82.5601H82.5848H82.6095H82.634H82.6585H82.683H82.7073H82.7316H82.7557H82.7798H82.8039H82.8278H82.8517H82.8755H82.8992H82.9228H82.9464H82.9698H82.9932H83.0165H83.0398H83.0629H83.086H83.1089H83.1319H83.1547H83.1774H83.2001H83.2226H83.2451H83.2675H83.2898H83.3121H83.3342H83.3563H83.3783H83.4002H83.422H83.4437H83.4654H83.4869H83.5084H83.5298H83.5511H83.5723H83.5934H83.6144H83.6354H83.6562H83.677H83.6977H83.7183H83.7388H83.7592H83.7795H83.7998H83.8199H83.84H83.86H83.8798H83.8996H83.9193H83.9389H83.9584H83.9778H83.9972H84.0164H84.0356H84.0546H84.0736H84.0924H84.1112H84.1299H84.1485H84.1669H84.1853H84.2036H84.2218H84.24H84.258H84.2759H84.2937H84.3114H84.3291H84.3466H84.364H84.3814H84.3986H84.4158H84.4328H84.4498H84.4666H84.4834H84.5V7H84.4834H84.4666H84.4498H84.4328H84.4158H84.3986H84.3814H84.364H84.3466H84.3291H84.3114H84.2937H84.2759H84.258H84.24H84.2218H84.2036H84.1853H84.1669H84.1485H84.1299H84.1112H84.0924H84.0736H84.0546H84.0356H84.0164H83.9972H83.9778H83.9584H83.9389H83.9193H83.8996H83.8798H83.86H83.84H83.8199H83.7998H83.7795H83.7592H83.7388H83.7183H83.6977H83.677H83.6562H83.6354H83.6144H83.5934H83.5723H83.5511H83.5298H83.5084H83.4869H83.4654H83.4437H83.422H83.4002H83.3783H83.3563H83.3342H83.3121H83.2898H83.2675H83.2451H83.2226H83.2001H83.1774H83.1547H83.1319H83.1089H83.086H83.0629H83.0398H83.0165H82.9932H82.9698H82.9464H82.9228H82.8992H82.8755H82.8517H82.8278H82.8039H82.7798H82.7557H82.7316H82.7073H82.683H82.6585H82.634H82.6095H82.5848H82.5601H82.5353H82.5104H82.4855H82.4604H82.4353H82.4102H82.3849H82.3596H82.3342H82.3087H82.2832H82.2575H82.2318H82.2061H82.1802H82.1543H82.1283H82.1023H82.0761H82.0499H82.0237H81.9973H81.9709H81.9444H81.9178H81.8912H81.8645H81.8377H81.8109H81.784H81.757H81.73H81.7029H81.6757H81.6484H81.6211H81.5937H81.5663H81.5388H81.5112H81.4835H81.4558H81.428H81.4002H81.3723H81.3443H81.3162H81.2881H81.26H81.2317H81.2034H81.175H81.1466H81.1181H81.0896H81.061H81.0323H81.0035H80.9747H80.9458H80.9169H80.8879H80.8589H80.8298H80.8006H80.7714H80.7421H80.7127H80.6833H80.6538H80.6243H80.5947H80.5651H80.5353H80.5056H80.4758H80.4459H80.4159H80.3859H80.3559H80.3258H80.2956H80.2654H80.2351H80.2048H80.1744H80.144H80.1135H80.0829H80.0523H80.0216H79.9909H79.9601H79.9293H79.8984H79.8675H79.8365H79.8055H79.7744H79.7433H79.7121H79.6808H79.6496H79.6182H79.5868H79.5554H79.5239H79.4923H79.4607H79.4291H79.3974H79.3656H79.3339H79.302H79.2701H79.2382H79.2062H79.1742H79.1421H79.11H79.0778H79.0456H79.0133H78.981H78.9486H78.9162H78.8838H78.8513H78.8187H78.7862H78.7535H78.7209H78.6881H78.6554H78.6226H78.5897H78.5569H78.5239H78.491H78.4579H78.4249H78.3918H78.3586H78.3255H78.2922H78.259H78.2257H78.1923H78.1589H78.1255H78.092H78.0585H78.025H77.9914H77.9578H77.9241H77.8904H77.8567H77.823H77.7891H77.7553H77.7214H77.6875H77.6535H77.6196H77.5855H77.5515H77.5174H77.4832H77.4491H77.4149H77.3806H77.3464H77.3121H77.2777H77.2434H77.209H77.1745H77.1401H77.1056H77.071H77.0365H77.0019H76.9672H76.9326H76.8979H76.8632H76.8284H76.7936H76.7588H76.724H76.6891H76.6542H76.6193H76.5844H76.5494H76.5144H76.4793H76.4443H76.4092H76.374H76.3389H76.3037H76.2685H76.2333H76.198H76.1628H76.1274H76.0921H76.0568H76.0214H75.986H75.9505H75.9151H75.8796H75.8441H75.8086H75.773H75.7375H75.7019H75.6663H75.6306H75.595H75.5593H75.5236H75.4879H75.4521H75.4164H75.3806H75.3448H75.309H75.2731H75.2373H75.2014H75.1655H75.1296H75.0937H75.0577H75.0217H74.9857H74.9497H74.9137H74.8777H74.8416H74.8055H74.7695H74.7333H74.6972H74.6611H74.6249H74.5888H74.5526H74.5164H74.4802H74.444H74.4077H74.3715H74.3352H74.299H74.2627H74.2264H74.19H74.1537H74.1174H74.081H74.0447H74.0083H73.9719H73.9355H73.8991H73.8627H73.8263H73.7899H73.7534H73.717H73.6805H73.6441H73.6076H73.5711H73.5346H73.4981H73.4616H73.4251H73.3886H73.3521H73.3156H73.279H73.2425H73.2059H73.1694H73.1328H73.0963H73.0597H73.0231H72.9865H72.95H72.9134H72.8768H72.8402H72.8036H72.767H72.7304H72.6938H72.6572H72.6206H72.584H72.5474H72.5108H72.4742H72.4376H72.401H72.3644H72.3278H72.2912H72.2546H72.218H72.1814H72.1448H72.1082H72.0716H72.035H71.9984H71.9618H71.9252H71.8886H71.852H71.8155H71.7789H71.7423H71.7058H71.6692H71.6327H71.5961H71.5596H71.523H71.4865H71.45H71.4135H71.377H71.3405H71.304H71.2675H71.231H71.1945H71.1581H71.1216H71.0852H71.0487H71.0123H70.9759H70.9395H70.9031H70.8667H70.8303H70.7939H70.7576H70.7212H70.6849H70.6486H70.6123H70.576H70.5397H70.5034H70.4672H70.4309H70.3947H70.3585H70.3223H70.2861H70.2499H70.2137H70.1776H70.1414H70.1053H70.0692H70.0331H69.9971H69.961H69.925H69.889H69.853H69.817H69.781H69.7451H69.7091H69.6732H69.6373H69.6015H69.5656H69.5298H69.4939H69.4581H69.4224H69.3866H69.3509H69.3152H69.2795H69.2438H69.2081H69.1725H69.1369H69.1013H69.0658H69.0302H68.9947H68.9592H68.9237H68.8883H68.8529H68.8175H68.7821H68.7467H68.7114H68.6761H68.6408H68.6056H68.5704H68.5352H68.5C64.7971 7 62.2262 6.50669 60.2206 5.83816C58.6258 5.30657 57.3861 4.66549 56.1815 4.04261L56.1812 4.04248L56.1809 4.04231C55.8613 3.87706 55.5442 3.71309 55.2236 3.55279C54.8595 3.37073 54.4935 3.18008 54.1202 2.98566L54.1199 2.98553C51.4405 1.58994 48.3879 0 43 0C36.8557 0 33.2564 2.0626 29.235 4.576C27.7145 5.52631 25.6209 6.13725 23.5854 6.5081C21.5583 6.8774 19.6384 7 18.5 7H0V8H18.5Z" fill="url(#paint0_linear_1181_8)"/>
<defs>
<linearGradient id="paint0_linear_1181_8" x1="42.25" y1="0" x2="42.25" y2="8" gradientUnits="userSpaceOnUse">
<stop stop-color="#E0E0E0"/>
<stop offset="1" stop-color="#E5E5E5"/>
</linearGradient>
</defs>
</svg>
