<svg width="11" height="10" viewBox="0 0 11 10" fill="none" xmlns="http://www.w3.org/2000/svg">
<path fill-rule="evenodd" clip-rule="evenodd" d="M0 4.99937C0 4.86676 0.0526784 4.73958 0.146447 4.64581C0.240215 4.55205 0.367392 4.49937 0.5 4.49937L9.293 4.49937L6.146 1.35337C6.05211 1.25948 5.99937 1.13214 5.99937 0.999369C5.99937 0.866593 6.05211 0.739255 6.146 0.645369C6.23989 0.551482 6.36722 0.498737 6.5 0.498737C6.63278 0.498737 6.76011 0.551482 6.854 0.645369L10.854 4.64537C10.9006 4.69181 10.9375 4.74699 10.9627 4.80774C10.9879 4.86848 11.0009 4.9336 11.0009 4.99937C11.0009 5.06514 10.9879 5.13026 10.9627 5.191C10.9375 5.25175 10.9006 5.30692 10.854 5.35337L6.854 9.35337C6.76011 9.44726 6.63278 9.5 6.5 9.5C6.36722 9.5 6.23989 9.44726 6.146 9.35337C6.05211 9.25948 5.99937 9.13214 5.99937 8.99937C5.99937 8.86659 6.05211 8.73925 6.146 8.64537L9.293 5.49937L0.5 5.49937C0.367392 5.49937 0.240215 5.44669 0.146447 5.35292C0.0526784 5.25915 0 5.13198 0 4.99937Z" fill="#888888"/>
</svg>
