<svg xmlns="http://www.w3.org/2000/svg" viewBox="0 0 300.06 511.36"><g id="Layer_2" data-name="Layer 2"><g id="Layer_1-2" data-name="Layer 1"><g id="SeIABz.tif"><path d="M39.48,511.36c-14.93-5.09-24-17.34-33.74-28.46-7.93-9.09-7.13-23.82.43-33.28a78.56,78.56,0,0,1,5.75-6.22q91.41-91.57,182.88-183.09a42.59,42.59,0,0,1,5.06-3.72c-2.27-2.39-3.59-3.83-5-5.2Q102.79,159.11,10.65,66.85c-11-11-14.28-24.5-6.1-35.49A140.14,140.14,0,0,1,31.48,4.44C40.88-2.79,53.55-.66,62.86,7c1.28,1.06,2.53,2.16,3.7,3.33Q178.27,122.14,289.93,234c10.81,10.83,13.12,23.9,6.21,35.76a41.35,41.35,0,0,1-6.57,8.09Q178.29,389.38,66.8,500.71c-4.51,4.5-10.86,7.14-16.36,10.65Z"/></g></g></g></svg>