<?xml version="1.0" encoding="UTF-8"?>
<svg width="24px" height="24px" viewBox="0 0 24 24" version="1.1" xmlns="http://www.w3.org/2000/svg" xmlns:xlink="http://www.w3.org/1999/xlink">
    <!-- Generator: Sketch 59 (86127) - https://sketch.com -->
    <title>search</title>
    <desc>Created with Sketch.</desc>
    <defs>
        <polygon id="path-1" points="0.0005 0.0004 17.8945 0.0004 17.8945 15.732 0.0005 15.732"></polygon>
    </defs>
    <g id="search" stroke="none" stroke-width="1" fill="none" fill-rule="evenodd">
        <g id="Group-3" transform="translate(3.000000, 4.000000)">
            <mask id="mask-2" fill="white">
                <use xlink:href="#path-1"></use>
            </mask>
            <g id="Clip-2"></g>
            <path d="M6.9375,12.875 C3.6635,12.875 1.0005,10.211 1.0005,6.938 C1.0005,3.664 3.6635,1 6.9375,1 C10.2115,1 12.8745,3.664 12.8745,6.938 C12.8745,10.211 10.2115,12.875 6.9375,12.875 M17.7075,14.842 L12.6865,10.817 C13.4365,9.709 13.8745,8.374 13.8745,6.938 C13.8745,3.112 10.7625,0 6.9375,0 C3.1125,0 0.0005,3.112 0.0005,6.938 C0.0005,10.763 3.1125,13.875 6.9375,13.875 C8.9675,13.875 10.7915,12.993 12.0615,11.598 L17.0825,15.623 C17.1735,15.696 17.2845,15.732 17.3945,15.732 C17.5405,15.732 17.6865,15.668 17.7845,15.545 C17.8585,15.453 17.8945,15.343 17.8945,15.233 C17.8945,15.086 17.8305,14.941 17.7075,14.842" id="Fill-1" fill-opacity="0.9" fill="#707070" mask="url(#mask-2)"></path>
        </g>
    </g>
</svg>