<svg xmlns="http://www.w3.org/2000/svg" width="24" height="24" viewBox="0 0 24 24">
    <g data-name="Group 13031">
        <path data-name="Rectangle 3689" style="fill:none" d="M0 0h24v24H0z"/>
        <g data-name="Group 13021">
            <path data-name="Rectangle 3690" d="M1 0h11a1 1 0 0 1 1 1v18h0H0h0V1a1 1 0 0 1 1-1z" transform="translate(3.5 2.5)" style="stroke:#555;stroke-linecap:round;stroke-linejoin:round;fill:none"/>
            <path data-name="Rectangle 3691" d="M0 0h3a1 1 0 0 1 1 1v10h0-4 0V0h0z" transform="translate(16.5 10.5)" style="stroke:#555;stroke-linecap:round;stroke-linejoin:round;fill:none"/>
            <path data-name="Rectangle 3692" d="M1 0h3a1 1 0 0 1 1 1v4h0-5 0V1a1 1 0 0 1 1-1z" transform="translate(7.5 16.5)" style="stroke:#555;stroke-linecap:round;stroke-linejoin:round;fill:none"/>
            <path data-name="Line 760" transform="translate(6.5 6.5)" style="stroke:#555;stroke-linecap:round;stroke-linejoin:round;fill:none" d="M0 0h2"/>
            <path data-name="Line 761" transform="translate(11.5 6.5)" style="stroke:#555;stroke-linecap:round;stroke-linejoin:round;fill:none" d="M0 0h2"/>
            <path data-name="Line 762" transform="translate(6.5 9.5)" style="stroke:#555;stroke-linecap:round;stroke-linejoin:round;fill:none" d="M0 0h2"/>
            <path data-name="Line 763" transform="translate(11.5 9.5)" style="stroke:#555;stroke-linecap:round;stroke-linejoin:round;fill:none" d="M0 0h2"/>
            <path data-name="Line 764" transform="translate(6.5 12.5)" style="stroke:#555;stroke-linecap:round;stroke-linejoin:round;fill:none" d="M0 0h2"/>
            <path data-name="Line 765" transform="translate(11.5 12.5)" style="stroke:#555;stroke-linecap:round;stroke-linejoin:round;fill:none" d="M0 0h2"/>
        </g>
    </g>
</svg>
