<svg xmlns="http://www.w3.org/2000/svg" width="24" height="24" viewBox="0 0 24 24">
    <g data-name="Group 13029">
        <path data-name="Rectangle 3682" style="fill:none" d="M0 0h24v24H0z"/>
        <g data-name="Group 13018" transform="translate(-82 -427)">
            <rect data-name="Rectangle 3683" width="15" height="14" rx="1.871" transform="translate(86.5 431.5)" style="stroke:#555;stroke-linecap:round;stroke-linejoin:round;fill:none"/>
            <path data-name="Line 752" transform="translate(89.5 442.5)" style="stroke:#555;stroke-linecap:round;stroke-linejoin:round;fill:none" d="M0 0h1"/>
            <path data-name="Line 753" transform="translate(97.5 442.5)" style="stroke:#555;stroke-linecap:round;stroke-linejoin:round;fill:none" d="M0 0h1"/>
            <path data-name="Line 754" transform="translate(87.5 445.5)" style="stroke:#555;stroke-linecap:round;stroke-linejoin:round;fill:none" d="M2 0 0 3"/>
            <path data-name="Line 755" transform="translate(98.5 445.5)" style="stroke:#555;stroke-linecap:round;stroke-linejoin:round;fill:none" d="m0 0 2 3"/>
            <path data-name="Line 756" transform="translate(88.119 447.595)" style="stroke:#555;stroke-linecap:round;stroke-linejoin:round;fill:none" d="M0 0h11.762"/>
            <path data-name="Path 12788" d="M96.5 431.5h-5l.389-1.175a1.428 1.428 0 0 1 1.355-.825h1.512a1.428 1.428 0 0 1 1.355.825z" style="stroke:#555;stroke-linecap:round;stroke-linejoin:round;fill:none"/>
            <path data-name="Path 12789" d="m101.5 433.5-2.189 4.134a1.816 1.816 0 0 1-1.622.866h-7.378a1.816 1.816 0 0 1-1.622-.866L86.5 433.5" style="stroke:#555;stroke-linecap:round;stroke-linejoin:round;fill:none"/>
        </g>
    </g>
</svg>
