<svg width="46" height="7" viewBox="0 0 46 7" fill="none" xmlns="http://www.w3.org/2000/svg">
<line x1="2.18557e-08" y1="3.75" x2="46" y2="3.75" stroke="black" stroke-width="0.5" stroke-dasharray="3 3"/>
<g clip-path="url(#clip0_2958_2154)">
<path d="M29.7399 5.29177C29.7442 5.08349 29.69 4.98159 29.446 5.08049C29.446 5.3607 29.4446 5.6454 29.446 5.93011C29.4489 6.45756 28.7604 7.20304 28.1733 6.9483C27.9086 6.83292 27.6911 6.59767 27.4949 6.44932C27.4442 6.49128 27.3715 6.60441 27.298 6.60516C26.2414 6.6164 25.1849 6.61265 24.1419 6.61265L24.0113 6.21406C23.9022 6.37365 23.8373 6.4658 23.7745 6.56021C23.3985 7.12362 22.6573 7.13261 22.25 6.59242C22.1337 6.43808 21.9667 6.3257 21.8233 6.19458L21.7506 6.24553V5.03254C21.5958 5.04228 21.4845 5.04977 21.3461 5.05876C21.3461 5.34946 21.3461 5.60944 21.3461 5.87017C21.3461 6.30172 21.0415 6.76325 20.6548 6.92133C20.1939 7.10939 19.8044 6.94081 19.4827 6.46805C19.325 6.52499 19.2016 6.60591 19.0767 6.60816C18.2093 6.61939 17.341 6.60666 16.4728 6.61865C16.2196 6.62239 15.9856 6.64262 15.9328 6.1781C15.8094 6.37065 15.7502 6.4658 15.6888 6.55946C15.3186 7.12287 14.5588 7.13486 14.1657 6.59767C14.0516 6.44108 13.8853 6.32645 13.7434 6.19309L13.662 6.23954V5.05202C13.4166 5.03928 13.2083 5.02804 13 5.01755V0.290699C13.152 0.290699 13.2811 0.290699 13.4095 0.290699C14.7293 0.290699 16.0491 0.298191 17.3689 0.284705C17.6649 0.281708 18.0245 0.439045 18.2235 0.0292197C18.2392 -0.00224767 18.3348 0.00149845 18.3933 0.00149845C19.3443 0 20.2952 -0.00149845 21.2469 0.00524457C21.314 0.00524457 21.3817 0.0666809 21.4474 0.104142C21.5537 0.164829 21.6571 0.280959 21.7627 0.282457C22.678 0.296693 23.5933 0.298191 24.5086 0.286204C24.7854 0.282457 25.1157 0.416569 25.2947 0.0359628C25.3104 0.0029969 25.4046 0.00224767 25.4624 0.00149845C26.4711 0 27.4806 0 28.4894 0L28.4494 0.0876592C28.5578 0.185058 28.6606 0.291448 28.7769 0.377609C28.9894 0.534946 29.2513 0.641336 29.4196 0.837633C30.2222 1.77266 31.0134 2.71968 31.7803 3.68693C32.0713 4.05405 32.0785 4.66617 31.7703 4.88644C31.4293 5.12994 31.4913 5.42663 31.4864 5.74055C31.4828 5.97356 31.4864 6.20657 31.4864 6.45606H29.7378C29.7378 6.03875 29.7321 5.66488 29.7399 5.29102V5.29177ZM30.591 3.06433C30.5596 2.60955 30.2729 2.35032 30.0039 2.06786C29.0715 1.08937 27.9015 1.27143 26.7301 1.31339V3.06433H30.591ZM19.9243 1.12908V4.32902H20.6248V1.12908H19.9243ZM14.3362 1.12683V4.32377H15.0261V1.12683H14.3362ZM25.0772 3.30183V2.13379H24.3488V3.30183H25.0772ZM23.238 2.13229V3.30708H23.95V2.13229H23.238ZM22.8506 3.29958V2.13004H22.1394V3.29958H22.8506ZM21.7342 3.29958V2.14353H21.0172V3.29958H21.7342ZM18.3755 3.29958V2.13529H17.6521V3.29958H18.3755ZM16.1618 3.30108V2.14578H15.432V3.30108H16.1618ZM19.4812 3.30108V2.13154H18.7771V3.30108H19.4812ZM16.547 3.29284H17.2561V2.13454H16.547V3.29284Z" fill="black"/>
</g>
<defs>
<clipPath id="clip0_2958_2154">
<rect width="19" height="7" fill="white" transform="translate(13)"/>
</clipPath>
</defs>
</svg>
