<svg width="105" height="55" viewBox="0 0 105 55" fill="none" xmlns="http://www.w3.org/2000/svg">
<rect width="105" height="55" rx="5" fill="white"/>
<path d="M58.2966 31.9464C58.7987 31.8559 59.2925 32.3003 59.3995 32.9258C59.5065 33.5596 59.1937 34.1439 58.6917 34.2345H58.6752C58.1485 34.3332 57.6217 34.3826 57.0867 34.3909C55.9756 34.3909 55.0785 34.1275 54.3789 33.5843C53.4818 32.9012 53.0127 31.8147 53.0127 30.465V17.9218C53.0127 17.4115 53.5312 17 54.1732 17C54.8152 17 55.3337 17.4115 55.3337 17.9218V30.465C55.3337 31.0822 55.4901 31.5102 55.7946 31.7489C56.0662 31.9629 56.7411 32.2263 58.2719 31.9547L58.2966 31.9464Z" fill="#EA2330"/>
<path d="M34.8398 33.2962C34.4201 33.2962 34.025 32.6789 33.8193 32.2756C32.7411 30.1769 31.9181 28.5061 31.2596 27.1645C29.9181 24.4238 29.1938 23.1152 28.5847 22.646C27.9839 22.1769 27.8605 21.5761 28.1485 21.0411C28.453 20.4979 29.1444 20.3004 29.6876 20.6049C29.6958 20.6049 29.6958 20.6131 29.7041 20.6131C30.9962 21.3456 31.6711 22.7201 33.3501 26.144C34.0003 27.4691 34.8069 29.1234 35.8686 31.181C36.132 31.6913 36.3131 32.7201 35.8604 33.0575L34.8398 33.2962Z" fill="#EA2330"/>
<path d="M62.0072 28.3251C62.0072 25.2798 59.5381 22.8107 56.4929 22.8107H51.6122C51.1019 22.8107 50.6904 22.2922 50.6904 21.6502C50.6904 21.0083 51.1019 20.4897 51.6122 20.4897H56.4929C60.8221 20.4897 64.3282 23.9959 64.3282 28.3251V33.4856C64.3282 33.9958 63.8097 34.4074 63.1677 34.4074C62.5258 34.4074 62.0072 33.9958 62.0072 33.4856V28.3251Z" fill="#EA2330"/>
<path d="M48.0985 29.7818V29.9053C48.0985 31.2304 47.0286 32.0863 45.3414 32.0863C43.6541 32.0863 42.5759 31.2304 42.5759 29.9135C42.5759 28.5884 43.6624 27.7324 45.3414 27.7324H45.4401C47.1932 27.7324 50.2138 28.539 50.4195 28.6049V26.3991C49.3002 26.0041 47.5142 25.4115 45.4401 25.4115H45.3414C42.2303 25.4115 40.255 27.4279 40.255 29.9135C40.255 32.3991 42.2303 34.4073 45.3414 34.4073C48.4524 34.4073 50.4277 32.3991 50.4277 29.9135V29.7983L50.4195 24.9835C50.4195 22.4979 48.0245 20.4897 45.3414 20.4897L44.8969 20.4814C41.3578 20.4814 38.5924 21.4362 36.5677 26.111C36.4031 26.4896 36.2468 26.8682 36.0904 27.2468L36.0739 27.2962C35.5883 28.4896 35.3085 29.3703 34.6089 30.9834C33.3003 34.004 32.1315 35.7653 30.3455 35.8641C29.3826 35.9217 29.1439 36.5637 29.2591 37.2056C29.3744 37.8476 29.7859 38.2427 30.3455 38.2427C33.2509 38.2427 35.0698 35.5678 36.8064 31.7571L36.8311 31.7077C37.0945 31.0904 37.3496 30.4485 37.613 29.7736C37.9587 28.8765 38.3208 27.9464 38.7159 27.0329C40.2632 23.4609 42.0163 22.8024 44.9051 22.8024H45.3496C46.5924 22.8024 48.1068 23.6584 48.1068 24.9752V29.7571" fill="#EA2330"/>
<path d="M75.0618 29.7819V29.9053C75.0618 31.2304 73.9754 32.0864 72.2964 32.0864C70.6174 32.0864 69.531 31.2304 69.531 29.9136C69.531 28.5885 70.6174 27.7325 72.2964 27.7325H72.3951C74.1482 27.7325 77.1688 28.5391 77.3745 28.6049V26.3992C76.2552 26.0041 74.461 25.4115 72.3951 25.4115H72.2964C69.1853 25.4115 67.21 27.428 67.21 29.9136C67.21 32.3991 69.1853 34.4074 72.2964 34.4074C75.4075 34.4074 77.3828 32.3991 77.3828 29.9136V29.7983L77.3745 24.9835C77.3745 22.498 74.9795 20.498 72.2964 20.498C72.2964 20.498 71.4651 20.4897 71.2923 20.4897C65.5804 20.4897 62.0166 24.2181 62.0166 29.3704H64.3376C64.3376 25.5021 66.8643 22.8107 71.2923 22.8107C71.498 22.8107 72.14 22.819 72.14 22.819C73.8025 22.819 75.07 23.6667 75.07 24.9835L75.0618 29.7819Z" fill="#EA2330"/>
</svg>
