<svg xmlns="http://www.w3.org/2000/svg" width="65.123" height="14.002" viewBox="0 0 65.123 14.002">
    <path data-name="Path 8309" d="M60.656 10.74a5.377 5.377 0 0 1-2.111.375A3.619 3.619 0 0 1 54.7 7.27a3.866 3.866 0 0 1 4.151-4.01 5.369 5.369 0 0 1 1.829.328l-.328 1.43a2.947 2.947 0 0 0-1.43-.3 2.211 2.211 0 0 0-2.275 2.439 2.206 2.206 0 0 0 2.275 2.415 3.941 3.941 0 0 0 1.478-.286l.258 1.454zm1.079.235h1.876V0h-1.876v10.975zm4.972-3.213A2.032 2.032 0 0 0 69 9.709a5.621 5.621 0 0 0 2.064-.352l.281 1.29a6.54 6.54 0 0 1-2.6.469 3.548 3.548 0 0 1-3.846-3.8c0-2.087 1.266-4.057 3.635-4.057 2.415 0 3.213 2.017 3.213 3.658a4.579 4.579 0 0 1-.07.8h-4.97zm3.283-1.337A1.592 1.592 0 0 0 68.442 4.6a1.836 1.836 0 0 0-1.735 1.829h3.283zm8.794 2.744a10.121 10.121 0 0 0 .117 1.806h-1.688l-.141-.844h-.047a2.714 2.714 0 0 1-2.2 1.008 2.225 2.225 0 0 1-2.345-2.228c0-1.876 1.665-2.861 4.432-2.838v-.117c0-.492-.188-1.313-1.524-1.313a3.779 3.779 0 0 0-1.032.141 3.529 3.529 0 0 0-.961.422l-.375-1.243a5.454 5.454 0 0 1 2.7-.657c2.392 0 3.072 1.524 3.072 3.189v2.674zm-1.853-1.876c-1.337-.023-2.6.258-2.6 1.407a.986.986 0 0 0 1.079 1.079.8.8 0 0 0 .234-.023.833.833 0 0 0 .235-.047 1.617 1.617 0 0 0 .235-.094c.07-.047.141-.07.211-.117a1.175 1.175 0 0 0 .188-.164 1.341 1.341 0 0 0 .164-.188l.141-.211a.833.833 0 0 0 .094-.211 1.3 1.3 0 0 0 .047-.422V7.293zm3.494-1.407c0-1.008-.023-1.759-.07-2.415h1.618l.07 1.43h.047a2.243 2.243 0 0 1 2.064-1.595 2.874 2.874 0 0 1 .446.047v1.783a4.554 4.554 0 0 0-.563-.047 1.654 1.654 0 0 0-1.688 1.43 4.552 4.552 0 0 0-.047.563V11h-1.877V5.886zm7.645-4.362v1.923h1.782v1.43H88.07v3.307c0 .938.235 1.384.961 1.384a3.641 3.641 0 0 0 .727-.07l.023 1.43a3.823 3.823 0 0 1-1.36.211 2.173 2.173 0 0 1-1.618-.61 2.917 2.917 0 0 1-.586-2.111V4.9h-1.055V3.471h1.055V2.064zm2.838 4.362c0-1.008-.023-1.759-.07-2.415h1.618l.07 1.43h.047a2.238 2.238 0 0 1 2.04-1.595 2.873 2.873 0 0 1 .446.047v1.783a4.554 4.554 0 0 0-.563-.047 1.654 1.654 0 0 0-1.688 1.43 4.553 4.553 0 0 0-.047.563V11h-1.877V5.886zm6.027-3.518a.649.649 0 0 1-.211-.023.442.442 0 0 1-.188-.047.7.7 0 0 1-.188-.094c-.047-.047-.117-.07-.164-.117a1.02 1.02 0 0 1-.141-.164.471.471 0 0 1-.094-.188.552.552 0 0 1-.047-.188.649.649 0 0 1-.023-.211A1 1 0 0 1 96.935.3a1.017 1.017 0 0 1 1.055 1.037.979.979 0 0 1-1.055 1.032zM96 10.975h1.876v-7.5H96v7.5zm3.588-5.018c0-.985-.023-1.782-.07-2.509h1.665l.094 1.149h.023a2.908 2.908 0 0 1 2.556-1.337c1.712 0 3.142 1.477 3.142 3.822 0 2.72-1.688 4.033-3.4 4.033a2.393 2.393 0 0 1-2.087-1.008h-.023V14h-1.88V5.956zm1.9 1.876a3.512 3.512 0 0 0 .047.516 1.748 1.748 0 0 0 1.665 1.336c1.2 0 1.9-1.008 1.9-2.486 0-1.337-.633-2.415-1.853-2.415a1.763 1.763 0 0 0-1.688 1.407 3.8 3.8 0 0 0-.07.469v1.172z" transform="translate(-41.872 .002)" style="fill-rule:evenodd;fill:#888"/>
    <path data-name="Subtraction 13" d="M9.875 10.906H1.2a.867.867 0 0 1-.235-.021 1.121 1.121 0 0 0-.134-.043l-.1-.029a.883.883 0 0 1-.213-.119.912.912 0 0 0-.165-.139l-.021-.023a.548.548 0 0 1-.117-.162l-.007-.012a.8.8 0 0 1-.113-.2L.077 10.1a8.188 8.188 0 0 1-.055-.18A.831.831 0 0 1 0 9.688V1.219A.81.81 0 0 1 .022.988 1.26 1.26 0 0 0 .067.842l.027-.09a.725.725 0 0 1 .12-.209C.232.514.253.486.272.461L.284.445.293.434C.313.408.333.381.352.352A.692.692 0 0 0 .438.287L.455.275.468.266Q.5.239.538.213A1.06 1.06 0 0 1 .752.094l.04-.012L.829.07C.877.055.928.041.987.027A.683.683 0 0 1 1.219 0H9.9a.688.688 0 0 1 .235.027l.1.027c.022.008.045.014.065.02a.52.52 0 0 1 .065.02 1.06 1.06 0 0 1 .214.119.54.54 0 0 1 .068.051l.023.018.015.012a.948.948 0 0 0 .08.059.6.6 0 0 1 .143.191.968.968 0 0 1 .054.1.819.819 0 0 0 .062.111l.014.045v.008c.018.055.036.111.053.18a.846.846 0 0 1 .021.23v8.47h-.021V9.7a.819.819 0 0 1-.023.227 1.449 1.449 0 0 0-.047.15l-.021.079a1.1 1.1 0 0 1-.12.213.773.773 0 0 1-.054.072l-.011.014-.01.014a.892.892 0 0 0-.063.086l-.019.016a.491.491 0 0 1-.168.123.667.667 0 0 1-.1.055h-.015a.653.653 0 0 0-.1.057 2.851 2.851 0 0 1-.235.072.835.835 0 0 1-.23.028zM2.863 4.2 1.832 5.865 4.06 8.119l5.674-3.57L8.7 2.814l-4.455 3.8L2.863 4.2z" style="fill:#888"/>
</svg>
