<svg xmlns="http://www.w3.org/2000/svg" viewBox="0 0 13.92 13.73"><defs><style>.cls-1{fill:#888;}</style></defs><g id="Layer_2" data-name="Layer 2"><g id="Layer_1-2" data-name="Layer 1"><g id="ZHGxyH.tif"><path class="cls-1" d="M10.37,3.55H8.71c-.05,0,0,0-.05-.07a3.52,3.52,0,0,0-.39-1A2.25,2.25,0,0,0,6.69,1.35a2,2,0,0,0-1.61.36A5.75,5.75,0,0,0,3.93,2.87L3.82,3a.06.06,0,0,1,0,0c.1-.2.19-.38.3-.57A6.77,6.77,0,0,1,5.26,1,3.48,3.48,0,0,1,6.83.07L7.11,0h.55a1.55,1.55,0,0,0,.23.05A2.84,2.84,0,0,1,9.54,1.17a4.31,4.31,0,0,1,.65,1.41c.07.28.13.55.18.83Z"/><path class="cls-1" d="M0,9.83H0v.3H0Z"/><path class="cls-1" d="M8.08,9.86a.47.47,0,0,1-.16,0H5S5,9.87,5,9.81C5,8.39,5,7,5,5.54c0-.08,0-.08.08-.08H6.82a2.26,2.26,0,0,1,.81.59,1.12,1.12,0,0,1,.2,1.12.59.59,0,0,1-.25.31,2.85,2.85,0,0,1-.74.37L6.53,8c-.1,0-.14.09-.13.17a.17.17,0,0,0,.06.12,3.41,3.41,0,0,0,.37.39L8,9.8Z"/><path class="cls-1" d="M12.69,7.05a1.82,1.82,0,0,1,.15.23A7.27,7.27,0,0,1,13.71,9a3.85,3.85,0,0,1,.2,1,3.25,3.25,0,0,1-.1,1.16,2.44,2.44,0,0,1-1.3,1.51,3.13,3.13,0,0,1-1.59.31,6.15,6.15,0,0,1-1.75-.38l-.07,0s0,0,0-.07l.75-1.38c0-.05.05-.06.1-.05a3.38,3.38,0,0,0,1,.11,2.9,2.9,0,0,0,.51,0,2,2,0,0,0,.87-.4,2.31,2.31,0,0,0,.81-1,1.84,1.84,0,0,0,.1-.52A3.85,3.85,0,0,0,13,7.74c-.08-.23-.18-.46-.27-.68Z"/><path class="cls-1" d="M0,10.13v-.3A3.23,3.23,0,0,1,.76,8,6.73,6.73,0,0,1,1.88,6.9L2,6.84H2c.18.32.36.64.53,1l.27.5s0,0,0,0l-.07.05a3.57,3.57,0,0,0-.83,1.17,2.07,2.07,0,0,0-.15.95,2.28,2.28,0,0,0,.24.92,2.11,2.11,0,0,0,1,.92,5,5,0,0,0,1.25.38l.56.11H4.62a7.49,7.49,0,0,1-1.57-.09,5,5,0,0,1-1.6-.51A2.79,2.79,0,0,1,.24,11,2.49,2.49,0,0,1,0,10.13Z"/><path class="cls-1" d="M7.13,8.24c.16-.06.33-.11.48-.18A1.57,1.57,0,0,0,8.3,7.4a1,1,0,0,0,.12-.48,2.46,2.46,0,0,0,0-.54,1.53,1.53,0,0,0-.55-.77l-.19-.14H9.36c.05,0,.05,0,.05.06v4.3s0,.06-.06.06-.35,0-.53,0a.18.18,0,0,1-.13-.06L7.16,8.28Z"/><path class="cls-1" d="M9.1,12.54s0,0,0,.07a.06.06,0,0,0,0,0c-.19.35-.38.69-.58,1,0,.07-.06.07-.13,0a17.13,17.13,0,0,1-1.55-1c-.3-.21-.59-.44-.87-.67l-.51-.45L4.84,11c-.27-.29-.55-.59-.8-.9a11.55,11.55,0,0,1-.88-1.2c-.09-.13-.17-.26-.25-.39a.18.18,0,0,1,0-.1h0c.12.1.22.23.33.34L3.37,9c.2.21.39.42.6.61A13.26,13.26,0,0,0,5.33,10.7a12.73,12.73,0,0,0,1.54,1,13.34,13.34,0,0,0,1.73.76l.25.09A.55.55,0,0,0,9.1,12.54Z"/><path class="cls-1" d="M2,6.85H2c-.15-.27-.32-.54-.48-.81l-.17-.31s0,0,0-.06l.49-.28c.27-.14.53-.28.81-.41.44-.21.9-.4,1.36-.57a13.25,13.25,0,0,1,1.66-.5c.35-.09.7-.15,1.06-.21s.53-.08.8-.1.27,0,.41,0l.68,0h.05a.48.48,0,0,1-.17,0C8,3.71,7.41,3.83,6.89,4a12.49,12.49,0,0,0-1.44.54,14.13,14.13,0,0,0-1.39.73A10.86,10.86,0,0,0,3,6q-.34.25-.66.54L2,6.8A.09.09,0,0,0,2,6.85Z"/><path class="cls-1" d="M10.37,3.55V3.43c0,.1,0,.11.13.11a4.87,4.87,0,0,0,.54,0h.6c.06,0,.07,0,.07.07v.54c0,.27,0,.54,0,.8s0,.45-.06.68-.06.5-.1.75a14.92,14.92,0,0,1-.3,1.48,13.49,13.49,0,0,1-.56,1.66c-.15.36-.31.71-.48,1.06L9.94,11h0c0-.05,0-.1,0-.15.1-.31.2-.61.29-.92a14.34,14.34,0,0,0,.3-1.45c0-.23.07-.47.1-.7s0-.39,0-.59c0-.35,0-.71,0-1.07s0-.44,0-.65,0-.35-.05-.53,0-.36-.08-.54-.09-.52-.15-.78A.19.19,0,0,1,10.37,3.55Z"/><path class="cls-1" d="M8.71,3.54h0S8.72,3.56,8.71,3.54Z"/><path class="cls-1" d="M9.91,11h0Z"/><polygon class="cls-1" points="12.68 7.02 12.67 7.03 12.67 7.02 12.67 7.02 12.68 7.02"/><path class="cls-1" d="M12.68,7.06s0,0,0,0h0Z"/><polygon class="cls-1" points="2.87 8.44 2.87 8.44 2.87 8.44 2.87 8.44 2.87 8.44"/></g></g></g></svg>