<svg id="logo-MakeMytrip" xmlns="http://www.w3.org/2000/svg" width="56.602" height="18.004" viewBox="0 0 56.602 18.004">
    <defs>
        <style>
            .cls-1{fill:#888}
        </style>
    </defs>
    <path id="Subtraction_14" data-name="Subtraction 14" class="cls-1" d="M13.941 18H4.057A4.1 4.1 0 0 1 0 13.947V4.1A4.081 4.081 0 0 1 4.057 0h9.884a4.058 4.058 0 0 1 2.883 1.207A4.13 4.13 0 0 1 18 4.1v9.83A4.079 4.079 0 0 1 13.941 18zM12.7 11.6l-.057.135-.042.1a9.141 9.141 0 0 0-.918 3.48c0 .01.008.965.708 1.2a1.177 1.177 0 0 0 .275.031.562.562 0 0 0 .449-.166.574.574 0 0 0 .054-.5 4.217 4.217 0 0 1-.129-1.682 17.24 17.24 0 0 1 1.09-3.42v-.008c.157-.328 1.563-3.242 2.385-4.619a.7.7 0 0 0 .038-.574.456.456 0 0 0-.42-.172.733.733 0 0 0-.579.293L13.417 9.5c-.35.643-.67.779-.876.779a.344.344 0 0 1-.289-.137 1.451 1.451 0 0 1-.052-1.031 12.681 12.681 0 0 1 1.13-3.057.707.707 0 0 0 .047-.652.6.6 0 0 0-.424-.25h-.006a.573.573 0 0 0-.106-.012c-.42 0-.74.67-.743.676l-.845 1.727a31.149 31.149 0 0 1-1.811 2.771c-.027.029-.092.1-.155.1a.09.09 0 0 1-.045-.016c-.079-.062-.044-.193-.04-.209a22.837 22.837 0 0 1 .707-3.479l.007-.035a.781.781 0 0 0 .02-.16.563.563 0 0 0-.129-.428.5.5 0 0 0-.392-.2 1.057 1.057 0 0 0-.108-.006c-.309 0-.489.178-.8.557-.563.691-1.2 1.648-1.663 2.348l-.009.014c-.147.223-.273.412-.375.563a.076.076 0 0 1-.063.041.053.053 0 0 1-.043-.021.1.1 0 0 1-.019-.064c0-.248.749-2.594.979-3.307l.009-.029c0-.018.1-.43-.227-.564a.672.672 0 0 0-.32-.082.754.754 0 0 0-.627.393L4.115 8.5c-.094.127-.162.154-.2.154a.074.074 0 0 1-.037-.01v-.187L4.2 6.646a1.805 1.805 0 0 0-.068-1.27.634.634 0 0 0-.461-.24h-.01a1.25 1.25 0 0 0-.667.2c-.625.307-1.112 1.553-1.117 1.564s-.136.453.169.641a.628.628 0 0 0 .277.082.45.45 0 0 0 .052 0c.24-.014.378-.264.5-.482.1-.186.206-.377.358-.377.05 0 .058.055.058.086l-1.044 4.392a.624.624 0 0 0 .253.668.606.606 0 0 0 .314.082.871.871 0 0 0 .14-.012.66.66 0 0 0 .351-.271l.383-.592a13.761 13.761 0 0 1 1.668-2.375c.044 0 .058 0 .058.039l-.383 2.59a.529.529 0 0 0 .3.564.75.75 0 0 0 .254.045.72.72 0 0 0 .337-.084 2.063 2.063 0 0 0 .525-.623c.064-.1.2-.275.39-.527A19.309 19.309 0 0 0 8.3 8.627c.012-.02.026-.031.039-.031a.032.032 0 0 1 .026.018.065.065 0 0 1 .006.057 22.949 22.949 0 0 0-.24 2.506.845.845 0 0 0 .206.641.667.667 0 0 0 .359.191h.076a1.069 1.069 0 0 0 .89-.457l1.481-1.992a2.018 2.018 0 0 0 .18 1.742.984.984 0 0 0 .817.408 1.556 1.556 0 0 0 .557-.111z" transform="translate(23.248)"/>
    <path id="Path_8301" data-name="Path 8301" class="cls-1" d="M4.794 117.488H3.663v-2.531a1.565 1.565 0 0 0-.17-.806.625.625 0 0 0-.58-.269.985.985 0 0 0-.537.141 1.345 1.345 0 0 0-.41.438v3.026H.835v-4.6h.636l.424.622c.113-.1.226-.184.339-.269a2.779 2.779 0 0 1 .353-.184 2.011 2.011 0 0 1 .382-.127 1.919 1.919 0 0 1 .41-.042 1.587 1.587 0 0 1 .452.056 1.817 1.817 0 0 1 .339.155 1.926 1.926 0 0 1 .24.241 1.993 1.993 0 0 1 .2.325 2.8 2.8 0 0 1 .3-.269 2.5 2.5 0 0 1 .382-.24 1.983 1.983 0 0 1 .424-.212 2.121 2.121 0 0 1 .523-.071 1.41 1.41 0 0 1 .636.156 1.264 1.264 0 0 1 .438.424 2.2 2.2 0 0 1 .24.665 3.936 3.936 0 0 1 .085.82v2.545H6.491v-2.531a1.327 1.327 0 0 0-.17-.806.6.6 0 0 0-.566-.269 1.055 1.055 0 0 0-.537.141 1.26 1.26 0 0 0-.424.438" transform="translate(-.835 -106.215)"/>
    <path id="Path_8302" data-name="Path 8302" class="cls-1" d="M133.194 115.521h-1a.989.989 0 0 0-.594.156.621.621 0 0 0-.184.438.566.566 0 0 0 .17.41.68.68 0 0 0 .467.141 1.19 1.19 0 0 0 .382-.057 1.3 1.3 0 0 0 .325-.127 2.024 2.024 0 0 0 .255-.212 1.56 1.56 0 0 0 .2-.255m-.014 1.089a1.8 1.8 0 0 1-.551.368 2.117 2.117 0 0 1-.834.141 1.421 1.421 0 0 1-.594-.1 1.274 1.274 0 0 1-.763-.763 1.613 1.613 0 0 1-.1-.58c0-.848.665-1.4 1.725-1.4h1.131v-.255a.426.426 0 0 0-.24-.382 1.627 1.627 0 0 0-.735-.141 4.077 4.077 0 0 0-.834.1 5.586 5.586 0 0 0-.636.212l-.127-.947a1.651 1.651 0 0 1 .3-.113c.113-.042.255-.071.382-.113s.3-.057.467-.085a3.347 3.347 0 0 1 .537-.028 2.012 2.012 0 0 1 1.456.466 1.805 1.805 0 0 1 .495 1.357v2.771h-.806z" transform="translate(-122.702 -106.341)"/>
    <path id="Path_8303" data-name="Path 8303" class="cls-1" d="m219.54 85.79-1.824 2.291 2.079 2.361h-1.415l-1.923-2.333v2.333h-1.117V84.15h1.117v3.959l1.711-2.319h1.371" transform="translate(-202.671 -79.184)"/>
    <path id="Path_8304" data-name="Path 8304" class="cls-1" d="M293 114.417a1.31 1.31 0 0 0-.41.057.808.808 0 0 0-.311.156.617.617 0 0 0-.226.24 1.2 1.2 0 0 0-.127.311h1.994a.737.737 0 0 0-.057-.3.68.68 0 0 0-.17-.24 1.156 1.156 0 0 0-.283-.17 1.068 1.068 0 0 0-.41-.057m.212 2.588a2.195 2.195 0 0 0 .523-.057 2.375 2.375 0 0 0 .452-.127 1.737 1.737 0 0 0 .368-.17 1.187 1.187 0 0 0 .17-.113l.212 1a4.587 4.587 0 0 1-.764.325 3.66 3.66 0 0 1-.962.127 3.31 3.31 0 0 1-1.046-.17 2.087 2.087 0 0 1-.749-.467 1.867 1.867 0 0 1-.467-.721 2.49 2.49 0 0 1-.2-.919 2.646 2.646 0 0 1 .141-.877 2.224 2.224 0 0 1 .438-.749 1.884 1.884 0 0 1 .693-.495 2.615 2.615 0 0 1 1.909 0 1.779 1.779 0 0 1 .65.466 2.087 2.087 0 0 1 .382.665 2.978 2.978 0 0 1 .113.792v.24c-.014.085-.028.17-.043.24h-3.122a1.063 1.063 0 0 0 .127.424.854.854 0 0 0 .269.325.811.811 0 0 0 .4.2 1.477 1.477 0 0 0 .509.085v-.028z" transform="translate(-273.628 -106.723)"/>
    <path id="Path_8305" data-name="Path 8305" class="cls-1" d="m717.4 95.3 1.5-1.81h.339v1.145h1.287v.99h-1.287v1.895a1.368 1.368 0 0 0 .042.325.84.84 0 0 0 .127.212.525.525 0 0 0 .2.1.587.587 0 0 0 .226.042 1.058 1.058 0 0 0 .368-.056 1.149 1.149 0 0 0 .311-.1v1a1.509 1.509 0 0 1-.382.127 2.412 2.412 0 0 1-1.188-.042 1.275 1.275 0 0 1-.481-.283 1.329 1.329 0 0 1-.269-.452 1.679 1.679 0 0 1-.085-.594V95.65h-.735" transform="translate(-675.049 -87.97)"/>
    <path id="Path_8306" data-name="Path 8306" class="cls-1" d="M786.421 113.9a2.225 2.225 0 0 1 .65-.707 1.236 1.236 0 0 1 .806-.24.762.762 0 0 1 .255 0l.156.028s-.028.255-.2 1.046a.771.771 0 0 0-.254-.014 1.291 1.291 0 0 0-.566.1 1.067 1.067 0 0 0-.424.325 1.522 1.522 0 0 0-.269.495 2.8 2.8 0 0 0-.085.679v1.937h-1.13v-4.6h.707" transform="translate(-739.024 -106.272)"/>
    <path id="Path_8307" data-name="Path 8307" class="cls-1" d="M886.171 114.089a.8.8 0 0 0-.368.057 1.337 1.337 0 0 0-.311.17 1.151 1.151 0 0 0-.226.226.987.987 0 0 0-.141.269v1.3a.867.867 0 0 0 .17.226 1.444 1.444 0 0 0 .226.184 1.335 1.335 0 0 0 .3.127 1.444 1.444 0 0 0 .848-.043 1.059 1.059 0 0 0 .339-.269 1.079 1.079 0 0 0 .212-.4 3.305 3.305 0 0 0 .085-.537 1.847 1.847 0 0 0-.085-.537 1.2 1.2 0 0 0-.212-.424 1.051 1.051 0 0 0-.792-.368m.269-.99a1.844 1.844 0 0 1 .877.184 1.793 1.793 0 0 1 .608.523 2.431 2.431 0 0 1 .353.749 3.6 3.6 0 0 1 .113.863 3.058 3.058 0 0 1-.127.877 1.941 1.941 0 0 1-.368.721 1.712 1.712 0 0 1-.608.495 1.892 1.892 0 0 1-.834.184 2.2 2.2 0 0 1-.806-.141 1.617 1.617 0 0 1-.566-.41v2.39h-1.131v-6.434h.665l.438.551a2.195 2.195 0 0 1 .622-.424 1.943 1.943 0 0 1 .75-.127z" transform="translate(-831.831 -106.408)"/>
    <path id="Path_8308" data-name="Path 8308" class="cls-1" d="M845.312 81.053a.573.573 0 0 0-.58.58.58.58 0 1 0 1.159 0 .516.516 0 0 0-.17-.41.556.556 0 0 0-.41-.184m.551 6.49h-1.131v-4.6h1.131z" transform="translate(-794.889 -76.257)"/>
</svg>
