<svg xmlns="http://www.w3.org/2000/svg" viewBox="0 0 21.04 13.59"><defs><style>.cls-1{fill:#888;}</style></defs><g id="Layer_2" data-name="Layer 2"><g id="Layer_1-2" data-name="Layer 1"><g id="haepM3.tif"><path class="cls-1" d="M18.11,9.8a2.3,2.3,0,0,1-1.72,3,2.32,2.32,0,0,1-2.71-2.55L8,10.92v.14a2.3,2.3,0,0,1-1.34,2.32A2.26,2.26,0,0,1,3.52,11.7a2,2,0,0,1,0-.24l-.81.08-1.21.14c-.17,0-.25,0-.28-.19C.84,10.07.43,8.66.19,7.21A11.8,11.8,0,0,1,0,4.63,6.13,6.13,0,0,1,.22,3.42a1.79,1.79,0,0,1,.94-1.11,9.35,9.35,0,0,1,2.64-1C4.88,1.09,6,.84,7,.65,7.92.49,8.82.37,9.71.28,10.78.18,11.85.1,12.91,0a33.37,33.37,0,0,1,4,0c.38,0,.76.05,1.15.06a1.56,1.56,0,0,1,1,.44,4.57,4.57,0,0,1,1.11,1.67A11.14,11.14,0,0,1,21,5.48a9.53,9.53,0,0,1-.12,2.87c-.07.34-.2.66-.3,1a.3.3,0,0,1-.3.22l-1.7.18ZM14.68.54,12,.66c-1.44.06-2.87.21-4.29.41a28.48,28.48,0,0,0-4.55,1,7.27,7.27,0,0,0-1.85.81,1.17,1.17,0,0,0-.57.83A5.16,5.16,0,0,0,.55,5.48a1.66,1.66,0,0,1,0,.22c.06.51.09,1,.19,1.53.25,1.22.54,2.43.81,3.65a.23.23,0,0,0,.3.21l.74-.1.66-.07a.27.27,0,0,0,.24-.2A2.21,2.21,0,0,1,5.45,9a2.13,2.13,0,0,1,1.86.64,4.47,4.47,0,0,1,.45.6.26.26,0,0,0,.28.14c.16,0,.33,0,.49-.05l2.38-.29q1.35-.17,2.7-.3a.35.35,0,0,0,.28-.2l.17-.28a2.19,2.19,0,0,1,2-1,2.24,2.24,0,0,1,1.69.85.36.36,0,0,0,.36.16l1.72-.21c.36,0,.36,0,.44-.4a9.66,9.66,0,0,0,.26-1.52,10.85,10.85,0,0,0-.71-4.51,4.16,4.16,0,0,0-1-1.52,1.23,1.23,0,0,0-.77-.4A31.88,31.88,0,0,0,14.68.54Zm-8.89,9a1.72,1.72,0,0,0-1.74,1.68A1.76,1.76,0,0,0,5.8,13a1.7,1.7,0,0,0,1.68-1.68A1.68,1.68,0,0,0,5.79,9.58ZM16,12.31a1.7,1.7,0,0,0,1.72-1.7,1.74,1.74,0,0,0-1.76-1.73,1.72,1.72,0,0,0,0,3.43Z"/><path class="cls-1" d="M12.81,5l.12.06a1,1,0,0,1,.61,1.36,1,1,0,0,1-1,.77l-1.83.07c-.09,0-.11,0-.11-.12,0-.45,0-.9,0-1.35,0-.87,0-1.74,0-2.61V3h.52c.49,0,1,0,1.46,0a.9.9,0,0,1,.89,1.07.85.85,0,0,1-.38.7ZM11.43,6.49H12c.49,0,.68-.21.66-.7v0a.57.57,0,0,0-.38-.53,3.46,3.46,0,0,0-.85,0Zm0-2.85c0,.37,0,.74,0,1.11,0,0,0,0,.06,0a4,4,0,0,0,.6,0,.47.47,0,0,0,.42-.49.55.55,0,0,0-.35-.63A2,2,0,0,0,11.43,3.64Z"/><path class="cls-1" d="M9,4.24V3h.76V7.15a4.13,4.13,0,0,1-.5,0c-.12,0-.16-.06-.28-.26L8.83,7a1.4,1.4,0,0,1-.73.2,1,1,0,0,1-.86-.44,1.78,1.78,0,0,1-.12-1.92,1.25,1.25,0,0,1,1.13-.67,1.57,1.57,0,0,1,.68.08ZM9,5.5H9V5.08a.23.23,0,0,0-.15-.24,1.65,1.65,0,0,0-.44-.1.55.55,0,0,0-.59.41,1.77,1.77,0,0,0-.05.76.69.69,0,0,0,1.14.45A.25.25,0,0,0,9,6.11Z"/><path class="cls-1" d="M6.6,5.82H4.45a.65.65,0,0,0,.68.68c.32,0,.63-.08,1-.13l.14,0c0,.19,0,.36,0,.54A.22.22,0,0,1,6.11,7a2.07,2.07,0,0,1-1.69,0,1.25,1.25,0,0,1-.77-.94A1.66,1.66,0,0,1,4.1,4.42,1.55,1.55,0,0,1,5.83,4.2a1.37,1.37,0,0,1,.69,1C6.56,5.39,6.57,5.6,6.6,5.82Zm-.83-.4a.59.59,0,0,0-.32-.59.71.71,0,0,0-.78,0,.61.61,0,0,0-.24.56Z"/><path class="cls-1" d="M16.08,7.16l0-.3L15.68,7a1.24,1.24,0,0,1-1,.11.73.73,0,0,1-.55-.75c0-.69,0-1.39,0-2.08,0,0,0,0,0-.06h.76V5.9a.49.49,0,0,0,0,.12.47.47,0,0,0,.59.45l.19,0A.42.42,0,0,0,16.07,6c0-.31,0-.62,0-.93V4.34a.15.15,0,0,1,.06-.09h.71a2.48,2.48,0,0,1,0,.27V6.89c0,.24-.06.29-.3.27Z"/><path class="cls-1" d="M19.53,4.84l-.84-.13a.44.44,0,0,0-.4.15.15.15,0,0,0,0,.21.4.4,0,0,0,.3.17l.44.08a.82.82,0,0,1,.77.67,1,1,0,0,1-.41,1,1.06,1.06,0,0,1-.78.22c-.37,0-.74-.12-1.1-.18,0,0-.06,0-.06-.06V6.35l.66.11.45.07a.56.56,0,0,0,.47-.3c0-.1-.09-.26-.23-.3l-.59-.11a.78.78,0,0,1-.69-.58.84.84,0,0,1,.27-.89,1.17,1.17,0,0,1,.9-.3c.24,0,.48,0,.72.08a.13.13,0,0,1,.13.13C19.54,4.45,19.53,4.64,19.53,4.84Z"/><path class="cls-1" d="M2.19,4.16l0,.26a1.71,1.71,0,0,0,.23-.13,1.05,1.05,0,0,1,.79-.18q.15,0,.15.15c0,.23,0,.45,0,.65H2.77a1.26,1.26,0,0,0-.33,0,.32.32,0,0,0-.24.28,1.5,1.5,0,0,0,0,.22V7.14H1.51a.11.11,0,0,1-.08,0,.65.65,0,0,1,0-.19c0-.69,0-1.39,0-2.08,0-.18,0-.35,0-.53s0-.07.08-.07Z"/></g></g></g></svg>