<svg xmlns="http://www.w3.org/2000/svg" width="37.2" height="16" viewBox="0 0 37.2 16">
    <defs>
        <style>
            .cls-4{isolation:isolate}.cls-2,.cls-4{fill:#888}.cls-4{mix-blend-mode:multiply}
        </style>
    </defs>
    <g id="logo-Yatra" transform="translate(-.029)" style="isolation:isolate;opacity:.5">
        <g id="Layer_1_copy" data-name="Layer 1 copy" transform="translate(.029)">
            <path id="Path_8321" data-name="Path 8321" class="cls-2" d="M402.906 216.837a.8.8 0 0 1 .831.739.8.8 0 0 1-.531.984h-.011a6.821 6.821 0 0 1-1.2.116 3.232 3.232 0 0 1-2.038-.605 2.829 2.829 0 0 1-1.029-2.353v-9.446a.9.9 0 0 1 1.748 0v9.449a1.158 1.158 0 0 0 .346.966c.207.159.711.362 1.866.154z" transform="translate(-380.082 -205.58)"/>
            <path id="Path_8322" data-name="Path 8322" class="cls-2" d="M180.262 246.215c-.317 0-.616-.465-.771-.766a190.197 190.197 0 0 1-1.926-3.85c-1.011-2.067-1.559-3.051-2.013-3.4a.911.911 0 0 1-.33-1.208.852.852 0 0 1 1.17-.324c.973.553 1.48 1.587 2.744 4.166.49 1 1.1 2.245 1.9 3.8.2.384.337 1.158-.009 1.414z" transform="translate(-175.109 -233.943)"/>
            <path id="Path_8323" data-name="Path 8323" class="cls-2" d="M386.682 242.614a4.16 4.16 0 0 0-4.157-4.156h-3.674a.9.9 0 0 1 0-1.748h3.674a5.9 5.9 0 0 1 5.9 5.9v3.89a.9.9 0 0 1-1.748 0z" transform="translate(-361.061 -234.089)"/>
            <path id="Path_8324" data-name="Path 8324" class="cls-2" d="M200.343 243.687v.093c0 1-.808 1.641-2.074 1.641s-2.083-.643-2.083-1.64.818-1.643 2.083-1.643h.077a18.342 18.342 0 0 1 3.753.659v-1.662a11.225 11.225 0 0 0-3.753-.743h-.077c-2.343 0-3.831 1.52-3.831 3.39s1.488 3.386 3.831 3.386 3.831-1.516 3.831-3.386v-.082l-.008-3.628a3.686 3.686 0 0 0-3.823-3.386l-.337-.005c-2.664 0-4.751.721-6.275 4.239-.125.287-.243.573-.357.856l-.017.04c-.365.9-.579 1.562-1.1 2.779-.984 2.274-1.866 3.6-3.209 3.679a.783.783 0 0 0-.816 1.011.836.836 0 0 0 .816.776c2.189 0 3.558-2.014 4.869-4.884l.016-.037c.2-.467.391-.952.589-1.454.261-.674.531-1.374.831-2.067 1.165-2.688 2.483-3.185 4.662-3.185h.337c.934 0 2.074.643 2.074 1.638v3.605" transform="translate(-185.203 -234.061)"/>
            <path id="Path_8325" data-name="Path 8325" class="cls-2" d="M489.192 243.742v.093c0 1-.819 1.641-2.084 1.641s-2.083-.643-2.083-1.64.818-1.643 2.083-1.643h.078a18.366 18.366 0 0 1 3.754.659v-1.662a11.247 11.247 0 0 0-3.754-.743h-.078c-2.343 0-3.831 1.52-3.831 3.39s1.488 3.386 3.831 3.386 3.831-1.516 3.831-3.386v-.084l-.008-3.628a3.681 3.681 0 0 0-3.823-3.38s-.628-.006-.758-.006c-4.306 0-6.989 2.808-6.989 6.689h1.748c0-2.912 1.9-4.941 5.239-4.941.154 0 .64.007.64.007 1.255 0 2.2.636 2.2 1.631v3.621z" transform="translate(-453.739 -234.116)"/>
        </g>
        <g id="shadow" transform="translate(2.485 2.64)">
            <g id="Group_3809" data-name="Group 3809" style="mix-blend-mode:multiply;opacity:.7;isolation:isolate">
                <path id="Path_8326" data-name="Path 8326" class="cls-4" d="M340.55 304.45v1.394a1.573 1.573 0 0 1-1.32 1.551v1.78a3.374 3.374 0 0 0 3.076-3.33v-.982c-.206-.053-1.259-.29-1.756-.413z" transform="translate(-327.865 -298.764)"/>
                <path id="Path_8327" data-name="Path 8327" class="cls-4" d="M581.659 304.45v1.394a1.581 1.581 0 0 1-1.329 1.554v1.779a3.374 3.374 0 0 0 3.076-3.33v-.982c-.206-.055-1.251-.292-1.747-.415z" transform="translate(-548.662 -298.764)"/>
                <path id="Path_8328" data-name="Path 8328" class="cls-4" d="M435.22 236.93v1.753a4.161 4.161 0 0 1 3.717 4.132v.214h.022a6.761 6.761 0 0 1 .967-3.11 5.9 5.9 0 0 0-4.706-2.989z" transform="translate(-415.772 -236.93)"/>
                <path id="Rectangle_2815" data-name="Rectangle 2815" class="cls-4" transform="translate(16.392 1.73)" d="M0 0h1.749v4.435H0z"/>
                <path id="Path_8329" data-name="Path 8329" class="cls-4" d="M204.27 288.148c.5 1.011 1.113 2.274 1.926 3.85.023.045.049.093.078.142.168-.342.343-.715.517-1.118.153-.353.279-.658.391-.936-.536-1.059-.973-1.952-1.342-2.706z" transform="translate(-204.27 -283.132)"/>
            </g>
        </g>
    </g>
</svg>
