<svg width="64" height="21" viewBox="0 0 64 21" fill="none" xmlns="http://www.w3.org/2000/svg">
<g clip-path="url(#clip0_6459_2408)">
<path d="M41.8262 20.5995C42.4202 20.5949 43.0073 20.4712 43.5527 20.2357C44.098 20.0002 44.5906 19.6576 45.0012 19.2283C45.8474 18.3482 46.318 17.1734 46.3138 15.9525V4.73745C46.3166 3.50997 45.853 2.32726 45.0167 1.42874C44.6043 0.99787 44.1093 0.654486 43.5614 0.419081C43.0134 0.183676 42.4236 0.0610746 41.8272 0.0585938H30.8968C30.303 0.0633866 29.7161 0.187201 29.1709 0.422715C28.6258 0.65823 28.1333 1.00066 27.7228 1.42977C26.8761 2.32245 26.406 3.5071 26.4102 4.73745V15.969C26.4256 18.5181 28.4269 20.5841 30.8968 20.5995" fill="#CF381E"/>
<path d="M38.7313 10.965C38.3088 12.4174 38.9964 13.8698 40.4509 13.288C40.0295 14.3374 39.3254 15.9029 39.3254 17.5331C39.3254 17.5331 39.3254 18.6298 40.1065 18.9043C40.1065 18.9043 41.2012 19.1787 40.9669 18.1776C40.7954 17.5528 40.7476 16.9006 40.8261 16.2575C41.0938 14.9183 41.4974 13.6099 42.0307 12.3526C42.0307 12.3526 43.7031 8.75509 44.6723 7.07658C44.6723 7.07658 45.0794 6.2214 44.2509 6.2214C44.1249 6.22393 44.0013 6.25593 43.8899 6.31483C43.7786 6.37374 43.6825 6.4579 43.6095 6.56059L41.2485 10.9003C40.8888 11.5786 40.5454 11.7883 40.2792 11.7883C39.6851 11.7883 39.8105 10.8036 39.9041 10.449C40.1692 9.23819 40.5927 8.0767 41.155 6.96352C41.5764 6.01171 40.7325 5.93051 40.7325 5.93051C40.2011 5.78558 39.7941 6.68908 39.7941 6.68908L38.8567 8.65744C38.2473 9.74715 37.5793 10.803 36.8554 11.8202C36.8554 11.8202 36.73 11.9816 36.6365 11.9168C36.5419 11.8366 36.5892 11.6753 36.5892 11.6753C36.7454 10.336 37.0106 9.01309 37.3704 7.70564C37.3868 7.62444 37.4012 7.56071 37.4012 7.47951C37.4204 7.30632 37.3701 7.13257 37.2614 6.99641C37.2114 6.92684 37.1457 6.87008 37.0696 6.83078C36.9935 6.79147 36.9092 6.77074 36.8235 6.77028C36.4021 6.72094 36.1976 6.93062 35.8224 7.39933C34.9939 8.44776 34.0246 10.0296 33.5559 10.7399C33.5087 10.8201 33.4151 10.8036 33.4151 10.6906C33.4151 10.3678 34.5098 6.88231 34.5098 6.88231C34.5098 6.88231 34.6342 6.39922 34.259 6.23681C34.259 6.23681 33.6813 5.86678 33.2116 6.59246L30.9606 9.75521C30.7879 9.99676 30.6944 9.91658 30.6944 9.91658V9.7069L31.0541 7.64088C31.3357 6.06002 30.8033 5.97882 30.46 5.91406C30.2092 5.91406 29.944 5.99526 29.7251 6.14019C29.021 6.49584 28.4896 7.93177 28.4896 7.93177C28.4896 7.93177 28.3333 8.44776 28.6766 8.65744C28.7866 8.7222 28.912 8.77051 29.0364 8.75406C29.537 8.7222 29.6315 7.77039 29.9903 7.77039C30.053 7.77039 30.053 7.85057 30.053 7.86701L28.8966 12.8851C28.8605 13.025 28.868 13.1727 28.9182 13.3083C28.9683 13.4438 29.0587 13.5609 29.1772 13.6436C29.3345 13.7403 29.5061 13.7567 29.6778 13.7248C29.8396 13.6707 29.9777 13.5621 30.0684 13.4175L30.4908 12.7401C31.1004 11.627 32.2269 10.0296 32.3359 10.0296C32.3831 10.0296 32.3986 10.0296 32.3986 10.078L31.9771 13.031C31.9562 13.1594 31.9767 13.291 32.0356 13.4069C32.0946 13.5228 32.189 13.6169 32.305 13.6755C32.4114 13.7158 32.5253 13.7323 32.6388 13.7239C32.7522 13.7156 32.8625 13.6826 32.9618 13.6272C33.1962 13.434 33.3997 13.1914 33.5405 12.918C33.7749 12.5305 34.9004 11.1582 35.588 9.90014C35.6353 9.81894 35.6826 9.90014 35.6662 9.94845C35.5264 10.6104 35.4164 12.3691 35.401 12.8049C35.3701 13.6601 36.0105 13.7567 36.0259 13.7567C36.4484 13.7886 36.8544 13.5953 37.0898 13.2407" fill="white"/>
<path d="M5.08204 12.9185H3.83112V10.0302C3.84965 9.71254 3.78518 9.39551 3.64405 9.11029C3.57564 9.00514 3.47961 8.92084 3.36648 8.86663C3.25335 8.81242 3.12748 8.79039 3.00266 8.80295C2.78372 8.80295 2.58123 8.85126 2.40855 8.96433C2.22177 9.09501 2.06683 9.26611 1.95526 9.4649V12.9185H0.704346V7.67333H1.40741L1.87714 8.38256C2.00254 8.26949 2.12692 8.17287 2.25232 8.07625C2.37772 7.99505 2.50209 7.93132 2.64291 7.86657C2.78372 7.80181 2.92454 7.7535 3.06536 7.72164C3.20618 7.68874 3.36241 7.67333 3.51865 7.67333C3.6903 7.67333 3.86299 7.68874 4.01922 7.73705C4.14462 7.78536 4.26899 7.83367 4.39439 7.91488C4.48793 7.99505 4.58147 8.0927 4.66061 8.18932C4.75312 8.3178 4.81685 8.43087 4.87955 8.56038C5.09423 8.3249 5.3481 8.12841 5.62989 7.97963C5.77071 7.88301 5.92695 7.80181 6.0986 7.73705C6.2867 7.68874 6.47377 7.65688 6.67729 7.65688C6.92706 7.65688 7.16142 7.72164 7.38035 7.83367C7.58387 7.96319 7.75655 8.12456 7.86551 8.3178C7.99091 8.56038 8.08444 8.80193 8.13173 9.07637C8.1934 9.3837 8.22423 9.69001 8.22423 10.0117V12.9175H6.95996V10.0302C6.99079 9.70748 6.92912 9.38473 6.77186 9.11029C6.70679 9.0058 6.61376 8.92162 6.50331 8.8673C6.39285 8.81298 6.26939 8.79069 6.14691 8.80295C5.94339 8.80295 5.73988 8.85229 5.5528 8.96433C5.3576 9.09021 5.1963 9.2621 5.08307 9.4649L5.08204 12.9185ZM12.3059 10.5298H11.1958C10.9633 10.5158 10.7327 10.5783 10.539 10.7076C10.4093 10.8416 10.3367 11.0207 10.3365 11.2071C10.3365 11.385 10.3982 11.5463 10.5236 11.6758C10.6644 11.7889 10.8525 11.8526 11.0396 11.8372C11.1804 11.8372 11.3212 11.8208 11.461 11.7725C11.5874 11.7406 11.7118 11.6913 11.8207 11.6275C11.9307 11.5463 12.0243 11.4662 12.1034 11.385C12.1959 11.2883 12.2596 11.1917 12.3223 11.0951L12.3059 10.5298V10.5298ZM12.3059 12.3368C12.1342 12.5146 11.9153 12.6595 11.6964 12.7572C11.3993 12.8702 11.0868 12.934 10.7744 12.9185C10.5494 12.9298 10.3248 12.8912 10.1165 12.8055C9.92662 12.7229 9.7524 12.6082 9.60158 12.4663C9.46285 12.3085 9.35166 12.1285 9.27266 11.9338C9.19737 11.7218 9.16048 11.498 9.16371 11.2729C9.16371 10.3047 9.89863 9.67459 11.0714 9.67459H12.3213V9.38473C12.3217 9.29467 12.2971 9.20627 12.2503 9.12934C12.2035 9.0524 12.1363 8.98995 12.0561 8.94891C11.8019 8.8308 11.5231 8.77546 11.2431 8.78754C10.9306 8.78754 10.6171 8.83585 10.3201 8.9006C10.081 8.96662 9.84617 9.04729 9.617 9.14215L9.47618 8.06083C9.5543 8.01252 9.66428 7.98066 9.8051 7.93235C9.92947 7.88404 10.0857 7.85115 10.2265 7.80284C10.3673 7.77097 10.5554 7.73808 10.7425 7.70622C10.9306 7.67435 11.1331 7.67435 11.3366 7.67435C11.6271 7.65097 11.9192 7.68604 12.1959 7.77749C12.4725 7.86894 12.728 8.01491 12.9473 8.20679C13.3379 8.62616 13.526 9.19046 13.4941 9.75579V12.9185H12.603L12.3059 12.3368V12.3368ZM19.3581 7.59418L17.3414 10.207L19.6397 12.9021H18.0764L15.9487 10.2399V12.9021H14.7152V5.7214H15.9487V10.2399L17.841 7.59315H19.3581V7.59418ZM22.1251 8.83585C21.9689 8.83585 21.8127 8.85229 21.6729 8.9006C21.5464 8.93337 21.4288 8.99375 21.3285 9.0774C21.2216 9.14448 21.1349 9.23933 21.0777 9.35184C21.0161 9.4649 20.9688 9.57797 20.9369 9.70748H23.1417C23.1417 9.59441 23.1263 9.48135 23.08 9.36828C23.0379 9.26428 22.9737 9.17065 22.8919 9.09384C22.7977 9.01463 22.6924 8.94953 22.5795 8.9006C22.4339 8.84864 22.2794 8.82661 22.1251 8.83585ZM22.3605 11.7889C22.5476 11.7889 22.7511 11.7725 22.9382 11.7242C23.1109 11.6913 23.2825 11.643 23.4387 11.5792C23.5796 11.5299 23.7204 11.4662 23.8458 11.385C23.9075 11.3531 23.9702 11.3048 24.0329 11.2565L24.2672 12.4015C23.998 12.551 23.7155 12.6752 23.4233 12.7726C23.0774 12.8696 22.7198 12.9187 22.3605 12.9185C21.9699 12.9185 21.5783 12.8538 21.2031 12.7243C20.8917 12.6088 20.6091 12.4271 20.3747 12.1918C20.1419 11.9609 19.9654 11.6796 19.8587 11.3695C19.7217 11.0366 19.6474 10.6811 19.6397 10.3211C19.6397 9.98192 19.686 9.64272 19.796 9.31997C19.9049 8.99722 20.0612 8.72278 20.2801 8.46479C20.4836 8.22221 20.7498 8.02897 21.0469 7.89946C21.7236 7.62512 22.4805 7.62512 23.1571 7.89946C23.4387 8.01252 23.6731 8.20679 23.8766 8.43189C24.0647 8.65802 24.2055 8.91602 24.298 9.19046C24.3772 9.48135 24.4245 9.78662 24.4245 10.095V10.3684C24.408 10.465 24.3936 10.5627 24.3772 10.6428H20.9215C20.9369 10.8207 20.9832 10.982 21.0623 11.127C21.124 11.2719 21.234 11.4014 21.3594 11.498C21.4848 11.6111 21.6256 11.6913 21.7972 11.7242C21.9689 11.7889 22.157 11.8208 22.3595 11.8208V11.7889H22.3605ZM47.534 8.41648L49.191 6.35046H49.5672V7.65791H50.9897V8.78651H49.5672V10.9481C49.5672 11.0612 49.5826 11.1907 49.6134 11.3192C49.6483 11.4065 49.6958 11.4882 49.7542 11.5618C49.8169 11.6101 49.8951 11.6584 49.9732 11.6748C50.0526 11.7079 50.138 11.7243 50.224 11.7231C50.3638 11.7231 50.5046 11.7067 50.63 11.6584C50.7554 11.643 50.8643 11.5936 50.9743 11.5453V12.6924C50.8489 12.7572 50.7081 12.8055 50.5519 12.8373C50.1171 12.9346 49.6647 12.918 49.2383 12.789C49.0392 12.7226 48.8576 12.6123 48.7068 12.4663C48.5749 12.3154 48.474 12.1401 48.4098 11.9503C48.3393 11.7313 48.3077 11.5017 48.3163 11.2719V8.8194H47.5032L47.534 8.41648ZM53.1164 8.75567C53.3045 8.43189 53.5378 8.15848 53.8359 7.94777C54.0857 7.75453 54.3982 7.65791 54.7271 7.67435C54.8202 7.65803 54.9155 7.65803 55.0087 7.67435L55.1804 7.70519C55.1804 7.70519 55.1495 7.99711 54.9614 8.9006C54.8679 8.88416 54.7733 8.86771 54.6798 8.88416C54.4655 8.87303 54.2516 8.91173 54.0549 8.99722C53.8691 9.07871 53.7074 9.20647 53.5851 9.36828C53.4523 9.53695 53.3516 9.72857 53.2881 9.93361C53.2264 10.1906 53.1945 10.4496 53.1945 10.7076V12.9175H51.9436V7.67538H52.7248L53.1164 8.75567ZM60.7936 8.8194C60.655 8.80798 60.5157 8.83019 60.3876 8.88416C60.1493 8.97305 59.9426 9.13039 59.7934 9.33642C59.7307 9.43304 59.668 9.52966 59.6362 9.64272V11.127C59.6844 11.2226 59.748 11.3098 59.8243 11.385C59.9024 11.4662 59.9805 11.5299 60.074 11.5946C60.184 11.6594 60.293 11.7077 60.403 11.7406C60.7154 11.8208 61.0433 11.8043 61.3404 11.6913C61.4812 11.6111 61.622 11.5145 61.7156 11.385C61.8255 11.2554 61.9037 11.0941 61.9509 10.9327C61.9972 10.7395 62.0291 10.5298 62.0445 10.3201C62.0445 10.1268 62.0136 9.91716 61.9509 9.70645C61.9048 9.53157 61.8249 9.36744 61.7156 9.22335C61.6119 9.09108 61.4779 8.98568 61.325 8.91602C61.1754 8.83905 61.0091 8.80021 60.8408 8.80295L60.7936 8.8194V8.8194ZM61.1379 7.67435C61.4812 7.65791 61.8101 7.73808 62.1072 7.88404C62.3724 8.02794 62.5913 8.22324 62.7794 8.4802C62.9511 8.73923 63.0919 9.02909 63.17 9.33539C63.2481 9.65814 63.2954 9.99734 63.2954 10.3201C63.2954 10.6593 63.2481 10.9985 63.1546 11.3202C63.0775 11.6197 62.9393 11.9001 62.7486 12.1435C62.5715 12.3817 62.3413 12.5753 62.0763 12.7089C61.7894 12.8502 61.4732 12.9221 61.1533 12.9185C60.8486 12.9227 60.546 12.8679 60.2621 12.7572C60.0215 12.6489 59.8078 12.4889 59.6362 12.2885V15.0154H58.3853V7.67435H59.1202L59.6053 8.30341C59.8049 8.10313 60.038 7.93929 60.294 7.81928C60.5592 7.72266 60.8408 7.65791 61.1225 7.67435H61.1379V7.67435ZM56.4631 5.52816C56.3774 5.52855 56.2925 5.54605 56.2136 5.57964C56.1347 5.61324 56.0633 5.66225 56.0035 5.7238C55.9438 5.78536 55.8969 5.85822 55.8657 5.93812C55.8345 6.01801 55.8196 6.10334 55.8218 6.18908C55.8218 6.56014 56.1024 6.86748 56.4621 6.86748C56.8219 6.86748 57.1035 6.56014 57.1035 6.18908C57.1081 6.10214 57.0936 6.01524 57.0611 5.93446C57.0286 5.85369 56.9789 5.78097 56.9154 5.7214C56.8592 5.6564 56.7898 5.60409 56.7118 5.56794C56.6338 5.53179 56.5491 5.51263 56.4631 5.51172V5.52816ZM57.0716 12.9185H55.8207V7.67435H57.0716V12.9185Z" fill="#174880"/>
</g>
<defs>
<clipPath id="clip0_6459_2408">
<rect width="62.7" height="20.5574" fill="white" transform="translate(0.649902 0.0507812)"/>
</clipPath>
</defs>
</svg>
