<?xml version="1.0" encoding="UTF-8"?>
<svg width="24px" height="24px" viewBox="0 0 24 24" version="1.1" xmlns="http://www.w3.org/2000/svg" xmlns:xlink="http://www.w3.org/1999/xlink">
    <!-- Generator: Sketch 54 (76480) - https://sketchapp.com -->
    <title>ac</title>
    <desc>Created with Sketch.</desc>
    <g id="ac" stroke="none" stroke-width="1" fill="none" fill-rule="evenodd">
        <g id="air-conditioner" transform="translate(4.000000, 7.000000)" fill="#000000" fill-rule="nonzero">
            <path d="M14.8727984,0.0156270096 L3.80361644,0.0156270096 C3.67392564,0.0156270096 3.56878278,0.123569132 3.56878278,0.256784566 C3.56878278,0.39 3.67392564,0.497942122 3.80361644,0.497942122 L14.8727984,0.497942122 C15.233816,0.497942122 15.5275147,0.799549839 15.5275147,1.17028939 L15.5275147,6.30504823 C15.5275147,6.67578778 15.233816,6.9773955 14.8727984,6.9773955 L14.3104814,6.9773955 L14.3104814,5.40610932 C14.3104814,5.27289389 14.2053386,5.16495177 14.0756477,5.16495177 L1.92150294,5.16495177 C1.79181213,5.16495177 1.68666928,5.27289389 1.68666928,5.40610932 L1.68666928,6.9773955 L1.12438356,6.9773955 C0.763365949,6.9773955 0.469667319,6.67578778 0.469667319,6.30504823 L0.469667319,1.17028939 C0.469667319,0.799549839 0.763365949,0.497942122 1.12438356,0.497942122 L2.8642818,0.497942122 C2.9939726,0.497942122 3.09911546,0.39 3.09911546,0.256784566 C3.09911546,0.123569132 2.9939726,0.0156270096 2.8642818,0.0156270096 L1.12438356,0.0156270096 C0.504391389,0.0156270096 0,0.533601286 0,1.17028939 L0,6.30504823 C0,6.94173633 0.504391389,7.45971061 1.12438356,7.45971061 L3.56887671,7.45971061 C3.69856751,7.45971061 3.80371037,7.35176849 3.80371037,7.21855305 C3.80371037,7.08536977 3.69856751,6.9773955 3.56887671,6.9773955 L2.15633659,6.9773955 L2.15633659,6.55347267 L11.4889706,6.55347267 C11.6186614,6.55347267 11.7238043,6.44553055 11.7238043,6.31231511 C11.7238043,6.17909968 11.6186614,6.07115756 11.4889706,6.07115756 L2.15633659,6.07115756 L2.15633659,5.64723473 L13.8408141,5.64723473 L13.8408141,6.07115756 L12.4283053,6.07115756 C12.2986145,6.07115756 12.1934716,6.17909968 12.1934716,6.31231511 C12.1934716,6.44553055 12.2986145,6.55347267 12.4283053,6.55347267 L13.8408141,6.55347267 L13.8408141,6.9773955 L4.50818004,6.9773955 C4.37848924,6.9773955 4.27334638,7.08536977 4.27334638,7.21855305 C4.27334638,7.35176849 4.37848924,7.45971061 4.50818004,7.45971061 L14.8727984,7.45971061 C15.4927906,7.45971061 15.997182,6.94173633 15.997182,6.30504823 L15.997182,1.17028939 C15.9971507,0.533633441 15.4927593,0.0156270096 14.8727984,0.0156270096 Z" id="Path"></path>
            <path d="M14.0756477,1.97643087 C14.2053386,1.97643087 14.3104814,1.86848875 14.3104814,1.73527331 C14.3104814,1.60205788 14.2053386,1.49411576 14.0756477,1.49411576 L13.381135,1.49411576 C13.2514442,1.49411576 13.1463014,1.60205788 13.1463014,1.73527331 C13.1463014,1.86848875 13.2514442,1.97643087 13.381135,1.97643087 L14.0756477,1.97643087 Z" id="Path"></path>
            <path d="M12.309636,1.97643087 C12.4393268,1.97643087 12.5444697,1.86848875 12.5444697,1.73527331 C12.5444697,1.60205788 12.4393268,1.49411576 12.309636,1.49411576 L7.86482975,1.49411576 C7.73513894,1.49411576 7.62999609,1.60205788 7.62999609,1.73527331 C7.62999609,1.86848875 7.73513894,1.97643087 7.86482975,1.97643087 L12.309636,1.97643087 Z" id="Path"></path>
            <path d="M4.41744031,8.10495177 C4.28774951,8.10495177 4.18260665,8.21289389 4.18260665,8.34610932 C4.18260665,8.35327974 4.17506067,9.06819936 3.52360078,9.54369775 C3.41789432,9.62083601 3.39309589,9.77141479 3.46824266,9.87996785 C3.51405088,9.94617363 3.58637965,9.98144695 3.65986693,9.98144695 C3.70692759,9.98144695 3.75445793,9.96694534 3.79572603,9.93681672 C4.64256751,9.31868167 4.65230528,8.38549839 4.65230528,8.34607717 C4.65227397,8.21289389 4.54713112,8.10495177 4.41744031,8.10495177 Z" id="Path"></path>
            <path d="M6.09888063,8.10495177 C5.96918982,8.10495177 5.86404697,8.21289389 5.86404697,8.34610932 L5.86404697,9.74025723 C5.86404697,9.87347267 5.96918982,9.98141479 6.09888063,9.98141479 C6.22857143,9.98141479 6.33371429,9.87347267 6.33371429,9.74025723 L6.33371429,8.34610932 C6.33371429,8.21289389 6.22857143,8.10495177 6.09888063,8.10495177 Z" id="Path"></path>
            <path d="M8.06462622,8.10495177 C7.93493542,8.10495177 7.82979256,8.21289389 7.82979256,8.34610932 L7.82979256,9.74025723 C7.82979256,9.87347267 7.93493542,9.98141479 8.06462622,9.98141479 C8.19431703,9.98141479 8.29945988,9.87347267 8.29945988,9.74025723 L8.29945988,8.34610932 C8.29945988,8.21289389 8.19431703,8.10495177 8.06462622,8.10495177 Z" id="Path"></path>
            <path d="M12.4735812,9.54369775 C11.8308885,9.07459807 11.8149198,8.37710611 11.8145753,8.34501608 C11.8140117,8.21231511 11.7090881,8.10495177 11.5797417,8.10495177 C11.4500509,8.10495177 11.344908,8.21289389 11.344908,8.34610932 C11.344908,8.38553055 11.3546458,9.31871383 12.2014873,9.93684887 C12.2427554,9.96697749 12.2902857,9.9814791 12.3373464,9.9814791 C12.4108023,9.98144695 12.4831624,9.94614148 12.5289706,9.88 C12.6040861,9.77141479 12.5792877,9.62083601 12.4735812,9.54369775 Z" id="Path"></path>
            <path d="M9.89827006,8.10495177 C9.76857926,8.10495177 9.6634364,8.21289389 9.6634364,8.34610932 L9.6634364,9.74025723 C9.6634364,9.87347267 9.76857926,9.98141479 9.89827006,9.98141479 C10.0279609,9.98141479 10.1331037,9.87347267 10.1331037,9.74025723 L10.1331037,8.34610932 C10.1331037,8.21289389 10.0279609,8.10495177 9.89827006,8.10495177 Z" id="Path"></path>
        </g>
    </g>
</svg>