<svg xmlns="http://www.w3.org/2000/svg" width="24" height="24" viewBox="0 0 24 24">
    <g fill="#010101" fill-rule="evenodd" transform="translate(4 5)">
        <path fill-rule="nonzero" d="M15.008 3.387H8.34L10.327.285a.18.18 0 0 0-.052-.253.192.192 0 0 0-.261.05L8 3.227 5.719.063A.204.204 0 0 0 5.464.03a.19.19 0 0 0-.028.255l2.23 3.1H.993c-.548.001-.992.43-.993.962v8.873c0 .531.445.961.993.962h.355v.604a.162.162 0 0 0 .049.131.173.173 0 0 0 .135.048.174.174 0 0 0 .137-.046.162.162 0 0 0 .05-.133v-.604h12.565v.604c-.004.067.03.13.089.165a.19.19 0 0 0 .191 0 .177.177 0 0 0 .089-.165v-.604h.354c.548 0 .993-.43.993-.962V4.348c0-.53-.445-.96-.992-.961zm.623 9.834c0 .334-.279.604-.623.605H.993a.615.615 0 0 1-.624-.605V4.348c0-.334.28-.604.624-.605h14.015c.344 0 .623.271.623.605v8.873z"/>
        <path fill-rule="nonzero" d="M10.157 4.43H2.61c-.846 0-1.532.664-1.532 1.483v5.742c0 .82.686 1.484 1.532 1.484h7.547c.846 0 1.532-.664 1.532-1.484V5.913c0-.393-.162-.77-.45-1.049a1.558 1.558 0 0 0-1.082-.434zm1.162 7.225c0 .622-.52 1.126-1.162 1.127H2.61c-.642 0-1.163-.504-1.163-1.127V5.913c0-.621.521-1.125 1.163-1.125h7.547c.641 0 1.161.504 1.162 1.125v5.742z"/>
        <path d="M14.74 5.735h-2.158a.186.186 0 0 0-.17.086.174.174 0 0 0 0 .186c.036.057.101.09.17.085h2.158a.186.186 0 0 0 .17-.085.174.174 0 0 0 0-.186.186.186 0 0 0-.17-.086zM14.74 6.779h-2.158a.182.182 0 0 0-.185.179c0 .098.083.179.185.179h2.158c.102 0 .185-.08.185-.18a.182.182 0 0 0-.185-.178zM14.74 7.823h-2.158a.186.186 0 0 0-.17.086.174.174 0 0 0 0 .185c.036.057.101.09.17.086h2.158a.186.186 0 0 0 .17-.086.174.174 0 0 0 0-.185.186.186 0 0 0-.17-.086z"/>
        <path fill-rule="nonzero" d="M14.74 8.867h-2.158a.173.173 0 0 0-.135.048.162.162 0 0 0-.05.13v2.089a.162.162 0 0 0 .05.13.173.173 0 0 0 .135.048h2.158c.05.004.1-.013.136-.048a.162.162 0 0 0 .05-.13V9.045a.177.177 0 0 0-.05-.13.193.193 0 0 0-.136-.048zm-.184 2.088h-1.787v-1.73h1.787v1.73z"/>
        <path d="M3.29 5.529L2.212 6.572a.168.168 0 0 0 0 .247.178.178 0 0 0 .255 0l1.08-1.042a.173.173 0 0 0 .067-.178.18.18 0 0 0-.138-.134.185.185 0 0 0-.184.065L3.29 5.53zM2.61 7.562a.183.183 0 0 0-.128.054l-.27.261a.168.168 0 0 0 0 .248.18.18 0 0 0 .255 0l.273-.26a.168.168 0 0 0 0-.247.185.185 0 0 0-.13-.056zM5.038 5.213a.183.183 0 0 0-.128.054l-.808.783a.167.167 0 0 0 0 .248.178.178 0 0 0 .255 0l.809-.783a.168.168 0 0 0 0-.248.185.185 0 0 0-.128-.054z"/>
        <ellipse cx="3.419" cy="6.958" rx="1" ry="1"/>
    </g>
</svg>
