<svg xmlns="http://www.w3.org/2000/svg" width="24" height="24" viewBox="0 0 24 24">
    <path fill="#000" fill-rule="nonzero" d="M19.154 14.788l-.058-.018v-.063-.136-.258l.026-.398c.115-1.582.222-3.223.342-4.832.008-.114.073-.235.206-.384.133-.149.22-.566.18-.871-.017-.138-.06-.238-.117-.275-.347-.225-.405-.544-.46-.852a4.658 4.658 0 0 0-.022-.115c-.083-.41-.272-.58-.663-.58-1.41-.008-2.862-.008-4.326 0-.398 0-.594.18-.678.614a2.49 2.49 0 0 0-.026.172c-.038.271-.083.58-.435.734a.355.355 0 0 0-.103.234c0 .074-.005.149-.01.222-.022.32-.04.594.256.793.09.06.101.207.11.326v.011a168.7 168.7 0 0 1 .355 5.341.47.47 0 0 1-.07.234c-.013.027-.027.054-.037.08l-.042.11-.083-.075a1.069 1.069 0 0 0-.077-.057.513.513 0 0 1-.185-.183 2.706 2.706 0 0 1-.166-.485l-.016-.06c-.287-1.06-.287-1.06-1.044-1.051h-.4c-.26-.006-.428.124-.508.388l-.076.258c-.083.28-.166.57-.271.85a.686.686 0 0 1-.182.245c-.029.029-.057.057-.083.086l-.092.11-.048-.137a1.318 1.318 0 0 0-.046-.11.631.631 0 0 1-.083-.291c.117-1.876.231-3.573.351-5.19a.936.936 0 0 1 .218-.49c.138-.172.213-.583.16-.89-.025-.145-.076-.247-.142-.286-.327-.193-.373-.475-.415-.748l-.014-.086c-.088-.517-.268-.673-.77-.674H5.606c-.714 0-.868.141-.967.882-.022.166-.06.345-.166.45-.47.442-.497.94-.087 1.44a.589.589 0 0 1 .111.319c.09 1.233.18 2.54.277 3.994.025.368.046.738.066 1.096l.027.482v.046l-.036.028-.044.035a.211.211 0 0 1-.07.045c-.48.155-.716.421-.718.814-.002.393.227.655.746.82.127.058.223.17.261.309.077.286.146.58.212.86.052.218.104.441.16.66.117.46.386.689.823.689.833.01 1.694.01 2.559 0 .436-.006.705-.232.82-.689.056-.226.111-.454.165-.68.054-.228.112-.464.166-.696.123-.485.206-.53.704-.403l.048.013.012.05c.236 1.013.388 1.18 1.078 1.2 1.117.032 1.205-.036 1.542-1.221l.012-.044.042-.014c.211-.07.364-.068.481.008.118.076.188.215.222.43.05.298.117.592.199.882.03.114.06.229.088.344.158.64.385.826 1.01.827h2.309c.542 0 .805-.219.937-.775.029-.118.056-.236.083-.354.083-.35.166-.711.267-1.06a.579.579 0 0 1 .349-.34c.316-.094.502-.258.6-.528a.757.757 0 0 0-.005-.603c-.111-.23-.364-.413-.736-.529zm-5.283-7.557c0-.042.007-.08.01-.117a1.48 1.48 0 0 0 .013-.192.544.544 0 0 1 .12-.404c.093-.097.233-.137.455-.135.893.015 1.802.012 2.68.01h1.041c.7 0 .737.04.78.843l.005.086h-5.112l.008-.09zm-.146 1.205c-.15 0-.253-.036-.315-.11-.091-.11-.066-.27-.04-.438 0-.028.009-.059.013-.086l.01-.074h5.725c.11 0 .222 0 .303.08a.36.36 0 0 1 .083.26.382.382 0 0 1-.088.276.416.416 0 0 1-.314.094h-5.374l-.003-.002zm.005.384h5.373l-.105 1.754-.07.008-.12.016a1.498 1.498 0 0 1-.206.02h-1.354c-.962 0-1.955 0-2.933.006h-.013c-.184 0-.3-.036-.378-.116-.078-.08-.112-.203-.11-.394a7.972 7.972 0 0 0-.047-.818 16.835 16.835 0 0 1-.032-.383l-.005-.093zm5.21 2.55c-.083 1.12-.148 2.117-.202 3.058-.016.286-.132.403-.396.403h-.007a240.98 240.98 0 0 0-3.784 0h-.01c-.302 0-.42-.12-.437-.44-.03-.573-.075-1.154-.119-1.717-.024-.322-.05-.644-.072-.967-.01-.134-.007-.266-.005-.42v-.319h4.672a.366.366 0 0 1 .288.093c.065.09.091.203.072.314v-.005zM4.978 7.14c.014-.1.024-.183.033-.258.057-.47.092-.501.55-.495H9.282c.706 0 .746.04.797.844l.006.092H5.04l-.02-.054a.458.458 0 0 0-.016-.034.168.168 0 0 1-.026-.095zm-.45 1.186c-.099-.079-.093-.309-.041-.419.051-.11.224-.172.331-.172.226 0 .451 0 .677-.005h4.723c.103 0 .221-.007.306.076a.361.361 0 0 1 .092.265c.01.1-.02.199-.083.275-.083.091-.215.091-.34.09h-5.25a.693.693 0 0 1-.415-.11zm.32.507h5.37l-.006.092-.023.35c-.021.368-.044.749-.09 1.12-.02.152-.332.22-.433.221-.551.005-1.109.006-1.658.006H4.96l-.113-1.789zm5.222 2.239v.06l-.029.52c-.022.392-.043.795-.07 1.193l-.005.086c-.034.513-.07 1.042-.13 1.561-.015.132-.19.33-.325.33-.646.008-1.298.01-1.945.01H5.467a.315.315 0 0 1-.103-.026c-.018-.007-.038-.016-.065-.025l-.053-.017-.005-.057-.036-.465-.083-1.08c-.018-.275-.034-.55-.05-.826a80.226 80.226 0 0 0-.059-.964.4.4 0 0 1 .071-.3.347.347 0 0 1 .266-.092c.971.005 1.943.008 2.915.01h1.59a.178.178 0 0 1 .087.028l.07.034.058.02zm-.45 5.502l-.11.46c-.105.443-.204.86-.331 1.279-.046.152-.299.266-.447.27a55.96 55.96 0 0 1-2.521-.001c-.142 0-.382-.11-.424-.252a22.368 22.368 0 0 1-.331-1.296l-.111-.46-.03-.109h4.331l-.025.109zm3.102.644c-.105.119-.27.168-.568.172h-.361c-.293-.004-.462-.058-.566-.176-.103-.12-.142-.318-.114-.662l.007-.08h1.718l.006.08c.023.35-.012.541-.123.666h.001zm5.886-.634l-.11.454c-.106.447-.207.869-.331 1.291-.042.143-.283.25-.424.253-.47.01-.9.014-1.305.014-.442 0-.853-.006-1.252-.017a.56.56 0 0 1-.44-.333c-.116-.39-.206-.782-.301-1.198a60.32 60.32 0 0 0-.108-.464l-.026-.107h4.324l-.027.107zm.625-.531a.265.265 0 0 1-.166.045h-.09c-.028 0-.051-.004-.075-.004H4.984a.472.472 0 0 1-.293-.05c-.07-.05-.297-.225-.297-.407 0-.181.23-.355.3-.404a.481.481 0 0 1 .293-.05h1.147c1.444 0 2.937-.005 4.405.007.305 0 .42-.087.485-.356.05-.21.118-.415.183-.615.06-.184.12-.374.165-.564.09-.361.37-.327.536-.306a.838.838 0 0 0 .158-.005c.175-.017.415-.04.506.305.049.184.108.368.166.546.07.218.142.444.196.67.066.273.21.325.466.325h.008a603.52 603.52 0 0 1 4.325 0h1.16c.025 0 .052 0 .078-.005a.374.374 0 0 1 .249.037c.166.118.332.259.332.412 0 .153-.156.297-.315.419h-.004z"/>
</svg>
