<svg width="13" height="14" viewBox="0 0 13 14" fill="none" xmlns="http://www.w3.org/2000/svg">
<path d="M4.0625 1.53782C3.84701 1.53782 3.64035 1.61873 3.48798 1.76276C3.3356 1.90678 3.25 2.10211 3.25 2.30579C3.25 2.50947 3.3356 2.70481 3.48798 2.84883C3.64035 2.99285 3.84701 3.07376 4.0625 3.07376C4.27799 3.07376 4.48465 2.99285 4.63702 2.84883C4.7894 2.70481 4.875 2.50947 4.875 2.30579C4.875 2.10211 4.7894 1.90678 4.63702 1.76276C4.48465 1.61873 4.27799 1.53782 4.0625 1.53782ZM1.76313 1.53782C1.93099 1.08815 2.24229 0.698764 2.65411 0.423336C3.06594 0.147908 3.55801 0 4.0625 0C4.56699 0 5.05906 0.147908 5.47089 0.423336C5.88271 0.698764 6.19401 1.08815 6.36188 1.53782H12.1875C12.403 1.53782 12.6097 1.61873 12.762 1.76276C12.9144 1.90678 13 2.10211 13 2.30579C13 2.50947 12.9144 2.70481 12.762 2.84883C12.6097 2.99285 12.403 3.07376 12.1875 3.07376H6.36188C6.19401 3.52343 5.88271 3.91282 5.47089 4.18825C5.05906 4.46368 4.56699 4.61158 4.0625 4.61158C3.55801 4.61158 3.06594 4.46368 2.65411 4.18825C2.24229 3.91282 1.93099 3.52343 1.76313 3.07376H0.8125C0.597012 3.07376 0.390349 2.99285 0.237976 2.84883C0.0856026 2.70481 0 2.50947 0 2.30579C0 2.10211 0.0856026 1.90678 0.237976 1.76276C0.390349 1.61873 0.597012 1.53782 0.8125 1.53782H1.76313ZM8.9375 6.14564C8.72201 6.14564 8.51535 6.22655 8.36298 6.37057C8.2106 6.5146 8.125 6.70993 8.125 6.91361C8.125 7.11729 8.2106 7.31263 8.36298 7.45665C8.51535 7.60067 8.72201 7.68158 8.9375 7.68158C9.15299 7.68158 9.35965 7.60067 9.51202 7.45665C9.6644 7.31263 9.75 7.11729 9.75 6.91361C9.75 6.70993 9.6644 6.5146 9.51202 6.37057C9.35965 6.22655 9.15299 6.14564 8.9375 6.14564ZM6.63812 6.14564C6.80599 5.69597 7.11729 5.30658 7.52911 5.03116C7.94094 4.75573 8.43301 4.60782 8.9375 4.60782C9.44199 4.60782 9.93406 4.75573 10.3459 5.03116C10.7577 5.30658 11.069 5.69597 11.2369 6.14564H12.1875C12.403 6.14564 12.6097 6.22655 12.762 6.37057C12.9144 6.5146 13 6.70993 13 6.91361C13 7.11729 12.9144 7.31263 12.762 7.45665C12.6097 7.60067 12.403 7.68158 12.1875 7.68158H11.2369C11.069 8.13125 10.7577 8.52064 10.3459 8.79607C9.93406 9.0715 9.44199 9.2194 8.9375 9.2194C8.43301 9.2194 7.94094 9.0715 7.52911 8.79607C7.11729 8.52064 6.80599 8.13125 6.63812 7.68158H0.8125C0.597012 7.68158 0.390349 7.60067 0.237976 7.45665C0.0856026 7.31263 0 7.11729 0 6.91361C0 6.70993 0.0856026 6.5146 0.237976 6.37057C0.390349 6.22655 0.597012 6.14564 0.8125 6.14564H6.63812ZM4.0625 10.7535C3.84701 10.7535 3.64035 10.8344 3.48798 10.9784C3.3356 11.1224 3.25 11.3178 3.25 11.5214C3.25 11.7251 3.3356 11.9204 3.48798 12.0645C3.64035 12.2085 3.84701 12.2894 4.0625 12.2894C4.27799 12.2894 4.48465 12.2085 4.63702 12.0645C4.7894 11.9204 4.875 11.7251 4.875 11.5214C4.875 11.3178 4.7894 11.1224 4.63702 10.9784C4.48465 10.8344 4.27799 10.7535 4.0625 10.7535ZM1.76313 10.7535C1.93099 10.3038 2.24229 9.9144 2.65411 9.63898C3.06594 9.36355 3.55801 9.21564 4.0625 9.21564C4.56699 9.21564 5.05906 9.36355 5.47089 9.63898C5.88271 9.9144 6.19401 10.3038 6.36188 10.7535H12.1875C12.403 10.7535 12.6097 10.8344 12.762 10.9784C12.9144 11.1224 13 11.3178 13 11.5214C13 11.7251 12.9144 11.9204 12.762 12.0645C12.6097 12.2085 12.403 12.2894 12.1875 12.2894H6.36188C6.19401 12.7391 5.88271 13.1285 5.47089 13.4039C5.05906 13.6793 4.56699 13.8272 4.0625 13.8272C3.55801 13.8272 3.06594 13.6793 2.65411 13.4039C2.24229 13.1285 1.93099 12.7391 1.76313 12.2894H0.8125C0.597012 12.2894 0.390349 12.2085 0.237976 12.0645C0.0856026 11.9204 0 11.7251 0 11.5214C0 11.3178 0.0856026 11.1224 0.237976 10.9784C0.390349 10.8344 0.597012 10.7535 0.8125 10.7535H1.76313Z" fill="black"/>
</svg>
