<svg xmlns="http://www.w3.org/2000/svg" width="24" height="24" viewBox="0 0 24 24">
    <g fill="#010101" fill-rule="nonzero">
        <path d="M17.202 4H6.742C6.331 4 6 4.324 6 4.723v13.434c0 .4.331.725.741.725h.085v.62c.001.25.21.453.466.453h.55a.461.461 0 0 0 .467-.456v-.617h7.325v.62a.46.46 0 0 0 .465.455h.551a.46.46 0 0 0 .466-.455v-.62h.085c.409 0 .74-.324.74-.723V4.723A.732.732 0 0 0 17.203 4zM7.927 19.582h-.72v-.7h.72v.7zm-.142-1.072l.459-3.353a.357.357 0 0 1 .356-.304h6.744c.18 0 .332.13.357.304l.458 3.353H7.785zm8.952 1.072h-.72v-.7h.72v.7zm.825-1.425c0 .193-.161.35-.36.35h-.658l-.465-3.402a.739.739 0 0 0-.735-.627H8.6a.738.738 0 0 0-.735.627L7.4 18.507h-.659a.356.356 0 0 1-.359-.35v-4.92h11.18v4.92zm0-5.291H6.382V4.723c0-.193.16-.35.36-.351h10.46c.2 0 .36.157.36.351v8.143z"/>
        <path d="M9.028 16.813a1 1 0 0 0 .93.984 1.01 1.01 0 0 0 1.084-.821.99.99 0 0 0-.747-1.124l-.063-.015v-.098a.185.185 0 0 0-.091-.172.195.195 0 0 0-.199 0 .185.185 0 0 0-.091.172v.098l-.063.015a.994.994 0 0 0-.76.961zm.832-.487a.19.19 0 0 0 .185.139.19.19 0 0 0 .185-.14l.027-.102.095.052c.254.136.38.423.308.697a.633.633 0 0 1-.615.466.633.633 0 0 1-.615-.466.615.615 0 0 1 .308-.697l.095-.052.027.103zM12.882 16.813a1 1 0 0 0 .93.984 1.01 1.01 0 0 0 1.084-.821.99.99 0 0 0-.746-1.124l-.064-.015v-.098a.189.189 0 0 0-.19-.187.189.189 0 0 0-.191.187v.098l-.064.015a.994.994 0 0 0-.759.961zm.833-.49a.19.19 0 0 0 .184.14.19.19 0 0 0 .184-.14l.027-.104.096.052a.616.616 0 0 1 .328.542c0 .342-.285.62-.635.62a.632.632 0 0 1-.615-.465.614.614 0 0 1 .307-.697l.097-.052.027.103zM12.057 11.625c1.17-.075 2.07-1.042 2.033-2.186 0-.856-1.238-2.593-1.97-3.485a.191.191 0 0 0-.148-.065.192.192 0 0 0-.15.065c-.2.247-1.968 2.437-1.968 3.474-.029 1.13.847 2.09 2 2.19a.893.893 0 0 0 .114.008h.01l.079-.001zm-1.205-.808a1.753 1.753 0 0 1-.617-1.386c0-.768 1.278-2.474 1.67-2.976l.067-.087.067.087c.392.504 1.669 2.21 1.669 2.986a1.74 1.74 0 0 1-.62 1.382l-.195.165.058-.247c.025-.109.037-.22.036-.33-.024-.27-.344-.93-.853-1.755a.194.194 0 0 0-.326 0c-.244.391-.815 1.35-.853 1.776 0 .103.013.205.035.304l.057.248-.195-.167zm1.063.433h-.008c-.315-.042-.572-.4-.573-.8v-.007c.011-.13.17-.521.561-1.2l.074-.125.073.126c.326.559.546 1.026.562 1.189 0 .43-.268.795-.597.82h-.03l-.062-.003z"/>
    </g>
</svg>
