<svg xmlns="http://www.w3.org/2000/svg" width="24" height="24" viewBox="0 0 24 24">
    <path fill="#000" fill-rule="nonzero" d="M19.671 5.075c-.256-.473-.684-.793-1.273-.95-.1-.027-.202-.057-.303-.082l-.133-.039h-.294c-.341.116-.537.305-.61.59l-.016.06-.087-.022a.202.202 0 0 1-.042-.013.888.888 0 0 0-.75-.02.873.873 0 0 0-.45.583c-.17.63-.335 1.268-.49 1.897-.104.417.05.79.4.974.092.043.19.075.289.096.051.013.104.027.157.043l.057.017-.742 2.872-.949-.039c-.939-.039-1.867.005-2.796-.032a117.92 117.92 0 0 0-2.41 0 1.638 1.638 0 0 0-.964.338c-.592.444-.83 1.05-.727 1.854.038.291.06.41.09.711l.006.068h-.696a.26.26 0 0 1-.263-.15.616.616 0 0 0-.735-.292.643.643 0 0 0 .02 1.237.639.639 0 0 0 .715-.29l.01-.016c.036-.06.076-.126.14-.132.113-.008.226-.01.338-.007h.217l-.037.082a.442.442 0 0 1-.124.164l-.007.007-.734.678c-.593.55-1.206 1.118-1.813 1.673-.26.238-.512.512-.586.902v.301c.055.28.198.533.408.723.395.342 1.001.368 1.382.06.292-.236.571-.492.832-.745l.01-.007a.428.428 0 0 0 .06-.046c.076-.065.557-.516.909-.846l.345-.323.043-.04.04.041c.066.062.129.126.19.19.128.136.265.263.409.381.333.26.744.386 1.255.386h1.41v.768h-.73a.644.644 0 0 0-.216 1.245c.024.01.047.022.07.036l.014.008h3.02a.115.115 0 0 1 .037-.025c.357-.142.521-.41.46-.748-.056-.318-.322-.516-.694-.519h-.653v-.767h.655c.29 0 .59 0 .885-.014a1.987 1.987 0 0 0 1.754-1.313c.126-.38.23-.777.332-1.16.033-.125.065-.25.1-.375a.255.255 0 0 1 .216-.209 1.96 1.96 0 0 0 1.396-1.093c.088-.196.158-.4.209-.61.104-.375.2-.75.278-1.066.13-.469.46-1.763.636-2.462l.082-.318.527-2.07.221-.87v-.452a3.395 3.395 0 0 1-.081-.259 3.176 3.176 0 0 0-.219-.564zM6.135 14.447h-.01a.293.293 0 1 1 0-.582.29.29 0 1 1 .01.582zm9.885-6.643h-.013a.489.489 0 0 1-.38-.183.45.45 0 0 1-.083-.387c.152-.612.322-1.272.524-2.02a.455.455 0 0 1 .525-.336.345.345 0 0 1 .258.134c.05.086.058.19.024.283l-.163.634c-.14.543-.287 1.105-.424 1.658a.245.245 0 0 1-.268.217zm-8.168 8.83c-.081.082-.537.509-.906.854l-.232.212a.23.23 0 0 0-.036.029c-.14.125-.276.253-.414.38-.158.148-.326.3-.49.448a.856.856 0 0 1-.72.212.782.782 0 0 1-.544-.432.768.768 0 0 1 .124-.873c.128-.135.266-.261.4-.383l.114-.106 1.947-1.805.408-.381.06-.053.13-.114.014.117.028.265c.02.194.039.378.063.562.017.135.036.27.056.403.023.152.046.31.064.467a.26.26 0 0 1-.066.198zm5.47 2.396c.128 0 .283.022.35.194a.284.284 0 0 1-.024.262.341.341 0 0 1-.288.137h-2.62a.407.407 0 0 1-.302-.098.274.274 0 0 1-.076-.203c0-.088.04-.292.37-.292h2.595-.005zm-1.594-.357v-.747h.58v.747h-.58zm4.797-5.436a81.54 81.54 0 0 1-.816 3.062c-.227.796-.842 1.256-1.686 1.262-.725.006-1.419.01-2.092.01-.687 0-1.352 0-2.005-.01-.925-.009-1.57-.574-1.727-1.504-.025-.151-.04-.306-.055-.457l-.014-.155c-.026-.24-.05-.479-.074-.722l-.036-.382h.591l.006.055.05.454c.036.329.073.67.103 1.006.062.691.496 1.107 1.162 1.112 1.219.01 2.52.01 4.097 0 .571 0 .98-.317 1.125-.859.278-1.019.543-2.013.788-2.954a.906.906 0 0 0-.13-.783.914.914 0 0 0-.726-.356c-.297-.01-.594-.022-.89-.034l-.25-.01-1.333-.056c-1.061-.043-2.153-.007-3.23-.047-.472-.018-.82.246-.909.682a1.65 1.65 0 0 0 0 .457l.007.087c.015.206.037.329.06.54l.03.278.006.069H8.39c-.09.003-.18.001-.269-.007a.205.205 0 0 1-.151-.155l-.033-.275c-.03-.246-.058-.388-.075-.656a1.409 1.409 0 0 1 1.109-1.484c.302-.037.606-.057.91-.06.634.025 4.571.05 5.282.081.444.015.857.23 1.126.585.259.352.346.802.239 1.226h-.002zm-4.272 1.954c.52-.1.897-.553.903-1.084A1.116 1.116 0 0 0 12.279 13a1.1 1.1 0 0 0-1.292.796.214.214 0 0 1-.238.187 71.125 71.125 0 0 0-1.387 0h-.235c-.082 0-.209 0-.223-.17-.015-.17-.03-.246-.048-.41-.018-.187-.038-.38-.053-.574a.576.576 0 0 1 .135-.46.585.585 0 0 1 .462-.154c1.896.076 3.791.071 5.686.15a.57.57 0 0 1 .454.216c.095.14.122.316.071.478-.249.948-.516 1.946-.796 2.97-.106.382-.382.586-.802.59H9.995c-.531 0-.827-.27-.878-.805-.035-.319-.066-.636-.1-.964l-.046-.44-.007-.063.062-.005.053-.005c.034 0 .062-.007.092-.007h1.609c.11-.011.21.058.24.164.188.503.71.797 1.235.696h-.002zm-.967-1.1a.768.768 0 0 1 .759-.762h.006c.42-.001.762.34.763.761a.762.762 0 0 1-.757.767h-.008a.76.76 0 0 1-.539-.225.76.76 0 0 1-.224-.541zm8.312-7.702c-.055.306-.136.61-.215.903-.03.11-.06.221-.087.332l-.25.97c-.267 1.045-.602 2.348-.808 3.167l-.005.013-.012.027a.788.788 0 0 0-.023.087c0 .015-.008.03-.012.044l-.112.44c-.081.329-.168.672-.272 1.002-.168.535-.546.903-1.127 1.098l-.098.033.018-.103.01-.049c.004-.03.008-.053.014-.077.028-.107.056-.212.081-.318.054-.199.109-.404.159-.606a1.8 1.8 0 0 0-.968-2.095c-.147-.07-.157-.159-.124-.287.327-1.258.651-2.516.973-3.774l.364-1.417c.091-.352.18-.703.274-1.054.082-.3.29-.425.592-.353.183.043.335.082.49.131a1.695 1.695 0 0 1 1.138 1.886z"/>
</svg>
