<svg xmlns="http://www.w3.org/2000/svg" width="24" height="24" viewBox="0 0 24 24">
    <g fill="#000" fill-rule="evenodd">
        <path fill-rule="nonzero" d="M4.536 18.128a.74.74 0 1 0 1.478.002.74.74 0 0 0-1.478-.002zm.739-.331a.332.332 0 1 1-.332.33.332.332 0 0 1 .332-.334v.004z"/>
        <path d="M7.477 9.205a5.53 5.53 0 0 1 .397-.514L7.57 8.42c-.155.179-.3.366-.432.562l.34.224zM11.903 6.818V6.41a5.804 5.804 0 0 0-3.871 1.536l.279.297a5.396 5.396 0 0 1 3.592-1.425z"/>
        <path fill-rule="nonzero" d="M14.676 18.448l3.245-2.682a.99.99 0 0 0 .277-1.306l-.03-.047-.067-.095.114-.008a1.807 1.807 0 0 0 1.72-1.807.204.204 0 0 0-.204-.204h-.867v-.064a6.872 6.872 0 0 0-6.631-6.89h-.062v-.938h.536V4h-1.479v.407h.536v.936h-.062a6.872 6.872 0 0 0-6.63 6.89v.064h-.868A.204.204 0 0 0 4 12.5c0 .998.808 1.809 1.807 1.812h2.12l-.889.739-.04-.032a.198.198 0 0 0-.125-.043H4v.407h2.67v4.144H4v.407h2.873a.204.204 0 0 0 .204-.204v-.867h6.446c.42 0 .828-.148 1.153-.416zm-9.197-6.213a6.489 6.489 0 0 1 12.977 0v.064H5.48v-.064zm.328 1.67a1.407 1.407 0 0 1-1.369-1.121l-.015-.077h15.092l-.016.077a1.407 1.407 0 0 1-1.371 1.121H5.808zm7.432.847a.871.871 0 0 0-.086-.343l-.043-.091h3.468l-2.805 2.002h-3.145a.332.332 0 0 1 0-.664h1.74c.483 0 .873-.39.873-.873l-.002-.031zm-6.16 3.704v-2.913l1.236-1.027a.871.871 0 0 1 .546-.2h3.492a.472.472 0 0 1 .476.463.466.466 0 0 1-.466.468h-1.735a.74.74 0 0 0 0 1.478h3.213a.204.204 0 0 0 .12-.038l3.062-2.188a.573.573 0 0 1 .825.172.583.583 0 0 1-.171.77l-3.259 2.692a1.403 1.403 0 0 1-.893.323H7.079z"/>
    </g>
</svg>
