<svg xmlns="http://www.w3.org/2000/svg" width="24" height="24" viewBox="0 0 24 24">
    <g fill="#010101" fill-rule="evenodd">
        <path fill-rule="nonzero" d="M13.294 19.601l-3.896-3.377V13.96a.18.18 0 0 0-.085-.166.176.176 0 0 0-.185 0 .18.18 0 0 0-.085.166v2.264l-.029.026L5.145 19.6a.18.18 0 0 0 .102.314.176.176 0 0 0 .13-.042l2.178-1.884 1.49.801v.948c0 .099.08.179.178.179.099 0 .178-.08.178-.18v-.947l1.49-.801 2.18 1.884a.181.181 0 0 0 .251-.02.18.18 0 0 0-.018-.252h-.01zm-4.252-1.217l-1.202-.646 1.202-1.04v1.686zm.355 0v-1.686l1.202 1.04-1.202.646zM17.945 12.719a.18.18 0 0 0-.052-.127.177.177 0 0 0-.302.127c0 .61-.168 1.09-.503 1.426-.575.58-1.584.667-2.842.243-1.299-.438-2.692-1.363-3.921-2.605-1.23-1.242-2.141-2.65-2.575-3.962-.419-1.27-.335-2.285.24-2.87.576-.585 1.585-.667 2.842-.244 1.3.438 2.693 1.363 3.923 2.606.963.973 1.738 2.053 2.24 3.12a.18.18 0 0 0 .102.093.178.178 0 0 0 .219-.246c-.52-1.1-1.32-2.219-2.31-3.217-1.268-1.286-2.71-2.241-4.061-2.696a4.9 4.9 0 0 0-1.547-.283c-.69 0-1.257.206-1.66.613l-.246.248c-.86.875-1.166 2.205-.852 3.745.31 1.514 1.18 3.055 2.454 4.342 1.84 1.862 3.631 2.375 4.81 2.481.167.015.335.023.508.023 1.13 0 2.135-.332 2.682-.888l.251-.254c.398-.405.6-.981.6-1.675zm-2.849 2.413a4.944 4.944 0 0 1-1.16.024c-1.12-.102-2.827-.593-4.591-2.379-1.881-1.9-2.81-4.317-2.367-6.165l.129-.533.037.548c.035.445.125.884.27 1.307.45 1.365 1.397 2.822 2.664 4.107 1.267 1.286 2.711 2.237 4.061 2.693.312.104.632.182.957.232l.587.084-.587.082z"/>
        <path d="M18.783 7.848a.178.178 0 0 0-.304.127.18.18 0 0 0 .053.127l.121.121-.613.62a.18.18 0 0 0 0 .254.18.18 0 0 0 .251 0l.614-.62.67.678-3.709 3.747a.18.18 0 0 0 0 .254.18.18 0 0 0 .252 0l3.83-3.874A.182.182 0 0 0 20 9.156a.184.184 0 0 0-.052-.127l-1.165-1.181z"/>
    </g>
</svg>
