<svg width="24" height="24" viewBox="0 0 24 24" fill="none" xmlns="http://www.w3.org/2000/svg">
<g clip-path="url(#clip0_678_42)">
<rect width="24" height="24" fill="white"/>
<g clip-path="url(#clip1_678_42)">
<path d="M16.4999 3C17.3946 3.73571 17.3201 4.30609 16.2387 4.90953V13.2682H17.3973C17.2321 12.1302 18.0402 11.4455 18.545 10.6216C18.6276 10.4852 18.8671 10.4494 19.0336 10.3667C19.0336 10.5541 19.0986 10.7732 19.0241 10.9206C18.8346 11.2953 18.5815 11.637 18.3758 11.9594C18.7047 12.1481 19.1135 12.2515 19.284 12.5146C19.4654 12.7957 19.4735 13.2296 19.464 13.5947C19.4464 14.3277 19.4058 15.0648 19.2921 15.7867C19.242 16.1077 19.0566 16.4866 18.8103 16.6726C18.5694 16.8545 18.1281 16.9468 17.8601 16.8448C17.6463 16.7635 17.5407 16.3406 17.4257 16.054C17.3675 15.9093 17.3973 15.7288 17.3824 15.5043H16.2617V19.3399C16.3713 19.3922 16.5513 19.417 16.6109 19.5176C16.7895 19.8166 17.0778 20.1748 17.0278 20.4545C16.9763 20.7355 16.6014 21.0083 16.3091 21.1736C16.1115 21.2852 15.8083 21.2095 15.5525 21.2095C12.0835 21.2095 8.61455 21.226 5.14695 21.186C4.79369 21.1819 4.36329 20.9243 4.12643 20.6446C3.99108 20.4848 4.10748 20.0108 4.23742 19.7422C4.33487 19.5438 4.63669 19.4473 4.8749 19.2861V4.9054C3.79483 4.31573 3.72039 3.72469 4.62045 3H16.4999ZM5.52592 4.85994V15.6985H15.585V4.85994H5.52592ZM15.5931 16.4274H5.51374V19.3399H15.5931V16.4274ZM10.5717 4.21791C12.2716 4.21791 13.9716 4.23169 15.6702 4.20414C15.9423 4.2 16.2116 4.00299 16.4823 3.89552C16.2021 3.79633 15.922 3.61309 15.6404 3.61033C12.2405 3.59105 8.84194 3.59656 5.44201 3.59931C5.25658 3.59931 5.06168 3.58691 4.88979 3.64202C4.78422 3.67647 4.64481 3.83077 4.64887 3.92446C4.65429 4.01814 4.80723 4.14903 4.91821 4.18071C5.09281 4.23031 5.28636 4.21654 5.47178 4.21654C7.17175 4.21791 8.87172 4.21654 10.5703 4.21654L10.5717 4.21791ZM16.5202 20.4338C16.5094 20.3263 16.4999 20.2175 16.4891 20.11C16.2089 20.0714 15.9301 19.9998 15.6499 19.9984C12.25 19.9902 8.85141 19.9929 5.45148 19.9943C5.26606 19.9943 5.07115 19.9833 4.89926 20.0356C4.79234 20.0673 4.64346 20.2161 4.64887 20.3029C4.65564 20.4021 4.7964 20.5289 4.90738 20.5771C5.02784 20.6294 5.18079 20.6129 5.3202 20.6129C8.81216 20.6143 12.3055 20.617 15.7974 20.606C16.0384 20.606 16.2793 20.4944 16.5189 20.4338H16.5202ZM18.0943 12.7433V16.3226C18.162 16.3488 18.2296 16.3764 18.2987 16.4026C18.4448 16.1491 18.6817 15.9093 18.7196 15.6393C18.8211 14.916 18.8238 14.1803 18.8901 13.4515C18.9456 12.8521 18.7223 12.6 18.0943 12.7419V12.7433ZM16.2752 13.9764V14.7865H17.377V13.9764H16.2752Z" fill="black"/>
<path d="M10.5651 7.25024C10.1712 7.25024 9.77599 7.2778 9.38484 7.24473C8.85969 7.20064 8.50507 6.91821 8.50101 6.34783C8.49695 5.78158 8.83668 5.46333 9.36724 5.4399C10.1536 5.40408 10.9427 5.40546 11.7291 5.43715C12.2556 5.45919 12.6047 5.75816 12.6115 6.32992C12.6169 6.90305 12.2691 7.191 11.7467 7.24198C11.3569 7.27917 10.9603 7.24886 10.5664 7.25024H10.5651ZM12.261 6.3189C12.0092 6.18663 11.9091 6.08744 11.8062 6.08606C10.9955 6.06539 10.1847 6.05437 9.37401 6.06815C9.28197 6.06953 9.19129 6.24312 9.10061 6.33818C9.23731 6.44014 9.36859 6.62337 9.50935 6.63026C10.205 6.66057 10.9048 6.65782 11.6005 6.6344C11.7534 6.62889 11.9023 6.49662 12.2596 6.32027L12.261 6.3189Z" fill="black"/>
<path d="M10.5743 18.7819C10.0506 18.7212 9.69459 18.4374 9.68106 17.8946C9.66752 17.349 10.0059 17.0266 10.5337 16.9743C10.9845 16.9302 11.4555 17.3862 11.4392 17.8491C11.4203 18.3947 11.1022 18.6937 10.5743 18.7819Z" fill="black"/>
</g>
</g>
<defs>
<clipPath id="clip0_678_42">
<rect width="24" height="24" fill="white"/>
</clipPath>
<clipPath id="clip1_678_42">
<rect width="879.5" height="132.36" fill="white" transform="translate(-428 -54)"/>
</clipPath>
</defs>
</svg>
