<svg width="105" height="55" viewBox="0 0 105 55" fill="none" xmlns="http://www.w3.org/2000/svg">
<rect width="105" height="55" rx="5" fill="white"/>
<g clip-path="url(#clip0_6277_60)">
<path fill-rule="evenodd" clip-rule="evenodd" d="M34.2405 31.7842C33.7264 32.0157 32.7192 32.2803 31.5155 32.2803C28.5153 32.2803 26.5615 30.3408 26.5615 27.3518C26.5615 24.3628 28.5395 22.2219 31.9117 22.2219C32.7222 22.2219 33.5056 22.3662 34.2617 22.6579L33.8292 24.5012C33.433 24.3027 32.8614 24.1253 31.9934 24.1253C30.1334 24.1253 29.0325 25.4905 29.0506 27.2556C29.0506 29.2342 30.3299 30.3649 31.9934 30.3649C32.6587 30.3709 33.2969 30.2476 33.9078 29.989L34.2435 31.7902L34.2405 31.7842ZM35.6227 32.0819H38.0513V18H35.6227V32.0789V32.0819ZM42.0405 27.9472C42.101 29.6913 43.4619 30.443 45.0014 30.443C45.9147 30.4551 46.8039 30.3107 47.6659 30.007L48.0197 31.6699C47.191 32.0247 46.0418 32.2833 44.6626 32.2833C41.5445 32.2833 39.7086 30.3618 39.7086 27.412C39.7086 24.7387 41.3267 22.2249 44.4086 22.2249C47.4905 22.2249 48.555 24.7989 48.555 26.9188C48.5581 27.2646 48.5309 27.6074 48.4764 27.9472H42.0405V27.9472ZM46.2656 26.2422C46.2867 25.3522 45.8905 23.8847 44.2725 23.8847C42.7724 23.8847 42.1403 25.2499 42.0405 26.2422H46.2656ZM57.598 29.7665C57.598 30.6385 57.6374 31.4895 57.7553 32.0789H55.5656L55.3872 31.0084H55.3267C54.7551 31.7601 53.748 32.2954 52.4838 32.2954C50.5512 32.2954 49.4593 30.8881 49.4593 29.4237C49.4593 27.009 51.6097 25.7611 55.1634 25.7792V25.6258C55.1634 24.9913 54.9063 23.9419 53.2096 23.9419C52.7529 23.9419 52.3083 24.005 51.8668 24.1253C51.4282 24.2456 51.0139 24.423 50.6207 24.6545L50.1459 23.0698C50.8566 22.6338 52.0997 22.2188 53.6209 22.2188C56.6998 22.2188 57.589 24.1854 57.589 26.2964V29.7604L57.598 29.7665ZM55.2329 27.3699C53.5151 27.3488 51.8759 27.7066 51.8759 29.1741C51.8759 30.1243 52.4868 30.5603 53.258 30.5603C53.3608 30.5603 53.4667 30.5543 53.5695 30.5423C53.6723 30.5272 53.7752 30.5062 53.872 30.4761C53.9718 30.446 54.0685 30.407 54.1623 30.3618C54.2561 30.3167 54.3468 30.2656 54.4315 30.2055C54.5162 30.1453 54.5978 30.0792 54.6734 30.01C54.749 29.9379 54.8186 29.8597 54.8791 29.7785C54.9426 29.6973 54.997 29.6101 55.0485 29.5169C55.0968 29.4267 55.1392 29.3304 55.1725 29.2342C55.2239 29.0598 55.242 28.8824 55.2329 28.699V27.3729V27.3699ZM59.7121 25.5536C59.7121 24.2456 59.694 23.2954 59.6335 22.4444H61.7264L61.8262 24.2666H61.8836C62.3585 22.9195 63.4835 22.2279 64.53 22.2279C64.7236 22.2279 64.9141 22.2459 65.1016 22.288V24.5613C64.8596 24.5192 64.6177 24.4982 64.3727 24.5012C63.2265 24.5012 62.4189 25.2319 62.2012 26.3415C62.1619 26.585 62.1407 26.8286 62.1437 27.0752V32.0849H59.7151V25.5506L59.7121 25.5536ZM69.5808 19.9666V22.4353H71.8914V24.2576H69.5808V28.4945C69.5808 29.6823 69.8983 30.2776 70.8238 30.2776C71.1444 30.2927 71.4619 30.2596 71.7704 30.1784L71.8097 32.0187C71.4619 32.157 70.8026 32.2773 70.0526 32.2773C69.1452 32.2773 68.4133 31.9796 67.9597 31.4865C67.4243 30.9332 67.1915 30.0401 67.1915 28.7741V24.2636H65.8305V22.4384H67.1945V20.6372L69.5838 19.9696L69.5808 19.9666ZM73.2524 25.5476C73.2524 24.2396 73.2342 23.2893 73.1738 22.4384H75.2666L75.3634 24.2606H75.4239C75.8957 22.9135 77.0238 22.2219 78.0703 22.2219C78.2638 22.2219 78.4544 22.2399 78.6449 22.282V24.5583C78.403 24.5162 78.158 24.4952 77.913 24.4982C76.7668 24.4982 75.9592 25.2289 75.7415 26.3385C75.7022 26.582 75.681 26.8256 75.681 27.0722V32.0819H73.2524V25.5446V25.5476ZM81.01 21.0521C80.9223 21.0551 80.8346 21.0521 80.7469 21.0371C80.6592 21.0221 80.5775 21.001 80.4928 20.9679C80.4112 20.9348 80.3325 20.8958 80.2569 20.8507C80.1843 20.8025 80.1148 20.7484 80.0513 20.6883C79.9878 20.6281 79.9333 20.559 79.8849 20.4868C79.8365 20.4146 79.7942 20.3365 79.7609 20.2553C79.7277 20.1741 79.7035 20.0899 79.6853 20.0057C79.6702 19.9185 79.6611 19.8343 79.6641 19.7471C79.6641 18.9953 80.2176 18.421 81.0282 18.421C81.8387 18.421 82.371 18.9983 82.3891 19.7471C82.3891 20.4627 81.8538 21.0551 81.0282 21.0551H81.007L81.01 21.0521ZM79.8063 32.0819H82.2349V22.4353H79.8063V32.0789V32.0819ZM84.4457 25.6468C84.4457 24.3749 84.4064 23.3495 84.3641 22.4384H86.4963L86.6112 23.9238H86.6505C87.3613 22.8353 88.4863 22.2219 89.9471 22.2219C92.155 22.2219 93.9938 24.1223 93.9938 27.1323C93.9938 30.6174 91.8041 32.3014 89.6114 32.3014C88.4077 32.3014 87.4006 31.7872 86.9046 31.0144H86.8653V36.003H84.4397V25.6438L84.4457 25.6468ZM86.8743 28.0434C86.8743 28.269 86.8925 28.4945 86.9348 28.717C87.1919 29.7063 88.0418 30.419 89.0882 30.419C90.6307 30.419 91.5319 29.132 91.5319 27.2315C91.5319 25.5296 90.7032 24.1433 89.1426 24.1433C88.1355 24.1433 87.21 24.877 86.953 25.9445C86.9076 26.146 86.8804 26.3505 86.8713 26.558V28.0434H86.8774H86.8743Z" fill="#1E4FA0"/>
<path fill-rule="evenodd" clip-rule="evenodd" d="M24.3206 30.4159C24.3206 30.5182 24.3115 30.6204 24.2903 30.7196C24.2692 30.8189 24.242 30.9181 24.1996 31.0113C24.1603 31.1045 24.1119 31.1947 24.0544 31.2819C23.997 31.3661 23.9335 31.4443 23.8609 31.5195C23.7883 31.5917 23.7097 31.6578 23.6219 31.715C23.5373 31.7721 23.4465 31.8202 23.3498 31.8593C23.256 31.8984 23.1562 31.9285 23.0564 31.9495C22.9566 31.9706 22.8537 31.9796 22.7509 31.9796H11.5697C11.4668 31.9796 11.364 31.9706 11.2642 31.9495C11.1644 31.9285 11.0646 31.8984 10.9708 31.8623C10.8771 31.8232 10.7863 31.7751 10.6986 31.718C10.614 31.6608 10.5323 31.5977 10.4597 31.5225C10.3871 31.4503 10.3206 31.3722 10.2631 31.285C10.2057 31.2008 10.1573 31.1105 10.118 31.0143C10.0786 30.9181 10.0484 30.8219 10.0272 30.7226C10.0091 30.6204 10 30.5182 10 30.4159V19.5636C10 19.4614 10.0091 19.3591 10.0302 19.2599C10.0514 19.1577 10.0786 19.0614 10.118 18.9652C10.1573 18.869 10.2057 18.7788 10.2631 18.6946C10.3206 18.6104 10.3871 18.5292 10.4597 18.457C10.5323 18.3849 10.6109 18.3187 10.6986 18.2616C10.7833 18.2044 10.8741 18.1563 10.9708 18.1172C11.0676 18.0781 11.1644 18.0481 11.2672 18.027C11.3701 18.006 11.4699 17.9969 11.5727 17.9969H22.7509C22.8537 17.9969 22.9566 18.006 23.0564 18.027C23.1562 18.0481 23.256 18.0781 23.3498 18.1172C23.4465 18.1563 23.5342 18.2044 23.6219 18.2616C23.7066 18.3187 23.7883 18.3818 23.8609 18.457C23.9335 18.5292 24 18.6074 24.0544 18.6946C24.1119 18.7788 24.1603 18.869 24.1996 18.9652C24.2389 19.0614 24.2692 19.1577 24.2903 19.2569C24.3115 19.3561 24.3206 19.4584 24.3206 19.5606V30.4159V30.4159Z" fill="#F3702E"/>
<path fill-rule="evenodd" clip-rule="evenodd" d="M13.6986 23.3886L15.4769 26.4678L21.2203 21.5934L22.545 23.8366L15.235 28.4133L12.3467 25.5115L13.6986 23.3886Z" fill="white"/>
</g>
<defs>
<clipPath id="clip0_6277_60">
<rect width="84" height="18" fill="white" transform="translate(10 18)"/>
</clipPath>
</defs>
</svg>
