<svg width="26" height="26" viewBox="0 0 26 26" fill="none" xmlns="http://www.w3.org/2000/svg">
<path d="M1.625 8.125C1.625 7.26305 1.96741 6.4364 2.5769 5.8269C3.1864 5.21741 4.01305 4.875 4.875 4.875H21.125C21.987 4.875 22.8136 5.21741 23.4231 5.8269C24.0326 6.4364 24.375 7.26305 24.375 8.125V17.875C24.375 18.737 24.0326 19.5636 23.4231 20.1731C22.8136 20.7826 21.987 21.125 21.125 21.125H4.875C4.01305 21.125 3.1864 20.7826 2.5769 20.1731C1.96741 19.5636 1.625 18.737 1.625 17.875V8.125ZM21.125 19.5C21.556 19.5 21.9693 19.3288 22.274 19.024C22.5788 18.7193 22.75 18.306 22.75 17.875V13H10.8989L12.7628 14.8622C12.9153 15.0148 13.001 15.2217 13.001 15.4375C13.001 15.6533 12.9153 15.8602 12.7628 16.0128C12.6102 16.1653 12.4033 16.251 12.1875 16.251C11.9717 16.251 11.7648 16.1653 11.6122 16.0128L9.75 14.1489V19.5H21.125ZM12.8619 11.375H22.75V8.125C22.75 7.69402 22.5788 7.2807 22.274 6.97595C21.9693 6.67121 21.556 6.5 21.125 6.5H9.75V8.26312C10.1841 8.10924 10.6528 8.08147 11.102 8.18303C11.5512 8.28458 11.9624 8.51131 12.2881 8.83695C12.6137 9.16259 12.8404 9.57381 12.942 10.023C13.0435 10.4722 13.0158 10.9409 12.8619 11.375ZM10.5625 11.375C10.7232 11.375 10.8803 11.3273 11.0139 11.2381C11.1475 11.1488 11.2517 11.0219 11.3132 10.8734C11.3746 10.725 11.3907 10.5616 11.3594 10.404C11.328 10.2464 11.2507 10.1016 11.137 9.98798C11.0234 9.87435 10.8786 9.79696 10.721 9.76561C10.5634 9.73426 10.4 9.75035 10.2516 9.81185C10.1031 9.87334 9.97621 9.97748 9.88693 10.1111C9.79765 10.2447 9.75 10.4018 9.75 10.5625V11.375H10.5625ZM8.125 8.26312V6.5H4.875C4.44402 6.5 4.0307 6.67121 3.72595 6.97595C3.4212 7.2807 3.25 7.69402 3.25 8.125V11.375H5.01312C4.85924 10.9409 4.83147 10.4722 4.93303 10.023C5.03458 9.57381 5.26131 9.16259 5.58695 8.83695C5.91259 8.51131 6.32381 8.28458 6.773 8.18303C7.22218 8.08147 7.69095 8.10924 8.125 8.26312ZM7.3125 11.375H8.125V10.5625C8.125 10.4018 8.07735 10.2447 7.98807 10.1111C7.89879 9.97748 7.7719 9.87334 7.62343 9.81185C7.47497 9.75035 7.3116 9.73426 7.15399 9.76561C6.99638 9.79696 6.85161 9.87435 6.73798 9.98798C6.62435 10.1016 6.54696 10.2464 6.51561 10.404C6.48426 10.5616 6.50035 10.725 6.56185 10.8734C6.62334 11.0219 6.72748 11.1488 6.8611 11.2381C6.99471 11.3273 7.1518 11.375 7.3125 11.375ZM6.97613 13H3.25V17.875C3.25 18.306 3.4212 18.7193 3.72595 19.024C4.0307 19.3288 4.44402 19.5 4.875 19.5H8.125V14.1489L6.26275 16.0128C6.18721 16.0883 6.09752 16.1482 5.99882 16.1891C5.90012 16.23 5.79433 16.251 5.6875 16.251C5.58067 16.251 5.47488 16.23 5.37618 16.1891C5.27748 16.1482 5.18779 16.0883 5.11225 16.0128C5.03671 15.9372 4.97678 15.8475 4.9359 15.7488C4.89502 15.6501 4.87397 15.5443 4.87397 15.4375C4.87397 15.3307 4.89502 15.2249 4.9359 15.1262C4.97678 15.0275 5.03671 14.9378 5.11225 14.8622L6.97613 13Z" fill="black"/>
</svg>
