<svg id="Component_64_1" data-name="Component 64 – 1" xmlns="http://www.w3.org/2000/svg" xmlns:xlink="http://www.w3.org/1999/xlink" width="23.975" height="28.307" viewBox="0 0 23.975 28.307">
  <defs>
    <clipPath id="clip-path">
      <path id="Path_399" data-name="Path 399" d="M13.145,0,6.573,14.022,0,28.044l15.43-1.319A8.94,8.94,0,0,0,22,12.7Z" fill="none"/>
    </clipPath>
  </defs>
  <g id="Group_1218" data-name="Group 1218" transform="translate(0.354)" clip-path="url(#clip-path)">
    <path id="Path_311" data-name="Path 311" d="M14.873,0,0,26.206V0Z" fill="#aeaead"/>
    <path id="Path_312" data-name="Path 312" d="M15.157,0,0,26.705v-.5L14.873,0Z" fill="#aeaead"/>
    <path id="Path_313" data-name="Path 313" d="M15.44,0,0,27.205v-.5L15.156,0Z" fill="#b0b0af"/>
    <path id="Path_314" data-name="Path 314" d="M15.724,0,0,27.705v-.5L15.44,0Z" fill="#b2b1b1"/>
    <path id="Path_315" data-name="Path 315" d="M16.007,0,.091,28.044H0v-.339L15.723,0Z" fill="#b3b3b3"/>
    <path id="Path_316" data-name="Path 316" d="M16.291,0,.375,28.044H.091L16.007,0Z" fill="#b5b5b5"/>
    <path id="Path_317" data-name="Path 317" d="M16.575,0,.659,28.044H.375L16.291,0Z" fill="#b7b7b7"/>
    <path id="Path_318" data-name="Path 318" d="M16.858,0,.942,28.044H.658L16.574,0Z" fill="#b9b9b8"/>
    <path id="Path_319" data-name="Path 319" d="M17.142,0,1.226,28.044H.942L16.858,0Z" fill="#bbbaba"/>
    <path id="Path_320" data-name="Path 320" d="M17.2,0l.173.1L1.509,28.044H1.225L17.142,0Z" fill="#bcbcbc"/>
    <path id="Path_321" data-name="Path 321" d="M17.37.1l.214.122L1.793,28.044H1.509Z" fill="#bebebe"/>
    <path id="Path_322" data-name="Path 322" d="M17.584.22,17.8.342,2.076,28.044H1.792Z" fill="#c0bfbf"/>
    <path id="Path_323" data-name="Path 323" d="M17.8.342l.214.122L2.36,28.044H2.076Z" fill="#c1c1c1"/>
    <path id="Path_324" data-name="Path 324" d="M18.013.463l.214.122L2.643,28.044H2.359Z" fill="#c3c3c3"/>
    <path id="Path_325" data-name="Path 325" d="M18.228.585l.214.122L2.927,28.044H2.644Z" fill="#c5c4c4"/>
    <path id="Path_326" data-name="Path 326" d="M18.442.707l.214.122L3.21,28.044H2.927Z" fill="#c6c6c6"/>
    <path id="Path_327" data-name="Path 327" d="M18.657.829l.214.122L3.494,28.045H3.211Z" fill="#c8c8c7"/>
    <path id="Path_328" data-name="Path 328" d="M18.871.95l.214.122L3.777,28.044H3.494Z" fill="#cac9c9"/>
    <path id="Path_329" data-name="Path 329" d="M19.086,1.072l.214.122L4.062,28.044H3.778Z" fill="#cbcbcb"/>
    <path id="Path_330" data-name="Path 330" d="M19.3,1.194l.214.122L4.345,28.044H4.061Z" fill="#cdcccc"/>
    <path id="Path_331" data-name="Path 331" d="M19.515,1.315l.214.122L4.629,28.044H4.345Z" fill="#cecece"/>
    <path id="Path_332" data-name="Path 332" d="M19.729,1.437l.214.122L4.912,28.044H4.628Z" fill="#cfcfcf"/>
    <path id="Path_333" data-name="Path 333" d="M19.944,1.559l.214.122L5.2,28.044H4.912Z" fill="#d1d1d0"/>
    <path id="Path_334" data-name="Path 334" d="M20.158,1.681l.214.122L5.479,28.044H5.2Z" fill="#d2d2d2"/>
    <path id="Path_335" data-name="Path 335" d="M20.372,1.8l.214.122L5.762,28.044H5.478Z" fill="#d4d4d3"/>
    <path id="Path_336" data-name="Path 336" d="M20.587,1.924l.214.122-14.755,26H5.763Z" fill="#d5d5d5"/>
    <path id="Path_337" data-name="Path 337" d="M20.8,2.046l.214.122L6.33,28.044H6.047Z" fill="#d6d6d6"/>
    <path id="Path_338" data-name="Path 338" d="M21.016,2.168l.214.122L6.613,28.044H6.33Z" fill="#d8d7d7"/>
    <path id="Path_339" data-name="Path 339" d="M21.23,2.289l.214.122L6.9,28.044H6.613Z" fill="#d9d9d9"/>
    <path id="Path_340" data-name="Path 340" d="M21.445,2.411l.214.122L7.181,28.044H6.9Z" fill="#dadada"/>
    <path id="Path_341" data-name="Path 341" d="M21.66,2.533l.214.122L7.465,28.044H7.181Z" fill="#dbdbdb"/>
    <path id="Path_342" data-name="Path 342" d="M21.874,2.654l.214.122L7.748,28.044H7.464Z" fill="#dddcdc"/>
    <path id="Path_343" data-name="Path 343" d="M22.088,2.776,22.3,2.9,8.031,28.044H7.747Z" fill="#dededd"/>
    <path id="Path_344" data-name="Path 344" d="M22.3,2.9l.214.122L8.315,28.044H8.031Z" fill="#dfdfdf"/>
    <path id="Path_345" data-name="Path 345" d="M22.517,3.02l.214.122L8.6,28.044H8.314Z" fill="#e0e0e0"/>
    <path id="Path_346" data-name="Path 346" d="M22.732,3.141l.214.122L8.882,28.044H8.6Z" fill="#e1e1e1"/>
    <path id="Path_347" data-name="Path 347" d="M22.946,3.263l.214.122-14,24.659H8.882Z" fill="#e2e2e2"/>
    <path id="Path_348" data-name="Path 348" d="M23.161,3.385l.214.122L9.449,28.044H9.166Z" fill="#e3e3e3"/>
    <path id="Path_349" data-name="Path 349" d="M23.375,3.507l.214.122L9.732,28.044H9.449Z" fill="#e4e4e4"/>
    <path id="Path_350" data-name="Path 350" d="M23.59,3.628l.214.122L10.016,28.044H9.733Z" fill="#e5e5e5"/>
    <path id="Path_351" data-name="Path 351" d="M23.8,3.75l.214.122L10.3,28.044h-.283Z" fill="#e7e6e6"/>
    <path id="Path_352" data-name="Path 352" d="M24.019,3.872l.214.122L10.584,28.044H10.3Z" fill="#e7e7e7"/>
    <path id="Path_353" data-name="Path 353" d="M24.233,3.994l.214.122L10.867,28.045h-.284Z" fill="#e8e8e8"/>
    <path id="Path_354" data-name="Path 354" d="M24.448,4.115l.214.122L11.151,28.044h-.284Z" fill="#e9e9e9"/>
    <path id="Path_355" data-name="Path 355" d="M24.662,4.237l.214.122L11.434,28.044H11.15Z" fill="#eaeaea"/>
    <path id="Path_356" data-name="Path 356" d="M24.877,4.359l.214.122L11.718,28.044h-.284Z" fill="#ebebeb"/>
    <path id="Path_357" data-name="Path 357" d="M25.091,4.48l.214.122L12,28.044h-.284Z" fill="#ececec"/>
    <path id="Path_358" data-name="Path 358" d="M25.306,4.6l.214.122L12.285,28.044H12Z" fill="#ededed"/>
    <path id="Path_359" data-name="Path 359" d="M25.52,4.724l.214.122-13.166,23.2h-.283Z" fill="#eee"/>
    <path id="Path_360" data-name="Path 360" d="M25.735,4.846l.2.116v.024L12.852,28.044h-.283Z" fill="#efefef"/>
    <path id="Path_361" data-name="Path 361" d="M25.939,5.486l-12.8,22.559h-.284L25.939,4.986Z" fill="#efefef"/>
    <path id="Path_362" data-name="Path 362" d="M25.939,5.985,13.419,28.044h-.283l12.8-22.559Z" fill="#f0f0f0"/>
    <path id="Path_363" data-name="Path 363" d="M25.939,6.485,13.7,28.044h-.284L25.939,5.985Z" fill="#f1f1f1"/>
    <path id="Path_364" data-name="Path 364" d="M25.939,6.984,13.987,28.044H13.7L25.939,6.484Z" fill="#f2f2f2"/>
    <path id="Path_365" data-name="Path 365" d="M25.939,7.484,14.27,28.044h-.283L25.939,6.984Z" fill="#f2f2f2"/>
    <path id="Path_366" data-name="Path 366" d="M25.939,7.984,14.554,28.044H14.27L25.939,7.484Z" fill="#f3f3f3"/>
    <path id="Path_367" data-name="Path 367" d="M25.939,8.483l-11.1,19.561h-.283L25.939,7.983Z" fill="#f4f4f4"/>
    <path id="Path_368" data-name="Path 368" d="M25.939,8.983,15.121,28.044h-.284l11.1-19.561Z" fill="#f5f5f4"/>
    <path id="Path_369" data-name="Path 369" d="M25.939,9.483,15.4,28.044h-.283L25.939,8.983Z" fill="#f5f5f5"/>
    <path id="Path_370" data-name="Path 370" d="M25.939,9.982,15.688,28.044H15.4L25.939,9.482Z" fill="#f6f6f6"/>
    <path id="Path_371" data-name="Path 371" d="M25.939,10.482,15.972,28.044h-.284L25.939,9.982Z" fill="#f7f7f7"/>
    <path id="Path_372" data-name="Path 372" d="M25.939,10.982,16.255,28.044h-.283l9.967-17.562Z" fill="#f7f7f7"/>
    <path id="Path_373" data-name="Path 373" d="M25.939,11.481l-9.4,16.563h-.284l9.684-17.063Z" fill="#f8f8f8"/>
    <path id="Path_374" data-name="Path 374" d="M25.939,11.981,16.822,28.044h-.283l9.4-16.563Z" fill="#f8f8f8"/>
    <path id="Path_375" data-name="Path 375" d="M25.939,12.481,17.106,28.044h-.284l9.117-16.063Z" fill="#f9f9f9"/>
    <path id="Path_376" data-name="Path 376" d="M25.939,12.98,17.39,28.044h-.284L25.939,12.48Z" fill="#f9f9f9"/>
    <path id="Path_377" data-name="Path 377" d="M25.939,13.48,17.673,28.044H17.39L25.939,12.98Z" fill="#fafafa"/>
    <path id="Path_378" data-name="Path 378" d="M25.939,13.98,17.957,28.044h-.284L25.939,13.48Z" fill="#fafafa"/>
    <path id="Path_379" data-name="Path 379" d="M25.939,14.479l-7.7,13.565h-.283l7.982-14.065Z" fill="#fbfbfb"/>
    <path id="Path_380" data-name="Path 380" d="M25.939,14.979,18.524,28.044H18.24l7.7-13.565Z" fill="#fbfbfb"/>
    <path id="Path_381" data-name="Path 381" d="M25.939,15.479,18.807,28.045h-.283l7.415-13.066Z" fill="#fbfbfb"/>
    <path id="Path_382" data-name="Path 382" d="M25.939,15.978,19.091,28.044h-.284l7.132-12.566Z" fill="#fcfcfc"/>
    <path id="Path_383" data-name="Path 383" d="M25.939,16.478,19.375,28.044h-.284l6.848-12.066Z" fill="#fcfcfc"/>
    <path id="Path_384" data-name="Path 384" d="M25.939,16.977,19.658,28.044h-.283l6.564-11.567Z" fill="#fcfcfc"/>
    <path id="Path_385" data-name="Path 385" d="M25.939,17.477l-6,10.567h-.284l6.281-11.067Z" fill="#fdfdfd"/>
    <path id="Path_386" data-name="Path 386" d="M25.939,17.977,20.225,28.044h-.283l6-10.567Z" fill="#fdfdfd"/>
    <path id="Path_387" data-name="Path 387" d="M25.939,18.476l-5.43,9.568h-.284l5.714-10.068Z" fill="#fdfdfd"/>
    <path id="Path_388" data-name="Path 388" d="M25.939,18.976l-5.147,9.068h-.283l5.43-9.568Z" fill="#fdfdfd"/>
    <path id="Path_389" data-name="Path 389" d="M25.939,19.476l-4.863,8.568h-.284l5.147-9.068Z" fill="#fefefe"/>
    <path id="Path_390" data-name="Path 390" d="M25.939,19.975,21.36,28.044h-.284l4.863-8.569Z" fill="#fefefe"/>
    <path id="Path_391" data-name="Path 391" d="M25.939,20.475l-4.3,7.569H21.36l4.579-8.069Z" fill="#fefefe"/>
    <path id="Path_392" data-name="Path 392" d="M25.939,20.975l-4.012,7.069h-.284l4.3-7.569Z" fill="#fefefe"/>
    <path id="Path_393" data-name="Path 393" d="M25.939,21.474l-3.729,6.57h-.283l4.012-7.07Z" fill="#fff"/>
    <path id="Path_394" data-name="Path 394" d="M25.939,21.974l-3.445,6.07H22.21l3.729-6.57Z" fill="#fff"/>
    <path id="Path_395" data-name="Path 395" d="M25.939,22.474l-3.162,5.57h-.283l3.445-6.07Z" fill="#fff"/>
    <path id="Path_396" data-name="Path 396" d="M25.939,22.973l-2.878,5.071h-.284l3.162-5.571Z" fill="#fff"/>
    <path id="Path_397" data-name="Path 397" d="M25.939,23.473l-2.594,4.571h-.284l2.878-5.071Z" fill="#fff"/>
    <path id="Path_398" data-name="Path 398" d="M25.939,23.973l-2.311,4.072h-.283l2.594-4.572Z" fill="#fff"/>
  </g>
  <path id="Path_400" data-name="Path 400" d="M6559-771h13.631L6559-742.693Z" transform="translate(-6559 771)" fill="#61471d"/>
</svg>
