<svg xmlns="http://www.w3.org/2000/svg" xmlns:xlink="http://www.w3.org/1999/xlink" width="267" height="266" viewBox="0 0 267 266">
  <defs>
    <linearGradient id="linear-gradient" x1="0.5" x2="0.5" y2="1" gradientUnits="objectBoundingBox">
      <stop offset="0" stop-color="#645757"/>
      <stop offset="1" stop-color="#565656"/>
    </linearGradient>
    <linearGradient id="linear-gradient-2" x1="0.103" y1="0.445" x2="1.062" y2="1.283" gradientUnits="objectBoundingBox">
      <stop offset="0" stop-color="#f8f1e5"/>
      <stop offset="1" stop-color="#fdcb78"/>
    </linearGradient>
    <filter id="Ellipse_5" x="0" y="0" width="267" height="266" filterUnits="userSpaceOnUse">
      <feOffset dy="3" input="SourceAlpha"/>
      <feGaussianBlur stdDeviation="3" result="blur"/>
      <feFlood flood-opacity="0.161"/>
      <feComposite operator="in" in2="blur"/>
      <feComposite in="SourceGraphic"/>
    </filter>
    <filter id="Ellipse_3" x="90" y="90" width="87" height="86" filterUnits="userSpaceOnUse">
      <feOffset dy="3" input="SourceAlpha"/>
      <feGaussianBlur stdDeviation="3" result="blur-2"/>
      <feFlood flood-opacity="0.161"/>
      <feComposite operator="in" in2="blur-2"/>
      <feComposite in="SourceGraphic"/>
    </filter>
    <clipPath id="clip-path">
      <rect id="Rectangle_48" data-name="Rectangle 48" width="36.792" height="45.727" fill="url(#linear-gradient)"/>
    </clipPath>
  </defs>
  <g id="Component_111_2" data-name="Component 111 – 2" transform="translate(99 96)">
    <g transform="matrix(1, 0, 0, 1, -99, -96)" filter="url(#Ellipse_5)">
      <ellipse id="Ellipse_5-2" data-name="Ellipse 5" cx="34.5" cy="34" rx="34.5" ry="34" transform="translate(99 96)" fill="url(#linear-gradient-2)"/>
    </g>
    <g transform="matrix(1, 0, 0, 1, -99, -96)" filter="url(#Ellipse_3)">
      <ellipse id="Ellipse_3-2" data-name="Ellipse 3" cx="34.5" cy="34" rx="34.5" ry="34" transform="translate(99 96)" fill="url(#linear-gradient-2)"/>
    </g>
    <g id="lock" transform="translate(16.292 10.965)">
      <g id="Group_946" data-name="Group 946" clip-path="url(#clip-path)">
        <path id="Path_208" data-name="Path 208" d="M32.57,15.711H31.005V12.945A12.8,12.8,0,0,0,18.4,0,12.794,12.794,0,0,0,5.787,12.945v2.766H4.221A4.218,4.218,0,0,0,0,19.925V41.514a4.218,4.218,0,0,0,4.221,4.214H32.57a4.219,4.219,0,0,0,4.223-4.214V19.925a4.219,4.219,0,0,0-4.223-4.214M19.854,33.044v4.064a1.458,1.458,0,0,1-2.916,0V33.044a3.494,3.494,0,1,1,2.916,0m8.235-17.333H8.7V12.945A9.879,9.879,0,0,1,18.4,2.91a9.88,9.88,0,0,1,9.693,10.034Z" transform="translate(0 -0.001)" fill="#030303"/>
      </g>
    </g>
  </g>
</svg>
