<svg id="unlock" xmlns="http://www.w3.org/2000/svg" xmlns:xlink="http://www.w3.org/1999/xlink" width="27.15" height="23.145" viewBox="0 0 27.15 23.145">
  <defs>
    <clipPath id="clip-path">
      <rect id="Rectangle_65" data-name="Rectangle 65" width="27.15" height="23.145" fill="#f8f7f7"/>
    </clipPath>
  </defs>
  <g id="Group_987" data-name="Group 987" clip-path="url(#clip-path)">
    <path id="Path_305" data-name="Path 305" d="M20.723,0A6.52,6.52,0,0,0,14.3,6.593V7.844H2.147A2.148,2.148,0,0,0,0,10V21a2.142,2.142,0,0,0,2.147,2.143H16.593A2.148,2.148,0,0,0,18.747,21V10a2.154,2.154,0,0,0-2.155-2.151h-.8V7.83h-.016V6.593A4.939,4.939,0,1,1,25.656,6.5H27.15A6.52,6.52,0,0,0,20.723,0M10.113,16.685v2.069a.743.743,0,0,1-1.486,0V16.685a1.783,1.783,0,1,1,1.486,0" transform="translate(0 0)" fill="#f8f7f7"/>
  </g>
</svg>
