<svg width="18" height="16" xmlns="http://www.w3.org/2000/svg"><g transform="translate(1 1)" stroke="#004A8E" fill="none" fill-rule="evenodd" stroke-linecap="round" stroke-linejoin="round"><path d="M6.609 13.451c0-.42-.185-.82-.514-1.08a4.157 4.157 0 0 0-2.617-.893 4.157 4.157 0 0 0-2.617.892c-.329.261-.513.661-.513 1.081v.81h6.26v-.81z"/><circle cx="3.478" cy="7.652" r="1.739"/><path d="M15.652 13.451c0-.42-.184-.82-.513-1.08a4.157 4.157 0 0 0-2.617-.893 4.157 4.157 0 0 0-2.617.892c-.33.261-.514.661-.514 1.081v.81h6.261v-.81z"/><circle cx="12.522" cy="7.652" r="1.739"/><path d="M8 .348v4.174M5.913 2.435h4.174"/></g></svg>