<svg width="32" height="32" xmlns="http://www.w3.org/2000/svg"><g fill-rule="nonzero" fill="#E1DFE1"><path d="M15.907 21.545a5.37 5.37 0 0 1-3.846-1.61 5.498 5.498 0 0 1-1.593-3.892c0-1.47.566-2.852 1.592-3.89a5.374 5.374 0 0 1 3.847-1.612c1.453 0 2.82.573 3.848 1.613 2.12 2.145 2.12 5.635 0 7.78a5.377 5.377 0 0 1-3.848 1.611zm0-10a4.393 4.393 0 0 0-3.145 1.317 4.494 4.494 0 0 0-1.302 3.18c0 1.202.463 2.333 1.303 3.182a4.392 4.392 0 0 0 3.144 1.317 4.395 4.395 0 0 0 3.145-1.317 4.54 4.54 0 0 0 0-6.361 4.392 4.392 0 0 0-3.145-1.319zM20.543 11.859a.492.492 0 0 1-.351-.147.505.505 0 0 1 0-.71l4.573-4.624a.492.492 0 0 1 .701 0 .505.505 0 0 1 0 .71l-4.572 4.624a.492.492 0 0 1-.351.147z"/><path d="M22.102 10.283a.5.5 0 0 1-.495-.476l-.255-5.175a.5.5 0 0 1 .47-.526c.268-.021.507.2.521.477l.255 5.174a.5.5 0 0 1-.47.526h-.026z"/><path d="M27.218 10.54h-.025l-5.115-.257a.5.5 0 0 1-.471-.526c.013-.277.23-.498.52-.476l5.116.256a.5.5 0 0 1 .47.526.5.5 0 0 1-.495.477zM6.7 25.858a.492.492 0 0 1-.35-.147.505.505 0 0 1 0-.71l4.576-4.629a.492.492 0 0 1 .702 0 .505.505 0 0 1 0 .71L7.05 25.71a.492.492 0 0 1-.351.147z"/><path d="M9.97 27.981a.499.499 0 0 1-.496-.476l-.255-5.174a.496.496 0 1 1 .991-.05l.256 5.173a.5.5 0 0 1-.471.527h-.026z"/><path d="M9.715 22.808h-.026l-5.114-.258a.5.5 0 0 1-.471-.526.504.504 0 0 1 .52-.476l5.115.258a.5.5 0 0 1 .47.526.498.498 0 0 1-.494.476zM25.116 25.858a.492.492 0 0 1-.351-.147l-4.573-4.625a.505.505 0 0 1 0-.71.492.492 0 0 1 .702 0l4.572 4.625a.505.505 0 0 1 0 .71.492.492 0 0 1-.35.147z"/><path d="M22.1 22.808a.499.499 0 0 1-.495-.477.5.5 0 0 1 .47-.526l5.118-.257a.49.49 0 0 1 .52.476.5.5 0 0 1-.47.527l-5.118.256H22.1z"/><path d="M21.849 27.98h-.025a.5.5 0 0 1-.471-.526l.252-5.173a.498.498 0 0 1 .52-.477.5.5 0 0 1 .471.526l-.252 5.174a.5.5 0 0 1-.495.477zM11.276 11.861a.492.492 0 0 1-.351-.147L6.349 7.088a.505.505 0 0 1 0-.71.492.492 0 0 1 .702 0l4.576 4.627a.505.505 0 0 1 0 .71.492.492 0 0 1-.351.146z"/><path d="M4.6 10.54a.5.5 0 0 1-.494-.477.499.499 0 0 1 .47-.525L9.69 9.28a.5.5 0 0 1 .52.476.499.499 0 0 1-.47.526l-5.113.258h-.025z"/><path d="M9.715 10.283h-.026a.5.5 0 0 1-.47-.527l.257-5.172a.502.502 0 0 1 .52-.476.5.5 0 0 1 .47.527l-.256 5.171a.5.5 0 0 1-.495.477zM27.227 16.545h-5.62a.499.499 0 0 1-.497-.502.5.5 0 0 1 .496-.502h5.62c.275 0 .497.226.497.503a.5.5 0 0 1-.496.501z"/><path d="M23.524 16.546a.493.493 0 0 1-.333-.13.507.507 0 0 1-.035-.709l2.983-3.336a.493.493 0 0 1 .701-.035.507.507 0 0 1 .036.709l-2.984 3.336a.494.494 0 0 1-.368.165z"/><path d="M26.506 19.884a.493.493 0 0 1-.368-.166l-2.982-3.337a.507.507 0 0 1 .035-.71.493.493 0 0 1 .701.037l2.983 3.338a.507.507 0 0 1-.036.709.495.495 0 0 1-.333.129zM4.594 16.545a.499.499 0 0 1-.497-.501.5.5 0 0 1 .497-.502l5.621-.001a.5.5 0 0 1 .497.502.5.5 0 0 1-.497.501l-5.621.001z"/><path d="M5.311 19.882a.49.49 0 0 1-.333-.13.506.506 0 0 1-.035-.709l2.988-3.337a.493.493 0 0 1 .7-.035.506.506 0 0 1 .036.709l-2.988 3.336a.49.49 0 0 1-.368.166z"/><path d="M8.299 16.545a.491.491 0 0 1-.368-.165l-2.988-3.336a.506.506 0 0 1 .035-.709.493.493 0 0 1 .701.035l2.988 3.337a.506.506 0 0 1-.035.709.493.493 0 0 1-.333.13zM15.91 27.99a.5.5 0 0 1-.496-.502v-5.686c0-.278.223-.502.497-.502s.496.225.496.502l-.001 5.686a.5.5 0 0 1-.496.501z"/><path d="M19.21 27.263a.49.49 0 0 1-.333-.13l-3.3-3.02a.506.506 0 0 1-.034-.708.493.493 0 0 1 .7-.035l3.3 3.02a.506.506 0 0 1 .034.708.491.491 0 0 1-.367.165z"/><path d="M12.61 27.263a.492.492 0 0 1-.368-.165.505.505 0 0 1 .035-.709l3.301-3.02a.492.492 0 0 1 .701.036.505.505 0 0 1-.035.708l-3.3 3.02a.492.492 0 0 1-.334.13zM15.91 10.785a.5.5 0 0 1-.495-.502L15.414 4.6a.5.5 0 0 1 .496-.502.5.5 0 0 1 .496.502l.001 5.683a.499.499 0 0 1-.496.502z"/><path d="M15.91 8.848a.49.49 0 0 1-.332-.13L12.275 5.7a.506.506 0 0 1-.036-.709.493.493 0 0 1 .701-.036l3.303 3.018a.507.507 0 0 1 .035.709.49.49 0 0 1-.368.166z"/><path d="M15.91 8.848a.493.493 0 0 1-.367-.166.506.506 0 0 1 .034-.708l3.298-3.019a.492.492 0 0 1 .701.035.506.506 0 0 1-.035.709l-3.298 3.019a.488.488 0 0 1-.332.13z"/></g></svg>