<svg width="32" height="32" xmlns="http://www.w3.org/2000/svg"><g fill-rule="nonzero" fill="#E1DFE1"><path d="M13.072 18.784a.436.436 0 0 1-.336-.144l-8.112-7.824c-.144-.144-.192-.336-.096-.528S4.768 10 4.96 10h16.224c.192 0 .384.096.432.288.096.192.048.384-.096.528l-8.112 7.824a.436.436 0 0 1-.336.144zM6.16 10.96l6.912 6.672 6.912-6.672H6.16z"/><path d="M12.592 18.304h1v8.256h-1z"/><path d="M10.192 26.08h5.76v1h-5.76zM8.416 13.12h9.312v1H8.416z"/><path d="M21.184 16.336a6.522 6.522 0 0 1-2.304-.432c-.72-.24-1.344-.624-1.968-1.2l.624-.72c.528.48 1.056.816 1.632 1.008 2.784 1.056 5.952-.24 7.008-2.928a4.772 4.772 0 0 0-.048-3.888c-.576-1.296-1.632-2.304-3.024-2.832-2.784-1.056-5.904.288-6.96 2.976a4.456 4.456 0 0 0-.336 2.064l-.96.048a5.516 5.516 0 0 1 .432-2.448c1.248-3.216 4.896-4.752 8.208-3.504 1.632.624 2.88 1.824 3.552 3.36.624 1.488.672 3.12.048 4.608-1.008 2.4-3.36 3.888-5.904 3.888z"/><path d="M22.754 5.023l.926.378-2.012 4.934-.926-.378z"/><path d="M17.169 6.508l4.328 3.27-.603.797-4.328-3.27z"/><path d="M21.232 9.642l5.455.43-.079.998-5.455-.431z"/><path d="M21.642 10.001l1.583 5.088-.955.297-1.583-5.087zM5.374 5.201l5.844 8.096-.81.585-5.845-8.095z"/></g></svg>