<svg width="32" height="32" xmlns="http://www.w3.org/2000/svg"><g fill-rule="nonzero" fill="#6692BC"><path d="M24.229 5.481a.35.35 0 0 0-.55 0l-4.029 4.697a.508.508 0 0 0 0 .64.362.362 0 0 0 .275.134c.1 0 .2-.045.275-.133l4.029-4.697a.508.508 0 0 0 0-.641zM25.325 6.738a.35.35 0 0 0-.55 0l-4.029 4.698a.508.508 0 0 0 0 .64.362.362 0 0 0 .275.133c.1 0 .199-.044.275-.133l4.029-4.697a.508.508 0 0 0 0-.64z"/><path d="M21.524 14.67l5.001-5.83a.508.508 0 0 0 0-.641.35.35 0 0 0-.55 0l-5 5.83c-.617.719-1.559.907-2.345.47-.156-.087-.343-.043-.458.108l-1.7 2.232-.002.003-.002.002-7.344 9.648a1.46 1.46 0 0 1-.076.097c-.485.565-1.274.565-1.759 0a1.57 1.57 0 0 1-.364-1.025 1.57 1.57 0 0 1 .447-1.114l4.592-4.752a.507.507 0 0 0 .033-.64c-.143-.187-.389-.204-.549-.037l-4.589 4.748a2.182 2.182 0 0 0-.12.129 2.55 2.55 0 0 0-.591 1.666c0 .63.21 1.22.591 1.666.394.459.912.689 1.43.689.517 0 1.034-.23 1.428-.689.037-.043.074-.09.11-.14l5.598-7.352 5.597 7.352c.037.05.073.097.11.14.394.46.911.689 1.429.689.517 0 1.035-.23 1.429-.69.788-.918.788-2.412 0-3.33a2.176 2.176 0 0 0-.12-.13l-6.44-6.665 1.26-1.655c1.02.422 2.176.128 2.954-.779zm1.713 9.78a1.404 1.404 0 0 1 .083.088c.485.566.485 1.486 0 2.051-.485.565-1.274.565-1.759 0a1.443 1.443 0 0 1-.075-.097l-5.662-7.437.97-1.273 6.443 6.668z"/><path d="M23.063 4.162a.35.35 0 0 0-.55 0l-5.001 5.83c-.778.908-1.03 2.254-.668 3.445l-1.54 1.593-1.479-1.531c.765-1.755.486-3.886-.727-5.3-1.206-1.406-2.602-2.395-3.931-2.785-1.388-.407-2.578-.135-3.352.766-.773.901-1.006 2.29-.657 3.907.335 1.55 1.183 3.178 2.389 4.583 1.213 1.415 3.04 1.74 4.546.849l1.465 1.924c.076.101.183.152.29.152a.357.357 0 0 0 .258-.114l3.46-3.58a.507.507 0 0 0 .093-.534c-.376-.917-.214-2.015.402-2.734l5.002-5.83a.508.508 0 0 0 0-.641zm-9.182 12.34l-1.415-1.857c-.125-.165-.334-.2-.494-.085-1.246.896-2.84.678-3.876-.53-1.107-1.291-1.883-2.77-2.184-4.164-.28-1.297-.12-2.378.453-3.045.572-.667 1.5-.855 2.612-.528 1.195.35 2.464 1.255 3.571 2.546 1.036 1.208 1.223 3.066.455 4.519-.1.187-.068.43.073.576l1.643 1.701-.838.868z"/></g></svg>