<?xml version="1.0" encoding="UTF-8"?>
<svg width="22px" height="24px" viewBox="0 0 22 24" version="1.1" xmlns="http://www.w3.org/2000/svg" xmlns:xlink="http://www.w3.org/1999/xlink">
    <!-- Generator: Sketch 53 (72520) - https://sketchapp.com -->
    <title>breakfast-grey</title>
    <desc>Created with Sketch.</desc>
    <g id="Page-1" stroke="none" stroke-width="1" fill="none" fill-rule="evenodd">
        <g id="breakfast-grey" fill="#9B9B9B" fill-rule="nonzero">
            <path d="M19.2289082,1.48100856 C19.0771397,1.30420996 18.8311658,1.30406213 18.6793551,1.48100856 L14.6504116,6.17819453 C14.4986008,6.35514096 14.4986008,6.64192129 14.6503693,6.81891699 C14.7262747,6.90736557 14.8256786,6.95156522 14.925167,6.95156522 C15.0245709,6.95156522 15.1240594,6.90736557 15.1999647,6.81891699 L19.2289082,2.12173102 C19.3806344,1.94473532 19.3806344,1.65790571 19.2289082,1.48100856 Z" id="Shape"></path>
            <path d="M20.3245489,2.73825947 C20.1727382,2.56141159 19.9267642,2.56141159 19.7749957,2.73825947 L15.7460945,7.43554399 C15.5943683,7.61253969 15.5943683,7.89932003 15.7460523,8.07626645 C15.8219576,8.16471503 15.9214461,8.20891468 16.02085,8.20891468 C16.1202539,8.20891468 16.2197423,8.16471503 16.2956477,8.07626645 L20.3245489,3.37893265 C20.4763174,3.20198623 20.4763174,2.91515662 20.3245489,2.73825947 Z" id="Shape"></path>
            <path d="M16.5237441,10.6703966 L21.52513,4.83929499 C21.6768985,4.6622993 21.6768985,4.37551896 21.52513,4.19857253 C21.3733193,4.02177393 21.1273453,4.02162611 20.9755769,4.19857253 L15.9742755,10.0296742 C15.358115,10.7480047 14.4159756,10.9364815 13.6299155,10.4988212 C13.4735403,10.4118016 13.2868199,10.4558041 13.1718207,10.6068812 L11.472445,12.8391852 C11.4717688,12.8400229 11.471008,12.840762 11.4703318,12.841649 C11.4696556,12.8425359 11.4691484,12.8434722 11.4684722,12.8443591 L4.12352935,22.4922508 C4.12166975,22.4947145 4.11981015,22.4972276 4.11799282,22.4997406 C4.0937758,22.5329026 4.07091121,22.5620242 4.04775077,22.5890761 C3.56277635,23.1544571 2.77371557,23.1544079 2.28895247,22.5890761 C2.05405157,22.3152551 1.9246828,21.9510638 1.9246828,21.5637625 C1.9246828,21.1764612 2.05405157,20.8123192 2.28937511,20.5379561 C2.31194385,20.5114955 2.33687936,20.4849363 2.36557632,20.4564553 C2.36777402,20.4543365 2.3698872,20.4521684 2.37200038,20.4500003 L6.9638523,15.6982177 C7.12436932,15.5321117 7.13895025,15.2457749 6.99652204,15.0586778 C6.85405156,14.8714822 6.60841571,14.8543838 6.44798321,15.0205882 L1.85917427,19.7692173 C1.81530469,19.8128256 1.77604183,19.8550543 1.73944159,19.8977757 C1.35775932,20.342778 1.14754034,20.9344226 1.14754034,21.5637625 C1.14754034,22.1930532 1.35771706,22.784747 1.73939932,23.2297493 C2.13342255,23.6890413 2.65085539,23.918712 3.16841502,23.9186627 C3.68576333,23.9186627 4.20332296,23.6890906 4.59705034,23.2299957 C4.63436907,23.1865844 4.67050442,23.1407587 4.70761183,23.090104 L10.3046604,15.7379826 L15.9017935,23.0902026 C15.9388587,23.1409065 15.974994,23.1867322 16.0120591,23.2298478 C16.4059978,23.6891399 16.9234729,23.9187612 17.4409481,23.9187612 C17.9584654,23.9187612 18.4759828,23.6890906 18.8699637,23.2297986 C19.6577566,22.3111653 19.6577566,20.8165568 18.8701751,19.8981699 C18.8329831,19.8546601 18.7936357,19.81253 18.7502311,19.7693158 L12.309644,13.1043831 L13.5697322,11.4491383 C14.5906932,11.8708828 15.7459255,11.5771054 16.5237441,10.6703966 Z M18.2373204,20.4500496 C18.2394336,20.4522177 18.241589,20.4543858 18.2437445,20.4565046 C18.2721879,20.4847392 18.2971656,20.5113969 18.3203683,20.5383996 C18.8052582,21.1037806 18.8052582,22.0236951 18.3204106,22.5889776 C17.8354362,23.1543093 17.0464177,23.1543093 16.5613165,22.5887312 C16.5383673,22.5619749 16.5154182,22.5328041 16.4912012,22.499642 C16.4893839,22.497129 16.4875243,22.494616 16.4856647,22.4921522 L10.8241642,15.0554749 L11.7936481,13.7819633 L18.2373204,20.4500496 Z" id="Shape"></path>
            <path d="M18.0625606,0.161523358 C17.9107499,-0.0153245163 17.6647759,-0.0153245163 17.5130074,0.161523358 L12.5117061,5.99267426 C11.7338029,6.89953085 11.481912,8.2462651 11.8436459,9.43684698 L10.3046181,11.0295126 L8.82547786,9.49883489 C9.59040614,7.74405459 9.31117076,5.61345408 8.09761472,4.19852326 C6.89234235,2.79329961 5.49629223,1.8044002 4.16663818,1.41409314 C2.77857588,1.00673695 1.58851839,1.27868552 0.815348716,2.18007258 C0.0421790389,3.08145965 -0.191115846,4.46914141 0.158361582,6.08738076 C0.493173552,7.6375221 1.34131879,9.26517297 2.5466757,10.6703473 C3.76023173,12.0853274 5.5876238,12.4108872 7.09279844,11.5190102 C7.09279844,11.5190102 8.53926899,13.4189546 8.55761137,13.4430993 C8.63440427,13.5439652 8.74111978,13.595359 8.84838471,13.595359 C8.94013891,13.595359 9.03218896,13.5577129 9.10619246,13.4811396 L12.5661416,9.90062301 C12.6956794,9.76654581 12.7334208,9.54875044 12.6588256,9.36653159 C12.283356,8.44996784 12.4450564,7.35162871 13.061217,6.63334745 L18.0625606,0.802245818 C18.214329,0.625250119 18.214329,0.338469782 18.0625606,0.161523358 Z M8.88088539,12.5028836 L7.46640836,10.6449215 C7.34113915,10.4803923 7.13244166,10.4444216 6.97184011,10.56007 C5.72599471,11.4557411 4.13223564,11.2377979 3.09610206,10.0297234 C1.98862757,8.73857135 1.21296434,7.25997727 0.911920964,5.86613613 C0.631924839,4.5693667 0.792779971,3.48778106 1.36490186,2.82079504 C1.93693923,2.15371047 2.8646245,1.96626848 3.97683251,2.29276444 C5.172342,2.64370079 6.44062935,3.54799508 7.54801931,4.83919644 C8.58415289,6.04717238 8.77112691,7.90533157 8.00285981,9.3578592 C7.90379401,9.54515336 7.93451962,9.78837463 8.07563767,9.93447492 L9.71918322,11.6352498 L8.88088539,12.5028836 Z" id="Shape"></path>
        </g>
    </g>
</svg>