<svg width="32" height="32" xmlns="http://www.w3.org/2000/svg"><g fill-rule="nonzero" fill="#E1DFE1"><path d="M23.47 13.996v.05c0 5.93-3.933 10.734-8.762 10.734-4.83 0-8.762-4.804-8.762-10.733v-.051H23.47zm.995-1.023H5.05C5 13.331 5 13.69 5 14.047c0 6.49 4.381 11.755 9.757 11.755 5.377 0 9.758-5.264 9.758-11.755-.05-.358-.05-.716-.05-1.074zM10.177 26.569h8.464v1.022h-8.464V26.57z"/><path d="M18.143 25.138l-.249-.971c3.286-.87 8.86-2.914 9.509-6.747.248-1.533-.4-2.249-1.096-2.402-.747-.154-1.693.358-2.041 1.635l-.946-.255c.498-1.942 1.991-2.658 3.236-2.402 1.194.255 2.19 1.482 1.842 3.577-.796 4.345-6.77 6.594-10.255 7.565zM13.015 23.298c-4.68-2.76-5.127-7.411-5.127-7.616l.995-.102c0 .051.399 4.344 4.63 6.798l-.498.92zM14.907 12.513l-.448-.92c.2-.102 1.195-.715.846-1.533-.1-.153-.348-.358-.597-.562-.249-.205-.547-.41-.747-.716a2.286 2.286 0 0 1-.498-1.942c.05-.358.348-.664.548-.92.099-.153.298-.358.348-.46l.995-.102c.05.51-.298.869-.597 1.226-.099.154-.298.358-.298.46-.15.512.15.972.298 1.125.15.204.348.358.548.511.348.256.697.562.896.971.548 1.278-.348 2.351-1.294 2.862z"/></g></svg>