<svg width="31" height="15" xmlns="http://www.w3.org/2000/svg"><g fill-rule="nonzero" fill="#004A8F"><path d="M10.524 5.053H20.8v1H10.524zM10.524 8.501H20.8v1H10.524zM30.122 5.053h-2.094v.89h1.65v2.558h-1.65v.903h2.094c.246 0 .445-.2.445-.445v-3.46c0-.247-.199-.446-.445-.446zM3.408 8.501h-2.05V5.943h2.05v-.89H.901c-.246 0-.445.2-.445.445v3.448a.445.445 0 0 0 .457.458h2.508l-.013-.903z"/><path d="M28.01 8.501V2.86c0-.672-.545-1.216-1.217-1.216h-1.43c-.11 0-.219.014-.325.043v-.47c0-.669-.54-1.213-1.21-1.216h-2.364c-.671 0-1.216.545-1.216 1.216v12.012a1.216 1.216 0 0 0 1.216 1.192h2.358c.671 0 1.216-.545 1.216-1.217v-.445c.106.03.216.044.326.044h1.43c.671 0 1.216-.544 1.216-1.216V8.45v.05zm-3.856 4.727c0 .18-.146.326-.326.326h-2.364a.326.326 0 0 1-.326-.326V1.216c0-.18.146-.326.326-.326h2.358c.18 0 .326.146.326.326l.006 12.012zm2.972-1.617a.326.326 0 0 1-.326.326h-1.43a.326.326 0 0 1-.326-.326V2.834a.326.326 0 0 1 .326-.326h1.43c.18 0 .326.146.326.326v8.777zM10.788 1.216C10.788.545 10.243 0 9.57 0H7.208C6.536 0 5.99.545 5.99 1.216v.445a1.21 1.21 0 0 0-.326-.043H4.242c-.671 0-1.216.544-1.216 1.216v8.777a1.216 1.216 0 0 0 1.216 1.216h1.423c.11 0 .22-.014.326-.044v.445a1.216 1.216 0 0 0 1.217 1.192h2.357c.672 0 1.216-.545 1.216-1.217l.007-11.987zm-4.79 10.395c0 .18-.146.326-.326.326h-1.43a.326.326 0 0 1-.326-.326V2.834c0-.18.146-.326.326-.326h1.423c.18 0 .326.146.326.326l.007 8.777zm3.9 1.617c0 .18-.147.326-.327.326H7.208a.326.326 0 0 1-.326-.326V1.216c0-.18.146-.326.326-.326h2.357c.18 0 .326.146.326.326l.006 12.012z"/></g></svg>