<svg width="32" height="32" xmlns="http://www.w3.org/2000/svg"><g fill-rule="nonzero" fill="#E1DFE1"><path d="M11.261 14.252h9.393v1h-9.393zM11.261 17.836h9.393v1h-9.393zM29.177 14.252h-1.914v.926h1.507v2.658h-1.507v.939h1.914c.225 0 .407-.208.407-.463v-3.597c0-.256-.182-.463-.407-.463zM4.757 17.836H2.883v-2.658h1.874v-.926H2.464c-.225 0-.407.207-.407.463v3.584c-.003.127.04.25.12.34.078.09.187.14.299.136h2.292l-.011-.939z"/><path d="M27.245 17.836v-5.865c0-.698-.497-1.264-1.111-1.264h-1.307c-.1 0-.201.015-.298.046v-.489c0-.695-.494-1.26-1.106-1.264h-2.16c-.615 0-1.113.566-1.113 1.264V22.75c.013.688.507 1.238 1.112 1.238h2.155c.614 0 1.112-.566 1.112-1.265v-.462c.097.03.197.046.298.045h1.307c.614 0 1.111-.566 1.111-1.264v-3.258.052zm-3.524 4.914c0 .187-.134.338-.298.338h-2.16c-.165 0-.299-.151-.299-.338V10.264c0-.187.134-.339.298-.339h2.155c.165 0 .298.152.298.34l.006 12.485zm2.716-1.682c0 .09-.031.176-.087.24a.281.281 0 0 1-.21.1h-1.307c-.165 0-.298-.153-.298-.34v-9.123c0-.09.031-.176.087-.24a.281.281 0 0 1 .21-.098h1.307c.165 0 .298.151.298.338v9.123zM11.502 10.264c0-.698-.498-1.264-1.112-1.264H8.23c-.614 0-1.112.566-1.112 1.264v.463a.982.982 0 0 0-.298-.046H5.519c-.614 0-1.112.566-1.112 1.264v9.123c0 .336.117.657.326.894.208.237.491.37.786.37h1.3c.102 0 .202-.015.299-.045v.463c.012.688.506 1.238 1.112 1.238h2.155c.614 0 1.111-.566 1.111-1.265l.006-12.459zM7.124 21.068c0 .187-.134.34-.298.34H5.519c-.165 0-.298-.153-.298-.34v-9.123c0-.187.133-.338.298-.338h1.3c.165 0 .299.151.299.338l.006 9.123zm3.564 1.682c0 .187-.133.338-.298.338H8.23c-.165 0-.298-.151-.298-.338V10.264c0-.187.133-.339.298-.339h2.155c.164 0 .298.152.298.34l.005 12.485z"/></g></svg>