<svg width="19" height="18" xmlns="http://www.w3.org/2000/svg"><g stroke-width=".3" stroke="#6692bc" fill="#6692bc" fill-rule="nonzero"><path d="M16.064 1.99a.303.303 0 0 0-.429 0l-3.141 3.138a.302.302 0 1 0 .428.428l3.142-3.138a.303.303 0 0 0 0-.429zM16.918 2.83a.303.303 0 0 0-.429 0l-3.14 3.138a.303.303 0 1 0 .428.428l3.14-3.138a.302.302 0 0 0 0-.429z"/><path d="M13.955 8.13l3.899-3.897a.302.302 0 1 0-.428-.428l-3.9 3.896a1.61 1.61 0 0 1-1.828.314.303.303 0 0 0-.357.072l-1.325 1.491-.001.002-.002.002-5.727 6.446a.971.971 0 0 1-1.714-.62.962.962 0 0 1 .349-.745l3.58-3.175a.302.302 0 1 0-.402-.452L2.52 14.208a1.576 1.576 0 0 0-.555 1.2 1.571 1.571 0 0 0 1.576 1.573 1.571 1.571 0 0 0 1.2-.554l4.364-4.912 4.364 4.912a1.571 1.571 0 0 0 1.2.554 1.575 1.575 0 0 0 1.02-2.772L10.67 9.754l.982-1.106a2.218 2.218 0 0 0 2.304-.52zm1.336 6.533a.97.97 0 1 1-1.366 1.364L9.51 11.06l.756-.85 5.024 4.454z"/><path d="M15.154 1.108a.303.303 0 0 0-.428 0l-3.9 3.896a2.213 2.213 0 0 0-.52 2.301l-1.2 1.064-1.154-1.023a3.042 3.042 0 0 0-.567-3.54c-.94-.94-2.028-1.6-3.065-1.861-1.082-.272-2.01-.09-2.613.512-.603.602-.785 1.529-.512 2.61.26 1.036.922 2.123 1.862 3.062a3.05 3.05 0 0 0 3.544.567l1.143 1.286a.302.302 0 0 0 .427.025l2.698-2.392a.303.303 0 0 0 .072-.357 1.606 1.606 0 0 1 .314-1.826l3.9-3.896a.302.302 0 0 0 0-.428zM7.996 9.353l-1.103-1.24a.303.303 0 0 0-.386-.058 2.446 2.446 0 0 1-3.022-.354c-.863-.863-1.468-1.85-1.703-2.782-.218-.866-.092-1.589.354-2.034.446-.446 1.169-.571 2.036-.353.932.234 1.921.839 2.784 1.701a2.44 2.44 0 0 1 .355 3.02.303.303 0 0 0 .057.384l1.281 1.137-.653.58z"/></g></svg>