<svg width="33" height="16" xmlns="http://www.w3.org/2000/svg"><g fill-rule="nonzero" fill="#6692bc"><path d="M.974 10.859c.217.142 2.138 1.393 3.329 1.393.737 0 1.326-.392 1.853-.737.44-.29.86-.568 1.292-.568.433 0 .846.277 1.293.568.52.345 1.116.737 1.853.737.744 0 1.313-.392 1.813-.744.433-.304.812-.561 1.238-.561.433 0 .846.277 1.292.568.521.345 1.117.737 1.854.737.737 0 1.326-.392 1.854-.737.44-.29.859-.568 1.292-.568.426 0 .798.264 1.238.561.5.352 1.076.744 1.813.744.737 0 1.326-.392 1.854-.737.44-.29.859-.568 1.292-.568.433 0 .845.277 1.292.568.52.345 1.116.737 1.853.737 1.198 0 3.12-1.251 3.329-1.393a.504.504 0 0 0 .142-.704.504.504 0 0 0-.704-.142c-.717.474-2.097 1.225-2.773 1.225-.433 0-.846-.278-1.292-.569-.521-.345-1.117-.737-1.854-.737-.737 0-1.326.392-1.854.737-.44.291-.859.569-1.292.569-.426 0-.798-.264-1.238-.562-.5-.352-1.076-.744-1.813-.744-.737 0-1.326.392-1.854.737-.44.291-.859.569-1.292.569-.433 0-.845-.278-1.292-.569-.52-.345-1.116-.737-1.853-.737-.745 0-1.313.392-1.814.744-.432.305-.811.562-1.238.562-.432 0-.845-.278-1.292-.569-.04-.027-.074-.047-.115-.074l10.27-5.886a.5.5 0 0 0 .176-.71L17.204.258a.505.505 0 0 0-.508-.223L9.52 1.252a.504.504 0 1 0 .169.995L16.54 1.09l1.948 3.01L8.186 10l-.061.04a2.18 2.18 0 0 0-.677-.108c-.737 0-1.325.392-1.853.737-.44.291-.86.569-1.292.569-.67 0-2.057-.751-2.774-1.225a.51.51 0 0 0-.704.142.513.513 0 0 0 .15.704zM32.026 13.747c-.717.474-2.097 1.225-2.774 1.225-.433 0-.845-.277-1.292-.568-.52-.345-1.116-.738-1.853-.738-.738 0-1.326.393-1.854.738-.44.29-.86.568-1.292.568-.426 0-.798-.264-1.238-.562-.5-.351-1.076-.744-1.813-.744-.738 0-1.326.393-1.854.738-.44.29-.859.568-1.292.568-.433 0-.846-.277-1.292-.568-.521-.345-1.116-.738-1.854-.738-.744 0-1.312.393-1.813.744-.433.305-.812.562-1.238.562-.433 0-.845-.277-1.292-.568-.52-.345-1.116-.738-1.854-.738-.737 0-1.326.393-1.853.738-.44.29-.86.568-1.292.568-.67 0-2.057-.751-2.774-1.225a.51.51 0 0 0-.704.143.51.51 0 0 0 .142.703c.217.142 2.138 1.394 3.329 1.394.737 0 1.326-.393 1.854-.738.44-.29.859-.568 1.292-.568.433 0 .845.277 1.292.568.52.345 1.116.738 1.853.738.745 0 1.313-.393 1.813-.744.433-.305.812-.562 1.238-.562.433 0 .846.277 1.293.568.52.345 1.116.738 1.853.738.738 0 1.326-.393 1.854-.738.44-.29.859-.568 1.292-.568.426 0 .798.264 1.238.562.5.351 1.076.744 1.813.744.737 0 1.326-.393 1.854-.738.44-.29.859-.568 1.292-.568.433 0 .845.277 1.292.568.52.345 1.116.738 1.854.738 1.197 0 3.118-1.252 3.328-1.394a.504.504 0 0 0 .142-.703.493.493 0 0 0-.69-.143z"/><path d="M24.584 7.097c.914 0 1.773-.365 2.43-1.028a3.472 3.472 0 0 0 1.014-2.456 3.5 3.5 0 0 0-1.015-2.455A3.395 3.395 0 0 0 24.584.129c-1.948 0-3.53 1.563-3.53 3.484 0 1.922 1.582 3.484 3.53 3.484zm0-5.953c1.313 0 2.422 1.13 2.422 2.47 0 1.339-1.11 2.469-2.422 2.469-1.386 0-2.516-1.11-2.516-2.47s1.13-2.469 2.516-2.469z"/></g></svg>