<svg width="20" height="20" xmlns="http://www.w3.org/2000/svg"><g transform="translate(1 1)" fill="none" fill-rule="evenodd"><path stroke="#004A8E" d="M15.118 6.782l-11.14 6.432-.838-1.453L14.28 5.33l.062.308.389.289.018.44.188.224z"/><path d="M6.575 9.778L3.14 11.761l.838 1.453 3.435-1.983-.838-1.453zM3.673 11.89a.081.081 0 1 1 0-.162.081.081 0 0 1 0 .162zm.498.979a.081.081 0 1 1 0-.163.081.081 0 0 1 0 .163zm.446-.822a.081.081 0 1 1 0-.162.081.081 0 0 1 0 .162zm.223-.748a.081.081 0 1 1 0-.163.081.081 0 0 1 0 .163zm.755.548a.081.081 0 1 1 0-.163.081.081 0 0 1 0 .163zm.08-.69a.081.081 0 1 1 0-.163.081.081 0 0 1 0 .162zm.617-.763a.081.081 0 1 1 .162 0 .081.081 0 0 1-.162 0zm.16.905a.081.081 0 1 1 0-.163.081.081 0 0 1 0 .163zM14.301 5.436l.645-.263.108.157.38-.108v.384l.426.026-.501.681.265-.023-.555.44-.32-.362-.018-.441-.391-.302z" fill="#004A8E" fill-rule="nonzero"/><circle stroke="#F57A7F" cx="9" cy="9" r="9"/><path d="M3.49 2.99l12.02 12.02" stroke="#F57A7F" stroke-linecap="square"/></g></svg>