<svg width="32" height="32" xmlns="http://www.w3.org/2000/svg"><path d="M7.515 2C6.681 2 6 2.706 6 3.57v17.58c0 .865.681 1.57 1.515 1.57h6.667v5.652h-1.847a.303.303 0 0 0-.255.17c-.05.1-.044.219.014.313a.3.3 0 0 0 .27.145h7.272c.11.001.211-.058.266-.156a.324.324 0 0 0 0-.317.301.301 0 0 0-.266-.155h-1.818V22.72h6.667c.834 0 1.515-.706 1.515-1.57V3.57C26 2.706 25.319 2 24.485 2H7.515zm0 .628h16.97c.509 0 .909.415.909.942v17.58c0 .528-.4.943-.91.943H7.516c-.509 0-.909-.415-.909-.942V3.57c0-.527.4-.942.91-.942zm5.123 3.453c-.485 0-.92.318-1.098.785h-.01l-.01.03-1.77 3.757a.32.32 0 0 0-.038.089c-.418.407-.682.99-.682 1.638v3.748c0 .173.136.314.303.314h.91v1.883c0 .174.135.314.302.314h2.425c.167 0 .303-.14.303-.314v-1.883h5.454v1.883c0 .174.136.314.303.314h2.425c.167 0 .303-.14.303-.314v-1.883h.909c.167 0 .303-.14.303-.314V12.38c0-.65-.261-1.241-.682-1.648a.319.319 0 0 0-.038-.079l-1.77-3.757-.01-.03h-.01c-.177-.467-.613-.785-1.098-.785h-6.724zm0 .628h6.724c.187 0 .484.214.549.402l.01.03 1.458 3.08a1.928 1.928 0 0 0-.474-.058h-9.81c-.163 0-.322.02-.474.059L12.08 7.14a.322.322 0 0 0 .009-.03c.065-.188.362-.402.55-.402zm-1.543 4.082h9.81c.803 0 1.459.696 1.459 1.589v3.434H9.636V12.38c0-.893.656-1.59 1.459-1.59zm-.55 1.255v2.512h1.875c.645 0 1.156-.577 1.156-1.256s-.511-1.256-1.156-1.256h-1.875zm9.035 0c-.645 0-1.156.577-1.156 1.256 0 .68.511 1.256 1.156 1.256h1.875v-2.512H19.58zm-8.428.628h1.268c.296 0 .55.264.55.628 0 .365-.254.628-.55.628h-1.268v-1.256zm8.428 0h1.268v1.256H19.58c-.296 0-.55-.263-.55-.628 0-.364.254-.628.55-.628zm-8.732 3.768h1.819v1.57h-1.819v-1.57zm8.485 0h1.819v1.57h-1.819v-1.57zm-4.545 6.279h2.424v5.65h-2.424v-5.65z" fill-rule="nonzero" fill="#6692BC"/></svg>