<svg width="32" height="32" xmlns="http://www.w3.org/2000/svg"><path d="M5 17.884c0 .619.52 1.14 1.136 1.14h7.528v.586c0 .424.13.847.324 1.173l-2.725 7.556c-.065.163.032.358.194.423.033 0 .065.033.098.033.13 0 .26-.098.292-.228l2.595-7.198c.325.293.747.489 1.234.554v7.751c0 .196.13.326.324.326.195 0 .324-.13.324-.326v-7.751c.52-.065.974-.326 1.33-.652l2.63 7.263c.032.13.161.228.291.228.033 0 .065 0 .098-.032.162-.065.26-.26.194-.424l-2.758-7.719c.162-.325.227-.65.227-1.042v-.586h7.528c.617 0 1.136-.521 1.136-1.14 0-.586-.454-1.075-1.038-1.107V5.247A1.105 1.105 0 0 0 27 4.14C27 3.52 26.48 3 25.864 3H6.136C5.519 3 5 3.521 5 4.14c0 .586.454 1.075 1.038 1.107v11.497C5.454 16.81 5 17.265 5 17.884zM6.687 5.247H25.28v11.497H6.687V5.247zm11 14.33A1.7 1.7 0 0 1 16 21.272c-.909 0-1.687-.781-1.687-1.693v-.586h3.374v.586zm8.664-1.693a.5.5 0 0 1-.487.489H6.136a.5.5 0 0 1-.487-.489.5.5 0 0 1 .487-.488h19.696c.292 0 .519.228.519.488zM5.649 4.14a.5.5 0 0 1 .487-.489h19.728a.5.5 0 0 1 .487.489.5.5 0 0 1-.487.488H6.136c-.26-.032-.487-.228-.487-.488z" fill-rule="nonzero" fill="#E1DFE1"/></svg>