<svg width="19" height="13" xmlns="http://www.w3.org/2000/svg"><g fill="none" fill-rule="evenodd"><path stroke="#004A8E" d="M17.779 3.468L2.355 12.373l-1.162-2.011 15.425-8.906.087.428.538.399.024.61.26.31z"/><path d="M5.95 7.616l-4.757 2.746 1.162 2.011L7.11 9.627 5.949 7.616zm-4.021 2.917a.109.109 0 1 1 0-.218.109.109 0 0 1 0 .218zm.69 1.355a.109.109 0 1 1 0-.218.109.109 0 0 1 0 .218zm.616-1.137a.109.109 0 1 1 0-.218.109.109 0 0 1 0 .218zm.31-1.037a.109.109 0 1 1 0-.217.109.109 0 0 1 0 .217zm1.045.759a.109.109 0 1 1 0-.218.109.109 0 0 1 0 .218zm.109-.956a.109.109 0 1 1 0-.218.109.109 0 0 1 0 .218zm.859-1.053a.109.109 0 1 1 .218 0 .109.109 0 0 1-.218 0zm.218 1.25a.109.109 0 1 1 0-.217.109.109 0 0 1 0 .217zM16.648 1.603l.893-.363.15.216.526-.148v.53l.59.037-.695.943.368-.032-.769.61-.444-.502-.024-.611-.542-.417z" fill="#004A8E" fill-rule="nonzero"/></g></svg>