<svg width="32" height="32" xmlns="http://www.w3.org/2000/svg"><g fill-rule="nonzero" fill="#6692BC"><path d="M2.5 18.947c.185.139 1.823 1.359 2.838 1.359.629 0 1.13-.383 1.58-.719.375-.283.733-.554 1.102-.554.37 0 .721.27 1.102.554.444.336.951.719 1.58.719.634 0 1.119-.383 1.546-.725.369-.297.692-.548 1.055-.548.37 0 .72.27 1.102.554.444.336.951.719 1.58.719.628 0 1.13-.383 1.58-.719.375-.283.733-.554 1.102-.554.363 0 .68.257 1.055.548.427.342.917.725 1.546.725.628 0 1.13-.383 1.58-.719.375-.283.732-.554 1.102-.554.369 0 .72.27 1.101.554.444.336.952.719 1.58.719 1.021 0 2.66-1.22 2.838-1.359.202-.151.254-.455.121-.685-.133-.231-.398-.29-.6-.139-.611.462-1.788 1.194-2.364 1.194-.37 0-.721-.27-1.102-.554-.444-.337-.952-.72-1.58-.72-.629 0-1.13.383-1.58.72-.375.283-.733.554-1.102.554-.363 0-.68-.257-1.055-.548-.427-.343-.917-.725-1.546-.725s-1.13.382-1.58.719c-.375.283-.733.554-1.102.554-.369 0-.72-.27-1.101-.554-.445-.337-.952-.72-1.58-.72-.635 0-1.12.383-1.546.726-.37.297-.692.548-1.056.548-.369 0-.72-.27-1.101-.554-.035-.027-.064-.046-.098-.073l8.754-5.737a.487.487 0 0 0 .208-.31.547.547 0 0 0-.058-.383l-2.064-3.647a.41.41 0 0 0-.433-.218l-6.12 1.187c-.236.047-.391.304-.35.568.04.27.264.448.495.402l5.842-1.128 1.661 2.935-8.783 5.75-.052.04a1.648 1.648 0 0 0-.577-.105c-.629 0-1.13.382-1.58.719-.375.283-.733.554-1.102.554-.57 0-1.753-.732-2.364-1.194-.202-.152-.467-.086-.6.139-.127.224-.075.534.127.685zM28.973 21.763c-.611.462-1.788 1.194-2.365 1.194-.369 0-.72-.27-1.101-.554-.444-.336-.952-.719-1.58-.719-.63 0-1.13.383-1.58.72-.376.283-.733.553-1.102.553-.364 0-.68-.257-1.056-.547-.427-.343-.917-.726-1.545-.726-.629 0-1.13.383-1.58.72-.376.283-.733.553-1.102.553-.37 0-.721-.27-1.102-.554-.444-.336-.951-.719-1.58-.719-.634 0-1.119.383-1.546.726-.369.297-.692.547-1.055.547-.37 0-.721-.27-1.102-.554-.444-.336-.951-.719-1.58-.719-.629 0-1.13.383-1.58.72-.375.283-.733.553-1.102.553-.57 0-1.753-.732-2.364-1.194-.202-.151-.468-.085-.6.139a.542.542 0 0 0 .12.686c.185.138 1.823 1.358 2.838 1.358.63 0 1.13-.382 1.58-.718.376-.284.733-.554 1.102-.554.37 0 .721.27 1.102.554.444.336.951.718 1.58.718.635 0 1.119-.382 1.546-.725.369-.297.692-.547 1.055-.547.37 0 .721.27 1.102.554.444.336.951.718 1.58.718.629 0 1.13-.382 1.58-.718.375-.284.733-.554 1.102-.554.363 0 .68.257 1.055.547.427.343.917.725 1.546.725s1.13-.382 1.58-.718c.375-.284.733-.554 1.102-.554.369 0 .72.27 1.101.554.444.336.952.718 1.58.718 1.021 0 2.66-1.22 2.838-1.358.202-.152.254-.455.121-.686-.12-.224-.392-.29-.588-.139z"/><path d="M22.629 15.28c.778 0 1.51-.356 2.07-1.002.56-.646.865-1.497.865-2.394s-.311-1.748-.865-2.394c-.56-.646-1.292-1.002-2.07-1.002-1.661 0-3.01 1.523-3.01 3.396s1.349 3.397 3.01 3.397zm0-5.803c1.119 0 2.065 1.101 2.065 2.407s-.946 2.407-2.065 2.407c-1.182 0-2.146-1.081-2.146-2.407 0-1.325.964-2.407 2.146-2.407z"/></g></svg>