<svg width="23" height="16" xmlns="http://www.w3.org/2000/svg"><g stroke-width=".5" stroke="#004A8F" fill="#004A8F" fill-rule="nonzero"><path d="M11.23 9.39a1.397 1.397 0 0 1 0-2.791c.77 0 1.396.626 1.396 1.395 0 .77-.627 1.396-1.395 1.396zm0-2.15a.756.756 0 1 0 .003 1.512.756.756 0 0 0-.002-1.512zM8.241 11.304a.321.321 0 0 1-.226-.094 4.517 4.517 0 0 1-1.332-3.214c0-1.215.473-2.358 1.332-3.216a.32.32 0 0 1 .452.453 3.883 3.883 0 0 0-1.144 2.763c0 1.043.406 2.024 1.144 2.762a.32.32 0 0 1-.226.546zM6.116 13.43a.321.321 0 0 1-.227-.094 7.504 7.504 0 0 1-2.212-5.341c0-2.017.786-3.914 2.212-5.342a.32.32 0 0 1 .453.453 6.866 6.866 0 0 0-2.025 4.889c0 1.847.719 3.583 2.025 4.889a.32.32 0 0 1-.226.546z"/><path d="M3.99 15.556a.321.321 0 0 1-.227-.094C-.354 11.345-.354 4.646 3.763.528a.32.32 0 0 1 .453.452C.348 4.85.348 11.142 4.216 15.01a.32.32 0 0 1-.226.546z"/><g><path d="M14.22 11.304a.32.32 0 0 1-.227-.546 3.882 3.882 0 0 0 1.145-2.762 3.882 3.882 0 0 0-1.145-2.763.32.32 0 0 1 .453-.453c.859.859 1.332 2 1.332 3.216a4.516 4.516 0 0 1-1.332 3.214.319.319 0 0 1-.226.094zM16.345 13.43a.32.32 0 0 1-.227-.546 6.866 6.866 0 0 0 2.026-4.89c0-1.846-.72-3.582-2.025-4.888a.32.32 0 0 1 .452-.453 7.505 7.505 0 0 1 2.213 5.342 7.505 7.505 0 0 1-2.213 5.341.319.319 0 0 1-.226.094z"/><path d="M18.472 15.556a.32.32 0 0 1-.227-.546c3.867-3.868 3.867-10.161 0-14.03a.32.32 0 0 1 .452-.452c4.118 4.118 4.118 10.817 0 14.934a.319.319 0 0 1-.225.094z"/></g></g></svg>