<svg width="32" height="32" xmlns="http://www.w3.org/2000/svg"><g stroke-width=".5" stroke="#6692BC" fill="#6692BC" fill-rule="nonzero"><path d="M15.643 17.712a1.754 1.754 0 0 1-1.762-1.741c0-.96.79-1.74 1.762-1.74s1.762.78 1.762 1.74-.791 1.741-1.762 1.741zm0-2.682a.95.95 0 0 0-.954.942c0 .52.428.943.954.943a.949.949 0 0 0 .954-.943.95.95 0 0 0-.954-.942zM11.867 20.099a.409.409 0 0 1-.286-.117 5.598 5.598 0 0 1-1.682-4.01c0-1.514.597-2.94 1.682-4.01a.408.408 0 0 1 .572 0 .396.396 0 0 1 0 .565 4.812 4.812 0 0 0-1.446 3.446 4.81 4.81 0 0 0 1.446 3.445.396.396 0 0 1 0 .564.405.405 0 0 1-.286.117zM9.183 22.75a.409.409 0 0 1-.286-.116 9.3 9.3 0 0 1-2.795-6.662c0-2.516.993-4.882 2.795-6.662a.408.408 0 0 1 .571 0 .396.396 0 0 1 0 .564 8.51 8.51 0 0 0-2.557 6.098c0 2.304.908 4.47 2.557 6.098a.396.396 0 0 1 0 .564.407.407 0 0 1-.285.117z"/><path d="M6.498 25.402a.409.409 0 0 1-.286-.116 13.071 13.071 0 0 1 0-18.627.408.408 0 0 1 .571 0 .396.396 0 0 1 0 .564 12.28 12.28 0 0 0 0 17.498.396.396 0 0 1 0 .565.405.405 0 0 1-.285.116z"/><g><path d="M19.419 20.099a.409.409 0 0 1-.286-.117.396.396 0 0 1 0-.564 4.812 4.812 0 0 0 1.445-3.445 4.811 4.811 0 0 0-1.445-3.446.396.396 0 0 1 0-.565.408.408 0 0 1 .571 0 5.599 5.599 0 0 1 1.682 4.01c0 1.515-.597 2.94-1.682 4.01a.405.405 0 0 1-.285.117zM22.103 22.75a.409.409 0 0 1-.286-.116.396.396 0 0 1 0-.564 8.51 8.51 0 0 0 2.558-6.098c0-2.304-.909-4.47-2.558-6.098a.396.396 0 0 1 0-.564.408.408 0 0 1 .572 0 9.302 9.302 0 0 1 2.794 6.662 9.302 9.302 0 0 1-2.794 6.662.405.405 0 0 1-.286.117z"/><path d="M24.789 25.402a.409.409 0 0 1-.287-.116.396.396 0 0 1 0-.565 12.28 12.28 0 0 0 0-17.498.396.396 0 0 1 0-.564.408.408 0 0 1 .572 0 13.071 13.071 0 0 1 0 18.627.405.405 0 0 1-.285.116z"/></g></g></svg>