<svg width="13" height="13" viewBox="0 0 13 13" fill="none" xmlns="http://www.w3.org/2000/svg">
<g clip-path="url(#clip0_5623_2249)">
<path d="M3.49181 13.0002H3.46646C3.46646 12.9875 3.46815 12.974 3.46477 12.9631C3.17577 12.1379 2.88761 11.3126 2.59439 10.4891C2.57833 10.4444 2.51918 10.4014 2.47101 10.3845C1.9454 10.1963 1.41894 10.0124 0.892487 9.82845C0.595881 9.72467 0.299274 9.62004 0.000976562 9.51626C0.0102719 9.49601 0.011117 9.48588 0.0170322 9.48082C0.403213 9.09437 0.788548 8.70792 1.17811 8.32485C1.2043 8.29869 1.26177 8.28772 1.30064 8.29363C1.8271 8.37716 2.35271 8.4666 2.87916 8.54845C2.93071 8.55604 3.00761 8.5341 3.0431 8.49698C3.91686 7.5933 4.78725 6.68624 5.65848 5.77919C5.67791 5.75894 5.69312 5.73447 5.7151 5.70494C3.90672 4.59284 2.10765 3.48666 0.298429 2.37372C0.731931 1.94087 1.1536 1.52489 1.56851 1.10216C1.64288 1.02622 1.70541 1.01947 1.79921 1.05153C2.52087 1.29369 3.24337 1.53164 3.96588 1.77127C5.31878 2.21847 6.67167 2.66398 8.02288 3.1154C8.13612 3.15337 8.20372 3.13818 8.284 3.05043C8.48596 2.82767 8.69807 2.61504 8.90679 2.39819C9.54648 1.73245 10.1828 1.06503 10.8259 0.402669C11.3684 -0.155908 12.2193 -0.128064 12.7103 0.453296C12.8675 0.639769 12.9444 0.860838 13.0001 1.09203V1.42195C12.9283 1.8278 12.674 2.11046 12.3849 2.383C11.5653 3.15506 10.7574 3.94061 9.94111 4.71603C9.8583 4.7945 9.84393 4.85863 9.87942 4.96663C10.5732 7.04653 11.2619 9.12728 11.954 11.2072C11.9819 11.2907 11.9709 11.3422 11.9075 11.4046C11.5061 11.7995 11.1089 12.1986 10.7101 12.5969C10.6839 12.623 10.6552 12.6475 10.6197 12.6796C9.50676 10.8747 8.39808 9.07665 7.28855 7.27688C7.26404 7.29207 7.25306 7.29713 7.24376 7.30557C6.32352 8.18647 5.40243 9.06821 4.48473 9.95249C4.45093 9.98539 4.43233 10.058 4.43994 10.1077C4.51515 10.5921 4.59289 11.0764 4.68162 11.5582C4.70866 11.7042 4.69514 11.8122 4.57177 11.9109C4.45346 12.0054 4.3529 12.1227 4.24643 12.2315C3.99461 12.4872 3.74279 12.7428 3.49181 12.9993V13.0002Z" fill="#676767"/>
</g>
<defs>
<clipPath id="clip0_5623_2249">
<rect width="13" height="13" fill="white"/>
</clipPath>
</defs>
</svg>
