<svg width="43" height="43" fill="none" xmlns="http://www.w3.org/2000/svg"><rect width="43" height="43" rx="5" fill="#000"/><path d="M30.669 26.727s-.329-.22-.489-.302c0 0-2.647-1.375-4.266 1.44-.645 1.24-.205 2.211-.205 2.211-.92.062-1.973-.159-2.984-.681-1.205-.627-2.097-1.554-2.519-2.51 0 0-.487-1-.39-2.212.298.436.693.791 1.153 1.036.46.245.97.373 1.487.372 3.01 0 5.045-2.362 5.045-2.362.811-.981 1.332-2.492 1.332-4.184 0-1.565-.45-2.972-1.159-3.949l-.005-.008c-.513-.726-1.277-1.39-2.225-1.875-.954-.489-1.943-.716-2.83-.702h-.188s-.482 0-.555.612c0 0-.055.41-.043.588 0 0-.002 3.05 3.274 3.195 1.411 0 2.08-.856 2.08-.856.482.806.775 1.865.775 3.03 0 1.391-.421 2.636-1.083 3.471 0 0-.58.791-1.576 1.29a3.28 3.28 0 0 0 .332-1.936 3.236 3.236 0 0 0-.831-1.77c-1.505-2.39-4.302-2.938-4.302-2.938-1.225-.216-2.756.085-4.192.927-1.327.776-2.3 1.864-2.784 2.964v.008c-.369.804-.562 1.794-.514 2.852.05 1.067.338 2.032.78 2.793l.092.162s.202.406.788.176c0 0 .362-.151.518-.254 0 0 2.587-1.512 1.118-4.415-.686-1.22-1.736-1.372-1.736-1.372.45-.816 1.206-1.598 2.193-2.172 1.18-.69 2.438-.948 3.465-.791 0 0 1.208.136 2.195.977l.094.047-.06-.002a3.137 3.137 0 0 0-2.045.748 3.307 3.307 0 0 0-1.108 1.922c-.927 2.45.024 4.873.024 4.873.479 1.155 1.554 2.292 3.024 3.053 1.358.703 2.784.941 3.958.757h.006c.864-.128 1.791-.498 2.644-1.113.858-.62 1.507-1.385 1.898-2.172l.087-.164s.246-.406-.277-.762l.005-.003-.001.001zm-8.212-6.252c1.285 0 2.327 1.054 2.327 2.358 0 1.303-1.042 2.357-2.327 2.357-1.286 0-2.326-1.055-2.326-2.357 0-1.302 1.041-2.358 2.326-2.358zm2.625-3.979c-2.49 0-2.364-2.58-2.364-2.58.89-.039 1.886.222 2.802.8.485.306.9.67 1.237 1.068 0 0-.489.712-1.674.712zM26.7 28.221c1.183-2.176 3.32-.84 3.32-.84-.392.796-1.086 1.542-2.014 2.07-.49.278-.999.466-1.498.573 0 0-.372-.767.192-1.803zm-11.143-4.863c1.199 2.166-1.046 3.301-1.046 3.301-.462-.755-.72-1.748-.672-2.824a5.468 5.468 0 0 1 .308-1.593s.84.085 1.411 1.116h-.001z" fill="#fff"/></svg>