<svg width="101" height="40" viewBox="0 0 101 40" fill="none" xmlns="http://www.w3.org/2000/svg">
<path d="M20.5313 9H22.5636C22.7025 9.02525 22.8413 9.06492 22.982 9.07574C24.2858 9.17312 25.5607 9.42198 26.7834 9.88543C28.2044 10.4228 29.4956 11.1622 30.336 12.4894C31.1565 13.7842 31.097 15.0772 30.1502 16.2854C29.2413 17.445 28.0205 18.1266 26.6121 18.4999C26.3921 18.5576 26.1685 18.6027 25.8817 18.6676C28.6228 20.4638 30.262 22.7107 29.3333 26.1641C30.1899 25.7692 30.9761 25.3941 31.7714 25.046C32.0004 24.9468 32.105 24.817 32.1501 24.5717C32.4693 22.8424 33.315 21.3943 34.563 20.1698C35.6431 19.1095 36.9073 18.3196 38.2994 17.7371C40.3841 16.8643 42.5499 16.4387 44.8131 16.6515C46.2756 16.7886 47.6443 17.1889 48.7479 18.3106C48.8904 18.1501 49.0293 18.0275 49.1266 17.8778C49.7632 16.886 50.6685 16.7778 51.6783 17.142C52.6558 17.4937 53.6025 17.3909 54.5853 17.1583C55.3012 16.9906 56.0478 16.931 56.7854 16.895C57.3318 16.8679 57.4039 17.0266 57.2056 17.5207C56.5582 19.1203 55.9108 20.718 55.2634 22.3176C54.6845 23.7476 54.0966 25.1759 53.5322 26.6113C53.4654 26.7826 53.4384 27.0712 53.5358 27.1776C53.6404 27.293 53.9127 27.2912 54.1074 27.2785C54.3112 27.2659 54.524 27.2118 54.7079 27.1217C56.2245 26.3841 57.7393 25.6375 59.2451 24.8801C59.3659 24.8188 59.4525 24.6547 59.5174 24.5194C60.3253 22.8207 61.1278 21.1184 61.9303 19.4178C61.9826 19.3078 62.024 19.1942 62.0872 19.0391H59.3118C59.4796 18.2547 59.64 17.4991 59.806 16.7219C60.4083 16.7219 60.9907 16.6533 61.5498 16.7363C62.5867 16.8914 63.2251 16.5469 63.5929 15.5443C63.8436 14.8572 64.4315 14.4713 65.1781 14.3721C65.564 14.3216 65.9517 14.2369 66.3394 14.2315C67.7099 14.2098 68.7595 13.6183 69.5385 12.5147C69.8 12.1432 70.0651 11.7735 70.3103 11.3912C70.8099 10.6158 71.6196 10.302 72.4996 10.5617C73.0658 10.7276 73.1993 10.9963 72.9811 11.5445C72.3409 13.1459 71.6989 14.7472 71.0587 16.3486C71.0082 16.4748 70.965 16.6064 70.8982 16.7886C71.1128 16.7886 71.2643 16.7886 71.4176 16.7886C72.1083 16.7814 72.7971 16.7615 73.4878 16.7651C74.1172 16.7687 74.3246 17.0897 74.1009 17.6794C73.825 18.408 73.0478 18.9526 72.2579 18.967C71.634 18.9796 71.0082 18.9922 70.3825 18.9886C70.1516 18.9886 70.0416 19.0734 69.9587 19.2898C69.1274 21.4574 68.2834 23.6196 67.4467 25.7854C67.3871 25.9405 67.3421 26.1082 67.3276 26.2741C67.297 26.6311 67.4467 26.8115 67.8001 26.7682C68.1427 26.7267 68.5034 26.6546 68.8082 26.5013C69.9785 25.9098 71.1327 25.2841 72.285 24.6583C72.3896 24.6006 72.4798 24.4509 72.5086 24.3283C72.9865 22.2941 74.1136 20.682 75.751 19.4214C78.2288 17.5117 81.0672 16.6064 84.1779 16.6046C85.965 16.6046 87.68 16.9419 88.9748 18.2258C89.3409 17.8958 89.6817 17.5532 90.0586 17.261C90.2497 17.1132 90.5148 16.9671 90.7384 16.9779C91.2542 17.0032 91.7808 17.0717 92.2713 17.2214C92.9944 17.4432 93.6977 17.4648 94.419 17.2574C94.5813 17.2106 94.7454 17.1637 94.9132 17.142C95.6345 17.0501 96.354 16.931 97.079 16.8968C97.647 16.8697 97.7173 17.0212 97.5099 17.537C97.0717 18.6316 96.6371 19.7298 96.1935 20.8244C95.4109 22.7594 94.6174 24.6926 93.8492 26.6329C93.7716 26.8277 93.741 27.1631 93.851 27.2749C93.9826 27.4102 94.2874 27.3958 94.5182 27.4048C94.6535 27.4102 94.8068 27.3579 94.9258 27.2894C95.5191 26.9431 96.1412 26.6311 96.684 26.2164C97.4017 25.6664 98.0564 25.0316 98.747 24.4239C99.1672 24.6132 99.4648 24.9432 99.683 25.3562C99.7822 25.5455 99.8958 25.7277 100.004 25.9152V26.2272C99.5225 26.5933 99.0392 26.9575 98.5613 27.329C96.1899 29.1756 93.5967 30.6147 90.706 31.4659C88.3148 32.1692 86.2211 31.2513 85.2004 29.136C85.0562 28.8384 84.9462 28.5264 84.8091 28.1964C84.5368 28.4255 84.2934 28.6401 84.0391 28.8402C82.1005 30.3532 79.9509 31.3432 77.4425 31.2747C74.9954 31.208 73.1668 30.1152 72.1425 27.8304C72.1065 27.751 72.0542 27.6807 72.0019 27.5941C71.8288 27.6771 71.6773 27.751 71.524 27.8195C69.928 28.5463 68.3375 29.2893 66.7325 29.9944C65.0392 30.7373 63.3026 31.3523 61.447 31.5705C59.7194 31.7724 58.2821 30.8347 58.008 29.2604C57.9395 28.8637 57.9972 28.4435 57.9972 28.0197C56.9333 28.4507 55.8873 28.9124 54.8161 29.3019C53.0345 29.9493 51.26 30.6418 49.4368 31.1485C47.0528 31.8121 45.3955 30.8383 44.6111 28.503C44.5786 28.4074 44.539 28.3155 44.5029 28.2253C44.4704 28.2325 44.4542 28.2307 44.4452 28.2379C44.2054 28.4363 43.9691 28.6401 43.7239 28.833C41.7763 30.3568 39.6141 31.3487 37.0912 31.2765C34.7631 31.2098 32.976 30.1963 31.9211 28.0576C31.8489 27.9097 31.7804 27.7582 31.7011 27.5887C31.5514 27.6572 31.436 27.7095 31.3206 27.7618C29.1692 28.7446 27.0359 29.7653 24.8628 30.6977C22.3851 31.7598 19.8496 31.9005 17.3051 30.8942C16.0049 30.3803 14.8922 29.5886 13.9166 28.5589C14.2647 28.0143 14.5965 27.4913 14.9391 26.9539C15.0022 27.0026 15.0545 27.0387 15.1014 27.0802C16.6902 28.5102 18.4881 28.4778 19.9722 26.9323C21.3914 25.4536 22.01 23.6701 21.781 21.6233C21.6331 20.3069 20.9677 19.6036 19.644 19.3583C19.1788 19.2718 18.6973 19.2645 18.1869 19.2177C18.351 18.774 18.5223 18.3449 18.6684 17.9048C18.746 17.6758 18.8668 17.5911 19.1156 17.5784C19.6602 17.5514 20.2067 17.5027 20.7458 17.4233C22.9333 17.1006 24.0495 15.7102 24.2515 13.5732C24.3597 12.4281 23.7538 11.5806 22.7151 11.3714C21.9306 11.2127 21.1606 11.3606 20.4104 11.6022C20.3203 11.6311 20.2391 11.7519 20.1976 11.8493C19.7035 13.007 19.213 14.1647 18.7315 15.3279C17.6604 17.9157 16.6307 20.5215 15.5144 23.0912C14.6704 25.0334 13.6696 26.9016 12.2828 28.5319C10.2685 30.9032 7.7727 31.9095 4.66737 31.2116C2.88027 30.8095 1.44482 29.805 0.104946 28.6238C0.0526499 28.5769 -0.00505661 28.494 0.000353377 28.4309C0.0580599 27.7077 0.126586 26.9864 0.19872 26.1893C1.22842 27.1559 2.11205 27.6194 3.18684 27.7564C3.928 27.852 4.55196 27.6608 4.94508 26.9612C5.44641 26.0667 6.02347 25.2083 6.45266 24.2814C7.88992 21.1725 9.27487 18.0419 10.6797 14.9185C10.7031 14.8662 10.7049 14.8049 10.7175 14.7472L10.6364 14.648C9.82309 15.0736 8.99355 15.4685 8.2037 15.9302C7.41203 16.3936 6.65824 16.922 5.86117 17.4414C5.66822 17.1222 5.47706 16.8301 5.30755 16.5253C5.1741 16.2836 5.20656 16.0636 5.42477 15.8635C5.82511 15.492 6.18757 15.079 6.60414 14.7274C9.9944 11.8727 13.9563 10.2245 18.2591 9.3246C19.0056 9.16771 19.7721 9.1064 20.5313 9ZM39.9874 25.4193C40.027 25.6087 40.0703 26 40.1966 26.3624C40.4941 27.2208 41.1758 27.5887 42.0432 27.3182C42.4922 27.1794 42.9665 26.9756 43.3091 26.6672C44.0322 26.0216 44.7337 25.3364 45.3378 24.5808C46.272 23.4104 47.042 22.1282 47.3756 20.6405C47.5812 19.7208 46.9987 18.8913 46.0628 18.7254C45.1972 18.5721 44.4488 18.884 43.7455 19.3295C42.6851 20.0003 41.8773 20.929 41.1469 21.9335C40.4328 22.9163 40.0325 24.0037 39.9874 25.4193ZM80.3116 25.4337C80.3567 25.6339 80.4018 26.0379 80.5388 26.4111C80.8382 27.2262 81.5072 27.5815 82.3422 27.3236C82.8038 27.1812 83.2907 26.9738 83.6442 26.66C84.3673 26.0162 85.0688 25.3273 85.6711 24.5717C86.5962 23.4104 87.3608 22.1391 87.6944 20.6657C87.909 19.7208 87.3302 18.8877 86.3744 18.7235C85.4781 18.5703 84.7081 18.9021 83.994 19.38C82.7046 20.242 81.7326 21.4033 80.9716 22.7378C80.5352 23.5042 80.3423 24.3517 80.3116 25.4337Z" fill="#F70000"/>
</svg>
