<svg width="100" height="40" viewBox="0 0 100 40" fill="none" xmlns="http://www.w3.org/2000/svg">
<path d="M56.5905 9.03517H64.3409L64.3585 11.8295L60.8611 26.9614H64.4464L64.4639 30.5818H56.239L56.2214 27.5589L59.6836 12.638H56.6081L56.5905 9.03517ZM97.9789 19.9139V20.0018C99.1213 20.3006 99.9297 21.3375 99.9473 22.515L100 30.5818H95.6239L95.5712 21.5132H94.1652L94.2179 30.5818H89.8242L89.7012 9.05274H96.7311C98.471 9.05274 99.877 10.4587 99.8945 12.1986L99.9297 17.4359C99.9121 18.6134 99.1213 19.6151 97.9789 19.9139ZM95.5009 11.8471H94.0949L94.13 18.4201H95.536L95.5009 11.8471ZM85.6239 9.05274L88.3831 30.5818H84.0949L83.7434 26.0299H81.9156L81.6169 30.5818H77.3462L77.8559 26.0123H75.9402L76.5202 30.5818H72.2144L71.8805 26.0299H70.0527L69.7364 30.5818H65.4833L67.9437 9.03517H73.7961L75.5712 22.9016H78.2249L79.7891 9.03517L85.6239 9.05274ZM71.6696 22.9192L70.9666 12.6556H70.826L70.2109 22.9192H71.6696ZM83.5149 22.9192L82.7944 12.6556H82.6889L82.0562 22.9192H83.5149ZM43.0755 12.181L43.0931 16.4517C43.0755 17.6292 42.2847 18.6485 41.1423 18.9473V19.0352C42.2847 19.3515 43.0755 20.3709 43.1107 21.5484L43.1283 27.4535C43.1283 27.8401 43.058 28.2267 42.9174 28.5782L38.6994 22.5677V20.5466H37.2934L32.8822 14.2549L32.8646 9.05274H39.9121C41.6696 9.01759 43.0755 10.4411 43.0755 12.181ZM38.6643 11.812H37.2583L37.2759 17.4183H38.6819L38.6643 11.812ZM55.3954 30.5818H51.0896L50.7557 26.0299H48.9279L48.6116 30.5818H44.3585L46.8189 9.03517H52.6713L55.3954 30.5818ZM50.5272 22.9016L49.8418 12.638H49.7012L49.0685 22.9016H50.5272Z" fill="#03334F"/>
<path d="M21.3357 9.01757H28.4534L28.471 16.4165H24.007L23.9895 11.812H22.5835L22.6362 27.8401H24.0422L24.0246 22.0229H23.4271L23.4095 18.9649H28.471L28.5062 30.5817H21.3708C19.6309 30.5817 18.2074 29.1758 18.2074 27.4359L18.1547 12.181C18.1547 10.4411 19.5431 9.03515 21.283 9.03515C21.3181 9.01758 21.3181 9.01757 21.3357 9.01757ZM12.1441 30.5817H16.5378L16.4851 9.01757H12.0914L12.1441 30.5817ZM10.2109 12.1634L10.2285 16.4341C10.2109 17.6116 9.42004 18.6309 8.27768 18.9297V19.0176C9.42004 19.3339 10.2109 20.3533 10.2461 21.5308L10.2636 27.4359C10.2636 29.1758 8.85765 30.5817 7.11776 30.5817H7.10018H0.0351489L0 9H7.04746C8.78735 9 10.2109 10.4236 10.2109 12.1634ZM5.8348 20.5114H4.42883L4.4464 27.7698H5.86995L5.8348 20.5114ZM5.81723 11.812H4.41125L4.42883 17.4183H5.8348L5.81723 11.812ZM38.7171 22.5325L38.7346 27.7698H37.3287L37.3111 20.529L32.8998 14.2373L32.9526 30.5817H40C41.3006 30.5817 42.4781 29.7733 42.935 28.5606L38.7171 22.5325Z" fill="#EB5E21"/>
</svg>
