<svg width="100" height="40" viewBox="0 0 100 40" fill="none" xmlns="http://www.w3.org/2000/svg">
<g clip-path="url(#clip0_97_434)">
<path d="M27.1846 3.00013C28.1889 3.52867 29.2107 4.02198 30.1973 4.59016C30.9989 5.05263 31.1443 5.55034 30.9637 6.45327C30.6202 8.17984 30.281 9.902 29.9991 11.6374C29.9198 12.1131 30.0123 12.6328 30.1092 13.1173C30.2105 13.6282 30.4748 13.7119 30.9329 13.4564C31.8622 12.9411 32.8004 12.7958 33.6945 13.5049C33.95 13.7075 34.135 14.0026 34.3376 14.2581C35.0555 15.1566 35.7602 15.2403 36.6455 14.5091C36.7292 14.4386 36.7645 14.2801 36.7777 14.1568C36.8173 13.7295 36.8085 13.2979 36.8746 12.875C36.9494 12.4302 37.1432 12.3025 37.5793 12.4082C38.9535 12.7473 40.2132 13.3639 41.3672 14.17C41.5786 14.3197 41.6535 14.6809 41.7548 14.9584C41.7988 15.0817 41.7636 15.2315 41.7592 15.3724C41.7283 16.4207 42.0234 16.6585 43.0277 16.381C43.2655 16.315 43.4989 16.2181 43.7324 16.13C44.9568 15.6763 45.7188 14.8703 45.9523 13.5313C46.1725 12.2672 46.3927 12.1791 47.6128 12.5976C48.2426 12.8134 48.8416 13.1041 49.4627 13.3419C50.0352 13.5666 50.2511 14.007 50.2599 14.5796C50.2687 15.2711 50.2599 15.967 50.2731 16.6585C50.2863 17.4734 50.5418 17.6451 51.2773 17.2575C52.6691 16.5264 53.7306 15.4781 54.3737 14.0114C54.5895 13.5181 54.9242 13.0556 55.2854 12.646C55.6334 12.2496 56.1002 12.1835 56.6156 12.417C57.3115 12.7297 58.047 12.9455 58.7209 13.2935C59.6723 13.7824 59.941 14.3109 59.6943 15.3416C59.1261 17.7112 59.1129 20.1249 59.0689 22.5385C59.0689 22.7059 59.0733 22.8733 59.0997 23.0362C59.1658 23.4415 59.4169 23.6705 59.8221 23.7278C60.2009 23.7762 60.5312 23.5868 60.6457 23.1772C60.7426 22.838 60.769 22.4725 60.7822 22.1157C60.8747 19.8342 61.3945 17.6716 62.5396 15.6851C63.3281 14.3197 64.3939 13.2715 66.0016 12.8927C66.4861 12.7781 66.9353 12.809 67.3626 13.0732C67.4815 13.1481 67.6048 13.2054 67.7326 13.2626C68.3272 13.5313 68.7016 13.3728 68.772 12.7341C68.9174 11.3995 69.0363 10.0562 69.0936 8.71719C69.1508 7.29012 69.1244 5.85866 69.1332 4.4316C69.1376 3.62998 69.6001 3.31726 70.2563 3.76211C71.08 4.31708 72.0093 4.58576 72.9167 4.9205C73.5773 5.16715 73.7095 5.4094 73.6082 6.12733C73.5245 6.71754 73.4012 7.30334 73.3615 7.89795C73.2162 10.0562 73.0532 12.2144 72.9739 14.377C72.8682 17.3016 72.833 20.2306 72.7757 23.1596C72.7581 23.9436 73.1986 24.2387 73.9297 23.9612C74.5023 23.741 74.8414 23.3578 74.8943 22.7323C75.0529 20.7679 75.2202 18.8079 75.3788 16.8435C75.4449 16.0287 75.4713 15.2094 75.5682 14.3946C75.6078 14.0775 75.7488 13.7559 75.9161 13.4785C76.1188 13.1393 76.4623 12.9896 76.8543 13.1305C77.8717 13.4961 78.8848 13.8705 79.889 14.2669C80.3339 14.443 80.3427 14.8659 80.303 15.2623C80.2105 16.13 80.0696 16.9933 79.9991 17.8654C79.867 19.495 79.7393 21.1291 79.9991 22.7632C80.1004 23.4018 80.5056 23.8379 80.9681 24.2167C81.1135 24.3356 81.3777 24.3356 81.5847 24.3312C81.7257 24.3312 81.871 24.2343 82.0076 24.1682C83.2497 23.5384 83.3994 23.0979 82.7828 21.8691C82.6418 21.5828 82.4833 21.3053 82.3247 21.0278C81.9547 20.3759 82.0472 19.8298 82.5978 19.3144C84.157 17.8521 85.7162 16.3898 87.271 14.9187C87.5529 14.6501 87.8083 14.355 88.0902 14.0907C88.5307 13.6811 88.9139 13.6502 89.4028 13.9938C91.05 15.1522 92.6929 16.315 94.3358 17.4734C94.4019 17.5218 94.4723 17.5703 94.5384 17.6231C95.2343 18.1913 95.2696 18.4423 94.7939 19.2043C94.2785 20.028 93.9834 20.9353 93.9262 21.9087C93.8821 22.6707 94.1288 22.9438 94.8908 22.9173C96.0359 22.8733 97.1151 22.609 98.0004 21.8118C98.5289 21.3405 99.0751 20.8868 99.6124 20.4288C99.6917 20.3583 99.7886 20.3055 99.9956 20.1601C99.9824 20.464 100.031 20.693 99.956 20.856C99.4803 21.8514 98.987 22.8425 98.4761 23.8203C98.2338 24.2827 98.269 24.406 98.8725 24.6571C98.846 24.7408 98.8372 24.8465 98.7844 24.9126C97.7669 26.1943 96.5601 27.1985 94.8952 27.5068C94.1596 27.6434 93.5826 27.3879 93.1774 26.7625C92.922 26.3661 92.6885 25.9564 92.4287 25.56C92.0763 25.0227 91.9309 24.9786 91.3804 25.3266C90.7153 25.7494 90.081 26.2251 89.4248 26.67C89.1385 26.8638 88.8346 27.0355 88.5351 27.2029C87.9228 27.5421 87.3547 27.4275 86.8305 27.0135C86.4385 26.7052 86.0553 26.3793 85.6765 26.0577C85.355 25.7803 85.0995 25.7538 84.6987 26.0313C83.8575 26.6171 82.959 27.1236 82.0648 27.6169C81.3777 27.9957 80.7479 27.9253 80.118 27.3791C79.6688 26.9871 79.105 26.7008 78.5545 26.463C77.9819 26.2163 77.3872 26.3396 76.8279 26.6347C75.991 27.0708 75.1498 27.498 74.3041 27.9164C73.5597 28.2864 72.8374 28.3173 72.0886 27.868C71.5425 27.5421 70.939 27.313 70.3621 27.0444C69.6705 26.7228 68.979 26.6744 68.2743 27.0179C67.6753 27.3086 67.0675 27.5817 66.4729 27.8768C65.3585 28.4318 64.2662 28.4758 63.1871 27.7931C62.4956 27.3571 61.8041 26.9254 61.1302 26.463C60.7294 26.1899 60.3198 26.1635 59.8969 26.4189C59.2319 26.8197 58.558 27.2029 57.8797 27.5817C57.3688 27.868 56.871 27.7975 56.3777 27.5156C55.8272 27.1985 55.2722 26.877 54.704 26.5907C54.1755 26.3264 53.9993 25.8904 53.9641 25.3398C53.9156 24.4941 53.8495 23.6529 53.7879 22.8116C53.7747 22.6619 53.7526 22.5077 53.713 22.3624C53.5809 21.8294 53.2417 21.6841 52.744 21.9263C50.7091 22.9085 49.3702 24.4545 48.8592 26.6788C48.7711 27.0664 48.5509 27.3483 48.1589 27.4143C47.9299 27.454 47.626 27.4716 47.4498 27.3527C46.4896 26.7184 45.547 26.0577 44.6221 25.375C44.1949 25.0579 44.1068 24.5778 44.1728 24.0625C44.3534 22.6619 44.5208 21.2568 44.697 19.8518C44.8027 18.9841 44.6353 18.8432 43.8425 19.2131C43.2523 19.4862 42.7017 19.843 42.1291 20.1425C41.583 20.4288 41.4112 20.9001 41.354 21.4726C41.2086 23.0054 41.0588 24.5382 40.8739 26.0621C40.7505 27.0488 40.0458 27.4848 39.1165 27.1368C38.4073 26.8726 37.7378 26.4982 37.0507 26.1723C36.4738 25.8992 36.3152 25.4367 36.3901 24.8333C36.5266 23.7189 36.6543 22.6046 36.76 21.4859C36.8481 20.5609 36.9186 19.636 36.9494 18.7066C36.9582 18.4556 36.8305 18.0107 36.7028 17.9887C36.4473 17.9446 36.095 18.0547 35.8835 18.2309C35.6721 18.4027 35.5136 18.711 35.4607 18.9885C35.1788 20.5213 34.8177 22.0232 34.1261 23.4327C33.2717 25.1636 32.0604 26.5378 30.2634 27.3527C29.6556 27.6302 29.0742 27.6434 28.5016 27.3527C27.885 27.0399 27.2771 26.6964 26.6957 26.3264C26.0967 25.9432 25.5374 25.93 24.956 26.3264C24.5331 26.6171 24.0927 26.8814 23.6742 27.1765C23.084 27.5905 22.4806 27.5993 21.8772 27.2337C21.5116 27.0091 21.1725 26.7404 20.8289 26.4806C20.0141 25.8728 19.6265 25.8463 18.8029 26.4189C18.4153 26.6876 18.0497 26.9871 17.6841 27.2866C16.9574 27.8944 15.6008 28.0926 14.8476 27.5421C13.4822 26.5422 12.1741 25.4675 10.8703 24.3928C10.5004 24.0889 10.4079 23.6044 10.5092 23.1287C10.6765 22.3271 10.8968 21.5387 11.0553 20.7371C11.2579 19.7064 11.0641 19.5391 9.93658 19.5259C9.47851 19.5259 9.19662 19.7989 9.09972 20.257C9.04246 20.5389 9.02484 20.834 9.02044 21.1247C8.96318 24.2871 8.9808 27.454 8.83104 30.612C8.71212 33.0565 7.77396 35.1398 5.51004 36.4083C5.34267 36.5052 5.16209 36.5845 4.99472 36.677C4.54545 36.9193 4.11381 36.9105 3.713 36.5801C2.80567 35.8269 1.89834 35.0738 1.00863 34.303C0.687104 34.0211 0.704722 33.7965 1.04387 33.5058C1.5592 33.0609 2.08774 32.6337 2.61187 32.202C3.92882 31.1273 4.53224 29.7179 4.52784 28.0442C4.52784 26.0754 4.50581 24.1021 4.47498 22.1333C4.46617 21.5739 4.30761 21.4506 3.73502 21.4022C3.45754 21.3802 3.18006 21.3625 2.90257 21.3581C2.44891 21.3493 2.17142 21.1203 1.94239 20.7459C1.70014 20.3495 1.38302 20.0059 1.11875 19.6183C0.72234 19.0414 0.365574 18.4688 0 17.905V17.4866C0.242248 17.1871 0.559373 17.0373 0.942565 17.0549C1.99524 17.1122 2.75722 16.566 3.46635 15.8877C3.91121 15.4649 4.09619 14.9672 4.05215 14.355C3.98168 13.3992 3.92442 12.4434 3.89359 11.4876C3.79228 8.10056 5.06959 5.39178 7.88848 3.44939C8.44785 3.0662 8.67248 3.0662 9.24066 3.44939C9.7692 3.80616 10.3022 4.15852 10.8351 4.50647C11.5662 4.98657 12.3194 5.43142 13.0285 5.94234C13.5747 6.33875 13.5218 6.581 12.9184 6.88931C11.7512 7.48392 10.7514 8.29435 9.9586 9.33382C9.07329 10.4922 8.68129 11.7827 8.9852 13.2362C9.17459 14.1391 9.59302 14.4298 10.4915 14.2537C11.4782 14.0599 12.4339 13.963 13.0858 14.9672C13.1078 15.0024 13.1475 15.0244 13.1783 15.0509C13.654 15.4385 13.9315 15.4253 14.3763 15.0112C15.1559 14.2889 16.0412 13.7163 17.0278 13.3155C18.2082 12.8354 18.6487 12.9455 19.4723 13.8969C19.9833 14.4915 19.9921 14.5135 20.7188 14.1964C21.2297 13.9718 21.635 14.051 21.9873 14.4607C22.4013 14.9452 22.7845 15.4605 23.225 15.923C23.7667 16.4956 23.6786 16.8611 23.3439 17.491C22.9783 18.1737 22.5951 18.8564 22.3132 19.5743C22.0798 20.1733 21.8992 20.8164 21.8552 21.455C21.7891 22.3403 22.692 23.2917 23.5201 23.3578C24.2028 23.415 24.8194 22.838 24.9383 21.8426C25.1982 19.6404 25.4405 17.4337 25.5858 15.2226C25.8325 11.4304 25.9998 7.63368 26.1848 3.83699C26.2024 3.47582 26.3125 3.20274 26.6032 2.99573H27.189L27.1846 3.00013Z" fill="#9D292F"/>
<path d="M81.065 8.40433C81.0518 8.52765 81.0518 8.65538 81.021 8.77431C80.7875 9.69925 80.5585 10.6198 80.3074 11.5403C80.1885 11.9852 79.9551 12.1349 79.5058 12.0645C79.2636 12.0248 79.0213 11.9411 78.7967 11.8442C78.0611 11.5227 77.3388 11.1792 76.6032 10.8532C76.3302 10.7299 76.1716 10.5449 76.2068 10.2454C76.2333 10.012 76.2861 9.78294 76.3302 9.5539C76.4579 8.88882 76.5812 8.22374 76.7089 7.55866C76.7398 7.39569 76.7618 7.22832 76.8146 7.07416C77.0173 6.47956 77.4577 6.25493 78.0567 6.44872C78.2637 6.5192 78.4575 6.63812 78.6557 6.73502C79.29 7.04333 79.9154 7.37367 80.5585 7.65116C80.9152 7.80531 81.1002 8.01673 81.0606 8.40433H81.065Z" fill="#9D292F"/>
<path d="M39.8476 11.21C39.2794 11.2849 38.8302 11.1836 38.4822 10.7607C38.3721 10.6242 38.2047 10.5317 38.0594 10.426C37.2401 9.82699 37.0772 8.98573 37.5793 8.10923C37.7467 7.81413 37.8435 7.47498 37.936 7.14465C38.1034 6.54563 38.2576 6.45314 38.861 6.60289C39.5305 6.77026 40.2088 6.9068 40.8783 7.08739C41.1954 7.17548 41.5301 7.28559 41.7768 7.48379C41.9662 7.63795 42.16 7.95508 42.1335 8.17971C42.0587 8.84919 41.9353 9.52308 41.7327 10.1617C41.4376 11.0955 40.658 11.2673 39.8476 11.21Z" fill="#9D292F"/>
</g>
<defs>
<clipPath id="clip0_97_434">
<rect width="100" height="33.831" fill="white" transform="translate(0 3)"/>
</clipPath>
</defs>
</svg>
