<svg width="100" height="40" viewBox="0 0 100 40" fill="none" xmlns="http://www.w3.org/2000/svg">
<path d="M33.1997 3.5723C34.3483 2.19958 35.595 0.723785 37.3555 0.159318C39.3401 -0.365882 41.0139 1.19663 42.2606 2.52026C45.5231 6.24902 47.8906 10.6584 50.0994 15.0662C51.3019 12.3894 52.7793 9.83379 54.3288 7.34032C55.8046 5.089 57.3278 2.79023 59.4417 1.07883C60.4217 0.326204 61.7896 -0.387152 63.0085 0.241125C64.7395 1.159 66.0533 2.67406 67.2772 4.16949C69.8835 7.5203 71.9238 11.2687 73.7693 15.0776C76.0747 19.9827 78.0675 25.1071 78.9101 30.4851C79.1604 32.9753 79.3846 35.7747 77.8777 37.941C76.7177 39.6377 74.504 40.2267 72.5521 39.8945C70.8472 39.2941 69.36 38.1831 68.2441 36.7646C65.6001 33.494 64.0261 29.528 62.5618 25.6258C62.3426 24.9402 62.0873 24.2694 61.8517 23.5904C61.6979 24.2841 61.5081 24.9664 61.284 25.6405C59.7918 29.6032 58.1999 33.6363 55.4724 36.9298C54.3844 38.2764 52.9348 39.3055 51.3052 39.8913C48.9492 40.3821 46.6716 39.1501 45.1484 37.4272C42.1723 34.1811 40.5149 30.0008 38.9916 25.9334C38.6955 25.0973 38.3977 24.2596 38.1866 23.399C37.9478 24.2711 37.6467 25.1268 37.3342 25.9743C35.9648 29.7292 34.3957 33.4956 31.8973 36.6533C30.5475 38.2764 28.7707 39.8651 26.557 39.9763C24.5167 40.153 22.5288 38.8343 21.7533 36.9658C20.6358 34.3824 20.9598 31.4602 21.4604 28.7688C22.5174 23.6166 24.4938 18.6951 26.804 13.9863C28.6283 10.3426 30.6555 6.76931 33.1997 3.57557V3.5723ZM34.363 4.70941C31.8417 7.92933 29.8374 11.5174 28.0393 15.1741C25.7913 19.9009 23.7674 24.8241 22.9068 30.0106C22.6024 31.4455 22.591 32.9409 22.7497 34.3955C22.9231 35.7649 23.4663 37.244 24.7311 37.9541C25.9369 38.6625 27.4912 38.3778 28.594 37.599C30.5639 36.2263 31.8646 34.1288 32.9968 32.0558C35.4134 27.4255 37.0037 22.4091 38.2063 17.342C39.4792 22.5351 41.0908 27.6988 43.635 32.4223C44.6445 34.1697 45.7161 35.9842 47.3719 37.1916C48.2014 37.9393 49.3075 38.4678 50.4479 38.3402C51.7208 38.2093 52.7957 37.3994 53.6792 36.529C55.209 34.9567 56.3199 33.0358 57.2967 31.0888C59.3861 26.8005 60.8324 22.2259 61.9646 17.5989C63.3717 23.1978 65.1224 28.8081 68.1263 33.7737C69.2552 35.5097 70.5821 37.3143 72.5651 38.1226C73.964 38.6903 75.7196 38.1929 76.5213 36.8889C77.4883 35.3395 77.5619 33.4072 77.4163 31.6369C77.22 28.7655 76.379 25.9923 75.4644 23.2828C73.6401 18.0439 71.2268 13.0079 68.2899 8.304C66.9319 6.20648 65.5216 4.09095 63.6253 2.43682C62.9545 1.84781 61.9597 1.28007 61.1073 1.87072C59.4761 2.86549 58.3357 4.46236 57.2051 5.96924C54.4204 9.9336 52.1265 14.2432 50.2466 18.7049C50.1893 18.7736 50.0732 18.9045 50.0159 18.9716C49.8572 18.466 49.692 17.9654 49.4694 17.486C47.5421 13.3139 45.3906 9.21533 42.668 5.50294C41.7322 4.28075 40.775 3.03074 39.5136 2.12595C38.9769 1.74146 38.2603 1.40769 37.6156 1.73655C36.2511 2.35829 35.2956 3.58048 34.3614 4.7045" fill="#FEFEFE"/>
<path d="M34.3615 4.70614C35.2957 3.58375 36.2512 2.36155 37.6158 1.73818C38.2604 1.40769 38.977 1.74309 39.5137 2.12759C40.7751 3.03073 41.7339 4.28238 42.6681 5.50457C45.3907 9.21696 47.5422 13.3155 49.4696 17.4876C49.6921 17.9687 49.8557 18.4677 50.016 18.9732C47.5127 14.7013 45.2156 10.2674 42.0693 6.41263C41.1514 5.33605 40.1927 4.18748 38.8625 3.6132C38.1066 3.29251 37.336 3.71627 36.7159 4.12694C34.4564 6.01341 32.799 8.48725 31.2217 10.9431C27.5273 16.8414 24.7361 23.2959 22.902 30.0057C23.7626 24.8192 25.7865 19.896 28.0345 15.1692C29.8343 11.5108 31.8369 7.92442 34.3582 4.7045" fill="#9E242E"/>
<path d="M61.1073 1.87235C61.9597 1.2817 62.9545 1.84944 63.6253 2.43845C65.5216 4.09259 66.9303 6.20811 68.2899 8.30564C71.2251 13.0095 73.6384 18.0456 75.4644 23.2845C76.379 25.9939 77.2216 28.7672 77.4163 31.6386C77.1005 29.6409 76.59 27.6791 75.9077 25.7779C74.1718 20.5505 71.7749 15.5521 68.856 10.8875C67.5831 8.88647 66.2267 6.91983 64.584 5.20352C63.9214 4.55561 63.2228 3.8668 62.3213 3.57557C61.6161 3.3596 60.9764 3.85044 60.4119 4.1973C58.8968 5.38841 57.7123 6.92965 56.5882 8.47743C54.5905 11.303 52.817 14.2841 51.2021 17.3453C50.9403 17.8361 50.6131 18.291 50.2466 18.7098C52.1249 14.2481 54.4187 9.9385 57.2034 5.97414C58.3356 4.46726 59.4744 2.87039 61.1056 1.87562" fill="#9E242E"/>
<path d="M36.7173 4.13022C37.3374 3.71791 38.1081 3.29415 38.864 3.61647C40.1941 4.19075 41.1513 5.33932 42.0708 6.4159C45.2171 10.2706 47.5142 14.7046 50.0175 18.9749C48.4452 23.435 46.5849 27.9278 46.4736 32.7233C46.3935 34.2662 46.8058 35.7731 47.3719 37.1916C45.7145 35.9842 44.6428 34.1697 43.6349 32.4223C41.0907 27.6988 39.4791 22.5335 38.2062 17.342C37.2802 13.0079 36.4294 8.58542 36.7206 4.13185" fill="#FF912E"/>
<path d="M60.4104 4.19567C60.9765 3.8488 61.6162 3.35796 62.3197 3.57393C63.2212 3.8668 63.9199 4.55398 64.5825 5.20189C66.2252 6.9182 67.5815 8.88483 68.8545 10.8858C71.7733 15.5505 74.1703 20.5488 75.9062 25.7763C76.5885 27.6775 77.1006 29.6392 77.4147 31.6369C77.5603 33.4072 77.4851 35.3412 76.5198 36.8889C75.718 38.1929 73.9625 38.6903 72.5636 38.1226C70.5789 37.316 69.252 35.5113 68.1231 33.7737C65.1192 28.8081 63.3685 23.1978 61.9614 17.5989C61.0043 13.2042 60.1224 8.71467 60.4087 4.19567" fill="#F41CB2"/>
<path d="M31.2232 10.9447C32.8005 8.48889 34.4579 6.01669 36.7174 4.12859C36.4278 8.58215 37.2769 13.0046 38.2046 17.3388C37.0021 22.4059 35.4101 27.4239 32.9952 32.0525C31.8646 34.1239 30.5622 36.2214 28.5923 37.5958C27.4896 38.3746 25.9352 38.6592 24.7294 37.9508C23.4647 37.2407 22.9215 35.7616 22.748 34.3922C22.5893 32.936 22.6008 31.4422 22.9051 30.0057C24.7376 23.2959 27.5288 16.8397 31.2249 10.9431" fill="#F41CB2"/>
<path d="M56.5882 8.4758C57.7106 6.92638 58.8968 5.38677 60.4119 4.19566C60.1239 8.71467 61.0058 13.2059 61.963 17.5989C60.8324 22.2259 59.3844 26.7989 57.2967 31.0888C56.3183 33.0358 55.2073 34.9567 53.6776 36.529C52.794 37.3994 51.7191 38.2093 50.4462 38.3402C49.3058 38.4678 48.2014 37.9393 47.3703 37.1916C46.8042 35.7731 46.3918 34.2662 46.472 32.7233C46.5833 27.9278 48.4452 23.435 50.0159 18.9749C50.0732 18.9062 50.1893 18.7753 50.2466 18.7082C50.6131 18.291 50.9403 17.8361 51.2021 17.3437C52.817 14.2824 54.5905 11.3014 56.5882 8.4758Z" fill="#F25511"/>
</svg>
