<svg width="100" height="40" viewBox="0 0 100 40" fill="none" xmlns="http://www.w3.org/2000/svg">
<path d="M15.3814 16.0216H20.5481C20.5382 16.0387 20.5346 16.0558 20.5229 16.0657C20.0877 16.4451 19.7919 16.9226 19.5536 17.4396C19.1751 18.2615 18.8001 19.0851 18.4233 19.9079C18.4207 19.9142 18.4198 19.9213 18.4126 19.9474C18.5555 19.8593 18.6868 19.7802 18.8172 19.6993C19.8513 19.0545 20.8871 18.4107 21.9194 17.7624C22.3609 17.4855 22.7997 17.2031 23.2322 16.9118C23.5298 16.7113 23.7384 16.4397 23.822 16.0818C23.8283 16.0531 23.8751 16.0135 23.903 16.0135C25.214 16.0099 26.525 16.0108 27.8369 16.0117C27.8432 16.0117 27.8486 16.0162 27.8756 16.0261C27.7847 16.0612 27.7092 16.0935 27.6319 16.1196C26.9377 16.3462 26.3038 16.6933 25.6789 17.0637C24.8327 17.5655 23.9821 18.0609 23.1306 18.5555C23.0532 18.6004 23.0407 18.64 23.0676 18.7218C23.5136 20.0904 23.9578 21.4608 24.4002 22.8302C24.572 23.3607 24.7725 23.8778 25.0602 24.3912C25.1789 24.2158 25.3084 24.0639 25.3956 23.8903C25.6519 23.3841 25.8992 22.8734 26.1365 22.3581C26.8505 20.8079 27.5591 19.2551 28.2685 17.7031C28.4304 17.3488 28.6057 16.9972 28.674 16.6097C28.701 16.455 28.692 16.2931 28.6974 16.1349C28.6983 16.0971 28.692 16.0594 28.6884 16.0162H38.8096C38.6721 16.5809 38.5363 17.1375 38.3987 17.6995C38.2126 17.6599 38.0354 17.606 37.8547 17.5862C37.4564 17.5412 37.0562 17.4864 36.6561 17.4819C35.4197 17.4684 34.1833 17.4774 32.947 17.4747C32.8687 17.4747 32.8292 17.4954 32.7959 17.5682C32.51 18.1949 32.2204 18.819 31.9318 19.4439C31.9219 19.4664 31.9129 19.4888 31.8994 19.5212C31.9183 19.523 31.93 19.5257 31.9417 19.5257C33.0989 19.5257 34.2571 19.5293 35.4143 19.5203C35.97 19.5167 36.5194 19.4358 37.0643 19.3225C37.0985 19.3153 37.1336 19.3126 37.1893 19.3045C37.1183 19.4637 37.0562 19.6075 36.9906 19.7505C36.7784 20.2118 36.5653 20.6722 36.3522 21.1325C36.3306 21.1784 36.3171 21.2252 36.2461 21.2045C35.4997 20.9842 34.7309 20.9788 33.963 20.9797C33.0989 20.9797 32.2339 20.9833 31.3698 20.9788C31.2646 20.9788 31.2169 21.0094 31.1738 21.1056C30.8519 21.8168 30.5237 22.5254 30.1973 23.2339C30.1829 23.2654 30.1694 23.2978 30.1523 23.3364C30.1739 23.34 30.1865 23.3436 30.1991 23.3436C31.564 23.3436 32.9281 23.3463 34.293 23.3382C34.5979 23.3364 34.9045 23.3086 35.2084 23.2717C35.5105 23.2357 35.81 23.1737 36.1274 23.1206C36.0779 23.1944 36.033 23.2636 35.9862 23.3302C35.6634 23.7932 35.3406 24.2563 35.0187 24.7194C34.9782 24.7778 34.9387 24.8129 34.8568 24.8129C29.8924 24.8102 24.9289 24.8111 19.9645 24.8111C19.9295 24.8111 19.8935 24.8111 19.8468 24.8111C19.5455 23.5729 19.2452 22.3384 18.9404 21.0867C18.7659 21.1919 18.6005 21.2917 18.4359 21.3924C18.141 21.5714 17.8461 21.7494 17.5538 21.9319C17.5089 21.9598 17.4657 22.0048 17.4441 22.0524C17.1753 22.6504 16.9037 23.2474 16.6475 23.8517C16.5198 24.152 16.4892 24.4739 16.5396 24.8066H11.3621C11.4178 24.7491 11.4619 24.7014 11.5077 24.6573C11.9393 24.2428 12.2118 23.7267 12.4564 23.1917C13.0678 21.8528 13.682 20.5148 14.2934 19.1759C14.5964 18.5114 14.903 17.8478 15.1953 17.1779C15.3985 16.7131 15.4102 16.5746 15.3823 16.0207L15.3814 16.0216Z" fill="#1C1C1C"/>
<path d="M84.2867 20.9788C84.3209 21.1658 84.3524 21.343 84.3847 21.5201C84.516 22.2349 84.6473 22.9498 84.7795 23.6646C84.8289 23.9326 84.8739 24.2015 84.9341 24.4676C84.9584 24.5755 85.0186 24.6762 85.0663 24.7868H80.0938C79.9715 23.5181 79.8501 22.2511 79.727 20.9752C79.6577 20.9752 79.5984 20.9752 79.5381 20.9752C79.1713 20.9752 78.8044 20.9752 78.4375 20.9743C78.3818 20.9743 78.3521 20.9851 78.326 21.0426C77.9538 21.8672 77.5743 22.689 77.2029 23.5154C77.0663 23.8202 76.9557 24.1358 76.9512 24.4757C76.9494 24.5782 76.962 24.6807 76.9692 24.7904H71.7935C71.8969 24.6879 71.994 24.598 72.083 24.5009C72.3977 24.161 72.6234 23.7636 72.8149 23.3463C73.3176 22.2538 73.8175 21.1595 74.3175 20.0661C74.7428 19.1373 75.169 18.2084 75.588 17.2768C75.7076 17.0116 75.8146 16.7364 75.8065 16.4397C75.802 16.2976 75.7598 16.1565 75.7337 16.0072C75.7598 16.0072 75.7975 16.0072 75.8353 16.0072C79.0921 16.0072 82.3481 16.0063 85.6049 16.0099C86.086 16.0099 86.5652 16.0504 87.0229 16.2131C87.272 16.3021 87.4968 16.4307 87.6182 16.6825C87.727 16.9082 87.7297 17.1501 87.656 17.3793C87.5579 17.6851 87.4366 17.9854 87.3071 18.2803C87.0913 18.7713 86.8692 19.2586 86.6345 19.7406C86.4412 20.1371 86.1624 20.4653 85.7641 20.6776C85.4808 20.8286 85.1733 20.8988 84.8568 20.9311C84.6734 20.95 84.489 20.9635 84.2849 20.9806L84.2867 20.9788ZM79.0355 19.5059C79.0589 19.5149 79.0652 19.5203 79.0714 19.5203C79.985 19.5167 80.8986 19.5122 81.8122 19.5077C82.1485 19.5059 82.3706 19.3414 82.5027 19.0374C82.6556 18.6868 82.8192 18.3397 82.9757 17.9899C83.0117 17.9099 83.0476 17.828 83.0701 17.7426C83.1061 17.6104 83.0548 17.5241 82.9209 17.4998C82.7959 17.4774 82.6673 17.4639 82.5396 17.4639C81.7168 17.4612 80.895 17.4639 80.0722 17.4639C80.0084 17.4639 79.9742 17.4783 79.9446 17.543C79.7377 17.998 79.5246 18.4503 79.3133 18.9035C79.2207 19.1022 79.129 19.3009 79.0337 19.5059H79.0355Z" fill="#1C1C1C"/>
<path d="M51.2498 16.0144H56.4237C56.3688 16.0701 56.3257 16.1178 56.2789 16.1619C55.9076 16.5107 55.6468 16.9361 55.4337 17.3928C55.1136 18.078 54.7989 18.7659 54.4824 19.452C54.4734 19.4709 54.468 19.4915 54.4581 19.5212C54.4994 19.523 54.5327 19.5266 54.566 19.5266C55.5991 19.5266 56.6323 19.5266 57.6655 19.5284C57.7428 19.5284 57.7851 19.5095 57.8183 19.4349C58.1591 18.6733 58.5071 17.9162 58.8452 17.1537C58.9666 16.8803 59.0502 16.5935 59.0457 16.2904C59.0448 16.2023 59.0322 16.1142 59.0241 16.0171H64.2205C64.1468 16.0827 64.0883 16.1295 64.0344 16.1825C63.645 16.5647 63.3825 17.0296 63.1577 17.5196C62.7476 18.4134 62.3376 19.3072 61.9285 20.201C61.4807 21.1784 61.032 22.1567 60.5842 23.1341C60.4296 23.4731 60.2578 23.8076 60.1967 24.1781C60.167 24.357 60.1805 24.5431 60.1742 24.7266C60.1742 24.7473 60.1742 24.7679 60.1742 24.7958H55.0057C55.0659 24.7347 55.1127 24.6852 55.1621 24.6376C55.5821 24.2275 55.8554 23.724 56.0946 23.1971C56.4147 22.4921 56.7375 21.7898 57.0594 21.0858C57.0729 21.057 57.0837 21.0273 57.0999 20.9878C57.0675 20.9851 57.0414 20.9806 57.0163 20.9806C55.9723 20.9806 54.9283 20.9806 53.8844 20.9788C53.8179 20.9788 53.7837 20.9968 53.7558 21.0579C53.3665 21.9139 52.9717 22.7682 52.586 23.626C52.4457 23.9389 52.3504 24.2662 52.3765 24.6169C52.381 24.6735 52.3882 24.7293 52.3953 24.7958H47.2286C47.2403 24.7769 47.2475 24.7572 47.261 24.7446C47.7268 24.3327 48.0289 23.8094 48.2825 23.2537C48.76 22.2116 49.2365 21.1694 49.7113 20.1255C50.1699 19.1175 50.6303 18.1104 51.0816 17.0997C51.2255 16.776 51.3109 16.4352 51.2471 16.0737C51.2444 16.0575 51.2489 16.0396 51.2498 16.0162V16.0144Z" fill="#1C1C1C"/>
<path d="M85.4854 24.794C85.6301 24.1925 85.7722 23.6044 85.9116 23.0235C86.1454 23.0982 86.3656 23.1935 86.5949 23.2375C86.8836 23.2924 87.1794 23.3265 87.4725 23.3319C88.1631 23.3454 88.8546 23.3373 89.5461 23.3355C90.4192 23.3328 91.2914 23.3292 92.1645 23.3239C92.2499 23.3239 92.3353 23.3158 92.419 23.2987C92.6114 23.2609 92.7552 23.1602 92.8353 22.9732C92.936 22.7385 93.0493 22.5092 93.15 22.2745C93.2174 22.1153 93.1725 22.0263 93.0007 22.0012C92.829 21.9751 92.6536 21.9634 92.4801 21.9625C91.1439 21.958 89.8077 21.9652 88.4715 21.9517C88.1865 21.949 87.897 21.9022 87.6182 21.8357C87.0661 21.7035 86.8413 21.3367 86.9897 20.7909C87.0796 20.4609 87.2127 20.1407 87.3512 19.8269C87.6398 19.1714 87.9203 18.5096 88.2494 17.8739C88.7979 16.8138 89.698 16.2248 90.8742 16.0566C91.1367 16.0189 91.4056 16.0081 91.6717 16.0072C92.9369 16.0018 94.2011 16.0054 95.4663 16.0045C96.9266 16.0045 98.3868 16.0018 99.8471 16C99.8921 16 99.9379 16 100 16C99.8048 16.5917 99.616 17.1653 99.4263 17.7417C99.2222 17.6806 99.0334 17.5996 98.8355 17.5682C98.4956 17.5151 98.1512 17.4666 97.8087 17.4639C96.3799 17.4522 94.9511 17.4567 93.5222 17.4621C93.328 17.4621 93.1329 17.489 92.9405 17.5196C92.7804 17.5448 92.6617 17.6437 92.5925 17.7903C92.4927 17.998 92.3947 18.2075 92.3057 18.4197C92.2427 18.569 92.2796 18.6391 92.4396 18.676C92.5493 18.7011 92.6644 18.7146 92.7768 18.7146C93.9062 18.7173 95.0356 18.7146 96.165 18.7173C96.646 18.7182 97.1271 18.7326 97.5929 18.8666C97.7646 18.9161 97.9363 18.9862 98.091 19.077C98.4039 19.2595 98.5136 19.55 98.4732 19.9034C98.4399 20.1947 98.3131 20.4537 98.1926 20.7144C97.8752 21.4041 97.5623 22.0965 97.2368 22.7825C96.9131 23.465 96.4419 24.0153 95.754 24.3588C95.2397 24.616 94.6885 24.7365 94.1202 24.7688C93.7084 24.7922 93.2948 24.7931 92.882 24.7931C90.4659 24.7949 88.0507 24.794 85.6346 24.794H85.4854Z" fill="#1C1C1C"/>
<path d="M0 24.8147L0.4406 23.0316C0.624033 23.0972 0.794878 23.1791 0.976513 23.2177C1.24987 23.2762 1.52951 23.3364 1.80646 23.3382C3.4097 23.349 5.01295 23.3445 6.61619 23.3427C6.71151 23.3427 6.80862 23.3328 6.90303 23.3193C7.11884 23.2888 7.27619 23.18 7.36431 22.9723C7.45693 22.7538 7.56213 22.5398 7.65655 22.3222C7.74197 22.127 7.70151 22.0461 7.4893 22.0101C7.34993 21.9859 7.20606 21.9787 7.06399 21.9787C5.74938 21.976 4.43477 21.9805 3.12017 21.9742C2.73262 21.9724 2.34327 21.9472 1.9773 21.8015C1.56908 21.6397 1.41082 21.3357 1.48365 20.9014C1.5367 20.5894 1.6572 20.3035 1.78758 20.0184C2.09959 19.3342 2.39542 18.6409 2.72722 17.9665C3.22447 16.9567 4.04453 16.348 5.14783 16.1124C5.64597 16.0063 6.15042 16.0207 6.65396 16.0207C9.16897 16.0207 11.684 16.0207 14.1999 16.0207C14.2458 16.0207 14.2907 16.0207 14.3573 16.0207C14.2197 16.6078 14.0848 17.1806 13.9481 17.7624C13.8034 17.7147 13.6703 17.668 13.5354 17.6266C13.1685 17.5151 12.7891 17.4791 12.4078 17.4783C10.9152 17.4756 9.42254 17.4756 7.9299 17.4836C7.74467 17.4845 7.55314 17.516 7.376 17.57C7.28249 17.5987 7.18807 17.6914 7.13862 17.7795C7.02352 17.9863 6.92911 18.2057 6.83739 18.4251C6.76995 18.5851 6.80952 18.6625 6.97676 18.6948C7.11164 18.7218 7.25191 18.7344 7.38949 18.7344C8.5899 18.738 9.79031 18.7317 10.9907 18.7398C11.4394 18.7434 11.8863 18.7875 12.3134 18.943C12.567 19.0347 12.7909 19.166 12.9168 19.4196C13.0301 19.6462 13.0337 19.8872 12.9518 20.1138C12.8197 20.4761 12.6659 20.8322 12.5049 21.1829C12.2127 21.8177 11.9304 22.4588 11.604 23.0757C11.1813 23.875 10.507 24.3813 9.63295 24.6214C9.10333 24.767 8.56203 24.8111 8.01622 24.812C5.38341 24.8138 2.7515 24.8129 0.118692 24.8138C0.0836241 24.8138 0.0485559 24.8138 0.000899184 24.8138L0 24.8147Z" fill="#1C1C1C"/>
<path d="M66.0108 23.3355H66.1412C67.4306 23.3355 68.721 23.3373 70.0104 23.3355C70.6524 23.3346 71.2881 23.2654 71.9149 23.1197C71.932 23.1161 71.949 23.1143 71.9895 23.108C71.8888 23.2555 71.7989 23.3886 71.7071 23.5199C71.432 23.9164 71.1542 24.3112 70.8808 24.7095C70.8385 24.7715 70.7954 24.8111 70.7172 24.7976C70.7064 24.7958 70.6956 24.7976 70.6848 24.7976C67.3488 24.7994 64.0119 24.8003 60.676 24.8021C60.631 24.8021 60.5861 24.8021 60.515 24.8021C60.622 24.6897 60.7128 24.5971 60.801 24.5027C61.131 24.1475 61.3656 23.7294 61.5662 23.2933C62.0382 22.2682 62.5058 21.2413 62.9743 20.2154C63.4239 19.2308 63.8753 18.2471 64.3195 17.2598C64.4696 16.9253 64.5874 16.5782 64.564 16.2014C64.5604 16.1421 64.5514 16.0818 64.5434 16.0144H74.6628C74.5288 16.5728 74.3957 17.1276 74.259 17.6941C74.1718 17.6752 74.09 17.659 74.01 17.6383C73.5667 17.5259 73.1144 17.4765 72.6576 17.4747C71.3789 17.4693 70.0994 17.4693 68.8208 17.463C68.7291 17.463 68.6823 17.4891 68.6445 17.5736C68.3622 18.1976 68.0745 18.8189 67.7885 19.4421C67.7795 19.461 67.7732 19.4807 67.7615 19.5104C67.793 19.5149 67.8191 19.5212 67.8443 19.5212C68.9566 19.5212 70.0697 19.5221 71.182 19.5176C71.7854 19.5149 72.3797 19.4313 72.9687 19.3072C72.9885 19.3027 73.0092 19.3 73.0496 19.2928C72.752 19.9402 72.4616 20.5732 72.172 21.2036C71.9328 21.1541 71.7063 21.0903 71.4752 21.0642C71.1083 21.0219 70.7387 20.9842 70.3692 20.9806C69.3072 20.9698 68.2453 20.977 67.1834 20.9752C67.115 20.9752 67.0755 20.9905 67.0458 21.0579C66.705 21.8114 66.3606 22.5631 66.0081 23.3373L66.0108 23.3355Z" fill="#1C1C1C"/>
<path d="M47.7493 22.6872C47.6504 22.832 47.5578 22.9696 47.4634 23.1054C47.0974 23.6332 46.7296 24.1601 46.3664 24.6897C46.3115 24.7706 46.2549 24.8075 46.1524 24.8057C45.7747 24.7985 45.3971 24.8021 45.0194 24.803C43.0637 24.8057 41.108 24.8102 39.1522 24.8093C38.7431 24.8093 38.334 24.7922 37.9356 24.6834C37.5274 24.5719 37.1659 24.3939 37.0068 23.9659C36.8962 23.6682 36.9276 23.3643 36.9951 23.0631C37.0922 22.6342 37.2855 22.2421 37.4663 21.8447C37.8583 20.986 38.2467 20.1264 38.6451 19.2703C38.8375 18.8558 39.0281 18.4377 39.2529 18.0403C39.8734 16.9415 40.8166 16.2878 42.0674 16.0971C42.4244 16.0423 42.7894 16.0153 43.1509 16.0144C45.4276 16.0072 47.7035 16.0108 49.9802 16.0108H50.1223C50.1241 16.0522 50.1349 16.0908 50.1259 16.125C49.9631 16.7643 49.7986 17.4027 49.634 18.0403C49.6304 18.0528 49.6196 18.0636 49.6133 18.0753C49.4083 18.0232 49.2087 17.9566 49.0037 17.9252C48.6917 17.8766 48.377 17.8263 48.0631 17.8227C46.9877 17.8101 45.9114 17.82 44.836 17.8173C44.4026 17.8164 44.104 18.0007 43.9224 18.4008C43.3325 19.6993 42.731 20.9923 42.1384 22.2898C42.0827 22.4112 42.0377 22.5416 42.0125 22.672C41.9802 22.8392 42.044 22.9318 42.2121 22.9633C42.3542 22.9903 42.5008 22.9993 42.6456 23.0002C43.3892 23.002 44.1328 23.0038 44.8764 22.9939C45.5598 22.9849 46.2405 22.9273 46.9158 22.8185C47.1684 22.7781 47.4193 22.7313 47.6711 22.689C47.6918 22.6854 47.7125 22.689 47.7493 22.689V22.6872Z" fill="#1C1C1C"/>
</svg>
