<svg xmlns="http://www.w3.org/2000/svg" width="20" height="20" viewBox="0 0 20 20">
    <path data-name="Path 18428" d="M0 0h20v20H0z" style="fill:none"/>
    <path data-name="Path 18429" d="M14.5 2.667h3.333a.833.833 0 0 1 .833.833v13.333a.833.833 0 0 1-.833.833h-15A.833.833 0 0 1 2 16.833V3.5a.833.833 0 0 1 .833-.833h3.334V1h1.666v1.667h5V1H14.5zM17 9.333H3.667V16H17zm-4.167-5h-5V6H6.167V4.333h-2.5v3.334H17V4.333h-2.5V6h-1.667zM5.333 11H7v1.667H5.333zM9.5 11h1.667v1.667H9.5zm4.167 0h1.667v1.667h-1.667z" transform="translate(-.333 -.167)" style="fill:#888"/>
</svg>
