<svg width="20" height="20" viewBox="0 0 20 20" fill="none" xmlns="http://www.w3.org/2000/svg">
<path d="M8 10.6667C12.4447 10.6667 12.4447 4 8 4M6 4H14H6ZM6 7.33333H14H6ZM6 10.6667L11.6667 16L6 10.6667ZM6 10.6667H8H6Z" stroke="#1D86FF" stroke-width="1.25" stroke-linecap="round" stroke-linejoin="round"/>
<path fill-rule="evenodd" clip-rule="evenodd" d="M16.562 9.99982C16.4636 9.99982 16.3692 10.0389 16.2996 10.1085C16.23 10.1781 16.1909 10.2725 16.1909 10.3709L16.1909 14.6704L14.5982 13.0769C14.5637 13.0424 14.5227 13.0151 14.4777 12.9964C14.4326 12.9777 14.3843 12.9681 14.3355 12.9681C14.2867 12.9681 14.2384 12.9777 14.1933 12.9964C14.1482 13.0151 14.1072 13.0424 14.0727 13.0769C14.0382 13.1114 14.0109 13.1524 13.9922 13.1975C13.9735 13.2426 13.9639 13.2909 13.9639 13.3397C13.9639 13.3885 13.9735 13.4368 13.9922 13.4819C14.0109 13.5269 14.0382 13.5679 14.0727 13.6024L16.2993 15.829C16.3338 15.8635 16.3747 15.8909 16.4198 15.9097C16.4649 15.9284 16.5132 15.938 16.562 15.938C16.6108 15.938 16.6592 15.9284 16.7043 15.9097C16.7493 15.8909 16.7903 15.8635 16.8248 15.829L19.0513 13.6024C19.121 13.5327 19.1602 13.4382 19.1602 13.3397C19.1602 13.2411 19.121 13.1466 19.0513 13.0769C18.9816 13.0073 18.8871 12.9681 18.7886 12.9681C18.69 12.9681 18.5955 13.0073 18.5259 13.0769L16.9331 14.6704L16.9331 10.3709C16.9331 10.2725 16.894 10.1781 16.8244 10.1085C16.7548 10.0389 16.6605 9.99982 16.562 9.99982Z" fill="#1D86FF"/>
</svg>
