<svg width="38" height="31" viewBox="0 0 38 31" fill="none" xmlns="http://www.w3.org/2000/svg">
<path d="M4.49148 30.1075H33.8476C35.4622 30.1075 36.4524 29.7405 36.8184 29.0066C37.1863 28.2727 37.3703 27.4654 37.3703 26.5847V14.8423C37.3703 13.717 37.0151 12.6895 36.3047 11.7599C35.5962 10.8303 34.7283 10.2432 33.7008 9.99853V7.50326C33.7008 5.7419 33.0648 4.22516 31.7927 2.95307C30.5206 1.68097 29.0038 1.04492 27.2425 1.04492H11.0966C9.33524 1.04492 7.81851 1.68097 6.54641 2.95307C5.27431 4.22516 4.63826 5.7419 4.63826 7.50326V9.99853C3.6108 10.2432 2.74284 10.8303 2.03438 11.7599C1.32396 12.6895 0.96875 13.717 0.96875 14.8423V26.5847C0.96875 28.1993 1.3357 29.1896 2.0696 29.5556C2.80351 29.9235 3.6108 30.1075 4.49148 30.1075ZM4.49148 28.0525C4.05114 28.0525 3.69691 27.9185 3.42879 27.6504C3.15871 27.3803 3.02368 27.0251 3.02368 26.5847V14.8423C3.02368 14.0105 3.30452 13.3128 3.8662 12.7492C4.42983 12.1875 5.12753 11.9067 5.95929 11.9067C6.79104 11.9067 7.48874 12.1875 8.05238 12.7492C8.61406 13.3128 8.8949 14.0105 8.8949 14.8423V20.7135H29.4442V14.8423C29.4442 14.0105 29.725 13.3128 30.2867 12.7492C30.8503 12.1875 31.548 11.9067 32.3798 11.9067C33.2115 11.9067 33.9083 12.1875 34.4699 12.7492C35.0336 13.3128 35.3154 14.0105 35.3154 14.8423V26.5847C35.3154 27.0251 35.1813 27.3803 34.9132 27.6504C34.6431 27.9185 34.2879 28.0525 33.8476 28.0525H4.49148ZM10.9498 18.6586V14.8423C10.9498 13.5213 10.5222 12.4077 9.66696 11.5016C8.80976 10.5974 7.81851 10.0964 6.69319 9.99853V7.50326C6.69319 6.23117 7.10907 5.17924 7.94082 4.34748C8.77258 3.51573 9.82451 3.09985 11.0966 3.09985H27.2425C28.5146 3.09985 29.5665 3.51573 30.3982 4.34748C31.23 5.17924 31.6459 6.23117 31.6459 7.50326V9.99853C30.5206 10.0964 29.5303 10.5974 28.675 11.5016C27.8178 12.4077 27.3892 13.5213 27.3892 14.8423V18.6586H10.9498Z" fill="#5DC837" stroke="white" stroke-width="0.8"/>
</svg>
