<svg width="22" height="22" viewBox="0 0 22 22" fill="none" xmlns="http://www.w3.org/2000/svg">
<rect width="22" height="22" fill="white"/>
<g clip-path="url(#clip0_3482_868)">
<path d="M20.77 19.36V19.4C20.7 19.48 20.71 19.59 20.68 19.69C20.49 20.23 20.01 20.54 19.35 20.54C13.7 20.54 8.05003 20.54 2.41003 20.54C2.32003 20.54 2.24003 20.54 2.15003 20.53C1.54003 20.47 1.05003 19.99 1.03003 19.38C1.01003 18.94 1.02003 18.5 1.03003 18.06C1.03003 17.75 0.990029 17.43 1.05003 17.12C1.36003 15.49 1.67003 13.85 1.98003 12.22C2.29003 10.57 2.61003 8.93 2.92003 7.28C3.24003 5.61 3.56003 3.94 3.88003 2.26C3.91003 2.12 3.97003 2.03 4.12003 2C4.20003 2 4.28003 2.01 4.36003 2.01C8.22003 2.01 12.09 2.01 15.95 2.01C16.54 2.01 17.12 2.01 17.71 2.01C17.84 2.04 17.89 2.13 17.91 2.25C18.06 3.05 18.21 3.84 18.37 4.64C18.68 6.28 19 7.93 19.31 9.57C19.61 11.15 19.91 12.73 20.21 14.31C20.39 15.27 20.57 16.23 20.75 17.19C20.75 17.88 20.75 18.57 20.75 19.26C20.75 19.3 20.74 19.34 20.79 19.36H20.77ZM10.86 17C13.88 17 16.91 17 19.93 17C19.97 17 20.01 17 20.05 17C20.15 17.01 20.18 16.98 20.16 16.88C20.02 16.18 19.89 15.47 19.75 14.76C19.39 12.91 19.04 11.05 18.68 9.2C18.27 7.05 17.85 4.89 17.45 2.73C17.42 2.55 17.36 2.5 17.17 2.5C12.96 2.5 8.76003 2.5 4.55003 2.5C4.52003 2.5 4.48003 2.5 4.45003 2.5C4.34003 2.48 4.30003 2.54 4.28003 2.64C3.99003 4.17 3.70003 5.7 3.41003 7.22C2.80003 10.41 2.20003 13.6 1.59003 16.78C1.55003 16.98 1.61003 16.99 1.77003 16.99C4.79003 16.99 7.82003 16.99 10.84 16.99L10.86 17ZM10.89 17.51C7.83003 17.51 4.78003 17.51 1.72003 17.51C1.56003 17.51 1.50003 17.54 1.51003 17.71C1.52003 18.19 1.51003 18.67 1.51003 19.15C1.51003 19.73 1.81003 20.03 2.38003 20.03C8.04003 20.03 13.7 20.03 19.36 20.03C19.93 20.03 20.23 19.73 20.23 19.17C20.23 18.69 20.23 18.21 20.23 17.73C20.23 17.56 20.19 17.51 20.01 17.51C16.97 17.51 13.92 17.51 10.88 17.51H10.89Z" fill="#100F0F"/>
<path d="M4.77002 15.4999C4.62002 15.4999 4.53002 15.3799 4.45002 15.2799C4.36002 15.1699 4.29002 15.1699 4.20002 15.2799C4.15002 15.3399 4.09002 15.3999 4.03002 15.4399C3.92002 15.5099 3.82002 15.4999 3.72002 15.4199C3.62002 15.3299 3.58002 15.1899 3.68002 15.0999C3.94002 14.8899 3.97002 14.7199 3.68002 14.4999C3.57002 14.4199 3.61002 14.2799 3.71002 14.1799C3.81002 14.0799 3.92002 14.0799 4.04002 14.1599C4.15002 14.2399 4.22002 14.4099 4.33002 14.3999C4.43002 14.3999 4.51002 14.2399 4.61002 14.1599C4.72002 14.0699 4.84002 14.0899 4.93002 14.1799C5.03002 14.2799 5.04002 14.3899 4.96002 14.4999C4.89002 14.6099 4.71002 14.6799 4.71002 14.7899C4.71002 14.8899 4.87002 14.9699 4.95002 15.0699C5.01002 15.1499 5.03002 15.2399 4.98002 15.3299C4.93002 15.4199 4.85002 15.4599 4.76002 15.4799L4.77002 15.4999Z" fill="#100F0F"/>
<path d="M11.4 14.3499C11.4 14.4999 11.31 14.5799 11.22 14.6599C11.09 14.7599 11.06 14.8499 11.22 14.9599C11.27 14.9999 11.32 15.0499 11.36 15.0999C11.44 15.2099 11.43 15.3299 11.33 15.4199C11.23 15.5199 11.12 15.5199 11 15.4399C10.89 15.3599 10.83 15.1899 10.7 15.1999C10.6 15.2099 10.52 15.3599 10.42 15.4399C10.31 15.5299 10.19 15.5099 10.1 15.4199C10 15.3199 10 15.1999 10.08 15.0799C10.16 14.9799 10.32 14.9199 10.31 14.7999C10.31 14.7099 10.16 14.6299 10.08 14.5399C9.99001 14.4299 9.99001 14.3099 10.08 14.1999C10.18 14.0899 10.3 14.0899 10.42 14.1799C10.52 14.2599 10.61 14.4099 10.7 14.4099C10.79 14.4099 10.88 14.2599 10.98 14.1799C11.06 14.1199 11.14 14.0999 11.24 14.1499C11.33 14.1999 11.38 14.2699 11.39 14.3599L11.4 14.3499Z" fill="#100F0F"/>
<path d="M11.4 4.15998C11.39 4.30998 11.26 4.39998 11.16 4.48998C11.08 4.56998 11.07 4.61998 11.16 4.68998C11.22 4.73998 11.28 4.79998 11.33 4.85998C11.42 4.96998 11.42 5.09998 11.32 5.19998C11.22 5.29998 11.1 5.29998 10.98 5.21998C10.88 5.14998 10.81 4.97998 10.7 4.98998C10.61 4.98998 10.53 5.13998 10.44 5.21998C10.33 5.30998 10.2 5.30998 10.1 5.21998C9.99004 5.11998 9.99004 4.99998 10.08 4.87998C10.15 4.77998 10.32 4.70998 10.31 4.59998C10.3 4.49998 10.15 4.41998 10.07 4.31998C9.99004 4.20998 9.99004 4.08998 10.09 3.99998C10.19 3.88998 10.32 3.88998 10.43 3.97998C10.53 4.05998 10.61 4.21998 10.7 4.21998C10.79 4.21998 10.88 4.05998 10.98 3.97998C11.06 3.90998 11.16 3.89998 11.26 3.94998C11.35 3.99998 11.39 4.07998 11.4 4.17998V4.15998Z" fill="#100F0F"/>
<path d="M15.2701 3.88989C15.3801 3.88989 15.4601 3.97989 15.5301 4.07989C15.6401 4.22989 15.7301 4.20989 15.8301 4.07989C15.8701 4.02989 15.9201 3.97989 15.9801 3.93989C16.1001 3.85989 16.2101 3.87989 16.3001 3.97989C16.3901 4.06989 16.4201 4.20989 16.3201 4.28989C16.0601 4.49989 16.0301 4.66989 16.3201 4.88989C16.4201 4.96989 16.3901 5.10989 16.2901 5.20989C16.1901 5.30989 16.0701 5.30989 15.9601 5.22989C15.8601 5.14989 15.7701 4.99989 15.6801 4.99989C15.5901 4.99989 15.5001 5.14989 15.4001 5.22989C15.2801 5.31989 15.1601 5.30989 15.0601 5.20989C14.9701 5.10989 14.9701 4.98989 15.0501 4.87989C15.1201 4.77989 15.2901 4.70989 15.2801 4.59989C15.2701 4.49989 15.1201 4.40989 15.0401 4.31989C14.9701 4.23989 14.9701 4.13989 15.0101 4.05989C15.0501 3.96989 15.1301 3.91989 15.2601 3.91989L15.2701 3.88989Z" fill="#100F0F"/>
<path d="M5.95002 9.26997C5.95002 9.33997 5.92002 9.38997 5.88002 9.44997C5.81002 9.53997 5.65002 9.59997 5.67002 9.70997C5.68002 9.79997 5.81002 9.87997 5.89002 9.95997C5.89002 9.95997 5.91002 9.97997 5.92002 9.98997C5.99002 10.11 5.99002 10.22 5.89002 10.32C5.79002 10.42 5.68002 10.42 5.56002 10.34C5.45002 10.27 5.38002 10.09 5.26002 10.09C5.16002 10.09 5.08002 10.26 4.98002 10.33C4.87002 10.41 4.75002 10.41 4.65002 10.31C4.55002 10.21 4.55002 10.08 4.63002 9.96997C4.70002 9.86997 4.87002 9.79997 4.86002 9.68997C4.86002 9.59997 4.71002 9.51997 4.63002 9.42997C4.54002 9.31997 4.54002 9.18997 4.64002 9.08997C4.74002 8.98997 4.87002 8.98997 4.98002 9.07997C5.08002 9.14997 5.14002 9.31997 5.26002 9.30997C5.36002 9.29997 5.43002 9.15997 5.52002 9.07997C5.60002 9.00997 5.71002 8.99997 5.80002 9.04997C5.89002 9.08997 5.94002 9.16997 5.93002 9.27997L5.95002 9.26997Z" fill="#100F0F"/>
<path d="M5.74005 4.25009C5.83005 4.15009 5.90005 4.06009 5.98005 3.98009C6.10005 3.87009 6.23005 3.86009 6.35005 3.98009C6.46005 4.09009 6.45005 4.22009 6.35005 4.34009C6.27005 4.42009 6.15005 4.50009 6.13005 4.59009C6.12005 4.69009 6.27005 4.75009 6.34005 4.84009C6.45005 4.96009 6.47005 5.09009 6.34005 5.21009C6.22005 5.32009 6.09005 5.31009 5.97005 5.20009C5.97005 5.20009 5.95005 5.18009 5.94005 5.17009C5.80005 5.03676 5.66005 5.03676 5.52005 5.17009C5.37005 5.31009 5.23005 5.33009 5.12005 5.21009C5.00005 5.09009 5.02005 4.96009 5.16005 4.81009C5.29339 4.67009 5.29339 4.52342 5.16005 4.37009C5.09005 4.30009 5.04005 4.23009 5.06005 4.12009C5.09005 3.92009 5.32005 3.83009 5.47005 3.96009C5.57005 4.04009 5.64005 4.14009 5.75005 4.26009L5.74005 4.25009Z" fill="#100F0F"/>
<path d="M17.4101 14.81C17.5101 14.9 17.6001 14.97 17.6801 15.05C17.7901 15.17 17.8001 15.3 17.6801 15.42C17.5701 15.53 17.4401 15.52 17.3201 15.42C17.2301 15.34 17.1701 15.19 17.0601 15.2C16.9701 15.21 16.9001 15.35 16.8101 15.42C16.6901 15.52 16.5601 15.53 16.4501 15.42C16.3401 15.31 16.3501 15.18 16.4501 15.06C16.5301 14.97 16.6801 14.9 16.6701 14.8C16.6701 14.71 16.5301 14.64 16.4501 14.55C16.3401 14.43 16.3401 14.3 16.4501 14.19C16.5601 14.08 16.6801 14.08 16.8101 14.19C16.9001 14.27 16.9701 14.42 17.0701 14.41C17.1701 14.4 17.2501 14.26 17.3401 14.18C17.4501 14.08 17.5701 14.08 17.6801 14.18C17.7901 14.29 17.7901 14.42 17.6901 14.54C17.6101 14.63 17.5101 14.7 17.4001 14.8L17.4101 14.81Z" fill="#100F0F"/>
<path d="M10.32 9.00996C10.42 9.00996 10.5 9.11996 10.58 9.20996C10.68 9.32996 10.75 9.32996 10.84 9.20996C10.88 9.15996 10.93 9.10996 10.98 9.06996C11.1 8.97996 11.22 8.97996 11.32 9.07996C11.43 9.17996 11.43 9.29996 11.34 9.41996C11.26 9.51996 11.1 9.58996 11.11 9.69996C11.11 9.78996 11.26 9.86996 11.34 9.95996C11.44 10.07 11.44 10.19 11.34 10.3C11.23 10.41 11.1 10.41 10.98 10.31C10.89 10.23 10.81 10.09 10.72 10.08C10.64 10.08 10.55 10.23 10.46 10.3C10.34 10.4 10.21 10.41 10.1 10.3C10 10.2 10 10.08 10.09 9.95996C10.17 9.85996 10.33 9.79996 10.32 9.67996C10.31 9.57996 10.17 9.50996 10.09 9.41996C10.02 9.33996 10.01 9.23996 10.06 9.13996C10.11 9.04996 10.19 9.00996 10.34 9.00996H10.32Z" fill="#100F0F"/>
<path d="M16.14 10.03C16.05 10.13 15.97 10.23 15.88 10.31C15.76 10.41 15.63 10.41 15.52 10.31C15.41 10.2 15.42 10.07 15.52 9.95003C15.6 9.87003 15.72 9.79003 15.74 9.70003C15.75 9.60003 15.6 9.54003 15.53 9.45003C15.42 9.33003 15.4 9.19003 15.53 9.08003C15.65 8.97003 15.78 8.98003 15.9 9.10003C15.9 9.10003 15.92 9.12003 15.93 9.13003C16.07 9.26337 16.21 9.26337 16.35 9.13003C16.49 8.99003 16.64 8.97003 16.75 9.08003C16.87 9.19003 16.86 9.33003 16.71 9.48003C16.69 9.50003 16.68 9.52003 16.65 9.54003C16.48 9.65003 16.5 9.76003 16.65 9.87003C16.68 9.89003 16.71 9.92003 16.73 9.95003C16.83 10.07 16.85 10.19 16.73 10.31C16.61 10.43 16.48 10.42 16.36 10.31C16.28 10.23 16.2 10.15 16.11 10.04L16.14 10.03Z" fill="#100F0F"/>
</g>
<defs>
<clipPath id="clip0_3482_868">
<rect width="19.77" height="18.54" fill="white" transform="translate(1 2)"/>
</clipPath>
</defs>
</svg>
