<svg width="20" height="19" viewBox="0 0 20 19" fill="none" xmlns="http://www.w3.org/2000/svg">
<path d="M8.75003 8.99997C9.33039 8.9999 9.90497 9.1153 10.4403 9.33945C10.9756 9.5636 11.461 9.89203 11.8682 10.3056C12.2753 10.7192 12.5962 11.2096 12.8119 11.7484C13.0277 12.2871 13.1341 12.8634 13.125 13.4437C13.1236 13.5398 13.1443 13.6349 13.1855 13.7217C13.2268 13.8085 13.2875 13.8846 13.363 13.9441C13.4384 14.0036 13.5266 14.0448 13.6206 14.0647C13.7146 14.0846 13.8119 14.0826 13.905 14.0587C14.1822 13.9877 14.4719 13.981 14.7521 14.0389C15.0323 14.0969 15.2955 14.2182 15.5217 14.3934C15.7479 14.5686 15.9311 14.7931 16.0573 15.0499C16.1836 15.3067 16.2495 15.5889 16.25 15.875C16.25 16.3723 16.0525 16.8492 15.7009 17.2008C15.3492 17.5524 14.8723 17.75 14.375 17.75H3.75003C3.41766 17.7481 3.08899 17.68 2.78327 17.5496C2.47754 17.4191 2.20089 17.2291 1.96949 16.9905C1.7381 16.7519 1.5566 16.4695 1.43562 16.16C1.31465 15.8504 1.25662 15.5198 1.26493 15.1875C1.27324 14.8552 1.34772 14.5279 1.48403 14.2248C1.62033 13.9217 1.81571 13.6487 2.05875 13.422C2.30179 13.1953 2.58759 13.0193 2.89946 12.9043C3.21132 12.7894 3.54298 12.7377 3.87503 12.7525C4.01905 12.7599 4.16122 12.7173 4.2774 12.6318C4.39359 12.5464 4.47666 12.4234 4.51253 12.2837C4.75499 11.3441 5.30278 10.5117 6.06981 9.91731C6.83685 9.32291 7.77964 9.00023 8.75003 8.99997ZM14.3413 12.75C14.2006 11.4826 13.6336 10.3007 12.7331 9.39793C11.8326 8.49515 10.6521 7.92512 9.38514 7.78128C8.11817 7.63743 6.83992 7.92832 5.75997 8.60626C4.68001 9.28419 3.86244 10.3089 3.44128 11.5125C2.4762 11.5915 1.57909 12.0407 0.937732 12.7661C0.296373 13.4916 -0.0395149 14.437 0.000379483 15.4045C0.0402739 16.372 0.452857 17.2865 1.15177 17.9567C1.85067 18.6269 2.78173 19.0007 3.75003 19H14.375C15.2038 19 15.9987 18.6707 16.5847 18.0847C17.1708 17.4986 17.5 16.7038 17.5 15.875C17.5 15.0462 17.1708 14.2513 16.5847 13.6653C15.9987 13.0792 15.2038 12.75 14.375 12.75H14.3413Z" fill="black"/>
<path d="M13.1251 0.875C13.1251 0.70924 13.0592 0.550269 12.942 0.433058C12.8248 0.315848 12.6658 0.25 12.5001 0.25C12.3343 0.25 12.1753 0.315848 12.0581 0.433058C11.9409 0.550269 11.8751 0.70924 11.8751 0.875V2.125C11.8751 2.29076 11.9409 2.44973 12.0581 2.56694C12.1753 2.68415 12.3343 2.75 12.5001 2.75C12.6658 2.75 12.8248 2.68415 12.942 2.56694C13.0592 2.44973 13.1251 2.29076 13.1251 2.125V0.875ZM17.8038 3.33C17.8635 3.27235 17.9111 3.20338 17.9439 3.12713C17.9766 3.05088 17.9939 2.96886 17.9946 2.88588C17.9953 2.80289 17.9795 2.72059 17.9481 2.64378C17.9167 2.56697 17.8703 2.49719 17.8116 2.4385C17.7529 2.37982 17.6831 2.33341 17.6063 2.30199C17.5295 2.27056 17.4472 2.25475 17.3642 2.25547C17.2812 2.25619 17.1992 2.27343 17.1229 2.30619C17.0467 2.33894 16.9777 2.38656 16.9201 2.44625L16.0351 3.33C15.9177 3.44736 15.8518 3.60653 15.8518 3.7725C15.8518 3.93847 15.9177 4.09764 16.0351 4.215C16.1524 4.33236 16.3116 4.39829 16.4776 4.39829C16.6435 4.39829 16.8027 4.33236 16.9201 4.215L17.8038 3.33ZM8.08007 2.44625C7.96219 2.3324 7.80432 2.26941 7.64044 2.27083C7.47657 2.27225 7.31981 2.33798 7.20393 2.45386C7.08805 2.56974 7.02232 2.7265 7.0209 2.89037C7.01947 3.05425 7.08247 3.21212 7.19632 3.33L8.08007 4.215C8.13818 4.27311 8.20717 4.31921 8.28309 4.35066C8.35901 4.3821 8.44039 4.39829 8.52257 4.39829C8.60475 4.39829 8.68612 4.3821 8.76205 4.35066C8.83797 4.31921 8.90696 4.27311 8.96507 4.215C9.02318 4.15689 9.06927 4.0879 9.10072 4.01198C9.13217 3.93606 9.14836 3.85468 9.14836 3.7725C9.14836 3.69032 9.13217 3.60895 9.10072 3.53302C9.06927 3.4571 9.02318 3.38811 8.96507 3.33L8.08007 2.44625ZM10.2476 6.66375C10.4029 6.3418 10.6255 6.05691 10.9003 5.8283C11.1752 5.59969 11.4958 5.43267 11.8407 5.33852C12.1855 5.24437 12.5466 5.22526 12.8994 5.2825C13.2523 5.33974 13.5888 5.47198 13.8862 5.67032C14.1836 5.86865 14.435 6.12846 14.6235 6.43221C14.8119 6.73597 14.9331 7.07662 14.9787 7.43117C15.0243 7.78572 14.9934 8.14593 14.8879 8.48751C14.7825 8.82909 14.6051 9.14408 14.3676 9.41125C14.6163 9.7625 14.8326 10.1388 15.0126 10.5338C15.4362 10.151 15.7668 9.67658 15.9793 9.14665C16.1917 8.61673 16.2803 8.04529 16.2384 7.47591C16.1965 6.90653 16.0251 6.35424 15.7373 5.86115C15.4496 5.36805 15.053 4.94718 14.5779 4.6306C14.1028 4.31402 13.5617 4.11011 12.9958 4.0344C12.4299 3.95869 11.8542 4.01319 11.3126 4.19374C10.771 4.3743 10.2777 4.67613 9.87048 5.07624C9.46322 5.47635 9.15269 5.96417 8.96257 6.5025C9.40257 6.51625 9.83257 6.57125 10.2476 6.66375ZM15.8526 11.7563C16.6026 12.025 17.2588 12.4938 17.7551 13.0963C17.8231 13.0411 17.8788 12.9723 17.9186 12.8943C17.9584 12.8163 17.9813 12.7308 17.9859 12.6434C17.9905 12.5559 17.9766 12.4685 17.9453 12.3867C17.9139 12.3049 17.8657 12.2307 17.8038 12.1688L16.9201 11.285C16.831 11.1954 16.7168 11.1349 16.5926 11.1114C16.4684 11.088 16.34 11.1028 16.2244 11.1539C16.1088 11.2049 16.0114 11.2898 15.945 11.3973C15.8786 11.5049 15.8464 11.63 15.8526 11.7563ZM18.1251 7.125C17.9593 7.125 17.8003 7.19085 17.6831 7.30806C17.5659 7.42527 17.5001 7.58424 17.5001 7.75C17.5001 7.91576 17.5659 8.07473 17.6831 8.19194C17.8003 8.30915 17.9593 8.375 18.1251 8.375H19.3751C19.5408 8.375 19.6998 8.30915 19.817 8.19194C19.9342 8.07473 20.0001 7.91576 20.0001 7.75C20.0001 7.58424 19.9342 7.42527 19.817 7.30806C19.6998 7.19085 19.5408 7.125 19.3751 7.125H18.1251Z" fill="black"/>
</svg>
