<svg width="22" height="22" viewBox="0 0 22 22" fill="none" xmlns="http://www.w3.org/2000/svg">
<path fill-rule="evenodd" clip-rule="evenodd" d="M15.5517 2H5.89655C5.12834 2 4.39159 2.30517 3.84838 2.84838C3.30517 3.39159 3 4.12834 3 4.89655V15.1954C3 15.9636 3.30517 16.7004 3.84838 17.2436C4.39159 17.7868 5.12834 18.092 5.89655 18.092H6.21839H12.8161H15.5517C16.3199 18.092 17.0567 17.7868 17.5999 17.2436C18.1431 16.7004 18.4483 15.9636 18.4483 15.1954V4.89655C18.4483 4.12834 18.1431 3.39159 17.5999 2.84838C17.0567 2.30517 16.3199 2 15.5517 2ZM15.5512 3.93104H5.89599C5.63992 3.93104 5.39433 4.03276 5.21326 4.21383C5.03219 4.3949 4.93047 4.64049 4.93047 4.89656V9.72415H16.5167V4.89656C16.5167 4.64049 16.415 4.3949 16.2339 4.21383C16.0528 4.03276 15.8072 3.93104 15.5512 3.93104ZM5.89599 16.1609H15.5512C15.8072 16.1609 16.0528 16.0592 16.2339 15.8781C16.415 15.6971 16.5167 15.4515 16.5167 15.1954V11.6552H4.93047V15.1954C4.93047 15.4515 5.03219 15.6971 5.21326 15.8781C5.39433 16.0592 5.63992 16.1609 5.89599 16.1609Z" fill="#1D86FF"/>
<path d="M9.59615 13.8678C9.59615 14.6899 8.92973 15.3563 8.10765 15.3563C7.28557 15.3563 6.61914 14.6899 6.61914 13.8678C6.61914 13.0457 7.28557 12.3793 8.10765 12.3793C8.92973 12.3793 9.59615 13.0457 9.59615 13.8678Z" fill="#1D86FF"/>
<path d="M14.9067 13.8678C14.9067 14.6899 14.2403 15.3563 13.4182 15.3563C12.5961 15.3563 11.9297 14.6899 11.9297 13.8678C11.9297 13.0457 12.5961 12.3793 13.4182 12.3793C14.2403 12.3793 14.9067 13.0457 14.9067 13.8678Z" fill="#1D86FF"/>
<path fill-rule="evenodd" clip-rule="evenodd" d="M5.75 19V17H8.25V19C8.25 19.6904 7.69036 20.25 7 20.25C6.30964 20.25 5.75 19.6904 5.75 19Z" fill="#1D86FF"/>
<path fill-rule="evenodd" clip-rule="evenodd" d="M12.75 19V17H15.25V19C15.25 19.6904 14.6904 20.25 14 20.25C13.3096 20.25 12.75 19.6904 12.75 19Z" fill="#1D86FF"/>
<path fill-rule="evenodd" clip-rule="evenodd" d="M17.5 7H4V5H17.5V7Z" fill="#1D86FF"/>
</svg>
