<svg width="17" height="17" viewBox="0 0 17 17" fill="none" xmlns="http://www.w3.org/2000/svg">
<path d="M14.2083 6.08335L14.75 5.54169L13.2083 4.02085V1.70835H12.4791V4.31252L14.2083 6.08335ZM3.41665 13C3.7222 13 3.97915 12.8959 4.18748 12.6875C4.39581 12.4792 4.49998 12.2222 4.49998 11.9167C4.49998 11.6111 4.39581 11.3542 4.18748 11.1459C3.97915 10.9375 3.7222 10.8334 3.41665 10.8334C3.11109 10.8334 2.85415 10.9375 2.64581 11.1459C2.43748 11.3542 2.33331 11.6111 2.33331 11.9167C2.33331 12.2222 2.43748 12.4792 2.64581 12.6875C2.85415 12.8959 3.11109 13 3.41665 13ZM9.24998 13C9.55554 13 9.81248 12.8959 10.0208 12.6875C10.2291 12.4792 10.3333 12.2222 10.3333 11.9167C10.3333 11.6111 10.2291 11.3542 10.0208 11.1459C9.81248 10.9375 9.55554 10.8334 9.24998 10.8334C8.94442 10.8334 8.68748 10.9375 8.47915 11.1459C8.27081 11.3542 8.16665 11.6111 8.16665 11.9167C8.16665 12.2222 8.27081 12.4792 8.47915 12.6875C8.68748 12.8959 8.94442 13 9.24998 13ZM1.77081 16.9167C1.59026 16.9167 1.44109 16.8578 1.32331 16.74C1.20498 16.6217 1.14581 16.4722 1.14581 16.2917V14.6459C0.881924 14.4514 0.638869 14.1736 0.416646 13.8125C0.194424 13.4514 0.083313 13.0417 0.083313 12.5834V4.83335C0.083313 4.44447 0.173591 4.05919 0.354146 3.67752C0.534702 3.2953 0.895813 2.96169 1.43748 2.67669C1.97915 2.39224 2.75331 2.18058 3.75998 2.04169C4.7672 1.9028 6.09026 1.86808 7.72915 1.93752C7.64581 2.13196 7.57304 2.33335 7.51081 2.54169C7.44804 2.75002 7.40276 2.95835 7.37498 3.16669C5.51387 3.11113 4.1422 3.18391 3.25998 3.38502C2.37831 3.58669 1.81248 3.86808 1.56248 4.22919H7.27081C7.27081 4.43752 7.2847 4.64585 7.31248 4.85419C7.34026 5.06252 7.38192 5.27085 7.43748 5.47919H1.33331V8.58335H9.62498C9.99998 8.93058 10.4514 9.20835 10.9791 9.41669C11.5069 9.62502 12.0416 9.72919 12.5833 9.72919V12.5834C12.5833 13.0417 12.4722 13.4514 12.25 13.8125C12.0278 14.1736 11.7847 14.4514 11.5208 14.6459V16.2917C11.5208 16.4722 11.4619 16.6217 11.3441 16.74C11.2258 16.8578 11.0764 16.9167 10.8958 16.9167H10.3958C10.2153 16.9167 10.0661 16.8578 9.94831 16.74C9.82998 16.6217 9.77081 16.4722 9.77081 16.2917V15.25H2.89581V16.2917C2.89581 16.4722 2.83665 16.6217 2.71831 16.74C2.60054 16.8578 2.45137 16.9167 2.27081 16.9167H1.77081ZM12.8333 7.91669C11.7916 7.91669 10.9064 7.55197 10.1775 6.82252C9.44804 6.09363 9.08331 5.20835 9.08331 4.16669C9.08331 3.12502 9.44804 2.23946 10.1775 1.51002C10.9064 0.781131 11.7916 0.416687 12.8333 0.416687C13.875 0.416687 14.7605 0.781131 15.49 1.51002C16.2189 2.23946 16.5833 3.12502 16.5833 4.16669C16.5833 5.20835 16.2189 6.09363 15.49 6.82252C14.7605 7.55197 13.875 7.91669 12.8333 7.91669ZM2.99998 14H9.66665C10.125 14 10.5175 13.837 10.8441 13.5109C11.1703 13.1842 11.3333 12.7917 11.3333 12.3334V9.83335H1.33331V12.3334C1.33331 12.7917 1.49665 13.1842 1.82331 13.5109C2.14942 13.837 2.54165 14 2.99998 14Z" fill="#1C1B1F"/>
</svg>
