<svg xmlns="http://www.w3.org/2000/svg" width="18" height="18" viewBox="0 0 18 18">
    <g fill="none" fill-rule="evenodd" transform="translate(1 1)">
        <path stroke="#004A8F" stroke-linecap="square" d="M14.873 10.384l-4.489 4.489a1.454 1.454 0 0 1-2.057 0l-7.2-7.2a1.454 1.454 0 0 1 0-2.057l4.489-4.489a1.454 1.454 0 0 1 2.057 0l7.199 7.2c.569.568.569 1.489 0 2.057z"/>
        <circle cx="10.572" cy="10.571" r="1" fill="#004A8F" fill-rule="nonzero" transform="rotate(-45 10.572 10.571)"/>
        <path stroke="#004A8F" stroke-linecap="round" d="M11.636 0A4.363 4.363 0 0 1 16 4.364M4.364 16A4.363 4.363 0 0 1 0 11.636"/>
    </g>
</svg>
