<svg xmlns="http://www.w3.org/2000/svg" width="24" height="24" viewBox="0 0 24 24">
    <g fill="none" fill-rule="evenodd">
        <path fill="#FFF" d="M5.057 12.122c-.215-.493-.428-.987-.641-1.48l-.35-.808c-.016-.036-.034-.07-.053-.104l-.008-.015v-.142l.025-.031c.059-.082.14-.124.22-.115.071.007.13.056.166.137.355.803.7 1.61 1.044 2.417a.212.212 0 0 1 .006.166.219.219 0 0 1-.121.116c-.119.05-.228-.004-.288-.141z"/>
        <path fill="#000" fill-rule="nonzero" d="M19.989 12.429v-.116l-.016-.026a.372.372 0 0 0-.052-.074c-.822-.755-1.213-1.738-1.195-3.006.007-.42.005-.839.004-1.258V7.55c0-.118-.003-.236-.011-.354-.033-.456-.207-.673-.619-.774a8.588 8.588 0 0 0-1.01-.162l-.207-.025c-.513-.065-1.026-.123-1.54-.18L14.873 6a.31.31 0 0 1-.275-.201c-.24-.57-.457-1.083-.688-1.588-.021-.047-.075-.094-.132-.143a2.49 2.49 0 0 1-.056-.05l-.134.015a1.28 1.28 0 0 1-.133.07L5.002 7.737c-.232.1-.262.177-.16.414l1.99 4.608c.112.259.176.285.431.176l4.3-1.842.012.227c.002.04.004.075.004.109v1.761c.001 2.153.001 4.305-.003 6.458 0 .168.045.256.163.316h5.258l.047-.033c.064-.044.136-.123.099-.243-.031-.1-.095-.147-.206-.154-.037-.002-.073-.001-.105-.002h-4.531c-.04 0-.08-.003-.122-.007l-.174-.013v-1.875c0-2.175 0-4.351-.003-6.526 0-.19.107-.262.212-.307.949-.405 1.897-.812 2.844-1.22l.702-.301c.119-.051.187-.102.21-.158.021-.054.007-.137-.044-.254l-.89-2.058a4.452 4.452 0 0 1-.045-.115l-.079-.2.15-.025c.037-.008.06-.013.087-.008l.704.077c.63.07 1.26.139 1.89.215.462.057.556.164.558.64 0 .303 0 .607.002.91 0 .387 0 .774.002 1.16.01 1.181.428 2.183 1.242 2.976.101.1.189.146.252.139.059-.007.122-.058.19-.154zm-4.504-3.494L7.188 12.5 5.281 8.085l8.297-3.567 1.907 4.417z"/>
        <path fill="#000" d="M5.466 12.147a.212.212 0 0 0-.006-.166c-.344-.807-.69-1.614-1.044-2.417-.035-.081-.095-.13-.166-.137-.08-.01-.16.033-.22.115l-.025.031v.142l.008.015c.019.034.037.069.053.104l.35.807c.213.494.426.988.64 1.48.061.138.17.192.289.142a.22.22 0 0 0 .121-.116z"/>
    </g>
</svg>
