<svg width="30" height="30" viewBox="0 0 30 30" fill="none" xmlns="http://www.w3.org/2000/svg">
<g clip-path="url(#clip0_375_265)">
<path d="M21.2333 4.9L5.98887 16.3333H1.08887L5.98887 20.1444L15.2444 14.7V23.9556L17.4222 22.8667L19.6 11.9778L26.1333 8.71111L28.3111 6.53333L21.2333 4.9Z" fill="#1D86FF" fill-opacity="0.4"/>
<path d="M29.2126 6.66399C29.1501 6.26654 28.9682 5.8975 28.691 5.6058C28.4139 5.31409 28.0547 5.11352 27.661 5.03066L22.8671 3.97716C22.3531 3.86504 21.8209 3.86462 21.3066 3.97592C20.7924 4.08723 20.308 4.30766 19.8863 4.62232L5.71714 14.945L1.74814 14.7817C1.42908 14.7702 1.11454 14.8596 0.849179 15.0372C0.583822 15.2147 0.381145 15.4713 0.269936 15.7706C0.158727 16.0698 0.144641 16.3965 0.229678 16.7043C0.314714 17.012 0.494551 17.2851 0.743643 17.4848L4.82698 20.6943C5.31698 21.2905 5.64364 21.1762 13.7531 16.758L14.5126 24.451C14.5253 24.6609 14.5972 24.8628 14.7201 25.0334C14.843 25.204 15.0118 25.3362 15.2068 25.4147C15.3472 25.4701 15.4969 25.4979 15.6478 25.4963C15.9515 25.487 16.2416 25.3681 16.4645 25.1615L18.4163 23.3812C18.6107 23.2011 18.7423 22.9636 18.792 22.7033L20.5805 12.985C23.496 11.3517 26.2563 9.81632 28.2245 8.69749C28.5766 8.49942 28.8599 8.1986 29.0365 7.83522C29.213 7.47185 29.2745 7.06323 29.2126 6.66399ZM27.416 7.27649C25.3743 8.43616 22.516 10.0613 19.4453 11.7437L19.1105 11.9315L17.2076 22.2787L16.0071 23.373L15.1088 14.1447L14.0226 14.7C8.16714 17.9667 6.21531 18.914 5.54564 19.208L2.03398 16.4232L6.18264 16.6028L20.8826 5.93716C21.1137 5.76441 21.3786 5.64239 21.6601 5.57906C21.9415 5.51573 22.2332 5.51253 22.516 5.56966L27.2935 6.59866C27.3671 6.612 27.4345 6.64851 27.4859 6.70287C27.5374 6.75722 27.5701 6.82658 27.5793 6.90082C27.5961 6.97268 27.5893 7.04804 27.5599 7.11572C27.5305 7.18339 27.48 7.23977 27.416 7.27649Z" fill="#1D86FF"/>
<path d="M5.71759 10.241L8.62493 11.0577L9.96426 10.0858L6.69759 9.1385L8.16759 8.24017L12.6348 8.1095L14.5131 6.74567L8.16759 6.94167C7.96754 6.93085 7.76873 6.97913 7.59593 7.0805L5.44809 8.33C5.27053 8.4352 5.12807 8.5906 5.03868 8.77663C4.94929 8.96265 4.91697 9.17098 4.94579 9.37534C4.97461 9.57971 5.06328 9.77097 5.20063 9.92502C5.33798 10.0791 5.51786 10.189 5.71759 10.241V10.241Z" fill="#1D86FF"/>
</g>
<defs>
<clipPath id="clip0_375_265">
<rect width="29.4" height="29.4" fill="white"/>
</clipPath>
</defs>
</svg>
