<svg width="15" height="16" viewBox="0 0 15 16" fill="none" xmlns="http://www.w3.org/2000/svg">
<path opacity="0.2" d="M12.664 15.7948H1.583C1.16316 15.7948 0.76052 15.6306 0.46365 15.3385C0.16678 15.0464 0 14.6502 0 14.237V3.33297C0 2.91984 0.16678 2.52363 0.46365 2.2315C0.76052 1.93937 1.16316 1.77525 1.583 1.77525H3.166V0.217529H4.749V1.77525H9.498V0.217529H11.081V1.77525H12.664C13.0838 1.77525 13.4865 1.93937 13.7833 2.2315C14.0802 2.52363 14.247 2.91984 14.247 3.33297V14.237C14.247 14.6502 14.0802 15.0464 13.7833 15.3385C13.4865 15.6306 13.0838 15.7948 12.664 15.7948ZM1.583 6.44842V14.237H12.664V6.44842H1.583ZM1.583 3.33297V4.8907H12.664V3.33297H1.583ZM11.081 12.6793H9.498V11.1216H11.081V12.6793ZM7.915 12.6793H6.332V11.1216H7.915V12.6793ZM4.749 12.6793H3.166V11.1216H4.749V12.6793ZM11.081 9.56386H9.498V8.00614H11.081V9.56386ZM7.915 9.56386H6.332V8.00614H7.915V9.56386ZM4.749 9.56386H3.166V8.00614H4.749V9.56386Z" fill="black"/>
</svg>
