<svg width="22" height="34" viewBox="0 0 22 34" fill="none" xmlns="http://www.w3.org/2000/svg">
<path d="M0.84375 31V24.5752H1.89844V31H0.84375ZM8.95605 31H7.65967L4.51318 25.8716H4.47363C4.48535 26.0444 4.49561 26.2275 4.50439 26.4209C4.51611 26.6143 4.5249 26.8135 4.53076 27.0186C4.53955 27.2236 4.54688 27.4316 4.55273 27.6426V31H3.59473V24.5752H4.88232L8.02441 29.6685H8.05518C8.04932 29.519 8.04199 29.3477 8.0332 29.1543C8.02441 28.9609 8.01562 28.7617 8.00684 28.5566C8.00098 28.3486 7.99658 28.1479 7.99365 27.9546V24.5752H8.95605V31ZM11.6895 31H10.6436V24.5752H14.2734V25.4629H11.6895V27.4668H14.1064V28.3501H11.6895V31ZM21.1465 27.7788C21.1465 28.2739 21.0835 28.7251 20.9575 29.1323C20.8345 29.5366 20.6484 29.8853 20.3994 30.1782C20.1504 30.4683 19.8384 30.6924 19.4634 30.8506C19.0884 31.0088 18.6489 31.0879 18.145 31.0879C17.6323 31.0879 17.187 31.0088 16.8091 30.8506C16.4341 30.6924 16.1221 30.4668 15.873 30.1738C15.627 29.8809 15.4424 29.5308 15.3193 29.1235C15.1963 28.7163 15.1348 28.2651 15.1348 27.77C15.1348 27.1079 15.2432 26.5308 15.46 26.0386C15.6797 25.5435 16.0122 25.1597 16.4575 24.8872C16.9058 24.6118 17.4712 24.4741 18.1538 24.4741C18.8218 24.4741 19.377 24.6104 19.8193 24.8828C20.2617 25.1553 20.5928 25.5391 20.8125 26.0342C21.0352 26.5264 21.1465 27.1079 21.1465 27.7788ZM16.2422 27.7788C16.2422 28.2739 16.3096 28.7031 16.4443 29.0664C16.5791 29.4268 16.7856 29.7051 17.064 29.9014C17.3452 30.0947 17.7056 30.1914 18.145 30.1914C18.5874 30.1914 18.9478 30.0947 19.2261 29.9014C19.5044 29.7051 19.7095 29.4268 19.8413 29.0664C19.9731 28.7031 20.0391 28.2739 20.0391 27.7788C20.0391 27.0259 19.8882 26.437 19.5864 26.0122C19.2876 25.5845 18.8101 25.3706 18.1538 25.3706C17.7144 25.3706 17.3525 25.4673 17.0684 25.6606C16.7871 25.854 16.5791 26.1309 16.4443 26.4912C16.3096 26.8486 16.2422 27.2778 16.2422 27.7788Z" fill="#1D86FF"/>
<mask id="mask0_3_3547" style="mask-type:alpha" maskUnits="userSpaceOnUse" x="0" y="1" width="20" height="20">
<rect y="1" width="20" height="20" fill="#D9D9D9"/>
</mask>
<g mask="url(#mask0_3_3547)">
<path d="M7.08333 5.99959C6.625 5.99959 6.23278 5.83626 5.90667 5.50959C5.58 5.18348 5.41667 4.79126 5.41667 4.33293C5.41667 3.87459 5.58 3.48209 5.90667 3.15543C6.23278 2.82932 6.625 2.66626 7.08333 2.66626C7.54167 2.66626 7.93417 2.82932 8.26083 3.15543C8.58694 3.48209 8.75 3.87459 8.75 4.33293C8.75 4.79126 8.58694 5.18348 8.26083 5.50959C7.93417 5.83626 7.54167 5.99959 7.08333 5.99959ZM11.6667 17.6663H6.29167C5.83333 17.6663 5.41333 17.5032 5.03167 17.1771C4.64944 16.8504 4.40972 16.4579 4.3125 15.9996L2.5 6.83293H4.20833L6.04167 15.9996H11.6667V17.6663ZM16.25 19.3329L13.8333 15.1663H8.04167C7.63889 15.1663 7.28833 15.0446 6.99 14.8013C6.69111 14.5585 6.5 14.2357 6.41667 13.8329L5.5 9.37459C5.34722 8.70793 5.50333 8.11765 5.96833 7.60376C6.43389 7.08987 7 6.83293 7.66667 6.83293C8.15278 6.83293 8.59389 6.97876 8.99 7.27043C9.38555 7.56209 9.63889 7.95793 9.75 8.45793L10.6667 12.6663H13.375C13.6667 12.6663 13.9375 12.7426 14.1875 12.8954C14.4375 13.0482 14.6389 13.2496 14.7917 13.4996L17.7083 18.4996L16.25 19.3329Z" fill="#1D86FF"/>
</g>
<mask id="mask1_3_3547" style="mask-type:alpha" maskUnits="userSpaceOnUse" x="10" y="0" width="9" height="9">
<rect x="10" width="9" height="9" fill="#D9D9D9"/>
</mask>
<g mask="url(#mask1_3_3547)">
<path d="M14.1248 6.375H14.8748V4.125H14.1248V6.375ZM14.4998 3.375C14.606 3.375 14.6951 3.339 14.7671 3.267C14.8389 3.19525 14.8748 3.10625 14.8748 3C14.8748 2.89375 14.8389 2.80463 14.7671 2.73263C14.6951 2.66088 14.606 2.625 14.4998 2.625C14.3935 2.625 14.3045 2.66088 14.2328 2.73263C14.1608 2.80463 14.1248 2.89375 14.1248 3C14.1248 3.10625 14.1608 3.19525 14.2328 3.267C14.3045 3.339 14.3935 3.375 14.4998 3.375ZM14.4998 8.25C13.981 8.25 13.4935 8.1515 13.0373 7.9545C12.581 7.75775 12.1841 7.49063 11.8466 7.15313C11.5091 6.81563 11.242 6.41875 11.0453 5.9625C10.8483 5.50625 10.7498 5.01875 10.7498 4.5C10.7498 3.98125 10.8483 3.49375 11.0453 3.0375C11.242 2.58125 11.5091 2.18438 11.8466 1.84688C12.1841 1.50938 12.581 1.24213 13.0373 1.04513C13.4935 0.848375 13.981 0.75 14.4998 0.75C15.0185 0.75 15.506 0.848375 15.9623 1.04513C16.4185 1.24213 16.8154 1.50938 17.1529 1.84688C17.4904 2.18438 17.7575 2.58125 17.9543 3.0375C18.1513 3.49375 18.2498 3.98125 18.2498 4.5C18.2498 5.01875 18.1513 5.50625 17.9543 5.9625C17.7575 6.41875 17.4904 6.81563 17.1529 7.15313C16.8154 7.49063 16.4185 7.75775 15.9623 7.9545C15.506 8.1515 15.0185 8.25 14.4998 8.25ZM14.4998 7.5C15.3373 7.5 16.0466 7.20938 16.6279 6.62813C17.2091 6.04688 17.4998 5.3375 17.4998 4.5C17.4998 3.6625 17.2091 2.95312 16.6279 2.37188C16.0466 1.79062 15.3373 1.5 14.4998 1.5C13.6623 1.5 12.9529 1.79062 12.3716 2.37188C11.7904 2.95312 11.4998 3.6625 11.4998 4.5C11.4998 5.3375 11.7904 6.04688 12.3716 6.62813C12.9529 7.20938 13.6623 7.5 14.4998 7.5Z" fill="#1D86FF"/>
</g>
</svg>
