<svg width="12" height="12" viewBox="0 0 12 12" fill="none" xmlns="http://www.w3.org/2000/svg">
<path d="M5.41553 8.91675H6.58219V5.41675H5.41553V8.91675ZM5.99886 4.25008C6.16414 4.25008 6.30278 4.19408 6.41478 4.08208C6.52639 3.97047 6.58219 3.83203 6.58219 3.66675C6.58219 3.50147 6.52639 3.36283 6.41478 3.25083C6.30278 3.13922 6.16414 3.08341 5.99886 3.08341C5.83358 3.08341 5.69514 3.13922 5.58353 3.25083C5.47153 3.36283 5.41553 3.50147 5.41553 3.66675C5.41553 3.83203 5.47153 3.97047 5.58353 4.08208C5.69514 4.19408 5.83358 4.25008 5.99886 4.25008ZM5.99886 11.8334C5.19192 11.8334 4.43358 11.6802 3.72386 11.3737C3.01414 11.0677 2.39678 10.6522 1.87178 10.1272C1.34678 9.60217 0.93125 8.9848 0.625194 8.27508C0.31875 7.56536 0.165527 6.80703 0.165527 6.00008C0.165527 5.19314 0.31875 4.4348 0.625194 3.72508C0.93125 3.01536 1.34678 2.398 1.87178 1.873C2.39678 1.348 3.01414 0.932276 3.72386 0.625831C4.43358 0.319776 5.19192 0.166748 5.99886 0.166748C6.8058 0.166748 7.56414 0.319776 8.27386 0.625831C8.98358 0.932276 9.60094 1.348 10.1259 1.873C10.6509 2.398 11.0665 3.01536 11.3725 3.72508C11.679 4.4348 11.8322 5.19314 11.8322 6.00008C11.8322 6.80703 11.679 7.56536 11.3725 8.27508C11.0665 8.9848 10.6509 9.60217 10.1259 10.1272C9.60094 10.6522 8.98358 11.0677 8.27386 11.3737C7.56414 11.6802 6.8058 11.8334 5.99886 11.8334Z" fill="black"/>
</svg>
