<svg width="39" height="30" viewBox="0 0 39 30" fill="none" xmlns="http://www.w3.org/2000/svg">
<path d="M4.82205 29.5H34.1782C35.7927 29.5 36.783 29.133 37.149 28.3991C37.5169 27.6652 37.7009 26.8579 37.7009 25.9772V14.2348C37.7009 13.1095 37.3457 12.082 36.6353 11.1524C35.9268 10.2228 35.0588 9.63568 34.0314 9.39105V6.89578C34.0314 5.13441 33.3953 3.61768 32.1232 2.34558C30.8511 1.07349 29.3344 0.437439 27.573 0.437439H11.4272C9.6658 0.437439 8.14907 1.07349 6.87697 2.34558C5.60488 3.61768 4.96883 5.13441 4.96883 6.89578V9.39105C3.94137 9.63568 3.0734 10.2228 2.36494 11.1524C1.65453 12.082 1.29932 13.1095 1.29932 14.2348V25.9772C1.29932 27.5918 1.66627 28.5821 2.40017 28.9481C3.13407 29.316 3.94137 29.5 4.82205 29.5ZM4.82205 27.4451C4.38171 27.4451 4.02748 27.311 3.75936 27.0429C3.48928 26.7728 3.35424 26.4176 3.35424 25.9772V14.2348C3.35424 13.4031 3.63508 12.7054 4.19676 12.1417C4.7604 11.58 5.4581 11.2992 6.28985 11.2992C7.12161 11.2992 7.81931 11.58 8.38294 12.1417C8.94462 12.7054 9.22546 13.4031 9.22546 14.2348V20.106H29.7747V14.2348C29.7747 13.4031 30.0556 12.7054 30.6173 12.1417C31.1809 11.58 31.8786 11.2992 32.7103 11.2992C33.5421 11.2992 34.2388 11.58 34.8005 12.1417C35.3641 12.7054 35.646 13.4031 35.646 14.2348V25.9772C35.646 26.4176 35.5119 26.7728 35.2438 27.0429C34.9737 27.311 34.6185 27.4451 34.1782 27.4451H4.82205ZM11.2804 18.0511V14.2348C11.2804 12.9138 10.8528 11.8002 9.99753 10.8941C9.14033 9.98992 8.14907 9.4889 7.02376 9.39105V6.89578C7.02376 5.62368 7.43963 4.57176 8.27139 3.74C9.10315 2.90824 10.1551 2.49237 11.4272 2.49237H27.573C28.8451 2.49237 29.8971 2.90824 30.7288 3.74C31.5606 4.57176 31.9764 5.62368 31.9764 6.89578V9.39105C30.8511 9.4889 29.8608 9.98992 29.0056 10.8941C28.1484 11.8002 27.7198 12.9138 27.7198 14.2348V18.0511H11.2804Z" fill="#EF31A3" stroke="white" stroke-width="0.8"/>
</svg>
