<svg width="38" height="30" viewBox="0 0 38 30" fill="none" xmlns="http://www.w3.org/2000/svg">
<path d="M4.28006 29.5762H33.6362C35.2507 29.5762 36.241 29.2093 36.607 28.4754C36.9749 27.7415 37.1589 26.9342 37.1589 26.0535V14.311C37.1589 13.1857 36.8037 12.1583 36.0933 11.2286C35.3848 10.299 34.5168 9.71192 33.4894 9.46728V6.97201C33.4894 5.21065 32.8533 3.69391 31.5812 2.42182C30.3091 1.14972 28.7924 0.513672 27.031 0.513672H10.8852C9.12381 0.513672 7.60708 1.14972 6.33498 2.42182C5.06288 3.69391 4.42684 5.21065 4.42684 6.97201V9.46728C3.39937 9.71192 2.53141 10.299 1.82295 11.2286C1.11253 12.1583 0.757324 13.1857 0.757324 14.311V26.0535C0.757324 27.6681 1.12428 28.6583 1.85818 29.0243C2.59208 29.3922 3.39937 29.5762 4.28006 29.5762ZM4.28006 27.5213C3.83971 27.5213 3.48548 27.3872 3.21737 27.1191C2.94729 26.849 2.81225 26.4938 2.81225 26.0535V14.311C2.81225 13.4793 3.09309 12.7816 3.65477 12.2179C4.21841 11.6563 4.9161 11.3754 5.74786 11.3754C6.57962 11.3754 7.27731 11.6563 7.84095 12.2179C8.40263 12.7816 8.68347 13.4793 8.68347 14.311V20.1823H29.2327V14.311C29.2327 13.4793 29.5136 12.7816 30.0753 12.2179C30.6389 11.6563 31.3366 11.3754 32.1684 11.3754C33.0001 11.3754 33.6968 11.6563 34.2585 12.2179C34.8221 12.7816 35.104 13.4793 35.104 14.311V26.0535C35.104 26.4938 34.9699 26.849 34.7018 27.1191C34.4317 27.3872 34.0765 27.5213 33.6362 27.5213H4.28006ZM10.7384 18.1273V14.311C10.7384 12.99 10.3108 11.8764 9.45553 10.9703C8.59834 10.0661 7.60708 9.56514 6.48176 9.46728V6.97201C6.48176 5.69992 6.89764 4.64799 7.7294 3.81623C8.56115 2.98448 9.61308 2.5686 10.8852 2.5686H27.031C28.3031 2.5686 29.3551 2.98448 30.1868 3.81623C31.0186 4.64799 31.4345 5.69992 31.4345 6.97201V9.46728C30.3091 9.56514 29.3189 10.0661 28.4636 10.9703C27.6064 11.8764 27.1778 12.99 27.1778 14.311V18.1273H10.7384Z" fill="#EF31A3" stroke="white" stroke-width="0.8"/>
</svg>
