<svg width="13" height="15" viewBox="0 0 13 15" fill="none" xmlns="http://www.w3.org/2000/svg">
<path d="M5.4924 1.59731C6.34655 1.5397 7.20313 1.66556 8.0046 1.96643C8.80607 2.26731 9.53386 2.73624 10.1391 3.3417C10.7443 3.94716 11.2129 4.67515 11.5135 5.47674C11.814 6.27833 11.9396 7.13496 11.8816 7.98908C11.8755 8.04648 11.881 8.10454 11.8978 8.15975C11.9147 8.21497 11.9425 8.26621 11.9797 8.3104C12.0168 8.3546 12.0625 8.39082 12.114 8.41691C12.1655 8.443 12.2218 8.45842 12.2794 8.46223C12.337 8.46604 12.3948 8.45818 12.4493 8.43911C12.5038 8.42003 12.5538 8.39014 12.5965 8.35124C12.6391 8.31233 12.6735 8.2652 12.6975 8.21269C12.7215 8.16017 12.7346 8.10336 12.7361 8.04564C12.8021 7.06976 12.6585 6.09104 12.3151 5.17522C11.9716 4.25939 11.4362 3.42766 10.7447 2.73586C10.0532 2.04407 9.22173 1.50823 8.30607 1.16433C7.3904 0.820424 6.41176 0.67642 5.43584 0.741984C5.37968 0.745698 5.3248 0.760437 5.27433 0.78536C5.22387 0.810284 5.17881 0.844903 5.14172 0.887241C5.10464 0.929579 5.07625 0.978808 5.05819 1.03212C5.04013 1.08542 5.03275 1.14177 5.03646 1.19793C5.04018 1.25409 5.05491 1.30897 5.07984 1.35943C5.10476 1.4099 5.13938 1.45496 5.18172 1.49204C5.22406 1.52913 5.27328 1.55751 5.32659 1.57557C5.3799 1.59364 5.43624 1.60102 5.4924 1.59731ZM5.03818 3.28738C5.04049 3.23101 5.05391 3.17566 5.07766 3.12449C5.10142 3.07333 5.13504 3.02735 5.17661 2.98921C5.21817 2.95107 5.26686 2.92151 5.31988 2.90223C5.37289 2.88295 5.42919 2.87433 5.48555 2.87686C6.82439 2.93521 8.09273 3.49329 9.04025 4.44097C9.98777 5.38865 10.5456 6.65708 10.6038 7.99593C10.6069 8.05256 10.5988 8.10925 10.5798 8.16271C10.5609 8.21617 10.5315 8.26534 10.4934 8.30736C10.4553 8.34939 10.4093 8.38343 10.358 8.40753C10.3066 8.43162 10.251 8.44529 10.1943 8.44773C10.1377 8.45016 10.0811 8.44133 10.0279 8.42174C9.97464 8.40214 9.92583 8.37218 9.88428 8.33358C9.84272 8.29498 9.80924 8.24852 9.78578 8.19689C9.76231 8.14525 9.74933 8.08948 9.74759 8.03279C9.69851 6.90856 9.22996 5.84353 8.43433 5.04775C7.63871 4.25196 6.57377 3.7832 5.44955 3.7339C5.39319 3.73169 5.33782 3.71838 5.28661 3.69473C5.2354 3.67107 5.18937 3.63754 5.15115 3.59606C5.11293 3.55457 5.08327 3.50595 5.06389 3.45298C5.0445 3.40001 5.03576 3.34373 5.03818 3.28738ZM3.35753 13.0687L4.30884 14.0132C4.38909 14.0927 4.49752 14.1374 4.61051 14.1374C4.72351 14.1374 4.83194 14.0927 4.91219 14.0132L5.88493 13.0473C6.37002 12.5654 6.85453 12.0829 7.33846 11.5998C7.87804 11.0602 8.24549 10.3727 8.39434 9.62421C8.5432 8.87577 8.46677 8.09999 8.17474 7.39498C7.8827 6.68997 7.38816 6.08739 6.75366 5.66344C6.11916 5.23949 5.37319 5.0132 4.61009 5.0132C3.84698 5.0132 3.10102 5.23949 2.46651 5.66344C1.83201 6.08739 1.33748 6.68997 1.04544 7.39498C0.753398 8.09999 0.676974 8.87577 0.82583 9.62421C0.974685 10.3727 1.34213 11.0602 1.88171 11.5998C2.23138 11.9494 2.83816 12.5536 3.35753 13.0687ZM4.60966 9.83256C4.35395 9.83256 4.10871 9.73098 3.92789 9.55017C3.74707 9.36935 3.64549 9.12411 3.64549 8.8684C3.64549 8.61268 3.74707 8.36745 3.92789 8.18663C4.10871 8.00581 4.35395 7.90423 4.60966 7.90423C4.86537 7.90423 5.11061 8.00581 5.29143 8.18663C5.47224 8.36745 5.57382 8.61268 5.57382 8.8684C5.57382 9.12411 5.47224 9.36935 5.29143 9.55017C5.11061 9.73098 4.86537 9.83256 4.60966 9.83256Z" fill="#555454"/>
</svg>
