<svg width="38" height="30" viewBox="0 0 38 30" fill="none" xmlns="http://www.w3.org/2000/svg">
<path d="M4.61648 29.5762H33.9726C35.5872 29.5762 36.5774 29.2093 36.9434 28.4754C37.3113 27.7415 37.4953 26.9342 37.4953 26.0535V14.311C37.4953 13.1857 37.1401 12.1583 36.4297 11.2286C35.7212 10.299 34.8533 9.71192 33.8258 9.46728V6.97201C33.8258 5.21065 33.1898 3.69391 31.9177 2.42182C30.6456 1.14972 29.1288 0.513672 27.3675 0.513672H11.2216C9.46024 0.513672 7.94351 1.14972 6.67141 2.42182C5.39931 3.69391 4.76326 5.21065 4.76326 6.97201V9.46728C3.7358 9.71192 2.86784 10.299 2.15938 11.2286C1.44896 12.1583 1.09375 13.1857 1.09375 14.311V26.0535C1.09375 27.6681 1.4607 28.6583 2.1946 29.0243C2.92851 29.3922 3.7358 29.5762 4.61648 29.5762ZM4.61648 27.5213C4.17614 27.5213 3.82191 27.3872 3.55379 27.1191C3.28371 26.849 3.14868 26.4938 3.14868 26.0535V14.311C3.14868 13.4793 3.42952 12.7816 3.9912 12.2179C4.55483 11.6563 5.25253 11.3754 6.08429 11.3754C6.91604 11.3754 7.61374 11.6563 8.17738 12.2179C8.73906 12.7816 9.0199 13.4793 9.0199 14.311V20.1823H29.5692V14.311C29.5692 13.4793 29.85 12.7816 30.4117 12.2179C30.9753 11.6563 31.673 11.3754 32.5048 11.3754C33.3365 11.3754 34.0333 11.6563 34.5949 12.2179C35.1586 12.7816 35.4404 13.4793 35.4404 14.311V26.0535C35.4404 26.4938 35.3063 26.849 35.0382 27.1191C34.7681 27.3872 34.4129 27.5213 33.9726 27.5213H4.61648ZM11.0748 18.1273V14.311C11.0748 12.99 10.6472 11.8764 9.79196 10.9703C8.93476 10.0661 7.94351 9.56514 6.81819 9.46728V6.97201C6.81819 5.69992 7.23407 4.64799 8.06582 3.81623C8.89758 2.98448 9.94951 2.5686 11.2216 2.5686H27.3675C28.6396 2.5686 29.6915 2.98448 30.5232 3.81623C31.355 4.64799 31.7709 5.69992 31.7709 6.97201V9.46728C30.6456 9.56514 29.6553 10.0661 28.8 10.9703C27.9428 11.8764 27.5142 12.99 27.5142 14.311V18.1273H11.0748Z" fill="#5356B3" stroke="white" stroke-width="0.8"/>
</svg>
