<svg xmlns="http://www.w3.org/2000/svg" width="24" height="24" viewBox="0 0 24 24">
    <g fill="#000" fill-rule="nonzero">
        <path d="M13.728 12.5a.206.206 0 0 0-.093-.174l-3.054-1.997a.2.2 0 0 0-.206-.007.21.21 0 0 0-.103.182v3.992c0 .076.04.145.103.182a.207.207 0 0 0 .206-.007l3.054-1.997a.208.208 0 0 0 .093-.175zm-3.053 1.619v-3.237l2.476 1.617-2.476 1.62z"/>
        <path d="M19.773 6.02H4.229a.205.205 0 0 0-.202.208v12.544c0 .115.09.208.202.208h15.544c.11 0 .2-.093.2-.208V6.228a.204.204 0 0 0-.2-.208zM6.803 18.565H4.43v-2.722h2.372v2.722zm0-3.137H4.43v-2.722h2.372v2.722zm0-3.134H4.43V9.57h2.372v2.724zm0-3.137H4.43V6.435h2.372v2.722zm9.992 9.408H7.207V6.435h9.588v12.13zm2.776 0h-2.374v-2.722h2.374v2.722zm0-3.137h-2.374v-2.722h2.374v2.722zm0-3.134h-2.374V9.57h2.374v2.724zm0-3.137h-2.374V6.435h2.374v2.722z"/>
    </g>
</svg>
