<svg xmlns="http://www.w3.org/2000/svg" width="24" height="24" viewBox="0 0 24 24">
    <path fill="#000" fill-rule="nonzero" d="M19.955 15.035V4.31a.307.307 0 0 0-.13-.25.33.33 0 0 0-.287-.045l-9.622 2.96a.311.311 0 0 0-.222.3v9.407l-.246-.164a3.144 3.144 0 0 0-1.736-.496 3.117 3.117 0 0 0-1.822.555c-.516.376-.803.885-.803 1.432 0 .547.284 1.056.803 1.433.53.369 1.168.563 1.82.554a3.116 3.116 0 0 0 1.821-.554c.516-.377.804-.885.804-1.433v-7.378l8.983-2.768v5.844l-.246-.164a3.282 3.282 0 0 0-3.558.058c-.517.377-.803.885-.803 1.433 0 .547.285 1.056.803 1.433a3.269 3.269 0 0 0 3.641 0c.516-.376.8-.89.8-1.432zM7.712 19.376c-1.072 0-1.983-.626-1.983-1.367s.908-1.367 1.983-1.367c1.075 0 1.982.626 1.982 1.367s-.887 1.367-1.982 1.367zm2.621-9.397V7.496l8.983-2.763v2.482l-8.983 2.764zm7.004 6.423c-1.072 0-1.983-.626-1.983-1.367s.908-1.368 1.983-1.368c1.075 0 1.983.627 1.983 1.368 0 .741-.913 1.367-1.983 1.367z"/>
</svg>
