<svg xmlns="http://www.w3.org/2000/svg" width="24" height="24" viewBox="0 0 24 24">
    <path fill="#010101" fill-rule="nonzero" d="M19.973 11.387A7.9 7.9 0 0 0 17.2 5.929a7.88 7.88 0 0 0-5.813-1.902A7.9 7.9 0 0 0 5.929 6.8a7.88 7.88 0 0 0-1.902 5.813A7.9 7.9 0 0 0 6.8 18.071a7.955 7.955 0 0 0 5.813 1.902 7.9 7.9 0 0 0 5.458-2.773c1.387-1.627 2.071-3.68 1.902-5.813zM4.551 12.569A7.418 7.418 0 0 1 6.33 7.138a7.43 7.43 0 0 1 5.093-2.587c.205-.009.4-.018.587-.018 1.689 0 3.315.57 4.64 1.627L6.942 17.493a7.46 7.46 0 0 1-2.39-4.924zm13.12 4.293a7.43 7.43 0 0 1-5.093 2.587A7.439 7.439 0 0 1 7.35 17.84l9.707-11.333a7.39 7.39 0 0 1 2.382 4.915 7.407 7.407 0 0 1-1.769 5.44z"/>
</svg>
