<?xml version="1.0" encoding="UTF-8"?>
<svg width="20px" height="20px" viewBox="0 0 20 20" version="1.1" xmlns="http://www.w3.org/2000/svg" xmlns:xlink="http://www.w3.org/1999/xlink">
    <!-- Generator: Sketch 61.2 (89653) - https://sketch.com -->
    <title>wallet</title>
    <desc>Created with Sketch.</desc>
    <g id="wallet" stroke="none" stroke-width="1" fill="none" fill-rule="evenodd">
        <g id="Group" transform="translate(0.000000, 2.000000)">
            <rect id="Rectangle" fill="#FFFFFF" x="13" y="4" width="7" height="8"></rect>
            <path d="M17.083,8.8817842e-16 C18.6933292,0.00165359964 19.9983464,1.30667083 20,2.917 L20,2.917 L20,5 L16.25,5 C14.6603099,5.02943744 13.3870069,6.3265374 13.3870069,7.9165 C13.3870069,9.5064626 14.6603099,10.8035626 16.25,10.833 L16.25,10.833 L20,10.833 L20,12.917 C19.9983464,14.5273292 18.6933292,15.8323464 17.083,15.834 L17.083,15.834 L2.917,15.834 C1.30667083,15.8323464 0.00165359964,14.5273292 0,12.917 L0,12.917 L0,2.917 C0.00165359964,1.30667083 1.30667083,0.00165359964 2.917,8.8817842e-16 L2.917,8.8817842e-16 Z M20,6.319 L20,9.519 L17.124,9.519 C16.2403444,9.519 15.524,8.8026556 15.524,7.919 C15.524,7.08443638 16.1629615,6.39911021 16.9783674,6.32553868 L17.124,6.319 L20,6.319 Z M17.124,6.958 C16.5943589,6.958 16.165,7.38735892 16.165,7.917 C16.165,8.44664108 16.5943589,8.876 17.124,8.876 C17.6534126,8.87544882 18.0824488,8.4464126 18.083,7.917 C18.083,7.38735892 17.6536411,6.958 17.124,6.958 Z M17.125,7.389 C17.4149495,7.389 17.65,7.62405051 17.65,7.914 C17.65,8.20394949 17.4149495,8.439 17.125,8.439 C16.8350505,8.439 16.6,8.20394949 16.6,7.914 C16.6,7.62405051 16.8350505,7.389 17.125,7.389 Z" id="Combined-Shape" fill="#34BD9E" fill-rule="nonzero"></path>
        </g>
    </g>
</svg>