<svg width="12" height="11" viewBox="0 0 12 11" fill="none" xmlns="http://www.w3.org/2000/svg">
<path d="M0.901367 10.1736L6.32489 0.805664L11.7484 10.1736H0.901367ZM2.60238 9.18747H10.0474L6.32489 2.77785L2.60238 9.18747ZM6.32489 8.69442C6.46459 8.69442 6.58177 8.64709 6.67643 8.55242C6.77077 8.45809 6.81794 8.34107 6.81794 8.20138C6.81794 8.06168 6.77077 7.94466 6.67643 7.85033C6.58177 7.75566 6.46459 7.70833 6.32489 7.70833C6.18519 7.70833 6.06818 7.75566 5.97384 7.85033C5.87917 7.94466 5.83184 8.06168 5.83184 8.20138C5.83184 8.34107 5.87917 8.45809 5.97384 8.55242C6.06818 8.64709 6.18519 8.69442 6.32489 8.69442ZM5.83184 7.21528H6.81794V4.75004H5.83184V7.21528Z" fill="#FF7200"/>
</svg>
