<svg width="38" height="30" viewBox="0 0 38 30" fill="none" xmlns="http://www.w3.org/2000/svg">
<path d="M4.30398 29.5762H33.6601C35.2747 29.5762 36.2649 29.2093 36.6309 28.4754C36.9988 27.7415 37.1828 26.9342 37.1828 26.0535V14.311C37.1828 13.1857 36.8276 12.1583 36.1172 11.2286C35.4087 10.299 34.5408 9.71192 33.5133 9.46728V6.97201C33.5133 5.21065 32.8773 3.69391 31.6052 2.42182C30.3331 1.14972 28.8163 0.513672 27.055 0.513672H10.9091C9.14774 0.513672 7.63101 1.14972 6.35891 2.42182C5.08681 3.69391 4.45076 5.21065 4.45076 6.97201V9.46728C3.4233 9.71192 2.55534 10.299 1.84688 11.2286C1.13646 12.1583 0.78125 13.1857 0.78125 14.311V26.0535C0.78125 27.6681 1.1482 28.6583 1.8821 29.0243C2.61601 29.3922 3.4233 29.5762 4.30398 29.5762ZM4.30398 27.5213C3.86364 27.5213 3.50941 27.3872 3.24129 27.1191C2.97121 26.849 2.83618 26.4938 2.83618 26.0535V14.311C2.83618 13.4793 3.11702 12.7816 3.6787 12.2179C4.24233 11.6563 4.94003 11.3754 5.77179 11.3754C6.60354 11.3754 7.30124 11.6563 7.86488 12.2179C8.42656 12.7816 8.7074 13.4793 8.7074 14.311V20.1823H29.2567V14.311C29.2567 13.4793 29.5375 12.7816 30.0992 12.2179C30.6628 11.6563 31.3605 11.3754 32.1923 11.3754C33.024 11.3754 33.7208 11.6563 34.2824 12.2179C34.8461 12.7816 35.1279 13.4793 35.1279 14.311V26.0535C35.1279 26.4938 34.9938 26.849 34.7257 27.1191C34.4556 27.3872 34.1004 27.5213 33.6601 27.5213H4.30398ZM10.7623 18.1273V14.311C10.7623 12.99 10.3347 11.8764 9.47946 10.9703C8.62226 10.0661 7.63101 9.56514 6.50569 9.46728V6.97201C6.50569 5.69992 6.92157 4.64799 7.75332 3.81623C8.58508 2.98448 9.63701 2.5686 10.9091 2.5686H27.055C28.3271 2.5686 29.379 2.98448 30.2107 3.81623C31.0425 4.64799 31.4584 5.69992 31.4584 6.97201V9.46728C30.3331 9.56514 29.3428 10.0661 28.4875 10.9703C27.6303 11.8764 27.2017 12.99 27.2017 14.311V18.1273H10.7623Z" fill="#D6D6D6" stroke="white" stroke-width="0.8"/>
</svg>
