<svg width="11" height="11" viewBox="0 0 11 11" fill="none" xmlns="http://www.w3.org/2000/svg">
<mask id="mask0_290_560" style="mask-type:alpha" maskUnits="userSpaceOnUse" x="0" y="0" width="11" height="11">
<rect width="11" height="11" fill="#D9D9D9"/>
</mask>
<g mask="url(#mask0_290_560)">
<path d="M3.17546 4.77976C2.7324 4.77976 2.35428 4.62316 2.04108 4.30997C1.72789 3.99677 1.57129 3.61865 1.57129 3.17559C1.57129 2.73254 1.72789 2.35441 2.04108 2.04122C2.35428 1.72802 2.7324 1.57143 3.17546 1.57143C3.61851 1.57143 3.99664 1.72802 4.30983 2.04122C4.62303 2.35441 4.77962 2.73254 4.77962 3.17559C4.77962 3.61865 4.62303 3.99677 4.30983 4.30997C3.99664 4.62316 3.61851 4.77976 3.17546 4.77976ZM3.17546 3.86309C3.36643 3.86309 3.52868 3.79618 3.66221 3.66234C3.79604 3.52882 3.86296 3.36657 3.86296 3.17559C3.86296 2.98462 3.79604 2.82237 3.66221 2.68884C3.52868 2.55501 3.36643 2.48809 3.17546 2.48809C2.98448 2.48809 2.82223 2.55501 2.68871 2.68884C2.55487 2.82237 2.48796 2.98462 2.48796 3.17559C2.48796 3.36657 2.55487 3.52882 2.68871 3.66234C2.82223 3.79618 2.98448 3.86309 3.17546 3.86309ZM7.30046 8.90476C6.8574 8.90476 6.47927 8.74816 6.16608 8.43497C5.85289 8.12177 5.69629 7.74365 5.69629 7.30059C5.69629 6.85754 5.85289 6.47941 6.16608 6.16622C6.47927 5.85302 6.8574 5.69643 7.30046 5.69643C7.74351 5.69643 8.12164 5.85302 8.43483 6.16622C8.74802 6.47941 8.90462 6.85754 8.90462 7.30059C8.90462 7.74365 8.74802 8.12177 8.43483 8.43497C8.12164 8.74816 7.74351 8.90476 7.30046 8.90476ZM7.30046 7.98809C7.49143 7.98809 7.65368 7.92118 7.78721 7.78734C7.92104 7.65382 7.98796 7.49157 7.98796 7.30059C7.98796 7.10962 7.92104 6.94737 7.78721 6.81384C7.65368 6.68001 7.49143 6.61309 7.30046 6.61309C7.10948 6.61309 6.94723 6.68001 6.81371 6.81384C6.67987 6.94737 6.61296 7.10962 6.61296 7.30059C6.61296 7.49157 6.67987 7.65382 6.81371 7.78734C6.94723 7.92118 7.10948 7.98809 7.30046 7.98809ZM2.21296 8.90476L1.57129 8.26309L8.26296 1.57143L8.90462 2.21309L2.21296 8.90476Z" fill="#1C1B1F"/>
</g>
</svg>
