<svg xmlns="http://www.w3.org/2000/svg" width="24" height="24" viewBox="0 0 24 24">
    <g fill="#010101" fill-rule="evenodd">
        <path fill-rule="nonzero" d="M19.489 16.035l-.014-.025.01-.028c.473-1.283.473-2.981.473-3.996 0-1.015 0-2.715-.473-3.998l-.01-.027.014-.026c.455-.795.222-1.763.212-1.804A.173.173 0 0 0 19.533 6a2.89 2.89 0 0 0-1.782.71l-.026.024-.035-.01C16.105 6.23 13.343 6 11.98 6c-1.364 0-4.122.23-5.712.723l-.035.011-.026-.024A2.89 2.89 0 0 0 4.424 6a.173.173 0 0 0-.168.131c-.01.04-.243 1.008.212 1.804l.015.026-.01.027C4 9.271 4 10.97 4 11.986c0 1.015 0 2.713.473 3.996l.01.028-.014.025c-.455.795-.222 1.764-.212 1.804.02.078.089.132.168.131a2.89 2.89 0 0 0 1.782-.71l.026-.024.035.011c1.589.495 4.347.723 5.71.723 1.365 0 4.127-.23 5.713-.723l.034-.01.027.024a2.89 2.89 0 0 0 1.781.71c.08 0 .15-.054.169-.132.01-.04.242-1.01-.213-1.804zm-.089 1.516l-.008.064-.063-.01a2.529 2.529 0 0 1-1.436-.688.168.168 0 0 0-.177-.043c-1.527.512-4.327.75-5.737.75-1.41 0-4.21-.238-5.737-.75a.168.168 0 0 0-.177.043c-.391.377-.893.619-1.432.688l-.063.01-.008-.064c-.04-.323-.06-.939.262-1.426a.17.17 0 0 0 .017-.16c-.495-1.234-.495-2.955-.495-3.98 0-1.024 0-2.746.491-3.979a.17.17 0 0 0-.017-.16c-.323-.488-.303-1.099-.263-1.427l.009-.063.063.01c.538.069 1.04.31 1.432.688a.168.168 0 0 0 .176.042c1.531-.509 4.331-.75 5.742-.75 1.41 0 4.21.241 5.737.748a.168.168 0 0 0 .177-.042c.392-.379.896-.62 1.436-.689l.063-.009.008.064c.04.323.061.938-.262 1.426a.17.17 0 0 0-.017.16c.49 1.233.49 2.952.49 3.98s0 2.746-.49 3.979a.17.17 0 0 0 .017.16c.323.49.303 1.105.262 1.428z"/>
        <path d="M17.925 7.864a.168.168 0 0 0-.136-.094.172.172 0 0 0-.154.069c-.019.025-.475.646-.778 1.781a.17.17 0 0 0 .122.212.168.168 0 0 0 .212-.122c.117-.45.285-.883.5-1.295l.061-.116.053.12c.83 1.919.758 3.803.556 5.039a10.52 10.52 0 0 1-.53 1.987l-.057.152-.06-.152c-.66-1.653-.9-3.249-.714-4.746a.17.17 0 0 0-.15-.194h-.022a.169.169 0 0 0-.169.152c-.213 1.717.11 3.55.96 5.445.027.06.087.1.154.1a.173.173 0 0 0 .158-.093c.021-.043.518-1.05.771-2.577.229-1.411.284-3.537-.777-5.668zM10.39 14.26a.174.174 0 0 0-.174-.174H8.835l1.515-1.734a.174.174 0 0 0-.13-.288H8.455a.173.173 0 0 0-.16.264.173.173 0 0 0 .16.084h1.38L8.32 14.145a.176.176 0 0 0 .13.288h1.767a.172.172 0 0 0 .173-.173zM12.232 11.812h-.927l1.064-1.495a.17.17 0 0 0 .01-.179.168.168 0 0 0-.15-.095h-1.26a.174.174 0 0 0 0 .347h.926l-1.064 1.494a.176.176 0 0 0 .137.275h1.264a.174.174 0 0 0 0-.347zM13.741 9.79h-.409l.548-.733a.175.175 0 0 0-.139-.278h-.757a.174.174 0 0 0 0 .348h.41l-.549.732a.176.176 0 0 0 .144.278h.758a.173.173 0 0 0 .16-.265.173.173 0 0 0-.16-.083l-.006.001z"/>
    </g>
</svg>
