<svg width="20" height="20" viewBox="0 0 20 20" fill="none" xmlns="http://www.w3.org/2000/svg">
<path d="M8 10.6667C12.4447 10.6667 12.4447 4 8 4M6 4H14H6ZM6 7.33333H14H6ZM6 10.6667L11.6667 16L6 10.6667ZM6 10.6667H8H6Z" stroke="black" stroke-width="1.25" stroke-linecap="round" stroke-linejoin="round"/>
<path fill-rule="evenodd" clip-rule="evenodd" d="M16.563 15.9382C16.6614 15.9382 16.7558 15.8991 16.8254 15.8295C16.895 15.7599 16.9341 15.6655 16.9341 15.5671V11.2676L18.5268 12.8611C18.5613 12.8956 18.6023 12.9229 18.6473 12.9416C18.6924 12.9603 18.7407 12.9699 18.7895 12.9699C18.8383 12.9699 18.8866 12.9603 18.9317 12.9416C18.9768 12.9229 19.0178 12.8956 19.0523 12.8611C19.0868 12.8266 19.1141 12.7856 19.1328 12.7405C19.1515 12.6954 19.1611 12.6471 19.1611 12.5983C19.1611 12.5495 19.1515 12.5012 19.1328 12.4561C19.1141 12.411 19.0868 12.3701 19.0523 12.3356L16.8257 10.109C16.7912 10.0745 16.7503 10.047 16.7052 10.0283C16.6601 10.0096 16.6118 10 16.563 10C16.5142 10 16.4658 10.0096 16.4207 10.0283C16.3757 10.047 16.3347 10.0745 16.3002 10.109L14.0737 12.3356C14.004 12.4053 13.9648 12.4998 13.9648 12.5983C13.9648 12.6969 14.004 12.7914 14.0737 12.8611C14.1434 12.9307 14.2379 12.9699 14.3364 12.9699C14.435 12.9699 14.5295 12.9307 14.5991 12.8611L16.1919 11.2676V15.5671C16.1919 15.6655 16.231 15.7599 16.3006 15.8295C16.3702 15.8991 16.4645 15.9382 16.563 15.9382Z" fill="black"/>
</svg>
