<svg width="13" height="13" viewBox="0 0 13 13" fill="none" xmlns="http://www.w3.org/2000/svg">
<path d="M6.5 13C10.0899 13 13 10.0899 13 6.5C13 2.91015 10.0899 0 6.5 0C2.91015 0 0 2.91015 0 6.5C0 10.0899 2.91015 13 6.5 13Z" fill="url(#paint0_linear_862_790)"/>
<path d="M7.42261 9.27692L5.38547 7.35073L5.72435 7.35073L5.72459 7.35073C6.1664 7.34967 6.5921 7.18472 6.91928 6.88782C7.22399 6.6113 7.42306 6.23865 7.48436 5.83363H8.24115C8.27618 5.83363 8.31086 5.82673 8.34323 5.81333C8.37559 5.79992 8.40499 5.78027 8.42976 5.75551C8.45452 5.73074 8.47417 5.70134 8.48758 5.66897C8.50098 5.63661 8.50788 5.60193 8.50788 5.5669C8.50788 5.53188 8.50098 5.4972 8.48758 5.46483C8.47417 5.43247 8.45452 5.40307 8.42976 5.3783C8.40499 5.35353 8.37559 5.33389 8.34323 5.32048L8.30496 5.41287L8.34322 5.32048C8.31147 5.30733 8.27747 5.30044 8.2431 5.30019V5.30018H8.24115H7.48594C7.4528 5.08755 7.38111 4.88248 7.27414 4.69517C7.19791 4.56169 7.1048 4.43906 6.99741 4.33018H8.24505C8.28008 4.33018 8.31476 4.32328 8.34713 4.30988C8.37949 4.29647 8.40889 4.27682 8.43366 4.25206C8.45842 4.22729 8.47807 4.19789 8.49148 4.16552C8.50488 4.13316 8.51178 4.09848 8.51178 4.06345C8.51178 4.02843 8.50488 3.99375 8.49148 3.96138C8.47807 3.92902 8.45842 3.89962 8.43366 3.87485C8.40889 3.85008 8.37949 3.83044 8.34713 3.81703C8.31476 3.80363 8.28008 3.79673 8.24505 3.79673H4.71555C4.68053 3.79673 4.64584 3.80363 4.61348 3.81703C4.58112 3.83044 4.55172 3.85008 4.52695 3.87485C4.50219 3.89962 4.48254 3.92902 4.46913 3.96138C4.45573 3.99374 4.44883 4.02842 4.44883 4.06345C4.44883 4.09849 4.45573 4.13317 4.46913 4.16552C4.48254 4.19789 4.50219 4.22729 4.52695 4.25206C4.55172 4.27682 4.58112 4.29647 4.61348 4.30988C4.64584 4.32328 4.68053 4.33018 4.71555 4.33018H5.72565C5.72565 4.33018 5.72565 4.33018 5.72565 4.33018C6.02797 4.33019 6.31998 4.44004 6.54734 4.63929C6.74577 4.81318 6.88316 5.04482 6.9413 5.30018H4.71555C4.64481 5.30018 4.57697 5.32828 4.52695 5.3783C4.47693 5.42832 4.44883 5.49616 4.44883 5.5669C4.44883 5.63765 4.47693 5.70549 4.52695 5.75551C4.57697 5.80553 4.64481 5.83363 4.71555 5.83363H6.94304C6.88688 6.09164 6.75011 6.32631 6.55106 6.50278C6.32353 6.7045 6.03023 6.81632 5.72616 6.81728H4.7175V6.81726L4.7156 6.8173C4.64444 6.81866 4.5767 6.84809 4.52716 6.89918C4.47761 6.95028 4.45028 7.01888 4.45111 7.09005L4.45111 7.09005L4.45112 7.09068C4.45241 7.16239 4.48195 7.23069 4.53331 7.28074L4.5333 7.28075L4.53439 7.28178L7.05635 9.66725C7.05636 9.66726 7.05638 9.66727 7.05639 9.66728C7.08179 9.69132 7.11169 9.71013 7.14436 9.72262C7.17705 9.73512 7.21188 9.74106 7.24686 9.74009C7.28185 9.73913 7.3163 9.73127 7.34824 9.71699C7.38019 9.70271 7.40901 9.68227 7.43306 9.65684L7.43364 9.65622C7.48187 9.60435 7.50782 9.53561 7.50589 9.4648C7.50396 9.39399 7.47431 9.32677 7.42332 9.2776L7.42261 9.27692Z" fill="white" stroke="white" stroke-width="0.2"/>
<defs>
<linearGradient id="paint0_linear_862_790" x1="1.495" y1="9.854" x2="11.089" y2="2.405" gradientUnits="userSpaceOnUse">
<stop stop-color="#08DA43"/>
<stop offset="1" stop-color="#11AE50"/>
</linearGradient>
</defs>
</svg>
