<svg xmlns="http://www.w3.org/2000/svg" width="24" height="24" viewBox="0 0 24 24">
    <path fill="#000" fill-rule="nonzero" d="M17.99 11.357c0-.674-.544-1.256-1.24-1.256a.985.985 0 0 0-.514.123l-2.662-3.4.333-.336.03-.03a1.45 1.45 0 0 0 .423-1.011c0-.398-.15-.735-.423-1.01a1.412 1.412 0 0 0-1.997 0l-.03.03-1.059 1.072a3.641 3.641 0 0 0-1.3-.245c-.938 0-1.815.367-2.48 1.04a.235.235 0 0 0-.061.154c0 .061.03.123.06.153l.938.95a2.038 2.038 0 0 0 .151 2.694 2 2 0 0 0 1.422.582c.454 0 .877-.153 1.24-.429l.938.95c.03.03.09.06.151.06a.23.23 0 0 0 .151-.06 3.542 3.542 0 0 0 1.029-2.511c0-.46-.09-.888-.242-1.317l.423-.398 2.632 3.338a1.21 1.21 0 0 0-.332.857c0 .551.363 1.01.847 1.164l-3.298 5.267c-1.603.03-2.843.888-2.843 1.96 0 .061.03.122.06.153.03.03.09.061.151.061h5.476a.24.24 0 0 0 .242-.245c0-1.01-1.09-1.837-2.572-1.96l3.237-5.236a1.17 1.17 0 0 0 1.12-1.164zm-8.44-.919c-.423 0-.786-.153-1.088-.459a1.557 1.557 0 0 1-.152-2.021l2.148 2.174c-.272.184-.575.306-.907.306zm2.33.46l-3.418-3.46-.908-.92a3.015 3.015 0 0 1 1.997-.765c.816 0 1.603.337 2.178.919a3.15 3.15 0 0 1 .907 2.205c0 .734-.272 1.47-.756 2.02zm.756-3.798a3.603 3.603 0 0 0-.575-.765 3.34 3.34 0 0 0-.756-.582l.968-1.01a.978.978 0 0 1 1.361 0c.363.367.363 1.01 0 1.378l-.998.98zm3.116 12.433H10.79c.181-.704 1.24-1.286 2.48-1.286 1.21 0 2.27.582 2.48 1.286zm.242-8.176c0-.429.333-.796.786-.796.454 0 .787.337.787.796a.786.786 0 1 1-1.573 0z"/>
</svg>
