<svg xmlns="http://www.w3.org/2000/svg" width="24" height="24" viewBox="0 0 24 24">
    <g fill="none" fill-rule="evenodd">
        <path fill="#000" fill-rule="nonzero" d="M19.045 15.513a2.249 2.249 0 0 0-1.813-.574l-6.479.834.05-.065a.19.19 0 0 0-.037-.016l-.023-.008-.534-2.768a15.83 15.83 0 0 0-1.437-4.344l-.309-.616a1.997 1.997 0 0 0-1.112-.992l-.037-.012.014-.042c.16-.472.14-.987-.055-1.445l-.006-.01A2.601 2.601 0 0 0 4.75 4.006a.804.804 0 0 0-.61.358.832.832 0 0 0-.1.709l2.953 9.369a.191.191 0 1 0 .327.072.199.199 0 0 0 .04-.192L5.438 7.986a.54.54 0 0 1 .066-.46.523.523 0 0 1 .395-.233l.679-.049c.14-.01.283 0 .422.027h.018c.479.1.886.417 1.106.86l.309.615a15.465 15.465 0 0 1 1.399 4.236l.543 2.807-.413.095c-.138.027-.335.069-.335.069l-.479.064-.015-.02a1.288 1.288 0 0 0-1.316-.503 1.313 1.313 0 0 0-.978 1.565l.58 2.455a.603.603 0 0 0 .585.468h9.103a1.2 1.2 0 0 0 1.186-1.19v-.044h.598c.581 0 1.054-.517 1.054-1.155a2.783 2.783 0 0 0-.899-2.08zM6.941 6.832l-.011.032h-.033a2.03 2.03 0 0 0-.35-.006l-.678.049a.893.893 0 0 0-.628.312l-.05.058-.787-2.327a.434.434 0 0 1 .057-.367.42.42 0 0 1 .317-.184 2.22 2.22 0 0 1 2.139 1.224c.163.384.172.818.024 1.209zM8 19.592a.215.215 0 0 1-.209-.166l-.58-2.45a.918.918 0 0 1 .692-1.075.903.903 0 0 1 1.072.68l.689 3.012H8zm10.893-1.233H16.22a.195.195 0 0 0-.193.197c0 .108.087.196.193.196h1.691v.045a.81.81 0 0 1-.8.8h-7.05l-.192-.84h5.246a.193.193 0 0 0 .168-.099.2.2 0 0 0 0-.196.193.193 0 0 0-.168-.098H9.778l-.426-1.867-.013-.053-.014-.05 7.957-1.066a1.874 1.874 0 0 1 1.509.48c.498.457.778 1.108.77 1.79 0 .42-.3.761-.668.761z"/>
        <path fill="#1D1D1B" d="M11.241 8.08l1.182.711c.043.025.095.03.141.012a.17.17 0 0 0 .1-.1.23.23 0 0 0-.076-.283l-.75-.453c.469-.06.945-.043 1.409.05 1.965.363 3.356 2.171 3.106 4.033a.207.207 0 0 0 .15.239h.028a.19.19 0 0 0 .175-.178c.28-2.09-1.245-4.113-3.4-4.51a4.622 4.622 0 0 0-1.44-.063l.485-.582a.236.236 0 0 0 0-.297.162.162 0 0 0-.253 0l-.902 1.088s0 .005-.005.008a.212.212 0 0 0-.032.057v.006a.225.225 0 0 0-.011.06v.01a.213.213 0 0 0 .016.092.192.192 0 0 0 .078.099z"/>
    </g>
</svg>
