<svg xmlns="http://www.w3.org/2000/svg" width="18" height="13" viewBox="0 0 18 13">
    <defs>
        <style>
            .cls-1{fill:#868686}
        </style>
    </defs>
    <g id="seats" transform="translate(0 -2.744)">
        <path id="Path_1" d="M15.891 4.369a1.606 1.606 0 0 0-1.582-1.625h-3.2a1.606 1.606 0 0 0-1.582 1.625v2.709H8.473V4.369a1.606 1.606 0 0 0-1.582-1.625h-3.2a1.606 1.606 0 0 0-1.582 1.625v2.709H0v2.708a1.625 1.625 0 0 0 1.055 1.532v.635a1.625 1.625 0 0 0 1.055 1.532v2.26h1.054v-2.167h4.254v2.167h1.055v-2.26A1.574 1.574 0 0 0 9 13.163a1.574 1.574 0 0 0 .527.321v2.26h1.055v-2.166h4.254v2.167h1.055v-2.26a1.625 1.625 0 0 0 1.055-1.532v-.635A1.625 1.625 0 0 0 18 9.786V7.078h-2.109zm-5.309 0a.535.535 0 0 1 .527-.542h3.2a.535.535 0 0 1 .527.542v4.875h-4.254zM9 10.328a.535.535 0 0 1-.527-.542V8.161h1.054v1.625a.535.535 0 0 1-.527.542zM3.164 4.369a.535.535 0 0 1 .527-.542h3.2a.535.535 0 0 1 .527.542v4.875H3.164zM1.055 8.161h1.054v1.625a.535.535 0 0 1-.527.542.535.535 0 0 1-.527-.542zm6.891 4.333H2.637a.535.535 0 0 1-.527-.542v-.635a1.612 1.612 0 0 0 .964-.99h4.435a1.612 1.612 0 0 0 .964.99v.635a.535.535 0 0 1-.528.542zm7.418 0h-5.309a.535.535 0 0 1-.527-.542v-.635a1.612 1.612 0 0 0 .964-.99h4.435a1.612 1.612 0 0 0 .964.99v.635a.535.535 0 0 1-.528.542zm1.582-2.708a.528.528 0 1 1-1.055 0V8.161h1.055z" class="cls-1" data-name="Path 1"/>
    </g>
</svg>
