<svg width="24" height="24" viewBox="0 0 24 24" fill="none" xmlns="http://www.w3.org/2000/svg">
<mask id="mask0_7_3608" style="mask-type:alpha" maskUnits="userSpaceOnUse" x="0" y="0" width="24" height="24">
<rect width="24" height="24" fill="#D9D9D9"/>
</mask>
<g mask="url(#mask0_7_3608)">
<path d="M8.20002 6.29998C7.68336 6.29998 7.24602 6.11664 6.88802 5.74998C6.52936 5.38331 6.35002 4.94998 6.35002 4.44998C6.35002 3.93331 6.52936 3.49564 6.88802 3.13698C7.24602 2.77898 7.68336 2.59998 8.20002 2.59998C8.70002 2.59998 9.13336 2.77898 9.50002 3.13698C9.86669 3.49564 10.05 3.93331 10.05 4.44998C10.05 4.94998 9.86669 5.38331 9.50002 5.74998C9.13336 6.11664 8.70002 6.29998 8.20002 6.29998ZM14 19.5H7.80002C7.30002 19.5 6.84169 19.3293 6.42502 18.988C6.00836 18.646 5.75002 18.2166 5.65002 17.7L3.52502 6.99998H5.05002L7.20002 17.7C7.21669 17.7666 7.26269 17.8333 7.33802 17.9C7.41269 17.9666 7.48336 18 7.55002 18H14V19.5ZM19.3 21.7L16.55 17H9.47502C9.05836 17 8.69569 16.871 8.38702 16.613C8.07902 16.3543 7.87502 16.0166 7.77502 15.6L6.65002 10.125C6.48336 9.39164 6.65436 8.74998 7.16302 8.19998C7.67102 7.64998 8.27502 7.37498 8.97502 7.37498C9.49169 7.37498 9.96669 7.52898 10.4 7.83698C10.8334 8.14564 11.1167 8.57498 11.25 9.12498L12.4 14.5H15.875C16.175 14.5 16.4584 14.5793 16.725 14.738C16.9917 14.896 17.2084 15.1083 17.375 15.375L20.6 20.95L19.3 21.7Z" fill="#1C1B1F"/>
</g>
</svg>
