<svg width="46" height="46" viewBox="0 0 46 46" fill="none" xmlns="http://www.w3.org/2000/svg">
<path d="M14.4824 9.07617L11.4824 10.0762L9.48242 12.5762L8.98242 16.0762L8.48242 18.0762L5.48242 20.5762V34.0762L6.98242 36.0762H36.9824L39.4824 35.0762V21.0762L37.4824 18.5762L35.4824 17.0762V13.5762L34.4824 10.0762L31.4824 9.07617H25.9824H14.4824Z" fill="#5DC837"/>
<mask id="mask0_220_358" style="mask-type:alpha" maskUnits="userSpaceOnUse" x="0" y="0" width="46" height="46">
<rect x="0.482422" y="0.0761719" width="45" height="45" fill="#D9D9D9"/>
</mask>
<g mask="url(#mask0_220_358)">
<path d="M8.30398 37.5762H37.6601C39.2747 37.5762 40.2649 37.2093 40.6309 36.4754C40.9988 35.7415 41.1828 34.9342 41.1828 34.0535V22.311C41.1828 21.1857 40.8276 20.1583 40.1172 19.2286C39.4087 18.299 38.5408 17.7119 37.5133 17.4673V14.972C37.5133 13.2106 36.8773 11.6939 35.6052 10.4218C34.3331 9.14972 32.8163 8.51367 31.055 8.51367H14.9091C13.1477 8.51367 11.631 9.14972 10.3589 10.4218C9.08681 11.6939 8.45076 13.2106 8.45076 14.972V17.4673C7.4233 17.7119 6.55534 18.299 5.84688 19.2286C5.13646 20.1583 4.78125 21.1857 4.78125 22.311V34.0535C4.78125 35.6681 5.1482 36.6583 5.8821 37.0243C6.61601 37.3922 7.4233 37.5762 8.30398 37.5762ZM8.30398 35.5213C7.86364 35.5213 7.50941 35.3872 7.24129 35.1191C6.97121 34.849 6.83618 34.4938 6.83618 34.0535V22.311C6.83618 21.4793 7.11702 20.7816 7.6787 20.2179C8.24233 19.6563 8.94003 19.3754 9.77179 19.3754C10.6035 19.3754 11.3012 19.6563 11.8649 20.2179C12.4266 20.7816 12.7074 21.4793 12.7074 22.311V28.1823H33.2567V22.311C33.2567 21.4793 33.5375 20.7816 34.0992 20.2179C34.6628 19.6563 35.3605 19.3754 36.1923 19.3754C37.024 19.3754 37.7208 19.6563 38.2824 20.2179C38.8461 20.7816 39.1279 21.4793 39.1279 22.311V34.0535C39.1279 34.4938 38.9938 34.849 38.7257 35.1191C38.4556 35.3872 38.1004 35.5213 37.6601 35.5213H8.30398ZM14.7623 26.1273V22.311C14.7623 20.99 14.3347 19.8764 13.4795 18.9703C12.6223 18.0661 11.631 17.5651 10.5057 17.4673V14.972C10.5057 13.6999 10.9216 12.648 11.7533 11.8162C12.5851 10.9845 13.637 10.5686 14.9091 10.5686H31.055C32.3271 10.5686 33.379 10.9845 34.2107 11.8162C35.0425 12.648 35.4584 13.6999 35.4584 14.972V17.4673C34.3331 17.5651 33.3428 18.0661 32.4875 18.9703C31.6303 19.8764 31.2017 20.99 31.2017 22.311V26.1273H14.7623Z" fill="#5DC837" stroke="white" stroke-width="0.8"/>
</g>
</svg>
