<svg xmlns="http://www.w3.org/2000/svg" width="24" height="24" viewBox="0 0 24 24">
    <g fill="#000" fill-rule="evenodd">
        <path d="M11.024 9.437a.192.192 0 0 0-.196-.188c-.079 0-.15.046-.18.116a.181.181 0 0 0 .044.204.2.2 0 0 0 .275 0 .184.184 0 0 0 .057-.132z"/>
        <path fill-rule="nonzero" d="M16.752 9.25h-.465v-.446c0-.45-.378-.816-.846-.822h-3.1V5.791a.44.44 0 0 1 .205-.37l1.682-1.077a.183.183 0 0 0 .054-.26.195.195 0 0 0-.125-.08.197.197 0 0 0-.147.029L12.33 5.11a.808.808 0 0 0-.38.68v2.191H9.511c-.47.002-.852.368-.853.82v.445h-.464a.2.2 0 0 0-.139.056.184.184 0 0 0-.056.134V10.7c0 .05.02.099.056.135a.2.2 0 0 0 .14.056h.472l.602 8.277c.035.428.405.758.852.761h4.698c.446-.004.816-.335.851-.762l.605-8.276h.476a.193.193 0 0 0 .196-.188V9.437a.192.192 0 0 0-.196-.188zm-1.47 9.885a.459.459 0 0 1-.462.413h-4.695a.457.457 0 0 1-.462-.405l-.09-1.3h5.81l-.101 1.292zm.462-6.308l-.34 4.636H9.542l-.339-4.681h6.546l-.005.045zm.027-.42H9.177l-.111-1.516h6.82l-.115 1.515zm.783-1.894H8.391v-.889h1.121a.191.191 0 0 0 .195-.187.191.191 0 0 0-.195-.188H9.05v-.445a.456.456 0 0 1 .463-.444h5.929c.255.001.461.2.462.444v.445h-3.76a.191.191 0 0 0-.195.188c0 .103.088.187.196.187h4.41v.889z"/>
        <path fill-rule="nonzero" d="M13.986 15.125c0-.804-.678-1.455-1.515-1.455-.836 0-1.514.651-1.514 1.455 0 .803.678 1.454 1.514 1.454.837 0 1.515-.651 1.515-1.454zM12.471 16.2c-.619 0-1.12-.482-1.12-1.076 0-.595.501-1.077 1.12-1.077.62 0 1.121.482 1.121 1.077 0 .593-.5 1.074-1.118 1.076h-.003z"/>
    </g>
</svg>
