<svg width="13" height="14" viewBox="0 0 13 14" fill="none" xmlns="http://www.w3.org/2000/svg">
<path d="M5.97778 2.45105C5.97778 2.55051 5.93827 2.64589 5.86795 2.71621C5.79762 2.78654 5.70224 2.82605 5.60278 2.82605H4.60278C4.50333 2.82605 4.40794 2.78654 4.33762 2.71621C4.26729 2.64589 4.22778 2.55051 4.22778 2.45105C4.22778 2.35159 4.26729 2.25621 4.33762 2.18588C4.40794 2.11556 4.50333 2.07605 4.60278 2.07605H5.60278C5.70224 2.07605 5.79762 2.11556 5.86795 2.18588C5.93827 2.25621 5.97778 2.35159 5.97778 2.45105ZM9.16528 10.7386L9.39028 12.326C9.40833 12.4502 9.39984 12.5768 9.36536 12.6975C9.33089 12.8182 9.27121 12.9301 9.19028 13.026C9.1068 13.1194 9.00476 13.1943 8.89069 13.2459C8.77661 13.2976 8.65301 13.3249 8.52778 13.326H4.67778C4.55256 13.3249 4.42896 13.2976 4.31488 13.2459C4.2008 13.1943 4.09876 13.1194 4.01528 13.026C3.93435 12.9301 3.87468 12.8182 3.8402 12.6975C3.80573 12.5768 3.79724 12.4502 3.81528 12.326L4.04028 10.7386C3.04868 10.2555 2.21254 9.50383 1.62695 8.56909C1.04136 7.63436 0.729831 6.55406 0.727783 5.45105C0.727783 5.35159 0.767292 5.25621 0.837618 5.18588C0.907944 5.11556 1.00333 5.07605 1.10278 5.07605H2.22778V0.95105C2.22778 0.718985 2.31997 0.496426 2.48406 0.332331C2.64816 0.168237 2.87072 0.0760498 3.10278 0.0760498H10.1028C10.3348 0.0760498 10.5574 0.168237 10.7215 0.332331C10.8856 0.496426 10.9778 0.718985 10.9778 0.95105V5.07605H12.1028C12.2022 5.07605 12.2976 5.11556 12.3679 5.18588C12.4383 5.25621 12.4778 5.35159 12.4778 5.45105C12.4757 6.55406 12.1642 7.63436 11.5786 8.56909C10.993 9.50383 10.1569 10.2555 9.16528 10.7386ZM2.97778 5.07605H10.2278V0.95105C10.2278 0.917898 10.2146 0.886103 10.1912 0.862661C10.1677 0.839219 10.1359 0.82605 10.1028 0.82605H3.10278C3.06963 0.82605 3.03784 0.839219 3.01439 0.862661C2.99095 0.886103 2.97778 0.917898 2.97778 0.95105V5.07605ZM8.44653 11.026C7.24987 11.4258 5.95569 11.4258 4.75903 11.026L4.55278 12.4323C4.55045 12.4502 4.55203 12.4685 4.55743 12.4857C4.56282 12.503 4.5719 12.5189 4.58403 12.5323C4.59502 12.5466 4.60927 12.558 4.62558 12.5656C4.64189 12.5732 4.6598 12.5768 4.67778 12.576H8.52778C8.54577 12.5768 8.56367 12.5732 8.57999 12.5656C8.5963 12.558 8.61055 12.5466 8.62153 12.5323C8.63367 12.5189 8.64275 12.503 8.64814 12.4857C8.65354 12.4685 8.65512 12.4502 8.65278 12.4323L8.44653 11.026ZM11.7153 5.82605H1.49028C1.58084 7.1202 2.15881 8.33184 3.10762 9.21659C4.05644 10.1013 5.30547 10.5933 6.60278 10.5933C7.90009 10.5933 9.14913 10.1013 10.0979 9.21659C11.0468 8.33184 11.6247 7.1202 11.7153 5.82605Z" fill="black"/>
</svg>
