<svg width="24" height="24" viewBox="0 0 24 24" fill="none" xmlns="http://www.w3.org/2000/svg">
<g clip-path="url(#clip0_678_30)">
<rect width="24" height="24" fill="white"/>
<g clip-path="url(#clip1_678_30)">
<path d="M2.42969 8.77288C2.92635 7.60979 3.79479 7.18752 5.03643 7.19921C9.82217 7.24158 14.6093 7.21674 19.3951 7.21674C21.2956 7.21674 21.9961 7.94002 21.9975 9.90089C21.9975 11.533 22.0033 13.1666 21.9961 14.7987C21.9889 16.3387 21.1937 17.1701 19.7023 17.1716C14.7127 17.1789 9.72169 17.1614 4.73212 17.1833C3.58091 17.1891 2.88903 16.6091 2.43112 15.6184V8.77288H2.42969ZM12.2366 16.3592C14.7055 16.3592 17.1759 16.3665 19.6448 16.3563C20.7386 16.3519 21.1808 15.9033 21.1894 14.7958C21.2023 13.0599 21.2037 11.3226 21.1894 9.58674C21.1808 8.48503 20.7358 8.03938 19.6334 8.03791C14.694 8.03061 9.75614 8.03061 4.81681 8.03791C3.66847 8.03938 3.24071 8.47626 3.23353 9.63642C3.22348 11.3211 3.22492 13.0058 3.23353 14.6891C3.23927 15.9398 3.65411 16.3548 4.90438 16.3577C7.34892 16.3636 9.79203 16.3592 12.2366 16.3577V16.3592Z" fill="black"/>
<path d="M12.2328 14.6846C10.6538 14.6846 9.07485 14.6919 7.49588 14.6832C5.96283 14.673 4.85755 13.6005 4.87621 12.1583C4.89487 10.7527 5.99154 9.71233 7.493 9.70794C10.651 9.70064 13.8089 9.69918 16.9654 9.70794C18.4511 9.71233 19.5449 10.7834 19.5449 12.1919C19.5449 13.6019 18.4525 14.6686 16.9669 14.6803C15.3879 14.6934 13.8089 14.6832 12.2299 14.6832L12.2328 14.6846ZM12.2213 13.8664C13.7989 13.8664 15.375 13.8868 16.9525 13.8591C18.0047 13.8416 18.7138 13.1563 18.7324 12.2226C18.7511 11.2626 18.0205 10.5364 16.9338 10.5291C13.7802 10.5101 10.6266 10.5028 7.47291 10.5452C7.03223 10.551 6.52409 10.779 6.17671 11.0654C5.66283 11.4876 5.56952 12.132 5.80924 12.7705C6.08628 13.5084 6.66763 13.8489 7.41692 13.8576C9.01887 13.8752 10.6208 13.8635 12.2242 13.8649L12.2213 13.8664Z" fill="black"/>
<path d="M12.2919 11.7683C13.8953 11.7683 15.4987 11.7493 17.1006 11.7873C17.3633 11.7931 17.6203 12.0415 17.8801 12.1789C17.6317 12.3279 17.3849 12.6026 17.1351 12.6055C13.8523 12.6348 10.5694 12.6348 7.28658 12.6055C7.03825 12.6026 6.79279 12.325 6.5459 12.176C6.80715 12.0401 7.06552 11.7946 7.32964 11.7888C8.98326 11.7522 10.6369 11.7712 12.2919 11.7712V11.7683Z" fill="black"/>
</g>
</g>
<defs>
<clipPath id="clip0_678_30">
<rect width="24" height="24" fill="white"/>
</clipPath>
<clipPath id="clip1_678_30">
<rect width="879.5" height="132.36" fill="white" transform="translate(-428 -54)"/>
</clipPath>
</defs>
</svg>
