<svg width="20" height="21" viewBox="0 0 20 21" fill="none" xmlns="http://www.w3.org/2000/svg">
<g clip-path="url(#clip0_114_1417)">
<path d="M5.28613 17.3299L5.61308 17.4934C6.97558 18.3108 8.50144 18.6923 10.0274 18.6923C14.8231 18.6923 18.7468 14.7686 18.7468 9.97287C18.7468 7.68404 17.8203 5.44967 16.1855 3.81475C14.5506 2.17982 12.3707 1.25342 10.0274 1.25342C5.23168 1.25342 1.30785 5.17717 1.36238 10.0274C1.36238 11.6622 1.85285 13.2427 2.67027 14.6051L2.88824 14.9321L2.01636 18.1474L5.28613 17.3299Z" fill="#00E676"/>
<path d="M17.112 2.94281C15.2591 1.03547 12.6977 0 10.0819 0C4.52328 0 0.0545312 4.5232 0.108984 10.0273C0.108984 11.7713 0.599453 13.4607 1.41695 14.9866L0 20.1638L5.28617 18.8013C6.75758 19.6188 8.39242 20.0003 10.0274 20.0003C15.5316 20.0003 20.0003 15.477 20.0003 9.97297C20.0003 7.30258 18.9648 4.7957 17.112 2.94281H17.112ZM10.0819 18.3109C8.61047 18.3109 7.13906 17.9295 5.88562 17.1666L5.55867 17.003L2.39789 17.8205L3.21531 14.7142L2.99734 14.3872C0.599453 10.518 1.74391 5.39516 5.66766 2.99727C9.59141 0.599453 14.6596 1.74391 17.0575 5.66766C19.4553 9.59141 18.3109 14.6596 14.3872 17.0575C13.1337 17.8749 11.6078 18.3109 10.0819 18.3109V18.3109ZM14.8776 12.2619L14.2781 11.9894C14.2781 11.9894 13.4062 11.6079 12.8612 11.3354C12.8067 11.3354 12.7523 11.2809 12.6977 11.2809C12.5342 11.2809 12.4252 11.3354 12.3162 11.3899C12.3162 11.3899 12.2618 11.4444 11.4988 12.3163C11.4443 12.4253 11.3353 12.4798 11.2263 12.4798H11.1718C11.1173 12.4798 11.0084 12.4253 10.9538 12.3709L10.6813 12.2619C10.0819 11.9894 9.53695 11.6623 9.10094 11.2264C8.99195 11.1174 8.82844 11.0084 8.71945 10.8995C8.33797 10.518 7.95648 10.082 7.68406 9.59148L7.62953 9.4825C7.57508 9.42797 7.57508 9.37352 7.52055 9.26453C7.52055 9.15555 7.52055 9.04656 7.57508 8.99203C7.57508 8.99203 7.79305 8.71953 7.95648 8.55609C8.06555 8.44703 8.12 8.28359 8.22898 8.17461C8.33797 8.01109 8.3925 7.79312 8.33797 7.62961C8.28352 7.35711 7.62953 5.8857 7.46609 5.55875C7.35703 5.39523 7.24812 5.34078 7.08461 5.28625H6.48516C6.37609 5.28625 6.26719 5.34078 6.15812 5.34078L6.10359 5.39523C5.99461 5.44977 5.88563 5.55875 5.77664 5.6132C5.66766 5.72227 5.61313 5.83117 5.50414 5.94023C5.12266 6.4307 4.90469 7.03016 4.90469 7.62961C4.90469 8.06555 5.01367 8.50156 5.17719 8.88305L5.23172 9.04656C5.72219 10.082 6.37609 11.0084 7.24813 11.8259L7.46609 12.0438C7.62953 12.2073 7.79305 12.3163 7.90203 12.4798C9.04648 13.4608 10.3544 14.1692 11.8258 14.5507C11.9893 14.6052 12.2073 14.6052 12.3708 14.6597H12.9157C13.1882 14.6597 13.5152 14.5507 13.7332 14.4417C13.8966 14.3327 14.0056 14.3327 14.1146 14.2237L14.2237 14.1147C14.3327 14.0057 14.4416 13.9512 14.5506 13.8423C14.6596 13.7333 14.7686 13.6243 14.8231 13.5152C14.9321 13.2973 14.9866 13.0248 15.0411 12.7523V12.3709C15.0411 12.3709 14.9866 12.3163 14.8776 12.2619V12.2619Z" fill="white"/>
</g>
<defs>
<clipPath id="clip0_114_1417">
<rect width="20" height="20.2344" fill="white"/>
</clipPath>
</defs>
</svg>
