<svg xmlns="http://www.w3.org/2000/svg" width="16" height="13" viewBox="0 0 16 13">
    <g fill="#000" fill-rule="evenodd">
        <path d="M8 12.99c-.768 0-1.39-.642-1.39-1.435s.622-1.436 1.39-1.436c.768 0 1.39.643 1.39 1.436 0 .792-.622 1.434-1.39 1.435zM11.194 8.515a.246.246 0 0 1-.172-.075 4.18 4.18 0 0 0-6.044 0 .237.237 0 0 1-.342 0 .256.256 0 0 1 0-.354 4.657 4.657 0 0 1 6.728 0 .257.257 0 0 1 0 .354.237.237 0 0 1-.17.075z"/>
        <path d="M13.465 6.163a.236.236 0 0 1-.17-.075 7.33 7.33 0 0 0-10.589 0 .237.237 0 0 1-.36-.015.26.26 0 0 1 .018-.338 7.807 7.807 0 0 1 11.273 0 .255.255 0 0 1 0 .353.24.24 0 0 1-.172.075z"/>
        <path d="M15.737 3.81a.235.235 0 0 1-.17-.074 10.477 10.477 0 0 0-15.131 0 .237.237 0 0 1-.343 0 .256.256 0 0 1 0-.353 10.952 10.952 0 0 1 15.814.001.255.255 0 0 1-.06.4.224.224 0 0 1-.11.026z"/>
    </g>
</svg>
