<svg width="19" height="19" viewBox="0 0 19 19" fill="none" xmlns="http://www.w3.org/2000/svg">
<g clip-path="url(#clip0_30_4236)">
<path d="M17.73 4.551C15.4214 3.02508 12.7137 2.21485 9.94643 2.22197C7.17917 2.22909 4.47563 3.05322 2.17497 4.591C2.12047 4.62777 2.07375 4.67491 2.03747 4.72974C2.00119 4.78457 1.97607 4.846 1.96353 4.91054C1.93822 5.04088 1.96571 5.17593 2.03997 5.286C2.11423 5.39606 2.22918 5.47212 2.35951 5.49744C2.48985 5.52275 2.62491 5.49526 2.73497 5.421C4.87204 3.99423 7.38262 3.22985 9.95219 3.22362C12.5218 3.2174 15.036 3.9696 17.18 5.386C17.2907 5.45633 17.4246 5.48033 17.5529 5.45282C17.6811 5.42532 17.7934 5.34852 17.8656 5.23897C17.9378 5.12943 17.964 4.99592 17.9386 4.86722C17.9132 4.73853 17.8383 4.62496 17.73 4.551Z" fill="black"/>
<path d="M9.98009 5.81104C7.86871 5.80842 5.80684 6.45036 4.07009 7.65104C3.99143 7.73504 3.94416 7.84361 3.93624 7.95841C3.92833 8.07322 3.96026 8.18724 4.02665 8.28124C4.09303 8.37524 4.18981 8.44346 4.30066 8.4744C4.4115 8.50533 4.52962 8.49708 4.63509 8.45104C6.20226 7.3794 8.05655 6.80603 9.95509 6.80603C11.8536 6.80603 13.7079 7.3794 15.2751 8.45104C15.3844 8.5137 15.5134 8.53274 15.6362 8.50437C15.759 8.47599 15.8666 8.40229 15.9373 8.29802C16.0081 8.19374 16.0369 8.06658 16.018 7.94198C15.999 7.81738 15.9337 7.70454 15.8351 7.62604C14.1108 6.44514 12.07 5.81252 9.98009 5.81104Z" fill="black"/>
<path d="M9.98019 9.40102C8.54025 9.40344 7.13875 9.86593 5.98019 10.721C5.88246 10.8025 5.81945 10.9181 5.804 11.0444C5.78854 11.1707 5.82181 11.2981 5.89701 11.4007C5.97222 11.5033 6.08371 11.5734 6.20878 11.5967C6.33385 11.62 6.4631 11.5947 6.57019 11.526C7.55488 10.7992 8.74484 10.4038 9.96867 10.3966C11.1925 10.3894 12.387 10.7709 13.3802 11.486C13.4319 11.5359 13.4938 11.574 13.5616 11.5978C13.6293 11.6216 13.7015 11.6305 13.773 11.6239C13.8445 11.6173 13.9138 11.5954 13.9761 11.5596C14.0384 11.5238 14.0923 11.4751 14.134 11.4166C14.1758 11.3581 14.2044 11.2914 14.2181 11.2209C14.2317 11.1503 14.23 11.0777 14.213 11.0079C14.196 10.9381 14.1642 10.8727 14.1197 10.8163C14.0752 10.7599 14.0191 10.7138 13.9552 10.681C12.7985 9.84553 11.4071 9.39748 9.98019 9.40102Z" fill="black"/>
<path d="M9.95508 12.661C9.55952 12.661 9.17284 12.7783 8.84394 12.9981C8.51504 13.2178 8.2587 13.5302 8.10732 13.8956C7.95594 14.2611 7.91634 14.6632 7.99351 15.0512C8.07068 15.4392 8.26116 15.7955 8.54087 16.0752C8.82057 16.3549 9.17694 16.5454 9.5649 16.6226C9.95286 16.6998 10.355 16.6601 10.7204 16.5088C11.0859 16.3574 11.3983 16.101 11.618 15.7722C11.8378 15.4433 11.9551 15.0566 11.9551 14.661C11.9551 14.1306 11.7444 13.6219 11.3693 13.2468C10.9942 12.8717 10.4855 12.661 9.95508 12.661ZM9.95508 15.661C9.7573 15.661 9.56396 15.6024 9.39951 15.4925C9.23506 15.3826 9.10689 15.2264 9.0312 15.0437C8.95551 14.861 8.93571 14.6599 8.97429 14.4659C9.01288 14.2719 9.10812 14.0938 9.24797 13.9539C9.38783 13.8141 9.56601 13.7188 9.75999 13.6802C9.95397 13.6416 10.155 13.6614 10.3378 13.7371C10.5205 13.8128 10.6767 13.941 10.7865 14.1054C10.8964 14.2699 10.9551 14.4632 10.9551 14.661C10.9551 14.9262 10.8497 15.1806 10.6622 15.3681C10.4746 15.5557 10.2203 15.661 9.95508 15.661Z" fill="black"/>
</g>
<defs>
<clipPath id="clip0_30_4236">
<rect width="18" height="18" fill="white" transform="translate(0.955078 0.45105)"/>
</clipPath>
</defs>
</svg>
