<?xml version="1.0" encoding="UTF-8"?><svg xmlns="http://www.w3.org/2000/svg" viewBox="0 0 98.28 98.35"><defs><style>.e{fill:#555;}</style></defs><g id="a"/><g id="b"><g id="c"><g id="d"><g><path class="e" d="M39.76,0c2.73,.77,5.45,1.6,8.2,2.26,1.1,.27,1.61,.76,1.94,1.85,4.47,14.77,8.99,29.53,13.48,44.3,.22,.73,.57,1.07,1.31,1.27,8.71,2.31,17.41,4.64,26.12,6.99,3.43,.92,5.71,3.44,6.07,6.65,.61,5.56-4.26,9.8-9.79,8.38-7.58-1.94-15.13-4.02-22.7-6.04-20.68-5.55-41.36-11.1-62.04-16.65-.31-.08-.61-.18-.92-.27V21.98c.94,.24,1.79,.46,2.65,.69,1.36,.36,2.73,.69,4.06,1.13,.41,.14,.87,.53,1.04,.92,1.44,3.45,2.82,6.92,4.19,10.4,.23,.59,.52,.91,1.17,1.08,8,2.12,15.99,4.27,23.99,6.42,.24,.07,.49,.11,.82,.19,.02-.31,.06-.58,.06-.85,0-13.83,0-27.66,0-41.49,0-.16-.02-.32-.03-.48,.13,0,.26,0,.38,0Z"/><path class="e" d="M0,87.98c16.96,0,33.92,0,50.88,0,15.39,0,30.79,0,46.18,0h1.22v10.36H0v-10.37Z"/></g></g></g></g></svg>