<svg xmlns="http://www.w3.org/2000/svg" xmlns:xlink="http://www.w3.org/1999/xlink" viewBox="0 0 329.38 323.94"><defs><style>.cls-1{fill:url(#linear-gradient);}.cls-2{fill:#a8a0ef;}.cls-3{opacity:0.5;}.cls-17,.cls-4{fill:#fff;}.cls-5{fill:#968cea;}.cls-6{opacity:0.3;}.cls-7{fill:#9379ff;}.cls-8{fill:#ab9dfc;}.cls-9{opacity:0.4;}.cls-10{fill:#e0e0e0;}.cls-11{fill:#a3a3a3;opacity:0.45;}.cls-12{fill:#c0cef8;}.cls-13{fill:#8395f0;}.cls-14{fill:url(#linear-gradient-2);}.cls-15{fill:url(#linear-gradient-3);}.cls-16{fill:url(#linear-gradient-4);}.cls-17{opacity:0.58;}.cls-18{fill:url(#linear-gradient-5);}.cls-19{fill:url(#linear-gradient-6);}.cls-20{fill:#ad0505;}.cls-21{fill:url(#linear-gradient-7);}.cls-22{fill:#99b0f6;}.cls-23{fill:url(#linear-gradient-8);}.cls-24{fill:url(#linear-gradient-9);}.cls-25{fill:url(#linear-gradient-10);}.cls-26{fill:url(#linear-gradient-11);}.cls-27{fill:url(#linear-gradient-12);}.cls-28{fill:url(#linear-gradient-13);}.cls-29{fill:url(#linear-gradient-14);}.cls-30{fill:url(#linear-gradient-15);}.cls-31{fill:url(#linear-gradient-16);}.cls-32{fill:url(#linear-gradient-17);}.cls-33{fill:url(#linear-gradient-18);}.cls-34{fill:url(#linear-gradient-19);}.cls-35{fill:url(#linear-gradient-20);}.cls-36{fill:url(#linear-gradient-21);}</style><linearGradient id="linear-gradient" x1="366.24" y1="419.55" x2="77.99" y2="61.57" gradientTransform="matrix(-1, 0, 0, 1, 327.28, 0)" gradientUnits="userSpaceOnUse"><stop offset="0" stop-color="#dbe1fc"/><stop offset="1" stop-color="#e9edfb"/></linearGradient><linearGradient id="linear-gradient-2" x1="203.96" y1="328.87" x2="154.65" y2="161" gradientTransform="matrix(-1, 0, 0, 1, 327.28, 0)" gradientUnits="userSpaceOnUse"><stop offset="0" stop-color="#c24940"/><stop offset="1" stop-color="#cc605b"/></linearGradient><linearGradient id="linear-gradient-3" x1="338.54" y1="139.95" x2="149.54" y2="247.95" gradientTransform="matrix(-1, 0, 0, 1, 327.28, 0)" gradientUnits="userSpaceOnUse"><stop offset="0" stop-color="#e9a47d"/><stop offset="1" stop-color="#e06a63"/></linearGradient><linearGradient id="linear-gradient-4" x1="44.82" y1="262.36" x2="9.21" y2="307.96" gradientTransform="matrix(-1, 0, 0, 1, 327.28, 0)" gradientUnits="userSpaceOnUse"><stop offset="0" stop-color="#e5908c"/><stop offset="1" stop-color="#df6f63"/></linearGradient><linearGradient id="linear-gradient-5" x1="56.6" y1="261.24" x2="56.83" y2="290.44" gradientTransform="translate(-47.61)" xlink:href="#linear-gradient-4"/><linearGradient id="linear-gradient-6" x1="314.63" y1="83.95" x2="316.18" y2="300.81" xlink:href="#linear-gradient-2"/><linearGradient id="linear-gradient-7" x1="206.9" y1="135.99" x2="172.85" y2="179.42" gradientTransform="matrix(-0.66, -0.76, -0.76, 0.66, 507.46, 167.31)" xlink:href="#linear-gradient-2"/><linearGradient id="linear-gradient-8" x1="67.48" y1="73.12" x2="77.62" y2="238.58" gradientTransform="matrix(-1, 0, 0, 1, 327.28, 0)" gradientUnits="userSpaceOnUse"><stop offset="0" stop-color="#5153fa"/><stop offset="1" stop-color="#4344dc"/></linearGradient><linearGradient id="linear-gradient-9" x1="319.33" y1="171.51" x2="298.19" y2="204.97" gradientTransform="matrix(-0.66, -0.76, -0.76, 0.66, 453.35, 285.88)" xlink:href="#linear-gradient-2"/><linearGradient id="linear-gradient-10" x1="329.74" y1="197.03" x2="302.71" y2="236.04" xlink:href="#linear-gradient-4"/><linearGradient id="linear-gradient-11" x1="46.68" y1="211.32" x2="116.28" y2="78.97" gradientTransform="matrix(-1, 0, 0, 1, 327.28, 0)" gradientUnits="userSpaceOnUse"><stop offset="0" stop-color="#7c2525"/><stop offset="1" stop-color="#521818"/></linearGradient><linearGradient id="linear-gradient-12" x1="10.18" y1="256.25" x2="180.42" y2="256.25" gradientTransform="matrix(-1, 0, 0, 1, 327.28, 0)" gradientUnits="userSpaceOnUse"><stop offset="0" stop-color="#5ea4f4"/><stop offset="1" stop-color="#2f44bc"/></linearGradient><linearGradient id="linear-gradient-13" x1="67.51" y1="212.41" x2="81.41" y2="169.54" gradientTransform="matrix(-1, 0, 0, 1, 327.28, 0)" gradientUnits="userSpaceOnUse"><stop offset="0" stop-color="#ecb9b8"/><stop offset="1" stop-color="#e5908c"/></linearGradient><linearGradient id="linear-gradient-14" x1="1947.21" y1="1054.71" x2="1932.83" y2="1109.92" gradientTransform="translate(-1835.46 896.96) rotate(-47.34)" xlink:href="#linear-gradient-13"/><linearGradient id="linear-gradient-15" x1="47.03" y1="210.83" x2="111.07" y2="89.04" xlink:href="#linear-gradient-11"/><linearGradient id="linear-gradient-16" x1="1965.81" y1="1063.33" x2="1951.52" y2="1118.19" gradientTransform="translate(-1835.46 896.96) rotate(-47.34)" xlink:href="#linear-gradient-13"/><linearGradient id="linear-gradient-17" x1="-60.14" y1="992.26" x2="-79.72" y2="1019.89" gradientTransform="matrix(-0.85, 0.53, 0.53, 0.85, -428.69, -613.23)" xlink:href="#linear-gradient-13"/><linearGradient id="linear-gradient-18" x1="-30.98" y1="1056.45" x2="-99.58" y2="1153.23" gradientTransform="translate(531.71 1221.65) rotate(156.74)" gradientUnits="userSpaceOnUse"><stop offset="0" stop-color="#0f005b"/><stop offset="1" stop-color="#1e168c"/></linearGradient><linearGradient id="linear-gradient-19" x1="-36.51" y1="987.2" x2="-77.05" y2="1044.39" gradientTransform="matrix(-0.85, 0.53, 0.53, 0.85, -428.69, -613.23)" xlink:href="#linear-gradient-13"/><linearGradient id="linear-gradient-20" x1="68.76" y1="109.89" x2="58.78" y2="179.16" gradientTransform="matrix(-1, 0, 0, 1, 327.28, 0)" xlink:href="#linear-gradient-18"/><linearGradient id="linear-gradient-21" x1="145.84" y1="130.07" x2="126.47" y2="178.79" gradientTransform="matrix(-1, 0, 0, 1, 327.28, 0)" xlink:href="#linear-gradient-18"/></defs><g id="Layer_2" data-name="Layer 2"><g id="Train"><path class="cls-1" d="M40.34,278.37a116.49,116.49,0,0,0,17.84,15c58.18,41.74,127,29.57,141.65,26.6,21.61-4.39,63.37-12.87,93.56-48.37C339.08,217.9,332,133.26,296.53,77.39c-6.48-10.22-40.72-66.93-110.3-76C144.12-4.15,95,7,59.48,36.74-15.14,99.26-9.83,225.55,40.34,278.37Z"/><path class="cls-2" d="M183.08,64.66a3.07,3.07,0,0,1,1-2.2,3.12,3.12,0,0,1,2.25-.85l63.38,2.54a2,2,0,0,1,1.92,2l-3.22,135.5-64.09-.78a3.11,3.11,0,0,1-3.06-3.14Z"/><g class="cls-3"><polygon class="cls-4" points="234.12 89.55 244.32 89.5 244.44 72.03 234.22 72.03 234.12 89.55"/><polygon class="cls-4" points="219.48 89.51 229.64 89.47 229.73 72.03 219.55 72.03 219.48 89.51"/><polygon class="cls-4" points="204.09 89.48 214.21 89.44 214.26 72.03 204.12 72.03 204.09 89.48"/><polygon class="cls-4" points="189.41 89.58 199.36 89.47 199.26 72.03 189.41 72.03 189.41 89.58"/><polygon class="cls-4" points="233.98 114.39 244.15 114.44 244.27 97.14 234.08 97.11 233.98 114.39"/><polygon class="cls-4" points="219.39 114.31 229.52 114.36 229.6 97.09 219.45 97.06 219.39 114.31"/><polygon class="cls-4" points="204.04 114.23 214.13 114.28 214.18 97.04 204.07 97.01 204.04 114.23"/><polygon class="cls-4" points="189.41 114.15 199.33 114.2 199.42 97 189.41 96.96 189.41 114.15"/><polygon class="cls-4" points="233.84 139.76 243.97 139.85 244.09 122.65 233.94 122.59 233.84 139.76"/><polygon class="cls-4" points="219.29 139.63 229.39 139.72 229.47 122.56 219.36 122.5 219.29 139.63"/><polygon class="cls-4" points="203.99 139.5 214.05 139.59 214.1 122.46 204.03 122.4 203.99 139.5"/><polygon class="cls-4" points="189.41 139.38 199.3 139.46 199.38 122.37 189.41 122.3 189.41 139.38"/><polygon class="cls-4" points="233.7 164.57 243.8 164.69 243.92 148.01 233.79 147.91 233.7 164.57"/><polygon class="cls-4" points="219.2 164.4 229.26 164.51 229.35 147.87 219.26 147.77 219.2 164.4"/><polygon class="cls-4" points="203.95 164.22 213.97 164.34 214.03 147.72 203.98 147.62 203.95 164.22"/><polygon class="cls-4" points="189.41 164.04 199.27 164.16 199.35 147.58 189.41 147.48 189.41 164.04"/><polygon class="cls-4" points="233.56 189.62 243.63 189.77 243.74 173.2 233.65 173.07 233.56 189.62"/><polygon class="cls-4" points="219.1 189.41 229.13 189.56 229.22 173.01 219.16 172.89 219.1 189.41"/><polygon class="cls-4" points="203.9 189.18 213.89 189.33 213.95 172.82 203.93 172.69 203.9 189.18"/><polygon class="cls-4" points="189.41 188.96 199.24 189.11 199.32 172.63 189.41 172.5 189.41 188.96"/></g><path class="cls-5" d="M233.4,41a3,3,0,0,1,1-2.13,2.92,2.92,0,0,1,2.22-.75l82.17,7.12a3,3,0,0,1,2.74,2.95V213.39a2.94,2.94,0,0,1-3,2.83h-86a2.91,2.91,0,0,1-2.12-.83,2.87,2.87,0,0,1-.84-2.1Z"/><g class="cls-6"><path class="cls-4" d="M305.24,53.43l6.56.42a1.48,1.48,0,0,1,1.33,1.42V205.93a1.41,1.41,0,0,1-1.42,1.31h-6.55a1.3,1.3,0,0,1-1.27-1.34L304,54.67A1.19,1.19,0,0,1,305.24,53.43Z"/><path class="cls-4" d="M290,52.43l6.56.43A1.51,1.51,0,0,1,298,54.29l-.16,151.6a1.4,1.4,0,0,1-1.38,1.35h-6.63a1.23,1.23,0,0,1-1.18-1.35l.25-152.2A1.13,1.13,0,0,1,290,52.43Z"/><path class="cls-4" d="M274.62,51.42l6.65.44a1.28,1.28,0,0,1,1.11,1.42l-.33,152.61c0,.76-.41,1.35-1.13,1.35h-6.71a1.46,1.46,0,0,1-1.47-1.36l.42-153.21A1.35,1.35,0,0,1,274.62,51.42Z"/><path class="cls-4" d="M259,50.4l6.73.44A1.37,1.37,0,0,1,267,52.28l-.49,153.6a1.28,1.28,0,0,1-1.25,1.36h-6.81a1.39,1.39,0,0,1-1.38-1.37l.6-154.21A1.27,1.27,0,0,1,259,50.4Z"/><path class="cls-4" d="M243.19,49.36l6.82.45a1.49,1.49,0,0,1,1.36,1.46l-.66,154.6a1.4,1.4,0,0,1-1.39,1.37h-6.9a1.29,1.29,0,0,1-1.27-1.38l.76-155.22A1.21,1.21,0,0,1,243.19,49.36Z"/></g><path class="cls-7" d="M80.73,60.34a3,3,0,0,1,3.1-2.94l61,2.45a1.91,1.91,0,0,1,1.84,2l-3.09,130.43-61.7-.75a3,3,0,0,1-2.94-3Z"/><g class="cls-3"><polygon class="cls-4" points="129.86 84.41 139.68 84.43 139.8 67.67 129.96 67.67 129.86 84.41"/><polygon class="cls-4" points="115.77 84.38 125.55 84.4 125.64 67.67 115.83 67.67 115.77 84.38"/><polygon class="cls-4" points="100.95 84.35 110.69 84.36 110.74 67.67 100.98 67.67 100.95 84.35"/><polygon class="cls-4" points="86.58 84.32 96.28 84.33 96.3 67.67 86.58 67.67 86.58 84.32"/><polygon class="cls-4" points="129.73 108.2 139.51 108.25 139.63 91.6 129.82 91.57 129.73 108.2"/><polygon class="cls-4" points="115.68 108.13 125.43 108.18 125.51 91.55 115.74 91.52 115.68 108.13"/><polygon class="cls-4" points="100.9 108.05 110.62 108.1 110.67 91.5 100.94 91.47 100.9 108.05"/><polygon class="cls-4" points="86.58 107.97 96.25 108.02 96.27 91.46 86.58 91.43 86.58 107.97"/><polygon class="cls-4" points="129.59 132.63 139.35 132.71 139.46 116.16 129.68 116.1 129.59 132.63"/><polygon class="cls-4" points="115.58 132.51 125.31 132.59 125.39 116.07 115.65 116.01 115.58 132.51"/><polygon class="cls-4" points="100.86 132.38 110.54 132.46 110.59 115.98 100.89 115.91 100.86 132.38"/><polygon class="cls-4" points="86.58 132.26 96.22 132.34 96.24 115.88 86.58 115.82 86.58 132.26"/><polygon class="cls-4" points="129.46 156.51 139.18 156.62 139.29 140.57 129.54 140.47 129.46 156.51"/><polygon class="cls-4" points="115.49 156.34 125.18 156.46 125.27 140.43 115.56 140.34 115.49 156.34"/><polygon class="cls-4" points="100.81 156.17 110.47 156.28 110.52 140.29 100.84 140.2 100.81 156.17"/><polygon class="cls-4" points="86.58 156 96.19 156.12 96.21 140.15 86.58 140.06 86.58 156"/><polygon class="cls-4" points="129.32 180.63 139.01 180.77 139.12 164.82 129.41 164.69 129.32 180.63"/><polygon class="cls-4" points="115.4 180.42 125.06 180.56 125.14 164.64 115.46 164.51 115.4 180.42"/><polygon class="cls-4" points="100.77 180.2 110.39 180.34 110.44 164.45 100.8 164.33 100.77 180.2"/><polygon class="cls-4" points="86.58 179.99 96.16 180.13 96.18 164.27 86.58 164.14 86.58 179.99"/></g><path class="cls-8" d="M131.05,83.59a2.75,2.75,0,0,1,2.82-2.69l59.24,1.9a2.71,2.71,0,0,1,2.64,2.81l-2.92,98.11a2.72,2.72,0,0,1-2.76,2.65l-58-.56a2.77,2.77,0,0,1-1.93-.83,2.7,2.7,0,0,1-.77-2Z"/><g class="cls-9"><path class="cls-4" d="M137.23,88.41H190c.51,0,.92.26.92.75l-.05,4.6a1,1,0,0,1-.95,1l-52.9,0a1,1,0,0,1-.91-1.06l.16-4.58C136.27,88.68,136.71,88.41,137.23,88.41Z"/><path class="cls-4" d="M136.89,98.31l53-.08a1,1,0,0,1,.92,1l0,4.7a1,1,0,0,1-1,1l-53.13.14a.94.94,0,0,1-.92-1l.16-4.75A1.06,1.06,0,0,1,136.89,98.31Z"/><path class="cls-4" d="M136.53,108.92l53.22-.18c.52,0,.93.24.93.73l-.05,4.75a.92.92,0,0,1-.95.88l-53.37.24a.87.87,0,0,1-.92-.88l.16-4.79C135.57,109.17,136,108.93,136.53,108.92Z"/><path class="cls-4" d="M136.18,119.27l53.45-.27a.86.86,0,0,1,.94.83l-.06,4.79a.84.84,0,0,1-.95.79l-53.6.33c-.53,0-1-.28-.93-.78l.16-4.84A.93.93,0,0,1,136.18,119.27Z"/><path class="cls-4" d="M135.83,129.71l53.69-.37a.94.94,0,0,1,.93.94l0,4.83a1.07,1.07,0,0,1-1,1.06l-53.84.43a1,1,0,0,1-.93-1.06l.16-4.87A1,1,0,0,1,135.83,129.71Z"/><path class="cls-4" d="M135.47,140.24l53.93-.46a1,1,0,0,1,.94,1l-.05,4.88a1,1,0,0,1-1,1l-54.08.52a.94.94,0,0,1-.94-1l.17-4.92A1.12,1.12,0,0,1,135.47,140.24Z"/><path class="cls-4" d="M135.1,151.23l54.18-.56c.53,0,.95.27.94.79l-.05,4.91a.91.91,0,0,1-1,.88l-54.32.62a.86.86,0,0,1-.95-.86l.17-5A.9.9,0,0,1,135.1,151.23Z"/><path class="cls-4" d="M134.74,162l54.42-.66a.91.91,0,0,1,1,.89l-.06,5c0,.52-.43.78-1,.79l-54.57.71c-.55,0-1-.24-1-.77l.17-5A1,1,0,0,1,134.74,162Z"/><path class="cls-4" d="M134.38,172.77,189,172a1,1,0,0,1,1,1l-.05,5a1.1,1.1,0,0,1-1,1.07l-54.82.82a1,1,0,0,1-.95-1l.17-5.06A1.1,1.1,0,0,1,134.38,172.77Z"/></g><path class="cls-10" d="M52.93,149.19a33.85,33.85,0,0,0,1-12.82c-1.44-11.08-9.83-19.86-16.4-28.33-6-7.78-11.83-20,2.88-21.8C52.11,84.82,68,93.57,72,105.24c4.7,13.82,1.41,33.1,12.2,44.32,15.09,15.71,22.52,9.91,28.66,40.32,2.63,13-3.12,21.62-10.57,27.24a35.19,35.19,0,0,1-40.17,1.54c-10.95-7-19-18.66-19.72-31.82S49.76,161.69,52.93,149.19Z"/><path class="cls-11" d="M82.29,245.2a.58.58,0,0,0,.58-.56c1.39-30.1,0-56.86-4-79.53-3.23-18.17-8.18-33.78-14.73-46.39C53,97.14,41.15,91.86,40.65,91.64a.59.59,0,0,0-.46,1.08c.11,0,12,5.4,23,26.68,10.18,19.68,21.65,57.38,18.52,125.18a.6.6,0,0,0,.56.62Z"/><path class="cls-10" d="M35,119.45a5.09,5.09,0,0,1,1.8-.49c3.69-.31,5.94,3.19,7.6,6,1.42,2.36,3.12,5.24,3.14,8.11,0,3.1-2.65,6.17-5.56,3.61-3.31-2.92-8.3-7.41-9.25-12A4.57,4.57,0,0,1,35,119.45Z"/><path class="cls-10" d="M10,210.05c-3.44-9.42-2.16-21.29-2.48-31.93a50.28,50.28,0,0,0-2.8-16.4c-2-5.27-5.72-10.64-4.46-16.54,2.55-11.88,14.85-9.2,23-2.28,9.44,8,14.65,23.21,19.93,34.65,3.18,6.89,7.27,13.79,9.67,21,4,11.92,2.92,21-1.76,27.88a18.07,18.07,0,0,1-20.45,7.06C23.73,231.28,15.54,225.25,10,210.05Z"/><path class="cls-11" d="M44.87,250h0a.54.54,0,0,0,.57-.55,249.53,249.53,0,0,0-4.62-35.94c-3.76-18.92-11.39-46.22-26.38-68.91a.58.58,0,0,0-.81-.16.6.6,0,0,0-.17.82C28.37,167.82,36,195,39.69,213.79a248.45,248.45,0,0,1,4.6,35.73A.54.54,0,0,0,44.87,250Z"/><path class="cls-12" d="M170.47,106.13a.19.19,0,0,0,.12-.34,17.85,17.85,0,0,0-11.62-4.3.19.19,0,0,0,0,.38,17.47,17.47,0,0,1,11.37,4.21A.21.21,0,0,0,170.47,106.13Z"/><path class="cls-12" d="M176.63,119.53a.2.2,0,0,0,.19-.2,17.77,17.77,0,0,0-2.67-9.39.19.19,0,0,0-.27-.06.19.19,0,0,0-.06.26,17.44,17.44,0,0,1,2.61,9.19A.2.2,0,0,0,176.63,119.53Z"/><polygon class="cls-13" points="3.4 321.97 327.28 321.97 307.47 308.54 23.52 308.54 3.4 321.97"/><polygon class="cls-13" points="38.46 299.15 293.02 299.15 274.96 287.42 56.63 287.42 38.46 299.15"/><polygon class="cls-13" points="64 281.37 265.33 281.37 249.68 269.63 78.93 269.63 64 281.37"/><path class="cls-14" d="M255.31,176.42a10.22,10.22,0,0,0-7.7-3.64H82.3a10.21,10.21,0,0,0-9.13,5.84l-3.63,7.63,192.06-2.44Z"/><path class="cls-15" d="M299.1,194a15,15,0,0,0-14.94-14.33H37.91a15.21,15.21,0,0,0-14.43,11.08L5.07,257,6.76,278.2a7,7,0,0,0,7.09,6.28H292.23C294.78,284.48,299.1,194,299.1,194Z"/><path class="cls-16" d="M295.11,266h-3.55c-1.76,0-3.36,2.2-3.36,4.77v10.6c0,1.88,1.22,3.09,2.51,3.09h3.07c1.29,0,2.27-1.21,2.27-3.09V267.6C296.05,266.79,295.66,266,295.11,266Z"/><path class="cls-4" d="M250.35,262.22h32.77a.59.59,0,1,0,0-1.17H250.35a.59.59,0,0,0,0,1.17Z"/><path class="cls-17" d="M93.41,262.22H213a.59.59,0,1,0,0-1.17H93.41a.59.59,0,1,0,0,1.17Z"/><path class="cls-17" d="M107.56,278V268.2a2.86,2.86,0,0,1,2.85-2.85h33.67a2.86,2.86,0,0,1,2.85,2.85V278a2.86,2.86,0,0,1-2.85,2.85H110.41A2.86,2.86,0,0,1,107.56,278Zm2.85-11.43a1.68,1.68,0,0,0-1.67,1.68V278a1.68,1.68,0,0,0,1.67,1.68h33.67a1.68,1.68,0,0,0,1.67-1.68V268.2a1.68,1.68,0,0,0-1.67-1.68Z"/><path class="cls-17" d="M170.74,275.69V270.1a2.52,2.52,0,0,1,2.72-2.25h14.23a2.31,2.31,0,0,1,2.49,2.07v6.31a2.73,2.73,0,0,1-3,2.43H174.37C172.37,278.66,170.74,277.33,170.74,275.69Zm2.72-6.67c-.84,0-1.55.5-1.55,1.08v5.59c0,1,1.11,1.79,2.46,1.79h12.86c1,0,1.77-.57,1.77-1.25v-6.31c0-.49-.6-.9-1.31-.9Z"/><path class="cls-18" d="M12.13,257.62a2.53,2.53,0,0,0-2-.76l-5.09.28,1.15,15,2.46-1.71a9.1,9.1,0,0,0,3.89-6.85l.29-4A2.58,2.58,0,0,0,12.13,257.62Z"/><path class="cls-19" d="M18.57,273.41H7.6C5,273.41,2,274.68,2,277.25v4c0,2.57,3,4.16,5.58,4.16h11c1.08,0,1.91-.38,1.91-1.46v-9.41C20.48,273.46,19.65,273.41,18.57,273.41Z"/><circle class="cls-20" cx="234.08" cy="281.04" r="20.98" transform="translate(-109.86 405.47) rotate(-70.1)"/><circle class="cls-21" cx="234.08" cy="281.04" r="17.04" transform="translate(-131.61 273.74) rotate(-49.06)"/><path class="cls-4" d="M248.39,287.31a.39.39,0,0,0,.36-.24,15.48,15.48,0,0,0-21.81-19.53.39.39,0,1,0,.38.68,14.7,14.7,0,0,1,21.87,12.83,14.5,14.5,0,0,1-1.16,5.71.39.39,0,0,0,.36.55Z"/><path class="cls-20" d="M241.73,281a7.81,7.81,0,1,1-7.81-7.81A7.82,7.82,0,0,1,241.73,281Z"/><path class="cls-22" d="M8.76,247.85s14.84-.32,28.11-.86a28.19,28.19,0,0,0,25.88-20.2L71.85,196a2.56,2.56,0,0,0-2.45-3.28H23.31L7.94,246.77A.86.86,0,0,0,8.76,247.85Z"/><path class="cls-22" d="M75.67,238.37,82.46,196a6.16,6.16,0,0,1,6.1-5.11L284,189.69a6.08,6.08,0,0,1,6.17,7L283,240.25a6.16,6.16,0,0,1-6.14,5.07h-195A6.09,6.09,0,0,1,75.67,238.37Z"/><path class="cls-12" d="M154.8,197.14c0-.74.35-1.74,1-1.74h59c.67,0,1.33,1,1.33,1.74v.17a1.36,1.36,0,0,1-1.33,1.32h-59c-.67,0-1-.58-1-1.32Z"/><path class="cls-12" d="M39.87,198.57c0-.74.25-1.33.54-1.33h26c.29,0,.27.59.27,1.33v.16c0,.75,0,1.28-.27,1.28h-26c-.29,0-.54-.53-.54-1.28Z"/><path class="cls-23" d="M221.27,197.14c0-.74.49-1.74,1.17-1.74h59a2.1,2.1,0,0,1,1.64,1.74v.17c0,.74-1,1.32-1.64,1.32h-59a1.22,1.22,0,0,1-1.17-1.32Z"/><path class="cls-12" d="M87.87,197.14c0-.74.66-1.74,1.33-1.74h59c.67,0,1.49,1,1.49,1.74v.17a1.51,1.51,0,0,1-1.49,1.32h-59a1.36,1.36,0,0,1-1.33-1.32Z"/><path class="cls-17" d="M35.64,275V197.41c0-2.94,2-5.33,4.49-5.33H70.5c2.12,0,3.85,2,3.86,4.56l0,82.14a.58.58,0,0,1-.59.59H39.36C37.31,279.37,35.64,277.4,35.64,275Zm37.54-78.34c0-1.86-1.2-3.38-2.68-3.38H40.13c-1.83,0-3.32,1.86-3.32,4.15V275c0,1.77,1.15,3.22,2.55,3.22H73.23Z"/><circle class="cls-20" cx="77.14" cy="281.04" r="20.98" transform="translate(-214.11 291.55) rotate(-76.72)"/><circle class="cls-24" cx="77.14" cy="281.04" r="17.04" transform="translate(-185.72 155.18) rotate(-49.06)"/><path class="cls-17" d="M91.45,287.31a.4.4,0,0,0,.36-.24A15.48,15.48,0,0,0,70,267.54a.39.39,0,1,0,.39.68,14.7,14.7,0,0,1,20.71,18.54.39.39,0,0,0,.2.52A.45.45,0,0,0,91.45,287.31Z"/><path class="cls-20" d="M84.79,281A7.82,7.82,0,1,1,77,273.23,7.82,7.82,0,0,1,84.79,281Z"/><path class="cls-20" d="M37,191.6a2.84,2.84,0,0,0-2.73-2.2H17.05a4.22,4.22,0,0,0-3.59,2.06L4.21,206.68l5,2.32,6.07-11.83a3.78,3.78,0,0,1,3.3-2l16-.26A2.66,2.66,0,0,0,37,191.6Z"/><rect class="cls-20" x="2.48" y="201.4" width="9.69" height="18.93" rx="4.4"/><path class="cls-25" d="M7.43,201.4h.49a4.24,4.24,0,0,1,1.07,0,4.18,4.18,0,0,0-2.82,4.11v10.16a4.39,4.39,0,0,0,2.64,4.18s0,0,0,0a4,4,0,0,1-.92,0H7.43a4.3,4.3,0,0,1-4.49-4.19V205.55A4.27,4.27,0,0,1,7.43,201.4Z"/><path class="cls-26" d="M270.25,113.87C281,120.45,279.88,138,284.81,147c3,5.44,9.54,5.35,14.6,16.31s-2.54,16.1,2.15,23.85,24.38,12.3,27.26,29.12c2.23,13-2,29.84-16.37,29.84S237.65,209,237.65,209c-.39-.21,21.84,16.74-.74-1s-10.21-25.34-10.21-53.26,4-40.4,13.34-40.49C255.4,114.13,259.56,107.3,270.25,113.87Z"/><path class="cls-27" d="M313.54,321.56s4.16-34.8,3.49-50.05-2.72-69.2-45.37-77.43-47.07,1.5-52.41,8.92c-49.11,84.65-58.86,11.61-58.86,11.61l-13.53,11.44S161,297.77,216.81,251.4c0,0-1.24,5.67,8.33,19.58s10.36,50.54,10.36,50.54Z"/><path class="cls-28" d="M239.88,172.32c.13.9,3,19.89,3.86,23.71s13.95,3.25,21-.18l-7.51-24.36Z"/><path class="cls-29" d="M221.15,135s-3.76,13.12,4.11,32.48,18.8,20.38,25.34,15,14.86-14.62,14.82-32.61S227.86,118,221.15,135Z"/><path class="cls-30" d="M252,149.59c-6.61,3-20.16-22.26-30.67-8.83-1.87,3-.59,8-.53,9.3,0,0-17.63-5.46-13-21.28s20.78-24.44,39.68-15.58,29.41,17.1,29.33,31.24-10.94,10-10.94,10-2.12-11.94-7.2-13.46S258.59,146.61,252,149.59Z"/><path class="cls-31" d="M259.17,152.43s-7.67-13.33,1-14.38,6,12.9,4.59,18Z"/><path class="cls-32" d="M161,206.71s-.3-5.67-2.67-8.91S155,188.25,153,190s-2.67,1.76-.74,6.21S158,219.16,161,206.71Z"/><path class="cls-33" d="M150.42,234.46a2.52,2.52,0,0,0,3.77,1l15.18-11.06a1.42,1.42,0,0,0,.4-1.86l-23.68-41.62a.74.74,0,0,0-.47-.36.76.76,0,0,0-.59.08l-13.92,8.09a2.52,2.52,0,0,0-1,3.27Z"/><path class="cls-12" d="M152.63,226.58a1.32,1.32,0,0,0,.93.68,1.57,1.57,0,0,0,1.18-.28l10-7.29a1.34,1.34,0,0,0,.42-1.74l-18.89-32.39a.69.69,0,0,0-.48-.32.8.8,0,0,0-.6.11l-9.48,6.06a.73.73,0,0,0-.3.93Z"/><path class="cls-4" d="M159.82,227l-.31-.54.06-.34a1.56,1.56,0,0,1,.63-.91l3.37-2.36a1.47,1.47,0,0,1,1.08-.28l.46.13.5.82-.06.34a1.47,1.47,0,0,1-.63.92l-3.37,2.35a1.52,1.52,0,0,1-.87.3A1,1,0,0,1,159.82,227Zm1.33-1-.05-.05-.68.47.76-.35Z"/><path class="cls-34" d="M129.71,205.75c1.94-2.49,1.55-14.05,4.23-11.85s3.74,6.88,4.88,7.82,8,5.85,8.65,9.65c.48,2.74,3.24,10.4,4.73,14.45a3,3,0,0,1-5,3.14C146.79,228.54,127.78,208.24,129.71,205.75Z"/><path class="cls-35" d="M286.1,322.8a.4.4,0,0,0,.39-.36c2.07-28.39.3-50.7-5.59-70.23a.39.39,0,0,0-.48-.26.38.38,0,0,0-.26.49c5.85,19.43,7.61,41.65,5.55,69.94a.39.39,0,0,0,.36.42Z"/><path class="cls-36" d="M217.24,249.37h0a.4.4,0,0,0,.39-.4c0-9.07,3.94-18.39,11.75-27.7a.4.4,0,0,0,0-.56.4.4,0,0,0-.55,0c-7.93,9.46-11.94,19-11.94,28.21A.4.4,0,0,0,217.24,249.37Z"/></g></g></svg>