<?xml version="1.0" encoding="UTF-8"?><svg xmlns="http://www.w3.org/2000/svg" viewBox="0 0 85.93 73.73"><defs><style>.e{fill:#555;}</style></defs><g id="a"/><g id="b"><g id="c"><g id="d"><g><path class="e" d="M0,33.25c1.99-.54,3.84-1.06,5.71-1.52,.28-.07,.69,.13,.95,.32,2.41,1.87,4.79,3.78,7.21,5.63,.3,.23,.83,.38,1.18,.29,6.67-1.75,13.33-3.55,20-5.33,.1-.03,.2-.08,.43-.17C29.64,22.36,23.83,12.28,17.97,2.12c.52-.14,.96-.27,1.41-.4,2.02-.55,4.05-1.07,6.06-1.66,.53-.15,.86-.04,1.25,.33,9.32,8.71,18.65,17.41,27.96,26.13,.54,.51,1,.61,1.7,.42,6.98-1.9,13.97-3.76,20.95-5.66,2.47-.67,4.75-.42,6.62,1.42,3.69,3.6,2.05,9.41-3.04,10.79-9.54,2.58-19.1,5.13-28.65,7.69-13.49,3.61-26.98,7.22-40.46,10.85-.64,.17-.96,.1-1.31-.52-3.32-5.83-6.69-11.63-10.04-17.44-.14-.24-.25-.48-.43-.81Z"/><path class="e" d="M83.24,65.41v8.31H2.81v-8.31H83.24Z"/></g></g></g></g></svg>