<svg xmlns="http://www.w3.org/2000/svg" xmlns:xlink="http://www.w3.org/1999/xlink" width="188.988" height="240.952" viewBox="0 0 188.988 240.952">
  <defs>
    <style>
      .cls-1 {
        stroke: rgba(0,0,0,0);
        stroke-miterlimit: 10;
        fill: url(#linear-gradient);
      }

      .cls-2, .cls-21 {
        fill: #fff;
      }

      .cls-3 {
        fill: url(#linear-gradient-2);
      }

      .cls-4 {
        fill: #67647e;
      }

      .cls-5 {
        fill: #301c2b;
      }

      .cls-21, .cls-26, .cls-6 {
        opacity: 0.1;
      }

      .cls-19, .cls-21, .cls-6 {
        isolation: isolate;
      }

      .cls-7 {
        fill: url(#linear-gradient-3);
      }

      .cls-8 {
        fill: #ffd3d5;
      }

      .cls-9 {
        fill: #bbc2ed;
      }

      .cls-10 {
        fill: url(#linear-gradient-4);
      }

      .cls-11 {
        fill: url(#linear-gradient-5);
      }

      .cls-12 {
        fill: url(#linear-gradient-6);
      }

      .cls-13 {
        fill: url(#linear-gradient-7);
      }

      .cls-14 {
        fill: url(#linear-gradient-8);
      }

      .cls-15 {
        fill: url(#linear-gradient-9);
      }

      .cls-16 {
        fill: url(#linear-gradient-11);
      }

      .cls-17 {
        fill: url(#linear-gradient-12);
      }

      .cls-18 {
        fill: url(#linear-gradient-13);
      }

      .cls-19 {
        opacity: 0.2;
      }

      .cls-20 {
        fill: #ef4f4b;
      }

      .cls-22 {
        fill: url(#linear-gradient-14);
      }

      .cls-23 {
        fill: url(#linear-gradient-15);
      }

      .cls-24 {
        fill: url(#linear-gradient-16);
      }

      .cls-25 {
        fill: url(#linear-gradient-17);
      }

      .cls-27 {
        fill: #dfecfd;
      }

      .cls-28 {
        fill: #535461;
      }

      .cls-29 {
        fill: #c14c52;
      }

      .cls-30 {
        fill: url(#linear-gradient-18);
      }

      .cls-31 {
        fill: url(#linear-gradient-19);
      }

      .cls-32 {
        fill: url(#linear-gradient-20);
      }

      .cls-33 {
        fill: #2730c0;
      }
    </style>
    <linearGradient id="linear-gradient" x1="0.488" y1="0.49" x2="0.963" y2="0.88" gradientUnits="objectBoundingBox">
      <stop offset="0" stop-color="#5e6fdb" stop-opacity="0.2"/>
      <stop offset="1" stop-color="#f6f8ff" stop-opacity="0.2"/>
    </linearGradient>
    <linearGradient id="linear-gradient-2" x1="-6.209" y1="2.007" x2="-6.209" y2="2.007" gradientUnits="objectBoundingBox">
      <stop offset="0" stop-color="gray" stop-opacity="0.251"/>
      <stop offset="0.54" stop-color="gray" stop-opacity="0.122"/>
      <stop offset="1" stop-color="gray" stop-opacity="0.102"/>
    </linearGradient>
    <linearGradient id="linear-gradient-3" x1="0.443" y1="0.138" x2="0.615" y2="0.986" gradientUnits="objectBoundingBox">
      <stop offset="0" stop-color="#31467a"/>
      <stop offset="1" stop-color="#0e204d"/>
    </linearGradient>
    <linearGradient id="linear-gradient-4" x1="0.565" y1="0.181" x2="0.367" y2="0.926" gradientUnits="objectBoundingBox">
      <stop offset="0" stop-color="#fdfefe"/>
      <stop offset="1" stop-color="#e3edf3"/>
    </linearGradient>
    <linearGradient id="linear-gradient-5" x1="0.684" y1="0.052" x2="0.294" y2="0.917" gradientUnits="objectBoundingBox">
      <stop offset="0" stop-color="#ffa77c"/>
      <stop offset="1" stop-color="#ff6a63"/>
    </linearGradient>
    <linearGradient id="linear-gradient-6" x1="0.572" y1="0.106" x2="0.446" y2="0.946" xlink:href="#linear-gradient-5"/>
    <linearGradient id="linear-gradient-7" x1="0.009" y1="0.244" x2="0.976" y2="0.748" gradientUnits="objectBoundingBox">
      <stop offset="0" stop-color="#7a88ff"/>
      <stop offset="1" stop-color="#1c24b4"/>
    </linearGradient>
    <linearGradient id="linear-gradient-8" x1="0.25" y1="0.745" x2="0.853" y2="0.172" xlink:href="#linear-gradient-4"/>
    <linearGradient id="linear-gradient-9" x1="0" y1="0.5" x2="1" y2="0.5" xlink:href="#linear-gradient-5"/>
    <linearGradient id="linear-gradient-11" x1="0.251" y1="0.07" x2="0.844" y2="0.991" xlink:href="#linear-gradient-5"/>
    <linearGradient id="linear-gradient-12" x1="0.891" y1="0.5" x2="0.082" y2="0.5" xlink:href="#linear-gradient-5"/>
    <linearGradient id="linear-gradient-13" x1="0.72" y1="0.173" x2="-0.052" y2="0.91" xlink:href="#linear-gradient-5"/>
    <linearGradient id="linear-gradient-14" x1="0.408" y1="0.368" x2="0.586" y2="0.718" gradientUnits="objectBoundingBox">
      <stop offset="0" stop-color="#fdfefe"/>
      <stop offset="0.175" stop-color="#f6fafd"/>
      <stop offset="0.416" stop-color="#e5f2fb"/>
      <stop offset="0.693" stop-color="#c8e4f7"/>
      <stop offset="0.996" stop-color="#a0d0f3"/>
      <stop offset="1" stop-color="#a0d0f3"/>
    </linearGradient>
    <linearGradient id="linear-gradient-15" x1="0.301" y1="0.178" x2="0.822" y2="0.852" gradientUnits="objectBoundingBox">
      <stop offset="0" stop-color="#bac1ff"/>
      <stop offset="0.23" stop-color="#b3bbff"/>
      <stop offset="0.545" stop-color="#a2abff"/>
      <stop offset="0.907" stop-color="#8592ff"/>
      <stop offset="1" stop-color="#7d8bff"/>
    </linearGradient>
    <linearGradient id="linear-gradient-16" x1="0" y1="0.5" x2="1" y2="0.5" xlink:href="#linear-gradient-14"/>
    <linearGradient id="linear-gradient-17" x1="0.362" y1="0.242" x2="0.831" y2="0.627" gradientUnits="objectBoundingBox">
      <stop offset="0" stop-color="#5a3f53"/>
      <stop offset="1" stop-color="#301a29"/>
    </linearGradient>
    <linearGradient id="linear-gradient-18" x1="0.114" y1="0.057" x2="0.598" y2="0.44" gradientUnits="objectBoundingBox">
      <stop offset="0" stop-color="#00a7f8"/>
      <stop offset="0.999" stop-color="#1e42c2"/>
    </linearGradient>
    <linearGradient id="linear-gradient-19" x1="-0.06" y1="0.041" x2="0.318" y2="0.328" gradientUnits="objectBoundingBox">
      <stop offset="0" stop-color="#00c8ff"/>
      <stop offset="1" stop-color="#0662e2"/>
    </linearGradient>
    <linearGradient id="linear-gradient-20" x1="0" y1="0.5" x2="1" y2="0.5" xlink:href="#linear-gradient-19"/>
  </defs>
  <g id="illustration" transform="translate(0.815 0.934)">
    <path id="Path_9277" data-name="Path 9277" class="cls-1" d="M710.65,199.461c-21.18,31.256-5.6,84.464-29.645,114.008-23.833,29.672-87.823,35.36-108.844,66.71A45.334,45.334,0,0,0,569.4,384.9h156.93a5.485,5.485,0,0,0,5.389-5.576V179.923C723.242,185.568,715.867,191.87,710.65,199.461Z" transform="translate(-569.398 -179.923)"/>
    <path id="Union_20" data-name="Union 20" class="cls-2" d="M1.979,52.944A1.6,1.6,0,0,1,3.58,51.3,1.664,1.664,0,0,1,5.2,52.968a1.605,1.605,0,0,1-1.6,1.643A1.664,1.664,0,0,1,1.979,52.944Zm10,.076a1.284,1.284,0,0,1,1.28-1.314,1.331,1.331,0,0,1,1.3,1.334,1.284,1.284,0,0,1-1.28,1.314A1.331,1.331,0,0,1,11.977,53.02Zm10,.076a.963.963,0,0,1,.96-.986,1,1,0,0,1,.975,1,.963.963,0,0,1-.96.986A1,1,0,0,1,21.975,53.1Zm10,.076a.642.642,0,0,1,.64-.657.665.665,0,0,1,.65.667.642.642,0,0,1-.64.657A.666.666,0,0,1,31.972,53.171Zm19.673.149a.321.321,0,0,1,.32-.329.333.333,0,0,1,.325.333.321.321,0,0,1-.32.328A.333.333,0,0,1,51.645,53.32Zm-9.675-.073a.321.321,0,0,1,.32-.329.333.333,0,0,1,.325.333.321.321,0,0,1-.32.328A.333.333,0,0,1,41.97,53.247ZM1.583,43.012A1.926,1.926,0,0,1,3.5,41.041a2,2,0,0,1,1.95,2,1.926,1.926,0,0,1-1.92,1.971A2,2,0,0,1,1.583,43.012Zm10,.076a1.6,1.6,0,0,1,1.6-1.643,1.664,1.664,0,0,1,1.625,1.667,1.6,1.6,0,0,1-1.6,1.643A1.664,1.664,0,0,1,11.581,43.088Zm10,.076a1.284,1.284,0,0,1,1.28-1.314,1.331,1.331,0,0,1,1.3,1.334,1.284,1.284,0,0,1-1.28,1.314A1.331,1.331,0,0,1,21.579,43.164Zm10,.076a.963.963,0,0,1,.96-.986,1,1,0,0,1,.975,1,.963.963,0,0,1-.96.986A1,1,0,0,1,31.576,43.239Zm10,.076a.642.642,0,0,1,.64-.657.666.666,0,0,1,.65.667.642.642,0,0,1-.64.657A.666.666,0,0,1,41.574,43.315Zm10,.076a.321.321,0,0,1,.32-.328.333.333,0,0,1,.325.333.321.321,0,0,1-.32.329A.333.333,0,0,1,51.572,43.391ZM1.187,33.08a2.247,2.247,0,0,1,2.241-2.3A2.329,2.329,0,0,1,5.7,33.115a2.247,2.247,0,0,1-2.24,2.3A2.33,2.33,0,0,1,1.187,33.08Zm10,.076a1.926,1.926,0,0,1,1.92-1.971,2,2,0,0,1,1.95,2,1.926,1.926,0,0,1-1.92,1.971A2,2,0,0,1,11.185,33.156Zm10,.076a1.6,1.6,0,0,1,1.6-1.643,1.664,1.664,0,0,1,1.625,1.667,1.6,1.6,0,0,1-1.6,1.643A1.664,1.664,0,0,1,21.183,33.232Zm10,.076a1.284,1.284,0,0,1,1.28-1.314,1.331,1.331,0,0,1,1.3,1.334,1.284,1.284,0,0,1-1.28,1.314A1.331,1.331,0,0,1,31.181,33.308Zm10,.076a.963.963,0,0,1,.96-.986,1,1,0,0,1,.975,1,.963.963,0,0,1-.96.986A1,1,0,0,1,41.178,33.383Zm10,.076a.642.642,0,0,1,.64-.657.666.666,0,0,1,.65.667.642.642,0,0,1-.64.657A.666.666,0,0,1,51.176,33.459ZM.792,23.149a2.568,2.568,0,0,1,2.56-2.628,2.662,2.662,0,0,1,2.6,2.667,2.568,2.568,0,0,1-2.56,2.628A2.662,2.662,0,0,1,.792,23.149Zm10,.076a2.247,2.247,0,0,1,2.24-2.3A2.33,2.33,0,0,1,15.3,23.259a2.247,2.247,0,0,1-2.241,2.3A2.329,2.329,0,0,1,10.789,23.225Zm10,.076a1.926,1.926,0,0,1,1.92-1.971,2,2,0,0,1,1.95,2,1.926,1.926,0,0,1-1.92,1.971A2,2,0,0,1,20.787,23.3Zm10,.076a1.6,1.6,0,0,1,1.6-1.643A1.664,1.664,0,0,1,34.01,23.4a1.605,1.605,0,0,1-1.6,1.643A1.664,1.664,0,0,1,30.785,23.376Zm10,.076a1.284,1.284,0,0,1,1.28-1.314,1.331,1.331,0,0,1,1.3,1.334,1.284,1.284,0,0,1-1.28,1.314A1.331,1.331,0,0,1,40.783,23.452Zm10,.076a.963.963,0,0,1,.96-.986,1,1,0,0,1,.975,1,.963.963,0,0,1-.96.986A1,1,0,0,1,50.78,23.528ZM.4,13.217A2.889,2.889,0,0,1,3.277,10.26a3,3,0,0,1,2.925,3,2.889,2.889,0,0,1-2.881,2.957A3,3,0,0,1,.4,13.217Zm10,.076a2.568,2.568,0,0,1,2.56-2.628,2.662,2.662,0,0,1,2.6,2.667,2.568,2.568,0,0,1-2.561,2.628A2.662,2.662,0,0,1,10.394,13.293Zm10,.076a2.247,2.247,0,0,1,2.24-2.3A2.329,2.329,0,0,1,24.906,13.4a2.247,2.247,0,0,1-2.24,2.3A2.33,2.33,0,0,1,20.391,13.369Zm10,.076a1.926,1.926,0,0,1,1.92-1.971,2,2,0,0,1,1.95,2,1.926,1.926,0,0,1-1.92,1.971A2,2,0,0,1,30.389,13.444Zm10,.076a1.6,1.6,0,0,1,1.6-1.643,1.664,1.664,0,0,1,1.625,1.667,1.6,1.6,0,0,1-1.6,1.643A1.664,1.664,0,0,1,40.387,13.52Zm10,.076a1.284,1.284,0,0,1,1.28-1.314,1.331,1.331,0,0,1,1.3,1.334,1.284,1.284,0,0,1-1.28,1.314A1.331,1.331,0,0,1,50.384,13.6ZM0,3.285A3.21,3.21,0,0,1,3.2,0,3.328,3.328,0,0,1,6.45,3.334,3.21,3.21,0,0,1,3.25,6.62,3.328,3.328,0,0,1,0,3.285Zm10,.076A2.889,2.889,0,0,1,12.878.4a3,3,0,0,1,2.925,3,2.889,2.889,0,0,1-2.881,2.957A3,3,0,0,1,10,3.361Zm10,.076A2.568,2.568,0,0,1,22.556.809a2.662,2.662,0,0,1,2.6,2.667A2.568,2.568,0,0,1,22.6,6.1,2.662,2.662,0,0,1,20,3.437Zm10,.076a2.247,2.247,0,0,1,2.241-2.3,2.329,2.329,0,0,1,2.275,2.334,2.247,2.247,0,0,1-2.24,2.3A2.329,2.329,0,0,1,29.993,3.513Zm10,.076a1.926,1.926,0,0,1,1.92-1.971,2,2,0,0,1,1.95,2,1.926,1.926,0,0,1-1.92,1.971A2,2,0,0,1,39.991,3.588Zm10,.076a1.6,1.6,0,0,1,1.6-1.643,1.664,1.664,0,0,1,1.625,1.667,1.6,1.6,0,0,1-1.6,1.643A1.664,1.664,0,0,1,49.989,3.664Z" transform="matrix(0.966, 0.259, -0.259, 0.966, 136.773, 14.478)"/>
    <path id="Union_21" data-name="Union 21" class="cls-2" d="M2.281,51.867a1.584,1.584,0,0,1,1.625-1.6,1.686,1.686,0,0,1,1.667,1.643,1.584,1.584,0,0,1-1.625,1.6A1.686,1.686,0,0,1,2.281,51.867Zm10.2.131a1.267,1.267,0,0,1,1.3-1.28,1.349,1.349,0,0,1,1.334,1.314,1.267,1.267,0,0,1-1.3,1.28A1.349,1.349,0,0,1,12.486,52Zm10.2.131a.95.95,0,0,1,.975-.96,1.012,1.012,0,0,1,1,.986.95.95,0,0,1-.975.96A1.012,1.012,0,0,1,22.69,52.129Zm10.2.131a.634.634,0,0,1,.65-.64.674.674,0,0,1,.667.657.633.633,0,0,1-.65.64A.674.674,0,0,1,32.9,52.261Zm20.08.258a.317.317,0,0,1,.325-.32.337.337,0,0,1,.333.329.317.317,0,0,1-.325.32A.337.337,0,0,1,52.975,52.519ZM43.1,52.392a.317.317,0,0,1,.325-.32.337.337,0,0,1,.333.329.317.317,0,0,1-.325.32A.337.337,0,0,1,43.1,52.392ZM1.825,42.134a1.9,1.9,0,0,1,1.95-1.92,2.023,2.023,0,0,1,2,1.971,1.9,1.9,0,0,1-1.95,1.92A2.023,2.023,0,0,1,1.825,42.134Zm10.2.131a1.584,1.584,0,0,1,1.625-1.6,1.686,1.686,0,0,1,1.667,1.643,1.584,1.584,0,0,1-1.625,1.6A1.686,1.686,0,0,1,12.03,42.265Zm10.2.131a1.267,1.267,0,0,1,1.3-1.28,1.349,1.349,0,0,1,1.334,1.314,1.267,1.267,0,0,1-1.3,1.28A1.349,1.349,0,0,1,22.234,42.4Zm10.2.131a.95.95,0,0,1,.975-.96,1.012,1.012,0,0,1,1,.986.95.95,0,0,1-.975.96A1.012,1.012,0,0,1,32.439,42.527Zm10.2.131a.633.633,0,0,1,.65-.64.674.674,0,0,1,.667.657.634.634,0,0,1-.65.64A.674.674,0,0,1,42.644,42.658Zm10.2.131a.317.317,0,0,1,.325-.32.337.337,0,0,1,.333.328.317.317,0,0,1-.325.32A.337.337,0,0,1,52.848,42.79ZM1.369,32.4a2.217,2.217,0,0,1,2.275-2.24,2.36,2.36,0,0,1,2.334,2.3A2.217,2.217,0,0,1,3.7,34.7,2.36,2.36,0,0,1,1.369,32.4Zm10.2.131a1.9,1.9,0,0,1,1.95-1.92,2.023,2.023,0,0,1,2,1.971,1.9,1.9,0,0,1-1.95,1.92A2.023,2.023,0,0,1,11.573,32.532Zm10.2.131a1.584,1.584,0,0,1,1.625-1.6,1.686,1.686,0,0,1,1.667,1.643,1.584,1.584,0,0,1-1.625,1.6A1.686,1.686,0,0,1,21.778,32.663Zm10.2.131a1.267,1.267,0,0,1,1.3-1.28,1.349,1.349,0,0,1,1.334,1.314,1.267,1.267,0,0,1-1.3,1.28A1.349,1.349,0,0,1,31.983,32.794Zm10.2.131a.95.95,0,0,1,.975-.96,1.011,1.011,0,0,1,1,.986.95.95,0,0,1-.975.96A1.012,1.012,0,0,1,42.187,32.925Zm10.2.131a.634.634,0,0,1,.65-.64.674.674,0,0,1,.667.657.634.634,0,0,1-.65.64A.674.674,0,0,1,52.392,33.057ZM.913,22.667a2.534,2.534,0,0,1,2.6-2.561,2.7,2.7,0,0,1,2.667,2.628,2.534,2.534,0,0,1-2.6,2.56A2.7,2.7,0,0,1,.913,22.667Zm10.2.131a2.217,2.217,0,0,1,2.275-2.241,2.36,2.36,0,0,1,2.334,2.3,2.217,2.217,0,0,1-2.275,2.24A2.36,2.36,0,0,1,11.117,22.8Zm10.2.131a1.9,1.9,0,0,1,1.95-1.92,2.023,2.023,0,0,1,2,1.971,1.9,1.9,0,0,1-1.95,1.92A2.023,2.023,0,0,1,21.322,22.93Zm10.2.131a1.584,1.584,0,0,1,1.625-1.6A1.686,1.686,0,0,1,34.818,23.1a1.584,1.584,0,0,1-1.625,1.6A1.686,1.686,0,0,1,31.527,23.061Zm10.2.131a1.267,1.267,0,0,1,1.3-1.28,1.349,1.349,0,0,1,1.334,1.314,1.267,1.267,0,0,1-1.3,1.28A1.349,1.349,0,0,1,41.731,23.192Zm10.2.131a.95.95,0,0,1,.975-.96,1.012,1.012,0,0,1,1,.986.95.95,0,0,1-.975.96A1.011,1.011,0,0,1,51.936,23.323ZM.456,12.934a2.851,2.851,0,0,1,2.925-2.881,3.035,3.035,0,0,1,3,2.957,2.851,2.851,0,0,1-2.924,2.881A3.035,3.035,0,0,1,.456,12.934Zm10.2.131a2.534,2.534,0,0,1,2.6-2.561,2.7,2.7,0,0,1,2.667,2.628,2.534,2.534,0,0,1-2.6,2.561A2.7,2.7,0,0,1,10.661,13.065Zm10.2.131a2.217,2.217,0,0,1,2.275-2.24,2.36,2.36,0,0,1,2.334,2.3A2.217,2.217,0,0,1,23.2,15.5,2.36,2.36,0,0,1,20.866,13.2Zm10.2.131a1.9,1.9,0,0,1,1.95-1.92,2.023,2.023,0,0,1,2,1.971,1.9,1.9,0,0,1-1.95,1.92A2.023,2.023,0,0,1,31.07,13.328Zm10.2.131a1.584,1.584,0,0,1,1.625-1.6A1.686,1.686,0,0,1,44.567,13.5a1.584,1.584,0,0,1-1.625,1.6A1.686,1.686,0,0,1,41.275,13.459Zm10.2.131a1.267,1.267,0,0,1,1.3-1.28,1.349,1.349,0,0,1,1.334,1.314,1.267,1.267,0,0,1-1.3,1.28A1.349,1.349,0,0,1,51.48,13.59ZM0,3.2A3.167,3.167,0,0,1,3.25,0,3.372,3.372,0,0,1,6.584,3.286a3.167,3.167,0,0,1-3.249,3.2A3.372,3.372,0,0,1,0,3.2Zm10.2.131A2.851,2.851,0,0,1,13.129.452a3.035,3.035,0,0,1,3,2.957,2.851,2.851,0,0,1-2.925,2.881A3.035,3.035,0,0,1,10.2,3.332Zm10.2.131A2.534,2.534,0,0,1,23.009.9a2.7,2.7,0,0,1,2.667,2.628,2.534,2.534,0,0,1-2.6,2.561A2.7,2.7,0,0,1,20.41,3.463Zm10.2.131a2.217,2.217,0,0,1,2.275-2.24,2.36,2.36,0,0,1,2.334,2.3,2.217,2.217,0,0,1-2.275,2.24A2.36,2.36,0,0,1,30.614,3.595Zm10.2.131a1.9,1.9,0,0,1,1.95-1.92,2.023,2.023,0,0,1,2,1.971,1.9,1.9,0,0,1-1.95,1.92A2.023,2.023,0,0,1,40.819,3.726Zm10.2.131a1.584,1.584,0,0,1,1.625-1.6A1.686,1.686,0,0,1,54.315,3.9a1.584,1.584,0,0,1-1.625,1.6A1.686,1.686,0,0,1,51.024,3.857Z" transform="translate(30.145 240.018) rotate(-120)"/>
    <path id="Path_8430" data-name="Path 8430" class="cls-3" d="M710.809,345.277l-.556-1.641.207-.226-1.1-5.581a2.176,2.176,0,0,0,.045-.6,2.624,2.624,0,0,0-.474-1.639l-.219-1.108a1.315,1.315,0,0,1,.017-.263c.451-6.517-2.255-14.4-2.255-14.4v-7.249l-2.091-14.193h0c.04-7.1-2.663-9.581-2.663-9.581s-.221-.054-.582-.167c-.715-1.525-1.934-3.931-3.924-7.794a15.329,15.329,0,0,0-2.861-3.961,11.24,11.24,0,0,0-5.643-3.22,5.318,5.318,0,0,1,.6-.592c.474-.4,1-.712,1.452-1.135a5.606,5.606,0,0,0,1.321-2.11,6.681,6.681,0,0,0,.359-3.65,4.647,4.647,0,0,0-1.988-3.012,4.829,4.829,0,0,1-.839-.563,3.443,3.443,0,0,1-.677-1.255,11.784,11.784,0,0,0-2.65-4.043,2.907,2.907,0,0,0-1.745-1,4.362,4.362,0,0,0-2,.6,8.14,8.14,0,0,1-6.973-.245c-1.047-.553-2.055-1.359-3.238-1.341a2.76,2.76,0,0,0-2.065,1.093c.021-.047.04-.093.064-.139a3.538,3.538,0,0,0-.818,1.771v.066a6.461,6.461,0,0,0,1.855,4.962c-.1.133-.2.265-.3.4a10.2,10.2,0,0,0-1.561,8.32,1.352,1.352,0,0,0-.179.1l-1.345.938-3.061,2.728-1.368.954c1.43-1.085,3.481-2.854,2.99-3.259-.677-.558-7.52,1.474-9.088,3.358a25.366,25.366,0,0,0-2.325,3.8l-.055-.1c-.064.089-.135.194-.214.309l-.031-.059c-.319.443-.822,1.2-1.38,2.056-.2.309-.413.634-.62.961-2.165,2.509-6.332,7.562-6.935,9.989,0,0-4.1,6.846-3.112,10.229s4.96,4.043,7.827,3.012c2.048-.737,7.126-3.259,9.86-4.644l-.271,3.984s-2.237,16.37-3.984,23.01a10.977,10.977,0,0,1-.851,2.44,1.71,1.71,0,0,0-.093.174c-1.768,3.471-4.456,22.969-4.456,22.969s-2.385,2.6,2.212,2.928c3.167.226,5.064,3,5.936,4.706v.037c-.093,2.606-.135,4.829-.076,6.227a97.281,97.281,0,0,1-.618,12.617,16.052,16.052,0,0,0,.135,4.391c.672,4,2.127,12.176,3.315,15.658a24.4,24.4,0,0,1,.861,9.9s1.6,5.072,3.073,6.93a1.4,1.4,0,0,0,.384.309c-.019.15-.038.3-.064.457a8.376,8.376,0,0,1-1.953,4.377c-1.745,1.87-4.165,4.421-4.449,6.279a1.766,1.766,0,0,0,1.376,2.053c3.576,1.319,8.2,0,8.2,0s3.117-1.156,3.117-2.311,1.271-1.154,1.271-1.154l2.048-1.474a16.6,16.6,0,0,0,0-2.292,8.389,8.389,0,0,0-1.316-4.461,4.684,4.684,0,0,1-.656-1.135,4.457,4.457,0,0,1-.155-.466,5.778,5.778,0,0,1,1.549-.182c.369.245,1.476-6.559-1.353-10.148s-1.476-6.81-1.476-6.81-.369-13.118-2.212-14.23c0,0,1.473-3.961,1.353-5.94s-.737-5.94,0-6.81c.348-.413,1.781-3.194,3.186-6,.083-.165.167-.329.238-.488.865.062,1.818.1,2.813.079q.018.243.04.488a17.43,17.43,0,0,0,1.95,7.163v12.5a34.777,34.777,0,0,0,1.6,5.075c.737,1.486-2.293,11.755-2.293,11.755s-1.683,12.56,0,14.137a2.916,2.916,0,0,0,1.23.589q.039.254.074.516a17.364,17.364,0,0,1,.21,4.56,12.437,12.437,0,0,0,.019,4.092c.036.209.062.319.062.319s-.777,4,4.591,3.427,5.942-2.311,5.942-2.311a1.452,1.452,0,0,0-.012-.155,10.929,10.929,0,0,0-.152-1.177,12.973,12.973,0,0,0-1.986-4.85,3.908,3.908,0,0,1-.715-2.064c0-.488-.031-1.032-.057-1.562,0-.164-.017-.329-.026-.488.387-.027.618-.049.618-.049s1.718-3.1,1.6-9.035a45.65,45.65,0,0,1,1.339-11.381s.369-8.91,0-10.148-.78-8.241.164-9.195c.653-.66,1.5-8.777,1.962-13.693.017-.167.031-.329.045-.488,1.2-.049,1.967-.056,1.967-.056s.135-3.639.25-8.6l.521-.209c-.225.37.017,1.379,1.759.872,2.243-.648,5.225-1.207,5.225-1.207s1.6-1.177,1.668-2.012a9.542,9.542,0,0,1,.277-1.263c3.5-1.437,6.373-2.636,6.373-2.636S712.937,348.784,710.809,345.277Zm-12.255-20.752.425,3.493-1.192.378-2.51.176c-.7-6.537.474-17.542.474-17.542l.212-.139C697.025,315.31,698.554,324.525,698.554,324.525Zm-12.533-45.54c-.052-.125-.1-.245-.155-.393l.238.379A.549.549,0,0,0,686.021,278.986Zm9.336,50.192-.043-.349.822-.18,1.3-.139Zm-25.847-48.2c-.35.086-.715.18-1.061.285l.062-.037,1.02-.627a3.147,3.147,0,0,0-.021.367Zm-11.568,9.1a2.564,2.564,0,0,1-1.23.37l1.883-3.758a9.767,9.767,0,0,0,.589-1.061,3.06,3.06,0,0,1,1.7-.174s.456-.1,1.159-.283a7.929,7.929,0,0,0-.453.658c-.21.341-2.831,3.832-3.648,4.251Zm38.844,66.73h0l.591-.234c-.25.189-.463.289-.588.234Z" transform="translate(-548.973 -202.603)"/>
    <path id="Path_8431" data-name="Path 8431" class="cls-4" d="M689.929,284.746c-.758.459-.782,2.422-.665,4,.083,1.153.238,2.1.238,2.1l-4.933,12.357s-1.826-8.8-1.858-12.734a2.992,2.992,0,0,1,.135-.915C683.718,286.713,688.55,285.127,689.929,284.746Z" transform="translate(-561.938 -211.52)"/>
    <path id="Path_8432" data-name="Path 8432" class="cls-4" d="M693.745,284.6s-.135.032-.365.1A.7.7,0,0,1,693.745,284.6Z" transform="translate(-565.39 -211.475)"/>
    <path id="Path_8433" data-name="Path 8433" class="cls-5" d="M683.958,495.472l-1.986,1.474s-1.233,0-1.233,1.147-3.019,2.292-3.019,2.292-4.491,1.31-7.948,0a1.753,1.753,0,0,1-1.333-2.039c.275-1.85,2.623-4.378,4.313-6.232a8.347,8.347,0,0,0,1.894-4.343,13.381,13.381,0,0,0,.135-3.107l7.272-.533a5.087,5.087,0,0,0,0,3.508,4.605,4.605,0,0,0,.637,1.125,8.487,8.487,0,0,1,1.278,4.421A16.637,16.637,0,0,1,683.958,495.472Z" transform="translate(-557.313 -271.923)"/>
    <path id="Path_8434" data-name="Path 8434" class="cls-5" d="M708.152,499.3s-.556,1.72-5.762,2.295-4.46-3.4-4.46-3.4-.026-.112-.06-.316a12.581,12.581,0,0,1-.019-4.064,17.908,17.908,0,0,0-.2-4.525c-.271-1.98-.632-3.746-.632-3.746l8.068.619s.14,1.692.221,3.405c.026.533.048,1.066.055,1.548a3.949,3.949,0,0,0,.7,2.051,13.037,13.037,0,0,1,1.927,4.815,11.327,11.327,0,0,1,.148,1.169C708.147,499.249,708.152,499.3,708.152,499.3Z" transform="translate(-566.566 -272.35)"/>
    <path id="Path_8435" data-name="Path 8435" class="cls-4" d="M683.958,499.406l-1.986,1.474s-1.233,0-1.233,1.147-3.019,2.292-3.019,2.292-4.491,1.31-7.948,0a1.753,1.753,0,0,1-1.333-2.039c.107,0,.21.015.3.017,1.416.047,2.794.44,4.206.57a20.2,20.2,0,0,0,2.412.039,8.242,8.242,0,0,0,1.192-.1,8.582,8.582,0,0,0,2.689-1.182,1.534,1.534,0,0,0,.537-.432,2.161,2.161,0,0,0,.238-.658,4.529,4.529,0,0,1,2.1-2.579,9.04,9.04,0,0,1,1.853-.825A16.647,16.647,0,0,1,683.958,499.406Z" transform="translate(-557.313 -275.863)"/>
    <path id="Path_8436" data-name="Path 8436" class="cls-4" d="M708.565,504.657s-.556,1.719-5.762,2.295-4.46-3.4-4.46-3.4-.026-.112-.059-.316c.238.128.44.245.534.3.474.288.9.683,1.4.95a6.268,6.268,0,0,0,3.967.245c.632-.1,1.264-.2,1.894-.316a4.683,4.683,0,0,0,1.385-.422,8.207,8.207,0,0,0,.934-.653,11.288,11.288,0,0,1,.148,1.169C708.558,504.61,708.565,504.657,708.565,504.657Z" transform="translate(-566.976 -277.711)"/>
    <path id="Path_8437" data-name="Path 8437" class="cls-6" d="M683.958,499.406l-1.986,1.474s-1.233,0-1.233,1.147-3.019,2.292-3.019,2.292-4.491,1.31-7.948,0a1.753,1.753,0,0,1-1.333-2.039c.107,0,.21.015.3.017,1.416.047,2.794.44,4.206.57a20.2,20.2,0,0,0,2.412.039,8.242,8.242,0,0,0,1.192-.1,8.582,8.582,0,0,0,2.689-1.182,1.534,1.534,0,0,0,.537-.432,2.161,2.161,0,0,0,.238-.658,4.529,4.529,0,0,1,2.1-2.579,9.04,9.04,0,0,1,1.853-.825A16.647,16.647,0,0,1,683.958,499.406Z" transform="translate(-557.313 -275.863)"/>
    <path id="Path_8438" data-name="Path 8438" class="cls-6" d="M708.565,504.657s-.556,1.719-5.762,2.295-4.46-3.4-4.46-3.4-.026-.112-.059-.316c.238.128.44.245.534.3.474.288.9.683,1.4.95a6.268,6.268,0,0,0,3.967.245c.632-.1,1.264-.2,1.894-.316a4.683,4.683,0,0,0,1.385-.422,8.207,8.207,0,0,0,.934-.653,11.288,11.288,0,0,1,.148,1.169C708.558,504.61,708.565,504.657,708.565,504.657Z" transform="translate(-566.976 -277.711)"/>
    <path id="Path_8439" data-name="Path 8439" class="cls-6" d="M685.032,484.13a5.086,5.086,0,0,0,0,3.508c-2.086.366-5.975,1.1-7.405.13a13.378,13.378,0,0,0,.135-3.107Z" transform="translate(-560.294 -271.923)"/>
    <path id="Path_8440" data-name="Path 8440" class="cls-6" d="M705.327,489.553a29.029,29.029,0,0,1-7.658-.27c-.271-1.98-.632-3.746-.632-3.746l8.068.619S705.24,487.845,705.327,489.553Z" transform="translate(-566.573 -272.349)"/>
    <path id="Path_8441" data-name="Path 8441" class="cls-7" d="M701.246,396.152s-.125,1.534-.321,3.685c-.446,4.879-1.269,12.934-1.9,13.592-.915.946-.518,7.9-.159,9.126s0,10.072,0,10.072a46.2,46.2,0,0,0-1.311,11.3c.119,5.9-1.549,8.966-1.549,8.966s-7.868.737-9.5-.825,0-14.034,0-14.034,2.939-10.2,2.224-11.669a35.12,35.12,0,0,1-1.549-5.035V408.923a17.774,17.774,0,0,1-1.891-7.11,38.548,38.548,0,0,1-.017-6.279s-1.48,3.119-2.989,6.2c-1.364,2.788-2.751,5.547-3.1,5.955-.715.859-.119,4.79,0,6.756s-1.311,5.9-1.311,5.9c1.789,1.1,2.146,14.125,2.146,14.125a7.121,7.121,0,0,0,1.43,6.756c2.741,3.562,1.668,10.316,1.311,10.072s-7.629,1.843-9.06,0-2.981-6.878-2.981-6.878a24.747,24.747,0,0,0-.834-9.828c-1.15-3.459-2.558-11.571-3.211-15.54a16.332,16.332,0,0,1-.129-4.363,98.689,98.689,0,0,0,.6-12.528c-.055-1.388-.017-3.594.074-6.181.307-8.868,1.238-22.193,1.238-22.193l6.48-4.5,4.267-2.982,1.044.164,19.459,3.087.756,9.89Z" transform="translate(-556.68 -236.228)"/>
    <path id="Path_8442" data-name="Path 8442" class="cls-6" d="M675.3,370.584l-.338,1.931s-2.861,14.125-3.457,21.372-3.1,5.158-3.1,5.158a11.63,11.63,0,0,0-.8-1.754c.307-8.868,1.237-22.193,1.237-22.193Z" transform="translate(-557.052 -237.524)"/>
    <path id="Path_8443" data-name="Path 8443" class="cls-8" d="M702.728,287.426s-13.351,11.013-10.886,8.8c1.349-1.214.432-6.387-.677-10.809-.911-3.648-1.948-6.788-1.948-6.788s11.654-11.234,10.808-2.048a20.264,20.264,0,0,0,.4,7.165C701.24,286.722,702.728,287.426,702.728,287.426Z" transform="translate(-564.043 -207.952)"/>
    <path id="Path_8444" data-name="Path 8444" class="cls-6" d="M701.1,289.508l-8.464,6.82-2.466-2.825s-2.1-.941-2.265.123-.753,7.615.474,8.229a7.52,7.52,0,0,0,4.213.825c1.39-.209,2.939-1.8,3.974-2.417s4.847-3.807,4.847-3.807l1.9-2.742Z" transform="translate(-563.527 -212.962)"/>
    <path id="Path_8445" data-name="Path 8445" class="cls-9" d="M701.1,289.86l-8.463,6.816-2.466-2.825s-2.1-.941-2.265.123-.753,7.615.474,8.229a7.52,7.52,0,0,0,4.213.825c1.39-.209,2.939-1.8,3.974-2.417s4.847-3.807,4.847-3.807l1.9-2.741Z" transform="translate(-563.527 -213.069)"/>
    <path id="Path_8446" data-name="Path 8446" class="cls-6" d="M706.979,396.219s-.125,1.534-.321,3.685a58.255,58.255,0,0,0-11.281,1.386,19.022,19.022,0,0,1-4.353.587,38.542,38.542,0,0,1-.017-6.279s-1.48,3.119-2.99,6.2a30.668,30.668,0,0,1-3.845-.516l1.59-21.291s-.052-7.145.21-13.469l19.459,3.087.756,9.89Z" transform="translate(-562.411 -236.295)"/>
    <path id="Path_8447" data-name="Path 8447" class="cls-6" d="M696.27,296.038s5.781-6.512,7.152-5.478a9.126,9.126,0,0,1,2.257,3.555l-4.7,5.321Z" transform="translate(-566.325 -213.247)"/>
    <path id="Path_8448" data-name="Path 8448" class="cls-9" d="M696.622,295.685s5.781-6.512,7.153-5.478a9.136,9.136,0,0,1,2.258,3.555l-4.7,5.321Z" transform="translate(-566.438 -213.14)"/>
    <path id="Path_8449" data-name="Path 8449" class="cls-6" d="M689.534,300.662l3.324-4.311s-.527-4.076-1.745-3.555-1.578,2.606-1.578,2.606Z" transform="translate(-564.145 -213.945)"/>
    <path id="Path_8450" data-name="Path 8450" class="cls-9" d="M689.161,300.252l3.324-4.311s-.525-4.076-1.745-3.555-1.578,2.606-1.578,2.606Z" transform="translate(-564.025 -213.82)"/>
    <path id="Path_8451" data-name="Path 8451" class="cls-6" d="M700.037,292.592s-6.845,7.615-10.931,8.126c-.371.047-.739.11-1.1.187-1.066.217-3.393,0-3.023-6.294l-.518-1.115-3.18,2.007-1.072,9.006-1.9,23.091-2.82,25.712s8.659-.859,11.086,1.394,3.1-12.279,3.1-12.279l6.634-29.478,7.074-18.96Z" transform="translate(-559.602 -213.897)"/>
    <path id="Path_8452" data-name="Path 8452" class="cls-6" d="M703.373,295.392l-7.074,18.96-6.63,29.475s-.677,14.533-3.1,12.279a7.305,7.305,0,0,0-3.856-1.349,33.908,33.908,0,0,0-5.942-.139c-.791.045-1.29.093-1.29.093L678.3,329l1.9-23.091,1.072-9.006,3.18-2.007.517,1.115c0,.165-.017.327-.024.488-.225,5.817,2.01,6.023,3.044,5.813q.551-.115,1.1-.187c2.894-.367,7.171-4.29,9.42-6.544.927-.928,1.511-1.582,1.511-1.582Z" transform="translate(-559.6 -214.323)"/>
    <path id="Path_8453" data-name="Path 8453" class="cls-10" d="M703.373,294.335,696.3,313.3l-6.63,29.475s-.677,14.533-3.1,12.279a7.305,7.305,0,0,0-3.856-1.349,33.908,33.908,0,0,0-5.942-.139c-.791.045-1.29.093-1.29.093l2.82-25.712,1.9-23.091,1.072-9.006,3.18-2.007.517,1.115c0,.165-.017.327-.024.488-.225,5.817,2.01,6.023,3.044,5.813q.551-.115,1.1-.187c2.894-.366,7.171-4.29,9.42-6.544.927-.928,1.511-1.582,1.511-1.582Z" transform="translate(-559.6 -214.003)"/>
    <path id="Path_8454" data-name="Path 8454" class="cls-6" d="M684.973,295.355c0,.165-.017.327-.024.488l-.055.039c-.84.569-2.187,10.2-2.187,10.2L680.96,330.6l-3.219,18.3s-.421,2.086-.976,5.065c-.791.045-1.29.093-1.29.093l2.82-25.712,1.9-23.091,1.072-9.006,3.18-2.007Z" transform="translate(-559.598 -214.397)"/>
    <path id="Path_8455" data-name="Path 8455" class="cls-11" d="M680.551,292.977s-1.9,1.592-2.746,2.161-2.186,10.2-2.186,10.2l-1.747,24.524-3.219,18.3s-2.861,14.125-3.457,21.372-3.1,5.158-3.1,5.158-1.869-5.65-6.318-5.977-2.146-2.909-2.146-2.909,2.6-19.351,4.32-22.8a1.664,1.664,0,0,1,.091-.172,11,11,0,0,0,.825-2.419c1.7-6.593,3.863-22.846,3.863-22.846l1.353-20.145c3.457-5.815,14.2-5.613,14.2-5.613Z" transform="translate(-552.986 -213.66)"/>
    <path id="Path_8456" data-name="Path 8456" class="cls-6" d="M706.826,294.336l-7.074,18.96-6.639,29.478s-.677,14.533-3.1,12.279a7.305,7.305,0,0,0-3.856-1.349c.029-5,.177-13.963.875-17.732a51.5,51.5,0,0,0,.753-10.44l8.663-19.448s6.515-8.275,6.557-9.46a4.992,4.992,0,0,0-1.034-2.1c.927-.928,1.511-1.582,1.511-1.582Z" transform="translate(-563.053 -214.003)"/>
    <path id="Path_8457" data-name="Path 8457" class="cls-12" d="M684.52,377.877l1.59-21.291s-.119-15.893.875-21.249a51.5,51.5,0,0,0,.753-10.44l8.663-19.448s6.515-8.275,6.557-9.46-3.414-5.122-3.414-5.122,7.546.906,8.54,4.387,6.438,4.832,6.438,4.832,2.623,2.457,2.582,9.5-8.344,12.567-8.344,12.567-1.39,13.266-.2,19.244.157,35.046.157,35.046-7.987.084-12.994,1.435S684.52,377.877,684.52,377.877Z" transform="translate(-562.524 -213.374)"/>
    <path id="Path_8458" data-name="Path 8458" class="cls-13" d="M701.908,364.294l6.118,23.868s.834,2.129,5.125.488,16.767-6.959,16.767-6.959,1.111-1.882-.953-5.367l-6.239-18.834Z" transform="translate(-568.148 -233.558)"/>
    <path id="Path_8459" data-name="Path 8459" class="cls-14" d="M713.612,376.368l9.895-11.209,6.318-2.64L732.416,376l-12.009,13.45Z" transform="translate(-571.935 -235.081)"/>
    <path id="Path_8460" data-name="Path 8460" class="cls-8" d="M726.2,387.762a19.426,19.426,0,0,1-3.721,1.842c-.777.059-3.512,5.384-2.356,5.343s3.846-1.474,3.576-.737-2.024,2.948-2.531,2.737-.744,1.624,1.43.982,5.066-1.2,5.066-1.2,1.549-1.167,1.609-2,1.4-5.19,1.4-5.19Z" transform="translate(-573.949 -242.729)"/>
    <path id="Path_8461" data-name="Path 8461" class="cls-8" d="M659.42,292.779s2.547-5.665,4.067-7.532,8.156-3.886,8.822-3.334-3.338,3.655-4.053,4.053,4.62,4.1,4.73,4.176,4.172-.37,2.086,1.041-8.253,2.85-8.253,2.85a3.035,3.035,0,0,0-2.385.589C663.24,295.51,659.42,292.779,659.42,292.779Z" transform="translate(-554.404 -210.633)"/>
    <path id="Path_8462" data-name="Path 8462" class="cls-6" d="M734.065,387.141a17.262,17.262,0,0,1-1.349,3.276c-.6-.558-6.287-2.489-6.287-2.489l.632-1.005,1.03-1.637s5.074-1.135,5.936,0A2.335,2.335,0,0,1,734.065,387.141Z" transform="translate(-576.081 -241.826)"/>
    <path id="Path_8463" data-name="Path 8463" class="cls-15" d="M734.417,386.789a17.273,17.273,0,0,1-1.349,3.276c-.6-.558-6.287-2.489-6.287-2.489l.632-1.005,1.03-1.637s5.074-1.135,5.937,0A2.335,2.335,0,0,1,734.417,386.789Z" transform="translate(-576.195 -241.719)"/>
    <path id="Path_8464" data-name="Path 8464" class="cls-6" d="M664.012,297.138a8.631,8.631,0,0,1-.646,1.214c-.919,1.491-2.3,3.25-2.3,3.25s-5.422-2.569-5.422-2.683,1.645-2.788,2.982-4.889c.541-.85,1.03-1.6,1.34-2.041,0,0,2.024,4.363,4.022,4.391C664.516,296.386,664.229,296.6,664.012,297.138Z" transform="translate(-553.182 -213.714)"/>
    <path id="Path_8465" data-name="Path 8465" class="cls-15" d="M663.661,297.49a8.62,8.62,0,0,1-.644,1.214c-.918,1.491-2.3,3.25-2.3,3.25s-5.422-2.569-5.422-2.683,1.645-2.788,2.982-4.889c.541-.85,1.03-1.6,1.34-2.041,0,0,2.024,4.363,4.022,4.391C664.168,296.741,663.88,296.957,663.661,297.49Z" transform="translate(-553.07 -213.821)"/>
    <path id="Path_8467" data-name="Path 8467" class="cls-6" d="M734.719,386.791a8.319,8.319,0,0,0-7-.213l1.03-1.637s5.074-1.135,5.936,0A2.333,2.333,0,0,1,734.719,386.791Z" transform="translate(-576.497 -241.721)"/>
    <path id="Path_8468" data-name="Path 8468" class="cls-16" d="M732.637,352.119c-.024.356-.045.712-.068,1.066-.06,1.083-.1,2.157-.127,3.194-.119,4.8.074,8.76.074,8.76a8.418,8.418,0,0,0-7.629-.368L724.5,357v-.139l-.4-3.4L722.8,342.5s-2.462-15.23-3.219-15.8,5.6-12.9,5.6-12.9l3.252,2.737,2.029,14.08v7.2S733.069,345.651,732.637,352.119Z" transform="translate(-573.844 -220.322)"/>
    <path id="Path_8469" data-name="Path 8469" class="cls-6" d="M663.783,297.694l-.763,1.56c-.918,1.491-2.3,3.25-2.3,3.25s-5.422-2.569-5.422-2.683,1.645-2.788,2.982-4.889c.413-.479.663-.762.663-.762C657.346,298.228,663.783,297.694,663.783,297.694Z" transform="translate(-553.07 -214.375)"/>
    <path id="Path_8470" data-name="Path 8470" class="cls-17" d="M664.8,297.1l-2.224,1.149s-2.742,3.807-3.536,4.219a2.425,2.425,0,0,1-1.192.368l2.344-4.79s-6.438.53-4.847-3.523c0,0-7.193,8.107-7.987,11.384,0,0-3.974,6.795-3.021,10.153s4.807,4.012,7.589,2.992,11.325-5.527,11.325-5.527Z" transform="translate(-549.476 -214.481)"/>
    <path id="Path_8471" data-name="Path 8471" class="cls-6" d="M660.192,309.683s-6,6.92-5.522,7.861S659.876,311.076,660.192,309.683Z" transform="translate(-552.859 -219.075)"/>
    <path id="Path_8472" data-name="Path 8472" class="cls-18" d="M698.238,282.461s8.442-2.621,13.21,6.836,4.928,10.112,4.69,10.563-9.5-2.047-10.012-.941,5.245,5.65,5.245,5.65l-22.1,17.687,9.145-20.792a15.531,15.531,0,0,1,2.487-3.948c1.542-1.779,3.653-4.5,2.9-5.343-.658-.737-1.71-2.66-3.13-4.874C699.647,285.679,698,283.849,698.238,282.461Z" transform="translate(-564.061 -210.727)"/>
    <path id="Path_8473" data-name="Path 8473" class="cls-19" d="M698.473,282.813s8.442-2.621,13.21,6.836,4.928,10.112,4.69,10.563-9.5-2.046-10.012-.941,5.245,5.65,5.245,5.65L689.272,322.36l9.384-20.546a15.538,15.538,0,0,1,2.487-3.948c1.542-1.779,3.653-4.5,2.9-5.343-.658-.737-1.71-2.66-3.131-4.874C699.885,286.031,698.232,284.2,698.473,282.813Z" transform="translate(-564.061 -210.833)"/>
    <ellipse id="Ellipse_591" data-name="Ellipse 591" class="cls-20" cx="1.747" cy="1.8" rx="1.747" ry="1.8" transform="translate(134.157 111.491)"/>
    <ellipse id="Ellipse_592" data-name="Ellipse 592" class="cls-20" cx="1.747" cy="1.8" rx="1.747" ry="1.8" transform="translate(134.157 122.669)"/>
    <path id="Path_8477" data-name="Path 8477" class="cls-21" d="M707.662,378.757l4.451,15.641s1.192.573,1.192-.45S707.662,378.757,707.662,378.757Z" transform="translate(-570.01 -240)"/>
    <path id="Path_8478" data-name="Path 8478" class="cls-6" d="M699.987,282.982a9.658,9.658,0,0,1-.88.646c-1.514.982-2.861,2.316-4.79,2.316a9.479,9.479,0,0,1-3.15-.533c-.911-3.648-1.948-6.788-1.948-6.788s11.654-11.234,10.808-2.048C699.729,279.811,699.541,281.354,699.987,282.982Z" transform="translate(-564.044 -207.95)"/>
    <path id="Path_8479" data-name="Path 8479" class="cls-8" d="M701.863,272.024a9.793,9.793,0,1,1-9.789-10.086h0a9.889,9.889,0,0,1,9.789,9.989v.1Z" transform="translate(-561.8 -204.61)"/>
    <path id="Path_8480" data-name="Path 8480" class="cls-22" d="M681.368,285.855a1.166,1.166,0,0,1-.457.553l-1.556.982-2.9,1.82-4.6,2.879a3.425,3.425,0,0,1-.329.185,3.855,3.855,0,0,1-3.488.049,2.929,2.929,0,0,1-1.628-2.091,3.552,3.552,0,0,1,1.245-3.439.169.169,0,0,1,.086-.045,8.354,8.354,0,0,0,2.718-1.37l2.894-2.064,2.585-2.434,1.3-.928a1.188,1.188,0,0,1,1.314-.049C679.9,280.683,682.557,282.752,681.368,285.855Z" transform="translate(-556.642 -210)"/>
    <path id="Path_8481" data-name="Path 8481" class="cls-23" d="M682.526,287.87l-2.9,1.82a11.976,11.976,0,0,0-3.483-5.633l2.966-2.7C681.358,282.508,682.255,286.356,682.526,287.87Z" transform="translate(-559.812 -210.493)"/>
    <path id="Path_8482" data-name="Path 8482" class="cls-24" d="M671.521,295.317a3.855,3.855,0,0,1-3.488.049,2.929,2.929,0,0,1-1.628-2.091,3.552,3.552,0,0,1,1.245-3.439,7.318,7.318,0,0,1,1.979,1.28,5.765,5.765,0,0,1,1.712,2.776A6.021,6.021,0,0,1,671.521,295.317Z" transform="translate(-556.642 -213.062)"/>
    <path id="Path_8483" data-name="Path 8483" class="cls-6" d="M702.724,272.025a10.3,10.3,0,0,1-.911,4.252,5.714,5.714,0,0,0-1.316,2.151,6.777,6.777,0,0,1-1.81,1.874c-.356-.386-1.153-.619-1.3-1.115a13.714,13.714,0,0,1-.141-4c0-.595-.081-1.3-.589-1.582a1.4,1.4,0,0,0-1.369.172,3.6,3.6,0,0,1-1.3.609,2,2,0,0,1-1.768-1.046c-.4-.609-.632-1.324-1.011-1.945a8.89,8.89,0,0,0-1.967-2.064c-.832-.708-1.64-1.491-2.527-2.125-.53-.381-1.164-.558-1.685-.941l-.083-.064a9.605,9.605,0,0,1,13.644-2.409,10.183,10.183,0,0,1,4.136,8.234Z" transform="translate(-562.661 -204.612)"/>
    <path id="Path_8484" data-name="Path 8484" class="cls-25" d="M682.716,259.211a3.114,3.114,0,0,1,2.732-2.771c1.15-.02,2.124.781,3.14,1.329a7.718,7.718,0,0,0,6.765.245,4.114,4.114,0,0,1,1.935-.6,2.861,2.861,0,0,1,1.691.982,11.729,11.729,0,0,1,2.571,4,3.45,3.45,0,0,0,.653,1.246,4.377,4.377,0,0,0,.812.558,4.633,4.633,0,0,1,1.927,2.992,6.763,6.763,0,0,1-.35,3.625,5.538,5.538,0,0,1-1.273,2.1c-.434.418-.953.737-1.409,1.135a5.894,5.894,0,0,0-1.9,5.375c-1.268.3-2.485-.87-2.861-2.151a13.461,13.461,0,0,1-.14-4c0-.595-.081-1.3-.589-1.582a1.4,1.4,0,0,0-1.369.172,3.6,3.6,0,0,1-1.3.608,1.992,1.992,0,0,1-1.768-1.046c-.4-.612-.63-1.324-1.015-1.945A8.837,8.837,0,0,0,689,267.432c-.832-.7-1.641-1.491-2.525-2.125-.532-.381-1.166-.558-1.691-.941C683.2,263.189,682.716,261.065,682.716,259.211Z" transform="translate(-561.94 -202.944)"/>
    <path id="Path_8485" data-name="Path 8485" class="cls-6" d="M693.745,284.6s-.135.032-.365.1A.7.7,0,0,1,693.745,284.6Z" transform="translate(-565.39 -211.475)"/>
    <g id="Group_3852-2" data-name="Group 3852-2" class="cls-26" transform="translate(120.775 54.456)">
      <path id="Path_8486" data-name="Path 8486" d="M697.618,276.888a13.74,13.74,0,0,1-.141-4c0-.595-.081-1.3-.589-1.582a1.406,1.406,0,0,0-1.368.172,3.652,3.652,0,0,1-1.3.609,2,2,0,0,1-1.768-1.041c-.4-.608-.63-1.324-1.011-1.948a9.016,9.016,0,0,0-1.967-2.064c-.832-.7-1.641-1.491-2.525-2.125-.532-.381-1.166-.558-1.691-.941-1.58-1.164-2.067-3.287-2.067-5.141a3.566,3.566,0,0,1,.315-1.012,3.591,3.591,0,0,0-.791,1.754c0,1.858.474,3.977,2.067,5.142.522.386,1.157.558,1.691.941.884.634,1.691,1.42,2.525,2.125a9,9,0,0,1,1.967,2.064c.382.619.609,1.341,1.011,1.948a2,2,0,0,0,1.768,1.041,3.725,3.725,0,0,0,1.3-.609,1.436,1.436,0,0,1,1.369-.172,1.707,1.707,0,0,1,.589,1.582,13.4,13.4,0,0,0,.14,4c.38,1.3,1.588,2.457,2.861,2.151a5.741,5.741,0,0,1-.076-.7A2.973,2.973,0,0,1,697.618,276.888Z" transform="translate(-682.714 -257.818)"/>
      <path id="Path_8487" data-name="Path 8487" d="M712.6,278.741c-.434.422-.953.737-1.409,1.135a5.519,5.519,0,0,0-1.242,1.547,5.187,5.187,0,0,1,.765-.811c.458-.393.975-.708,1.409-1.135A4.855,4.855,0,0,0,713,278.3,4.244,4.244,0,0,1,712.6,278.741Z" transform="translate(-691.526 -264.024)"/>
    </g>
    <path id="Path_8488" data-name="Path 8488" class="cls-6" d="M693.852,403.041a6.526,6.526,0,0,0-.455,1.617c-.057.958.511,1.847.551,2.808a5.181,5.181,0,0,1-1.24,3.021,2.183,2.183,0,0,0,1.941-.928,3.137,3.137,0,0,0,.279-.808c.677-2.774,1.33-5.807.157-8.4a3.815,3.815,0,0,0-.775-1.2A22.44,22.44,0,0,1,693.852,403.041Z" transform="translate(-565.172 -246.18)"/>
    <path id="Path_8489" data-name="Path 8489" class="cls-6" d="M665.313,372.075l-1.981-2.754a6,6,0,0,1-1.142-2.167,11.4,11.4,0,0,1,.06-2.7v-.309a1.821,1.821,0,0,1,.09-.172,10.927,10.927,0,0,0,.825-2.419,2.964,2.964,0,0,1,.658,1.046c.922,2.318.068,5.04.832,7.419A10.926,10.926,0,0,1,665.313,372.075Z" transform="translate(-555.283 -234.788)"/>
    <path id="Path_8490" data-name="Path 8490" class="cls-6" d="M674.285,496.239a8.251,8.251,0,0,0,6.852,1.4" transform="translate(-559.213 -275.592)"/>
    <path id="Path_8491" data-name="Path 8491" class="cls-6" d="M698.553,496.608a4.917,4.917,0,0,0,7.1-.238h0q.112-.122.215-.253" transform="translate(-567.063 -275.555)"/>
    <path id="Path_8492" data-name="Path 8492" class="cls-6" d="M680.713,442.714a4.457,4.457,0,0,1-4.952-2.254" transform="translate(-559.69 -258.693)"/>
    <path id="Path_8493" data-name="Path 8493" class="cls-6" d="M699.793,452.076a6.436,6.436,0,0,0,4.256-1.2" transform="translate(-567.464 -261.847)"/>
    <path id="Path_8494" data-name="Path 8494" class="cls-6" d="M684.748,473.885c-1.271.53-2.4,1.361-3.643,1.961a5.442,5.442,0,0,1-3.979.578" transform="translate(-560.132 -268.819)"/>
    <rect id="Rectangle_2836" data-name="Rectangle 2836" class="cls-27" width="1.49" height="46.87" transform="translate(99.981 132.394)"/>
    <rect id="Rectangle_2837" data-name="Rectangle 2837" class="cls-27" width="1.492" height="46.87" transform="translate(104.608 132.394)"/>
    <ellipse id="Ellipse_594" data-name="Ellipse 594" class="cls-28" cx="2.548" cy="2.626" rx="2.548" ry="2.626" transform="translate(94.135 222.249)"/>
    <path id="Path_8495" data-name="Path 8495" class="cls-29" d="M633.772,433.1s2.542-2.129,4.768-1.394,8.025,1.474,9.06,5.24,0,45.119,0,45.119-4.938,1.324-6.28.656-1.192-6.878-1.192-6.878l-.4-36.674Z" transform="translate(-546.107 -255.994)"/>
    <path id="Path_8496" data-name="Path 8496" class="cls-30" d="M633.772,433.1s2.542-2.129,4.768-1.394,8.025,1.474,9.06,5.24,0,45.119,0,45.119-4.938,1.324-6.28.656-1.192-6.878-1.192-6.878l-.4-36.674Z" transform="translate(-546.107 -255.994)"/>
    <path id="Path_8497" data-name="Path 8497" class="cls-31" d="M660.613,480.377l-10.7,2.457-.112-1.961-.068-38.584a11.893,11.893,0,0,0-4.478-9.317h0a26.123,26.123,0,0,1,9.775,1.9c.9.418,1.814.833,2.747,1.185a3.865,3.865,0,0,1,2.825,3.222c.129,2.408.577,26.256.737,34.937A22.69,22.69,0,0,1,660.613,480.377Z" transform="translate(-549.823 -256.425)"/>
    <path id="Path_9233" data-name="Path 9233" class="cls-32" d="M658.094,364.879c-2.565-3.029-7.168-.634-7.168-.634l.018.017v4h2.485v-1.91a2.465,2.465,0,0,1,2.174-1.469h.009v4.012H658.1v-4.012Z" transform="translate(-551.656 -235.332)"/>
    <ellipse id="Ellipse_595" data-name="Ellipse 595" class="cls-33" cx="2.548" cy="2.626" rx="2.548" ry="2.626" transform="translate(104.974 224.099)"/>
    <ellipse id="Ellipse_596" data-name="Ellipse 596" class="cls-33" cx="2.548" cy="2.626" rx="2.548" ry="2.626" transform="translate(78.658 220.514)"/>
    <path id="Path_8499" data-name="Path 8499" class="cls-32" d="M627.429,432.962s-7.234,1.961-7.629,20.719-.474,20.716-.474,20.716.157,5.4,10.808,8.763h6.515l1.034-43.073S636.489,433.525,627.429,432.962Z" transform="translate(-541.434 -256.422)"/>
    <path id="Path_8500" data-name="Path 8500" class="cls-6" d="M630.284,463.206s-1.853-26.221,8.135-26.335l.938.938S630.612,434.544,630.284,463.206Z" transform="translate(-544.935 -257.606)"/>
    <ellipse id="Ellipse_597" data-name="Ellipse 597" class="cls-33" cx="2.548" cy="2.626" rx="2.548" ry="2.626" transform="translate(87.3 226.388)"/>
  </g>
</svg>
