<svg width="85" height="40" viewBox="0 0 85 40" fill="none" xmlns="http://www.w3.org/2000/svg">
<path d="M41.8657 0H42.5289V26.4994H41.8657V0ZM29.7308 16.1847H24.6087L27.1768 9.48221L29.7308 16.1847ZM34.3025 20.9258L28.362 5.43252H27.9952L22.0547 20.9258H22.8025L24.3688 16.8337H29.9989L31.5651 20.9258H34.3025ZM50.2614 20.8975H51.0798L55.5246 14.308L59.8001 20.8975H62.9326L57.1755 12.1773L61.6203 5.75706H60.7878L56.6676 11.6834L52.886 5.75706H49.9228L55.186 13.6589L50.2614 20.8975Z" fill="black"/>
<path d="M25.7233 33.5881L29.6742 39.0206H29.9988V33.0942H29.6742V37.2145L26.5417 33.0942H25.554V39.0206H25.7233V33.5881ZM31.9883 33.0942H32.9761V39.0206H31.9883V33.0942ZM68.5202 33.5881L72.4712 39.0206H72.7957V33.0942H72.4712V37.2145L69.3387 33.0942H68.3509V39.0206H68.5202V33.5881ZM7.42209 35.8175V33.3482H7.91595C8.77669 33.3482 9.14356 33.8844 9.14356 34.5758C9.14356 35.2672 8.76258 35.8034 7.91595 35.8034H7.42209V35.8175ZM9.38344 38.9924H10.5123L8.81902 36.0151C9.6092 35.8458 10.1877 35.3942 10.1877 34.5899C10.1877 33.5881 9.28466 33.0942 8.18405 33.0942H6.42024V38.9783H7.42209V36.0715H7.78896L9.38344 38.9924ZM84.6626 38.682H82.0239V36.0433H83.8301V35.7188H82.0239V33.4188H84.6626V33.0942H81.0362V39.0206H84.6626V38.682ZM42.684 38.682H40.0454V36.0433H41.8515V35.7188H40.0454V33.4188H42.684V33.0942H39.0577V39.0206H42.684V38.682ZM57.0061 33.0942H56.0184V39.0206H57.0061V36.0574H59.4755V39.0206H60.4632V33.0942H59.4755V35.8881H57.0061V33.0942ZM12.2337 33.0942V39.0206H12.5583V33.5881L14.5337 38.8513H14.8583L16.6644 33.5881V39.0206H17.6521V33.0942H16.6644L15.0135 37.3697L13.3767 33.0942H12.2337ZM49.7816 36.0433C49.7816 37.7366 50.854 39.1194 52.3497 39.1194C53.2528 39.1194 53.8736 38.6114 54.1982 38.1175L53.9724 37.9623C53.662 38.3856 53.1399 38.8654 52.4202 38.8654C51.2067 38.8654 50.854 37.3274 50.854 36.0433C50.854 34.7593 51.2067 33.2212 52.4202 33.2212C53.1399 33.2212 53.662 33.6869 53.9724 34.1243L54.1982 33.9691C53.8736 33.4752 53.2528 32.9672 52.3497 32.9672C50.854 32.9672 49.7816 34.3501 49.7816 36.0433ZM75.6742 36.0433C75.6742 34.7593 76.027 33.2212 77.2546 33.2212C77.9742 33.2212 78.5104 33.6869 78.8067 34.1243L79.0325 33.9691C78.708 33.4752 78.073 32.9672 77.1699 32.9672C75.6601 32.9672 74.5877 34.336 74.5877 36.0433C74.5877 37.7366 75.6883 39.1194 77.1982 39.1194C78.5528 39.1194 79.2301 37.7507 79.2301 37.7507V36.6501H77.4239V36.9182H78.2423V38.0611C78.2423 38.3998 77.8896 38.8795 77.2546 38.8795C76.027 38.8654 75.6742 37.3274 75.6742 36.0433ZM1.98957 34.5335L2.9773 37.1439H0.98773L1.98957 34.5335ZM3.69693 38.9783H4.76933L2.45521 32.9531H2.31411L0 38.9783H0.282209L0.888957 37.3838H3.07607L3.69693 38.9783ZM21.2503 34.5335L22.238 37.1439H20.2485L21.2503 34.5335ZM22.9436 38.9783H24.016L21.7018 32.9672H21.5607L19.2607 38.9783H19.5429L20.1497 37.3838H22.3368L22.9436 38.9783ZM64.0049 34.5335L64.9926 37.1439H63.0031L64.0049 34.5335ZM65.7123 38.9783H66.7847L64.4706 32.9531H64.3294L62.0153 38.9783H62.2975L62.9043 37.3838H65.0914L65.7123 38.9783ZM43.9963 39.0206H44.3209L45.9718 36.382L47.7779 39.0206H48.935L46.635 35.5636L48.4411 33.0942H48.1166L46.4656 35.3942L44.984 33.0942H43.827L45.8025 36.2267L43.9963 39.0206Z" fill="black"/>
</svg>
