<svg width="98" height="41" viewBox="0 0 98 41" fill="none" xmlns="http://www.w3.org/2000/svg">
<g clip-path="url(#clip0_279_3072)">
<path d="M45.2032 30.1008C45.2032 30.6619 45.2032 31.223 45.2032 31.7842C45.2032 34.1038 45.2032 36.4215 45.2032 38.7412C45.2032 39.4914 45.3003 39.5991 46.0344 39.6804C46.7401 39.7577 46.7664 39.8024 46.6067 40.7396C46.0789 40.7396 45.5389 40.7396 44.999 40.7396C44.2952 40.7396 43.5895 40.7356 42.8857 40.7396C42.6613 40.7396 42.4409 40.7437 42.4813 40.4286C42.5157 40.1663 42.2973 39.7699 42.8129 39.7292C42.9889 39.715 43.1608 39.6764 43.3367 39.6621C43.7654 39.6235 43.9616 39.3877 43.9596 38.9628C43.9596 35.7913 43.9555 32.6177 43.9596 29.4462C43.9596 29.1168 43.8402 28.9257 43.4884 28.9196C43.3286 28.9176 43.1709 28.8871 43.0111 28.8688C42.5056 28.8099 42.3114 28.511 42.4954 28.0312C42.5278 27.9478 42.6835 27.8625 42.7826 27.8604C43.8706 27.8482 44.9606 27.8462 46.0506 27.8564C46.459 27.8604 46.6047 28.1654 46.728 28.5008C47.7715 31.3369 48.821 34.1709 49.8706 37.007C49.9312 37.1717 50 37.3323 50.1112 37.6067C50.3357 37.0192 50.5298 36.5252 50.7159 36.0271C51.6643 33.496 52.6148 30.9669 53.5511 28.4337C53.7027 28.0251 53.9535 27.8482 54.3782 27.8523C55.3873 27.8604 56.3964 27.8604 57.4055 27.8503C57.6643 27.8482 57.818 27.9174 57.7735 28.1999C57.7351 28.448 57.9353 28.7895 57.452 28.8607C56.3741 29.0213 56.3761 29.0396 56.3761 30.1394C56.3761 33.0223 56.3761 35.9051 56.3761 38.7879C56.3761 39.6296 56.3761 39.6215 57.2053 39.713C57.4641 39.7414 57.7998 39.654 57.7917 40.1338C57.7816 40.7376 57.8099 40.7396 57.1891 40.7396C55.9717 40.7396 54.7543 40.7356 53.5369 40.7437C53.2639 40.7437 53.0576 40.7254 53.0799 40.3696C53.1001 40.0748 52.999 39.7739 53.4843 39.7252C54.5035 39.6194 54.5015 39.593 54.5015 38.5297C54.5015 35.7913 54.5015 33.0548 54.5015 30.3163C54.5015 30.1577 54.5015 29.9992 54.4247 29.8182C54.3741 29.9036 54.3114 29.9849 54.277 30.0764C53.0273 33.3862 51.7776 36.6939 50.5339 40.0057C50.3923 40.3859 50.2467 40.7356 49.7674 40.7396C49.274 40.7437 49.1426 40.3615 49.0071 39.9955C47.8241 36.7976 46.641 33.5997 45.458 30.4017C45.4156 30.2899 45.363 30.1821 45.3145 30.0724L45.2012 30.1008H45.2032Z" fill="black"/>
<path d="M39.7088 3.61875C38.5662 3.55166 37.5996 3.17759 36.7867 2.43553C36.2265 1.92524 35.82 1.32347 35.7351 0.542786C35.6967 0.176842 35.8362 0.00810086 36.2184 0.00810086C38.908 0.016233 41.5996 -0.0284936 44.2892 0.0284311C45.8969 0.0629925 47.3306 0.628173 48.3883 1.92524C48.6188 2.20783 48.7867 2.53922 49.0051 2.87873C49.2133 2.55548 49.3893 2.22003 49.6239 1.93338C50.6673 0.646471 52.091 0.0833228 53.6785 0.0426623C56.3822 -0.0264606 59.09 0.018266 61.7957 0.00810086C62.2144 0.00810086 62.3256 0.213436 62.271 0.591579C62.0971 1.77073 61.3407 2.52498 60.364 3.03934C59.7553 3.36056 59.0536 3.5049 58.3903 3.72854C58.4348 3.757 58.5561 3.83425 58.6754 3.91151C61.4823 5.77376 62.7462 8.41872 62.3418 11.7488C61.9596 14.9061 60.2042 17.116 57.2154 18.2138C56.4388 18.5005 55.5592 18.5452 54.7219 18.6143C53.814 18.6896 52.8958 18.6184 51.9879 18.6957C50.9808 18.781 50.0607 19.1307 49.2922 19.8382C49.183 19.9399 48.8291 19.9521 48.726 19.8565C47.7047 18.901 46.459 18.6733 45.1325 18.6225C43.8726 18.5737 42.5824 18.6326 41.363 18.3724C38.3539 17.732 35.9312 14.8553 35.6421 11.7752C35.3145 8.28658 36.6026 5.59282 39.5915 3.75293C39.6158 3.73667 39.6319 3.70617 39.7108 3.61469L39.7088 3.61875ZM53.6866 17.8987C54.2791 17.8987 54.8756 17.9475 55.4621 17.8906C59.5713 17.4921 62.4651 13.3834 61.5733 9.23193C60.8534 5.87744 58.0789 3.52727 54.8999 3.59842C52.6512 3.64925 50.7401 4.40147 49.3974 6.31658C49.1001 6.73944 48.91 6.71302 48.5602 6.24542C46.8554 3.95827 43.6866 2.97835 40.9929 3.90744C38.1173 4.89752 36.275 7.65227 36.2851 10.9417C36.2973 14.4243 38.9828 17.484 42.4226 17.8723C43.2619 17.9678 44.1173 17.9129 44.9646 17.9211C46.0627 17.9312 47.1749 18.0044 48.1132 18.6103C48.7583 19.027 49.2113 19.025 49.8665 18.6184C51.0233 17.9007 52.366 17.9028 53.6866 17.9007V17.8987ZM48.6309 5.06423C48.7199 3.51507 48.0182 2.15091 46.7624 1.44138C45.9252 0.967688 45.0192 0.723725 44.0546 0.721692C41.7189 0.717626 39.3832 0.721692 37.0475 0.721692C36.8797 0.721692 36.7118 0.737957 36.5035 0.748122C36.5521 0.892466 36.5743 0.983952 36.6148 1.06527C36.6734 1.17912 36.7361 1.29094 36.8129 1.39259C37.4965 2.30745 38.4186 2.82791 39.5409 2.89296C40.4975 2.94989 41.4621 2.94176 42.4186 2.87263C44.0647 2.75472 45.6097 3.05154 47.0273 3.89321C47.5834 4.22256 48.0789 4.65559 48.6289 5.06017L48.6309 5.06423ZM49.4378 5.09879C51.0495 3.4988 52.9565 2.81164 55.1365 2.8462C56.1436 2.86247 57.1527 2.895 58.1598 2.90923C59.2235 2.92346 60.1355 2.53108 60.8777 1.7809C61.1446 1.51051 61.3266 1.15473 61.5955 0.770485C61.3852 0.744056 61.3084 0.725758 61.2336 0.725758C58.7523 0.725758 56.2669 0.668834 53.7877 0.754221C52.9687 0.782683 52.1132 1.06527 51.363 1.41902C49.9939 2.06552 49.1951 3.67974 49.4378 5.10083V5.09879Z" fill="black"/>
<path d="M25.7695 40.7376C24.277 40.7376 22.8049 40.7437 21.3347 40.7234C21.2396 40.7234 21.0698 40.5079 21.0718 40.394C21.0718 40.1745 20.8938 39.839 21.2922 39.7618C21.543 39.713 21.7998 39.7028 22.0566 39.6845C22.3842 39.6581 22.5501 39.4873 22.5501 39.1559C22.5501 37.7226 22.5581 36.2914 22.5379 34.8581C22.5379 34.7483 22.3519 34.5511 22.2508 34.5491C20.2851 34.5308 18.3195 34.5349 16.3013 34.5349C16.3013 35.3867 16.3013 36.2019 16.3013 37.0192C16.3013 37.6962 16.3155 38.3712 16.2973 39.0482C16.2851 39.4731 16.457 39.6825 16.8797 39.6886C17.0071 39.6886 17.1345 39.7109 17.2619 39.7231C17.7513 39.776 17.9535 40.1013 17.7715 40.5709C17.7432 40.6421 17.64 40.7315 17.5713 40.7315C16.0708 40.7417 14.5723 40.7376 13.0111 40.7376C13.0111 40.4916 13.0233 40.3026 13.0091 40.1155C12.9869 39.8411 13.1122 39.7536 13.3691 39.7374C14.6208 39.6581 14.3923 39.4527 14.3964 38.5338C14.4044 35.6693 14.4004 32.8027 14.3984 29.9382C14.3984 28.9969 14.3984 28.9847 13.4742 28.877C13.1547 28.8404 13.001 28.759 12.997 28.385C12.9929 27.958 13.1183 27.8381 13.543 27.8482C14.8069 27.8767 16.0728 27.8625 17.3367 27.8543C17.6057 27.8543 17.818 27.8625 17.7917 28.2223C17.7715 28.513 17.8847 28.8363 17.3913 28.8648C16.1517 28.9359 16.3054 29.0132 16.3013 30.1008C16.2973 31.1905 16.3013 32.2802 16.3013 33.4025H22.5056C22.5217 33.2866 22.5501 33.1788 22.5501 33.0711C22.5541 31.9123 22.548 30.7534 22.5581 29.5946C22.5622 29.1656 22.4065 28.9176 21.9515 28.9115C21.8241 28.9115 21.6967 28.8831 21.5693 28.8688C21.1041 28.816 20.8716 28.4175 21.088 28.0089C21.1325 27.9275 21.2922 27.8645 21.3974 27.8645C22.7583 27.8543 24.1193 27.8604 25.4803 27.8543C25.7169 27.8543 25.8645 27.9316 25.82 28.1857C25.7796 28.4195 26.004 28.7672 25.5632 28.8465C25.5167 28.8546 25.4682 28.8566 25.4196 28.8648C24.4287 29.0213 24.4328 29.0213 24.4328 30.0236C24.4348 33.002 24.4328 35.9803 24.4328 38.9567C24.4328 39.53 24.5258 39.6357 25.0718 39.6967C25.6313 39.7604 25.8618 40.1087 25.7634 40.7417L25.7695 40.7376Z" fill="black"/>
<path d="M67.3266 33.8294C67.638 33.9066 67.8665 33.9514 68.089 34.0205C69.7412 34.5226 70.5339 36.0698 70.1011 37.9056C69.7472 39.41 68.6855 40.1521 67.2983 40.4997C66.6997 40.6502 66.0667 40.7152 65.4459 40.7274C63.814 40.7579 62.18 40.7356 60.546 40.7396C60.2993 40.7396 60.0789 40.7396 60.1213 40.3981C60.1557 40.1317 59.9656 39.7861 60.4833 39.7272C61.5005 39.6113 61.4985 39.5849 61.4985 38.5318C61.4985 35.5696 61.4985 32.6075 61.5005 29.6454C61.5005 29.0253 61.4601 29.0111 60.8311 28.8871C60.5844 28.8383 60.1719 29.0335 60.1193 28.5374C60.0546 27.9153 60.1052 27.8462 60.7422 27.8563C62.6148 27.8848 64.4853 27.9092 66.3579 27.958C66.6714 27.9661 66.9909 28.0617 67.2942 28.1532C68.6208 28.5557 69.2922 29.3567 69.4135 30.6497C69.5369 31.9692 69.0091 32.9287 67.8079 33.5691C67.6724 33.6423 67.5349 33.7155 67.3246 33.8294H67.3266ZM63.4216 34.7686C63.4216 36.332 63.4156 37.8446 63.4338 39.3551C63.4338 39.4548 63.6137 39.6418 63.6987 39.6357C64.6532 39.5706 65.6239 39.5666 66.5521 39.3673C67.6461 39.1335 68.1517 38.2797 68.1395 37.0334C68.1274 35.8278 67.6218 35.1325 66.5298 34.8174C65.5187 34.5267 64.5035 34.6446 63.4216 34.7707V34.7686ZM63.4237 28.8363C63.4237 30.422 63.4176 31.8817 63.4378 33.3394C63.4378 33.435 63.6663 33.62 63.7715 33.6098C64.5278 33.5265 65.3084 33.4919 66.0283 33.2683C66.9869 32.9714 67.4358 32.0525 67.3488 30.9059C67.276 29.9382 66.7321 29.2632 65.7371 29.0721C65.0071 28.9318 64.2548 28.9176 63.4216 28.8383L63.4237 28.8363Z" fill="black"/>
<path d="M89.3873 35.1652C89.3873 35.6633 89.3873 36.1757 89.3873 36.6859C89.3873 37.4585 89.3974 38.2331 89.3832 39.0056C89.3751 39.4692 89.5612 39.6928 90.0324 39.6928C90.3013 39.6928 90.5683 39.7456 90.8615 39.7782V40.689C90.7482 40.7073 90.6411 40.7378 90.5359 40.7378C89.2073 40.7418 87.8766 40.7378 86.548 40.7439C86.2771 40.7439 86.0667 40.7276 86.1011 40.3657C86.1274 40.077 86.0061 39.7578 86.5056 39.7274C87.5389 39.6623 87.5005 39.6359 87.4985 38.5909C87.4944 35.6125 87.4965 32.6321 87.4944 29.6537C87.4944 29.0499 87.4277 29.0072 86.8251 28.8893C86.5743 28.8405 86.1658 29.0357 86.1031 28.5477C86.0263 27.9317 86.091 27.8545 86.7139 27.8545C87.9151 27.8545 89.1163 27.8545 90.3175 27.8545C90.4894 27.8545 90.6613 27.8687 90.8595 27.8769V28.7998C90.5339 28.8405 90.2204 28.8934 89.905 28.9157C89.5713 28.9401 89.3974 29.115 89.3954 29.4362C89.3873 30.965 89.3913 32.4918 89.3913 34.0633C89.9313 34.0877 90.2346 33.7604 90.5177 33.4168C91.3043 32.4634 92.0809 31.4997 92.8615 30.5401C93.2558 30.0563 93.6481 29.5724 94.1173 28.997C93.7735 28.9381 93.5207 28.871 93.2659 28.8568C92.7401 28.8283 92.9606 28.4359 92.9242 28.1757C92.8817 27.8728 93.0779 27.8484 93.3145 27.8484C94.4186 27.8545 95.5248 27.8525 96.6289 27.8484C96.8574 27.8484 97.0657 27.8647 97.0314 28.1716C96.999 28.44 97.1891 28.8649 96.6815 28.8527C95.9191 28.8344 95.4783 29.2654 95.0394 29.8225C94.095 31.0199 93.0981 32.1747 92.1092 33.3376C91.9292 33.549 91.9272 33.6933 92.0849 33.919C93.1567 35.4438 94.2103 36.9807 95.2781 38.5096C95.8382 39.3126 96.6006 39.768 97.5915 39.7477C97.9697 39.7395 98.0081 39.9225 97.998 40.2214C97.9879 40.506 98.0263 40.7744 97.5956 40.75C97.0536 40.7195 96.5056 40.7662 95.9636 40.7195C94.9909 40.6361 94.2063 40.2295 93.638 39.3797C92.8271 38.164 91.9616 36.9868 91.1122 35.7955C90.6734 35.1815 90.2285 35.0148 89.3852 35.1632L89.3873 35.1652Z" fill="black"/>
<path d="M32.821 28.8059C32.4894 28.8446 32.1739 28.8934 31.8584 28.9178C31.5288 28.9442 31.365 29.1068 31.365 29.4423C31.3691 31.7925 31.3711 34.1426 31.3832 36.4928C31.3832 36.7632 31.4358 37.0377 31.4904 37.306C31.7735 38.7047 32.5703 39.4244 33.9858 39.5566C34.271 39.583 34.5622 39.585 34.8493 39.5789C36.6006 39.5383 37.543 38.6905 37.7674 36.9482C37.8119 36.5985 37.8322 36.2428 37.8322 35.889C37.8382 33.8926 37.8342 31.8961 37.8362 29.9017C37.8362 29.1272 37.7432 29.0377 36.9869 28.9076C36.7422 28.8649 36.3741 28.9869 36.3337 28.5234C36.2831 27.9338 36.3377 27.8545 36.9302 27.8545C37.9393 27.8545 38.9484 27.8545 39.9555 27.8545C40.1274 27.8545 40.2993 27.8545 40.4934 27.8545C40.5096 28.0192 40.5116 28.129 40.5339 28.2347C40.639 28.7267 40.3862 28.869 39.9474 28.9198C39.1244 29.0154 39.0657 29.1007 39.0637 29.916C39.0637 31.9612 39.0637 34.0044 39.0637 36.0496C39.0637 36.2102 39.0637 36.3708 39.0637 36.5335C39.0556 39.1825 37.9697 40.4918 35.361 40.8943C34.0121 41.1017 32.6754 41 31.4196 40.384C30.368 39.8676 29.7209 39.026 29.5531 37.861C29.4641 37.243 29.4318 36.6107 29.4277 35.9846C29.4136 33.8763 29.4216 31.7681 29.4216 29.6578C29.4216 29.0438 29.3529 29.0052 28.7543 28.8913C28.4975 28.8425 28.0566 29.056 28.0344 28.501C28.0081 27.8728 28.0081 27.8565 28.6451 27.8565C29.7816 27.8565 30.9181 27.8565 32.0546 27.8565C32.6289 27.8565 32.8851 28.1737 32.8231 28.808L32.821 28.8059Z" fill="black"/>
<path d="M84.5885 40.7397C83.1223 40.7397 81.7492 40.7458 80.3741 40.7254C80.2811 40.7254 80.1153 40.5038 80.1173 40.388C80.1193 40.1684 79.9393 39.8431 80.3397 39.7557C80.4328 39.7354 80.5298 39.7293 80.6249 39.7211C81.5106 39.6479 81.4722 39.6927 81.1648 38.8652C80.8554 38.0378 80.5318 37.2144 80.2326 36.3829C80.1416 36.1267 80.0364 35.9946 79.731 36.0007C78.546 36.021 77.361 36.0149 76.1759 36.0048C75.9191 36.0027 75.7775 36.0617 75.6825 36.3321C75.3509 37.2876 74.9929 38.237 74.6269 39.1803C74.4954 39.5178 74.5784 39.6642 74.9302 39.6866C75.2336 39.7069 75.5349 39.7435 75.8686 39.776V40.7092C74.6087 40.7092 73.367 40.7092 72.1254 40.7092C71.907 40.0423 71.9717 39.8675 72.544 39.5971C73.09 39.3389 73.3832 38.8774 73.5854 38.3326C74.7867 35.0919 75.9919 31.8533 77.1972 28.6147C77.4439 27.954 77.7108 27.7263 78.2386 27.7222C78.7381 27.7182 79.0192 27.9459 79.2578 28.5761C80.4833 31.7903 81.7108 35.0025 82.9221 38.2228C83.1871 38.9262 83.5935 39.4426 84.3134 39.713C84.819 39.9041 84.4874 40.3432 84.5864 40.7417L84.5885 40.7397ZM77.9596 30.2574L77.8504 30.2777C77.3145 31.7964 76.7806 33.3171 76.2285 34.8846H79.6704C79.0859 33.3049 78.5238 31.7801 77.9616 30.2574H77.9596Z" fill="black"/>
<path d="M10.4429 31.3391C9.20931 31.4875 9.16279 31.4916 9.0455 30.3246C8.96866 29.5561 8.60466 29.2105 7.8908 29.0154C5.42569 28.3465 3.14257 29.5785 2.43883 32.0547C1.99798 33.608 2.02225 35.1835 2.55208 36.7144C3.37311 39.0849 5.36502 39.9205 7.50253 39.7294C7.67847 39.7131 7.85036 39.6786 8.02427 39.6542C8.48332 39.5891 8.78666 39.3716 8.8635 38.8735C8.92821 38.4608 9.0637 38.0603 9.12033 37.6476C9.17695 37.241 9.33671 37.0356 9.77149 37.1068C9.95754 37.1373 10.1517 37.1109 10.3802 37.1109C10.3802 38.0176 10.4287 38.8959 10.3499 39.7619C10.3256 40.0262 9.98989 40.4023 9.72498 40.4816C7.63802 41.0936 5.52882 41.3152 3.49849 40.3027C1.19515 39.1479 -0.127398 36.6209 0.0101151 33.8987C0.0950494 32.2031 0.604655 30.6804 1.83418 29.4586C3.26391 28.0375 5.03135 27.5495 6.97473 27.6451C7.7998 27.6858 8.6269 27.8464 9.43782 28.0192C10.1456 28.1696 10.4368 28.6067 10.4409 29.3427C10.4449 29.9993 10.4409 30.656 10.4409 31.3391H10.4429Z" fill="black"/>
<path d="M60.1314 10.6125C60.1355 13.4933 57.8362 15.8211 54.9929 15.8129C52.1375 15.8068 49.8423 13.4953 49.8382 10.6186C49.8342 7.75606 52.1355 5.45671 55.0131 5.45264C57.8463 5.44858 60.1274 7.74589 60.1314 10.6125ZM54.9788 15.0953C57.4358 15.0993 59.4681 13.0663 59.456 10.6165C59.4439 8.18096 57.4317 6.16013 55.0071 6.14794C52.5844 6.13574 50.542 8.16673 50.546 10.5881C50.55 13.0948 52.5157 15.0932 54.9788 15.0953Z" fill="black"/>
<path d="M37.9414 10.6755C37.9171 7.83331 40.1759 5.47907 42.9505 5.45671C45.8119 5.43435 48.2002 7.67474 48.2245 10.4132C48.2528 13.4607 46.0404 15.7865 43.09 15.8109C40.2669 15.8333 37.9636 13.538 37.9393 10.6755H37.9414ZM43.0556 15.0953C45.4863 15.1217 47.5005 13.1334 47.5308 10.6795C47.5612 8.24398 45.5733 6.18453 43.1547 6.14997C40.7118 6.11338 38.6471 8.1342 38.6269 10.5799C38.6067 13.0562 40.5804 15.0688 43.0556 15.0953Z" fill="black"/>
<path d="M49.001 17.6953C48.3458 16.9594 47.6785 16.3068 47.6967 15.274C47.7128 14.4506 48.2224 13.92 48.9929 13.9098C49.7412 13.8997 50.269 14.3937 50.3195 15.1988C50.3862 16.2763 49.6825 16.9472 48.999 17.6953H49.001Z" fill="black"/>
<path d="M58.2184 10.6428C58.2164 12.4481 56.7786 13.8855 54.9767 13.8834C53.1931 13.8834 51.7553 12.4217 51.7614 10.6143C51.7654 8.81105 53.2133 7.36557 55.0071 7.36964C56.8028 7.37574 58.2224 8.81918 58.2204 10.6408L58.2184 10.6428ZM54.9949 13.1638C56.3883 13.1597 57.5329 12.0131 57.5308 10.6245C57.5268 9.24002 56.3701 8.0812 54.9889 8.07916C53.6077 8.07713 52.4611 9.23595 52.4651 10.6326C52.4692 12.0456 53.5915 13.1699 54.9949 13.1658V13.1638Z" fill="black"/>
<path d="M43.0758 7.37166C44.8554 7.36556 46.3215 8.83747 46.3195 10.6225C46.3155 12.4237 44.8675 13.8834 43.0859 13.8834C41.3023 13.8834 39.8443 12.4258 39.8342 10.6326C39.8261 8.8517 41.2902 7.37573 43.0758 7.36963V7.37166ZM43.0779 13.1637C44.4732 13.1739 45.6036 12.0395 45.6057 10.6286C45.6077 9.24611 44.4934 8.10355 43.1264 8.08525C41.729 8.06696 40.5541 9.20342 40.546 10.5798C40.5399 12.0273 41.6441 13.1556 43.0758 13.1658L43.0779 13.1637Z" fill="black"/>
</g>
<defs>
<clipPath id="clip0_279_3072">
<rect width="98" height="41" fill="white"/>
</clipPath>
</defs>
</svg>
