<svg width="23" height="23" viewBox="0 0 23 23" fill="none" xmlns="http://www.w3.org/2000/svg">
<path d="M6.17649 23H6.13164C6.13164 22.9776 6.13463 22.9537 6.12865 22.9343C5.61731 21.4744 5.10746 20.0144 4.58864 18.5574C4.56023 18.4783 4.45557 18.4022 4.37034 18.3723C3.44036 18.0394 2.50887 17.714 1.57739 17.3885C1.05259 17.2049 0.52779 17.0198 0 16.8362C0.0164467 16.8004 0.0179419 16.7825 0.028408 16.7735C0.711695 16.0898 1.39349 15.4061 2.08275 14.7284C2.1291 14.6821 2.23077 14.6627 2.29955 14.6731C3.23103 14.8209 4.16102 14.9792 5.0925 15.124C5.18371 15.1374 5.31977 15.0986 5.38257 15.0329C6.92856 13.4341 8.46857 11.8293 10.0101 10.2246C10.0445 10.1887 10.0714 10.1454 10.1103 10.0932C6.91061 8.12568 3.72743 6.16861 0.526295 4.1996C1.29331 3.43379 2.03939 2.69784 2.77352 1.94994C2.90509 1.81559 3.01573 1.80365 3.18169 1.86037C4.45856 2.28881 5.73692 2.70978 7.01528 3.13374C9.40902 3.92492 11.8028 4.71312 14.1935 5.51178C14.3939 5.57895 14.5135 5.55208 14.6555 5.39683C15.0129 5.00273 15.3882 4.62654 15.7575 4.24289C16.8893 3.06507 18.0151 1.88426 19.153 0.712404C20.1129 -0.275833 21.6185 -0.226571 22.4872 0.801973C22.7653 1.13188 22.9013 1.523 23 1.93203V2.51571C22.8729 3.23375 22.4229 3.73384 21.9115 4.21602C20.4612 5.58194 19.0319 6.97174 17.5875 8.34363C17.441 8.48246 17.4156 8.59591 17.4784 8.78699C18.7059 12.4668 19.9245 16.148 21.149 19.8278C21.1983 19.9756 21.1789 20.0666 21.0668 20.1771C20.3566 20.8757 19.6538 21.5818 18.9481 22.2864C18.9018 22.3327 18.8509 22.376 18.7881 22.4327C16.819 19.2396 14.8574 16.0585 12.8942 12.8743C12.8509 12.9012 12.8314 12.9101 12.815 12.9251C11.1868 14.4835 9.55704 16.0435 7.9333 17.608C7.8735 17.6662 7.8406 17.7946 7.85406 17.8827C7.98713 18.7395 8.12468 19.5964 8.28168 20.4488C8.32952 20.707 8.3056 20.8981 8.0873 21.0728C7.87798 21.24 7.70006 21.4475 7.51167 21.6401C7.06611 22.0924 6.62056 22.5447 6.17649 22.9985V23Z" fill="url(#paint0_linear_6459_2304)"/>
<defs>
<linearGradient id="paint0_linear_6459_2304" x1="11.5" y1="0" x2="11.5" y2="23" gradientUnits="userSpaceOnUse">
<stop stop-color="#47A7FF"/>
<stop offset="1" stop-color="#2B73B7"/>
</linearGradient>
</defs>
</svg>
