<svg width="70" height="12" viewBox="0 0 70 12" fill="none" xmlns="http://www.w3.org/2000/svg">
<path fill-rule="evenodd" clip-rule="evenodd" d="M18.1901 0.0113399C21.7042 0.0113399 24.5508 2.63834 24.5508 5.87747C24.5508 9.11659 21.7056 11.7436 18.1887 11.7436C14.6747 11.7436 11.855 9.11659 11.855 5.87747C11.855 2.63834 14.7031 0.0113399 18.1887 0.0113399H18.1901ZM18.1901 10.1991C20.5593 10.1991 22.458 8.27209 22.458 5.89164C22.458 3.50835 20.5593 1.55297 18.1901 1.55297C15.821 1.55297 13.9507 3.47717 13.9507 5.89022C13.9507 8.30468 15.8508 10.1991 18.1901 10.1991ZM37.4251 7.63022C37.424 7.52524 37.3813 7.42499 37.3064 7.35142C37.2315 7.27786 37.1305 7.23697 37.0255 7.23773H35.7304C35.651 7.2378 35.5733 7.26138 35.5073 7.30551C35.4412 7.34964 35.3897 7.41233 35.3592 7.48569C34.7896 9.04999 33.4237 10.1595 31.2968 10.1595C29.0085 10.1595 27.1735 8.24092 27.1735 5.86471C27.1735 3.48709 29.0085 1.54022 31.2968 1.54022C33.1644 1.54022 34.519 2.48673 35.175 3.83991C35.2402 3.9646 35.3762 4.05245 35.5278 4.05245H36.8229C36.9276 4.05283 37.0283 4.01178 37.1029 3.93825C37.1774 3.86473 37.2199 3.76469 37.2211 3.65996C37.2211 3.54802 37.1672 3.43892 37.1672 3.43892C35.5972 -0.0240835 31.3153 4.53474e-06 31.3153 4.53474e-06C27.8735 4.53474e-06 25.085 2.62559 25.085 5.86471C25.085 9.10242 27.8735 11.728 31.3153 11.728C31.3153 11.728 35.6029 12.0114 37.3698 7.87818C37.3698 7.87818 37.4251 7.75491 37.4251 7.62739V7.63022ZM7.61978 9.83923C8.54929 9.38297 9.22092 8.33727 9.22092 7.0932V0.848751C9.22204 0.744021 9.26453 0.643983 9.33912 0.570456C9.41371 0.496929 9.51434 0.455879 9.61908 0.456259H10.9156C11.0203 0.455879 11.121 0.496929 11.1955 0.570456C11.2701 0.643983 11.3126 0.744021 11.3137 0.848751L11.3081 6.95009C11.3081 9.6947 9.194 11.7039 6.55991 11.7039H5.78059C4.79582 11.7039 3.71328 11.3539 3.71328 11.3539C2.02287 10.824 0.800049 9.30221 0.800049 7.50978V7.45169C0.801171 7.34671 0.843854 7.24646 0.91875 7.17289C0.993645 7.09932 1.09465 7.05844 1.19963 7.05919H2.24533C2.63782 7.05919 2.62507 7.41201 2.62507 7.41201V7.49419C2.62507 8.9749 4.11285 10.175 5.94496 10.175C5.94496 10.175 6.8518 10.2176 7.62261 9.83923H7.61978ZM49.0865 10.61L44.6302 4.2069L47.8113 1.00603C47.8113 1.00603 47.8991 0.921015 47.8991 0.758067C47.8991 0.758067 47.9019 0.456259 47.6299 0.456259H46.0429C45.9362 0.456431 45.8339 0.498692 45.7581 0.573865L40.5778 5.68051V0.848751C40.5767 0.744021 40.5342 0.643983 40.4596 0.570456C40.385 0.496929 40.2844 0.455879 40.1796 0.456259H39.5378C39.5378 0.456259 38.4864 0.399581 38.4864 1.78251V10.7886C38.4875 10.8931 38.5298 10.9929 38.6041 11.0664C38.6784 11.1399 38.7786 11.1811 38.8831 11.1811H39.5264C39.5264 11.1811 40.5778 11.2377 40.5778 9.85481V8.28201L43.209 5.63234L46.9413 10.9784C47.0234 11.0904 47.168 11.1626 47.2771 11.1626H48.9009C49.1729 11.1626 49.1701 10.8608 49.1701 10.8608C49.1701 10.7347 49.0822 10.6129 49.0822 10.6129L49.0851 10.61H49.0865ZM56.6076 6.3734C57.0681 6.3734 57.4436 6.00499 57.4436 5.55157C57.4436 5.09815 57.0681 4.72975 56.6076 4.72975H51.9756V2.09991H57.2452C57.7057 2.09991 58.0798 1.7315 58.0798 1.27808C58.0798 0.824663 57.7057 0.456259 57.2438 0.456259H50.6069C50.5107 0.455324 50.4152 0.473348 50.326 0.509301C50.2368 0.545254 50.1555 0.598433 50.0868 0.6658C50.0181 0.733167 49.9634 0.813404 49.9257 0.901928C49.888 0.990452 49.8682 1.08553 49.8672 1.18173V10.4343C49.8672 10.8339 50.1988 11.1626 50.6069 11.1626H57.2452C57.7057 11.1626 58.0798 10.7942 58.0798 10.3408C58.0798 9.8874 57.7057 9.519 57.2438 9.519H51.9756V6.3734H56.609H56.6076ZM62.6962 10.3408C62.6962 10.8027 63.0264 11.1768 63.4358 11.1768H64.0777C64.4844 11.1768 64.8145 10.8027 64.8145 10.3408V7.30999L69.0668 1.254C69.2085 1.00036 69.2 0.864338 69.2 0.864338C69.1985 0.759854 69.1558 0.660178 69.0813 0.586956C69.0067 0.513734 68.9063 0.472878 68.8018 0.473262H67.382C67.382 0.473262 67.0094 0.449174 66.7274 0.885591L63.6512 5.28802L60.959 0.885591C60.6771 0.449174 60.3072 0.473262 60.3072 0.473262H59.032C58.9277 0.473251 58.8277 0.514272 58.7534 0.587454C58.6792 0.660637 58.6367 0.7601 58.6353 0.864338C58.6353 0.864338 58.6253 1.00036 58.767 1.254L62.7019 7.41201V10.3408H62.6962Z" fill="#231F20"/>
</svg>
