<svg width="293" height="45" viewBox="0 0 293 45" fill="none" xmlns="http://www.w3.org/2000/svg">
<path fill-rule="evenodd" clip-rule="evenodd" d="M18.6538 21.3677H13.122C13.0633 20.8322 12.7695 20.4155 12.298 20.1777C11.8867 19.9387 11.4152 19.8792 10.7688 19.8792C9.53278 19.8792 8.94381 20.2372 8.94381 20.8916C8.94381 21.5467 9.8266 22.141 11.5922 22.5577C14.123 23.2128 15.7704 23.7483 16.5357 24.165C18.3013 25.1173 19.184 26.5457 19.184 28.4502C19.184 30.4742 18.4188 32.0214 16.8883 33.0932C15.4178 34.1042 13.4165 34.6404 10.8857 34.6404C8.59123 34.6404 6.70746 34.0448 5.23636 32.8548C3.82403 31.7236 3.05876 30.2952 3 28.6291H8.59123C8.7081 29.2241 9.00258 29.7002 9.53278 30.0575C10.0029 30.3546 10.5324 30.5336 11.1802 30.5336C12.7695 30.5336 13.5928 30.1169 13.5928 29.2241C13.5928 28.569 12.71 27.9747 10.9445 27.558C8.41427 26.9029 6.76622 26.3667 6.00162 25.9507C4.23604 24.9984 3.35325 23.5106 3.35325 21.5467C3.35325 19.7009 4.05908 18.2726 5.53084 17.2609C6.88441 16.3086 8.70809 15.8325 11.0039 15.8325C13.3578 15.8325 15.1821 16.3681 16.4763 17.4993C17.7123 18.332 18.4188 19.6415 18.6538 21.3677Z" fill="white"/>
<path fill-rule="evenodd" clip-rule="evenodd" d="M21.0667 34.1044V21.07H25.7751V23.034C26.1277 22.439 26.6579 21.9628 27.3637 21.4861C28.1877 20.9512 29.0111 20.7128 29.8351 20.7128C31.954 20.7128 33.3663 21.4861 34.0728 23.0941C35.1913 21.4861 36.6617 20.7128 38.5455 20.7128C40.3692 20.7128 41.664 21.2483 42.4293 22.2607C43.1358 23.1535 43.4883 24.5218 43.4883 26.4269V34.1638H38.3685V27.4386C38.3685 26.4864 38.251 25.7718 38.0153 25.3551C37.7796 24.9385 37.3095 24.7602 36.6617 24.7602C35.4851 24.7602 34.8374 25.7124 34.8374 27.6763V34.1044H29.7183V27.4386C29.7183 26.4864 29.6001 25.7718 29.3644 25.3551C29.1293 24.9385 28.6585 24.7602 28.0114 24.7602C26.8342 24.7602 26.1871 25.7124 26.1871 27.6763V34.1044H21.0667Z" fill="white"/>
<path fill-rule="evenodd" clip-rule="evenodd" d="M52.0807 31.4854C53.7287 31.4854 54.4933 30.4143 54.3177 28.2721C53.9645 28.4504 53.3755 28.6294 52.6109 28.807C51.8456 28.986 51.3161 29.1055 51.0804 29.2838C50.6683 29.5222 50.4333 29.8788 50.4333 30.4143C50.4333 31.1288 51.0216 31.4854 52.0807 31.4854ZM60.1433 34.1045H54.8466L54.6115 32.7355C53.3755 33.9255 51.7281 34.5212 49.7856 34.5212C48.4908 34.5212 47.3729 34.224 46.5489 33.5689C45.6073 32.855 45.1953 31.8427 45.1953 30.5926C45.1953 28.8671 46.0193 27.6764 47.6086 27.0214C48.2557 26.7242 49.7275 26.427 52.0219 26.1292C53.6105 25.8908 54.4346 25.4741 54.4346 24.8791C54.4346 24.1653 53.9057 23.808 52.7872 23.808C51.6693 23.808 51.0804 24.2247 50.9628 25.0581H46.0193C46.0193 22.1412 48.3739 20.6534 53.0817 20.6534C55.8476 20.6534 57.6719 21.189 58.6135 22.2013C59.2605 22.9152 59.5544 24.1653 59.5544 26.0698V32.1399C59.5544 32.5566 59.6138 32.855 59.6725 33.0327C59.7313 33.2711 59.9664 33.5689 60.2615 33.8073V34.1045H60.1433Z" fill="white"/>
<path fill-rule="evenodd" clip-rule="evenodd" d="M62.2617 34.1043V21.07H66.9107V23.6884H66.9695C67.6753 21.665 68.9701 20.6533 70.9127 20.6533C70.9127 20.6533 71.1477 20.6533 71.5597 20.7128V25.8907C70.8539 25.7718 70.5007 25.7124 70.5007 25.7124C69.4409 25.7124 68.6175 26.0102 68.0873 26.6052C67.5578 27.2002 67.3227 28.1524 67.3227 29.5221V34.0449L62.2617 34.1043Z" fill="white"/>
<path fill-rule="evenodd" clip-rule="evenodd" d="M81.5639 30.3546V34.0447C80.3285 34.1042 79.387 34.1636 78.6805 34.1636C76.6798 34.1636 75.4438 33.8664 74.8555 33.2113C74.3259 32.617 74.0909 31.3669 74.0909 29.4618V23.9867H72.2659V21.0104H74.1496V16.963H79.2107V21.0104H81.6821V23.9867H79.2107V28.6885C79.2107 29.3429 79.3275 29.7596 79.5045 29.9379C79.6808 30.1763 80.1516 30.2952 80.858 30.2952H81.5639V30.3546Z" fill="white"/>
<path fill-rule="evenodd" clip-rule="evenodd" d="M89.7447 15.8918H96.3943C95.806 13.5706 94.9826 12.0234 94.0999 11.19C93.6878 10.7733 93.2164 10.595 92.8051 10.595C92.393 10.595 91.981 10.8327 91.569 11.2494C90.745 12.0234 90.0973 13.5706 89.7447 15.8918ZM85.1544 15.8918H89.0976C89.5096 13.3923 90.2154 11.7255 91.0395 10.8327C91.569 10.2972 92.0979 10 92.6869 10C93.2758 10 93.8635 10.2377 94.3937 10.7139C95.394 11.6067 96.2768 13.3329 96.9239 15.8324H100.808L102.809 33.3902L84.3892 34.104L85.1544 15.8918Z" fill="white"/>
<path fill-rule="evenodd" clip-rule="evenodd" d="M101.514 14.5824L118.581 17.6775C117.521 23.6889 116.285 30.7119 115.521 34.9376L98.4539 31.8431C99.2191 27.6174 100.455 20.5937 101.514 14.5824Z" fill="#ED1C24"/>
<path fill-rule="evenodd" clip-rule="evenodd" d="M127.173 16.5466H122.465V15.5349C122.465 15.2971 122.641 15.1776 122.818 15.1776H126.82C126.996 15.1776 127.173 15.3566 127.173 15.5349V16.5466ZM132.116 16.4277H128.35C128.526 16.0704 128.762 15.7132 129.056 15.4754C129.351 15.237 129.703 15.0587 130.056 14.9993C130.175 15.2971 130.41 15.5943 130.645 15.8327L136 14.4043C135.353 13.6898 135.059 12.2614 135.236 11.0114L129.88 12.9159C129.763 13.392 129.703 13.9275 129.821 14.4043C129.409 14.5232 128.997 14.7015 128.645 14.9993C128.35 15.237 128.173 15.4754 127.997 15.7733V14.7015C127.997 14.4043 127.762 14.1666 127.467 14.1666H122.171C121.877 14.1666 121.641 14.4043 121.641 14.7015V16.4871H117.58C116.815 16.4871 116.168 17.1422 116.227 17.8561V32.4977C116.227 33.271 116.874 33.9254 117.64 33.9254H132.116C132.882 33.9254 133.529 33.271 133.529 32.4977V17.8561C133.529 17.0828 132.882 16.4277 132.116 16.4277Z" fill="white"/>
<path fill-rule="evenodd" clip-rule="evenodd" d="M94.3349 30.4741H89.3914V20.2371H94.2167C96.9238 20.2371 98.278 21.0704 98.278 22.796C98.278 23.7489 97.866 24.4627 96.9832 24.9983C97.5121 25.1178 97.9248 25.415 98.2186 25.8317C98.5131 26.2484 98.6894 26.7839 98.6894 27.3195C98.6894 29.4617 97.277 30.4741 94.3349 30.4741ZM93.9228 22.6177H92.7456V24.3432H94.0998C94.8644 24.3432 95.2176 24.0461 95.2176 23.4504C95.2176 23.0938 95.0995 22.8561 94.8056 22.7365C94.6874 22.6771 94.3348 22.6177 93.9228 22.6177ZM93.8047 26.189H92.7456V28.0934H94.2167C95.1582 28.0934 95.629 27.7956 95.629 27.1412C95.629 26.7245 95.4527 26.4861 95.0995 26.3078C94.8644 26.2484 94.3936 26.189 93.8047 26.189Z" fill="#004A8F"/>
<path fill-rule="evenodd" clip-rule="evenodd" d="M104.162 26.0102V20.2366H107.458V26.3668C107.458 26.9625 107.576 27.3792 107.752 27.6763C107.988 28.0336 108.4 28.2125 109.046 28.2125C110.106 28.2125 110.577 27.5575 110.577 26.3074V20.1779H113.872V25.9508C113.872 27.6169 113.461 28.8069 112.696 29.522C111.931 30.2953 110.695 30.6526 108.988 30.6526C107.34 30.6526 106.163 30.2953 105.398 29.5815C104.574 28.9264 104.162 27.7364 104.162 26.0102Z" fill="#004A8F"/>
<path fill-rule="evenodd" clip-rule="evenodd" d="M126.231 26.7243V30.4738H122.936V26.7837L119.17 20.2368H122.876L124.583 23.7487L126.349 20.2368H129.998L126.231 26.7243Z" fill="#004A8F"/>
<path d="M149.5 20.1959V32.3322" stroke="white"/>
<path fill-rule="evenodd" clip-rule="evenodd" d="M166.884 24.621C166.884 21.7827 166.884 21.2608 166.844 20.6624C166.802 20.0265 166.595 19.7105 166.139 19.6169C165.897 19.5629 165.647 19.5377 165.396 19.542C165.19 19.542 165.066 19.5045 165.066 19.3555C165.066 19.2432 165.231 19.205 165.562 19.205C166.346 19.205 167.648 19.2603 168.249 19.2603C168.766 19.2603 169.985 19.2057 170.771 19.2057C171.042 19.2057 171.206 19.2432 171.206 19.3555C171.206 19.5038 171.081 19.5428 170.875 19.5428C170.668 19.5428 170.504 19.5599 170.255 19.5974C169.698 19.691 169.531 20.0093 169.489 20.6624C169.449 21.2608 169.449 21.7827 169.449 24.621V27.9072C169.449 29.7188 169.449 31.1949 169.531 31.997C169.592 32.5017 169.737 32.8372 170.359 32.9137C170.647 32.9496 171.102 32.9878 171.413 32.9878C171.639 32.9878 171.744 33.0447 171.744 33.136C171.744 33.2679 171.577 33.3233 171.351 33.3233C169.985 33.3233 168.682 33.2679 168.125 33.2679C167.648 33.2679 166.346 33.3225 165.52 33.3225C165.25 33.3225 165.106 33.2679 165.106 33.136C165.106 33.0447 165.189 32.9878 165.438 32.9878C165.747 32.9878 165.994 32.9496 166.182 32.9137C166.595 32.8372 166.72 32.5212 166.781 31.9774C166.884 31.1949 166.884 29.7188 166.884 27.9072V24.621V24.621Z" fill="white"/>
<mask id="mask0_80_47" style="mask-type:alpha" maskUnits="userSpaceOnUse" x="178" y="18" width="19" height="16">
<path d="M178.569 18.9319H196.495V33.9958H178.569V18.9319Z" fill="white"/>
</mask>
<g mask="url(#mask0_80_47)">
<path fill-rule="evenodd" clip-rule="evenodd" d="M182.257 31.1449C182.298 32.6483 182.576 33.15 183.002 33.2826C183.365 33.3997 183.769 33.4184 184.109 33.4184C184.346 33.4184 184.474 33.4558 184.474 33.5721C184.474 33.7273 184.281 33.7648 183.983 33.7648C182.598 33.7648 181.745 33.7078 181.339 33.7078C181.147 33.7078 180.148 33.7648 179.038 33.7648C178.763 33.7648 178.569 33.7453 178.569 33.5721C178.569 33.4558 178.697 33.4184 178.91 33.4184C179.187 33.4184 179.571 33.3989 179.869 33.3224C180.424 33.1687 180.508 32.6093 180.53 30.9327L180.723 19.5856C180.723 19.2002 180.787 18.931 180.998 18.931C181.233 18.931 181.426 19.183 181.789 19.5287C182.044 19.7783 185.283 22.8616 188.394 25.6539C189.844 26.9646 192.723 29.7382 193.085 30.0464H193.19L192.977 21.3972C192.956 20.2222 192.764 19.8548 192.251 19.6644C191.932 19.5482 191.422 19.5482 191.123 19.5482C190.867 19.5482 190.781 19.4896 190.781 19.3734C190.781 19.2205 191.016 19.2002 191.338 19.2002C192.445 19.2002 193.469 19.2579 193.915 19.2579C194.149 19.2579 194.958 19.2002 196.004 19.2002C196.28 19.2002 196.495 19.2205 196.495 19.3734C196.495 19.4896 196.365 19.5482 196.111 19.5482C195.897 19.5482 195.727 19.5482 195.471 19.6051C194.875 19.7588 194.706 20.1637 194.682 21.2427L194.449 33.3989C194.449 33.8233 194.364 33.9965 194.172 33.9965C193.936 33.9965 193.682 33.7843 193.446 33.5721C192.104 32.4166 189.375 29.8935 187.157 27.9079C184.837 25.8295 182.47 23.4788 182.087 23.1121H182.022L182.257 31.1457V31.1449Z" fill="white"/>
</g>
<path fill-rule="evenodd" clip-rule="evenodd" d="M208.438 28.4252C208.438 30.2922 208.438 31.7504 208.549 32.5681C208.614 33.1314 208.744 33.5605 209.403 33.6393C209.71 33.6775 210.191 33.7149 210.499 33.7149C210.783 33.7149 210.87 33.7742 210.87 33.871C210.87 34.0083 210.718 34.066 210.389 34.066C209.007 34.066 207.628 34.0083 207.056 34.0083C206.487 34.0083 205.106 34.066 204.274 34.066C203.967 34.066 203.813 34.027 203.813 33.871C203.813 33.7742 203.9 33.7149 204.142 33.7149C204.47 33.7149 204.734 33.6775 204.93 33.6393C205.369 33.5605 205.479 33.1321 205.566 32.5681C205.678 31.7504 205.678 30.2922 205.678 28.4252V25.0025C205.678 22.0456 205.678 21.5011 205.631 20.88C205.588 20.2169 205.414 19.9056 204.69 19.7706C204.513 19.7316 204.142 19.7113 203.834 19.7113C203.616 19.7113 203.462 19.6731 203.462 19.556C203.462 19.4 203.639 19.3618 203.967 19.3618C204.536 19.3618 205.173 19.3821 205.743 19.3821C206.311 19.4 206.817 19.4195 207.125 19.4195C207.957 19.4195 212.406 19.4195 212.909 19.4C213.326 19.3821 213.59 19.3821 213.808 19.322C213.94 19.283 214.05 19.205 214.159 19.205C214.247 19.205 214.314 19.283 214.314 19.3821C214.314 19.517 214.204 19.7511 214.139 20.2567C214.117 20.4517 214.07 21.5986 214.027 21.8326C214.005 21.9871 213.962 22.1041 213.808 22.1041C213.654 22.1041 213.611 22.0066 213.589 21.7921C213.589 21.6376 213.589 21.3263 213.459 21.054C213.303 20.7809 212.845 20.4891 212.012 20.4712L208.637 20.4119C208.504 20.4119 208.438 20.4712 208.438 20.6834V25.5463C208.438 25.6634 208.459 25.7227 208.592 25.7227L211.397 25.7032C211.772 25.7032 212.078 25.7032 212.384 25.6829C212.8 25.6634 213.109 25.5861 213.326 25.3318C213.437 25.2148 213.48 25.1375 213.612 25.1375C213.699 25.1375 213.744 25.1968 213.744 25.3123C213.744 25.4293 213.634 25.9154 213.566 26.5185C213.524 26.9913 213.495 27.465 213.48 27.9392C213.48 28.1139 213.48 28.3082 213.26 28.3082C213.13 28.3082 213.086 28.1732 213.086 28.0367C213.076 27.8309 213.031 27.6275 212.954 27.4328C212.845 27.1613 212.515 26.8118 211.836 26.733C211.288 26.6753 208.965 26.6753 208.592 26.6753C208.482 26.6753 208.438 26.7127 208.438 26.85V28.4252V28.4252ZM223.644 24.621C223.644 21.7827 223.644 21.2608 223.604 20.6624C223.562 20.0265 223.355 19.7105 222.9 19.6169C222.657 19.5629 222.407 19.5377 222.157 19.542C221.948 19.542 221.825 19.5045 221.825 19.3555C221.825 19.2432 221.99 19.205 222.321 19.205C223.106 19.205 224.407 19.2603 225.009 19.2603C225.525 19.2603 226.744 19.2057 227.531 19.2057C227.801 19.2057 227.965 19.2432 227.965 19.3555C227.965 19.5038 227.841 19.5428 227.634 19.5428C227.428 19.5428 227.263 19.5599 227.015 19.5974C226.457 19.691 226.291 20.0093 226.248 20.6624C226.208 21.2608 226.208 21.7827 226.208 24.621V27.9072C226.208 29.7188 226.208 31.1949 226.291 31.997C226.352 32.5017 226.497 32.8372 227.118 32.9137C227.407 32.9496 227.863 32.9878 228.172 32.9878C228.398 32.9878 228.503 33.0448 228.503 33.136C228.503 33.2679 228.337 33.3233 228.111 33.3233C226.744 33.3233 225.441 33.2679 224.884 33.2679C224.408 33.2679 223.106 33.3225 222.279 33.3225C222.01 33.3225 221.866 33.2679 221.866 33.136C221.866 33.0448 221.948 32.9878 222.197 32.9878C222.508 32.9878 222.754 32.9496 222.942 32.9137C223.355 32.8372 223.479 32.5212 223.541 31.9774C223.644 31.1949 223.644 29.7188 223.644 27.9072V24.621V24.621Z" fill="white"/>
<mask id="mask1_80_47" style="mask-type:alpha" maskUnits="userSpaceOnUse" x="235" y="18" width="18" height="16">
<path d="M235.006 18.9319H252.449V33.9958H235.006V18.9319Z" fill="white"/>
</mask>
<g mask="url(#mask1_80_47)">
<path fill-rule="evenodd" clip-rule="evenodd" d="M238.594 31.1449C238.634 32.6483 238.905 33.15 239.319 33.2826C239.673 33.3997 240.067 33.4184 240.397 33.4184C240.627 33.4184 240.751 33.4558 240.751 33.5721C240.751 33.7273 240.563 33.7648 240.273 33.7648C238.926 33.7648 238.097 33.7078 237.702 33.7078C237.515 33.7078 236.541 33.7648 235.464 33.7648C235.194 33.7648 235.006 33.7453 235.006 33.5721C235.006 33.4558 235.131 33.4184 235.337 33.4184C235.607 33.4184 235.982 33.3989 236.271 33.3224C236.811 33.1687 236.893 32.6093 236.914 30.9327L237.102 19.5856C237.102 19.2002 237.164 18.931 237.369 18.931C237.598 18.931 237.786 19.183 238.139 19.5287C238.386 19.7783 241.539 22.8616 244.567 25.6539C245.978 26.9646 248.779 29.7382 249.129 30.0464H249.233L249.027 21.3972C249.006 20.2222 248.82 19.8548 248.32 19.6644C248.01 19.5482 247.515 19.5482 247.223 19.5482C246.973 19.5482 246.891 19.4896 246.891 19.3734C246.891 19.2205 247.119 19.2002 247.432 19.2002C248.509 19.2002 249.505 19.2579 249.939 19.2579C250.168 19.2579 250.955 19.2002 251.972 19.2002C252.24 19.2002 252.45 19.2205 252.45 19.3734C252.45 19.4896 252.324 19.5482 252.076 19.5482C251.869 19.5482 251.703 19.5482 251.453 19.6051C250.874 19.7588 250.709 20.1637 250.686 21.2427L250.46 33.3989C250.46 33.8233 250.376 33.9965 250.188 33.9965C249.96 33.9965 249.712 33.7843 249.484 33.5721C248.177 32.4166 245.522 29.8935 243.364 27.9079C241.105 25.8295 238.802 23.4788 238.429 23.1121H238.366L238.594 31.1457V31.1449Z" fill="white"/>
</g>
<path fill-rule="evenodd" clip-rule="evenodd" d="M262.042 24.6211C262.042 21.7827 262.042 21.2608 262 20.6624C261.957 20.0265 261.753 19.7105 261.296 19.6169C261.053 19.5627 260.803 19.5375 260.553 19.542C260.344 19.542 260.222 19.5046 260.222 19.3556C260.222 19.2432 260.388 19.205 260.719 19.205C261.504 19.205 262.805 19.2604 263.407 19.2604C263.921 19.2604 265.143 19.2058 265.928 19.2058C266.197 19.2058 266.364 19.2432 266.364 19.3556C266.364 19.5038 266.237 19.5428 266.032 19.5428C265.826 19.5428 265.659 19.56 265.413 19.5974C264.853 19.691 264.689 20.0093 264.645 20.6624C264.605 21.2608 264.605 21.7827 264.605 24.6211V27.9072C264.605 29.7188 264.605 31.1949 264.689 31.997C264.75 32.5018 264.895 32.8372 265.514 32.9137C265.805 32.9496 266.259 32.9878 266.569 32.9878C266.796 32.9878 266.9 33.0448 266.9 33.1361C266.9 33.2679 266.735 33.3233 266.507 33.3233C265.143 33.3233 263.839 33.2679 263.281 33.2679C262.806 33.2679 261.504 33.3225 260.676 33.3225C260.407 33.3225 260.262 33.2679 260.262 33.1361C260.262 33.0448 260.344 32.9878 260.593 32.9878C260.903 32.9878 261.152 32.9496 261.338 32.9137C261.753 32.8372 261.875 32.5213 261.937 31.9775C262.042 31.1949 262.042 29.7188 262.042 27.9072V24.6211H262.042ZM281.126 27.436C281.234 27.436 281.254 27.379 281.234 27.3197L279.316 22.5731C279.295 22.495 279.275 22.3999 279.209 22.3999C279.144 22.3999 279.103 22.4943 279.081 22.5731L277.124 27.301C277.1 27.379 277.124 27.436 277.209 27.436H281.126ZM276.783 28.4034C276.674 28.4034 276.633 28.4401 276.589 28.5548L275.44 31.2004C275.227 31.6826 275.12 32.146 275.12 32.3785C275.12 32.7241 275.312 32.9761 275.972 32.9761H276.292C276.548 32.9761 276.611 33.0136 276.611 33.1298C276.611 33.2835 276.485 33.3233 276.248 33.3233C275.568 33.3233 274.651 33.2656 273.991 33.2656C273.758 33.2656 272.585 33.3233 271.477 33.3233C271.201 33.3233 271.073 33.2843 271.073 33.1298C271.073 33.0136 271.158 32.9761 271.329 32.9761C271.521 32.9761 271.818 32.9566 271.988 32.9371C272.967 32.8209 273.374 32.1647 273.8 31.2004L279.144 19.2346C279.401 18.6737 279.529 18.463 279.742 18.463C279.935 18.463 280.061 18.6362 280.274 19.0794C280.784 20.1428 284.194 27.862 285.555 30.7955C286.367 32.5322 286.983 32.8021 287.431 32.9004C287.725 32.9514 288.024 32.977 288.323 32.9769C288.495 32.9769 288.602 32.9948 288.602 33.1306C288.602 33.2843 288.41 33.3241 287.622 33.3241C286.855 33.3241 285.301 33.3241 283.598 33.2851C283.214 33.2663 282.959 33.2663 282.959 33.1306C282.959 33.0143 283.044 32.9769 283.257 32.9574C283.405 32.9184 283.552 32.7452 283.448 32.5127L281.743 28.5376C281.702 28.4409 281.638 28.4034 281.53 28.4034H276.783V28.4034Z" fill="white"/>
</svg>
