<svg width="120" height="60" viewBox="0 0 120 60" fill="none" xmlns="http://www.w3.org/2000/svg">
<g clip-path="url(#clip0_109_1260)">
<path fill-rule="evenodd" clip-rule="evenodd" d="M73.7246 39.22C67.0992 43.9901 57.4964 46.5294 49.228 46.5294C37.638 46.5294 27.2037 42.3494 19.3064 35.3887C18.6872 34.8433 19.2393 34.0967 19.9882 34.5169C28.5069 39.3586 39.0463 42.2734 49.9277 42.2734C57.2684 42.2734 65.34 40.7847 72.7657 37.7089C73.8856 37.244 74.8222 38.4287 73.7291 39.22H73.7224H73.7246Z" fill="#FF9900"/>
<path fill-rule="evenodd" clip-rule="evenodd" d="M76.4808 36.1509C75.6314 35.0936 70.8814 35.648 68.7467 35.8961C68.0984 35.9721 67.9956 35.42 68.5812 35.0243C72.3701 32.4247 78.5864 33.1758 79.3062 34.0408C80.0349 34.9215 79.114 40.9993 75.5643 43.9007C75.0167 44.3478 74.5003 44.1086 74.7395 43.5185C75.5397 41.5693 77.3302 37.206 76.483 36.1465V36.1509H76.4808Z" fill="#FF9900"/>
<path fill-rule="evenodd" clip-rule="evenodd" d="M68.8964 16.6659V14.1355C68.8964 13.7511 69.1959 13.494 69.5536 13.494H81.1525C81.5236 13.494 81.8209 13.7555 81.8209 14.1311V16.2948C81.8209 16.6569 81.5035 17.1308 80.9491 17.8841L74.9406 26.2553C77.1692 26.2039 79.5297 26.528 81.5571 27.6412C82.0131 27.8915 82.1383 28.2626 82.1718 28.6247V31.3205C82.1718 31.6915 81.756 32.1207 81.3202 31.8994C77.7504 30.0754 73.0116 29.8765 69.064 31.9218C68.6617 32.1341 68.2392 31.7072 68.2392 31.3361V28.7767C68.2392 28.3654 68.2482 27.668 68.6729 27.0421L75.6313 17.2962H69.5737C69.2004 17.2962 68.9031 17.0392 68.9031 16.6592L68.8964 16.6636V16.6659ZM26.589 32.4359H23.0572C22.9001 32.4301 22.7503 32.3683 22.6347 32.2617C22.5191 32.1552 22.4454 32.0108 22.4269 31.8547V14.1802C22.4269 13.8226 22.7353 13.5432 23.1109 13.5432H26.3967C26.741 13.5588 27.0182 13.8114 27.0383 14.1378V16.4424H27.1053C27.9659 14.2071 29.5776 13.1699 31.7525 13.1699C33.9252 13.1699 35.3424 14.2115 36.3304 16.4424C37.1865 14.2115 39.129 13.1699 41.2033 13.1699C42.6853 13.1699 44.3037 13.7645 45.2872 15.1034C46.4093 16.5921 46.1769 18.7469 46.1769 20.6469V31.7988C46.1769 32.152 45.8684 32.4359 45.4906 32.4359H41.9656C41.6146 32.4135 41.333 32.1386 41.333 31.8033V22.4329C41.333 21.6908 41.3978 19.8288 41.2324 19.1247C40.9686 17.9333 40.1818 17.6002 39.1603 17.6002C38.3042 17.6002 37.4167 18.1591 37.0502 19.0509C36.6858 19.9451 36.7216 21.4293 36.7216 22.4329V31.7988C36.7216 32.152 36.4176 32.4359 36.042 32.4359H32.517C32.1638 32.4135 31.8844 32.1386 31.8844 31.8033V22.4329C31.8844 20.4614 32.2085 17.5622 29.7072 17.5622C27.2037 17.5622 27.2707 20.3899 27.2707 22.4352V31.8011C27.2707 32.152 26.9645 32.4359 26.589 32.4359ZM91.8015 13.1721C97.0365 13.1721 99.8709 17.5622 99.8709 23.1415C99.8709 28.7186 96.7415 32.8114 91.8015 32.8114C86.8615 32.8114 83.8662 28.4213 83.8662 22.956C83.8662 17.4929 86.6938 13.1721 91.8015 13.1721ZM91.8327 16.7821C89.2331 16.7821 89.0677 20.2379 89.0677 22.3972C89.0677 24.5587 89.0364 29.1679 91.8015 29.1679C94.5665 29.1679 94.6671 25.4484 94.6671 23.1773C94.6671 21.6908 94.6023 19.9048 94.1396 18.4921C93.7417 17.2649 92.9549 16.7821 91.8327 16.7821ZM106.662 32.4359H103.148C102.797 32.4135 102.515 32.1386 102.515 31.8033V14.1221C102.54 13.7958 102.833 13.5409 103.188 13.5409H106.463C106.607 13.5457 106.745 13.5968 106.858 13.6866C106.971 13.7764 107.052 13.9001 107.089 14.0394V16.7441H107.158C108.148 14.3211 109.527 13.1699 111.964 13.1699C113.546 13.1699 115.093 13.7287 116.083 15.2509C117.004 16.6659 117.004 19.0442 117.004 20.7542V31.8748C116.978 32.034 116.895 32.1783 116.77 32.2811C116.646 32.3838 116.488 32.438 116.327 32.4336H112.789C112.636 32.4281 112.489 32.3692 112.375 32.2671C112.261 32.1651 112.186 32.0263 112.163 31.8748V22.2854C112.163 20.3519 112.393 17.5242 109.957 17.5242C109.1 17.5242 108.307 18.0831 107.916 18.9369C107.424 20.0144 107.355 21.094 107.355 22.2854V31.7988C107.346 31.9739 107.269 32.1387 107.14 32.2578C107.012 32.3768 106.841 32.4408 106.666 32.4359H106.662ZM59.6512 23.9976C59.6512 25.3388 59.6825 26.4565 58.9918 27.6479C58.4307 28.6158 57.5389 29.2126 56.5486 29.2126C55.1963 29.2126 54.4027 28.2067 54.4027 26.718C54.4027 23.7853 57.1007 23.2533 59.6512 23.2533V23.9999V23.9954V23.9976ZM63.2098 32.3889C63.0951 32.4845 62.9543 32.5435 62.8056 32.5583C62.657 32.573 62.5073 32.5428 62.376 32.4716C61.2047 31.5216 60.9969 31.0813 60.3553 30.1782C58.4196 32.1051 57.0471 32.6818 54.5369 32.6818C51.5662 32.6818 49.2526 30.8935 49.2526 27.3171C49.2526 24.5185 50.8062 22.6207 53.0146 21.6864C54.928 20.866 57.6015 20.7185 59.6512 20.4949V20.0501C59.6512 19.2298 59.7183 18.2619 59.222 17.5555C58.7951 16.9207 57.9703 16.6614 57.2416 16.6614C55.8982 16.6614 54.7 17.332 54.4027 18.7268C54.3446 19.0353 54.1122 19.3438 53.7925 19.3594L50.3725 19.0018C50.0864 18.9369 49.7667 18.7112 49.845 18.282C50.6296 14.2294 54.3804 13.0067 57.7356 13.0067C59.4523 13.0067 61.6965 13.4538 63.0489 14.7234C64.7656 16.2881 64.6024 18.3759 64.6024 20.6469V26.0116C64.6024 27.6233 65.2909 28.3319 65.9346 29.2014C66.1582 29.5144 66.2118 29.8899 65.9235 30.1179C65.2015 30.7058 63.9229 31.7921 63.2187 32.4046L63.2098 32.3979V32.3889ZM13.3985 23.9954C13.3985 25.3388 13.4298 26.4542 12.7369 27.6479C12.178 28.6158 11.2839 29.2126 10.2959 29.2126C8.94357 29.2126 8.15004 28.2067 8.15004 26.718C8.15004 23.7853 10.848 23.2533 13.3985 23.2533V23.9999V23.9954ZM16.9549 32.3889C16.8402 32.4838 16.6998 32.5423 16.5517 32.5571C16.4036 32.5718 16.2545 32.5421 16.1233 32.4716C14.9498 31.5216 14.7419 31.0813 14.1026 30.1782C12.1646 32.1051 10.7922 32.6818 8.28639 32.6818C5.31792 32.6818 3.00439 30.8935 3.00439 27.3171C3.00439 24.5185 4.55569 22.6207 6.76639 21.6864C8.67981 20.866 11.3532 20.7185 13.4007 20.4949V20.0501C13.4007 19.2298 13.4656 18.2619 12.9738 17.5555C12.5446 16.9207 11.722 16.6614 10.9933 16.6614C9.64769 16.6614 8.45181 17.332 8.15451 18.7268C8.09416 19.0353 7.86392 19.3438 7.54204 19.3594L4.12428 19.0018C3.83592 18.9369 3.51628 18.7112 3.59675 18.282C4.37687 14.2227 8.12322 13 11.4806 13C13.1973 13 15.4438 13.4471 16.7962 14.7145C18.5129 16.2792 18.3475 18.3669 18.3475 20.6402V26.0049C18.3475 27.6144 19.0359 28.3229 19.6819 29.1947C19.9055 29.5076 19.9569 29.8809 19.6685 30.1089C18.9487 30.6991 17.6679 31.7854 16.9638 32.3979L16.9549 32.3889Z" fill="black"/>
</g>
<defs>
<clipPath id="clip0_109_1260">
<rect width="114" height="33.5294" fill="white" transform="translate(3 13)"/>
</clipPath>
</defs>
</svg>
