<svg width="120" height="60" viewBox="0 0 120 60" fill="none" xmlns="http://www.w3.org/2000/svg">
<g clip-path="url(#clip0_109_1298)">
<path fill-rule="evenodd" clip-rule="evenodd" d="M35.8975 36.2576C35.2001 36.5812 33.8338 36.95 32.1992 36.95C28.1287 36.95 25.4766 34.2408 25.4766 30.0647C25.4766 25.8903 28.1606 22.8978 32.7374 22.8978C33.8371 22.8978 34.9 23.099 35.926 23.5081L35.3392 26.0831C34.8028 25.8048 34.0266 25.5567 32.848 25.5567C30.3249 25.5567 28.8295 27.4645 28.8547 29.9306C28.8547 32.6951 30.5915 34.2744 32.848 34.2744C33.7416 34.2863 34.6275 34.1074 35.4465 33.7496L35.9025 36.2643L35.8975 36.2576ZM37.7752 36.6734H41.0694V17H37.7735V36.6734H37.7752ZM46.4844 30.8963C46.5666 33.3339 48.4124 34.3833 50.5012 34.3833C51.7418 34.4001 52.9489 34.1989 54.1174 33.7748L54.5985 36.0984C53.4753 36.5929 51.9145 36.9534 50.0419 36.9534C45.8105 36.9534 43.3192 34.271 43.3192 30.1486C43.3192 26.4151 45.5154 22.9029 49.6982 22.9029C53.8793 22.9029 55.3244 26.4989 55.3244 29.4595C55.3295 29.944 55.2909 30.4218 55.2188 30.8963H46.4844ZM52.2179 28.5157C52.2464 27.2717 51.7083 25.2214 49.5121 25.2214C47.4769 25.2214 46.6185 27.1292 46.4844 28.5157H52.2179ZM67.5979 33.4378C67.5979 34.6566 67.6515 35.8452 67.8108 36.6684H64.8384L64.597 35.1729H64.5149C63.7387 36.2241 62.3723 36.9718 60.6573 36.9718C58.0336 36.9718 56.5516 35.0053 56.5516 32.96C56.5516 29.5869 59.4704 27.8434 64.2936 27.8686V27.654C64.2936 26.7671 63.9449 25.3019 61.6414 25.3019C61.0211 25.3019 60.4176 25.3891 59.8191 25.5567C59.2239 25.7244 58.6623 25.9725 58.1275 26.296L57.4837 24.0831C58.4477 23.4745 60.1359 22.8928 62.1996 22.8928C66.3791 22.8928 67.5845 25.6422 67.5845 28.5911V33.4294L67.5979 33.4378ZM64.3874 30.0899C62.0572 30.0614 59.8325 30.5593 59.8325 32.6113C59.8325 33.9391 60.6607 34.5476 61.7068 34.5476C62.0622 34.5545 62.4154 34.4899 62.7454 34.3577C63.0755 34.2256 63.3756 34.0285 63.628 33.7781C63.9367 33.4755 64.1688 33.1036 64.3053 32.6934C64.3757 32.452 64.3992 32.2039 64.3891 31.9474V30.0899H64.3874ZM70.4663 27.5534C70.4663 25.726 70.4412 24.3983 70.359 23.2096H73.2006L73.3348 25.7545H73.4136C74.059 23.8735 75.5846 22.9062 77.0046 22.9062C77.2678 22.9062 77.5259 22.9314 77.7808 22.99V26.1669C77.4545 26.1076 77.1233 26.0796 76.7916 26.0831C75.2359 26.0831 74.1395 27.1041 73.8444 28.6531C73.79 28.9924 73.7642 29.3356 73.7673 29.6791V36.6767H70.4714V27.5484L70.4663 27.5534ZM83.8613 19.7477V23.1962H86.9963V25.7428H83.8613V31.6607C83.8613 33.3204 84.2905 34.152 85.5462 34.152C85.9821 34.1738 86.4129 34.1268 86.832 34.0145L86.884 36.5845C86.4129 36.7773 85.5177 36.9466 84.5001 36.9466C83.2695 36.9466 82.2754 36.5309 81.6601 35.8402C80.9325 35.069 80.6174 33.82 80.6174 32.0514V25.7512H78.7699V23.2013H80.6207V20.6849L83.863 19.7511L83.8596 19.7477H83.8613ZM88.8421 27.5433C88.8421 25.716 88.8186 24.3899 88.7365 23.2013H91.5764L91.7072 25.7461H91.791C92.4298 23.8651 93.9604 22.8978 95.382 22.8978C95.6436 22.8978 95.9017 22.923 96.1616 22.9816V26.1619C95.8336 26.1025 95.5007 26.0744 95.1674 26.0781C93.6117 26.0781 92.517 27.1007 92.2202 28.6498C92.1663 28.9886 92.1388 29.3311 92.1381 29.6741V36.6734H88.8421V27.54V27.545V27.5433ZM99.3704 21.2633C99.0083 21.2814 98.65 21.1833 98.3477 20.9833C98.1441 20.8533 97.9717 20.6798 97.8431 20.4753C97.643 20.1679 97.539 19.8077 97.5447 19.4409C97.5447 18.3898 98.2957 17.5884 99.3955 17.5884C100.495 17.5884 101.218 18.3931 101.243 19.4409C101.243 20.4401 100.515 21.2683 99.3955 21.2683H99.367L99.3704 21.2633ZM97.7375 36.6734H101.033V23.1962H97.7375V36.6734ZM104.034 27.6825C104.034 25.9054 103.981 24.4737 103.924 23.2013H106.817L106.973 25.2767H107.027C107.991 23.7545 109.518 22.8978 111.5 22.8978C114.495 22.8978 116.992 25.5534 116.992 29.7579C116.992 34.6264 114.019 36.9802 111.044 36.9802C109.411 36.9802 108.043 36.261 107.372 35.1813H107.317V42.1504H104.026V27.6791L104.034 27.6825ZM107.33 31.0321C107.33 31.3456 107.354 31.6607 107.412 31.9709C107.761 33.354 108.915 34.3515 110.334 34.3515C112.427 34.3515 113.651 32.5526 113.651 29.8971C113.651 27.5199 112.527 25.5819 110.408 25.5819C109.042 25.5819 107.785 26.6079 107.436 28.0982C107.374 28.3806 107.337 28.6678 107.325 28.9566V31.0321H107.334H107.33Z" fill="#2B4591"/>
<path fill-rule="evenodd" clip-rule="evenodd" d="M22.4353 34.3464C22.4377 34.6319 22.3818 34.9148 22.271 35.178C22.1618 35.44 22.0062 35.6803 21.8117 35.8871C21.6158 36.0917 21.3794 36.2533 21.1176 36.3615C20.8617 36.4748 20.5844 36.532 20.3045 36.5292H5.13079C4.99117 36.5306 4.85179 36.5171 4.71503 36.489C4.57951 36.4589 4.44664 36.418 4.31771 36.3666C4.18882 36.311 4.06536 36.2437 3.94888 36.1654C3.83111 36.0861 3.72209 35.9945 3.62365 35.8921C3.4216 35.6897 3.26351 35.4477 3.15926 35.1813C3.10667 35.0494 3.06572 34.913 3.03688 34.7739C3.01245 34.6327 3.00011 34.4897 3 34.3464V19.1844C3.00193 18.8982 3.0559 18.6148 3.15926 18.3479C3.32463 17.953 3.59766 17.6126 3.94721 17.3655C4.18142 17.209 4.44305 17.0981 4.71838 17.0386C4.85921 17.0084 4.995 16.995 5.13415 16.995H20.3062C20.5855 16.9923 20.8622 17.0494 21.1176 17.1626C21.5106 17.3291 21.8438 17.6108 22.0732 17.9707C22.152 18.088 22.2174 18.2138 22.271 18.3479C22.3818 18.611 22.4377 18.8939 22.4353 19.1794V34.3464Z" fill="#E07139"/>
<path fill-rule="evenodd" clip-rule="evenodd" d="M8.01936 24.5273L10.4335 28.8292L18.2291 22.0193L20.0262 25.1543L10.1049 31.5484L6.1853 27.493L8.01936 24.5273Z" fill="white"/>
</g>
<defs>
<clipPath id="clip0_109_1298">
<rect width="114" height="25.1471" fill="white" transform="translate(3 17)"/>
</clipPath>
</defs>
</svg>
