<svg width="120" height="60" viewBox="0 0 120 60" fill="none" xmlns="http://www.w3.org/2000/svg">
<g clip-path="url(#clip0_109_1268)">
<path d="M94.0073 37.1847C94.0073 35.9323 94.8423 34.9239 95.9261 34.9239C97.2941 34.9239 98.015 36.2727 98.015 38.1352C98.015 40.017 97.2748 41.4043 95.8683 41.4043C94.937 41.4043 94.0057 40.6625 94.0057 39.1612V37.1863L94.0073 37.1847ZM93.569 32.9105H91.1557C91.1943 33.8594 91.2312 34.9817 91.2312 36.3305V47.5426H94.0057V42.3355H94.0443C94.5003 43.0388 95.3737 43.551 96.5153 43.551C98.6428 43.551 100.809 41.8603 100.809 38.0212C100.809 34.8099 99.1181 32.6809 96.8381 32.6809C95.4893 32.6809 94.4248 33.2701 93.7392 34.3347H93.7023L93.569 32.9105ZM85.9486 43.3423H88.7232V32.8896H85.9486V43.3423ZM88.8179 30.0396C88.8179 29.1854 88.2094 28.5576 87.3167 28.5576C87.1204 28.5516 86.925 28.5858 86.7425 28.6582C86.56 28.7305 86.3942 28.8395 86.2553 28.9783C86.1165 29.1171 86.0076 29.2829 85.9352 29.4654C85.8629 29.648 85.8286 29.8434 85.8346 30.0396C85.8346 30.8761 86.4432 31.5216 87.3167 31.5216C88.1917 31.5409 88.8179 30.9516 88.8179 30.0396ZM81.1221 34.7152L81.0081 32.8912H78.6318C78.6703 33.8225 78.7088 34.8661 78.7088 36.1587V43.3423H81.4834V37.9457C81.4834 36.1587 82.4339 35.3237 83.6879 35.3237C83.9721 35.3237 84.2017 35.3414 84.4105 35.3799V32.7403C84.2039 32.6986 83.9934 32.6792 83.7827 32.6825C82.8129 32.6825 81.6728 33.3857 81.1976 34.7361H81.1221V34.7168V34.7152ZM67.3458 28.9189V31.3129H70.899V43.3423H73.6736V31.3129H77.2445V28.9205H67.3442L67.3458 28.9189ZM62.8211 38.3632C62.6656 39.0139 62.52 39.6669 62.3844 40.3221H62.3282C62.1745 39.6664 62.0096 39.0133 61.8336 38.3632L60.2938 32.9089H57.2544L60.7707 42.5057C60.8462 42.7145 60.8831 42.867 60.8831 42.981C60.8831 43.1897 60.4094 44.2543 59.4958 44.919C59.0029 45.261 58.4891 45.5661 58.0347 45.6801L58.7364 48.0179C59.3626 47.9023 60.4271 47.5233 61.4338 46.5535C62.6124 45.375 63.5051 43.5317 64.666 40.1503L67.0214 32.8912H64.1329L62.8227 38.3632H62.8211ZM51.8386 28.9189L50.204 34.3347C49.7277 36.0175 49.3094 37.7162 48.95 39.4277H48.8922C48.5461 37.7181 48.1472 36.0196 47.696 34.3347L46.1386 28.9189H42.6977L41.7279 43.3423H44.2568L44.541 37.7932C44.6373 36.0077 44.7304 33.8787 44.769 32.0547H44.8252C45.1672 33.8209 45.6248 35.7797 46.0808 37.395L47.6768 43.1335H49.7866L51.5528 37.2987C52.0473 35.6834 52.5595 33.7663 52.9786 32.0547H53.0348C53.0171 33.5174 53.1118 35.8359 53.1873 37.737L53.4538 43.3423H56.0951L55.2762 28.9189H51.8386ZM33.727 37.0337C33.8041 36.0061 34.3741 34.6205 35.7052 34.6205C37.0732 34.6205 37.5099 35.9499 37.4906 37.0337H33.7286H33.727ZM39.9617 38.9525C40.0185 38.5882 40.0437 38.2197 40.0372 37.851C40.0372 34.4679 38.3834 32.6809 35.8561 32.6809C32.7974 32.6809 31.0681 35.2659 31.0681 38.2685C31.0681 41.5183 32.9114 43.551 36.1419 43.551C37.4344 43.551 38.6499 43.323 39.525 42.9441L39.1236 41.0237C38.4026 41.271 37.6046 41.4605 36.5786 41.4605C35.0774 41.4605 33.8041 40.7379 33.7286 38.9717H39.9617V38.9525ZM22.6851 42.8477C23.3883 43.2652 24.4914 43.551 25.6314 43.551C28.2341 43.551 29.7354 42.2408 29.7354 40.2434C29.7354 38.7999 28.9181 37.7932 27.1503 37.053C25.9541 36.5392 25.5559 36.255 25.5559 35.6657C25.5559 35.0957 26.0119 34.6767 26.8469 34.6767C27.6272 34.6767 28.3674 34.9817 28.8234 35.2274L29.3565 33.2701C28.7463 32.949 27.8359 32.6809 26.7714 32.6809C24.4529 32.6809 22.9516 34.1067 22.9516 35.9885C22.9516 37.1285 23.6741 38.2299 25.6121 39.0279C26.7521 39.5225 27.1134 39.8468 27.1134 40.4923C27.1134 41.1377 26.6381 41.5359 25.6683 41.5359C24.8141 41.5359 23.7689 41.157 23.2374 40.8343L22.6851 42.8477ZM18.1443 39.7697C18.1443 41.1008 17.0605 41.5745 16.3942 41.5745C15.6925 41.5745 15.084 41.1377 15.084 40.1503C15.084 38.6297 16.6415 38.2685 18.1443 38.2685V39.7697ZM13.6213 35.3799C14.3968 34.9146 15.2827 34.6651 16.1871 34.6574C17.7076 34.6574 18.0673 35.4377 18.0673 36.4814C14.7436 36.4814 12.3673 37.737 12.3673 40.4152C12.3673 42.1075 13.5635 43.551 15.5031 43.551C16.6623 43.551 17.6867 43.0757 18.2776 42.2585H18.3338L18.5056 43.3423H20.9943C20.8803 42.6968 20.8418 41.7848 20.8418 40.8728V37.0514C20.8418 34.7714 19.9683 32.7001 16.7185 32.7001C15.084 32.7001 13.7915 33.1754 13.0898 33.5752L13.6197 35.3799H13.6213ZM5.77293 37.0145H10.4855V34.7521H5.77454V31.2567H10.7713V28.9381H3V43.3615H11.0571V41.0414H5.77454V37.0113L5.77293 37.0145Z" fill="#005999"/>
<path fill-rule="evenodd" clip-rule="evenodd" d="M20.9397 34.2592C28.5777 18.8291 49.4445 30.6305 61.0163 20.3303C49.4814 32.3774 26.659 22.2105 20.9397 34.2592Z" fill="#00699E"/>
<path fill-rule="evenodd" clip-rule="evenodd" d="M47.924 11.0369L75.003 13.28C76.3148 13.3555 76.1045 13.622 75.459 14.2289L62.2527 27.1703C61.5109 27.9892 61.3391 27.7596 60.4656 26.7914L55.2955 20.9373C54.6131 20.2147 54.4991 20.0638 55.676 19.6447L68.5227 15.5022L54.0623 18.0873C52.9785 18.3153 53.1118 18.4678 52.3507 17.384L47.5435 11.8735C46.9349 11.2087 46.9927 10.8844 47.924 11.0385V11.0369Z" fill="#00A3D6"/>
<path fill-rule="evenodd" clip-rule="evenodd" d="M55.7146 20.6145L57.1211 22.1158C57.8051 22.8576 57.6156 22.8753 56.8353 23.3521L52.3717 25.4411C51.8386 25.7638 51.4966 25.4989 51.8771 24.8903L54.7078 20.348C54.9744 19.778 55.2778 20.0831 55.7146 20.6145Z" fill="#00699E"/>
<path d="M111.167 48.0741C111.228 48.0757 111.288 48.0558 111.337 48.0179C111.395 47.9812 111.442 47.9282 111.47 47.8654C111.526 47.769 111.603 47.6374 111.698 47.4286C111.812 47.2375 111.926 47.0112 112.079 46.7623L112.535 46.0221C112.686 45.7748 112.856 45.5276 113.01 45.3188C113.136 45.1372 113.275 44.9655 113.427 44.805C113.561 44.6734 113.655 44.5963 113.75 44.5963C113.808 44.5963 113.846 44.6155 113.864 44.6541C113.883 44.691 113.903 44.7488 113.922 44.805C113.937 44.8609 113.943 44.919 113.94 44.9768V45.1101C113.94 45.4328 113.922 45.7555 113.883 46.0783C113.846 46.4002 113.827 46.724 113.827 47.0481C113.827 47.1814 113.827 47.3323 113.845 47.5041C113.864 47.6759 113.883 47.8268 113.941 47.9794C113.99 48.1208 114.067 48.2504 114.169 48.3599C114.264 48.4546 114.415 48.5108 114.587 48.5108C114.809 48.5046 115.025 48.4392 115.213 48.3214C115.441 48.1881 115.651 48.0355 115.86 47.8654C116.069 47.6935 116.277 47.5041 116.449 47.2954C116.639 47.1043 116.772 46.9148 116.886 46.7815C116.905 46.7446 116.924 46.7254 116.961 46.6692C116.983 46.6341 116.996 46.5945 117 46.5535C116.998 46.501 116.985 46.4495 116.961 46.4026C116.944 46.3448 116.905 46.3255 116.83 46.3255C116.753 46.3255 116.696 46.3641 116.639 46.4219C116.582 46.4974 116.526 46.5536 116.486 46.6114C116.411 46.7061 116.316 46.8201 116.183 46.9726C116.049 47.1235 115.898 47.2568 115.746 47.4094C115.597 47.5417 115.438 47.6625 115.271 47.7706C115.147 47.8563 115.003 47.9083 114.853 47.9216C114.818 47.9236 114.782 47.9179 114.749 47.9049C114.716 47.8919 114.687 47.8718 114.662 47.8461C114.623 47.7936 114.592 47.7364 114.567 47.6759C114.548 47.5988 114.548 47.5426 114.548 47.4672V47.2761C114.548 46.8586 114.567 46.4412 114.625 46.0397C114.681 45.6415 114.701 45.2241 114.701 44.805C114.701 44.7103 114.681 44.5963 114.662 44.5015C114.648 44.3992 114.609 44.3017 114.55 44.2174C114.495 44.1287 114.425 44.0513 114.341 43.9894C114.25 43.929 114.145 43.8956 114.036 43.893C113.857 43.8977 113.685 43.9578 113.541 44.0648C113.396 44.1644 113.262 44.279 113.142 44.4068C113.01 44.5594 112.877 44.7119 112.763 44.8821C112.649 45.0523 112.535 45.2241 112.421 45.3766L111.965 46.0028C111.812 46.2115 111.679 46.4203 111.547 46.6483C111.526 46.6675 111.509 46.7061 111.47 46.7623C111.432 46.8201 111.412 46.8586 111.395 46.8586C111.375 46.8586 111.356 46.8201 111.337 46.7623C111.318 46.7061 111.318 46.6306 111.318 46.5343C111.318 46.4588 111.298 46.3641 111.298 46.2886V46.0975C111.298 45.8888 111.298 45.6801 111.318 45.4521C111.318 45.2434 111.337 45.0346 111.337 44.8259C111.337 44.7488 111.337 44.6541 111.318 44.5594L111.261 44.2543C111.229 44.1661 111.184 44.0829 111.128 44.007C111.096 43.975 111.057 43.95 111.014 43.9337C110.972 43.9174 110.926 43.9101 110.881 43.9123C110.728 43.9123 110.576 43.9877 110.406 44.1403C110.225 44.3086 110.053 44.4866 109.892 44.6734C109.722 44.8821 109.571 45.0908 109.437 45.2995C109.304 45.5083 109.19 45.6801 109.113 45.7941C109.152 45.5854 109.19 45.3766 109.246 45.1679C109.304 44.9592 109.36 44.7488 109.437 44.5577C109.474 44.4823 109.494 44.4068 109.55 44.2928C109.588 44.1965 109.646 44.0841 109.683 43.9877C109.722 43.8754 109.76 43.779 109.797 43.6843C109.836 43.5896 109.836 43.4948 109.836 43.4177C109.836 43.3423 109.816 43.2668 109.779 43.2283C109.741 43.1721 109.683 43.1528 109.608 43.1528C109.443 43.1559 109.281 43.1942 109.132 43.2652C108.975 43.3305 108.842 43.4441 108.753 43.5896C108.715 43.6859 108.657 43.8368 108.601 44.0455C108.543 44.2735 108.468 44.5208 108.41 44.805C108.354 45.0908 108.278 45.3943 108.22 45.7186C108.149 46.0196 108.092 46.324 108.05 46.6306C107.992 46.9148 107.954 47.1814 107.917 47.4286C107.878 47.6759 107.859 47.8461 107.859 47.9601C107.86 48.0219 107.881 48.0818 107.917 48.1319C107.954 48.1881 108.012 48.2074 108.087 48.2074C108.134 48.2088 108.181 48.1993 108.224 48.1795C108.267 48.1597 108.305 48.1302 108.334 48.0934C108.392 48.0219 108.443 47.9456 108.487 47.8654C108.525 47.769 108.599 47.6374 108.696 47.4479C108.792 47.2568 108.924 47.0304 109.057 46.8008C109.19 46.5536 109.341 46.3063 109.513 46.0606C109.683 45.8134 109.836 45.5661 109.988 45.3574C110.139 45.1486 110.272 44.9768 110.406 44.8435C110.539 44.7103 110.634 44.6348 110.711 44.6348C110.767 44.6348 110.805 44.6734 110.805 44.7312C110.805 44.7874 110.823 44.8435 110.823 44.8628V45.6801C110.823 45.8696 110.823 46.0606 110.842 46.2694C110.842 46.4781 110.862 46.6868 110.881 46.8956C110.9 47.1043 110.919 47.2954 110.939 47.4656C110.951 47.617 110.989 47.7652 111.051 47.9039C111.033 48.0163 111.09 48.0741 111.167 48.0741ZM106.111 44.691C106.302 44.691 106.453 44.7874 106.528 44.9575C106.624 45.147 106.663 45.3574 106.681 45.6223C106.681 45.9643 106.644 46.2694 106.568 46.5343C106.497 46.7753 106.395 47.0058 106.263 47.2199C106.149 47.3874 106.008 47.535 105.846 47.6566C105.718 47.7482 105.566 47.8007 105.409 47.8075C105.256 47.8075 105.123 47.7321 105.007 47.5795C104.895 47.4286 104.857 47.2006 104.857 46.8763C104.857 46.6483 104.895 46.4026 104.953 46.1537C105.027 45.9146 105.115 45.6803 105.218 45.4521C105.332 45.2434 105.465 45.0523 105.618 44.919C105.68 44.8502 105.756 44.7945 105.841 44.7554C105.926 44.7162 106.017 44.6944 106.111 44.691ZM104.059 46.8763C104.059 47.3708 104.173 47.7514 104.364 47.9794C104.572 48.2074 104.82 48.3406 105.104 48.3406C105.351 48.3378 105.593 48.272 105.807 48.1495C106.054 48.0179 106.263 47.8284 106.472 47.5795C106.663 47.3323 106.833 47.0288 106.966 46.6676C107.102 46.2644 107.167 45.8405 107.156 45.4152C107.156 45.2225 107.138 45.033 107.08 44.8435C107.041 44.6829 106.977 44.5291 106.891 44.3876C106.808 44.2569 106.693 44.1499 106.556 44.0768C106.42 44.0037 106.267 43.9669 106.112 43.9701C105.807 43.9701 105.541 44.0648 105.276 44.235C105.028 44.4261 104.8 44.6525 104.629 44.9383C104.451 45.2301 104.311 45.543 104.211 45.8695C104.117 46.1976 104.065 46.5366 104.059 46.8779V46.8763ZM101.379 48.3775C101.703 48.3775 102.005 48.3214 102.31 48.2074C102.609 48.1042 102.891 47.957 103.147 47.7706C103.407 47.5855 103.644 47.3681 103.85 47.1235C104.059 46.8763 104.248 46.6306 104.381 46.3641C104.404 46.3213 104.423 46.2767 104.439 46.2308C104.458 46.1746 104.476 46.1345 104.476 46.0975C104.476 45.9852 104.42 45.9274 104.306 45.9274C104.23 45.9274 104.173 45.9643 104.116 46.0221C104.059 46.0976 104.02 46.1554 103.983 46.2116C103.863 46.4103 103.729 46.6007 103.583 46.7815C103.432 46.9726 103.241 47.1236 103.069 47.2761C102.883 47.4212 102.679 47.5426 102.463 47.6374C102.254 47.7337 102.007 47.7706 101.779 47.7706C101.673 47.7736 101.568 47.7549 101.47 47.7157C101.372 47.6765 101.283 47.6176 101.209 47.5426C101.097 47.433 101.018 47.2946 100.981 47.1428C100.924 46.9776 100.898 46.8035 100.903 46.629C100.906 46.2134 100.983 45.8016 101.131 45.4136C101.209 45.2241 101.284 45.0346 101.379 44.8821C101.475 44.7295 101.57 44.5963 101.645 44.5015C101.718 44.4267 101.801 44.3629 101.893 44.3121C101.979 44.2601 102.078 44.2334 102.178 44.235C102.31 44.235 102.387 44.2735 102.406 44.3683C102.424 44.4646 102.443 44.5594 102.443 44.6541C102.445 44.805 102.413 44.9543 102.349 45.0908C102.287 45.1808 102.254 45.2869 102.252 45.3959C102.252 45.4714 102.292 45.5083 102.368 45.5083C102.463 45.5083 102.557 45.4714 102.652 45.3959C102.759 45.285 102.831 45.1456 102.861 44.9945C102.899 44.8243 102.919 44.691 102.919 44.5594C102.919 44.2543 102.843 44.0455 102.671 43.9123C102.519 43.779 102.292 43.7228 102.026 43.7228C101.798 43.7228 101.57 43.779 101.379 43.8561C101.014 44.0375 100.711 44.3216 100.505 44.6734C100.391 44.8435 100.316 45.033 100.239 45.2241C100.164 45.4227 100.101 45.6253 100.049 45.831C100.011 46.0397 99.9915 46.2485 99.9915 46.4781C99.9915 46.7623 100.03 47.0481 100.125 47.313C100.203 47.5734 100.347 47.8095 100.542 47.9986C100.639 48.0934 100.772 48.1881 100.903 48.2459C101.019 48.3406 101.189 48.3775 101.379 48.3775ZM98.1113 48.1319C98.2815 48.1319 98.3955 48.0741 98.4533 47.9601C98.509 47.835 98.5348 47.6987 98.5287 47.5619C98.5297 47.5025 98.5163 47.4438 98.4898 47.3907C98.4632 47.3376 98.4243 47.2917 98.3762 47.2568C98.2868 47.1782 98.1739 47.1313 98.0551 47.1235C97.9009 47.1235 97.8062 47.1814 97.75 47.3146C97.6979 47.434 97.6721 47.5633 97.6745 47.6936C97.6717 47.7539 97.682 47.8142 97.7047 47.8702C97.7275 47.9262 97.7621 47.9766 97.8062 48.0179C97.864 48.0934 97.978 48.1303 98.1113 48.1303V48.1319Z" fill="#383330"/>
</g>
<defs>
<clipPath id="clip0_109_1268">
<rect width="114" height="38.5352" fill="white" transform="translate(3 11)"/>
</clipPath>
</defs>
</svg>
