<svg width="120" height="60" viewBox="0 0 120 60" fill="none" xmlns="http://www.w3.org/2000/svg">
<g clip-path="url(#clip0_109_1312)">
<path fill-rule="evenodd" clip-rule="evenodd" d="M45.8141 13.1633C47.4707 13.1633 48.8006 14.3766 48.8006 15.8698C48.8006 17.3631 47.4707 18.5763 45.8141 18.5763C44.1576 18.5763 42.8043 17.3631 42.8043 15.8698C42.8043 14.3766 44.1576 13.1633 45.8141 13.1633ZM43.3176 21.2362H48.3807V38.1519H43.3176V21.2362Z" fill="#1268B3"/>
<path fill-rule="evenodd" clip-rule="evenodd" d="M15.4826 30.779C14.876 36.3553 7.43307 36.052 8.43635 28.6791C8.73966 26.3925 10.2796 24.246 13.0094 24.9926C15.226 25.5759 15.7626 28.0725 15.4826 30.8023V30.779ZM15.4359 35.7953C15.9959 42.3516 10.6995 43.3316 6.21981 41.6517C5.63651 41.4417 5.09988 41.0684 4.56324 40.8817V45.1515C5.02988 45.7814 7.78305 46.1314 8.763 46.2014C13.2194 46.458 17.6991 45.4081 19.6824 41.325C21.0356 38.5952 20.709 35.0954 20.709 31.7822V21.1662H15.4593V23.1727C14.9226 22.7761 14.3393 21.2595 11.7962 20.8629C10.0463 20.5829 8.15636 21.0029 6.89644 21.7962C4.53991 23.2661 3.02333 25.9959 3 29.939C3 33.8354 4.37659 36.7053 6.9431 37.9419C8.34302 38.6185 10.3729 38.8285 12.0295 38.3618C14.3393 37.6852 14.9226 36.192 15.4359 35.772V35.7953Z" fill="#F36C21"/>
<path fill-rule="evenodd" clip-rule="evenodd" d="M92.0815 30.6856C91.8948 31.9222 91.4515 32.9955 90.8216 33.6488C90.1916 34.2788 88.885 34.7921 87.6018 34.4887C84.9186 33.8821 84.9186 30.8256 85.0586 28.6791C85.2219 26.3925 86.9251 24.3627 89.5616 24.946C91.8248 25.4593 92.4781 28.1191 92.1048 30.6856H92.0815ZM79.8555 38.2219H85.1052V36.2386C85.4785 36.4486 86.1785 38.1052 88.745 38.5485C90.5183 38.8518 92.4548 38.4552 93.7381 37.6386C96.0946 36.0986 97.4712 33.4621 97.5645 29.4724C97.6345 25.6693 96.3046 22.5661 93.6914 21.3762C91.5449 20.3962 88.4417 20.6062 86.5751 22.1928C85.9685 22.7061 85.2452 23.686 85.1286 23.756C85.0819 22.1228 85.2452 13.7233 85.0819 13H79.9022C79.7389 13.7 79.8555 23.9194 79.8555 25.5293V38.2219ZM63.7332 30.6856C63.0332 35.7253 58.2268 35.3987 57.0369 32.5522C56.6169 31.5256 56.6169 29.8923 56.7102 28.6558C56.8502 26.3459 58.6001 24.3393 61.2133 24.946C63.4532 25.4593 64.1065 28.0491 63.7332 30.6856ZM51.5072 38.2219H56.7569V36.2386C57.2002 36.542 57.1069 36.8686 58.2501 37.6852C61.4466 39.9484 69.0295 38.6885 69.2162 29.449C69.2862 25.6459 67.9796 22.4961 65.2964 21.3295C62.7765 20.2329 59.2767 20.6995 57.4802 22.8928C57.2935 23.1261 56.9669 23.5927 56.7802 23.7327V13.0233H51.5072V38.2219ZM107.947 34.5587C104.984 34.5587 103.911 32.7155 103.911 29.7057C103.911 26.8359 105.101 24.8526 107.947 24.8526C111.027 24.8526 111.61 27.3258 111.61 29.939C111.61 32.5522 110.56 34.5354 107.947 34.5354V34.5587ZM98.6144 31.0356C99.1511 36.2853 103.281 39.2018 109.114 38.5718C114.294 38.0119 117.467 34.1388 116.907 28.3291C115.88 17.5031 97.2612 17.9697 98.5911 31.0356H98.6144Z" fill="#1268B3"/>
<path fill-rule="evenodd" clip-rule="evenodd" d="M28.1285 30.779C27.4519 24.2693 32.5616 24.106 34.4515 25.6459C36.2947 27.1625 36.7147 33.6955 32.9582 34.4887C31.675 34.7687 30.1817 34.4187 29.4584 33.7655C28.6885 33.0655 28.2685 32.1322 28.1285 30.779ZM30.8584 20.8629C25.5387 21.3995 22.2722 24.946 22.7622 30.8256C23.2055 36.1686 27.2419 39.1085 33.0049 38.5952C38.3479 38.1285 41.4977 34.3954 41.1011 28.5858C40.7511 23.3361 36.528 20.3029 30.835 20.8629H30.8584Z" fill="#F36C21"/>
<path d="M89.4683 46.2947C89.4683 45.9447 89.5849 45.6648 89.7949 45.4081C90.0049 45.1515 90.2849 45.0348 90.5882 45.0348C90.8915 45.0348 91.1715 45.1515 91.3815 45.4081C91.6148 45.6648 91.7081 45.9447 91.7081 46.2947C91.7081 46.6447 91.5915 46.948 91.3815 47.1813C91.1715 47.4146 90.8915 47.5546 90.5882 47.5546C90.2849 47.5546 90.0049 47.438 89.7949 47.1813C89.5616 46.948 89.4683 46.6447 89.4683 46.2947ZM97.9844 45.5948V47.1113C97.2378 47.4146 96.5845 47.5546 95.9545 47.5546C94.9046 47.5546 94.0647 47.2513 93.4347 46.598C92.8047 45.9681 92.4781 45.1281 92.4781 44.1015C92.4781 43.0749 92.8047 42.2583 93.4347 41.5817C94.0647 40.9284 94.8813 40.6017 95.8612 40.6017C96.4912 40.6017 97.1678 40.7417 97.8678 41.045V42.6083C97.4044 42.323 96.872 42.1697 96.3279 42.165C95.7679 42.165 95.3246 42.3516 94.9746 42.7016C94.6246 43.0516 94.4613 43.5182 94.4613 44.1015C94.4613 44.6848 94.6246 45.1748 94.9513 45.5481C95.2779 45.9214 95.7212 46.0847 96.2579 46.0847C96.6545 46.0847 97.2145 45.9214 97.9378 45.6181L97.9844 45.5948ZM101.928 40.6017C102.861 40.6017 103.654 40.905 104.307 41.5117C104.961 42.1183 105.287 42.9816 105.287 44.0782C105.287 45.1748 104.961 46.0381 104.284 46.6447C103.631 47.2513 102.837 47.5546 101.904 47.5546C100.901 47.5546 100.108 47.228 99.4543 46.598C98.8244 45.9447 98.4977 45.1048 98.4977 44.0782C98.4977 43.0516 98.8244 42.1883 99.4543 41.5583C100.108 40.9284 100.901 40.6017 101.881 40.6017H101.928ZM101.928 46.318C102.814 46.318 103.281 45.5481 103.281 44.0315C103.281 42.5149 102.837 41.8616 101.928 41.8616C101.508 41.8616 101.158 42.0483 100.924 42.4449C100.691 42.8183 100.551 43.3782 100.551 44.1015C100.551 45.5948 101.018 46.3414 101.928 46.3414V46.318ZM108.064 40.7417V41.605C108.694 40.9517 109.394 40.6017 110.14 40.6017C111.167 40.6017 111.89 41.0684 112.287 42.025C113.01 41.0684 113.803 40.6017 114.643 40.6017C115.343 40.6017 115.903 40.835 116.323 41.3017C116.767 41.7683 116.977 42.3749 116.977 43.1216V47.4146H115.087V43.4949C115.087 43.0282 114.993 42.6549 114.783 42.3983C114.69 42.2703 114.567 42.1672 114.425 42.098C114.282 42.0289 114.125 41.9958 113.967 42.0016C113.407 42.0016 112.917 42.3749 112.474 43.1216V47.3913H110.584V43.4249C110.584 42.9582 110.49 42.6083 110.28 42.3516C110.179 42.2281 110.051 42.13 109.905 42.0652C109.759 42.0004 109.6 41.9706 109.44 41.9783C108.95 41.9783 108.46 42.2816 108.017 42.9116V47.3913H106.127V40.7184H108.017L108.064 40.7417Z" fill="#231F20"/>
<path fill-rule="evenodd" clip-rule="evenodd" d="M74.2558 13.1633C75.9124 13.1633 77.2423 14.3766 77.2423 15.8698C77.2423 17.3631 75.9124 18.5763 74.2558 18.5763C72.5992 18.5763 71.246 17.3631 71.246 15.8698C71.246 14.3766 72.5992 13.1633 74.2558 13.1633ZM71.7593 21.2362H76.8223V38.1519H71.7593V21.2362Z" fill="#1268B3"/>
</g>
<defs>
<clipPath id="clip0_109_1312">
<rect width="114" height="34.5546" fill="white" transform="translate(3 13)"/>
</clipPath>
</defs>
</svg>
