<svg width="120" height="60" viewBox="0 0 120 60" fill="none" xmlns="http://www.w3.org/2000/svg">
<g clip-path="url(#clip0_110_1431)">
<path d="M38.9195 37.5691H32.7317V34.097H42.9041C43.4952 41.066 39.5147 46.1501 33.5667 47.2165C25.895 48.5888 19.79 42.8847 18.8806 36.5812C17.9134 29.8933 22.0675 23.565 28.6107 22.0853C33.1699 21.0561 37.2537 22.0853 40.6183 25.4706C40.9614 25.8178 41.3003 26.1691 41.6351 26.5246C41.6971 26.5866 41.7385 26.6693 41.6434 26.6197C40.8539 27.529 40.0644 28.4384 39.2626 29.3601C38.7459 28.798 38.3449 28.3061 37.8944 27.8721C35.0713 25.1523 31.7521 24.5116 28.1891 25.9748C24.6757 27.4174 22.7867 30.2075 22.547 34.0309C22.2039 39.4953 26.019 42.5788 29.1646 43.5502C33.6163 44.9307 37.5389 42.0787 38.5681 38.9621C38.7087 38.5405 38.7872 38.0982 38.9153 37.565L38.9195 37.5691Z" fill="black"/>
<path d="M109.461 36.5068C111.945 39.9252 114.45 43.3724 117 46.8817C116.818 46.9107 116.711 46.9437 116.599 46.9437C115.351 46.9479 114.102 46.9313 112.854 46.9603C112.47 46.9685 112.313 46.7536 112.135 46.4973C109.986 43.4138 107.828 40.3302 105.679 37.2467C105.637 37.1888 105.608 37.0979 105.55 37.0731C105.34 36.978 105.121 36.9036 104.906 36.821C104.848 36.9904 104.74 37.164 104.736 37.3335C104.728 40.2641 104.728 43.1947 104.728 46.1253C104.728 46.3733 104.728 46.6255 104.728 46.9107H101V22.3085C101.033 22.2837 101.057 22.2424 101.086 22.2424C103.757 22.2796 106.443 22.0067 109.093 22.5482C111.875 23.1145 113.834 24.6397 114.603 27.4463C115.467 30.6167 114.268 33.8904 111.672 35.4817C111.002 35.8909 110.242 36.1513 109.461 36.5068V36.5068ZM104.765 33.5183C106.282 33.5803 107.762 33.6134 109.151 32.9727C110.415 32.3899 111.069 31.369 111.176 29.9967C111.288 28.5789 110.978 27.3099 109.663 26.5287C108.146 25.6235 106.456 25.7227 104.761 25.731V33.5183H104.765Z" fill="black"/>
<path d="M66.5143 22.2423H78.8071V25.702H70.2757V31.6583H78.5343V35.1387H70.2633V46.9024H66.5143V22.2423Z" fill="black"/>
<path d="M43.9333 22.2796C45.2932 22.2796 46.5208 22.263 47.7443 22.2961C47.9014 22.3002 48.0998 22.5234 48.1949 22.6888C49.7408 25.3631 51.2743 28.0457 52.8161 30.7283C53.0723 31.1788 53.3493 31.617 53.6717 32.1584C53.8453 31.8939 53.9693 31.7244 54.0726 31.5467C55.7591 28.6161 57.4372 25.6855 59.1361 22.7632C59.2518 22.5648 59.4957 22.3209 59.6858 22.3126C60.8928 22.2713 62.0997 22.292 63.41 22.292C63.315 22.5276 63.2695 22.6929 63.1868 22.8334C60.6944 27.157 58.1978 31.4723 55.7177 35.8041C55.5483 36.1017 55.4697 36.4903 55.4656 36.8334C55.4449 39.9624 55.4408 43.0955 55.4573 46.2286C55.4573 46.7288 55.3209 46.8983 54.8166 46.8735C54.0602 46.8363 53.2955 46.8404 52.5391 46.8735C52.0514 46.8941 51.8778 46.7453 51.8778 46.2369C51.8984 43.1616 51.9026 40.0822 51.8736 37.007C51.8695 36.5647 51.7414 36.0728 51.5264 35.6884C49.1208 31.4434 46.682 27.2149 44.2557 22.9781C44.1524 22.7962 44.0739 22.5937 43.925 22.2878L43.9333 22.2796Z" fill="#F68A1F"/>
<path d="M92.0135 46.9313H88.2686V25.7351H82.5892V22.2589H97.6473V25.7144H92.0135V46.9313Z" fill="black"/>
<path d="M18.5913 23.7676L18.3226 25.0572H4.3971V30.844H16.3716L16.4088 30.9763C15.9666 31.3648 15.5367 31.7699 15.0737 32.1336C14.9539 32.2287 14.7307 32.2122 14.5571 32.2122C12.3126 32.2163 10.0682 32.2122 7.82371 32.2122H7.1913V45.5962H19.5875L19.8231 46.9355H5.78593V32.2205H3.03307C3.02067 32.0096 3 31.8402 3 31.6666C3 29.203 3.0124 26.7437 3.00827 24.2801C3.00827 23.8957 3.10747 23.7304 3.52495 23.7304C8.43133 23.7428 13.3336 23.7345 18.24 23.7345C18.3268 23.7345 18.4177 23.7469 18.5913 23.7635V23.7676Z" fill="black"/>
<path d="M18.8145 21.6182C21.4764 20.7956 23.8036 19.3076 26.2092 17.7286C26.0356 18.1213 25.9157 18.4189 25.7793 18.7041C25.6099 19.0637 25.7545 19.2125 26.1141 19.2167C26.3828 19.2167 26.6556 19.2167 26.9615 19.2167C26.9119 19.2911 26.8912 19.3489 26.854 19.3655C24.5641 20.4898 22.2411 21.5273 19.7528 22.1514C18.025 22.5854 16.3262 22.478 14.6191 22.0026C12.3292 21.3661 10.1922 20.374 8.05933 19.3531L8.06759 19.2043C8.26186 19.2043 8.45614 19.2043 8.65041 19.2043C9.32829 19.2043 9.36962 19.134 9.08855 18.5388C8.99761 18.3487 8.93561 18.1503 8.91081 17.9064C11.2421 19.3779 13.5568 20.837 16.1981 21.6265L16.3014 21.4653C16.1319 21.3206 15.9707 21.1677 15.7971 21.0313C14.1975 19.7788 12.6433 18.4768 11.6347 16.6705C11.4115 16.2695 11.2586 15.7942 11.2173 15.3437C11.1346 14.4302 11.6389 13.8019 12.416 13.3968C13.2633 12.9545 14.1272 12.7851 14.9622 13.4175C15.888 14.1202 16.3262 15.1411 16.6569 16.1951C16.9173 17.0177 17.0578 17.8816 17.2521 18.7248C17.2975 18.9273 17.3513 19.1299 17.4009 19.3324L17.5373 19.3448C17.591 19.1175 17.6365 18.886 17.7026 18.6628C18.054 17.4517 18.3929 16.2406 18.7732 15.0378C18.8682 14.736 19.0708 14.4632 19.2527 14.1946C20.5506 12.2601 22.5387 13.0165 23.4398 14.1863C23.8449 14.7154 23.8449 15.3313 23.6382 15.943C23.1835 17.2905 22.2494 18.3032 21.2532 19.2539C20.5878 19.8904 19.8603 20.4567 19.1493 21.0437C18.9881 21.1759 18.7856 21.2545 18.6037 21.3619L18.8186 21.6265L18.8145 21.6182ZM16.9875 21.2999C16.9875 20.9403 17.0289 20.746 16.9793 20.5724C16.7189 19.5763 16.5287 18.5512 16.136 17.6088C15.7682 16.7242 15.2391 15.8851 14.6769 15.1039C14.3215 14.612 13.6312 14.5872 13.2013 14.8642C12.8169 15.1163 12.6268 15.6702 12.8665 16.2282C13.1558 16.902 13.4907 17.5757 13.9123 18.1709C14.7265 19.3241 15.7103 20.3286 16.9834 21.2999H16.9875ZM17.9878 21.1718C18.1573 21.1015 18.2689 21.085 18.3433 21.023C19.7197 19.8326 20.9846 18.5471 21.8402 16.9226C22.0055 16.6085 22.0882 16.2447 22.1543 15.8934C22.237 15.447 22.0841 15.0543 21.6748 14.8311C21.2367 14.5914 20.782 14.641 20.4141 14.9716C20.1331 15.2238 19.8685 15.509 19.6701 15.8231C18.769 17.2533 18.3268 18.8571 17.9961 20.4898C17.9548 20.6882 17.992 20.899 17.992 21.1677L17.9878 21.1718Z" fill="#F68B1F"/>
<path d="M18.7401 25.0283L4.39709 25.0572V30.844H16.7685L18.7401 25.0283Z" fill="#B0D236" stroke="white" stroke-width="0.720548"/>
<path d="M15.4457 32.1419L7.19128 32.2122V45.6004H20.0752L15.4457 32.1419Z" fill="#B0D236" stroke="white" stroke-width="0.720548" stroke-miterlimit="10"/>
</g>
<defs>
<clipPath id="clip0_110_1431">
<rect width="114" height="34.4191" fill="white" transform="translate(3 13)"/>
</clipPath>
</defs>
</svg>
