<svg width="120" height="60" viewBox="0 0 120 60" fill="none" xmlns="http://www.w3.org/2000/svg">
<g clip-path="url(#clip0_109_1279)">
<path d="M19.5262 11C19.587 11.2109 19.7922 11.1748 19.9385 11.2356C21.5478 11.8835 22.5415 13.0406 22.6612 14.8456C22.7828 16.7361 21.9848 18.0927 20.3128 18.9135C19.9746 19.075 19.6345 19.2365 19.3077 19.5975C20.5313 19.5975 21.7663 19.6735 22.9766 19.5728C24.0539 19.4854 24.4054 19.8844 24.2724 20.9408C24.2058 21.5368 24.2058 22.1384 24.2724 22.7344C24.3674 23.5913 24.0064 23.7794 23.2312 23.7794C17.2614 23.7547 11.2802 23.7794 5.31423 23.7547C4.57323 23.7547 4.21223 23.8782 4.36803 24.7484C4.47823 25.3469 4.86393 25.2348 5.21543 25.2348H12.4316C16.0758 25.2348 19.7086 25.2462 23.3528 25.2215C24.0425 25.2215 24.394 25.383 24.2838 26.1544C24.2477 26.428 24.2838 26.7149 24.2838 27.0018C24.2838 28.5066 24.2838 28.5446 22.855 28.7308C22.3116 28.8068 22.361 29.1545 22.4085 29.4775C22.5168 30.2983 22.1786 30.4731 21.4262 30.4598C16.718 30.4218 12.0212 30.4598 7.30923 30.4218C6.59673 30.4218 6.29273 30.5225 6.28133 31.368C6.28133 32.2762 6.69363 32.2762 7.34533 32.2762C11.9832 32.2648 16.6211 32.2762 21.2571 32.2515C22.1178 32.2515 22.5168 32.4016 22.4199 33.3839C22.3351 34.2616 22.3351 35.1453 22.4199 36.023C22.4807 36.7944 22.1786 36.954 21.4756 36.954C16.5964 36.9312 11.7286 36.9312 6.84943 36.954C6.53593 36.954 6.04003 36.6823 5.96593 37.3283C5.88233 37.9515 6.00393 38.2745 6.75253 38.2612C9.12753 38.2118 11.4873 38.2498 13.8585 38.2498C18.9087 38.2498 23.957 38.2251 29.0053 38.2745C29.8299 38.2745 30.0351 38.037 30.0237 37.2162C29.9857 31.5922 30.0237 25.9682 29.9857 20.3442C29.9857 19.4607 30.2289 19.2365 31.0763 19.2365C31.9123 19.2365 32.1783 19.436 32.1669 20.3328C32.1175 25.7079 32.1422 31.083 32.1536 36.4581C32.1536 37.2295 32.1783 38.0009 32.2638 38.7723C32.3588 39.6425 32.1422 39.9921 31.1732 39.9788C27.6012 39.9161 24.0292 39.9541 20.4572 39.9541H6.45233C5.46053 39.9541 4.96273 39.4278 4.96273 38.3733C4.96273 37.7026 5.02353 37.03 4.95133 36.3707C4.86583 35.5119 5.19263 35.301 5.99253 35.3124C10.7026 35.3504 15.3994 35.3257 20.1095 35.3257C20.5693 35.3257 21.0538 35.4758 21.0785 34.6531C21.0899 33.8703 20.727 33.8323 20.1456 33.8323C15.4355 33.8456 10.7387 33.8209 6.02863 33.857C5.15653 33.857 4.89053 33.61 4.96463 32.736C5.03683 31.729 5.03683 30.6973 4.96463 29.677C4.90383 28.8562 5.20593 28.6814 5.95643 28.6928C10.6893 28.7308 15.4374 28.7175 20.1684 28.7061C20.727 28.7061 21.4034 28.9664 21.5497 27.9841C21.5991 27.6611 22.0589 27.7238 22.3724 27.7105C22.6764 27.7105 23.0279 27.7599 22.9899 27.2621C22.9538 26.7776 22.6042 26.8517 22.3002 26.8517H15.6027C11.7286 26.8517 7.84313 26.827 3.96903 26.865C3.24323 26.865 3.01143 26.6522 3.06083 25.9188C3.12163 25.0847 3.14633 24.2278 3.06083 23.3918C2.96393 22.3981 3.23183 22.0998 4.25783 22.1112C10.0585 22.1739 15.8706 22.1359 21.6694 22.1359C21.9107 22.1359 22.1539 22.1245 22.3952 22.1359C22.8322 22.1606 23.0127 21.9744 23.0127 21.5279C23.0127 21.0662 22.8322 20.9161 22.3952 20.9161C20.3736 20.9294 18.3406 20.9161 16.3171 20.9161C15.9181 20.9161 15.4108 21.0529 15.3139 20.4696C15.2037 19.8844 15.616 19.5728 16.1119 19.4113C16.8871 19.1377 17.687 18.9135 18.4489 18.6133C19.454 18.2048 20.3375 17.6063 20.955 16.6753C21.6941 15.579 21.5972 14.2851 20.7498 13.3883C20.3389 12.9633 19.7934 12.6939 19.2062 12.626C18.619 12.5581 18.0264 12.6959 17.5293 13.0159C16.452 13.6999 15.8573 14.7696 15.4583 15.9514C15.0707 17.0724 14.7439 18.2162 14.4285 19.3733C14.2955 19.8958 14.0542 20.1713 13.5203 20.158C12.9883 20.158 12.6368 20.0079 12.4924 19.3866C12.1162 17.8191 11.6944 16.263 11.0997 14.7582C10.7368 13.812 10.1554 13.0539 9.21113 12.6302C8.10913 12.1438 6.95963 12.3813 6.20913 13.2648C5.43393 14.173 5.31233 15.3301 5.89373 16.3884C6.33073 17.1845 6.99573 17.7317 7.81843 18.0414C8.84823 18.429 9.88943 18.79 10.9306 19.1377C11.3904 19.2859 11.6697 19.4987 11.5348 20.0326C11.4018 20.5931 10.9914 20.6178 10.5658 20.519C8.92043 20.1333 7.32253 19.5975 5.94313 18.5525C4.62263 17.5569 3.89683 16.263 4.18753 14.5587C4.44023 12.805 5.43203 11.6346 7.14013 11.1748C7.22563 11.1501 7.29783 11.0608 7.37003 11H9.01733C12.1295 12.0336 12.3594 15.1059 13.4253 17.6576C15.2398 12.2692 15.35 12.1077 17.877 11H19.5243H19.5262Z" fill="#D73650"/>
<path d="M117 39.8914C116.939 39.9047 116.867 39.9161 116.806 39.9427C114.967 40.6761 114.591 40.4766 114.386 38.3733C114.264 37.1535 114.348 35.9223 114.313 34.6911C114.313 34.2427 114.275 33.7696 114.18 33.3345C113.888 32.0406 113.173 31.4801 111.999 31.6055C110.935 31.7176 110.002 32.6752 109.978 33.7715C109.929 35.5952 109.929 37.4198 109.978 39.2435C110.016 40.1175 109.59 40.1175 108.972 40.1042C108.391 40.0909 107.908 40.165 107.945 39.2682C108.017 37.5164 107.981 35.7608 107.956 33.9938C107.945 32.4377 107.278 31.6055 106.103 31.5808C104.844 31.5561 103.658 32.6866 103.622 34.0432C103.574 35.7643 103.574 37.4863 103.622 39.2074C103.647 40.0054 103.331 40.1289 102.664 40.1042C102.06 40.0795 101.661 40.1042 101.661 39.2454C101.661 36.3707 101.794 33.4846 101.576 30.6099C101.551 30.3477 101.443 29.9373 101.866 29.9753C102.398 30.0133 103.101 29.5763 103.44 30.2489C103.67 30.6973 103.791 30.4959 104.034 30.361C106.007 29.3027 107.169 29.4281 108.876 30.9576C109.263 31.3072 109.385 31.0716 109.59 30.8588C110.511 29.9373 111.623 29.6143 112.896 29.7378C114.638 29.9126 116.008 31.3813 116.153 33.3858C116.249 34.6778 116.213 35.985 116.249 37.2789C116.274 38.0769 116.322 38.8711 116.975 39.4563V39.88L117 39.8914Z" fill="#D73751"/>
<path d="M31.8875 11C32.8926 11.5719 33.5956 12.3566 33.7153 13.5764C33.873 15.0565 33.075 16.4492 31.8514 16.8349C30.567 17.2339 29.2598 16.6487 28.6556 15.4175C28.0381 14.135 28.4124 12.368 29.503 11.5225C29.7443 11.3363 29.9989 11.1748 30.2421 11H31.8875V11Z" fill="#D6354F"/>
<path d="M57.0341 36.27C57.0341 38.7096 57.0227 41.1245 57.0341 43.5261C57.0455 45.0442 56.5971 46.4236 56.029 47.7821C55.9074 48.0785 55.7877 48.4148 55.3754 48.278C54.8301 48.0918 54.1898 48.202 53.7414 47.7802C53.6806 47.7308 53.8497 47.4078 53.9352 47.2216C54.661 45.789 54.927 44.2728 54.927 42.654C54.9023 35.1395 54.927 27.625 54.7218 20.1086C54.7085 19.5101 54.7218 19.075 55.497 19.1624C56.1259 19.2384 56.9125 18.9002 56.827 20.1086C56.7548 21.0282 56.8042 21.9744 57.0227 23.0441C58.3774 21.0415 60.0361 19.6355 62.2401 19.0123C69.4924 16.985 75.8251 22.6964 74.8428 30.3743C74.1892 35.4758 71.4893 38.835 66.9977 39.7299C63.1844 40.4899 59.7587 39.7185 57.2507 36.3574C57.2165 36.3194 57.1424 36.308 56.998 36.2586L57.0341 36.2719V36.27ZM57.0455 29.5269C56.998 31.1324 56.9125 32.6619 57.6877 34.0299C59.2495 36.7944 61.6587 38.1624 64.7348 38.1624C67.7729 38.1624 70.1821 36.8932 71.6356 34.0565C72.6407 32.09 72.8573 29.9753 72.6635 27.8093C72.3728 24.4881 70.2182 21.7388 67.2295 20.8306C65.6889 20.3495 64.0375 20.354 62.4995 20.8434C60.9615 21.3329 59.6113 22.2836 58.632 23.5666C57.2754 25.3469 56.8517 27.3989 57.0455 29.5269Z" fill="#D73650"/>
<path d="M39.8049 32.5384C39.3337 35.6354 39.4914 35.8596 42.4573 36.5569C44.3345 37.0053 46.1623 37.6266 47.7488 38.7837C50.3993 40.7141 50.6539 44.782 48.2561 47.0468C45.4726 49.6973 40.3521 49.399 37.4071 47.632C36.6699 47.1836 37.5534 46.5604 37.6503 46.0132C37.7605 45.4166 38.1234 45.7149 38.4141 45.8764C40.4224 46.9841 42.5295 47.3964 44.781 46.8606C46.3675 46.4749 47.384 45.466 47.6994 43.8244C48.0034 42.1942 47.3365 40.8984 45.7861 39.9788C44.249 39.0706 42.5656 38.6108 40.8461 38.2251C38.0379 37.5905 37.2152 36.6063 37.6864 33.7582C37.9524 32.1774 37.6864 31.045 36.8504 29.6523C34.1144 25.1474 37.3957 19.2745 42.6644 19.0636C45.0242 18.9629 47.3954 19.0389 49.7704 18.9762C50.8344 18.9515 50.4107 19.6982 50.4962 20.196C50.6045 20.842 50.2777 20.9674 49.721 20.8914C49.0921 20.8173 48.4746 20.6064 47.7963 20.7299C50.3024 24.2145 50.5931 27.3495 48.7159 30.1121C46.8767 32.812 43.7531 33.6708 39.7821 32.5251L39.8049 32.5384ZM48.0262 26.181C48.0262 23.0327 45.883 20.7299 42.9532 20.7432C40.012 20.7432 37.8802 23.0441 37.8802 26.2057C37.8802 29.1412 40.0956 31.4307 42.9532 31.4554C45.9438 31.4801 48.0262 29.3274 48.0262 26.1924V26.181Z" fill="#D73751"/>
<path d="M89.5773 35.1129C89.5773 32.0026 91.7927 29.7511 94.8555 29.7511C97.8708 29.7511 100.039 31.9418 100.025 34.9647C100.014 38.0617 97.7853 40.3265 94.7244 40.3398C91.7319 40.3531 89.5773 38.1624 89.5773 35.1148V35.1129ZM98.0399 34.9894C98.0285 32.9982 96.6358 31.5181 94.7947 31.5181C92.8225 31.5181 91.4545 33.0115 91.4792 35.1281C91.4906 37.0927 92.9194 38.5728 94.7719 38.5481C96.6719 38.5101 98.0646 37.0167 98.0399 34.9894Z" fill="#D73650"/>
<path d="M85.6063 29.7511C86.2846 29.7264 87.0122 29.8879 87.738 30.1254C88.6462 30.4104 88.8154 30.8588 88.3556 31.729C88.0763 32.2401 87.8825 32.3636 87.3733 32.0653C86.4423 31.5181 85.3897 31.5181 84.3713 31.6929C82.7373 31.9665 81.7208 33.3725 81.7569 35.2003C81.8044 36.9179 82.9311 38.2365 84.5537 38.4493C85.5588 38.5728 86.5391 38.4493 87.4606 37.9876C87.871 37.79 88.1978 37.7406 88.2814 38.2992C88.3555 38.7476 89.0092 39.2815 88.2454 39.6558C84.8805 41.3088 80.195 40.1897 79.8074 35.5613C79.5281 32.2401 81.9735 29.7511 85.6196 29.7758L85.6063 29.7511Z" fill="#D73851"/>
<path d="M78.2951 38.3372C78.2818 39.3328 77.6282 40.0529 76.7447 40.0529C75.8251 40.0529 75.1335 39.2701 75.1582 38.2612C75.1962 37.2295 75.9087 36.4942 76.8302 36.5455C77.7004 36.5835 78.3065 37.3283 78.2932 38.3372H78.2951Z" fill="#D83953"/>
</g>
<defs>
<clipPath id="clip0_109_1279">
<rect width="114" height="38" fill="white" transform="translate(3 11)"/>
</clipPath>
</defs>
</svg>
