<svg width="120" height="60" viewBox="0 0 120 60" fill="none" xmlns="http://www.w3.org/2000/svg">
<path d="M69.0802 25.399C68.1319 25.399 67.2857 25.369 66.4426 25.4095C65.9189 25.435 65.7134 25.207 65.6804 24.7314C65.6759 24.6563 65.6714 24.5813 65.6669 24.5063C65.5303 22.2033 65.5618 22.1703 67.8169 22.1703H116.815V25.3825H72.423V37.0403C71.4087 37.0403 70.456 37.0538 69.5033 37.0358C68.9466 37.0252 69.0847 36.5766 69.0847 36.2556C69.0787 32.9563 69.0802 29.6555 69.0802 26.3562C69.0802 26.0637 69.0802 25.7726 69.0802 25.4005V25.399Z" fill="#373435"/>
<path d="M17.4665 36.092H15.3495C15.3495 35.792 15.3495 35.5069 15.3495 35.2218C15.3495 32.3967 15.3555 29.5715 15.3435 26.7463C15.342 26.2482 15.3495 25.7261 15.2055 25.261C15.1155 24.9714 14.7614 24.5963 14.5018 24.5768C14.2498 24.5573 13.8582 24.8904 13.7262 25.165C13.5641 25.504 13.5716 25.9406 13.5701 26.3352C13.5596 29.2849 13.5641 32.2361 13.5641 35.1858C13.5641 35.4574 13.5641 35.7289 13.5641 36.056H11.4606C11.4456 35.762 11.4186 35.4739 11.4186 35.1843C11.4156 32.3847 11.4216 29.5835 11.4126 26.7838C11.4111 26.2602 11.4231 25.7186 11.2911 25.2205C11.2206 24.9504 10.862 24.5753 10.6339 24.5753C10.3534 24.5753 9.94678 24.8589 9.82075 25.126C9.64971 25.4875 9.65421 25.9496 9.65121 26.3682C9.6392 29.3179 9.64371 32.2691 9.64371 35.2188C9.64371 35.4874 9.64371 35.756 9.64371 36.068H7.54321V23.108H9.49667L9.69622 23.9107C11.4501 22.2978 12.5499 22.3398 13.4936 24.0907C13.6932 23.8642 13.8717 23.6466 14.0667 23.4426C14.6744 22.8109 15.4051 22.5799 16.2483 22.8484C17.0344 23.099 17.2805 23.7561 17.33 24.4868C17.402 25.5566 17.453 26.6308 17.4605 27.7036C17.4785 30.4732 17.4665 33.2444 17.4665 36.092Z" fill="#373435"/>
<path d="M32.1671 24.0082L32.4026 23.0945H34.3741C34.3891 23.345 34.4131 23.5626 34.4131 23.7801C34.4146 28.2782 34.4281 32.7763 34.4011 37.2758C34.3966 38.041 34.275 38.8182 34.1115 39.5683C33.9255 40.4235 33.3328 41.0012 32.4731 41.1182C31.6929 41.2247 30.8767 41.2382 30.0981 41.1317C29.2579 41.0162 28.6172 40.4806 28.4042 39.6269C28.2271 38.9172 28.1686 38.1775 28.0486 37.3868H30.2856C30.3141 37.7754 30.3426 38.1655 30.3696 38.5556C30.4086 39.1197 30.5497 39.6434 31.2368 39.6434C31.897 39.6434 32.1535 39.1407 32.1701 38.5841C32.2091 37.3163 32.1821 36.047 32.1821 34.6202C31.5654 35.4004 30.9293 35.8985 29.987 35.8205C29.1528 35.7515 28.6217 35.4154 28.3847 34.6052C28.2451 34.1326 28.1566 33.627 28.1536 33.1348C28.1311 30.5617 28.1401 27.9871 28.1491 25.4125C28.1491 25.1155 28.2061 24.8184 28.2511 24.5228C28.3742 23.7036 28.7027 23.0225 29.5834 22.8124C30.4927 22.5964 31.2578 22.8679 31.8475 23.6046C31.924 23.7006 31.999 23.7966 32.1671 24.0082ZM32.2046 29.3539C32.2046 28.2317 32.2151 27.1079 32.1971 25.9857C32.1926 25.6676 32.1806 25.306 32.0305 25.0449C31.8925 24.8064 31.5594 24.5318 31.3179 24.5378C31.0373 24.5438 30.7297 24.8034 30.4987 25.0209C30.3801 25.1335 30.3621 25.393 30.3621 25.5866C30.3546 28.0802 30.3576 30.5722 30.3621 33.0658C30.3621 33.1888 30.3471 33.3569 30.4161 33.4289C30.6577 33.678 30.9248 34.0621 31.2008 34.0771C31.4739 34.0936 31.84 33.7785 32.035 33.5129C32.1926 33.2999 32.1926 32.9443 32.1971 32.6502C32.2136 31.552 32.2031 30.4537 32.2046 29.3569V29.3539Z" fill="#373435"/>
<path d="M98.4736 31.8205C98.4166 28.7808 101.02 26.7073 103.098 26.6608C106.047 26.5948 108.502 29.2699 108.212 32.2556C107.938 35.0793 106.085 37.0207 103.552 37.1423C100.637 37.2803 98.3596 34.8947 98.4736 31.822V31.8205ZM105.111 31.876C105.111 31.651 105.113 31.4259 105.111 31.2024C105.101 30.2031 104.87 29.9691 103.876 29.9601C103.402 29.9556 102.927 29.9421 102.454 29.9676C101.963 29.9946 101.66 30.2692 101.648 30.7733C101.63 31.4965 101.626 32.2211 101.651 32.9443C101.669 33.4469 101.971 33.708 102.477 33.7155C102.751 33.72 103.026 33.717 103.3 33.717C104.508 33.717 105.113 33.1028 105.113 31.8745L105.111 31.876Z" fill="#373435"/>
<path d="M23.6196 27.8311C23.6196 26.8949 23.6826 25.9947 23.5821 25.114C23.5506 24.8379 23.12 24.4913 22.8034 24.3908C22.3233 24.2377 21.9888 24.5918 21.8912 25.0539C21.7997 25.4875 21.7982 25.9421 21.7517 26.4493H19.6587C19.8387 25.5911 20.0083 24.7809 20.1808 23.9707C20.1913 23.9227 20.2153 23.8747 20.2423 23.8342C21.0705 22.6189 22.3338 22.7014 23.5566 22.7854C24.7134 22.8649 25.4066 23.4561 25.6721 24.4868C25.7831 24.9189 25.8597 25.3735 25.8627 25.8176C25.8792 29.0944 25.8732 32.3712 25.8732 35.6464C25.8732 35.768 25.8567 35.8895 25.8447 36.0605H23.8462C23.8087 35.822 23.7682 35.5654 23.7082 35.1813C23.4576 35.4424 23.2851 35.6329 23.102 35.8115C21.8957 36.9952 19.9993 36.5406 19.7637 34.8872C19.5372 33.2954 19.5237 31.642 19.6692 30.0396C19.7952 28.6488 21.0195 28.2452 22.2288 28.0231C22.6909 27.9376 23.159 27.8926 23.6196 27.8296V27.8311ZM23.6331 29.5505C22.3953 29.429 21.8087 29.8356 21.7457 30.9848C21.6932 31.9481 21.7652 32.9218 21.8222 33.888C21.8537 34.4086 22.1178 34.7852 22.7044 34.8047C23.3031 34.8242 23.6031 34.4341 23.6181 33.9285C23.6616 32.4687 23.6331 31.0073 23.6331 29.552V29.5505Z" fill="#373435"/>
<path d="M41.1033 23.0945H43.0927C43.1242 23.3525 43.1542 23.5941 43.1843 23.8357C43.2863 23.9332 43.3883 24.0307 43.4903 24.1282C43.5593 23.9167 43.5714 23.6556 43.7079 23.5026C44.3275 22.8019 45.1227 22.5949 46.0169 22.8379C46.8796 23.072 47.1257 23.7696 47.2187 24.5543C47.2652 24.9504 47.3267 25.348 47.3282 25.7456C47.3372 28.9699 47.3342 32.1941 47.3342 35.4184C47.3342 35.6149 47.3342 35.81 47.3342 36.0605H45.1497C45.1497 35.762 45.1497 35.4934 45.1497 35.2248C45.1497 32.3997 45.1527 29.576 45.1467 26.7508C45.1467 26.2767 45.1482 25.7966 45.0762 25.33C45.0027 24.8469 44.7101 24.4133 44.1775 24.5573C43.8429 24.6488 43.4498 24.9894 43.3313 25.3105C43.1648 25.7606 43.2023 26.2947 43.2008 26.7928C43.1918 29.567 43.1963 32.3411 43.1963 35.1168C43.1963 35.4124 43.1963 35.7094 43.1963 36.059H41.1033V23.0945Z" fill="#373435"/>
<path d="M55.9791 30.2437H51.8607C51.8607 31.558 51.8292 32.7973 51.8757 34.035C51.8937 34.5317 52.2493 34.8602 52.7819 34.8497C53.3175 34.8392 53.5981 34.4972 53.6536 33.9945C53.7316 33.2804 53.7721 32.5617 53.8321 31.807H55.8591C55.9596 33.0193 55.9836 34.2241 55.295 35.3148C54.7008 36.2556 53.2335 36.6397 51.7616 36.3456C50.3318 36.0605 49.7167 35.0523 49.6912 33.7725C49.6341 30.8558 49.6131 27.9286 49.7872 25.0194C49.8862 23.3615 50.9244 22.7449 52.8239 22.7539C54.5808 22.7629 55.532 23.4246 55.7121 25.0329C55.9026 26.7313 55.8951 28.4522 55.9776 30.2437H55.9791ZM51.7616 26.7343H51.7811C51.7811 26.9594 51.7811 27.1844 51.7811 27.408C51.7811 28.8318 51.8517 28.9023 53.307 28.7013C53.4765 28.6773 53.7466 28.4267 53.7466 28.2797C53.7496 27.2355 53.7136 26.1897 53.6521 25.147C53.6221 24.6398 53.316 24.3023 52.7909 24.2888C52.2192 24.2738 51.9282 24.6488 51.8592 25.1695C51.7916 25.6871 51.7901 26.2122 51.7601 26.7343H51.7616Z" fill="#373435"/>
<path d="M76.7756 28.9909V36.8377C76.66 36.9172 76.6225 36.9637 76.579 36.9697C75.2197 37.1608 74.54 36.5746 74.54 35.2113C74.54 32.7627 74.54 30.3127 74.54 27.8641V27.0149C75.8709 26.7388 77.1537 26.6473 78.4335 26.9594C80.7185 27.5145 81.6127 30.2046 80.1439 32.0651C79.9908 32.2601 79.8138 32.4372 79.6217 32.6517C80.2699 34.0576 80.9225 35.4724 81.6217 36.9877C80.804 36.9877 80.1108 37.0132 79.4237 36.9697C79.2616 36.9592 79.0411 36.7492 78.9706 36.5796C78.468 35.3854 78.0104 34.1716 77.5092 32.9758C77.3427 32.5797 77.4387 32.3411 77.6773 31.9826C78.0314 31.4454 78.3374 30.8003 78.4079 30.1716C78.513 29.2309 77.8363 28.7793 76.7771 28.9924L76.7756 28.9909Z" fill="#373435"/>
<path d="M117 36.8947C116.837 36.9502 116.814 36.9637 116.79 36.9652C115.333 37.0983 114.33 36.4871 113.783 35.1318C113.633 34.7612 113.5 34.3861 113.335 34.023C112.94 33.1498 112.46 32.3111 113.465 31.4679C113.72 31.2534 113.797 30.7448 113.831 30.3607C113.927 29.3104 113.356 28.8108 112.181 28.9489C112.181 29.2024 112.181 29.4695 112.181 29.7365C112.181 31.9105 112.158 34.0846 112.197 36.2586C112.208 36.8617 112.01 37.0808 111.441 37.0297C111.392 37.0252 111.342 37.0357 111.291 37.0373C110.397 37.0713 109.95 36.6542 109.95 35.786C109.95 33.1363 109.95 30.4882 109.95 27.8386V26.9324C111.27 26.9324 112.561 26.7508 113.779 26.9684C116.672 27.4845 116.688 30.7583 115.447 32.1281C115.047 32.5707 115.074 32.8843 115.311 33.3539C115.891 34.5047 116.425 35.6794 117 36.8932V36.8947Z" fill="#373435"/>
<path d="M83.6052 26.9054C85.3366 26.9054 87.005 26.8934 88.6749 26.9249C88.8445 26.9279 89.0875 27.1709 89.1565 27.3555C89.248 27.6 89.209 27.8956 89.215 28.1702C89.2255 28.7808 89.0515 29.1604 88.3088 29.0764C87.6922 29.0074 87.059 29.1004 86.4379 29.0524C85.7912 29.0014 85.7702 29.366 85.7852 29.8386C85.7987 30.2722 85.7177 30.7193 86.4004 30.6623C86.8475 30.6247 87.3006 30.6818 87.7477 30.6503C88.2488 30.6142 88.5069 30.7988 88.4934 31.3164C88.4844 31.6375 88.4754 31.9586 88.4694 32.2796C88.4634 32.7087 88.2233 32.8138 87.8332 32.7988C87.1881 32.7748 86.5414 32.7928 85.9383 32.7928C85.8708 32.8963 85.8242 32.9353 85.8197 32.9788C85.7047 34.2261 86.2693 34.8497 87.5136 34.8497C87.7132 34.8497 87.9127 34.8497 88.1138 34.8497C89.1775 34.8512 89.212 34.8857 89.2105 35.924C89.209 36.9577 89.1745 36.9907 88.1198 36.9907C86.6284 36.9907 85.1386 36.9907 83.6067 36.9907V26.9054H83.6052Z" fill="#373435"/>
<path d="M91.4206 34.5242C92.1243 34.6952 92.7424 34.9443 93.3681 34.9668C93.8467 34.9848 94.4288 34.8347 94.7949 34.5437C95.242 34.1881 94.9299 33.3944 94.3013 33.0958C93.7387 32.8288 93.1385 32.6322 92.6029 32.3216C91.4476 31.6495 91.0095 30.3847 91.3591 28.9218C91.6487 27.7141 92.6509 26.8409 93.9532 26.8259C94.7889 26.8169 95.6261 26.9984 96.4618 27.0944C97.0394 27.1604 97.143 27.528 97.0049 28.0021C96.8879 28.4027 96.7169 28.7868 96.5458 29.2444C96.1482 29.1094 95.8091 28.9519 95.4551 28.8873C95.0485 28.8138 94.5984 28.7253 94.2203 28.8303C93.9547 28.9038 93.6516 29.2669 93.5976 29.546C93.5511 29.7815 93.7687 30.1911 93.9907 30.3322C94.5549 30.6908 95.185 30.9443 95.7911 31.2339C96.9494 31.786 97.3875 32.7447 97.356 33.975C97.323 35.2173 96.8819 36.2061 95.6756 36.7387C94.2113 37.3838 92.7529 37.2533 91.3171 36.6712C91.1641 36.6096 91.011 36.2766 91.038 36.095C91.1175 35.5639 91.2886 35.0448 91.4221 34.5242H91.4206Z" fill="#373435"/>
<path d="M36.6248 23.1335H38.8438V36.146H36.6248V23.1335Z" fill="#373435"/>
<path d="M3.12915 23.081H5.12162V36.068H3.12915V23.081Z" fill="#373435"/>
<path d="M61.4794 20.6354V38.071H61.2754V20.6354H61.4794Z" fill="#373435"/>
<path d="M38.9128 39.7379C38.9068 40.3815 38.3471 40.9457 37.72 40.9397C37.0883 40.9337 36.5497 40.368 36.5572 39.7184C36.5647 39.0567 37.0988 38.5121 37.7335 38.5181C38.3381 38.5241 38.9173 39.1242 38.9128 39.7379Z" fill="#373435"/>
<path d="M5.23126 20.1553C5.23576 20.7779 4.72714 21.3511 4.151 21.3706C3.55837 21.3916 2.98673 20.7794 3.00023 20.1403C3.01524 19.4876 3.49985 18.997 4.1285 19C4.76015 19.003 5.22676 19.4921 5.23276 20.1553H5.23126Z" fill="#373435"/>
<path d="M104.795 31.9105H104.798C104.798 31.735 104.798 31.561 104.798 31.3854C104.792 30.4492 104.64 30.2932 103.722 30.2872C102.532 30.2782 101.937 30.8798 101.939 32.0921C101.939 32.3171 101.914 32.5512 101.965 32.7642C102.234 33.8895 103.141 33.2549 103.762 33.3764C104.237 33.4694 104.754 33.4259 104.793 32.7357C104.808 32.4612 104.796 32.1866 104.796 31.9105H104.795Z" fill="#373435"/>
<path d="M104.795 31.9105C104.795 32.1851 104.808 32.4612 104.792 32.7357C104.753 33.4274 104.235 33.4694 103.761 33.3764C103.141 33.2549 102.232 33.888 101.964 32.7642C101.913 32.5497 101.938 32.3156 101.938 32.0921C101.936 30.8798 102.53 30.2782 103.72 30.2872C104.639 30.2947 104.79 30.4492 104.796 31.3854C104.796 31.561 104.796 31.735 104.796 31.9105H104.793H104.795Z" fill="#373435"/>
</svg>
