<svg width="120" height="60" viewBox="0 0 120 60" fill="none" xmlns="http://www.w3.org/2000/svg">
<path d="M116.953 32.3748C116.815 33.6279 116.428 34.7843 115.678 35.7938C115.05 36.6389 114.273 37.2867 113.326 37.7218C112.353 38.1705 111.337 38.391 110.278 38.4586C109.566 38.5051 108.856 38.4973 108.154 38.4006C106.648 38.1956 105.259 37.6658 104.104 36.6138C103.174 35.7667 102.483 34.7418 102.076 33.5138C101.85 32.8292 101.695 32.1311 101.611 31.4156C101.525 30.6962 101.525 29.9691 101.56 29.2477C101.616 28.0816 101.837 26.9465 102.313 25.8771C102.825 24.7264 103.557 23.7692 104.549 23.0188C105.423 22.3555 106.396 21.961 107.448 21.7251C108.376 21.5182 109.314 21.5046 110.25 21.5511C111.335 21.6052 112.398 21.8295 113.386 22.3207C114.699 22.9744 115.7 23.9606 116.301 25.353C116.608 26.0646 116.817 26.8014 116.871 27.5827C116.882 27.7413 117.006 27.9289 116.907 28.0488C116.798 28.1783 116.591 28.099 116.428 28.099C115.11 28.1029 113.793 28.101 112.474 28.101C112.401 28.101 112.329 28.099 112.254 28.101C112.159 28.1048 112.106 28.0816 112.091 27.9617C112.067 27.7606 112.026 27.5595 111.974 27.3622C111.813 26.7454 111.503 26.2329 110.941 25.9273C110.614 25.7494 110.257 25.6624 109.893 25.6315C109.282 25.5792 108.683 25.6334 108.131 25.9428C107.571 26.258 107.229 26.7647 107.011 27.3642C106.755 28.0662 106.658 28.7991 106.63 29.5456C106.604 30.2804 106.63 31.0133 106.779 31.7347C106.951 32.5604 107.244 33.3204 107.924 33.858C108.309 34.1636 108.755 34.3183 109.222 34.3608C109.706 34.4053 110.194 34.3918 110.67 34.2061C111.32 33.9509 111.75 33.4945 111.99 32.8331C112.086 32.572 112.159 32.3071 112.177 32.0228C112.192 31.7772 112.22 31.7695 112.442 31.7695C113.927 31.7695 115.414 31.7695 116.899 31.7695C116.931 31.7695 116.961 31.7791 116.993 31.7849V31.9803C116.929 32.106 116.936 32.2394 116.946 32.3728L116.953 32.3748Z" fill="#292A72"/>
<path d="M27.3249 45.8575C27.1325 46.049 27.056 46.3158 26.9252 46.546C26.4639 47.364 26.0249 48.1955 25.5355 48.9981H25.472C24.8743 48.6248 24.2747 48.2574 23.6826 47.8784C22.8851 47.3678 22.1118 46.8186 21.346 46.2578C20.6661 45.7589 20.0105 45.229 19.3605 44.6895C18.8655 44.2776 18.3817 43.8521 17.9035 43.417C17.3002 42.8678 16.7175 42.2934 16.1534 41.7056C15.3763 40.8953 14.6273 40.056 13.9213 39.1722C12.9239 37.923 12.0086 36.6157 11.1606 35.2562C10.9832 34.9719 10.8282 34.6702 10.6656 34.384C10.7198 34.3376 10.7516 34.3376 10.774 34.3647C11.3624 35.0222 11.9433 35.6874 12.5522 36.3237C12.7128 36.4919 12.8473 36.6892 13.0135 36.8516C13.6038 37.4298 14.1977 38.0022 14.8197 38.5476C15.1765 38.8609 15.5108 39.2051 15.8844 39.4971C16.6577 40.0985 17.416 40.7251 18.2285 41.2724C19.1606 41.9009 20.1039 42.51 21.0845 43.0515C21.7009 43.3919 22.3247 43.7167 22.9598 44.0184C23.6285 44.3375 24.3046 44.6431 24.9939 44.9138C25.6626 45.1787 26.3312 45.4533 27.0223 45.6545C27.1269 45.6854 27.2278 45.6835 27.3305 45.6873L27.3212 45.8614L27.3249 45.8575Z" fill="#D1C7D6"/>
<path d="M3.10273 39.3231H3C3 38.8667 3 38.4103 3 37.9558H3.09339C3.09713 38.4103 3.099 38.8667 3.10273 39.3231Z" fill="#D1C7D6"/>
<path d="M22.2089 11.0619C22.2089 11.0406 22.2089 11.0193 22.2089 11H23.4641C23.4641 11.0213 23.4641 11.0425 23.4641 11.0638C23.0457 11.0638 22.6273 11.0638 22.2089 11.0638V11.0619Z" fill="#D1C7D6"/>
<path d="M116.953 32.3748C116.942 32.2414 116.935 32.106 117 31.9822V32.3729L116.978 32.3825L116.953 32.3767V32.3748Z" fill="#D1C7D6"/>
<path d="M66.2769 30.526C66.5104 30.6633 66.7495 30.702 66.9661 30.8083C67.5993 31.1177 68.0607 31.5819 68.3185 32.2626C68.5109 32.7692 68.6042 33.2894 68.6211 33.8348C68.6472 34.7185 68.6958 35.6004 68.7443 36.4822C68.7537 36.664 68.7985 36.8419 68.8303 37.0218C68.8545 37.1552 68.9199 37.2809 69.0451 37.3196C69.1889 37.364 69.1777 37.4627 69.1758 37.571C69.1646 38.1376 69.2543 38.0332 68.7387 38.0351C67.2856 38.0409 65.8305 38.037 64.3773 38.0351C64.0803 38.0351 64.0785 38.0351 64.0187 37.7315C63.8917 37.0856 63.7927 36.4416 63.817 35.7764C63.8375 35.2059 63.8637 34.6315 63.774 34.063C63.6956 33.5776 63.5741 33.1115 63.1315 32.8253C62.8886 32.6687 62.6159 32.5913 62.3376 32.5507C61.9342 32.4908 61.527 32.4985 61.1198 32.5004C60.722 32.5024 60.3241 32.5004 59.9281 32.5004C59.6965 32.5004 59.6909 32.5043 59.6909 32.7557C59.6909 34.3685 59.6909 35.9813 59.6909 37.5942C59.6909 37.6696 59.6834 37.7469 59.6909 37.8204C59.7152 37.9983 59.633 38.037 59.4761 38.0351C57.9594 38.0312 56.4427 38.0351 54.926 38.0312C54.6926 38.0312 54.6888 38.0254 54.687 37.776C54.687 36.6833 54.687 35.5888 54.687 34.4962C54.687 30.4486 54.687 26.4011 54.687 22.3536C54.687 21.9243 54.629 21.9513 55.0699 21.9513C57.6419 21.9513 60.2139 21.9513 62.7841 21.9513C63.5349 21.9513 64.2802 22.0403 65.0143 22.1892C65.6568 22.3207 66.2863 22.5102 66.8597 22.866C67.519 23.2741 68.0065 23.833 68.2811 24.5736C68.7107 25.7397 68.7443 26.9348 68.4119 28.1242C68.1541 29.0505 67.5713 29.7447 66.7682 30.2378C66.615 30.3307 66.4581 30.4158 66.2713 30.524L66.2769 30.526ZM59.6909 27.3409C59.6909 27.7412 59.6909 28.1396 59.6909 28.5399C59.6909 28.8319 59.6928 28.8339 59.986 28.8358C60.6342 28.8358 61.2804 28.8513 61.9286 28.83C62.3713 28.8165 62.8158 28.7894 63.2454 28.6289C63.5443 28.5167 63.731 28.333 63.8431 28.0255C63.9514 27.7219 63.9608 27.4125 63.9402 27.1031C63.901 26.5055 63.5704 26.1342 63.0007 26.0201C62.8476 25.9892 62.6944 25.9582 62.5412 25.9428C61.6372 25.8596 60.7313 25.9234 59.8254 25.906C59.6797 25.9022 59.6928 26.0105 59.6928 26.1072C59.6928 26.5171 59.6928 26.929 59.6928 27.339L59.6909 27.3409Z" fill="#292A72"/>
<path d="M81.1711 31.7695C81.9313 31.7695 82.6747 31.7695 83.4163 31.7695C84.1597 31.7695 84.9012 31.7695 85.6446 31.7695C85.9098 31.7695 85.9267 31.783 85.9024 32.0325C85.7828 33.3049 85.4541 34.5058 84.7462 35.5675C84.1989 36.3894 83.4891 37.0237 82.643 37.5072C81.6642 38.066 80.607 38.3194 79.5144 38.4412C78.6832 38.534 77.8426 38.5205 77.0152 38.3967C75.5956 38.1821 74.2676 37.7044 73.1469 36.7317C72.2391 35.9427 71.548 34.9874 71.0997 33.8406C70.7598 32.9742 70.5711 32.075 70.4833 31.1545C70.4366 30.6633 70.3956 30.1663 70.4236 29.6693C70.5039 28.1957 70.7299 26.7589 71.4191 25.4381C72.0747 24.183 72.9956 23.1987 74.2116 22.5141C74.9213 22.1138 75.6759 21.8682 76.4679 21.6999C77.357 21.5124 78.2517 21.5124 79.1445 21.5472C79.9533 21.5781 80.7602 21.7251 81.5279 21.9997C83.0614 22.547 84.2848 23.5042 85.0525 25.0165C85.3644 25.6295 85.5792 26.2793 85.6932 26.9619C85.7361 27.2269 85.8165 27.486 85.8183 27.7567C85.8183 28.1667 85.8277 28.0952 85.5101 28.0952C84.296 28.0971 83.0838 28.0952 81.8697 28.0952C81.6493 28.0952 81.4308 28.0894 81.2104 28.0971C81.0553 28.1029 80.9787 28.0468 80.9713 27.8786C80.9526 27.4376 80.8069 27.0373 80.5958 26.6602C80.3792 26.2715 80.0579 26.0008 79.6582 25.8364C79.1146 25.614 78.5543 25.5754 77.9734 25.6527C77.527 25.7127 77.1273 25.85 76.7668 26.1265C76.3091 26.4746 76.057 26.9619 75.8739 27.4976C75.6871 28.0391 75.6367 28.6057 75.562 29.1723C75.4481 30.029 75.5508 30.8702 75.6871 31.7076C75.7843 32.3032 75.9916 32.8679 76.3558 33.361C76.8489 34.0262 77.5158 34.3202 78.2965 34.3685C78.713 34.3956 79.1258 34.3743 79.5293 34.2254C80.1345 34.005 80.5585 33.5931 80.8349 33.0013C81.0142 32.6184 81.0497 32.1949 81.173 31.7675L81.1711 31.7695Z" fill="#292A72"/>
<path d="M93.6539 21.9553C95.8168 21.9553 97.9816 21.9553 100.145 21.9553C100.217 21.9553 100.29 21.9514 100.365 21.9553C100.567 21.9611 100.57 21.963 100.57 22.2086C100.57 23.4637 100.57 24.7187 100.57 25.9738C100.57 26.2329 100.567 26.2368 100.307 26.2368C99.0725 26.2368 97.8397 26.2368 96.605 26.2368C96.5415 26.2368 96.478 26.2445 96.4164 26.2368C96.2427 26.2136 96.1979 26.3025 96.2147 26.4611C96.2221 26.5249 96.2147 26.5907 96.2147 26.6564V37.5962C96.2147 37.6716 96.2072 37.7489 96.2147 37.8224C96.2389 38.0042 96.1493 38.0371 95.9961 38.0371C94.4589 38.0332 92.9217 38.0371 91.3844 38.0332C91.1678 38.0332 91.1622 38.0274 91.1622 37.7915C91.1584 37.2287 91.1622 36.666 91.1622 36.1032C91.1622 32.955 91.1622 29.8047 91.1622 26.6564C91.1622 26.1749 91.2406 26.2387 90.7419 26.2368C89.5297 26.2329 88.3156 26.2368 87.1015 26.2368C87.0492 26.2368 86.9969 26.231 86.9446 26.2368C86.7895 26.2542 86.6999 26.2039 86.7242 26.0241C86.7279 25.9931 86.7242 25.9583 86.7242 25.9274C86.7242 24.7052 86.7242 23.4811 86.7242 22.2589C86.7242 21.8992 86.7279 21.9533 87.038 21.9533C89.2439 21.9514 91.4498 21.9533 93.6539 21.9533V21.9553Z" fill="#292A72"/>
<path d="M46.6272 30C46.6272 27.4783 46.6272 24.9546 46.6272 22.4329C46.6272 22.3671 46.6272 22.3033 46.6272 22.2376C46.6291 21.9572 46.631 21.9552 46.9018 21.9552C48.4278 21.9552 49.9557 21.9552 51.4817 21.9552C51.7488 21.9552 51.7507 21.9591 51.7507 22.2453C51.7507 27.4087 51.7507 32.572 51.7507 37.7354C51.7507 38.0313 51.7488 38.0332 51.4593 38.0332C49.952 38.0332 48.4465 38.0332 46.9391 38.0332C46.5749 38.0332 46.6291 38.0467 46.6272 37.6948C46.6272 35.1286 46.6272 32.5643 46.6272 29.9981V30Z" fill="#292A72"/>
<path d="M24.5586 38.2845C24.4148 38.3464 24.2897 38.3348 24.1664 38.3348C21.6672 38.3348 19.1699 38.3348 16.6707 38.3329C16.6184 38.3329 16.5661 38.3271 16.5138 38.3329C16.3401 38.358 16.3046 38.2671 16.3065 38.1066C16.3102 37.393 16.3009 36.6795 16.3009 35.9639C16.3028 32.804 16.3065 29.6441 16.3102 26.4862C16.3102 26.4436 16.3158 26.3992 16.3102 26.3566C16.2878 26.1806 16.3719 26.142 16.5288 26.142C18.0249 26.1478 19.5192 26.1458 21.0153 26.1458C21.1106 26.1458 21.2021 26.1594 21.288 26.2019C22.1659 26.6177 22.9486 27.1669 23.5295 27.9772C24.1776 28.8803 24.2915 29.8762 23.946 30.9282C23.7891 31.4039 23.4174 31.6998 23.0289 31.9609C22.3564 32.4115 21.6056 32.6841 20.8528 32.9491C20.6941 33.0052 20.5297 33.0477 20.384 33.127C20.0945 33.2817 20.0422 33.5273 20.2364 33.7961C20.3541 33.9605 20.4923 34.1113 20.6287 34.2602C21.4599 35.1595 22.3452 36.0007 23.2063 36.869C23.5892 37.2538 23.9721 37.6367 24.3513 38.0235C24.4241 38.097 24.5157 38.1588 24.5605 38.2865L24.5586 38.2845Z" fill="#292A72"/>
<path d="M27.3249 45.8575L27.3342 45.6834C27.7918 44.8093 28.2476 43.9333 28.7052 43.0592C28.9051 42.6783 29.1049 42.2992 29.3085 41.9221C29.4355 41.6881 29.4393 41.6823 29.6727 41.7461C30.9447 42.0981 32.2392 42.0807 33.5354 41.9859C34.0528 41.9473 34.5329 41.7461 34.9886 41.5025C36.2531 40.8314 37.2263 39.8471 37.8838 38.5398C38.291 37.7334 38.4292 36.8593 38.3844 35.962C38.3078 34.4536 37.8894 33.0322 37.3066 31.6554C37.1852 31.3691 37.0955 31.0694 36.9928 30.7774C37.0078 30.7619 37.0246 30.7484 37.0395 30.7329C37.3384 31.0965 37.5569 31.5142 37.7941 31.9184C38.6982 33.4596 39.4378 35.0744 39.873 36.8284C40.2223 38.2382 40.3344 39.6692 40.0953 41.1022C39.7441 43.2043 38.6533 44.8016 36.8677 45.8788C35.4332 46.7432 33.8735 47.0487 32.2298 46.9772C30.8626 46.9192 29.542 46.604 28.2438 46.1708C27.9356 46.0683 27.6293 45.9619 27.323 45.8556L27.3249 45.8575Z" fill="#292A72"/>
<path d="M22.2089 11.0619C22.6273 11.0619 23.0457 11.0619 23.4641 11.0619C23.7088 11.118 23.9535 11.1683 24.1963 11.2321C26.2323 11.7736 27.7564 13.0267 28.8696 14.8464C29.5346 15.9352 29.9754 17.1206 30.2892 18.3602C30.4704 19.0815 30.6497 19.8048 30.7057 20.5532C30.7113 20.617 30.7375 20.677 30.7543 20.7408C30.7337 20.7756 30.7281 20.8143 30.7412 20.8549C29.9044 20.8607 29.0695 20.8684 28.2327 20.8684C27.6574 20.8684 27.0821 20.8626 26.5068 20.8568C26.2248 20.8549 26.2248 20.8529 26.1538 20.5745C25.9072 19.6191 25.5729 18.7025 25.0835 17.8497C24.1776 16.2736 22.8757 15.2448 21.1424 14.831C19.4389 14.4248 17.8942 14.7865 16.5008 15.881C15.664 16.5385 14.9131 17.2831 14.2314 18.1088C13.8447 18.5749 13.5029 19.0757 13.1013 19.5901C13.2657 19.1647 13.4599 18.805 13.6505 18.4434C14.5433 16.7532 15.6173 15.2023 16.9453 13.8505C18.0175 12.7598 19.2503 11.9244 20.6848 11.4235C21.1816 11.2495 21.6971 11.1625 22.2089 11.058V11.0619Z" fill="#292A72"/>
<path d="M3.10272 39.3231C3.09899 38.8667 3.09712 38.4103 3.09338 37.9539C3.2316 36.5635 3.67615 35.2833 4.3934 34.1017C4.94815 33.1909 5.62244 32.3825 6.36771 31.6341C6.95421 31.0463 7.59302 30.5241 8.22435 29.9923C8.27478 29.9768 8.32521 29.9768 8.37191 30.0039C8.86315 30.9322 9.35626 31.8623 9.84563 32.7906C10.0754 33.2257 10.3014 33.6627 10.5349 34.1114C10.152 34.3028 9.91288 34.6355 9.65138 34.9391C8.95094 35.7513 8.33828 36.6235 7.96845 37.6523C7.54632 38.8222 7.52391 40.0193 7.77233 41.2279C8.1571 43.1076 9.23672 44.4149 10.8916 45.2426C12.003 45.7976 13.1928 46.0838 14.3957 46.3217C14.8048 46.4029 15.2175 46.4706 15.621 46.5441C15.6528 46.5769 15.6453 46.5769 15.6098 46.5789C13.5197 46.6659 11.4501 46.5325 9.42724 45.9426C8.13095 45.5655 6.90378 45.0318 5.82604 44.1712C4.27946 42.9355 3.33247 41.344 3.10272 39.3192V39.3231Z" fill="#292A72"/>
<path d="M22.095 33.8097C22.4499 33.6704 22.7842 33.5486 23.1111 33.4113C23.7947 33.1251 24.3625 32.6726 24.8314 32.0885C25.2423 31.5761 25.4795 30.9862 25.5056 30.3113C25.5243 29.824 25.5542 29.3367 25.4459 28.8571C25.2329 27.925 24.7324 27.1843 24.0039 26.6042C23.8395 26.4727 23.6696 26.3489 23.5033 26.2232C23.5538 26.111 23.6378 26.1574 23.6994 26.1574C25.091 26.1497 26.4807 26.1478 27.8722 26.1439C28.1561 26.1439 28.158 26.1458 28.158 26.4495C28.1599 29.6306 28.1617 32.8137 28.1636 35.9949C28.1636 36.6872 28.1636 37.3795 28.1636 38.0738C28.1636 38.3271 28.1599 38.329 27.9264 38.331C27.4968 38.3329 27.069 38.331 26.6394 38.331C26.4769 38.331 26.3443 38.2846 26.221 38.155C24.8631 36.7278 23.4996 35.3084 22.1398 33.8851C22.1249 33.8696 22.1174 33.8483 22.0968 33.8097H22.095Z" fill="#292A72"/>
<path d="M30.7412 20.8549C30.7281 20.8142 30.7318 20.7775 30.7542 20.7408C30.9037 20.7949 31.0568 20.8104 31.2156 20.8084C31.8432 20.8026 32.4708 20.8162 33.0984 20.7988C33.4197 20.7891 33.7391 20.7292 34.0641 20.7427C34.3629 20.7562 34.3835 20.7678 34.3853 21.0792C34.3891 21.9726 34.333 22.8641 34.3106 23.7556C34.2938 24.4093 34.2565 25.0687 34.1892 25.7204C34.1294 26.2967 34.079 26.8749 33.9968 27.4493C33.9389 27.8534 33.8848 28.2576 33.825 28.6598C33.6849 29.6171 33.5224 30.5705 33.2945 31.5103C33.1357 32.1678 32.9919 32.8311 32.8107 33.4828C32.6501 34.0611 32.4502 34.6277 32.2691 35.2001C32.0711 35.8247 31.8507 36.4397 31.6135 37.0469C31.1035 38.36 30.5394 39.646 29.8689 40.8798C29.7587 41.0828 29.6858 41.3091 29.4972 41.5528C29.5327 41.1544 29.6616 40.8604 29.7512 40.5568C30.0071 39.6924 30.2892 38.8377 30.504 37.9597C30.7076 37.1243 30.8738 36.2811 31.04 35.4399C31.1577 34.852 31.2306 34.2525 31.3109 33.6569C31.3987 33.0187 31.4454 32.3747 31.5145 31.7327C31.6639 30.3307 31.6471 28.9267 31.6097 27.5266C31.591 26.8324 31.5145 26.1323 31.4528 25.4361C31.3389 24.1366 31.0942 22.8622 30.8701 21.582C30.8271 21.3383 30.7318 21.1062 30.743 20.8529L30.7412 20.8549Z" fill="#D1C7D6"/>
<path d="M8.37374 30.0039C8.32705 29.9749 8.27661 29.9749 8.22618 29.9923C8.21684 29.7409 8.06742 29.5495 7.95161 29.3503C7.49959 28.5729 7.0289 27.809 6.62544 27.0045C6.60676 26.9659 6.58995 26.9252 6.56754 26.8885C6.48909 26.7589 6.56194 26.6777 6.6572 26.6236C7.10174 26.3644 7.54629 26.1034 7.99831 25.8578C9.02188 25.3028 10.0492 24.7593 11.1083 24.2798C11.988 23.8814 12.8715 23.4946 13.7755 23.1639C14.4928 22.9009 15.2063 22.6302 15.9348 22.4097C16.9527 22.1003 17.9744 21.8025 19.0167 21.5898C19.5266 21.4853 20.0328 21.3616 20.5483 21.292C21.0844 21.2204 21.6167 21.1237 22.1528 21.056C22.659 20.9922 23.167 20.9729 23.6695 20.8839C23.6807 20.8839 23.69 20.8801 23.7013 20.8801C24.4521 20.8859 25.2011 20.7679 25.9539 20.8104C25.9931 20.8124 26.0379 20.8104 26.0734 20.8781C26.0118 20.969 25.8941 20.9593 25.81 20.9787C24.9957 21.1585 24.185 21.3538 23.3762 21.5608C22.489 21.789 21.6111 22.0442 20.7501 22.3614C20.1449 22.5838 19.5304 22.783 18.9364 23.0344C17.8063 23.5101 16.6838 24.009 15.6135 24.6201C14.7674 25.1036 13.91 25.5735 13.1013 26.1227C12.2906 26.6719 11.4874 27.2385 10.7384 27.8709C10.2958 28.2461 9.82879 28.5922 9.41413 29.0041C9.17505 29.242 8.89861 29.4392 8.63524 29.652C8.51757 29.7467 8.40923 29.8453 8.37561 30.0039H8.37374Z" fill="#D1C7D6"/>
<path d="M36.9311 30.6826C36.905 30.6497 36.8695 30.6226 36.8546 30.5859C36.834 30.5317 36.7929 30.4467 36.8863 30.437C36.9629 30.4293 36.9704 30.5105 36.9592 30.5782L36.9293 30.6826H36.9311Z" fill="#D1C7D6"/>
<path d="M36.9313 30.6827L36.9612 30.5782C36.9966 30.6247 37.0359 30.6672 37.0396 30.731C37.0247 30.7465 37.0097 30.76 36.9929 30.7755C36.9724 30.7446 36.9518 30.7136 36.9313 30.6827Z" fill="#292A72"/>
</svg>
