<svg width="120" height="60" viewBox="0 0 120 60" fill="none" xmlns="http://www.w3.org/2000/svg">
<path fill-rule="evenodd" clip-rule="evenodd" d="M31.9835 20.0189C37.8402 20.0189 42.5846 24.3972 42.5846 29.7958C42.5846 35.1943 37.8425 39.5727 31.9811 39.5727C26.1244 39.5727 21.4249 35.1943 21.4249 29.7958C21.4249 24.3972 26.1717 20.0189 31.9811 20.0189H31.9835ZM31.9835 36.9986C35.932 36.9986 39.0965 33.7868 39.0965 29.8194C39.0965 25.8472 35.932 22.5883 31.9835 22.5883C28.035 22.5883 24.9177 25.7953 24.9177 29.817C24.9177 33.8411 28.0845 36.9986 31.9835 36.9986ZM64.0417 32.717C64.0399 32.5421 63.9687 32.375 63.8439 32.2524C63.7191 32.1298 63.5507 32.0616 63.3758 32.0629H61.2173C61.0849 32.063 60.9555 32.1023 60.8454 32.1759C60.7353 32.2494 60.6494 32.3539 60.5986 32.4762C59.6492 35.0833 57.3727 36.9324 53.828 36.9324C50.014 36.9324 46.9558 33.7349 46.9558 29.7745C46.9558 25.8118 50.014 22.567 53.828 22.567C56.9405 22.567 59.1982 24.1446 60.2916 26.3998C60.4002 26.6077 60.6269 26.7541 60.8796 26.7541H63.0381C63.2126 26.7547 63.3804 26.6863 63.5047 26.5638C63.629 26.4412 63.6998 26.2745 63.7017 26.0999C63.7017 25.9134 63.6119 25.7315 63.6119 25.7315C60.9953 19.9599 53.8587 20 53.8587 20C48.1224 20 43.4749 24.376 43.4749 29.7745C43.4749 35.1707 48.1224 39.5467 53.8587 39.5467C53.8587 39.5467 61.0048 40.019 63.9496 33.1303C63.9496 33.1303 64.0417 32.9249 64.0417 32.7123V32.717V32.717ZM14.3662 36.3987C15.9154 35.6383 17.0348 33.8955 17.0348 31.822V21.4146C17.0367 21.24 17.1075 21.0733 17.2318 20.9508C17.3561 20.8282 17.5238 20.7598 17.6984 20.7604H19.8592C20.0338 20.7598 20.2015 20.8282 20.3258 20.9508C20.4501 21.0733 20.5209 21.24 20.5228 21.4146L20.5134 31.5835C20.5134 36.1578 16.9899 39.5065 12.5998 39.5065H11.3009C9.65962 39.5065 7.85538 38.9232 7.85538 38.9232C5.03803 38.04 3 35.5037 3 32.5163V32.4195C3.00187 32.2445 3.07301 32.0774 3.19783 31.9548C3.32266 31.8322 3.491 31.7641 3.66596 31.7653H5.4088C6.06295 31.7653 6.0417 32.3534 6.0417 32.3534V32.4903C6.0417 34.9582 8.52134 36.9584 11.5748 36.9584C11.5748 36.9584 13.0862 37.0293 14.3709 36.3987H14.3662V36.3987ZM83.4774 37.6834L76.0503 27.0115L81.352 21.6767C81.352 21.6767 81.4984 21.535 81.4984 21.2634C81.4984 21.2634 81.5032 20.7604 81.0497 20.7604H78.4048C78.2269 20.7607 78.0563 20.8312 77.9301 20.9564L69.2962 29.4675V21.4146C69.2943 21.24 69.2235 21.0733 69.0992 20.9508C68.9749 20.8282 68.8072 20.7598 68.6326 20.7604H67.5628C67.5628 20.7604 65.8106 20.666 65.8106 22.9709V37.981C65.8124 38.1551 65.8829 38.3215 66.0067 38.444C66.1305 38.5664 66.2976 38.6351 66.4718 38.6351H67.5439C67.5439 38.6351 69.2962 38.7296 69.2962 36.4247V33.8034L73.6816 29.3872L79.902 38.2974C80.039 38.484 80.2799 38.6044 80.4617 38.6044H83.168C83.6215 38.6044 83.6168 38.1014 83.6168 38.1014C83.6168 37.8912 83.4703 37.6881 83.4703 37.6881L83.4751 37.6834H83.4774ZM96.0126 30.6223C96.7801 30.6223 97.4059 30.0083 97.4059 29.2526C97.4059 28.4969 96.7801 27.8829 96.0126 27.8829H88.2927V23.4998H97.0753C97.8428 23.4998 98.4663 22.8858 98.4663 22.1301C98.4663 21.3744 97.8428 20.7604 97.0729 20.7604H86.0114C85.851 20.7589 85.692 20.7889 85.5432 20.8488C85.3945 20.9088 85.2591 20.9974 85.1446 21.1097C85.0301 21.2219 84.9389 21.3557 84.8761 21.5032C84.8133 21.6508 84.7802 21.8092 84.7786 21.9696V37.3906C84.7786 38.0565 85.3312 38.6044 86.0114 38.6044H97.0753C97.8428 38.6044 98.4663 37.9904 98.4663 37.2347C98.4663 36.479 97.8428 35.865 97.0729 35.865H88.2927V30.6223H96.015H96.0126ZM106.16 37.2347C106.16 38.0046 106.71 38.628 107.393 38.628H108.463C109.141 38.628 109.691 38.0046 109.691 37.2347V32.1833L116.778 22.09C117.014 21.6673 117 21.4406 117 21.4406C116.997 21.2664 116.926 21.1003 116.802 20.9783C116.678 20.8562 116.51 20.7881 116.336 20.7888H113.97C113.97 20.7888 113.349 20.7486 112.879 21.476L107.752 28.8134L103.265 21.476C102.795 20.7486 102.179 20.7888 102.179 20.7888H100.053C99.8795 20.7888 99.7127 20.8571 99.589 20.9791C99.4653 21.1011 99.3945 21.2668 99.392 21.4406C99.392 21.4406 99.3755 21.6673 99.6116 22.09L106.17 32.3534V37.2347H106.16V37.2347Z" fill="#231F20"/>
</svg>
