<svg width="120" height="60" viewBox="0 0 120 60" fill="none" xmlns="http://www.w3.org/2000/svg">
<g clip-path="url(#clip0_109_1291)">
<path d="M77.8663 48.3621C78.9463 48.3537 80.0137 48.1288 81.0053 47.7006C81.9969 47.2723 82.8925 46.6496 83.6391 45.8691C85.1775 44.2687 86.0333 42.1329 86.0257 39.913V19.522C86.0308 17.2902 85.1877 15.1398 83.6672 13.5061C82.9174 12.7227 82.0175 12.0984 81.0212 11.6704C80.0248 11.2424 78.9525 11.0195 77.8681 11.015H57.9947C56.915 11.0237 55.848 11.2488 54.8567 11.677C53.8655 12.1052 52.9702 12.7278 52.2237 13.508C50.6843 15.1311 49.8295 17.285 49.8372 19.522V39.9429C49.8652 44.5777 53.5039 48.3341 57.9947 48.3621" fill="#CF381E"/>
<path d="M72.2392 30.8472C71.4711 33.4879 72.7214 36.1286 75.3658 35.0708C74.5996 36.9789 73.3194 39.8252 73.3194 42.7892C73.3194 42.7892 73.3194 44.7832 74.7397 45.2822C74.7397 45.2822 76.7301 45.7812 76.304 43.9609C75.9923 42.825 75.9053 41.6392 76.0479 40.4699C76.5347 38.035 77.2686 35.6561 78.2382 33.3702C78.2382 33.3702 81.2788 26.8292 83.0412 23.7773C83.0412 23.7773 83.7812 22.2225 82.2749 22.2225C82.0459 22.2271 81.8211 22.2852 81.6186 22.3923C81.4161 22.4994 81.2415 22.6525 81.1088 22.8392L76.816 30.7295C76.1619 31.9629 75.5377 32.3442 75.0537 32.3442C73.9735 32.3442 74.2015 30.5538 74.3716 29.909C74.8537 27.7075 75.6237 25.5957 76.646 23.5718C77.4122 21.8412 75.8779 21.6936 75.8779 21.6936C74.9117 21.4301 74.1716 23.0728 74.1716 23.0728L72.4672 26.6516C71.3593 28.6329 70.1447 30.5526 68.8286 32.4021C68.8286 32.4021 68.6006 32.6955 68.4305 32.5778C68.2586 32.432 68.3445 32.1386 68.3445 32.1386C68.6286 29.7035 69.1107 27.2983 69.7648 24.9211C69.7947 24.7734 69.8209 24.6576 69.8209 24.5099C69.8559 24.195 69.7645 23.8791 69.5667 23.6316C69.4759 23.5051 69.3564 23.4019 69.218 23.3304C69.0797 23.259 68.9264 23.2213 68.7706 23.2204C68.0044 23.1307 67.6325 23.512 66.9504 24.3642C65.4441 26.2704 63.6817 29.1466 62.8295 30.4379C62.7436 30.5837 62.5735 30.5538 62.5735 30.3482C62.5735 29.7614 64.5638 23.4241 64.5638 23.4241C64.5638 23.4241 64.79 22.5458 64.1078 22.2505C64.1078 22.2505 63.0575 21.5777 62.2035 22.8971L58.1107 28.6476C57.7967 29.0867 57.6267 28.941 57.6267 28.941V28.5597L58.2807 24.8033C58.7928 21.929 57.8248 21.7814 57.2006 21.6637C56.7446 21.6637 56.2624 21.8113 55.8643 22.0748C54.5842 22.7214 53.618 25.3322 53.618 25.3322C53.618 25.3322 53.3339 26.2704 53.9581 26.6516C54.1581 26.7694 54.3861 26.8572 54.6122 26.8273C55.5223 26.7694 55.6943 25.0388 56.3465 25.0388C56.4605 25.0388 56.4605 25.1846 56.4605 25.2145L54.358 34.3382C54.2924 34.5927 54.3061 34.8612 54.3973 35.1077C54.4884 35.3542 54.6528 35.5669 54.8682 35.7174C55.1542 35.8931 55.4663 35.923 55.7784 35.8651C56.0726 35.7667 56.3236 35.5692 56.4885 35.3063L57.2566 34.0747C58.3648 32.0507 60.4131 29.1466 60.6112 29.1466C60.6972 29.1466 60.7252 29.1466 60.7252 29.2344L59.959 34.6036C59.9209 34.8369 59.9581 35.0763 60.0653 35.287C60.1725 35.4977 60.3441 35.6688 60.5551 35.7754C60.7486 35.8486 60.9557 35.8786 61.1619 35.8635C61.3682 35.8483 61.5687 35.7882 61.7493 35.6875C62.1754 35.3362 62.5455 34.8951 62.8015 34.398C63.2276 33.6935 65.274 31.1986 66.5243 28.9111C66.6102 28.7634 66.6962 28.9111 66.6663 28.9989C66.4121 30.2025 66.2122 33.4001 66.1841 34.1925C66.1281 35.7473 67.2924 35.923 67.3204 35.923C68.0885 35.9809 68.8267 35.6296 69.2547 34.9848" fill="white"/>
<path d="M11.0586 34.398H8.78417V29.1466C8.81785 28.5689 8.70063 27.9925 8.44404 27.4739C8.31965 27.2827 8.14505 27.1295 7.93936 27.0309C7.73367 26.9324 7.50482 26.8923 7.27788 26.9151C6.87981 26.9151 6.51165 27.003 6.19768 27.2086C5.85807 27.4462 5.57637 27.7572 5.37351 28.1187V34.398H3.09912V24.8613H4.37742L5.23148 26.1508C5.45948 25.9452 5.68561 25.7695 5.91361 25.5939C6.14161 25.4462 6.36774 25.3304 6.62378 25.2126C6.87981 25.0949 7.13584 25.007 7.39188 24.9491C7.64791 24.8893 7.93197 24.8613 8.21604 24.8613C8.52814 24.8613 8.84211 24.8893 9.12617 24.9771C9.35417 25.065 9.5803 25.1528 9.8083 25.3005C9.97837 25.4462 10.1484 25.6238 10.2923 25.7994C10.4605 26.033 10.5764 26.2386 10.6904 26.4741C11.0807 26.0459 11.5423 25.6887 12.0547 25.4182C12.3107 25.2425 12.5948 25.0949 12.9069 24.9771C13.2489 24.8893 13.589 24.8314 13.959 24.8314C14.4132 24.8314 14.8393 24.9491 15.2373 25.1528C15.6074 25.3883 15.9213 25.6817 16.1194 26.033C16.3474 26.4741 16.5175 26.9133 16.6034 27.4123C16.7156 27.971 16.7716 28.528 16.7716 29.1129V34.3962H14.473V29.1466C14.529 28.5597 14.4169 27.9729 14.131 27.4739C14.0127 27.2839 13.8435 27.1309 13.6427 27.0321C13.4419 26.9334 13.2174 26.8928 12.9947 26.9151C12.6247 26.9151 12.2546 27.0048 11.9145 27.2086C11.5596 27.4374 11.2663 27.75 11.0604 28.1187L11.0586 34.398ZM24.1929 30.0548H22.1745C21.7518 30.0295 21.3325 30.143 20.9803 30.3781C20.7445 30.6217 20.6125 30.9474 20.6121 31.2864C20.6121 31.6097 20.7243 31.9031 20.9523 32.1386C21.2083 32.3442 21.5503 32.46 21.8904 32.432C22.1465 32.432 22.4025 32.4021 22.6567 32.3143C22.8865 32.2563 23.1127 32.1666 23.3108 32.0507C23.5107 31.9031 23.6808 31.7573 23.8247 31.6097C23.9929 31.434 24.1088 31.2584 24.2228 31.0827L24.1929 30.0548V30.0548ZM24.1929 33.3403C23.8808 33.6636 23.4827 33.9271 23.0846 34.1046C22.5445 34.3102 21.9764 34.4261 21.4083 34.398C20.9993 34.4186 20.5908 34.3484 20.2122 34.1925C19.8669 34.0424 19.5501 33.8337 19.2759 33.5757C19.0237 33.2889 18.8215 32.9616 18.6779 32.6077C18.541 32.2221 18.4739 31.8151 18.4798 31.406C18.4798 29.6455 19.816 28.4999 21.9484 28.4999H24.2209V27.9729C24.2216 27.8092 24.1769 27.6484 24.0918 27.5086C24.0067 27.3687 23.8845 27.2551 23.7387 27.1805C23.2766 26.9658 22.7696 26.8652 22.2605 26.8871C21.6923 26.8871 21.1223 26.9749 20.5822 27.0927C20.1475 27.2127 19.7206 27.3594 19.3039 27.5319L19.0479 25.5658C19.1899 25.478 19.3899 25.4201 19.6459 25.3322C19.8721 25.2444 20.1561 25.1846 20.4122 25.0967C20.6682 25.0388 21.0102 24.979 21.3503 24.9211C21.6923 24.8631 22.0605 24.8631 22.4305 24.8631C22.9586 24.8206 23.4898 24.8844 23.9928 25.0507C24.4958 25.2169 24.9603 25.4823 25.359 25.8312C26.0692 26.5937 26.4112 27.6197 26.3533 28.6476V34.398H24.733L24.1929 33.3403V33.3403ZM37.0151 24.7174L33.3484 29.468L37.5271 34.3681H34.6846L30.8161 29.5278V34.3681H28.5734V21.3123H30.8161V29.5278L34.2566 24.7155H37.0151V24.7174ZM42.046 26.9749C41.7619 26.9749 41.4779 27.0048 41.2237 27.0927C40.9938 27.1523 40.78 27.262 40.5976 27.4141C40.4033 27.5361 40.2457 27.7086 40.1416 27.9131C40.0295 28.1187 39.9435 28.3243 39.8856 28.5597H43.8943C43.8943 28.3542 43.8663 28.1486 43.7822 27.943C43.7056 27.7539 43.5889 27.5837 43.4402 27.444C43.2688 27.3 43.0774 27.1817 42.872 27.0927C42.6074 26.9982 42.3265 26.9582 42.046 26.9749ZM42.474 32.3442C42.8141 32.3442 43.1841 32.3143 43.5243 32.2264C43.8382 32.1666 44.1503 32.0788 44.4344 31.9629C44.6904 31.8732 44.9465 31.7573 45.1745 31.6097C45.2866 31.5518 45.4006 31.4639 45.5146 31.3761L45.9407 33.458C45.4512 33.7298 44.9376 33.9556 44.4064 34.1326C43.7774 34.309 43.1272 34.3983 42.474 34.398C41.7638 34.398 41.0518 34.2803 40.3696 34.0448C39.8035 33.8348 39.2896 33.5045 38.8634 33.0767C38.4402 32.6569 38.1192 32.1453 37.9252 31.5817C37.6761 30.9762 37.5411 30.33 37.5271 29.6754C37.5271 29.0587 37.6112 28.442 37.8112 27.8552C38.0093 27.2684 38.2934 26.7694 38.6914 26.3003C39.0614 25.8592 39.5455 25.5079 40.0856 25.2724C41.3159 24.7736 42.6921 24.7736 43.9223 25.2724C44.4344 25.478 44.8605 25.8312 45.2305 26.2405C45.5725 26.6516 45.8286 27.1207 45.9968 27.6197C46.1407 28.1486 46.2266 28.7036 46.2266 29.2643V29.7614C46.1967 29.9371 46.1706 30.1146 46.1407 30.2604H39.8576C39.8856 30.5837 39.9697 30.8771 40.1136 31.1406C40.2257 31.4041 40.4257 31.6396 40.6537 31.8153C40.8817 32.0208 41.1377 32.1666 41.4498 32.2264C41.7619 32.3442 42.1039 32.4021 42.4721 32.4021V32.3442H42.474ZM88.244 26.2125L91.2566 22.4561H91.9406V24.8332H94.5271V26.8852H91.9406V30.8154C91.9406 31.021 91.9687 31.2565 92.0247 31.4901C92.0882 31.6488 92.1744 31.7974 92.2808 31.9311C92.3948 32.019 92.5368 32.1068 92.6788 32.1367C92.8232 32.1968 92.9784 32.2267 93.1348 32.2246C93.389 32.2246 93.645 32.1946 93.873 32.1068C94.101 32.0788 94.2991 31.9891 94.4991 31.9012V33.9869C94.2711 34.1046 94.0151 34.1925 93.731 34.2504C92.9406 34.4272 92.1179 34.397 91.3426 34.1626C90.9807 34.0417 90.6505 33.8412 90.3764 33.5757C90.1366 33.3015 89.9531 32.9827 89.8363 32.6376C89.7082 32.2395 89.6506 31.822 89.6662 31.4041V26.945H88.188L88.244 26.2125ZM98.3938 26.8292C98.7358 26.2405 99.16 25.7434 99.702 25.3603C100.156 25.0089 100.724 24.8332 101.322 24.8631C101.492 24.8335 101.665 24.8335 101.834 24.8631L102.146 24.9192C102.146 24.9192 102.09 25.45 101.748 27.0927C101.578 27.0628 101.406 27.0329 101.236 27.0628C100.847 27.0425 100.458 27.1129 100.1 27.2684C99.7624 27.4165 99.4683 27.6488 99.246 27.943C99.0045 28.2497 98.8215 28.5981 98.7059 28.9709C98.5937 29.4381 98.5358 29.909 98.5358 30.3781V34.3962H96.2614V24.865H97.6817L98.3938 26.8292ZM112.352 26.945C112.1 26.9243 111.847 26.9647 111.614 27.0628C111.181 27.2244 110.805 27.5105 110.534 27.8851C110.42 28.0607 110.306 28.2364 110.248 28.442V31.1406C110.336 31.3145 110.451 31.473 110.59 31.6097C110.732 31.7573 110.874 31.8732 111.044 31.9909C111.244 32.1087 111.442 32.1965 111.642 32.2563C112.21 32.4021 112.806 32.3722 113.346 32.1666C113.602 32.0208 113.859 31.8452 114.029 31.6097C114.229 31.3742 114.371 31.0808 114.457 30.7874C114.541 30.4361 114.599 30.0548 114.627 29.6736C114.627 29.3222 114.571 28.941 114.457 28.5579C114.373 28.2399 114.227 27.9415 114.029 27.6795C113.84 27.439 113.597 27.2474 113.318 27.1207C113.046 26.9808 112.744 26.9101 112.438 26.9151L112.352 26.945V26.945ZM112.978 24.8631C113.602 24.8332 114.201 24.979 114.741 25.2444C115.223 25.506 115.621 25.8611 115.963 26.3283C116.275 26.7993 116.531 27.3263 116.673 27.8832C116.815 28.47 116.901 29.0867 116.901 29.6736C116.901 30.2903 116.815 30.907 116.645 31.492C116.505 32.0366 116.254 32.5462 115.907 32.9889C115.585 33.4219 115.166 33.7739 114.685 34.0168C114.163 34.2739 113.588 34.4045 113.006 34.398C112.452 34.4056 111.902 34.3059 111.386 34.1046C110.949 33.9078 110.56 33.6168 110.248 33.2524V38.2105H107.974V24.8631H109.31L110.192 26.0069C110.555 25.6427 110.978 25.3448 111.444 25.1266C111.926 24.951 112.438 24.8332 112.95 24.8631H112.978V24.8631ZM104.479 20.961C104.323 20.9617 104.169 20.9935 104.025 21.0546C103.882 21.1157 103.752 21.2048 103.643 21.3167C103.534 21.4286 103.449 21.5611 103.393 21.7063C103.336 21.8516 103.309 22.0067 103.313 22.1626C103.313 22.8373 103.823 23.3961 104.477 23.3961C105.131 23.3961 105.643 22.8373 105.643 22.1626C105.651 22.0046 105.625 21.8466 105.566 21.6997C105.507 21.5528 105.417 21.4206 105.301 21.3123C105.199 21.1941 105.073 21.099 104.931 21.0333C104.789 20.9676 104.635 20.9327 104.479 20.9311V20.961ZM105.585 34.398H103.311V24.8631H105.585V34.398Z" fill="#174880"/>
</g>
<defs>
<clipPath id="clip0_109_1291">
<rect width="114" height="37.377" fill="white" transform="translate(3 11)"/>
</clipPath>
</defs>
</svg>
