<svg width="120" height="60" viewBox="0 0 120 60" fill="none" xmlns="http://www.w3.org/2000/svg">
<path d="M97.9819 15.5612C97.1576 12.8157 95.7531 9.32216 93.1121 6.4935C92.0405 5.33003 90.3063 3.83105 87.9126 3.66484L86.6761 3.49863C82.5482 3.24932 78.2586 3 74.0483 3C70.1677 3 66.0429 3.16621 61.0083 3.58174C57.0453 3.91416 52.3434 4.32969 47.6385 5.16382C42.8512 5.99487 37.9814 7.07832 33.4414 8.15869C30.1409 8.98974 27.0054 10.1563 24.1995 11.7353C21.641 13.1512 20.0717 15.2288 19.577 17.8912C19.2473 19.5564 19 21.1354 19 22.8006C19 26.6296 19.4122 30.7049 20.4044 35.1987C20.9815 37.8611 21.641 40.6067 22.3035 43.2691C22.6332 44.7681 23.0454 46.264 23.3752 47.6799C23.9522 50.0099 25.7688 50.0099 26.5107 49.8437C27.5 49.6775 28.4922 49.5944 29.4815 49.4282H29.8112C30.5531 49.3451 31.3805 49.262 32.1224 49.1789C32.617 51.3427 33.7742 53.171 35.3405 54.5869C37.2395 56.1689 39.4683 57 41.7765 57C42.1062 57 42.5184 57 42.8481 56.9169C45.5716 56.5845 47.9652 55.3348 49.6994 53.171C51.1039 51.4227 51.8458 49.1789 51.9282 46.8488L69.5082 44.8512C69.7556 47.4306 70.8303 49.7606 72.6438 51.5089C74.7902 53.5896 77.7609 54.5869 80.7316 54.1713C83.455 53.8389 85.7663 52.5893 87.418 50.4285C89.2346 48.0985 89.8941 45.436 89.4819 42.5243L90.3063 42.4412C92.1229 42.1919 93.9365 42.0256 95.7531 41.8594C97.24 41.6932 97.817 40.6129 97.9819 40.2774C99.136 37.8642 99.7161 35.1187 99.881 31.6252C100.293 26.1341 99.6337 20.7261 97.9819 15.5674V15.5612ZM94.6815 31.2866C94.599 32.6194 94.2693 33.949 94.022 35.3649C93.9395 35.8635 93.8571 36.2791 93.6922 36.7777C91.4634 37.027 89.2346 37.2763 87.2562 37.5257C85.0274 34.7801 81.7269 33.3642 78.341 33.7798C75.0406 34.1953 72.1523 36.1929 70.5005 39.2709C68.6015 39.4371 66.7024 39.6864 64.8064 39.9357L61.1731 40.3512C59.1092 40.6005 57.1308 40.8499 55.0668 41.0992C54.4074 41.1823 53.6624 41.2654 53.0029 41.3485C52.1786 41.4316 51.4336 41.5147 50.6093 41.5978C48.3805 37.9381 44.9976 36.1067 40.7048 36.4391C36.9098 36.6884 33.2765 39.8495 32.2049 43.6785C30.9683 43.7616 29.6463 43.9278 27.9946 44.1772C27.6648 42.5951 27.2527 41.0992 26.9229 39.5171C26.4283 37.2702 25.9337 35.0233 25.436 32.7763C25.6009 32.8594 25.8482 32.9425 26.0955 32.9425C26.5901 32.9425 27.0023 33.0256 27.5 33.0256H30.4707V24.789H30.5531C31.0477 24.7059 31.6248 24.789 32.2049 24.789C32.04 26.5373 32.2873 28.2825 33.1117 29.6984C34.5985 32.2777 37.2395 33.1919 39.7156 33.1919C41.2849 33.1919 42.8512 32.8594 43.9259 32.2777C44.7503 31.8622 45.08 31.0311 45.1655 30.3632V29.449C45.9074 31.0311 47.147 32.1946 48.6308 32.7763C50.1177 33.275 51.7664 33.1919 53.3357 32.4439C54.2425 33.1919 55.3996 33.0256 55.9767 33.0256H56.4713L57.7078 33.1919H59.442C60.2664 33.1919 61.0113 33.1919 61.8357 33.1088C63.7347 33.1088 65.7132 33.0256 67.6122 32.8594C69.264 32.6932 70.583 31.6929 71.4073 30.2801C71.9843 31.7791 73.2239 32.7763 75.0375 33.1088C75.3672 33.1919 75.7794 33.1919 76.1092 33.1919C76.9335 33.1919 77.6785 33.0257 78.338 32.6932V33.0256H81.9682C82.7925 33.1088 83.3726 32.8594 83.8672 32.4439L83.9496 32.3608L84.6916 32.527C85.0213 32.6101 85.351 32.6932 85.6838 32.7763C86.4258 32.9425 87.2501 33.1088 88.0775 33.1919C88.4897 33.275 88.9018 33.275 89.2316 33.275C90.8009 33.275 92.0374 32.8594 93.1915 32.0284C93.7686 31.5298 94.2632 30.948 94.6784 30.3632V31.2774L94.6815 31.2866ZM79.66 48.8434C77.019 48.8434 74.9551 46.8458 74.9551 44.1002C74.9551 41.3547 77.019 39.357 79.5775 39.357C80.8141 39.357 82.0536 39.8557 82.9604 40.7698C83.8672 41.684 84.3618 42.8505 84.3618 44.0971C84.3618 46.7596 82.2979 48.8403 79.6569 48.8403L79.66 48.8434ZM37.2395 46.4302C37.3219 45.2668 37.899 44.1002 38.8088 43.2691C39.7156 42.5212 40.7903 42.1057 41.862 42.1057H42.1917C45.2449 42.355 46.5669 44.7681 46.5669 47.015C46.5669 48.1816 46.0723 49.3451 45.1624 50.2592C44.1732 51.1734 42.9336 51.6751 41.6971 51.592C40.4575 51.5089 39.3034 50.9272 38.3967 50.0099C37.5723 49.0096 37.1601 47.763 37.2426 46.4333L37.2395 46.4302ZM26.2634 16.8078C28.3274 15.4781 30.721 14.644 32.8674 13.9791C37.8196 12.3971 43.184 11.2336 49.4552 10.3194C53.9952 9.65458 57.9551 9.23906 61.6708 8.98974C66.9528 8.65732 72.2347 8.408 77.3518 8.408C79.9103 8.408 82.5513 8.57421 85.1098 8.82353C85.8518 8.82353 86.5967 8.90663 87.3386 8.98974C87.9981 9.07284 88.6576 9.40527 89.485 10.4056C90.804 11.9046 91.7962 13.7329 92.703 16.4785C92.9503 17.2264 93.1976 18.0605 93.4449 18.8916C93.1976 18.7254 92.9503 18.6423 92.703 18.5592L92.4557 18.4761C91.5489 18.3099 90.5567 18.1436 89.485 18.1436C87.5859 18.1436 86.0197 18.8916 84.7801 20.2243C84.6977 20.3075 84.6977 20.3906 84.6152 20.3906L84.4504 18.8085H78.4265V26.962C78.3441 26.962 78.2616 27.0451 78.0143 27.1282C77.8494 27.2114 77.6846 27.2114 77.6021 27.1282C77.6021 27.0451 77.5197 26.962 77.5197 26.7127V20.6399L77.2724 18.8085H71.8256C71.7432 18.1436 71.5783 17.5619 71.331 16.9771C70.5891 15.4781 69.267 14.4808 67.5329 14.3146C65.6369 14.0653 63.7378 14.1484 61.9212 14.1484C61.1793 14.1484 60.3549 14.2315 59.5275 14.2315H58.4558V14.0653H52.2671V18.393C49.2964 18.1436 46.9852 19.224 45.5807 21.554C44.7564 19.972 43.5168 18.9747 41.8681 18.4761C39.3095 17.645 36.6686 18.2267 34.6871 19.8919C34.3573 19.144 33.6979 18.5592 32.9529 18.4761C31.9637 18.3099 31.0538 18.393 30.2295 18.7254V18.4761L24.9475 18.8085C24.9475 18.6423 25.03 18.4761 25.03 18.3098C25.1124 17.9774 25.2773 17.3957 26.2665 16.8109L26.2634 16.8078ZM94.4342 24.2965C94.4342 24.4627 94.4342 24.5458 94.5166 24.712C94.5166 24.712 94.5166 24.6289 94.4342 24.6289V24.2965ZM70.7478 22.8837C70.8303 22.7175 70.9951 22.5513 71.0776 22.3851C71.16 22.302 71.16 22.2189 71.2424 22.1358V23.2992C71.0776 23.133 70.9127 22.9668 70.7478 22.8837ZM65.1361 20.803H64.5591V19.8057H65.0537C65.0537 19.8889 65.1361 20.0551 65.1361 20.4706C65.2186 20.7199 65.1361 20.803 65.1361 20.803ZM64.5591 25.7124C64.8888 25.7124 65.2186 25.7124 65.5483 25.7955C65.7956 25.7955 65.7956 26.3772 65.7956 26.5434C65.7956 27.1252 65.7132 27.1252 65.3834 27.2083H64.4767V25.7124H64.5591ZM52.261 27.1282C51.9313 27.2945 51.6015 27.2945 51.4367 27.1282C51.1894 26.962 51.0245 26.6296 51.0245 26.2141C50.942 25.5492 51.0245 24.8844 51.1069 24.2996C51.1069 24.1334 51.1894 24.0503 51.3542 23.9672C51.4367 23.9672 51.6015 23.8841 51.7664 23.8841C51.9313 23.8841 52.0961 23.8841 52.261 23.9672V27.1282Z" fill="white"/>
<path d="M50.2795 45.3467C50.8565 50.8378 47.2263 54.7499 42.7688 55.2485C40.4575 55.4978 38.3112 54.7499 36.4976 53.2509C34.681 51.7519 33.7742 49.7574 33.5269 47.3443C32.2079 47.5105 30.8859 47.5936 29.6463 47.7598C28.4922 47.926 27.3351 48.0091 26.181 48.1753C25.3567 48.3415 25.1093 48.0091 24.9445 47.2581C23.9553 43.0997 22.8806 39.0214 21.9738 34.7769C21.1494 30.7848 20.6548 26.7895 20.6548 22.7943C20.6548 21.2954 20.9021 19.7164 21.2319 18.2174C21.644 15.9705 23.0485 14.3053 25.03 13.2249C27.8358 11.6428 30.8065 10.5625 33.8597 9.81451C38.4821 8.65103 43.187 7.56759 47.8889 6.81964C52.264 6.07169 56.7186 5.65616 61.1762 5.23756C65.4689 4.90514 69.7586 4.65582 74.0513 4.65582C78.6738 4.65582 83.2107 4.98824 87.8332 5.23756C89.485 5.32066 90.8039 6.31793 91.9611 7.56759C94.1898 9.98072 95.4264 12.8925 96.4187 16.0536C97.988 21.046 98.6475 26.2878 98.3177 31.5296C98.1528 34.2752 97.7407 37.0207 96.5835 39.6001C96.4186 40.0156 96.1713 40.1818 95.6737 40.2649L88.74 41.0129C88.4102 41.096 87.9981 41.096 87.5828 41.1791C88.4896 44.1739 88.1599 47.0026 86.1814 49.4157C84.777 51.2471 82.881 52.2444 80.6522 52.4937C75.8649 53.0754 70.8302 49.3326 71.2424 42.9243C64.2263 43.7553 57.2956 44.5895 50.2795 45.3374V45.3467ZM22.5478 23.216C22.8775 26.294 23.0424 29.0395 23.537 31.7851C24.3613 36.2789 25.5185 40.6035 26.5077 45.0973C26.6726 46.0146 27.0847 46.0146 27.8297 45.9284C29.399 45.6791 31.0477 45.5129 32.617 45.3467C33.2765 45.2635 33.6063 45.0973 33.6887 44.4325C34.4306 41.1883 37.5692 38.4428 40.7873 38.1934C44.6648 37.861 47.4706 39.5231 49.3697 42.8535C49.617 43.269 49.7818 43.4352 50.2764 43.3521C51.9282 43.1859 53.5769 43.0197 55.2286 42.7704C57.7872 42.438 60.2633 42.1886 62.8218 41.8562C65.5452 41.5238 68.2686 41.1914 71.0745 40.9421C71.5691 40.859 71.734 40.6928 71.9813 40.2772C74.7047 34.5368 82.2154 33.7058 86.1784 38.6951C86.5081 39.1107 86.7554 39.1938 87.2501 39.1938C89.6437 38.9445 91.9549 38.612 94.3486 38.3596C94.8432 38.2765 95.173 38.1103 95.2554 37.6117C95.6676 35.531 96.2446 33.5334 96.3271 31.3726C96.6568 26.0478 95.9149 20.8891 94.2631 15.8966C93.4388 13.4835 92.4465 11.2365 90.7154 9.32203C89.8086 8.32477 88.8194 7.49064 87.4974 7.32443C84.1145 7.07511 80.7316 6.74269 77.3456 6.74269C72.0637 6.74269 66.7818 6.992 61.5822 7.32443C57.4544 7.57374 53.3296 8.07237 49.2842 8.65411C43.59 9.48516 37.8959 10.6517 32.4491 12.3969C30.0554 13.1449 27.5793 14.0621 25.433 15.4749C24.4438 16.1397 23.6988 16.8908 23.4515 18.0542C23.0393 19.8025 22.792 21.6309 22.5447 23.2129L22.5478 23.216ZM79.6599 50.5053C83.2077 50.5053 86.0135 47.6767 86.0135 44.1832C86.0135 40.6897 83.1253 37.7779 79.5775 37.7779C76.0297 37.7779 73.3063 40.6066 73.3063 44.1832C73.3063 47.7598 76.1122 50.5053 79.663 50.5053H79.6599ZM48.298 46.9287C48.298 43.5183 46.0692 40.6066 42.439 40.3573C38.9737 40.1079 35.8351 42.8535 35.6702 46.2639C35.5053 49.9267 38.1463 52.9185 41.694 53.1709C45.1594 53.4202 48.298 50.5084 48.298 46.9318V46.9287Z" fill="#C9323E"/>
<path d="M59.6069 15.8104C62.2478 15.8104 64.8064 15.5611 67.3649 15.8935C70.4181 16.309 70.7478 19.7194 69.7586 21.5508C69.3464 22.2157 68.5221 22.6312 68.0244 23.1329C68.3541 23.2991 68.7663 23.4653 69.1785 23.7146C70.5799 24.6288 71.2424 25.9616 70.8302 27.8761C70.5005 29.6243 69.4258 30.954 67.6947 31.2033C65.0537 31.5358 62.3303 31.4527 59.6893 31.5358C59.6069 26.0447 59.6069 20.886 59.6069 15.8104ZM62.9073 28.7902C63.8141 28.7902 64.7239 28.8733 65.6307 28.7902C66.8673 28.624 67.4473 27.8761 67.4473 26.5433C67.4473 25.2105 66.8703 24.2133 65.7132 24.0471C64.8064 23.964 63.8141 24.0471 62.9073 24.0471V28.7902ZM62.9073 18.2235V22.5512H65.0537C66.2108 22.5512 66.7879 21.8032 66.8703 20.7198C66.9527 19.3039 66.2933 18.3898 65.2186 18.3066C64.3942 18.1404 63.7317 18.2235 62.9073 18.2235ZM56.8835 31.2865C55.8118 31.2033 54.5722 31.8682 53.9952 30.2892C53.583 30.4554 53.3357 30.6216 53.006 30.7878C50.5299 32.1206 47.8889 31.2865 46.8172 28.7071C45.9104 26.6264 45.9104 24.5457 46.9821 22.5512C48.3011 20.2211 50.6947 19.7225 53.1708 20.2211C53.4181 20.3042 53.583 20.3874 53.9952 20.4705V15.7273H56.8835V31.2865ZM53.9128 25.546V23.6315C53.9128 23.3822 53.8303 23.1329 53.7479 22.9667C52.5938 21.9694 49.9528 21.9694 49.5376 23.964C49.3727 24.7119 49.2903 25.546 49.3727 26.3771C49.5376 28.5409 51.3542 29.5382 53.2533 28.5409C53.7479 28.2916 54.0776 27.9592 53.9952 27.3774C53.8303 26.7126 53.9128 26.1308 53.9128 25.546ZM45.08 26.3771H37.0746C37.1571 27.793 38.1463 28.9564 39.6332 28.8733C40.9552 28.7902 42.2741 28.5409 43.6786 28.2916V30.2892C43.6786 30.4554 43.5137 30.7047 43.4313 30.7878C41.0376 31.9513 36.58 32.1206 34.684 28.8733C33.5299 26.7926 33.6948 23.7146 35.0962 21.8832C36.5831 19.9687 39.0592 19.2208 41.4498 19.9687C43.2664 20.5505 44.2556 21.9664 44.7502 23.7947C44.9151 24.6257 44.9151 25.3767 45.08 26.374V26.3771ZM42.0268 24.8781C42.1917 23.6315 40.9552 22.2988 39.6332 22.2988C38.0639 22.2157 36.9922 23.2129 36.9922 24.8781H42.0268ZM80.0721 31.3696C79.9897 30.954 79.9897 30.6216 79.9897 30.203C79.5775 30.4523 79.1653 30.6185 78.8325 30.7847C77.8433 31.2834 76.7686 31.6989 75.6145 31.4496C74.0483 31.1172 73.056 30.1999 72.9735 28.5378C72.8911 25.8754 72.9735 23.2129 72.9735 20.4674H75.8618V26.7064C75.8618 28.2885 76.7686 29.0365 78.3379 28.704C79.6599 28.4547 80.0721 27.873 80.0721 26.4571V20.4674H82.9604C82.9604 20.7167 83.0428 21.0491 83.0428 21.2984V30.4492C83.0428 31.1141 82.878 31.3634 82.136 31.3634C81.3941 31.2803 80.7347 31.3634 80.0721 31.3634V31.3696ZM85.1068 30.8709V28.2916C86.4288 28.5409 87.7477 28.7902 89.0697 28.9564C89.3995 29.0395 89.8117 28.9564 90.059 28.7902C90.3887 28.5409 90.8833 28.1254 90.9658 27.793C90.9658 27.4605 90.5536 26.8788 90.1414 26.7957C89.317 26.5464 88.4072 26.4633 87.5829 26.2971C85.2716 25.7984 84.4473 22.9698 86.0166 21.2215C86.9234 20.1411 88.0805 19.7225 89.4819 19.7225C90.4711 19.7225 91.4634 19.8887 92.4526 20.0549C92.6175 20.0549 92.8648 20.3874 92.8648 20.5536C92.9472 21.3015 92.8648 21.9694 92.8648 22.7174L89.6468 22.2187C89.317 22.2187 88.9873 22.2187 88.74 22.385C88.4103 22.5512 87.9981 22.9667 88.0805 23.216C88.0805 23.4653 88.4927 23.964 88.8224 24.0471C89.4819 24.2964 90.2238 24.2964 90.9688 24.4626C92.3702 24.7119 93.3625 25.3767 93.7747 26.7926C94.1868 28.2085 93.5273 29.7875 92.3702 30.7016C91.2131 31.6158 89.8117 31.6989 88.4072 31.5327C87.2531 31.3665 86.1784 31.0341 85.1068 30.8678V30.8709ZM25.8513 20.3874L28.822 20.138C28.822 20.4705 28.9044 20.7198 28.9044 21.1353C29.3166 20.886 29.6463 20.8029 29.8936 20.5536C30.8004 19.9718 31.7103 19.8056 32.7819 19.9718C33.0292 19.9718 33.2765 20.3042 33.2765 20.5536C33.359 21.4677 33.2765 22.385 33.2765 23.1329C32.2873 23.0498 31.295 22.8836 30.3058 23.0498C29.0662 23.216 28.7365 23.7146 28.7365 24.9643V31.2865H26.1779C26.0131 31.2865 25.7658 30.7878 25.7658 30.6216V21.9694C25.8482 21.4708 25.8482 20.9722 25.8482 20.3874H25.8513Z" fill="#C9323E"/>
</svg>
