<svg width="120" height="60" viewBox="0 0 120 60" fill="none" xmlns="http://www.w3.org/2000/svg">
<path d="M72.5105 38.8219C73.6619 38.6136 74.7951 39.6485 75.0413 41.1048C75.2875 42.5819 74.5693 43.9433 73.4179 44.154H73.3792C72.1708 44.3856 70.9624 44.499 69.7357 44.5175C67.1844 44.5175 65.1279 43.904 63.5227 42.6398C61.4639 41.0469 60.3877 38.5163 60.3877 35.3698V6.15101C60.3877 4.96095 61.5779 4.00243 63.0508 4.00243C64.5237 4.00243 65.7138 4.96095 65.7138 6.15101V35.3722C65.7138 36.8076 66.0718 37.8055 66.7695 38.3635C67.3942 38.8613 68.9423 39.4748 72.4535 38.8428L72.5105 38.8242V38.8219ZM18.6934 41.9684C17.7289 41.9684 16.8238 40.5306 16.3518 39.5906C14.3564 35.6407 12.3986 31.6714 10.4785 27.6831C7.40054 21.2953 5.73842 18.2483 4.34078 17.1555C2.96366 16.0627 2.68094 14.662 3.34214 13.4164C3.67804 12.8057 4.23891 12.3554 4.90154 12.1644C5.56418 11.9734 6.27438 12.0573 6.87614 12.3976C6.89438 12.3976 6.89438 12.4185 6.91262 12.4185C9.87662 14.1248 11.427 17.3269 15.2779 25.3053C16.7691 28.3916 18.6204 32.2465 21.0555 37.0392C21.6597 38.2292 22.0746 40.6278 21.0372 41.4127L18.6957 41.9684H18.6934Z" fill="#EA2330"/>
<path d="M81.0262 30.3849C81.0256 26.9778 79.6925 23.7103 77.32 21.3011C74.9474 18.8918 71.7298 17.5381 68.3745 17.5374H57.1797C56.0078 17.5374 55.0616 16.3289 55.0616 14.8332C55.0616 13.3375 56.0078 12.1313 57.1774 12.1313H68.3745C70.7355 12.1304 73.0734 12.6019 75.2549 13.5188C77.4363 14.4358 79.4184 15.7803 81.0879 17.4755C82.7575 19.1706 84.0817 21.1832 84.985 23.3983C85.8883 25.6134 86.3529 27.9875 86.3523 30.3849V42.4082C86.3523 43.5982 85.1621 44.5568 83.6893 44.5568C82.2164 44.5568 81.0262 43.5982 81.0262 42.4082V30.3849ZM49.1153 33.7791V34.0662C49.1153 37.1548 46.6598 39.1483 42.7883 39.1483C38.9169 39.1483 36.4431 37.1548 36.4431 34.0871C36.4431 30.9985 38.9374 29.005 42.7883 29.005H43.0163C47.0383 29.005 53.9672 30.885 54.4391 31.0378V25.8979C51.8719 24.9788 47.7724 23.5965 43.0163 23.5965H42.7883C35.6519 23.5965 31.1193 28.2966 31.1193 34.0848C31.1193 39.8776 35.6497 44.5568 42.7883 44.5568C49.9247 44.5568 54.4574 39.8799 54.4574 34.0871V33.8185L54.4391 22.601C54.4391 16.8104 48.9443 12.1313 42.7883 12.1313L41.7692 12.1104C33.6478 12.1104 27.3049 14.3354 22.6582 25.2265C22.2854 26.1052 21.9206 26.9873 21.5638 27.8729L21.5251 27.9886C20.4124 30.7693 19.7695 32.8206 18.1643 36.5783C15.1616 43.6168 12.4803 47.7218 8.38314 47.951C6.17154 48.0853 5.62434 49.5809 5.8911 51.0766C6.15558 52.5723 7.0995 53.4914 8.38314 53.4914C15.0476 53.4914 19.2223 47.261 23.2054 38.3819L23.2624 38.2662C23.8666 36.8307 24.4526 35.3327 25.0568 33.7606C25.8502 31.6699 26.6801 29.5028 27.5876 27.3751C31.1375 19.054 35.1595 17.5189 41.7874 17.5189H42.8066C45.6566 17.5189 49.1336 19.5124 49.1336 22.5801V33.7236" fill="#EA2330"/>
<path d="M110.976 33.7791V34.0662C110.976 37.1548 108.484 39.1483 104.631 39.1483C100.778 39.1483 98.2857 37.1548 98.2857 34.0871C98.2857 30.9985 100.78 29.005 104.631 29.005H104.859C108.881 29.005 115.81 30.885 116.282 31.0378V25.8979C113.714 24.9788 109.597 23.5965 104.859 23.5965H104.631C97.4946 23.5965 92.9619 28.2966 92.9619 34.0848C92.9619 39.8776 97.4923 44.5568 104.631 44.5568C111.767 44.5568 116.302 39.8776 116.302 34.0871V33.8185L116.282 22.601C116.282 16.8081 110.787 12.1498 104.631 12.1498C104.631 12.1498 102.725 12.1313 102.328 12.1313C89.2227 12.1313 81.0466 20.8159 81.0466 32.8206H86.3704C86.3704 23.8072 92.1685 17.5398 102.328 17.5398C102.8 17.5398 104.273 17.556 104.273 17.556C108.087 17.556 110.994 19.5332 110.994 22.601L110.976 33.7791Z" fill="#EA2330"/>
<g opacity="0.7">
<path opacity="0.7" d="M49.1155 29.7714V34.0871C49.1155 36.5019 47.6039 38.2476 45.0913 38.8797V44.3831C50.8893 43.4825 54.4576 39.2247 54.4576 34.0871V31.0378C53.8533 30.885 50.6271 30.1349 49.1155 29.7714Z" fill="url(#paint0_linear_109_1324)"/>
<path opacity="0.7" d="M110.976 29.7714V34.0871C110.976 36.5019 109.446 38.2476 106.934 38.9005V44.404C112.732 43.501 116.3 39.2455 116.3 34.1056V31.0587C115.678 30.885 112.486 30.1372 110.976 29.7714Z" fill="url(#paint1_linear_109_1324)"/>
<path opacity="0.7" d="M69.7151 12.1683V17.5953C72.8205 17.9349 75.6935 19.4255 77.7843 21.7819C79.875 24.1382 81.0366 27.1947 81.0467 30.3664V31.0193H81.1219C81.3162 27.6144 82.3275 24.3094 84.0677 21.3924C82.6019 18.7792 80.5265 16.5714 78.024 14.9631C75.5214 13.3548 72.6683 12.3951 69.7151 12.1683Z" fill="url(#paint2_linear_109_1324)"/>
<path opacity="0.7" d="M65.7321 17.5189H60.406V31.23H65.7321V17.5189Z" fill="url(#paint3_linear_109_1324)"/>
<path opacity="0.7" d="M10.4785 27.7015C11.9902 30.8272 13.8757 34.74 16.3518 39.609C16.427 39.7433 16.5023 39.8961 16.5958 40.0489C17.593 37.9692 18.5132 35.8523 19.3546 33.7027C17.7289 30.4243 16.3906 27.6622 15.2551 25.3423L10.4785 27.7015Z" fill="url(#paint4_linear_109_1324)"/>
</g>
<defs>
<linearGradient id="paint0_linear_109_1324" x1="48.3882" y1="44.9666" x2="51.1106" y2="29.7509" gradientUnits="userSpaceOnUse">
<stop offset="0.02" stop-color="white" stop-opacity="0"/>
<stop offset="0.65" stop-color="white" stop-opacity="0"/>
<stop offset="0.71" stop-color="#DFDFE0" stop-opacity="0.17"/>
<stop offset="0.89" stop-color="#88898A" stop-opacity="0.62"/>
<stop offset="0.99" stop-color="#666769" stop-opacity="0.8"/>
</linearGradient>
<linearGradient id="paint1_linear_109_1324" x1="110.226" y1="44.9689" x2="112.958" y2="29.7001" gradientUnits="userSpaceOnUse">
<stop offset="0.02" stop-color="white" stop-opacity="0"/>
<stop offset="0.65" stop-color="white" stop-opacity="0"/>
<stop offset="0.71" stop-color="#DFDFE0" stop-opacity="0.17"/>
<stop offset="0.91" stop-color="#88898A" stop-opacity="0.62"/>
<stop offset="1" stop-color="#666769" stop-opacity="0.8"/>
</linearGradient>
<linearGradient id="paint2_linear_109_1324" x1="67.6061" y1="18.7715" x2="83.7404" y2="23.9348" gradientUnits="userSpaceOnUse">
<stop offset="0.02" stop-color="white" stop-opacity="0"/>
<stop offset="0.65" stop-color="white" stop-opacity="0"/>
<stop offset="0.71" stop-color="#DFDFE0" stop-opacity="0.17"/>
<stop offset="0.91" stop-color="#88898A" stop-opacity="0.62"/>
<stop offset="1" stop-color="#666769" stop-opacity="0.8"/>
</linearGradient>
<linearGradient id="paint3_linear_109_1324" x1="63.0713" y1="31.2439" x2="63.0713" y2="17.5282" gradientUnits="userSpaceOnUse">
<stop offset="0.02" stop-color="white" stop-opacity="0"/>
<stop offset="0.65" stop-color="white" stop-opacity="0"/>
<stop offset="0.71" stop-color="#DFDFE0" stop-opacity="0.17"/>
<stop offset="0.91" stop-color="#88898A" stop-opacity="0.62"/>
<stop offset="1" stop-color="#666769" stop-opacity="0.8"/>
</linearGradient>
<linearGradient id="paint4_linear_109_1324" x1="10.556" y1="23.5664" x2="18.8088" y2="37.1566" gradientUnits="userSpaceOnUse">
<stop offset="0.02" stop-color="white" stop-opacity="0"/>
<stop offset="0.5" stop-color="white" stop-opacity="0"/>
<stop offset="0.54" stop-color="#F0F0F1" stop-opacity="0.07"/>
<stop offset="0.85" stop-color="#8D8D8F" stop-opacity="0.52"/>
<stop offset="1" stop-color="#666769" stop-opacity="0.7"/>
</linearGradient>
</defs>
</svg>
