<svg xmlns="http://www.w3.org/2000/svg" xmlns:xlink="http://www.w3.org/1999/xlink" width="84.636" height="28.609" viewBox="0 0 84.636 28.609">
  <defs>
    <clipPath id="clip-path">
      <rect id="Rectangle_2" data-name="Rectangle 2" width="84.636" height="28.609" transform="translate(0)" fill="#fff"/>
    </clipPath>
  </defs>
  <g id="Group_1" data-name="Group 1" transform="translate(-4.926 -4.378)">
    <g id="easemytrip" transform="translate(4.926 4.378)" clip-path="url(#clip-path)">
      <path id="Path_6" data-name="Path 6" d="M70.566,34.959A1.553,1.553,0,0,1,71.99,33.28c1.016,0,1.551,1,1.551,2.384s-.549,2.427-1.594,2.427a1.471,1.471,0,0,1-1.383-1.665V34.959Zm-.325-3.173H68.449c.029.7.056,1.538.056,2.539v8.324h2.059V38.782h.029a2.128,2.128,0,0,0,1.835.9c1.58,0,3.188-1.255,3.188-4.106,0-2.384-1.255-3.965-2.948-3.965a2.613,2.613,0,0,0-2.3,1.228h-.029ZM64.583,39.53h2.06V31.77h-2.06Zm2.13-9.874a1.108,1.108,0,1,0-1.114,1.1,1.039,1.039,0,0,0,1.114-1.1ZM61,33.128l-.085-1.354H59.151c.029.691.057,1.466.057,2.425v5.334h2.06V35.524c0-1.327.706-1.947,1.633-1.947a2.93,2.93,0,0,1,.537.042v-1.96a2.184,2.184,0,0,0-.466-.043,2.153,2.153,0,0,0-1.915,1.525H61v-.016ZM50.769,28.822V30.6h2.642V39.53h2.06V30.6h2.651V28.822h-7.35ZM47.41,35.833q-.173.725-.324,1.454h-.042q-.172-.731-.368-1.454l-1.143-4.049H43.279l2.61,7.127a1.118,1.118,0,0,1,.083.353A2.785,2.785,0,0,1,44.947,40.7a3.653,3.653,0,0,1-1.085.565L44.382,43a4.046,4.046,0,0,0,2-1.087c.875-.875,1.538-2.244,2.4-4.752l1.748-5.389H48.387l-.973,4.063Zm-8.15-7.011-1.217,4.021q-.53,1.874-.931,3.781h-.043q-.385-1.9-.891-3.781l-1.156-4.021H32.474l-.72,10.708h1.878l.211-4.12c.074-1.325.14-2.907.169-4.261h.042c.254,1.311.594,2.766.932,3.965l1.188,4.26H37.74l1.307-4.33c.367-1.2.748-2.622,1.059-3.893h.042c-.013,1.086.057,2.807.114,4.218l.2,4.161h1.964l-.608-10.708ZM25.812,34.846c.057-.763.48-1.791,1.469-1.791,1.016,0,1.336.987,1.325,1.791H25.812Zm4.629,1.425a4.763,4.763,0,0,0,.056-.817c0-2.512-1.228-3.838-3.1-3.838-2.271,0-3.555,1.919-3.555,4.149,0,2.413,1.368,3.921,3.767,3.921a6.572,6.572,0,0,0,2.512-.451l-.3-1.425a5.6,5.6,0,0,1-1.889.324,1.878,1.878,0,0,1-2.116-1.848h4.628Zm-12.827,2.9a4.516,4.516,0,0,0,2.187.52c1.93,0,3.044-.973,3.044-2.456,0-1.072-.607-1.819-1.919-2.368-.891-.382-1.183-.594-1.183-1.03s.339-.734.958-.734a3.238,3.238,0,0,1,1.467.409l.4-1.453a4.215,4.215,0,0,0-1.919-.437,2.55,2.55,0,0,0-2.836,2.456c0,.846.537,1.664,1.976,2.256.846.367,1.114.608,1.114,1.087s-.353.775-1.073.775a4,4,0,0,1-1.8-.52Zm-3.371-2.289a1.292,1.292,0,0,1-1.3,1.336.942.942,0,0,1-.973-1.057c0-1.129,1.157-1.4,2.272-1.4Zm-3.358-3.259a3.765,3.765,0,0,1,1.905-.537c1.129,0,1.4.579,1.4,1.354-2.468,0-4.232.932-4.232,2.921a2.252,2.252,0,0,0,2.326,2.328,2.5,2.5,0,0,0,2.059-.959h.042l.128.8h1.848a11.582,11.582,0,0,1-.114-1.834V34.859c0-1.693-.649-3.23-3.061-3.23a5.615,5.615,0,0,0-2.694.65l.393,1.336ZM5.059,34.832h3.5V33.152H5.06v-2.6H8.772V28.836H3V39.544H8.982V37.821H5.06V34.829Z" transform="translate(-3 -15.518)" fill="#005999"/>
      <path id="Path_7" data-name="Path 7" d="M20.94,30.671C26.611,19.216,42.1,27.977,50.694,20.33,42.13,29.274,25.186,21.727,20.94,30.671Z" transform="translate(-7.621 -13.403)" fill="#00699e" fill-rule="evenodd"/>
      <path id="Path_8" data-name="Path 8" d="M47.723,11.028l20.1,1.665c.974.056.817.254.339.7l-9.8,9.608c-.551.608-.679.437-1.327-.281L53.2,18.378c-.506-.537-.594-.648.282-.96l9.535-3.077L52.281,16.26c-.8.169-.706.283-1.271-.52l-3.569-4.091c-.452-.494-.409-.734.283-.62Z" transform="translate(-14.371 -11)" fill="#00a3d6" fill-rule="evenodd"/>
      <path id="Path_9" data-name="Path 9" d="M54.685,20.467l1.045,1.114c.508.551.367.564-.212.918L52.2,24.049c-.4.24-.65.043-.367-.409l2.1-3.372C54.135,19.846,54.36,20.072,54.685,20.467Z" transform="translate(-15.548 -13.329)" fill="#00699e" fill-rule="evenodd"/>
    </g>
  </g>
</svg>
