<svg width="24" height="25" viewBox="0 0 24 25" fill="none" xmlns="http://www.w3.org/2000/svg">
<g clip-path="url(#clip0_8183_2572)">
<path d="M24.0001 10.7642C23.7232 11.4867 23.0811 11.577 22.4427 11.673C22.437 11.5153 22.4275 11.3576 22.4269 11.1998C22.4212 9.68237 22.4168 8.16554 22.4124 6.64808L24.0001 6.63281V10.7648V10.7642Z" fill="#FE6979"/>
<path d="M6.54308 24.9531C6.5494 24.9684 6.55572 24.9837 6.56204 24.9996H4.03442C4.04011 24.9843 4.04643 24.969 4.05275 24.9538C4.88265 24.9538 5.71255 24.9538 6.54244 24.9538L6.54308 24.9531Z" fill="#7FCBF6"/>
<path d="M17.4292 25.0027C17.4399 24.9875 17.4469 24.9709 17.4501 24.9531C18.28 24.9557 19.1099 24.9588 19.9404 24.9614C19.9499 24.9735 19.9555 24.9875 19.9568 25.0027H17.4292Z" fill="#7FCBF6"/>
<path d="M16.7584 22.0786C16.6428 22.0735 16.5277 22.064 16.4121 22.064C13.4742 22.0633 10.5364 22.0633 7.59859 22.064C7.48356 22.064 7.36789 22.0735 7.25286 22.0792C5.94955 22.0792 4.64687 22.0786 3.34356 22.078C2.50165 21.8662 2.28549 21.5838 2.28549 20.6966C2.28486 17.7443 2.28359 14.7927 2.28296 11.8405C2.36702 11.7381 2.32278 11.6172 2.3272 11.5047C2.35312 10.8191 2.28296 10.1316 2.37334 9.44726C2.48901 8.57023 2.58382 7.69066 2.71339 6.81554C2.86888 5.76426 2.97886 4.7047 3.21399 3.66614C3.32712 3.16689 3.83846 2.99708 4.20569 3.35387C4.85545 3.98477 5.47993 4.64111 6.11578 5.28663C5.66386 5.29045 5.2113 5.30698 4.76001 5.29363C4.547 5.28727 4.49265 5.35723 4.49391 5.56201C4.50276 6.51409 4.49581 7.46616 4.4996 8.41823C4.50023 8.58549 4.46357 8.75658 4.53436 8.91939C4.5312 10.4089 4.51856 11.899 4.5293 13.3885C4.5331 13.8756 4.78971 14.1676 5.28399 14.3196C5.76498 14.4677 6.24851 14.6102 6.7352 14.7361C8.13016 15.0961 9.54092 15.3638 10.9852 15.4109C11.3587 15.5139 11.7418 15.4325 12.1191 15.4726C12.7088 15.741 13.339 15.8377 13.9742 15.9146C14.7384 16.0068 15.5057 15.9744 16.2717 15.9795C16.7812 15.9827 17.1383 16.2415 17.376 16.6829C16.895 17.4982 17.4006 18.318 18.1041 18.4923C18.4751 18.5838 18.8082 18.4725 19.1343 18.3135C19.1641 18.4363 19.2702 18.4986 19.3499 18.5794C19.9579 19.1957 20.5666 19.8113 21.1816 20.4206C21.3447 20.5821 21.4793 20.7774 21.691 20.8855C21.7637 21.4 21.461 21.87 20.9661 22.0074C20.8662 22.0353 20.7638 22.0551 20.6627 22.0786C19.3613 22.0786 18.0598 22.0786 16.7584 22.078V22.0786ZM5.61582 18.5228C6.29402 18.5228 6.82748 17.9911 6.82116 17.322C6.81484 16.6689 6.28391 16.1518 5.61771 16.1506C4.94078 16.1493 4.40479 16.6829 4.41174 17.3519C4.41806 18.0032 4.95279 18.5228 5.61582 18.5228Z" fill="#E90130"/>
<path d="M6.11521 5.28553C5.47999 4.64 4.85488 3.98366 4.20512 3.35276C3.83789 2.99597 3.32656 3.16578 3.21342 3.66503C2.97829 4.7036 2.86831 5.76252 2.71282 6.81444C2.58325 7.68892 2.48907 8.56912 2.37278 9.44615C2.28239 10.1311 2.35255 10.818 2.32664 11.5036C2.32221 11.6155 2.36646 11.737 2.28239 11.8394C1.81087 11.7357 1.3362 11.6428 0.867838 11.5246C0.311624 11.3846 0.0145551 11.0291 0.00760242 10.4593C-0.00567086 9.26171 0.0063383 8.06542 1.76885e-05 6.8685C-0.00124643 6.68406 0.06512 6.63318 0.239569 6.63573C0.829282 6.64399 1.419 6.63 2.00808 6.64336C2.23056 6.64844 2.29377 6.57467 2.29187 6.35462C2.28239 5.25309 2.28682 4.15156 2.28808 3.05003C2.28871 2.32246 2.50488 2.01528 3.17613 1.76279C5.19114 1.00533 7.25924 0.452026 9.39308 0.170284C11.4195 -0.0974663 13.4414 -0.0453154 15.4571 0.297481C17.297 0.610387 19.0851 1.10964 20.8328 1.76216C21.4888 2.00701 21.7176 2.31865 21.7195 3.01632C21.7221 4.22343 21.724 5.43117 21.7259 6.63827C21.7259 8.3726 21.7259 10.1063 21.7259 11.8406C21.724 14.7191 21.7221 17.5976 21.7183 20.4754C21.7183 20.6115 21.7006 20.7476 21.6905 20.8837C21.4787 20.7756 21.3441 20.5804 21.181 20.4188C20.5667 19.8089 19.958 19.1933 19.3493 18.5776C19.2697 18.4969 19.1635 18.4352 19.1338 18.3118C19.5067 17.9385 19.702 17.5079 19.5377 16.9731C19.4049 16.5419 19.0984 16.2741 18.6743 16.1819C18.1484 16.0674 17.7066 16.2461 17.376 16.6811C17.1384 16.2398 16.7806 15.9809 16.2718 15.9777C15.5051 15.9726 14.7384 16.0057 13.9743 15.9129C13.3384 15.8359 12.7089 15.7392 12.1192 15.4709C12.6204 15.446 13.1235 15.4429 13.6216 15.3901C14.3769 15.3106 15.1385 15.2565 15.873 15.039C16.8893 14.8641 17.8829 14.5996 18.8569 14.265C19.1572 14.162 19.3752 13.9489 19.4454 13.617C19.4662 13.547 19.5061 13.4777 19.5061 13.4077C19.5035 12.378 19.4959 11.3478 19.4896 10.3181C19.4941 8.71922 19.4972 7.11971 19.5061 5.52084C19.5067 5.35612 19.4523 5.29888 19.2874 5.30015C17.6977 5.30906 16.1087 5.3116 14.5191 5.31605C13.4244 5.27853 12.3296 5.29125 11.2349 5.30906L6.186 5.31414L6.11458 5.28362L6.11521 5.28553ZM12.0003 3.32478C13.3997 3.32478 14.7997 3.32605 16.1991 3.32414C16.5714 3.32414 16.8286 3.12063 16.8558 2.8198C16.8798 2.55205 16.6801 2.31865 16.3382 2.23915C14.4622 1.80413 12.5742 1.49695 10.6389 1.73163C9.62884 1.85374 8.61881 1.97013 7.63405 2.24169C7.27378 2.34091 7.09617 2.62519 7.20425 2.95781C7.30285 3.26245 7.55252 3.32478 7.83379 3.32478C9.22306 3.32478 10.6123 3.32478 12.001 3.32478H12.0003Z" fill="#FE6979"/>
<path d="M3.34367 22.0781C4.64698 22.0781 5.94966 22.0788 7.25297 22.0794C7.25423 22.7548 7.25866 23.4302 7.2555 24.1063C7.2536 24.5947 7.02985 24.8561 6.54316 24.956C5.71264 24.956 4.88274 24.956 4.05284 24.956C3.56489 24.8568 3.34177 24.596 3.33988 24.1069C3.33735 23.4309 3.34177 22.7542 3.34304 22.0781H3.34367Z" fill="#404040"/>
<path d="M21.7258 11.843C21.7258 10.1087 21.7258 8.37496 21.7258 6.64062C21.9546 6.64253 22.1834 6.64508 22.4122 6.64699C22.4167 8.16445 22.4211 9.68128 22.4268 11.1987C22.4268 11.3565 22.4375 11.5142 22.4426 11.6719C22.2119 11.7629 21.9692 11.8048 21.7258 11.843Z" fill="#E90130"/>
<path d="M16.7585 22.0788C18.0599 22.0788 19.3613 22.0788 20.6627 22.0794C20.6646 22.7523 20.6703 23.4258 20.6671 24.0987C20.6646 24.61 20.4484 24.8599 19.9409 24.9598C19.1104 24.9572 18.2805 24.9541 17.4506 24.9515C16.9809 24.8466 16.7597 24.5915 16.7553 24.112C16.749 23.434 16.7572 22.7561 16.7585 22.0781V22.0788Z" fill="#404040"/>
<path d="M6.1152 5.28906C6.13922 5.29924 6.16261 5.30941 6.18663 5.31959C6.22139 5.35902 6.25363 5.401 6.29028 5.43852C9.41204 8.57966 12.5338 11.7214 15.6568 14.8613C15.7232 14.9281 15.8003 14.9834 15.873 15.0438C15.1379 15.2613 14.3769 15.3154 13.6216 15.3949C13.1235 15.4477 12.6204 15.4502 12.1192 15.4757C11.7424 15.4356 11.3588 15.517 10.9852 15.414C10.9334 15.3485 10.8873 15.2779 10.8285 15.2194C8.79578 13.1721 6.76243 11.1261 4.72783 9.08145C4.66905 9.02294 4.59952 8.97524 4.53442 8.92309C4.46363 8.76028 4.50029 8.58856 4.49966 8.42193C4.49586 7.46986 4.50282 6.51779 4.49397 5.56572C4.49207 5.36156 4.54706 5.29097 4.76006 5.29733C5.21136 5.31069 5.66391 5.29479 6.11584 5.29033L6.1152 5.28906Z" fill="#FEFEFE"/>
<path d="M4.53372 8.9147C4.59819 8.96749 4.66835 9.01455 4.72713 9.07306C6.76174 11.1184 8.79508 13.1637 10.8278 15.211C10.8859 15.2695 10.9327 15.3407 10.9845 15.4056C9.54028 15.3585 8.12952 15.0908 6.73456 14.7308C6.24724 14.6049 5.76434 14.4624 5.28334 14.3142C4.7897 14.1622 4.53246 13.8703 4.52866 13.3831C4.51792 11.8937 4.53056 10.4035 4.53372 8.91406V8.9147Z" fill="#C7EAFE"/>
<path d="M15.8724 15.0418C15.8003 14.9814 15.7226 14.9261 15.6562 14.8593C12.5332 11.7188 9.41144 8.57766 6.28969 5.43652C6.25303 5.39963 6.22017 5.35765 6.18604 5.31759C7.86921 5.31568 9.55176 5.31441 11.2349 5.3125C11.2583 5.46386 11.3866 5.53637 11.4802 5.63113C14.0482 8.21769 16.6182 10.803 19.1888 13.3876C19.2697 13.469 19.3595 13.5428 19.4448 13.6198C19.3746 13.9517 19.1566 14.1642 18.8563 14.2678C17.8817 14.6024 16.8881 14.8676 15.8724 15.0418Z" fill="#C7EAFE"/>
<path d="M19.4454 13.6141C19.3601 13.5371 19.2704 13.4634 19.1895 13.382C16.6189 10.7973 14.0489 8.21203 11.4808 5.62547C11.3867 5.53071 11.259 5.45821 11.2356 5.30684C12.3303 5.2884 13.4251 5.27568 14.5198 5.31384C14.5369 5.42959 14.6298 5.49001 14.7025 5.56315C16.215 7.08633 17.7281 8.60889 19.2425 10.1302C19.3152 10.2033 19.3753 10.2974 19.4897 10.3152C19.496 11.3449 19.5036 12.3752 19.5061 13.4049C19.5061 13.4742 19.4669 13.5441 19.4454 13.6141Z" fill="#FEFEFE"/>
<path d="M12.0004 3.32273C10.6112 3.32273 9.22188 3.32273 7.83324 3.32273C7.55261 3.32273 7.30231 3.2604 7.20371 2.95577C7.09626 2.62314 7.27387 2.33886 7.63351 2.23964C8.61826 1.96871 9.62893 1.85233 10.6383 1.72958C12.5743 1.4949 14.4617 1.80145 16.3376 2.2371C16.6796 2.3166 16.8793 2.55001 16.8553 2.81776C16.8281 3.11858 16.5709 3.32146 16.1986 3.32209C14.7992 3.324 13.3992 3.32273 11.9998 3.32273H12.0004Z" fill="#E90130"/>
<path d="M19.4897 10.322C19.3753 10.3042 19.3152 10.2101 19.2425 10.1369C17.7281 8.615 16.215 7.09309 14.7024 5.5699C14.6298 5.49676 14.5362 5.43634 14.5198 5.32059C16.1094 5.31614 17.6984 5.31296 19.288 5.30469C19.453 5.30406 19.5074 5.36066 19.5067 5.52538C19.4979 7.12425 19.4947 8.72376 19.4903 10.3226L19.4897 10.322Z" fill="#C7EAFE"/>
</g>
<defs>
<clipPath id="clip0_8183_2572">
<rect width="24" height="25" fill="white"/>
</clipPath>
</defs>
</svg>
