<svg width="35" height="17" viewBox="0 0 35 17" fill="none" xmlns="http://www.w3.org/2000/svg">
<g clip-path="url(#clip0_8181_2500)">
<path d="M35 2.7371C34.8795 2.80959 34.8917 2.93802 34.8418 3.03976C34.5787 3.57003 34.1366 3.92164 33.5334 4.13337C30.9054 5.05595 28.2895 6.00523 25.6479 6.89602C24.92 7.14145 24.443 7.50768 24.0594 8.11235C22.2492 10.9634 20.3847 13.7877 18.5488 16.626C18.3827 16.8829 18.1909 17.0037 17.8458 16.9986C16.7913 16.9814 15.7361 16.9942 14.6816 16.9916C14.1334 16.9903 13.9744 16.7869 14.1683 16.3304C15.0025 14.3619 15.8409 12.394 16.6751 10.4255C16.715 10.332 16.7885 10.2436 16.7578 10.1012C15.8659 10.4064 14.9875 10.7071 14.1098 11.0079C13.2386 11.3067 12.3602 11.5909 11.4982 11.9089C9.86905 12.5097 8.34898 12.2382 7.01501 11.3303C4.97375 9.94161 3.00737 8.46396 1.00961 7.02446C0.733684 6.82545 0.44992 6.63343 0.185406 6.42297C-0.0748308 6.21569 -0.0634232 5.90223 0.238879 5.79668C1.25843 5.43999 2.2345 4.96376 3.35744 4.88046C4.57449 4.79081 5.67817 5.06104 6.67919 5.67906C7.7786 6.35748 8.88015 7.03336 9.97813 7.71305C10.1222 7.80207 10.2369 7.84403 10.423 7.76138C12.3488 6.90683 14.2817 6.06437 16.2124 5.21745C16.263 5.1952 16.3101 5.16595 16.3949 5.12144C15.314 4.50215 14.2631 3.90002 13.2122 3.2979C12.5456 2.91577 11.8775 2.53555 11.2137 2.1496C10.7809 1.89782 10.7817 1.61297 11.2173 1.37326C11.8411 1.02928 12.4764 0.701834 13.0938 0.349588C13.3598 0.197627 13.6001 0.181731 13.8938 0.279012C16.365 1.09604 18.8411 1.90036 21.3116 2.71739C21.5633 2.80069 21.7643 2.79751 22.011 2.68687C23.4156 2.05741 24.8223 1.43112 26.2447 0.834085C28.554 -0.136181 30.9304 -0.2519 33.3623 0.444962C34.168 0.675765 34.7148 1.11448 34.9337 1.85458C34.9409 1.87874 34.9779 1.89591 35.0007 1.91562V2.73838L35 2.7371ZM34.1188 2.4637C34.1937 1.90354 33.8963 1.42985 33.3131 1.23275C32.5346 0.969516 31.7239 0.822641 30.8933 0.776226C29.17 0.67958 27.5787 1.0687 26.0401 1.74967C20.8917 4.02782 15.7261 6.27737 10.572 8.54662C10.2512 8.68777 10.0138 8.66425 9.72788 8.48431C8.54862 7.7423 7.35795 7.01492 6.16728 6.2869C4.58875 5.32172 2.8555 5.49085 1.31191 6.26847C1.58426 6.46112 1.85163 6.64996 2.119 6.8388C2.21953 6.91255 2.31934 6.98694 2.42059 7.06006C4.11462 8.28021 5.78298 9.53087 7.51266 10.7103C8.61564 11.4625 9.85622 11.6831 11.2187 11.184C12.8357 10.5908 14.4656 10.0166 16.1218 9.51943C16.9503 9.27082 17.4979 8.90141 17.6505 8.1238C17.6583 8.0831 17.6897 8.04686 17.7025 8.0068C17.7531 7.8523 17.8701 7.75947 18.0348 7.70225C20.3662 6.88458 22.6976 6.06691 25.0283 5.2467C25.2301 5.17549 25.4019 5.20028 25.5431 5.34143C25.6879 5.48577 25.6757 5.6479 25.5788 5.81131C25.5167 5.91558 25.4533 6.01986 25.3827 6.13685C25.4469 6.14003 25.4725 6.14829 25.4911 6.14194C28.0963 5.22444 30.7008 4.30695 33.3046 3.38501C33.7709 3.21969 34.0468 2.91068 34.1181 2.4637H34.1188ZM24.2177 6.37655C24.0651 6.41725 24.0088 6.42806 23.956 6.4465C22.2185 7.05689 20.4824 7.66918 18.7435 8.27512C18.5524 8.34188 18.4333 8.43662 18.3642 8.61147C18.1866 9.05782 17.9906 9.49781 17.8023 9.94098C16.9539 11.9387 16.109 13.9378 15.2513 15.9323C15.1451 16.179 15.1985 16.2344 15.4844 16.2286C16.1468 16.2153 16.8106 16.2178 17.4737 16.2324C17.7132 16.2375 17.8522 16.1759 17.977 15.9826C19.5035 13.6179 21.0421 11.2597 22.5779 8.8995C23.1104 8.08056 23.6423 7.26162 24.2184 6.37592L24.2177 6.37655ZM20.5573 3.31443C20.4575 3.26039 20.4297 3.24004 20.3983 3.22923C18.1902 2.50376 15.9814 1.77828 13.7726 1.05344C13.6699 1.01975 13.5644 0.993677 13.4646 1.04772C13.0368 1.27789 12.6112 1.51124 12.1591 1.75794C12.2497 1.82088 12.2932 1.85585 12.3424 1.88383C13.6656 2.64364 15.0296 3.35449 16.298 4.18042C17.0466 4.6681 17.6462 4.70498 18.4141 4.26817C19.065 3.89748 19.8008 3.64506 20.558 3.31443H20.5573Z" fill="#22466D"/>
<path d="M34.119 2.46314C34.0477 2.91012 33.7717 3.21977 33.3055 3.38445C30.7024 4.30575 28.0972 5.22325 25.4919 6.14137C25.4734 6.14773 25.4477 6.1401 25.3836 6.13629C25.4542 6.0193 25.5169 5.91566 25.5796 5.81075C25.6766 5.64798 25.6887 5.48584 25.544 5.34087C25.4021 5.19972 25.231 5.17492 25.0292 5.24614C22.6992 6.06635 20.3678 6.88465 18.0356 7.70168C17.8709 7.75954 17.754 7.85237 17.7034 8.00624C17.6906 8.0463 17.6592 8.08318 17.6513 8.12324C17.4988 8.90021 16.9512 9.27026 16.1227 9.51887C14.4665 10.0161 12.8366 10.5902 11.2196 11.1835C9.85709 11.6832 8.61722 11.4626 7.51354 10.7098C5.78386 9.53031 4.11549 8.28028 2.42146 7.0595C2.32022 6.98638 2.2204 6.91199 2.11987 6.83887C2.16408 6.77211 2.22967 6.73587 2.31238 6.70916C3.04389 6.47645 3.79964 6.45483 4.55397 6.55275C5.35179 6.65639 6.05122 6.97875 6.70431 7.4003C7.60409 7.98081 8.54165 8.51554 9.43715 9.10177C9.9455 9.43494 10.4032 9.46991 10.9715 9.20795C12.3482 8.57276 13.7507 7.98208 15.1417 7.37233C18.7522 5.78849 22.3677 4.21229 25.9704 2.61383C27.4826 1.94303 29.054 1.55645 30.7516 1.64547C31.9372 1.70778 33.0965 1.86292 34.1197 2.46187L34.119 2.46314Z" fill="#FDFDFE"/>
<path d="M24.2178 6.375C23.6417 7.2607 23.1098 8.07964 22.5773 8.89858C21.0422 11.2588 19.5036 13.617 17.9764 15.9816C17.8516 16.1749 17.7126 16.2366 17.4731 16.2315C16.8107 16.2169 16.1469 16.2144 15.4839 16.2277C15.198 16.2334 15.1452 16.1775 15.2507 15.9314C16.1084 13.9368 16.9526 11.9378 17.8017 9.94006C17.99 9.49753 18.186 9.0569 18.3636 8.61055C18.4327 8.4357 18.5518 8.34033 18.7429 8.2742C20.4818 7.66826 22.2179 7.05533 23.9554 6.44558C24.0082 6.42714 24.0645 6.41569 24.2171 6.37564L24.2178 6.375Z" fill="#55BDF2"/>
<path d="M34.1189 2.4666C33.0965 1.86766 31.9365 1.71252 30.7508 1.65021C29.0532 1.56055 27.4818 1.94713 25.9696 2.61856C22.3669 4.21702 18.7514 5.79259 15.1409 7.37706C13.7499 7.98745 12.3475 8.5775 10.9707 9.21269C10.4025 9.47464 9.94473 9.43967 9.43638 9.1065C8.54159 8.52027 7.60331 7.98555 6.70354 7.40504C6.04974 6.98349 5.35102 6.66113 4.5532 6.55749C3.79887 6.45957 3.04312 6.48119 2.3116 6.7139C2.2289 6.73997 2.16331 6.77685 2.1191 6.84361C1.85173 6.65477 1.58437 6.46593 1.31201 6.27264C2.85561 5.49503 4.58814 5.32526 6.16738 6.29108C7.35734 7.0191 8.54801 7.74648 9.72798 8.48848C10.0132 8.66779 10.2513 8.69195 10.5721 8.55079C15.7263 6.28154 20.8911 4.03263 26.0402 1.75384C27.5788 1.07288 29.1701 0.683118 30.8934 0.780399C31.724 0.826814 32.5347 0.97369 33.3132 1.23692C33.8965 1.43403 34.1938 1.90771 34.1189 2.46787V2.4666Z" fill="#55BDF2"/>
<path d="M20.558 3.31341C19.8009 3.64404 19.0651 3.89709 18.4141 4.26714C17.6462 4.70395 17.0473 4.66707 16.298 4.1794C15.0296 3.35283 13.6657 2.64261 12.3424 1.88281C12.2939 1.85483 12.2504 1.81986 12.1592 1.75691C12.6112 1.51085 13.0369 1.27687 13.4646 1.0467C13.5652 0.992654 13.67 1.01872 13.7726 1.05242C15.9814 1.7779 18.1895 2.50273 20.3983 3.22821C20.4297 3.23838 20.4575 3.25936 20.5573 3.31341H20.558Z" fill="#55BDF2"/>
</g>
<defs>
<clipPath id="clip0_8181_2500">
<rect width="35" height="17" fill="white"/>
</clipPath>
</defs>
</svg>
