<svg width="25" height="23" viewBox="0 0 25 23" fill="none" xmlns="http://www.w3.org/2000/svg">
<g clip-path="url(#clip0_8183_2702)">
<path d="M22.9004 22.9978H23.2424C23.2536 22.9453 23.2986 22.9521 23.3362 22.9444C24.1515 22.7779 24.6839 22.3007 24.9331 21.511C24.9463 21.4692 24.936 21.4105 25 21.3964V14.409C24.9218 14.3852 24.9516 14.3158 24.9433 14.2663C24.7694 13.2401 24.3527 12.3271 23.6542 11.5485C23.5433 11.4247 23.4979 11.3053 23.4983 11.1403C23.5032 8.63653 23.5018 6.13281 23.5013 3.6286C23.5013 3.39463 23.5047 3.16018 23.4617 2.92815C23.1588 1.29331 21.9625 0.208909 20.263 0.03125C20.2474 0.0346478 20.2317 0.0409581 20.2156 0.0409581C15.2183 0.0399873 10.2209 0.0390165 5.22305 0.0375603C5.0936 0.0375603 4.96414 0.033677 4.83469 0.03125C4.64222 0.0608598 4.44682 0.0768782 4.25826 0.122506C2.66575 0.50889 1.60472 1.85541 1.60033 3.51404C1.59349 6.01971 1.59691 8.52586 1.60228 11.032C1.60228 11.2077 1.5505 11.3296 1.43033 11.4572C0.785509 12.1436 0.361488 12.9494 0.139221 13.8634C0.0908604 14.0614 0.10747 14.2745 0 14.458V21.3969C0.0825558 21.4314 0.0683899 21.5168 0.0898838 21.5794C0.338531 22.3085 0.845106 22.7502 1.59153 22.9351C1.67898 22.957 1.78547 22.905 1.85532 22.9982H2.19728C2.22219 22.9225 2.29156 22.9516 2.34187 22.941C2.71362 22.8589 3.04629 22.7031 3.32767 22.4434C3.82985 21.9794 3.99594 21.3964 3.96565 20.7338C3.94953 20.3848 3.96272 20.3843 4.30271 20.3843C9.71823 20.3843 15.1338 20.3843 20.5493 20.3843C20.873 20.3843 21.0353 20.5492 21.0363 20.879C21.0363 20.9358 21.0368 20.9921 21.0387 21.0489C21.0651 21.9551 21.6718 22.6915 22.5619 22.9191C22.6742 22.9478 22.8057 22.8992 22.8999 22.9987L22.9004 22.9978ZM10.2536 16.9811C10.3582 17.3937 10.4715 17.485 10.8975 17.4855C12.3215 17.4869 13.7454 17.486 15.1694 17.486C18.0418 17.486 20.9142 17.4879 23.7866 17.4816C23.9781 17.4816 24.0337 17.5301 24.0279 17.7219C24.0132 18.1903 24.0088 18.6602 24.0293 19.1286C24.0391 19.3601 23.9805 19.4193 23.7416 19.4189C17.0042 19.4116 10.2668 19.413 3.52942 19.413C2.7483 19.413 1.96719 19.4077 1.18608 19.4174C1.01168 19.4198 0.969185 19.3698 0.973093 19.2019C0.984816 18.717 0.989214 18.2311 0.971626 17.7466C0.963812 17.5316 1.02292 17.4797 1.23835 17.4811C2.74342 17.4913 4.24898 17.4874 5.75454 17.4855C6.15804 17.485 6.30215 17.3627 6.36809 16.9831C6.28016 16.6253 6.13752 16.5152 5.74184 16.5147C4.22846 16.5132 2.71557 16.5108 1.2022 16.5181C1.01852 16.519 0.966742 16.4715 0.973093 16.2894C0.987259 15.8938 0.976025 15.4973 0.977978 15.1012C0.988235 12.6678 2.89144 10.716 5.33785 10.7048C10.1129 10.683 14.8885 10.6869 19.6636 10.7039C21.7104 10.7112 23.4251 12.1009 23.9062 14.0673C24.0797 14.7769 23.9981 15.4987 24.0293 16.2157C24.0401 16.4603 23.9737 16.52 23.7265 16.5195C19.4638 16.5113 15.2007 16.5132 10.938 16.5137C10.4954 16.5137 10.3855 16.5899 10.2541 16.9807L10.2536 16.9811ZM2.58466 10.4825C2.58075 10.418 2.57635 10.3782 2.57635 10.3384C2.57635 8.05793 2.56658 5.777 2.57977 3.49656C2.58808 2.04326 3.65594 1.00352 5.12633 1.00206C10.0739 0.997208 15.0219 0.997694 19.9694 1.00206C21.4486 1.00352 22.5145 2.04908 22.5218 3.5155C22.5331 5.79593 22.5253 8.07637 22.5233 10.3573C22.5233 10.4151 22.5546 10.4864 22.4735 10.5364C22.2068 10.3913 21.9444 10.2277 21.6528 10.1306C21.5102 10.083 21.476 10.0029 21.4779 9.86267C21.4852 9.36949 21.4916 8.87584 21.4769 8.38266C21.4359 7.01285 20.3754 5.90272 19.0051 5.8668C17.5171 5.82749 16.0272 5.84593 14.5383 5.85709C13.763 5.86292 13.126 6.19397 12.6277 6.77985C12.5325 6.89198 12.489 6.91771 12.3801 6.78762C11.854 6.16096 11.1715 5.8503 10.3513 5.84836C8.95959 5.84496 7.56785 5.82846 6.1766 5.85224C4.59581 5.87894 3.52404 6.99295 3.52062 8.56712C3.51965 9.00398 3.5216 9.44036 3.51965 9.87723C3.51965 9.96023 3.54456 10.0457 3.4239 10.0957C3.14887 10.2097 2.88215 10.3437 2.58563 10.482L2.58466 10.4825ZM4.50886 9.79422C4.50886 9.27678 4.46783 8.76468 4.51814 8.2618C4.60021 7.44437 5.23038 6.84684 6.04129 6.83276C7.52096 6.80752 9.00209 6.80946 10.4818 6.83276C11.2355 6.8449 11.832 7.38952 11.9746 8.12928C12.0625 8.58459 11.9844 9.04913 12.0166 9.50783C12.0303 9.70394 11.9546 9.72627 11.7846 9.72578C9.88139 9.71996 7.9777 9.7219 6.0745 9.72238C5.55474 9.72238 5.034 9.70734 4.50886 9.79374V9.79422ZM16.8865 9.72238C15.5045 9.72238 14.3414 9.71996 13.1783 9.7253C13.0366 9.72578 12.979 9.702 12.9848 9.54327C12.998 9.16368 12.9834 8.78361 12.9917 8.40354C13.0073 7.68028 13.4929 7.07352 14.1968 6.87596C14.3644 6.82888 14.5334 6.81917 14.7034 6.81917C16.0619 6.81723 17.4204 6.81383 18.7785 6.81917C19.8194 6.82354 20.4999 7.50845 20.5038 8.53994C20.5048 8.81467 20.5038 9.08941 20.5038 9.36464C20.5038 9.77238 20.5038 9.76947 20.1082 9.7486C18.9621 9.68792 17.8146 9.74277 16.887 9.72238H16.8865ZM22.0123 20.8338C22.0123 20.7372 22.0192 20.6397 22.0109 20.5435C21.9996 20.4164 22.0499 20.3785 22.177 20.3795C22.7451 20.3853 23.3132 20.3824 23.8808 20.3819C23.9575 20.3819 24.0284 20.378 24.025 20.4892C24.0181 20.7149 24.0411 20.944 24.0083 21.1653C23.9356 21.6517 23.513 21.9939 23.0206 21.9959C22.4012 21.9983 22.0138 21.5517 22.0128 20.8338H22.0123ZM1.97794 20.3824H2.36727C2.79716 20.3824 3.0033 20.5997 2.98572 21.0343C2.96569 21.5294 2.59833 21.9333 2.11911 21.9871C1.59105 22.0464 1.14993 21.7537 1.01168 21.2532C0.941339 20.9989 0.989212 20.7396 0.976023 20.4834C0.970161 20.3693 1.05321 20.3829 1.1255 20.3829C1.40932 20.3829 1.69363 20.3829 1.97745 20.3829L1.97794 20.3824Z" fill="#030302"/>
<path d="M20.2629 0.033493L20.3123 0C15.1366 0 9.96093 0 4.78526 0C4.80138 0.0111643 4.8175 0.0223287 4.8346 0.033493C4.96454 0.0354347 5.094 0.0393179 5.22394 0.0398033C10.2213 0.0412595 15.2187 0.0422303 20.2165 0.0432011C20.2321 0.0432011 20.2478 0.0368909 20.2639 0.033493H20.2629Z" fill="#FDB438"/>
<path d="M10.2537 16.9862C10.3851 16.595 10.495 16.5192 10.9376 16.5192C15.2003 16.5192 19.4634 16.5168 23.7261 16.5251C23.9737 16.5255 24.0397 16.4658 24.0289 16.2212C23.9977 15.5043 24.0792 14.782 23.9058 14.0728C23.4247 12.1064 21.7105 10.7167 19.6632 10.7094C14.8881 10.6924 10.1125 10.6885 5.33743 10.7104C2.89102 10.7215 0.98782 12.6734 0.977562 15.1067C0.976097 15.5028 0.987333 15.8994 0.972677 16.295C0.966328 16.477 1.01811 16.5246 1.20178 16.5236C2.71467 16.5158 4.22805 16.5183 5.74142 16.5202C6.13711 16.5202 6.27975 16.6309 6.36768 16.9886C6.84934 16.9881 7.331 16.9872 7.81266 16.9867C7.92404 16.6542 8.0872 16.511 8.33927 16.5241C8.58156 16.5367 8.73593 16.6886 8.80969 16.9877C9.29087 16.9877 9.77253 16.9867 10.2537 16.9867V16.9862Z" fill="#00D2AE"/>
<path d="M2.58473 10.4833C2.88125 10.3449 3.14797 10.2109 3.42299 10.0969C3.54365 10.0469 3.51825 9.96145 3.51874 9.87844C3.52118 9.44158 3.51874 9.0052 3.51972 8.56833C3.52313 6.99416 4.59491 5.88015 6.17569 5.85345C7.56694 5.83015 8.95868 5.84617 10.3504 5.84957C11.1706 5.85151 11.8531 6.16217 12.3792 6.78883C12.4881 6.91844 12.5316 6.89319 12.6268 6.78107C13.1251 6.1947 13.7621 5.86413 14.5374 5.85831C16.0263 5.84714 17.5162 5.8287 19.0042 5.86802C20.3745 5.90394 21.435 7.01406 21.476 8.38388C21.4907 8.87656 21.4848 9.37071 21.477 9.86388C21.475 10.0042 21.5092 10.0847 21.6519 10.1318C21.944 10.2289 22.2058 10.3925 22.4726 10.5376C22.5537 10.4876 22.5224 10.4163 22.5224 10.3585C22.5243 8.07807 22.5322 5.79715 22.5209 3.51671C22.5136 2.04981 21.4477 1.00425 19.9685 1.00328C15.021 0.998908 10.073 0.998908 5.12542 1.00328C3.65503 1.00473 2.58766 2.04447 2.57886 3.49778C2.56567 5.77822 2.57495 8.05865 2.57544 10.3396C2.57544 10.3794 2.57984 10.4197 2.58375 10.4837L2.58473 10.4833Z" fill="#FDB438"/>
<path d="M10.2537 16.9844C9.77253 16.9844 9.29087 16.9853 8.80969 16.9853C8.74326 17.3669 8.50292 17.5538 8.18295 17.4678C7.93674 17.4018 7.85272 17.2086 7.81266 16.9844C7.331 16.9849 6.84934 16.9858 6.36768 16.9863C6.30173 17.3659 6.15762 17.4882 5.75412 17.4887C4.24856 17.4907 2.74349 17.4941 1.23793 17.4843C1.0225 17.4829 0.963396 17.5353 0.971212 17.7499C0.989286 18.2343 0.984402 18.7202 0.972679 19.2051C0.968771 19.3731 1.01127 19.4231 1.18566 19.4206C1.96678 19.4109 2.74789 19.4163 3.529 19.4163C10.2664 19.4163 17.0038 19.4148 23.7412 19.4221C23.9801 19.4221 24.0392 19.3634 24.0289 19.1318C24.0089 18.6639 24.0133 18.1935 24.0275 17.7251C24.0333 17.5334 23.9776 17.4843 23.7861 17.4848C20.9138 17.4911 18.0414 17.4892 15.169 17.4892C13.745 17.4892 12.321 17.4897 10.8971 17.4887C10.4711 17.4887 10.3573 17.397 10.2532 16.9844H10.2537Z" fill="#00E3CD"/>
<path d="M4.50849 9.79968C5.03363 9.71328 5.55437 9.72832 6.07413 9.72832C7.97733 9.72832 9.88102 9.7259 11.7842 9.73172C11.9542 9.73221 12.0299 9.70988 12.0163 9.51377C11.984 9.05507 12.0622 8.59053 11.9742 8.13522C11.8316 7.39546 11.2351 6.85084 10.4814 6.8387C9.00172 6.81492 7.52058 6.81346 6.04092 6.8387C5.23 6.85229 4.59984 7.45031 4.51777 8.26774C4.46745 8.77062 4.50849 9.28224 4.50849 9.80016V9.79968Z" fill="#E8EFEF"/>
<path d="M16.8866 9.72674C17.8148 9.74713 18.9618 9.69228 20.1078 9.75296C20.504 9.77383 20.5035 9.77723 20.5035 9.369C20.5035 9.09426 20.5044 8.81952 20.5035 8.54429C20.5001 7.51329 19.8191 6.82838 18.7781 6.82353C17.4196 6.8177 16.061 6.8211 14.703 6.82353C14.533 6.82353 14.3635 6.83372 14.1964 6.88032C13.493 7.07788 13.0069 7.68464 12.9913 8.40789C12.983 8.78748 12.9981 9.16804 12.9845 9.54763C12.9791 9.70636 13.0367 9.73014 13.1779 9.72966C14.341 9.72432 15.5042 9.72674 16.8861 9.72674H16.8866Z" fill="#E8EFEF"/>
<path d="M22.0123 20.8372C22.0132 21.5546 22.4001 22.0012 23.02 21.9993C23.5129 21.9973 23.9355 21.6551 24.0078 21.1687C24.041 20.9474 24.0175 20.7183 24.0244 20.4926C24.0278 20.3814 23.957 20.3853 23.8803 20.3853C23.3122 20.3858 22.744 20.3892 22.1764 20.3829C22.0494 20.3814 21.9996 20.4193 22.0103 20.5469C22.0186 20.643 22.0118 20.7401 22.0118 20.8372H22.0123Z" fill="#FDB438"/>
<path d="M1.978 20.3834C1.69418 20.3834 1.40988 20.3834 1.12606 20.3834C1.05425 20.3834 0.970715 20.3693 0.976577 20.4838C0.989766 20.7406 0.941894 20.9998 1.01224 21.2537C1.15048 21.7537 1.5916 22.0464 2.11967 21.9876C2.59889 21.9342 2.96624 21.5299 2.98627 21.0348C3.00385 20.6002 2.79771 20.3829 2.36783 20.3829C2.23789 20.3829 2.10794 20.3829 1.97849 20.3829L1.978 20.3834Z" fill="#FDB438"/>
<path d="M7.81205 16.9869C7.85211 17.2111 7.93613 17.4048 8.18234 17.4703C8.50279 17.5562 8.74265 17.3694 8.80908 16.9878C8.73483 16.6883 8.58095 16.5369 8.33866 16.5243C8.08659 16.5112 7.92343 16.6543 7.81205 16.9869Z" fill="#030302"/>
</g>
<defs>
<clipPath id="clip0_8183_2702">
<rect width="25" height="23" fill="white" transform="matrix(-1 0 0 1 25 0)"/>
</clipPath>
</defs>
</svg>
