<svg width="26" height="30" viewBox="0 0 26 30" fill="none" xmlns="http://www.w3.org/2000/svg">
<g clip-path="url(#clip0_8183_2527)">
<path d="M21.8059 20.0391C21.4611 20.7317 21.128 21.4307 20.7659 22.1143C20.6456 22.3409 20.6784 22.4798 20.8334 22.6718C22.4658 24.6882 24.0885 26.7122 25.7105 28.7369C25.8192 28.8726 25.9035 29.0275 25.9993 29.1734V29.4928C25.8437 29.7041 25.6745 29.9006 25.4224 30.0036H21.7673C21.6322 29.9102 21.4779 29.9441 21.3319 29.9441C15.7653 29.9422 10.1987 29.9422 4.63205 29.9441C4.50728 29.9441 4.3735 29.9102 4.26288 30.0036H0.479128C0.452115 29.9748 0.428961 29.9396 0.396803 29.9179C-0.0592024 29.6093 -0.127378 29.2137 0.216716 28.7849C1.51527 27.1641 2.81704 25.5459 4.11752 23.9264C4.46419 23.4944 4.80249 23.0559 5.16202 22.6347C5.29966 22.4728 5.32217 22.3479 5.21991 22.1565C4.91505 21.5849 4.62948 21.0037 4.34327 20.4225C4.29889 20.3329 4.21142 20.2522 4.23972 20.1344C5.26043 20.6171 6.34995 20.4218 7.41118 20.4263C11.575 20.4449 15.7383 20.4282 19.9021 20.4398C20.5729 20.4417 21.2225 20.4186 21.8046 20.0391H21.8059ZM12.9675 28.6229H14.5696C16.4715 28.6229 18.3727 28.6242 20.2745 28.6204C20.3845 28.6204 20.5414 28.685 20.5967 28.5749C20.6495 28.4706 20.5131 28.3714 20.4578 28.2734C20.317 28.0238 20.1497 27.7876 20.0205 27.5322C19.9111 27.3145 19.7703 27.2435 19.5207 27.2441C15.461 27.2537 11.402 27.2499 7.34236 27.2518C6.93781 27.2518 6.45929 27.1353 6.15057 27.3101C5.84185 27.4848 5.69971 27.9559 5.49197 28.3016C5.43923 28.3893 5.3151 28.4834 5.36784 28.5756C5.43022 28.685 5.58137 28.621 5.69135 28.621C8.11609 28.6242 10.5415 28.6236 12.9662 28.6236L12.9675 28.6229ZM6.98218 25.8865H18.9785C18.8332 25.3686 18.5425 25.1855 17.9842 25.1907C14.6616 25.2233 11.3377 25.2246 8.01511 25.1894C7.46263 25.1836 7.1642 25.3564 6.98669 25.8346C6.98347 25.8436 6.98476 25.8545 6.98218 25.8865ZM12.9668 23.8656C14.4519 23.8656 15.937 23.8656 17.4221 23.8656C17.4967 23.8656 17.5719 23.8656 17.6465 23.8644C17.7038 23.8637 17.7443 23.8528 17.7404 23.776C17.7282 23.5373 17.3372 23.1705 17.087 23.1705C14.4056 23.1705 11.7236 23.1794 9.04224 23.1596C8.68014 23.157 8.45954 23.2543 8.33605 23.5801C8.30389 23.6653 8.17976 23.7363 8.24343 23.8298C8.30003 23.913 8.42095 23.8631 8.51228 23.8637C9.99735 23.8663 11.4824 23.8656 12.9675 23.8656H12.9668Z" fill="#402B01"/>
<path d="M4.26221 30.003C4.37347 29.9096 4.50725 29.9435 4.63138 29.9435C10.198 29.9416 15.7646 29.9416 21.3312 29.9435C21.4772 29.9435 21.6322 29.9096 21.7666 30.003H4.26221Z" fill="#B30101"/>
<path d="M21.8058 20.0361C21.2231 20.4157 20.5741 20.4387 19.9033 20.4368C15.7395 20.4253 11.5762 20.4419 7.41238 20.4233C6.35051 20.4189 5.26163 20.6141 4.24093 20.1314L4.2435 20.1218C4.2435 20.0687 4.20556 20.0508 4.16311 20.0386C4.11873 19.9791 4.08142 19.9138 4.02933 19.862C3.58683 19.4241 3.40674 18.8928 3.41189 18.2764C3.42218 16.9149 3.4151 15.5527 3.4151 14.1912C3.4151 11.4784 3.42925 8.76567 3.40674 6.05288C3.39967 5.20154 3.54116 4.47565 4.17661 3.81826C4.89117 3.07894 5.48353 2.22119 6.11705 1.40569C6.85411 0.453848 7.82144 -0.00190928 9.02351 1.10511e-05C11.6618 0.00449182 14.3007 0.00513192 16.939 1.10511e-05C18.1275 -0.00254939 19.0929 0.439766 19.8281 1.37625C20.4725 2.19687 21.1215 3.01364 21.7724 3.82914C21.865 3.945 21.9859 4.03782 22.0811 4.15112C22.4097 4.54223 22.5525 4.9967 22.5525 5.50559C22.5499 9.78216 22.5461 14.0594 22.5564 18.3359C22.5583 19.0285 22.2432 19.5521 21.8052 20.0361H21.8058ZM12.2889 9.56068C12.2889 8.50834 12.2869 7.45536 12.2908 6.40302C12.2914 6.23659 12.2895 6.12906 12.0618 6.1297C10.1188 6.13866 8.17582 6.13098 6.23282 6.13738C5.72471 6.13866 5.47131 6.40366 5.47002 6.91255C5.4668 8.66709 5.46616 10.421 5.47002 12.1755C5.47131 12.687 5.72857 12.9456 6.2341 12.9462C8.16617 12.9494 10.0989 12.9437 12.031 12.9526C12.2445 12.9533 12.2947 12.8918 12.2927 12.687C12.2824 11.6449 12.2882 10.6028 12.2882 9.56132L12.2889 9.56068ZM13.6762 9.52548C13.6762 10.5778 13.6813 11.6308 13.6717 12.6831C13.6697 12.8822 13.7103 12.9533 13.9296 12.9526C15.8617 12.9437 17.7944 12.9488 19.7264 12.9462C20.2345 12.9456 20.4925 12.6895 20.4937 12.1787C20.4976 10.4242 20.4976 8.67029 20.4937 6.91575C20.4925 6.39214 20.2365 6.13802 19.7026 6.13674C17.7809 6.13226 15.8591 6.13802 13.9379 6.13034C13.7251 6.1297 13.6691 6.19179 13.671 6.39982C13.6813 7.44192 13.6755 8.48402 13.6755 9.52548H13.6762ZM7.5423 13.6484C6.40068 13.6369 5.49253 14.51 5.47709 15.634C5.46166 16.7779 6.3518 17.6946 7.49471 17.7118C8.60031 17.7278 9.5329 16.8163 9.55541 15.6968C9.57728 14.5868 8.66656 13.6599 7.5423 13.6484ZM20.488 15.6628C20.4841 14.535 19.5875 13.6471 18.4517 13.6471C17.3242 13.6471 16.4154 14.5459 16.409 15.6673C16.4026 16.7856 17.3564 17.7298 18.4729 17.7112C19.6042 17.692 20.4925 16.7894 20.4886 15.6628H20.488ZM13.0163 16.3433C12.3763 16.3433 11.7364 16.3414 11.0971 16.3433C10.5871 16.3452 10.2275 16.6435 10.2404 17.0487C10.2526 17.45 10.5948 17.7259 11.0926 17.7266C12.3506 17.7285 13.6093 17.7285 14.8673 17.7266C15.3774 17.7259 15.7362 17.4263 15.7247 17.0212C15.7131 16.6211 15.3703 16.3458 14.8718 16.3433C14.2531 16.3407 13.635 16.3433 13.0163 16.3433ZM12.2799 2.3953C12.2818 1.8288 11.8432 1.38713 11.2772 1.38521C10.7131 1.38329 10.2584 1.82752 10.2539 2.38378C10.2494 2.92659 10.7189 3.40027 11.2669 3.40475C11.8194 3.40923 12.2786 2.95219 12.2805 2.39466L12.2799 2.3953ZM13.6845 2.40042C13.6884 2.95476 14.1534 3.41371 14.7033 3.40475C15.2545 3.39579 15.7189 2.92275 15.7112 2.37866C15.7034 1.8256 15.2423 1.38137 14.6808 1.38521C14.1116 1.38905 13.6807 1.82816 13.6845 2.39978V2.40042Z" fill="#B30101"/>
<path d="M4.1626 20.0391C4.20505 20.0519 4.24235 20.0691 4.24299 20.1223C4.18318 20.1261 4.17868 20.0768 4.1626 20.0391Z" fill="#402B01"/>
<path d="M13.017 16.3449C13.6357 16.3449 14.2538 16.343 14.8725 16.3449C15.3703 16.3468 15.7131 16.6221 15.7253 17.0228C15.7376 17.4286 15.3787 17.7275 14.868 17.7282C13.61 17.7301 12.3513 17.7301 11.0933 17.7282C10.5954 17.7275 10.2533 17.451 10.2411 17.0503C10.2282 16.6451 10.5877 16.3468 11.0978 16.3449C11.7377 16.3423 12.3777 16.3449 13.017 16.3449Z" fill="#402B01"/>
</g>
<defs>
<clipPath id="clip0_8183_2527">
<rect width="26" height="30" fill="white"/>
</clipPath>
</defs>
</svg>
