<svg xmlns="http://www.w3.org/2000/svg" width="34.411" height="12" viewBox="0 0 34.411 12">
    <g style="opacity:.5">
        <path d="M134.017 276.76a6 6 0 1 0-5.961-6 5.988 5.988 0 0 0 5.961 6zm0-8.139a2.138 2.138 0 1 1-2.125 2.138 2.135 2.135 0 0 1 2.125-2.138zm-22.489 8.139a6 6 0 1 0-5.961-6 5.988 5.988 0 0 0 5.961 6zm0-8.139a2.138 2.138 0 1 1-2.124 2.138 2.134 2.134 0 0 1 2.124-2.138zm11.241-.135-1.83-3.647h-4.285l4 7.978v3.756h4.226v-3.756l4-7.978h-4.28l-1.828 3.647z" transform="translate(-105.568 -264.76)" style="fill:#888"/>
    </g>
</svg>
