<?xml version="1.0" encoding="UTF-8"?>
<svg width="57px" height="29px" viewBox="0 0 57 29" version="1.1" xmlns="http://www.w3.org/2000/svg" xmlns:xlink="http://www.w3.org/1999/xlink">
    <!-- Generator: Sketch 55.2 (78181) - https://sketchapp.com -->
    <title>2</title>
    <desc>Created with Sketch.</desc>
    <g id="2" stroke="none" stroke-width="1" fill="none" fill-rule="evenodd">
        <g id="Group-9" transform="translate(28.500000, 14.500000) rotate(-90.000000) translate(-28.500000, -14.500000) translate(14.000000, -14.000000)">
            <polygon id="Fill-1" fill="#9B9B9B" points="0 56.25 28.125 56.25 28.125 0 0 0"></polygon>
            <g id="Group-8" transform="translate(6.000000, 6.250000)">
                <path d="M2.3332,36.4581 L13.7922,36.4581 C14.9422,36.4581 15.8752,37.3911 15.8752,38.5411 L15.8752,40.6251 C15.8752,41.7751 14.9422,42.7081 13.7922,42.7081 L2.3332,42.7081 C1.1822,42.7081 0.2502,41.7751 0.2502,40.6251 L0.2502,38.5411 C0.2502,37.3911 1.1822,36.4581 2.3332,36.4581" id="Fill-2" fill="#FFFFFF"></path>
                <path d="M15.2322,29.631 L0.8932,0.301" id="Stroke-4" stroke="#FCFCFC"></path>
                <path d="M0.8928,29.631 L15.2318,0.301" id="Stroke-6" stroke="#FCFCFC"></path>
            </g>
        </g>
    </g>
</svg>