<?xml version="1.0" encoding="UTF-8"?>
<svg width="30px" height="28px" viewBox="0 0 30 28" version="1.1" xmlns="http://www.w3.org/2000/svg" xmlns:xlink="http://www.w3.org/1999/xlink">
    <!-- Generator: Sketch 55.2 (78181) - https://sketchapp.com -->
    <title>4</title>
    <desc>Created with Sketch.</desc>
    <defs>
        <polygon id="path-1" points="0.0322 0 23.9663984 0 23.9663984 23.9998008 0.0322 23.9998008"></polygon>
    </defs>
    <g id="4" stroke="none" stroke-width="1" fill="none" fill-rule="evenodd">
        <g id="Group-12">
            <g id="Group-3" transform="translate(3.000000, 0.000000)">
                <mask id="mask-2" fill="white">
                    <use xlink:href="#path-1"></use>
                </mask>
                <g id="Clip-2"></g>
                <path d="M3.2932,-0.000200912541 L20.7072,-0.000200912541 C21.7622,-0.000200912541 22.6362,0.8198 22.7032,1.8738 L23.9622,21.8738 C24.0332,22.9768 23.1952,23.9268 22.0922,23.9958 C22.0512,23.9988 22.0082,23.9997991 21.9662,23.9997991 L2.0332,23.9997991 C0.9282,24.0008 0.0322,23.1048 0.0322,22.0008 C0.0322,21.9588 0.0332,21.9168 0.0362,21.8738 L1.2962,1.8738 C1.3622,0.8198 2.2372,-0.0012 3.2942,-0.000200912541 L3.2932,-0.000200912541 Z" id="Fill-1" fill="#9B9B9B" mask="url(#mask-2)"></path>
            </g>
            <path d="M2.7058,8.7058 L27.2938,8.7058 C28.3978,8.7058 29.2938,9.6018 29.2938,10.7058 L29.2938,21.2938 C29.2938,22.3978 28.3978,23.2938 27.2938,23.2938 L2.7058,23.2938 C1.6018,23.2938 0.7058,22.3978 0.7058,21.2938 L0.7058,10.7058 C0.7058,9.6018 1.6018,8.7058 2.7058,8.7058 Z" id="Stroke-4" stroke="#9B9B9B" stroke-width="1.412"></path>
            <path d="M8.7058,20.7058 L21.2938,20.7058 C22.3978,20.7058 23.2938,21.6018 23.2938,22.7058 L23.2938,25.2938 C23.2938,26.3978 22.3978,27.2938 21.2938,27.2938 L8.7058,27.2938 C7.6018,27.2938 6.7058,26.3978 6.7058,25.2938 L6.7058,22.7058 C6.7058,21.6018 7.6018,20.7058 8.7058,20.7058 Z" id="Stroke-6" stroke="#9B9B9B" stroke-width="1.412"></path>
            <path d="M18.8406,19.5525 L11.1586,3.8395" id="Stroke-8" stroke="#FCFCFC"></path>
            <path d="M11.1589,19.5525 L18.8409,3.8395" id="Stroke-10" stroke="#FCFCFC"></path>
        </g>
    </g>
</svg>