<svg width="25" height="25" viewBox="0 0 25 25" fill="none" xmlns="http://www.w3.org/2000/svg">
<path d="M12.5003 2.08333C7.89616 2.08333 4.16699 2.60417 4.16699 6.25V16.6667C4.16699 17.5833 4.57324 18.4062 5.20866 18.9792V20.8333C5.20866 21.4062 5.67741 21.875 6.25033 21.875H7.29199C7.86491 21.875 8.33366 21.4062 8.33366 20.8333V19.7917H16.667V20.8333C16.667 21.4062 17.1357 21.875 17.7087 21.875H18.7503C19.3232 21.875 19.792 21.4062 19.792 20.8333V18.9792C20.4274 18.4062 20.8337 17.5833 20.8337 16.6667V6.25C20.8337 2.60417 17.1045 2.08333 12.5003 2.08333ZM18.3962 5.19792H6.60449C7.17741 4.64583 8.65658 4.16667 12.5003 4.16667C16.3441 4.16667 17.8232 4.64583 18.3962 5.19792ZM18.7503 7.28125V10.4167H6.25033V7.28125H18.7503ZM18.3962 17.4271L18.0941 17.7083H6.90658L6.60449 17.4271C6.49434 17.3332 6.40569 17.2167 6.34458 17.0855C6.28347 16.9542 6.25132 16.8114 6.25033 16.6667V12.5H18.7503V16.6667C18.7503 17.0521 18.5316 17.3125 18.3962 17.4271Z" fill="#00386C"/>
<path d="M8.85449 16.6667C9.71744 16.6667 10.417 15.9671 10.417 15.1042C10.417 14.2412 9.71744 13.5417 8.85449 13.5417C7.99155 13.5417 7.29199 14.2412 7.29199 15.1042C7.29199 15.9671 7.99155 16.6667 8.85449 16.6667Z" fill="#00386C"/>
<path d="M16.1455 16.6667C17.0085 16.6667 17.708 15.9671 17.708 15.1042C17.708 14.2412 17.0085 13.5417 16.1455 13.5417C15.2826 13.5417 14.583 14.2412 14.583 15.1042C14.583 15.9671 15.2826 16.6667 16.1455 16.6667Z" fill="#00386C"/>
</svg>
