<svg width="42" height="24" viewBox="0 0 42 24" fill="none" xmlns="http://www.w3.org/2000/svg">
<path d="M0.375 0.75L3.1875 3.5625L0.375 6.375L3.1875 9.1875L0.375 12L3.1875 14.8125L0.375 17.625H4.125C4.125 19.1168 4.71763 20.5476 5.77253 21.6025C6.82742 22.6574 8.25816 23.25 9.75 23.25C11.2418 23.25 12.6726 22.6574 13.7275 21.6025C14.7824 20.5476 15.375 19.1168 15.375 17.625H26.625C26.625 19.1168 27.2176 20.5476 28.2725 21.6025C29.3274 22.6574 30.7582 23.25 32.25 23.25C33.7419 23.25 35.1726 22.6574 36.2275 21.6025C37.2824 20.5476 37.875 19.1168 37.875 17.625H41.625V4.5C41.625 2.41875 39.9563 0.75 37.875 0.75H0.375ZM6 3.5625H10.6875V8.25H6V3.5625ZM13.5 3.5625H21V8.25H13.5V3.5625ZM23.8125 3.5625H31.3125V8.25H23.8125V3.5625ZM34.125 3.5625H38.8125V13.875L34.125 10.125V3.5625ZM9.75 14.8125C10.4959 14.8125 11.2113 15.1088 11.7387 15.6363C12.2662 16.1637 12.5625 16.8791 12.5625 17.625C12.5625 18.3709 12.2662 19.0863 11.7387 19.6137C11.2113 20.1412 10.4959 20.4375 9.75 20.4375C9.00408 20.4375 8.28871 20.1412 7.76127 19.6137C7.23382 19.0863 6.9375 18.3709 6.9375 17.625C6.9375 16.8791 7.23382 16.1637 7.76127 15.6363C8.28871 15.1088 9.00408 14.8125 9.75 14.8125ZM32.25 14.8125C32.9959 14.8125 33.7113 15.1088 34.2388 15.6363C34.7662 16.1637 35.0625 16.8791 35.0625 17.625C35.0625 18.3709 34.7662 19.0863 34.2388 19.6137C33.7113 20.1412 32.9959 20.4375 32.25 20.4375C31.5041 20.4375 30.7887 20.1412 30.2613 19.6137C29.7338 19.0863 29.4375 18.3709 29.4375 17.625C29.4375 16.8791 29.7338 16.1637 30.2613 15.6363C30.7887 15.1088 31.5041 14.8125 32.25 14.8125Z" fill="#1D86FF"/>
</svg>
