<svg width="16" height="15" viewBox="0 0 16 15" fill="none" xmlns="http://www.w3.org/2000/svg">
<path d="M8.76331 2.76598C9.57148 3.6543 10.3662 4.52806 11.1685 5.40982C11.4583 5.14453 11.739 4.88761 12.0371 4.61467C11.2314 3.72963 10.4298 2.84895 9.61947 1.95882C9.95575 1.64185 10.2859 1.3307 10.6167 1.01992C10.8995 0.754261 11.1824 0.488967 11.4663 0.224401C11.7942 -0.0812877 12.1538 -0.0769207 12.4559 0.247327C13.2942 1.14802 14.1304 2.05053 14.9643 2.95522C15.2741 3.29111 15.2563 3.64302 14.9211 3.95817C11.3907 7.27307 7.86026 10.5876 4.3273 13.8996C4.26695 13.9564 4.17498 14.012 4.09718 14.0124C2.92801 14.0193 1.75884 14.0171 0.589668 14.0168C0.560221 14.0168 0.531137 14.0117 0.482422 14.0069C0.492601 13.8148 0.500236 13.6296 0.51296 13.4451C0.582761 12.4348 0.651835 11.4246 0.72818 10.4151C0.733633 10.3409 0.777259 10.2524 0.832155 10.2008C3.44134 7.74834 6.05415 5.2981 8.66697 2.84786C8.69278 2.82348 8.72078 2.80201 8.76295 2.76598H8.76331Z" fill="#CF8D56"/>
</svg>
