<svg xmlns="http://www.w3.org/2000/svg" width="24" height="24" viewBox="0 0 24 24">
    <path fill="#000" fill-rule="nonzero" d="M8.934 19.997l5.894-.015c.724-.208 1.033-.615 1.033-1.359v-1.69c0-1.41 0-2.818-.002-4.227 0-.158.002-.316.005-.475.008-.456.016-.928-.049-1.376-.225-1.559-1.107-2.643-2.62-3.225-.034-.013-.067-.027-.093-.039l-.129-.056.049-.13.557-.958.19.063 4.81 1.68c.095.033.222.063.294.011.07-.05.086-.176.086-.273v-.935c-.001-.883-.002-1.767.004-2.65 0-.166-.04-.267-.14-.343l-.135.009a.746.746 0 0 1-.11.052l-5.046 1.758-.105-.276a1.679 1.679 0 0 0-1.693-1.098c-.695.035-1.31.55-1.494 1.251-.047.18-.171.203-.275.203h-.003l-.296-.003a15.086 15.086 0 0 0-.958.007c-.32.015-.657.036-.967.116-1.612.41-2.697 1.815-2.7 3.494-.004 1.728-.003 3.456-.002 5.184V17.009c-.002.117-.003.233.002.35.006.125.08.195.205.198h.01c.13 0 .199-.064.21-.196.004-.034.003-.069.003-.102v-1.945-5.747c.001-1.516.92-2.746 2.342-3.132.515-.14 1.038-.126 1.543-.114.22.005.44.01.662.003a.23.23 0 0 1 .211.165c.07.292.226.562.491.85l.126.135-.22.085-.07.027c-1.603.562-2.655 2.012-2.68 3.693-.01.612-.007 1.224-.005 1.836l.001.78c0 1.608-.001 3.215.001 4.823 0 .65.367 1.108 1.004 1.256a.247.247 0 0 1 .059.023zm9.58-15.482v3.223l-4.54-1.63 4.54-1.593zM10.58 6.104c.002-.33.135-.642.376-.878.238-.233.55-.362.876-.362h.012a1.261 1.261 0 0 1 1.236 1.251c-.005.687-.562 1.268-1.215 1.27h-.002c-.333 0-.662-.138-.905-.38a1.272 1.272 0 0 1-.378-.901zM8.298 18.71v-2.02c-.002-1.797-.002-3.593.003-5.39.004-1.557 1.07-2.938 2.59-3.356a3.562 3.562 0 0 1 3.12.578c.898.678 1.414 1.73 1.416 2.888V18.677c0 .57-.33.896-.906.896H9.174c-.533 0-.876-.34-.876-.863z"/>
</svg>
