<svg width="22" height="22" viewBox="0 0 22 22" fill="none" xmlns="http://www.w3.org/2000/svg">
<path d="M15.6216 3.95264L5.03697 11.8911H1.63477L5.03697 14.5373L11.4634 10.757V17.1834L12.9754 16.4274L14.4875 8.86693L19.0238 6.5988L20.5359 5.08671L15.6216 3.95264Z" fill="#1D86FF" fill-opacity="0.4"/>
<path d="M21.1618 4.92415C21.1183 4.64818 20.992 4.39195 20.7996 4.18941C20.6072 3.98688 20.3578 3.84761 20.0844 3.79008L16.7559 3.0586C16.399 2.98076 16.0295 2.98046 15.6724 3.05775C15.3154 3.13503 14.979 3.28808 14.6862 3.50656L4.8482 10.6739L2.09241 10.5605C1.87088 10.5525 1.65248 10.6146 1.46824 10.7379C1.28399 10.8611 1.14327 11.0393 1.06605 11.2471C0.988837 11.4549 0.979057 11.6817 1.0381 11.8954C1.09714 12.1091 1.22201 12.2987 1.39496 12.4374L4.23013 14.6658C4.57035 15.0797 4.79717 15.0003 10.4278 11.9327L10.9552 17.2742C10.9639 17.4199 11.0139 17.5601 11.0992 17.6785C11.1845 17.797 11.3017 17.8888 11.4371 17.9433C11.5346 17.9818 11.6386 18.001 11.7433 18C11.9542 17.9935 12.1557 17.9109 12.3104 17.7675L13.6656 16.5313C13.8005 16.4063 13.8919 16.2414 13.9264 16.0607L15.1682 9.31299C17.1925 8.17892 19.1091 7.1129 20.4757 6.33606C20.7202 6.19854 20.9168 5.98967 21.0394 5.73736C21.162 5.48506 21.2047 5.20135 21.1618 4.92415V4.92415ZM19.9143 5.34942C18.4967 6.15461 16.5121 7.28301 14.38 8.4511L14.1476 8.58152L12.8264 15.7658L11.9928 16.5257L11.3691 10.1182L10.6149 10.5038C6.5493 12.7719 5.19409 13.4297 4.72912 13.6338L2.29087 11.7002L5.17141 11.825L15.378 4.41949C15.5385 4.29954 15.7224 4.21482 15.9178 4.17085C16.1132 4.12688 16.3158 4.12465 16.5121 4.16432L19.8292 4.87878C19.8804 4.88805 19.9272 4.9134 19.9629 4.95114C19.9986 4.98888 20.0213 5.03703 20.0277 5.08859C20.0394 5.13848 20.0346 5.1908 20.0142 5.23779C19.9938 5.28478 19.9587 5.32393 19.9143 5.34942V5.34942Z" fill="#1D86FF"/>
<path d="M4.84768 7.66101L6.86633 8.22804L7.79626 7.55327L5.52813 6.89551L6.54879 6.27177L9.65046 6.18105L10.9546 5.2341L6.54879 5.37019C6.40989 5.36268 6.27185 5.3962 6.15186 5.46658L4.66056 6.33415C4.53727 6.40718 4.43836 6.51508 4.3763 6.64425C4.31423 6.77341 4.29179 6.91806 4.3118 7.05996C4.33181 7.20185 4.39338 7.33465 4.48874 7.44161C4.58411 7.54858 4.709 7.62491 4.84768 7.66101V7.66101Z" fill="#1D86FF"/>
</svg>
