<svg width="24" height="19" viewBox="0 0 24 19" fill="none" xmlns="http://www.w3.org/2000/svg">
<path d="M0.750078 16.7937H23.2501V18.2937H0.750078V16.7937ZM21.3605 2.17633C20.2642 1.87094 19.0987 1.89259 18.0788 2.23727L18.0369 2.25133L14.9854 3.70164L6.08 0.161264C5.69125 0.005069 5.26644 -0.0388058 4.85397 0.0346374C4.44149 0.108081 4.05794 0.295889 3.74699 0.576671L2.55477 1.64533C2.42899 1.75809 2.33023 1.89772 2.2658 2.05387C2.20137 2.21001 2.17293 2.37866 2.18259 2.54731C2.19224 2.71595 2.23975 2.88025 2.32159 3.02802C2.40343 3.17579 2.51749 3.30323 2.65531 3.40089L8.17565 7.31299L6.05816 8.42219L4.38121 6.88999C4.06057 6.59761 3.66234 6.40403 3.23434 6.33252C2.80635 6.261 2.36681 6.3146 1.96855 6.48686L1.05659 6.88226C0.914057 6.94402 0.785858 7.03464 0.680071 7.1484C0.574284 7.26215 0.493203 7.39659 0.441937 7.54323C0.39067 7.68987 0.370328 7.84554 0.382192 8.00043C0.394057 8.15532 0.437871 8.30607 0.510875 8.44319L3.92436 14.857L22.5142 5.69411C23.6273 5.17019 23.763 4.33263 23.5182 3.7226C23.2469 3.04628 22.4603 2.4827 21.3605 2.17633ZM21.8714 4.33881L21.8644 4.3421L4.56542 12.8687L2.02592 8.09679L2.56499 7.86302C2.69774 7.80559 2.84426 7.78772 2.98693 7.81156C3.1296 7.8354 3.26235 7.89994 3.36922 7.99741L5.82247 10.2389L11.041 7.50527L3.9058 2.44867L4.74819 1.69361C4.85184 1.60003 4.97969 1.53743 5.11718 1.51295C5.25466 1.48847 5.39626 1.50309 5.52585 1.55514L15.0388 5.33707L18.599 3.64511C19.3235 3.41031 20.1863 3.403 20.9737 3.62575C21.6222 3.80922 21.9667 4.07575 22.0834 4.21553C22.0174 4.26421 21.9464 4.30559 21.8715 4.33896L21.8714 4.33881Z" fill="white"/>
</svg>
