<svg xmlns="http://www.w3.org/2000/svg" xmlns:xlink="http://www.w3.org/1999/xlink" width="25" height="25" viewBox="0 0 25 25">
    <defs>
        <path id="a" d="M0 0h25.024v24.08H0z"/>
    </defs>
    <g fill="none" fill-rule="evenodd">
        <mask id="b" fill="#fff">
            <use xlink:href="#a"/>
        </mask>
        <path fill="#444" d="M24.316 22.894H.587a.59.59 0 0 0-.587.593.59.59 0 0 0 .587.594h23.73a.59.59 0 0 0 .585-.594.59.59 0 0 0-.586-.593zm0-4.262H.587a.59.59 0 0 0-.587.593c0 .328.262.595.587.595h23.73a.591.591 0 0 0 .585-.595.59.59 0 0 0-.586-.593zm.08-4.41H.673a.59.59 0 0 0-.627.552.592.592 0 0 0 .627.634h23.725a.59.59 0 0 0 .626-.551.592.592 0 0 0-.626-.634zm-4.697-2.34c0 .326.26.592.583.595h3.127a.588.588 0 0 0 .625-.552.59.59 0 0 0-.625-.634h-3.127a.59.59 0 0 0-.587.588v.003h.004zm-1.516-5.17a.584.584 0 0 0 .416-.176l2.1-2.125a.602.602 0 0 0-.009-.845.585.585 0 0 0-.835.007L17.756 5.7a.598.598 0 0 0-.001.84c.11.112.257.175.413.175l.015-.003zM7.778 12.913c-.55-2.559 1.056-5.084 3.584-5.64 2.528-.554 5.023 1.07 5.571 3.629.07.322.106.65.107.98a4.916 4.916 0 0 1-.113 1.031h1.19c.556-3.225-1.575-6.293-4.761-6.855-3.186-.563-6.22 1.595-6.774 4.82a6.04 6.04 0 0 0-.088 1.004c.003.346.034.69.093 1.031h1.19zM.85 12.477h2.639a.591.591 0 0 0 .587-.595.59.59 0 0 0-.587-.594H.849a.59.59 0 0 0-.585.594c0 .327.262.595.586.595zm4.322-5.941c.249.212.62.18.827-.07A.597.597 0 0 0 6 5.7L3.902 3.575a.587.587 0 0 0-.836-.008.606.606 0 0 0-.007.846l2.113 2.123zm6.595-3.433V.634a.59.59 0 0 1 .545-.632.589.589 0 0 1 .625.632v2.469a.592.592 0 0 1-.544.634.587.587 0 0 1-.626-.634z" mask="url(#b)"/>
    </g>
</svg>
