<svg width="12" height="10" viewBox="0 0 12 10" fill="none" xmlns="http://www.w3.org/2000/svg">
<path fill-rule="evenodd" clip-rule="evenodd" d="M0.361328 4.8795C0.361328 4.74689 0.414007 4.61971 0.507775 4.52594C0.601543 4.43217 0.72872 4.3795 0.861328 4.3795L9.65433 4.3795L6.50733 1.2335C6.41344 1.13961 6.3607 1.01227 6.3607 0.879496C6.3607 0.74672 6.41344 0.619382 6.50733 0.525496C6.60121 0.431609 6.72855 0.378864 6.86133 0.378864C6.9941 0.378864 7.12144 0.431609 7.21533 0.525496L11.2153 4.5255C11.2619 4.57194 11.2988 4.62712 11.324 4.68786C11.3492 4.74861 11.3622 4.81373 11.3622 4.8795C11.3622 4.94526 11.3492 5.01038 11.324 5.07113C11.2988 5.13187 11.2619 5.18705 11.2153 5.2335L7.21533 9.2335C7.12144 9.32738 6.9941 9.38013 6.86133 9.38013C6.72855 9.38013 6.60121 9.32738 6.50733 9.2335C6.41344 9.13961 6.3607 9.01227 6.3607 8.8795C6.3607 8.74672 6.41344 8.61938 6.50733 8.5255L9.65433 5.3795L0.861328 5.3795C0.72872 5.3795 0.601543 5.32682 0.507775 5.23305C0.414007 5.13928 0.361328 5.0121 0.361328 4.8795Z" fill="#888888"/>
</svg>
