<svg width="24" height="24" viewBox="0 0 24 24" fill="none" xmlns="http://www.w3.org/2000/svg">
<g clip-path="url(#clip0_679_85)">
<rect width="24" height="24" fill="white"/>
<g clip-path="url(#clip1_679_85)">
</g>
</g>
<path d="M2 6.68563C2.30088 6.14139 2.77404 5.99876 3.37204 6.00001C9.12113 6.01252 14.869 6.00501 20.6181 6.01002C21.673 6.01002 21.9689 6.31404 21.9776 7.34872C21.9814 7.76535 21.9452 8.18573 21.9851 8.59985C22.08 9.57448 21.7204 10.2664 20.9314 10.8707C19.8103 11.7302 19.3896 12.9876 19.3222 14.3751C19.2947 14.9443 19.3134 15.5311 19.1799 16.0778C18.9089 17.1776 17.9988 17.9545 16.874 17.9671C13.623 18.0058 10.3708 18.0158 7.12112 17.9671C5.71413 17.9458 4.73784 16.786 4.6517 15.3322C4.60176 14.4814 4.60675 13.5806 4.31961 12.8024C4.04495 12.0567 3.43696 11.4274 2.94882 10.7668C2.66043 10.3765 2.31835 10.0261 2 9.65706C2 8.66616 2 7.67527 2 6.68563ZM7.02499 17.2764H16.9464V10.3715H9.64423C9.64423 10.758 9.67544 11.0959 9.63674 11.4262C9.57557 11.9554 9.25846 12.2794 8.71913 12.3157C8.17481 12.352 7.83024 12.0555 7.7004 11.5438C7.63798 11.2973 7.71289 11.0095 7.62924 10.7756C7.55683 10.5729 7.34834 10.4177 7.19978 10.2426C7.1411 10.2864 7.08242 10.3289 7.02499 10.3727V17.2777V17.2764ZM17.6355 17.0137C18.4171 16.577 18.643 15.9577 18.6493 15.2684C18.6717 13.1077 18.683 10.9457 18.648 8.78502C18.6255 7.44006 17.8116 6.68312 16.462 6.67812C13.4732 6.66811 10.4857 6.66686 7.49691 6.67812C6.15732 6.68312 5.34583 7.45382 5.32586 8.80003C5.2934 10.9607 5.30214 13.1227 5.32586 15.2834C5.33335 15.969 5.55807 16.5883 6.3396 17.0074C6.3396 16.6546 6.3396 16.4044 6.3396 16.1529C6.3396 13.9659 6.3346 11.7777 6.34334 9.59075C6.34709 8.67742 6.65171 8.34838 7.54934 8.34462C10.5119 8.33086 13.4745 8.33086 16.4358 8.34462C17.3272 8.34838 17.6268 8.68118 17.6305 9.60326C17.6393 11.7127 17.633 13.8221 17.633 15.9315C17.633 16.258 17.633 16.5846 17.633 17.0137H17.6355ZM4.61799 11.4925C4.85145 9.90103 4.18228 8.18448 5.46319 6.70439C5.16855 6.68938 4.99627 6.67562 4.82398 6.67437C2.60175 6.64684 2.57928 6.64809 2.67416 8.90012C2.69039 9.29673 2.89888 9.74338 3.15481 10.0574C3.57304 10.5729 4.10238 10.997 4.61924 11.4925H4.61799ZM18.4583 6.67562C19.8266 8.21075 19.0837 9.94857 19.3759 11.4762C19.8915 10.9833 20.4133 10.5241 20.884 10.0174C21.0825 9.80344 21.271 9.49941 21.2972 9.22041C21.3584 8.54981 21.3571 7.86669 21.2972 7.19484C21.281 7.00842 20.9839 6.7144 20.7966 6.69939C20.0825 6.64059 19.3609 6.67562 18.457 6.67562H18.4583ZM11.9901 9.66206C13.4445 9.66206 14.9002 9.67457 16.3546 9.64705C16.5569 9.64329 16.7554 9.44311 16.9564 9.33426C16.7554 9.22667 16.5544 9.02774 16.3534 9.02649C13.4445 9.00647 10.5344 9.00647 7.62425 9.02649C7.42325 9.02774 7.2235 9.22792 7.0225 9.33677C7.2235 9.44562 7.42325 9.64455 7.6255 9.6483C9.07993 9.67582 10.5344 9.66331 11.9901 9.66331V9.66206ZM9.18231 10.9645C8.97007 10.6992 8.82275 10.5153 8.67544 10.3314C8.56058 10.5166 8.34585 10.7068 8.35708 10.8844C8.37331 11.1421 8.55184 11.3899 8.66046 11.6413C8.81152 11.4462 8.96133 11.2497 9.18231 10.9632V10.9645Z" fill="black"/>
<defs>
<clipPath id="clip0_679_85">
<rect width="24" height="24" fill="white"/>
</clipPath>
<clipPath id="clip1_679_85">
<rect width="879.5" height="132.36" fill="white" transform="translate(-428 -54)"/>
</clipPath>
</defs>
</svg>
