<svg xmlns="http://www.w3.org/2000/svg" width="24" height="24" viewBox="0 0 24 24">
    <g fill="#000" fill-rule="nonzero">
        <path d="M18.567 10.213c-.046-.172.055-.465.192-.83.18-.484.365-.983.127-1.395-.238-.412-.77-.507-1.283-.592-.382-.063-.685-.122-.802-.241-.117-.12-.178-.42-.241-.8-.086-.514-.172-1.044-.593-1.284-.42-.24-.91-.052-1.393.128-.367.137-.66.237-.83.191-.157-.042-.354-.268-.593-.56-.336-.407-.685-.827-1.174-.827-.49 0-.84.42-1.173.826-.24.293-.437.52-.594.561-.157.042-.464-.054-.829-.191-.483-.18-.982-.366-1.395-.128-.412.239-.506.77-.592 1.284-.063.381-.121.684-.241.801-.12.118-.42.178-.8.242-.513.085-1.045.17-1.283.592-.24.42-.054.908.125 1.392.137.366.237.66.192.83-.042.156-.268.352-.56.592-.407.335-.827.684-.827 1.175 0 .49.42.838.826 1.173.292.24.519.436.561.593.042.158-.055.463-.192.83-.18.483-.365.982-.127 1.394.238.413.77.507 1.283.592.382.064.685.122.802.242.117.12.178.42.241.8.086.513.171 1.043.592 1.283.421.24.912.052 1.395-.127.305-.114.559-.203.734-.203.032 0 .064.003.095.01.157.043.353.269.592.56.336.408.685.828 1.175.828s.838-.42 1.173-.826c.24-.292.436-.52.593-.561.171-.046.464.055.83.192.483.18.982.365 1.394.127.413-.238.507-.77.593-1.283.063-.382.121-.685.24-.802.12-.117.421-.178.8-.241.514-.086 1.045-.172 1.284-.593.24-.42.052-.91-.127-1.393-.137-.367-.237-.66-.192-.83.042-.157.269-.354.56-.593.408-.336.827-.685.827-1.174 0-.49-.42-.84-.826-1.173l.096-.116-.096.116c-.287-.239-.514-.435-.56-.591zm.752 1.766c0 .145-.144.31-.592.679-.332.272-.674.554-.77.921-.102.381.056.806.21 1.218.193.519.236.724.177.843l-.005.008c-.068.12-.272.189-.836.283-.427.07-.873.144-1.148.42-.275.275-.349.719-.42 1.147-.094.566-.163.77-.282.837a.469.469 0 0 1-.302.006 4.037 4.037 0 0 1-.549-.176c-.415-.155-.84-.313-1.22-.212-.368.099-.65.441-.922.77-.37.45-.535.594-.685.594-.15 0-.31-.144-.68-.592-.272-.333-.554-.675-.922-.77a1.015 1.015 0 0 0-.256-.032c-.308 0-.638.123-.958.243-.519.193-.723.236-.843.177l-.009-.005c-.12-.069-.188-.273-.282-.836-.071-.428-.146-.874-.42-1.149-.275-.274-.719-.349-1.148-.42-.565-.094-.77-.162-.836-.282a.463.463 0 0 1-.006-.302 4.21 4.21 0 0 1 .178-.547c.154-.411.313-.837.21-1.217-.098-.367-.44-.65-.77-.922-.448-.37-.593-.535-.593-.684 0-.15.144-.311.592-.68.333-.273.675-.554.77-.922.102-.38-.056-.806-.21-1.217-.191-.518-.23-.724-.176-.843l.005-.009c.069-.12.272-.188.837-.282.428-.071.873-.146 1.148-.42.274-.275.351-.72.42-1.148.094-.565.162-.77.282-.837.058-.034.16-.036.302-.006.186.047.368.106.545.178.414.154.84.313 1.22.21.367-.098.65-.44.922-.77.37-.45.534-.593.684-.593.15 0 .31.145.68.593.272.332.554.674.922.77.38.102.806-.056 1.217-.21.519-.194.723-.237.843-.178l.009.005c.12.069.188.273.282.836.071.428.146.874.42 1.149.275.274.719.349 1.148.42.564.094.77.162.836.282.035.06.036.16.006.302a4.18 4.18 0 0 1-.178.546c-.156.416-.314.841-.213 1.222.099.367.441.65.77.921.452.37.596.535.596.68z"/>
        <path d="M15.572 9.947a1.1 1.1 0 0 0-1.968-.505l-2.053 2.739-.982-.981a1.101 1.101 0 0 0-1.557 1.557l1.876 1.874a1.1 1.1 0 0 0 1.659-.118l2.813-3.75c.177-.232.253-.526.212-.816zm-.72.433l-2.813 3.752a.46.46 0 0 1-.338.183h-.035a.464.464 0 0 1-.325-.135l-1.878-1.875a.462.462 0 1 1 .654-.653l1.239 1.239a.32.32 0 0 0 .48-.035l2.274-3.031a.462.462 0 0 1 .74.555h.002z"/>
    </g>
</svg>
