<?xml version="1.0" encoding="UTF-8"?>
<svg width="32px" height="32px" viewBox="0 0 32 32" version="1.1" xmlns="http://www.w3.org/2000/svg" xmlns:xlink="http://www.w3.org/1999/xlink">
    <!-- Generator: Sketch 63.1 (92452) - https://sketch.com -->
    <title>thermal scanner</title>
    <desc>Created with Sketch.</desc>
    <defs>
        <polygon id="path-1" points="0 0.000540247395 12.686861 0.000540247395 12.686861 16 0 16"></polygon>
    </defs>
    <g id="thermal-scanner" stroke="none" stroke-width="1" fill="none" fill-rule="evenodd">
        <g id="Group-10" transform="translate(10.000000, 8.000000)">
            <path d="M8.3629,6.8848 C8.4069,6.8848 8.4519,6.8728 8.4909,6.8468 L9.2919,6.3268 C9.3839,6.2658 9.4299,6.1478 9.3899,6.0438 C9.3349,5.8998 9.1659,5.8498 9.0429,5.9288 L8.2449,6.4478 C8.1249,6.5258 8.0919,6.6968 8.1869,6.8048 C8.2319,6.8568 8.2979,6.8848 8.3629,6.8848" id="Fill-1" fill="#000000"></path>
            <path d="M8.8844,7.689 C8.9284,7.689 8.9724,7.677 9.0124,7.651 L9.8104,7.132 C9.9174,7.062 9.9584,6.917 9.8914,6.807 C9.8214,6.694 9.6734,6.661 9.5634,6.733 L8.7664,7.252 C8.6454,7.331 8.6134,7.501 8.7074,7.609 C8.7534,7.661 8.8184,7.689 8.8844,7.689" id="Fill-3" fill="#000000"></path>
            <path d="M7.7926,5.0762 C7.7926,5.0912 7.7946,5.1282 7.7716,5.1212 C7.7716,5.1222 3.9906,3.9952 3.9906,3.9952 C3.9076,3.9702 3.8766,3.9652 3.8766,3.9382 L3.8766,3.9382 L3.8766,2.0842 C3.8766,2.0592 3.8886,2.0502 3.9036,2.0512 C3.9216,2.0522 7.7266,2.3682 7.7266,2.3682 C7.7656,2.3702 7.7926,2.3902 7.7926,2.4172 L7.7926,5.0762 Z M8.2616,2.4172 C8.2616,2.1452 8.0476,1.9232 7.7646,1.9012 L3.9416,1.5832 C3.7866,1.5712 3.6366,1.6352 3.5286,1.7632 C3.4476,1.8602 3.4076,1.9862 3.4076,2.1132 L3.4076,3.9382 C3.4076,4.0762 3.4656,4.3272 3.8566,4.4442 L7.6786,5.5832 C7.7156,5.5952 7.7536,5.6002 7.7916,5.6002 C7.8806,5.6002 7.9686,5.5712 8.0446,5.5132 C8.1766,5.4152 8.2616,5.2432 8.2616,5.0762 L8.2616,2.4172 Z" id="Fill-5" fill="#000000"></path>
            <g id="Group-9">
                <mask id="mask-2" fill="white">
                    <use xlink:href="#path-1"></use>
                </mask>
                <g id="Clip-8"></g>
                <path d="M12.2057,5.251 C12.1767,5.315 12.0737,5.38 11.9317,5.465 L11.4387,5.758 C11.4387,5.758 11.4377,5.758 11.4377,5.757 L10.6657,2.772 C10.6447,2.693 10.5857,2.63 10.5077,2.607 L9.9927,2.449 C9.9927,2.449 9.9917,2.448 9.9927,2.448 C9.9927,2.449 9.6017,1.016 9.6017,1.016 C9.6007,1.015 9.6017,1.014 9.6017,1.014 L10.4237,1.062 L10.7057,1.079 C10.9277,1.092 10.9667,1.133 10.9787,1.147 C11.0227,1.193 11.0587,1.311 11.1037,1.461 C11.1117,1.487 11.1197,1.514 11.1287,1.543 C11.1287,1.543 12.1347,4.83 12.1367,4.834 C12.2137,5.043 12.2357,5.183 12.2057,5.251 M5.9767,7.076 C6.5047,7.387 6.8517,7.784 7.0177,8.264 L7.0177,8.265 C6.7347,8.808 6.2137,8.965 5.9197,9.01 C5.6107,9.057 5.3757,9.01 5.2637,8.964 C5.2627,8.964 5.2627,8.963 5.2637,8.962 C5.6917,8.641 5.9347,7.993 5.9757,7.077 C5.9757,7.076 5.9767,7.076 5.9767,7.076 M7.1177,13.172 L7.1177,12.01 C7.1177,12.009 7.1187,12.009 7.1197,12.009 C8.2437,12.543 8.8807,13.774 8.9327,15.53 L8.9317,15.531 L6.6507,15.531 C6.3507,15.531 6.3507,15.383 6.3507,15.312 L6.3507,14.269 L6.3507,14.268 C6.6827,14.133 6.8607,14.035 6.9757,13.888 C7.1197,13.699 7.1187,13.489 7.1177,13.172 M12.5787,4.678 C12.5787,4.678 11.5597,1.351 11.5527,1.326 C11.4217,0.892 11.3187,0.645 10.7327,0.611 L0.2477,0.001 C0.1517,-0.005 0.0597,0.048 0.0177,0.144 C0.0047,0.173 -0.0003,0.206 -0.0003,0.239 L-0.0003,4.951 C-0.0003,5.054 0.0667,5.145 0.1647,5.175 L5.3347,6.773 L5.3357,6.773 C5.3947,6.796 5.4537,6.82 5.5117,6.844 C5.5117,6.844 5.5127,6.845 5.5127,6.845 C5.5057,7.715 5.3107,8.35 4.9727,8.594 C4.7077,8.785 4.7327,8.995 4.7567,9.076 C4.8217,9.31 5.1007,9.462 5.5197,9.492 C5.5677,9.496 5.6167,9.498 5.6667,9.498 C6.1667,9.498 6.7277,9.314 7.1287,8.902 C7.1297,8.901 7.1307,8.902 7.1307,8.903 C7.1407,9.23 7.0847,9.585 6.9657,9.969 C6.9487,10.022 6.9267,10.082 6.8997,10.151 C6.7937,10.429 6.6487,10.809 6.6487,11.38 L6.6487,13.078 L6.6487,13.174 C6.6497,13.421 6.6487,13.543 6.6037,13.601 C6.5427,13.68 6.3477,13.767 6.0307,13.89 C5.9407,13.925 5.8817,14.012 5.8817,14.109 L5.8817,15.313 C5.8817,15.73 6.1837,16 6.6507,16 L10.6847,16 C11.1637,16 11.5237,15.647 11.5237,15.181 L11.5237,14.267 C11.6457,13.23 11.7247,12.175 11.7547,11.134 C11.7587,11.004 11.6557,10.897 11.5267,10.893 C11.3977,10.888 11.2897,10.99 11.2857,11.12 C11.2557,12.152 11.1787,13.197 11.0577,14.225 C11.0557,14.234 11.0557,14.243 11.0557,14.253 L11.0557,15.181 C11.0557,15.391 10.9067,15.531 10.6847,15.531 L9.4017,15.531 C9.4017,15.531 9.4007,15.531 9.4007,15.53 C9.3737,14.548 9.1757,13.706 8.8097,13.026 C8.4157,12.297 7.8487,11.784 7.1187,11.497 C7.1187,11.497 7.1177,11.497 7.1177,11.496 L7.1177,11.38 C7.1177,10.895 7.2397,10.575 7.3377,10.318 C7.3657,10.245 7.3927,10.175 7.4127,10.108 C7.9617,8.345 7.2797,7.004 5.4937,6.332 C5.4887,6.331 5.4847,6.329 5.4797,6.327 L1.8067,5.192 C1.8067,5.192 1.8057,5.191 1.8057,5.191 L1.8057,3.258 C1.8057,3.129 1.7067,3.016 1.5777,3.013 C1.4447,3.009 1.3367,3.116 1.3367,3.247 L1.3367,5.045 C1.3367,5.046 1.3367,5.047 1.3357,5.046 L0.4697,4.779 C0.4697,4.779 0.4687,4.778 0.4687,4.778 L0.4687,0.484 C0.4687,0.483 0.4697,0.483 0.4707,0.483 L1.3357,0.533 C1.3367,0.533 1.3367,0.534 1.3367,0.534 L1.3367,2.154 C1.3367,2.283 1.4357,2.396 1.5647,2.399 C1.6977,2.402 1.8057,2.296 1.8057,2.165 L1.8057,0.562 C1.8057,0.561 1.8067,0.561 1.8077,0.561 L9.1057,0.985 C9.1057,0.985 9.1067,0.985 9.1067,0.986 C9.1157,1.018 9.5437,2.584 9.5477,2.604 C9.5907,2.784 9.6737,2.839 9.8457,2.894 L10.2447,3.016 L10.2447,3.017 L11.0597,6.164 C11.2177,7.42 11.2987,8.732 11.3007,10.063 C11.3007,10.192 11.4057,10.297 11.5347,10.297 L11.5357,10.297 C11.6647,10.297 11.7687,10.191 11.7687,10.063 C11.7677,8.761 11.6907,7.478 11.5407,6.244 C11.5407,6.243 11.5417,6.243 11.5417,6.243 L12.1717,5.868 C12.5887,5.619 12.8437,5.401 12.5787,4.678" id="Fill-7" fill="#000000" mask="url(#mask-2)"></path>
            </g>
        </g>
    </g>
</svg>