<?xml version="1.0" encoding="UTF-8"?>
<svg width="32px" height="32px" viewBox="0 0 32 32" version="1.1" xmlns="http://www.w3.org/2000/svg" xmlns:xlink="http://www.w3.org/1999/xlink">
    <!-- Generator: Sketch 63.1 (92452) - https://sketch.com -->
    <title>staff with mask</title>
    <desc>Created with Sketch.</desc>
    <defs>
        <polygon id="path-1" points="0 0.986036573 16 0.986036573 16 17 0 17"></polygon>
        <polygon id="path-3" points="0 17.0141 16 17.0141 16 1.0001 0 1.0001"></polygon>
    </defs>
    <g id="staff-with-mask" stroke="none" stroke-width="1" fill="none" fill-rule="evenodd">
        <g id="Group-7" transform="translate(8.000000, 7.000000)">
            <g id="Group-3" transform="translate(0.000000, 0.014100)">
                <mask id="mask-2" fill="white">
                    <use xlink:href="#path-1"></use>
                </mask>
                <g id="Clip-2"></g>
                <path d="M14.1336,10.8416 L14.1336,7.6896 C14.9036,7.8196 15.4656,8.4856 15.4666,9.2656 C15.4646,10.0446 14.9026,10.7096 14.1336,10.8416 L14.1336,10.8416 Z M10.3046,6.2066 C9.9206,6.1266 9.5626,5.9536 9.2616,5.7026 L8.1706,4.7936 C8.0716,4.7116 7.9286,4.7116 7.8286,4.7936 L6.7376,5.7026 C6.4376,5.9536 6.0796,6.1266 5.6956,6.2066 L1.59959963,7.0706 L1.59959963,6.0546 C1.5986,3.5516 3.6256,1.5226 6.1286,1.5206 C6.4286,1.5206 6.7276,1.5496 7.0216,1.6096 L7.9466,1.7926 C7.9816,1.8006 8.0186,1.8006 8.0536,1.7926 L8.9786,1.6096 C11.4326,1.1176 13.8206,2.7076 14.3126,5.1616 C14.3706,5.4556 14.4006,5.7546 14.4006,6.0546 L14.4006,7.0706 L10.3046,6.2066 Z M13.6006,10.8646 C13.5996,12.0416 13.2266,13.1886 12.5326,14.1406 L12.5326,9.8736 L13.6006,8.0946 L13.6006,10.8646 Z M12.1276,9.5136 L8.0316,9.0016 C8.0106,8.9986 7.9886,8.9986 7.9676,9.0016 L3.8716,9.5136 L2.6076,7.4036 L5.8056,6.7296 C6.2736,6.6306 6.7106,6.4186 7.0796,6.1126 L7.9996,5.3446 L8.9196,6.1126 C9.2886,6.4186 9.7266,6.6306 10.1956,6.7296 L13.3926,7.4036 L12.1276,9.5136 Z M11.9996,14.7776 C9.8486,16.9876 6.3136,17.0336 4.1046,14.8816 C4.0696,14.8476 4.0336,14.8136 3.9996,14.7776 L3.9996,10.0326 L7.9996,9.5346 L11.9996,10.0326 L11.9996,14.7776 Z M3.4666,14.1406 C2.7746,13.1886 2.4006,12.0416 2.3996,10.8646 L2.3996,8.0946 L3.4666,9.8736 L3.4666,14.1406 Z M1.8656,10.8416 C1.0976,10.7106 0.5346,10.0446 0.5326,9.2656 C0.5336,8.4856 1.0976,7.8196 1.8656,7.6896 L1.8656,10.8416 Z M15.3756,7.7556 C15.2416,7.6246 15.0916,7.5106 14.9286,7.4176 C14.9306,7.4116 14.9326,7.4046 14.9336,7.3986 L14.9336,6.0546 C14.9366,3.2586 12.6706,0.9896 9.8746,0.9876 C9.5376,0.9866 9.2016,1.0196 8.8716,1.0866 L7.9996,1.2596 L7.1276,1.0866 C4.3866,0.5346 1.7176,2.3106 1.1656,5.0516 C1.0996,5.3816 1.0666,5.7176 1.0666,6.0546 L1.0666,7.3986 C1.0676,7.4046 1.0696,7.4116 1.0716,7.4176 C0.9076,7.5106 0.7576,7.6246 0.6236,7.7556 C-0.2094,8.5896 -0.2074,9.9406 0.6256,10.7736 C0.9666,11.1126 1.4116,11.3276 1.8906,11.3826 C2.1746,14.7566 5.1396,17.2626 8.5146,16.9786 C11.4936,16.7276 13.8586,14.3626 14.1096,11.3826 C15.2796,11.2486 16.1196,10.1906 15.9866,9.0206 C15.9316,8.5416 15.7166,8.0966 15.3756,7.7556 L15.3756,7.7556 Z" id="Fill-1" fill="#000000" mask="url(#mask-2)"></path>
            </g>
            <mask id="mask-4" fill="white">
                <use xlink:href="#path-3"></use>
            </mask>
            <g id="Clip-5"></g>
            <polygon id="Fill-4" fill="#000000" mask="url(#mask-4)" points="5.066 12.3461 10.933 12.3461 10.933 11.8131 5.066 11.8131"></polygon>
            <polygon id="Fill-6" fill="#000000" mask="url(#mask-4)" points="5.066 13.5461 10.933 13.5461 10.933 13.0131 5.066 13.0131"></polygon>
        </g>
    </g>
</svg>