<svg xmlns="http://www.w3.org/2000/svg" width="24" height="24" viewBox="0 0 24 24">
    <g fill="#000" fill-rule="evenodd" stroke="#000" stroke-width=".15">
        <path fill-rule="nonzero" d="M14.347 15.566c0 .64.503 1.158 1.123 1.158.621 0 1.124-.522 1.124-1.158 0-.636-.503-1.158-1.124-1.158-.62 0-1.123.518-1.123 1.158zm1.123-.835c.442 0 .8.374.8.835 0 .46-.358.834-.8.834-.441 0-.8-.373-.8-.834 0-.461.359-.835.8-.835zM8.556 14.408c-.62 0-1.124.522-1.124 1.158 0 .636.503 1.158 1.124 1.158.621 0 1.124-.522 1.124-1.158 0-.636-.503-1.158-1.124-1.158zm0 1.996c-.442 0-.8-.374-.8-.834 0-.461.358-.835.8-.835.442 0 .8.374.8.835 0 .46-.358.834-.8.834z"/>
        <path d="M11.112 15.406h1.806v1h-1.806z"/>
        <path fill-rule="nonzero" d="M19.23 5.973h-.765l-.023-.16A2.09 2.09 0 0 0 16.38 4.02h-8.74c-1.031 0-1.92.77-2.06 1.794l-.02.16h-.765a.78.78 0 0 0-.77.793v3.1c0 .439.347.793.77.793h.766v5.326a2.09 2.09 0 0 0 1.657 2.038l.149.03v.762c0 .648.495 1.177 1.104 1.177h.202c.61 0 1.105-.53 1.105-1.177v-.75h4.469v.754c0 .648.495 1.177 1.104 1.177h.202c.61 0 1.105-.53 1.105-1.177v-.762l.149-.03a2.087 2.087 0 0 0 1.657-2.038v-5.33h.765c.427 0 .77-.358.77-.792V6.766a.777.777 0 0 0-.77-.793zM5.562 10.335h-.766a.456.456 0 0 1-.446-.468V6.766c0-.26.202-.469.446-.469h.766v4.038zm3.893 8.484c0 .469-.35.853-.78.853h-.203c-.43 0-.78-.38-.78-.853v-.75h1.763v.75zm6.88 0c0 .469-.35.853-.78.853h-.203c-.43 0-.78-.38-.78-.853v-.75h1.763v.75zm1.806-5.89h-3.276c-.004.111-.023.218-.05.324h3.322v2.736a1.76 1.76 0 0 1-1.756 1.756h-8.74a1.76 1.76 0 0 1-1.755-1.756v-2.736h3.333a1.853 1.853 0 0 1-.053-.323H5.89V6.099a1.76 1.76 0 0 1 1.756-1.756h8.739a1.76 1.76 0 0 1 1.756 1.756v6.83zm1.535-3.062a.459.459 0 0 1-.446.468h-.765V6.297h.765c.248 0 .446.21.446.469v3.1z"/>
        <path fill-rule="nonzero" d="M12.743 5.981c-.118-.03-.24-.046-.358-.065l-.153-.023h-.392l-.065.008-.171.023c-1.025.186-1.756.758-2.172 1.691-.282.636-.308 1.265-.076 1.863.18.472.43.952.793 1.516a21.147 21.147 0 0 0 1.828 2.42l.069.08a24.515 24.515 0 0 0 1.482-1.883c.339-.48.77-1.123 1.09-1.836.243-.548.32-1.032.235-1.524-.202-1.1-1.047-2.011-2.11-2.27zm1.65 3.726c-.267.598-.625 1.196-1.132 1.882-.236.32-.484.636-.735.948-.107.133-.214.267-.316.404l-.05.057-.126.141-.213-.255a17.385 17.385 0 0 1-.35-.43c-.488-.61-1.044-1.35-1.498-2.176-.156-.286-.282-.579-.377-.8-.236-.56-.213-1.162.061-1.79a2.583 2.583 0 0 1 2.507-1.555 2.609 2.609 0 0 1 2.453 2.214c.065.434-.007.868-.225 1.36z"/>
        <path fill-rule="nonzero" d="M12.042 7.375c-.366 0-.705.141-.96.396a1.358 1.358 0 0 0 .949 2.32h.003c.366 0 .709-.14.964-.396a1.352 1.352 0 0 0 .004-1.916 1.366 1.366 0 0 0-.96-.404zm-.004 2.476s-.004 0 0 0a1.121 1.121 0 0 1-1.116-1.12 1.116 1.116 0 0 1 1.12-1.116h.008c.297 0 .575.118.784.332.21.213.324.495.324.792a1.12 1.12 0 0 1-1.12 1.112z"/>
    </g>
</svg>
