<svg width="17" height="21" viewBox="0 0 17 21" fill="none" xmlns="http://www.w3.org/2000/svg">
<path fill-rule="evenodd" clip-rule="evenodd" d="M3.1875 0H13.8125C14.6579 0 15.4686 0.335825 16.0664 0.933597C16.6642 1.53137 17 2.34212 17 3.1875V14.5208C17 15.3662 16.6642 16.177 16.0664 16.7747C15.4686 17.3725 14.6579 17.7083 13.8125 17.7083H13.4583L14.3083 18.8417C14.4774 19.0671 14.55 19.3505 14.5102 19.6294C14.4703 19.9084 14.3213 20.1601 14.0958 20.3292C13.8704 20.4982 13.587 20.5708 13.3081 20.531C13.0291 20.4911 12.7774 20.3421 12.6083 20.1167L10.8021 17.7083H6.19792L4.39167 20.1167C4.30795 20.2283 4.20306 20.3223 4.083 20.3934C3.96294 20.4645 3.83005 20.5113 3.69193 20.531C3.5538 20.5507 3.41314 20.5431 3.27797 20.5084C3.14281 20.4738 3.01579 20.4129 2.90417 20.3292C2.79254 20.2455 2.6985 20.1406 2.62741 20.0205C2.55632 19.9004 2.50958 19.7676 2.48985 19.6294C2.47011 19.4913 2.47778 19.3506 2.51241 19.2155C2.54704 19.0803 2.60795 18.9533 2.69167 18.8417L3.54167 17.7083H3.1875C2.34212 17.7083 1.53137 17.3725 0.933597 16.7747C0.335825 16.177 0 15.3662 0 14.5208V3.1875C0 2.34212 0.335825 1.53137 0.933597 0.933597C1.53137 0.335825 2.34212 0 3.1875 0ZM13.8125 2.125H3.1875C2.90571 2.125 2.63546 2.23694 2.4362 2.4362C2.23694 2.63546 2.125 2.90571 2.125 3.1875V8.5H14.875V3.1875C14.875 2.90571 14.7631 2.63546 14.5638 2.4362C14.3645 2.23694 14.0943 2.125 13.8125 2.125ZM3.1875 15.5833H13.8125C14.0943 15.5833 14.3645 15.4714 14.5638 15.2721C14.7631 15.0729 14.875 14.8026 14.875 14.5208V10.625H2.125V14.5208C2.125 14.8026 2.23694 15.0729 2.4362 15.2721C2.63546 15.4714 2.90571 15.5833 3.1875 15.5833Z" fill="#CF8D56"/>
<circle cx="5.6224" cy="13.0599" r="1.63802" fill="#CF8D56"/>
<circle cx="11.4661" cy="13.0599" r="1.63802" fill="#CF8D56"/>
</svg>
