<svg xmlns="http://www.w3.org/2000/svg" width="24" height="24" viewBox="0 0 24 24">
    <g fill="#000" fill-rule="nonzero">
        <path d="M10.357 15.134s.044-.13.202-.198c.27-.26.423-.613.423-.992 0-.438-.204-.841-.56-1.106l-.1-.075.1-.075c.356-.266.56-.67.56-1.108v-.733c0-.528-.162-1.037-.469-1.472L9.031 7.28l.084-.053a.789.789 0 0 0 .374-.671v-.758a.798.798 0 0 0-.8-.793H6.3c-.441 0-.8.356-.8.793v.758c0 .273.14.524.374.671l.084.053-1.483 2.097a2.535 2.535 0 0 0-.468 1.471v.733c0 .438.204.842.56 1.106l.1.075-.1.076a1.37 1.37 0 0 0-.56 1.107c0 .382.154.737.428.997.014-.021.17.154.17.154v.06l-.001.047c0 .004-.166.185-.178.148-.268.259-.419.61-.419.987v1.684c0 1.089.895 1.975 1.994 1.975h2.985c1.1 0 1.995-.886 1.995-1.975v-1.684c0-.396-.167-.763-.46-1.026-.014.006-.165-.177-.165-.177zm-4.45-8.58v-.757c0-.215.177-.39.394-.39h2.388c.217 0 .393.175.393.39v.758c0 .215-.176.39-.393.39H6.3a.392.392 0 0 1-.393-.39zM4.416 11.58v-.733c0-.445.137-.874.395-1.24l1.597-2.26h2.176l1.597 2.26c.258.366.395.795.395 1.24v.733a.988.988 0 0 1-.99.98h-4.18a.987.987 0 0 1-.99-.98zm0 2.364c0-.54.444-.98.99-.98h4.18c.545 0 .99.44.99.98a.988.988 0 0 1-.99.98h-4.18a.988.988 0 0 1-.99-.98zm6.16 4.077c0 .866-.712 1.572-1.588 1.572H6.002a1.582 1.582 0 0 1-1.587-1.572v-1.684c0-.541.444-.98.99-.98h4.18c.545 0 .99.439.99.98v1.684zM19.563 15.34c-.014.019-.169-.19-.169-.19v-.005-.018s.139-.173.15-.168c.287-.262.448-.625.448-1.015 0-.438-.204-.842-.56-1.106l-.1-.075.1-.075c.356-.266.56-.67.56-1.108v-.733c0-.528-.162-1.037-.468-1.472L18.04 7.28l.084-.053a.789.789 0 0 0 .375-.671v-.758a.798.798 0 0 0-.8-.793H15.31c-.441 0-.8.356-.8.793v.758c0 .273.14.524.374.671l.084.053-1.482 2.097a2.537 2.537 0 0 0-.469 1.471v.733c0 .438.204.842.56 1.106l.1.075-.1.076a1.37 1.37 0 0 0-.56 1.107c0 .386.158.744.437 1.005.014-.013.161.183.161.206v.047c0 .012-.17.199-.182.15a1.364 1.364 0 0 0-.416.985v1.684c0 1.089.895 1.975 1.995 1.975h2.985c1.1 0 1.994-.886 1.994-1.975v-1.684c0-.382-.155-.737-.429-.997zm-4.645-8.785v-.758c0-.215.176-.39.393-.39H17.7c.217 0 .394.175.394.39v.758c0 .215-.177.39-.394.39h-2.388a.392.392 0 0 1-.393-.39zm-1.493 5.025v-.733c0-.445.137-.874.395-1.24l1.597-2.26h2.176l1.597 2.26c.259.365.395.795.395 1.24v.733c0 .54-.444.98-.99.98h-4.18a.987.987 0 0 1-.99-.98zm0 2.364c0-.54.445-.98.99-.98h4.18c.546 0 .99.44.99.98a.97.97 0 0 1-.29.694.988.988 0 0 1-.7.287h-4.18a.988.988 0 0 1-.99-.98zm4.573 5.649h-2.985a1.582 1.582 0 0 1-1.588-1.572v-1.684c0-.541.445-.98.99-.98h4.18c.546 0 .99.439.99.98v1.684c0 .866-.712 1.572-1.587 1.572z"/>
    </g>
</svg>
