<svg width="84" height="36" viewBox="0 0 84 36" fill="none" xmlns="http://www.w3.org/2000/svg">
<mask id="mask0_3418_2157" style="mask-type:alpha" maskUnits="userSpaceOnUse" x="0" y="0" width="84" height="36">
<rect width="84" height="36" fill="#C4C4C4"/>
</mask>
<g mask="url(#mask0_3418_2157)">
</g>
<g clip-path="url(#clip0_3418_2157)">
<path fill-rule="evenodd" clip-rule="evenodd" d="M49.2605 22.512C46.2383 24.7883 41.8581 26 38.0866 26C32.7999 26 28.0404 24.0053 24.4381 20.6837C24.1557 20.4235 24.4075 20.0672 24.7491 20.2677C28.6348 22.5781 33.4423 23.9691 38.4057 23.9691C41.7541 23.9691 45.4359 23.2587 48.823 21.7909C49.3339 21.5691 49.7611 22.1344 49.2625 22.512H49.2594H49.2605Z" fill="#FF9900"/>
<path fill-rule="evenodd" clip-rule="evenodd" d="M50.5176 21.0475C50.1302 20.543 47.9635 20.8075 46.9898 20.9259C46.6941 20.9622 46.6472 20.6987 46.9143 20.5099C48.6426 19.2694 51.4781 19.6278 51.8064 20.0406C52.1388 20.4608 51.7187 23.3611 50.0996 24.7456C49.8498 24.959 49.6143 24.8448 49.7234 24.5632C50.0884 23.6331 50.9051 21.551 50.5187 21.0454V21.0475H50.5176Z" fill="#FF9900"/>
<path fill-rule="evenodd" clip-rule="evenodd" d="M47.058 11.7493V10.5419C47.058 10.3584 47.1946 10.2357 47.3577 10.2357H52.6485C52.8177 10.2357 52.9533 10.3605 52.9533 10.5397V11.5723C52.9533 11.7451 52.8085 11.9712 52.5557 12.3307L49.815 16.3253C50.8315 16.3008 51.9082 16.4555 52.833 16.9867C53.041 17.1061 53.0981 17.2832 53.1134 17.456V18.7424C53.1134 18.9195 52.9238 19.1243 52.7249 19.0187C51.0966 18.1483 48.9351 18.0533 47.1344 19.0293C46.9509 19.1307 46.7582 18.9269 46.7582 18.7499V17.5285C46.7582 17.3323 46.7623 16.9995 46.956 16.7008L50.13 12.0501H47.3669C47.1966 12.0501 47.061 11.9275 47.061 11.7461L47.058 11.7483V11.7493ZM27.7598 19.2747H26.1489C26.0772 19.2719 26.0088 19.2424 25.9561 19.1916C25.9034 19.1407 25.8698 19.0718 25.8613 18.9973V10.5632C25.8613 10.3925 26.002 10.2592 26.1733 10.2592H27.6721C27.8292 10.2667 27.9556 10.3872 27.9648 10.5429V11.6427H27.9954C28.3879 10.576 29.1231 10.0811 30.1151 10.0811C31.1062 10.0811 31.7526 10.5781 32.2033 11.6427C32.5938 10.5781 33.4798 10.0811 34.426 10.0811C35.102 10.0811 35.8402 10.3648 36.2889 11.0037C36.8007 11.7141 36.6947 12.7424 36.6947 13.6491V18.9707C36.6947 19.1392 36.554 19.2747 36.3816 19.2747H34.7737C34.6136 19.264 34.4852 19.1328 34.4852 18.9728V14.5013C34.4852 14.1472 34.5147 13.2587 34.4393 12.9227C34.319 12.3541 33.9601 12.1952 33.4941 12.1952C33.1036 12.1952 32.6988 12.4619 32.5316 12.8875C32.3654 13.3141 32.3817 14.0224 32.3817 14.5013V18.9707C32.3817 19.1392 32.2431 19.2747 32.0718 19.2747H30.4638C30.3027 19.264 30.1753 19.1328 30.1753 18.9728V14.5013C30.1753 13.5605 30.3231 12.1771 29.1822 12.1771C28.0402 12.1771 28.0708 13.5264 28.0708 14.5024V18.9717C28.0708 19.1392 27.9311 19.2747 27.7598 19.2747V19.2747ZM57.5059 10.0821C59.8938 10.0821 61.1867 12.1771 61.1867 14.8395C61.1867 17.5008 59.7592 19.4539 57.5059 19.4539C55.2525 19.4539 53.8863 17.3589 53.8863 14.7509C53.8863 12.144 55.1761 10.0821 57.5059 10.0821V10.0821ZM57.5202 11.8048C56.3343 11.8048 56.2589 13.4539 56.2589 14.4843C56.2589 15.5157 56.2446 17.7152 57.5059 17.7152C58.7671 17.7152 58.813 15.9403 58.813 14.8565C58.813 14.1472 58.7834 13.2949 58.5724 12.6208C58.3909 12.0352 58.032 11.8048 57.5202 11.8048V11.8048ZM64.2842 19.2747H62.6814C62.5213 19.264 62.3929 19.1328 62.3929 18.9728V10.5355C62.4041 10.3797 62.5376 10.2581 62.6998 10.2581H64.1935C64.2592 10.2604 64.3224 10.2848 64.3739 10.3276C64.4253 10.3705 64.4621 10.4295 64.479 10.496V11.7867H64.5106C64.9623 10.6304 65.5914 10.0811 66.7027 10.0811C67.4246 10.0811 68.1302 10.3477 68.5819 11.0741C69.002 11.7493 69.002 12.8843 69.002 13.7003V19.0069C68.9899 19.0829 68.952 19.1518 68.8952 19.2008C68.8384 19.2498 68.7666 19.2757 68.693 19.2736H67.079C67.0091 19.2709 66.9424 19.2428 66.8903 19.1941C66.8381 19.1454 66.8039 19.0792 66.7935 19.0069V14.4309C66.7935 13.5083 66.8985 12.1589 65.7871 12.1589C65.3966 12.1589 65.0347 12.4256 64.8562 12.8331C64.6319 13.3472 64.6003 13.8624 64.6003 14.4309V18.9707C64.5963 19.0542 64.5612 19.1328 64.5025 19.1897C64.4438 19.2465 64.3662 19.277 64.2863 19.2747H64.2842V19.2747ZM42.8409 15.248C42.8409 15.888 42.8551 16.4213 42.5401 16.9899C42.2841 17.4517 41.8773 17.7365 41.4256 17.7365C40.8088 17.7365 40.4468 17.2565 40.4468 16.5461C40.4468 15.1467 41.6775 14.8928 42.8409 14.8928V15.2491V15.2469V15.248ZM44.4641 19.2523C44.4117 19.2979 44.3475 19.326 44.2797 19.3331C44.2119 19.3401 44.1437 19.3257 44.0838 19.2917C43.5495 18.8384 43.4547 18.6283 43.162 18.1973C42.2791 19.1168 41.653 19.392 40.508 19.392C39.1529 19.392 38.0976 18.5387 38.0976 16.832C38.0976 15.4965 38.8063 14.5909 39.8136 14.1451C40.6864 13.7536 41.9059 13.6832 42.8409 13.5765V13.3643C42.8409 12.9728 42.8714 12.5109 42.6451 12.1739C42.4503 11.8709 42.0741 11.7472 41.7417 11.7472C41.1289 11.7472 40.5824 12.0672 40.4468 12.7328C40.4203 12.88 40.3143 13.0272 40.1685 13.0347L38.6085 12.864C38.478 12.8331 38.3322 12.7253 38.3678 12.5205C38.7257 10.5867 40.4366 10.0032 41.9671 10.0032C42.7501 10.0032 43.7738 10.2165 44.3907 10.8224C45.1737 11.5691 45.0993 12.5653 45.0993 13.6491V16.2091C45.0993 16.9781 45.4133 17.3163 45.707 17.7312C45.8089 17.8805 45.8334 18.0597 45.7019 18.1685C45.3725 18.4491 44.7893 18.9675 44.4682 19.2597L44.4641 19.2565V19.2523V19.2523ZM21.7431 15.2469C21.7431 15.888 21.7574 16.4203 21.4413 16.9899C21.1864 17.4517 20.7786 17.7365 20.3279 17.7365C19.7111 17.7365 19.3491 17.2565 19.3491 16.5461C19.3491 15.1467 20.5798 14.8928 21.7431 14.8928V15.2491V15.2469V15.2469ZM23.3653 19.2523C23.313 19.2975 23.249 19.3255 23.1814 19.3325C23.1139 19.3395 23.0458 19.3253 22.986 19.2917C22.4507 18.8384 22.3559 18.6283 22.0643 18.1973C21.1803 19.1168 20.5543 19.392 19.4113 19.392C18.0572 19.392 17.002 18.5387 17.002 16.832C17.002 15.4965 17.7096 14.5909 18.718 14.1451C19.5907 13.7536 20.8102 13.6832 21.7441 13.5765V13.3643C21.7441 12.9728 21.7737 12.5109 21.5494 12.1739C21.3536 11.8709 20.9784 11.7472 20.646 11.7472C20.0322 11.7472 19.4867 12.0672 19.3511 12.7328C19.3236 12.88 19.2186 13.0272 19.0718 13.0347L17.5128 12.864C17.3812 12.8331 17.2354 12.7253 17.2721 12.5205C17.628 10.5835 19.3369 10 20.8683 10C21.6514 10 22.6761 10.2133 23.2929 10.8181C24.076 11.5648 24.0005 12.5611 24.0005 13.6459V16.2059C24.0005 16.9739 24.3146 17.312 24.6092 17.728C24.7112 17.8773 24.7347 18.0555 24.6031 18.1643C24.2748 18.4459 23.6906 18.9643 23.3694 19.2565L23.3653 19.2523V19.2523Z" fill="black"/>
</g>
<defs>
<clipPath id="clip0_3418_2157">
<rect width="52" height="16" fill="white" transform="translate(17 10)"/>
</clipPath>
</defs>
</svg>
