<svg width="90" height="43" viewBox="0 0 90 43" fill="none" xmlns="http://www.w3.org/2000/svg">
<rect x="0.5" y="0.5" width="89" height="41.3529" rx="7.5" fill="white" stroke="#DFE2F6"/>
<mask id="mask0_6119_2305" style="mask-type:alpha" maskUnits="userSpaceOnUse" x="8" y="5" width="74" height="32">
<rect x="8" y="5" width="74" height="32" fill="#C4C4C4"/>
</mask>
<g mask="url(#mask0_6119_2305)">
</g>
<g clip-path="url(#clip0_6119_2305)">
<path fill-rule="evenodd" clip-rule="evenodd" d="M31.2466 24.4876C30.8598 24.6638 30.1019 24.8648 29.1953 24.8648C26.9376 24.8648 25.4666 23.3888 25.4666 21.1137C25.4666 18.8395 26.9553 17.2092 29.4938 17.2092C30.1038 17.2092 30.6933 17.3188 31.2624 17.5417L30.9369 18.9445C30.6394 18.7929 30.2089 18.6577 29.5552 18.6577C28.1557 18.6577 27.3263 19.6971 27.3402 21.0406C27.3402 22.5467 28.3036 23.4071 29.5552 23.4071C30.0508 23.4136 30.5422 23.3161 30.9965 23.1212L31.2494 24.4912L31.2466 24.4876ZM32.288 24.7141H34.1152V13.9961H32.2871V24.7141H32.288ZM37.1187 21.5667C37.1642 22.8947 38.188 23.4664 39.3466 23.4664C40.0347 23.4756 40.7042 23.366 41.3524 23.1349L41.6192 24.4008C40.9962 24.6702 40.1305 24.8666 39.0919 24.8666C36.7449 24.8666 35.3631 23.4053 35.3631 21.1594C35.3631 19.1254 36.5812 17.2119 38.9012 17.2119C41.2203 17.2119 42.0219 19.171 42.0219 20.784C42.0246 21.0479 42.0033 21.3082 41.9633 21.5667H37.1187ZM40.2988 20.2698C40.3146 19.5921 40.0161 18.4751 38.798 18.4751C37.6692 18.4751 37.1931 19.5145 37.1187 20.2698H40.2988ZM48.8294 22.9513C48.8294 23.6153 48.8592 24.2629 48.9475 24.7113H47.2988L47.1649 23.8966H47.1194C46.6888 24.4693 45.931 24.8766 44.9798 24.8766C43.5245 24.8766 42.7025 23.8053 42.7025 22.691C42.7025 20.8534 44.3214 19.9035 46.9966 19.9172V19.8003C46.9966 19.3172 46.8032 18.5189 45.5256 18.5189C45.1815 18.5189 44.8468 18.5664 44.5148 18.6577C44.1847 18.7491 43.8732 18.8843 43.5766 19.0605L43.2195 17.8549C43.7542 17.5234 44.6906 17.2065 45.8352 17.2065C48.1534 17.2065 48.822 18.7043 48.822 20.3109V22.9468L48.8294 22.9513ZM47.0487 21.1274C45.7562 21.1119 44.5223 21.3831 44.5223 22.5011C44.5223 23.2244 44.9816 23.556 45.5619 23.556C45.759 23.5597 45.9549 23.5245 46.138 23.4525C46.321 23.3805 46.4875 23.2731 46.6275 23.1367C46.7987 22.9718 46.9275 22.7693 47.0031 22.5458C47.0422 22.4143 47.0552 22.2791 47.0496 22.1394V21.1274H47.0487ZM50.4204 19.7455C50.4204 18.75 50.4064 18.0266 50.3609 17.3791H51.937L52.0114 18.7655H52.0551C52.4131 17.7408 53.2593 17.2138 54.0469 17.2138C54.1929 17.2138 54.3361 17.2275 54.4774 17.2594V18.9902C54.2964 18.9579 54.1127 18.9426 53.9288 18.9445C53.0659 18.9445 52.4577 19.5008 52.2941 20.3447C52.2639 20.5295 52.2496 20.7165 52.2513 20.9036V24.7159H50.4232V19.7428L50.4204 19.7455ZM57.85 15.493V17.3718H59.5889V18.7591H57.85V21.9832C57.85 22.8874 58.0881 23.3404 58.7845 23.3404C59.0263 23.3523 59.2653 23.3267 59.4977 23.2655L59.5266 24.6657C59.2653 24.7707 58.7687 24.8629 58.2043 24.8629C57.5218 24.8629 56.9704 24.6364 56.6291 24.2601C56.2255 23.84 56.0507 23.1596 56.0507 22.196V18.7637H55.026V17.3745H56.0526V16.0036L57.8509 15.4949L57.8491 15.493H57.85ZM60.6126 19.74C60.6126 18.7445 60.5996 18.0221 60.5541 17.3745H62.1292L62.2018 18.761H62.2483C62.6025 17.7362 63.4515 17.2092 64.24 17.2092C64.3851 17.2092 64.5283 17.2229 64.6724 17.2549V18.9875C64.4905 18.9551 64.3059 18.9398 64.121 18.9418C63.2581 18.9418 62.6509 19.4989 62.4863 20.3428C62.4564 20.5274 62.4412 20.714 62.4408 20.9009V24.7141H60.6126V19.7382V19.741V19.74ZM66.4522 16.3187C66.2514 16.3286 66.0527 16.2751 65.885 16.1662C65.772 16.0954 65.6764 16.0008 65.6051 15.8894C65.4941 15.7219 65.4364 15.5257 65.4396 15.3259C65.4396 14.7532 65.8561 14.3167 66.4661 14.3167C67.0761 14.3167 67.4769 14.7551 67.4908 15.3259C67.4908 15.8703 67.0873 16.3214 66.4661 16.3214H66.4503L66.4522 16.3187ZM65.5465 24.7141H67.3746V17.3718H65.5465V24.7141ZM69.0391 19.8159C69.0391 18.8477 69.0093 18.0677 68.9777 17.3745H70.5826L70.6691 18.5052H70.6989C71.2335 17.6759 72.0807 17.2092 73.1798 17.2092C74.8414 17.2092 76.226 18.6559 76.226 20.9466C76.226 23.5989 74.5773 24.8812 72.9268 24.8812C72.0211 24.8812 71.2624 24.4894 70.8904 23.9012H70.8597V27.6979H69.0344V19.814L69.0391 19.8159ZM70.8672 21.6407C70.8672 21.8115 70.8802 21.9832 70.9127 22.1522C71.1062 22.9057 71.7459 23.4491 72.5335 23.4491C73.694 23.4491 74.3728 22.4691 74.3728 21.0224C74.3728 19.7273 73.7498 18.6714 72.5744 18.6714C71.8166 18.6714 71.1192 19.2304 70.9258 20.0424C70.8916 20.1962 70.871 20.3527 70.8644 20.51V21.6407H70.869H70.8672Z" fill="#2B4591"/>
<path fill-rule="evenodd" clip-rule="evenodd" d="M23.7799 23.4491C23.7812 23.6047 23.7502 23.7588 23.6888 23.9022C23.6282 24.0449 23.5419 24.1758 23.434 24.2885C23.3253 24.4 23.1942 24.488 23.049 24.547C22.9071 24.6087 22.7533 24.6398 22.5981 24.6383H14.1819C14.1044 24.6391 14.0271 24.6317 13.9513 24.6164C13.8761 24.6 13.8024 24.5777 13.7309 24.5497C13.6594 24.5195 13.5909 24.4828 13.5263 24.4401C13.461 24.3969 13.4005 24.347 13.3459 24.2912C13.2338 24.1809 13.1462 24.0491 13.0883 23.904C13.0592 23.8321 13.0365 23.7578 13.0205 23.682C13.0069 23.6051 13.0001 23.5272 13 23.4491V15.189C13.0011 15.033 13.031 14.8786 13.0883 14.7332C13.1801 14.5181 13.3315 14.3326 13.5254 14.198C13.6553 14.1127 13.8004 14.0523 13.9531 14.0199C14.0312 14.0034 14.1065 13.9961 14.1837 13.9961H22.599C22.7539 13.9947 22.9074 14.0258 23.049 14.0875C23.267 14.1782 23.4518 14.3317 23.5791 14.5277C23.6228 14.5916 23.659 14.6601 23.6888 14.7332C23.7502 14.8765 23.7812 15.0307 23.7799 15.1862V23.4491Z" fill="#E07139"/>
<path fill-rule="evenodd" clip-rule="evenodd" d="M15.7838 18.1007L17.1228 20.4443L21.4466 16.7344L22.4434 18.4423L16.9405 21.9258L14.7665 19.7164L15.7838 18.1007Z" fill="white"/>
</g>
<defs>
<clipPath id="clip0_6119_2305">
<rect width="63.2308" height="13.7" fill="white" transform="translate(13 14)"/>
</clipPath>
</defs>
</svg>
