<svg xmlns="http://www.w3.org/2000/svg" width="32" height="32" viewBox="0 0 32 32">
    <defs>
        <style>
            .cls-2{fill:#fff}
        </style>
    </defs>
    <g id="icn-swap" transform="translate(-.301)">
        <rect id="Rectangle_2295" data-name="Rectangle 2295" width="32" height="32" rx="8" transform="translate(.301)" style="fill:#1d86ff"/>
        <path id="Icon_awesome-arrow-right" data-name="Icon awesome-arrow-right" class="cls-2" d="m4.3 3.308.5-.5a.54.54 0 0 1 .766 0L9.963 7.2a.54.54 0 0 1 0 .766l-4.392 4.388a.54.54 0 0 1-.766 0l-.5-.5a.543.543 0 0 1 .009-.775l2.721-2.595H.542A.541.541 0 0 1 0 7.942v-.723a.541.541 0 0 1 .542-.542h6.493L4.313 4.083a.539.539 0 0 1-.013-.775z" transform="translate(14.449 4.476)"/>
        <path id="Icon_awesome-arrow-right-2" data-name="Icon awesome-arrow-right" class="cls-2" d="m5.819 3.308-.5-.5a.54.54 0 0 0-.766 0L.159 7.2a.54.54 0 0 0 0 .766l4.392 4.392a.54.54 0 0 0 .766 0l.5-.5a.543.543 0 0 0-.009-.775L3.087 8.484H9.58a.541.541 0 0 0 .542-.542v-.723a.541.541 0 0 0-.542-.542H3.087L5.81 4.083a.539.539 0 0 0 .009-.775z" transform="translate(9.116 12.476)"/>
    </g>
</svg>
