<svg xmlns="http://www.w3.org/2000/svg" width="138.334" height="23.023" viewBox="0 0 138.334 23.023">
  <defs>
    <style>
      .cls-1, .cls-6 {
        fill: none;
      }

      .cls-2 {
        fill: #014a8f;
      }

      .cls-3, .cls-5 {
        isolation: isolate;
      }

      .cls-4 {
        fill: #fff;
      }

      .cls-5 {
        fill: #f11a22;
      }

      .cls-6 {
        stroke: #014a8f;
        stroke-linecap: round;
        stroke-linejoin: round;
        stroke-width: 0.4px;
      }

      .cls-7 {
        fill: #e31e24;
      }

      .cls-8 {
        fill: #10498b;
      }
    </style>
  </defs>
  <g id="logo-SB" transform="translate(0 0.2)">
    <rect id="Rectangle_1775" data-name="Rectangle 1775" class="cls-1" width="138.334" height="22.6" transform="translate(0 0.223)"/>
    <g id="Group_2916" data-name="Group 2916" transform="translate(28.723)">
      <path id="Path_5282" data-name="Path 5282" class="cls-2" d="M714-205.294l-14.1.393.475-13.59h12.647Z" transform="translate(-634.454 223.215)"/>
      <g id="Group_2912" data-name="Group 2912" class="cls-3" transform="translate(0 4.265)">
        <path id="Path_5283" data-name="Path 5283" class="cls-2" d="M632.626-209.405l4.095-.257a3.118,3.118,0,0,0,.541,1.52,2.275,2.275,0,0,0,1.9.846,2.1,2.1,0,0,0,1.42-.433,1.294,1.294,0,0,0,.5-1,1.28,1.28,0,0,0-.475-.969,5.514,5.514,0,0,0-2.2-.807,9.38,9.38,0,0,1-4.037-1.691,3.4,3.4,0,0,1-1.216-2.689,3.655,3.655,0,0,1,.622-2.028,4.132,4.132,0,0,1,1.872-1.5,8.745,8.745,0,0,1,3.425-.547,7,7,0,0,1,4.07.993,4.285,4.285,0,0,1,1.667,3.159l-4.057.237a2.181,2.181,0,0,0-.679-1.368,2.182,2.182,0,0,0-1.43-.428,1.725,1.725,0,0,0-1.13.319.975.975,0,0,0-.38.774.778.778,0,0,0,.314.6,3.54,3.54,0,0,0,1.444.513,18.029,18.029,0,0,1,4.042,1.231,4.244,4.244,0,0,1,1.777,1.544,3.92,3.92,0,0,1,.556,2.061,4.415,4.415,0,0,1-.741,2.47,4.644,4.644,0,0,1-2.071,1.715,8.372,8.372,0,0,1-3.353.584q-3.553,0-4.922-1.368A5.4,5.4,0,0,1,632.626-209.405Z" transform="translate(-632.626 218.963)"/>
        <path id="Path_5284" data-name="Path 5284" class="cls-2" d="M647.606-214.779h3.61v1.473a5.037,5.037,0,0,1,1.575-1.311,4.316,4.316,0,0,1,1.916-.389,3.673,3.673,0,0,1,1.913.427,3.179,3.179,0,0,1,1.151,1.273,5.827,5.827,0,0,1,1.661-1.344,4.3,4.3,0,0,1,1.85-.356,3.314,3.314,0,0,1,2.532.964,4.273,4.273,0,0,1,.911,3.016v6.337h-3.877v-5.747a1.612,1.612,0,0,0-.265-1.017,1.163,1.163,0,0,0-.965-.522,1.367,1.367,0,0,0-1.1.494,2.445,2.445,0,0,0-.416,1.586v5.207h-3.876v-5.558a3.487,3.487,0,0,0-.077-.9,1.235,1.235,0,0,0-.429-.613,1.148,1.148,0,0,0-.715-.233,1.377,1.377,0,0,0-1.1.5,2.541,2.541,0,0,0-.429,1.653v5.149h-3.876Z" transform="translate(-633.033 218.855)"/>
        <path id="Path_5285" data-name="Path 5285" class="cls-2" d="M671.088-211.512l-3.7-.389a4.155,4.155,0,0,1,.6-1.524,3.344,3.344,0,0,1,1.135-.965,4.727,4.727,0,0,1,1.463-.455,11.763,11.763,0,0,1,2.014-.161,15.948,15.948,0,0,1,2.793.195,3.593,3.593,0,0,1,1.758.812,2.843,2.843,0,0,1,.779,1.211,4.386,4.386,0,0,1,.285,1.5v4.456a5.354,5.354,0,0,0,.09,1.116,4.976,4.976,0,0,0,.394,1.031h-3.63a3.85,3.85,0,0,1-.285-.593,4.427,4.427,0,0,1-.132-.642,5.012,5.012,0,0,1-1.511,1.046,6.3,6.3,0,0,1-2.384.417,3.992,3.992,0,0,1-2.741-.836,2.657,2.657,0,0,1-.936-2.061,2.7,2.7,0,0,1,.675-1.891,4.566,4.566,0,0,1,2.489-1.1q2.177-.438,2.822-.613a13.165,13.165,0,0,0,1.368-.461,1.358,1.358,0,0,0-.295-1,1.474,1.474,0,0,0-1.035-.285,2.682,2.682,0,0,0-1.425.3A1.665,1.665,0,0,0,671.088-211.512Zm3.353,2.033q-.8.285-1.662.5a3.847,3.847,0,0,0-1.491.617.967.967,0,0,0-.323.713.961.961,0,0,0,.318.745,1.344,1.344,0,0,0,.936.29,2.4,2.4,0,0,0,1.2-.313,1.891,1.891,0,0,0,.789-.765,2.567,2.567,0,0,0,.232-1.173Z" transform="translate(-633.563 218.855)"/>
        <path id="Path_5286" data-name="Path 5286" class="cls-2" d="M680.956-214.779h3.619v1.653a3.945,3.945,0,0,1,1.079-1.477,2.271,2.271,0,0,1,1.373-.4,4.09,4.09,0,0,1,1.872.531v2.936a12.189,12.189,0,0,0-2.28-.466,1.335,1.335,0,0,0-1.178.627,6.37,6.37,0,0,0-.6,3.306v3.382h-3.885Z" transform="translate(-633.94 218.855)"/>
        <path id="Path_5287" data-name="Path 5287" class="cls-2" d="M695.437-218.718v3.838h2.128v2.831h-2.128v3.574a1.925,1.925,0,0,0,.123.854.705.705,0,0,0,.664.322,4.221,4.221,0,0,0,1.2-.247l.285,2.669a12.59,12.59,0,0,1-2.679.313,4.672,4.672,0,0,1-2.128-.37,2.255,2.255,0,0,1-1.012-1.125,6.594,6.594,0,0,1-.328-2.443v-3.549h-1.425v-2.831h1.425v-3.838Z" transform="translate(-634.189 218.956)"/>
      </g>
      <g id="Group_2913" data-name="Group 2913" transform="translate(69.22 7.615)">
        <path id="Path_5288" data-name="Path 5288" class="cls-4" d="M703.78-215.519h4.633a2.53,2.53,0,0,1,1.778.574,1.858,1.858,0,0,1,.62,1.42,1.8,1.8,0,0,1-.442,1.219,1.971,1.971,0,0,1-.864.535,2.255,2.255,0,0,1,1.271.712,1.969,1.969,0,0,1,.407,1.271,2.184,2.184,0,0,1-.289,1.12,2.137,2.137,0,0,1-.793.787,2.6,2.6,0,0,1-.939.263,10.832,10.832,0,0,1-1.109.109H703.78Zm2.5,3.142h1.076a1.233,1.233,0,0,0,.805-.2.725.725,0,0,0,.227-.577.682.682,0,0,0-.227-.546,1.214,1.214,0,0,0-.789-.2h-1.092Zm0,3.146h1.262a1.387,1.387,0,0,0,.9-.227.763.763,0,0,0,.263-.609.707.707,0,0,0-.26-.571,1.456,1.456,0,0,0-.91-.216h-1.256Z" transform="translate(-703.78 215.519)"/>
      </g>
      <path id="Path_5289" data-name="Path 5289" class="cls-5" d="M725.089-204.564l-13.647-1.829,2.313-13.2,11.733,2.141Z" transform="translate(-634.768 223.245)"/>
      <g id="Group_2914" data-name="Group 2914" transform="translate(80.894 7.615)">
        <path id="Path_5290" data-name="Path 5290" class="cls-4" d="M720.987-215.519h2.469v4.773a4.008,4.008,0,0,1-.222,1.34,2.88,2.88,0,0,1-.694,1.1,2.77,2.77,0,0,1-.991.663,4.975,4.975,0,0,1-1.732.268,11.114,11.114,0,0,1-1.275-.081,3.358,3.358,0,0,1-1.155-.325,2.908,2.908,0,0,1-.85-.691,2.513,2.513,0,0,1-.526-.923,4.762,4.762,0,0,1-.231-1.353v-4.773h2.469v4.885a1.393,1.393,0,0,0,.363,1.023,1.351,1.351,0,0,0,1.009.369,1.354,1.354,0,0,0,1-.363,1.39,1.39,0,0,0,.364-1.029Z" transform="translate(-715.78 215.519)"/>
      </g>
      <rect id="Rectangle_1776" data-name="Rectangle 1776" class="cls-2" width="13.821" height="13.821" rx="1" transform="translate(90.501 4.723)"/>
      <g id="Group_2915" data-name="Group 2915" transform="translate(93.058 7.615)">
        <path id="Path_5291" data-name="Path 5291" class="cls-4" d="M728.284-215.519h2.749l1.614,2.7,1.617-2.7H737l-3.114,4.656v3.353H731.4v-3.353Z" transform="translate(-728.284 215.519)"/>
      </g>
      <path id="Path_5292" data-name="Path 5292" class="cls-6" d="M703.861-218.624c-.065-2.614,1.118-4.67,2.537-4.722,1.485-.055,2.9,1.885,2.832,4.722" transform="translate(-634.562 223.347)"/>
      <path id="Path_5293" data-name="Path 5293" class="cls-6" d="M730.488-218.525v-1.2h4.418v1.2" transform="translate(-635.286 223.249)"/>
      <path id="Path_5294" data-name="Path 5294" class="cls-6" d="M736.837-219.985a2.855,2.855,0,0,0-1.808,1.452" transform="translate(-635.409 223.256)"/>
      <path id="Path_5295" data-name="Path 5295" class="cls-2" d="M740.712-222.332l.677,2.091-3.639.919-.862-.726.262-1.141Z" transform="translate(-635.46 223.32)"/>
    </g>
    <g id="Group_2917" data-name="Group 2917" transform="translate(1.946 2.168)">
      <rect id="Rectangle_3861" data-name="Rectangle 3861" class="cls-4" width="21" height="21" transform="translate(-0.946 -1.168)"/>
      <path id="Path_5296" data-name="Path 5296" class="cls-7" d="M615.677-202.123H624.1v-8.418h-3.274v5.145h-5.144Z" transform="translate(-605.387 220.831)"/>
      <path id="Path_5297" data-name="Path 5297" class="cls-7" d="M605.1-210.541v8.418h8.418V-205.4h-5.144v-5.145Z" transform="translate(-605.1 220.831)"/>
      <path id="Path_5298" data-name="Path 5298" class="cls-7" d="M613.518-221.118H605.1v8.419h3.274v-5.145h5.144Z" transform="translate(-605.1 221.118)"/>
      <path id="Path_5299" data-name="Path 5299" class="cls-7" d="M624.1-221.118h-8.419v3.274h5.144v5.145H624.1Z" transform="translate(-605.387 221.118)"/>
      <rect id="Rectangle_1777" data-name="Rectangle 1777" class="cls-8" width="5.612" height="5.613" transform="translate(6.548 6.548)"/>
    </g>
  </g>
</svg>
