<svg width="92" height="89" viewBox="0 0 92 89" fill="none" xmlns="http://www.w3.org/2000/svg">
<mask id="mask0_1994_3697" style="mask-type:alpha" maskUnits="userSpaceOnUse" x="0" y="0" width="92" height="89">
<rect x="0.5" y="0.5" width="91" height="88" rx="7.5" fill="white" stroke="#E6E6E6"/>
</mask>
<g mask="url(#mask0_1994_3697)">
<path d="M77.5461 91.1571C77.5461 91.1571 64.9061 74.9408 38.0429 64.6543C11.1796 54.3679 -42.2405 77.039 -42.2405 77.039C-42.2405 77.039 -41.9125 79.5307 -41.3323 83.2512C-23.5169 73.7925 -3.91176 67.6723 16.8749 71.8319C37.4177 75.9453 54.3126 86.2578 70.4872 97.5703L80.5966 93.6103L77.5461 91.1571Z" fill="url(#paint0_linear_1994_3697)"/>
<path d="M-39.8177 92.4734C-38.5935 99.2864 -37.0053 106.797 -35.2851 111.477C-31.4967 121.801 -22.4209 133.956 -22.4209 133.956L51.5609 104.978C24.9626 87.0814 -9.03748 80.8943 -39.8177 92.4734Z" fill="url(#paint1_linear_1994_3697)"/>
<path d="M16.864 71.8331C-3.92276 67.6735 -23.5279 73.7937 -41.3433 83.2524C-40.9461 85.8623 -40.4242 89.0835 -39.8305 92.4792C-9.05021 80.9001 24.9626 87.0814 51.5609 104.978L70.4762 97.5714C54.3092 86.267 37.4067 75.9464 16.864 71.8331Z" fill="url(#paint2_linear_1994_3697)"/>
</g>
<g clip-path="url(#clip0_1994_3697)">
<path d="M12.343 28.1665H14.2966V24.0738H12.343V28.1665Z" fill="#1A33FF"/>
<path d="M13.322 25.4626H10.0994V26.78H13.322V25.4626Z" fill="#1A33FF"/>
<path d="M10.9871 26.5567H10.5679V29.0016H10.9871V26.5567Z" fill="#1A33FF"/>
<path d="M9.7939 35.1262H11.5513C11.9898 35.1262 12.3452 34.7703 12.3452 34.3313V29.7965C12.3452 29.3575 11.9898 29.0016 11.5513 29.0016H9.7939C9.35542 29.0016 8.99996 29.3575 8.99996 29.7965V34.3313C8.99996 34.7703 9.35542 35.1262 9.7939 35.1262Z" fill="#1A33FF"/>
<path d="M58.6548 24.0738H56.7012V28.1666H58.6548V24.0738Z" fill="#1A33FF"/>
<path d="M60.9006 25.4626H57.678V26.78H60.9006V25.4626Z" fill="#1A33FF"/>
<path d="M60.4322 26.5567H60.0129V29.0016H60.4322V26.5567Z" fill="#1A33FF"/>
<path d="M61.2061 29.0016H59.4487C59.0102 29.0016 58.6548 29.3575 58.6548 29.7965V34.3313C58.6548 34.7703 59.0102 35.1262 59.4487 35.1262H61.2061C61.6446 35.1262 62 34.7703 62 34.3313V29.7965C62 29.3575 61.6446 29.0016 61.2061 29.0016Z" fill="#1A33FF"/>
<path d="M18.0769 62.2129H25.1198V69.8044C25.1198 70.1597 24.9788 70.5005 24.7279 70.7517C24.4769 71.003 24.1366 71.1441 23.7817 71.1441H19.415C19.0601 71.1441 18.7198 71.003 18.4688 70.7517C18.2179 70.5005 18.0769 70.1597 18.0769 69.8044V62.2129Z" fill="#1A33FF"/>
<path d="M23.7815 71.1644H19.4237C19.0619 71.1638 18.7151 71.0196 18.4592 70.7635C18.2034 70.5074 18.0594 70.1601 18.0588 69.7979V62.1863H25.1552V69.7979C25.155 69.978 25.1192 70.1563 25.0499 70.3226C24.9806 70.4888 24.8793 70.6397 24.7517 70.7667C24.6241 70.8936 24.4727 70.9941 24.3062 71.0623C24.1397 71.1306 23.9614 71.1653 23.7815 71.1644ZM18.1034 62.2332V69.7934C18.104 70.1415 18.2424 70.4751 18.4882 70.7212C18.734 70.9672 19.0672 71.1057 19.4148 71.1063H23.7815C24.1291 71.1057 24.4623 70.9672 24.7081 70.7212C24.9539 70.4751 25.0922 70.1415 25.0928 69.7934V62.2376L18.1034 62.2332Z" fill="#0080D7"/>
<path d="M19.3792 62.7622H19.3257V71.1374H19.3792V62.7622Z" fill="white"/>
<path d="M20.9046 62.7622H20.8511V71.1374H20.9046V62.7622Z" fill="white"/>
<path d="M22.4324 62.7622H22.3789V71.1374H22.4324V62.7622Z" fill="white"/>
<path d="M23.9578 62.7622H23.9043V71.1374H23.9578V62.7622Z" fill="white"/>
<path d="M51.5828 71.1396H47.2183C46.8635 71.1396 46.5231 70.9985 46.2722 70.7473C46.0212 70.496 45.8802 70.1553 45.8802 69.8V62.2084H52.9209V69.8C52.9209 70.1553 52.7799 70.496 52.529 70.7473C52.278 70.9985 51.9377 71.1396 51.5828 71.1396Z" fill="#1A33FF"/>
<path d="M51.5828 71.1644H47.2184C46.8566 71.1638 46.5098 71.0196 46.2539 70.7635C45.9981 70.5074 45.8541 70.1601 45.8535 69.7979V62.1863H52.9499V69.7979C52.9493 70.1605 52.805 70.5081 52.5487 70.7643C52.2924 71.0205 51.945 71.1644 51.5828 71.1644ZM45.907 62.2332V69.7934C45.907 70.1416 46.0452 70.4756 46.2911 70.7218C46.537 70.968 46.8706 71.1063 47.2184 71.1063H51.5828C51.9308 71.1063 52.2646 70.9681 52.5109 70.7219C52.7571 70.4758 52.8958 70.1418 52.8964 69.7934V62.2376L45.907 62.2332Z" fill="#0080D7"/>
<path d="M51.6744 62.7622H51.6208V71.1374H51.6744V62.7622Z" fill="white"/>
<path d="M50.1465 62.7622H50.093V71.1374H50.1465V62.7622Z" fill="white"/>
<path d="M48.6212 62.7622H48.5676V71.1374H48.6212V62.7622Z" fill="white"/>
<path d="M47.0936 62.7622H47.04V71.1374H47.0936V62.7622Z" fill="white"/>
<path d="M53.6323 16H17.5928C15.7465 16 14.2498 17.4985 14.2498 19.347V61.4153C14.2498 63.2638 15.7465 64.7622 17.5928 64.7622H53.6323C55.4786 64.7622 56.9754 63.2638 56.9754 61.4153V19.347C56.9754 17.4985 55.4786 16 53.6323 16Z" fill="#A6DAFF"/>
<path d="M51.8727 17.5049H18.7703V24.0738H51.8727V17.5049Z" fill="white"/>
<path d="M56.1012 26.9809V44.7608H14.843V26.9809C14.843 26.7851 14.8816 26.5911 14.9564 26.4102C15.0313 26.2292 15.141 26.0648 15.2794 25.9263C15.4177 25.7878 15.5819 25.6779 15.7627 25.603C15.9434 25.528 16.1371 25.4894 16.3328 25.4894H54.6092C55.0045 25.4894 55.3837 25.6465 55.6634 25.9261C55.9431 26.2058 56.1006 26.5852 56.1012 26.9809Z" fill="#E8EFFA"/>
<path d="M25.5323 44.7608L39.4107 25.4894H36.3754L22.4971 44.7608H25.5323Z" fill="white"/>
<path d="M50.8602 25.4894L36.9819 44.7608H29.4729L43.3512 25.4894H50.8602Z" fill="white"/>
<path d="M14.5532 48.1457C14.5532 48.1457 16.0787 51.7539 16.6697 51.841L22.9565 52.7341C23.1925 52.7682 23.4133 52.8711 23.5913 53.0299C23.7694 53.1887 23.8968 53.3964 23.9578 53.6272L24.9993 57.5592L27.1715 56.6661L25.9315 49.9945C25.8855 49.7103 25.7399 49.4518 25.5209 49.2653C25.3019 49.0787 25.0237 48.9763 24.7362 48.9763L14.5532 48.1457Z" fill="#1A33FF"/>
<path d="M23.4382 50.6375C23.4386 50.8796 23.3673 51.1164 23.2333 51.3179C23.0993 51.5194 22.9085 51.6766 22.6853 51.7695C22.462 51.8625 22.2162 51.887 21.979 51.8401C21.7418 51.7931 21.5238 51.6768 21.3526 51.5057C21.1815 51.3347 21.0649 51.1167 21.0175 50.8793C20.9702 50.6419 20.9943 50.3957 21.0867 50.172C21.1791 49.9483 21.3358 49.7571 21.5368 49.6225C21.7378 49.488 21.9742 49.4162 22.216 49.4162C22.5398 49.4162 22.8503 49.5448 23.0794 49.7738C23.3086 50.0027 23.4376 50.3134 23.4382 50.6375Z" fill="white"/>
<path d="M22.2228 51.8901C21.9758 51.8901 21.7343 51.8168 21.5289 51.6794C21.3235 51.542 21.1635 51.3467 21.0689 51.1182C20.9744 50.8898 20.9497 50.6384 20.9979 50.3958C21.0461 50.1533 21.165 49.9305 21.3397 49.7556C21.5143 49.5807 21.7369 49.4616 21.9791 49.4134C22.2214 49.3652 22.4725 49.3899 22.7007 49.4846C22.9289 49.5792 23.124 49.7395 23.2612 49.9451C23.3984 50.1507 23.4717 50.3924 23.4717 50.6397C23.4717 50.9714 23.3401 51.2894 23.1059 51.5239C22.8717 51.7584 22.554 51.8901 22.2228 51.8901ZM22.2228 49.4452C21.9863 49.4452 21.7551 49.5154 21.5584 49.647C21.3618 49.7786 21.2086 49.9657 21.1182 50.1845C21.0278 50.4033 21.0042 50.6441 21.0505 50.8763C21.0968 51.1085 21.2109 51.3217 21.3783 51.489C21.5457 51.6563 21.7589 51.7701 21.9909 51.816C22.223 51.862 22.4634 51.8379 22.6818 51.747C22.9002 51.6561 23.0867 51.5024 23.2178 51.3053C23.3489 51.1081 23.4186 50.8765 23.4181 50.6397C23.4176 50.3227 23.2913 50.0189 23.0672 49.7949C22.8431 49.571 22.5394 49.4452 22.2228 49.4452Z" fill="#0080D7"/>
<path d="M18.0767 51.2069C18.5534 51.2069 18.9398 50.82 18.9398 50.3428C18.9398 49.8655 18.5534 49.4787 18.0767 49.4787C17.6 49.4787 17.2136 49.8655 17.2136 50.3428C17.2136 50.82 17.6 51.2069 18.0767 51.2069Z" fill="white"/>
<path d="M18.0857 51.2247C17.9092 51.2247 17.7368 51.1724 17.5901 51.0742C17.4434 50.9761 17.329 50.8366 17.2615 50.6734C17.194 50.5102 17.1763 50.3306 17.2107 50.1574C17.2452 49.9841 17.3301 49.825 17.4549 49.7001C17.5796 49.5752 17.7386 49.4901 17.9116 49.4557C18.0847 49.4212 18.264 49.4389 18.427 49.5065C18.5901 49.5741 18.7294 49.6886 18.8274 49.8354C18.9254 49.9823 18.9777 50.155 18.9777 50.3316C18.9777 50.5685 18.8838 50.7957 18.7165 50.9632C18.5492 51.1306 18.3223 51.2247 18.0857 51.2247ZM18.0857 49.4966C17.9184 49.4966 17.7549 49.5462 17.6158 49.6393C17.4768 49.7324 17.3685 49.8647 17.3046 50.0195C17.2407 50.1742 17.224 50.3445 17.2568 50.5087C17.2896 50.6729 17.3704 50.8237 17.4888 50.9419C17.6072 51.0602 17.758 51.1406 17.9221 51.173C18.0863 51.2054 18.2563 51.1883 18.4107 51.124C18.5651 51.0596 18.6969 50.9507 18.7895 50.8113C18.8821 50.6718 18.9313 50.508 18.9309 50.3406C18.9303 50.1165 18.841 49.9018 18.6826 49.7436C18.5241 49.5854 18.3095 49.4965 18.0857 49.4966Z" fill="#0080D7"/>
<path d="M56.4804 48.1457C56.4804 48.1457 54.9616 51.7539 54.364 51.841L48.0771 52.7341C47.8411 52.7682 47.6203 52.8711 47.4423 53.0299C47.2642 53.1887 47.1368 53.3964 47.0758 53.6272L46.0343 57.5592L43.8599 56.6661L45.1021 49.9945C45.1481 49.7103 45.2937 49.4518 45.5127 49.2653C45.7317 49.0787 46.0099 48.9763 46.2974 48.9763L56.4804 48.1457Z" fill="#1A33FF"/>
<path d="M47.5886 50.6375C47.5882 50.8796 47.6595 51.1164 47.7935 51.3179C47.9275 51.5194 48.1182 51.6766 48.3415 51.7695C48.5648 51.8625 48.8106 51.887 49.0478 51.8401C49.285 51.7931 49.503 51.6768 49.6741 51.5057C49.8453 51.3347 49.9619 51.1167 50.0092 50.8793C50.0566 50.6419 50.0325 50.3957 49.9401 50.172C49.8476 49.9483 49.691 49.7571 49.49 49.6225C49.2889 49.488 49.0526 49.4162 48.8108 49.4162C48.487 49.4162 48.1765 49.5448 47.9474 49.7738C47.7182 50.0027 47.5892 50.3134 47.5886 50.6375Z" fill="white"/>
<path d="M48.8107 51.8901C48.5636 51.8906 48.3219 51.8176 48.1162 51.6805C47.9106 51.5434 47.7501 51.3482 47.6553 51.1198C47.5604 50.8914 47.5354 50.6399 47.5833 50.3972C47.6312 50.1545 47.75 49.9315 47.9246 49.7564C48.0991 49.5813 48.3217 49.462 48.564 49.4136C48.8063 49.3651 49.0576 49.3898 49.2859 49.4843C49.5142 49.5789 49.7094 49.7392 49.8467 49.9448C49.9841 50.1505 50.0574 50.3924 50.0574 50.6397C50.0574 50.971 49.9261 51.2887 49.6924 51.5231C49.4586 51.7575 49.1415 51.8895 48.8107 51.8901ZM48.8107 49.4452C48.5741 49.4448 48.3427 49.5146 48.1458 49.646C47.9488 49.7773 47.7953 49.9642 47.7045 50.183C47.6138 50.4017 47.5899 50.6426 47.636 50.8749C47.682 51.1073 47.7959 51.3207 47.9632 51.4882C48.1305 51.6557 48.3437 51.7698 48.5758 51.8159C48.8079 51.862 49.0484 51.8381 49.267 51.7472C49.4855 51.6564 49.6721 51.5026 49.8033 51.3055C49.9345 51.1083 50.0043 50.8766 50.0039 50.6397C50.0033 50.3231 49.8774 50.0196 49.6537 49.7957C49.4301 49.5718 49.127 49.4458 48.8107 49.4452Z" fill="#0080D7"/>
<path d="M52.9566 51.2069C53.4332 51.2069 53.8197 50.82 53.8197 50.3428C53.8197 49.8655 53.4332 49.4787 52.9566 49.4787C52.4799 49.4787 52.0935 49.8655 52.0935 50.3428C52.0935 50.82 52.4799 51.2069 52.9566 51.2069Z" fill="white"/>
<path d="M52.9568 51.2247C52.7803 51.2247 52.6079 51.1724 52.4612 51.0742C52.3145 50.9761 52.2001 50.8366 52.1326 50.6734C52.0651 50.5102 52.0474 50.3306 52.0818 50.1574C52.1163 49.9841 52.2012 49.825 52.326 49.7001C52.4507 49.5752 52.6097 49.4901 52.7827 49.4557C52.9558 49.4212 53.1351 49.4389 53.2981 49.5065C53.4612 49.5741 53.6005 49.6886 53.6985 49.8354C53.7965 49.9823 53.8488 50.155 53.8488 50.3316C53.8488 50.5685 53.7548 50.7957 53.5876 50.9632C53.4203 51.1306 53.1934 51.2247 52.9568 51.2247ZM52.9568 49.4966C52.7895 49.4966 52.626 49.5462 52.4869 49.6393C52.3479 49.7324 52.2396 49.8647 52.1757 50.0195C52.1118 50.1742 52.0951 50.3445 52.1279 50.5087C52.1607 50.6729 52.2415 50.8237 52.3599 50.9419C52.4783 51.0602 52.6291 51.1406 52.7932 51.173C52.9573 51.2054 53.1274 51.1883 53.2818 51.124C53.4362 51.0596 53.568 50.9507 53.6606 50.8113C53.7532 50.6718 53.8024 50.508 53.802 50.3406C53.8014 50.1165 53.7121 49.9018 53.5536 49.7436C53.3952 49.5854 53.1805 49.4965 52.9568 49.4966Z" fill="#0080D7"/>
<path d="M42.8206 50.0458H28.3691C28.2508 50.0458 28.1374 49.9988 28.0537 49.915C27.9701 49.8313 27.9231 49.7177 27.9231 49.5993C27.9231 49.4808 27.9701 49.3672 28.0537 49.2835C28.1374 49.1997 28.2508 49.1527 28.3691 49.1527H42.8206C42.9389 49.1527 43.0524 49.1997 43.136 49.2835C43.2197 49.3672 43.2667 49.4808 43.2667 49.5993C43.2667 49.7177 43.2197 49.8313 43.136 49.915C43.0524 49.9988 42.9389 50.0458 42.8206 50.0458Z" fill="#1A33FF"/>
<path d="M42.8206 51.6557H28.3691C28.2508 51.6557 28.1374 51.6086 28.0537 51.5249C27.9701 51.4411 27.9231 51.3275 27.9231 51.2091C27.9231 51.0907 27.9701 50.9771 28.0537 50.8933C28.1374 50.8096 28.2508 50.7625 28.3691 50.7625H42.8206C42.9389 50.7625 43.0524 50.8096 43.136 50.8933C43.2197 50.9771 43.2667 51.0907 43.2667 51.2091C43.2667 51.3275 43.2197 51.4411 43.136 51.5249C43.0524 51.6086 42.9389 51.6557 42.8206 51.6557Z" fill="#1A33FF"/>
<path d="M42.8206 53.2633H28.3691C28.2508 53.2633 28.1374 53.2163 28.0537 53.1325C27.9701 53.0488 27.9231 52.9352 27.9231 52.8167C27.9231 52.6983 27.9701 52.5847 28.0537 52.501C28.1374 52.4172 28.2508 52.3702 28.3691 52.3702H42.8206C42.9389 52.3702 43.0524 52.4172 43.136 52.501C43.2197 52.5847 43.2667 52.6983 43.2667 52.8167C43.2667 52.9352 43.2197 53.0488 43.136 53.1325C43.0524 53.2163 42.9389 53.2633 42.8206 53.2633Z" fill="#1A33FF"/>
<path d="M42.8206 54.8798H28.3691C28.2508 54.8798 28.1374 54.8328 28.0537 54.7491C27.9701 54.6653 27.9231 54.5517 27.9231 54.4333C27.9231 54.3149 27.9701 54.2013 28.0537 54.1175C28.1374 54.0338 28.2508 53.9867 28.3691 53.9867H42.8206C42.9389 53.9867 43.0524 54.0338 43.136 54.1175C43.2197 54.2013 43.2667 54.3149 43.2667 54.4333C43.2667 54.5517 43.2197 54.6653 43.136 54.7491C43.0524 54.8328 42.9389 54.8798 42.8206 54.8798Z" fill="#1A33FF"/>
<path d="M45.7576 59.0775H25.1196V63.1122H45.7576V59.0775Z" fill="white"/>
<path d="M22.5281 63.2082H18.128C17.8853 63.2076 17.6527 63.1107 17.4813 62.9386C17.3099 62.7666 17.2136 62.5335 17.2136 62.2905C17.2136 62.0477 17.31 61.8149 17.4814 61.6432C17.6529 61.4715 17.8855 61.3751 18.128 61.3751H22.5281C22.6484 61.3748 22.7675 61.3982 22.8787 61.4441C22.9899 61.49 23.091 61.5574 23.1761 61.6424C23.2613 61.7274 23.3288 61.8285 23.3749 61.9397C23.421 62.0509 23.4447 62.1701 23.4447 62.2905C23.4447 62.411 23.421 62.5304 23.3749 62.6417C23.3289 62.753 23.2614 62.8542 23.1763 62.9394C23.0911 63.0246 22.9901 63.0922 22.8789 63.1384C22.7677 63.1845 22.6485 63.2082 22.5281 63.2082Z" fill="#1A33FF"/>
<path d="M22.5281 63.235H18.128C17.886 63.2232 17.6578 63.1187 17.4907 62.9431C17.3237 62.7674 17.2305 62.5342 17.2305 62.2916C17.2305 62.0491 17.3237 61.8159 17.4907 61.6402C17.6578 61.4646 17.886 61.3601 18.128 61.3483H22.5281C22.6557 61.3421 22.7832 61.3619 22.9029 61.4065C23.0227 61.4511 23.1321 61.5196 23.2246 61.6078C23.3171 61.696 23.3907 61.8021 23.4411 61.9196C23.4914 62.0372 23.5173 62.1638 23.5173 62.2916C23.5173 62.4195 23.4914 62.5461 23.4411 62.6637C23.3907 62.7812 23.3171 62.8873 23.2246 62.9755C23.1321 63.0637 23.0227 63.1322 22.9029 63.1768C22.7832 63.2214 22.6557 63.2412 22.5281 63.235ZM18.128 61.4019C17.8914 61.4019 17.6645 61.496 17.4972 61.6635C17.3299 61.831 17.2359 62.0581 17.2359 62.295C17.2359 62.5319 17.3299 62.759 17.4972 62.9265C17.6645 63.094 17.8914 63.1881 18.128 63.1881H22.5281C22.7647 63.1881 22.9916 63.094 23.1589 62.9265C23.3262 62.759 23.4202 62.5319 23.4202 62.295C23.4202 62.0581 23.3262 61.831 23.1589 61.6635C22.9916 61.496 22.7647 61.4019 22.5281 61.4019H18.128Z" fill="#0080D7"/>
<path d="M53.0591 63.2082H48.6612C48.5409 63.2082 48.4217 63.1845 48.3105 63.1384C48.1993 63.0922 48.0982 63.0246 48.0131 62.9394C47.928 62.8542 47.8605 62.753 47.8144 62.6417C47.7683 62.5304 47.7446 62.411 47.7446 62.2905C47.7446 62.1701 47.7684 62.0509 47.8144 61.9397C47.8605 61.8285 47.9281 61.7274 48.0132 61.6424C48.0984 61.5574 48.1994 61.49 48.3106 61.4441C48.4218 61.3982 48.541 61.3748 48.6612 61.3751H53.0591C53.1794 61.3748 53.2985 61.3982 53.4097 61.4441C53.5209 61.49 53.622 61.5574 53.7071 61.6424C53.7923 61.7274 53.8598 61.8285 53.9059 61.9397C53.952 62.0509 53.9757 62.1701 53.9757 62.2905C53.9757 62.411 53.952 62.5304 53.906 62.6417C53.8599 62.753 53.7924 62.8542 53.7073 62.9394C53.6221 63.0246 53.5211 63.0922 53.4099 63.1384C53.2987 63.1845 53.1795 63.2082 53.0591 63.2082Z" fill="#1A33FF"/>
<path d="M53.0592 63.235H48.6613C48.5337 63.2412 48.4062 63.2214 48.2865 63.1768C48.1668 63.1322 48.0573 63.0637 47.9648 62.9755C47.8723 62.8873 47.7987 62.7812 47.7484 62.6637C47.6981 62.5461 47.6721 62.4195 47.6721 62.2916C47.6721 62.1638 47.6981 62.0372 47.7484 61.9196C47.7987 61.8021 47.8723 61.696 47.9648 61.6078C48.0573 61.5196 48.1668 61.4511 48.2865 61.4065C48.4062 61.3619 48.5337 61.3421 48.6613 61.3483H53.0592C53.1868 61.3421 53.3143 61.3619 53.4341 61.4065C53.5538 61.4511 53.6632 61.5196 53.7557 61.6078C53.8482 61.696 53.9219 61.8021 53.9722 61.9196C54.0225 62.0372 54.0484 62.1638 54.0484 62.2916C54.0484 62.4195 54.0225 62.5461 53.9722 62.6637C53.9219 62.7812 53.8482 62.8873 53.7557 62.9755C53.6632 63.0637 53.5538 63.1322 53.4341 63.1768C53.3143 63.2214 53.1868 63.2412 53.0592 63.235ZM48.6613 61.4019C48.4247 61.4019 48.1978 61.496 48.0305 61.6635C47.8633 61.831 47.7693 62.0581 47.7693 62.295C47.7693 62.5319 47.8633 62.759 48.0305 62.9265C48.1978 63.094 48.4247 63.1881 48.6613 63.1881H53.0592C53.2958 63.1881 53.5227 63.094 53.69 62.9265C53.8573 62.759 53.9513 62.5319 53.9513 62.295C53.9513 62.0581 53.8573 61.831 53.69 61.6635C53.5227 61.496 53.2958 61.4019 53.0592 61.4019H48.6613Z" fill="#0080D7"/>
</g>
<defs>
<linearGradient id="paint0_linear_1994_3697" x1="21.1809" y1="97.9252" x2="-2.46885" y2="53.5828" gradientUnits="userSpaceOnUse">
<stop stop-color="#009731"/>
<stop offset="1" stop-color="#00C964"/>
</linearGradient>
<linearGradient id="paint1_linear_1994_3697" x1="20.3842" y1="98.4777" x2="-3.33018" y2="54.2032" gradientUnits="userSpaceOnUse">
<stop stop-color="#009731"/>
<stop offset="1" stop-color="#00C964"/>
</linearGradient>
<linearGradient id="paint2_linear_1994_3697" x1="18.4712" y1="100.848" x2="-2.97885" y2="60.9816" gradientUnits="userSpaceOnUse">
<stop stop-color="#009731"/>
<stop offset="1" stop-color="#00C964"/>
</linearGradient>
<clipPath id="clip0_1994_3697">
<rect width="53" height="57.1643" fill="white" transform="translate(9 16)"/>
</clipPath>
</defs>
</svg>
