<svg width="87" height="65" viewBox="0 0 87 65" fill="none" xmlns="http://www.w3.org/2000/svg">
<rect width="87" height="65" fill="#E5E5E5"/>
<g id="recent-search" clip-path="url(#clip0_387_2)">
<rect width="1280" height="720" transform="translate(-676 -329)" fill="#F7FAFF"/>
<rect id="Rectangle 9346" x="-20.5" y="-47.5" width="354" height="250" rx="7.5" fill="white" stroke="#E6E6E6"/>
<rect id="Rectangle 9350" x="-0.5" y="-0.5" width="314" height="89" rx="7.5" fill="#F2F8FB" stroke="#E6E6E6"/>
<g id="Mask Group">
<mask id="mask0_387_2" style="mask-type:alpha" maskUnits="userSpaceOnUse" x="0" y="0" width="87" height="65">
<path id="Rectangle 9332" d="M86.5 7C86.5 3.41015 83.5899 0.5 80 0.5H7C3.41016 0.5 0.5 3.41015 0.5 7V58C0.5 61.5899 3.41015 64.5 7 64.5H80C83.5899 64.5 86.5 61.5899 86.5 58V7Z" fill="white" stroke="#E6E6E6"/>
</mask>
<g mask="url(#mask0_387_2)">
<g id="Vector">
<path d="M-21.0462 61.6478C-66.911 49.3428 -110.249 -18.5208 -97.9646 -64.3078C-85.6806 -110.095 -64.7528 -132.275 -18.8817 -119.969C26.9893 -107.662 76.329 -67.5173 70.3168 -20.1495C66.694 8.37812 50.4709 37.9146 14.38 31.3264C-9.86058 26.8971 -1.149 66.9859 -21.0462 61.6478Z" fill="url(#paint0_radial_387_2)"/>
<path d="M-22.3556 56.223C-68.2204 43.9181 -110.251 -18.5214 -97.9667 -64.3083C-85.6827 -110.095 -64.7528 -132.275 -18.8817 -119.969C26.9893 -107.662 74.6226 -65.7351 68.6081 -18.359C64.9874 10.1692 50.4771 37.9163 14.3841 31.3275C-9.86059 26.8971 -2.45639 61.5617 -22.3556 56.223Z" fill="url(#paint1_radial_387_2)"/>
<path d="M-22.2295 56.8523C-69.1705 49.6907 -117.858 -7.72827 -110.727 -54.5967C-103.596 -101.465 -85.2504 -125.822 -38.3012 -118.658C8.64795 -111.494 60.6273 -75.0723 59.9046 -27.3302C59.4672 1.4234 48.1308 30.6042 11.5242 28.0457C-13.0614 26.3239 -1.86029 59.9597 -22.2295 56.8523Z" fill="url(#paint2_radial_387_2)"/>
</g>
</g>
</g>
<g id="Frame" clip-path="url(#clip1_387_2)">
<path id="Vector_2" d="M19.9852 40.6679C20.491 39.8897 21.1911 38.5135 21.0951 36.9201L17.5571 40.2523C18.3454 40.4913 19.1613 40.631 19.9852 40.6679Z" fill="url(#paint3_radial_387_2)"/>
<path id="Vector_3" d="M43.22 35.2344L35.0692 26.4087C35.0692 26.4087 34.0038 25.5705 32.2172 26.2956C32.1475 26.3225 32.0912 26.3753 32.0606 26.4426C32.0299 26.51 32.0273 26.5866 32.0533 26.6558L34.8093 37.278C37.6566 36.5876 40.5062 35.8925 43.22 35.2344Z" fill="url(#paint4_radial_387_2)"/>
<path id="Vector_4" d="M34.8093 37.285L32.1353 26.9768C33.4981 27.2077 33.9875 28.0783 33.9875 28.0783L37.1953 36.7031L34.8093 37.285Z" fill="url(#paint5_radial_387_2)"/>
<path id="Vector_5" d="M66.1528 32.1655C66.1528 32.1655 64.3686 30.489 60.3201 31.2072C56.2716 31.9254 9.52581 43.5105 9.52581 43.5105L6.63406 44.7159C6.41055 44.8087 6.21977 44.9644 6.08564 45.1636C5.95152 45.3629 5.88001 45.5967 5.88009 45.8359C5.8811 46.0939 5.96538 46.3448 6.12073 46.5524C6.27608 46.76 6.49442 46.9134 6.74411 46.9904C8.93576 47.667 15.1735 49.2465 24.0291 48.5838C24.9475 48.5165 25.858 48.3689 26.7499 48.1427L63.7223 38.7167C63.7223 38.7167 68.1431 37.3127 68.897 35.269C69.665 33.1469 66.1528 32.1655 66.1528 32.1655Z" fill="url(#paint6_radial_387_2)"/>
<path id="Vector_6" d="M26.0474 45.9398C25.1267 46.1761 24.1863 46.3306 23.2376 46.4016C15.0423 47.0135 9.01999 45.7758 6.20784 45.0161C6.32541 44.8913 6.46818 44.7922 6.62696 44.7251L9.49063 43.4851C9.49063 43.4851 56.1873 31.8792 60.2919 31.1726C62.7482 30.7361 64.3966 31.1033 65.284 31.6344C65.5986 31.7731 65.8912 31.9558 66.1527 32.1771C66.1527 32.1771 68.0938 32.722 68.7705 33.872C67.1853 35.2875 64.3497 36.1812 64.3497 36.1812L26.0474 45.9398Z" fill="url(#paint7_radial_387_2)"/>
<path id="Vector_7" d="M26.0474 45.9398C25.1267 46.1761 24.1863 46.3306 23.2376 46.4016C15.0423 47.0135 9.01999 45.7758 6.20784 45.0161C6.32541 44.8913 6.46818 44.7922 6.62696 44.7251L9.49063 43.4851C9.49063 43.4851 56.1873 31.8792 60.2919 31.1726C62.7482 30.7361 64.3966 31.1033 65.284 31.6344C65.5986 31.7731 65.8912 31.9558 66.1527 32.1771C66.1527 32.1771 68.0938 32.722 68.7705 33.872C67.1853 35.2875 64.3497 36.1812 64.3497 36.1812L26.0474 45.9398Z" fill="url(#paint8_radial_387_2)"/>
<path id="Vector_8" d="M63.5302 34.0729C63.8726 34.3109 64.1799 34.5945 64.4434 34.9157C64.3965 35.0451 64.1835 35.4145 63.2281 35.7517C62.8856 35.3408 62.4923 34.9739 62.0574 34.6594C62.5796 34.5514 63.0783 34.3528 63.5302 34.0729ZM61.3315 34.8118C61.7248 35.1523 62.0538 35.5589 62.3032 36.0126C61.952 36.0888 61.5469 36.1581 61.0763 36.2158L60.608 34.9111C60.8515 34.8811 61.0927 34.8511 61.3315 34.8118Z" fill="url(#paint9_radial_387_2)"/>
<path id="Vector_9" d="M65.9421 32.5396C65.0055 31.9923 64.2187 31.8238 61.6196 32.2856C57.2785 33.0338 7.86571 45.3048 7.86571 45.3048L7.69946 45.3786C7.13515 45.2493 6.63875 45.1223 6.21494 45.0069C6.3325 44.8821 6.47529 44.783 6.63408 44.7159L9.49774 43.4759C9.49774 43.4759 56.1873 31.8792 60.292 31.1726C62.7482 30.7361 64.3967 31.1033 65.2841 31.6344C65.5987 31.7731 65.8913 31.9558 66.1528 32.1771C66.1528 32.1771 67.827 32.6389 68.6067 33.6365C67.937 33.0823 66.7194 32.5719 65.9421 32.5396Z" fill="url(#paint10_radial_387_2)"/>
<path id="Vector_10" opacity="0.43" d="M6.74411 46.8173C8.93576 47.4939 15.1735 49.0733 24.0291 48.4106C24.9477 48.3411 25.8582 48.1912 26.7499 47.9626L63.7223 38.5365C63.7223 38.5365 68.143 37.1326 68.897 35.0889C68.9562 34.9253 68.9917 34.7543 69.0024 34.5809C69.0165 34.8165 68.9806 35.0525 68.897 35.2737C68.1501 37.3173 63.7293 38.7213 63.7293 38.7213L26.7499 48.1427C25.859 48.3711 24.9493 48.5211 24.0314 48.5907C15.1759 49.2534 8.9381 47.667 6.74645 46.9974C6.49676 46.9204 6.27842 46.767 6.12307 46.5594C5.96773 46.3518 5.88344 46.1008 5.88243 45.8428C5.88243 45.8128 5.88243 45.7804 5.88243 45.7504C5.90128 45.9929 5.99348 46.2242 6.1471 46.4144C6.30072 46.6046 6.5087 46.7449 6.74411 46.8173Z" fill="url(#paint11_radial_387_2)"/>
<path id="Vector_11" d="M46.9734 40.6079C46.9734 40.6079 32.6434 54.3267 26.888 58.2362C22.3478 61.3235 17.4681 62.5913 15.6113 62.9954C15.5581 63.0147 15.4997 63.0144 15.4468 62.9945C15.3939 62.9746 15.3501 62.9364 15.3235 62.8871C15.2969 62.8378 15.2894 62.7806 15.3022 62.7262C15.3151 62.6718 15.3475 62.6239 15.3935 62.5913L30.6578 45.0415C30.6578 45.0415 37.4271 39.5549 46.9734 40.6079Z" fill="url(#paint12_radial_387_2)"/>
<path id="Vector_12" d="M30.6579 45.0415C30.6579 45.0415 33.0228 43.1295 36.9285 41.7832C34.7345 44.2864 26.0615 54.1004 22.3339 57.077C20.9023 58.2063 19.3463 59.173 17.6953 59.9588L30.6579 45.0415Z" fill="url(#paint13_radial_387_2)"/>
<path id="Vector_13" d="M8.37149 43.9931L9.52585 43.5105C9.52585 43.5105 14.5601 42.2636 21.4675 40.5617C20.8728 40.6933 17.9553 41.1413 13.8085 38.5042C9.42283 35.7124 8.79296 32.4657 3.6276 33.207C3.511 33.2246 3.40038 33.2695 3.30504 33.338C3.20969 33.4065 3.1324 33.4966 3.07965 33.6006C3.02689 33.7047 3.00022 33.8197 3.00185 33.936C3.00349 34.0524 3.0334 34.1666 3.08906 34.2692L8.37149 43.9931Z" fill="url(#paint14_radial_387_2)"/>
<path id="Vector_14" d="M55.0141 34.7218L55.5269 34.604C55.6091 34.5851 55.6956 34.5987 55.7678 34.6418C55.84 34.685 55.8922 34.7543 55.9132 34.8349L56.1286 35.7586C56.1478 35.8394 56.1339 35.9244 56.0901 35.9952C56.0463 36.066 55.9761 36.1171 55.8945 36.1373L55.3817 36.2551C55.2995 36.274 55.213 36.2604 55.1408 36.2173C55.0686 36.1741 55.0164 36.1048 54.9954 36.0242L54.7799 35.1005C54.7614 35.0197 54.7755 34.935 54.8192 34.8644C54.8629 34.7937 54.9328 34.7425 55.0141 34.7218ZM51.5838 35.5415L52.0942 35.4238C52.1765 35.4048 52.2629 35.4184 52.3351 35.4616C52.4073 35.5047 52.4595 35.574 52.4806 35.6547L52.696 36.5784C52.7158 36.6592 52.7022 36.7445 52.6583 36.8154C52.6144 36.8864 52.5438 36.9374 52.4619 36.9571L51.9491 37.0748C51.8671 37.0937 51.781 37.08 51.7092 37.0369C51.6373 36.9937 51.5856 36.9244 51.5651 36.8439L51.3473 35.9202C51.3283 35.8391 51.3424 35.7539 51.3867 35.683C51.4309 35.6121 51.5018 35.5613 51.5838 35.5415ZM48.1511 36.359L48.6639 36.2435C48.7459 36.2247 48.832 36.2383 48.9038 36.2815C48.9757 36.3247 49.0274 36.394 49.0479 36.4744L49.2657 37.3981C49.2849 37.4792 49.2711 37.5645 49.2274 37.6357C49.1836 37.7069 49.1133 37.7584 49.0315 37.7791L48.5188 37.8969C48.4368 37.9158 48.3507 37.9021 48.2788 37.8589C48.207 37.8157 48.1553 37.7464 48.1347 37.666L47.917 36.7423C47.8971 36.6609 47.9105 36.575 47.9544 36.5033C47.9982 36.4316 48.0689 36.3797 48.1511 36.359ZM44.7185 37.1903L45.2313 37.0748C45.2719 37.0649 45.3141 37.0629 45.3554 37.0692C45.3968 37.0754 45.4365 37.0897 45.4722 37.1112C45.5079 37.1327 45.539 37.1609 45.5635 37.1943C45.5881 37.2277 45.6057 37.2656 45.6153 37.3057L45.833 38.2294C45.8522 38.3105 45.8385 38.3958 45.7947 38.467C45.751 38.5382 45.6807 38.5897 45.5989 38.6104L45.0885 38.7259C45.0062 38.7448 44.9198 38.7312 44.8476 38.6881C44.7754 38.6449 44.7231 38.5756 44.7021 38.495L44.4843 37.5713C44.4652 37.4902 44.4789 37.4049 44.5227 37.3337C44.5664 37.2625 44.6367 37.211 44.7185 37.1903ZM41.2858 38.01L41.7986 37.883C41.8809 37.8641 41.9673 37.8777 42.0395 37.9209C42.1117 37.964 42.1639 38.0333 42.185 38.114L42.4004 39.0376C42.4195 39.1184 42.4057 39.2034 42.3619 39.2742C42.3181 39.3451 42.2478 39.3961 42.1663 39.4163L41.6558 39.5341C41.5736 39.553 41.4871 39.5395 41.4149 39.4963C41.3427 39.4531 41.2905 39.3838 41.2695 39.3032L41.054 38.3795C41.0348 38.2987 41.0482 38.2137 41.0915 38.1426C41.1348 38.0714 41.2045 38.0197 41.2858 37.9985V38.01ZM37.8555 38.8298L38.366 38.712C38.4482 38.6931 38.5347 38.7067 38.6069 38.7498C38.6791 38.793 38.7313 38.8623 38.7523 38.943L38.9678 39.8666C38.9779 39.9068 38.9799 39.9486 38.9736 39.9895C38.9673 40.0305 38.9528 40.0698 38.9311 40.1052C38.9093 40.1406 38.8806 40.1714 38.8468 40.1959C38.8129 40.2203 38.7744 40.2379 38.7336 40.2476L38.2208 40.3654C38.1386 40.3843 38.0521 40.3708 37.9799 40.3276C37.9077 40.2844 37.8555 40.2151 37.8345 40.1345L37.6191 39.2108C37.6075 39.1697 37.6045 39.1267 37.6103 39.0845C37.616 39.0422 37.6303 39.0015 37.6524 38.9648C37.6745 38.9281 37.7039 38.8963 37.7388 38.8711C37.7737 38.8459 37.8134 38.8279 37.8555 38.8183V38.8298ZM34.4229 39.6473L34.9333 39.5318C35.0156 39.5129 35.102 39.5265 35.1742 39.5696C35.2464 39.6128 35.2987 39.6821 35.3197 39.7627L35.5375 40.6864C35.5566 40.7675 35.5429 40.8527 35.4991 40.924C35.4554 40.9952 35.3851 41.0467 35.3033 41.0674L34.7905 41.1829C34.7086 41.2017 34.6224 41.1881 34.5506 41.1449C34.4788 41.1017 34.427 41.0324 34.4065 40.9519L34.1887 40.0283C34.1775 39.9873 34.1747 39.9446 34.1804 39.9025C34.1861 39.8605 34.2003 39.82 34.2221 39.7834C34.2439 39.7469 34.2729 39.715 34.3074 39.6896C34.3419 39.6642 34.3811 39.6459 34.4229 39.6357V39.6473ZM30.9902 40.467L31.503 40.3492C31.585 40.3304 31.6711 40.344 31.743 40.3872C31.8148 40.4304 31.8665 40.4997 31.887 40.5802L32.1048 41.5038C32.1239 41.5846 32.1101 41.6696 32.0663 41.7404C32.0225 41.8113 31.9522 41.8623 31.8707 41.8825L31.3602 42.0003C31.278 42.0192 31.1915 42.0057 31.1193 41.9625C31.0471 41.9193 30.9949 41.85 30.9739 41.7694L30.7561 40.8457C30.7452 40.8049 30.7426 40.7624 30.7486 40.7206C30.7545 40.6789 30.7687 40.6387 30.7905 40.6024C30.8123 40.5661 30.8412 40.5344 30.8754 40.5092C30.9097 40.4839 30.9487 40.4657 30.9902 40.4555V40.467ZM27.5576 41.2868L28.0704 41.169C28.1526 41.1501 28.2391 41.1637 28.3113 41.2068C28.3835 41.25 28.4357 41.3193 28.4567 41.3999L28.6722 42.3236C28.6913 42.4044 28.6775 42.4894 28.6337 42.5602C28.5899 42.631 28.5196 42.6821 28.438 42.7023L27.9276 42.8201C27.8453 42.839 27.7589 42.8254 27.6867 42.7823C27.6145 42.7391 27.5623 42.6698 27.5412 42.5892L27.3258 41.6655C27.3145 41.6248 27.3116 41.5824 27.3173 41.5406C27.3229 41.4989 27.3369 41.4586 27.3585 41.4223C27.3801 41.3859 27.4088 41.3542 27.443 41.3289C27.4772 41.3037 27.5162 41.2854 27.5576 41.2752V41.2868ZM61.7576 33.0892C62.6942 32.8952 64.551 32.4334 65.3191 31.6552C65.6182 31.7882 65.8971 31.9615 66.1479 32.1701C66.1175 32.3664 65.7639 33.2924 61.9754 34.1237C61.8437 34.1525 61.7059 34.1318 61.589 34.0655C61.472 33.9993 61.3844 33.8924 61.3432 33.7658C61.3204 33.6945 61.3132 33.6192 61.3222 33.5449C61.3312 33.4706 61.3561 33.3991 61.3953 33.3351C61.4346 33.2711 61.4871 33.216 61.5496 33.1736C61.6121 33.1312 61.683 33.1024 61.7576 33.0892Z" fill="url(#paint15_linear_387_2)"/>
<path id="Vector_15" d="M17.2949 45.7597C17.2949 45.7597 11.207 52.1469 3.93664 53.3292L11.2117 46.2354C11.2117 46.2354 13.5298 45.1339 17.2949 45.7597Z" fill="url(#paint16_radial_387_2)"/>
<path id="Vector_16" d="M17.0397 45.7343L17.2949 45.7712C17.2949 45.7712 11.207 52.1584 3.93664 53.3407L4.07244 53.2252C11.0946 51.8905 16.9156 45.8428 17.0397 45.7343Z" fill="url(#paint17_radial_387_2)"/>
<path id="Vector_17" d="M13.1528 38.0609C13.3635 38.2109 13.5813 38.3564 13.8107 38.5042C14.0027 38.6266 14.1901 38.7351 14.3774 38.8483L11.9282 39.541L13.1528 38.0609ZM14.827 39.1023C15.9415 39.7265 17.143 40.1855 18.3931 40.4647L11.5816 42.0049L14.827 39.1023Z" fill="url(#paint18_radial_387_2)"/>
</g>
</g>
<defs>
<radialGradient id="paint0_radial_387_2" cx="0" cy="0" r="1" gradientUnits="userSpaceOnUse" gradientTransform="translate(-14.2364 -27.6232) rotate(-164.982) scale(100.96 88.3398)">
<stop stop-color="#1FA2FF"/>
<stop offset="0.46" stop-color="#6EC4FF"/>
<stop offset="1" stop-color="#C6E9FF"/>
</radialGradient>
<radialGradient id="paint1_radial_387_2" cx="0" cy="0" r="1" gradientUnits="userSpaceOnUse" gradientTransform="translate(-14.2371 -27.6203) rotate(-164.982) scale(102.071 87.3784)">
<stop stop-color="#1B0275"/>
<stop offset="0.35" stop-color="#1134A7"/>
<stop offset="1" stop-color="#008CFF"/>
</radialGradient>
<radialGradient id="paint2_radial_387_2" cx="0" cy="0" r="1" gradientUnits="userSpaceOnUse" gradientTransform="translate(-13.712 -28.8155) rotate(-170.205) scale(104.222 86.0843)">
<stop stop-color="#1B0275"/>
<stop offset="0.38" stop-color="#113AAB"/>
<stop offset="1" stop-color="#0092FF"/>
</radialGradient>
<radialGradient id="paint3_radial_387_2" cx="0" cy="0" r="1" gradientUnits="userSpaceOnUse" gradientTransform="translate(16.7782 36.5921) rotate(5.07214) scale(5.7851 4.28114)">
<stop stop-color="white"/>
<stop offset="0.54" stop-color="white"/>
<stop offset="0.56" stop-color="#F8FCFF"/>
<stop offset="0.76" stop-color="#CCEAFF"/>
<stop offset="0.91" stop-color="#B0DEFF"/>
<stop offset="1" stop-color="#A6DAFF"/>
</radialGradient>
<radialGradient id="paint4_radial_387_2" cx="0" cy="0" r="1" gradientUnits="userSpaceOnUse" gradientTransform="translate(-8302.32 -13000.4) rotate(54.8218) scale(988.599 490.756)">
<stop stop-color="white"/>
<stop offset="0.54" stop-color="white"/>
<stop offset="0.56" stop-color="#F8FCFF"/>
<stop offset="0.76" stop-color="#CCEAFF"/>
<stop offset="0.91" stop-color="#B0DEFF"/>
<stop offset="1" stop-color="#A6DAFF"/>
</radialGradient>
<radialGradient id="paint5_radial_387_2" cx="0" cy="0" r="1" gradientUnits="userSpaceOnUse" gradientTransform="translate(-218.156 1611.77) rotate(82.993) scale(384.007 390.006)">
<stop stop-color="white"/>
<stop offset="0.54" stop-color="white"/>
<stop offset="0.56" stop-color="#F8FCFF"/>
<stop offset="0.76" stop-color="#CCEAFF"/>
<stop offset="0.91" stop-color="#B0DEFF"/>
<stop offset="1" stop-color="#A6DAFF"/>
</radialGradient>
<radialGradient id="paint6_radial_387_2" cx="0" cy="0" r="1" gradientUnits="userSpaceOnUse" gradientTransform="translate(37.459 36.4174) rotate(-11.9326) scale(41.82 8.89153)">
<stop stop-color="#1A33FF"/>
<stop offset="0.54" stop-color="#1A25FF"/>
<stop offset="0.69" stop-color="#1A5CFF"/>
<stop offset="0.83" stop-color="#1A88FF"/>
<stop offset="0.94" stop-color="#1AA4FF"/>
<stop offset="1" stop-color="#1AAEFF"/>
</radialGradient>
<radialGradient id="paint7_radial_387_2" cx="0" cy="0" r="1" gradientUnits="userSpaceOnUse" gradientTransform="translate(-19895.8 4580.56) rotate(166.354) scale(13723.6 753.379)">
<stop stop-color="white"/>
<stop offset="0.54" stop-color="white"/>
<stop offset="0.56" stop-color="#F8FCFF"/>
<stop offset="0.76" stop-color="#CCEAFF"/>
<stop offset="0.91" stop-color="#B0DEFF"/>
<stop offset="1" stop-color="#A6DAFF"/>
</radialGradient>
<radialGradient id="paint8_radial_387_2" cx="0" cy="0" r="1" gradientUnits="userSpaceOnUse" gradientTransform="translate(-19895.8 4580.56) rotate(166.354) scale(13723.6 753.379)">
<stop stop-color="white"/>
<stop offset="0.54" stop-color="white"/>
<stop offset="0.56" stop-color="#F8FCFF"/>
<stop offset="0.76" stop-color="#CCEAFF"/>
<stop offset="0.91" stop-color="#B0DEFF"/>
<stop offset="1" stop-color="#A6DAFF"/>
</radialGradient>
<radialGradient id="paint9_radial_387_2" cx="0" cy="0" r="1" gradientUnits="userSpaceOnUse" gradientTransform="translate(61.6625 31.5737) rotate(177.177) scale(5.63816 4.72591)">
<stop stop-color="white"/>
<stop offset="1" stop-color="white" stop-opacity="0"/>
</radialGradient>
<radialGradient id="paint10_radial_387_2" cx="0" cy="0" r="1" gradientUnits="userSpaceOnUse" gradientTransform="translate(-18614.6 4385.79) rotate(166.354) scale(10750.4 546.693)">
<stop stop-color="white"/>
<stop offset="1" stop-color="white" stop-opacity="0"/>
</radialGradient>
<radialGradient id="paint11_radial_387_2" cx="0" cy="0" r="1" gradientUnits="userSpaceOnUse" gradientTransform="translate(36.4817 39.261) rotate(-167.944) scale(40.7078 8.84294)">
<stop stop-color="#00B4FF" stop-opacity="0.2"/>
<stop offset="0.2" stop-color="#00B0FF" stop-opacity="0.37"/>
<stop offset="0.23" stop-color="#37C4FF" stop-opacity="0.41"/>
<stop offset="0.29" stop-color="#AEEEFF" stop-opacity="0.5"/>
<stop offset="0.32" stop-color="#DDFFFF" stop-opacity="0.54"/>
<stop offset="0.36" stop-color="#7CDBFF" stop-opacity="0.58"/>
<stop offset="0.4" stop-color="#23BAFF" stop-opacity="0.63"/>
<stop offset="0.42" stop-color="#00ADFF" stop-opacity="0.64"/>
<stop offset="0.48" stop-color="#00ADFF" stop-opacity="0.69"/>
<stop offset="0.54" stop-color="#00ADFF" stop-opacity="0.71"/>
<stop offset="0.55" stop-color="#18B6FF" stop-opacity="0.73"/>
<stop offset="0.61" stop-color="#81DDFF" stop-opacity="0.84"/>
<stop offset="0.65" stop-color="#C3F5FF" stop-opacity="0.9"/>
<stop offset="0.67" stop-color="#DDFFFF" stop-opacity="0.93"/>
<stop offset="0.72" stop-color="#87F6FF" stop-opacity="0.96"/>
<stop offset="0.78" stop-color="#3EEFFF" stop-opacity="0.98"/>
<stop offset="0.82" stop-color="#11EBFF" stop-opacity="0.99"/>
<stop offset="0.84" stop-color="#20ECFF" stop-opacity="0.99"/>
<stop offset="0.86" stop-color="#70F4FF"/>
<stop offset="0.88" stop-color="#ABFAFF"/>
<stop offset="0.89" stop-color="#CFFEFF"/>
<stop offset="0.9" stop-color="#DDFFFF"/>
<stop offset="0.93" stop-color="#91FFFF"/>
<stop offset="0.95" stop-color="#53FFFF"/>
<stop offset="0.97" stop-color="#26FFFF"/>
<stop offset="0.99" stop-color="#0AFFFF"/>
<stop offset="1" stop-color="#00FFFF"/>
</radialGradient>
<radialGradient id="paint12_radial_387_2" cx="0" cy="0" r="1" gradientUnits="userSpaceOnUse" gradientTransform="translate(-32485.5 32587.7) rotate(-44.6018) scale(5184.24 1158.71)">
<stop stop-color="white"/>
<stop offset="0.54" stop-color="white"/>
<stop offset="0.56" stop-color="#F8FCFF"/>
<stop offset="0.76" stop-color="#CCEAFF"/>
<stop offset="0.91" stop-color="#B0DEFF"/>
<stop offset="1" stop-color="#A6DAFF"/>
</radialGradient>
<radialGradient id="paint13_radial_387_2" cx="0" cy="0" r="1" gradientUnits="userSpaceOnUse" gradientTransform="translate(-4531.27 -5255.54) rotate(-135.398) scale(1376.09 1671.34)">
<stop stop-color="white"/>
<stop offset="0.54" stop-color="white"/>
<stop offset="0.56" stop-color="#F8FCFF"/>
<stop offset="0.76" stop-color="#CCEAFF"/>
<stop offset="0.91" stop-color="#B0DEFF"/>
<stop offset="1" stop-color="#A6DAFF"/>
</radialGradient>
<radialGradient id="paint14_radial_387_2" cx="0" cy="0" r="1" gradientUnits="userSpaceOnUse" gradientTransform="translate(-25158.5 -11169.5) rotate(22.6879) scale(1230.56 555.589)">
<stop stop-color="white"/>
<stop offset="0.54" stop-color="white"/>
<stop offset="0.56" stop-color="#F8FCFF"/>
<stop offset="0.76" stop-color="#CCEAFF"/>
<stop offset="0.91" stop-color="#B0DEFF"/>
<stop offset="1" stop-color="#A6DAFF"/>
</radialGradient>
<linearGradient id="paint15_linear_387_2" x1="47.0553" y1="38.622" x2="46.4809" y2="35.4371" gradientUnits="userSpaceOnUse">
<stop stop-color="#1A33FF"/>
<stop offset="1" stop-color="#1AAEFF"/>
</linearGradient>
<radialGradient id="paint16_radial_387_2" cx="0" cy="0" r="1" gradientUnits="userSpaceOnUse" gradientTransform="translate(-20905 -1828.07) rotate(5.07214) scale(943.584 411.416)">
<stop stop-color="white"/>
<stop offset="0.54" stop-color="white"/>
<stop offset="0.56" stop-color="#F8FCFF"/>
<stop offset="0.76" stop-color="#CCEAFF"/>
<stop offset="0.91" stop-color="#B0DEFF"/>
<stop offset="1" stop-color="#A6DAFF"/>
</radialGradient>
<radialGradient id="paint17_radial_387_2" cx="0" cy="0" r="1" gradientUnits="userSpaceOnUse" gradientTransform="translate(-5134.86 490.413) rotate(174.881) scale(939.383 406.616)">
<stop stop-color="white"/>
<stop offset="0.54" stop-color="white"/>
<stop offset="0.56" stop-color="#F8FCFF"/>
<stop offset="0.76" stop-color="#CCEAFF"/>
<stop offset="0.91" stop-color="#B0DEFF"/>
<stop offset="1" stop-color="#A6DAFF"/>
</radialGradient>
<radialGradient id="paint18_radial_387_2" cx="0" cy="0" r="1" gradientUnits="userSpaceOnUse" gradientTransform="translate(-2834.03 -71.1902) rotate(180) scale(215.241 124.633)">
<stop stop-color="#1A33FF"/>
<stop offset="0.54" stop-color="#1A25FF"/>
<stop offset="0.69" stop-color="#1A5CFF"/>
<stop offset="0.83" stop-color="#1A88FF"/>
<stop offset="0.94" stop-color="#1AA4FF"/>
<stop offset="1" stop-color="#1AAEFF"/>
</radialGradient>
<clipPath id="clip0_387_2">
<rect width="1280" height="720" fill="white" transform="translate(-676 -329)"/>
</clipPath>
<clipPath id="clip1_387_2">
<rect width="66" height="37" fill="white" transform="matrix(-1 0 0 1 69 26)"/>
</clipPath>
</defs>
</svg>
