<svg xmlns="http://www.w3.org/2000/svg" width="21" height="21" viewBox="0 0 21 21">
    <g transform="translate(-.5 -.5)">
        <circle data-name="Ellipse 1567" cx="3" cy="3" r="3" transform="translate(8 8)" style="fill:none;stroke:#555;stroke-linecap:round;stroke-linejoin:round"/>
        <path data-name="Path 14670" d="M17.727 13.727a1.5 1.5 0 0 0 .3 1.655l.055.055a1.819 1.819 0 1 1-2.573 2.573l-.055-.055a1.512 1.512 0 0 0-2.564 1.073v.155a1.818 1.818 0 1 1-3.636 0V19.1a1.5 1.5 0 0 0-.982-1.373 1.5 1.5 0 0 0-1.655.3l-.055.055a1.819 1.819 0 1 1-2.573-2.573l.055-.055a1.512 1.512 0 0 0-1.073-2.564h-.153a1.818 1.818 0 0 1 0-3.636H2.9a1.5 1.5 0 0 0 1.373-.982 1.5 1.5 0 0 0-.3-1.655l-.055-.055a1.819 1.819 0 1 1 2.573-2.571l.055.055a1.5 1.5 0 0 0 1.655.3h.073a1.5 1.5 0 0 0 .909-1.373v-.155a1.818 1.818 0 0 1 3.636 0V2.9a1.512 1.512 0 0 0 2.564 1.073l.055-.055a1.819 1.819 0 1 1 2.573 2.573l-.055.055a1.5 1.5 0 0 0-.3 1.655v.073a1.5 1.5 0 0 0 1.373.909h.155a1.818 1.818 0 1 1 0 3.636H19.1a1.5 1.5 0 0 0-1.373.908z" style="fill:none;stroke:#555;stroke-linecap:round;stroke-linejoin:round"/>
    </g>
</svg>
