<svg width="15" height="15" viewBox="0 0 15 15" fill="none" xmlns="http://www.w3.org/2000/svg">
<path d="M7.5 0.234375C3.48759 0.234375 0.234375 3.48876 0.234375 7.5C0.234375 11.5136 3.48759 14.7656 7.5 14.7656C11.5124 14.7656 14.7656 11.5136 14.7656 7.5C14.7656 3.48876 11.5124 0.234375 7.5 0.234375ZM7.5 13.3594C4.26176 13.3594 1.64062 10.7393 1.64062 7.5C1.64062 4.26284 4.26188 1.64062 7.5 1.64062C10.737 1.64062 13.3594 4.26185 13.3594 7.5C13.3594 10.7382 10.7393 13.3594 7.5 13.3594ZM10.6419 5.88281C10.6419 7.84723 8.5202 7.87746 8.5202 8.60341V8.78906C8.5202 8.98321 8.36279 9.14062 8.16864 9.14062H6.83133C6.63718 9.14062 6.47977 8.98321 6.47977 8.78906V8.53538C6.47977 7.48816 7.27371 7.06954 7.87368 6.73315C8.38816 6.44473 8.70349 6.24855 8.70349 5.86658C8.70349 5.36133 8.05898 5.02597 7.53794 5.02597C6.85857 5.02597 6.54495 5.34756 6.10409 5.90396C5.98523 6.05397 5.76835 6.08183 5.61583 5.96619L4.80067 5.34809C4.65105 5.23465 4.61754 5.02389 4.72321 4.8687C5.41541 3.85228 6.29707 3.28125 7.66975 3.28125C9.10737 3.28125 10.6419 4.40344 10.6419 5.88281ZM8.73047 10.7812C8.73047 11.4597 8.17849 12.0117 7.5 12.0117C6.82151 12.0117 6.26953 11.4597 6.26953 10.7812C6.26953 10.1028 6.82151 9.55078 7.5 9.55078C8.17849 9.55078 8.73047 10.1028 8.73047 10.7812Z" fill="white"/>
</svg>
