<svg id="lock" xmlns="http://www.w3.org/2000/svg" xmlns:xlink="http://www.w3.org/1999/xlink" width="36.792" height="45.727" viewBox="0 0 36.792 45.727">
  <defs>
    <linearGradient id="linear-gradient" x1="0.5" x2="0.5" y2="1" gradientUnits="objectBoundingBox">
      <stop offset="0" stop-color="#645757"/>
      <stop offset="1" stop-color="#565656"/>
    </linearGradient>
    <clipPath id="clip-path">
      <rect id="Rectangle_48" data-name="Rectangle 48" width="36.792" height="45.727" fill="url(#linear-gradient)"/>
    </clipPath>
  </defs>
  <g id="Group_946" data-name="Group 946" clip-path="url(#clip-path)">
    <path id="Path_208" data-name="Path 208" d="M32.57,15.711H31.005V12.945A12.8,12.8,0,0,0,18.4,0,12.794,12.794,0,0,0,5.787,12.945v2.766H4.221A4.218,4.218,0,0,0,0,19.925V41.514a4.218,4.218,0,0,0,4.221,4.214H32.57a4.219,4.219,0,0,0,4.223-4.214V19.925a4.219,4.219,0,0,0-4.223-4.214M19.854,33.044v4.064a1.458,1.458,0,0,1-2.916,0V33.044a3.494,3.494,0,1,1,2.916,0m8.235-17.333H8.7V12.945A9.879,9.879,0,0,1,18.4,2.91a9.88,9.88,0,0,1,9.693,10.034Z" transform="translate(0 -0.001)" fill="#030303"/>
  </g>
</svg>
