<svg id="Component_108_2" data-name="Component 108 – 2" xmlns="http://www.w3.org/2000/svg" xmlns:xlink="http://www.w3.org/1999/xlink" width="48" height="48" viewBox="0 0 48 48">
  <defs>
    <clipPath id="clip-path">
      <path id="Path_204" data-name="Path 204" d="M24-63A24,24,0,0,1,48-39,24,24,0,0,1,24-15,24,24,0,0,1,0-39,24,24,0,0,1,24-63Z" transform="translate(0 63)" fill="#00a445" clip-rule="evenodd"/>
    </clipPath>
    <clipPath id="clip-path-2">
      <path id="Path_203" data-name="Path 203" d="M-939,623.094H158.142V-631H-939Z" transform="translate(939 631)" fill="#00a445"/>
    </clipPath>
    <clipPath id="clip-path-3">
      <path id="Path_207" data-name="Path 207" d="M25.5-25,17-33.171l2.381-2.289L25.5-29.573,38.426-42l2.381,2.289L25.5-25Z" transform="translate(-17 42)" fill="none" clip-rule="evenodd"/>
    </clipPath>
    <clipPath id="clip-path-4">
      <path id="Path_206" data-name="Path 206" d="M-939,701.851H227.042V-631H-939Z" transform="translate(939 631)" fill="none"/>
    </clipPath>
  </defs>
  <g id="Group_935" data-name="Group 935" clip-path="url(#clip-path)">
    <g id="Group_934" data-name="Group 934" transform="translate(-715.428 -432.762)" clip-path="url(#clip-path-2)">
      <path id="Path_202" data-name="Path 202" d="M-5-68H50.619v55.619H-5Z" transform="translate(716.618 496.952)" fill="#00a445"/>
    </g>
  </g>
  <g id="Group_937" data-name="Group 937" transform="translate(12.292 15.498)" clip-path="url(#clip-path-3)">
    <g id="Group_936" data-name="Group 936" transform="translate(-774.122 -476.943)" clip-path="url(#clip-path-4)">
      <path id="Path_205" data-name="Path 205" d="M12-47H43.9v25.1H12Z" transform="translate(758.073 519.895)" fill="#fff"/>
    </g>
  </g>
</svg>
