<svg id="lock" xmlns="http://www.w3.org/2000/svg" xmlns:xlink="http://www.w3.org/1999/xlink" width="27.665" height="34.454" viewBox="0 0 27.665 34.454">
  <defs>
    <clipPath id="clip-path">
      <rect id="Rectangle_48" data-name="Rectangle 48" width="27.665" height="34.454" fill="#f8f7f7"/>
    </clipPath>
  </defs>
  <g id="Group_946" data-name="Group 946" clip-path="url(#clip-path)">
    <path id="Path_208" data-name="Path 208" d="M24.49,11.838H23.314V9.753A9.631,9.631,0,0,0,13.832,0a9.631,9.631,0,0,0-9.48,9.753v2.084H3.174A3.175,3.175,0,0,0,0,15.013V31.28a3.175,3.175,0,0,0,3.174,3.175H24.49a3.176,3.176,0,0,0,3.175-3.175V15.013a3.176,3.176,0,0,0-3.175-3.175M14.928,24.9V27.96a1.1,1.1,0,0,1-2.193,0V24.9a2.627,2.627,0,1,1,2.193,0m6.192-13.06H6.544V9.753a7.437,7.437,0,0,1,7.288-7.561,7.437,7.437,0,0,1,7.289,7.561Z" transform="translate(0 -0.001)" fill="#f8f7f7"/>
  </g>
</svg>
