<svg width="74" height="32" viewBox="0 0 74 32" fill="none" xmlns="http://www.w3.org/2000/svg">
<mask id="mask0_4579_2159" style="mask-type:alpha" maskUnits="userSpaceOnUse" x="0" y="0" width="74" height="32">
<rect width="74" height="32" fill="#C4C4C4"/>
</mask>
<g mask="url(#mask0_4579_2159)">
</g>
<g clip-path="url(#clip0_4579_2159)">
<path fill-rule="evenodd" clip-rule="evenodd" d="M28.318 28.8913V25.0101H29.6685V28.8913H28.318ZM31.7847 26.6791H32.3869C32.5992 26.6791 32.7454 26.6529 32.8254 26.6005C32.9055 26.5481 32.9473 26.4532 32.9473 26.3191C32.9473 26.1849 32.9055 26.0867 32.8254 26.0344C32.7454 25.982 32.5888 25.9558 32.3556 25.9558H31.7847V26.6823V26.6791ZM30.476 28.8945V25.0133H32.453C33.0726 25.0133 33.5146 25.1017 33.7791 25.2751C34.0437 25.4486 34.1759 25.7333 34.1759 26.1325C34.1759 26.3714 34.1202 26.5645 34.0123 26.7216C33.9044 26.8787 33.7374 27.003 33.5111 27.0947C33.7408 27.1405 33.9079 27.2321 34.0123 27.3663C34.1168 27.5004 34.1724 27.6968 34.1794 27.9586L34.2003 28.4986V28.5116C34.2073 28.6655 34.2455 28.7473 34.3186 28.7538V28.8978H32.9821C32.9577 28.8029 32.9403 28.7244 32.9264 28.6524C32.9125 28.5836 32.909 28.528 32.909 28.492V28.1059C32.909 27.9062 32.8672 27.7655 32.7837 27.6837C32.7001 27.6019 32.554 27.5626 32.3451 27.5626H31.7813V28.9011H30.4725L30.476 28.8945ZM37.5347 27.3859H38.7912C38.753 27.8964 38.5615 28.2924 38.2169 28.5771C37.8724 28.8585 37.4025 28.9992 36.8142 28.9992C36.1529 28.9992 35.6308 28.816 35.2514 28.4527C34.8721 28.0895 34.6806 27.5888 34.6806 26.9539C34.6806 26.3191 34.8686 25.8217 35.2445 25.4584C35.6204 25.0919 36.132 24.9119 36.7794 24.9119C37.3781 24.9119 37.848 25.0493 38.1891 25.321C38.5302 25.5926 38.7251 25.9787 38.7634 26.4827H37.493C37.4721 26.2831 37.406 26.1358 37.2876 26.0344C37.1693 25.9329 37.0057 25.8838 36.7899 25.8838C36.5288 25.8838 36.3339 25.9722 36.2051 26.1522C36.0764 26.3322 36.0102 26.6005 36.0102 26.9605C36.0102 27.3205 36.0798 27.5823 36.2191 27.7622C36.3583 27.9422 36.5602 28.0339 36.8282 28.0339C37.0335 28.0339 37.1971 27.9782 37.3155 27.867C37.4373 27.7557 37.5069 27.5986 37.5278 27.3925L37.5347 27.3859ZM40.2183 28.8913V26.0344H39.0279V25.0101H42.707V26.0344H41.5444V28.8913H40.2183ZM45.836 27.3859H47.0925C47.0543 27.8964 46.8628 28.2924 46.5182 28.5771C46.1737 28.8585 45.7038 28.9992 45.1155 28.9992C44.4542 28.9992 43.9321 28.816 43.5527 28.4527C43.1734 28.0895 42.9819 27.5888 42.9819 26.9539C42.9819 26.3191 43.1699 25.8217 43.5458 25.4584C43.9217 25.0919 44.4333 24.9119 45.0807 24.9119C45.6794 24.9119 46.1493 25.0493 46.4904 25.321C46.8315 25.5926 47.0264 25.9787 47.0647 26.4827H45.7943C45.7734 26.2831 45.7073 26.1358 45.5889 26.0344C45.4706 25.9329 45.307 25.8838 45.0912 25.8838C44.8301 25.8838 44.6352 25.9722 44.5064 26.1522C44.3777 26.3322 44.3115 26.6005 44.3115 26.9605C44.3115 27.3205 44.3811 27.5823 44.5204 27.7622C44.6596 27.9422 44.8615 28.0339 45.1295 28.0339C45.3348 28.0339 45.4984 27.9782 45.6168 27.867C45.7386 27.7557 45.8082 27.5986 45.8291 27.3925L45.836 27.3859ZM47.6982 13.9065C49.1078 18.8021 46.7758 20.9227 42.425 20.0981C42.063 20.9751 41.6941 21.8456 41.1093 22.6015C48.0567 24.2443 50.8621 19.4436 47.6982 13.9065ZM33.988 11.2198H36.95C37.761 11.4096 38.2483 11.8088 38.4641 12.2702C38.5789 12.5189 38.6207 12.7906 38.5928 13.0589C38.565 13.3305 38.4641 13.5989 38.297 13.841C37.942 14.3581 37.2876 14.7442 36.3966 14.7606C35.8745 14.6755 35.6134 15.1991 36.0555 15.5984L39.021 18.1869H33.988C33.8383 18.1869 33.713 18.0724 33.713 17.9284V11.4783C33.713 11.3376 33.8348 11.2198 33.988 11.2198ZM38.9479 11.2198H41.0119C41.1616 11.2198 41.2869 11.3343 41.2869 11.4783V17.9284C41.2869 18.0691 41.165 18.1869 41.0119 18.1869H40.5316L37.5139 15.5558C38.2378 15.3268 38.7982 14.8915 39.1602 14.3646C39.4143 13.9948 39.5674 13.5792 39.6127 13.1538C39.6579 12.7251 39.5918 12.2899 39.4038 11.8874C39.2902 11.6446 39.1363 11.4204 38.9479 11.223V11.2198ZM31.7743 6.93607C35.5786 3.34286 38.6973 4.17735 40.1139 8.1338C41.1024 7.98981 42.0909 7.85564 43.0759 7.95381C41.1163 1.47754 35.2897 1.59207 31.7743 6.93607ZM33.2048 23.2855C27.9908 21.9863 27.2007 19.0279 30.1384 15.8962C29.5119 15.1631 28.8958 14.4268 28.4886 13.5727C23.5043 18.4062 26.522 23.0957 33.2048 23.2855Z" fill="#2E3192"/>
<path d="M47.6982 13.9065C49.1078 18.8021 46.7758 20.9227 42.425 20.0981C42.063 20.9751 41.6941 21.8456 41.1093 22.6015C48.0567 24.2443 50.8621 19.4436 47.6982 13.9065ZM33.988 11.2198H36.95C37.761 11.4096 38.2483 11.8088 38.4641 12.2702C38.5789 12.5189 38.6207 12.7906 38.5928 13.0589C38.565 13.3305 38.4641 13.5989 38.297 13.841C37.942 14.3581 37.2876 14.7442 36.3966 14.7606C35.8745 14.6755 35.6134 15.1991 36.0555 15.5984L39.021 18.1869H33.988C33.8383 18.1869 33.713 18.0724 33.713 17.9284V11.4783C33.713 11.3376 33.8348 11.2198 33.988 11.2198V11.2198ZM38.9479 11.2198H41.0119C41.1616 11.2198 41.2869 11.3343 41.2869 11.4783V17.9284C41.2869 18.0691 41.165 18.1869 41.0119 18.1869H40.5316L37.5139 15.5558C38.2378 15.3267 38.7982 14.8915 39.1602 14.3646C39.4143 13.9948 39.5674 13.5792 39.6127 13.1538C39.6579 12.7251 39.5918 12.2899 39.4038 11.8874C39.2902 11.6446 39.1363 11.4204 38.9479 11.223V11.2198ZM31.7743 6.93606C35.5786 3.34286 38.6973 4.17735 40.1139 8.1338C41.1024 7.98981 42.0909 7.85564 43.0759 7.95381C41.1163 1.47754 35.2897 1.59208 31.7743 6.93606ZM33.2048 23.2855C27.9908 21.9863 27.2007 19.0279 30.1384 15.8962C29.5119 15.1631 28.8958 14.4268 28.4886 13.5727C23.5043 18.4062 26.522 23.0957 33.2048 23.2855Z" stroke="#231F20" stroke-width="0.04" stroke-miterlimit="2.61"/>
<path fill-rule="evenodd" clip-rule="evenodd" d="M27.3296 11.5313C32.8533 8.45189 39.3865 7.3687 45.9057 8.20318C45.944 14.2671 43.9148 19.4998 39.825 23.9014C34.3326 21.2703 30.1663 17.2156 27.3296 11.5313ZM28.5095 13.5668C32.6863 10.1503 38.0499 8.28172 43.7164 8.03956C44.7467 13.1774 43.8904 17.9127 41.1442 22.2389C36.052 20.8056 31.8509 17.9716 28.5095 13.5668Z" fill="#D1D3D4"/>
</g>
<defs>
<clipPath id="clip0_4579_2159">
<rect width="23" height="26" fill="white" transform="translate(26 3)"/>
</clipPath>
</defs>
</svg>
