<svg width="100" height="40" viewBox="0 0 100 40" fill="none" xmlns="http://www.w3.org/2000/svg">
<g clip-path="url(#clip0_97_399)">
<path fill-rule="evenodd" clip-rule="evenodd" d="M11.5596 20.0389C11.5596 22.5052 13.0666 24.8645 15.7881 24.8645C18.4828 24.8645 19.964 22.5585 19.964 20.0389C19.964 16.7953 17.6126 15.4285 15.7623 15.4285C13.6208 15.4285 11.5596 17.0642 11.5596 20.0389ZM19.91 14.5585H20.9666V25.5881H19.91V23.6319C18.8261 25.3208 17.1087 25.8841 15.7083 25.8841C12.8813 25.8841 10.45 23.7128 10.45 20.1209C10.45 16.7436 12.5637 14.4115 15.7083 14.4115C17.3989 14.4115 18.8801 15.0819 19.91 16.5557V14.5585Z" fill="#00AFB5"/>
<path fill-rule="evenodd" clip-rule="evenodd" d="M11.5596 20.0389C11.5596 22.5052 13.0666 24.8645 15.7881 24.8645C18.4828 24.8645 19.964 22.5585 19.964 20.0389C19.964 16.7953 17.6126 15.4285 15.7623 15.4285C13.6208 15.4285 11.5596 17.0642 11.5596 20.0389ZM19.91 14.5585H20.9666V25.5881H19.91V23.6319C18.8261 25.3208 17.1087 25.8841 15.7083 25.8841C12.8813 25.8841 10.45 23.7128 10.45 20.1209C10.45 16.7436 12.5637 14.4115 15.7083 14.4115C17.3989 14.4115 18.8801 15.0819 19.91 16.5557V14.5585Z" stroke="#00AFB5" stroke-width="0.281572"/>
<path fill-rule="evenodd" clip-rule="evenodd" d="M43.1082 20.0389C43.1082 22.5052 44.6151 24.8645 47.3366 24.8645C50.0314 24.8645 51.5126 22.5585 51.5126 20.0389C51.5126 16.7953 49.1611 15.4285 47.3109 15.4285C45.1704 15.4285 43.1082 17.0642 43.1082 20.0389ZM51.4596 14.5585H52.5162V25.5881H51.4596V23.6319C50.3757 25.3208 48.6583 25.8841 47.2579 25.8841C44.4309 25.8841 41.9996 23.7128 41.9996 20.1209C41.9996 16.7436 44.1133 14.4115 47.2579 14.4115C48.9486 14.4115 50.4298 15.0819 51.4596 16.5557V14.5585Z" fill="#00AFB5"/>
<path fill-rule="evenodd" clip-rule="evenodd" d="M43.1082 20.0389C43.1082 22.5052 44.6151 24.8645 47.3366 24.8645C50.0314 24.8645 51.5126 22.5585 51.5126 20.0389C51.5126 16.7953 49.1611 15.4285 47.3109 15.4285C45.1704 15.4285 43.1082 17.0642 43.1082 20.0389ZM51.4596 14.5585H52.5162V25.5881H51.4596V23.6319C50.3757 25.3208 48.6583 25.8841 47.2579 25.8841C44.4309 25.8841 41.9996 23.7128 41.9996 20.1209C41.9996 16.7436 44.1133 14.4115 47.2579 14.4115C48.9486 14.4115 50.4298 15.0819 51.4596 16.5557V14.5585Z" stroke="#00AFB5" stroke-width="0.281572"/>
<path fill-rule="evenodd" clip-rule="evenodd" d="M38.515 15.481V25.4061H37.35V15.481H33.3952V14.4115H42.4777V15.48H38.515V15.481Z" fill="#00AFB5"/>
<path fill-rule="evenodd" clip-rule="evenodd" d="M38.515 15.481V25.4061H37.35V15.481H33.3952V14.4115H42.4777V15.48H38.515V15.481Z" stroke="#00AFB5" stroke-width="0.281572"/>
<path fill-rule="evenodd" clip-rule="evenodd" d="M33.3952 25.4061H32.2856V20.0226C32.2856 17.0566 30.2249 15.4281 28.0844 15.4281C26.2342 15.4281 23.8828 16.7902 23.8828 20.0226L23.9358 25.4061H22.8787V14.4115H23.9358V16.5482C24.9666 15.0795 26.4463 14.4115 28.1369 14.4115C31.2815 14.4115 33.3952 16.7355 33.3952 20.1017V25.4061Z" fill="#00AFB5"/>
<path fill-rule="evenodd" clip-rule="evenodd" d="M33.3952 25.4061H32.2856V20.0226C32.2856 17.0566 30.2249 15.4281 28.0844 15.4281C26.2342 15.4281 23.8828 16.7902 23.8828 20.0226L23.9358 25.4061H22.8787V14.4115H23.9358V16.5482C24.9666 15.0795 26.4463 14.4115 28.1369 14.4115C31.2815 14.4115 33.3952 16.7355 33.3952 20.1017V25.4061Z" stroke="#00AFB5" stroke-width="0.281572"/>
<path fill-rule="evenodd" clip-rule="evenodd" d="M91.7142 25.4061H90.6046V20.0226C90.6046 17.0566 88.5439 15.4281 86.4035 15.4281C84.5533 15.4281 82.2018 16.7902 82.2018 20.0226L82.2548 25.4061H81.1977V14.4115H82.2548V16.5482C83.2857 15.0795 84.7653 14.4115 86.456 14.4115C89.6005 14.4115 91.7142 16.7355 91.7142 20.1017V25.4061Z" fill="#00AFB5"/>
<path fill-rule="evenodd" clip-rule="evenodd" d="M91.7142 25.4061H90.6046V20.0226C90.6046 17.0566 88.5439 15.4281 86.4035 15.4281C84.5533 15.4281 82.2018 16.7902 82.2018 20.0226L82.2548 25.4061H81.1977V14.4115H82.2548V16.5482C83.2857 15.0795 84.7653 14.4115 86.456 14.4115C89.6005 14.4115 91.7142 16.7355 91.7142 20.1017V25.4061Z" stroke="#00AFB5" stroke-width="0.281572"/>
<path fill-rule="evenodd" clip-rule="evenodd" d="M98.3219 16.6646C97.9549 15.8064 97.223 15.4311 96.4642 15.4311C95.2609 15.4311 94.659 16.3686 94.659 17.1736C94.659 18.2453 95.4963 18.5935 96.5432 19.0226C97.6165 19.4512 98.6109 19.7461 99.2907 20.6304C99.7351 21.1937 99.8407 21.7831 99.8407 22.3996C99.8407 24.8923 98.0084 25.8841 96.3597 25.8841C94.58 25.8841 93.1147 24.8124 92.6703 22.9895L93.6911 22.6674C94.0581 24.115 95.1834 24.8646 96.3613 24.8646C97.722 24.8646 98.7418 23.8722 98.7418 22.4523C98.7418 21.2198 97.983 20.7635 96.3613 20.0932C95.2879 19.638 94.5036 19.2888 94.0326 18.6457C93.7967 18.3236 93.5612 17.8684 93.5612 17.2258C93.5612 15.5642 94.7915 14.4115 96.4132 14.4115C97.6701 14.4115 98.7164 15.0009 99.2128 16.1807L98.3219 16.6646Z" fill="#00AFB5"/>
<path fill-rule="evenodd" clip-rule="evenodd" d="M98.3219 16.6646C97.9549 15.8064 97.223 15.4311 96.4642 15.4311C95.2609 15.4311 94.659 16.3686 94.659 17.1736C94.659 18.2453 95.4963 18.5935 96.5432 19.0226C97.6165 19.4512 98.6109 19.7461 99.2907 20.6304C99.7351 21.1937 99.8407 21.7831 99.8407 22.3996C99.8407 24.8923 98.0084 25.8841 96.3597 25.8841C94.58 25.8841 93.1147 24.8124 92.6703 22.9895L93.6911 22.6674C94.0581 24.115 95.1834 24.8646 96.3613 24.8646C97.722 24.8646 98.7418 23.8722 98.7418 22.4523C98.7418 21.2198 97.983 20.7635 96.3613 20.0932C95.2879 19.638 94.5036 19.2888 94.0326 18.6457C93.7967 18.3236 93.5612 17.8684 93.5612 17.2258C93.5612 15.5642 94.7915 14.4115 96.4132 14.4115C97.6701 14.4115 98.7164 15.0009 99.2128 16.1807L98.3219 16.6646Z" stroke="#00AFB5" stroke-width="0.281572"/>
<path fill-rule="evenodd" clip-rule="evenodd" d="M55.6327 14.4115V24.3366H61.5987V25.4061H54.4283V14.4115H55.6327Z" fill="#00AFB5"/>
<path fill-rule="evenodd" clip-rule="evenodd" d="M55.6327 14.4115V24.3366H61.5987V25.4061H54.4283V14.4115H55.6327Z" stroke="#00AFB5" stroke-width="0.281572"/>
<path fill-rule="evenodd" clip-rule="evenodd" d="M7.7989 18.5164C7.7989 20.761 6.23699 21.8403 3.93434 21.8403H1.60488V15.4807H3.94433C6.14131 15.4807 7.66379 16.464 7.7989 18.5042V18.5164ZM9.01594 18.4708C8.85139 15.7476 6.80898 14.4115 3.89123 14.4115H0.454608H0.440939L0.411499 25.4061H1.57544L1.60488 22.909H3.88177C6.92568 22.909 9.01594 21.455 9.01594 18.4888V18.4708Z" fill="#00AFB5"/>
<path fill-rule="evenodd" clip-rule="evenodd" d="M7.7989 18.5164C7.7989 20.761 6.23699 21.8403 3.93434 21.8403H1.60488V15.4807H3.94433C6.14131 15.4807 7.66379 16.464 7.7989 18.5042V18.5164ZM9.01594 18.4708C8.85139 15.7476 6.80898 14.4115 3.89123 14.4115H0.454608H0.440939L0.411499 25.4061H1.57544L1.60488 22.909H3.88177C6.92569 22.909 9.01594 21.455 9.01594 18.4888V18.4708Z" stroke="#00AFB5" stroke-width="0.281572"/>
<path fill-rule="evenodd" clip-rule="evenodd" d="M66.8999 24.8653C64.2539 24.8653 62.2551 22.8022 62.2551 20.1473C62.2551 17.4934 64.2539 15.4303 66.8999 15.4303C68.0779 15.4303 69.128 15.8397 69.93 16.5285C69.9246 16.5349 69.9198 16.5413 69.9149 16.5472C69.7328 16.7753 69.5685 17.0179 69.424 17.2743C68.9513 18.1113 68.6838 19.0901 68.6838 20.1473C68.6838 21.2055 68.9513 22.1832 69.4256 23.0213C69.6023 22.8619 69.7629 22.6849 69.9058 22.493C70.01 22.3538 70.1056 22.2046 70.1905 22.05C69.9498 21.4721 69.8182 20.8286 69.8182 20.1473C69.8182 17.4934 71.817 15.4303 74.4641 15.4303C77.1101 15.4303 79.1088 17.4934 79.1088 20.1473C79.1088 22.8006 77.1101 24.8653 74.4641 24.8653C73.285 24.8653 72.2349 24.4554 71.4329 23.7671C71.601 23.5592 71.7541 23.339 71.8895 23.1061C72.3949 22.2493 72.6802 21.2407 72.6802 20.1457C72.6802 19.0512 72.3939 18.0431 71.8895 17.1858C71.5871 17.4567 71.3287 17.7739 71.1257 18.131C71.3964 18.7388 71.5457 19.4201 71.5457 20.1446C71.5457 20.8707 71.3942 21.5504 71.1257 22.1592C70.8404 22.807 69.6415 24.8653 66.8999 24.8653ZM74.463 14.4115C72.9976 14.4115 71.6838 14.9137 70.6814 15.7582C69.6775 14.9126 68.3652 14.4115 66.8999 14.4115C63.6324 14.4115 61.1207 16.9044 61.1207 20.1473C61.1207 23.3897 63.6324 25.8841 66.8999 25.8841C68.3652 25.8841 69.6775 25.3819 70.6814 24.5364C71.6838 25.3819 72.9976 25.8841 74.463 25.8841C77.7299 25.8841 80.2417 23.3907 80.2417 20.1473C80.2433 16.9033 77.7315 14.4115 74.463 14.4115Z" fill="#00AFB5"/>
<path fill-rule="evenodd" clip-rule="evenodd" d="M66.8999 24.8653C64.2539 24.8653 62.2551 22.8022 62.2551 20.1473C62.2551 17.4934 64.2539 15.4303 66.8999 15.4303C68.0779 15.4303 69.128 15.8397 69.93 16.5285C69.9246 16.5349 69.9198 16.5413 69.9149 16.5472C69.7328 16.7753 69.5685 17.0179 69.424 17.2743C68.9513 18.1113 68.6838 19.0901 68.6838 20.1473C68.6838 21.2055 68.9513 22.1832 69.4256 23.0213C69.6023 22.8619 69.7629 22.6849 69.9058 22.493C70.01 22.3538 70.1056 22.2046 70.1905 22.05C69.9498 21.4721 69.8182 20.8286 69.8182 20.1473C69.8182 17.4934 71.817 15.4303 74.4641 15.4303C77.1101 15.4303 79.1088 17.4934 79.1088 20.1473C79.1088 22.8006 77.1101 24.8653 74.4641 24.8653C73.285 24.8653 72.2349 24.4554 71.4329 23.7671C71.601 23.5592 71.7541 23.339 71.8895 23.1061C72.3949 22.2493 72.6802 21.2407 72.6802 20.1457C72.6802 19.0512 72.3939 18.0431 71.8895 17.1858C71.5871 17.4567 71.3287 17.7739 71.1257 18.131C71.3964 18.7388 71.5457 19.4201 71.5457 20.1446C71.5457 20.8707 71.3942 21.5504 71.1257 22.1592C70.8404 22.807 69.6415 24.8653 66.8999 24.8653ZM74.463 14.4115C72.9976 14.4115 71.6838 14.9137 70.6814 15.7582C69.6775 14.9126 68.3652 14.4115 66.8999 14.4115C63.6324 14.4115 61.1207 16.9044 61.1207 20.1473C61.1207 23.3897 63.6324 25.8841 66.8999 25.8841C68.3652 25.8841 69.6775 25.3819 70.6814 24.5364C71.6838 25.3819 72.9976 25.8841 74.463 25.8841C77.7299 25.8841 80.2417 23.3907 80.2417 20.1473C80.2433 16.9033 77.7315 14.4115 74.463 14.4115Z" stroke="#00AFB5" stroke-width="0.281572"/>
</g>
<defs>
<clipPath id="clip0_97_399">
<rect width="100" height="12.3457" fill="white" transform="translate(0 14)"/>
</clipPath>
</defs>
</svg>
