<svg width="100" height="40" viewBox="0 0 100 40" fill="none" xmlns="http://www.w3.org/2000/svg">
<path fill-rule="evenodd" clip-rule="evenodd" d="M63.7333 21.4045C63.7333 20.7379 63.7333 19.2879 63.7333 18.7379V18.5379C63.7333 18.2712 63.9333 18.0545 64.2 18.0545H65.45C65.7 18.0545 65.9166 18.2712 65.9166 18.5379V20.4712V27.1712C65.9166 29.0212 64.5333 30.4045 62.7333 30.4045C60.9833 30.4045 59.6 28.9879 59.6 27.1712V24.4879C59.6 22.7045 61 21.2545 62.7333 21.2545C63.1 21.2545 63.4166 21.2879 63.7333 21.4045ZM79.2333 20.1379C78.9833 20.1379 78.7666 19.9212 78.7666 19.6545V18.5379C78.7666 18.2712 78.9666 18.0545 79.2333 18.0545H80.4833C80.7333 18.0545 80.95 18.2712 80.95 18.5379V19.6545C80.95 19.9212 80.75 20.1379 80.4833 20.1379H79.2333ZM67.5 20.1379C67.25 20.1379 67.0333 19.9212 67.0333 19.6545V18.5379C67.0333 18.2712 67.2333 18.0545 67.5 18.0545H68.75C69 18.0545 69.2166 18.2712 69.2166 18.5379V19.6545C69.2166 19.9212 69.0166 20.1379 68.75 20.1379H67.5ZM70.6166 28.2212C70.8666 28.2212 71.0833 28.4379 71.0833 28.7045V29.9045C71.0833 30.1712 70.8833 30.3879 70.6166 30.3879H70.2166C69.9666 30.3879 69.7333 30.3545 69.5 30.3045C68.05 29.9879 67.05 28.6879 67.05 27.1545V21.8879C67.05 21.6212 67.25 21.4045 67.5166 21.4045H68.7666C69.0166 21.4045 69.2333 21.6212 69.2333 21.8879V27.1545C69.2333 27.7379 69.6666 28.2212 70.2333 28.2212H70.6166ZM82.35 28.2212C82.6 28.2212 82.8166 28.4379 82.8166 28.7045V29.9045C82.8166 30.1712 82.6166 30.3879 82.35 30.3879H81.95C81.7 30.3879 81.4666 30.3545 81.2333 30.3045C79.7833 29.9879 78.7833 28.6879 78.7833 27.1545V21.8879C78.7833 21.6212 78.9833 21.4045 79.25 21.4045H80.5C80.75 21.4045 80.9666 21.6212 80.9666 21.8879V27.1545C80.9666 27.7379 81.3833 28.2212 81.9666 28.2212H82.35ZM99.5333 28.2212C99.7833 28.2212 100 28.4379 100 28.7045V29.9045C100 30.1712 99.8 30.3879 99.5333 30.3879H99.1333C98.8833 30.3879 98.65 30.3545 98.4166 30.3045C96.9666 29.9879 95.9666 28.6879 95.9666 27.1545V18.5212C95.9666 18.2545 96.1666 18.0379 96.4333 18.0379H97.6833C97.9333 18.0379 98.15 18.2545 98.15 18.5212V27.1545C98.15 27.7379 98.5666 28.2212 99.15 28.2212H99.5333ZM86.0166 23.5379V27.1545C86.0166 27.7379 86.4333 28.2212 87 28.2212H87.4C87.65 28.2212 87.8666 28.4379 87.8666 28.7045V29.9045C87.8666 30.1712 87.6666 30.3879 87.4 30.3879H87C86.75 30.3879 86.5166 30.3545 86.2666 30.3045C84.8333 29.9712 83.8333 28.6712 83.8333 27.1545C83.8333 25.9379 83.8333 24.7379 83.8333 23.5212C83.65 23.5212 83.4166 23.5212 83.2833 23.5212H83.2C82.95 23.5212 82.7333 23.3045 82.7333 23.0379V21.8879C82.7333 21.6212 82.95 21.4045 83.2 21.4045C83.4 21.4045 83.6166 21.4045 83.8166 21.4045C83.8166 21.0045 83.8166 20.2212 83.8166 19.8379V19.6379C83.8166 19.3712 84.0166 19.1545 84.2833 19.1545H85.5333C85.7833 19.1545 86 19.3712 86 19.6379V21.4045H87.3833C87.6333 21.4045 87.85 21.6212 87.85 21.8879V23.0379C87.85 23.3045 87.65 23.5212 87.3833 23.5212C87.4 23.5379 86.4666 23.5379 86.0166 23.5379ZM92.5666 24.0879C92.4333 23.7045 92.1 23.4045 91.6666 23.4045C91.2166 23.4045 90.85 23.4879 90.4666 23.7212L90.2333 23.8545C90.0166 23.9879 89.7333 23.9045 89.6 23.6712L89.0333 22.6379L88.9666 22.4045L88.9833 22.2712L89.2 21.9879L89.4166 21.8712L89.4666 21.8379C90.1666 21.4545 90.8666 21.2545 91.6666 21.2545C93.4166 21.2545 94.8 22.6712 94.8 24.4879V29.7545C94.8 30.0212 94.5833 30.2379 94.3333 30.2379H93.4333L93.0333 30.1045C92.6166 30.3212 92.1166 30.4212 91.6666 30.4212C89.9 30.4212 88.4833 29.0212 88.4833 27.1879C88.4833 25.3379 89.8666 23.9545 91.6666 23.9545C91.9833 23.9379 92.2666 24.0045 92.5666 24.0879ZM72.6166 31.2045C73.0666 31.5879 73.5833 31.7545 74.1666 31.7545C74.6 31.7545 75.3166 31.6379 75.3166 31.0545C75.3166 30.4712 74.6 30.3712 74.1666 30.3712H72.9C72.65 30.3712 72.4333 30.1545 72.4333 29.8879V27.3712L72.4166 27.2379C71.5666 26.5212 71.15 25.7712 71.15 24.6045C71.15 22.7712 72.5833 21.3879 74.3333 21.3879C74.6 21.3879 74.8333 21.4045 75.0833 21.4879L75.2166 21.5045L75.3666 21.4212C75.8333 21.1379 76.2166 20.9879 76.7666 20.9879H77.05C77.3 20.9879 77.5166 21.2045 77.5166 21.4712V22.6879C77.5166 22.9212 77.35 23.1212 77.1166 23.1545L77.1333 23.2045L77.15 23.2379C77.3666 23.6712 77.45 24.1379 77.45 24.6212C77.45 26.3545 76.2333 27.7045 74.5833 27.8379V28.2879C76.15 28.3712 77.4666 29.2879 77.4666 31.0545C77.4666 32.9545 75.8666 33.8879 74.1666 33.8879C73.2833 33.8879 72.1666 33.5545 71.4666 32.9712L71.2333 32.7879C71.0666 32.6379 71.0166 32.3879 71.1166 32.1879L71.6833 31.1545L72 30.9212L72.3833 31.0045L72.6166 31.2045ZM63.75 27.1545V24.4712C63.75 23.8879 63.35 23.4045 62.7666 23.4045C62.1833 23.4045 61.7833 23.8879 61.7833 24.4712V27.1545C61.7833 27.7045 62.2 28.2212 62.75 28.2212C63.3666 28.2212 63.75 27.7545 63.75 27.1545ZM91.6666 28.2212C92.2666 28.2212 92.6333 27.7379 92.6333 27.1545C92.6333 26.6045 92.2166 26.0879 91.6666 26.0879C91.0833 26.0879 90.6666 26.5545 90.6666 27.1545C90.6666 27.7379 91.0833 28.2212 91.6666 28.2212ZM74.3166 25.7045C74.9 25.7045 75.2833 25.2212 75.2833 24.6379C75.2833 24.0379 74.9 23.5712 74.3 23.5712C73.7166 23.5712 73.3166 24.0545 73.3166 24.6379C73.3166 25.2212 73.75 25.7045 74.3166 25.7045Z" fill="#00A1DE"/>
<path d="M2.68333 26.2879V30.2379H0V18.5379C1.13333 18.4712 2.26667 18.4545 3.4 18.4545C6.08333 18.4545 7.6 19.5712 7.6 21.8879C7.6 22.7712 7.31667 23.5379 6.75 24.1545C6.3 24.6545 5.75 24.9879 5.1 25.1712C5.33333 25.5045 5.53333 25.7712 5.68333 25.9879L8.61666 30.2212H5.28333L2.68333 26.2879ZM3.18333 20.8379L2.68333 20.8545V23.4545H3.11667C3.96667 23.4545 4.8 23.0879 4.8 22.0879C4.8 21.2879 4.36667 20.8379 3.18333 20.8379Z" fill="#D32617"/>
<path d="M15.9166 26.2212L15.8833 26.5045H11.05C11.1333 27.6045 11.7166 28.1212 12.9 28.1212C13.9 28.1212 14.5833 27.8712 15.4666 27.4545L15.7333 29.7712C14.65 30.2045 13.7333 30.4045 12.5666 30.4045C9.78331 30.4045 8.34998 28.8545 8.34998 25.9212C8.34998 24.5879 8.69998 23.4712 9.41664 22.6045C10.1333 21.7045 11.1333 21.2712 12.3666 21.2712C13.5333 21.2712 14.4833 21.6545 15.1333 22.4545C15.7166 23.1712 16 24.1212 16 25.2379C15.9833 25.5712 15.95 25.8879 15.9166 26.2212ZM13.05 23.7712C12.8833 23.5545 12.6333 23.4379 12.2666 23.4379C11.6666 23.4379 11.2666 23.8379 11.1 24.4045H13.3C13.2833 24.1379 13.1833 23.9379 13.05 23.7712Z" fill="#D32617"/>
<path d="M17.2667 30.2378V17.9379C17.95 19.0712 18.8833 19.9878 19.9333 20.6712V30.2378" fill="#D32617"/>
<path d="M24.2666 21.4379H21.6V30.2379H24.2666V21.4379Z" fill="#D32617"/>
<path d="M30.0333 29.5879L29.6 29.9212C29.1 30.2379 28.5166 30.3879 27.8833 30.3879C27.1166 30.3879 26.4833 30.1879 26 29.7212C25.5333 29.2712 25.3167 28.6379 25.3167 27.9045C25.3167 26.8379 25.8 25.9879 26.7333 25.4045C27.55 24.9045 28.6 24.6379 29.8666 24.6045V24.5045C29.8666 23.8879 29.55 23.5379 28.65 23.5379C27.6 23.5379 26.9333 23.8712 26.05 24.3879L25.8 21.8879C26.8666 21.4879 27.8333 21.2712 28.9666 21.2712C30.2 21.2712 31.1666 21.5212 31.7666 22.1212C32.3 22.6379 32.5333 23.4379 32.5333 24.4379V27.8379C32.5333 28.6545 32.55 29.4545 32.6 30.2545H30.0333V29.9212V29.5879ZM29.8666 26.6379C28.3166 26.6879 27.8833 27.1212 27.8833 27.6045C27.8833 27.9712 28.0166 28.1545 28.5 28.1545C28.8833 28.1545 29.2 27.9879 29.4833 27.6545C29.7166 27.3545 29.8333 27.0212 29.8666 26.6379Z" fill="#D32617"/>
<path d="M36.6667 22.3212C37.0334 21.6212 37.8834 21.2545 38.95 21.2545C40.7167 21.2545 41.6167 22.2879 41.6167 24.1879V30.2379H38.9667V24.7045C38.9667 23.8712 38.7 23.6712 38.3167 23.6712C37.9334 23.6712 37.5834 23.8545 37.2667 24.3212C36.95 24.7712 36.7834 25.3212 36.7834 25.9879V30.2545H34.1167V21.4545H36.6667V21.7879C36.6834 21.9545 36.6667 22.1545 36.6667 22.3212Z" fill="#D32617"/>
<path d="M46.8333 30.3879C44.2667 30.3879 42.9667 28.9045 42.9667 26.1045C42.9667 24.7212 43.3167 23.5712 44.05 22.6879C44.8333 21.7379 45.95 21.2879 47.3667 21.2879C48.0833 21.2879 48.65 21.4045 49.3333 21.6045L49.05 24.1045C48.5 23.8879 47.95 23.6879 47.35 23.6879C46.0833 23.6879 45.7333 24.7545 45.7333 25.8879C45.7333 27.3379 46.2667 27.9045 47.2833 27.9045C48.0833 27.9045 48.45 27.7379 49.1167 27.3712L49.3333 29.8879C48.4667 30.2379 47.7667 30.3879 46.8333 30.3879Z" fill="#D32617"/>
<path d="M57.7333 26.2212L57.7 26.5045H52.8666C52.95 27.6045 53.5333 28.1212 54.7166 28.1212C55.7166 28.1212 56.4 27.8712 57.2833 27.4545L57.55 29.7712C56.4666 30.2045 55.55 30.4045 54.3833 30.4045C51.6 30.4045 50.1666 28.8545 50.1666 25.9212C50.1666 24.5879 50.5166 23.4712 51.2333 22.6045C51.95 21.7045 52.95 21.2712 54.1833 21.2712C55.35 21.2712 56.3 21.6545 56.95 22.4545C57.5333 23.1712 57.8166 24.1212 57.8166 25.2379C57.8 25.5712 57.7833 25.8879 57.7333 26.2212ZM54.8833 23.7712C54.7166 23.5545 54.4666 23.4379 54.1 23.4379C53.5 23.4379 53.1 23.8379 52.9333 24.4045H55.1333C55.1 24.1379 55 23.9379 54.8833 23.7712Z" fill="#D32617"/>
<path d="M28.7333 19.3045C28.25 19.6712 27.6 19.7379 27.1 19.4879L26.8333 19.2879L24.3 15.9379H24.2833C25.1333 16.0879 25.75 15.6712 26.2333 14.9045C26.7167 14.1712 26.7 13.1379 26.2333 12.4045C25.7 11.6045 24.6333 11.3545 23.75 11.4712C22.2 11.6879 21.1 13.1045 20.7667 14.5712C20.4167 16.2545 20.6667 17.8379 21.2167 19.3379C21.35 19.6545 21.5167 19.9879 21.7333 20.2545C20.1167 19.5212 18.6833 18.1879 17.9333 16.3712C17.1 14.4212 17.1167 11.9712 18.1 10.0045C18.8833 8.48785 20.25 7.07119 21.95 6.47119C23.7333 5.72119 26.1333 5.87119 27.8667 6.88786C29.9833 7.97119 31.5667 10.6712 31.5833 13.0879C31.65 15.5879 30.5833 17.8545 28.7333 19.3045Z" fill="#0E3079"/>
<path d="M22.8666 20.2379C22.0833 19.3545 21.45 18.2212 21.9333 17.0379C22.35 16.1379 22.7333 15.2045 22.9166 14.1545C22.9833 15.2379 23.6333 16.2212 23.9333 17.2712C24.05 17.7712 24.0666 18.3045 23.8666 18.8212C23.6666 19.3879 23.3333 19.8712 22.9333 20.3212" fill="#D32617"/>
</svg>
