<svg width="100" height="40" viewBox="0 0 100 40" fill="none" xmlns="http://www.w3.org/2000/svg">
<mask id="mask0_95_302" style="mask-type:alpha" maskUnits="userSpaceOnUse" x="0" y="0" width="100" height="40">
<rect width="100" height="40" fill="#C4C4C4"/>
</mask>
<g mask="url(#mask0_95_302)">
<path d="M50.1446 38.5778C45.5302 38.5327 41.4118 37.0823 37.8721 34.1137C34.4075 31.2128 32.2431 27.5228 31.3563 23.0887C30.9655 21.1498 30.9054 19.1882 31.1308 17.2267C31.6043 13.0933 33.2351 9.47843 36.0609 6.41969C38.1727 4.12751 40.7129 2.45911 43.6213 1.36187C44.185 1.14392 44.7712 0.986101 45.3799 1.00865C46.0413 1.03119 46.5523 1.42199 46.6951 2.02322C46.8304 2.58687 46.6275 3.21064 46.1315 3.51877C45.6505 3.81187 45.1394 4.05988 44.6134 4.2703C42.96 4.94668 41.3742 5.72828 39.9463 6.818C36.6696 9.32061 34.5578 12.5823 33.641 16.6105C33.408 17.6326 33.2953 18.6772 33.2652 19.7369C33.19 22.6152 33.7838 25.3358 35.0989 27.891C36.7749 31.1602 39.2624 33.6402 42.5316 35.3162C44.1775 36.1579 45.921 36.7065 47.7473 36.9545C51.1066 37.4129 54.3382 36.9395 57.3969 35.4665C60.839 33.7981 63.4318 31.2429 65.1753 27.8384C66.017 26.2001 66.5581 24.464 66.8137 22.6378C67.3022 19.1582 66.7911 15.8364 65.2204 12.695C63.6272 9.51601 61.2223 7.10359 58.1034 5.40512C57.1114 4.86402 56.0592 4.45819 55.0296 4.00727C54.7065 3.86448 54.3908 3.70665 54.1052 3.51126C53.271 2.93257 53.3236 1.63242 54.1879 1.1815C54.5562 0.986102 54.9545 0.971071 55.3528 1.03119C56.1945 1.14392 56.9686 1.4746 57.7427 1.81279C60.0574 2.84991 62.1241 4.26279 63.8902 6.09653C66.2951 8.58411 67.9034 11.5076 68.715 14.8669C69.0608 16.3099 69.2336 17.7679 69.2411 19.2559C69.2637 23.8327 67.8508 27.9211 64.9799 31.4833C62.6276 34.3993 59.6516 36.436 56.0968 37.6234C54.3232 38.2096 52.5045 38.5252 50.6407 38.5703C50.558 38.5703 50.4678 38.5778 50.3851 38.5853C50.3175 38.5778 50.2273 38.5778 50.1446 38.5778Z" fill="#074133"/>
<path d="M34.8435 19.8195C34.8961 17.7528 35.3771 15.7763 36.2714 13.9125C37.6993 10.959 39.8261 8.64424 42.697 7.03595C43.0728 6.82552 43.4711 6.67522 43.907 6.67522C45.147 6.68273 45.5829 7.8927 45.1094 8.74945C44.914 9.10267 44.6209 9.35068 44.2602 9.51601C42.9225 10.1323 41.6373 10.8462 40.4725 11.7631C37.9924 13.7246 36.3691 16.2498 35.4823 19.2634C35.3996 19.5415 35.3245 19.812 35.2493 20.0901C35.2343 20.1427 35.2268 20.2028 35.1892 20.2404C35.1291 20.293 35.0389 20.3606 34.9787 20.3456C34.9186 20.3306 34.8585 20.2329 34.8435 20.1652C34.8284 20.0525 34.8435 19.9323 34.8435 19.8195Z" fill="#074133"/>
<path d="M65.4309 19.797V20.1201C65.4309 20.2254 65.4008 20.3381 65.2806 20.3531C65.1604 20.3682 65.0777 20.293 65.0476 20.1728C64.9499 19.8346 64.8522 19.4889 64.7545 19.1507C64.018 16.7232 62.793 14.5889 60.9743 12.8077C59.8395 11.6955 58.5544 10.8086 57.149 10.0797C56.7582 9.88426 56.3599 9.69638 55.9766 9.50098C55.3453 9.17782 54.962 8.68932 54.9846 7.95282C55.0071 7.23886 55.5633 6.70527 56.2772 6.68273C56.7582 6.6677 57.1866 6.83303 57.5999 7.05098C59.2383 7.9453 60.6436 9.13273 61.8386 10.5531C63.4469 12.462 64.5441 14.6264 65.1002 17.0614C65.2956 17.9632 65.4008 18.8726 65.4309 19.797Z" fill="#074133"/>
<path d="M44.3277 21.3902C44.3503 20.5861 44.7035 19.7369 45.5678 19.1582C46.665 18.4142 48.5664 18.5194 49.4983 19.534C49.9492 20.0149 50.1747 20.5936 50.2273 21.2399C50.3099 22.1718 50.092 23.0136 49.4006 23.6824C48.8895 24.186 48.2432 24.4189 47.5368 24.4715C46.8078 24.5166 46.1164 24.3889 45.5001 23.9755C44.7336 23.4495 44.3202 22.6152 44.3277 21.3902ZM45.3423 21.5406C45.3649 21.6984 45.3649 21.8637 45.3949 22.0215C45.7557 23.7876 47.5969 23.9154 48.4537 23.239C48.9872 22.8182 49.2052 22.2395 49.2202 21.5781C49.2578 20.2554 48.2282 19.3461 46.9205 19.5565C45.9886 19.7068 45.3498 20.511 45.3423 21.5406Z" fill="#074133"/>
<path d="M51.5199 24.3438V18.8125C51.55 18.805 51.58 18.7975 51.6026 18.7975C52.3842 18.7975 53.1658 18.7824 53.9474 18.8125C55.2776 18.8651 56.217 19.6768 56.4725 20.9468C56.8032 22.5852 55.7961 24.0281 54.1503 24.2761C53.8722 24.3212 53.5941 24.3363 53.3161 24.3438C52.7224 24.3513 52.1286 24.3438 51.5199 24.3438ZM52.4969 19.6241V23.457C53.0305 23.5697 54.0375 23.4645 54.5035 23.2465C55.0145 23.006 55.3677 22.6303 55.4805 22.0591C55.5256 21.8186 55.5406 21.5781 55.5256 21.3376C55.4654 20.4583 54.9469 19.8646 54.0826 19.7218C53.5641 19.6392 53.038 19.6542 52.4969 19.6241Z" fill="#074133"/>
<path d="M39.2775 24.3363V18.8275C39.3075 18.82 39.3376 18.805 39.3676 18.805C40.1192 18.805 40.8632 18.7975 41.6147 18.82C42.0657 18.835 42.479 18.9778 42.7871 19.316C43.3658 19.9548 43.1328 20.9844 42.3362 21.3301C42.2761 21.3527 42.216 21.3827 42.1333 21.4128C42.4489 21.4804 42.7195 21.5631 42.9374 21.7735C43.6514 22.4424 43.4334 23.6524 42.5241 24.0883C42.1483 24.2686 41.7425 24.3287 41.3292 24.3363C40.6678 24.3438 40.014 24.3363 39.3526 24.3363C39.3376 24.3438 39.315 24.3363 39.2775 24.3363ZM40.2169 23.5171C40.6227 23.5171 41.021 23.5321 41.4193 23.5096C41.6072 23.5021 41.8026 23.4495 41.9755 23.3743C42.2986 23.239 42.4414 22.9459 42.4114 22.5852C42.3813 22.2545 42.2009 22.0366 41.8552 21.9539C41.3141 21.8337 40.7655 21.9088 40.2094 21.8863V23.5171H40.2169ZM40.2169 21.0746C40.5851 21.0746 40.9308 21.0821 41.2841 21.0746C41.3818 21.0746 41.487 21.0521 41.5847 21.022C41.9454 20.9168 42.1333 20.6613 42.1258 20.3156C42.1107 19.9699 41.9229 19.7143 41.5396 19.6692C41.1037 19.6166 40.6603 19.6166 40.2169 19.6016V21.0746Z" fill="#074133"/>
<path d="M53.0305 31.1677C52.3391 31.1602 51.7003 30.9798 51.1592 30.5214C50.4979 29.9427 50.2498 29.1912 50.2724 28.3344C50.2874 27.7106 50.4528 27.132 50.8586 26.636C51.4523 25.8995 52.264 25.6364 53.1808 25.659C53.9324 25.6815 54.6012 25.9145 55.1273 26.4631C55.7511 27.1169 55.9239 27.9136 55.8337 28.7853C55.6834 30.1832 54.5937 31.085 53.2334 31.1452C53.1658 31.1602 53.0982 31.1602 53.0305 31.1677ZM53.038 30.3034C53.4138 30.3034 53.7445 30.2133 54.0376 30.0254C54.6989 29.597 55.0221 28.7403 54.8117 27.906C54.6463 27.2297 54.2255 26.7712 53.5491 26.5833C52.8652 26.3955 52.2414 26.5383 51.7454 27.0718C51.302 27.5528 51.1893 28.139 51.287 28.7703C51.4147 29.6872 52.1287 30.3034 53.038 30.3034Z" fill="#074133"/>
<path d="M44.9816 25.8017H45.906V27.8685H48.3334V25.8017H49.2653V31.0249H48.3409V28.7402H45.906V31.0324H44.9816V25.8017Z" fill="#074133"/>
<path d="M56.9235 25.7717C57.7051 25.7942 58.4716 25.7792 59.2307 25.8544C59.7868 25.907 60.2603 26.185 60.4857 26.7412C60.6811 27.2297 60.6511 27.7257 60.4181 28.1991C60.2077 28.6275 59.8169 28.8229 59.3735 28.9056C59.0578 28.9657 58.7347 28.9807 58.4115 29.0033C58.2311 29.0183 58.0508 29.0033 57.8478 29.0033V31.0249H56.9235V25.7717ZM57.8629 26.6059V28.2367C58.0959 28.2367 58.3213 28.2517 58.5468 28.2292C58.7497 28.2142 58.9676 28.1916 59.163 28.124C59.5163 27.9962 59.6966 27.628 59.629 27.2372C59.5689 26.8614 59.3434 26.6284 58.9451 26.6059C58.5919 26.5909 58.2386 26.6059 57.8629 26.6059Z" fill="#074133"/>
<path d="M40.4874 29.8375C40.555 29.8826 40.6001 29.9051 40.6452 29.9352C41.1488 30.2358 41.6823 30.3861 42.2685 30.2734C42.4113 30.2433 42.5616 30.1757 42.6744 30.0855C43.0201 29.8149 43.0126 29.3189 42.6368 29.0859C42.3888 28.9356 42.0957 28.8455 41.8326 28.7252C41.5997 28.6275 41.3592 28.5448 41.1337 28.4321C40.2469 27.9887 40.2544 26.914 40.7504 26.3353C41.0435 25.9896 41.4268 25.8093 41.8627 25.7266C42.4264 25.6214 42.9675 25.704 43.4935 25.907V26.7562C43.1629 26.6886 42.8322 26.6134 42.5015 26.5683C42.246 26.5307 41.983 26.5608 41.7425 26.6735C41.532 26.7787 41.3742 26.9215 41.3592 27.1695C41.3442 27.4175 41.4869 27.5829 41.6899 27.6806C41.9078 27.7933 42.1408 27.876 42.3738 27.9662C42.5992 28.0639 42.8247 28.139 43.0426 28.2517C43.6138 28.5373 43.9069 28.9958 43.8693 29.6496C43.8317 30.2734 43.5011 30.7093 42.9524 30.9497C42.1633 31.2879 41.3742 31.2053 40.6076 30.837C40.555 30.8145 40.5099 30.7243 40.5024 30.6642C40.4799 30.4011 40.4874 30.1306 40.4874 29.8375Z" fill="#074133"/>
<path d="M48.8896 15.3179V17.3771H48.0779C48.0704 17.3169 48.0704 17.2643 48.0704 17.2042C48.0704 15.7613 48.0704 14.3258 48.0629 12.8829C48.0629 12.7326 48.1004 12.6875 48.2507 12.695C48.4537 12.71 48.6566 12.7025 48.882 12.7025V14.5588H51.0915V12.71H51.9107V17.3846H51.0915V15.3179H48.8896Z" fill="#074133"/>
<path d="M53.9775 15.3404V16.6105H56.3448V17.377H53.1433V12.71H56.2171V13.4616H53.9775V14.6264H54.1654C54.7591 14.6264 55.3528 14.6264 55.9465 14.6264C56.0668 14.6264 56.1119 14.6565 56.1044 14.7767C56.0968 14.9571 56.1044 15.145 56.1044 15.3404H53.9775Z" fill="#074133"/>
<path d="M59.9898 24.3363H59.0128V24.1409C59.0128 23.472 59.0203 22.8031 59.0128 22.1343C59.0128 22.0366 58.9827 21.9238 58.9226 21.8337C58.2988 20.8792 57.675 19.9248 57.0513 18.9628C57.0212 18.9177 56.9911 18.8726 56.946 18.7975C57.2467 18.7975 57.5172 18.82 57.7878 18.7899C58.0358 18.7674 58.171 18.8576 58.2988 19.068C58.6595 19.6767 59.0503 20.2705 59.4336 20.8717C59.4637 20.9168 59.5013 20.9694 59.5388 21.0295C59.5839 20.9619 59.614 20.9168 59.6441 20.8717C60.0424 20.2254 60.4407 19.5791 60.8315 18.9252C60.8991 18.82 60.9668 18.7824 61.087 18.7824C61.3951 18.7899 61.7033 18.7824 62.0414 18.7824C61.9964 18.8501 61.9738 18.9027 61.9362 18.9478C61.3125 19.9022 60.6887 20.8491 60.0724 21.8036C60.0198 21.8863 59.9822 21.999 59.9822 22.0967C59.9747 22.7731 59.9747 23.457 59.9747 24.1333V24.3363H59.9898Z" fill="#074133"/>
<path d="M45.876 13.4616V17.3771H45.0493V13.4766H43.5913V12.7175H47.3114V13.4616H45.876Z" fill="#074133"/>
</g>
</svg>
