<svg width="20" height="20" viewBox="0 0 20 20" fill="none" xmlns="http://www.w3.org/2000/svg">
<circle cx="10" cy="10" r="10" fill="#0A80B4"/>
<g clip-path="url(#clip0_2246_6)">
<path d="M11.6707 9.73277C11.7599 9.6143 11.9128 9.60608 12.042 9.56823C12.9649 9.30497 13.8896 9.04828 14.8124 8.78831C14.8852 8.76692 14.9562 8.7373 15.0199 8.69123C14.503 8.68135 14.0097 8.80147 13.5091 8.87551C12.7647 8.98411 12.022 9.11245 11.2794 9.23092C11.1702 9.24902 11.0846 9.2194 11.0082 9.14207C10.4967 8.62376 9.97794 8.1104 9.46646 7.59374C9.39547 7.52134 9.26806 7.444 9.33177 7.3387C9.39365 7.23668 9.53927 7.28769 9.64302 7.29592C10.7952 7.37819 11.9474 7.47198 13.1014 7.55589C14.2645 7.63981 15.4294 7.71221 16.5926 7.79448C17.0622 7.82738 17.53 7.86852 17.9996 7.90307C18.0724 7.90801 18.1561 7.90472 18.178 7.97876C18.198 8.04952 18.1252 8.09394 18.0742 8.13672C17.7848 8.38518 17.4954 8.63528 17.2041 8.88209C16.1375 9.79036 15.0672 10.6953 14.0061 11.6102C13.8022 11.7846 13.6475 11.7813 13.4673 11.5954C13.136 11.2548 12.7974 10.9208 12.4607 10.5851C12.4807 10.2889 12.0348 9.80846 11.6707 9.73771V9.73277Z" fill="white"/>
<path d="M11.67 9.73262C12.0341 9.80337 12.48 10.2838 12.46 10.58C11.1221 11.253 9.65322 11.4537 8.15702 11.5705C6.68811 11.6857 5.20646 11.6643 3.75576 11.9473C3.07501 12.0806 2.45432 12.3209 1.89369 12.6894C1.88095 12.6779 1.86821 12.6664 1.85547 12.6549C2.55261 11.9013 3.49001 11.5409 4.52207 11.3468C5.98733 11.0703 7.47808 11.1444 8.95973 11.0687C9.52217 11.0407 10.081 10.9979 10.638 10.9157C10.7872 10.8926 10.8728 10.8334 10.9492 10.7264C11.1858 10.3924 11.4297 10.0633 11.67 9.73262Z" fill="white"/>
<path d="M1.89361 12.6894C1.87541 12.7026 1.84629 12.7289 1.84083 12.7256C1.78986 12.6944 1.83901 12.6763 1.85721 12.6549C1.86995 12.6664 1.88269 12.6779 1.89543 12.6894H1.89361Z" fill="white"/>
</g>
<defs>
<clipPath id="clip0_2246_6">
<rect width="16.3636" height="5.45455" fill="white" transform="translate(1.81641 7.27274)"/>
</clipPath>
</defs>
</svg>
