<svg width="18" height="18" viewBox="0 0 18 18" fill="none" xmlns="http://www.w3.org/2000/svg">
<path d="M11.5802 14.5476H5.66867C5.66867 14.9396 5.51297 15.3155 5.23581 15.5926C4.95865 15.8698 4.58274 16.0255 4.19078 16.0255C3.79882 16.0255 3.42291 15.8698 3.14575 15.5926C2.8686 15.3155 2.71289 14.9396 2.71289 14.5476V4.20238C2.71289 3.81042 2.8686 3.43451 3.14575 3.15735C3.42291 2.88019 3.79882 2.72449 4.19078 2.72449H13.0581C13.4501 2.72449 13.826 2.88019 14.1031 3.15735C14.3803 3.43451 14.536 3.81042 14.536 4.20238V14.5476C14.536 14.9396 14.3803 15.3155 14.1031 15.5926C13.826 15.8698 13.4501 16.0255 13.0581 16.0255C12.6662 16.0255 12.2903 15.8698 12.0131 15.5926C11.7359 15.3155 11.5802 14.9396 11.5802 14.5476ZM12.3192 11.5918C12.5152 11.5918 12.7031 11.514 12.8417 11.3754C12.9803 11.2368 13.0581 11.0489 13.0581 10.8529C13.0581 10.6569 12.9803 10.469 12.8417 10.3304C12.7031 10.1918 12.5152 10.1139 12.3192 10.1139C12.1232 10.1139 11.9352 10.1918 11.7967 10.3304C11.6581 10.469 11.5802 10.6569 11.5802 10.8529C11.5802 11.0489 11.6581 11.2368 11.7967 11.3754C11.9352 11.514 12.1232 11.5918 12.3192 11.5918ZM4.92973 11.5918C5.12571 11.5918 5.31366 11.514 5.45224 11.3754C5.59082 11.2368 5.66867 11.0489 5.66867 10.8529C5.66867 10.6569 5.59082 10.469 5.45224 10.3304C5.31366 10.1918 5.12571 10.1139 4.92973 10.1139C4.73375 10.1139 4.54579 10.1918 4.40721 10.3304C4.26863 10.469 4.19078 10.6569 4.19078 10.8529C4.19078 11.0489 4.26863 11.2368 4.40721 11.3754C4.54579 11.514 4.73375 11.5918 4.92973 11.5918ZM4.19078 4.20238V8.63605H13.0581V4.20238H4.19078Z" fill="white"/>
</svg>
