<svg width="18" height="14" viewBox="0 0 18 14" fill="none" xmlns="http://www.w3.org/2000/svg">
<path d="M15.6667 0.333332H2.33335C1.40835 0.333332 0.67502 1.075 0.67502 2L0.666687 12C0.666687 12.925 1.40835 13.6667 2.33335 13.6667H15.6667C16.5917 13.6667 17.3334 12.925 17.3334 12V2C17.3334 1.075 16.5917 0.333332 15.6667 0.333332ZM14.8334 12H3.16669C2.70835 12 2.33335 11.625 2.33335 11.1667V7H15.6667V11.1667C15.6667 11.625 15.2917 12 14.8334 12ZM15.6667 3.66667H2.33335V2.83333C2.33335 2.375 2.70835 2 3.16669 2H14.8334C15.2917 2 15.6667 2.375 15.6667 2.83333V3.66667Z" fill="white"/>
</svg>
