<svg width="18" height="18" viewBox="0 0 18 18" fill="none" xmlns="http://www.w3.org/2000/svg">
<path d="M7.125 16.2938C6.9125 16.3563 6.7345 16.3313 6.591 16.2188C6.447 16.1063 6.375 15.9438 6.375 15.7313C6.375 15.6313 6.40325 15.528 6.45975 15.4215C6.51575 15.3155 6.58125 15.2313 6.65625 15.1688L7.875 14.25V10.125L2.45625 11.7188C2.19375 11.7938 1.96875 11.7625 1.78125 11.625C1.59375 11.4875 1.5 11.275 1.5 10.9875C1.5 10.85 1.54075 10.7093 1.62225 10.5653C1.70325 10.4218 1.80625 10.3188 1.93125 10.2563L7.875 6.75V2.625C7.875 2.3 7.98125 2.03125 8.19375 1.81875C8.40625 1.60625 8.675 1.5 9 1.5C9.325 1.5 9.59375 1.60625 9.80625 1.81875C10.0187 2.03125 10.125 2.3 10.125 2.625V6.75L16.0687 10.2563C16.1937 10.3188 16.2967 10.425 16.3777 10.575C16.4592 10.725 16.5 10.8688 16.5 11.0063C16.5 11.2813 16.4062 11.4875 16.2187 11.625C16.0312 11.7625 15.8062 11.7938 15.5437 11.7188L10.125 10.125V14.25L11.3437 15.1688C11.4187 15.2313 11.4842 15.3155 11.5402 15.4215C11.5967 15.528 11.625 15.6313 11.625 15.7313C11.625 15.9438 11.5532 16.1063 11.4097 16.2188C11.2657 16.3313 11.0875 16.3563 10.875 16.2938L9 15.75L7.125 16.2938Z" fill="white"/>
</svg>
