<svg width="20" height="14" viewBox="0 0 20 14" fill="none" xmlns="http://www.w3.org/2000/svg">
<path d="M1.29183 8.83337C1.17027 8.83337 1.05369 8.88166 0.967739 8.96762C0.881785 9.05357 0.833496 9.17015 0.833496 9.29171C0.833496 9.41326 0.881785 9.52984 0.967739 9.6158C1.05369 9.70175 1.17027 9.75004 1.29183 9.75004H2.66683C2.66683 10.7225 3.05314 11.6551 3.74077 12.3428C4.4284 13.0304 5.36104 13.4167 6.3335 13.4167H13.6668C14.6393 13.4167 15.5719 13.0304 16.2596 12.3428C16.9472 11.6551 17.3335 10.7225 17.3335 9.75004H18.7085C18.8301 9.75004 18.9466 9.70175 19.0326 9.6158C19.1185 9.52984 19.1668 9.41326 19.1668 9.29171C19.1668 9.17015 19.1185 9.05357 19.0326 8.96762C18.9466 8.88166 18.8301 8.83337 18.7085 8.83337H1.29183Z" fill="white"/>
<path fill-rule="evenodd" clip-rule="evenodd" d="M9.59009 0.607666L10.0003 0.812541L10.4105 1.01742L10.4096 1.01879L10.4041 1.03025L10.3812 1.08067C10.2587 1.35412 10.1665 1.64014 10.1062 1.93362C9.99801 2.474 10.0379 2.95204 10.3243 3.2385C10.9546 3.86871 10.9147 4.76567 10.7937 5.37112C10.7147 5.75678 10.5908 6.13183 10.4243 6.48854L10.4151 6.50825L10.4119 6.51421L10.411 6.5165L10.4105 6.51696L10.0003 6.31254L9.59009 6.10767L9.59101 6.10629L9.59651 6.09483L9.61943 6.04442C9.74189 5.77096 9.83411 5.48495 9.89443 5.19146C10.0026 4.65108 9.96272 4.17304 9.67626 3.88658C9.04605 3.25637 9.08593 2.35942 9.20693 1.75396C9.28586 1.3683 9.40985 0.993252 9.57634 0.636541L9.58551 0.616832L9.58872 0.610874L9.58963 0.609041L9.59009 0.608124V0.607666ZM5.95322 1.70217L6.33363 1.95883C6.71359 2.21504 6.71405 2.21458 6.71405 2.21458V2.21412V2.21458L6.70809 2.22375C6.66787 2.2879 6.63025 2.35364 6.59534 2.42083C6.50869 2.58531 6.43956 2.75844 6.38909 2.93737C6.27909 3.34621 6.31851 3.66887 6.60634 3.88154C7.34976 4.43246 7.31034 5.25608 7.16276 5.80196C7.0953 6.04453 7.00236 6.27929 6.88547 6.50229C6.83436 6.60053 6.77884 6.69642 6.71909 6.78967L6.71543 6.79517L6.71451 6.797L6.71405 6.79746C6.71405 6.79746 6.71359 6.79837 6.33363 6.54171C5.95368 6.28504 5.95322 6.2855 5.95322 6.2855L5.95918 6.27679L5.98393 6.23737C6.01477 6.18568 6.04412 6.1331 6.07193 6.07971C6.14297 5.94312 6.22455 5.75979 6.27818 5.56271C6.38818 5.15387 6.34876 4.83167 6.06093 4.61854C5.31751 4.06762 5.35693 3.24446 5.50451 2.69812C5.58013 2.41762 5.69197 2.17104 5.7818 1.99779C5.83296 1.89972 5.88848 1.80399 5.94818 1.71087L5.95138 1.70537L5.95276 1.70308L5.95368 1.70217H5.95322ZM13.7449 1.70217L14.1253 1.95883C14.5053 2.21504 14.5057 2.21458 14.5057 2.21458V2.21412V2.21458L14.4998 2.22375C14.4595 2.2879 14.4219 2.35364 14.387 2.42083C14.3004 2.58531 14.2312 2.75844 14.1808 2.93737C14.0708 3.34621 14.1102 3.66887 14.398 3.88154C15.1414 4.43246 15.102 5.25608 14.9544 5.80196C14.887 6.04453 14.794 6.27929 14.6771 6.50229C14.6262 6.60053 14.5708 6.69641 14.5112 6.78967L14.5076 6.79517L14.5062 6.797L14.5057 6.79746C14.5057 6.79746 14.5053 6.79837 14.1253 6.54171C13.7453 6.28504 13.7449 6.2855 13.7449 6.2855L13.7508 6.27679L13.7756 6.23737C13.8064 6.18568 13.8358 6.1331 13.8636 6.07971C13.9346 5.94312 14.0162 5.75979 14.0698 5.56271C14.1798 5.15387 14.1404 4.83167 13.8526 4.61854C13.1092 4.06762 13.1486 3.24446 13.2962 2.69812C13.3718 2.41762 13.4836 2.17104 13.5735 1.99779C13.6245 1.89973 13.6798 1.804 13.7394 1.71087L13.7431 1.70537L13.7444 1.70308L13.7453 1.70217H13.7449Z" fill="white"/>
</svg>
