<svg width="18" height="18" viewBox="0 0 18 18" fill="none" xmlns="http://www.w3.org/2000/svg">
<path d="M8.9895 17.979C4.05825 17.979 0 13.9207 0 8.9895C0 4.05825 4.05825 0 8.9895 0C13.9207 0 17.979 4.05825 17.979 8.9895C17.978 10.9665 17.3206 12.8872 16.11 14.4503L17.6565 15.9967C17.8762 16.2165 18 16.515 18 16.8263C18 17.4705 17.4705 18 16.8263 18C16.515 18 16.2165 17.8762 15.9967 17.6565L14.4503 16.11C12.8872 17.3206 10.9665 17.978 8.9895 17.979ZM13.9875 13.4783C15.1007 12.248 15.718 10.6486 15.72 8.9895C15.72 5.29725 12.6818 2.259 8.9895 2.259C6.963 2.259 5.13375 3.174 3.8955 4.61025H7.83675V6.45375H2.76075C2.57699 6.89881 2.4422 7.36253 2.35875 7.83675H6.915V9.681H2.295C2.36025 10.3147 2.51775 10.9358 2.76075 11.5252H5.99325V13.3688H3.8955C5.13375 14.805 6.963 15.72 8.9895 15.72C10.707 15.72 12.2835 15.0623 13.4783 13.9875C13.5915 13.7693 13.7693 13.5915 13.9875 13.4783ZM6.915 13.3688H12.447V11.5252H6.915V13.3688ZM11.5252 9.681H15.213V7.83675H11.5252V9.681ZM7.83675 9.681H10.1423V7.83675H7.83675V9.681ZM9.21975 6.45375H12.9083V4.61025H9.21975V6.45375Z" fill="white"/>
</svg>
