<svg width="15" height="18" viewBox="0 0 15 18" fill="none" xmlns="http://www.w3.org/2000/svg">
<path d="M3.97916 0C6.32569 0 8.67261 0 11.0191 0C11.0681 0.0118994 11.1163 0.028633 11.1661 0.0345827C12.8889 0.240963 14.2947 1.72095 14.3054 3.40137C14.3241 6.30743 14.3119 9.21387 14.3115 12.1199C14.3115 12.4483 14.1975 12.7398 13.9836 12.9919C13.6542 13.3801 13.2195 13.514 12.7122 13.5133C9.23734 13.5081 5.7625 13.5107 2.28765 13.5103C2.22376 13.5103 2.16024 13.5092 2.09635 13.5062C1.28484 13.4698 0.688734 12.8763 0.687586 12.0831C0.684142 9.21387 0.664247 6.34462 0.696386 3.47612C0.712838 2.02811 1.45777 0.969802 2.79652 0.340249C3.16191 0.168823 3.58354 0.110441 3.97916 0ZM2.59642 3.66725V7.542H6.72437V3.66725H2.59642ZM12.4011 7.54237V3.66725H8.27393V7.54237H12.4011ZM10.4778 10.6128C10.4747 11.1405 10.9021 11.5629 11.4412 11.5644C11.9795 11.5659 12.4153 11.1431 12.4149 10.6199C12.4149 10.106 11.9875 9.68427 11.4584 9.67534C10.9243 9.66604 10.4808 10.09 10.4778 10.6128ZM4.52017 10.6169C4.51864 10.0937 4.07673 9.6679 3.54337 9.67571C3.01346 9.68352 2.58685 10.1026 2.58417 10.6173C2.58149 11.1405 3.01575 11.5647 3.5537 11.5644C4.09394 11.5644 4.52208 11.1445 4.52017 10.6165V10.6169Z" fill="white"/>
<path opacity="0.1" d="M11.9987 16.875L1.87488 17.9999L2.99974 16.1251L11.9987 16.875Z" fill="black"/>
<path d="M0 17.9601C0.0432347 17.918 0.0925911 17.8801 0.129321 17.8332C0.951163 16.7906 1.773 15.7482 2.58987 14.7018C2.66333 14.6074 2.73679 14.5706 2.85808 14.5721C3.39832 14.5788 3.93895 14.575 4.52242 14.575C4.27488 14.8911 4.0499 15.1786 3.80733 15.4883H11.1905C10.9541 15.186 10.7291 14.8989 10.4884 14.5918C10.5558 14.5847 10.6017 14.5758 10.648 14.5758C11.1454 14.5747 11.6428 14.5791 12.1401 14.5724C12.2614 14.5709 12.3349 14.607 12.4087 14.7018C13.2214 15.7434 14.039 16.7813 14.857 17.8191C14.898 17.8708 14.9512 17.9136 14.9986 17.9604C14.9603 17.9727 14.9221 17.9957 14.8838 17.9961C14.3099 17.9984 13.736 17.9976 13.1621 17.9976C12.877 17.6332 12.5958 17.2658 12.3031 16.907C12.2565 16.8501 12.16 16.8002 12.0862 16.7999C9.0284 16.7947 5.97059 16.7947 2.91279 16.7999C2.83895 16.7999 2.74215 16.8501 2.69585 16.907C2.40316 17.2658 2.12194 17.6332 1.8369 17.9976C1.26261 17.9976 0.687929 17.9984 0.113634 17.9961C0.0757563 17.9961 0.0382608 17.9731 0.000382608 17.9604L0 17.9601Z" fill="white"/>
</svg>
