<svg width="11" height="15" viewBox="0 0 11 15" fill="none" xmlns="http://www.w3.org/2000/svg">
<path d="M0.1875 14.9375H10.8125V12.2812C10.8114 11.2953 10.4192 10.3501 9.72206 9.65294C9.0249 8.95578 8.07968 8.56362 7.09375 8.5625H3.90625C2.92032 8.56362 1.9751 8.95578 1.27794 9.65294C0.580782 10.3501 0.188625 11.2953 0.1875 12.2812V14.9375ZM1.78125 3.78125C1.78125 4.51675 1.99935 5.23573 2.40797 5.84728C2.81659 6.45882 3.39738 6.93546 4.0769 7.21693C4.75641 7.49839 5.50413 7.57203 6.22549 7.42854C6.94686 7.28506 7.60948 6.93088 8.12955 6.4108C8.64963 5.89073 9.00381 5.22811 9.1473 4.50674C9.29078 3.78538 9.21714 3.03766 8.93568 2.35815C8.65421 1.67863 8.17757 1.09784 7.56603 0.689222C6.95448 0.280601 6.2355 0.0625 5.5 0.0625C4.51373 0.0625 3.56785 0.454296 2.87045 1.1517C2.17305 1.8491 1.78125 2.79498 1.78125 3.78125Z" fill="white"/>
</svg>
