<svg width="103" height="28" viewBox="0 0 103 28" fill="none" xmlns="http://www.w3.org/2000/svg">
<g clip-path="url(#clip0_6152_2202)">
<path d="M83.6866 15.2877C83.5262 17.9759 84.264 20.6413 85.7841 22.8644C86.5047 23.7077 87.3996 24.3848 88.4071 24.8491C89.4146 25.3134 90.5107 25.5538 91.62 25.5538C92.7293 25.5538 93.8254 25.3134 94.8329 24.8491C95.8403 24.3848 96.7352 23.7077 97.4559 22.8644C98.9687 20.6546 99.7017 18.0035 99.5391 15.3305V12.7336C99.6808 10.0324 98.9176 7.36117 97.3703 5.14258C96.6835 4.24977 95.7924 3.53493 94.7719 3.05819C93.7514 2.58145 92.6313 2.35675 91.5058 2.40298C90.4091 2.36998 89.3202 2.59714 88.3282 3.06587C87.3361 3.53461 86.4692 4.23159 85.7983 5.09977C84.2874 7.32115 83.5548 9.98046 83.7151 12.6622L83.6866 15.2877ZM80.8328 15.4303V12.6479C80.645 9.33224 81.6581 6.05987 83.6866 3.43033C84.6639 2.2872 85.8925 1.38578 87.2763 0.796624C88.66 0.207471 90.1614 -0.0534229 91.6628 0.0343641C93.1466 -0.0340049 94.6267 0.233284 95.9929 0.816324C97.3591 1.39936 98.5762 2.28313 99.5534 3.40179C101.584 6.00835 102.598 9.26382 102.407 12.5623V15.3447C102.601 18.6612 101.587 21.9358 99.5534 24.5624C98.5706 25.6836 97.3492 26.5706 95.9789 27.1582C94.6085 27.7458 93.124 28.0192 91.6343 27.9583C90.1597 28.0302 88.6881 27.7657 87.3309 27.1847C85.9738 26.6038 84.7665 25.7217 83.8007 24.6052C81.7458 22.0018 80.7018 18.7431 80.8613 15.4303H80.8328ZM61.9695 16.7431C61.9477 19.0883 62.7 21.3753 64.1098 23.2496C64.7598 24.0225 65.5797 24.6346 66.5055 25.038C67.4312 25.4415 68.4377 25.6254 69.4463 25.5754C71.2687 25.6546 73.0501 25.0198 74.4119 23.8061C75.0374 23.2228 75.5305 22.5121 75.8579 21.722C76.1853 20.9318 76.3393 20.0806 76.3096 19.2258V18.9833C76.364 18.1627 76.2405 17.3401 75.9474 16.5717C75.6543 15.8033 75.1987 15.1073 74.6116 14.5314C73.2134 13.4012 71.4399 12.8407 69.6461 12.9619C68.1736 12.9934 66.7259 13.3469 65.4046 13.9977C64.0833 14.6485 62.9206 15.5807 61.998 16.7288L61.9695 16.7431ZM59.1158 15.6729V12.6479C58.9235 9.32292 59.9368 6.04009 61.9695 3.40179C62.9323 2.28822 64.1345 1.40687 65.4861 0.823713C66.8378 0.240557 68.3038 -0.0292935 69.7745 0.0343641C71.8407 -0.0774985 73.8944 0.418566 75.6818 1.46124C77.1087 2.43151 77.8792 3.40179 77.8792 4.38633C77.8737 4.71374 77.7406 5.02607 77.5082 5.25673C77.3047 5.50165 77.0518 5.70097 76.7662 5.84175C76.5236 5.97016 76.3809 5.9987 76.3524 5.94163C75.6628 4.82458 74.6927 3.90755 73.5387 3.28173C72.3847 2.65591 71.0869 2.34311 69.7745 2.37444C68.6692 2.32684 67.5683 2.54114 66.5615 2.99988C65.5548 3.45862 64.6707 4.14881 63.9814 5.01416C62.4567 7.1813 61.7168 9.80369 61.8839 12.4482V13.8751C62.9535 12.8781 64.1962 12.0851 65.551 11.535C66.9069 10.965 68.3608 10.6645 69.8316 10.6503C72.2642 10.5288 74.6549 11.3172 76.5379 12.862C77.3776 13.6028 78.0423 14.5208 78.484 15.5498C78.9257 16.5788 79.1334 17.693 79.092 18.812V19.0118C79.1175 20.2113 78.8906 21.4027 78.426 22.5089C77.9614 23.615 77.2695 24.6112 76.3952 25.4327C74.3471 27.2159 71.685 28.1313 68.9733 27.9848C66.2617 27.8383 63.7137 26.6414 61.8696 24.648C59.9406 22.0672 58.9809 18.8901 59.1586 15.6729H59.1158ZM37.627 22.0939C37.6166 21.6903 37.7594 21.2978 38.0265 20.9952C38.2334 20.7362 38.511 20.5429 38.8256 20.4387C39.0824 20.4387 39.2394 20.4387 39.2536 20.4387C39.7955 22.002 40.8519 23.3352 42.2501 24.2199C43.7551 25.1271 45.4873 25.5874 47.2442 25.5469C49.0544 25.6589 50.8494 25.1561 52.3381 24.12C52.9487 23.6492 53.439 23.0403 53.7689 22.3434C54.0988 21.6464 54.2588 20.8812 54.2358 20.1105C54.2819 19.3121 54.1378 18.5142 53.8153 17.7825C53.4928 17.0507 53.0012 16.4059 52.3809 15.9012C50.7967 14.8398 48.9036 14.3376 47.0016 14.4743H44.6758C43.7483 14.4743 43.2489 14.1034 43.2489 13.3756V13.1045C43.2489 12.3768 43.677 12.0058 44.5474 12.0058H47.4011C48.9874 12.1109 50.5609 11.662 51.853 10.7359C52.371 10.3065 52.7805 9.76101 53.0482 9.1437C53.316 8.5264 53.4344 7.85467 53.394 7.18301C53.4226 6.50299 53.2887 5.82595 53.0033 5.20805C52.7179 4.59015 52.2893 4.0492 51.7531 3.63009C50.4197 2.71017 48.8189 2.25852 47.2013 2.3459C45.6916 2.31597 44.2053 2.72222 42.9207 3.51594C41.7258 4.27628 40.771 5.35979 40.1669 6.6408C40.1669 6.6408 39.9814 6.6408 39.7245 6.6408C39.4198 6.52522 39.1496 6.33366 38.9397 6.08431C38.8107 5.95824 38.7087 5.80717 38.64 5.64034C38.5713 5.47352 38.5373 5.29443 38.5402 5.11404C38.5402 4.04388 39.3821 2.91665 41.0515 1.76088C42.8828 0.558696 45.0404 -0.0492145 47.2299 0.0200951C49.5961 -0.127063 51.9416 0.53735 53.8791 1.90357C54.6669 2.53365 55.2928 3.34272 55.7047 4.26348C56.1167 5.18424 56.3029 6.19006 56.2477 7.19728C56.3578 8.55837 55.9635 9.91241 55.14 11.0017C54.3164 12.0909 53.1212 12.8394 51.7816 13.1045C53.3328 13.5694 54.7029 14.5012 55.7055 15.7728C56.6392 17.0038 57.1408 18.5084 57.1324 20.0534C57.1817 21.1575 56.9696 22.2577 56.5134 23.2644C56.0571 24.271 55.3697 25.1558 54.5069 25.8465C52.4137 27.37 49.8573 28.1212 47.2727 27.9726C44.7867 28.088 42.3328 27.3754 40.2953 25.9464C38.4974 24.648 37.627 23.3638 37.627 22.0939Z" fill="black"/>
<path fill-rule="evenodd" clip-rule="evenodd" d="M0 0.0351562H21.5601C21.5601 0.0351562 25.1701 3.3027 23.1725 5.32886H3.52438C2.49529 4.87166 1.61748 4.13117 0.993431 3.19383C0.369376 2.25648 0.0248222 1.16096 0 0.0351562Z" fill="black"/>
<path fill-rule="evenodd" clip-rule="evenodd" d="M15.5103 12.8605L22.7588 5.32653C22.7588 5.32653 24.5709 3.58574 21.5602 0.0328225C21.5602 0.0328225 27.2677 -0.181209 28.4092 4.38479C28.4092 4.38479 29.5792 7.06731 23.0584 12.3611C23.0584 12.3611 22.6732 12.7891 23.3295 13.4455C23.9859 14.1018 36.9705 26.958 36.9705 26.958C36.9705 26.958 33.4175 28.9128 30.949 27.329C28.4805 25.7451 15.5103 12.8605 15.5103 12.8605Z" fill="black"/>
<path fill-rule="evenodd" clip-rule="evenodd" d="M0.984375 7.9375V20.5082C2.06096 21.5138 3.43088 22.1488 4.89401 22.3204C5.33257 22.3758 5.7759 22.2637 6.1354 22.0065V11.1622C6.1354 11.1622 3.93801 7.95177 0.984375 7.9375Z" fill="black"/>
<path fill-rule="evenodd" clip-rule="evenodd" d="M13.4125 14.6445L17.0368 18.2687L8.19015 26.673C8.19015 26.673 5.59324 28.6992 3.26743 27.0297C0.941621 25.3603 0.984429 23.1915 0.984429 20.5089C0.984429 20.5089 4.79419 23.2628 6.37802 21.5934C7.96185 19.9239 13.4125 14.6445 13.4125 14.6445Z" fill="black"/>
</g>
<defs>
<clipPath id="clip0_6152_2202">
<rect width="103" height="28" fill="white"/>
</clipPath>
</defs>
</svg>
