<?xml version="1.0" encoding="UTF-8"?><svg xmlns="http://www.w3.org/2000/svg" viewBox="0 0 124.68 23.12"><defs><style>.j{fill:#004a8f;}.k{fill:#fff;}.l{fill:#ed1c24;}</style></defs><g id="a"/><g id="b"><g id="c"><g id="d"><g id="e"><g id="f"><g id="g"><g id="h"><g id="i"><path class="j" d="M14.68,10.54h-5.19c-.04-.48-.33-.9-.77-1.11-.45-.22-.94-.31-1.44-.27-1.15,0-1.71,.33-1.71,.93s.83,1.16,2.49,1.55c1.59,.34,3.14,.84,4.63,1.49,1.56,.71,2.53,2.29,2.48,4,.09,1.71-.73,3.35-2.15,4.31-1.71,1.02-3.68,1.51-5.67,1.4-1.9,.08-3.77-.5-5.29-1.65-1.25-.93-2.01-2.38-2.06-3.94H5.24c.1,.54,.42,1.02,.89,1.32,.46,.3,.99,.45,1.54,.44,1.49,0,2.26-.38,2.26-1.21,0-.61-.82-1.16-2.48-1.55-1.59-.34-3.15-.84-4.64-1.49-1.55-.75-2.51-2.34-2.46-4.06-.09-1.59,.67-3.12,2-4,1.53-.96,3.32-1.42,5.13-1.33,1.86-.12,3.69,.44,5.16,1.58,1.17,.84,1.9,2.16,2,3.59h.04Z"/><path class="j" d="M16.94,22.34V10.25h4.41v1.82c.39-.58,.89-1.07,1.49-1.43,.69-.46,1.49-.71,2.32-.72,2,0,3.31,.72,4,2.21,.92-1.41,2.51-2.24,4.19-2.2,1.37-.13,2.72,.4,3.64,1.43,.75,1.14,1.11,2.5,1,3.87v7.17h-4.8v-6.24c.03-.66-.09-1.31-.36-1.91-.29-.4-.78-.61-1.27-.55-1.1,0-1.71,.88-1.71,2.71v5.95h-4.8v-6.2c.04-.65-.07-1.31-.33-1.91-.29-.4-.78-.61-1.27-.55-1.1,0-1.71,.88-1.71,2.71v5.95l-4.8-.02Z"/><path class="j" d="M53.58,22.34h-5l-.23-1.27c-1.23,1.13-2.85,1.72-4.52,1.66-1.07,.04-2.12-.26-3-.88-.86-.65-1.33-1.69-1.27-2.76-.07-1.48,.85-2.83,2.26-3.31,1.34-.44,2.73-.71,4.14-.83,1.49-.22,2.26-.61,2.26-1.16s-.49-1-1.54-1-1.6,.38-1.71,1.16h-4.62c0-2.71,2.21-4.09,6.63-4.09,2.59,0,4.3,.5,5.18,1.44,.61,.66,.89,1.82,.89,3.59v5.62c0,.28,.03,.56,.11,.83,.11,.29,.3,.54,.55,.72v.27h-.13Zm-7.56-2.41c1.54,0,2.26-1,2.09-3-.51,.22-1.05,.38-1.6,.49-.5,.08-.98,.23-1.43,.44-.39,.2-.63,.61-.61,1.05,0,.67,.55,1,1.55,1v.02Z"/><path class="j" d="M55.56,22.34V10.25h4.36v2.43h.06c.41-1.7,1.95-2.87,3.69-2.82,.2,0,.41,.03,.61,.06v4.8l-1-.17c-.84-.06-1.66,.24-2.26,.83-.54,.8-.78,1.76-.67,2.72v4.15l-4.75,.05-.04,.04Z"/><path class="j" d="M73.66,18.87v3.38c-1.16,.05-2,.11-2.7,.11-1.88,0-3-.28-3.59-.88s-.72-1.71-.72-3.48v-5.04h-1.71v-2.71h1.77v-3.8h4.74v3.8h2.32v2.75h-2.32v4.36c-.05,.41,.05,.82,.28,1.16,.17,.22,.61,.33,1.27,.33h.66v.02Z"/><path class="j" d="M77.03,5.46h3.69c.16-1.7,.79-3.32,1.82-4.69,.39-.46,.95-.74,1.55-.77,.6,.02,1.17,.25,1.6,.66,1.22,1.33,2.04,2.97,2.37,4.74h3.64l1.88,16.28-17.23,.66,.72-16.88h-.04Zm4.3,0h6.24c-.31-1.62-1.06-3.13-2.16-4.36-.31-.34-.75-.53-1.21-.55-.45,.04-.87,.26-1.16,.61-.77,.71-1.38,2.15-1.71,4.3Z"/><path class="l" d="M92.35,4.25l16,2.87c-1,5.57-2.16,12.08-2.87,16l-15.98-2.87c.71-3.92,1.85-10.43,2.85-16Z"/><path class="j" d="M121.06,5.96h-3.53c.15-.34,.38-.65,.66-.89,.27-.22,.6-.37,.94-.44,.13,.29,.32,.55,.55,.77l5-1.32c-.65-.91-.91-2.04-.72-3.14l-5,1.76c-.11,.45-.11,.93,0,1.38-.4,.1-.78,.29-1.11,.55-.25,.2-.45,.44-.6,.72v-1c0-.28-.22-.5-.5-.5h-5c-.27,0-.49,.22-.49,.49h0v1.67h-3.81c-.69-.02-1.27,.52-1.29,1.21v13.63c0,.73,.59,1.31,1.32,1.33h13.58c.71-.03,1.28-.61,1.29-1.33V7.25c-.03-.7-.59-1.26-1.29-1.29Zm-4.64,.11h-4.41v-.94c-.01-.17,.12-.32,.29-.33,.01,0,.03,0,.04,0h3.75c.18,0,.32,.15,.33,.33v.94Z"/><path class="k" d="M85.14,15.01h-1v1.76h1.38c.89,0,1.33-.27,1.33-.88,.02-.34-.18-.65-.5-.77-.4-.08-.8-.12-1.21-.11Zm.11-3.31h-1.11v1.6h1.27c.72,0,1-.28,1-.83,.04-.28-.12-.55-.38-.66-.27-.09-.55-.12-.83-.11h.05Zm.38,7.28h-4.63V9.49h4.52c2.54,0,3.81,.77,3.81,2.37,0,.84-.46,1.61-1.21,2,.47,.11,.88,.38,1.16,.77,.28,.41,.43,.89,.44,1.38,0,2-1.33,2.93-4.09,2.93v.04Z"/><path class="k" d="M94.85,14.84v-5.35h3.09v5.68c-.02,.42,.07,.84,.27,1.22,.29,.36,.76,.55,1.22,.49,1,0,1.43-.61,1.43-1.76v-5.69h3.09v5.35c.11,1.21-.29,2.42-1.1,3.32-2.08,1.35-4.76,1.35-6.84,0-.78-.61-1.16-1.71-1.16-3.31v.05Z"/><polygon class="k" points="115.54 15.5 115.54 18.98 112.45 18.98 112.45 15.56 108.92 9.49 112.4 9.49 113.99 12.74 115.65 9.49 119.07 9.49 115.54 15.5"/></g></g></g></g></g></g></g></g></svg>