<svg xmlns="http://www.w3.org/2000/svg" xmlns:xlink="http://www.w3.org/1999/xlink" width="28" height="28" viewBox="0 0 28 28">
  <defs>
    <clipPath id="clip-path">
      <circle id="Ellipse_1" data-name="Ellipse 1" cx="12.854" cy="12.854" r="12.854" fill="none"/>
    </clipPath>
    <clipPath id="clip-kissan">
      <rect width="28" height="28"/>
    </clipPath>
  </defs>
  <g id="kissan" clip-path="url(#clip-kissan)">
    <g id="Layer_1-2" transform="translate(-15.17 -14.865)">
      <g id="Group_4" data-name="Group 4" transform="translate(16.17 15.865)">
        <g id="Group_3" data-name="Group 3" transform="translate(0 0.432)" clip-path="url(#clip-path)">
          <g id="PPQcKp" transform="translate(-13.485 5.056)">
            <g id="Group_2" data-name="Group 2">
              <path id="Path_1" data-name="Path 1" d="M-364.4,201.238l.128.147c.231-.079.241-.092.183-.323a3.775,3.775,0,0,1-.1-.446l.242.481.163-.243.019.008-.072.314h.121c-.175.064-.167.194-.137.339s.049.3.076.469l.093-.174c.012.156.022.289.033.421l.032,0,.119-.218.048.209.03,0,.083-.307.059.125c.131-.205.12-.492-.041-1.2l.04-.018.331.763.248-.348-.135.64.3-.257-.129.581.047.02a1.646,1.646,0,0,1,1.221-1.055,2.321,2.321,0,0,0-.705.508l.3-.048-.411.275.021.035.213-.057a.7.7,0,0,0-.287.416h.309l.08-.328.031.005c.009.1.017.193.029.331l.126-.2c.01.063.018.106.025.148l.032.007.079-.253.04.216.033.016.134-.4.025,0,.032.378.03.009.126-.213.039.2.03.009.1-.314.074.311.169-.433c.014.173.024.306.034.438h.034l.121-.225.032.215.035.007.09-.285.075.151.078-.4.055.1.035-.07c-.011.155-.02.3-.03.45l.03.008.117-.235c.013.137.022.236.035.37.04-.043.059-.054.063-.069.092-.344.193-.687.27-1.035a2.933,2.933,0,0,0,.049-.56,1.141,1.141,0,0,1,.247-.688c.267-.351.518-.714.787-1.088-.233-.172-.439-.335-.657-.479a.693.693,0,0,0-.525-.076,7.654,7.654,0,0,1-.848.054c-.1.005-.2.007-.3.013a.627.627,0,0,0-.482.346c-.165.241-.375.452-.562.679-.132.16-.256.327-.391.485a.751.751,0,0,1-.231.212,3.083,3.083,0,0,1-.563.186.546.546,0,0,1-.263-.041,1.846,1.846,0,0,1-.2-.1.3.3,0,0,1-.191-.449.367.367,0,0,1,.04-.1,1.473,1.473,0,0,0,.209-.978c0-.1-.012-.2-.006-.3a.577.577,0,0,0-.125-.4,2.088,2.088,0,0,1-.135-.234c-.367.373-.742.184-1.112,0a.863.863,0,0,1,.794-.377.674.674,0,0,0,.565-.151c-.09,0-.153,0-.215,0a.681.681,0,0,1-.719-.752,2.314,2.314,0,0,1,.5-1.395c-.037.2-.086.408-.109.614a3.4,3.4,0,0,0-.016.562.437.437,0,0,0,.224.378.231.231,0,0,0,.277-.012,1.605,1.605,0,0,1,.409-.156c.332-.11.668-.209,1-.328a1.093,1.093,0,0,0,.512-.432,1.083,1.083,0,0,0-.019-1.227.356.356,0,0,1-.039-.11,1.711,1.711,0,0,1,.61.8c.237-.047.47-.091.7-.142a.159.159,0,0,0,.081-.078c.035-.062.056-.131.089-.194.081-.155.155-.174.281-.051a.19.19,0,0,0,.3.014q.727-.6,1.46-1.2a3.4,3.4,0,0,1,1.77-.828,4.706,4.706,0,0,1,1.467.128,10.889,10.889,0,0,0,3.243.224c.46-.046.918-.114,1.378-.161a2.419,2.419,0,0,1,.577-.005,1.041,1.041,0,0,1,.461.17,3.1,3.1,0,0,0,.8.426c.21.076.41.178.614.269a1.135,1.135,0,0,1,.612.668c.1.266.187.537.272.808a5.81,5.81,0,0,0,.9,1.6.452.452,0,0,0,.108.081,2.779,2.779,0,0,1,.292.218.605.605,0,0,1,.109.767.966.966,0,0,0-.126.533c-.154-.07-.136-.222-.187-.342a2.276,2.276,0,0,1-.049-.68.907.907,0,0,0-.211-.477,7.28,7.28,0,0,1-1.223-1.956c-.037-.081-.076-.162-.125-.268-.031.306-.054.581-.086.854-.053.438-.112.876-.167,1.314a.536.536,0,0,0,0,.076c.009.487.1.59.576.672.16.027.323.04.483.068.22.038.277.091.266.314a7.253,7.253,0,0,1-.091.74c-.028.184-.07.366-.109.563.392.089.767.175,1.143.259.6.132,1.192.26,1.786.395.112.025.162-.005.175-.117a6.19,6.19,0,0,1,2.059-3.791,7.835,7.835,0,0,1,.739-.612c.257-.191.531-.357.808-.542-.078-.264.181-.127.268-.213a.409.409,0,0,0-.069,0c-.03,0-.063.023-.089.016a.421.421,0,0,1-.1-.061c.022-.028.04-.074.067-.08.174-.037.349-.07.525-.094a.249.249,0,0,1,.159.036c.146.1.265.026.415-.044-.219-.075-.415-.137-.608-.209-.143-.053-.282-.116-.42-.181-.1-.045-.184-.107-.233.056-.007.023-.128.042-.134.031-.089-.176-.273-.152-.417-.21-.023-.009-.054-.009-.071-.024a.52.52,0,0,1-.066-.083c.034-.019.069-.057.1-.054a.855.855,0,0,0,.226.015,2.365,2.365,0,0,1-.249-.069c-.033-.013-.053-.056-.079-.086a.387.387,0,0,1,.119-.051.572.572,0,0,0,.149,0,.933.933,0,0,1-.171-.046c-.038-.018-.064-.06-.1-.092l.113-.089a.043.043,0,0,1-.014-.035c.066-.226-.068-.389-.176-.557a5.732,5.732,0,0,0-3.293-2.421,10.983,10.983,0,0,0-2.519-.423,8.123,8.123,0,0,1,2.785.418,5.845,5.845,0,0,1,2.765,1.87c.184.228.326.49.492.732.125.182.224.393.5.4a.251.251,0,0,1,.177.1.358.358,0,0,0,.313.15c.46.045.92.1,1.381.137a.178.178,0,0,0,.138-.068c.12-.194.23-.395.342-.594a.391.391,0,0,0,.035-.083c.04-.144.077-.289.123-.461a.8.8,0,0,1-.047-.069c-.064-.109-.134-.092-.226-.027a.564.564,0,0,1-.252.116c-.153.013-.193-.057-.146-.2l-.423-.365-.027.027a.174.174,0,0,1-.014-.057,1.736,1.736,0,0,0-.4-1.148.274.274,0,0,1,.165-.335c.149-.032.3-.041.452-.069a.973.973,0,0,0,.292-.08.669.669,0,0,1,.831.158.708.708,0,0,1,.058.085c.093-.122.187-.2.32-.121.209.125.31.317.256.467-.044.12-.147.155-.3.109a2.229,2.229,0,0,1,.049.606c-.036.2.066.264.184.345a.187.187,0,0,0,.127.028,1.048,1.048,0,0,1,.981.372,2.8,2.8,0,0,1,.55.89c.073.168.145.336.219.5a2.45,2.45,0,0,0,.528.759c.119.116.191.307.328.371.169.079.174.223.237.343.049.094.048.212.089.311a.3.3,0,0,0,.133.145c.162.081.331.147.5.218v.049l-.524.109c0,.368-.014.752,0,1.135.022.477.064.953.109,1.429a.608.608,0,0,0,.111.3,6.558,6.558,0,0,1,1,1.841.565.565,0,0,1,0,.19c0,.014-.01.031-.006.043.09.228.182.455.281.7l.335-.785.049.016a2.051,2.051,0,0,0-.053,1.211l.069-.137.089.29.033,0c.009-.06.019-.12.035-.221l.12.228h.037c.011-.135.021-.27.033-.421l.094.169a5.185,5.185,0,0,0,.086-.59c0-.073-.079-.15-.115-.213l.093.011-.085-.338.015-.011.175.262.227-.462.027.012c-.038.135-.081.269-.114.4-.054.222-.052.223.164.336l.126-.116c-.006.07-.034.14-.012.185s.1.082.146.13a2.415,2.415,0,0,1,.244.287,3.156,3.156,0,0,1,.173.331l.042-.009-.126-.57.293.245-.135-.629.25.346.333-.77.044.017a2.033,2.033,0,0,0-.067,1.228l.069-.114.23.594a.531.531,0,0,1-.148.644,4.761,4.761,0,0,0-.539.619.738.738,0,0,0-.122.748,1.046,1.046,0,0,1,.032.118.559.559,0,0,1-.406.717c-.3.079-.617.121-.926.182-.1.02-.2.044-.3.074a.3.3,0,0,0-.241.26c-.03.173-.226.306-.364.406a17.845,17.845,0,0,1-2.734,2.009,15.58,15.58,0,0,1-8.919,1.8,13.625,13.625,0,0,1-3.373-1.049,10.7,10.7,0,0,1-3.148-2.1c-.721-.689-.65-.823-1.2-1.2a6.034,6.034,0,0,0-3.029-.968,6.165,6.165,0,0,1-.8-.033c-.115-.012-.238-.029-.373-.053a5.9,5.9,0,0,1-1.529-.5,4.708,4.708,0,0,0-2.449-.5c-.3.024-.6.019-.9.022a11.851,11.851,0,0,1-2.221-.092,2.973,2.973,0,0,1-.652-.2,5.582,5.582,0,0,0-1.6-.349q-.96-.116-1.915-.276a1.613,1.613,0,0,1-.835-.385.591.591,0,0,1-.244-.583l.106.242.052-.078.106.073c.017-.183.028-.361.055-.537.008-.053.061-.1.109-.148-.086.264-.148.516.17.683l.048-.12.081.113a.833.833,0,0,0,.034-.284c-.015-.063-.109-.109-.159-.155h.179c-.128-.271-.4-.323-.636-.488a1.869,1.869,0,0,1,1.248.987l.046-.023-.128-.5.236.267.052-.021-.125-.593.268.3c.141-.341-.024-.63-.072-.94l.232.468.175-.269a1.845,1.845,0,0,0,0,1.137l.09-.157c.011.152.02.288.03.424h.037l.123-.237c.013.1.02.163.027.223l.036.01.094-.293.065.141a2.01,2.01,0,0,0-.049-1.219l.045-.016.32.747.257-.355-.144.646.034.01.3-.315a3.207,3.207,0,0,0-.111.327,3.384,3.384,0,0,0-.038.35l.24-.431q.163-.3.322-.587Zm17.961.594c.023.106.046.212.076.347l.08-.122.1.261.06-.191.147.193c.014-.139.024-.238.038-.373l.125.252.064-.429.021,0,.076.32.071-.154.09.29.036-.009.031-.212.121.226.036,0,.034-.437.156.405.028-.012.049-.273.1.321.036-.01c.007-.061.014-.123.025-.22l.13.232.032-.007c.012-.129.024-.257.036-.385h.021l.13.4.035-.01.039-.183.1.248.044-.185.117.195c.015-.138.025-.235.035-.333h.031l.077.325h.307a.654.654,0,0,0-.287-.419l.214.056.021-.034-.417-.277.3.056.023-.038-.706-.478a2.048,2.048,0,0,1,.925.544c.02-.183-.025-.324-.185-.374-.518-.163-1.039-.319-1.562-.463a3.72,3.72,0,0,0-.516-.071v.727l-.379-.061-.182.366c0-.138,0-.275,0-.413a.082.082,0,0,0-.041-.056,1.14,1.14,0,0,1-.443-.509.432.432,0,0,0-.3-.226,1.315,1.315,0,0,1-.3-.117c-.289-.138-.576-.281-.882-.431-.033.125-.056.2-.073.28a2.213,2.213,0,0,0,.047,1.159.2.2,0,0,1-.086.271,1.325,1.325,0,0,0-.238.272l.35.108c-.006-.112-.01-.2-.014-.283l.026,0,.1.211.045-.083.146.111c-.03-.277-.094-.525.127-.724-.094.482-.075.556.179.684l.035-.12.1.141c.01-.209.02-.4.031-.631a1.075,1.075,0,0,1,.115.295.53.53,0,0,0,.228.393c-.013-.062-.021-.1-.031-.146l.322.253.054-.14.1.126.037-.031-.293-.34.215.054.017-.033-.422-.283.3.057.024-.042-.711-.48a1.8,1.8,0,0,1,1.148.884l.1-.215Zm-8.326-.252c-.014.046-.031.092-.041.138-.038.162-.074.325-.111.488l.047.015a1.426,1.426,0,0,1,.436-.653c.166-.135.166-.134.059-.324l.175.141c.217-.094.22-.095.166-.317-.034-.141-.077-.28-.116-.42a.845.845,0,0,1,.139.209c.039.079.073.161.112.251l.175-.265.018.011-.087.331.146-.013c-.168.107-.188.127-.172.245.024.18.059.358.092.557l.1-.164c.01.153.019.288.029.423h.038l.121-.234.031.223.035.005.094-.3.061.152a2.008,2.008,0,0,0-.049-1.224l.047-.017.322.75.254-.35c-.053.239-.1.44-.142.642a.573.573,0,0,0,.184-.156c.045-.053.12-.105.126-.164.031-.3.258-.428.481-.556a.5.5,0,0,1,.179-.024l.012.038c-.1.072-.2.138-.286.218s-.158.186-.247.267a.767.767,0,0,0-.235.731,1.679,1.679,0,0,1,1.192-1.072l-.689.485.026.034.3-.057-.421.284.019.031.222-.058a.672.672,0,0,0-.29.414h.306l.093-.341.024.01.025.3h.032l.1-.152.034.152h.029l.075-.247.046.219.029.008.139-.418.022.012c.01.13.021.26.031.389h.037l.116-.216.039.213.031,0,.1-.324.05.281.027.011.153-.382.039.416.033,0,.12-.218.039.209.032,0,.088-.3.074.159.085-.37.077.476.119-.242.044.367.152-.2.034.157.031,0,.092-.217.071.1c.016-.044.029-.072.036-.1.017-.068.03-.136.045-.2l.078.082-.041-.243c-.045-.007-.1,0-.126-.023a.416.416,0,0,1-.007-.442l.155.338c.063-.278.122-.523.172-.769a1.552,1.552,0,0,0-.063-.856.236.236,0,0,0-.138-.133c-.3-.069-.594-.138-.9-.177a1.427,1.427,0,0,1-.826-.35,1.424,1.424,0,0,0-1.241-.4,1.556,1.556,0,0,1-.335.014c-.543-.034-1.084-.084-1.627-.108-.343-.016-.688,0-1.031.009-.1,0-.133.061-.126.174.024.405.04.812.039,1.217a1.108,1.108,0,0,0,.081.5.325.325,0,0,1,.046.2c-.084.268.11.465.14.721l.273-.369-.139.631.037.01.284-.312Zm18.65-.538c-.005-.063-.007-.123-.016-.182-.065-.453-.128-.906-.2-1.357a2.741,2.741,0,0,1-.006-1.089q.183-.747.36-1.495a.481.481,0,0,0-.007-.177c-.025-.165-.047-.331-.088-.492-.028-.111-.094-.211-.131-.321a2.706,2.706,0,0,1-.08-.316c-.009-.045.014-.1-.008-.139-.151-.24-.309-.475-.468-.71a.163.163,0,0,0-.2-.062,8.289,8.289,0,0,1-1.764.235c-.163,0-.334-.035-.464.115-.025.028-.085.025-.129.038a1.105,1.105,0,0,0-.216.068,5.362,5.362,0,0,0-1.6,1.28,5.731,5.731,0,0,0-1.254,3.586.164.164,0,0,0,.155.187c.273.054.544.114.814.171-.01.357-.157.546-.426.566,0,0-.006.017-.013.035a.668.668,0,0,1,.68.459,2.3,2.3,0,0,0,.3.453l.037-.013-.137-.632.25.342.327-.754.045.018a1.99,1.99,0,0,0-.052,1.231l.063-.151.092.3.033-.007.036-.209.122.221.034,0c.009-.133.019-.265.031-.429l.091.179a1.691,1.691,0,0,0-.028-1.122l.038-.005.161.242.254-.5a1.593,1.593,0,0,0-.094.982l.272-.312-.136.623.3-.284-.132.495c.191-.184.34-.387.52-.557a1.3,1.3,0,0,1,.664-.341l-.639.45.024.034.3-.058-.42.287.019.028.231-.056c-.248.188-.3.273-.2.362l.041-.169.282.1v-.329l.11.254.05-.08.137.1-.02-.253.312.245.057-.143.113.16.1-.295.165.249.029-.262.09.25.031-.038.171.062c-.022-.246-.088-.495.159-.717-.113.3-.177.552.153.715l.03-.124.1.138c.01-.2.019-.388.031-.615a.835.835,0,0,1,.113.266.51.51,0,0,0,.195.379s.015,0,.026,0l-.023-.119c.108.049.152.2.286.165l.053-.066-.244-.228.2.049.018-.035-.425-.279.309.059.024-.033-.673-.471.01-.025.7.36c.058-.291-.255-.336-.362-.544l.294.069Zm-21.231.843.216.058.021-.034-.428-.283.311.061.023-.041-.712-.48.019-.033a4.835,4.835,0,0,1,.7.407,4.974,4.974,0,0,1,.552.626l-.142-.524.027-.032.232.285.036-.017-.14-.612.281.311a1.69,1.69,0,0,0-.092-.964l.242.479.047-.007a.913.913,0,0,0-.023-.192c-.067-.2-.152-.386-.214-.583-.122-.386-.234-.775-.352-1.168-.2.032-.384.057-.564.089a.183.183,0,0,0-.084.057c-.171.174-.349.341-.506.527s-.31.41-.467.614a2.908,2.908,0,0,1-.275.33,3.589,3.589,0,0,1-.338.26l.016.018.28-.059.026.051c-.032.022-.062.047-.1.066a.64.64,0,0,0-.385.69c.005.036-.054.1-.1.122a.2.2,0,0,0-.121.288l.061-.066.038.141.026,0,.061-.209h.023l.032.182.032.01.152-.443c.017.173.03.3.042.427l.033,0,.12-.216.038.211.032,0,.1-.325.054.279.032.007.151-.406c.013.181.023.313.032.445l.038,0,.117-.219.036.215.033,0,.093-.3.067.16.076-.321h.02c.022.135.043.269.067.419l.125-.235c.014.128.025.225.039.36l.147-.19.058.191.117-.3.048.258.174-.056-.308-.339Zm24.117.091.029-.005.091.373.245-.229-.261-.235.248.063.017-.033-.416-.281.3.06.023-.036-.67-.468.009-.021.651.32c-.019-.031-.034-.055-.051-.079-.459-.647-.92-1.292-1.375-1.941a1.857,1.857,0,0,1-.343-.838c-.021-.162-.068-.32-.1-.48a5.312,5.312,0,0,0-.374.682.41.41,0,0,0-.035.23,6.249,6.249,0,0,1,.083,1.882c-.019.153.044.341-.133.452-.012.007-.009.038-.011.058-.022.187-.05.373-.062.561a.9.9,0,0,0,.04.222l.038,0,.051-.1.145.189c.017-.135.028-.231.044-.362l.119.246c.024-.167.044-.3.063-.43l.021,0,.078.311.074-.145.088.3.028-.007.044-.2.12.219.033-.008c.011-.126.021-.252.035-.415l.155.383.03-.017c.014-.078.028-.156.047-.256l.1.31.037-.012c.008-.06.017-.121.03-.216l.12.231h.037c.01-.136.021-.273.034-.452l.154.457.029-.01.045-.188.1.252.047-.181.118.2c.014-.142.024-.239.033-.337Zm-13.478-2.187a.386.386,0,0,0,.354.333q1.284.247,2.566.5a1.118,1.118,0,0,0,.112.011l.025-.049a.572.572,0,0,0-.156-.105c-.682-.176-1.365-.349-2.05-.515C-346.13,199.9-346.41,199.849-346.708,199.789Zm-1.482-1.226c.045.129.056.3.122.323a5.99,5.99,0,0,0,.738.191C-347.4,198.8-347.721,198.6-348.19,198.564Zm7.163,3.666a1.015,1.015,0,0,0-.5-.978c-.128.164-.122.168.022.3a1.878,1.878,0,0,1,.282.31A3.232,3.232,0,0,1-341.028,202.23Zm-8.851-3.808.028-.041c-.082-.095-.159-.194-.247-.283-.211-.212-.307-.2-.527.041Zm.324.744.019-.052-1.493-.5-.013.036a2.318,2.318,0,0,0,.9.365A2.76,2.76,0,0,1-349.554,199.166Zm1.437.5.784.237c.069-.163.026-.232-.131-.251a2.209,2.209,0,0,1-.4-.093A.188.188,0,0,0-348.118,199.663Zm-7.949,1.551-.057.006c.028.243.055.487.086.754a.591.591,0,0,0-.029-.761Zm1.692.859-.041-.016-.132.253.173-.009v-.228Zm12.859-.048c-.064.264-.042.3.129.255Zm10.859.289.165-.018-.131-.239-.034.014Zm-33.764-.01-.013-.238-.039-.007-.121.245Z" transform="translate(368.163 -189.844)" fill="#e56c7f"/>
              <path id="Path_2" data-name="Path 2" d="M730.15,519.271l-.64-.572C729.755,518.632,730.2,519,730.15,519.271Z" transform="translate(-692.266 -507.533)" fill="#e56c7f"/>
              <path id="Path_3" data-name="Path 3" d="M22.733,525.84c.107.19.107.189-.059.324a1.42,1.42,0,0,0-.436.653l-.048-.015c.037-.163.073-.325.111-.488.011-.047.027-.092.041-.138l0,0c.073-.063.146-.127.22-.189s.119-.1.179-.147Z" transform="translate(-8.945 -514.44)" fill="#e56c7f"/>
              <path id="Path_4" data-name="Path 4" d="M33.3,549.846v.228l-.173.009.132-.253.041.016Z" transform="translate(-19.514 -537.616)" fill="#e56c7f"/>
              <path id="Path_5" data-name="Path 5" d="M737.26,550.077v-.243l.034-.014.131.239Z" transform="translate(-699.753 -537.606)" fill="#e56c7f"/>
              <path id="Path_6" data-name="Path 6" d="M491.886,520.958l-.705.53C491.16,521.223,491.582,520.915,491.886,520.958Z" transform="translate(-462.022 -509.719)" fill="#e56c7f"/>
              <path id="Path_7" data-name="Path 7" d="M478.794,503.36a1.229,1.229,0,0,1-.152.665C478.528,503.9,478.612,503.541,478.794,503.36Z" transform="translate(-449.86 -492.722)" fill="#e56c7f"/>
              <path id="Path_8" data-name="Path 8" d="M26.979,518.588c-.06.049-.12.1-.179.147s-.147.126-.22.189c.021-.078.018-.179.067-.231a3.218,3.218,0,0,1,.411-.346.217.217,0,0,1,.179,0l-.259.236Z" transform="translate(-13.186 -507.184)" fill="#e56c7f"/>
              <path id="Path_9" data-name="Path 9" d="M247.421,519.24l-.641-.575C246.992,518.576,247.442,518.938,247.421,519.24Z" transform="translate(-225.915 -507.495)" fill="#e56c7f"/>
            </g>
          </g>
        </g>
        <circle id="Ellipse_2" data-name="Ellipse 2" cx="12.873" cy="12.873" r="12.873" transform="translate(0 0)" fill="none" stroke="#e56c7f" stroke-miterlimit="10" stroke-width="0.5"/>
      </g>
    </g>
  </g>
</svg>
