<svg width="74" height="32" fill="none" xmlns="http://www.w3.org/2000/svg"><path d="m16.215 23.845 1.066.159c.047.325.168.563.37.716.27.2.64.303 1.112.303.505 0 .898-.102 1.173-.303.276-.2.463-.484.561-.847.057-.223.085-.689.08-1.396-.477.563-1.075.843-1.786.843-.888 0-1.576-.317-2.062-.955-.486-.637-.729-1.4-.729-2.294 0-.614.112-1.178.337-1.699.224-.516.547-.916.967-1.2.426-.284.921-.424 1.492-.424.762 0 1.388.307 1.884.921v-.777h1.01v5.557c0 1-.103 1.708-.309 2.127a2.24 2.24 0 0 1-.972.991c-.444.242-.991.363-1.637.363-.771 0-1.393-.172-1.865-.516-.472-.345-.701-.866-.687-1.56l-.005-.009zm.907-3.862c0 .842.168 1.456.505 1.847a1.61 1.61 0 0 0 1.267.582c.51 0 .926-.19 1.267-.577.341-.386.51-.991.51-1.815s-.178-1.378-.524-1.778c-.35-.4-.772-.6-1.267-.6-.496 0-.898.195-1.239.59-.341.396-.51.978-.51 1.75h-.009zM23.326 23.31v-6.427h.987v.973c.252-.456.481-.759.696-.903.215-.144.449-.219.701-.219.37 0 .744.117 1.127.35l-.378 1.01a1.558 1.558 0 0 0-.805-.238c-.238 0-.453.07-.645.214a1.161 1.161 0 0 0-.407.596c-.121.386-.182.81-.182 1.27v3.365h-1.094v.01zM27.08 20.1c0-1.191.332-2.07.996-2.643.556-.475 1.234-.717 2.029-.717.888 0 1.613.289 2.178.87.561.578.847 1.378.847 2.402 0 .828-.127 1.475-.374 1.95a2.614 2.614 0 0 1-1.09 1.103c-.477.26-.995.396-1.561.396-.902 0-1.636-.289-2.193-.866-.556-.577-.837-1.41-.837-2.495h.005zm1.127 0c0 .824.182 1.438.542 1.848.36.41.814.614 1.36.614.548 0 .996-.204 1.356-.619.36-.41.543-1.037.543-1.88 0-.796-.183-1.396-.543-1.806a1.736 1.736 0 0 0-1.35-.614c-.538 0-1.001.205-1.361.61-.36.41-.543 1.024-.543 1.847h-.004zM38.627 20.959l1.075.14c-.116.74-.42 1.316-.902 1.735-.486.42-1.08.629-1.786.629-.883 0-1.594-.289-2.132-.861-.537-.578-.804-1.401-.804-2.472 0-.693.117-1.303.346-1.824.23-.521.585-.912 1.057-1.173a3.14 3.14 0 0 1 1.543-.39c.701 0 1.276.176 1.72.53.444.353.734.856.856 1.503l-1.066.163c-.103-.433-.28-.759-.538-.973a1.396 1.396 0 0 0-.935-.326c-.552 0-1 .196-1.342.591-.346.391-.519 1.015-.519 1.867 0 .851.169 1.489.5 1.88.333.39.767.586 1.3.586.43 0 .79-.13 1.076-.395.29-.26.472-.666.547-1.21h.004zM45.06 21.245l1.132.14c-.178.656-.51 1.168-.991 1.531-.482.363-1.099.545-1.847.545-.944 0-1.692-.289-2.248-.87-.557-.582-.833-1.392-.833-2.44 0-1.046.28-1.921.837-2.517.557-.596 1.286-.894 2.179-.894.893 0 1.57.293 2.118.88.547.586.823 1.41.823 2.471 0 .065 0 .163-.005.289h-4.816c.043.707.244 1.247.604 1.624s.808.563 1.35.563c.403 0 .744-.107 1.03-.316.284-.21.509-.545.672-1.006h-.004zm-3.594-1.759h3.604c-.047-.54-.187-.945-.411-1.215-.35-.419-.8-.628-1.356-.628-.505 0-.926.168-1.267.503-.341.335-.533.782-.57 1.345v-.005zM47.552 23.31v-6.427h.987v.973c.252-.456.481-.759.696-.903.215-.144.45-.219.702-.219.369 0 .743.117 1.126.35l-.378 1.01a1.558 1.558 0 0 0-.805-.238c-.238 0-.453.07-.645.214a1.16 1.16 0 0 0-.406.596c-.122.386-.183.81-.183 1.27v3.365h-1.094v.01zM51.661 25.784l-.121-1.024c.238.065.449.098.626.098.243 0 .44-.042.585-.121.145-.08.266-.196.36-.34.07-.107.182-.377.336-.81.019-.06.052-.149.098-.265l-2.45-6.441h1.179l1.342 3.723c.173.47.331.968.467 1.49.126-.503.276-.987.449-1.467l1.38-3.746h1.093l-2.454 6.539c-.262.707-.468 1.191-.613 1.456-.196.359-.416.624-.668.792a1.585 1.585 0 0 1-.898.251c-.21 0-.444-.047-.706-.135h-.005z" fill="#41AC4E"/><path fill-rule="evenodd" clip-rule="evenodd" d="M40.307 13.347c-1.83 1.334-4.491 2.044-6.788 2.044-3.218 0-6.102-1.17-8.297-3.117-.165-.155-.024-.363.19-.242 2.364 1.358 5.282 2.165 8.297 2.165 2.03 0 4.272-.415 6.336-1.28.305-.116.558.208.262.43z" fill="#020203"/><path fill-rule="evenodd" clip-rule="evenodd" d="M41.069 12.482c-.233-.295-1.554-.14-2.142-.068-.18.024-.208-.13-.043-.242 1.053-.734 2.772-.512 2.971-.275.2.241-.053 1.947-1.044 2.755-.155.12-.3.053-.233-.111.228-.537.724-1.755.49-2.06zM38.962 7.034V6.32c0-.111.077-.174.18-.174h3.218c.102 0 .19.077.19.174v.604c0 .097-.088.232-.243.45l-1.665 2.339c.621-.01 1.276.077 1.83.382.121.067.155.174.165.275v.754c0 .111-.112.232-.233.164-.986-.512-2.306-.57-3.394.01-.111.053-.233-.053-.233-.164v-.72c0-.111 0-.305.122-.484l1.932-2.726h-1.675c-.102 0-.194-.072-.194-.169zm-11.725 4.408h-.976a.206.206 0 0 1-.18-.164V6.333c0-.096.088-.174.19-.174h.908c.102 0 .165.078.18.165v.647h.024c.233-.623.689-.918 1.286-.918.597 0 1 .295 1.262.918.233-.623.777-.918 1.355-.918.413 0 .855.164 1.131.546.31.416.243 1.02.243 1.552v3.127c0 .096-.087.174-.19.174h-.965c-.102-.01-.18-.087-.18-.174V8.653c0-.207.024-.734-.024-.928-.078-.328-.287-.425-.578-.425a.651.651 0 0 0-.588.406c-.102.251-.087.667-.087.952v2.625c0 .096-.087.174-.19.174h-.975c-.102-.01-.18-.087-.18-.174v-2.63c0-.546.088-1.367-.597-1.367-.685 0-.675.787-.675 1.367v2.625c-.005.087-.082.164-.194.164zm18.085-5.394c1.451 0 2.243 1.228 2.243 2.789 0 1.561-.864 2.711-2.243 2.711s-2.195-1.227-2.195-2.754c-.014-1.542.772-2.746 2.195-2.746zm0 1.015c-.724 0-.767.972-.767 1.576 0 .604-.01 1.895.752 1.895s.801-1.04.801-1.673c0-.415-.024-.918-.145-1.314-.112-.353-.335-.484-.641-.484zm4.112 4.38h-.976c-.102-.01-.18-.088-.18-.175V6.31a.19.19 0 0 1 .19-.164h.908c.087 0 .155.068.18.14v.754h.024c.276-.677.655-.995 1.33-.995.432 0 .864.154 1.14.58.258.391.258 1.063.258 1.541v3.118c-.01.087-.087.154-.19.154h-.975c-.087-.01-.165-.077-.18-.154V8.595c0-.546.068-1.334-.611-1.334-.233 0-.457.155-.568.392-.131.304-.156.604-.156.942v2.668c0 .102-.092.18-.194.18zM36.398 9.078c0 .372.01.69-.18 1.03-.155.275-.397.439-.674.439-.379 0-.597-.285-.597-.7 0-.822.742-.972 1.451-.972v.203zm.99 2.353a.206.206 0 0 1-.232.025c-.32-.261-.389-.392-.568-.648-.534.536-.923.7-1.607.7-.82 0-1.467-.502-1.467-1.498 0-.787.432-1.314 1.044-1.575.534-.232 1.277-.276 1.84-.338v-.126c0-.232.025-.503-.121-.7-.121-.175-.345-.252-.544-.252-.378 0-.709.183-.786.58-.025.087-.078.174-.165.174l-.942-.097c-.078-.024-.165-.077-.146-.198C33.917 6.343 34.947 6 35.88 6c.476 0 1.097.12 1.476.483.476.44.432 1.03.432 1.663v1.498c0 .45.19.648.364.9.068.086.078.197 0 .25-.209.165-.563.474-.762.638zM23.587 9.08c0 .372.01.69-.18 1.03-.155.275-.398.439-.674.439-.38 0-.598-.285-.598-.7 0-.822.743-.972 1.452-.972v.203zm.976 2.353a.206.206 0 0 1-.233.025c-.32-.261-.389-.392-.568-.648-.534.536-.923.7-1.607.7-.82 0-1.466-.502-1.466-1.498 0-.787.432-1.314 1.043-1.575.534-.232 1.277-.276 1.84-.338v-.126c0-.232.025-.503-.121-.7-.121-.175-.345-.252-.544-.252-.378 0-.709.183-.786.58-.024.087-.078.174-.165.174l-.942-.097c-.078-.024-.165-.077-.146-.198C21.09 6.343 22.12 6 23.052 6c.476 0 1.097.12 1.476.483.476.44.432 1.03.432 1.663v1.498c0 .45.19.648.364.9.068.086.078.197 0 .25-.204.165-.558.474-.762.638z" fill="#020203"/></svg>