<svg width="60" height="21" viewBox="0 0 60 21" fill="none" xmlns="http://www.w3.org/2000/svg">
<path d="M59.4262 11.7269C59.3548 12.3744 59.155 12.9719 58.7671 13.4934C58.4428 13.93 58.0414 14.2648 57.5521 14.4896C57.0493 14.7214 56.5243 14.8353 55.9771 14.8702C55.6094 14.8942 55.2427 14.8902 54.8798 14.8403C54.102 14.7344 53.384 14.4606 52.7876 13.9171C52.307 13.4794 51.9499 12.9499 51.7396 12.3154C51.6228 11.9617 51.5427 11.601 51.4993 11.2313C51.4549 10.8596 51.4549 10.484 51.4732 10.1113C51.5022 9.50879 51.616 8.92229 51.8621 8.36976C52.1266 7.77527 52.5049 7.28069 53.0173 6.89301C53.4689 6.55031 53.9717 6.34648 54.5151 6.22458C54.9947 6.11767 55.4791 6.11068 55.9626 6.13466C56.5233 6.16263 57.0724 6.27854 57.583 6.53232C58.2614 6.87003 58.7787 7.3796 59.0894 8.09899C59.2477 8.46668 59.3558 8.84736 59.3837 9.25101C59.3895 9.33294 59.4532 9.42986 59.4021 9.49181C59.3461 9.55875 59.239 9.51779 59.155 9.51779C58.4737 9.51978 57.7933 9.51879 57.112 9.51879C57.0744 9.51879 57.0367 9.51779 56.9981 9.51879C56.9489 9.52078 56.9219 9.50879 56.9142 9.44685C56.9016 9.34293 56.8804 9.23902 56.8534 9.13711C56.7704 8.81838 56.6102 8.5536 56.3197 8.39574C56.1508 8.30382 55.9665 8.25886 55.7783 8.24287C55.4627 8.21589 55.153 8.24387 54.8683 8.40373C54.5787 8.56659 54.4021 8.82837 54.2892 9.13811C54.157 9.5008 54.1068 9.87948 54.0924 10.2652C54.0789 10.6448 54.0924 11.0235 54.1696 11.3962C54.2583 11.8228 54.4099 12.2155 54.7611 12.4933C54.9599 12.6511 55.1906 12.7311 55.4319 12.753C55.6818 12.776 55.9337 12.769 56.1798 12.6731C56.5156 12.5412 56.7376 12.3054 56.8621 11.9637C56.9113 11.8288 56.9489 11.6919 56.9586 11.5451C56.9663 11.4182 56.9808 11.4142 57.0956 11.4142C57.8628 11.4142 58.631 11.4142 59.3982 11.4142C59.4146 11.4142 59.4301 11.4192 59.4465 11.4222V11.5231C59.4137 11.588 59.4175 11.657 59.4223 11.7259L59.4262 11.7269Z" fill="#292A72"/>
<path d="M13.1183 18.6931C13.0189 18.792 12.9793 18.9299 12.9118 19.0488C12.6734 19.4714 12.4466 19.901 12.1938 20.3157H12.161C11.8521 20.1228 11.5424 19.933 11.2364 19.7372C10.8244 19.4734 10.4248 19.1896 10.0292 18.8999C9.67787 18.6421 9.33914 18.3683 9.0033 18.0896C8.74756 17.8768 8.49762 17.6569 8.25056 17.4321C7.93885 17.1484 7.63775 16.8516 7.34631 16.5479C6.94485 16.1292 6.55786 15.6956 6.19307 15.239C5.67773 14.5935 5.20486 13.9181 4.76672 13.2157C4.67504 13.0688 4.59495 12.913 4.51099 12.7651C4.53897 12.7411 4.55538 12.7411 4.56696 12.7551C4.87095 13.0948 5.17108 13.4385 5.48569 13.7672C5.56868 13.8542 5.63817 13.9561 5.72406 14.04C6.02901 14.3388 6.3359 14.6345 6.65726 14.9163C6.84159 15.0781 7.01433 15.256 7.20734 15.4068C7.60687 15.7176 7.99868 16.0413 8.41848 16.3241C8.90004 16.6488 9.38739 16.9635 9.89405 17.2433C10.2125 17.4191 10.5348 17.587 10.863 17.7429C11.2084 17.9077 11.5578 18.0656 11.9139 18.2055C12.2594 18.3424 12.6049 18.4842 12.9619 18.5881C13.016 18.6041 13.0681 18.6031 13.1212 18.6051L13.1164 18.6951L13.1183 18.6931Z" fill="#D1C7D6"/>
<path d="M0.602883 15.3172H0.549805C0.549805 15.0814 0.549805 14.8456 0.549805 14.6108H0.598057C0.599987 14.8456 0.600952 15.0814 0.602883 15.3172Z" fill="#D1C7D6"/>
<path d="M10.4749 0.715322C10.4749 0.704332 10.4749 0.693341 10.4749 0.68335H11.1234C11.1234 0.69434 11.1234 0.705331 11.1234 0.716322C10.9072 0.716322 10.691 0.716322 10.4749 0.716322V0.715322Z" fill="#D1C7D6"/>
<path d="M59.4274 11.727C59.4216 11.6581 59.4178 11.5881 59.4516 11.5242V11.726L59.44 11.731L59.4274 11.728V11.727Z" fill="#D1C7D6"/>
<path d="M33.2429 10.772C33.3635 10.8429 33.487 10.8629 33.599 10.9178C33.9261 11.0777 34.1645 11.3175 34.2977 11.6692C34.3971 11.931 34.4453 12.1998 34.454 12.4815C34.4675 12.9381 34.4926 13.3937 34.5177 13.8494C34.5225 13.9433 34.5457 14.0352 34.5621 14.1281C34.5746 14.1971 34.6084 14.262 34.6731 14.282C34.7474 14.305 34.7416 14.3559 34.7406 14.4119C34.7348 14.7046 34.7812 14.6507 34.5148 14.6517C33.764 14.6547 33.0122 14.6527 32.2614 14.6517C32.108 14.6517 32.107 14.6517 32.0761 14.4948C32.0105 14.1611 31.9593 13.8284 31.9719 13.4847C31.9825 13.1899 31.996 12.8932 31.9497 12.5994C31.9092 12.3486 31.8464 12.1078 31.6177 11.96C31.4923 11.879 31.3514 11.8391 31.2076 11.8181C30.9991 11.7871 30.7887 11.7911 30.5784 11.7921C30.3728 11.7931 30.1672 11.7921 29.9626 11.7921C29.843 11.7921 29.8401 11.7941 29.8401 11.924C29.8401 12.7573 29.8401 13.5906 29.8401 14.4239C29.8401 14.4628 29.8362 14.5028 29.8401 14.5408C29.8526 14.6327 29.8102 14.6527 29.7291 14.6517C28.9455 14.6497 28.1619 14.6517 27.3782 14.6497C27.2576 14.6497 27.2557 14.6467 27.2547 14.5178C27.2547 13.9533 27.2547 13.3877 27.2547 12.8232C27.2547 10.732 27.2547 8.64078 27.2547 6.54955C27.2547 6.32774 27.2248 6.34173 27.4525 6.34173C28.7814 6.34173 30.1103 6.34173 31.4382 6.34173C31.8262 6.34173 32.2112 6.38769 32.5905 6.46462C32.9225 6.53257 33.2477 6.63048 33.544 6.81433C33.8846 7.02515 34.1365 7.3139 34.2784 7.69658C34.5003 8.29907 34.5177 8.91654 34.3459 9.53102C34.2127 10.0096 33.9116 10.3683 33.4967 10.6231C33.4175 10.6711 33.3365 10.715 33.24 10.771L33.2429 10.772ZM29.8401 9.12636C29.8401 9.33319 29.8401 9.53901 29.8401 9.74584C29.8401 9.89671 29.8411 9.89771 29.9926 9.89871C30.3274 9.89871 30.6613 9.9067 30.9962 9.89571C31.2249 9.88872 31.4546 9.87473 31.6766 9.7918C31.831 9.73385 31.9275 9.63893 31.9854 9.48006C32.0414 9.3232 32.0462 9.16333 32.0356 9.00347C32.0153 8.69473 31.8445 8.50289 31.5502 8.44394C31.471 8.42796 31.3919 8.41197 31.3128 8.40398C30.8457 8.36101 30.3776 8.39399 29.9096 8.38499C29.8343 8.38299 29.8411 8.43895 29.8411 8.4889C29.8411 8.70073 29.8411 8.91354 29.8411 9.12536L29.8401 9.12636Z" fill="#292A72"/>
<path d="M40.9382 11.414C41.331 11.414 41.7151 11.414 42.0982 11.414C42.4823 11.414 42.8655 11.414 43.2495 11.414C43.3866 11.414 43.3953 11.421 43.3827 11.5499C43.321 12.2073 43.1511 12.8278 42.7854 13.3763C42.5026 13.801 42.1359 14.1287 41.6987 14.3785C41.193 14.6672 40.6468 14.7981 40.0822 14.8611C39.6528 14.909 39.2185 14.902 38.791 14.8381C38.0576 14.7272 37.3714 14.4804 36.7924 13.9778C36.3234 13.5702 35.9663 13.0766 35.7347 12.4841C35.559 12.0365 35.4616 11.5719 35.4162 11.0963C35.3921 10.8425 35.3709 10.5857 35.3853 10.3289C35.4268 9.56757 35.5436 8.8252 35.8997 8.14278C36.2384 7.49433 36.7142 6.98577 37.3425 6.63207C37.7092 6.42524 38.0991 6.29835 38.5082 6.21142C38.9676 6.11451 39.4299 6.11451 39.8912 6.13249C40.309 6.14848 40.7259 6.22441 41.1226 6.36629C41.9149 6.64905 42.547 7.14363 42.9436 7.92497C43.1048 8.2417 43.2158 8.57741 43.2746 8.93011C43.2968 9.067 43.3383 9.20089 43.3393 9.34077C43.3393 9.55259 43.3441 9.51562 43.1801 9.51562C42.5528 9.51662 41.9265 9.51562 41.2992 9.51562C41.1853 9.51562 41.0724 9.51262 40.9585 9.51662C40.8784 9.51961 40.8388 9.49064 40.835 9.40371C40.8253 9.17591 40.7501 8.96908 40.641 8.77425C40.5291 8.57342 40.3631 8.43354 40.1566 8.34861C39.8757 8.23371 39.5862 8.21372 39.2861 8.25369C39.0554 8.28466 38.8489 8.3556 38.6627 8.49848C38.4262 8.67833 38.2959 8.93011 38.2014 9.20688C38.1049 9.48664 38.0788 9.77939 38.0402 10.0721C37.9813 10.5148 38.0344 10.9494 38.1049 11.382C38.155 11.6898 38.2622 11.9815 38.4503 12.2363C38.7051 12.58 39.0496 12.7319 39.453 12.7569C39.6682 12.7709 39.8815 12.7599 40.09 12.6829C40.4026 12.569 40.6217 12.3562 40.7645 12.0505C40.8572 11.8526 40.8755 11.6338 40.9392 11.413L40.9382 11.414Z" fill="#292A72"/>
<path d="M47.3871 6.34356C48.5046 6.34356 49.6231 6.34356 50.7406 6.34356C50.7783 6.34356 50.8159 6.34156 50.8545 6.34356C50.9587 6.34656 50.9607 6.34756 50.9607 6.47445C50.9607 7.1229 50.9607 7.77135 50.9607 8.4198C50.9607 8.55369 50.9587 8.55568 50.8246 8.55568C50.1867 8.55568 49.5497 8.55568 48.9119 8.55568C48.879 8.55568 48.8462 8.55968 48.8144 8.55568C48.7246 8.54369 48.7015 8.58965 48.7102 8.67158C48.714 8.70456 48.7102 8.73853 48.7102 8.7725V14.4247C48.7102 14.4637 48.7063 14.5036 48.7102 14.5416C48.7227 14.6355 48.6764 14.6525 48.5972 14.6525C47.803 14.6505 47.0088 14.6525 46.2145 14.6505C46.1026 14.6505 46.0997 14.6475 46.0997 14.5256C46.0978 14.2349 46.0997 13.9441 46.0997 13.6534C46.0997 12.0267 46.0997 10.3991 46.0997 8.7725C46.0997 8.52371 46.1402 8.55668 45.8826 8.55568C45.2562 8.55369 44.629 8.55568 44.0017 8.55568C43.9746 8.55568 43.9476 8.55269 43.9206 8.55568C43.8405 8.56468 43.7942 8.5387 43.8067 8.44578C43.8087 8.42979 43.8067 8.41181 43.8067 8.39582C43.8067 7.76436 43.8067 7.13189 43.8067 6.50043C43.8067 6.31459 43.8087 6.34256 43.9689 6.34256C45.1086 6.34156 46.2483 6.34256 47.3871 6.34256V6.34356Z" fill="#292A72"/>
<path d="M23.0906 10.4997C23.0906 9.19684 23.0906 7.89295 23.0906 6.59005C23.0906 6.55608 23.0906 6.52311 23.0906 6.48914C23.0915 6.34426 23.0925 6.34326 23.2324 6.34326C24.0209 6.34326 24.8103 6.34326 25.5987 6.34326C25.7367 6.34326 25.7377 6.34526 25.7377 6.49313C25.7377 9.16087 25.7377 11.8286 25.7377 14.4963C25.7377 14.6492 25.7367 14.6502 25.5871 14.6502C24.8083 14.6502 24.0305 14.6502 23.2517 14.6502C23.0635 14.6502 23.0915 14.6572 23.0906 14.4754C23.0906 13.1495 23.0906 11.8246 23.0906 10.4987V10.4997Z" fill="#292A72"/>
<path d="M11.6884 14.781C11.6141 14.813 11.5494 14.807 11.4857 14.807C10.1945 14.807 8.90419 14.807 7.61296 14.806C7.58593 14.806 7.55891 14.803 7.53189 14.806C7.44214 14.819 7.4238 14.772 7.42477 14.6891C7.4267 14.3204 7.42188 13.9517 7.42188 13.582C7.42284 11.9494 7.42477 10.3168 7.4267 8.68517C7.4267 8.66319 7.4296 8.64021 7.4267 8.61823C7.41512 8.52731 7.45855 8.50732 7.53961 8.50732C8.31262 8.51032 9.08466 8.50932 9.85767 8.50932C9.90688 8.50932 9.95417 8.51632 9.99856 8.5383C10.4521 8.75312 10.8565 9.03687 11.1566 9.45552C11.4915 9.92212 11.5504 10.4367 11.3718 10.9802C11.2908 11.226 11.0987 11.3789 10.898 11.5138C10.5506 11.7466 10.1626 11.8875 9.77371 12.0243C9.69168 12.0533 9.60675 12.0753 9.53148 12.1163C9.3819 12.1962 9.35487 12.3231 9.45524 12.462C9.51604 12.5469 9.58745 12.6248 9.6579 12.7018C10.0873 13.1664 10.5448 13.601 10.9897 14.0496C11.1875 14.2485 11.3853 14.4463 11.5812 14.6461C11.6189 14.6841 11.6662 14.7161 11.6893 14.782L11.6884 14.781Z" fill="#292A72"/>
<path d="M13.1189 18.6928L13.1237 18.6029C13.3601 18.1512 13.5956 17.6986 13.8321 17.247C13.9353 17.0502 14.0386 16.8543 14.1438 16.6595C14.2094 16.5386 14.2113 16.5356 14.332 16.5686C14.9892 16.7504 15.6579 16.7414 16.3277 16.6925C16.595 16.6725 16.843 16.5686 17.0785 16.4427C17.7318 16.096 18.2346 15.5874 18.5743 14.912C18.7847 14.4953 18.8561 14.0437 18.833 13.5801C18.7934 12.8008 18.5772 12.0664 18.2761 11.355C18.2134 11.2071 18.1671 11.0523 18.114 10.9014C18.1217 10.8934 18.1304 10.8864 18.1381 10.8784C18.2925 11.0663 18.4054 11.2821 18.528 11.4909C18.9951 12.2872 19.3772 13.1215 19.6021 14.0277C19.7826 14.7561 19.8405 15.4955 19.7169 16.2359C19.5355 17.3219 18.9719 18.1472 18.0493 18.7038C17.3082 19.1504 16.5024 19.3083 15.6531 19.2713C14.9467 19.2413 14.2644 19.0785 13.5937 18.8546C13.4345 18.8017 13.2762 18.7467 13.1179 18.6918L13.1189 18.6928Z" fill="#292A72"/>
<path d="M10.4751 0.715133C10.6913 0.715133 10.9075 0.715133 11.1236 0.715133C11.2501 0.744108 11.3765 0.770086 11.5019 0.803058C12.5538 1.08282 13.3413 1.73027 13.9165 2.67047C14.2601 3.233 14.4878 3.84548 14.6499 4.48593C14.7435 4.85862 14.8362 5.2323 14.8651 5.61897C14.868 5.65194 14.8816 5.68292 14.8902 5.71589C14.8796 5.73387 14.8767 5.75386 14.8835 5.77484C14.4511 5.77784 14.0198 5.78183 13.5874 5.78183C13.2902 5.78183 12.9929 5.77884 12.6957 5.77584C12.55 5.77484 12.55 5.77384 12.5133 5.62996C12.3859 5.13638 12.2132 4.66278 11.9603 4.22216C11.4923 3.40785 10.8196 2.8763 9.92408 2.66248C9.04395 2.45266 8.24585 2.6395 7.52593 3.20502C7.09358 3.54473 6.70563 3.9294 6.35339 4.35604C6.15362 4.59684 5.97702 4.85562 5.76953 5.12139C5.85446 4.90158 5.95482 4.71574 6.05326 4.5289C6.51455 3.65564 7.06946 2.85432 7.75561 2.15591C8.30955 1.59239 8.94648 1.16075 9.68764 0.901974C9.94435 0.812051 10.2107 0.767089 10.4751 0.713135V0.715133Z" fill="#292A72"/>
<path d="M0.603458 15.317C0.601528 15.0812 0.600563 14.8454 0.598633 14.6096C0.670047 13.8912 0.899729 13.2298 1.27031 12.6193C1.55693 12.1487 1.90531 11.7311 2.29037 11.3444C2.59339 11.0407 2.92344 10.7709 3.24963 10.4961C3.27569 10.4881 3.30174 10.4881 3.32587 10.5021C3.57968 10.9817 3.83445 11.4623 4.08729 11.9419C4.206 12.1667 4.32277 12.3925 4.4434 12.6243C4.24556 12.7232 4.12204 12.8951 3.98693 13.052C3.62503 13.4716 3.3085 13.9222 3.11742 14.4538C2.89932 15.0583 2.88774 15.6767 3.01609 16.3012C3.21489 17.2724 3.77269 17.9478 4.62772 18.3754C5.20193 18.6622 5.81667 18.8101 6.43816 18.933C6.64951 18.9749 6.86278 19.0099 7.07123 19.0479C7.08764 19.0649 7.08378 19.0649 7.06544 19.0659C5.98555 19.1108 4.91627 19.0419 3.87112 18.7371C3.20138 18.5423 2.56734 18.2665 2.0105 17.8219C1.21144 17.1834 0.722159 16.3611 0.603458 15.315V15.317Z" fill="#292A72"/>
<path d="M10.4155 12.4685C10.5989 12.3965 10.7716 12.3336 10.9405 12.2626C11.2937 12.1148 11.5871 11.8809 11.8293 11.5792C12.0416 11.3144 12.1642 11.0097 12.1777 10.661C12.1874 10.4092 12.2028 10.1574 12.1468 9.90962C12.0368 9.42803 11.7782 9.04536 11.4018 8.74561C11.3169 8.67767 11.2291 8.61372 11.1432 8.54878C11.1692 8.49083 11.2127 8.51481 11.2445 8.51481C11.9635 8.51081 12.6815 8.50981 13.4004 8.50781C13.5471 8.50781 13.5481 8.50881 13.5481 8.66568C13.549 10.3093 13.55 11.9539 13.551 13.5975C13.551 13.9552 13.551 14.3129 13.551 14.6716C13.551 14.8025 13.549 14.8035 13.4284 14.8045C13.2065 14.8055 12.9855 14.8045 12.7635 14.8045C12.6795 14.8045 12.611 14.7805 12.5473 14.7135C11.8457 13.9762 11.1412 13.2428 10.4387 12.5074C10.431 12.4994 10.4271 12.4884 10.4165 12.4685H10.4155Z" fill="#292A72"/>
<path d="M14.8832 5.77528C14.8764 5.7543 14.8784 5.73532 14.89 5.71633C14.9672 5.74431 15.0463 5.7523 15.1283 5.7513C15.4526 5.74831 15.7768 5.7553 16.1011 5.74631C16.2671 5.74131 16.4321 5.71034 16.6 5.71733C16.7544 5.72433 16.7651 5.73032 16.766 5.89118C16.7679 6.35279 16.739 6.8134 16.7274 7.27401C16.7187 7.61172 16.6994 7.95243 16.6647 8.28915C16.6338 8.5869 16.6077 8.88564 16.5653 9.18239C16.5354 9.39121 16.5074 9.60004 16.4765 9.80786C16.4041 10.3024 16.3202 10.795 16.2024 11.2806C16.1204 11.6203 16.0461 11.963 15.9525 12.2997C15.8695 12.5985 15.7662 12.8912 15.6726 13.187C15.5703 13.5097 15.4564 13.8274 15.3339 14.1412C15.0704 14.8196 14.779 15.484 14.4325 16.1215C14.3756 16.2264 14.3379 16.3433 14.2405 16.4692C14.2588 16.2634 14.3254 16.1115 14.3717 15.9546C14.5039 15.508 14.6497 15.0664 14.7606 14.6128C14.8658 14.1811 14.9517 13.7455 15.0376 13.3109C15.0984 13.0071 15.136 12.6974 15.1775 12.3897C15.2229 12.0599 15.247 11.7272 15.2827 11.3955C15.3599 10.6711 15.3513 9.94574 15.332 9.22236C15.3223 8.86366 15.2827 8.50197 15.2509 8.14227C15.192 7.47084 15.0656 6.8124 14.9498 6.15096C14.9276 6.02507 14.8784 5.90517 14.8842 5.77428L14.8832 5.77528Z" fill="#D1C7D6"/>
<path d="M3.32709 10.5018C3.30296 10.4868 3.2769 10.4868 3.25085 10.4958C3.24602 10.3659 3.16882 10.267 3.10899 10.1641C2.87544 9.76246 2.63225 9.36779 2.4238 8.95215C2.41415 8.93216 2.40546 8.91118 2.39388 8.8922C2.35335 8.82525 2.39099 8.78329 2.4402 8.75531C2.66989 8.62143 2.89957 8.48654 3.13311 8.35965C3.66196 8.07289 4.19274 7.79213 4.73992 7.54434C5.19446 7.33852 5.65093 7.13869 6.11802 6.96783C6.4886 6.83195 6.85724 6.69206 7.23361 6.57816C7.75957 6.4183 8.28745 6.26443 8.82595 6.15452C9.08941 6.10057 9.35094 6.03662 9.61729 6.00065C9.89426 5.96368 10.1693 5.91372 10.4463 5.87875C10.7078 5.84578 10.9703 5.83579 11.2299 5.78983C11.2357 5.78983 11.2405 5.78783 11.2463 5.78783C11.6342 5.79083 12.0212 5.72988 12.4102 5.75186C12.4304 5.75286 12.4536 5.75186 12.4719 5.78683C12.4401 5.83379 12.3793 5.8288 12.3358 5.83879C11.9151 5.93171 11.4962 6.03262 11.0784 6.13953C10.62 6.25743 10.1664 6.38932 9.72152 6.55318C9.40884 6.66808 9.09134 6.771 8.78445 6.90089C8.2006 7.14668 7.6206 7.40446 7.06763 7.72019C6.63046 7.96998 6.1875 8.21277 5.76963 8.49653C5.3508 8.78029 4.93583 9.07304 4.54884 9.39977C4.32012 9.5936 4.07886 9.77245 3.86462 9.98527C3.74109 10.1082 3.59827 10.2101 3.46219 10.32C3.4014 10.3689 3.34542 10.4199 3.32805 10.5018H3.32709Z" fill="#D1C7D6"/>
<path d="M18.0816 10.8532C18.068 10.8362 18.0497 10.8223 18.042 10.8033C18.0314 10.7753 18.0101 10.7313 18.0584 10.7263C18.098 10.7223 18.1018 10.7643 18.096 10.7993L18.0806 10.8532H18.0816Z" fill="#D1C7D6"/>
<path d="M18.0806 10.8528L18.096 10.7988C18.1143 10.8228 18.1346 10.8448 18.1365 10.8778C18.1288 10.8858 18.1211 10.8927 18.1124 10.9007C18.1018 10.8848 18.0912 10.8688 18.0806 10.8528Z" fill="#292A72"/>
</svg>
