<svg width="90" height="43" viewBox="0 0 90 43" fill="none" xmlns="http://www.w3.org/2000/svg">
<rect x="0.5" y="0.5" width="89" height="41.3529" rx="7.5" fill="white" stroke="#DFE2F6"/>
<mask id="mask0_6119_2318" style="mask-type:alpha" maskUnits="userSpaceOnUse" x="8" y="5" width="74" height="32">
<rect x="8" y="5" width="74" height="32" fill="#C4C4C4"/>
</mask>
<g mask="url(#mask0_6119_2318)">
<path d="M60.2275 15.8849C59.912 14.8172 59.3745 13.4586 58.3638 12.3586C57.9536 11.9061 57.2899 11.3232 56.3738 11.2585L55.9006 11.1939C54.3208 11.097 52.6791 11 51.0677 11C49.5826 11 48.004 11.0646 46.0772 11.2262C44.5605 11.3555 42.761 11.5171 40.9604 11.8415C39.1282 12.1647 37.2645 12.586 35.5269 13.0062C34.2638 13.3293 33.0638 13.783 31.9899 14.3971C31.0107 14.9477 30.4101 15.7556 30.2208 16.791C30.0946 17.4386 30 18.0527 30 18.7002C30 20.1893 30.1577 21.7741 30.5375 23.5217C30.7583 24.5571 31.0107 25.6248 31.2643 26.6602C31.3905 27.2432 31.5482 27.8249 31.6744 28.3755C31.8953 29.2816 32.5905 29.2816 32.8745 29.217C33.2531 29.1524 33.6328 29.12 34.0114 29.0554H34.1376C34.4215 29.0231 34.7382 28.9908 35.0221 28.9584C35.2114 29.7999 35.6543 30.5109 36.2537 31.0616C36.9805 31.6768 37.8335 32 38.7169 32C38.8431 32 39.0008 32 39.127 31.9677C40.1693 31.8384 41.0854 31.3524 41.7491 30.5109C42.2866 29.8311 42.5705 28.9584 42.6021 28.0523L49.3302 27.2755C49.4249 28.2786 49.8362 29.1847 50.5302 29.8646C51.3517 30.6737 52.4886 31.0616 53.6256 30.9C54.6678 30.7707 55.5524 30.2847 56.1845 29.4444C56.8798 28.5383 57.1322 27.5029 56.9744 26.3706L57.2899 26.3382C57.9852 26.2413 58.6792 26.1766 59.3745 26.112C59.9435 26.0474 60.1644 25.6272 60.2275 25.4968C60.6692 24.5583 60.8912 23.4906 60.9543 22.132C61.112 19.9966 60.8596 17.8935 60.2275 15.8873V15.8849ZM58.9643 22.0003C58.9328 22.5186 58.8066 23.0357 58.712 23.5864C58.6804 23.7803 58.6489 23.9419 58.5858 24.1358C57.7328 24.2327 56.8798 24.3297 56.1226 24.4266C55.2696 23.3589 54.0065 22.8083 52.7106 22.9699C51.4475 23.1315 50.3421 23.9083 49.71 25.1053C48.9832 25.17 48.2564 25.2669 47.5307 25.3639L46.1403 25.5255C45.3504 25.6224 44.5932 25.7194 43.8033 25.8163C43.5509 25.8487 43.2658 25.881 43.0134 25.9133C42.6979 25.9456 42.4128 25.9779 42.0973 26.0103C41.2443 24.587 39.9496 23.8748 38.3067 24.0041C36.8543 24.1011 35.4638 25.3304 35.0537 26.8194C34.5805 26.8517 34.0745 26.9164 33.4424 27.0133C33.3162 26.3981 33.1584 25.8163 33.0322 25.2011C32.8429 24.3273 32.6536 23.4535 32.4632 22.5797C32.5263 22.612 32.6209 22.6443 32.7156 22.6443C32.9048 22.6443 33.0626 22.6766 33.2531 22.6766H34.39V19.4735H34.4215C34.6108 19.4412 34.8317 19.4735 35.0537 19.4735C34.9906 20.1534 35.0852 20.8321 35.4007 21.3827C35.9698 22.3858 36.9805 22.7413 37.9282 22.7413C38.5288 22.7413 39.1282 22.612 39.5395 22.3858C39.855 22.2242 39.9812 21.901 40.0139 21.6412V21.2857C40.2978 21.901 40.7722 22.3535 41.3401 22.5797C41.9092 22.7736 42.5402 22.7413 43.1408 22.4504C43.4878 22.7413 43.9307 22.6766 44.1515 22.6766H44.3408L44.814 22.7413H45.4777C45.7932 22.7413 46.0783 22.7413 46.3938 22.709C47.1206 22.709 47.8778 22.6766 48.6046 22.612C49.2367 22.5474 49.7415 22.1583 50.057 21.6089C50.2778 22.1919 50.7523 22.5797 51.4463 22.709C51.5725 22.7413 51.7303 22.7413 51.8565 22.7413C52.172 22.7413 52.4571 22.6766 52.7095 22.5474V22.6766H54.0988C54.4143 22.709 54.6363 22.612 54.8256 22.4504L54.8571 22.4181L55.1411 22.4827C55.2673 22.515 55.3935 22.5474 55.5208 22.5797C55.8048 22.6443 56.1203 22.709 56.4369 22.7413C56.5947 22.7736 56.7524 22.7736 56.8786 22.7736C57.4792 22.7736 57.9524 22.612 58.3941 22.2888C58.615 22.0949 58.8043 21.8687 58.9632 21.6412V21.9968L58.9643 22.0003ZM53.2154 28.828C52.2047 28.828 51.4148 28.0511 51.4148 26.9834C51.4148 25.9157 52.2047 25.1389 53.1839 25.1389C53.6571 25.1389 54.1315 25.3328 54.4785 25.6883C54.8256 26.0438 55.0149 26.4974 55.0149 26.9822C55.0149 28.0176 54.225 28.8268 53.2142 28.8268L53.2154 28.828ZM36.9805 27.8895C37.0121 27.4371 37.2329 26.9834 37.5811 26.6602C37.9282 26.3694 38.3395 26.2078 38.7496 26.2078H38.8758C40.0443 26.3047 40.5502 27.2432 40.5502 28.117C40.5502 28.5706 40.3609 29.0231 40.0127 29.3786C39.6341 29.7341 39.1597 29.9292 38.6865 29.8969C38.2121 29.8646 37.7704 29.6383 37.4234 29.2816C37.1079 28.8926 36.9501 28.4078 36.9817 27.8907L36.9805 27.8895ZM32.7798 16.3697C33.5697 15.8526 34.4858 15.5282 35.3072 15.2697C37.2025 14.6544 39.2556 14.2019 41.6556 13.8464C43.3931 13.5879 44.9087 13.4263 46.3307 13.3293C48.3522 13.2001 50.3737 13.1031 52.332 13.1031C53.3112 13.1031 54.322 13.1677 55.3012 13.2647C55.5851 13.2647 55.8702 13.297 56.1541 13.3293C56.4065 13.3617 56.6589 13.4909 56.9756 13.88C57.4804 14.4629 57.8601 15.1739 58.2072 16.2416C58.3018 16.5325 58.3965 16.8569 58.4911 17.1801C58.3965 17.1154 58.3018 17.0831 58.2072 17.0508L58.1125 17.0185C57.7655 16.9538 57.3857 16.8892 56.9756 16.8892C56.2488 16.8892 55.6494 17.1801 55.175 17.6984C55.1434 17.7307 55.1434 17.763 55.1119 17.763L55.0488 17.1477H52.7433V20.3186C52.7118 20.3186 52.6802 20.3509 52.5856 20.3832C52.5225 20.4155 52.4594 20.4155 52.4279 20.3832C52.4279 20.3509 52.3963 20.3186 52.3963 20.2216V17.86L52.3017 17.1477H50.2171C50.1855 16.8892 50.1224 16.663 50.0278 16.4355C49.7439 15.8526 49.2379 15.4648 48.5742 15.4001C47.8486 15.3032 47.1218 15.3355 46.4265 15.3355C46.1426 15.3355 45.8271 15.3678 45.5104 15.3678H45.1003V15.3032H42.7318V16.9861C41.5949 16.8892 40.7103 17.3093 40.1728 18.2155C39.8573 17.6002 39.3829 17.2124 38.7519 17.0185C37.7727 16.6953 36.762 16.9215 36.0037 17.5691C35.8775 17.2782 35.6251 17.0508 35.34 17.0185C34.9614 16.9538 34.6132 16.9861 34.2977 17.1154V17.0185L32.2762 17.1477C32.2762 17.0831 32.3078 17.0185 32.3078 16.9538C32.3393 16.8246 32.4024 16.5983 32.781 16.3709L32.7798 16.3697ZM58.8697 19.282C58.8697 19.3466 58.8697 19.3789 58.9013 19.4436C58.9013 19.4436 58.9013 19.4113 58.8697 19.4113V19.282ZM49.8046 18.7326C49.8362 18.6679 49.8993 18.6033 49.9308 18.5386C49.9624 18.5063 49.9624 18.474 49.9939 18.4417V18.8942C49.9308 18.8295 49.8677 18.7649 49.8046 18.7326ZM47.6569 17.9234H47.4361V17.5356H47.6254C47.6254 17.5679 47.6569 17.6325 47.6569 17.7941C47.6885 17.8911 47.6569 17.9234 47.6569 17.9234ZM47.4361 19.8326C47.5623 19.8326 47.6885 19.8326 47.8147 19.8649C47.9093 19.8649 47.9093 20.0911 47.9093 20.1558C47.9093 20.382 47.8778 20.382 47.7516 20.4143H47.4046V19.8326H47.4361ZM42.7295 20.3832C42.6033 20.4478 42.4771 20.4478 42.414 20.3832C42.3193 20.3186 42.2562 20.1893 42.2562 20.0277C42.2247 19.7692 42.2562 19.5106 42.2878 19.2832C42.2878 19.2185 42.3193 19.1862 42.3824 19.1539C42.414 19.1539 42.4771 19.1216 42.5402 19.1216C42.6033 19.1216 42.6664 19.1216 42.7295 19.1539V20.3832Z" fill="white"/>
<path d="M41.9711 27.4681C42.1919 29.6036 40.8026 31.1249 39.0966 31.3189C38.2121 31.4158 37.3906 31.1249 36.6966 30.542C36.0013 29.9591 35.6543 29.1834 35.5596 28.245C35.0549 28.3096 34.5489 28.3419 34.0745 28.4066C33.6328 28.4712 33.19 28.5035 32.7483 28.5682C32.4328 28.6328 32.3381 28.5035 32.275 28.2115C31.8964 26.5943 31.4851 25.0083 31.1381 23.3577C30.8226 21.8052 30.6333 20.2515 30.6333 18.6978C30.6333 18.1149 30.728 17.5008 30.8542 16.9179C31.0119 16.0441 31.5494 15.3965 32.3078 14.9764C33.3816 14.3611 34.5185 13.941 35.687 13.6501C37.4561 13.1976 39.2567 12.7763 41.0562 12.4854C42.7306 12.1945 44.4354 12.033 46.1414 11.8702C47.7843 11.7409 49.426 11.6439 51.0689 11.6439C52.838 11.6439 54.5743 11.7732 56.3434 11.8702C56.9756 11.9025 57.4804 12.2903 57.9232 12.7763C58.7762 13.7147 59.2494 14.8471 59.6292 16.0764C60.2298 18.0179 60.4822 20.0564 60.356 22.0949C60.2929 23.1626 60.1351 24.2303 59.6923 25.2334C59.6292 25.395 59.5346 25.4596 59.3441 25.4919L56.6905 25.7828C56.5643 25.8151 56.4065 25.8151 56.2476 25.8474C56.5947 27.0121 56.4685 28.1121 55.7113 29.0506C55.1738 29.7628 54.4481 30.1506 53.5952 30.2476C51.763 30.4738 49.8361 29.0182 49.9939 26.5261C47.3087 26.8493 44.6563 27.1737 41.9711 27.4646V27.4681ZM31.3578 18.8618C31.484 20.0588 31.5471 21.1265 31.7364 22.1942C32.0519 23.9418 32.4947 25.6236 32.8733 27.3712C32.9364 27.7279 33.0941 27.7279 33.3793 27.6944C33.9798 27.5974 34.6108 27.5328 35.2114 27.4681C35.4638 27.4358 35.59 27.3712 35.6216 27.1126C35.9055 25.851 37.1067 24.7833 38.3383 24.6863C39.8223 24.5571 40.8961 25.2034 41.6229 26.4986C41.7175 26.6602 41.7806 26.7248 41.9699 26.6925C42.6021 26.6279 43.2331 26.5632 43.8652 26.4663C44.8444 26.337 45.792 26.24 46.7712 26.1108C47.8135 25.9815 48.8558 25.8522 49.9296 25.7552C50.1189 25.7229 50.182 25.6583 50.2767 25.4967C51.319 23.2643 54.1934 22.9411 55.7101 24.8814C55.8363 25.043 55.931 25.0754 56.1202 25.0754C57.0363 24.9784 57.9209 24.8491 58.837 24.751C59.0263 24.7187 59.1525 24.654 59.184 24.4601C59.3417 23.6509 59.5626 22.8741 59.5941 22.0338C59.7203 19.963 59.4364 17.9569 58.8042 16.0153C58.4888 15.0769 58.109 14.2031 57.4465 13.4586C57.0994 13.0707 56.7208 12.7464 56.2149 12.6817C54.9202 12.5848 53.6255 12.4555 52.3297 12.4555C50.3082 12.4555 48.2867 12.5524 46.2968 12.6817C44.717 12.7787 43.1384 12.9726 41.5902 13.1988C39.411 13.522 37.2317 13.9757 35.1472 14.6544C34.2311 14.9452 33.2834 15.3019 32.462 15.8514C32.0834 16.1099 31.7983 16.402 31.7036 16.8544C31.5459 17.5343 31.4513 18.2453 31.3566 18.8606L31.3578 18.8618ZM53.2154 29.4743C54.5732 29.4743 55.647 28.3743 55.647 27.0157C55.647 25.6571 54.5416 24.5247 53.1839 24.5247C51.8261 24.5247 50.7838 25.6248 50.7838 27.0157C50.7838 28.4066 51.8576 29.4743 53.2166 29.4743H53.2154ZM41.2128 28.0834C41.2128 26.7571 40.3598 25.6248 38.9704 25.5278C37.6442 25.4309 36.443 26.4986 36.3799 27.8248C36.3168 29.2493 37.3276 30.4127 38.6853 30.5109C40.0116 30.6078 41.2128 29.4755 41.2128 28.0846V28.0834Z" fill="#C9323E"/>
<path d="M45.5408 15.9818C46.5516 15.9818 47.5307 15.8849 48.5099 16.0141C49.6784 16.1757 49.8046 17.502 49.426 18.2142C49.2683 18.4728 48.9528 18.6344 48.7623 18.8295C48.8885 18.8941 49.0463 18.9587 49.204 19.0557C49.7403 19.4112 49.9939 19.9295 49.8362 20.674C49.71 21.3539 49.2987 21.871 48.6361 21.968C47.6254 22.0972 46.5831 22.0649 45.5724 22.0972C45.5408 19.9618 45.5408 17.9557 45.5408 15.9818ZM46.8039 21.0295C47.151 21.0295 47.4992 21.0618 47.8462 21.0295C48.3195 20.9649 48.5415 20.674 48.5415 20.1557C48.5415 19.6374 48.3206 19.2496 47.8778 19.185C47.5307 19.1526 47.151 19.185 46.8039 19.185V21.0295ZM46.8039 16.9203V18.6032H47.6254C48.0682 18.6032 48.2891 18.3124 48.3206 17.891C48.3522 17.3404 48.0998 16.9849 47.6885 16.9526C47.373 16.8879 47.1194 16.9203 46.8039 16.9203ZM44.4985 22.0003C44.0884 21.968 43.614 22.2265 43.3931 21.6125C43.2354 21.6771 43.1408 21.7417 43.0146 21.8064C42.0669 22.3247 41.0562 22.0003 40.646 20.9972C40.299 20.188 40.299 19.3789 40.7091 18.6032C41.2139 17.6971 42.13 17.5032 43.0777 17.6971C43.1723 17.7294 43.2354 17.7617 43.3931 17.7941V15.9495H44.4985V22.0003ZM43.3616 19.7679V19.0234C43.3616 18.9264 43.33 18.8295 43.2985 18.7648C42.8568 18.377 41.8461 18.377 41.6872 19.1526C41.6241 19.4435 41.5925 19.7679 41.6241 20.0911C41.6872 20.9326 42.3824 21.3204 43.1092 20.9326C43.2985 20.8356 43.4247 20.7063 43.3931 20.4801C43.33 20.2216 43.3616 19.9953 43.3616 19.7679ZM39.9812 20.0911H36.9174C36.949 20.6417 37.3276 21.0942 37.8966 21.0618C38.4026 21.0295 38.9073 20.9326 39.4448 20.8356V21.6125C39.4448 21.6771 39.3817 21.7741 39.3502 21.8064C38.4341 22.2588 36.7281 22.3247 36.0025 21.0618C35.5608 20.2527 35.6239 19.0557 36.1602 18.3435C36.7293 17.599 37.6769 17.3081 38.5918 17.599C39.2871 17.8252 39.6657 18.3758 39.855 19.0868C39.9181 19.41 39.9181 19.7021 39.9812 20.0899V20.0911ZM38.8127 19.5082C38.8758 19.0234 38.4026 18.5051 37.8966 18.5051C37.296 18.4728 36.8859 18.8606 36.8859 19.5082H38.8127ZM53.3732 22.0326C53.3416 21.871 53.3416 21.7417 53.3416 21.5789C53.1839 21.6759 53.0261 21.7405 52.8987 21.8052C52.5202 21.9991 52.1089 22.1607 51.6672 22.0637C51.0677 21.9345 50.688 21.5778 50.6564 20.9314C50.6249 19.896 50.6564 18.8606 50.6564 17.7929H51.7618V20.2192C51.7618 20.8344 52.1089 21.1253 52.7095 20.996C53.2154 20.8991 53.3732 20.6728 53.3732 20.1222V17.7929H54.4785C54.4785 17.8898 54.5101 18.0191 54.5101 18.1161V21.6747C54.5101 21.9333 54.447 22.0302 54.163 22.0302C53.8791 21.9979 53.6267 22.0302 53.3732 22.0302V22.0326ZM55.3 21.8387V20.8356C55.8059 20.9326 56.3107 21.0295 56.8167 21.0942C56.9429 21.1265 57.1006 21.0942 57.1953 21.0295C57.3215 20.9326 57.5107 20.771 57.5423 20.6417C57.5423 20.5124 57.3846 20.2862 57.2268 20.2539C56.9113 20.1569 56.5631 20.1246 56.2476 20.06C55.3631 19.8661 55.0476 18.766 55.6482 18.0861C55.9952 17.666 56.4381 17.5032 56.9744 17.5032C57.353 17.5032 57.7328 17.5678 58.1113 17.6325C58.1744 17.6325 58.2691 17.7617 58.2691 17.8264C58.3006 18.1173 58.2691 18.377 58.2691 18.6679L57.0375 18.474C56.9113 18.474 56.7851 18.474 56.6905 18.5386C56.5643 18.6032 56.4065 18.7648 56.4381 18.8618C56.4381 18.9587 56.5958 19.1526 56.722 19.185C56.9744 19.2819 57.2584 19.2819 57.5435 19.3466C58.0798 19.4435 58.4596 19.7021 58.6173 20.2527C58.775 20.8033 58.5227 21.4174 58.0798 21.7729C57.6369 22.1284 57.1006 22.1607 56.5631 22.096C56.1214 22.0314 55.7101 21.9021 55.3 21.8375V21.8387ZM32.6221 17.7617L33.759 17.6648C33.759 17.7941 33.7906 17.891 33.7906 18.0526C33.9483 17.9557 34.0745 17.9233 34.1691 17.8264C34.5162 17.6002 34.8644 17.5355 35.2745 17.6002C35.3692 17.6002 35.4638 17.7294 35.4638 17.8264C35.4954 18.1819 35.4638 18.5386 35.4638 18.8295C35.0852 18.7971 34.7055 18.7325 34.3269 18.7971C33.8525 18.8618 33.7263 19.0557 33.7263 19.5417V22.0003H32.7471C32.684 22.0003 32.5894 21.8064 32.5894 21.7417V18.377C32.6209 18.1831 32.6209 17.9892 32.6209 17.7617H32.6221Z" fill="#C9323E"/>
</g>
</svg>
