<?xml version="1.0" encoding="utf-8"?>
<!-- Generator: Adobe Illustrator 26.4.1, SVG Export Plug-In . SVG Version: 6.00 Build 0)  -->
<svg width="90" height="43" version="1.1" id="Layer_1" xmlns="http://www.w3.org/2000/svg" xmlns:xlink="http://www.w3.org/1999/xlink" x="0px" y="0px"
	 viewBox="0 0 90 43" style="enable-background:new 0 0 90 43;" xml:space="preserve">
<style type="text/css">
	.st0{fill:#FFFFFF;stroke:#DFE2F6;}
	.st1{fill:#C4C4C4;filter:url(#Adobe_OpacityMaskFilter);}
	.st2{mask:url(#mask0_6119_2290_00000031913404429619643250000015986780533711297948_);}
	.st3{clip-path:url(#SVGID_00000178204993830322955960000007695558003254786715_);}
	.st4{fill:#005999;}
	.st5{fill-rule:evenodd;clip-rule:evenodd;fill:#00699E;}
	.st6{fill-rule:evenodd;clip-rule:evenodd;fill:#00A3D6;}
</style>
<path class="st0" d="M8,0.5h74c4.1,0,7.5,3.4,7.5,7.5v26.4c0,4.1-3.4,7.5-7.5,7.5H8c-4.1,0-7.5-3.4-7.5-7.5V8C0.5,3.9,3.9,0.5,8,0.5
	z"/>
<defs>
	<filter id="Adobe_OpacityMaskFilter" filterUnits="userSpaceOnUse">
		<feColorMatrix  type="matrix" values="1 0 0 0 0  0 1 0 0 0  0 0 1 0 0  0 0 0 1 0"/>
	</filter>
</defs>
<mask maskUnits="userSpaceOnUse" id="mask0_6119_2290_00000031913404429619643250000015986780533711297948_">
	<rect x="8" y="5" class="st1" width="74" height="32"/>
</mask>
<g class="st2">
</g>
<g>
	<defs>
		<rect id="SVGID_1_" x="15.5" y="8.3" width="73.1" height="24.7"/>
	</defs>
	<clipPath id="SVGID_00000114796235663055914580000015332502557332865177_">
		<use xlink:href="#SVGID_1_"  style="overflow:visible;"/>
	</clipPath>
	<g style="clip-path:url(#SVGID_00000114796235663055914580000015332502557332865177_);">
		<path class="st4" d="M73.8,25.1c0-0.8,0.5-1.4,1.2-1.4c0.9,0,1.3,0.9,1.3,2.1c0,1.2-0.5,2.1-1.4,2.1c-0.6,0-1.2-0.5-1.2-1.4
			L73.8,25.1L73.8,25.1z M73.5,22.3H72c0,0.6,0,1.3,0,2.2v7.2h1.8v-3.3h0c0.3,0.5,0.9,0.8,1.6,0.8c1.4,0,2.8-1.1,2.8-3.5
			c0-2.1-1.1-3.4-2.5-3.4c-0.9,0-1.5,0.4-2,1.1h0L73.5,22.3z M68.6,29h1.8v-6.7h-1.8V29z M70.5,20.5c0-0.5-0.4-1-1-1
			c-0.1,0-0.3,0-0.4,0.1c-0.1,0-0.2,0.1-0.3,0.2c-0.1,0.1-0.2,0.2-0.2,0.3c0,0.1-0.1,0.2-0.1,0.4c0,0.5,0.4,1,1,1
			C70.1,21.5,70.5,21.1,70.5,20.5z M65.5,23.5l-0.1-1.2h-1.5c0,0.6,0,1.3,0,2.1V29h1.8v-3.5c0-1.1,0.6-1.7,1.4-1.7
			c0.2,0,0.3,0,0.5,0v-1.7c-0.1,0-0.3,0-0.4,0C66.6,22.2,65.9,22.6,65.5,23.5L65.5,23.5L65.5,23.5L65.5,23.5z M56.7,19.8v1.5H59V29
			h1.8v-7.7h2.3v-1.5L56.7,19.8L56.7,19.8z M53.8,25.8c-0.1,0.4-0.2,0.8-0.3,1.3h0c-0.1-0.4-0.2-0.8-0.3-1.3l-1-3.5h-1.9l2.3,6.2
			c0,0.1,0.1,0.2,0.1,0.3c0,0.1-0.3,0.8-0.9,1.2c-0.3,0.2-0.6,0.4-0.9,0.5l0.4,1.5c0.4-0.1,1.1-0.3,1.7-0.9c0.8-0.8,1.3-1.9,2.1-4.1
			l1.5-4.7h-1.9L53.8,25.8L53.8,25.8z M46.8,19.8l-1,3.5c-0.3,1.1-0.6,2.2-0.8,3.3h0c-0.2-1.1-0.5-2.2-0.8-3.3l-1-3.5h-2.2L40.3,29
			h1.6l0.2-3.6c0.1-1.1,0.1-2.5,0.1-3.7h0c0.2,1.1,0.5,2.4,0.8,3.4l1,3.7h1.4l1.1-3.7c0.3-1,0.6-2.3,0.9-3.4h0c0,0.9,0,2.4,0.1,3.6
			l0.2,3.6h1.7L49,19.8H46.8z M35.2,25c0-0.7,0.4-1.5,1.3-1.5c0.9,0,1.2,0.9,1.1,1.5H35.2L35.2,25z M39.2,26.2c0-0.2,0.1-0.5,0-0.7
			c0-2.2-1.1-3.3-2.7-3.3c-2,0-3.1,1.7-3.1,3.6c0,2.1,1.2,3.4,3.3,3.4c0.8,0,1.6-0.1,2.2-0.4l-0.3-1.2c-0.5,0.2-1,0.3-1.6,0.3
			c-1,0-1.8-0.5-1.8-1.6L39.2,26.2L39.2,26.2z M28.1,28.7c0.5,0.3,1.2,0.5,1.9,0.5c1.7,0,2.6-0.8,2.6-2.1c0-0.9-0.5-1.6-1.7-2
			c-0.8-0.3-1-0.5-1-0.9c0-0.4,0.3-0.6,0.8-0.6c0.5,0,1,0.2,1.3,0.4l0.3-1.3c-0.4-0.2-1-0.4-1.7-0.4c-1.5,0-2.4,0.9-2.4,2.1
			c0,0.7,0.5,1.4,1.7,1.9c0.7,0.3,1,0.5,1,0.9c0,0.4-0.3,0.7-0.9,0.7c-0.5,0-1.2-0.2-1.6-0.4L28.1,28.7z M25.2,26.7
			c0,0.9-0.7,1.2-1.1,1.2c-0.4,0-0.8-0.3-0.8-0.9c0-1,1-1.2,2-1.2V26.7z M22.3,23.9c0.5-0.3,1.1-0.5,1.6-0.5c1,0,1.2,0.5,1.2,1.2
			c-2.1,0-3.7,0.8-3.7,2.5c0,1.1,0.8,2,2,2c0.7,0,1.4-0.3,1.8-0.8h0l0.1,0.7H27c-0.1-0.4-0.1-1-0.1-1.6V25c0-1.5-0.6-2.8-2.6-2.8
			c-1,0-1.9,0.3-2.3,0.6L22.3,23.9L22.3,23.9z M17.2,25h3v-1.5h-3v-2.2h3.2v-1.5h-5V29h5.2v-1.5h-3.4L17.2,25L17.2,25z"/>
		<path class="st5" d="M27,23.2c4.9-9.9,18.3-2.3,25.7-8.9C45.3,22,30.6,15.5,27,23.2z"/>
		<path class="st6" d="M44.3,8.3l17.4,1.4c0.8,0,0.7,0.2,0.3,0.6l-8.5,8.3c-0.5,0.5-0.6,0.4-1.1-0.2L49,14.7
			c-0.4-0.5-0.5-0.6,0.2-0.8l8.2-2.7l-9.3,1.7c-0.7,0.1-0.6,0.2-1.1-0.5L44,8.8C43.6,8.4,43.7,8.2,44.3,8.3L44.3,8.3z"/>
		<path class="st5" d="M49.3,14.4l0.9,1c0.4,0.5,0.3,0.5-0.2,0.8l-2.9,1.3c-0.3,0.2-0.6,0-0.3-0.4l1.8-2.9
			C48.8,13.9,49,14.1,49.3,14.4z"/>
	</g>
</g>
</svg>
