<svg width="74" height="32" viewBox="0 0 74 32" fill="none" xmlns="http://www.w3.org/2000/svg">
<mask id="mask0_3921_2914" style="mask-type:alpha" maskUnits="userSpaceOnUse" x="0" y="0" width="74" height="32">
<rect width="74" height="32" fill="#C4C4C4"/>
</mask>
<g mask="url(#mask0_3921_2914)">
</g>
<g clip-path="url(#clip0_3921_2914)">
<path d="M68.9879 10.7731C68.981 10.75 68.973 10.7274 68.9639 10.7051C63.4019 10.7071 57.8419 10.7051 52.2829 10.7071C52.2688 10.7211 52.2597 10.7394 52.2569 10.7591C52.2569 14.9141 52.2569 19.0671 52.2539 23.2221C52.2961 23.4456 52.4132 23.6481 52.5859 23.7961C52.5929 23.7991 52.6089 23.8011 52.6159 23.8031C52.7029 23.8911 52.8269 23.9341 52.9449 23.9751C53.0319 23.9701 53.1159 24.0061 53.2029 23.9981H60.1059C60.1719 23.9951 60.2389 24.0061 60.3029 23.9821L60.3099 23.9481L60.3169 23.8981C60.4649 23.1021 60.6079 22.3031 60.7659 21.5081L60.7799 21.4061C60.1409 21.4031 59.4999 21.4061 58.8609 21.4031C58.7059 21.3991 58.5469 21.4031 58.3909 21.3851C58.1269 21.3741 57.8589 21.3831 57.5939 21.3581C57.2639 21.3581 56.9379 21.3281 56.6099 21.3281C56.3519 21.3041 56.0899 21.3131 55.8299 21.3011C55.6609 21.2811 55.4869 21.2911 55.3159 21.2831C55.0359 21.2531 54.7529 21.2741 54.4729 21.2451C54.1769 21.2471 53.8819 21.2221 53.5859 21.2151C53.5885 21.2112 53.5902 21.2067 53.5909 21.2021C53.6889 21.2041 53.7849 21.1971 53.8839 21.1951C54.1019 21.1681 54.3229 21.1861 54.5409 21.1571C54.7689 21.1571 54.9949 21.1271 55.2219 21.1271C55.4239 21.1001 55.6279 21.1161 55.8299 21.0891C56.0679 21.0891 56.2999 21.0591 56.5369 21.0571C56.7319 21.0321 56.9289 21.0461 57.1239 21.0211C57.3519 21.0231 57.5769 20.9891 57.8039 20.9911C58.0279 20.9671 58.2559 20.9731 58.4789 20.9511C58.4579 20.8671 58.4409 20.7831 58.4219 20.7001C58.4059 20.6481 58.3399 20.6591 58.2979 20.6521C57.7879 20.5821 57.2809 20.5121 56.7739 20.4441C56.8069 20.4191 56.8519 20.4301 56.8889 20.4261C57.2839 20.3961 57.6759 20.3631 58.0699 20.3361C58.1599 20.3311 58.2459 20.3161 58.3359 20.3131C58.2959 20.1951 58.2719 20.0661 58.2179 19.9581C57.3749 19.8341 56.5319 19.7231 55.6919 19.5891C55.9099 19.5551 56.1309 19.5391 56.3489 19.5171L56.3679 19.5101C57.0649 19.4401 57.7649 19.3601 58.4619 19.2951C59.3469 19.2911 60.2299 19.2931 61.1149 19.2951C61.1439 19.2911 61.1929 19.3051 61.1979 19.2651L61.4129 18.1661C61.5149 17.6581 61.6739 17.1561 61.9209 16.6921C62.3169 15.9361 62.9233 15.3109 63.6669 14.8921C64.3649 14.4981 65.1719 14.3081 65.9749 14.2721C66.2359 14.2491 66.4989 14.2561 66.7569 14.2871C66.9269 14.3261 67.0999 14.3711 67.2339 14.4821C67.3439 14.5681 67.4099 14.6951 67.4589 14.8221C67.5669 15.1221 67.6289 15.4341 67.6799 15.7491C67.6819 15.8751 67.7059 16.0181 67.6349 16.1331C67.5699 16.2461 67.4379 16.3011 67.3139 16.3341C66.8609 16.4481 66.3859 16.3411 65.9339 16.4481C65.5599 16.5241 65.2119 16.7231 64.9749 17.0111C64.6949 17.3451 64.5479 17.7611 64.4649 18.1781C64.4019 18.5481 64.3219 18.9201 64.2589 19.2931C64.7049 19.2951 65.1539 19.2911 65.6019 19.2951C65.7809 19.2951 65.9639 19.3901 66.0359 19.5531C66.1299 19.7611 66.1089 19.9961 66.0789 20.2161C66.0409 20.4621 65.9799 20.7061 65.8649 20.9331C65.7689 21.1251 65.6089 21.3011 65.3909 21.3691C65.2779 21.4121 65.1559 21.4031 65.0359 21.4031C64.6419 21.4031 64.2469 21.4081 63.8529 21.4031C63.7899 21.6811 63.7469 21.9661 63.6909 22.2491C63.5879 22.7991 63.4869 23.3501 63.3829 23.9021C63.3803 23.9277 63.379 23.9534 63.3789 23.9791C63.5639 23.9891 63.7489 23.9791 63.9349 23.9841C65.3109 23.9841 66.6889 23.9821 68.0669 23.9841C68.2159 23.9889 68.3635 23.9544 68.4949 23.8841C68.5719 23.8571 68.6189 23.7921 68.6869 23.7551C68.7529 23.7191 68.7719 23.6451 68.8279 23.5971C68.8889 23.4931 68.9519 23.3841 68.9579 23.2621C68.9697 23.2617 68.9814 23.2604 68.9929 23.2581C68.9849 19.0961 68.9929 14.9341 68.9879 10.7731Z" fill="url(#paint0_linear_3921_2914)" stroke="#FCD109" stroke-width="0.094"/>
<path d="M54.445 8.03667C54.645 7.97567 54.854 8.01667 55.058 8.00267C58.892 8.00467 62.726 8.00267 66.56 8.00267C66.788 7.99367 66.987 8.11767 67.199 8.18167C67.368 8.24667 67.544 8.29867 67.713 8.36867C67.748 8.38267 67.774 8.41167 67.8 8.43667C67.798 8.73567 67.8 9.03667 67.8 9.33667C67.802 9.41667 67.788 9.49767 67.816 9.57467C67.866 9.58167 67.891 9.61767 67.924 9.64667C68.079 9.71467 68.211 9.82667 68.352 9.91667C68.562 10.0607 68.788 10.1867 68.995 10.3367C69.005 10.3957 68.997 10.4567 68.978 10.5107C68.958 10.5747 68.971 10.6427 68.964 10.7057C63.402 10.7077 57.843 10.7057 52.283 10.7077C52.271 10.6337 52.293 10.5577 52.259 10.4877C52.255 10.4297 52.233 10.3527 52.292 10.3117C52.527 10.1537 52.776 10.0117 53.006 9.84367C53.149 9.75567 53.288 9.66467 53.426 9.57467C53.454 9.52967 53.445 9.47267 53.445 9.42267C53.445 9.09467 53.445 8.76767 53.447 8.43967C53.527 8.33967 53.666 8.32867 53.776 8.27867C53.999 8.19767 54.224 8.11867 54.446 8.03667H54.445ZM54.459 8.07467C54.159 8.18567 53.856 8.29267 53.555 8.40267C53.515 8.40967 53.495 8.44367 53.473 8.47267C53.475 8.49167 53.478 8.52267 53.478 8.54067C53.475 8.81267 53.478 9.08367 53.475 9.35567C53.478 9.42267 53.468 9.49067 53.495 9.55167C53.4642 9.58278 53.43 9.61029 53.393 9.63367C53.053 9.84567 52.724 10.0767 52.383 10.2867C52.325 10.3207 52.259 10.3667 52.278 10.4407C52.266 10.4817 52.288 10.5157 52.332 10.5047C53.069 10.4997 53.804 10.5087 54.542 10.4977C55.638 10.4977 56.732 10.4997 57.828 10.4977L57.845 10.4907C57.895 10.5017 57.943 10.4977 57.995 10.4977C59.981 10.4977 61.968 10.4997 63.956 10.4977C64.581 10.4997 65.208 10.4977 65.835 10.4977C66.868 10.4977 67.903 10.5067 68.936 10.5017C68.966 10.4957 68.976 10.4747 68.964 10.4387C68.962 10.4027 68.976 10.3527 68.936 10.3297C68.772 10.2557 68.631 10.1397 68.474 10.0497C68.417 10.0047 68.344 9.97967 68.302 9.91867C68.14 9.83067 67.99 9.72167 67.83 9.62467C67.8 9.60667 67.776 9.57667 67.75 9.55167C67.7637 9.5032 67.7705 9.45303 67.77 9.40267C67.767 9.11567 67.77 8.82867 67.767 8.54067C67.774 8.49567 67.772 8.44367 67.729 8.41467C67.448 8.31667 67.169 8.21267 66.889 8.11367C66.8009 8.07465 66.7076 8.04871 66.612 8.03667H54.612C54.56 8.03867 54.511 8.06367 54.459 8.07467Z" fill="#F8F3B5" stroke="#F8F3B5" stroke-width="0.094"/>
<path d="M53.4779 8.54102C53.6839 8.62502 53.9049 8.67202 54.1139 8.75402C54.2269 8.79702 54.2619 8.91402 54.3109 9.00902C54.26 9.05579 54.2044 9.09702 54.1449 9.13202C53.9279 9.27202 53.7079 9.40802 53.4949 9.55202C53.4679 9.49202 53.4779 9.42302 53.4749 9.35602C53.4779 9.08402 53.4749 8.81302 53.4779 8.54102ZM67.1299 8.75402C67.3399 8.67402 67.5579 8.62002 67.7669 8.54102C67.7689 8.82902 67.7669 9.11602 67.7689 9.40302C67.7689 9.45302 67.7639 9.50502 67.7499 9.55302C67.5669 9.43002 67.3819 9.31502 67.1989 9.19502C67.1089 9.13202 67.0109 9.08502 66.9309 9.00702C66.9809 8.91202 67.0179 8.79702 67.1309 8.75402H67.1299Z" fill="#F7B402" stroke="#F7B402" stroke-width="0.094"/>
<path d="M57.0599 8.84579C57.3189 8.78579 57.6079 9.00879 57.5869 9.26879C57.5889 9.52379 57.3089 9.73179 57.0539 9.67379C56.9489 9.64521 56.8557 9.58392 56.7879 9.49879C56.7464 9.43945 56.7213 9.37018 56.7151 9.298C56.709 9.22583 56.722 9.15331 56.7529 9.08779C56.7999 8.96079 56.9269 8.87479 57.0609 8.84579H57.0599ZM63.7599 8.98779C63.8143 8.92825 63.8834 8.88399 63.9602 8.85943C64.0371 8.83487 64.119 8.83086 64.1979 8.84779C64.3179 8.88179 64.4349 8.95679 64.4869 9.06979C64.5357 9.16767 64.5445 9.28073 64.5112 9.38494C64.478 9.48915 64.4054 9.57627 64.3089 9.62779C64.2211 9.67193 64.1216 9.68719 64.0246 9.67138C63.9276 9.65558 63.8381 9.60952 63.7689 9.53979C63.7006 9.46462 63.662 9.36721 63.6601 9.26567C63.6583 9.16414 63.6934 9.06539 63.7589 8.98779H63.7599Z" fill="#BDA727" stroke="#BDA727" stroke-width="0.094"/>
<path d="M54.1449 9.12986C54.2044 9.09518 54.2601 9.05429 54.3109 9.00786L54.3279 9.02386C54.3439 9.14186 54.3319 9.26186 54.3369 9.37886C54.3299 9.73186 54.3439 10.0869 54.3269 10.4399C53.6439 10.4399 52.9609 10.4359 52.2769 10.4399C52.2589 10.3659 52.3249 10.3199 52.3839 10.2859C52.7239 10.0759 53.0529 9.84586 53.3939 9.63286C53.4302 9.60936 53.4638 9.58185 53.4939 9.55086C53.7079 9.40686 53.9279 9.27086 54.1439 9.13086L54.1449 9.12986ZM66.9069 9.08486C66.9069 9.05586 66.9149 9.03086 66.9309 9.00586C67.0109 9.08286 67.1089 9.13086 67.1989 9.19386C67.3819 9.31386 67.5669 9.42886 67.7499 9.55086C67.7759 9.57586 67.7999 9.60586 67.8299 9.62386C67.9899 9.72086 68.1399 9.82986 68.3019 9.91786C68.3439 9.97786 68.4169 10.0039 68.4739 10.0479C68.6309 10.1389 68.7719 10.2549 68.9359 10.3289C68.9759 10.3519 68.9619 10.4019 68.9639 10.4379C68.2809 10.4399 67.5999 10.4359 66.9169 10.4399C66.9049 10.3499 66.9119 10.2599 66.9099 10.1709C66.9099 9.80886 66.9049 9.44686 66.9069 9.08486Z" fill="#F7E62D" stroke="#F7E62D" stroke-width="0.094"/>
<path d="M68.9639 10.4391C68.2809 10.4411 67.5999 10.4371 66.9169 10.4411C66.9049 10.3511 66.9119 10.2611 66.9099 10.1721C66.9099 9.81011 66.9049 9.44811 66.9079 9.08611C66.9079 9.05711 66.9149 9.03211 66.9309 9.00711C66.9809 8.91211 67.0179 8.79711 67.1309 8.75411C67.3399 8.67411 67.5579 8.62011 67.7669 8.54111C67.7739 8.49611 67.7719 8.44411 67.7289 8.41511C67.4469 8.31711 67.1689 8.21311 66.8889 8.11411C66.8009 8.07507 66.7075 8.04913 66.6119 8.03711H54.6119C54.5599 8.03911 54.5109 8.06411 54.4589 8.07511C54.1589 8.18611 53.8559 8.29211 53.5549 8.40311C53.5149 8.41011 53.4949 8.44411 53.4729 8.47311C53.4749 8.49211 53.4779 8.52311 53.4779 8.54111C53.6839 8.62511 53.9049 8.67211 54.1139 8.75411C54.2269 8.79711 54.2619 8.91411 54.3109 9.00911L54.3279 9.02511C54.3439 9.14311 54.3319 9.26311 54.3369 9.38011C54.3299 9.73311 54.3439 10.0881 54.3269 10.4411C53.6439 10.4411 52.9609 10.4371 52.2769 10.4411C52.2669 10.4811 52.2869 10.5161 52.3319 10.5051C53.0689 10.5001 53.8039 10.5091 54.5419 10.4981C55.6379 10.4981 56.7319 10.5001 57.8279 10.4981L57.8449 10.4911C57.8939 10.5021 57.9429 10.4981 57.9949 10.4981C59.9809 10.4981 61.9679 10.5001 63.9559 10.4981C64.5809 10.5001 65.2079 10.4981 65.8339 10.4981C66.8669 10.4981 67.9029 10.5071 68.9359 10.5021C68.9659 10.4951 68.9759 10.4751 68.9639 10.4391ZM56.7529 9.08911C56.7999 8.96211 56.9269 8.87611 57.0609 8.84711C57.3189 8.78711 57.6079 9.00911 57.5869 9.27011C57.5889 9.52511 57.3089 9.73311 57.0529 9.67411C56.9484 9.64561 56.8556 9.58468 56.7879 9.50011C56.7464 9.44076 56.7213 9.37149 56.7151 9.29932C56.709 9.22714 56.722 9.15462 56.7529 9.08911ZM63.7589 8.98911C63.8136 8.92923 63.883 8.88477 63.9602 8.8602C64.0374 8.83563 64.1198 8.8318 64.1989 8.84911C64.3179 8.88311 64.4349 8.95711 64.4869 9.07111C64.5357 9.16911 64.5443 9.28226 64.5108 9.38649C64.4774 9.49071 64.4046 9.57776 64.3079 9.62911C64.2201 9.67325 64.1206 9.68851 64.0237 9.6727C63.9267 9.6569 63.8372 9.61084 63.7679 9.54111C63.6998 9.46581 63.6613 9.36834 63.6597 9.2668C63.658 9.16527 63.6933 9.06659 63.7589 8.98911Z" fill="url(#paint1_radial_3921_2914)" stroke="#FCD109" stroke-width="0.094"/>
<path d="M64.3579 11.4328C64.3899 11.4398 64.1869 11.2438 64.2259 11.2348C64.2639 11.2398 64.4059 11.1328 64.5789 11.2198C64.7509 11.3068 64.7079 11.5098 64.6889 11.5858C64.6649 11.6758 64.6059 11.7328 64.5589 11.7778C64.5329 11.7978 64.4749 11.8298 64.4399 11.8278C64.4609 11.7168 64.3929 11.6978 64.3879 11.5858L64.3579 11.4328Z" fill="url(#paint2_linear_3921_2914)" stroke="#FCD109" stroke-width="0.094"/>
<path d="M56.852 11.5565C56.847 11.6695 56.779 11.6865 56.8 11.7985C56.765 11.8005 56.707 11.7685 56.681 11.7485C56.62 11.6984 56.5748 11.6317 56.551 11.5565C56.532 11.4805 56.49 11.2765 56.661 11.1905C56.834 11.1035 56.976 11.2105 57.014 11.2055C57.054 11.2145 56.85 11.4105 56.883 11.4035L56.852 11.5565Z" fill="url(#paint3_linear_3921_2914)" stroke="#FCD109" stroke-width="0.094"/>
<path d="M64.0498 12.8806C64.0858 12.8516 64.1088 12.8516 64.1558 12.8516C63.8738 13.4396 63.5458 14.0276 63.0508 14.4856C62.9978 14.5311 62.9421 14.5731 62.8838 14.6116L62.7168 14.7276C62.6628 14.7632 62.6094 14.7999 62.5568 14.8376C62.4228 14.9076 62.3058 15.0056 62.1568 15.0476C61.8835 15.1695 61.5969 15.2591 61.3028 15.3146C61.1878 15.3336 61.0708 15.3606 60.9528 15.3626C60.8078 15.4026 60.6528 15.3736 60.5048 15.3826C60.4228 15.3966 60.3498 15.3516 60.2698 15.3606C60.1304 15.3409 59.9922 15.3135 59.8558 15.2786C58.7788 14.9556 57.7228 14.1636 57.4148 13.0936C57.4009 13.0211 57.3938 12.9474 57.3938 12.8736C57.4268 12.9376 57.4608 13.0006 57.4958 13.0636C57.9338 13.9836 58.8028 14.7066 59.8288 14.9246C59.9118 14.9616 60.0018 14.9486 60.0818 14.9806C60.1548 14.9806 60.2258 14.9776 60.2958 15.0006C60.5378 15.0056 60.7798 15.0026 61.0218 15.0026C61.0538 15.0056 61.0848 14.9896 61.1178 14.9826C61.5208 14.9696 61.9158 14.8626 62.2828 14.7026C62.3568 14.6706 62.4288 14.6366 62.5008 14.6006C62.6241 14.5381 62.7419 14.4651 62.8528 14.3826C63.2958 14.0473 63.6594 13.6184 63.9178 13.1266L64.0498 12.8816V12.8806Z" fill="#BDA727" stroke="#BDA727" stroke-width="0.094"/>
<path d="M63.6669 14.8925C64.3649 14.4995 65.1719 14.3095 65.9749 14.2725C66.2359 14.2505 66.4989 14.2575 66.7569 14.2895C66.9269 14.3275 67.0999 14.3725 67.2339 14.4835C67.1659 14.4885 67.0999 14.4585 67.0319 14.4495C66.8389 14.4135 66.6399 14.4275 66.4449 14.4225C65.8789 14.4225 65.3089 14.4655 64.7609 14.6145C64.472 14.692 64.1926 14.8013 63.9279 14.9405C63.4779 15.1805 63.0709 15.4965 62.7419 15.8765C62.1549 16.5265 61.8099 17.3495 61.6439 18.1885C61.5639 18.6385 61.4719 19.0865 61.3989 19.5385C61.2819 19.5495 61.1619 19.5435 61.0449 19.5435C60.5279 19.5415 60.0119 19.5385 59.4949 19.5335C59.3849 19.5385 59.2769 19.5135 59.1669 19.5205C58.2269 19.5255 57.2879 19.5185 56.3489 19.5185L56.3679 19.5115C57.0649 19.4415 57.7649 19.3615 58.4619 19.2965C59.3469 19.2925 60.2299 19.2945 61.1149 19.2965C61.1429 19.2925 61.1929 19.3065 61.1969 19.2665C61.2699 18.9005 61.3409 18.5345 61.4129 18.1675C61.5139 17.6595 61.6739 17.1575 61.9209 16.6935C62.3169 15.9375 62.9233 15.3124 63.6669 14.8935V14.8925Z" fill="#0D69B3" stroke="#0D69B3" stroke-width="0.094"/>
<path d="M64.7619 14.6139C65.3089 14.4649 65.8789 14.4219 66.4449 14.4219C66.6399 14.4269 66.8399 14.4129 67.0319 14.4489C67.0999 14.4589 67.1659 14.4879 67.2339 14.4829C67.3439 14.5689 67.4099 14.6959 67.4589 14.8229C67.5669 15.1229 67.6289 15.4349 67.6799 15.7499C67.6819 15.8759 67.7059 16.0189 67.6349 16.1339C67.5699 16.2469 67.4379 16.3019 67.3139 16.3359C66.8609 16.4489 66.3859 16.3419 65.9339 16.4489C65.5599 16.5249 65.2129 16.7249 64.9749 17.0119C64.6949 17.3469 64.5479 17.7619 64.4649 18.1789C64.4019 18.5489 64.3229 18.9209 64.2589 19.2939C64.2309 19.3779 64.2149 19.4679 64.1989 19.5559C64.6419 19.5629 65.0859 19.5559 65.5289 19.5609C65.6989 19.5559 65.8669 19.5649 66.0359 19.5539C66.1299 19.7619 66.1089 19.9969 66.0789 20.2169C66.0409 20.4629 65.9799 20.7069 65.8649 20.9339C65.7689 21.1259 65.6089 21.3019 65.3909 21.3699C65.2779 21.4129 65.1559 21.4039 65.0359 21.4039C64.6419 21.4039 64.2469 21.4089 63.8529 21.4039C63.7899 21.6819 63.7469 21.9669 63.6909 22.2499C63.5879 22.7999 63.4869 23.3519 63.3829 23.9029C63.3803 23.9285 63.379 23.9542 63.3789 23.9799V23.9829C62.3529 23.9829 61.3289 23.9849 60.3029 23.9829L60.3099 23.9489L60.3169 23.8989L60.3239 23.9669C60.3879 23.9739 60.5029 24.0049 60.5189 23.9169C60.6789 23.0849 60.8269 22.2469 60.9909 21.4149C60.9267 21.4018 60.8605 21.4011 60.7959 21.4129C60.7859 21.4449 60.7769 21.4769 60.7659 21.5079L60.7799 21.4069C60.1409 21.4039 59.4999 21.4069 58.8619 21.4039C58.7059 21.3999 58.5469 21.4039 58.3919 21.3859C58.1269 21.3749 57.8589 21.3839 57.5939 21.3589C57.2649 21.3589 56.9389 21.3289 56.6099 21.3289C56.3519 21.3049 56.0909 21.3139 55.8299 21.3019C55.6609 21.2819 55.4879 21.2919 55.3159 21.2839C55.0359 21.2539 54.7529 21.2749 54.4729 21.2459C54.1779 21.2479 53.8819 21.2229 53.5859 21.2159C53.5886 21.212 53.5903 21.2075 53.5909 21.2029C53.6889 21.2049 53.7849 21.1979 53.8839 21.1959C54.1019 21.1689 54.3239 21.1869 54.5409 21.1579C54.7689 21.1579 54.9949 21.1279 55.2219 21.1279C55.4239 21.1009 55.6289 21.1169 55.8299 21.0899C56.0679 21.0899 56.2999 21.0599 56.5369 21.0579C56.7319 21.0329 56.9289 21.0469 57.1239 21.0219C57.3519 21.0239 57.5769 20.9899 57.8049 20.9919C58.0279 20.9679 58.2549 20.9739 58.4789 20.9519C58.4579 20.8679 58.4409 20.7839 58.4229 20.7009C58.4059 20.6489 58.3399 20.6599 58.2979 20.6529C57.7879 20.5829 57.2809 20.5129 56.7739 20.4449C56.8069 20.4199 56.8519 20.4309 56.8889 20.4269C57.2839 20.3969 57.6759 20.3639 58.0699 20.3369C58.1599 20.3319 58.2459 20.3169 58.3359 20.3139C58.2959 20.1959 58.2719 20.0669 58.2179 19.9589C57.3749 19.8339 56.5319 19.7239 55.6919 19.5899C55.9099 19.5559 56.1309 19.5399 56.3489 19.5179C57.2889 19.5179 58.2279 19.5249 59.1669 19.5199C59.2769 19.5129 59.3849 19.5379 59.4949 19.5339L61.0449 19.5429C61.1619 19.5429 61.2819 19.5499 61.3999 19.5379C61.4719 19.0859 61.5639 18.6379 61.6439 18.1879C61.8099 17.3479 62.1559 16.5249 62.7429 15.8759C63.0709 15.4959 63.4769 15.1799 63.9279 14.9399C64.1879 14.7949 64.4749 14.6979 64.7619 14.6139Z" fill="#107BD4" stroke="#107BD4" stroke-width="0.094"/>
<path d="M64.2599 19.293C64.7049 19.295 65.1539 19.291 65.6019 19.295C65.7809 19.295 65.9639 19.39 66.0359 19.553C65.8669 19.564 65.6979 19.555 65.5289 19.56C65.0859 19.555 64.6419 19.562 64.1989 19.555C64.2149 19.467 64.2309 19.377 64.2589 19.293H64.2599ZM60.7959 21.413C60.8604 21.4012 60.9266 21.4018 60.9909 21.415C60.8269 22.247 60.6789 23.084 60.5189 23.916C60.5029 24.004 60.3879 23.973 60.3239 23.966L60.3169 23.898C60.4649 23.102 60.6079 22.303 60.7659 21.508C60.7769 21.4763 60.7869 21.4443 60.7959 21.412V21.413Z" fill="#0D69B3" stroke="#0D69B3" stroke-width="0.094"/>
<path d="M64.4648 11.4957C64.4481 11.4605 64.4405 11.4216 64.4428 11.3827L64.4248 11.3847C64.3958 11.2857 64.3098 11.1907 64.1968 11.1857C64.1118 11.1797 64.0068 11.1817 63.9568 11.2587C63.8638 11.3807 63.9078 11.5367 63.9028 11.6747L63.9058 11.7087C63.9058 11.8017 63.8938 11.8917 63.8768 11.9827C63.8632 12.01 63.8563 12.0402 63.8568 12.0707C63.8168 12.2827 63.7368 12.4937 63.6288 12.6857C63.6075 12.7113 63.5921 12.7414 63.5838 12.7737C63.5108 12.8907 63.4299 13.0026 63.3418 13.1087C63.3283 13.1202 63.3159 13.1329 63.3048 13.1467C63.2438 13.2197 63.1778 13.2807 63.1098 13.3437C63.0928 13.3537 63.0818 13.3637 63.0678 13.3737C62.9867 13.4499 62.8975 13.517 62.8018 13.5737L62.7648 13.5997C62.1638 13.9817 61.4328 14.1397 60.7218 14.1467C60.1168 14.1642 59.5159 14.0421 58.9658 13.7897L58.9228 13.7717C58.8318 13.7237 58.7378 13.6827 58.6528 13.6247L58.5948 13.5947C58.508 13.546 58.4254 13.4901 58.3478 13.4277C58.3218 13.4047 58.2938 13.3877 58.2658 13.3667C58.1787 13.3019 58.097 13.23 58.0218 13.1517L57.9658 13.0947C57.7081 12.842 57.5153 12.5309 57.4038 12.1877C57.3038 11.9187 57.3178 11.6247 57.3058 11.3427C57.2208 11.2177 57.0428 11.1477 56.9018 11.2247C56.8428 11.2647 56.8358 11.3397 56.7918 11.3917C56.7188 12.1387 57.0498 12.8817 57.5778 13.4217C57.5778 13.4387 57.5878 13.4507 57.6038 13.4567C57.6978 13.5407 57.7898 13.6267 57.8838 13.7077C57.9009 13.7248 57.9197 13.7402 57.9398 13.7537C58.0338 13.8277 58.1348 13.8957 58.2328 13.9657C58.2516 13.979 58.2713 13.9911 58.2918 14.0017C58.4218 14.0747 58.5428 14.1607 58.6818 14.2097C58.6918 14.2167 58.7078 14.2287 58.7168 14.2327C59.1628 14.4387 59.6438 14.5787 60.1368 14.6237C60.1908 14.6237 60.2448 14.6287 60.2988 14.6397C60.5338 14.6537 60.7688 14.6467 61.0038 14.6417C61.7288 14.5817 62.4778 14.4117 63.0838 13.9997L63.0908 14.0097C63.1082 13.9943 63.1262 13.9796 63.1448 13.9657C63.2646 13.8802 63.3814 13.7905 63.4948 13.6967C63.5978 13.5887 63.7178 13.4887 63.8048 13.3647L63.8188 13.3707L63.8448 13.3257C63.9248 13.2217 63.9968 13.1137 64.0678 13.0047C64.0728 12.9977 64.0838 12.9867 64.0878 12.9797L64.0798 12.9707L64.1098 12.9347C64.2398 12.6817 64.3538 12.4167 64.3938 12.1357C64.4108 12.1297 64.4198 12.1157 64.4198 12.0997C64.4218 12.0097 64.4548 11.9237 64.4458 11.8327C64.4658 11.7227 64.4688 11.6087 64.4648 11.4957Z" fill="white" stroke="white" stroke-width="0.094"/>
<path d="M17.3949 12.4625C17.7349 12.4125 18.1269 12.3825 18.4149 12.5865C18.5949 12.7165 18.6599 12.9515 18.6469 13.1615C18.6599 13.5075 18.4929 13.8785 18.1719 14.0585C17.8889 14.2065 17.5489 14.2185 17.2349 14.1885C17.0229 14.1635 16.8109 14.0515 16.7019 13.8665C16.4579 13.3285 16.7599 12.5675 17.3949 12.4625ZM7.21491 12.8525C7.22679 12.7572 7.27289 12.6695 7.34464 12.6056C7.41638 12.5418 7.50888 12.5062 7.60491 12.5055C9.08891 12.5055 10.5649 12.5125 12.0419 12.5055C12.2019 12.4935 12.3749 12.5615 12.4519 12.6975C12.5619 12.8835 12.4649 13.0875 12.4519 13.2785C12.4069 13.5385 12.4199 13.8845 12.1059 13.9835C11.0269 14.0145 9.94891 13.9835 8.86991 13.9965C8.76791 14.6515 8.67091 15.3015 8.56891 15.9505C8.56891 15.9755 8.57491 16.0305 8.57491 16.0555C9.36491 16.0495 10.1549 16.0555 10.9439 16.0495C11.1619 16.0365 11.3939 16.2165 11.3739 16.4395C11.3539 16.6675 11.3039 16.8895 11.2709 17.1195C11.2561 17.1996 11.2178 17.2735 11.1608 17.3318C11.1038 17.39 11.0307 17.43 10.9509 17.4465C10.0709 17.4655 9.17791 17.4285 8.29891 17.4655C8.15791 18.3995 7.99091 19.3325 7.84291 20.2665C7.83382 20.3592 7.79198 20.4457 7.72491 20.5104C7.65784 20.5751 7.56992 20.6138 7.47691 20.6195C7.11091 20.6255 6.74491 20.6255 6.37991 20.6195C6.14191 20.6255 5.94991 20.3715 6.01391 20.1555C6.40491 17.7195 6.80991 15.2885 7.21391 12.8525H7.21491ZM13.7359 12.5185C14.0699 12.4935 14.4099 12.5125 14.7439 12.5055C14.9489 12.4935 15.1539 12.6485 15.1739 12.8525C15.1739 13.0125 15.1289 13.1735 15.1099 13.3345C14.8399 14.9915 14.5639 16.6495 14.2949 18.3065C14.2559 18.5725 14.1849 18.8565 14.2689 19.1295C14.3649 19.4015 14.7949 19.2835 14.8989 19.5685C14.9619 19.7965 14.8919 20.0385 14.8719 20.2735C14.8529 20.5825 14.4869 20.6505 14.2369 20.7185C13.6909 20.8175 13.0299 20.7435 12.6379 20.3105C12.3559 19.9945 12.3369 19.5495 12.3949 19.1535C12.7349 17.0515 13.0749 14.9485 13.4219 12.8395C13.4334 12.7596 13.47 12.6854 13.5264 12.6276C13.5829 12.5699 13.6563 12.5317 13.7359 12.5185ZM26.4779 12.8525C26.4905 12.7582 26.5362 12.6715 26.607 12.6079C26.6777 12.5443 26.7688 12.508 26.8639 12.5055H27.8389C28.0829 12.4995 28.2819 12.7535 28.2249 12.9755C27.9999 14.3485 27.7689 15.7215 27.5449 17.0945C27.8849 17.0445 28.2699 16.9835 28.5069 16.7175C28.9049 16.2845 29.2329 15.7835 29.4769 15.2575C29.5599 15.0535 29.6049 14.7575 29.8809 14.7195C30.2469 14.7075 30.6189 14.7135 30.9849 14.7195C31.2349 14.7135 31.4209 14.9855 31.3379 15.2085C31.2419 15.5365 31.0809 15.8385 30.9139 16.1295C30.5419 16.7115 30.1309 17.2865 29.5919 17.7435C29.8299 18.4305 30.1319 19.0985 30.3939 19.7725C30.4709 19.9945 30.6579 20.2545 30.4839 20.4705C30.2849 20.7305 29.9129 20.6005 29.6369 20.6315C29.3479 20.6015 28.9309 20.7425 28.7699 20.4275C28.4679 19.7535 28.2179 19.0605 27.9099 18.3875C27.728 18.3975 27.5455 18.3951 27.3639 18.3805L27.3139 18.4805C27.2169 19.0985 27.1139 19.7165 27.0109 20.3345C26.9935 20.411 26.9526 20.4801 26.894 20.5323C26.8354 20.5845 26.7619 20.617 26.6839 20.6255C26.3439 20.6375 25.9969 20.6315 25.6499 20.6315C25.5782 20.6297 25.5083 20.6088 25.4474 20.5708C25.3865 20.5328 25.337 20.4791 25.3039 20.4155C25.2399 20.2915 25.2779 20.1495 25.2969 20.0135C25.6949 17.6265 26.0869 15.2395 26.4779 12.8525ZM44.3179 13.5265C44.343 13.4414 44.3958 13.3672 44.4679 13.3156C44.54 13.2639 44.6273 13.2379 44.7159 13.2415C44.9729 13.2485 45.2359 13.2355 45.4989 13.2485C45.7109 13.2545 45.8779 13.4585 45.8519 13.6565C45.8139 14.0085 45.7239 14.3615 45.6979 14.7135C45.9479 14.7135 46.2049 14.7075 46.4549 14.7135C46.6799 14.7135 46.8659 14.9365 46.8279 15.1465C46.7959 15.3385 46.7509 15.5235 46.7179 15.7155C46.7001 15.7952 46.6589 15.8677 46.5995 15.9239C46.5402 15.98 46.4655 16.0171 46.3849 16.0305C46.0769 16.0495 45.7749 16.0185 45.4729 16.0495C45.3449 16.8775 45.2029 17.7065 45.0689 18.5355C45.0489 18.7265 45.0369 18.9435 45.1519 19.1105C45.3259 19.3145 45.6269 19.2405 45.8719 19.2655C46.0639 19.3205 46.1859 19.5255 46.1539 19.7105C46.1219 19.9205 46.1149 20.1305 46.0639 20.3345C45.9869 20.5645 45.7109 20.6065 45.4989 20.6625C44.9149 20.8115 44.2409 20.8115 43.7209 20.4825C43.2389 20.1675 43.1619 19.5555 43.2139 19.0365C43.3489 18.0345 43.5599 17.0385 43.6759 16.0305C43.4959 16.0365 43.2779 16.0615 43.1429 15.9075C42.9889 15.7525 43.0659 15.5235 43.0919 15.3315C43.1299 15.1275 43.1239 14.8615 43.3549 14.7515C43.5409 14.6825 43.7529 14.7315 43.9519 14.7075C44.0739 14.3115 44.1889 13.9155 44.3179 13.5265ZM40.6899 15.5295C41.0939 15.1395 41.5819 14.8195 42.1399 14.6585C42.3849 14.5525 42.6999 14.7505 42.6929 15.0105C42.6479 15.3505 42.5639 15.6845 42.5069 16.0185C42.4917 16.1031 42.4498 16.1806 42.3874 16.2396C42.3249 16.2986 42.2452 16.3361 42.1599 16.3465C41.5299 16.4515 40.9849 16.8165 40.5489 17.2495C40.4389 17.3795 40.2789 17.5025 40.2589 17.6815C40.1234 18.548 39.9847 19.414 39.8429 20.2795C39.8229 20.4645 39.6559 20.6445 39.4569 20.6315H38.4819C38.4275 20.6323 38.3736 20.6218 38.3234 20.6007C38.2733 20.5796 38.2281 20.5483 38.1907 20.5089C38.1533 20.4694 38.1245 20.4226 38.1061 20.3714C38.0877 20.3202 38.0802 20.2657 38.0839 20.2115C38.3659 18.4985 38.6489 16.7915 38.9239 15.0785C38.9369 14.9055 39.0659 14.7385 39.2519 14.7195C39.4889 14.7075 39.7269 14.7135 39.9709 14.7135C40.1629 14.7135 40.3429 14.8805 40.3429 15.0725C40.3429 15.3385 40.3179 15.6105 40.3109 15.8825C40.4649 15.7895 40.5609 15.6415 40.6899 15.5295ZM16.6939 14.7445C17.0409 14.6765 17.4009 14.7325 17.7469 14.7145C17.9469 14.6885 18.1579 14.8125 18.1899 15.0045C18.2159 15.1775 18.1639 15.3445 18.1449 15.5115C17.8819 17.1015 17.6189 18.6895 17.3619 20.2795C17.3419 20.4595 17.1889 20.6375 16.9899 20.6315C16.6429 20.6315 16.2959 20.6375 15.9429 20.6255C15.7249 20.6005 15.5649 20.3595 15.6229 20.1555C15.8989 18.5045 16.1619 16.8595 16.4379 15.2085C16.4509 15.0285 16.5019 14.8185 16.6939 14.7445ZM37.4669 14.8245C36.5109 14.6515 35.5349 14.5285 34.5659 14.6205C33.6989 14.7265 32.8259 15.1035 32.2929 15.7905C31.5549 16.6925 31.3049 17.9045 31.4719 19.0305C31.5619 19.5685 31.8059 20.1125 32.2619 20.4465C32.6849 20.7615 33.2559 20.8045 33.7699 20.7245C34.4889 20.5885 35.0989 20.1435 35.5999 19.6485C35.6249 19.8585 35.5739 20.0685 35.5859 20.2735C35.5989 20.4645 35.7789 20.6435 35.9779 20.6315H36.6329C36.8249 20.6315 36.9859 20.4585 36.9989 20.2795C37.2749 18.6035 37.5509 16.9335 37.8209 15.2645C37.8589 15.0545 37.6859 14.8495 37.4669 14.8245ZM35.6639 17.7375C35.3959 18.2063 35.0507 18.6265 34.6429 18.9805C34.4119 19.1665 34.1169 19.3575 33.8019 19.2965C33.4939 19.2345 33.3459 18.9255 33.2759 18.6595C33.1986 18.3096 33.1934 17.9477 33.2606 17.5957C33.3278 17.2438 33.4661 16.9092 33.6669 16.6125C33.8469 16.3335 34.1359 16.1235 34.4699 16.0375C34.9379 15.9255 35.4319 15.9815 35.8879 16.1055L35.9139 16.1295C35.8559 16.6675 35.7469 17.1995 35.6639 17.7375ZM24.8669 16.8115C24.8609 16.1925 24.6869 15.5435 24.2379 15.0795C23.9299 14.7515 23.4679 14.5845 23.0179 14.5905C22.2739 14.5665 21.5739 14.9185 21.0279 15.3885C20.9069 15.4815 20.8229 15.6175 20.6879 15.6915C20.6879 15.4875 20.7079 15.2835 20.7009 15.0735C20.7079 14.8815 20.5209 14.7145 20.3289 14.7145H19.6739C19.5759 14.7169 19.4824 14.7556 19.4113 14.823C19.3401 14.8904 19.2966 14.9818 19.2889 15.0795C18.8839 17.5535 18.4739 20.0265 18.0689 22.4995C18.0109 22.7295 18.2169 22.9645 18.4609 22.9575C18.8209 22.9515 19.1859 22.9825 19.5389 22.9335C19.8219 22.8585 19.8149 22.5435 19.8599 22.3145C19.9585 21.7715 20.0379 21.2251 20.0979 20.6765C21.3619 20.9115 22.8319 20.7505 23.7759 19.8285C24.5459 19.0185 24.9059 17.8985 24.8669 16.8115ZM23.0699 17.4355C23.0309 18.0045 22.8199 18.5795 22.4089 18.9935C21.8759 19.4825 21.0669 19.4145 20.4119 19.2475C20.3968 19.2242 20.3841 19.1994 20.3739 19.1735C20.4759 18.6355 20.5279 18.0915 20.6559 17.5595C21.0159 16.9895 21.4519 16.4155 22.0749 16.0995C22.3059 15.9945 22.6209 16.0195 22.7879 16.2235C23.0699 16.5635 23.0959 17.0215 23.0699 17.4355Z" fill="#107BD4" stroke="#107BD4" stroke-width="0.101"/>
</g>
<defs>
<linearGradient id="paint0_linear_3921_2914" x1="60.6229" y1="10.7051" x2="60.6229" y2="23.9991" gradientUnits="userSpaceOnUse">
<stop stop-color="#F7E830"/>
<stop offset="1" stop-color="#FDCB06"/>
</linearGradient>
<radialGradient id="paint1_radial_3921_2914" cx="0" cy="0" r="1" gradientUnits="userSpaceOnUse" gradientTransform="translate(60.5509 16.7691) scale(11.2247 10.8133)">
<stop offset="0.596" stop-color="#F29405"/>
<stop offset="0.736" stop-color="#F7D01E"/>
<stop offset="1" stop-color="#FDCB06"/>
</radialGradient>
<linearGradient id="paint2_linear_3921_2914" x1="64.4639" y1="11.1858" x2="64.4669" y2="11.8148" gradientUnits="userSpaceOnUse">
<stop stop-color="#FADA1C"/>
<stop offset="1" stop-color="#FDCB06"/>
</linearGradient>
<linearGradient id="paint3_linear_3921_2914" x1="56.777" y1="11.1565" x2="56.773" y2="11.7855" gradientUnits="userSpaceOnUse">
<stop stop-color="#FADA1C"/>
<stop offset="1" stop-color="#FDCB06"/>
</linearGradient>
<clipPath id="clip0_3921_2914">
<rect width="63" height="16" fill="white" transform="translate(6 8)"/>
</clipPath>
</defs>
</svg>
