<svg width="74" height="32" viewBox="0 0 74 32" fill="none" xmlns="http://www.w3.org/2000/svg">
<mask id="mask0_3921_2942" style="mask-type:alpha" maskUnits="userSpaceOnUse" x="0" y="0" width="74" height="32">
<rect width="74" height="32" fill="#C4C4C4"/>
</mask>
<g mask="url(#mask0_3921_2942)">
</g>
<g clip-path="url(#clip0_3921_2942)">
<path d="M23.8661 7C23.9401 8.556 23.3061 9.76 22.0761 10.674C21.6371 10.999 21.1441 11.148 20.6181 11.216C20.3741 11.25 20.3141 11.162 20.3071 10.918C20.2531 9.375 21.1651 7.968 22.6501 7.291H22.6571L22.6841 7.277C22.6841 7.277 22.7181 7.257 22.7381 7.25C22.7521 7.244 22.7651 7.244 22.7851 7.244C22.7991 7.244 22.8121 7.237 22.8191 7.237C22.8791 7.23 22.9541 7.223 23.0011 7.189C23.0011 7.189 23.0011 7.183 23.0081 7.183C23.2921 7.095 23.6771 7 23.8591 7H23.8661V7ZM13.0001 16.69C12.9882 16.101 13.0589 15.5133 13.2101 14.944C13.7771 12.84 15.5931 11.446 17.7141 11.494C18.2586 11.5134 18.7907 11.6615 19.2671 11.926C20.0301 12.332 20.7531 12.332 21.5221 11.94C22.5821 11.398 23.6901 11.263 24.8521 11.595C25.7161 11.838 26.3921 12.359 26.9921 13.009C27.2081 13.239 26.9921 13.279 26.8711 13.368C25.8441 14.112 25.2301 15.107 25.1831 16.386C25.1291 18.03 25.8381 19.262 27.3161 19.999C27.5731 20.128 27.6001 20.236 27.5121 20.479C26.9791 21.928 26.2291 23.234 25.1291 24.323C24.4191 25.02 23.5691 25.156 22.6371 24.858C22.4607 24.8009 22.2889 24.7307 22.1231 24.648C21.1111 24.188 20.1111 24.208 19.0781 24.648C17.5311 25.311 16.6941 25.074 15.6271 23.748C13.9321 21.63 13.0001 19.174 13.0001 16.69ZM36.6291 23.89C35.9941 24.08 35.6231 23.863 35.4131 23.281C35.2991 22.97 35.1091 22.686 34.9411 22.388C34.7181 21.995 34.2251 21.82 33.7791 21.948C33.6041 21.995 33.6441 22.111 33.6441 22.226C33.6441 22.699 33.6241 23.173 33.6441 23.64C33.6641 24.019 33.4211 23.93 33.2191 23.938C33.0161 23.938 32.8271 23.985 32.8341 23.647C32.8541 22.158 32.8471 20.669 32.8341 19.181C32.8341 18.944 32.8941 18.883 33.1311 18.89C33.7661 18.91 34.3941 18.89 35.0281 18.91C35.7381 18.93 36.2641 19.302 36.4331 19.884C36.6431 20.602 36.3931 21.366 35.7711 21.732C35.5411 21.867 35.5891 21.975 35.6771 22.138C35.9871 22.72 36.3051 23.295 36.6291 23.898V23.89ZM34.4071 21.3H34.9341C35.3121 21.3 35.5341 21.09 35.6561 20.765C35.9001 20.115 35.5011 19.533 34.7991 19.533C34.4211 19.533 33.9211 19.371 33.7051 19.601C33.5151 19.797 33.6371 20.298 33.6371 20.657C33.6371 21.307 33.6371 21.307 34.4071 21.3ZM55.1521 22.198H54.0521C53.9101 22.198 53.7821 22.212 53.8361 22.422C53.9301 22.807 54.0861 23.166 54.4841 23.295C54.8891 23.423 55.3281 23.423 55.6121 23.065C55.8341 22.787 56.0921 22.875 56.3271 22.895C56.5371 22.915 56.4021 23.085 56.3551 23.193C56.0851 23.741 55.2401 24.127 54.5921 23.985C53.3161 23.715 52.7621 22.598 53.1941 21.184C53.4711 20.284 54.3291 19.796 55.2671 20.047C56.2271 20.297 56.5171 21.055 56.5231 22.016C56.5231 22.232 56.3881 22.198 56.2601 22.198H55.1521ZM54.7941 21.644H55.5371C55.6931 21.644 55.8011 21.637 55.7331 21.427C55.6181 21.062 55.4631 20.737 55.0441 20.669C54.6191 20.601 54.2341 20.669 53.9981 21.102C53.7281 21.589 53.7481 21.637 54.3081 21.637H54.7881L54.7951 21.644H54.7941ZM40.6061 22.848C40.4241 23.558 39.8431 23.978 39.0461 24.018C38.3711 24.059 37.6691 23.66 37.4331 23.078C37.1541 22.4049 37.1516 21.649 37.4261 20.974C37.6821 20.331 38.4051 19.904 39.0871 19.972C39.8841 20.053 40.4921 20.608 40.6131 21.366V21.454C40.6721 21.946 40.4531 22.192 39.9581 22.192C39.3841 22.192 38.8101 22.198 38.2361 22.192C37.9861 22.192 37.9191 22.28 37.9801 22.503C38.0871 22.868 38.2501 23.2 38.6481 23.302C39.0601 23.403 39.4851 23.41 39.7761 23.038C40.0191 22.719 40.3231 22.977 40.6001 22.841L40.6061 22.848ZM37.9931 21.644H39.7021C39.8971 21.644 39.9111 21.569 39.8701 21.4C39.7491 20.879 39.4381 20.629 38.8981 20.656C38.3511 20.676 38.0611 20.987 37.9861 21.644H37.9931ZM47.0491 22.198C46.7111 22.198 46.3731 22.212 46.0361 22.198C45.7591 22.185 45.6911 22.3 45.7661 22.537C45.8801 22.895 46.0361 23.241 46.4481 23.322C46.8601 23.403 47.2781 23.41 47.5681 23.031C47.7711 22.767 48.0281 22.889 48.2511 22.916C48.3861 22.929 48.2911 23.106 48.2511 23.2C48.0081 23.741 47.1431 24.127 46.4881 23.999C45.2731 23.762 44.8681 22.862 44.9821 21.745C45.0901 20.737 45.5901 20.189 46.4001 20.026C47.5821 19.796 48.5001 20.683 48.3921 22.043C48.3791 22.233 48.2571 22.198 48.1491 22.205H47.0491V22.198ZM47.6491 21.644C47.5751 20.974 47.3461 20.696 46.8391 20.662C46.2721 20.622 45.8871 20.892 45.7661 21.407C45.7261 21.569 45.7461 21.65 45.9411 21.65C46.5081 21.644 47.0831 21.65 47.6501 21.65V21.644H47.6491ZM41.6801 22.889C41.8221 22.889 41.9701 22.889 42.1061 23.099C42.3691 23.484 43.0511 23.519 43.4161 23.22C43.7131 22.977 43.6791 22.659 43.3081 22.496C43.0441 22.381 42.7481 22.341 42.4631 22.266C42.0781 22.165 41.6931 22.063 41.4641 21.691C41.0931 21.089 41.4041 20.405 42.1741 20.094C42.8341 19.83 43.7541 20.047 44.0911 20.547C44.1991 20.703 44.3611 20.967 44.1991 21.041C44.0171 21.136 43.7131 21.224 43.4971 20.94C43.3671 20.7699 43.1805 20.6518 42.9711 20.607C42.7617 20.5623 42.5432 20.5938 42.3551 20.696C42.1871 20.784 42.0651 20.92 42.0651 21.109C42.0651 21.299 42.1871 21.441 42.3691 21.495C42.7611 21.61 43.1591 21.705 43.5511 21.813C43.9761 21.935 44.2871 22.178 44.3271 22.652C44.3751 23.18 44.1791 23.545 43.7271 23.768C43.0981 24.073 42.4571 24.073 41.8221 23.775C41.6192 23.6833 41.451 23.5291 41.3421 23.335C41.1261 22.943 41.1741 22.875 41.6671 22.882L41.6801 22.889ZM58.1041 20.703C58.4211 20.203 58.7721 20.006 59.2581 20.013C59.6161 20.013 59.5081 20.256 59.5151 20.439C59.5281 20.609 59.5691 20.771 59.2721 20.771C58.3741 20.771 58.1241 21.055 58.1241 21.975C58.1241 22.537 58.1041 23.099 58.1241 23.653C58.1371 23.999 57.9211 23.924 57.7251 23.938C57.4951 23.958 57.3811 23.918 57.3881 23.64C57.4016 22.564 57.4016 21.488 57.3881 20.412C57.3881 20.128 57.4551 20.04 57.7461 20.04C58.0221 20.04 58.1581 20.1 58.1041 20.399C58.0901 20.453 58.1041 20.514 58.1041 20.696V20.703ZM49.3651 21.251C49.3651 20.5 49.3791 19.749 49.3651 18.998C49.3581 18.714 49.4261 18.612 49.7231 18.626C49.9731 18.639 50.1081 18.646 50.1081 18.971C50.0881 20.5 50.0941 22.036 50.1081 23.565C50.1081 23.843 50.0541 23.945 49.7501 23.945C49.4331 23.945 49.3581 23.843 49.3721 23.545C49.3921 22.78 49.3791 22.015 49.3791 21.245L49.3651 21.251ZM52.1001 21.292C52.1001 22.07 52.0801 22.855 52.1071 23.633C52.1201 23.958 51.9451 23.938 51.7291 23.938C51.5191 23.938 51.3771 23.951 51.3771 23.653C51.3911 22.063 51.3911 20.473 51.3771 18.89C51.3771 18.551 51.5801 18.653 51.7561 18.64C51.9511 18.626 52.1141 18.605 52.1061 18.91C52.0861 19.701 52.1001 20.5 52.1001 21.292ZM44.8201 12.935C45.7321 12.122 46.3401 12.129 47.0151 13.002C47.3331 12.474 47.8121 12.292 48.4001 12.352C48.9001 12.4 49.3181 12.745 49.3381 13.239C49.3781 14.153 49.3651 15.066 49.3651 15.979C49.3651 16.325 49.0821 16.122 48.9331 16.162C48.7641 16.202 48.6291 16.176 48.6361 15.925C48.6491 15.201 48.6431 14.485 48.6361 13.76C48.6361 13.286 48.4201 13.043 47.9741 13.002C47.5761 12.968 47.1841 13.246 47.1241 13.645C47.0221 14.362 47.0831 15.086 47.0891 15.804C47.0891 16.142 46.9541 16.162 46.6841 16.176C46.3671 16.189 46.3341 16.061 46.3401 15.796C46.3531 15.134 46.3401 14.471 46.3401 13.807C46.3401 13.287 46.0901 13.002 45.6371 12.995C45.424 13.0015 45.2214 13.0893 45.0709 13.2402C44.9203 13.3911 44.8331 13.5939 44.8271 13.807C44.8136 14.4703 44.8136 15.1337 44.8271 15.797C44.8341 16.074 44.7731 16.176 44.4691 16.176C44.1651 16.176 44.0781 16.088 44.0841 15.783C44.1041 14.795 44.0911 13.807 44.0841 12.819C44.0841 12.589 44.0511 12.407 44.4091 12.407C44.7661 12.407 44.7931 12.562 44.7591 12.827C44.7591 12.86 44.7331 12.921 44.8071 12.927L44.8201 12.935ZM57.4821 12.996C58.0021 12.116 59.1981 12.129 59.6501 13.009C59.9681 12.468 60.4541 12.292 61.0411 12.346C61.5811 12.393 61.9731 12.779 61.9801 13.327C61.9931 14.18 61.9731 15.039 61.9931 15.892C62.0001 16.217 61.8181 16.156 61.6291 16.162C61.4331 16.162 61.2571 16.196 61.2711 15.885C61.2911 15.161 61.2841 14.437 61.2711 13.72C61.2711 13.253 61.0211 13.01 60.5751 12.996C60.1231 12.982 59.7651 13.293 59.7581 13.726C59.7451 14.436 59.7381 15.141 59.7581 15.851C59.7721 16.162 59.6371 16.183 59.3941 16.169C59.1841 16.162 59.0021 16.196 59.0151 15.865C59.0421 15.188 59.0291 14.511 59.0221 13.828C59.0221 13.3 58.7451 13.002 58.2791 12.996C58.0659 13.0007 57.8626 13.0867 57.7107 13.2363C57.5589 13.3859 57.4699 13.5879 57.4621 13.801C57.4421 14.477 57.4421 15.161 57.4621 15.838C57.4761 16.128 57.3681 16.183 57.1111 16.169C56.8881 16.156 56.6991 16.209 56.7061 15.844C56.7331 14.843 56.7191 13.841 56.7061 12.84C56.7061 12.583 56.6861 12.414 57.0561 12.407C57.4151 12.407 57.4891 12.535 57.4421 12.833C57.4421 12.86 57.4421 12.894 57.4551 12.996H57.4821ZM32.8471 13.665C32.8471 12.941 32.8541 12.225 32.8471 11.5C32.8471 11.25 32.9151 11.168 33.1651 11.175C33.7391 11.195 34.3131 11.175 34.8801 11.182C35.8321 11.202 36.4601 11.845 36.4741 12.806C36.482 13.2349 36.3217 13.65 36.0276 13.9623C35.7334 14.2745 35.3287 14.4593 34.9001 14.477C34.6101 14.491 34.3061 14.511 34.0221 14.477C33.6721 14.437 33.6041 14.586 33.6311 14.897C33.6581 15.222 33.6111 15.547 33.6441 15.865C33.6781 16.189 33.5021 16.189 33.2791 16.169C33.0841 16.156 32.8341 16.264 32.8471 15.879C32.8741 15.141 32.8541 14.403 32.8541 13.672L32.8471 13.665ZM33.6311 12.799C33.6311 13.453 33.9551 13.779 34.6031 13.774H34.6501C35.2921 13.767 35.6631 13.442 35.6701 12.887C35.6831 12.231 35.3191 11.859 34.6571 11.832C33.9771 11.809 33.6371 12.132 33.6371 12.799H33.6311ZM43.1391 15.174C42.9571 15.973 42.1391 16.338 41.2621 16.237C40.4381 16.142 39.9041 15.52 39.8101 14.613C39.6951 13.523 40.1141 12.677 40.9441 12.441C42.4441 12.014 43.2201 13.002 43.2471 14.261C43.2471 14.491 43.1321 14.484 42.9701 14.484C42.2681 14.484 41.5591 14.491 40.8561 14.484C40.5861 14.484 40.4921 14.511 40.5791 14.822C40.7891 15.58 41.6261 15.912 42.2271 15.398C42.5171 15.148 42.7941 15.154 43.1321 15.188L43.1391 15.174ZM41.4901 13.923C41.7131 13.923 41.9301 13.909 42.1521 13.923C42.4561 13.95 42.5171 13.814 42.4221 13.563C42.2871 13.198 42.0301 12.995 41.6391 12.962C41.2071 12.928 40.8551 13.07 40.6531 13.462C40.4571 13.842 40.5041 13.916 40.9231 13.916H41.4971L41.4901 13.922V13.923ZM54.8961 15.54C54.5241 16.203 53.9911 16.325 53.3901 16.223C52.8021 16.122 52.4511 15.703 52.4381 15.08C52.4181 14.288 52.4441 13.49 52.4241 12.698C52.4171 12.38 52.6001 12.427 52.7891 12.434C52.9641 12.434 53.1671 12.366 53.1541 12.698C53.1271 13.348 53.1401 13.99 53.1541 14.64C53.1541 15.262 53.3901 15.526 53.9241 15.547C54.5111 15.567 54.8821 15.256 54.9091 14.667C54.9361 14.0333 54.9361 13.3987 54.9091 12.765C54.8961 12.434 55.0441 12.434 55.2941 12.42C55.5781 12.407 55.6661 12.488 55.6591 12.779C55.6388 13.7802 55.6388 14.7818 55.6591 15.783C55.6591 16.088 55.5911 16.169 55.2811 16.183C54.9431 16.189 54.8821 16.061 54.9231 15.777C54.9231 15.736 54.9231 15.689 54.9091 15.547L54.8961 15.54ZM38.0271 12.914C38.2701 12.589 38.5471 12.414 38.8911 12.359C39.3441 12.292 39.4111 12.366 39.3981 12.833C39.3981 13.036 39.3301 13.063 39.1411 13.07C38.2501 13.104 38.0411 13.327 38.0411 14.207C38.0411 14.768 38.0211 15.323 38.0471 15.885C38.0671 16.237 37.8441 16.162 37.6551 16.162C37.4661 16.162 37.2431 16.25 37.2501 15.892C37.2701 14.89 37.2501 13.889 37.2641 12.887C37.2641 12.684 37.1361 12.393 37.5611 12.413C37.8711 12.427 38.1551 12.413 38.0271 12.914ZM51.2831 14.329C51.2831 14.843 51.2631 15.357 51.2901 15.871C51.3031 16.156 51.1681 16.189 50.9521 16.162C50.7701 16.142 50.5401 16.25 50.5471 15.892C50.5671 14.836 50.5671 13.774 50.5471 12.718C50.5401 12.38 50.7291 12.434 50.9321 12.42C51.1751 12.407 51.3101 12.434 51.2901 12.738C51.2631 13.266 51.2831 13.794 51.2831 14.328V14.329ZM50.9321 11.73C50.6421 11.703 50.4391 11.56 50.4321 11.27C50.4321 10.986 50.6421 10.803 50.9121 10.803C51.1551 10.803 51.3571 10.952 51.3781 11.229C51.3981 11.547 51.1821 11.656 50.9321 11.723V11.73Z" fill="#010101"/>
</g>
<defs>
<clipPath id="clip0_3921_2942">
<rect width="49" height="18" fill="white" transform="translate(13 7)"/>
</clipPath>
</defs>
</svg>
