<svg width="63" height="16" viewBox="0 0 63 16" fill="none" xmlns="http://www.w3.org/2000/svg">
<g clip-path="url(#clip0_6459_2283)">
<path d="M62.9879 2.77113C62.981 2.74809 62.973 2.7254 62.9639 2.70312C57.4019 2.70513 51.8419 2.70313 46.2829 2.70513C46.2688 2.71919 46.2597 2.73744 46.2569 2.75713C46.2569 6.91213 46.2569 11.0651 46.2539 15.2201C46.2961 15.4436 46.4132 15.6461 46.5859 15.7941C46.5929 15.7971 46.6089 15.7991 46.6159 15.8011C46.7029 15.8891 46.8269 15.9321 46.9449 15.9731C47.0319 15.9681 47.1159 16.0041 47.2029 15.9961H54.1059C54.1719 15.9931 54.2389 16.0041 54.3029 15.9801L54.3099 15.9461L54.3169 15.8961C54.4649 15.1001 54.6079 14.3011 54.7659 13.5061L54.7799 13.4041C54.1409 13.4011 53.4999 13.4041 52.8609 13.4011C52.7059 13.3971 52.5469 13.4011 52.3909 13.3831C52.1269 13.3721 51.8589 13.3811 51.5939 13.3561C51.2639 13.3561 50.9379 13.3261 50.6099 13.3261C50.3519 13.3021 50.0899 13.3111 49.8299 13.2991C49.6609 13.2791 49.4869 13.2891 49.3159 13.2811C49.0359 13.2511 48.7529 13.2721 48.4729 13.2431C48.1769 13.2451 47.8819 13.2201 47.5859 13.2131C47.5885 13.2092 47.5902 13.2048 47.5909 13.2001C47.6889 13.2021 47.7849 13.1951 47.8839 13.1931C48.1019 13.1661 48.3229 13.1841 48.5409 13.1551C48.7689 13.1551 48.9949 13.1251 49.2219 13.1251C49.4239 13.0981 49.6279 13.1141 49.8299 13.0871C50.0679 13.0871 50.2999 13.0571 50.5369 13.0551C50.7319 13.0301 50.9289 13.0441 51.1239 13.0191C51.3519 13.0211 51.5769 12.9871 51.8039 12.9891C52.0279 12.9651 52.2559 12.9711 52.4789 12.9491C52.4579 12.8651 52.4409 12.7811 52.4219 12.6981C52.4059 12.6461 52.3399 12.6571 52.2979 12.6501C51.7879 12.5801 51.2809 12.5101 50.7739 12.4421C50.8069 12.4171 50.8519 12.4281 50.8889 12.4241C51.2839 12.3941 51.6759 12.3611 52.0699 12.3341C52.1599 12.3291 52.2459 12.3141 52.3359 12.3111C52.2959 12.1931 52.2719 12.0641 52.2179 11.9561C51.3749 11.8321 50.5319 11.7211 49.6919 11.5871C49.9099 11.5531 50.1309 11.5371 50.3489 11.5151L50.3679 11.5081C51.0649 11.4381 51.7649 11.3581 52.4619 11.2931C53.3469 11.2891 54.2299 11.2911 55.1149 11.2931C55.1439 11.2891 55.1929 11.3031 55.1979 11.2631L55.4129 10.1641C55.5149 9.65613 55.6739 9.15413 55.9209 8.69013C56.3169 7.93415 56.9233 7.30898 57.6669 6.89013C58.3649 6.49613 59.1719 6.30612 59.9749 6.27012C60.2359 6.24712 60.4989 6.25413 60.7569 6.28513C60.9269 6.32413 61.0999 6.36912 61.2339 6.48012C61.3439 6.56612 61.4099 6.69313 61.4589 6.82013C61.5669 7.12013 61.6289 7.43213 61.6799 7.74713C61.6819 7.87313 61.7059 8.01613 61.6349 8.13113C61.5699 8.24413 61.4379 8.29912 61.3139 8.33212C60.8609 8.44612 60.3859 8.33913 59.9339 8.44613C59.5599 8.52213 59.2119 8.72112 58.9749 9.00912C58.6949 9.34312 58.5479 9.75913 58.4649 10.1761C58.4019 10.5461 58.3219 10.9181 58.2589 11.2911C58.7049 11.2931 59.1539 11.2891 59.6019 11.2931C59.7809 11.2931 59.9639 11.3881 60.0359 11.5511C60.1299 11.7591 60.1089 11.9941 60.0789 12.2141C60.0409 12.4601 59.9799 12.7041 59.8649 12.9311C59.7689 13.1231 59.6089 13.2991 59.3909 13.3671C59.2779 13.4101 59.1559 13.4011 59.0359 13.4011C58.6419 13.4011 58.2469 13.4061 57.8529 13.4011C57.7899 13.6791 57.7469 13.9641 57.6909 14.2471C57.5879 14.7971 57.4869 15.3481 57.3829 15.9001C57.3803 15.9257 57.379 15.9514 57.3789 15.9771C57.5639 15.9871 57.7489 15.9771 57.9349 15.9821C59.3109 15.9821 60.6889 15.9801 62.0669 15.9821C62.2159 15.987 62.3635 15.9525 62.4949 15.8821C62.5719 15.8551 62.6189 15.7901 62.6869 15.7531C62.7529 15.7171 62.7719 15.6431 62.8279 15.5951C62.8889 15.4911 62.9519 15.3821 62.9579 15.2601C62.9697 15.2598 62.9814 15.2584 62.9929 15.2561C62.9849 11.0941 62.9929 6.93213 62.9879 2.77113Z" fill="url(#paint0_linear_6459_2283)" stroke="#FCD109" stroke-width="0.094"/>
<path d="M48.4448 0.0347159C48.6448 -0.0262841 48.8538 0.0147159 49.0578 0.000715855C52.8918 0.00271585 56.7258 0.000715855 60.5598 0.000715855C60.7878 -0.00828415 60.9868 0.115716 61.1988 0.179716C61.3678 0.244716 61.5438 0.296716 61.7128 0.366716C61.7478 0.380716 61.7738 0.409716 61.7998 0.434716C61.7978 0.733716 61.7998 1.03472 61.7998 1.33472C61.8018 1.41472 61.7878 1.49572 61.8158 1.57272C61.8658 1.57972 61.8908 1.61572 61.9238 1.64472C62.0788 1.71272 62.2108 1.82472 62.3518 1.91472C62.5618 2.05872 62.7878 2.18472 62.9948 2.33472C63.0048 2.39372 62.9968 2.45472 62.9778 2.50872C62.9578 2.57272 62.9708 2.64072 62.9638 2.70372C57.4018 2.70572 51.8428 2.70372 46.2828 2.70572C46.2708 2.63172 46.2928 2.55572 46.2588 2.48572C46.2548 2.42772 46.2328 2.35072 46.2918 2.30972C46.5268 2.15172 46.7758 2.00972 47.0058 1.84172C47.1488 1.75372 47.2878 1.66272 47.4258 1.57272C47.4538 1.52772 47.4448 1.47072 47.4448 1.42072C47.4448 1.09272 47.4448 0.765716 47.4468 0.437716C47.5268 0.337716 47.6658 0.326716 47.7758 0.276716C47.9988 0.195716 48.2238 0.116716 48.4458 0.0347159H48.4448ZM48.4588 0.0727159C48.1588 0.183716 47.8558 0.290716 47.5548 0.400716C47.5148 0.407716 47.4948 0.441716 47.4728 0.470716C47.4748 0.489716 47.4778 0.520716 47.4778 0.538716C47.4748 0.810716 47.4778 1.08172 47.4748 1.35372C47.4778 1.42072 47.4678 1.48872 47.4948 1.54972C47.464 1.58083 47.4298 1.60834 47.3928 1.63172C47.0528 1.84372 46.7238 2.07472 46.3828 2.28472C46.3248 2.31872 46.2588 2.36472 46.2778 2.43872C46.2658 2.47972 46.2878 2.51372 46.3318 2.50272C47.0688 2.49772 47.8038 2.50672 48.5418 2.49572C49.6378 2.49572 50.7318 2.49772 51.8278 2.49572L51.8448 2.48872C51.8948 2.49972 51.9428 2.49572 51.9948 2.49572C53.9808 2.49572 55.9678 2.49772 57.9558 2.49572C58.5808 2.49772 59.2078 2.49572 59.8348 2.49572C60.8678 2.49572 61.9028 2.50472 62.9358 2.49972C62.9658 2.49372 62.9758 2.47272 62.9638 2.43672C62.9618 2.40072 62.9758 2.35072 62.9358 2.32772C62.7718 2.25372 62.6308 2.13772 62.4738 2.04772C62.4168 2.00272 62.3438 1.97772 62.3018 1.91672C62.1398 1.82872 61.9898 1.71972 61.8298 1.62272C61.7998 1.60472 61.7758 1.57472 61.7498 1.54972C61.7635 1.50125 61.7702 1.45108 61.7698 1.40072C61.7668 1.11372 61.7698 0.826716 61.7668 0.538716C61.7738 0.493716 61.7718 0.441716 61.7288 0.412716C61.4478 0.314716 61.1688 0.210716 60.8888 0.111716C60.8007 0.0726939 60.7074 0.0467532 60.6118 0.0347159H48.6118C48.5598 0.0367159 48.5108 0.0617159 48.4588 0.0727159Z" fill="#F8F3B5" stroke="#F8F3B5" stroke-width="0.094"/>
<path d="M47.4781 0.539062C47.6841 0.623062 47.9051 0.670062 48.1141 0.752062C48.2271 0.795063 48.2621 0.912062 48.3111 1.00706C48.2603 1.05384 48.2046 1.09507 48.1451 1.13006C47.9281 1.27006 47.7081 1.40606 47.4951 1.55006C47.4681 1.49006 47.4781 1.42106 47.4751 1.35406C47.4781 1.08206 47.4751 0.811063 47.4781 0.539062ZM61.1301 0.752062C61.3401 0.672063 61.5581 0.618063 61.7671 0.539062C61.7691 0.827062 61.7671 1.11406 61.7691 1.40106C61.7691 1.45106 61.7641 1.50306 61.7501 1.55106C61.5671 1.42806 61.3821 1.31306 61.1991 1.19306C61.1091 1.13006 61.0111 1.08306 60.9311 1.00506C60.9811 0.910063 61.0181 0.795063 61.1311 0.752062H61.1301Z" fill="#F7B402" stroke="#F7B402" stroke-width="0.094"/>
<path d="M51.0601 0.845794C51.3191 0.785794 51.6081 1.00879 51.5871 1.26879C51.5891 1.52379 51.3091 1.73179 51.0541 1.67379C50.9491 1.64521 50.856 1.58392 50.7881 1.49879C50.7466 1.43945 50.7215 1.37018 50.7153 1.298C50.7092 1.22583 50.7222 1.15331 50.7531 1.08779C50.8001 0.960794 50.9271 0.874794 51.0611 0.845794H51.0601ZM57.7601 0.987793C57.8146 0.928248 57.8836 0.883992 57.9605 0.85943C58.0373 0.834869 58.1193 0.830857 58.1981 0.847794C58.3181 0.881794 58.4351 0.956794 58.4871 1.06979C58.536 1.16767 58.5447 1.28073 58.5115 1.38494C58.4782 1.48915 58.4056 1.57627 58.3091 1.62779C58.2213 1.67193 58.1219 1.68719 58.0249 1.67138C57.9279 1.65558 57.8384 1.60952 57.7691 1.53979C57.7009 1.46462 57.6622 1.36721 57.6604 1.26567C57.6585 1.16414 57.6936 1.06539 57.7591 0.987793H57.7601Z" fill="#BDA727" stroke="#BDA727" stroke-width="0.094"/>
<path d="M48.1449 1.12791C48.2044 1.09323 48.2601 1.05233 48.3109 1.00591L48.3279 1.02191C48.3439 1.13991 48.3319 1.25991 48.3369 1.37691C48.3299 1.72991 48.3439 2.08491 48.3269 2.43791C47.6439 2.43791 46.9609 2.43391 46.2769 2.43791C46.2589 2.36391 46.3249 2.31791 46.3839 2.28391C46.7239 2.07391 47.0529 1.84391 47.3939 1.63091C47.4302 1.60741 47.4638 1.5799 47.4939 1.54891C47.7079 1.40491 47.9279 1.26891 48.1439 1.12891L48.1449 1.12791ZM60.9069 1.08291C60.9069 1.05391 60.9149 1.02891 60.9309 1.00391C61.0109 1.08091 61.1089 1.12891 61.1989 1.19191C61.3819 1.31191 61.5669 1.42691 61.7499 1.54891C61.7759 1.57391 61.7999 1.60391 61.8299 1.62191C61.9899 1.71891 62.1399 1.82791 62.3019 1.91591C62.3439 1.97591 62.4169 2.00191 62.4739 2.04591C62.6309 2.13691 62.7719 2.25291 62.9359 2.32691C62.9759 2.34991 62.9619 2.39991 62.9639 2.43591C62.2809 2.43791 61.5999 2.43391 60.9169 2.43791C60.9049 2.34791 60.9119 2.25791 60.9099 2.16891C60.9099 1.80691 60.9049 1.44491 60.9069 1.08291Z" fill="#F7E62D" stroke="#F7E62D" stroke-width="0.094"/>
<path d="M62.9639 2.43716C62.2809 2.43916 61.5999 2.43516 60.9169 2.43916C60.9049 2.34916 60.9119 2.25916 60.9099 2.17016C60.9099 1.80816 60.9049 1.44616 60.9079 1.08416C60.9079 1.05516 60.9149 1.03016 60.9309 1.00516C60.9809 0.910156 61.0179 0.795156 61.1309 0.752156C61.3399 0.672156 61.5579 0.618156 61.7669 0.539156C61.7739 0.494156 61.7719 0.442156 61.7289 0.413156C61.4469 0.315156 61.1689 0.211156 60.8889 0.112156C60.8009 0.0731207 60.7075 0.0471795 60.6119 0.0351562H48.6119C48.5599 0.0371563 48.5109 0.0621563 48.4589 0.0731563C48.1589 0.184156 47.8559 0.290156 47.5549 0.401156C47.5149 0.408156 47.4949 0.442156 47.4729 0.471156C47.4749 0.490156 47.4779 0.521156 47.4779 0.539156C47.6839 0.623156 47.9049 0.670156 48.1139 0.752156C48.2269 0.795156 48.2619 0.912156 48.3109 1.00716L48.3279 1.02316C48.3439 1.14116 48.3319 1.26116 48.3369 1.37816C48.3299 1.73116 48.3439 2.08616 48.3269 2.43916C47.6439 2.43916 46.9609 2.43516 46.2769 2.43916C46.2669 2.47916 46.2869 2.51416 46.3319 2.50316C47.0689 2.49816 47.8039 2.50716 48.5419 2.49616C49.6379 2.49616 50.7319 2.49816 51.8279 2.49616L51.8449 2.48916C51.8939 2.50016 51.9429 2.49616 51.9949 2.49616C53.9809 2.49616 55.9679 2.49816 57.9559 2.49616C58.5809 2.49816 59.2079 2.49616 59.8339 2.49616C60.8669 2.49616 61.9029 2.50516 62.9359 2.50016C62.9659 2.49316 62.9759 2.47316 62.9639 2.43716ZM50.7529 1.08716C50.7999 0.960156 50.9269 0.874156 51.0609 0.845156C51.3189 0.785156 51.6079 1.00716 51.5869 1.26816C51.5889 1.52316 51.3089 1.73116 51.0529 1.67216C50.9484 1.64365 50.8556 1.58273 50.7879 1.49816C50.7464 1.43881 50.7213 1.36954 50.7151 1.29736C50.709 1.22519 50.722 1.15267 50.7529 1.08716ZM57.7589 0.987156C57.8136 0.927277 57.883 0.88282 57.9602 0.858246C58.0374 0.833673 58.1198 0.829848 58.1989 0.847156C58.3179 0.881156 58.4349 0.955156 58.4869 1.06916C58.5357 1.16715 58.5443 1.28031 58.5108 1.38453C58.4774 1.48875 58.4046 1.57581 58.3079 1.62716C58.2201 1.6713 58.1206 1.68655 58.0237 1.67075C57.9267 1.65494 57.8372 1.60888 57.7679 1.53916C57.6998 1.46386 57.6613 1.36638 57.6597 1.26485C57.658 1.16331 57.6933 1.06463 57.7589 0.987156Z" fill="url(#paint1_radial_6459_2283)" stroke="#FCD109" stroke-width="0.094"/>
<path d="M58.3577 3.4308C58.3897 3.4378 58.1867 3.2418 58.2257 3.2328C58.2637 3.2378 58.4057 3.1308 58.5787 3.2178C58.7507 3.3048 58.7077 3.5078 58.6887 3.5838C58.6647 3.6738 58.6057 3.7308 58.5587 3.7758C58.5327 3.7958 58.4747 3.8278 58.4397 3.8258C58.4607 3.7148 58.3927 3.6958 58.3877 3.5838L58.3577 3.4308Z" fill="url(#paint2_linear_6459_2283)" stroke="#FCD109" stroke-width="0.094"/>
<path d="M50.852 3.55255C50.847 3.66555 50.779 3.68255 50.8 3.79455C50.765 3.79655 50.707 3.76455 50.681 3.74455C50.62 3.69447 50.5748 3.62778 50.551 3.55255C50.532 3.47655 50.49 3.27255 50.661 3.18655C50.834 3.09955 50.976 3.20655 51.014 3.20155C51.054 3.21055 50.85 3.40655 50.883 3.39955L50.852 3.55255Z" fill="url(#paint3_linear_6459_2283)" stroke="#FCD109" stroke-width="0.094"/>
<path d="M58.05 4.88056C58.086 4.85156 58.109 4.85156 58.156 4.85156C57.874 5.43956 57.546 6.02756 57.051 6.48556C56.9981 6.53105 56.9423 6.57314 56.884 6.61156L56.717 6.72756C56.663 6.76321 56.6097 6.79988 56.557 6.83756C56.423 6.90756 56.306 7.00556 56.157 7.04756C55.8837 7.16945 55.5971 7.25906 55.303 7.31456C55.188 7.33356 55.071 7.36056 54.953 7.36256C54.808 7.40256 54.653 7.37356 54.505 7.38256C54.423 7.39656 54.35 7.35156 54.27 7.36056C54.1306 7.34089 53.9924 7.31351 53.856 7.27856C52.779 6.95556 51.723 6.16356 51.415 5.09356C51.4011 5.02106 51.3941 4.94739 51.394 4.87356C51.427 4.93756 51.461 5.00056 51.496 5.06356C51.934 5.98356 52.803 6.70656 53.829 6.92456C53.912 6.96156 54.002 6.94856 54.082 6.98056C54.155 6.98056 54.226 6.97756 54.296 7.00056C54.538 7.00556 54.78 7.00256 55.022 7.00256C55.054 7.00556 55.085 6.98956 55.118 6.98256C55.521 6.96956 55.916 6.86256 56.283 6.70256C56.357 6.67056 56.429 6.63656 56.501 6.60056C56.6244 6.53807 56.7421 6.46514 56.853 6.38256C57.296 6.04725 57.6597 5.61841 57.918 5.12656L58.05 4.88156V4.88056Z" fill="#BDA727" stroke="#BDA727" stroke-width="0.094"/>
<path d="M57.6671 6.89056C58.3651 6.49756 59.1721 6.30756 59.9751 6.27056C60.2361 6.24856 60.4991 6.25556 60.7571 6.28756C60.9271 6.32556 61.1001 6.37056 61.2341 6.48156C61.1661 6.48656 61.1001 6.45656 61.0321 6.44756C60.8391 6.41156 60.6401 6.42556 60.4451 6.42056C59.8791 6.42056 59.3091 6.46356 58.7611 6.61256C58.4722 6.69005 58.1929 6.79939 57.9281 6.93856C57.4781 7.17856 57.0711 7.49456 56.7421 7.87456C56.1551 8.52456 55.8101 9.34756 55.6441 10.1866C55.5641 10.6366 55.4721 11.0846 55.3991 11.5366C55.2821 11.5476 55.1621 11.5416 55.0451 11.5416C54.5281 11.5396 54.0121 11.5366 53.4951 11.5316C53.3851 11.5366 53.2771 11.5116 53.1671 11.5186C52.2271 11.5236 51.2881 11.5166 50.3491 11.5166L50.3681 11.5096C51.0651 11.4396 51.7651 11.3596 52.4621 11.2946C53.3471 11.2906 54.2301 11.2926 55.1151 11.2946C55.1431 11.2906 55.1931 11.3046 55.1971 11.2646C55.2701 10.8986 55.3411 10.5326 55.4131 10.1656C55.5141 9.65756 55.6741 9.15556 55.9211 8.69156C56.3171 7.93558 56.9236 7.31041 57.6671 6.89156V6.89056Z" fill="#0D69B3" stroke="#0D69B3" stroke-width="0.094"/>
<path d="M58.7619 6.60997C59.3089 6.46097 59.8789 6.41797 60.4449 6.41797C60.6399 6.42297 60.8399 6.40897 61.0319 6.44497C61.0999 6.45497 61.1659 6.48397 61.2339 6.47897C61.3439 6.56497 61.4099 6.69197 61.4589 6.81897C61.5669 7.11897 61.6289 7.43097 61.6799 7.74597C61.6819 7.87197 61.7059 8.01497 61.6349 8.12997C61.5699 8.24297 61.4379 8.29797 61.3139 8.33197C60.8609 8.44497 60.3859 8.33797 59.9339 8.44497C59.5599 8.52097 59.2129 8.72097 58.9749 9.00797C58.6949 9.34297 58.5479 9.75797 58.4649 10.175C58.4019 10.545 58.3229 10.917 58.2589 11.29C58.2309 11.374 58.2149 11.464 58.1989 11.552C58.6419 11.559 59.0859 11.552 59.5289 11.557C59.6989 11.552 59.8669 11.561 60.0359 11.55C60.1299 11.758 60.1089 11.993 60.0789 12.213C60.0409 12.459 59.9799 12.703 59.8649 12.93C59.7689 13.122 59.6089 13.298 59.3909 13.366C59.2779 13.409 59.1559 13.4 59.0359 13.4C58.6419 13.4 58.2469 13.405 57.8529 13.4C57.7899 13.678 57.7469 13.963 57.6909 14.246C57.5879 14.796 57.4869 15.348 57.3829 15.899C57.3803 15.9246 57.379 15.9503 57.3789 15.976V15.979C56.3529 15.979 55.3289 15.981 54.3029 15.979L54.3099 15.945L54.3169 15.895L54.3239 15.963C54.3879 15.97 54.5029 16.001 54.5189 15.913C54.6789 15.081 54.8269 14.243 54.9909 13.411C54.9267 13.3979 54.8605 13.3972 54.7959 13.409C54.7859 13.441 54.7769 13.473 54.7659 13.504L54.7799 13.403C54.1409 13.4 53.4999 13.403 52.8619 13.4C52.7059 13.396 52.5469 13.4 52.3919 13.382C52.1269 13.371 51.8589 13.38 51.5939 13.355C51.2649 13.355 50.9389 13.325 50.6099 13.325C50.3519 13.301 50.0909 13.31 49.8299 13.298C49.6609 13.278 49.4879 13.288 49.3159 13.28C49.0359 13.25 48.7529 13.271 48.4729 13.242C48.1779 13.244 47.8819 13.219 47.5859 13.212C47.5886 13.2081 47.5903 13.2036 47.5909 13.199C47.6889 13.201 47.7849 13.194 47.8839 13.192C48.1019 13.165 48.3239 13.183 48.5409 13.154C48.7689 13.154 48.9949 13.124 49.2219 13.124C49.4239 13.097 49.6289 13.113 49.8299 13.086C50.0679 13.086 50.2999 13.056 50.5369 13.054C50.7319 13.029 50.9289 13.043 51.1239 13.018C51.3519 13.02 51.5769 12.986 51.8049 12.988C52.0279 12.964 52.2549 12.97 52.4789 12.948C52.4579 12.864 52.4409 12.78 52.4229 12.697C52.4059 12.645 52.3399 12.656 52.2979 12.649C51.7879 12.579 51.2809 12.509 50.7739 12.441C50.8069 12.416 50.8519 12.427 50.8889 12.423C51.2839 12.393 51.6759 12.36 52.0699 12.333C52.1599 12.328 52.2459 12.313 52.3359 12.31C52.2959 12.192 52.2719 12.063 52.2179 11.955C51.3749 11.83 50.5319 11.72 49.6919 11.586C49.9099 11.552 50.1309 11.536 50.3489 11.514C51.2889 11.514 52.2279 11.521 53.1669 11.516C53.2769 11.509 53.3849 11.534 53.4949 11.53L55.0449 11.539C55.1619 11.539 55.2819 11.546 55.3999 11.534C55.4719 11.082 55.5639 10.634 55.6439 10.184C55.8099 9.34397 56.1559 8.52097 56.7429 7.87197C57.0709 7.49197 57.4769 7.17597 57.9279 6.93597C58.1879 6.79097 58.4749 6.69397 58.7619 6.60997Z" fill="#107BD4" stroke="#107BD4" stroke-width="0.094"/>
<path d="M58.2599 11.293C58.7049 11.295 59.1539 11.291 59.6019 11.295C59.7809 11.295 59.9639 11.39 60.0359 11.553C59.8669 11.564 59.6979 11.555 59.5289 11.56C59.0859 11.555 58.6419 11.562 58.1989 11.555C58.2149 11.467 58.2309 11.377 58.2589 11.293H58.2599ZM54.7959 13.413C54.8604 13.4012 54.9266 13.4018 54.9909 13.415C54.8269 14.247 54.6789 15.084 54.5189 15.916C54.5029 16.004 54.3879 15.973 54.3239 15.966L54.3169 15.898C54.4649 15.102 54.6079 14.303 54.7659 13.508C54.7769 13.4763 54.7869 13.4443 54.7959 13.412V13.413Z" fill="#0D69B3" stroke="#0D69B3" stroke-width="0.094"/>
<path d="M58.4648 3.49179C58.4481 3.45657 58.4405 3.41771 58.4428 3.37879L58.4248 3.38079C58.3958 3.28179 58.3098 3.18679 58.1968 3.18179C58.1118 3.17579 58.0068 3.17779 57.9568 3.25479C57.8638 3.37679 57.9078 3.53279 57.9028 3.67079L57.9058 3.70479C57.9058 3.79779 57.8938 3.88779 57.8768 3.97879C57.8632 4.00609 57.8563 4.03628 57.8568 4.06679C57.8168 4.27879 57.7368 4.48979 57.6288 4.68179C57.6075 4.70743 57.5921 4.73749 57.5838 4.76979C57.5108 4.88678 57.4299 4.99871 57.3418 5.10479C57.3283 5.11631 57.3159 5.12903 57.3048 5.14279C57.2438 5.21579 57.1778 5.27679 57.1098 5.33979C57.0928 5.34979 57.0818 5.35979 57.0678 5.36979C56.9867 5.44599 56.8975 5.51306 56.8018 5.56979L56.7648 5.59579C56.1638 5.97779 55.4328 6.13579 54.7218 6.14279C54.1168 6.16032 53.5159 6.03815 52.9658 5.78579L52.9228 5.76779C52.8318 5.71979 52.7378 5.67879 52.6528 5.62079L52.5948 5.59079C52.508 5.54207 52.4254 5.48621 52.3478 5.42379C52.3218 5.40079 52.2938 5.38379 52.2658 5.36279C52.1787 5.29799 52.097 5.22608 52.0218 5.14779L51.9658 5.09079C51.7081 4.83814 51.5153 4.52698 51.4038 4.18379C51.3038 3.91479 51.3178 3.62079 51.3058 3.33879C51.2208 3.21379 51.0428 3.14379 50.9018 3.22079C50.8428 3.26079 50.8358 3.33579 50.7918 3.38779C50.7188 4.13479 51.0498 4.87779 51.5778 5.41779C51.5778 5.43479 51.5878 5.44679 51.6038 5.45279C51.6978 5.53679 51.7898 5.62279 51.8838 5.70379C51.9009 5.72092 51.9197 5.73633 51.9398 5.74979C52.0338 5.82379 52.1348 5.89179 52.2328 5.96179C52.2516 5.97512 52.2713 5.98715 52.2918 5.99779C52.4218 6.07079 52.5428 6.15679 52.6818 6.20579C52.6918 6.21279 52.7078 6.22479 52.7168 6.22879C53.1628 6.43479 53.6438 6.57479 54.1368 6.61979C54.1908 6.61979 54.2448 6.62479 54.2988 6.63579C54.5338 6.64979 54.7688 6.64279 55.0038 6.63779C55.7288 6.57779 56.4778 6.40779 57.0838 5.99579L57.0908 6.00579C57.1082 5.99041 57.1262 5.97573 57.1448 5.96179C57.2646 5.87633 57.3814 5.78661 57.4948 5.69279C57.5978 5.58479 57.7178 5.48479 57.8048 5.36079L57.8188 5.36679L57.8448 5.32179C57.9248 5.21779 57.9968 5.10979 58.0678 5.00079C58.0728 4.99379 58.0838 4.98279 58.0878 4.97579L58.0798 4.96679L58.1098 4.93079C58.2398 4.67779 58.3538 4.41279 58.3938 4.13179C58.4108 4.12579 58.4198 4.11179 58.4198 4.09579C58.4218 4.00579 58.4548 3.91979 58.4458 3.82879C58.4658 3.71879 58.4688 3.60479 58.4648 3.49179Z" fill="white" stroke="white" stroke-width="0.094"/>
<path d="M11.3949 4.45858C11.7349 4.40858 12.1269 4.37858 12.4149 4.58258C12.5949 4.71258 12.6599 4.94758 12.6469 5.15758C12.6599 5.50358 12.4929 5.87458 12.1719 6.05458C11.8889 6.20258 11.5489 6.21458 11.2349 6.18458C11.0229 6.15958 10.8109 6.04758 10.7019 5.86258C10.4579 5.32458 10.7599 4.56358 11.3949 4.45858ZM1.21491 4.84858C1.22679 4.75328 1.27289 4.66555 1.34464 4.60172C1.41638 4.53789 1.50888 4.5023 1.60491 4.50158C3.08891 4.50158 4.56491 4.50858 6.04191 4.50158C6.20191 4.48958 6.37491 4.55758 6.45191 4.69358C6.56191 4.87958 6.46491 5.08358 6.45191 5.27458C6.40691 5.53458 6.41991 5.88058 6.10591 5.97958C5.02691 6.01058 3.94891 5.97958 2.86991 5.99258C2.76791 6.64758 2.67091 7.29758 2.56891 7.94658C2.56891 7.97158 2.57491 8.02658 2.57491 8.05158C3.36491 8.04558 4.15491 8.05158 4.94391 8.04558C5.16191 8.03258 5.39391 8.21258 5.37391 8.43558C5.35391 8.66358 5.30391 8.88558 5.27091 9.11558C5.25611 9.19572 5.21776 9.26962 5.16076 9.32787C5.10377 9.38611 5.03071 9.42605 4.95091 9.44258C4.07091 9.46158 3.17791 9.42458 2.29891 9.46158C2.15791 10.3956 1.99091 11.3286 1.84291 12.2626C1.83382 12.3553 1.79198 12.4418 1.72491 12.5065C1.65784 12.5712 1.56992 12.6098 1.47691 12.6156C1.11091 12.6216 0.74491 12.6216 0.37991 12.6156C0.14191 12.6216 -0.0500898 12.3676 0.0139102 12.1516C0.40491 9.71558 0.80991 7.28458 1.21391 4.84858H1.21491ZM7.73591 4.51458C8.06991 4.48958 8.40991 4.50858 8.74391 4.50158C8.94891 4.48958 9.15391 4.64458 9.17391 4.84858C9.17391 5.00858 9.12891 5.16958 9.10991 5.33058C8.83991 6.98758 8.56391 8.64558 8.29491 10.3026C8.25591 10.5686 8.18491 10.8526 8.26891 11.1256C8.36491 11.3976 8.79491 11.2796 8.89891 11.5646C8.96191 11.7926 8.89191 12.0346 8.87191 12.2696C8.85291 12.5786 8.48691 12.6466 8.23691 12.7146C7.69091 12.8136 7.02991 12.7396 6.63791 12.3066C6.35591 11.9906 6.33691 11.5456 6.39491 11.1496C6.73491 9.04758 7.07491 6.94458 7.42191 4.83558C7.43336 4.75566 7.46997 4.68146 7.52642 4.62374C7.58288 4.56602 7.65626 4.52779 7.73591 4.51458ZM20.4779 4.84858C20.4905 4.75429 20.5362 4.66757 20.607 4.60397C20.6777 4.54038 20.7688 4.50407 20.8639 4.50158H21.8389C22.0829 4.49558 22.2819 4.74958 22.2249 4.97158C21.9999 6.34458 21.7689 7.71758 21.5449 9.09058C21.8849 9.04058 22.2699 8.97958 22.5069 8.71358C22.9049 8.28058 23.2329 7.77958 23.4769 7.25358C23.5599 7.04958 23.6049 6.75358 23.8809 6.71558C24.2469 6.70358 24.6189 6.70958 24.9849 6.71558C25.2349 6.70958 25.4209 6.98158 25.3379 7.20458C25.2419 7.53258 25.0809 7.83458 24.9139 8.12558C24.5419 8.70758 24.1309 9.28258 23.5919 9.73958C23.8299 10.4266 24.1319 11.0946 24.3939 11.7686C24.4709 11.9906 24.6579 12.2506 24.4839 12.4666C24.2849 12.7266 23.9129 12.5966 23.6369 12.6276C23.3479 12.5976 22.9309 12.7386 22.7699 12.4236C22.4679 11.7496 22.2179 11.0566 21.9099 10.3836C21.728 10.3936 21.5455 10.3912 21.3639 10.3766L21.3139 10.4766C21.2169 11.0946 21.1139 11.7126 21.0109 12.3306C20.9935 12.4071 20.9526 12.4762 20.894 12.5284C20.8354 12.5806 20.7619 12.6131 20.6839 12.6216C20.3439 12.6336 19.9969 12.6276 19.6499 12.6276C19.5782 12.6258 19.5083 12.6049 19.4474 12.5669C19.3865 12.5289 19.337 12.4752 19.3039 12.4116C19.2399 12.2876 19.2779 12.1456 19.2969 12.0096C19.6949 9.62258 20.0869 7.23558 20.4779 4.84858ZM38.3179 5.52258C38.343 5.43752 38.3958 5.36329 38.4679 5.31166C38.54 5.26002 38.6273 5.23395 38.7159 5.23758C38.9729 5.24458 39.2359 5.23158 39.4989 5.24458C39.7109 5.25058 39.8779 5.45458 39.8519 5.65258C39.8139 6.00458 39.7239 6.35758 39.6979 6.70958C39.9479 6.70958 40.2049 6.70358 40.4549 6.70958C40.6799 6.70958 40.8659 6.93258 40.8279 7.14258C40.7959 7.33458 40.7509 7.51958 40.7179 7.71158C40.7001 7.79128 40.6589 7.86384 40.5995 7.91996C40.5402 7.97608 40.4655 8.01321 40.3849 8.02658C40.0769 8.04558 39.7749 8.01458 39.4729 8.04558C39.3449 8.87358 39.2029 9.70258 39.0689 10.5316C39.0489 10.7226 39.0369 10.9396 39.1519 11.1066C39.3259 11.3106 39.6269 11.2366 39.8719 11.2616C40.0639 11.3166 40.1859 11.5216 40.1539 11.7066C40.1219 11.9166 40.1149 12.1266 40.0639 12.3306C39.9869 12.5606 39.7109 12.6026 39.4989 12.6586C38.9149 12.8076 38.2409 12.8076 37.7209 12.4786C37.2389 12.1636 37.1619 11.5516 37.2139 11.0326C37.3489 10.0306 37.5599 9.03458 37.6759 8.02658C37.4959 8.03258 37.2779 8.05758 37.1429 7.90358C36.9889 7.74858 37.0659 7.51958 37.0919 7.32758C37.1299 7.12358 37.1239 6.85758 37.3549 6.74758C37.5409 6.67858 37.7529 6.72758 37.9519 6.70358C38.0739 6.30758 38.1889 5.91158 38.3179 5.52258ZM34.6899 7.52558C35.0939 7.13558 35.5819 6.81558 36.1399 6.65458C36.3849 6.54858 36.6999 6.74658 36.6929 7.00658C36.6479 7.34658 36.5639 7.68058 36.5069 8.01458C36.4917 8.09916 36.4498 8.17665 36.3874 8.23568C36.3249 8.29471 36.2452 8.33218 36.1599 8.34258C35.5299 8.44758 34.9849 8.81258 34.5489 9.24558C34.4389 9.37558 34.2789 9.49858 34.2589 9.67758C34.1234 10.5441 33.9847 11.4101 33.8429 12.2756C33.8229 12.4606 33.6559 12.6406 33.4569 12.6276H32.4819C32.4275 12.6284 32.3736 12.6179 32.3234 12.5968C32.2733 12.5757 32.2281 12.5444 32.1907 12.5049C32.1533 12.4655 32.1245 12.4187 32.1061 12.3675C32.0877 12.3163 32.0802 12.2618 32.0839 12.2076C32.3659 10.4946 32.6489 8.78758 32.9239 7.07458C32.9369 6.90158 33.0659 6.73458 33.2519 6.71558C33.4889 6.70358 33.7269 6.70958 33.9709 6.70958C34.1629 6.70958 34.3429 6.87658 34.3429 7.06858C34.3429 7.33458 34.3179 7.60658 34.3109 7.87858C34.4649 7.78558 34.5609 7.63758 34.6899 7.52558ZM10.6939 6.74058C11.0409 6.67258 11.4009 6.72858 11.7469 6.71058C11.9469 6.68458 12.1579 6.80858 12.1899 7.00058C12.2159 7.17358 12.1639 7.34058 12.1449 7.50758C11.8819 9.09758 11.6189 10.6856 11.3619 12.2756C11.3419 12.4556 11.1889 12.6336 10.9899 12.6276C10.6429 12.6276 10.2959 12.6336 9.94291 12.6216C9.72491 12.5966 9.56491 12.3556 9.62291 12.1516C9.89891 10.5006 10.1619 8.85558 10.4379 7.20458C10.4509 7.02458 10.5019 6.81458 10.6939 6.74058ZM31.4669 6.82058C30.5109 6.64758 29.5349 6.52458 28.5659 6.61658C27.6989 6.72258 26.8259 7.09958 26.2929 7.78658C25.5549 8.68858 25.3049 9.90058 25.4719 11.0266C25.5619 11.5646 25.8059 12.1086 26.2619 12.4426C26.6849 12.7576 27.2559 12.8006 27.7699 12.7206C28.4889 12.5846 29.0989 12.1396 29.5999 11.6446C29.6249 11.8546 29.5739 12.0646 29.5859 12.2696C29.5989 12.4606 29.7789 12.6396 29.9779 12.6276H30.6329C30.8249 12.6276 30.9859 12.4546 30.9989 12.2756C31.2749 10.5996 31.5509 8.92958 31.8209 7.26058C31.8589 7.05058 31.6859 6.84558 31.4669 6.82058ZM29.6639 9.73358C29.3959 10.2024 29.0507 10.6226 28.6429 10.9766C28.4119 11.1626 28.1169 11.3536 27.8019 11.2926C27.4939 11.2306 27.3459 10.9216 27.2759 10.6556C27.1986 10.3057 27.1934 9.94376 27.2606 9.59182C27.3278 9.23987 27.4661 8.90532 27.6669 8.60858C27.8469 8.32958 28.1359 8.11958 28.4699 8.03358C28.9379 7.92158 29.4319 7.97758 29.8879 8.10158L29.9139 8.12558C29.8559 8.66358 29.7469 9.19558 29.6639 9.73358ZM18.8669 8.80758C18.8609 8.18858 18.6869 7.53958 18.2379 7.07558C17.9299 6.74758 17.4679 6.58058 17.0179 6.58658C16.2739 6.56258 15.5739 6.91458 15.0279 7.38458C14.9069 7.47758 14.8229 7.61358 14.6879 7.68758C14.6879 7.48358 14.7079 7.27958 14.7009 7.06958C14.7079 6.87758 14.5209 6.71058 14.3289 6.71058H13.6739C13.5759 6.713 13.4824 6.75166 13.4113 6.81908C13.3401 6.8865 13.2966 6.97789 13.2889 7.07558C12.8839 9.54958 12.4739 12.0226 12.0689 14.4956C12.0109 14.7256 12.2169 14.9606 12.4609 14.9536C12.8209 14.9476 13.1859 14.9786 13.5389 14.9296C13.8219 14.8546 13.8149 14.5396 13.8599 14.3106C13.9585 13.7676 14.0379 13.2212 14.0979 12.6726C15.3619 12.9076 16.8319 12.7466 17.7759 11.8246C18.5459 11.0146 18.9059 9.89458 18.8669 8.80758ZM17.0699 9.43158C17.0309 10.0006 16.8199 10.5756 16.4089 10.9896C15.8759 11.4786 15.0669 11.4106 14.4119 11.2436C14.3968 11.2202 14.3841 11.1955 14.3739 11.1696C14.4759 10.6316 14.5279 10.0876 14.6559 9.55558C15.0159 8.98558 15.4519 8.41158 16.0749 8.09558C16.3059 7.99058 16.6209 8.01558 16.7879 8.21958C17.0699 8.55958 17.0959 9.01758 17.0699 9.43158Z" fill="#107BD4" stroke="#107BD4" stroke-width="0.101"/>
</g>
<defs>
<linearGradient id="paint0_linear_6459_2283" x1="54.6229" y1="2.70312" x2="54.6229" y2="15.9971" gradientUnits="userSpaceOnUse">
<stop stop-color="#F7E830"/>
<stop offset="1" stop-color="#FDCB06"/>
</linearGradient>
<radialGradient id="paint1_radial_6459_2283" cx="0" cy="0" r="1" gradientUnits="userSpaceOnUse" gradientTransform="translate(54.5509 8.76716) scale(11.2247 10.8133)">
<stop offset="0.596" stop-color="#F29405"/>
<stop offset="0.736" stop-color="#F7D01E"/>
<stop offset="1" stop-color="#FDCB06"/>
</radialGradient>
<linearGradient id="paint2_linear_6459_2283" x1="58.4637" y1="3.1838" x2="58.4667" y2="3.8128" gradientUnits="userSpaceOnUse">
<stop stop-color="#FADA1C"/>
<stop offset="1" stop-color="#FDCB06"/>
</linearGradient>
<linearGradient id="paint3_linear_6459_2283" x1="50.777" y1="3.15255" x2="50.773" y2="3.78155" gradientUnits="userSpaceOnUse">
<stop stop-color="#FADA1C"/>
<stop offset="1" stop-color="#FDCB06"/>
</linearGradient>
<clipPath id="clip0_6459_2283">
<rect width="63" height="16" fill="white"/>
</clipPath>
</defs>
</svg>
