<svg width="60" height="19" viewBox="0 0 60 19" fill="none" xmlns="http://www.w3.org/2000/svg">
<g clip-path="url(#clip0_6459_2314)">
<path d="M19.1081 13.408H15.9111V11.6141H21.1668C21.4722 15.2147 19.4156 17.8415 16.3424 18.3925C12.3788 19.1015 9.22447 16.1544 8.75464 12.8976C8.25491 9.44217 10.4012 6.17256 13.7819 5.40801C16.1374 4.87624 18.2474 5.40801 19.9858 7.15707C20.163 7.33646 20.3382 7.51799 20.5111 7.70165C20.5432 7.73368 20.5645 7.7764 20.5154 7.75077C20.1075 8.2206 19.6996 8.69044 19.2853 9.16668C19.0184 8.87623 18.8112 8.6221 18.5784 8.39786C17.1198 6.99263 15.4049 6.66161 13.564 7.41761C11.7488 8.16294 10.7728 9.60448 10.6489 11.5799C10.4717 14.4032 12.4428 15.9963 14.068 16.4982C16.3681 17.2115 18.3948 15.7379 18.9265 14.1277C18.9991 13.9099 19.0397 13.6813 19.1059 13.4059L19.1081 13.408Z" fill="black"/>
<path d="M55.5547 12.8575C56.8382 14.6237 58.1324 16.4048 59.45 18.2179C59.3561 18.2328 59.3005 18.2499 59.2429 18.2499C58.5979 18.2521 57.953 18.2435 57.308 18.2585C57.1094 18.2627 57.0283 18.1517 56.9364 18.0193C55.8259 16.4261 54.7111 14.833 53.6006 13.2398C53.5793 13.2099 53.5643 13.1629 53.5344 13.1501C53.4255 13.101 53.3123 13.0625 53.2013 13.0198C53.1714 13.1074 53.1158 13.1971 53.1137 13.2846C53.1094 14.7988 53.1094 16.3129 53.1094 17.8271C53.1094 17.9552 53.1094 18.0855 53.1094 18.2328H51.1831V5.52171C51.2002 5.5089 51.213 5.48754 51.228 5.48754C52.6076 5.50676 53.9957 5.36581 55.3646 5.64558C56.8019 5.93816 57.8142 6.7262 58.2114 8.17627C58.6577 9.81428 58.0384 11.5057 56.6972 12.3279C56.3513 12.5393 55.9583 12.6739 55.5547 12.8575ZM53.1286 11.3135C53.9124 11.3455 54.677 11.3626 55.3945 11.0316C56.048 10.7305 56.3854 10.203 56.441 9.49394C56.4986 8.76143 56.3385 8.1058 55.6593 7.70217C54.8756 7.23447 54.0021 7.28572 53.1265 7.28999V11.3135H53.1286Z" fill="black"/>
<path d="M33.3657 5.48828H39.717V7.27578H35.3091V10.3532H39.5761V12.1514H35.3027V18.2293H33.3657V5.48828Z" fill="black"/>
<path d="M21.6986 5.50604C22.4012 5.50604 23.0355 5.4975 23.6676 5.51458C23.7488 5.51672 23.8513 5.63204 23.9004 5.71747C24.6991 7.0992 25.4914 8.48521 26.288 9.87122C26.4204 10.104 26.5635 10.3304 26.7301 10.6101C26.8198 10.4735 26.8839 10.3859 26.9372 10.2941C27.8086 8.77992 28.6756 7.26578 29.5534 5.75591C29.6132 5.6534 29.7392 5.5274 29.8374 5.52313C30.461 5.50177 31.0846 5.51245 31.7616 5.51245C31.7125 5.63418 31.689 5.7196 31.6463 5.79221C30.3585 8.02606 29.0686 10.2556 27.7872 12.4937C27.6997 12.6475 27.6591 12.8483 27.6569 13.0255C27.6463 14.6422 27.6441 16.261 27.6527 17.8797C27.6527 18.1381 27.5822 18.2257 27.3217 18.2129C26.9308 18.1937 26.5358 18.1958 26.1449 18.2129C25.8929 18.2236 25.8032 18.1467 25.8032 17.884C25.8139 16.2951 25.8161 14.7041 25.8011 13.1152C25.799 12.8867 25.7328 12.6326 25.6217 12.4339C24.3788 10.2407 23.1188 8.05595 21.8652 5.86696C21.8118 5.77299 21.7712 5.66835 21.6943 5.51031L21.6986 5.50604Z" fill="#F68A1F"/>
<path d="M46.5401 18.2435H44.6052V7.29214H41.6709V5.49609H49.4509V7.28146H46.5401V18.2435Z" fill="black"/>
<path d="M8.60531 6.27703L8.4665 6.94334H1.27164V9.93319H7.45849L7.47771 10.0015C7.2492 10.2023 7.0271 10.4116 6.78791 10.5995C6.72598 10.6486 6.61065 10.6401 6.52096 10.6401C5.36132 10.6422 4.20169 10.6401 3.04206 10.6401H2.71531V17.5552H9.11999L9.24172 18.2471H1.9892V10.6443H0.56689C0.560483 10.5354 0.549805 10.4479 0.549805 10.3582C0.549805 9.08535 0.556212 7.81467 0.554076 6.54185C0.554076 6.34324 0.60533 6.25781 0.821027 6.25781C3.35599 6.26422 5.88882 6.25995 8.42378 6.25995C8.46863 6.25995 8.51561 6.26636 8.60531 6.2749V6.27703Z" fill="black"/>
<path d="M8.72042 5.16643C10.0957 4.74145 11.2981 3.97263 12.541 3.15683C12.4513 3.35971 12.3894 3.51347 12.3189 3.66083C12.2314 3.84663 12.3061 3.92351 12.4919 3.92565C12.6307 3.92565 12.7717 3.92565 12.9297 3.92565C12.9041 3.96409 12.8934 3.99398 12.8742 4.00253C11.691 4.58341 10.4908 5.11945 9.2052 5.44193C8.31252 5.66616 7.43479 5.61064 6.55278 5.36504C5.36966 5.03616 4.26555 4.52362 3.16357 3.99612L3.16785 3.91924C3.26822 3.91924 3.36859 3.91924 3.46897 3.91924C3.81921 3.91924 3.84056 3.88293 3.69534 3.57541C3.64836 3.47717 3.61632 3.37466 3.60351 3.24866C4.80799 4.00893 6.00393 4.7628 7.36858 5.1707L7.42197 5.08742C7.33441 5.01267 7.25112 4.93365 7.16143 4.86318C6.33495 4.21609 5.53196 3.54337 5.01087 2.61011C4.89555 2.40296 4.81653 2.15736 4.79518 1.92458C4.75246 1.45261 5.01301 1.128 5.4145 0.918713C5.8523 0.690203 6.29864 0.602644 6.73004 0.929391C7.20841 1.29244 7.43479 1.81994 7.60563 2.36452C7.74018 2.7895 7.81279 3.23585 7.91316 3.67151C7.93665 3.77615 7.96442 3.8808 7.99004 3.98544L8.06052 3.99185C8.08828 3.87439 8.11177 3.7548 8.14594 3.63947C8.32747 3.01374 8.50259 2.38801 8.69906 1.76655C8.74818 1.61065 8.85283 1.4697 8.94679 1.33089C9.61737 0.331422 10.6446 0.722237 11.1102 1.32661C11.3195 1.59997 11.3195 1.91818 11.2127 2.23425C10.9778 2.93045 10.4951 3.45368 9.98043 3.94487C9.63659 4.27375 9.26073 4.56633 8.8934 4.86958C8.81012 4.93792 8.70547 4.9785 8.6115 5.03402L8.72256 5.1707L8.72042 5.16643ZM7.77648 5.00199C7.77648 4.81619 7.79784 4.71582 7.77221 4.62612C7.63767 4.11144 7.53943 3.58181 7.33655 3.0949C7.14648 2.63788 6.87312 2.20435 6.58268 1.80072C6.39902 1.54658 6.04237 1.53377 5.82027 1.67685C5.62166 1.80713 5.52342 2.0933 5.64728 2.3816C5.79678 2.72971 5.96976 3.07781 6.18759 3.38534C6.60831 3.98117 7.11658 4.50012 7.77435 5.00199H7.77648ZM8.2933 4.93579C8.38086 4.89948 8.43852 4.89094 8.47696 4.85891C9.18812 4.24385 9.84161 3.57968 10.2837 2.74038C10.3691 2.57808 10.4118 2.39015 10.446 2.20862C10.4887 1.97797 10.4097 1.77509 10.1983 1.65977C9.97189 1.5359 9.73697 1.56153 9.5469 1.73238C9.40168 1.86265 9.265 2.01001 9.16249 2.17231C8.69693 2.91123 8.46842 3.73985 8.29757 4.58341C8.27621 4.68592 8.29543 4.79484 8.29543 4.93365L8.2933 4.93579Z" fill="#F68B1F"/>
<path d="M8.68204 6.92969L1.27148 6.94464V9.93448H7.66335L8.68204 6.92969Z" fill="#B0D236" stroke="white" stroke-width="0.720548"/>
<path d="M6.98014 10.6016L2.71533 10.6379V17.5551H9.37201L6.98014 10.6016Z" fill="#B0D236" stroke="white" stroke-width="0.720548" stroke-miterlimit="10"/>
</g>
<defs>
<clipPath id="clip0_6459_2314">
<rect width="58.9" height="17.7832" fill="white" transform="translate(0.549805 0.714844)"/>
</clipPath>
</defs>
</svg>
