<svg width="82" height="17" viewBox="0 0 82 17" fill="none" xmlns="http://www.w3.org/2000/svg">
<path d="M47.5076 5.20066C46.8281 5.20066 46.2216 5.17916 45.6173 5.20819C45.2421 5.22647 45.0948 5.06303 45.0711 4.72217C45.0679 4.66841 45.0647 4.61465 45.0614 4.56089C44.9636 2.91037 44.9862 2.88672 46.6023 2.88672H81.7179V5.18883H49.9033V13.5435C49.1764 13.5435 48.4936 13.5532 47.8109 13.5403C47.4119 13.5328 47.5109 13.2113 47.5109 12.9812C47.5066 10.6167 47.5076 8.25115 47.5076 5.88667C47.5076 5.677 47.5076 5.4684 47.5076 5.20174V5.20066Z" fill="#373435"/>
<path d="M10.518 12.8634H9.00079C9.00079 12.6484 9.00079 12.4441 9.00079 12.2398C9.00079 10.2151 9.00509 8.19038 8.99649 6.16568C8.99541 5.8087 9.00079 5.43451 8.89756 5.10118C8.83305 4.89366 8.57929 4.62485 8.39327 4.61087C8.21263 4.59689 7.93199 4.8356 7.83737 5.03237C7.72124 5.27538 7.72661 5.58827 7.72554 5.87106C7.71801 7.98501 7.72124 10.1 7.72124 12.214C7.72124 12.4086 7.72124 12.6032 7.72124 12.8376H6.21373C6.20298 12.6269 6.18363 12.4204 6.18363 12.2129C6.18148 10.2065 6.18578 8.19899 6.17933 6.19257C6.17825 5.8173 6.18685 5.42914 6.09223 5.07215C6.04169 4.87861 5.78471 4.60979 5.62127 4.60979C5.4202 4.60979 5.1288 4.81302 5.03848 5.00441C4.9159 5.26355 4.91913 5.59473 4.91698 5.89472C4.90838 8.00867 4.9116 10.1237 4.9116 12.2376C4.9116 12.4301 4.9116 12.6226 4.9116 12.8462H3.40625V3.5582H4.80623L4.94924 4.13346C6.20621 2.97756 6.99437 3.00767 7.6707 4.26249C7.81371 4.10012 7.94167 3.94421 8.08145 3.79798C8.51693 3.3453 9.04057 3.17971 9.64487 3.37218C10.2083 3.55175 10.3846 4.02271 10.4201 4.54635C10.4717 5.31301 10.5083 6.08289 10.5137 6.8517C10.5266 8.83661 10.518 10.8226 10.518 12.8634V12.8634Z" fill="#373435"/>
<path d="M21.0536 4.20548L21.2224 3.55065H22.6353C22.6461 3.73022 22.6633 3.88613 22.6633 4.04204C22.6643 7.26565 22.674 10.4893 22.6547 13.7139C22.6514 14.2623 22.5643 14.8193 22.4471 15.3569C22.3138 15.9698 21.8891 16.3838 21.273 16.4677C20.7138 16.544 20.1289 16.5537 19.5708 16.4773C18.9687 16.3945 18.5096 16.0107 18.3569 15.3989C18.23 14.8903 18.1881 14.3602 18.1021 13.7935H19.7053C19.7257 14.072 19.7461 14.3516 19.7655 14.6311C19.7934 15.0354 19.8945 15.4107 20.387 15.4107C20.8601 15.4107 21.0439 15.0505 21.0558 14.6516C21.0837 13.743 21.0644 12.8333 21.0644 11.8107C20.6224 12.3699 20.1665 12.7269 19.4913 12.6709C18.8934 12.6215 18.5128 12.3806 18.3429 11.8C18.2429 11.4613 18.1795 11.0989 18.1773 10.7462C18.1612 8.90218 18.1676 7.05705 18.1741 5.21192C18.1741 4.99902 18.215 4.78612 18.2472 4.57429C18.3354 3.98721 18.5709 3.49904 19.202 3.34851C19.8536 3.19367 20.402 3.38829 20.8246 3.91624C20.8794 3.98505 20.9332 4.05387 21.0536 4.20548V4.20548ZM21.0805 8.03661C21.0805 7.23232 21.088 6.42695 21.0751 5.62266C21.0719 5.39471 21.0633 5.13557 20.9558 4.94848C20.8568 4.77752 20.6181 4.58074 20.445 4.58505C20.244 4.58935 20.0235 4.77537 19.8579 4.93128C19.773 5.01192 19.7601 5.19794 19.7601 5.33665C19.7547 7.12372 19.7569 8.90971 19.7601 10.6968C19.7601 10.785 19.7493 10.9054 19.7988 10.957C19.9719 11.1355 20.1633 11.4107 20.3612 11.4215C20.5569 11.4333 20.8192 11.2075 20.959 11.0172C21.0719 10.8645 21.0719 10.6097 21.0751 10.3989C21.087 9.61185 21.0794 8.82477 21.0805 8.03876V8.03661Z" fill="#373435"/>
<path d="M68.5733 9.80021C68.5324 7.62175 70.3979 6.13575 71.8872 6.10242C74.0011 6.05511 75.7602 7.97228 75.5527 10.112C75.3559 12.1357 74.028 13.527 72.213 13.6141C70.1238 13.7131 68.4915 12.0034 68.5733 9.80129V9.80021ZM73.3302 9.84C73.3302 9.67871 73.3312 9.51742 73.3302 9.35721C73.3226 8.64109 73.157 8.47335 72.4452 8.4669C72.1055 8.46367 71.7646 8.454 71.4259 8.47228C71.0743 8.49163 70.8571 8.6884 70.8485 9.04969C70.8356 9.56796 70.8324 10.0873 70.8506 10.6056C70.8635 10.9658 71.0797 11.1529 71.442 11.1583C71.6388 11.1615 71.8356 11.1593 72.0323 11.1593C72.8983 11.1593 73.3312 10.7192 73.3312 9.83892L73.3302 9.84Z" fill="#373435"/>
<path d="M14.9277 6.9434C14.9277 6.27244 14.9729 5.62729 14.9008 4.99612C14.8782 4.79827 14.5697 4.54989 14.3428 4.47785C13.9987 4.36817 13.7589 4.62193 13.689 4.95311C13.6234 5.26386 13.6224 5.58966 13.589 5.95309H12.089C12.2181 5.33805 12.3396 4.75741 12.4632 4.17678C12.4708 4.14237 12.488 4.10796 12.5073 4.07893C13.1009 3.20797 14.0062 3.26711 14.8825 3.32733C15.7116 3.38431 16.2083 3.80796 16.3987 4.54666C16.4782 4.85634 16.5331 5.18214 16.5352 5.50041C16.547 7.84876 16.5427 10.1971 16.5427 12.5444C16.5427 12.6315 16.5309 12.7186 16.5223 12.8412H15.0901C15.0632 12.6702 15.0342 12.4863 14.9912 12.2111C14.8116 12.3982 14.6879 12.5347 14.5567 12.6627C13.6922 13.511 12.3331 13.1852 12.1643 12.0003C12.0019 10.8595 11.9923 9.67454 12.0966 8.52617C12.1869 7.52941 13.0643 7.24017 13.931 7.08103C14.2621 7.01974 14.5976 6.98749 14.9277 6.94233V6.9434ZM14.9374 8.17564C14.0503 8.08854 13.6299 8.37994 13.5847 9.20358C13.5471 9.89389 13.5987 10.5917 13.6396 11.2842C13.6621 11.6573 13.8514 11.9272 14.2718 11.9412C14.7008 11.9552 14.9159 11.6756 14.9266 11.3132C14.9578 10.267 14.9374 9.21971 14.9374 8.17672V8.17564Z" fill="#373435"/>
<path d="M27.4575 3.55069H28.8833C28.9059 3.73563 28.9274 3.90875 28.9489 4.08186C29.022 4.15175 29.0951 4.22165 29.1682 4.29154C29.2177 4.13993 29.2263 3.95283 29.3242 3.84316C29.7682 3.34101 30.3381 3.19263 30.979 3.36682C31.5972 3.53456 31.7736 4.03455 31.8402 4.59691C31.8736 4.88078 31.9177 5.16572 31.9187 5.45066C31.9252 7.76138 31.923 10.0721 31.923 12.3828C31.923 12.5237 31.923 12.6635 31.923 12.843H30.3575C30.3575 12.629 30.3575 12.4366 30.3575 12.2441C30.3575 10.2194 30.3596 8.19578 30.3553 6.17108C30.3553 5.8313 30.3564 5.48722 30.3048 5.15281C30.2521 4.80658 30.0424 4.49584 29.6607 4.59906C29.4209 4.66465 29.1392 4.90873 29.0543 5.13884C28.9349 5.46141 28.9618 5.8442 28.9607 6.20119C28.9543 8.18933 28.9575 10.1775 28.9575 12.1667C28.9575 12.3785 28.9575 12.5914 28.9575 12.8419H27.4575V3.55069V3.55069Z" fill="#373435"/>
<path d="M38.1188 8.67242H35.1672C35.1672 9.61434 35.1446 10.5025 35.178 11.3896C35.1909 11.7455 35.4457 11.981 35.8274 11.9734C36.2113 11.9659 36.4124 11.7208 36.4521 11.3605C36.5081 10.8487 36.5371 10.3337 36.5801 9.79283H38.0328C38.1048 10.6616 38.122 11.5251 37.6285 12.3068C37.2027 12.981 36.1511 13.2562 35.0962 13.0455C34.0715 12.8412 33.6307 12.1186 33.6124 11.2014C33.5715 9.11112 33.5565 7.0133 33.6812 4.92839C33.7522 3.74023 34.4963 3.29831 35.8575 3.30476C37.1166 3.31121 37.7984 3.78539 37.9274 4.93807C38.0639 6.15525 38.0586 7.38857 38.1177 8.67242H38.1188ZM35.0962 6.1574H35.1102C35.1102 6.31869 35.1102 6.47998 35.1102 6.64019C35.1102 7.6606 35.1608 7.71114 36.2038 7.56706C36.3253 7.54985 36.5188 7.37029 36.5188 7.26491C36.521 6.51654 36.4952 5.76709 36.4511 5.01978C36.4296 4.65635 36.2102 4.41442 35.8339 4.40474C35.4242 4.39399 35.2156 4.6628 35.1661 5.03591C35.1178 5.40688 35.1167 5.78321 35.0952 6.1574H35.0962Z" fill="#373435"/>
<path d="M53.023 7.77228V13.3958C52.9402 13.4528 52.9133 13.4862 52.8822 13.4905C51.908 13.6274 51.4209 13.2073 51.4209 12.2303C51.4209 10.4755 51.4209 8.71957 51.4209 6.96476V6.35617C52.3746 6.15832 53.294 6.09273 54.2112 6.31638C55.8488 6.71423 56.4896 8.64216 55.437 9.97547C55.3273 10.1153 55.2004 10.2421 55.0628 10.3959C55.5273 11.4034 55.995 12.4174 56.4961 13.5034C55.9101 13.5034 55.4133 13.5216 54.9208 13.4905C54.8047 13.4829 54.6467 13.3324 54.5961 13.2109C54.2359 12.355 53.908 11.4851 53.5488 10.6281C53.4295 10.3443 53.4983 10.1733 53.6693 9.91633C53.923 9.53139 54.1424 9.06903 54.1929 8.6185C54.2682 7.94432 53.7832 7.62067 53.0241 7.77335L53.023 7.77228Z" fill="#373435"/>
<path d="M81.8505 13.4406C81.7333 13.4803 81.7171 13.49 81.6999 13.4911C80.6555 13.5864 79.9372 13.1484 79.5451 12.1771C79.4376 11.9115 79.3419 11.6427 79.2236 11.3825C78.9408 10.7567 78.5967 10.1557 79.3172 9.55136C79.5 9.3976 79.5548 9.03309 79.5795 8.75783C79.6483 8.00515 79.2387 7.64709 78.3968 7.74601C78.3968 7.92773 78.3968 8.11913 78.3968 8.31052C78.3968 9.86856 78.3806 11.4266 78.4086 12.9846C78.4161 13.4169 78.2742 13.5739 77.8667 13.5373C77.8312 13.5341 77.7957 13.5416 77.7591 13.5427C77.1183 13.5671 76.7979 13.2682 76.7979 12.6459C76.7979 10.747 76.7979 8.84922 76.7979 6.95033V6.30087C77.7441 6.30087 78.6688 6.17077 79.5419 6.32668C81.615 6.69657 81.6268 9.04277 80.7376 10.0245C80.4505 10.3417 80.4698 10.5664 80.6397 10.903C81.0558 11.7277 81.4386 12.5696 81.8505 13.4395V13.4406Z" fill="#373435"/>
<path d="M57.9175 6.27895C59.1583 6.27895 60.354 6.27035 61.5508 6.29293C61.6723 6.29508 61.8465 6.46927 61.8959 6.60153C61.9615 6.77679 61.9335 6.98862 61.9379 7.18539C61.9454 7.62302 61.8207 7.89506 61.2884 7.83484C60.8465 7.78538 60.3927 7.85205 59.9476 7.81764C59.4841 7.78108 59.4691 8.04237 59.4798 8.38107C59.4895 8.69182 59.4314 9.01224 59.9207 8.97138C60.2411 8.9445 60.5658 8.98536 60.8863 8.96278C61.2454 8.93698 61.4303 9.06923 61.4207 9.44019C61.4142 9.6703 61.4077 9.9004 61.4034 10.1305C61.3991 10.438 61.2271 10.5133 60.9475 10.5025C60.4852 10.4853 60.0217 10.4982 59.5895 10.4982C59.5411 10.5724 59.5078 10.6004 59.5046 10.6316C59.4221 11.5255 59.8268 11.9724 60.7185 11.9724C60.8615 11.9724 61.0045 11.9724 61.1486 11.9724C61.911 11.9735 61.9357 11.9982 61.9346 12.7423C61.9335 13.4831 61.9088 13.5068 61.1529 13.5068C60.0841 13.5068 59.0164 13.5068 57.9186 13.5068V6.27895H57.9175Z" fill="#373435"/>
<path d="M63.5186 11.7361C64.0229 11.8587 64.4659 12.0372 64.9143 12.0533C65.2573 12.0662 65.6745 11.9587 65.9369 11.7501C66.2573 11.4952 66.0336 10.9264 65.5831 10.7125C65.1799 10.5211 64.7498 10.3802 64.3659 10.1576C63.538 9.67592 63.224 8.76948 63.4745 7.72111C63.682 6.85553 64.4003 6.22973 65.3336 6.21898C65.9326 6.21253 66.5325 6.34264 67.1315 6.41145C67.5454 6.45876 67.6196 6.7222 67.5207 7.06198C67.4368 7.34907 67.3142 7.62434 67.1917 7.95229C66.9067 7.85552 66.6637 7.74261 66.41 7.69638C66.1186 7.64369 65.796 7.58025 65.525 7.65552C65.3347 7.70821 65.1175 7.96842 65.0788 8.16841C65.0455 8.33723 65.2014 8.63077 65.3605 8.73185C65.7648 8.98883 66.2164 9.17055 66.6508 9.37807C67.4809 9.77377 67.7949 10.4609 67.7723 11.3426C67.7487 12.2329 67.4325 12.9415 66.568 13.3232C65.5186 13.7855 64.4734 13.692 63.4444 13.2748C63.3347 13.2307 63.2251 12.992 63.2444 12.8619C63.3014 12.4813 63.424 12.1092 63.5197 11.7361H63.5186Z" fill="#373435"/>
<path d="M24.248 3.57422H25.8383V12.8999H24.248V3.57422Z" fill="#373435"/>
<path d="M0.243164 3.53906H1.6711V12.8464H0.243164V3.53906Z" fill="#373435"/>
<path d="M42.0608 1.78516V14.2807H41.9146V1.78516H42.0608Z" fill="#373435"/>
<path d="M25.8879 15.4758C25.8836 15.9371 25.4825 16.3414 25.0331 16.3371C24.5804 16.3328 24.1944 15.9274 24.1998 15.4618C24.2051 14.9876 24.5879 14.5973 25.0428 14.6016C25.4761 14.6059 25.8911 15.036 25.8879 15.4758V15.4758Z" fill="#373435"/>
<path d="M1.74946 1.44124C1.75268 1.88747 1.38817 2.29821 0.975277 2.31219C0.550553 2.32724 0.140881 1.88854 0.150559 1.43048C0.161311 0.962748 0.508618 0.611141 0.959149 0.613291C1.41183 0.615442 1.74623 0.965974 1.75053 1.44124H1.74946Z" fill="#373435"/>
<path d="M73.103 9.86271H73.1052C73.1052 9.73691 73.1052 9.61218 73.1052 9.48637C73.1009 8.81542 72.9923 8.70359 72.3342 8.69929C71.4812 8.69284 71.0554 9.12401 71.0568 9.99282C71.0568 10.1541 71.0385 10.3218 71.0751 10.4745C71.2676 11.281 71.9181 10.8261 72.3633 10.9132C72.703 10.9799 73.074 10.9487 73.1019 10.4541C73.1127 10.2573 73.1041 10.0606 73.1041 9.86271H73.103Z" fill="#373435"/>
<path d="M73.1031 9.86271C73.1031 10.0595 73.1128 10.2573 73.101 10.4541C73.073 10.9498 72.7021 10.9799 72.3623 10.9132C71.9182 10.8261 71.2666 11.2799 71.0741 10.4745C71.0376 10.3208 71.0558 10.153 71.0558 9.99282C71.0544 9.12401 71.4802 8.69284 72.3332 8.69929C72.9913 8.70467 73.0999 8.81542 73.1042 9.48637C73.1042 9.61218 73.1042 9.73691 73.1042 9.86271H73.102H73.1031Z" fill="#373435"/>
</svg>
