<svg width="64" height="21" viewBox="0 0 64 21" fill="none" xmlns="http://www.w3.org/2000/svg">
<path d="M63.3241 11.8011C63.2481 12.4903 63.0354 13.1263 62.6224 13.6816C62.2772 14.1463 61.8499 14.5027 61.329 14.742C60.7938 14.9887 60.2349 15.11 59.6525 15.1472C59.2611 15.1727 58.8707 15.1685 58.4844 15.1153C57.6564 15.0026 56.8921 14.7111 56.2572 14.1325C55.7456 13.6667 55.3655 13.1029 55.1415 12.4275C55.0172 12.051 54.932 11.6671 54.8857 11.2735C54.8385 10.8779 54.8385 10.4779 54.858 10.0812C54.8888 9.43986 55.01 8.81552 55.272 8.22734C55.5535 7.59449 55.9562 7.068 56.5017 6.65532C56.9825 6.2905 57.5177 6.07352 58.0961 5.94376C58.6067 5.82996 59.1224 5.82251 59.637 5.84804C60.2339 5.87782 60.8185 6.0012 61.3619 6.27136C62.0841 6.63086 62.6348 7.1733 62.9655 7.9391C63.134 8.33051 63.2491 8.73575 63.2789 9.16545C63.285 9.25266 63.3528 9.35583 63.2984 9.42178C63.2388 9.49304 63.1248 9.44943 63.0354 9.44943C62.3101 9.45156 61.5859 9.4505 60.8606 9.4505C60.8205 9.4505 60.7804 9.44943 60.7394 9.4505C60.687 9.45262 60.6582 9.43986 60.65 9.37392C60.6366 9.2633 60.614 9.15268 60.5853 9.0442C60.4969 8.7049 60.3264 8.42305 60.0172 8.25499C59.8374 8.15714 59.6412 8.10928 59.4408 8.09226C59.1049 8.06354 58.7751 8.09333 58.4721 8.2635C58.1639 8.43687 57.9759 8.71554 57.8557 9.04526C57.7149 9.43135 57.6615 9.83446 57.6461 10.245C57.6317 10.6492 57.6461 11.0523 57.7283 11.449C57.8228 11.9032 57.9841 12.3212 58.358 12.6169C58.5697 12.7849 58.8152 12.87 59.072 12.8934C59.3381 12.9179 59.6062 12.9104 59.8682 12.8083C60.2257 12.6679 60.462 12.4169 60.5945 12.0532C60.6469 11.9096 60.687 11.7639 60.6972 11.6075C60.7055 11.4724 60.7209 11.4682 60.8431 11.4682C61.6598 11.4682 62.4776 11.4682 63.2943 11.4682C63.3117 11.4682 63.3282 11.4735 63.3456 11.4767V11.5841C63.3107 11.6532 63.3148 11.7266 63.32 11.8L63.3241 11.8011Z" fill="#292A72"/>
<path d="M14.0288 19.2218C13.923 19.3271 13.8809 19.4739 13.809 19.6004C13.5552 20.0503 13.3138 20.5077 13.0447 20.9491H13.0097C12.681 20.7438 12.3512 20.5417 12.0256 20.3333C11.5869 20.0525 11.1616 19.7504 10.7404 19.442C10.3664 19.1675 10.0059 18.8761 9.64835 18.5794C9.37612 18.3528 9.11004 18.1188 8.84705 17.8795C8.51523 17.5774 8.19471 17.2615 7.88446 16.9382C7.45709 16.4926 7.04514 16.0309 6.65682 15.5449C6.10823 14.8578 5.60485 14.1388 5.13845 13.3911C5.04085 13.2347 4.95559 13.0688 4.86621 12.9114C4.896 12.8858 4.91347 12.8858 4.92579 12.9007C5.2494 13.2624 5.56889 13.6282 5.9038 13.9782C5.99215 14.0707 6.06611 14.1792 6.15754 14.2685C6.48217 14.5866 6.80886 14.9014 7.15096 15.2013C7.34717 15.3736 7.53106 15.563 7.73652 15.7236C8.16183 16.0543 8.57892 16.399 9.0258 16.7C9.53843 17.0456 10.0572 17.3807 10.5966 17.6785C10.9356 17.8657 11.2787 18.0444 11.628 18.2103C11.9958 18.3858 12.3677 18.5538 12.7467 18.7027C13.1145 18.8485 13.4823 18.9995 13.8624 19.1101C13.9199 19.1271 13.9754 19.1261 14.0319 19.1282L14.0268 19.2239L14.0288 19.2218Z" fill="#D1C7D6"/>
<path d="M0.706405 15.627H0.649902C0.649902 15.376 0.649902 15.1249 0.649902 14.875H0.701268C0.703323 15.1249 0.70435 15.376 0.706405 15.627Z" fill="#D1C7D6"/>
<path d="M11.2148 0.0809106C11.2148 0.0692109 11.2148 0.0575111 11.2148 0.046875H11.9052C11.9052 0.0585747 11.9052 0.0702745 11.9052 0.0819742C11.6751 0.0819742 11.445 0.0819742 11.2148 0.0819742V0.0809106Z" fill="#D1C7D6"/>
<path d="M63.3239 11.8019C63.3177 11.7285 63.3136 11.654 63.3496 11.5859V11.8008L63.3373 11.8061L63.3239 11.8029V11.8019Z" fill="#D1C7D6"/>
<path d="M35.452 10.7866C35.5804 10.8621 35.7119 10.8833 35.8311 10.9418C36.1794 11.112 36.4331 11.3673 36.5749 11.7417C36.6807 12.0203 36.7321 12.3065 36.7413 12.6064C36.7557 13.0925 36.7824 13.5775 36.8091 14.0625C36.8142 14.1625 36.8389 14.2603 36.8564 14.3592C36.8697 14.4326 36.9057 14.5018 36.9745 14.523C37.0536 14.5475 37.0474 14.6017 37.0464 14.6613C37.0403 14.9729 37.0896 14.9155 36.806 14.9166C36.0068 14.9198 35.2065 14.9176 34.4073 14.9166C34.2439 14.9166 34.2429 14.9166 34.21 14.7496C34.1401 14.3943 34.0857 14.0401 34.0991 13.6743C34.1104 13.3605 34.1247 13.0446 34.0754 12.7319C34.0323 12.4649 33.9655 12.2086 33.722 12.0512C33.5885 11.965 33.4385 11.9225 33.2854 11.9002C33.0635 11.8672 32.8396 11.8714 32.6156 11.8725C32.3968 11.8736 32.178 11.8725 31.9602 11.8725C31.8328 11.8725 31.8297 11.8746 31.8297 12.0129C31.8297 12.9 31.8297 13.787 31.8297 14.6741C31.8297 14.7155 31.8256 14.7581 31.8297 14.7985C31.8431 14.8964 31.7979 14.9176 31.7116 14.9166C30.8774 14.9144 30.0432 14.9166 29.209 14.9144C29.0806 14.9144 29.0786 14.9112 29.0776 14.774C29.0776 14.1731 29.0776 13.5711 29.0776 12.9702C29.0776 10.744 29.0776 8.51787 29.0776 6.29173C29.0776 6.05561 29.0457 6.0705 29.2881 6.0705C30.7028 6.0705 32.1174 6.0705 33.531 6.0705C33.9439 6.0705 34.3538 6.11943 34.7576 6.20132C35.111 6.27365 35.4572 6.37788 35.7726 6.57359C36.1352 6.79801 36.4033 7.10539 36.5543 7.51276C36.7906 8.15412 36.8091 8.81143 36.6262 9.46555C36.4845 9.97502 36.164 10.3569 35.7222 10.6281C35.638 10.6791 35.5517 10.7259 35.4489 10.7855L35.452 10.7866ZM31.8297 9.03479C31.8297 9.25496 31.8297 9.47406 31.8297 9.69423C31.8297 9.85483 31.8307 9.8559 31.992 9.85696C32.3485 9.85696 32.704 9.86547 33.0604 9.85377C33.3039 9.84632 33.5484 9.83143 33.7847 9.74315C33.9491 9.68146 34.0518 9.58042 34.1134 9.41131C34.173 9.24432 34.1782 9.07414 34.1669 8.90396C34.1453 8.57531 33.9635 8.37109 33.6501 8.30834C33.5659 8.29132 33.4816 8.2743 33.3974 8.2658C32.9002 8.22006 32.4019 8.25516 31.9037 8.24559C31.8236 8.24346 31.8307 8.30302 31.8307 8.3562C31.8307 8.58169 31.8307 8.80824 31.8307 9.03372L31.8297 9.03479Z" fill="#292A72"/>
<path d="M43.6437 11.4719C44.0618 11.4719 44.4707 11.4719 44.8786 11.4719C45.2874 11.4719 45.6953 11.4719 46.1041 11.4719C46.25 11.4719 46.2593 11.4793 46.2459 11.6165C46.1802 12.3164 45.9994 12.9769 45.61 13.5608C45.309 14.0129 44.9186 14.3617 44.4532 14.6276C43.9149 14.935 43.3335 15.0744 42.7325 15.1414C42.2753 15.1924 41.8131 15.185 41.358 15.1169C40.5772 14.9988 39.8468 14.7361 39.2304 14.2011C38.7311 13.7672 38.351 13.2417 38.1045 12.611C37.9175 12.1345 37.8137 11.6399 37.7654 11.1337C37.7398 10.8635 37.7172 10.5902 37.7326 10.3168C37.7767 9.50634 37.901 8.71607 38.2801 7.98963C38.6407 7.29934 39.1472 6.75796 39.816 6.38144C40.2063 6.16128 40.6214 6.0262 41.0569 5.93366C41.546 5.83049 42.038 5.83049 42.5291 5.84964C42.9739 5.86665 43.4177 5.94749 43.8399 6.09852C44.6834 6.39952 45.3563 6.92601 45.7785 7.75776C45.95 8.09492 46.0682 8.4523 46.1308 8.82775C46.1545 8.97347 46.1987 9.11599 46.1997 9.2649C46.1997 9.49038 46.2048 9.45103 46.0302 9.45103C45.3624 9.45209 44.6957 9.45103 44.0279 9.45103C43.9067 9.45103 43.7865 9.44784 43.6653 9.45209C43.58 9.45529 43.5379 9.42444 43.5338 9.33191C43.5235 9.0894 43.4434 8.86923 43.3273 8.66183C43.2081 8.44804 43.0314 8.29914 42.8116 8.20873C42.5127 8.08641 42.2045 8.06514 41.885 8.10769C41.6394 8.14066 41.4196 8.21618 41.2213 8.36827C40.9696 8.55972 40.8309 8.82775 40.7303 9.12237C40.6275 9.42019 40.5998 9.73182 40.5587 10.0435C40.496 10.5146 40.5525 10.9773 40.6275 11.4379C40.681 11.7655 40.795 12.076 40.9953 12.3472C41.2665 12.7131 41.6333 12.8748 42.0627 12.9014C42.2918 12.9163 42.5188 12.9046 42.7407 12.8227C43.0736 12.7014 43.3068 12.4749 43.4588 12.1494C43.5574 11.9388 43.5769 11.7059 43.6448 11.4708L43.6437 11.4719Z" fill="#292A72"/>
<path d="M50.5098 6.07297C51.6994 6.07297 52.8901 6.07297 54.0797 6.07297C54.1198 6.07297 54.1598 6.07084 54.2009 6.07297C54.3119 6.07616 54.3139 6.07723 54.3139 6.2123C54.3139 6.90259 54.3139 7.59287 54.3139 8.28316C54.3139 8.42568 54.3119 8.42781 54.1691 8.42781C53.49 8.42781 52.812 8.42781 52.1329 8.42781C52.098 8.42781 52.0631 8.43206 52.0292 8.42781C51.9336 8.41505 51.909 8.46397 51.9182 8.55119C51.9223 8.58629 51.9182 8.62245 51.9182 8.65861V14.6755C51.9182 14.717 51.9141 14.7595 51.9182 14.7999C51.9316 14.8999 51.8823 14.918 51.798 14.918C50.9526 14.9158 50.1071 14.918 49.2616 14.9158C49.1424 14.9158 49.1394 14.9127 49.1394 14.7829C49.1373 14.4734 49.1394 14.1639 49.1394 13.8544C49.1394 12.1228 49.1394 10.3902 49.1394 8.65861C49.1394 8.39377 49.1825 8.42887 48.9082 8.42781C48.2415 8.42568 47.5737 8.42781 46.906 8.42781C46.8772 8.42781 46.8484 8.42462 46.8197 8.42781C46.7344 8.43738 46.6851 8.40973 46.6985 8.31081C46.7005 8.2938 46.6985 8.27465 46.6985 8.25763C46.6985 7.58543 46.6985 6.91216 46.6985 6.23996C46.6985 6.04213 46.7005 6.07191 46.871 6.07191C48.0843 6.07084 49.2976 6.07191 50.5098 6.07191V6.07297Z" fill="#292A72"/>
<path d="M24.6451 10.4988C24.6451 9.1119 24.6451 7.72388 24.6451 6.33693C24.6451 6.30077 24.6451 6.26567 24.6451 6.22951C24.6461 6.07528 24.6471 6.07422 24.7961 6.07422C25.6354 6.07422 26.4757 6.07422 27.315 6.07422C27.462 6.07422 27.463 6.07635 27.463 6.23376C27.463 9.07361 27.463 11.9135 27.463 14.7533C27.463 14.916 27.462 14.9171 27.3027 14.9171C26.4737 14.9171 25.6457 14.9171 24.8166 14.9171C24.6163 14.9171 24.6461 14.9245 24.6451 14.731C24.6451 13.3196 24.6451 11.9092 24.6451 10.4978V10.4988Z" fill="#292A72"/>
<path d="M12.5071 15.0534C12.428 15.0875 12.3592 15.0811 12.2913 15.0811C10.9168 15.0811 9.54329 15.0811 8.16874 15.08C8.13998 15.08 8.11121 15.0768 8.08245 15.08C7.98691 15.0938 7.96739 15.0439 7.96841 14.9556C7.97047 14.5631 7.96533 14.1706 7.96533 13.7771C7.96636 12.0391 7.96841 10.3012 7.97047 8.56432C7.97047 8.54092 7.97355 8.51646 7.97047 8.49306C7.95814 8.39627 8.00437 8.375 8.09066 8.375C8.91354 8.37819 9.73539 8.37713 10.5583 8.37713C10.6107 8.37713 10.661 8.38457 10.7083 8.40797C11.1911 8.63665 11.6215 8.93871 11.941 9.38437C12.2975 9.88108 12.3602 10.4288 12.1701 11.0074C12.0838 11.2691 11.8794 11.4318 11.6657 11.5754C11.2959 11.8232 10.8829 11.9732 10.4689 12.1189C10.3816 12.1498 10.2912 12.1732 10.211 12.2168C10.0518 12.3019 10.023 12.4369 10.1299 12.5848C10.1946 12.6752 10.2706 12.7581 10.3456 12.84C10.8028 13.3346 11.2897 13.7973 11.7633 14.2749C11.9739 14.4865 12.1845 14.6971 12.3931 14.9098C12.4331 14.9503 12.4835 14.9843 12.5081 15.0545L12.5071 15.0534Z" fill="#292A72"/>
<path d="M14.0289 19.2209L14.034 19.1251C14.2857 18.6444 14.5364 18.1626 14.788 17.6818C14.898 17.4723 15.0079 17.2638 15.1199 17.0564C15.1897 16.9277 15.1918 16.9245 15.3202 16.9596C16.0198 17.1532 16.7317 17.1436 17.4447 17.0915C17.7292 17.0702 17.9933 16.9596 18.2439 16.8256C18.9394 16.4565 19.4746 15.9152 19.8363 15.1962C20.0602 14.7526 20.1362 14.2719 20.1116 13.7784C20.0695 12.9487 19.8393 12.167 19.5188 11.4097C19.452 11.2523 19.4027 11.0874 19.3462 10.9268C19.3545 10.9183 19.3637 10.9109 19.3719 10.9023C19.5363 11.1023 19.6565 11.332 19.7869 11.5543C20.2842 12.402 20.691 13.2902 20.9303 14.2549C21.1225 15.0302 21.1841 15.8173 21.0526 16.6054C20.8595 17.7616 20.2595 18.6401 19.2774 19.2326C18.4884 19.708 17.6306 19.876 16.7266 19.8367C15.9746 19.8048 15.2483 19.6314 14.5343 19.3932C14.3648 19.3368 14.1963 19.2783 14.0278 19.2198L14.0289 19.2209Z" fill="#292A72"/>
<path d="M11.2147 0.0802522C11.4449 0.0802522 11.675 0.0802522 11.9051 0.0802522C12.0397 0.111097 12.1743 0.138751 12.3078 0.17385C13.4276 0.471662 14.2659 1.16088 14.8781 2.16174C15.2439 2.76056 15.4863 3.41255 15.6589 4.09433C15.7586 4.49106 15.8572 4.88885 15.888 5.30047C15.8911 5.33557 15.9055 5.36854 15.9147 5.40364C15.9034 5.42278 15.9003 5.44405 15.9075 5.46639C15.4473 5.46958 14.9881 5.47384 14.5278 5.47384C14.2114 5.47384 13.895 5.47065 13.5786 5.46745C13.4235 5.46639 13.4235 5.46533 13.3844 5.31217C13.2488 4.78674 13.0649 4.28259 12.7958 3.81354C12.2975 2.94669 11.5815 2.38085 10.6281 2.15323C9.69124 1.92988 8.84165 2.12877 8.07528 2.73078C7.61504 3.09241 7.20206 3.5019 6.82709 3.95606C6.61444 4.21239 6.42644 4.48787 6.20557 4.77079C6.29597 4.53679 6.40281 4.33896 6.5076 4.14007C6.99865 3.21047 7.58936 2.35745 8.31978 1.61398C8.90946 1.0141 9.58748 0.554624 10.3765 0.279148C10.6497 0.183423 10.9333 0.13556 11.2147 0.078125V0.0802522Z" fill="#292A72"/>
<path d="M0.706308 15.6221C0.704254 15.371 0.703227 15.12 0.701172 14.869C0.777193 14.1043 1.02169 13.4002 1.41618 12.7503C1.72129 12.2493 2.09215 11.8048 2.50205 11.3931C2.82463 11.0698 3.17597 10.7826 3.5232 10.4901C3.55094 10.4816 3.57868 10.4816 3.60436 10.4965C3.87454 11.007 4.14575 11.5186 4.41491 12.0292C4.54127 12.2685 4.66557 12.5089 4.79399 12.7556C4.58339 12.8609 4.45189 13.0439 4.30807 13.2108C3.92283 13.6576 3.58587 14.1373 3.38246 14.7031C3.15029 15.3466 3.13796 16.005 3.27459 16.6697C3.48622 17.7036 4.08 18.4226 4.9902 18.8778C5.60146 19.183 6.25585 19.3405 6.91744 19.4713C7.14243 19.5159 7.36946 19.5532 7.59136 19.5936C7.60883 19.6117 7.60472 19.6117 7.5852 19.6127C6.43563 19.6606 5.29737 19.5872 4.18479 19.2628C3.47184 19.0554 2.79689 18.7618 2.20413 18.2885C1.35352 17.6089 0.832668 16.7335 0.706308 15.6199V15.6221Z" fill="#292A72"/>
<path d="M11.1519 12.5951C11.347 12.5185 11.5309 12.4515 11.7107 12.376C12.0867 12.2186 12.399 11.9697 12.6569 11.6485C12.8829 11.3666 13.0133 11.0422 13.0277 10.671C13.038 10.403 13.0544 10.1349 12.9949 9.87116C12.8777 9.35849 12.6024 8.95113 12.2018 8.63205C12.1114 8.55972 12.0179 8.49165 11.9264 8.42251C11.9542 8.36083 12.0004 8.38635 12.0343 8.38635C12.7997 8.3821 13.564 8.38103 14.3293 8.37891C14.4855 8.37891 14.4865 8.37997 14.4865 8.54696C14.4875 10.2966 14.4886 12.0473 14.4896 13.797C14.4896 14.1777 14.4896 14.5585 14.4896 14.9403C14.4896 15.0797 14.4875 15.0807 14.3591 15.0818C14.1228 15.0829 13.8876 15.0818 13.6513 15.0818C13.5619 15.0818 13.489 15.0563 13.4212 14.985C12.6743 14.2001 11.9244 13.4194 11.1765 12.6365C11.1683 12.628 11.1642 12.6163 11.1529 12.5951H11.1519Z" fill="#292A72"/>
<path d="M15.9073 5.46903C15.9001 5.44669 15.9022 5.42648 15.9145 5.40628C15.9967 5.43606 16.081 5.44457 16.1683 5.4435C16.5134 5.44031 16.8586 5.44776 17.2038 5.43818C17.3805 5.43287 17.5562 5.39989 17.7349 5.40734C17.8993 5.41478 17.9106 5.42117 17.9116 5.59241C17.9137 6.0838 17.8829 6.57412 17.8705 7.06445C17.8613 7.42395 17.8407 7.78664 17.8038 8.14508C17.7709 8.46204 17.7431 8.78006 17.6979 9.09595C17.6661 9.31824 17.6363 9.54054 17.6034 9.76177C17.5264 10.2883 17.437 10.8126 17.3117 11.3295C17.2244 11.6912 17.1452 12.056 17.0456 12.4144C16.9572 12.7324 16.8473 13.0441 16.7477 13.3589C16.6388 13.7025 16.5176 14.0407 16.3871 14.3747C16.1066 15.0969 15.7964 15.8042 15.4276 16.4827C15.367 16.5944 15.3269 16.7189 15.2231 16.8529C15.2427 16.6338 15.3135 16.4721 15.3629 16.3051C15.5036 15.8297 15.6587 15.3596 15.7769 14.8767C15.8888 14.4172 15.9803 13.9535 16.0717 13.4908C16.1364 13.1675 16.1765 12.8377 16.2207 12.5101C16.2689 12.1592 16.2946 11.805 16.3326 11.4519C16.4148 10.6807 16.4056 9.90855 16.385 9.13849C16.3748 8.75666 16.3326 8.37163 16.2987 7.98873C16.2361 7.27398 16.1015 6.57306 15.9782 5.86895C15.9546 5.73493 15.9022 5.6073 15.9084 5.46797L15.9073 5.46903Z" fill="#D1C7D6"/>
<path d="M3.60544 10.499C3.57976 10.4831 3.55202 10.4831 3.52428 10.4926C3.51915 10.3544 3.43696 10.2491 3.37327 10.1395C3.12466 9.71195 2.86578 9.29182 2.64388 8.84935C2.6336 8.82808 2.62436 8.80575 2.61203 8.78554C2.56888 8.71428 2.60895 8.6696 2.66134 8.63982C2.90584 8.4973 3.15034 8.35371 3.39895 8.21863C3.96192 7.91337 4.52694 7.6145 5.10943 7.35072C5.59329 7.13162 6.07921 6.9189 6.57643 6.73702C6.97092 6.59237 7.36335 6.44346 7.76401 6.32221C8.32389 6.15203 8.88583 5.98823 9.45907 5.87124C9.73953 5.8138 10.0179 5.74573 10.3015 5.70744C10.5963 5.66809 10.8891 5.61491 11.1839 5.57768C11.4623 5.54258 11.7418 5.53194 12.0181 5.48302C12.0243 5.48302 12.0294 5.48089 12.0356 5.48089C12.4486 5.48408 12.8605 5.4192 13.2745 5.4426C13.2961 5.44366 13.3207 5.4426 13.3403 5.47983C13.3064 5.52982 13.2416 5.5245 13.1954 5.53513C12.7475 5.63405 12.3016 5.74148 11.8568 5.85528C11.3688 5.98079 10.886 6.12119 10.4124 6.29562C10.0796 6.41793 9.74158 6.52749 9.4149 6.66576C8.79337 6.9274 8.17596 7.20182 7.58731 7.53792C7.12193 7.80382 6.6504 8.06228 6.20557 8.36435C5.75972 8.66641 5.31797 8.97805 4.90602 9.32585C4.66255 9.53219 4.40572 9.72258 4.17766 9.94913C4.04616 10.08 3.89412 10.1884 3.74927 10.3054C3.68455 10.3576 3.62496 10.4118 3.60647 10.499H3.60544Z" fill="#D1C7D6"/>
<path d="M19.3123 10.8736C19.2979 10.8556 19.2784 10.8407 19.2702 10.8205C19.2589 10.7907 19.2363 10.7439 19.2876 10.7386C19.3298 10.7343 19.3339 10.779 19.3277 10.8162L19.3113 10.8736H19.3123Z" fill="#D1C7D6"/>
<path d="M19.312 10.8738L19.3284 10.8164C19.348 10.8419 19.3695 10.8653 19.3716 10.9004C19.3634 10.9089 19.3552 10.9164 19.3459 10.9249C19.3346 10.9079 19.3233 10.8909 19.312 10.8738Z" fill="#292A72"/>
</svg>
