<svg width="28" height="19" viewBox="0 0 28 19" fill="none" xmlns="http://www.w3.org/2000/svg">
<path d="M0 18.2891C0.146051 18.6249 0.401639 18.8565 0.749379 19.002H0V18.2891Z" fill="white"/>
<path fill-rule="evenodd" clip-rule="evenodd" d="M21.9928 6.6366H24.9921V6.35208V1.09838C24.9903 0.370538 24.6043 0 23.8428 0H4.13638C3.39048 0 2.99927 0.370538 2.99927 1.07522V6.3587V6.62999H6.00026C6.00026 6.52844 6.00006 6.42859 5.99987 6.32992C5.99948 6.13606 5.99911 5.94678 6.00026 5.75823C6.00895 4.61353 6.86439 3.80463 8.07453 3.79967C9.02212 3.79636 9.96971 3.79636 10.9173 3.79967C12.1431 3.80463 12.9916 4.61353 12.9985 5.78304V6.62668H14.998C14.998 6.51848 14.9976 6.41295 14.9972 6.30918C14.9965 6.10673 14.9957 5.91097 14.998 5.71522C15.0119 4.64 15.8691 3.8129 16.9941 3.80298C17.9921 3.79471 18.9918 3.79471 19.9916 3.80298C21.1182 3.8129 21.9754 4.63669 21.9928 5.71191C21.9951 5.91271 21.9944 6.11423 21.9936 6.31987C21.9932 6.42424 21.9928 6.52967 21.9928 6.6366ZM26.7412 19.0003H27.2402L27.242 19.002C27.8088 18.7687 28.007 18.3585 28 17.7762C27.9837 16.2849 27.9864 14.7944 27.9892 13.3042C27.9903 12.7365 27.9913 12.1688 27.9913 11.6011C27.9896 9.75338 26.729 8.55078 24.7921 8.55078H3.30179C1.5231 8.55078 0.485097 9.31171 0.0382514 10.9411C0.0358205 10.9538 0.0248926 10.9633 0.0137836 10.9729C0.00900152 10.9771 0.00418585 10.9813 0 10.9857V18.289C0.146051 18.6248 0.40164 18.8564 0.751119 19.0003H1.25013C1.81694 18.7671 2.05862 18.3585 2.00298 17.7745C1.98873 17.6288 1.99233 17.4815 1.99604 17.3295C1.99776 17.2589 1.99951 17.1874 1.99951 17.1145H25.9918C25.9918 17.1785 25.9937 17.2434 25.9956 17.3088C25.9997 17.4533 26.0039 17.6002 25.9884 17.7448C25.9258 18.3386 26.1587 18.7604 26.7412 19.0003Z" fill="url(#paint0_linear_6459_2416)"/>
<defs>
<linearGradient id="paint0_linear_6459_2416" x1="14.0001" y1="0" x2="14.0001" y2="19.002" gradientUnits="userSpaceOnUse">
<stop stop-color="#E92D2D"/>
<stop offset="0.9999" stop-color="#A90F0F"/>
<stop offset="1" stop-color="#DB2424" stop-opacity="0"/>
<stop offset="1" stop-color="#EF2323"/>
</linearGradient>
</defs>
</svg>
