<svg width="20" height="20" viewBox="0 0 20 20" fill="none" xmlns="http://www.w3.org/2000/svg">
<g opacity="0.7">
<g clip-path="url(#clip0_890_1502)">
<path d="M10 1.25V2.5625" stroke="black" stroke-width="1.5" stroke-linecap="round" stroke-linejoin="round"/>
<path fill-rule="evenodd" clip-rule="evenodd" d="M16.1871 3.8125L15.2588 4.74083L16.1867 3.81292L16.1871 3.8125Z" fill="black"/>
<path d="M16.1871 3.8125L15.2588 4.74083" stroke="black" stroke-width="1.5" stroke-linecap="round" stroke-linejoin="round"/>
<path d="M18.75 10H17.4375" stroke="black" stroke-width="1.5" stroke-linecap="round" stroke-linejoin="round"/>
<path fill-rule="evenodd" clip-rule="evenodd" d="M16.1871 16.1875L15.2588 15.2592L16.1867 16.1871L16.1871 16.1875Z" fill="black"/>
<path d="M16.1871 16.1875L15.2588 15.2592" stroke="black" stroke-width="1.5" stroke-linecap="round" stroke-linejoin="round"/>
<path d="M10 18.75V17.4375" stroke="black" stroke-width="1.5" stroke-linecap="round" stroke-linejoin="round"/>
<path fill-rule="evenodd" clip-rule="evenodd" d="M3.8125 16.1875L4.74083 15.2592L3.81292 16.1871L3.8125 16.1875Z" fill="black"/>
<path d="M3.8125 16.1875L4.74083 15.2592" stroke="black" stroke-width="1.5" stroke-linecap="round" stroke-linejoin="round"/>
<path d="M1.25 10H2.5625" stroke="black" stroke-width="1.5" stroke-linecap="round" stroke-linejoin="round"/>
<path fill-rule="evenodd" clip-rule="evenodd" d="M3.8125 3.8125L4.74083 4.74083L3.81292 3.81292L3.8125 3.8125Z" fill="black"/>
<path d="M3.8125 3.8125L4.74083 4.74083" stroke="black" stroke-width="1.5" stroke-linecap="round" stroke-linejoin="round"/>
<path d="M10 15C12.7612 15 15 12.7612 15 10C15 7.23875 12.7612 5 10 5C7.23875 5 5 7.23875 5 10C5 12.7612 7.23875 15 10 15Z" stroke="black" stroke-width="1.5" stroke-linejoin="round"/>
</g>
</g>
<defs>
<clipPath id="clip0_890_1502">
<rect width="20" height="20" fill="white"/>
</clipPath>
</defs>
</svg>
