<svg xmlns="http://www.w3.org/2000/svg" width="24" height="24" viewBox="0 0 24 24">
    <g data-name="Group 17328">
        <g data-name="Group 17326">
            <g data-name="Rectangle 4612" transform="translate(4 4)" style="stroke:#555;fill:none">
                <rect width="16" height="16" rx="2" style="stroke:none"/>
                <rect x=".5" y=".5" width="15" height="15" rx="1.5" style="fill:none"/>
            </g>
            <g data-name="Subtraction 55" style="stroke-linejoin:round;fill:none">
                <path d="M.062 11.044H0V1a1 1 0 0 1 1-1h5.869a1 1 0 0 1 1 1v10.043h-.045L3.943 6.974l-3.881 4.07z" style="stroke:none" transform="translate(8.065 4)"/>
                <path d="m1 8.611 2.22-2.327a1 1 0 0 1 1.447 0l2.202 2.309V1H1V8.61m-.938 2.433H0V1c0-.551.449-1 1-1h5.869c.551 0 1 .449 1 1v10.043h-.045L3.943 6.975l-3.88 4.07z" style="fill:#555;stroke:none" transform="translate(8.065 4)"/>
            </g>
        </g>
    </g>
</svg>
