<svg width="53" height="18" viewBox="0 0 53 18" fill="none" xmlns="http://www.w3.org/2000/svg">
<g clip-path="url(#clip0_5783_3328)">
<path d="M34.9021 17.5143C35.3946 17.5105 35.8813 17.4079 36.3335 17.2127C36.7857 17.0174 37.194 16.7334 37.5345 16.3775C38.236 15.6478 38.6262 14.6739 38.6227 13.6616V4.3635C38.625 3.34582 38.2406 2.36527 37.5473 1.62033C37.2054 1.26311 36.795 0.978414 36.3407 0.783246C35.8864 0.588077 35.3974 0.486432 34.903 0.484375H25.8409C25.3485 0.488349 24.862 0.591 24.41 0.786259C23.958 0.981518 23.5497 1.26542 23.2094 1.62118C22.5074 2.36128 22.1176 3.34344 22.1211 4.3635V13.6753C22.1339 15.7887 23.7931 17.5015 25.8409 17.5143" fill="#2B2B2B"/>
<path d="M32.3369 9.52745C31.9867 10.7316 32.5568 11.9357 33.7626 11.4534C33.4132 12.3235 32.8295 13.6213 32.8295 14.9729C32.8295 14.9729 32.8295 15.8822 33.4771 16.1097C33.4771 16.1097 34.3847 16.3372 34.1904 15.5072C34.0483 14.9892 34.0086 14.4485 34.0737 13.9153C34.2956 12.805 34.6303 11.7203 35.0724 10.6779C35.0724 10.6779 36.4589 7.69527 37.2625 6.30366C37.2625 6.30366 37.6 5.59465 36.9131 5.59465C36.8087 5.59675 36.7062 5.62328 36.6139 5.67211C36.5215 5.72095 36.4419 5.79073 36.3814 5.87586L34.4239 9.47377C34.1257 10.0362 33.841 10.21 33.6203 10.21C33.1278 10.21 33.2317 9.39366 33.3093 9.09966C33.5291 8.09579 33.8802 7.13283 34.3464 6.20992C34.6958 5.4208 33.9961 5.35348 33.9961 5.35348C33.5555 5.23332 33.2181 5.98239 33.2181 5.98239L32.4409 7.61431C31.9357 8.51776 31.3818 9.3931 30.7817 10.2365C30.7817 10.2365 30.6777 10.3703 30.6002 10.3166C30.5218 10.2501 30.561 10.1163 30.561 10.1163C30.6905 9.00592 30.9104 7.90916 31.2086 6.82519C31.2223 6.75787 31.2342 6.70504 31.2342 6.63771C31.2502 6.49412 31.2085 6.35008 31.1183 6.23719C31.0769 6.17951 31.0224 6.13245 30.9593 6.09987C30.8962 6.06728 30.8263 6.05009 30.7553 6.04971C30.4059 6.0088 30.2363 6.18265 29.9253 6.57124C29.2384 7.44047 28.4348 8.75197 28.0462 9.34083C28.007 9.4073 27.9295 9.39366 27.9295 9.29992C27.9295 9.03234 28.837 6.1426 28.837 6.1426C28.837 6.1426 28.9401 5.74207 28.6291 5.60743C28.6291 5.60743 28.1502 5.30064 27.7607 5.90228L25.8945 8.52444C25.7513 8.7247 25.6737 8.65823 25.6737 8.65823V8.48439L25.972 6.77151C26.2055 5.46085 25.7641 5.39353 25.4794 5.33984C25.2715 5.33984 25.0517 5.40717 24.8701 5.52732C24.2864 5.82218 23.8458 7.01267 23.8458 7.01267C23.8458 7.01267 23.7163 7.44047 24.0009 7.61431C24.0921 7.668 24.1961 7.70805 24.2992 7.69442C24.7142 7.668 24.7926 6.87888 25.09 6.87888C25.142 6.87888 25.142 6.94535 25.142 6.95898L24.1833 11.1193C24.1533 11.2354 24.1596 11.3578 24.2012 11.4702C24.2427 11.5826 24.3177 11.6796 24.4159 11.7482C24.5463 11.8283 24.6886 11.842 24.8309 11.8156C24.9651 11.7707 25.0796 11.6806 25.1548 11.5608L25.505 10.9992C26.0104 10.0763 26.9443 8.75197 27.0347 8.75197C27.0739 8.75197 27.0867 8.75197 27.0867 8.79202L26.7373 11.2403C26.7199 11.3467 26.7369 11.4559 26.7858 11.552C26.8346 11.6481 26.9129 11.7261 27.0091 11.7747C27.0973 11.808 27.1917 11.8217 27.2858 11.8148C27.3799 11.8079 27.4713 11.7805 27.5536 11.7346C27.7479 11.5744 27.9167 11.3733 28.0334 11.1466C28.2277 10.8253 29.1609 9.68766 29.731 8.6446C29.7702 8.57727 29.8094 8.6446 29.7957 8.68465C29.6798 9.23345 29.5887 10.6915 29.5759 11.0529C29.5503 11.7619 30.0812 11.842 30.094 11.842C30.4442 11.8684 30.7809 11.7082 30.976 11.4142" fill="white"/>
<path d="M4.439 11.1486H3.4019V8.75399C3.41726 8.49061 3.36381 8.22776 3.2468 7.99129C3.19008 7.90411 3.11047 7.83423 3.01667 7.78928C2.92288 7.74434 2.81853 7.72608 2.71504 7.73649C2.53353 7.73649 2.36565 7.77654 2.22248 7.87028C2.06763 7.97863 1.93917 8.12048 1.84667 8.2853V11.1486H0.80957V6.79995H1.39246L1.78191 7.38795C1.88587 7.29421 1.98899 7.21411 2.09295 7.134C2.19692 7.06668 2.30003 7.01384 2.41678 6.96016C2.53353 6.90647 2.65028 6.86642 2.76703 6.84C2.88378 6.81273 3.01331 6.79995 3.14284 6.79995C3.28515 6.79995 3.42832 6.81273 3.55785 6.85278C3.66182 6.89283 3.76493 6.93289 3.8689 7.00021C3.94644 7.06668 4.02399 7.14764 4.08961 7.22774C4.16631 7.33426 4.21914 7.428 4.27112 7.53538C4.44911 7.34015 4.65959 7.17724 4.89321 7.0539C5.00996 6.97379 5.13949 6.90647 5.28181 6.85278C5.43776 6.81273 5.59285 6.78631 5.76159 6.78631C5.96867 6.78631 6.16296 6.84 6.34448 6.93289C6.51321 7.04026 6.65637 7.17405 6.74671 7.33426C6.85067 7.53538 6.92822 7.73564 6.96742 7.96317C7.01855 8.21797 7.04412 8.47192 7.04412 8.73865V11.1478H5.99594V8.75399C6.0215 8.48641 5.97037 8.21882 5.83999 7.99129C5.78605 7.90466 5.70892 7.83488 5.61734 7.78984C5.52576 7.74481 5.4234 7.72632 5.32186 7.73649C5.15313 7.73649 4.9844 7.7774 4.8293 7.87028C4.66747 7.97465 4.53373 8.11716 4.43986 8.2853L4.439 11.1486ZM10.4281 9.16815H9.50777C9.31503 9.15661 9.12381 9.20838 8.96322 9.31558C8.85571 9.42667 8.79553 9.57515 8.79534 9.72974C8.79534 9.87717 8.84648 10.011 8.95044 10.1183C9.06719 10.2121 9.22314 10.2649 9.37824 10.2521C9.49498 10.2521 9.61173 10.2385 9.72763 10.1984C9.83245 10.172 9.93556 10.1311 10.0259 10.0783C10.1171 10.011 10.1946 9.94449 10.2602 9.87717C10.3369 9.79706 10.3898 9.71696 10.4418 9.63685L10.4281 9.16815ZM10.4281 10.6663C10.2858 10.8137 10.1043 10.9339 9.92278 11.0148C9.6765 11.1086 9.41744 11.1614 9.15837 11.1486C8.97189 11.158 8.78563 11.126 8.61298 11.0549C8.45552 10.9864 8.31108 10.8913 8.18604 10.7737C8.07102 10.6429 7.97883 10.4936 7.91334 10.3322C7.85092 10.1564 7.82033 9.97084 7.82301 9.78428C7.82301 8.98153 8.43232 8.45914 9.40465 8.45914H10.4409V8.21882C10.4412 8.14416 10.4209 8.07087 10.382 8.00709C10.3432 7.9433 10.2875 7.89152 10.221 7.8575C10.0103 7.75958 9.77913 7.7137 9.54697 7.72371C9.2879 7.72371 9.02799 7.76376 8.78171 7.81745C8.58349 7.87218 8.38882 7.93906 8.19882 8.01771L8.08207 7.12122C8.14684 7.08117 8.23802 7.05475 8.35477 7.0147C8.45788 6.97464 8.58741 6.94737 8.70416 6.90732C8.82091 6.8809 8.97686 6.85363 9.13196 6.82722C9.2879 6.8008 9.45578 6.8008 9.62452 6.8008C9.8653 6.78141 10.1075 6.81048 10.3369 6.8863C10.5663 6.96212 10.7781 7.08315 10.9599 7.24223C11.2837 7.58992 11.4397 8.05776 11.4132 8.52646V11.1486H10.6744L10.4281 10.6663ZM16.2749 6.73433L14.603 8.90057L16.5084 11.135H15.2123L13.4482 8.92784V11.135H12.4256V5.18166H13.4482V8.92784L15.0171 6.73348H16.2749V6.73433ZM18.569 7.76376C18.4395 7.76376 18.3099 7.7774 18.194 7.81745C18.0892 7.84462 17.9917 7.89468 17.9086 7.96402C17.8199 8.01964 17.7481 8.09828 17.7006 8.19156C17.6495 8.2853 17.6103 8.37903 17.5839 8.48641H19.4118C19.4118 8.39267 19.399 8.29893 19.3607 8.20519C19.3257 8.11896 19.2725 8.04134 19.2047 7.97766C19.1266 7.91198 19.0393 7.85802 18.9457 7.81745C18.825 7.77436 18.6969 7.7561 18.569 7.76376ZM18.7641 10.2121C18.9192 10.2121 19.088 10.1984 19.2431 10.1584C19.3862 10.1311 19.5285 10.0911 19.6581 10.0382C19.7748 9.99732 19.8916 9.94449 19.9955 9.87717C20.0467 9.85075 20.0987 9.8107 20.1506 9.77064L20.3449 10.72C20.1217 10.8439 19.8875 10.9469 19.6453 11.0276C19.3585 11.108 19.062 11.1487 18.7641 11.1486C18.4403 11.1486 18.1156 11.0949 17.8046 10.9876C17.5464 10.8918 17.3121 10.7412 17.1177 10.5461C16.9248 10.3547 16.7784 10.1214 16.6899 9.86438C16.5763 9.58832 16.5148 9.29362 16.5084 8.99516C16.5084 8.71394 16.5468 8.43272 16.638 8.16514C16.7283 7.89755 16.8578 7.67002 17.0393 7.45612C17.2081 7.25501 17.4288 7.0948 17.6751 6.98743C18.2361 6.75998 18.8636 6.75998 19.4246 6.98743C19.6581 7.08117 19.8524 7.24223 20.0211 7.42885C20.1771 7.61633 20.2938 7.83023 20.3705 8.05776C20.4361 8.29893 20.4753 8.55203 20.4753 8.80768V9.03436C20.4617 9.11447 20.4498 9.19542 20.4361 9.26189H17.5711C17.5839 9.40932 17.6222 9.54311 17.6878 9.66327C17.739 9.78343 17.8302 9.8908 17.9341 9.97091C18.0381 10.0646 18.1548 10.1311 18.2971 10.1584C18.4395 10.2121 18.5954 10.2385 18.7633 10.2385V10.2121H18.7641ZM39.6349 7.41607L41.0086 5.70319H41.3205V6.78716H42.4999V7.72286H41.3205V9.51499C41.3205 9.60873 41.3333 9.7161 41.3588 9.82263C41.3878 9.89499 41.4271 9.96274 41.4756 10.0237C41.5276 10.0638 41.5923 10.1038 41.6571 10.1175C41.7229 10.1449 41.7937 10.1585 41.865 10.1575C41.9809 10.1575 42.0977 10.1439 42.2016 10.1038C42.3056 10.0911 42.3959 10.0502 42.4871 10.0101V10.9611C42.3831 11.0148 42.2664 11.0549 42.1369 11.0813C41.7764 11.1619 41.4013 11.1481 41.0478 11.0412C40.8828 10.9861 40.7322 10.8947 40.6072 10.7737C40.4978 10.6486 40.4142 10.5032 40.3609 10.3459C40.3025 10.1643 40.2763 9.97399 40.2834 9.78343V7.75013H39.6093L39.6349 7.41607ZM44.2631 7.69729C44.419 7.42885 44.6125 7.20217 44.8596 7.02748C45.0667 6.86727 45.3257 6.78716 45.5984 6.8008C45.6757 6.78727 45.7547 6.78727 45.8319 6.8008L45.9742 6.82636C45.9742 6.82636 45.9487 7.06838 45.7927 7.81745C45.7152 7.80381 45.6368 7.79018 45.5592 7.80381C45.3816 7.79459 45.2042 7.82667 45.0411 7.89755C44.8871 7.96512 44.753 8.07104 44.6517 8.20519C44.5416 8.34503 44.4581 8.5039 44.4054 8.67389C44.3542 8.88693 44.3278 9.10168 44.3278 9.31558V11.1478H43.2907V6.80165H43.9384L44.2631 7.69729ZM50.628 7.75013C50.5131 7.74066 50.3976 7.75907 50.2914 7.80381C50.0938 7.87751 49.9225 8.00796 49.7988 8.17877C49.7468 8.25888 49.6949 8.33898 49.6684 8.43272V9.66327C49.7084 9.74258 49.7611 9.81483 49.8244 9.87717C49.8891 9.94449 49.9539 9.99732 50.0315 10.051C50.1226 10.1047 50.213 10.1448 50.3042 10.172C50.5632 10.2385 50.8351 10.2249 51.0813 10.1311C51.1981 10.0646 51.3148 9.98454 51.3924 9.87717C51.4836 9.76979 51.5483 9.636 51.5875 9.50221C51.6259 9.342 51.6523 9.16815 51.6651 8.99431C51.6651 8.8341 51.6395 8.66025 51.5875 8.48556C51.5493 8.34057 51.483 8.20449 51.3924 8.08503C51.3064 7.97537 51.1954 7.88798 51.0686 7.83023C50.9445 7.76641 50.8067 7.73421 50.6672 7.73649L50.628 7.75013ZM50.9135 6.8008C51.1981 6.78716 51.4708 6.85363 51.7171 6.97464C51.9369 7.09395 52.1185 7.25586 52.2744 7.46891C52.4167 7.68366 52.5335 7.92397 52.5982 8.17792C52.663 8.44551 52.7022 8.72672 52.7022 8.99431C52.7022 9.27553 52.663 9.55675 52.5854 9.82348C52.5216 10.0718 52.407 10.3042 52.2488 10.5061C52.102 10.7035 51.9112 10.864 51.6915 10.9748C51.4536 11.092 51.1914 11.1516 50.9263 11.1486C50.6736 11.1521 50.4228 11.1066 50.1874 11.0148C49.9879 10.9251 49.8107 10.7924 49.6684 10.6262V12.8871H48.6313V6.8008H49.2406L49.6429 7.32233C49.8083 7.15629 50.0016 7.02045 50.2138 6.92096C50.4337 6.84085 50.6672 6.78716 50.9007 6.8008H50.9135ZM47.0378 5.02145C46.9666 5.02176 46.8963 5.03627 46.8309 5.06413C46.7654 5.09198 46.7062 5.13261 46.6567 5.18365C46.6072 5.23468 46.5683 5.29509 46.5424 5.36133C46.5166 5.42757 46.5042 5.49831 46.506 5.5694C46.506 5.87704 46.7386 6.13184 47.0369 6.13184C47.3352 6.13184 47.5687 5.87704 47.5687 5.5694C47.5725 5.49731 47.5605 5.42527 47.5335 5.3583C47.5066 5.29133 47.4654 5.23104 47.4127 5.18166C47.3661 5.12777 47.3086 5.0844 47.2439 5.05443C47.1793 5.02445 47.109 5.00857 47.0378 5.00781V5.02145ZM47.5422 11.1486H46.5051V6.8008H47.5422V11.1486Z" fill="#2B2B2B"/>
</g>
<defs>
<clipPath id="clip0_5783_3328">
<rect width="51.983" height="17.0436" fill="white" transform="translate(0.764648 0.478516)"/>
</clipPath>
</defs>
</svg>
