<svg width="84" height="36" viewBox="0 0 84 36" fill="none" xmlns="http://www.w3.org/2000/svg">
<mask id="mask0_3399_2156" style="mask-type:alpha" maskUnits="userSpaceOnUse" x="0" y="0" width="84" height="36">
<rect width="84" height="36" fill="#C4C4C4"/>
</mask>
<g mask="url(#mask0_3399_2156)">
</g>
<g clip-path="url(#clip0_3399_2156)">
<path d="M63.68 22.308C63.68 21.528 64.2 20.9 64.875 20.9C65.727 20.9 66.176 21.74 66.176 22.9C66.176 24.072 65.715 24.936 64.839 24.936C64.259 24.936 63.679 24.474 63.679 23.539V22.309L63.68 22.308ZM63.407 19.646H61.904C61.928 20.237 61.951 20.936 61.951 21.776V28.759H63.679V25.516H63.703C63.987 25.954 64.531 26.273 65.242 26.273C66.567 26.273 67.916 25.22 67.916 22.829C67.916 20.829 66.863 19.503 65.443 19.503C64.603 19.503 63.94 19.87 63.513 20.533H63.49L63.407 19.646ZM58.661 26.143H60.389V19.633H58.661V26.143ZM60.448 17.858C60.448 17.326 60.069 16.935 59.513 16.935C59.3908 16.9312 59.2691 16.9526 59.1554 16.9976C59.0417 17.0427 58.9385 17.1105 58.852 17.197C58.7655 17.2835 58.6977 17.3867 58.6526 17.5004C58.6076 17.6141 58.5863 17.7358 58.59 17.858C58.59 18.379 58.969 18.781 59.513 18.781C60.058 18.793 60.448 18.426 60.448 17.858ZM55.655 20.77L55.584 19.634H54.104C54.128 20.214 54.152 20.864 54.152 21.669V26.143H55.88V22.782C55.88 21.669 56.472 21.149 57.253 21.149C57.43 21.149 57.573 21.16 57.703 21.184V19.54C57.5743 19.514 57.4432 19.5019 57.312 19.504C56.708 19.504 55.998 19.942 55.702 20.783H55.655V20.771V20.77ZM47.075 17.16V18.651H49.288V26.143H51.016V18.651H53.24V17.161H47.074L47.075 17.16ZM44.257 23.042C44.1601 23.4472 44.0694 23.854 43.985 24.262H43.95C43.8543 23.8536 43.7516 23.4469 43.642 23.042L42.683 19.645H40.79L42.98 25.622C43.027 25.752 43.05 25.847 43.05 25.918C43.05 26.048 42.755 26.711 42.186 27.125C41.879 27.338 41.559 27.528 41.276 27.599L41.713 29.055C42.103 28.983 42.766 28.747 43.393 28.143C44.127 27.409 44.683 26.261 45.406 24.155L46.873 19.634H45.074L44.258 23.042H44.257ZM37.417 17.16L36.399 20.533C36.1023 21.581 35.8418 22.639 35.618 23.705H35.582C35.3664 22.6402 35.118 21.5824 34.837 20.533L33.867 17.16H31.724L31.12 26.143H32.695L32.872 22.687C32.932 21.575 32.99 20.249 33.014 19.113H33.049C33.262 20.213 33.547 21.433 33.831 22.439L34.825 26.013H36.139L37.239 22.379C37.547 21.373 37.866 20.179 38.127 19.113H38.162C38.151 20.024 38.21 21.468 38.257 22.652L38.423 26.143H40.068L39.558 17.16H37.417ZM26.137 22.214C26.185 21.574 26.54 20.711 27.369 20.711C28.221 20.711 28.493 21.539 28.481 22.214H26.138H26.137ZM30.02 23.409C30.0554 23.1821 30.0711 22.9526 30.067 22.723C30.067 20.616 29.037 19.503 27.463 19.503C25.558 19.503 24.481 21.113 24.481 22.983C24.481 25.007 25.629 26.273 27.641 26.273C28.446 26.273 29.203 26.131 29.748 25.895L29.498 24.699C29.049 24.853 28.552 24.971 27.913 24.971C26.978 24.971 26.185 24.521 26.138 23.421H30.02V23.409ZM19.26 25.835C19.698 26.095 20.385 26.273 21.095 26.273C22.716 26.273 23.651 25.457 23.651 24.213C23.651 23.314 23.142 22.687 22.041 22.226C21.296 21.906 21.048 21.729 21.048 21.362C21.048 21.007 21.332 20.746 21.852 20.746C22.338 20.746 22.799 20.936 23.083 21.089L23.415 19.87C23.035 19.67 22.468 19.503 21.805 19.503C20.361 19.503 19.426 20.391 19.426 21.563C19.426 22.273 19.876 22.959 21.083 23.456C21.793 23.764 22.018 23.966 22.018 24.368C22.018 24.77 21.722 25.018 21.118 25.018C20.586 25.018 19.935 24.782 19.604 24.581L19.26 25.835ZM16.432 23.918C16.432 24.747 15.757 25.042 15.342 25.042C14.905 25.042 14.526 24.77 14.526 24.155C14.526 23.208 15.496 22.983 16.432 22.983V23.918ZM13.615 21.184C14.098 20.8942 14.6497 20.7388 15.213 20.734C16.16 20.734 16.384 21.22 16.384 21.87C14.314 21.87 12.834 22.652 12.834 24.32C12.834 25.374 13.579 26.273 14.787 26.273C15.509 26.273 16.147 25.977 16.515 25.468H16.55L16.657 26.143H18.207C18.136 25.741 18.112 25.173 18.112 24.605V22.225C18.112 20.805 17.568 19.515 15.544 19.515C14.526 19.515 13.721 19.811 13.284 20.06L13.614 21.184H13.615ZM8.727 22.202H11.662V20.793H8.728V18.616H11.84V17.172H7V26.155H12.018V24.71H8.728V22.2L8.727 22.202Z" fill="#005999"/>
<path fill-rule="evenodd" clip-rule="evenodd" d="M18.1731 20.486C22.9301 10.876 35.9261 18.226 43.1331 11.811C35.9491 19.314 21.7351 12.982 18.1731 20.486Z" fill="#00699E"/>
<path fill-rule="evenodd" clip-rule="evenodd" d="M34.9791 6.02306L51.8441 7.42006C52.6611 7.46706 52.5301 7.63306 52.1281 8.01106L43.9031 16.0711C43.4411 16.5811 43.3341 16.4381 42.7901 15.8351L39.5701 12.1891C39.1451 11.7391 39.0741 11.6451 39.8071 11.3841L47.8081 8.80406L38.8021 10.4141C38.1271 10.5561 38.2101 10.6511 37.7361 9.97606L34.7421 6.54406C34.3631 6.13006 34.3991 5.92806 34.9791 6.02406V6.02306Z" fill="#00A3D6"/>
<path fill-rule="evenodd" clip-rule="evenodd" d="M39.8311 11.988L40.7071 12.923C41.1331 13.385 41.0151 13.396 40.5291 13.693L37.7491 14.994C37.4171 15.195 37.2041 15.03 37.4411 14.651L39.2041 11.822C39.3701 11.467 39.5591 11.657 39.8311 11.988Z" fill="#00699E"/>
<path d="M74.3669 29.09C74.4052 29.091 74.4427 29.0787 74.4729 29.055C74.5093 29.0322 74.5382 28.9991 74.5559 28.96C74.5909 28.9 74.6389 28.818 74.6979 28.688C74.7689 28.569 74.8399 28.428 74.9349 28.273L75.2189 27.812C75.3129 27.658 75.4189 27.504 75.5149 27.374C75.5934 27.2609 75.6803 27.154 75.7749 27.054C75.8579 26.972 75.9169 26.924 75.9759 26.924C76.0119 26.924 76.0359 26.936 76.0469 26.96C76.0589 26.983 76.0709 27.019 76.0829 27.054C76.0924 27.0888 76.0962 27.125 76.0939 27.161V27.244C76.0939 27.445 76.0829 27.646 76.0589 27.847C76.0354 28.0475 76.0237 28.2492 76.0239 28.451C76.0239 28.534 76.0239 28.628 76.0349 28.735C76.0469 28.842 76.0589 28.936 76.0949 29.031C76.1251 29.1191 76.1735 29.1999 76.2369 29.268C76.2959 29.327 76.3899 29.362 76.4969 29.362C76.6351 29.3582 76.7698 29.3174 76.8869 29.244C77.0289 29.161 77.1599 29.066 77.2899 28.96C77.4199 28.853 77.5499 28.735 77.6569 28.605C77.7749 28.486 77.8579 28.368 77.9289 28.285C77.9409 28.262 77.9529 28.25 77.9759 28.215C77.9893 28.1932 77.9975 28.1685 77.9999 28.143C77.9989 28.1103 77.9907 28.0782 77.9759 28.049C77.9649 28.013 77.9409 28.001 77.8939 28.001C77.8459 28.001 77.8109 28.025 77.7749 28.061C77.7399 28.108 77.7049 28.143 77.6799 28.179C77.6329 28.238 77.5739 28.309 77.4909 28.404C77.4079 28.498 77.3139 28.581 77.2189 28.676C77.1261 28.7584 77.0272 28.8337 76.9229 28.901C76.8459 28.9544 76.7563 28.9868 76.6629 28.995C76.6409 28.9963 76.6188 28.9928 76.5982 28.9847C76.5777 28.9765 76.5591 28.964 76.5439 28.948C76.5198 28.9153 76.5 28.8797 76.4849 28.842C76.4729 28.794 76.4729 28.759 76.4729 28.712V28.593C76.4729 28.333 76.4849 28.073 76.5209 27.823C76.5559 27.575 76.5679 27.315 76.5679 27.054C76.5679 26.995 76.5559 26.924 76.5439 26.865C76.5351 26.8013 76.5111 26.7406 76.4739 26.688C76.4401 26.6328 76.3959 26.5846 76.3439 26.546C76.2875 26.5084 76.2216 26.4876 76.1539 26.486C76.0426 26.489 75.935 26.5264 75.8459 26.593C75.7556 26.655 75.6722 26.7264 75.5969 26.806C75.5149 26.901 75.4319 26.996 75.3609 27.102C75.2899 27.208 75.2189 27.315 75.1479 27.41L74.8639 27.8C74.7689 27.93 74.6859 28.06 74.6039 28.202C74.5909 28.214 74.5799 28.238 74.5559 28.273C74.5319 28.309 74.5199 28.333 74.5089 28.333C74.4969 28.333 74.4849 28.309 74.4729 28.273C74.4609 28.238 74.4609 28.191 74.4609 28.131C74.4609 28.084 74.4489 28.025 74.4489 27.978V27.859C74.4489 27.729 74.4489 27.599 74.4609 27.457C74.4609 27.327 74.4729 27.197 74.4729 27.067C74.4729 27.019 74.4729 26.96 74.4609 26.901L74.4259 26.711C74.4055 26.6561 74.3775 26.6043 74.3429 26.557C74.3227 26.5371 74.2986 26.5215 74.2721 26.5114C74.2456 26.5012 74.2173 26.4967 74.1889 26.498C74.0939 26.498 73.9989 26.545 73.8929 26.64C73.7804 26.7449 73.6736 26.8557 73.5729 26.972C73.4669 27.102 73.3729 27.232 73.2899 27.362C73.2069 27.492 73.1359 27.599 73.0879 27.67C73.1119 27.54 73.1359 27.41 73.1709 27.28C73.2069 27.15 73.2419 27.019 73.2899 26.9C73.3129 26.853 73.3249 26.806 73.3599 26.735C73.3839 26.675 73.4199 26.605 73.4429 26.545C73.4669 26.475 73.4909 26.415 73.5139 26.356C73.5379 26.297 73.5379 26.238 73.5379 26.19C73.5379 26.143 73.5259 26.096 73.5029 26.072C73.4789 26.037 73.4429 26.025 73.3959 26.025C73.2934 26.027 73.1924 26.0508 73.0999 26.095C73.0019 26.1357 72.9192 26.2064 72.8639 26.297C72.8399 26.357 72.8039 26.451 72.7689 26.581C72.7329 26.723 72.6859 26.877 72.6499 27.054C72.6149 27.232 72.5679 27.421 72.5319 27.623C72.4872 27.8105 72.4519 28.0001 72.4259 28.191C72.3899 28.368 72.3659 28.534 72.3429 28.688C72.3189 28.842 72.3069 28.948 72.3069 29.019C72.3078 29.0575 72.3203 29.0948 72.3429 29.126C72.3659 29.161 72.4019 29.173 72.4489 29.173C72.4783 29.1739 72.5075 29.168 72.5343 29.1557C72.561 29.1433 72.5845 29.125 72.6029 29.102C72.6386 29.0575 72.6704 29.01 72.6979 28.96C72.7219 28.9 72.7679 28.818 72.8279 28.7C72.8879 28.581 72.9699 28.44 73.0529 28.297C73.1359 28.143 73.2299 27.989 73.3369 27.836C73.4429 27.682 73.5379 27.528 73.6329 27.398C73.7269 27.268 73.8099 27.161 73.8929 27.078C73.9759 26.995 74.0349 26.948 74.0829 26.948C74.1179 26.948 74.1419 26.972 74.1419 27.008C74.1419 27.043 74.1529 27.078 74.1529 27.09V27.599C74.1529 27.717 74.1529 27.836 74.1649 27.966C74.1649 28.096 74.1769 28.226 74.1889 28.356C74.2009 28.486 74.2129 28.605 74.2249 28.711C74.2325 28.8054 74.2562 28.8977 74.2949 28.984C74.2839 29.054 74.3189 29.09 74.3669 29.09ZM71.2179 26.983C71.3369 26.983 71.4309 27.043 71.4779 27.149C71.5379 27.267 71.5619 27.398 71.5729 27.563C71.5729 27.776 71.5499 27.966 71.5029 28.131C71.4587 28.2811 71.3948 28.4247 71.3129 28.558C71.2418 28.6624 71.1539 28.7543 71.0529 28.83C70.9733 28.8871 70.8788 28.9197 70.7809 28.924C70.6859 28.924 70.6029 28.877 70.5309 28.782C70.4609 28.688 70.4369 28.546 70.4369 28.344C70.4369 28.202 70.4609 28.049 70.4969 27.894C70.5428 27.7451 70.5979 27.5991 70.6619 27.457C70.7329 27.327 70.8159 27.208 70.9109 27.125C70.9501 27.0821 70.9974 27.0475 71.0501 27.0231C71.1028 26.9987 71.1599 26.9851 71.2179 26.983ZM69.9399 28.344C69.9399 28.652 70.0109 28.889 70.1299 29.031C70.2599 29.173 70.4139 29.256 70.5909 29.256C70.7447 29.2543 70.8954 29.2133 71.0289 29.137C71.1829 29.055 71.3129 28.937 71.4429 28.782C71.5619 28.628 71.6679 28.439 71.7509 28.214C71.8357 27.963 71.8756 27.6989 71.8689 27.434C71.8689 27.314 71.8579 27.196 71.8219 27.078C71.7971 26.978 71.7573 26.8822 71.7039 26.794C71.6522 26.7127 71.5804 26.646 71.4955 26.6005C71.4105 26.5549 71.3153 26.532 71.2189 26.534C71.0289 26.534 70.8629 26.593 70.6979 26.699C70.5439 26.818 70.4019 26.959 70.2949 27.137C70.1845 27.3188 70.0971 27.5136 70.0349 27.717C69.9761 27.9213 69.9442 28.1325 69.9399 28.345V28.344ZM68.2709 29.279C68.4729 29.279 68.6609 29.244 68.8509 29.173C69.0371 29.1088 69.2127 29.0171 69.3719 28.901C69.5343 28.7857 69.6815 28.6503 69.8099 28.498C69.9399 28.344 70.0579 28.191 70.1409 28.025C70.1551 27.9984 70.1671 27.9706 70.1769 27.942C70.1889 27.907 70.1999 27.882 70.1999 27.859C70.1999 27.789 70.1649 27.753 70.0939 27.753C70.0469 27.753 70.0109 27.776 69.9759 27.812C69.9399 27.859 69.9159 27.895 69.8929 27.93C69.818 28.0538 69.7348 28.1724 69.6439 28.285C69.5499 28.404 69.4309 28.498 69.3239 28.593C69.2077 28.6834 69.0808 28.759 68.9459 28.818C68.8159 28.878 68.6619 28.901 68.5199 28.901C68.4542 28.9029 68.3888 28.8912 68.3277 28.8668C68.2666 28.8424 68.2112 28.8057 68.1649 28.759C68.0954 28.6908 68.0463 28.6046 68.0229 28.51C67.9879 28.4071 67.9716 28.2987 67.9749 28.19C67.9762 27.9312 68.0243 27.6747 68.1169 27.433C68.1649 27.315 68.2119 27.197 68.2709 27.102C68.3309 27.007 68.3899 26.924 68.4369 26.865C68.4822 26.8184 68.5341 26.7787 68.5909 26.747C68.6446 26.7146 68.7062 26.698 68.7689 26.699C68.8509 26.699 68.8989 26.723 68.9109 26.782C68.9219 26.842 68.9339 26.901 68.9339 26.96C68.9352 27.054 68.915 27.147 68.8749 27.232C68.8366 27.2881 68.8157 27.3542 68.8149 27.422C68.8149 27.469 68.8399 27.492 68.8869 27.492C68.9459 27.492 69.0049 27.469 69.0639 27.422C69.1304 27.3529 69.1755 27.2661 69.1939 27.172C69.2179 27.066 69.2299 26.983 69.2299 26.901C69.2299 26.711 69.1829 26.581 69.0759 26.498C68.9809 26.415 68.8399 26.38 68.6739 26.38C68.5319 26.38 68.3899 26.415 68.2709 26.463C68.0438 26.576 67.8548 26.753 67.7269 26.972C67.6559 27.078 67.6089 27.196 67.5609 27.315C67.5145 27.4387 67.4751 27.5649 67.4429 27.693C67.4189 27.823 67.4069 27.953 67.4069 28.096C67.4069 28.273 67.4309 28.451 67.4899 28.616C67.5387 28.7782 67.6282 28.9252 67.7499 29.043C67.8099 29.102 67.8929 29.161 67.9749 29.197C68.0469 29.256 68.1529 29.279 68.2709 29.279ZM66.2359 29.126C66.3419 29.126 66.4129 29.09 66.4489 29.019C66.4836 28.9411 66.4997 28.8562 66.4959 28.771C66.4965 28.7341 66.4882 28.6975 66.4717 28.6644C66.4551 28.6313 66.4309 28.6027 66.4009 28.581C66.3452 28.532 66.2749 28.5029 66.2009 28.498C66.1049 28.498 66.0459 28.534 66.0109 28.617C65.9784 28.6914 65.9624 28.7719 65.9639 28.853C65.9621 28.8906 65.9686 28.9282 65.9827 28.963C65.9969 28.9979 66.0184 29.0293 66.0459 29.055C66.0819 29.102 66.1529 29.125 66.2359 29.125V29.126Z" fill="#383330"/>
</g>
<defs>
<clipPath id="clip0_3399_2156">
<rect width="71" height="24" fill="white" transform="translate(7 6)"/>
</clipPath>
</defs>
</svg>
