<svg width="49" height="15" viewBox="0 0 49 15" fill="none" xmlns="http://www.w3.org/2000/svg">
<g clip-path="url(#clip0_6_149)">
<path fill-rule="evenodd" clip-rule="evenodd" d="M18.35 0.0700073C19.06 0.0700073 19.63 0.590007 19.63 1.23001C19.63 1.87001 19.06 2.39001 18.35 2.39001C17.64 2.39001 17.06 1.87001 17.06 1.23001C17.06 0.590007 17.64 0.0700073 18.35 0.0700073ZM17.28 3.53001H19.45V10.78H17.28V3.53001Z" fill="#1268B3"/>
<path fill-rule="evenodd" clip-rule="evenodd" d="M5.35 7.62C5.09 10.01 1.9 9.88 2.33 6.72C2.46 5.74 3.12 4.82 4.29 5.14C5.24 5.39 5.47 6.46 5.35 7.63V7.62ZM5.33 9.77C5.57 12.58 3.3 13 1.38 12.28C1.13 12.19 0.9 12.03 0.67 11.95V13.78C0.87 14.05 2.05 14.2 2.47 14.23C4.38 14.34 6.3 13.89 7.15 12.14C7.73 10.97 7.59 9.47 7.59 8.05V3.5H5.34V4.36C5.11 4.19 4.86 3.54 3.77 3.37C3.02 3.25 2.21 3.43 1.67 3.77C0.66 4.4 0.01 5.57 0 7.26C0 8.93 0.59 10.16 1.69 10.69C2.29 10.98 3.16 11.07 3.87 10.87C4.86 10.58 5.11 9.94 5.33 9.76V9.77Z" fill="#F36C21"/>
<path fill-rule="evenodd" clip-rule="evenodd" d="M38.18 7.58C38.1 8.11 37.91 8.57 37.64 8.85C37.37 9.12 36.81 9.34 36.26 9.21C35.11 8.95 35.11 7.64 35.17 6.72C35.24 5.74 35.97 4.87 37.1 5.12C38.07 5.34 38.35 6.48 38.19 7.58H38.18ZM32.94 10.81H35.19V9.96C35.35 10.05 35.65 10.76 36.75 10.95C37.51 11.08 38.34 10.91 38.89 10.56C39.9 9.9 40.49 8.77 40.53 7.06C40.56 5.43 39.99 4.1 38.87 3.59C37.95 3.17 36.62 3.26 35.82 3.94C35.56 4.16 35.25 4.58 35.2 4.61C35.18 3.91 35.25 0.31 35.18 0H32.96C32.89 0.3 32.94 4.68 32.94 5.37V10.81ZM26.03 7.58C25.73 9.74 23.67 9.6 23.16 8.38C22.98 7.94 22.98 7.24 23.02 6.71C23.08 5.72 23.83 4.86 24.95 5.12C25.91 5.34 26.19 6.45 26.03 7.58ZM20.79 10.81H23.04V9.96C23.23 10.09 23.19 10.23 23.68 10.58C25.05 11.55 28.3 11.01 28.38 7.05C28.41 5.42 27.85 4.07 26.7 3.57C25.62 3.1 24.12 3.3 23.35 4.24C23.27 4.34 23.13 4.54 23.05 4.6V0.01H20.79V10.81ZM44.98 9.24C43.71 9.24 43.25 8.45 43.25 7.16C43.25 5.93 43.76 5.08 44.98 5.08C46.3 5.08 46.55 6.14 46.55 7.26C46.55 8.38 46.1 9.23 44.98 9.23V9.24ZM40.98 7.73C41.21 9.98 42.98 11.23 45.48 10.96C47.7 10.72 49.06 9.06 48.82 6.57C48.38 1.93 40.4 2.13 40.97 7.73H40.98Z" fill="#1268B3"/>
<path fill-rule="evenodd" clip-rule="evenodd" d="M10.77 7.62C10.48 4.83 12.67 4.76 13.48 5.42C14.27 6.07 14.45 8.87 12.84 9.21C12.29 9.33 11.65 9.18 11.34 8.9C11.01 8.6 10.83 8.2 10.77 7.62ZM11.94 3.37C9.66 3.6 8.26 5.12 8.47 7.64C8.66 9.93 10.39 11.19 12.86 10.97C15.15 10.77 16.5 9.17 16.33 6.68C16.18 4.43 14.37 3.13 11.93 3.37H11.94Z" fill="#F36C21"/>
<path d="M37.06 14.27C37.06 14.12 37.11 14 37.2 13.89C37.29 13.78 37.41 13.73 37.54 13.73C37.67 13.73 37.79 13.78 37.88 13.89C37.98 14 38.02 14.12 38.02 14.27C38.02 14.42 37.97 14.55 37.88 14.65C37.79 14.75 37.67 14.81 37.54 14.81C37.41 14.81 37.29 14.76 37.2 14.65C37.1 14.55 37.06 14.42 37.06 14.27ZM40.71 13.97V14.62C40.39 14.75 40.11 14.81 39.84 14.81C39.39 14.81 39.03 14.68 38.76 14.4C38.49 14.13 38.35 13.77 38.35 13.33C38.35 12.89 38.49 12.54 38.76 12.25C39.03 11.97 39.38 11.83 39.8 11.83C40.07 11.83 40.36 11.89 40.66 12.02V12.69C40.4614 12.5677 40.2332 12.502 40 12.5C39.76 12.5 39.57 12.58 39.42 12.73C39.27 12.88 39.2 13.08 39.2 13.33C39.2 13.58 39.27 13.79 39.41 13.95C39.55 14.11 39.74 14.18 39.97 14.18C40.14 14.18 40.38 14.11 40.69 13.98L40.71 13.97ZM42.4 11.83C42.8 11.83 43.14 11.96 43.42 12.22C43.7 12.48 43.84 12.85 43.84 13.32C43.84 13.79 43.7 14.16 43.41 14.42C43.13 14.68 42.79 14.81 42.39 14.81C41.96 14.81 41.62 14.67 41.34 14.4C41.07 14.12 40.93 13.76 40.93 13.32C40.93 12.88 41.07 12.51 41.34 12.24C41.62 11.97 41.96 11.83 42.38 11.83H42.4ZM42.4 14.28C42.78 14.28 42.98 13.95 42.98 13.3C42.98 12.65 42.79 12.37 42.4 12.37C42.22 12.37 42.07 12.45 41.97 12.62C41.87 12.78 41.81 13.02 41.81 13.33C41.81 13.97 42.01 14.29 42.4 14.29V14.28ZM45.03 11.89V12.26C45.3 11.98 45.6 11.83 45.92 11.83C46.36 11.83 46.67 12.03 46.84 12.44C47.15 12.03 47.49 11.83 47.85 11.83C48.15 11.83 48.39 11.93 48.57 12.13C48.76 12.33 48.85 12.59 48.85 12.91V14.75H48.04V13.07C48.04 12.87 48 12.71 47.91 12.6C47.8701 12.5452 47.8172 12.501 47.7562 12.4713C47.6952 12.4417 47.6278 12.4275 47.56 12.43C47.32 12.43 47.11 12.59 46.92 12.91V14.74H46.11V13.04C46.11 12.84 46.07 12.69 45.98 12.58C45.9367 12.5271 45.8815 12.485 45.819 12.4572C45.7565 12.4295 45.6883 12.4167 45.62 12.42C45.41 12.42 45.2 12.55 45.01 12.82V14.74H44.2V11.88H45.01L45.03 11.89Z" fill="#231F20"/>
<path fill-rule="evenodd" clip-rule="evenodd" d="M30.54 0.0700073C31.25 0.0700073 31.82 0.590007 31.82 1.23001C31.82 1.87001 31.25 2.39001 30.54 2.39001C29.83 2.39001 29.25 1.87001 29.25 1.23001C29.25 0.590007 29.83 0.0700073 30.54 0.0700073ZM29.47 3.53001H31.64V10.78H29.47V3.53001Z" fill="#1268B3"/>
</g>
<defs>
<clipPath id="clip0_6_149">
<rect width="48.86" height="14.81" fill="white"/>
</clipPath>
</defs>
</svg>
