<svg width="74" height="32" viewBox="0 0 74 32" fill="none" xmlns="http://www.w3.org/2000/svg">
<mask id="mask0_4880_2360" style="mask-type:alpha" maskUnits="userSpaceOnUse" x="0" y="0" width="74" height="32">
<rect width="74" height="32" fill="#C4C4C4"/>
</mask>
<g mask="url(#mask0_4880_2360)">
</g>
<g clip-path="url(#clip0_4880_2360)">
<path fill-rule="evenodd" clip-rule="evenodd" d="M28.3178 28.8913V25.0101H29.6683V28.8913H28.3178ZM31.7845 26.6791H32.3866C32.599 26.6791 32.7451 26.6529 32.8252 26.6005C32.9053 26.5481 32.947 26.4532 32.947 26.3191C32.947 26.1849 32.9053 26.0867 32.8252 26.0344C32.7451 25.982 32.5885 25.9558 32.3553 25.9558H31.7845V26.6823V26.6791ZM30.4758 28.8945V25.0133H32.4528C33.0723 25.0133 33.5144 25.1017 33.7789 25.2751C34.0434 25.4486 34.1757 25.7333 34.1757 26.1325C34.1757 26.3714 34.12 26.5645 34.0121 26.7216C33.9042 26.8787 33.7371 27.003 33.5109 27.0947C33.7406 27.1405 33.9077 27.2321 34.0121 27.3663C34.1165 27.5004 34.1722 27.6968 34.1792 27.9586L34.2 28.4986V28.5116C34.207 28.6655 34.2453 28.7473 34.3184 28.7538V28.8978H32.9818C32.9575 28.8029 32.9401 28.7244 32.9261 28.6524C32.9122 28.5836 32.9087 28.528 32.9087 28.492V28.1059C32.9087 27.9062 32.867 27.7655 32.7834 27.6837C32.6999 27.6019 32.5537 27.5626 32.3449 27.5626H31.781V28.9011H30.4723L30.4758 28.8945ZM37.5345 27.3859H38.791C38.7527 27.8964 38.5613 28.2924 38.2167 28.5771C37.8721 28.8585 37.4022 28.9992 36.814 28.9992C36.1527 28.9992 35.6306 28.816 35.2512 28.4527C34.8718 28.0895 34.6804 27.5888 34.6804 26.9539C34.6804 26.3191 34.8683 25.8217 35.2442 25.4584C35.6201 25.0919 36.1318 24.9119 36.7792 24.9119C37.3779 24.9119 37.8477 25.0493 38.1889 25.321C38.53 25.5926 38.7249 25.9787 38.7632 26.4827H37.4927C37.4718 26.2831 37.4057 26.1358 37.2874 26.0344C37.169 25.9329 37.0054 25.8838 36.7896 25.8838C36.5286 25.8838 36.3337 25.9722 36.2049 26.1522C36.0761 26.3322 36.01 26.6005 36.01 26.9605C36.01 27.3205 36.0796 27.5823 36.2188 27.7622C36.358 27.9422 36.5599 28.0339 36.8279 28.0339C37.0333 28.0339 37.1969 27.9782 37.3152 27.867C37.437 27.7557 37.5066 27.5986 37.5275 27.3925L37.5345 27.3859ZM40.2181 28.8913V26.0344H39.0277V25.0101H42.7067V26.0344H41.5442V28.8913H40.2181ZM45.8358 27.3859H47.0923C47.054 27.8964 46.8626 28.2924 46.518 28.5771C46.1734 28.8585 45.7035 28.9992 45.1153 28.9992C44.454 28.9992 43.9319 28.816 43.5525 28.4527C43.1731 28.0895 42.9817 27.5888 42.9817 26.9539C42.9817 26.3191 43.1696 25.8217 43.5455 25.4584C43.9214 25.0919 44.4331 24.9119 45.0805 24.9119C45.6792 24.9119 46.1491 25.0493 46.4902 25.321C46.8313 25.5926 47.0262 25.9787 47.0645 26.4827H45.794C45.7731 26.2831 45.707 26.1358 45.5887 26.0344C45.4703 25.9329 45.3067 25.8838 45.0909 25.8838C44.8299 25.8838 44.635 25.9722 44.5062 26.1522C44.3774 26.3322 44.3113 26.6005 44.3113 26.9605C44.3113 27.3205 44.3809 27.5823 44.5201 27.7622C44.6593 27.9422 44.8612 28.0339 45.1292 28.0339C45.3346 28.0339 45.4982 27.9782 45.6165 27.867C45.7383 27.7557 45.808 27.5986 45.8288 27.3925L45.8358 27.3859ZM47.6979 13.9065C49.1076 18.8021 46.7756 20.9227 42.4248 20.0981C42.0628 20.9751 41.6938 21.8456 41.1091 22.6015C48.0564 24.2443 50.8618 19.4436 47.6979 13.9065ZM33.9877 11.2198H36.9497C37.7607 11.4096 38.248 11.8088 38.4638 12.2702C38.5787 12.5189 38.6204 12.7906 38.5926 13.0589C38.5648 13.3305 38.4638 13.5989 38.2968 13.841C37.9417 14.3581 37.2874 14.7442 36.3963 14.7606C35.8742 14.6755 35.6132 15.1991 36.0552 15.5984L39.0207 18.1869H33.9877C33.8381 18.1869 33.7128 18.0724 33.7128 17.9284V11.4783C33.7128 11.3376 33.8346 11.2198 33.9877 11.2198ZM38.9476 11.2198H41.0116C41.1613 11.2198 41.2866 11.3343 41.2866 11.4783V17.9284C41.2866 18.0691 41.1648 18.1869 41.0116 18.1869H40.5313L37.5136 15.5558C38.2376 15.3268 38.798 14.8915 39.1599 14.3646C39.414 13.9948 39.5672 13.5792 39.6124 13.1538C39.6577 12.7251 39.5915 12.2899 39.4036 11.8874C39.29 11.6446 39.1361 11.4204 38.9476 11.223V11.2198ZM31.774 6.93607C35.5784 3.34286 38.697 4.17735 40.1136 8.1338C41.1021 7.98981 42.0906 7.85564 43.0757 7.95381C41.1161 1.47754 35.2895 1.59207 31.774 6.93607ZM33.2046 23.2855C27.9906 21.9863 27.2005 19.0279 30.1382 15.8962C29.5116 15.1631 28.8956 14.4268 28.4883 13.5727C23.5041 18.4062 26.5218 23.0957 33.2046 23.2855Z" fill="#2E3192"/>
<path d="M47.6979 13.9065C49.1076 18.8021 46.7756 20.9227 42.4248 20.0981C42.0628 20.9751 41.6938 21.8456 41.1091 22.6015C48.0564 24.2443 50.8618 19.4436 47.6979 13.9065ZM33.9877 11.2198H36.9497C37.7607 11.4096 38.248 11.8088 38.4638 12.2702C38.5787 12.5189 38.6204 12.7906 38.5926 13.0589C38.5648 13.3305 38.4638 13.5989 38.2968 13.841C37.9417 14.3581 37.2874 14.7442 36.3963 14.7606C35.8742 14.6755 35.6132 15.1991 36.0552 15.5984L39.0207 18.1869H33.9877C33.8381 18.1869 33.7128 18.0724 33.7128 17.9284V11.4783C33.7128 11.3376 33.8346 11.2198 33.9877 11.2198V11.2198ZM38.9476 11.2198H41.0116C41.1613 11.2198 41.2866 11.3343 41.2866 11.4783V17.9284C41.2866 18.0691 41.1648 18.1869 41.0116 18.1869H40.5313L37.5136 15.5558C38.2376 15.3267 38.798 14.8915 39.1599 14.3646C39.414 13.9948 39.5672 13.5792 39.6124 13.1538C39.6577 12.7251 39.5915 12.2899 39.4036 11.8874C39.29 11.6446 39.1361 11.4204 38.9476 11.223V11.2198ZM31.774 6.93606C35.5784 3.34286 38.697 4.17735 40.1136 8.1338C41.1021 7.98981 42.0906 7.85564 43.0757 7.95381C41.1161 1.47754 35.2895 1.59208 31.774 6.93606ZM33.2046 23.2855C27.9906 21.9863 27.2005 19.0279 30.1382 15.8962C29.5116 15.1631 28.8956 14.4268 28.4883 13.5727C23.5041 18.4062 26.5218 23.0957 33.2046 23.2855Z" stroke="#231F20" stroke-width="0.04" stroke-miterlimit="2.61"/>
<path fill-rule="evenodd" clip-rule="evenodd" d="M27.3291 11.5313C32.8529 8.45189 39.386 7.3687 45.9052 8.20318C45.9435 14.2671 43.9143 19.4998 39.8246 23.9014C34.3321 21.2703 30.1658 17.2156 27.3291 11.5313ZM28.509 13.5668C32.6858 10.1503 38.0494 8.28172 43.7159 8.03956C44.7462 13.1774 43.8899 17.9127 41.1437 22.2389C36.0516 20.8056 31.8504 17.9716 28.509 13.5668Z" fill="#D1D3D4"/>
</g>
<defs>
<clipPath id="clip0_4880_2360">
<rect width="23" height="26" fill="white" transform="translate(26 3)"/>
</clipPath>
</defs>
</svg>
