<svg width="74" height="32" viewBox="0 0 74 32" fill="none" xmlns="http://www.w3.org/2000/svg">
<mask id="mask0_4579_2156" style="mask-type:alpha" maskUnits="userSpaceOnUse" x="0" y="0" width="74" height="32">
<rect width="74" height="32" fill="#C4C4C4"/>
</mask>
<g mask="url(#mask0_4579_2156)">
<path d="M52.2275 10.8849C51.912 9.8172 51.3745 8.45862 50.3638 7.35858C49.9536 6.90612 49.2899 6.32319 48.3738 6.25855L47.9006 6.19391C46.3208 6.09696 44.6791 6 43.0677 6C41.5826 6 40.004 6.06464 38.0772 6.22623C36.5605 6.35551 34.761 6.5171 32.9604 6.84148C31.1282 7.16467 29.2645 7.58601 27.5269 8.00616C26.2638 8.32934 25.0638 8.783 23.9899 9.39706C23.0107 9.94767 22.4101 10.7556 22.2208 11.791C22.0946 12.4386 22 13.0527 22 13.7002C22 15.1893 22.1577 16.7741 22.5375 18.5217C22.7583 19.5571 23.0107 20.6248 23.2643 21.6602C23.3905 22.2432 23.5482 22.8249 23.6744 23.3755C23.8953 24.2816 24.5905 24.2816 24.8745 24.217C25.2531 24.1524 25.6328 24.12 26.0114 24.0554H26.1376C26.4215 24.0231 26.7382 23.9908 27.0221 23.9584C27.2114 24.7999 27.6543 25.5109 28.2537 26.0616C28.9805 26.6768 29.8335 27 30.7169 27C30.8431 27 31.0008 27 31.127 26.9677C32.1693 26.8384 33.0854 26.3524 33.7491 25.5109C34.2866 24.8311 34.5705 23.9584 34.6021 23.0523L41.3302 22.2755C41.4249 23.2786 41.8362 24.1847 42.5302 24.8646C43.3517 25.6737 44.4886 26.0616 45.6256 25.9C46.6678 25.7707 47.5524 25.2847 48.1845 24.4444C48.8798 23.5383 49.1322 22.5029 48.9744 21.3706L49.2899 21.3382C49.9852 21.2413 50.6792 21.1766 51.3745 21.112C51.9435 21.0474 52.1644 20.6272 52.2275 20.4968C52.6692 19.5583 52.8912 18.4906 52.9543 17.132C53.112 14.9966 52.8596 12.8935 52.2275 10.8873V10.8849ZM50.9643 17.0003C50.9328 17.5186 50.8066 18.0357 50.712 18.5864C50.6804 18.7803 50.6489 18.9419 50.5858 19.1358C49.7328 19.2327 48.8798 19.3297 48.1226 19.4266C47.2696 18.3589 46.0065 17.8083 44.7106 17.9699C43.4475 18.1315 42.3421 18.9083 41.71 20.1053C40.9832 20.17 40.2564 20.2669 39.5307 20.3639L38.1403 20.5255C37.3504 20.6224 36.5932 20.7194 35.8033 20.8163C35.5509 20.8487 35.2658 20.881 35.0134 20.9133C34.6979 20.9456 34.4128 20.9779 34.0973 21.0103C33.2443 19.587 31.9496 18.8748 30.3067 19.0041C28.8543 19.1011 27.4638 20.3304 27.0537 21.8194C26.5805 21.8517 26.0745 21.9164 25.4424 22.0133C25.3162 21.3981 25.1584 20.8163 25.0322 20.2011C24.8429 19.3273 24.6536 18.4535 24.4632 17.5797C24.5263 17.612 24.6209 17.6443 24.7156 17.6443C24.9048 17.6443 25.0626 17.6766 25.2531 17.6766H26.39V14.4735H26.4215C26.6108 14.4412 26.8317 14.4735 27.0537 14.4735C26.9906 15.1534 27.0852 15.8321 27.4007 16.3827C27.9698 17.3858 28.9805 17.7413 29.9282 17.7413C30.5288 17.7413 31.1282 17.612 31.5395 17.3858C31.855 17.2242 31.9812 16.901 32.0139 16.6412V16.2857C32.2978 16.901 32.7722 17.3535 33.3401 17.5797C33.9092 17.7736 34.5402 17.7413 35.1408 17.4504C35.4878 17.7413 35.9307 17.6766 36.1515 17.6766H36.3408L36.814 17.7413H37.4777C37.7932 17.7413 38.0783 17.7413 38.3938 17.709C39.1206 17.709 39.8778 17.6766 40.6046 17.612C41.2367 17.5474 41.7415 17.1583 42.057 16.6089C42.2778 17.1919 42.7523 17.5797 43.4463 17.709C43.5725 17.7413 43.7303 17.7413 43.8565 17.7413C44.172 17.7413 44.4571 17.6766 44.7095 17.5474V17.6766H46.0988C46.4143 17.709 46.6363 17.612 46.8256 17.4504L46.8571 17.4181L47.1411 17.4827C47.2673 17.515 47.3935 17.5474 47.5208 17.5797C47.8048 17.6443 48.1203 17.709 48.4369 17.7413C48.5947 17.7736 48.7524 17.7736 48.8786 17.7736C49.4792 17.7736 49.9524 17.612 50.3941 17.2888C50.615 17.0949 50.8043 16.8687 50.9632 16.6412V16.9968L50.9643 17.0003ZM45.2154 23.828C44.2047 23.828 43.4148 23.0511 43.4148 21.9834C43.4148 20.9157 44.2047 20.1389 45.1839 20.1389C45.6571 20.1389 46.1315 20.3328 46.4785 20.6883C46.8256 21.0438 47.0149 21.4974 47.0149 21.9822C47.0149 23.0176 46.225 23.8268 45.2142 23.8268L45.2154 23.828ZM28.9805 22.8895C29.0121 22.4371 29.2329 21.9834 29.5811 21.6602C29.9282 21.3694 30.3395 21.2078 30.7496 21.2078H30.8758C32.0443 21.3047 32.5502 22.2432 32.5502 23.117C32.5502 23.5706 32.3609 24.0231 32.0127 24.3786C31.6341 24.7341 31.1597 24.9292 30.6865 24.8969C30.2121 24.8646 29.7704 24.6383 29.4234 24.2816C29.1079 23.8926 28.9501 23.4078 28.9817 22.8907L28.9805 22.8895ZM24.7798 11.3697C25.5697 10.8526 26.4858 10.5282 27.3072 10.2697C29.2025 9.65441 31.2556 9.20195 33.6556 8.84644C35.3931 8.58789 36.9087 8.4263 38.3307 8.32934C40.3522 8.20007 42.3737 8.10311 44.332 8.10311C45.3112 8.10311 46.322 8.16775 47.3012 8.26471C47.5851 8.26471 47.8702 8.29702 48.1541 8.32934C48.4065 8.36166 48.6589 8.49094 48.9756 8.87996C49.4804 9.46289 49.8601 10.1739 50.2072 11.2416C50.3018 11.5325 50.3965 11.8569 50.4911 12.1801C50.3965 12.1154 50.3018 12.0831 50.2072 12.0508L50.1125 12.0185C49.7655 11.9538 49.3857 11.8892 48.9756 11.8892C48.2488 11.8892 47.6494 12.1801 47.175 12.6984C47.1434 12.7307 47.1434 12.763 47.1119 12.763L47.0488 12.1477H44.7433V15.3186C44.7118 15.3186 44.6802 15.3509 44.5856 15.3832C44.5225 15.4155 44.4594 15.4155 44.4279 15.3832C44.4279 15.3509 44.3963 15.3186 44.3963 15.2216V12.86L44.3017 12.1477H42.2171C42.1855 11.8892 42.1224 11.663 42.0278 11.4355C41.7439 10.8526 41.2379 10.4648 40.5742 10.4001C39.8486 10.3032 39.1218 10.3355 38.4265 10.3355C38.1426 10.3355 37.8271 10.3678 37.5104 10.3678H37.1003V10.3032H34.7318V11.9861C33.5949 11.8892 32.7103 12.3093 32.1728 13.2155C31.8573 12.6002 31.3829 12.2124 30.7519 12.0185C29.7727 11.6953 28.762 11.9215 28.0037 12.5691C27.8775 12.2782 27.6251 12.0508 27.34 12.0185C26.9614 11.9538 26.6132 11.9861 26.2977 12.1154V12.0185L24.2762 12.1477C24.2762 12.0831 24.3078 12.0185 24.3078 11.9538C24.3393 11.8246 24.4024 11.5983 24.781 11.3709L24.7798 11.3697ZM50.8697 14.282C50.8697 14.3466 50.8697 14.3789 50.9013 14.4436C50.9013 14.4436 50.9013 14.4113 50.8697 14.4113V14.282ZM41.8046 13.7326C41.8362 13.6679 41.8993 13.6033 41.9308 13.5386C41.9624 13.5063 41.9624 13.474 41.9939 13.4417V13.8942C41.9308 13.8295 41.8677 13.7649 41.8046 13.7326ZM39.6569 12.9234H39.4361V12.5356H39.6254C39.6254 12.5679 39.6569 12.6325 39.6569 12.7941C39.6885 12.8911 39.6569 12.9234 39.6569 12.9234ZM39.4361 14.8326C39.5623 14.8326 39.6885 14.8326 39.8147 14.8649C39.9093 14.8649 39.9093 15.0911 39.9093 15.1558C39.9093 15.382 39.8778 15.382 39.7516 15.4143H39.4046V14.8326H39.4361ZM34.7295 15.3832C34.6033 15.4478 34.4771 15.4478 34.414 15.3832C34.3193 15.3186 34.2562 15.1893 34.2562 15.0277C34.2247 14.7692 34.2562 14.5106 34.2878 14.2832C34.2878 14.2185 34.3193 14.1862 34.3824 14.1539C34.414 14.1539 34.4771 14.1216 34.5402 14.1216C34.6033 14.1216 34.6664 14.1216 34.7295 14.1539V15.3832Z" fill="white"/>
<path d="M33.9711 22.4681C34.1919 24.6036 32.8026 26.1249 31.0966 26.3189C30.2121 26.4158 29.3906 26.1249 28.6966 25.542C28.0013 24.9591 27.6543 24.1834 27.5596 23.245C27.0549 23.3096 26.5489 23.3419 26.0745 23.4066C25.6328 23.4712 25.19 23.5035 24.7483 23.5682C24.4328 23.6328 24.3381 23.5035 24.275 23.2115C23.8964 21.5943 23.4851 20.0083 23.1381 18.3577C22.8226 16.8052 22.6333 15.2515 22.6333 13.6978C22.6333 13.1149 22.728 12.5008 22.8542 11.9179C23.0119 11.0441 23.5494 10.3965 24.3078 9.97635C25.3816 9.3611 26.5185 8.94096 27.687 8.65009C29.4561 8.19762 31.2567 7.77628 33.0562 7.48541C34.7306 7.19455 36.4354 7.03295 38.1414 6.87016C39.7843 6.74089 41.426 6.64393 43.0689 6.64393C44.838 6.64393 46.5743 6.77321 48.3434 6.87016C48.9756 6.90248 49.4804 7.29031 49.9232 7.77628C50.7762 8.71472 51.2494 9.84708 51.6292 11.0764C52.2298 13.0179 52.4822 15.0564 52.356 17.0949C52.2929 18.1626 52.1351 19.2303 51.6923 20.2334C51.6292 20.395 51.5346 20.4596 51.3441 20.4919L48.6905 20.7828C48.5643 20.8151 48.4065 20.8151 48.2476 20.8474C48.5947 22.0121 48.4685 23.1121 47.7113 24.0506C47.1738 24.7628 46.4481 25.1506 45.5952 25.2476C43.763 25.4738 41.8361 24.0182 41.9939 21.5261C39.3087 21.8493 36.6563 22.1737 33.9711 22.4646V22.4681ZM23.3578 13.8618C23.484 15.0588 23.5471 16.1265 23.7364 17.1942C24.0519 18.9418 24.4947 20.6236 24.8733 22.3712C24.9364 22.7279 25.0941 22.7279 25.3793 22.6944C25.9798 22.5974 26.6108 22.5328 27.2114 22.4681C27.4638 22.4358 27.59 22.3712 27.6216 22.1126C27.9055 20.851 29.1067 19.7833 30.3383 19.6863C31.8223 19.5571 32.8961 20.2034 33.6229 21.4986C33.7175 21.6602 33.7806 21.7248 33.9699 21.6925C34.6021 21.6279 35.2331 21.5632 35.8652 21.4663C36.8444 21.337 37.792 21.24 38.7712 21.1108C39.8135 20.9815 40.8558 20.8522 41.9296 20.7552C42.1189 20.7229 42.182 20.6583 42.2767 20.4967C43.319 18.2643 46.1934 17.9411 47.7101 19.8814C47.8363 20.043 47.931 20.0754 48.1202 20.0754C49.0363 19.9784 49.9209 19.8491 50.837 19.751C51.0263 19.7187 51.1525 19.654 51.184 19.4601C51.3417 18.6509 51.5626 17.8741 51.5941 17.0338C51.7203 14.963 51.4364 12.9569 50.8042 11.0153C50.4888 10.0769 50.109 9.2031 49.4465 8.45857C49.0994 8.07074 48.7208 7.74636 48.2149 7.68172C46.9202 7.58477 45.6255 7.45549 44.3297 7.45549C42.3082 7.45549 40.2867 7.55245 38.2968 7.68172C36.717 7.77868 35.1384 7.97259 33.5902 8.19882C31.411 8.52201 29.2317 8.97567 27.1472 9.65436C26.2311 9.94523 25.2834 10.3019 24.462 10.8514C24.0834 11.1099 23.7983 11.402 23.7036 11.8544C23.5459 12.5343 23.4513 13.2453 23.3566 13.8606L23.3578 13.8618ZM45.2154 24.4743C46.5732 24.4743 47.647 23.3743 47.647 22.0157C47.647 20.6571 46.5416 19.5247 45.1839 19.5247C43.8261 19.5247 42.7838 20.6248 42.7838 22.0157C42.7838 23.4066 43.8576 24.4743 45.2166 24.4743H45.2154ZM33.2128 23.0834C33.2128 21.7571 32.3598 20.6248 30.9704 20.5278C29.6442 20.4309 28.443 21.4986 28.3799 22.8248C28.3168 24.2493 29.3276 25.4127 30.6853 25.5109C32.0116 25.6078 33.2128 24.4755 33.2128 23.0846V23.0834Z" fill="#C9323E"/>
<path d="M37.5408 10.9818C38.5516 10.9818 39.5307 10.8849 40.5099 11.0141C41.6784 11.1757 41.8046 12.502 41.426 13.2142C41.2683 13.4728 40.9528 13.6344 40.7623 13.8295C40.8885 13.8941 41.0463 13.9587 41.204 14.0557C41.7403 14.4112 41.9939 14.9295 41.8362 15.674C41.71 16.3539 41.2987 16.871 40.6361 16.968C39.6254 17.0972 38.5831 17.0649 37.5724 17.0972C37.5408 14.9618 37.5408 12.9557 37.5408 10.9818ZM38.8039 16.0295C39.151 16.0295 39.4992 16.0618 39.8462 16.0295C40.3195 15.9649 40.5415 15.674 40.5415 15.1557C40.5415 14.6374 40.3206 14.2496 39.8778 14.185C39.5307 14.1527 39.151 14.185 38.8039 14.185V16.0295ZM38.8039 11.9203V13.6032H39.6254C40.0682 13.6032 40.2891 13.3124 40.3206 12.891C40.3522 12.3404 40.0998 11.9849 39.6885 11.9526C39.373 11.8879 39.1194 11.9203 38.8039 11.9203ZM36.4985 17.0003C36.0884 16.968 35.614 17.2265 35.3931 16.6125C35.2354 16.6771 35.1408 16.7417 35.0146 16.8064C34.0669 17.3247 33.0562 17.0003 32.646 15.9972C32.299 15.188 32.299 14.3789 32.7091 13.6032C33.2139 12.6971 34.13 12.5032 35.0777 12.6971C35.1723 12.7294 35.2354 12.7617 35.3931 12.7941V10.9495H36.4985V17.0003ZM35.3616 14.7679V14.0234C35.3616 13.9264 35.33 13.8295 35.2985 13.7648C34.8568 13.377 33.8461 13.377 33.6872 14.1526C33.6241 14.4435 33.5925 14.7679 33.6241 15.0911C33.6872 15.9326 34.3824 16.3204 35.1092 15.9326C35.2985 15.8356 35.4247 15.7063 35.3931 15.4801C35.33 15.2216 35.3616 14.9953 35.3616 14.7679ZM31.9812 15.0911H28.9174C28.949 15.6417 29.3276 16.0942 29.8966 16.0618C30.4026 16.0295 30.9073 15.9326 31.4448 15.8356V16.6125C31.4448 16.6771 31.3817 16.7741 31.3502 16.8064C30.4341 17.2588 28.7281 17.3247 28.0025 16.0618C27.5608 15.2527 27.6239 14.0557 28.1602 13.3435C28.7293 12.599 29.6769 12.3081 30.5918 12.599C31.2871 12.8252 31.6657 13.3758 31.855 14.0868C31.9181 14.41 31.9181 14.7021 31.9812 15.0899V15.0911ZM30.8127 14.5082C30.8758 14.0234 30.4026 13.5051 29.8966 13.5051C29.296 13.4728 28.8859 13.8606 28.8859 14.5082H30.8127ZM45.3732 17.0326C45.3416 16.871 45.3416 16.7417 45.3416 16.5789C45.1839 16.6759 45.0261 16.7405 44.8987 16.8052C44.5202 16.9991 44.1089 17.1607 43.6672 17.0637C43.0677 16.9345 42.688 16.5778 42.6564 15.9314C42.6249 14.896 42.6564 13.8606 42.6564 12.7929H43.7618V15.2192C43.7618 15.8344 44.1089 16.1253 44.7095 15.996C45.2154 15.8991 45.3732 15.6728 45.3732 15.1222V12.7929H46.4785C46.4785 12.8898 46.5101 13.0191 46.5101 13.1161V16.6747C46.5101 16.9333 46.447 17.0302 46.163 17.0302C45.8791 16.9979 45.6267 17.0302 45.3732 17.0302V17.0326ZM47.3 16.8387V15.8356C47.8059 15.9326 48.3107 16.0295 48.8167 16.0942C48.9429 16.1265 49.1006 16.0942 49.1953 16.0295C49.3215 15.9326 49.5107 15.771 49.5423 15.6417C49.5423 15.5124 49.3845 15.2862 49.2268 15.2539C48.9113 15.1569 48.5631 15.1246 48.2476 15.06C47.3631 14.8661 47.0476 13.766 47.6482 13.0861C47.9952 12.666 48.4381 12.5032 48.9744 12.5032C49.353 12.5032 49.7328 12.5678 50.1113 12.6325C50.1744 12.6325 50.2691 12.7617 50.2691 12.8264C50.3006 13.1173 50.2691 13.377 50.2691 13.6679L49.0375 13.474C48.9113 13.474 48.7851 13.474 48.6905 13.5386C48.5643 13.6032 48.4065 13.7648 48.4381 13.8618C48.4381 13.9587 48.5958 14.1527 48.722 14.185C48.9744 14.2819 49.2584 14.2819 49.5435 14.3466C50.0798 14.4435 50.4596 14.7021 50.6173 15.2527C50.775 15.8033 50.5227 16.4174 50.0798 16.7729C49.6369 17.1284 49.1006 17.1607 48.5631 17.096C48.1214 17.0314 47.7101 16.9021 47.3 16.8375V16.8387ZM24.6221 12.7617L25.759 12.6648C25.759 12.7941 25.7906 12.891 25.7906 13.0526C25.9483 12.9557 26.0745 12.9233 26.1691 12.8264C26.5162 12.6002 26.8644 12.5355 27.2745 12.6002C27.3692 12.6002 27.4638 12.7294 27.4638 12.8264C27.4954 13.1819 27.4638 13.5386 27.4638 13.8295C27.0852 13.7971 26.7055 13.7325 26.3269 13.7971C25.8525 13.8618 25.7263 14.0557 25.7263 14.5417V17.0003H24.7471C24.684 17.0003 24.5894 16.8064 24.5894 16.7417V13.377C24.6209 13.1831 24.6209 12.9892 24.6209 12.7617H24.6221Z" fill="#C9323E"/>
</g>
</svg>
