<svg width="90" height="43" viewBox="0 0 90 43" fill="none" xmlns="http://www.w3.org/2000/svg">
<rect x="0.5" y="0.5" width="89" height="41.3529" rx="7.5" fill="white" stroke="#DFE2F6"/>
<g clip-path="url(#clip0_6119_2274)">
<mask id="mask0_6119_2274" style="mask-type:alpha" maskUnits="userSpaceOnUse" x="8" y="5" width="74" height="32">
<rect x="8" y="5" width="74" height="32" fill="#C4C4C4"/>
</mask>
<g mask="url(#mask0_6119_2274)">
</g>
<g clip-path="url(#clip1_6119_2274)">
<path fill-rule="evenodd" clip-rule="evenodd" d="M39.3501 14.0703C40.0601 14.0703 40.6301 14.5903 40.6301 15.2303C40.6301 15.8703 40.0601 16.3903 39.3501 16.3903C38.6401 16.3903 38.0601 15.8703 38.0601 15.2303C38.0601 14.5903 38.6401 14.0703 39.3501 14.0703ZM38.2801 17.5303H40.4501V24.7803H38.2801V17.5303Z" fill="#1268B3"/>
<path fill-rule="evenodd" clip-rule="evenodd" d="M26.35 21.6192C26.09 24.0092 22.9 23.8792 23.33 20.7192C23.46 19.7392 24.12 18.8192 25.29 19.1392C26.24 19.3892 26.47 20.4592 26.35 21.6292V21.6192ZM26.33 23.7692C26.57 26.5792 24.3 26.9992 22.38 26.2792C22.13 26.1892 21.9 26.0292 21.67 25.9492V27.7792C21.87 28.0492 23.05 28.1992 23.47 28.2292C25.38 28.3392 27.3 27.8892 28.15 26.1392C28.73 24.9692 28.59 23.4692 28.59 22.0492V17.4992H26.34V18.3592C26.11 18.1892 25.86 17.5392 24.77 17.3692C24.02 17.2492 23.21 17.4292 22.67 17.7692C21.66 18.3992 21.01 19.5692 21 21.2592C21 22.9292 21.59 24.1592 22.69 24.6892C23.29 24.9792 24.16 25.0692 24.87 24.8692C25.86 24.5792 26.11 23.9392 26.33 23.7592V23.7692Z" fill="#F36C21"/>
<path fill-rule="evenodd" clip-rule="evenodd" d="M59.18 21.58C59.1 22.11 58.91 22.57 58.64 22.85C58.37 23.12 57.81 23.34 57.26 23.21C56.11 22.95 56.11 21.64 56.17 20.72C56.24 19.74 56.97 18.87 58.1 19.12C59.07 19.34 59.35 20.48 59.19 21.58H59.18ZM53.94 24.81H56.19V23.96C56.35 24.05 56.65 24.76 57.75 24.95C58.51 25.08 59.34 24.91 59.89 24.56C60.9 23.9 61.49 22.77 61.53 21.06C61.56 19.43 60.99 18.1 59.87 17.59C58.95 17.17 57.62 17.26 56.82 17.94C56.56 18.16 56.25 18.58 56.2 18.61C56.18 17.91 56.25 14.31 56.18 14H53.96C53.89 14.3 53.94 18.68 53.94 19.37V24.81ZM47.03 21.58C46.73 23.74 44.67 23.6 44.16 22.38C43.98 21.94 43.98 21.24 44.02 20.71C44.08 19.72 44.83 18.86 45.95 19.12C46.91 19.34 47.19 20.45 47.03 21.58ZM41.79 24.81H44.04V23.96C44.23 24.09 44.19 24.23 44.68 24.58C46.05 25.55 49.3 25.01 49.38 21.05C49.41 19.42 48.85 18.07 47.7 17.57C46.62 17.1 45.12 17.3 44.35 18.24C44.27 18.34 44.13 18.54 44.05 18.6V14.01H41.79V24.81ZM65.98 23.24C64.71 23.24 64.25 22.45 64.25 21.16C64.25 19.93 64.76 19.08 65.98 19.08C67.3 19.08 67.55 20.14 67.55 21.26C67.55 22.38 67.1 23.23 65.98 23.23V23.24ZM61.98 21.73C62.21 23.98 63.98 25.23 66.48 24.96C68.7 24.72 70.06 23.06 69.82 20.57C69.38 15.93 61.4 16.13 61.97 21.73H61.98Z" fill="#1268B3"/>
<path fill-rule="evenodd" clip-rule="evenodd" d="M31.77 21.6182C31.48 18.8282 33.67 18.7582 34.48 19.4182C35.27 20.0682 35.45 22.8682 33.84 23.2082C33.29 23.3282 32.65 23.1782 32.34 22.8982C32.01 22.5982 31.83 22.1982 31.77 21.6182ZM32.94 17.3682C30.66 17.5982 29.26 19.1182 29.47 21.6382C29.66 23.9282 31.39 25.1882 33.86 24.9682C36.15 24.7682 37.5 23.1682 37.33 20.6782C37.18 18.4282 35.37 17.1282 32.93 17.3682H32.94Z" fill="#F36C21"/>
<path d="M58.0601 28.2681C58.0601 28.1181 58.1101 27.9981 58.2001 27.8881C58.2901 27.7781 58.4101 27.7281 58.5401 27.7281C58.6701 27.7281 58.7901 27.7781 58.8801 27.8881C58.9801 27.9981 59.0201 28.1181 59.0201 28.2681C59.0201 28.4181 58.9701 28.5481 58.8801 28.6481C58.7901 28.7481 58.6701 28.8081 58.5401 28.8081C58.4101 28.8081 58.2901 28.7581 58.2001 28.6481C58.1001 28.5481 58.0601 28.4181 58.0601 28.2681ZM61.7101 27.9681V28.6181C61.3901 28.7481 61.1101 28.8081 60.8401 28.8081C60.3901 28.8081 60.0301 28.6781 59.7601 28.3981C59.4901 28.1281 59.3501 27.7681 59.3501 27.3281C59.3501 26.8881 59.4901 26.5381 59.7601 26.2481C60.0301 25.9681 60.3801 25.8281 60.8001 25.8281C61.0701 25.8281 61.3601 25.8881 61.6601 26.0181V26.6881C61.4615 26.5658 61.2333 26.5002 61.0001 26.4981C60.7601 26.4981 60.5701 26.5781 60.4201 26.7281C60.2701 26.8781 60.2001 27.0781 60.2001 27.3281C60.2001 27.5781 60.2701 27.7881 60.4101 27.9481C60.5501 28.1081 60.7401 28.1781 60.9701 28.1781C61.1401 28.1781 61.3801 28.1081 61.6901 27.9781L61.7101 27.9681ZM63.4001 25.8281C63.8001 25.8281 64.1401 25.9581 64.4201 26.2181C64.7001 26.4781 64.8401 26.8481 64.8401 27.3181C64.8401 27.7881 64.7001 28.1581 64.4101 28.4181C64.1301 28.6781 63.7901 28.8081 63.3901 28.8081C62.9601 28.8081 62.6201 28.6681 62.3401 28.3981C62.0701 28.1181 61.9301 27.7581 61.9301 27.3181C61.9301 26.8781 62.0701 26.5081 62.3401 26.2381C62.6201 25.9681 62.9601 25.8281 63.3801 25.8281H63.4001ZM63.4001 28.2781C63.7801 28.2781 63.9801 27.9481 63.9801 27.2981C63.9801 26.6481 63.7901 26.3681 63.4001 26.3681C63.2201 26.3681 63.0701 26.4481 62.9701 26.6181C62.8701 26.7781 62.8101 27.0181 62.8101 27.3281C62.8101 27.9681 63.0101 28.2881 63.4001 28.2881V28.2781ZM66.0301 25.8881V26.2581C66.3001 25.9781 66.6001 25.8281 66.9201 25.8281C67.3601 25.8281 67.6701 26.0281 67.8401 26.4381C68.1501 26.0281 68.4901 25.8281 68.8501 25.8281C69.1501 25.8281 69.3901 25.9281 69.5701 26.1281C69.7601 26.3281 69.8501 26.5881 69.8501 26.9081V28.7481H69.0401V27.0681C69.0401 26.8681 69.0001 26.7081 68.9101 26.5981C68.8701 26.5433 68.8173 26.4991 68.7563 26.4694C68.6952 26.4398 68.6279 26.4256 68.5601 26.4281C68.3201 26.4281 68.1101 26.5881 67.9201 26.9081V28.7381H67.1101V27.0381C67.1101 26.8381 67.0701 26.6881 66.9801 26.5781C66.9367 26.5252 66.8816 26.4832 66.8191 26.4554C66.7565 26.4276 66.6884 26.4148 66.6201 26.4181C66.4101 26.4181 66.2001 26.5481 66.0101 26.8181V28.7381H65.2001V25.8781H66.0101L66.0301 25.8881Z" fill="#231F20"/>
<path fill-rule="evenodd" clip-rule="evenodd" d="M51.54 14.0703C52.25 14.0703 52.82 14.5903 52.82 15.2303C52.82 15.8703 52.25 16.3903 51.54 16.3903C50.83 16.3903 50.25 15.8703 50.25 15.2303C50.25 14.5903 50.83 14.0703 51.54 14.0703ZM50.47 17.5303H52.64V24.7803H50.47V17.5303Z" fill="#1268B3"/>
</g>
</g>
<defs>
<clipPath id="clip0_6119_2274">
<rect width="54.8789" height="17.9931" fill="white" transform="translate(18 12)"/>
</clipPath>
<clipPath id="clip1_6119_2274">
<rect width="48.86" height="14.81" fill="white" transform="translate(21 14)"/>
</clipPath>
</defs>
</svg>
