<svg xmlns="http://www.w3.org/2000/svg" xmlns:xlink="http://www.w3.org/1999/xlink" width="199.586" height="117.955" viewBox="0 0 199.586 117.955">
    <defs>
        <linearGradient id="linear-gradient" x1=".665" y1="1.403" x2=".296" gradientUnits="objectBoundingBox">
            <stop offset="0" stop-color="#fff"/>
            <stop offset="1" stop-color="#7a5aff"/>
        </linearGradient>
        <linearGradient id="linear-gradient-2" x1=".076" y1="-.03" x2=".957" y2=".835" gradientUnits="objectBoundingBox">
            <stop offset="0" stop-color="#945524"/>
            <stop offset="1" stop-color="#5c3516"/>
        </linearGradient>
        <linearGradient id="linear-gradient-3" x1=".5" y1=".023" x2=".5" y2=".948" xlink:href="#linear-gradient-2"/>
        <linearGradient id="linear-gradient-4" x1=".473" y1=".061" x2=".543" y2=".992" gradientUnits="objectBoundingBox">
            <stop offset="0" stop-color="#fdfefe"/>
            <stop offset="1" stop-color="#e3edf3"/>
        </linearGradient>
        <linearGradient id="linear-gradient-5" x1=".26" y1=".068" x2=".759" y2=".967" xlink:href="#linear-gradient-4"/>
        <linearGradient id="linear-gradient-6" x1="-6.275" y1="-9.593" x2="-6.275" y2="-9.593" gradientUnits="objectBoundingBox">
            <stop offset="0" stop-color="gray" stop-opacity=".251"/>
            <stop offset=".54" stop-color="gray" stop-opacity=".122"/>
            <stop offset="1" stop-color="gray" stop-opacity=".102"/>
        </linearGradient>
        <linearGradient id="linear-gradient-7" x1=".884" y1=".899" x2=".574" y2=".63" gradientUnits="objectBoundingBox">
            <stop offset="0" stop-color="#317a78"/>
            <stop offset="1" stop-color="#0e4d4b"/>
        </linearGradient>
        <linearGradient id="linear-gradient-8" x1=".883" y1=".791" x2=".571" y2=".61" xlink:href="#linear-gradient-7"/>
        <linearGradient id="linear-gradient-9" x1=".415" y1=".062" x2=".617" y2=".832" gradientUnits="objectBoundingBox">
            <stop offset="0" stop-color="#ffa77c"/>
            <stop offset="1" stop-color="#ff6a63"/>
        </linearGradient>
        <linearGradient id="linear-gradient-10" x1=".762" y1=".493" x2=".124" y2=".502" gradientUnits="objectBoundingBox">
            <stop offset="0" stop-color="#31467a"/>
            <stop offset="1" stop-color="#0e204d"/>
        </linearGradient>
        <linearGradient id="linear-gradient-11" y1=".5" x2="1" y2=".5" gradientUnits="objectBoundingBox">
            <stop offset="0" stop-color="#492091"/>
            <stop offset="1" stop-color="#2d115e"/>
        </linearGradient>
        <linearGradient id="linear-gradient-12" x1=".863" y1=".947" x2="-.031" y2=".258" gradientUnits="objectBoundingBox">
            <stop offset="0" stop-color="#00a7f8"/>
            <stop offset="1" stop-color="#1e42c2"/>
        </linearGradient>
        <linearGradient id="linear-gradient-13" x1=".489" y1=".414" x2=".051" y2=".603" xlink:href="#linear-gradient-4"/>
        <linearGradient id="linear-gradient-14" x1=".882" y1=".725" x2=".139" y2=".341" xlink:href="#linear-gradient-10"/>
        <linearGradient id="linear-gradient-15" x1=".904" y1=".5" x2=".182" y2=".5" xlink:href="#linear-gradient-12"/>
        <linearGradient id="linear-gradient-16" x1=".896" y1=".093" x2=".316" y2=".694" gradientUnits="objectBoundingBox">
            <stop offset="0" stop-color="#ffde7c"/>
            <stop offset="1" stop-color="#ffcb63"/>
        </linearGradient>
        <linearGradient id="linear-gradient-17" x1=".176" y1=".044" x2=".303" y2=".237" gradientUnits="objectBoundingBox">
            <stop offset="0" stop-color="#ffdbba"/>
            <stop offset="1" stop-color="#f0bb90"/>
        </linearGradient>
        <linearGradient id="linear-gradient-18" x1="-.001" y1=".5" x2="1.001" y2=".5" gradientUnits="objectBoundingBox">
            <stop offset="0" stop-color="#ff8080"/>
            <stop offset="1" stop-color="#ff2b2b"/>
        </linearGradient>
        <linearGradient id="linear-gradient-20" x1="0" y1=".5" x2="1" y2=".5" xlink:href="#linear-gradient-18"/>
        <linearGradient id="linear-gradient-21" x1="0" y1=".5" x2="1" y2=".5" xlink:href="#linear-gradient-18"/>
        <linearGradient id="linear-gradient-22" x1="0" y1=".5" x2="1" y2=".5" xlink:href="#linear-gradient-18"/>
        <linearGradient id="linear-gradient-23" x1="0" y1=".5" x2="1" y2=".5" xlink:href="#linear-gradient-18"/>
        <linearGradient id="linear-gradient-24" x1=".592" y1=".513" x2=".725" y2=".538" xlink:href="#linear-gradient-17"/>
        <linearGradient id="linear-gradient-25" x1=".893" y1=".834" x2=".084" y2=".217" xlink:href="#linear-gradient-12"/>
        <linearGradient id="linear-gradient-26" x1=".675" y1=".139" x2=".264" y2=".944" gradientUnits="objectBoundingBox">
            <stop offset="0" stop-color="#912020"/>
            <stop offset="1" stop-color="#5e1111"/>
        </linearGradient>
        <radialGradient id="radial-gradient" cx=".49" cy="-.572" r="1.82" gradientTransform="matrix(.356 0 0 1 .322 0)" gradientUnits="objectBoundingBox">
            <stop offset=".584" stop-color="#e3edf3"/>
            <stop offset="1" stop-color="#a3bdcc"/>
        </radialGradient>
        <style>
            .cls-6{opacity:.1}.cls-11,.cls-14,.cls-6{isolation:isolate}.cls-9{fill:#f8f9fa}.cls-11{opacity:.05}.cls-13{fill:#ffbfb8}.cls-14{opacity:.03}.cls-15{fill:#fbae9c}.cls-31{fill:url(#linear-gradient-18)}.cls-36{fill:#94cc79}
        </style>
    </defs>
    <g id="illustration" transform="translate(-7812.926 17506.001)">
        <path id="Path_9280" data-name="Path 9280" d="M807.681 508.608a5.392 5.392 0 0 0 5.392-5.392V442.87c-40.9-5.453-93.785-9.273-128.124 5.885-25.708 11.368-40.9 33.53-51.914 59.854z" transform="translate(7179.891 -17930.111)" style="fill:url(#linear-gradient)"/>
        <path id="Union_25" data-name="Union 25" d="M1.768 56.586a1.768 1.768 0 1 1 1.768 1.768 1.768 1.768 0 0 1-1.768-1.768zm10.963 0A1.415 1.415 0 1 1 14.146 58a1.415 1.415 0 0 1-1.414-1.414zm10.963 0a1.061 1.061 0 1 1 1.061 1.061 1.061 1.061 0 0 1-1.055-1.061zm10.963 0a.707.707 0 1 1 .707.707.707.707 0 0 1-.705-.707zm21.573 0a.354.354 0 1 1 .354.354.354.354 0 0 1-.352-.354zm-10.61 0a.354.354 0 1 1 .354.354.354.354 0 0 1-.352-.354zM1.415 45.976A2.122 2.122 0 1 1 3.537 48.1a2.122 2.122 0 0 1-2.122-2.124zm10.963 0a1.768 1.768 0 1 1 1.768 1.768 1.768 1.768 0 0 1-1.768-1.768zm10.963 0a1.415 1.415 0 1 1 1.415 1.415 1.415 1.415 0 0 1-1.415-1.415zm10.963 0a1.061 1.061 0 1 1 1.061 1.061 1.061 1.061 0 0 1-1.065-1.061zm10.964 0a.707.707 0 1 1 .707.707.707.707 0 0 1-.707-.707zm10.963 0a.354.354 0 1 1 .354.354.354.354 0 0 1-.353-.354zm-55.17-10.61a2.476 2.476 0 1 1 2.476 2.476 2.476 2.476 0 0 1-2.476-2.476zm10.963 0a2.122 2.122 0 1 1 2.122 2.122 2.122 2.122 0 0 1-2.122-2.122zm10.964 0a1.768 1.768 0 1 1 1.768 1.768 1.768 1.768 0 0 1-1.768-1.768zm10.963 0a1.415 1.415 0 1 1 1.415 1.415 1.414 1.414 0 0 1-1.415-1.415zm10.963 0a1.061 1.061 0 1 1 1.061 1.061 1.061 1.061 0 0 1-1.06-1.061zm10.963 0a.707.707 0 1 1 .707.707.707.707 0 0 1-.706-.707zM.707 24.756a2.829 2.829 0 1 1 2.829 2.829 2.829 2.829 0 0 1-2.829-2.829zm10.963 0a2.476 2.476 0 1 1 2.476 2.476 2.476 2.476 0 0 1-2.475-2.476zm10.963 0a2.122 2.122 0 1 1 2.122 2.122 2.122 2.122 0 0 1-2.121-2.122zm10.963 0a1.768 1.768 0 1 1 1.768 1.768 1.768 1.768 0 0 1-1.764-1.768zm10.963 0a1.415 1.415 0 1 1 1.415 1.415 1.415 1.415 0 0 1-1.413-1.415zm10.963 0a1.061 1.061 0 1 1 1.061 1.061 1.061 1.061 0 0 1-1.059-1.061zM.354 14.146a3.183 3.183 0 1 1 3.183 3.183 3.183 3.183 0 0 1-3.183-3.183zm10.963 0a2.829 2.829 0 1 1 2.829 2.829 2.829 2.829 0 0 1-2.829-2.829zm10.963 0a2.476 2.476 0 1 1 2.476 2.476 2.476 2.476 0 0 1-2.475-2.476zm10.963 0a2.122 2.122 0 1 1 2.122 2.122 2.122 2.122 0 0 1-2.121-2.122zm10.963 0a1.768 1.768 0 1 1 1.768 1.768 1.768 1.768 0 0 1-1.767-1.768zm10.963 0a1.415 1.415 0 1 1 1.415 1.415 1.415 1.415 0 0 1-1.413-1.415zM0 3.537a3.537 3.537 0 1 1 3.537 3.536A3.537 3.537 0 0 1 0 3.537zm10.963 0a3.183 3.183 0 1 1 3.183 3.183 3.183 3.183 0 0 1-3.183-3.183zm10.964 0a2.829 2.829 0 1 1 2.829 2.829 2.829 2.829 0 0 1-2.829-2.829zm10.963 0a2.476 2.476 0 1 1 2.476 2.476 2.476 2.476 0 0 1-2.476-2.476zm10.963 0a2.122 2.122 0 1 1 2.122 2.122 2.122 2.122 0 0 1-2.121-2.122zm10.964 0A1.768 1.768 0 1 1 56.585 5.3a1.768 1.768 0 0 1-1.768-1.763z" transform="rotate(-30 -28679.41 -23348.18)" style="fill:#fff"/>
        <g id="Group_3854" data-name="Group 3854" transform="translate(7860.557 -17506)">
            <path id="Path_8503" data-name="Path 8503" d="M1366.346 1896.129v59.1l-78.636-15.276 1.5-45.327z" transform="translate(-1216.334 -1891.682)" style="fill:#6d4418"/>
            <path id="Path_8504" data-name="Path 8504" d="M1366.346 1896.129v59.1l-78.636-15.276 1.5-45.327z" transform="translate(-1216.334 -1891.682)" style="fill:url(#linear-gradient-2)"/>
            <path id="Path_8505" data-name="Path 8505" d="M1194.643 1964.8v19.535l83.143 24.292.85-.439 65.768-34.12V1893.3l-81.392-2.629-.5 44.825 3.255 1 1.252-41.926 71.625 2.484.5 60.733-62.358 27.3-.047-.01z" transform="translate(-1192.449 -1890.667)" style="fill:url(#linear-gradient-3)"/>
            <path id="Path_8506" data-name="Path 8506" class="cls-6" d="M1194.643 1990.389v19.535l83.143 24.291.849-.439-1.9-23.112z" transform="translate(-1192.449 -1916.26)"/>
            <path id="Path_8507" data-name="Path 8507" d="M1294.121 1951.208s40.255 4.014 44.169 9.834.031 12.956.031 12.956l-62.232 27.047-84.4-21.787s2.248-15.275 9.265-17.029 62.86-13.777 62.86-13.777 22.544-1.377 30.307 2.756z" transform="translate(-1191.692 -1905.441)" style="fill:url(#radial-gradient)"/>
            <path id="Path_8508" data-name="Path 8508" d="m1340.338 1961.079-63.483 21.914s-67.714-20.535-77.31-18.593c0 0 47.375-16.953 66.289-16.216a307.287 307.287 0 0 1 30.867 3.064s41.885 4.198 43.637 9.831z" transform="translate(-1193.707 -1905.422)" style="fill:url(#linear-gradient-4)"/>
            <path id="Rectangle_2841" data-name="Rectangle 2841" class="cls-9" d="m1344.725 1949.566-7.949-6.7a12.87 12.87 0 0 1-1.553-18.135 12.87 12.87 0 0 1 18.135-1.551l7.949 6.7a12.871 12.871 0 0 1 1.55 18.136 12.87 12.87 0 0 1-18.134 1.553z" transform="translate(-1227.751 -1898.233)"/>
            <path id="Rectangle_2842" data-name="Rectangle 2842" class="cls-6" d="m1344.727 1949.8-7.949-6.7a12.87 12.87 0 0 1-1.553-18.135 12.87 12.87 0 0 1 18.135-1.551l7.949 6.7a12.872 12.872 0 0 1 1.55 18.136 12.869 12.869 0 0 1-18.134 1.551z" transform="translate(-1227.751 -1898.293)"/>
            <path id="Rectangle_2843" data-name="Rectangle 2843" d="m1345.39 1949.069-7.434-6.261a12.026 12.026 0 0 1-1.45-16.946 12.025 12.025 0 0 1 16.944-1.45l7.434 6.261a12.026 12.026 0 0 1 1.447 16.944 12.025 12.025 0 0 1-16.944 1.454z" transform="translate(-1228.131 -1898.601)" style="fill:url(#linear-gradient-5)"/>
            <path id="Path_8509" data-name="Path 8509" class="cls-11" d="M1369.368 1950.205a4.488 4.488 0 0 0-1.807-1.678c-.451-.173-.955-.2-1.4-.393a3.754 3.754 0 0 1-1.784-2.365 6.327 6.327 0 0 0-1.384-2.685" transform="translate(-1235.654 -1904.119)"/>
            <path id="Path_8510" data-name="Path 8510" class="cls-11" d="M1363.564 1952.4a4.489 4.489 0 0 0-1.807-1.679c-.451-.173-.954-.2-1.4-.392a3.755 3.755 0 0 1-1.784-2.365 6.328 6.328 0 0 0-1.384-2.685" transform="translate(-1234.165 -1904.682)"/>
            <path id="Path_8511" data-name="Path 8511" class="cls-11" d="M1350.874 1933.573a4.487 4.487 0 0 0-1.807-1.679c-.451-.173-.954-.2-1.4-.393a3.754 3.754 0 0 1-1.784-2.365 6.327 6.327 0 0 0-1.383-2.685" transform="translate(-1230.908 -1899.85)"/>
            <path id="Path_8512" data-name="Path 8512" class="cls-6" d="M1348.644 1948.58a4.49 4.49 0 0 0-1.807-1.679c-.451-.173-.954-.2-1.4-.393a3.755 3.755 0 0 1-1.784-2.365 6.326 6.326 0 0 0-1.383-2.685" transform="translate(-1230.336 -1903.702)"/>
            <path id="Rectangle_2844" data-name="Rectangle 2844" class="cls-9" d="m1302.391 1944.45-7.949-6.7a12.87 12.87 0 0 1-1.553-18.134 12.87 12.87 0 0 1 18.135-1.551l7.949 6.7a12.871 12.871 0 0 1 1.55 18.136 12.869 12.869 0 0 1-18.134 1.551z" transform="translate(-1216.886 -1896.921)"/>
            <path id="Rectangle_2845" data-name="Rectangle 2845" class="cls-6" d="m1302.391 1944.45-7.949-6.7a12.87 12.87 0 0 1-1.553-18.134 12.87 12.87 0 0 1 18.135-1.551l7.949 6.7a12.871 12.871 0 0 1 1.55 18.136 12.869 12.869 0 0 1-18.134 1.551z" transform="translate(-1216.886 -1896.921)"/>
            <path id="Rectangle_2846" data-name="Rectangle 2846" class="cls-9" d="m1303.056 1943.951-7.434-6.261a12.026 12.026 0 0 1-1.45-16.946 12.025 12.025 0 0 1 16.944-1.45l7.434 6.261a12.026 12.026 0 0 1 1.45 16.945 12.025 12.025 0 0 1-16.943 1.454z" transform="translate(-1217.266 -1897.287)"/>
            <path id="Path_8513" data-name="Path 8513" class="cls-11" d="M1327.033 1945.089a4.487 4.487 0 0 0-1.807-1.679c-.451-.173-.954-.2-1.4-.392a3.755 3.755 0 0 1-1.784-2.365 6.327 6.327 0 0 0-1.384-2.685" transform="translate(-1224.79 -1902.806)"/>
            <path id="Path_8514" data-name="Path 8514" class="cls-11" d="M1321.232 1947.28a4.491 4.491 0 0 0-1.807-1.678c-.451-.173-.954-.2-1.4-.392a3.755 3.755 0 0 1-1.784-2.365 6.329 6.329 0 0 0-1.383-2.685" transform="translate(-1223.301 -1903.369)"/>
            <path id="Path_8515" data-name="Path 8515" class="cls-11" d="M1308.541 1928.456a4.49 4.49 0 0 0-1.807-1.678c-.451-.173-.954-.2-1.4-.393a3.754 3.754 0 0 1-1.784-2.365 6.326 6.326 0 0 0-1.383-2.685" transform="translate(-1220.044 -1898.538)"/>
            <path id="Path_8516" data-name="Path 8516" class="cls-6" d="M1306.312 1943.463a4.491 4.491 0 0 0-1.807-1.678c-.451-.173-.954-.2-1.4-.392a3.756 3.756 0 0 1-1.784-2.365 6.326 6.326 0 0 0-1.383-2.685" transform="translate(-1219.472 -1902.389)"/>
            <path id="Path_8517" data-name="Path 8517" d="M1202.654 1981.421a1.543 1.543 0 0 1 1.155-1.14c4.864-1.21 9.242-10.455 9.242-10.455a15.057 15.057 0 0 1 1.407-4.4 21.833 21.833 0 0 0 1.283-5.172c-1.572-.709-2.766-1.5-1.984-2.045a3.933 3.933 0 0 1 1.438-.6l.5-2.74c-.173-1.937 1.233-8.45 1.233-8.45l1.221-10.1a.653.653 0 0 1 .074-.627v-.013l.033-.056.016-.022.036-.053.021-.028.065-.081.044-.051.036-.038.052-.054.04-.038.062-.057.041-.036.082-.067.036-.03a2.536 2.536 0 0 1 .287-.206l.03-.019.138-.088.045-.028.144-.085.048-.027.173-.093.036-.019c.149-.074.311-.156.486-.235l.044-.019.223-.1.074-.032.215-.089.089-.036.236-.09.085-.032.346-.123c.116-.039.229-.074.346-.111l.122-.034.206-.057.133-.033.184-.041.126-.026.19-.033.1-.018c.094-.014.185-.025.275-.034h.056l.214-.016h.583l.2.021h.016c.074.01.149.022.223.036h.019l.173.041.052.013.137.041.059.019.117.044.06.024h.019l.041.02a36.385 36.385 0 0 0 6.828 1.235 32.176 32.176 0 0 0 1.127-4.98 29.985 29.985 0 0 1 2.113-7.57.669.669 0 0 0 .074.132.741.741 0 0 1 .025-.138c.249-1.269 1.115-1.729 3.955-2.81 2.766-1.055 4.054.555 4.526 1.43l.074.142.328-.163 4.05 5.457.11.2 2.766 5.417.092.183.038.026 3.906 9.025a15.753 15.753 0 0 1 5.775-1.1l1.76-1.583 4.4-5.282a30.235 30.235 0 0 1 1.591-4.226 16.84 16.84 0 0 0 1.052-4.617 8.079 8.079 0 0 1-1.052-1.9l.1-.126c-.033-.074-.065-.148-.1-.223 0 0 3.521-4.578 3.521-6.333s9.855-3.169 9.855-3.169.008.034.026.092a3.726 3.726 0 0 0 1.041-.9c.048-.06.1-.126.143-.194a7.036 7.036 0 0 1-1.466-2.365 2.1 2.1 0 0 1-.992.253c-.437 0-.966-.306-.882-.731a.455.455 0 0 1 0-.173c.048-.247.282-.4.463-.579a1.255 1.255 0 0 0 .366-.749.677.677 0 0 0-.192-.424 4.646 4.646 0 0 0-.494-.336 1.67 1.67 0 0 1-.458-1.407v-.326a25.23 25.23 0 0 1 .395-3.444 5.557 5.557 0 0 1 .214-.865 6.365 6.365 0 0 1 .576-1.115l1.716-2.848a3.421 3.421 0 0 1 .785-1c1.2-.922 2.594.2 3.739-.446a6.331 6.331 0 0 1 1.729-.922 5.706 5.706 0 0 1 2.474.1 1.168 1.168 0 0 1 .605.268 1.972 1.972 0 0 1 .317.908 2.556 2.556 0 0 0 1.21 1.383 18.216 18.216 0 0 1 1.626.946 9.548 9.548 0 0 1 2.043 2.737 14.088 14.088 0 0 0 3.019 3.41.459.459 0 0 1-.074.112l.074.064c-.173.4-.8.28-1.145.545a.646.646 0 0 0-.246.479 2.235 2.235 0 0 0 .243.789 2.125 2.125 0 0 1 .3 1.055.734.734 0 0 1-.173.587 2.716 2.716 0 0 0-.313.292.439.439 0 0 0-.074.173c.051.321.331.674.36 1.027a.7.7 0 0 1 0 .149v.028c.039.472-.387.853-.818 1.055a4.521 4.521 0 0 0-1.166.6 1.791 1.791 0 0 1 .408 1.1.818.818 0 0 1-.074.446c-.273.548-1.052.552-1.646.406a.836.836 0 0 0-.481-.026 1.105 1.105 0 0 0-.358.3 1.513 1.513 0 0 1-2.131-.178 1.494 1.494 0 0 1-.157-.223l.031.129c.053.218.114.441.173.669v-.149s3.333.78 5.958 1.349a5.381 5.381 0 0 1 3.573 2.671l2.438 4.431s-.026.074-.083.2l.083.152a5.029 5.029 0 0 1-.579 1.068c1.115 2.621 3.458 7.742 5.509 9.672a12.566 12.566 0 0 0 1.049.885 2.667 2.667 0 0 1 1.189.246 3.019 3.019 0 0 1 1.079.865 1.614 1.614 0 0 0 .9-.051 21.675 21.675 0 0 1 3.318 3.3c.268.1.535.2.8.305 1.2.505 2.411 1.482 2.4 2.782a8.4 8.4 0 0 1-.93 2.594l.755.882a9.977 9.977 0 0 0 2.993 1.583c1.412.351 4.229 2.626 4.229 2.626l5.278 3.7.557.358a30.836 30.836 0 0 0 2.26-4.054s1.936-3.52 4.05.346l.064.116a6.612 6.612 0 0 1 .687 1.99c2.477-1.21 3.68 3.52 3.831 4.583a4.117 4.117 0 0 1-.069 2.373 10.511 10.511 0 0 1-6.467 5.856 8.913 8.913 0 0 1-.865.223c-2.64.527-4.4-3.345-4.4-3.345l-.056-.557a8.209 8.209 0 0 1-1.21.034 8.682 8.682 0 0 0-.807 0 10.438 10.438 0 0 1-4.131-.764l-2.248-.9-.375-.152c.01.074.021.149.033.223l-8.451-2.8s-2.887-.362-6.1-.833c-.1.284-.194.571-.311.85a6.626 6.626 0 0 1-4.2 3.467 19.8 19.8 0 0 1-5.562.656h-.583a4.249 4.249 0 0 1-1.8-.26 1.6 1.6 0 0 1-1.026-1.615 2.464 2.464 0 0 1 .916-1.285 7.017 7.017 0 0 0 1.874-2.453 3.59 3.59 0 0 0 .2-.7 3.874 3.874 0 0 1-1.717.946c-3.52.88-9.682 1.76-11.441 1.233s-6.16-1.583-12.85 0-8.623 1.056-8.623 1.056l.03-.044a16.746 16.746 0 0 1-6.669.325 35.829 35.829 0 0 0-4.229-.54 33.42 33.42 0 0 1-3.01-.346 8.361 8.361 0 0 1-4.906-2.766c-3.51.476-9.024-1.556-9.024-1.556l-.807-.421-.608 1.449s.88 4.578-4.578 6.513a39.832 39.832 0 0 1-7.987 1.933c-.887 6-2.047 8.455-2.047 8.455l1.937 2.817c.595 2.379-1.21 3.366-2.912 3.769a10.835 10.835 0 0 0-3.94 1.867 39.97 39.97 0 0 1-7.228 3.692c-4.842.988-5.487-.018-5.294-.91zm62.68-39.229-1.089 1.089.385-.033.678 1.233h3.371a9.468 9.468 0 0 0 1.936-1.233l.446.045-.8-.572s-1.16-.628-1-2.96zm12.053-4.508c.3-.943.624-1.966.961-2.955-.041-.393-.09-.783-.149-1.167l-1.25 3.877zm24.668-5.406a12.672 12.672 0 0 0 1.355 1.945c.157-.048.317-.088.477-.125s-.823-.723-1.832-1.819zm-72.276 17.483c.026-.243.059-.509.1-.787l-2.208-1.15c-1.412 1.059-1.938 4.058-2.113 6.791.766-.349 3.912-1.927 4.225-4.855z" transform="translate(-1194.498 -1891.538)" style="fill:url(#linear-gradient-6)"/>
            <path id="Path_8518" data-name="Path 8518" class="cls-13" d="M1233.118 1948.624s-1.041-2.594-5.014-1.21-3.3 2.527-3.3 2.527l.534 2.313 2.075 1.21 3.458-.345z" transform="translate(-1200.179 -1905.126)"/>
            <path id="Path_8519" data-name="Path 8519" class="cls-14" d="M1224.776 1949.848a.344.344 0 0 0 .031.093l.534 2.313 2.075 1.21 3.458-.346 2.247-4.5a2.739 2.739 0 0 0-1.458-1.352 4.91 4.91 0 0 0-3.557.142c-3.306 1.157-3.396 2.14-3.33 2.44z" transform="translate(-1200.179 -1905.126)"/>
            <path id="Path_8520" data-name="Path 8520" class="cls-13" d="M1217.669 1976.55s-.521 6.4-1.729 8.991a14.861 14.861 0 0 0-1.383 4.322s-4.3 9.076-9.081 10.267a1.515 1.515 0 0 0-1.134 1.115c-.192.877.446 1.858 5.2.892a38.931 38.931 0 0 0 7.1-3.631 10.642 10.642 0 0 1 3.871-1.832c1.664-.4 3.444-1.362 2.86-3.7l-1.9-2.766s1.556-3.285 2.42-11.584-6.224-2.074-6.224-2.074z" transform="translate(-1194.931 -1912.132)"/>
            <path id="Path_8521" data-name="Path 8521" class="cls-13" d="M1247.4 1932.746c0 2.42 8.645-2.248 8.645-2.248a3.254 3.254 0 0 0-.223-.5c-.465-.865-1.729-2.442-4.448-1.4-2.787 1.062-3.63 1.514-3.883 2.766a7.371 7.371 0 0 0-.091 1.382z" transform="translate(-1205.987 -1900.313)"/>
            <path id="Path_8522" data-name="Path 8522" class="cls-13" d="m1261.123 1935.227 5.189 10.029.484-2.1-.268-.526-2.719-5.319-.091-.181z" transform="translate(-1209.511 -1902.103)"/>
            <path id="Path_8523" data-name="Path 8523" class="cls-13" d="m1285.312 1961.742 2.766 6.051 1.9 1.9.892-.939.356-.375 2.037-2.145-1.9-4.5z" transform="translate(-1215.719 -1908.907)"/>
            <path id="Path_8524" data-name="Path 8524" class="cls-15" d="M1305.084 1921.792s11.757 5.533 12.1 5.36 4.841-1.21 2.766-5.36a18.3 18.3 0 0 1-1.383-3.8 16.22 16.22 0 0 1-.52-4.15s-7.262-3.285-7.784.52a5.418 5.418 0 0 1-1.041 2.671 3.4 3.4 0 0 1-2.248 1.309z" transform="translate(-1220.793 -1896.275)"/>
            <path id="Path_8525" data-name="Path 8525" class="cls-15" d="m1375.094 1975.066.52 5.189s1.729 3.8 4.323 3.285a8.618 8.618 0 0 0 .839-.216 10.322 10.322 0 0 0 6.353-5.752 4.053 4.053 0 0 0 .067-2.33c-.173-1.21-1.729-7.262-5.014-3.458s-5.189 5.705-5.189 5.705z" transform="translate(-1238.76 -1911.166)"/>
            <path id="Path_8526" data-name="Path 8526" d="m1335.332 1949.415 14.7 6.913 2.075 2.42a9.831 9.831 0 0 0 2.94 1.557c1.383.346 4.149 2.594 4.149 2.594l5.189 3.63 2.421 1.556-2.421 1.9-7.434-1.729-8.991-1.9-4.668-2.247-13.313-11.582z" transform="translate(-1227.181 -1905.744)" style="fill:#174568"/>
            <path id="Path_8527" data-name="Path 8527" class="cls-14" d="m1375.094 1975.066.52 5.189s1.729 3.8 4.323 3.285a8.618 8.618 0 0 0 .839-.216 10.322 10.322 0 0 0 6.353-5.752 4.053 4.053 0 0 0 .067-2.33c-.173-1.21-1.729-7.262-5.014-3.458s-5.189 5.705-5.189 5.705z" transform="translate(-1238.76 -1911.166)"/>
            <path id="Path_8528" data-name="Path 8528" d="m1335.332 1949.415 14.7 6.913 2.075 2.42a9.831 9.831 0 0 0 2.94 1.557c1.383.346 4.149 2.594 4.149 2.594l5.189 3.63 2.421 1.556-2.421 1.9-7.434-1.729-8.991-1.9-4.668-2.247-13.313-11.582z" transform="translate(-1227.181 -1905.744)" style="fill:url(#linear-gradient-7)"/>
            <path id="Path_8529" data-name="Path 8529" class="cls-15" d="m1361.371 1975.879 2.411.966 2.213.885a10.259 10.259 0 0 0 4.061.744h.794a7.9 7.9 0 0 0 5.5-1.873 10.678 10.678 0 0 1 .9-.691 6.519 6.519 0 0 0 1.991-8.389l-.062-.115c-2.075-3.8-3.976-.346-3.976-.346s-1.9 4.149-3.285 5.189c-.943.708-4.05.051-5.936-.441-.884-.229-1.5-.424-1.5-.424z" transform="translate(-1235.238 -1909.903)"/>
            <path id="Path_8530" data-name="Path 8530" class="cls-6" d="M1363.783 1978.83c-.564-3.7.865-4.783 2.2-5.036-.884-.229-1.5-.424-1.5-.424l-3.112 4.495z" transform="translate(-1235.239 -1911.892)"/>
            <path id="Path_8531" data-name="Path 8531" d="m1325.115 1951.974 17.985 12.626s4.668 2.766 6.4 2.075 7.954 1.729 7.954 1.729-5.189-1.556-4.15 5.014l-8.3-2.766s-12.449-1.556-14.178-2.42-8.99-15.734-8.99-15.734z" transform="translate(-1225.09 -1906.401)" style="fill:url(#linear-gradient-8)"/>
            <path id="Path_8532" data-name="Path 8532" class="cls-15" d="M1287.659 1932.2s-.173 4.5-1.21 6.744a29.717 29.717 0 0 0-1.556 4.149l-4.323 5.189-1.729 1.556s-6.569 0-7.261 2.766 10.029.865 10.029.865l1.556-1.556 7.262-4.495 4.15-12.622z" transform="translate(-1212.186 -1901.327)"/>
            <path id="Path_8533" data-name="Path 8533" class="cls-15" d="M1335.91 1931.5s3.281 8.47 6.051 11.065 4.149 1.9 4.149 1.9 7.262 5.705 2.939 7.089-6.571-4.668-6.571-4.668l-6.225-3.112s-5.705-5.014-5.359-8.645 5.016-3.629 5.016-3.629z" transform="translate(-1227.413 -1901.147)"/>
            <path id="Path_8534" data-name="Path 8534" class="cls-14" d="M1335.91 1931.5s3.281 8.47 6.051 11.065 4.149 1.9 4.149 1.9 7.262 5.705 2.939 7.089-6.571-4.668-6.571-4.668l-6.225-3.112s-5.705-5.014-5.359-8.645 5.016-3.629 5.016-3.629z" transform="translate(-1227.413 -1901.147)"/>
            <path id="Path_8535" data-name="Path 8535" class="cls-6" d="M1311.9 1924.245c1.281.065 3.329.642 3.382-3.446 0 0 3.271.763 5.853 1.324a5.286 5.286 0 0 1 3.51 2.623l2.394 4.349a5.294 5.294 0 0 1-4.322 3.285 12.92 12.92 0 0 0 5.533 11.239c6.225 4.322-16.08 10.374-16.08 10.374l-11.065-3.631s1.21-12.449-2.42-15.734c0 0-5.189-.346-7.089-5.189 0 0 3.458-4.495 3.458-6.224s9.682-3.108 9.682-3.108 1.172 4.737 5.255 4.2a10.4 10.4 0 0 1 1.909-.062z" transform="translate(-1217.331 -1898.223)"/>
            <path id="Path_8536" data-name="Path 8536" d="M1311.9 1923.78c1.281.065 3.329.642 3.382-3.446 0 0 3.271.763 5.853 1.325a5.285 5.285 0 0 1 3.51 2.623l2.394 4.349a5.293 5.293 0 0 1-4.322 3.285 12.92 12.92 0 0 0 5.533 11.239c6.225 4.323-16.08 10.375-16.08 10.375l-11.065-3.63s1.21-12.449-2.42-15.734c0 0-5.189-.346-7.089-5.189 0 0 3.458-4.5 3.458-6.224s9.682-3.112 9.682-3.112 1.172 4.737 5.255 4.2a10.4 10.4 0 0 1 1.909-.061z" transform="translate(-1217.331 -1898.102)" style="fill:url(#linear-gradient-9)"/>
            <path id="Path_8537" data-name="Path 8537" class="cls-14" d="M1217.669 1976.55s-.521 6.4-1.729 8.991a14.861 14.861 0 0 0-1.383 4.322s-4.3 9.076-9.081 10.267a1.515 1.515 0 0 0-1.134 1.115c-.192.877.446 1.858 5.2.892a38.931 38.931 0 0 0 7.1-3.631 10.642 10.642 0 0 1 3.871-1.832c1.664-.4 3.444-1.362 2.86-3.7l-1.9-2.766s1.556-3.285 2.42-11.584-6.224-2.074-6.224-2.074z" transform="translate(-1194.931 -1912.132)"/>
            <path id="Path_8538" data-name="Path 8538" class="cls-6" d="M1224.78 1949.941a.34.34 0 0 0 .031.093l.534 2.313 2.075 1.21 3.458-.346 2.248-4.495a2.739 2.739 0 0 0-1.458-1.352c.268 1.171.79 4.668-2.518 4.807-3.976.173-4.322-2.594-4.322-2.594z" transform="translate(-1200.184 -1905.218)"/>
            <path id="Path_8539" data-name="Path 8539" d="M1248.661 1949.4s-14.005-.52-18.154-2.074c0 0 1.556 5.014-2.42 5.188s-4.322-2.594-4.322-2.594l-1.213 10.027s-1.383 6.4-1.21 8.3l-.691 3.8s9.337 3.112 10.374 1.041c0 0-.691-9.682 2.075-11.757l8.3 4.322s7.954 2.939 10.72.865-3.459-17.118-3.459-17.118z" transform="translate(-1199.124 -1905.207)" style="fill:#20262a"/>
            <path id="Path_8540" data-name="Path 8540" d="M1248.661 1949.4s-14.005-.52-18.154-2.074c0 0 1.556 5.014-2.42 5.188s-4.322-2.594-4.322-2.594l-1.213 10.027s-1.383 6.4-1.21 8.3l-.691 3.8s9.337 3.112 10.374 1.041c0 0-.691-9.682 2.075-11.757l8.3 4.322s7.954 2.939 10.72.865-3.459-17.118-3.459-17.118z" transform="translate(-1199.124 -1905.207)" style="fill:url(#linear-gradient-10)"/>
            <path id="Path_8541" data-name="Path 8541" class="cls-6" d="M1310.663 1917.027a6.913 6.913 0 0 0 9.337.966 16.2 16.2 0 0 1-.52-4.15s-7.262-3.285-7.784.52a5.312 5.312 0 0 1-1.033 2.664z" transform="translate(-1222.224 -1896.277)"/>
            <circle id="Ellipse_598" data-name="Ellipse 598" class="cls-15" cx="6.916" cy="6.916" r="6.916" transform="translate(86.711 8.918)"/>
            <path id="Path_8542" data-name="Path 8542" class="cls-6" d="M1317.441 1895.511a1.141 1.141 0 0 1 .595.265 1.944 1.944 0 0 1 .311.892 2.519 2.519 0 0 0 1.189 1.357 18.088 18.088 0 0 1 1.6.928 9.323 9.323 0 0 1 2.007 2.688 13.857 13.857 0 0 0 2.973 3.358c-.173.39-.781.275-1.12.535-.41.313-.233.96 0 1.419s.465 1.068.111 1.44a2.689 2.689 0 0 0-.306.287c-.271.4.243.877.284 1.355s-.381.839-.8 1.041a3.64 3.64 0 0 0-1.21.661c.311.43.635.982.4 1.458-.268.534-1.041.541-1.616.4a.818.818 0 0 0-.472-.026 1.067 1.067 0 0 0-.346.288 1.479 1.479 0 0 1-2.086-.166 1.471 1.471 0 0 1-.209-.32 4.472 4.472 0 0 1-.13-1.487c-.031-.8-.31-1.556-.409-2.351a27.84 27.84 0 0 1 .2-4.028.416.416 0 0 0-.052-.254.435.435 0 0 0-.313-.133 19.444 19.444 0 0 1-2.243-.436c-.571-.149-1.21-.39-1.407-.944a1.157 1.157 0 0 1-.408 1.134 3 3 0 0 1-1.134.548 3.6 3.6 0 0 1-3.008-.1 7.978 7.978 0 0 1-.288 3.162 2.7 2.7 0 0 1-2.354 1.866c-.429 0-.948-.3-.864-.717.047-.241.278-.4.458-.569a.985.985 0 0 0 .172-1.325 4.859 4.859 0 0 0-.485-.328 1.782 1.782 0 0 1-.446-1.53 24.378 24.378 0 0 1 .387-3.393 5.326 5.326 0 0 1 .214-.846 6.09 6.09 0 0 1 .566-1.1l1.678-2.8a3.343 3.343 0 0 1 .772-.98c1.177-.9 2.542.2 3.673-.439a6.12 6.12 0 0 1 1.7-.9 5.573 5.573 0 0 1 2.416.09z" transform="translate(-1221.027 -1891.863)"/>
            <path id="Path_8543" data-name="Path 8543" d="M1317.441 1895.278a1.143 1.143 0 0 1 .595.265 1.945 1.945 0 0 1 .311.892 2.52 2.52 0 0 0 1.189 1.357 18.059 18.059 0 0 1 1.6.928 9.315 9.315 0 0 1 2.007 2.689 13.867 13.867 0 0 0 2.973 3.358c-.173.39-.781.275-1.12.534-.41.313-.233.96 0 1.419s.465 1.068.111 1.44a2.533 2.533 0 0 0-.306.287c-.271.4.243.876.284 1.355s-.381.839-.8 1.041a3.637 3.637 0 0 0-1.21.661c.311.431.635.982.4 1.458-.268.534-1.041.541-1.616.4a.819.819 0 0 0-.472-.026 1.071 1.071 0 0 0-.346.288 1.48 1.48 0 0 1-2.086-.166 1.473 1.473 0 0 1-.209-.32 4.474 4.474 0 0 1-.13-1.487c-.031-.8-.31-1.556-.409-2.351a27.84 27.84 0 0 1 .2-4.028.416.416 0 0 0-.052-.254.435.435 0 0 0-.313-.133 19.469 19.469 0 0 1-2.243-.436c-.571-.149-1.21-.389-1.407-.944a1.157 1.157 0 0 1-.408 1.134 3 3 0 0 1-1.134.548 3.6 3.6 0 0 1-3.008-.1 7.979 7.979 0 0 1-.288 3.162 2.7 2.7 0 0 1-2.354 1.866c-.429 0-.948-.3-.864-.717.047-.242.278-.4.458-.569a.985.985 0 0 0 .172-1.325 4.725 4.725 0 0 0-.485-.329 1.782 1.782 0 0 1-.446-1.53 24.38 24.38 0 0 1 .387-3.393 5.324 5.324 0 0 1 .214-.847 6.088 6.088 0 0 1 .566-1.1l1.678-2.8a3.34 3.34 0 0 1 .772-.98c1.177-.9 2.542.2 3.673-.439a6.126 6.126 0 0 1 1.7-.9 5.569 5.569 0 0 1 2.416.092z" transform="translate(-1221.027 -1891.804)" style="fill:url(#linear-gradient-11)"/>
            <path id="Path_8544" data-name="Path 8544" class="cls-13" d="m1324.142 1964.489 2.594 1.729a27.336 27.336 0 0 1 3.332-4.906 17.883 17.883 0 0 1 4.795-4.083c5.014-2.766-4.841-4.322-4.841-4.322a19.821 19.821 0 0 1-2.42 2.912c-1.739 1.729-4.219 3.458-6.744 2.793-4.668-1.212 3.284 5.877 3.284 5.877z" transform="translate(-1224.464 -1906.64)"/>
            <path id="Rectangle_2847" data-name="Rectangle 2847" transform="translate(84.291 47.994)" style="fill:#d6def3" d="M0 0h10.72v3.631H0z"/>
            <path id="Path_8545" data-name="Path 8545" class="cls-13" d="M1313.062 1939.329a30.953 30.953 0 0 1 2.42-4.5c.865-1.041 1.041-4.668 1.041-4.668s1.041-6.4-2.075-7.784-2.248 7.954-2.248 7.954l.173 1.383s-4.668 4.323-4.5 7.608 5.189.007 5.189.007z" transform="translate(-1221.509 -1898.77)"/>
            <path id="Path_8546" data-name="Path 8546" class="cls-14" d="M1313.062 1939.329a30.953 30.953 0 0 1 2.42-4.5c.865-1.041 1.041-4.668 1.041-4.668s1.041-6.4-2.075-7.784-2.248 7.954-2.248 7.954l.173 1.383s-4.668 4.323-4.5 7.608 5.189.007 5.189.007z" transform="translate(-1221.509 -1898.77)"/>
            <path id="Path_8547" data-name="Path 8547" class="cls-6" d="M1322.518 1953.7s-1.556-.691-1.9-1.729-4.668-.521-4.668-.521l-5.189-1.041s-1.383-2.075 0-3.112 1.384-3.285 1.384-3.285-4.8 0-5.933-1.231a1.049 1.049 0 0 1-.118-.153c-.864-1.383-4.495 11.412-4.495 11.412l8.645-1.729 6.571 3.8s3.799.699 5.703-2.411z" transform="translate(-1219.898 -1903.975)"/>
            <path id="Path_8548" data-name="Path 8548" d="M1322.518 1953.465s-1.556-.691-1.9-1.729-4.668-.52-4.668-.52l-5.189-1.041s-1.383-2.074 0-3.111 1.384-3.285 1.384-3.285-4.8 0-5.933-1.231a1.09 1.09 0 0 1-.118-.153c-.864-1.383-4.495 11.412-4.495 11.412l8.645-1.729 6.571 3.8s3.799.7 5.703-2.413z" transform="translate(-1219.898 -1903.915)" style="fill:#945072"/>
            <path id="Path_8549" data-name="Path 8549" d="M1322.518 1953.465s-1.556-.691-1.9-1.729-4.668-.52-4.668-.52l-5.189-1.041s-1.383-2.074 0-3.111 1.384-3.285 1.384-3.285-4.8 0-5.933-1.231a1.09 1.09 0 0 1-.118-.153c-.864-1.383-4.495 11.412-4.495 11.412l8.645-1.729 6.571 3.8s3.799.7 5.703-2.413z" transform="translate(-1219.898 -1903.915)" style="fill:url(#linear-gradient-12)"/>
            <path id="Path_8550" data-name="Path 8550" class="cls-6" d="m1292.709 1968.383 2.037-2.145-1.9-4.5h-1.556s-1.001 4.675 1.419 6.645z" transform="translate(-1217.2 -1908.908)"/>
            <path id="Path_8551" data-name="Path 8551" d="m1296.88 1960.46-3.458-.346a9.061 9.061 0 0 1-1.9 1.21s-1.041 4.841 1.556 6.744 5.873-1.729 5.873-1.729l2.939-3.458z" transform="translate(-1217.259 -1908.49)" style="fill:url(#linear-gradient-13)"/>
            <path id="Path_8552" data-name="Path 8552" class="cls-13" d="M1225.338 1977.193a36.5 36.5 0 0 0 9.682-2.075c5.359-1.9 4.495-6.4 4.495-6.4l3.135-7.693.669-1.644-6.744-4.149s-.246 1.06-.562 2.547c-.483 2.258-1.131 5.5-1.338 7.478-.346 3.285-4.323 4.841-4.323 4.841l-7.089 2.939s-2.594-.691-4.323.521 6.398 3.635 6.398 3.635z" transform="translate(-1198.623 -1907.238)"/>
            <path id="Path_8553" data-name="Path 8553" class="cls-6" d="M1287.015 1961.743h-1.7l2.766 6.051 1.9 1.9.892-.939z" transform="translate(-1215.719 -1908.908)"/>
            <path id="Path_8554" data-name="Path 8554" class="cls-6" d="M1247.4 1933.348c0 2.421 8.645-2.248 8.645-2.248a3.275 3.275 0 0 0-.223-.5c-6.338 3.088-7.966 1.852-8.326 1.355a7.44 7.44 0 0 0-.096 1.393z" transform="translate(-1205.988 -1900.916)"/>
            <path id="Path_8555" data-name="Path 8555" class="cls-6" d="m1263.716 1937.129-2.594-1.9 5.189 10.029.484-2.1-.268-.521c-3.482-2.42-2.962-4.668-2.718-5.319z" transform="translate(-1209.51 -1902.103)"/>
            <path id="Path_8556" data-name="Path 8556" class="cls-6" d="M1241.992 1957.777a28.461 28.461 0 0 1 6.639 3.247l.669-1.644-6.744-4.15s-.256 1.06-.564 2.547z" transform="translate(-1204.601 -1907.236)"/>
            <path id="Path_8557" data-name="Path 8557" d="m1274.423 1952.532 5.705 10.375-4.149 2.594a18.717 18.717 0 0 1-8.772.966 35.257 35.257 0 0 0-4.149-.534c-.88-.06-1.9-.173-2.956-.346a8.211 8.211 0 0 1-6.571-6.01c-1.068-4.057-2.545-10.29-2.167-12.333a1.83 1.83 0 0 1 .062-.253l-1.729 5.189-.865 2.594s-6.224-4.149-8.645-3.8c0 0 2.939-8.126 3.285-11.584a29.767 29.767 0 0 1 2.075-7.434s.865 2.594 8.819-1.384l3.976 5.36s-1.556 2.766 2.939 5.705l5.014 11.585z" transform="translate(-1204.138 -1900.907)" style="fill:url(#linear-gradient-14)"/>
            <path id="Path_8558" data-name="Path 8558" class="cls-6" d="M1330.436 1956.018a6.891 6.891 0 0 0 2.467 5.293 17.884 17.884 0 0 1 4.795-4.083c5.014-2.766-4.841-4.322-4.841-4.322a19.9 19.9 0 0 1-2.42 2.912l-.001.2z" transform="translate(-1227.299 -1906.64)"/>
            <circle id="Ellipse_599" data-name="Ellipse 599" class="cls-13" cx="6.916" cy="6.916" r="6.916" transform="translate(103.483 42.461)"/>
            <path id="Path_8559" data-name="Path 8559" class="cls-6" d="M1285.08 1972.766s1.9.52 8.471-1.041 10.893-.521 12.622 0 7.784-.346 11.239-1.21 3.8-6.051 3.8-6.051c-1.21.173-6.571-4.841-6.571-4.841-3.112-2.766-8.819-2.766-8.819-2.766l-2.213.4-9.366 1.678-1.077 1.627z" transform="translate(-1215.659 -1907.654)"/>
            <path id="Path_8560" data-name="Path 8560" d="M1285.312 1973s1.9.52 8.471-1.041 10.893-.521 12.621 0 7.784-.346 11.239-1.21 3.8-6.047 3.8-6.047c-1.21.173-6.571-4.841-6.571-4.841-3.112-2.766-8.819-2.766-8.819-2.766l-2.213.4-9.366 1.678-1.077 1.627z" transform="translate(-1215.719 -1907.714)" style="fill:url(#linear-gradient-15)"/>
            <path id="Path_8561" data-name="Path 8561" class="cls-6" d="m1296.191 1960.931 13.7 9.784c3.934 1.338 6.27.586 7.657-.773a5.234 5.234 0 0 0-1.587-8.455 14.175 14.175 0 0 0-4.513-1.145l-4.807-2.714-9.366 1.678z" transform="translate(-1218.511 -1907.852)"/>
            <path id="Path_8562" data-name="Path 8562" class="cls-6" d="M1289.883 1961.743a1.013 1.013 0 0 1-1.2 0" transform="translate(-1216.584 -1908.908)"/>
            <path id="Path_8563" data-name="Path 8563" d="M1314.131 1915.736s.52-.012.543.408a22.564 22.564 0 0 1-.662 2.66c-.173.6-.345 1.21-.484 1.688l-.292 1-.137.288-.818 1.742-.769 1.635-.479.617-2.509-1.733-1.244-3.166.572-.251.1-.044 1.1-.865 3.112-2.42 1.4-1.089.173-.128z" transform="translate(-1221.356 -1897.1)" style="fill:url(#linear-gradient-16)"/>
            <path id="Path_8564" data-name="Path 8564" d="M1310.034 1928.561s-2.756-1.84-3.242-3.458a8.48 8.48 0 0 1-.458-2.061s-.1-.646 1.153-.61a5.847 5.847 0 0 0 1.746 3.595l1.532 1.24z" transform="translate(-1221.113 -1898.818)" style="fill:url(#linear-gradient-17)"/>
            <ellipse id="Ellipse_600" data-name="Ellipse 600" class="cls-31" cx=".865" cy="1.02" rx=".865" ry="1.02" transform="rotate(-6.28 271.034 -783.798)"/>
            <ellipse id="Ellipse_601" data-name="Ellipse 601" class="cls-31" cx=".865" cy="1.02" rx=".865" ry="1.02" transform="rotate(-6.28 242.902 -792.205)"/>
            <path id="Path_8565" data-name="Path 8565" d="M1309.259 1921.108a1.067 1.067 0 0 1 .52.827.875.875 0 0 1-1.686.471.887.887 0 0 1-.031-.282v-.116l.1-.044z" transform="translate(-1221.557 -1898.479)" style="fill:url(#linear-gradient-20)"/>
            <path id="Path_8566" data-name="Path 8566" d="M1314.02 1923.584a.8.8 0 0 1 .61.206l-.818 1.742a1.062 1.062 0 0 1-.543-.839.953.953 0 0 1 .751-1.109z" transform="translate(-1222.89 -1899.114)" style="fill:url(#linear-gradient-21)"/>
            <path id="Path_8567" data-name="Path 8567" d="M1315.087 1919.411a.826.826 0 0 1 .737.336l-.484 1.688h-.03a1.031 1.031 0 0 1-.223-2.023z" transform="translate(-1223.166 -1898.043)" style="fill:url(#linear-gradient-22)"/>
            <path id="Path_8568" data-name="Path 8568" d="M1315.274 1916.387a1.214 1.214 0 0 1 .082.32.95.95 0 0 1-.743 1.109.832.832 0 0 1-.743-.346z" transform="translate(-1223.047 -1897.268)" style="fill:url(#linear-gradient-23)"/>
            <path id="Path_8569" data-name="Path 8569" class="cls-36" d="m1312.269 1926.742.325-.036a1.793 1.793 0 0 1-.1-.763.108.108 0 0 1 .012-.051c.09-.314-.325.037-.325.037s-.045.671.088.813z" transform="translate(-1222.612 -1899.673)"/>
            <path id="Path_8570" data-name="Path 8570" class="cls-36" d="m1310.755 1923.749.325-.036a1.792 1.792 0 0 1-.1-.764.106.106 0 0 1 .012-.05c.09-.315-.325.036-.325.036s-.036.673.088.814z" transform="translate(-1222.224 -1898.905)"/>
            <path id="Path_8571" data-name="Path 8571" class="cls-36" d="m1312.206 1923.051.325-.036a1.793 1.793 0 0 1-.1-.763.107.107 0 0 1 .012-.051c.09-.314-.325.037-.325.037s-.045.672.088.813z" transform="translate(-1222.596 -1898.726)"/>
            <path id="Path_8572" data-name="Path 8572" class="cls-36" d="m1314.232 1921.047.325-.036a1.793 1.793 0 0 1-.1-.766.107.107 0 0 1 .012-.051c.09-.314-.325.037-.325.037s-.044.675.088.816z" transform="translate(-1223.116 -1898.211)"/>
            <path id="Path_8573" data-name="Path 8573" class="cls-36" d="m1315.833 1917.489.325-.036a1.8 1.8 0 0 1-.1-.764.11.11 0 0 1 .012-.051c.09-.314-.325.036-.325.036s-.052.674.088.815z" transform="translate(-1223.526 -1897.299)"/>
            <path id="Path_8574" data-name="Path 8574" class="cls-36" d="m1313.164 1919.743.325-.036a1.8 1.8 0 0 1-.1-.763.106.106 0 0 1 .012-.051c.09-.314-.325.037-.325.037s-.045.67.088.813z" transform="translate(-1222.841 -1897.877)"/>
            <path id="Path_8575" data-name="Path 8575" d="M1312.307 1926.807s-.6.944-1 .112a3.611 3.611 0 0 1 .839-1.627s2.278-4.149 2.248-4.854a37.908 37.908 0 0 0 1.155-4.4s.223-.275.173.865a28.557 28.557 0 0 1-1.086 4.372l-1.321 3.325-.711 1.081z" transform="translate(-1222.389 -1897.17)" style="fill:#e7c4c3"/>
            <path id="Path_8576" data-name="Path 8576" d="M1312.307 1926.807s-.6.944-1 .112a3.611 3.611 0 0 1 .839-1.627s2.278-4.149 2.248-4.854a37.908 37.908 0 0 0 1.155-4.4s.223-.275.173.865a28.557 28.557 0 0 1-1.086 4.372l-1.321 3.325-.711 1.081z" transform="translate(-1222.389 -1897.17)" style="fill:url(#linear-gradient-24)"/>
            <path id="Path_8577" data-name="Path 8577" class="cls-13" d="M1298.106 1938.43c0 1.21 4.15 1.9 4.15 1.9l.586-1.041 4.427-7.774s2.766-6.913 0-7.954-3.112 6.913-3.112 6.913a80.682 80.682 0 0 0-5.483 6.755 3.035 3.035 0 0 0-.568 1.201z" transform="translate(-1219.002 -1899.085)"/>
            <path id="Path_8578" data-name="Path 8578" class="cls-6" d="M1298.1 1943.181c0 1.21 4.15 1.9 4.15 1.9l.586-1.041c-1.546-.051-3.51-1.54-4.167-2.075a3.141 3.141 0 0 0-.569 1.216z" transform="translate(-1219.002 -1903.832)"/>
            <path id="Path_8579" data-name="Path 8579" d="M1316.733 1965.462c-1.383 1.359-3.722 2.107-7.657.773L1293.342 1955s-2.248-1.21 0-6.571 3.631-6.225 3.631-6.225 2.766 2.42 4.668 2.248l-1.729 5.36 10.715 6.051a14.188 14.188 0 0 1 4.513 1.145 5.232 5.232 0 0 1 1.592 8.457z" transform="translate(-1217.523 -1903.893)" style="fill:url(#linear-gradient-25)"/>
            <path id="Path_8580" data-name="Path 8580" class="cls-6" d="M1342.177 1947.8c1.145.5 1.631 1.852 2.551 2.7a11.393 11.393 0 0 0 3.434 1.635c1.171.5 2.365 1.455 2.355 2.732s-1.268 2.4-1.055 3.674c.109.656.595 1.2.709 1.853a2.505 2.505 0 0 1-.678 1.967c-1.259 1.494-3.3 2.007-5.168 2.563s-3.892 1.383-4.732 3.143c-.223.47-.346.98-.554 1.459a6.522 6.522 0 0 1-4.129 3.406 19.361 19.361 0 0 1-5.464.643 4.634 4.634 0 0 1-1.992-.25 1.587 1.587 0 0 1-1.006-1.586 2.477 2.477 0 0 1 .9-1.264 6.855 6.855 0 0 0 1.842-2.42 2.97 2.97 0 0 0-.281-2.906c-.754-.944-2.1-1.138-3.085-1.841a3.614 3.614 0 0 1-.034-5.575 17.7 17.7 0 0 1 2.049-1.063c2.029-1.115 3.187-3.351 5.036-4.741 1.471-1.1 3.271-1.6 4.841-2.527 1.456-.857 2.5-2.451 4.461-1.602z" transform="translate(-1225.774 -1905.268)"/>
            <path id="Path_8581" data-name="Path 8581" d="M1342.641 1947.8c1.145.5 1.631 1.852 2.551 2.7a11.393 11.393 0 0 0 3.434 1.635c1.171.5 2.365 1.455 2.355 2.732s-1.267 2.4-1.055 3.674c.109.656.595 1.2.709 1.853a2.506 2.506 0 0 1-.678 1.967c-1.259 1.494-3.3 2.007-5.168 2.563s-3.891 1.383-4.732 3.143c-.223.47-.346.98-.555 1.459a6.522 6.522 0 0 1-4.129 3.406 19.361 19.361 0 0 1-5.464.643 4.624 4.624 0 0 1-1.987-.252 1.586 1.586 0 0 1-1.007-1.585 2.48 2.48 0 0 1 .9-1.264 6.851 6.851 0 0 0 1.841-2.42 2.97 2.97 0 0 0-.28-2.907c-.754-.944-2.1-1.138-3.086-1.841a3.614 3.614 0 0 1-.034-5.575 17.655 17.655 0 0 1 2.049-1.063c2.028-1.115 3.187-3.351 5.036-4.741 1.471-1.1 3.271-1.6 4.841-2.527 1.456-.855 2.5-2.449 4.459-1.6z" transform="translate(-1225.894 -1905.268)" style="fill:url(#linear-gradient-26)"/>
        </g>
    </g>
</svg>
