<svg xmlns="http://www.w3.org/2000/svg" xmlns:xlink="http://www.w3.org/1999/xlink" viewBox="0 0 379.36 353.43"><defs><style>.cls-1{fill:#ebebeb;}.cls-2{fill:#e0e0e0;}.cls-3{fill:#f0f0f0;}.cls-4{fill:#f5f5f5;}.cls-14,.cls-17,.cls-5{fill:#407bff;}.cls-6{fill:#947aff;}.cls-10,.cls-11,.cls-13,.cls-16,.cls-17,.cls-18,.cls-19,.cls-20,.cls-24,.cls-25,.cls-26,.cls-6,.cls-7{isolation:isolate;}.cls-13,.cls-6{opacity:0.7;}.cls-13,.cls-18,.cls-19,.cls-21,.cls-24,.cls-25,.cls-7{fill:#fff;}.cls-7{opacity:0.4;}.cls-8{fill:url(#linear-gradient);}.cls-9{fill:url(#linear-gradient-2);}.cls-10,.cls-11,.cls-24{opacity:0.1;}.cls-12,.cls-25,.cls-26{opacity:0.2;}.cls-14{opacity:0.63;}.cls-15{fill:url(#linear-gradient-3);}.cls-16{fill:#e7eef4;opacity:0.8;}.cls-18{opacity:0.5;}.cls-19,.cls-20{opacity:0.6;}.cls-22,.cls-35{fill:none;}.cls-22{stroke:#263238;stroke-miterlimit:10;stroke-width:3px;}.cls-23{fill:#263238;}.cls-27{fill:url(#linear-gradient-4);}.cls-28{fill:url(#linear-gradient-5);}.cls-29{fill:#ebb376;}.cls-30{fill:url(#linear-gradient-6);}.cls-31{fill:#e4897b;}.cls-32{fill:url(#linear-gradient-7);}.cls-33{fill:url(#linear-gradient-8);}.cls-34{fill:url(#linear-gradient-9);}.cls-35{stroke:#7c1a1a;stroke-linecap:round;stroke-linejoin:round;stroke-width:0.5px;}.cls-36{fill:url(#linear-gradient-10);}.cls-37{fill:url(#linear-gradient-11);}.cls-38{fill:url(#linear-gradient-12);}</style><linearGradient id="linear-gradient" x1="133.96" y1="243.58" x2="195.43" y2="243.58" gradientUnits="userSpaceOnUse"><stop offset="0" stop-color="#fff"/><stop offset="1" stop-color="#715afa"/></linearGradient><linearGradient id="linear-gradient-2" x1="4.7" y1="313.58" x2="142.99" y2="175.29" xlink:href="#linear-gradient"/><linearGradient id="linear-gradient-3" x1="0" y1="309.98" x2="147.69" y2="309.98" xlink:href="#linear-gradient"/><linearGradient id="linear-gradient-4" x1="231.73" y1="287.93" x2="271.56" y2="287.93" gradientUnits="userSpaceOnUse"><stop offset="0" stop-color="#e9a47d"/><stop offset="1" stop-color="#e06a63"/></linearGradient><linearGradient id="linear-gradient-5" x1="231.73" y1="288.72" x2="253.63" y2="288.72" xlink:href="#linear-gradient-4"/><linearGradient id="linear-gradient-6" x1="201.47" y1="169.08" x2="227.98" y2="169.08" gradientUnits="userSpaceOnUse"><stop offset="0" stop-color="#5ea4f4"/><stop offset="1" stop-color="#2f44bc"/></linearGradient><linearGradient id="linear-gradient-7" x1="167.98" y1="163.28" x2="204.45" y2="163.28" xlink:href="#linear-gradient-6"/><linearGradient id="linear-gradient-8" x1="179.63" y1="109.79" x2="205.55" y2="109.79" gradientUnits="userSpaceOnUse"><stop offset="0" stop-color="#7c2525"/><stop offset="1" stop-color="#521818"/></linearGradient><linearGradient id="linear-gradient-9" x1="182.08" y1="132.09" x2="188.39" y2="132.09" xlink:href="#linear-gradient-8"/><linearGradient id="linear-gradient-10" x1="157.19" y1="194.25" x2="217.63" y2="159.35" xlink:href="#linear-gradient-6"/><linearGradient id="linear-gradient-11" x1="139.17" y1="145.13" x2="174.03" y2="145.13" xlink:href="#linear-gradient-6"/><linearGradient id="linear-gradient-12" x1="178.85" y1="134.77" x2="212.37" y2="134.77" xlink:href="#linear-gradient-8"/></defs><g id="Layer_2" data-name="Layer 2"><g id="Character_1" data-name="Character 1"><rect class="cls-1" x="279.17" y="327.08" width="8.69" height="0.25"/><rect class="cls-1" x="353.23" y="315.08" width="19.19" height="0.25"/><rect class="cls-1" x="9.11" y="316.76" width="43.19" height="0.25"/><rect class="cls-1" x="61.2" y="316.76" width="6.33" height="0.25"/><rect class="cls-1" x="88.12" y="320.98" width="93.68" height="0.25"/><polygon class="cls-2" points="340.42 9.19 118.44 9.19 185 112.78 324.31 112.78 340.42 9.19"/><rect class="cls-3" x="310.36" y="13.38" width="17.21" height="296.08"/><rect class="cls-1" x="118.44" width="221.98" height="9.19"/><rect class="cls-3" x="229.52" y="35.29" width="3.41" height="45.14"/><rect class="cls-3" x="172.52" y="35.29" width="3.41" height="45.14"/><rect class="cls-3" x="169.15" y="73.78" width="67.16" height="24.92"/><path class="cls-2" d="M117.12,191.86h43.14a30.39,30.39,0,0,1,30.39,30.39v85.06a0,0,0,0,1,0,0H86.73a0,0,0,0,1,0,0V222.25A30.39,30.39,0,0,1,117.12,191.86Z"/><path class="cls-3" d="M110,172.06c.53.49,1.06,1,1.6,1.46h-6Q95.43,165,85.86,156.64h7.91c1.91,1.86,3.81,3.71,5.74,5.55Z"/><path class="cls-3" d="M124.65,173.52h-8.26l-4.08-3.9-10.22-10.06c-1-1-1.93-1.94-2.89-2.92h9.89Q117.42,165.87,124.65,173.52Z"/><path class="cls-3" d="M119.77,180.9q7.8,7,15.79,13.72h-3.78q-8.76-6.85-17.17-13.72Z"/><path class="cls-3" d="M145.22,194.62h-5.79q-7.71-6.72-15.2-13.72h7.45Q139.21,188.72,145.22,194.62Z"/><rect class="cls-2" x="237" y="105.39" width="1.56" height="20.59"/><rect class="cls-2" x="211" y="105.39" width="1.56" height="20.59"/><rect class="cls-2" x="209.46" y="122.95" width="30.63" height="11.37"/><ellipse id="_Path_" data-name="&lt;Path&gt;" class="cls-4" cx="206.65" cy="342.11" rx="172.71" ry="11.32"/><path class="cls-3" d="M187.72,203.46H176.64q7.37,5.59,14.93,11.12H200S195.72,211,187.72,203.46Z"/><path class="cls-5" d="M329.43,248v59.36l-28.94-.45-9.2-.14V292.51a7.19,7.19,0,0,1,.88-3.45L298,278.38a5.33,5.33,0,0,1,2.5-2.31,5.27,5.27,0,0,1,2.16-.46h19.27V256.15a5.31,5.31,0,0,1,.76-2.74l3.72-6.16.05-.08a1.6,1.6,0,0,1,3,.82Z"/><path class="cls-6" d="M329.43,248v59.36l-28.94-.45-9.2-.14V292.51a7.19,7.19,0,0,1,.88-3.45L298,278.38a5.33,5.33,0,0,1,2.5-2.31,5.27,5.27,0,0,1,2.16-.46h19.27V256.15a5.31,5.31,0,0,1,.76-2.74l3.72-6.16.05-.08a1.6,1.6,0,0,1,3,.82Z"/><path class="cls-7" d="M329.43,248v59.36l-28.94-.45V276.07a5.27,5.27,0,0,1,2.16-.46H326.4V247.25l.05-.08a1.6,1.6,0,0,1,3,.82Z"/><path class="cls-5" d="M193.42,247.37l-1.95-1.46a35.69,35.69,0,0,0-3.21-2.13c-23.36-18.13-40.94-57.94-45.38-67.52a14.3,14.3,0,0,0-3.43-4.49l-2.4,22.49L134,310.33h11.28l.36,5.06c29.87-3.82,49.83-5.06,49.83-5.06v-59A5,5,0,0,0,193.42,247.37Z"/><path class="cls-8" d="M193.42,247.37l-1.95-1.46a35.69,35.69,0,0,0-3.21-2.13c-23.36-18.13-40.94-57.94-45.38-67.52a14.3,14.3,0,0,0-3.43-4.49l-2.4,22.49L134,310.33h11.28l.36,5.06c29.87-3.82,49.83-5.06,49.83-5.06v-59A5,5,0,0,0,193.42,247.37Z"/><path class="cls-5" d="M86.92,152.12H60.77a79.11,79.11,0,0,0-47.38,15.76L9,171.16a11.32,11.32,0,0,0-4.53,9.06V313.33H143.23V180.22a11.32,11.32,0,0,0-4.53-9.06l-4.39-3.28A79.14,79.14,0,0,0,86.92,152.12Z"/><path class="cls-9" d="M86.92,152.12H60.77a79.11,79.11,0,0,0-47.38,15.76L9,171.16a11.32,11.32,0,0,0-4.53,9.06V313.33H143.23V180.22a11.32,11.32,0,0,0-4.53-9.06l-4.39-3.28A79.14,79.14,0,0,0,86.92,152.12Z"/><rect class="cls-5" y="304.56" width="147.69" height="10.83" rx="2.09"/><rect class="cls-10" x="55.38" y="194.26" width="36.92" height="108.77"/><g class="cls-11"><rect x="102.31" y="194.26" width="30.07" height="39.91" rx="7.21"/><rect x="15.31" y="194.26" width="30.07" height="39.91" rx="7.21"/></g><rect class="cls-10" x="65.04" y="204.07" width="17.61" height="26.29" rx="3.82"/><circle class="cls-12" cx="129.85" cy="268.35" r="5.48"/><path class="cls-13" d="M132.59,268.35a2.74,2.74,0,1,1-2.74-2.74A2.74,2.74,0,0,1,132.59,268.35Z"/><circle class="cls-12" cx="129.85" cy="282.35" r="5.48"/><circle class="cls-12" cx="17.85" cy="268.35" r="5.48"/><path class="cls-13" d="M20.59,268.35a2.74,2.74,0,1,1-2.74-2.74A2.74,2.74,0,0,1,20.59,268.35Z"/><circle class="cls-12" cx="17.85" cy="282.35" r="5.48"/><path class="cls-14" d="M94.06,265.61H52.75a1.37,1.37,0,0,1-1.37-1.37h0a1.37,1.37,0,0,1,1.37-1.37H94.06a1.37,1.37,0,0,1,1.37,1.37h0A1.37,1.37,0,0,1,94.06,265.61Z"/><path class="cls-14" d="M94.06,280.61H52.75a1.37,1.37,0,0,1-1.37-1.37h0a1.37,1.37,0,0,1,1.37-1.37H94.06a1.37,1.37,0,0,1,1.37,1.37h0A1.37,1.37,0,0,1,94.06,280.61Z"/><path class="cls-14" d="M94.06,295.61H52.75a1.37,1.37,0,0,1-1.37-1.37h0a1.37,1.37,0,0,1,1.37-1.37H94.06a1.37,1.37,0,0,1,1.37,1.37h0A1.37,1.37,0,0,1,94.06,295.61Z"/><rect class="cls-15" y="304.56" width="147.69" height="10.83" rx="2.09"/><path class="cls-5" d="M189.44,305.43H359.07L372.43,315H153.13S176.08,305.43,189.44,305.43Z"/><path class="cls-16" d="M189.44,305.43H359.07L372.43,315H153.13S176.08,305.43,189.44,305.43Z"/><path class="cls-17" d="M155.78,315.05a190.18,190.18,0,0,1,41.08-9.6s-20.4-1.08-51.39,9.6Z"/><path class="cls-18" d="M155.78,315.05a190.18,190.18,0,0,1,41.08-9.6s-20.4-1.08-51.39,9.6Z"/><path class="cls-5" d="M322.5,298.64a11.61,11.61,0,0,1,.39-10.51c3.09-5.22,4-6.45,2-7.51s-2.87,4.17-2.87,4.17a10.66,10.66,0,0,1-.29-7.38c1.37-3.78,2.23-9.92.36-10.58s-.36,7.67-2,10.5a22.09,22.09,0,0,1-1.59-6.19c-.23-3,.12-7.87-1.35-9.11s-2.43-.38-1,6.31a62.71,62.71,0,0,1,1.45,12.12s-3.21-8.77-5.37-9-2.15,2.59-.3,5.05,5.39,6.88,6,9.16c0,0-3.52-6.61-6.69-4.58s2.76,6,5.4,7.45S321.14,299,321.14,299Z"/><path class="cls-19" d="M322.5,298.64a11.61,11.61,0,0,1,.39-10.51c3.09-5.22,4-6.45,2-7.51s-2.87,4.17-2.87,4.17a10.66,10.66,0,0,1-.29-7.38c1.37-3.78,2.23-9.92.36-10.58s-.36,7.67-2,10.5a22.09,22.09,0,0,1-1.59-6.19c-.23-3,.12-7.87-1.35-9.11s-2.43-.38-1,6.31a62.71,62.71,0,0,1,1.45,12.12s-3.21-8.77-5.37-9-2.15,2.59-.3,5.05,5.39,6.88,6,9.16c0,0-3.52-6.61-6.69-4.58s2.76,6,5.4,7.45S321.14,299,321.14,299Z"/><path class="cls-5" d="M320.37,300.81a11.61,11.61,0,0,0-.53-10.5c-3.16-5.18-4.07-6.4-2.11-7.49s2.92,4.13,2.92,4.13a10.58,10.58,0,0,0,.19-7.38c-1.42-3.76-2.36-9.89-.49-10.57s.45,7.66,2.12,10.48a22.37,22.37,0,0,0,1.5-6.22c.19-3-.23-7.87,1.23-9.13s2.42-.41,1.06,6.3A63.23,63.23,0,0,0,325,282.57s3.09-8.82,5.24-9.1,2.19,2.56.38,5-5.31,7-5.86,9.23c0,0,3.43-6.65,6.63-4.67s-2.68,6.05-5.3,7.52-4.34,10.54-4.34,10.54Z"/><path class="cls-13" d="M320.37,300.81a11.61,11.61,0,0,0-.53-10.5c-3.16-5.18-4.07-6.4-2.11-7.49s2.92,4.13,2.92,4.13a10.58,10.58,0,0,0,.19-7.38c-1.42-3.76-2.36-9.89-.49-10.57s.45,7.66,2.12,10.48a22.37,22.37,0,0,0,1.5-6.22c.19-3-.23-7.87,1.23-9.13s2.42-.41,1.06,6.3A63.23,63.23,0,0,0,325,282.57s3.09-8.82,5.24-9.1,2.19,2.56.38,5-5.31,7-5.86,9.23c0,0,3.43-6.65,6.63-4.67s-2.68,6.05-5.3,7.52-4.34,10.54-4.34,10.54Z"/><polygon class="cls-5" points="332.51 297.01 310.76 297.01 312.52 310.97 330.75 310.97 332.51 297.01"/><g class="cls-20"><polygon class="cls-21" points="332.51 297.01 310.76 297.01 312.52 310.97 330.75 310.97 332.51 297.01"/></g><rect class="cls-22" x="226.71" y="206.93" width="10.33" height="51.37" transform="translate(483.29 443.95) rotate(174.96)"/><path class="cls-23" d="M243.39,328.57l1.64-.15a3.28,3.28,0,1,1,.57,6.54l-1.63.15a3.28,3.28,0,1,1-.58-6.54Z"/><path class="cls-24" d="M240.34,332.07a3.35,3.35,0,1,0,3-3.62A3.36,3.36,0,0,0,240.34,332.07Z"/><path class="cls-23" d="M234.4,329.36l1.63-.14a3.28,3.28,0,1,1,.58,6.54l-1.63.14a3.28,3.28,0,1,1-.58-6.54Z"/><path class="cls-25" d="M231.35,332.86a3.34,3.34,0,1,0,3-3.62A3.35,3.35,0,0,0,231.35,332.86Z"/><rect class="cls-23" x="227.23" y="247.98" width="17.23" height="82.2" rx="2.69" transform="translate(496.17 556.32) rotate(174.96)"/><rect class="cls-25" x="233.59" y="247.7" width="10.85" height="82.2" rx="2.69" transform="translate(502.49 555.48) rotate(174.96)"/><rect class="cls-23" x="222.62" y="204.25" width="14.06" height="4.31" rx="2" transform="translate(476.55 391.83) rotate(174.96)"/><rect class="cls-25" x="222.62" y="204.25" width="14.06" height="4.31" rx="2" transform="translate(476.55 391.83) rotate(174.96)"/><rect class="cls-26" x="222.64" y="204.68" width="4.2" height="4.31" rx="2" transform="translate(466.8 393.11) rotate(174.96)"/><path class="cls-27" d="M265.37,251.4l6.17,70a4.68,4.68,0,0,1-4.25,5.07l-25.57,2.26a3.3,3.3,0,0,1-3.56-3L231.75,253a3.28,3.28,0,0,1,3-3.56l25.58-2.26A4.68,4.68,0,0,1,265.37,251.4Z"/><path class="cls-28" d="M247.44,253l6.17,70a4.69,4.69,0,0,1-4.25,5.08l-7.64.67a3.3,3.3,0,0,1-3.56-3L231.75,253a3.28,3.28,0,0,1,3-3.56l7.64-.68A4.7,4.7,0,0,1,247.44,253Z"/><path class="cls-26" d="M257.41,323.84h0a1.09,1.09,0,0,1-1.18-1l-6.26-71a1.09,1.09,0,0,1,1-1.17h0a1.09,1.09,0,0,1,1.18,1l6.26,71A1.09,1.09,0,0,1,257.41,323.84Z"/><path class="cls-26" d="M261.23,323.5h0a1.09,1.09,0,0,1-1.18-1l-6.26-71a1.08,1.08,0,0,1,1-1.18h0a1.09,1.09,0,0,1,1.18,1l6.26,71A1.08,1.08,0,0,1,261.23,323.5Z"/><path class="cls-26" d="M265,323.16h0a1.09,1.09,0,0,1-1.18-1l-6.26-71a1.09,1.09,0,0,1,1-1.18h0a1.09,1.09,0,0,1,1.18,1L266,322A1.09,1.09,0,0,1,265,323.16Z"/><path class="cls-26" d="M268.86,322.83h0a1.09,1.09,0,0,1-1.18-1l-6.26-71a1.09,1.09,0,0,1,1-1.17h0a1.09,1.09,0,0,1,1.18,1l6.26,71A1.09,1.09,0,0,1,268.86,322.83Z"/><path class="cls-29" d="M207.56,142c5.95,3.13,9.74,34.13,12.68,39.3s10.44,18.17,10.44,18.17,3.9,7.14,3.23,10.14c0,0-4.7,1.66-5.54,1s-3.36-9.17-2.86-10.15c0,0-10.33-12.93-12.17-16.7s-10.87-30.12-10.87-30.12Z"/><path class="cls-5" d="M228,192l-7.74,4.18s-8.72-13.11-11.17-19.71c-.37-1-.79-2.17-1.25-3.46-2.63-7.31-6.35-18.17-6.35-18.17l3.87-6.57,3.73-6.35s3.24,3.6,5.71,17.81S228,192,228,192Z"/><path class="cls-30" d="M228,192l-7.74,4.18s-8.72-13.11-11.17-19.71c-.37-1-.79-2.17-1.25-3.46-2.63-7.31-6.35-18.17-6.35-18.17l3.87-6.57,3.73-6.35s3.24,3.6,5.71,17.81S228,192,228,192Z"/><path class="cls-26" d="M207.82,173c-2.63-7.31-6.35-18.17-6.35-18.17l3.87-6.57,3.12,4.18S211.4,164.1,207.82,173Z"/><polygon class="cls-31" points="221.34 324.11 215.73 325.1 213.43 317.45 211.33 310.42 217.8 308.16 219.68 316.61 221.34 324.11"/><polygon class="cls-26" points="219.71 316.78 213.46 317.6 211.34 310.5 217.81 308.2 219.71 316.78"/><polygon class="cls-31" points="183.87 326.52 178.17 326.52 177.23 318.58 176.39 311.3 183.15 310.2 183.53 318.84 183.87 326.52"/><polygon class="cls-26" points="183.53 319.01 177.23 318.74 176.39 311.38 183.15 310.24 183.53 319.01"/><path class="cls-23" d="M220.24,312.33,211,314c-9.31-23.2-15.93-42.56-20.61-58.64-2.52-8.67-4.49-16.38-6-23.22l.42,25.26v57.37h-9.37c-22.8-108.71-6.64-133.56-6.64-133.56l27.27-4.66a124,124,0,0,1,2.28,15.26l1.23,9,10.66,55.05Z"/><polygon class="cls-5" points="209.56 312.81 221.01 309.02 220.86 313.89 211.39 316.9 209.56 312.81"/><polygon class="cls-19" points="209.56 312.81 221.01 309.02 220.86 313.89 211.39 316.9 209.56 312.81"/><polygon class="cls-5" points="174.23 313.34 186.16 311.6 185.17 316.36 175.32 317.69 174.23 313.34"/><polygon class="cls-19" points="174.23 313.34 186.16 311.6 185.17 316.36 175.32 317.69 174.23 313.34"/><path class="cls-26" d="M191.65,259.56c-.43-1.44-.85-2.86-1.26-4.25-2.28-7.87-3.88-14.95-5.56-21.3v0l-1-11.69s5.82-12.86,3.64-21.9c.2.52,4.05,10.37,2.53,20.21A285.83,285.83,0,0,0,191.65,259.56Z"/><path class="cls-23" d="M185,324.39c0-.63-7.83-.13-7.83-.13s-4.81,4.89-9.49,6-2.06,3.9,3.17,3.9h12.91C187.49,334.15,185.17,331,185,324.39Z"/><path class="cls-5" d="M172.37,326.07a.76.76,0,0,1-.19-.83.82.82,0,0,1,.42-.53,3.16,3.16,0,0,1,1.76-.19c-.64-.34-1.2-.76-1.22-1.17s.16-.48.51-.65a1.21,1.21,0,0,1,1,0c1.06.44,1.71,2.26,1.74,2.34a.22.22,0,0,1,0,.16l0,0h0s0,0-.07.06a9.88,9.88,0,0,1-3.24,1A1.13,1.13,0,0,1,172.37,326.07Zm.44-1a.43.43,0,0,0-.23.27c-.07.31,0,.39.06.41.36.31,1.8-.13,3-.61A5,5,0,0,0,172.81,325.07Zm1-2c-.11.05-.28.15-.28.26,0,.35,1.14,1,2.3,1.4a3.48,3.48,0,0,0-1.34-1.68.92.92,0,0,0-.32-.07A.8.8,0,0,0,173.83,323.07Z"/><path class="cls-23" d="M223,324.39c0-.63-7.83-.13-7.83-.13s-4.81,4.89-9.49,6-2.06,3.9,3.17,3.9h12.91C225.49,334.15,223.17,331,223,324.39Z"/><path class="cls-5" d="M210.37,326.07a.76.76,0,0,1-.19-.83.82.82,0,0,1,.42-.53,3.16,3.16,0,0,1,1.76-.19c-.64-.34-1.2-.76-1.22-1.17s.16-.48.51-.65a1.21,1.21,0,0,1,1,0c1.06.44,1.71,2.26,1.74,2.34a.22.22,0,0,1,0,.16l0,0h0s0,0-.07.06a9.88,9.88,0,0,1-3.24,1A1.13,1.13,0,0,1,210.37,326.07Zm.44-1a.43.43,0,0,0-.23.27c-.07.31,0,.39.06.41.36.31,1.8-.13,3-.61A5,5,0,0,0,210.81,325.07Zm1-2c-.11.05-.28.15-.28.26,0,.35,1.14,1,2.3,1.4a3.48,3.48,0,0,0-1.34-1.68.92.92,0,0,0-.32-.07A.8.8,0,0,0,211.83,323.07Z"/><path class="cls-5" d="M174,142s-3.75,7.72-6.05,40.92l24.61,1.74,11.86-39.48Z"/><path class="cls-32" d="M174,142s-3.75,7.72-6.05,40.92l24.61,1.74,11.86-39.48Z"/><path class="cls-29" d="M195,129.61a1.06,1.06,0,0,1-.21.16,10.12,10.12,0,0,1-3.53,1.73c-3.72.85-6.27.34-7.93-1.34h0c-2.32-2.53-2.9-7-2.57-12.41a20,20,0,0,1,1.18-6.31.34.34,0,0,1,0-.1,2,2,0,0,0,.09-.22,7.38,7.38,0,0,1,5.42-4.51,15.21,15.21,0,0,1,3.2-.35C201.2,106.15,203.1,123.59,195,129.61Z"/><path class="cls-26" d="M194.81,129.77a9.87,9.87,0,0,1-3.53,1.58c-3.72.86-6.27.23-7.93-1.49a10.51,10.51,0,0,0,6.69-.54A5.49,5.49,0,0,1,194.81,129.77Z"/><path class="cls-29" d="M195.88,139.29c.64,3-3.24,4.22-3.24,4.22-6.35-2.72-7.53-6.09-7.53-6.09,5.3-2.77,3.76-10.59,3.76-10.59l1.08.53,7.57,1.48s-2.1,4-2.38,4.95c0,0,0,0,0,0C193.71,138.62,195.88,139.29,195.88,139.29Z"/><path class="cls-23" d="M181.94,111.37s-.58,7.39,6.42,10.56c0,0,3,7.67,7.43,7.78,6,.15,11.35-8.43,9.26-17.18C202.34,101.19,185.16,100.27,181.94,111.37Z"/><path class="cls-29" d="M184.82,119.81c0-1.15.92-3.09,2.72-2.83s2.88,4.85-1.68,5.87C185.21,123,184.81,122.21,184.82,119.81Z"/><path class="cls-33" d="M194.81,103.52s-7.05-1.78-10.95,1c-4.55,3.31-6.27,6.73-.89,12.05,0,0,11.84-3.84,15.77-3a43.74,43.74,0,0,1,6.75,2C206.32,107.74,198.74,101.92,194.81,103.52Z"/><path class="cls-34" d="M183.08,115.18s3.75,13.14,1.27,17.82c-4.72,8.95-.6,15.76-.6,15.76l1.68.24s-4.6-6.09-.61-10.42,3.9-16.31,3.2-19.78S183.08,115.18,183.08,115.18Z"/><path class="cls-35" d="M181.63,112.34s4.52,11.67,1.72,18-2.67,11,.05,14.18"/><path class="cls-29" d="M146.82,135.57l.79-10.56a4.36,4.36,0,0,0,1.32-2.15c.4-1.41.93-10,.93-10s-7.07-1.09-8.58,0c-.62.45-.17,11.52,1.59,11.93l-1.19,11.6Z"/><path class="cls-5" d="M209.07,214.22H168.72l1.89-39.78a92.29,92.29,0,0,0,2-14.6c.06-1,.1-2.05.13-3.16.09-2.74.1-5.83,0-9.43,0-.58,0-1.17-.05-1.77,0-1.41-.1-2.9-.17-4.46s-.16-3.5-.27-5.41a84,84,0,0,1,11.87.47,88.17,88.17,0,0,1,12.37,2.15c5.22,1.44,11,3.72,11,3.72s.8.44-.23,6.12c-.48,2.54-1.34,6.06-2.82,11.07s-3.56,11.51-6.49,20Z"/><path class="cls-36" d="M209.07,214.22H168.72l1.89-39.78a92.29,92.29,0,0,0,2-14.6c.06-1,.1-2.05.13-3.16.09-2.74.1-5.83,0-9.43,0-.58,0-1.17-.05-1.77,0-1.41-.1-2.9-.17-4.46s-.16-3.5-.27-5.41a84,84,0,0,1,11.87.47,88.17,88.17,0,0,1,12.37,2.15c5.22,1.44,11,3.72,11,3.72s.8.44-.23,6.12c-.48,2.54-1.34,6.06-2.82,11.07s-3.56,11.51-6.49,20Z"/><path class="cls-26" d="M172.77,156.68c.09-2.74.1-5.83,0-9.43,0-.58,0-1.17-.05-1.77l1.3-.36s4.5,5.9-1.39,14.72C172.7,158.84,172.74,157.79,172.77,156.68Z"/><path class="cls-5" d="M172.29,135.61s-22.45,14.73-23.85,13.47-.3-20.59-.3-20.59h-6.86s-5.51,29.45,1.28,32.61c7.89,3.68,30.28-9,30.28-9S175.86,140.94,172.29,135.61Z"/><path class="cls-37" d="M172.29,135.61s-22.45,14.73-23.85,13.47-.3-20.59-.3-20.59h-6.86s-5.51,29.45,1.28,32.61c7.89,3.68,30.28-9,30.28-9S175.86,140.94,172.29,135.61Z"/><path class="cls-38" d="M181.91,106.23s0,0-.06,0a10.8,10.8,0,0,0-2.21,11.5c1.08,2.55,3.11,4.58,4.5,7,2.73,4.68,2.84,10.37,2.93,15.78s.31,11.13,3.22,15.7a16.12,16.12,0,0,0,7.24,6.07c2.77,1.19,6.05,1.59,8.77.3a10.49,10.49,0,0,0,5.22-7c2.36-9.21-.55-19-4.6-27.31-.88-1.81-1.82-3.7-1.7-5.71.09-1.42.3-8.95.3-8.95a12.18,12.18,0,0,0-7.61-3.18C193.78,110.24,184.27,113.92,181.91,106.23Z"/></g></g></svg>