<svg width="74" height="32" viewBox="0 0 74 32" fill="none" xmlns="http://www.w3.org/2000/svg">
<mask id="mask0_3921_3051" style="mask-type:alpha" maskUnits="userSpaceOnUse" x="0" y="0" width="74" height="32">
<rect width="74" height="32" fill="#C4C4C4"/>
</mask>
<g mask="url(#mask0_3921_3051)">
</g>
<g clip-path="url(#clip0_3921_3051)">
<path d="M46.0402 24.9865C46.5601 24.9825 47.0739 24.8742 47.5513 24.668C48.0286 24.4619 48.4598 24.1621 48.8192 23.7864C49.5597 23.016 49.9717 21.9878 49.968 20.9192V11.103C49.9705 10.0287 49.5647 8.99349 48.8327 8.20705C48.4717 7.82993 48.0385 7.52937 47.5589 7.32333C47.0793 7.11729 46.5631 7.00998 46.0411 7.00781H36.4741C35.9544 7.01201 35.4407 7.12038 34.9635 7.32651C34.4863 7.53265 34.0553 7.83237 33.696 8.20795C32.9549 8.98928 32.5435 10.0262 32.5471 11.103V20.9336C32.5606 23.1647 34.3123 24.973 36.4741 24.9865" fill="#CF381E"/>
<path d="M43.3313 16.5537C42.9615 17.8249 43.5634 19.0961 44.8364 18.5869C44.4675 19.5055 43.8513 20.8757 43.8513 22.3025C43.8513 22.3025 43.8513 23.2624 44.535 23.5026C44.535 23.5026 45.4931 23.7428 45.288 22.8666C45.138 22.3198 45.0961 21.7489 45.1648 21.186C45.3991 20.0139 45.7524 18.8687 46.2191 17.7682C46.2191 17.7682 47.6829 14.6195 48.5313 13.1503C48.5313 13.1503 48.8875 12.4018 48.1624 12.4018C48.0521 12.404 47.9439 12.432 47.8465 12.4836C47.749 12.5351 47.6649 12.6088 47.601 12.6987L45.5345 16.497C45.2196 17.0908 44.9191 17.2743 44.6861 17.2743C44.1661 17.2743 44.2759 16.4125 44.3578 16.1021C44.5899 15.0423 44.9605 14.0257 45.4526 13.0514C45.8215 12.2183 45.0829 12.1472 45.0829 12.1472C44.6178 12.0204 44.2615 12.8112 44.2615 12.8112L43.441 14.534C42.9077 15.4878 42.323 16.4119 41.6894 17.3022C41.6894 17.3022 41.5796 17.4435 41.4978 17.3868C41.415 17.3166 41.4564 17.1754 41.4564 17.1754C41.5931 16.0031 41.8252 14.8453 42.1401 13.7009C42.1545 13.6298 42.1671 13.5741 42.1671 13.503C42.1839 13.3514 42.1399 13.1993 42.0448 13.0801C42.001 13.0193 41.9435 12.9696 41.8769 12.9352C41.8103 12.9008 41.7365 12.8826 41.6615 12.8822C41.2926 12.839 41.1136 13.0226 40.7852 13.4328C40.0601 14.3505 39.2117 15.735 38.8015 16.3567C38.7601 16.4269 38.6782 16.4125 38.6782 16.3135C38.6782 16.031 39.6364 12.9803 39.6364 12.9803C39.6364 12.9803 39.7452 12.5574 39.4169 12.4153C39.4169 12.4153 38.9113 12.0914 38.5001 12.7266L36.5299 15.4948C36.3787 15.7062 36.2969 15.6361 36.2969 15.6361V15.4525L36.6117 13.6442C36.8582 12.2606 36.3922 12.1895 36.0917 12.1328C35.8722 12.1328 35.6401 12.2039 35.4485 12.3307C34.8322 12.642 34.3671 13.8988 34.3671 13.8988C34.3671 13.8988 34.2304 14.3505 34.5308 14.534C34.6271 14.5907 34.7369 14.633 34.8457 14.6186C35.2839 14.5907 35.3666 13.7576 35.6806 13.7576C35.7355 13.7576 35.7355 13.8278 35.7355 13.8422L34.7234 18.2343C34.6918 18.3568 34.6984 18.486 34.7423 18.6047C34.7861 18.7233 34.8653 18.8258 34.969 18.8982C35.1066 18.9828 35.2569 18.9972 35.4071 18.9693C35.5488 18.9219 35.6696 18.8268 35.749 18.7003L36.1187 18.1074C36.6522 17.1331 37.6382 15.735 37.7336 15.735C37.775 15.735 37.7885 15.735 37.7885 15.7773L37.4196 18.362C37.4013 18.4743 37.4192 18.5896 37.4708 18.691C37.5224 18.7924 37.605 18.8748 37.7066 18.9261C37.7997 18.9613 37.8994 18.9758 37.9987 18.9685C38.098 18.9612 38.1945 18.9323 38.2815 18.8838C38.4866 18.7147 38.6648 18.5024 38.788 18.2631C38.9931 17.9239 39.9782 16.7228 40.5801 15.6217C40.6215 15.5506 40.6629 15.6217 40.6485 15.664C40.5261 16.2433 40.4299 17.7826 40.4164 18.1641C40.3894 18.9126 40.9499 18.9972 40.9634 18.9972C41.3331 19.0251 41.6885 18.8559 41.8945 18.5455" fill="white"/>
<path d="M13.8794 18.2642H12.7845V15.7361C12.8007 15.4581 12.7443 15.1806 12.6207 14.9309C12.5609 14.8389 12.4768 14.7651 12.3778 14.7177C12.2788 14.6702 12.1686 14.6509 12.0594 14.6619C11.8677 14.6619 11.6905 14.7042 11.5394 14.8032C11.3759 14.9176 11.2403 15.0673 11.1426 15.2413V18.2642H10.0477V13.6732H10.6631L11.0742 14.294C11.184 14.195 11.2929 14.1105 11.4026 14.0259C11.5124 13.9548 11.6212 13.899 11.7445 13.8424C11.8677 13.7857 11.991 13.7434 12.1142 13.7155C12.2375 13.6867 12.3742 13.6732 12.511 13.6732C12.6612 13.6732 12.8124 13.6867 12.9491 13.729C13.0589 13.7713 13.1677 13.8136 13.2775 13.8846C13.3594 13.9548 13.4412 14.0403 13.5105 14.1248C13.5915 14.2373 13.6472 14.3363 13.7021 14.4496C13.89 14.2435 14.1122 14.0715 14.3589 13.9413C14.4821 13.8568 14.6189 13.7857 14.7691 13.729C14.9338 13.6867 15.0975 13.6588 15.2756 13.6588C15.4942 13.6588 15.6994 13.7155 15.891 13.8136C16.0691 13.9269 16.2203 14.0682 16.3156 14.2373C16.4254 14.4496 16.5072 14.661 16.5486 14.9012C16.6026 15.1702 16.6296 15.4383 16.6296 15.7199V18.2633H15.523V15.7361C15.55 15.4536 15.496 15.1711 15.3584 14.9309C15.3014 14.8395 15.22 14.7658 15.1233 14.7183C15.0267 14.6707 14.9186 14.6512 14.8114 14.6619C14.6333 14.6619 14.4551 14.7051 14.2914 14.8032C14.1205 14.9134 13.9794 15.0638 13.8803 15.2413L13.8794 18.2642ZM20.2021 16.1734H19.2305C19.027 16.1612 18.8252 16.2158 18.6556 16.329C18.5421 16.4463 18.4786 16.603 18.4784 16.7662C18.4784 16.9219 18.5324 17.0631 18.6421 17.1765C18.7654 17.2754 18.93 17.3312 19.0938 17.3177C19.217 17.3177 19.3403 17.3033 19.4626 17.261C19.5733 17.2332 19.6821 17.19 19.7775 17.1342C19.8738 17.0631 19.9556 16.9929 20.0249 16.9219C20.1059 16.8373 20.1616 16.7527 20.2165 16.6682L20.2021 16.1734ZM20.2021 17.755C20.0519 17.9106 19.8603 18.0374 19.6686 18.1229C19.4086 18.2219 19.1351 18.2777 18.8616 18.2642C18.6648 18.2741 18.4681 18.2403 18.2859 18.1652C18.1196 18.0929 17.9671 17.9925 17.8351 17.8683C17.7137 17.7302 17.6164 17.5727 17.5472 17.4023C17.4813 17.2167 17.4491 17.0208 17.4519 16.8238C17.4519 15.9763 18.0951 15.4248 19.1216 15.4248H20.2156V15.1711C20.216 15.0923 20.1945 15.0149 20.1535 14.9476C20.1125 14.8803 20.0537 14.8256 19.9835 14.7897C19.761 14.6863 19.517 14.6379 19.2719 14.6484C18.9984 14.6484 18.724 14.6907 18.464 14.7474C18.2547 14.8052 18.0492 14.8758 17.8486 14.9588L17.7254 14.0124C17.7938 13.9701 17.89 13.9422 18.0133 13.8999C18.1221 13.8577 18.2589 13.8289 18.3821 13.7866C18.5054 13.7587 18.67 13.7299 18.8338 13.702C18.9984 13.6741 19.1756 13.6741 19.3538 13.6741C19.608 13.6537 19.8637 13.6843 20.1058 13.7644C20.348 13.8444 20.5716 13.9722 20.7635 14.1401C21.1054 14.5072 21.27 15.0011 21.2421 15.4959V18.2642H20.4621L20.2021 17.755ZM26.3747 13.6039L24.6095 15.8909L26.6212 18.2498H25.2528L23.3905 15.9197V18.2498H22.3109V11.9648H23.3905V15.9197L25.0468 13.603H26.3747V13.6039ZM28.7965 14.6907C28.6598 14.6907 28.523 14.7051 28.4007 14.7474C28.29 14.7761 28.1871 14.8289 28.0993 14.9021C28.0057 14.9609 27.9298 15.0439 27.8798 15.1424C27.8258 15.2413 27.7844 15.3403 27.7565 15.4536H29.6863C29.6863 15.3547 29.6728 15.2557 29.6323 15.1568C29.5954 15.0657 29.5393 14.9838 29.4677 14.9165C29.3852 14.8472 29.293 14.7902 29.1942 14.7474C29.0668 14.7019 28.9315 14.6826 28.7965 14.6907ZM29.0025 17.2754C29.1663 17.2754 29.3444 17.261 29.5081 17.2188C29.6593 17.19 29.8095 17.1477 29.9463 17.0919C30.0695 17.0487 30.1928 16.9929 30.3025 16.9219C30.3565 16.894 30.4114 16.8517 30.4663 16.8094L30.6714 17.8116C30.4358 17.9425 30.1885 18.0512 29.9328 18.1364C29.63 18.2213 29.317 18.2643 29.0025 18.2642C28.6607 18.2642 28.3179 18.2075 27.9895 18.0941C27.717 17.993 27.4696 17.834 27.2644 17.6281C27.0607 17.426 26.9062 17.1797 26.8128 16.9084C26.6929 16.6169 26.6279 16.3058 26.6212 15.9907C26.6212 15.6938 26.6616 15.397 26.7579 15.1145C26.8533 14.832 26.99 14.5918 27.1816 14.366C27.3598 14.1536 27.5928 13.9845 27.8528 13.8711C28.445 13.631 29.1075 13.631 29.6998 13.8711C29.9463 13.9701 30.1514 14.1401 30.3295 14.3372C30.4942 14.5351 30.6174 14.7609 30.6984 15.0011C30.7677 15.2557 30.809 15.5229 30.809 15.7928V16.0321C30.7947 16.1167 30.7821 16.2021 30.7677 16.2723H27.743C27.7565 16.428 27.797 16.5692 27.8663 16.6961C27.9203 16.8229 28.0165 16.9363 28.1263 17.0208C28.236 17.1198 28.3593 17.19 28.5095 17.2188C28.6598 17.2754 28.8244 17.3033 29.0016 17.3033V17.2754H29.0025ZM51.036 14.3237L52.4862 12.5154H52.8155V13.6597H54.0606V14.6475H52.8155V16.5395C52.8155 16.6385 52.829 16.7518 52.856 16.8643C52.8865 16.9407 52.928 17.0122 52.9792 17.0766C53.0341 17.1189 53.1025 17.1612 53.1708 17.1756C53.2404 17.2045 53.3151 17.2189 53.3904 17.2179C53.5127 17.2179 53.636 17.2035 53.7457 17.1612C53.8555 17.1477 53.9509 17.1045 54.0471 17.0622V18.0662C53.9374 18.1229 53.8141 18.1652 53.6774 18.1931C53.2969 18.2782 52.9008 18.2636 52.5276 18.1508C52.3534 18.0926 52.1944 17.9961 52.0625 17.8683C51.947 17.7363 51.8587 17.5828 51.8025 17.4167C51.7408 17.225 51.7131 17.0241 51.7206 16.8229V14.6763H51.009L51.036 14.3237ZM55.922 14.6206C56.0866 14.3372 56.2909 14.0979 56.5518 13.9134C56.7704 13.7443 57.0439 13.6597 57.3318 13.6741C57.4133 13.6598 57.4967 13.6598 57.5783 13.6741L57.7285 13.7011C57.7285 13.7011 57.7015 13.9566 57.5369 14.7474C57.455 14.733 57.3722 14.7186 57.2904 14.733C57.1028 14.7233 56.9156 14.7571 56.7434 14.832C56.5808 14.9033 56.4393 15.0151 56.3322 15.1568C56.216 15.3044 56.1279 15.4721 56.0722 15.6516C56.0183 15.8765 55.9904 16.1032 55.9904 16.329V18.2633H54.8955V13.675H55.5792L55.922 14.6206ZM62.6415 14.6763C62.5202 14.6663 62.3983 14.6858 62.2861 14.733C62.0776 14.8108 61.8967 14.9485 61.7661 15.1289C61.7113 15.2134 61.6564 15.298 61.6285 15.397V16.6961C61.6707 16.7798 61.7263 16.8561 61.7931 16.9219C61.8615 16.9929 61.9299 17.0487 62.0118 17.1054C62.108 17.1621 62.2034 17.2044 62.2996 17.2332C62.5731 17.3033 62.8601 17.2889 63.1201 17.19C63.2434 17.1198 63.3666 17.0352 63.4485 16.9219C63.5448 16.8085 63.6131 16.6673 63.6545 16.526C63.695 16.3569 63.7229 16.1734 63.7364 15.9898C63.7364 15.8207 63.7094 15.6372 63.6545 15.4527C63.6142 15.2997 63.5442 15.156 63.4485 15.0299C63.3577 14.9141 63.2405 14.8219 63.1066 14.7609C62.9757 14.6935 62.8301 14.6595 62.6829 14.6619L62.6415 14.6763ZM62.9429 13.6741C63.2434 13.6597 63.5313 13.7299 63.7913 13.8577C64.0234 13.9836 64.215 14.1545 64.3796 14.3794C64.5299 14.6062 64.6531 14.8599 64.7215 15.128C64.7899 15.4105 64.8313 15.7073 64.8313 15.9898C64.8313 16.2867 64.7899 16.5836 64.708 16.8652C64.6406 17.1274 64.5196 17.3727 64.3527 17.5858C64.1977 17.7943 63.9962 17.9637 63.7643 18.0806C63.5131 18.2044 63.2364 18.2673 62.9564 18.2642C62.6897 18.2678 62.4249 18.2198 62.1764 18.1229C61.9658 18.0281 61.7787 17.8881 61.6285 17.7127V20.0994H60.5336V13.6741H61.1769L61.6015 14.2247C61.7762 14.0494 61.9802 13.906 62.2043 13.801C62.4364 13.7164 62.6829 13.6597 62.9294 13.6741H62.9429ZM58.8513 11.7956C58.7762 11.796 58.7019 11.8113 58.6329 11.8407C58.5638 11.8701 58.5013 11.913 58.449 11.9669C58.3967 12.0208 58.3557 12.0845 58.3284 12.1545C58.3011 12.2244 58.288 12.2991 58.2899 12.3741C58.2899 12.6989 58.5355 12.9679 58.8504 12.9679C59.1652 12.9679 59.4118 12.6989 59.4118 12.3741C59.4158 12.298 59.4031 12.222 59.3747 12.1513C59.3462 12.0806 59.3027 12.0169 59.2471 11.9648C59.1979 11.9079 59.1372 11.8621 59.0689 11.8305C59.0007 11.7988 58.9265 11.782 58.8513 11.7812V11.7956ZM59.3839 18.2642H58.289V13.6741H59.3839V18.2642Z" fill="#174880"/>
</g>
<defs>
<clipPath id="clip0_3921_3051">
<rect width="54.8789" height="17.9931" fill="white" transform="translate(10 7)"/>
</clipPath>
</defs>
</svg>
